<svg width="830" height="601" viewBox="0 0 830 601" fill="none" xmlns="http://www.w3.org/2000/svg">
<path d="M37.9726 584.172C39.4817 593.788 47.4043 601 56.6475 601H339.6C348.843 601 356.766 593.988 358.275 584.172L380.722 440.733H449.385L471.833 584.172C473.342 593.788 481.265 601 490.508 601H773.46C782.703 601 790.626 593.988 792.135 584.172C792.135 583.571 830.051 343.772 829.862 343.171C831.182 331.552 822.882 320.133 811.187 320.333C666.504 320.333 163.603 320.333 18.9205 320.333C7.60237 319.932 -1.64074 331.952 0.245607 343.572L37.9726 583.972V584.172Z" fill="black"/>
<path d="M628.4 100.167L693.668 280.467H806.849L696.308 12.02C693.29 4.80801 686.5 0 678.954 0H565.773C555.398 0 546.91 9.015 546.91 20.0333V80.1333C546.91 91.1517 555.398 100.167 565.773 100.167H628.4Z" fill="black"/>
<path d="M264.146 100.167C274.521 100.167 283.009 91.1517 283.009 80.1333V20.0333C283.009 9.015 274.521 0 264.146 0H150.965C143.42 0 136.629 4.80801 133.611 12.02L23.0704 280.467H136.251L201.519 100.167H264.146Z" fill="black"/>
</svg>
