<svg width="743" height="810" viewBox="0 0 743 810" fill="none" xmlns="http://www.w3.org/2000/svg">
<path d="M193.304 0C87.1016 0 0 89.2796 0 198.096C0 306.938 87.1351 396.192 193.304 396.192H549.662C655.865 396.192 743 306.947 743 198.096C743 89.2453 655.865 0 549.662 0H193.304ZM549.662 123.885C589.944 123.885 622.085 156.783 622.085 198.09C622.085 239.397 589.944 272.295 549.662 272.295C509.38 272.295 477.24 239.397 477.24 198.09C477.24 156.783 509.38 123.885 549.662 123.885ZM193.304 413.808C87.1016 413.808 0 503.053 0 611.904C0 720.755 87.1351 810 193.304 810H549.662C655.865 810 743 720.72 743 611.904C743 503.062 655.865 413.808 549.662 413.808H193.304ZM193.304 537.659C233.586 537.659 265.727 570.557 265.727 611.864C265.727 653.171 233.586 686.069 193.304 686.069C153.022 686.069 120.882 653.171 120.882 611.864C120.882 570.557 153.022 537.659 193.304 537.659Z" fill="black"/>
</svg>
