<svg width="769" height="838" viewBox="0 0 769 838" fill="none" xmlns="http://www.w3.org/2000/svg">
<path d="M129.433 768.801C158.574 803.957 202.354 838 252.745 838C281.414 838 305.767 824.907 331.94 815.348C356.046 806.722 381.53 802.29 407.223 802.255C432.009 802.116 456.573 806.79 479.47 816.003C491.612 820.979 503.619 826.281 515.964 830.864C528.49 835.556 541.798 837.975 555.224 838C580.062 837.724 604.233 830.17 624.57 816.33C683.663 777.05 727.443 708.047 758.474 647.621C761.577 641.598 764.545 635.51 767.513 629.487C772.437 619.405 764.68 606.639 750.918 599.306C690.207 566.965 654.656 516.948 648.72 447.946C642.784 378.943 670.442 324.475 725.959 284.932L736.887 276.225C742.958 271.381 739.653 257.96 728.253 247.485C686.26 207.353 630.002 184.389 571.077 183.327C559.64 183.333 548.224 184.252 536.943 186.077C485.676 194.588 444.527 218.287 396.227 218.287C381.572 218.302 367.006 216.093 353.054 211.74C312.58 199.17 272.375 183.327 229.337 183.327C224.615 183.327 219.826 183.327 215.036 183.916C161.978 189.404 112.436 212.29 74.59 248.794C-0.0179638 320.154 -10.6088 430.99 8.00947 524.674C25.8857 615.411 69.868 697.18 129.433 768.801Z" fill="black"/>
<path d="M391.235 183.327C392.2 183.41 393.171 183.41 394.136 183.327C536.673 157.533 552.256 50.6905 553.133 11.672C553.164 10.0943 552.858 8.52754 552.235 7.06985C551.613 5.61215 550.687 4.29499 549.515 3.20093C548.343 2.10686 546.951 1.25949 545.427 0.711916C543.902 0.164346 542.277 -0.0716105 540.653 0.018837C539.45 0.0176649 538.251 0.149448 537.078 0.411641C393.124 32.7525 378.148 133.507 377.744 171.15C377.777 172.818 378.157 174.462 378.859 175.985C379.561 177.508 380.571 178.878 381.83 180.014C383.088 181.15 384.57 182.029 386.186 182.598C387.801 183.167 389.519 183.415 391.235 183.327ZM524.531 30.723C518.797 70.3962 495.12 131.477 406.076 153.736C411.472 116.485 434.138 57.4336 524.531 30.723Z" fill="black"/>
</svg>
