<svg width="545" height="829" viewBox="0 0 545 829" fill="none" xmlns="http://www.w3.org/2000/svg">
<path d="M437.692 7.93689H436.697C434.614 3.29971 429.325 0 423.111 0H335.556C329.331 0 324.054 3.29971 321.971 7.93689H116.716C31.8464 7.93689 9.40812 67.1463 9.40812 98.4546V99.2844C3.91137 101.051 0 105.503 0 110.755V135.376C0 140.628 3.91137 145.08 9.40812 146.847V173.137C3.91137 174.904 0 179.356 0 184.618V209.229C0 214.482 3.91137 218.933 9.40812 220.7V246.991C3.91137 248.758 0 253.209 0 258.461V283.082C0 288.335 3.91137 292.786 9.40812 294.553V738.492C9.40812 769.8 31.8349 829 116.716 829H437.692C522.562 829 545 769.8 545 738.492V98.4546C545.012 67.1463 522.562 7.93689 437.692 7.93689ZM505.481 738.424C505.4 744.291 502.901 795.671 437.703 795.671H116.716C51.5075 795.671 49.0079 744.281 48.9384 738.512V98.4546C48.9384 92.5971 50.8478 41.2757 116.716 41.2757H437.692C502.901 41.2757 505.4 92.6752 505.47 98.4546L505.481 738.424Z" fill="black"/>
<path d="M102.124 649.556C100.307 649.556 98.8258 650.806 98.8258 652.338C98.8258 653.881 100.295 655.121 102.124 655.121H145.901C147.718 655.121 149.199 653.881 149.199 652.338C149.199 650.806 147.73 649.556 145.901 649.556H102.124Z" fill="black"/>
<path d="M160.482 627.727V590.796C160.482 590.796 160.482 578.495 145.89 578.495H102.124C87.5314 578.495 87.543 590.796 87.543 590.796V627.727C87.543 627.727 87.543 640.038 102.135 640.038H145.901C160.494 640.028 160.482 627.727 160.482 627.727Z" fill="black"/>
<path d="M204.259 649.556C202.442 649.556 200.961 650.806 200.961 652.338C200.961 653.881 202.431 655.121 204.259 655.121H248.025C249.853 655.121 251.323 653.881 251.323 652.338C251.323 650.806 249.853 649.556 248.025 649.556H204.259Z" fill="black"/>
<path d="M262.617 627.727V590.796C262.617 590.796 262.617 578.495 248.025 578.495H204.259C189.667 578.495 189.678 590.796 189.678 590.796V627.727C189.678 627.727 189.678 640.038 204.271 640.038H248.037C262.629 640.028 262.617 627.727 262.617 627.727Z" fill="black"/>
<path d="M306.383 649.556C304.578 649.556 303.097 650.806 303.097 652.338C303.097 653.881 304.578 655.121 306.383 655.121H350.16C351.966 655.121 353.447 653.881 353.447 652.338C353.447 650.806 351.966 649.556 350.16 649.556H306.383Z" fill="black"/>
<path d="M364.741 627.727V590.796C364.741 590.796 364.741 578.495 350.149 578.495H306.383C291.791 578.495 291.802 590.796 291.802 590.796V627.727C291.802 627.727 291.802 640.038 306.406 640.038H350.16C364.764 640.028 364.741 627.727 364.741 627.727Z" fill="black"/>
<path d="M408.519 649.556C406.69 649.556 405.22 650.806 405.22 652.338C405.22 653.881 406.69 655.121 408.519 655.121H452.273C454.101 655.121 455.571 653.881 455.571 652.338C455.571 650.806 454.101 649.556 452.273 649.556H408.519Z" fill="black"/>
<path d="M466.877 627.727V590.796C466.877 590.796 466.877 578.495 452.273 578.495H408.519C393.915 578.495 393.926 590.796 393.926 590.796L393.938 627.727C393.938 627.727 393.938 640.038 408.53 640.038H452.296C466.877 640.028 466.877 627.727 466.877 627.727Z" fill="black"/>
<path d="M288.516 728.964H265.915V748.02H288.516V728.964Z" fill="black"/>
<path d="M58.3582 738.502C58.3582 738.502 58.3581 787.724 116.716 787.724H437.692C496.05 787.724 496.05 738.502 496.05 738.502V664.649H58.3582V738.502ZM259.331 726.191C259.331 724.649 260.801 723.409 262.629 723.409H291.802C293.631 723.409 295.1 724.649 295.1 726.191V750.803C295.1 752.345 293.631 753.585 291.802 753.585H262.629C260.812 753.585 259.331 752.345 259.331 750.803V726.191Z" fill="black"/>
<path d="M233.433 95.682H320.964C327.19 95.682 332.27 91.406 332.27 86.1441C332.27 80.8919 327.201 76.6159 320.964 76.6159H233.433C227.195 76.6159 222.127 80.8919 222.127 86.1441C222.138 91.406 227.207 95.682 233.433 95.682Z" fill="black"/>
<path d="M437.692 49.2224H116.716C58.3581 49.2224 58.3582 98.4546 58.3582 98.4546V566.184H496.062V98.4546C496.05 98.4546 496.05 49.2224 437.692 49.2224ZM233.433 71.0611H320.964C330.835 71.0611 338.854 77.8265 338.854 86.1441C338.854 94.4715 330.835 101.237 320.964 101.237H233.433C223.562 101.237 215.542 94.4715 215.542 86.1441C215.542 77.8265 223.573 71.0611 233.433 71.0611ZM145.901 482.803H102.124C100.307 482.803 98.8258 481.554 98.8258 480.031C98.8258 478.488 100.295 477.248 102.124 477.248H145.901C147.718 477.248 149.199 478.488 149.199 480.031C149.188 481.554 147.718 482.803 145.901 482.803ZM145.901 467.71H102.135C87.543 467.71 87.543 455.4 87.543 455.4V418.478C87.543 418.478 87.543 406.168 102.124 406.168H145.89C160.482 406.168 160.482 418.478 160.482 418.478V455.4C160.482 455.4 160.494 467.71 145.901 467.71ZM72.9506 160.251L98.8258 149.327V160.251H72.9506ZM98.8258 381.557C98.8258 380.024 100.295 378.774 102.124 378.774H145.901C147.718 378.774 149.199 380.014 149.199 381.557C149.199 383.099 147.73 384.339 145.901 384.339H102.124C100.307 384.339 98.8258 383.099 98.8258 381.557ZM145.901 369.246H102.135C87.543 369.246 87.543 356.936 87.543 356.936V320.014C87.543 320.014 87.543 307.703 102.124 307.703H145.89C160.482 307.703 160.482 320.014 160.482 320.014V356.936C160.482 356.936 160.494 369.246 145.901 369.246ZM98.8258 283.092C98.8258 281.55 100.295 280.31 102.124 280.31H145.901C147.718 280.31 149.199 281.55 149.199 283.092C149.199 284.625 147.73 285.875 145.901 285.875H102.124C100.307 285.875 98.8258 284.625 98.8258 283.092ZM145.901 270.782H102.135C87.543 270.782 87.543 258.471 87.543 258.471V221.55C87.543 221.55 87.543 209.239 102.124 209.239H145.89C160.482 209.239 160.482 221.55 160.482 221.55V258.471C160.482 258.471 160.494 270.782 145.901 270.782ZM105.422 160.251V147.95H131.309V160.261L105.422 160.251ZM164.752 160.261L154.441 151.562C164.764 142.854 175.074 151.562 175.074 151.562L164.752 160.261ZM248.025 482.803H204.259C202.442 482.803 200.961 481.554 200.961 480.031C200.961 478.488 202.431 477.248 204.259 477.248H248.025C249.853 477.248 251.323 478.488 251.323 480.031C251.323 481.554 249.853 482.803 248.025 482.803ZM248.025 467.71H204.259C189.667 467.71 189.667 455.4 189.667 455.4V418.478C189.667 418.478 189.667 406.168 204.248 406.168H248.013C262.606 406.168 262.606 418.478 262.606 418.478V455.4C262.617 455.4 262.629 467.71 248.025 467.71ZM200.961 381.557C200.961 380.024 202.431 378.774 204.259 378.774H248.025C249.853 378.774 251.323 380.014 251.323 381.557C251.323 383.099 249.853 384.339 248.025 384.339H204.259C202.431 384.339 200.961 383.099 200.961 381.557ZM248.025 369.246H204.259C189.667 369.246 189.667 356.936 189.667 356.936V320.014C189.667 320.014 189.667 307.703 204.248 307.703H248.013C262.606 307.703 262.606 320.014 262.606 320.014V356.936C262.617 356.936 262.629 369.246 248.025 369.246ZM200.961 283.092C200.961 281.55 202.431 280.31 204.259 280.31H248.025C249.853 280.31 251.323 281.55 251.323 283.092C251.323 284.625 249.853 285.875 248.025 285.875H204.259C202.431 285.875 200.961 284.625 200.961 283.092ZM248.025 270.782H204.259C189.667 270.782 189.667 258.471 189.667 258.471V221.55C189.667 221.55 189.667 209.239 204.248 209.239H248.013C262.606 209.239 262.606 221.55 262.606 221.55V258.471C262.617 258.471 262.629 270.782 248.025 270.782ZM233.444 160.251V147.95H320.987V160.251H233.444ZM350.16 482.803H306.383C304.578 482.803 303.097 481.554 303.097 480.031C303.097 478.488 304.578 477.248 306.383 477.248H350.16C351.966 477.248 353.447 478.488 353.447 480.031C353.447 481.554 351.966 482.803 350.16 482.803ZM350.16 467.71H306.406C291.802 467.71 291.802 455.4 291.802 455.4V418.478C291.802 418.478 291.791 406.168 306.383 406.168H350.149C364.741 406.168 364.741 418.478 364.741 418.478V455.4C364.741 455.4 364.764 467.71 350.16 467.71ZM303.097 381.557C303.097 380.024 304.578 378.774 306.383 378.774H350.16C351.966 378.774 353.447 380.014 353.447 381.557C353.447 383.099 351.966 384.339 350.16 384.339H306.383C304.578 384.339 303.097 383.099 303.097 381.557ZM350.16 369.246H306.406C291.802 369.246 291.802 356.936 291.802 356.936V320.014C291.802 320.014 291.791 307.703 306.383 307.703H350.149C364.741 307.703 364.741 320.014 364.741 320.014V356.936C364.741 356.936 364.764 369.246 350.16 369.246ZM303.097 283.092C303.097 281.55 304.578 280.31 306.383 280.31H350.16C351.966 280.31 353.447 281.55 353.447 283.092C353.447 284.625 351.966 285.875 350.16 285.875H306.383C304.578 285.875 303.097 284.625 303.097 283.092ZM350.16 270.782H306.406C291.802 270.782 291.802 258.471 291.802 258.471V221.55C291.802 221.55 291.791 209.239 306.383 209.239H350.149C364.741 209.239 364.741 221.55 364.741 221.55V258.471C364.741 258.471 364.764 270.782 350.16 270.782ZM452.273 482.803H408.518C406.69 482.803 405.22 481.554 405.22 480.031C405.22 478.488 406.69 477.248 408.518 477.248H452.273C454.101 477.248 455.571 478.488 455.571 480.031C455.571 481.554 454.101 482.803 452.273 482.803ZM452.296 467.71H408.53C393.938 467.71 393.938 455.4 393.938 455.4L393.926 418.478C393.926 418.478 393.914 406.168 408.518 406.168H452.273C466.877 406.168 466.877 418.478 466.877 418.478V455.4C466.877 455.4 466.877 467.71 452.296 467.71ZM405.22 381.557C405.22 380.024 406.69 378.774 408.518 378.774H452.273C454.101 378.774 455.571 380.014 455.571 381.557C455.571 383.099 454.101 384.339 452.273 384.339H408.518C406.69 384.339 405.22 383.099 405.22 381.557ZM452.296 369.246H408.53C393.938 369.246 393.938 356.936 393.938 356.936L393.926 320.014C393.926 320.014 393.914 307.703 408.518 307.703H452.273C466.877 307.703 466.877 320.014 466.877 320.014V356.936C466.877 356.936 466.877 369.246 452.296 369.246ZM405.22 283.092C405.22 281.55 406.69 280.31 408.518 280.31H452.273C454.101 280.31 455.571 281.55 455.571 283.092C455.571 284.625 454.101 285.875 452.273 285.875H408.518C406.69 285.875 405.22 284.625 405.22 283.092ZM452.296 270.782H408.53C393.938 270.782 393.938 258.471 393.938 258.471L393.926 221.55C393.926 221.55 393.914 209.239 408.518 209.239H452.273C466.877 209.239 466.877 221.55 466.877 221.55V258.471C466.877 258.471 466.877 270.782 452.296 270.782ZM481.458 160.251H393.926V147.95H481.458V160.251ZM484.756 135.386C484.756 136.919 483.286 138.168 481.458 138.168H72.939C71.1106 138.168 69.6409 136.928 69.6409 135.386C69.6409 133.844 71.1106 132.604 72.939 132.604H481.446C483.286 132.604 484.756 133.853 484.756 135.386Z" fill="black"/>
</svg>
