<svg width="579" height="825" viewBox="0 0 579 825" fill="none" xmlns="http://www.w3.org/2000/svg">
<path d="M512.191 0H66.8085C29.9666 0 0 25.0242 0 55.7604V769.24C0 799.985 29.9775 825 66.8085 825H512.191C549.044 825 579 799.976 579 769.24V55.7604C579 25.0242 549.044 0 512.191 0ZM512.191 802.687H66.8085C44.7056 802.687 26.7299 787.672 26.7299 769.24V55.7604C26.7299 37.3277 44.7056 22.2951 66.8085 22.2951H512.191C534.305 22.2951 552.27 37.3277 552.27 55.7604V769.24C552.27 787.672 534.305 802.687 512.191 802.687Z" fill="black"/>
<path d="M234.552 62.5061H344.437C349.379 62.5061 353.333 59.1786 353.333 55.0896C353.333 50.9642 349.379 47.6548 344.437 47.6548H234.552C229.643 47.6548 225.646 50.9642 225.646 55.0896C225.646 59.1786 229.643 62.5061 234.552 62.5061Z" fill="black"/>
<path d="M403.599 66.6496C411.778 66.6496 418.414 61.0917 418.414 54.2554C418.414 47.4191 411.778 41.8612 403.599 41.8612C395.377 41.8612 388.741 47.4191 388.741 54.2554C388.741 61.0917 395.377 66.6496 403.599 66.6496Z" fill="black"/>
<path d="M460.969 54.2554C460.969 78.8897 437.031 98.8637 407.531 98.8637H171.469C141.97 98.8637 118.02 78.8897 118.02 54.2554V54.609H55.6756V770.382H523.335V54.609H460.98L460.969 54.2554ZM241.406 160.599C241.406 151.442 250.279 144.043 261.239 144.043H319.358C330.35 144.043 339.191 151.442 339.191 160.599V209.124C339.191 218.264 330.35 225.68 319.358 225.68H261.239C250.279 225.68 241.406 218.264 241.406 209.124V160.599ZM241.406 274.731C241.406 265.556 250.279 258.157 261.239 258.157H319.358C330.35 258.157 339.191 265.556 339.191 274.731V323.256C339.191 332.396 330.35 339.812 319.358 339.812H261.239C250.279 339.812 241.406 332.396 241.406 323.256V274.731ZM304.348 594.896C304.348 601.732 297.711 607.29 289.533 607.29C281.321 607.29 274.685 601.732 274.685 594.896C274.685 588.059 281.321 582.501 289.533 582.501C297.711 582.501 304.348 588.059 304.348 594.896ZM203.619 716.979C203.619 726.137 194.789 733.553 183.819 733.553H125.677C114.718 733.553 105.855 726.137 105.855 716.979V668.454C105.855 659.315 114.718 651.916 125.677 651.916H183.819C194.799 651.916 203.619 659.315 203.619 668.454V716.979ZM203.619 323.247C203.619 332.386 194.789 339.803 183.819 339.803H125.677C114.718 339.803 105.855 332.386 105.855 323.247V274.722C105.855 265.547 114.718 258.148 125.677 258.148H183.819C194.799 258.148 203.619 265.547 203.619 274.722V323.247ZM203.619 209.115C203.619 218.254 194.789 225.671 183.819 225.671H125.677C114.718 225.671 105.855 218.254 105.855 209.115V160.59C105.855 151.433 114.718 144.034 125.677 144.034H183.819C194.799 144.034 203.619 151.433 203.619 160.59V209.115ZM219.737 594.896C219.737 588.059 226.363 582.501 234.585 582.501C242.763 582.501 249.411 588.059 249.411 594.896C249.411 601.732 242.763 607.29 234.585 607.29C226.374 607.29 219.737 601.732 219.737 594.896ZM339.191 716.979C339.191 726.137 330.35 733.553 319.358 733.553H261.239C250.279 733.553 241.406 726.137 241.406 716.979V668.454C241.406 659.315 250.279 651.916 261.239 651.916H319.358C330.35 651.916 339.191 659.315 339.191 668.454V716.979ZM344.481 607.29C336.269 607.29 329.622 601.732 329.622 594.896C329.622 588.059 336.269 582.501 344.481 582.501C352.659 582.501 359.295 588.059 359.295 594.896C359.295 601.732 352.659 607.29 344.481 607.29ZM474.72 716.979C474.72 726.137 465.889 733.553 454.919 733.553H396.767C385.808 733.553 376.934 726.137 376.934 716.979V668.454C376.934 659.315 385.808 651.916 396.767 651.916H454.919C465.889 651.916 474.72 659.315 474.72 668.454V716.979ZM474.72 160.599V209.124C474.72 218.264 465.889 225.68 454.919 225.68H396.767C385.808 225.68 376.934 218.264 376.934 209.124V160.599C376.934 151.442 385.808 144.043 396.767 144.043H454.919C465.878 144.043 474.72 151.442 474.72 160.599Z" fill="black"/>
</svg>
