<svg width="823" height="788" viewBox="0 0 823 788" fill="none" xmlns="http://www.w3.org/2000/svg">
<path d="M823 147.756C823 66.2597 767.642 0 699.554 0H123.446C55.3967 0 0 66.2597 0 147.756C0 191.252 16.0865 230.037 41.1619 257.095V640.244C41.1619 721.74 96.52 788 164.608 788H658.392C726.48 788 781.838 721.74 781.838 640.244V257.048C806.913 229.99 823 191.252 823 147.756ZM493.784 591.024H329.176C306.454 591.024 288.014 568.952 288.014 541.756C288.014 514.559 306.454 492.488 329.176 492.488H493.784C516.506 492.488 534.946 514.559 534.946 541.756C534.946 568.952 516.506 591.024 493.784 591.024Z" fill="black"/>
</svg>
