<svg width="715" height="822" viewBox="0 0 715 822" fill="none" xmlns="http://www.w3.org/2000/svg">
<path d="M359.976 0.0104392C286.055 -0.620086 214.759 27.3332 160.895 78.0897C107.071 128.811 74.8108 198.45 70.8927 272.396V352.121C104.061 359.057 127.828 388.341 127.828 422.284V454.335C173.16 434.509 224.675 434.509 269.976 454.335C326.632 434.509 388.325 434.509 444.98 454.335C490.311 434.509 541.827 434.509 587.128 454.335V422.284C587.128 391.178 607.156 363.61 636.724 354.047C656.891 268.892 637.249 179.147 583.389 110.241C529.53 41.3394 447.322 0.781637 359.976 0.0104392ZM56.0407 365.854C39.8583 365.924 24.4803 372.965 13.8552 385.225C3.23006 397.451 -1.66331 413.669 0.503768 429.783L36.6086 700.939C37.5523 708.05 43.6338 713.374 50.7984 713.339H664.192C671.357 713.339 677.404 708.05 678.347 700.939L714.487 429.783H714.522C716.549 414.299 712.075 398.676 702.219 386.627C692.327 374.542 677.928 367.116 662.41 366.1C646.856 365.049 631.583 370.513 620.224 381.162C608.83 391.811 602.364 406.699 602.329 422.286V461.974C612.045 466.493 618.547 475.915 619.35 486.634V560.895C619.385 577.218 606.173 590.46 589.886 590.495H125.11C117.281 590.495 109.767 587.377 104.244 581.842C98.722 576.273 95.6115 568.742 95.6115 560.896V486.635C96.4153 475.916 102.916 466.493 112.632 461.974V422.286C112.632 407.259 106.656 392.897 96.0651 382.284C85.44 371.705 71.0349 365.784 56.0407 365.854ZM359.976 454.758C329.01 454.442 298.288 459.907 269.312 470.836C221.045 447.577 164.385 449.644 117.938 476.441C113.535 478.998 110.843 483.727 110.843 488.806V560.896C110.843 568.812 117.204 575.258 125.104 575.258H589.88C593.69 575.258 597.325 573.752 600.016 571.055C602.707 568.357 604.21 564.714 604.21 560.896V488.806C604.21 483.727 601.484 478.998 597.08 476.441C550.63 449.644 494.005 447.577 445.742 470.837C418.341 460.504 389.331 455.039 360.043 454.758L359.976 454.758ZM83.5444 728.578L95.9867 822H142.262L154.739 728.578H83.5444ZM560.31 728.578L572.753 822H618.993L631.47 728.578H560.31Z" fill="black"/>
</svg>
