<svg width="815" height="774" viewBox="0 0 815 774" fill="none" xmlns="http://www.w3.org/2000/svg">
<path d="M799.32 225.161C785.645 238.145 765.502 243.187 746.71 238.299L665.278 217.943C646.444 213.207 631.747 199.497 626.71 181.929C621.675 164.399 627.038 145.647 640.795 132.777L653.445 120.861H653.486C577.621 61.7025 479.606 33.2125 381.189 41.6901C282.724 50.1686 191.995 94.9667 129.025 166.082C66.0979 237.232 36.2101 328.82 45.9544 420.586C55.6575 512.398 104.255 596.728 180.94 654.969C257.583 713.211 355.963 740.518 454.307 730.855C552.607 721.155 642.756 675.287 704.668 603.413C708.311 599.173 713.593 596.462 719.365 595.851C725.138 595.278 730.952 596.844 735.456 600.243C744.831 607.308 746.306 620.141 738.731 628.886C669.498 709.546 568.582 761.032 458.405 771.874C348.228 782.683 237.978 751.976 152.243 686.555C66.47 621.133 12.3416 526.457 1.86059 423.574C-8.62046 320.691 25.4838 218.18 96.4762 138.898C167.509 59.5749 269.581 10.077 379.957 1.37556C490.333 -7.32594 599.892 25.5129 684.149 92.576L700.075 77.7199C713.872 64.8877 733.975 59.8467 752.766 64.5816C771.6 69.2792 786.297 82.9897 791.374 100.52L813.196 176.482C818.109 193.858 812.827 212.382 799.317 225.176L799.32 225.161Z" fill="black"/>
<path d="M694.949 440.439C689.054 430.204 678.695 422.757 666.577 420.084L442.094 373.834C437.058 372.726 433.537 368.487 433.701 363.675V152.932C433.824 141.322 428.624 130.209 419.371 122.379C410.487 114.856 398.614 111.151 386.618 112.22C309.075 118.56 237.305 153.085 186.786 208.309C136.224 263.571 110.962 335.106 116.408 407.554C121.362 472.402 150.308 533.657 198.291 580.831C246.275 627.997 310.344 658.168 379.54 666.15C390.717 667.372 401.935 667.983 413.153 667.983C476.94 668.022 539.051 649.041 590.471 613.828C641.853 578.615 679.846 529.005 698.887 472.218C702.367 461.602 700.927 450.064 694.949 440.439ZM171.672 462.438C165.04 443.953 161.028 424.743 159.636 405.303C158.572 389.149 159.186 372.917 161.519 356.839L267.43 426.309L171.672 462.438ZM315.661 408.053L172.081 313.95C178.345 296.115 186.862 279.005 197.424 263.041L380.518 383.23L315.661 408.053ZM390.134 339.92L223.622 230.77C236.272 217.747 250.439 206.098 265.873 196.015L390.011 277.477L390.134 339.92ZM390.134 227.181L307.8 173.103C333.799 162.066 361.638 155.154 390.134 152.747V227.181Z" fill="black"/>
<path d="M707.275 334.956C707.275 329.533 704.982 324.377 700.888 320.557C696.794 316.738 691.226 314.561 685.453 314.561H682.955V261.819C682.955 250.553 673.17 241.464 661.093 241.464C649.057 241.464 639.271 250.553 639.271 261.819V314.561H612.291V227.18C612.291 215.952 602.547 206.824 590.469 206.824C578.392 206.824 568.648 215.952 568.648 227.18V314.561H541.668V261.819C541.668 250.553 531.883 241.464 519.846 241.464C507.769 241.464 497.984 250.553 497.984 261.819V314.561H495.486C483.409 314.561 473.665 323.689 473.665 334.955C473.665 346.183 483.409 355.311 495.486 355.311H685.455C691.228 355.311 696.796 353.172 700.891 349.353C704.986 345.534 707.275 340.341 707.275 334.956Z" fill="black"/>
</svg>
