<svg width="861" height="732" viewBox="0 0 861 732" fill="none" xmlns="http://www.w3.org/2000/svg">
<path fill-rule="evenodd" clip-rule="evenodd" d="M784.951 731.98H560.857C519.037 731.98 484.998 698.238 484.998 656.598V477.582C497.904 471.056 509.199 461.935 518.626 450.551L591.828 359.299H784.954C826.998 359.299 861 393.041 861 434.496V656.597C861 698.274 826.958 731.98 784.951 731.98ZM140.228 455.63C123.845 455.63 108.657 461.934 96.9872 473.28C73.4219 496.863 73.4219 535.277 96.9872 558.859L164.841 626.121C171.013 632.202 179.205 635.465 187.995 635.465C196.599 635.465 204.79 632.202 210.962 626.121L278.629 558.859C290.112 547.476 296.471 532.236 296.471 516.181C296.471 499.904 290.113 484.886 278.629 473.28C267.145 461.897 251.996 455.63 235.575 455.63C221.435 455.63 207.707 460.71 196.635 469.647L187.808 476.766L178.98 469.461C168.095 460.711 154.368 455.63 140.228 455.63ZM472.127 158.739C471.117 158.739 469.883 158.925 468.836 159.332L293.367 227.41C289.066 229.042 287.644 232.49 287.233 235.123C286.821 238.386 287.831 241.426 290.712 243.651L438.094 360.084C440.749 362.309 444.041 362.717 447.52 361.493C450.812 360.084 452.832 357.637 453.467 354.188L481.559 169.458C481.971 167.011 481.559 163.563 478.08 160.93C476.21 159.336 474.147 158.739 472.127 158.739ZM673 603.948L729.37 632.61L719.533 570.651L764.233 526.156L701.729 516.404L673.038 460.526L644.348 516.404L581.844 526.156L626.544 570.651L616.706 632.425L673 603.948ZM438.688 462.531C421.669 462.531 404.874 456.821 391.557 446.254L216.501 307.647C183.921 281.839 178.384 234.49 204.419 201.969L344.245 28.4399C358.796 10.3457 380.529 0 403.683 0C420.89 0 437.722 5.89559 451.038 16.4635L626.095 154.843C658.674 180.835 664.211 228.223 637.99 260.701L498.163 434.458C483.799 452.367 462.254 462.531 438.688 462.531ZM299.915 731.99H75.859C34.0393 731.99 0 698.248 0 656.608V434.506C0 393.051 34.0393 359.309 75.859 359.309H239.846L375.363 466.62L375.775 467.028V656.618C375.775 698.295 341.735 732 299.916 732L299.915 731.99ZM187.992 663.097C171.796 663.097 156.647 657.016 145.162 645.633L77.3088 578.371C42.8577 544.035 42.8577 488.157 77.3088 453.822C94.1039 437.137 116.472 428.014 140.225 428.014C157.244 428.014 173.629 432.909 187.806 441.845C201.945 432.909 218.553 428.014 235.573 428.014C259.363 428.014 281.694 437.173 298.302 453.822C315.097 470.508 324.337 492.644 324.337 516.19C324.337 539.549 315.098 561.723 298.302 578.372L230.636 645.634C219.152 657.017 203.964 663.097 187.992 663.097ZM734.487 663.097C730.783 663.097 727.305 662.281 723.826 660.872L672.991 635.064L622.344 660.649C613.329 664.913 604.314 663.689 597.319 658.609C590.137 653.307 586.434 644.593 587.893 635.657L596.721 580.186L556.547 540.139C550.188 533.836 547.944 524.492 550.824 516.15C553.704 507.399 560.886 501.318 569.901 499.872L625.86 491.121L651.483 440.953C656.01 432.832 663.977 427.938 672.992 427.938C682.231 427.938 690.423 433.018 694.5 441.361L720.123 491.121L776.083 499.872C785.322 501.281 792.691 507.807 795.346 516.743C798.002 524.863 795.758 534.207 788.8 540.511L749.225 580.149L758.053 635.434C759.475 644.778 755.809 653.714 748.216 658.793C744.326 661.686 739.611 663.097 734.487 663.097ZM443.811 389.784C435.395 389.784 427.391 386.929 420.657 381.849L273.466 265.236C262.992 257.116 257.682 244.1 259.738 230.9C261.983 217.292 270.81 206.502 283.304 201.83L458.36 133.752C470.255 128.858 484.582 130.712 495.28 139.24C505.941 147.36 511.065 160.375 509.008 173.575L480.916 358.305C479.083 371.729 470.255 382.481 457.351 387.376C453.049 388.97 448.338 389.784 443.811 389.784Z" fill="black"/>
</svg>
