<svg width="776" height="824" viewBox="0 0 776 824" fill="none" xmlns="http://www.w3.org/2000/svg">
<path fill-rule="evenodd" clip-rule="evenodd" d="M775.174 224.39C775.803 227.534 776 230.679 776 234.044V591.667C776 611.901 765.337 629.212 746.728 639.459L417.412 818.119C412.376 820.856 407.379 822.816 402.147 824V424.503C407.38 423.32 412.574 421.359 417.412 418.807L775.174 224.39ZM12.3547 199.791C16.9581 194.465 22.6235 189.989 29.3125 186.216L358.628 7.51826C377.239 -2.50609 398.76 -2.50609 417.409 7.51826L746.765 186.216C753.453 189.952 759.119 194.465 763.723 199.791L403.163 395.62C393.759 400.724 382.271 400.724 372.828 395.62L40.9945 215.331L12.3547 199.791ZM464.663 556.638C474.264 561.336 483.904 566.07 493.739 570.584C501.254 574.135 508.809 577.649 516.127 581.421C521.557 583.974 524.508 589.485 523.642 594.997C521.753 609.349 519.668 623.701 517.78 637.831L514.002 662.614C518.409 657.695 522.776 652.96 526.987 648.077L538.082 635.685C543.119 629.989 548.351 624.477 553.348 618.78C559.407 612.122 565.27 605.612 571.132 598.916C573.65 596.179 577.388 594.403 581.361 594.219C586.791 594.034 592.22 593.812 597.65 593.812C602.883 593.627 608.116 593.442 613.349 593.22C618.779 593.035 624.012 592.85 629.244 592.85C633.651 592.628 638.254 592.443 642.858 592.258C643.291 592.073 643.92 591.481 644.55 590.483C646.202 588.115 646.635 586.155 646.635 585.785C645.573 580.458 644.747 574.577 643.92 568.88C642.858 563.405 642.032 557.894 641.205 552.382C640.379 546.501 639.553 540.767 638.491 535.071C637.664 529.375 636.838 523.679 635.973 517.797C635.54 515.06 636.169 512.064 637.625 509.548C644.747 497.748 651.829 485.986 658.95 474.333C666.032 462.718 672.957 451.141 679.842 439.526C678.583 439.932 677.324 440.524 676.105 440.894C671.934 442.263 667.724 443.853 663.357 445.185C654.78 447.922 646.399 450.881 638.058 453.841L629.284 456.8C623.029 458.982 615.671 456.615 612.366 451.103C609.454 446.776 606.936 442.263 604.221 437.935C601.507 433.607 598.792 429.464 596.274 425.136C592.3 419.033 588.523 412.966 584.785 406.826C579.552 420.809 573.926 435.124 568.261 449.513C562.595 464.05 556.968 478.624 551.106 493.161C550.044 495.713 548.392 497.859 546.11 499.264C538.791 504.369 531.276 509.289 523.958 514.394L508.26 525.01C495.315 533.85 482.095 542.691 468.954 551.569C467.145 552.678 465.49 554.64 464.663 556.638ZM206.167 622.887C224.974 625.624 241.932 622.073 256.135 612.678C271.598 602.469 283.755 584.936 291.27 561.965C301.539 530.523 296.306 497.084 277.066 470.155C261.8 448.96 242.993 439.269 231.898 439.269C230.442 439.269 229.183 439.454 227.924 439.676C224.776 440.453 221.235 440.86 217.891 440.86C198.651 440.86 179.018 429.06 162.454 407.606C145.299 385.19 125.43 377.125 116.026 380.492C105.599 384.006 99.5015 406.828 109.534 449.7C117.482 482.917 130.663 516.32 147.581 546.431C164.144 575.912 184.449 602.247 206.167 622.887ZM404.229 319.496C390.025 319.496 376.648 316.389 365.75 310.248C336.91 294.158 308.897 278.437 281.473 263.086C254.482 247.772 228.16 233.198 202.428 218.845C185.076 209.006 179.451 192.286 188.421 177.158C195.543 164.988 210.809 156.11 231.307 152.19C268.095 145.902 304.489 139.614 340.451 133.325L367.836 128.627C394.59 123.93 420.952 119.195 447.51 114.682C452.94 113.683 458.606 113.313 464.232 113.313C476.587 113.313 488.469 115.68 498.502 120.378C520.653 131.179 523.407 147.492 518.803 159.292C514.397 169.908 510.029 180.524 505.623 191.14C501.649 200.943 497.478 211.004 493.505 220.991C484.731 242.815 475.721 265.046 466.317 288.239C460.652 302.591 444.559 313.392 422.408 317.72C416.349 318.941 410.289 319.496 404.229 319.496ZM373.698 823.999C368.465 822.631 363.469 820.633 358.668 818.118L29.2723 639.42C10.6616 629.211 0 611.9 0 591.629V234.006C0 230.64 0.196735 227.495 0.826257 224.352L358.626 418.769C363.426 421.321 368.462 423.281 373.656 424.465L373.698 823.999ZM503.581 702.118C502.322 702.118 501.063 701.933 500.001 701.748C490.597 700.379 481.39 692.316 483.278 677.964L489.534 634.501C490.99 623.293 492.446 612.085 494.138 600.877C489.731 598.694 485.364 596.549 480.761 594.403C469.665 589.077 458.373 583.787 446.884 578.276C439.133 574.133 432.878 565.293 436.418 551.717C439.133 542.692 444.562 535.219 452.117 529.893C465.298 521.015 478.478 512.212 491.422 503.334L507.121 492.755C513.377 488.427 519.672 484.099 525.928 479.956C531.161 466.788 536.355 453.397 541.391 440.266C547.057 425.914 552.683 411.562 558.113 397.209C561.694 388.553 567.949 381.895 575.661 378.122C587.583 372.796 599.071 376.347 604.305 385.409L605.131 386.556C610.364 395.027 615.361 403.312 620.594 411.339C623.309 415.852 626.024 420.18 628.542 424.508C629.368 425.691 629.998 426.69 630.627 427.874C638.378 425.137 646.09 422.547 653.645 420.032C657.815 418.663 662.222 417.073 666.392 415.704C673.277 413.337 680.006 411.006 686.891 408.824C689.213 408.01 691.888 407.455 694.406 407.455C703.18 407.455 710.695 412.782 713.449 421.031C715.77 428.688 714.275 437.344 709.279 444.815C700.937 458.798 692.321 473.113 683.547 487.465C677.291 497.896 670.995 508.142 664.74 518.758C665.369 522.901 665.999 527.007 666.628 531.15C667.454 536.846 668.281 542.765 669.146 548.424C670.209 553.751 671.035 559.262 671.861 564.922C672.687 570.618 673.75 576.314 674.576 581.827C675.835 589.521 673.317 597.769 668.084 605.39C662.221 613.453 654.077 618.595 645.933 618.965C640.503 619.15 635.27 619.335 630.038 619.557C624.805 619.557 619.808 619.742 614.575 619.927C609.145 620.111 603.716 620.296 598.443 620.518C595.098 620.518 591.951 620.518 588.843 620.703C584.239 625.808 579.636 630.912 575.032 636.054C570.036 641.529 564.803 647.262 559.767 652.959L548.908 665.129C541.157 673.785 533.642 682.256 525.931 690.689C519.478 697.976 511.529 702.118 503.581 702.118ZM218.524 650.591C211.205 650.591 203.887 649.814 196.569 648.408C193.854 647.817 191.336 646.633 189.447 644.894C164.345 621.85 141.131 592.184 122.522 558.967C104.344 526.749 90.3376 491.127 81.9574 455.542C64.37 381.599 89.7083 360.995 106.193 355.26C110.6 353.707 115.4 352.93 120.633 352.93C142.155 352.93 167.061 367.874 185.474 391.844C197.592 407.565 211.206 416.035 221.239 413.668C224.583 412.891 228.164 412.521 231.901 412.521C255.548 412.521 281.869 428.834 300.716 455.208C324.755 488.832 331.247 530.482 318.499 569.835C309.096 598.502 293.201 620.733 272.505 634.716C256.571 645.074 238.393 650.591 218.524 650.591Z" fill="black"/>
</svg>
