<svg width="826" height="729" viewBox="0 0 826 729" fill="none" xmlns="http://www.w3.org/2000/svg">
<path d="M597.994 117.181C591.726 110.482 583.318 106.761 574.431 106.761C565.508 106.761 557.137 110.443 550.868 117.181C537.851 130.969 537.851 153.453 550.868 167.242L568.458 185.926C568.495 185.966 568.531 185.966 568.605 186.005C568.642 186.044 568.642 186.122 568.679 186.161L631.44 252.791C631.477 252.83 631.513 252.791 631.513 252.83C631.513 252.869 631.513 252.909 631.55 252.909L649.214 271.672C662.193 285.46 683.36 285.538 696.34 271.672C702.609 265.013 706.112 256.081 706.112 246.641C706.112 237.162 702.646 228.309 696.34 221.65L597.994 117.181Z" fill="black"/>
<path d="M550.974 221.691C544.558 228.389 541.091 237.242 541.091 246.682C541.091 256.122 544.557 264.935 550.863 271.517C557.132 278.332 565.392 281.976 574.279 282.015H574.427C583.387 282.015 591.794 278.333 598.1 271.595L607.909 261.175L560.783 211.114L550.974 221.691Z" fill="black"/>
<path d="M649.14 117.101L639.184 127.677L686.384 177.816L696.34 167.24C702.535 160.659 706.075 151.493 706.075 142.014C706.075 132.848 702.572 123.916 696.229 116.944C683.322 103.234 662.194 103.273 649.14 117.101Z" fill="black"/>
<path d="M823.78 235.559C794.649 -8.70826 557.138 -73.3876 412.99 90.6272C268.813 -73.3776 31.2932 -8.71025 2.19916 235.559C-25.0144 465.336 205.782 654.45 393.147 725.357C406.016 730.214 419.918 730.214 432.787 725.357C620.19 654.575 851.137 465.336 823.78 235.559ZM711.935 205.005C722.408 216.091 728.197 230.936 728.197 246.644C728.197 262.39 722.408 277.197 711.935 288.321C701.094 299.798 686.934 305.517 672.701 305.517C658.504 305.517 644.307 299.798 633.503 288.321L623.547 277.745L613.737 288.165C603.228 299.29 589.252 305.479 574.428 305.479H574.207C559.384 305.401 545.555 299.251 535.23 288.087C524.831 277.197 519.005 262.469 519.005 246.644C519.005 230.819 524.831 216.012 535.378 205.044L545.187 194.468L535.23 183.892C513.621 160.937 513.621 123.49 535.23 100.536C556.176 78.326 592.718 78.2859 613.663 100.575L623.583 111.112L633.539 100.536C655.148 77.5419 690.363 77.5811 712.009 100.497C722.519 112.012 728.235 126.741 728.235 142.057C728.235 157.686 722.335 172.923 712.009 183.892L702.053 194.468L711.935 205.005Z" fill="black"/>
</svg>
