<svg width="830" height="630" viewBox="0 0 830 630" fill="none" xmlns="http://www.w3.org/2000/svg">
<path d="M605.864 0.0505397C602.868 0.09586 600.074 1.54625 598.13 4.08435C596.187 6.62245 595.296 9.93109 595.701 13.2396C595.944 15.1432 616.513 194.799 496.093 264.149L500.182 183.972C500.425 179.53 498.32 175.36 494.878 173.185C491.396 171.009 487.144 171.281 483.864 173.819C483.622 174.046 454.428 196.435 414.99 196.435C375.957 196.435 346.277 173.955 346.034 173.774C342.795 171.236 338.503 171.009 335.061 173.185C331.619 175.36 329.554 179.53 329.797 183.972L333.887 264.194C285.379 236.411 253.795 188.142 239.988 120.343C228.408 63.5538 234.239 13.698 234.32 13.1991C234.724 9.89044 233.834 6.58191 231.89 4.04381C229.947 1.50571 227.153 0.0553633 224.156 0.00999662C164.108 -0.579202 107.543 24.8921 65.1055 72.4367C-6.84678 152.931 -22.1123 330.238 34.1702 430.439C36.1543 433.975 39.596 435.969 43.3617 435.878C47.0868 435.697 50.4071 433.34 52.1482 429.669C58.8292 415.301 68.4659 403.291 80.8155 394C109.807 372.109 148.475 372.653 177.021 395.359C199.615 413.308 212.936 441.226 213.503 471.911C213.584 475.31 214.961 478.483 217.31 480.658C219.658 482.788 222.735 483.74 225.732 483.106C231.117 482.018 358.506 458.586 405.151 621.932C406.487 626.737 410.496 630 414.99 630C419.485 630 423.494 626.737 424.87 621.932C471.516 458.543 598.858 481.98 604.248 483.059C607.204 483.648 610.322 482.787 612.67 480.612C615.019 478.436 616.396 475.264 616.476 471.864C617.043 441.181 630.364 413.261 652.958 395.313C681.504 372.652 720.174 372.107 749.164 393.953C761.474 403.244 771.111 415.255 777.832 429.622C779.532 433.294 782.893 435.696 786.618 435.832C790.424 436.058 793.826 433.928 795.81 430.393C852.133 330.183 836.827 152.878 764.915 72.3902C722.439 24.9373 665.591 -0.900885 605.864 0.0505397Z" fill="black"/>
</svg>
