<svg width="810" height="823" viewBox="0 0 810 823" fill="none" xmlns="http://www.w3.org/2000/svg">
<path d="M704.898 47.3727H657.483V30.1098C657.483 22.1242 654.361 14.4656 648.803 8.81894C643.246 3.17227 635.708 0 627.849 0C619.989 0 612.452 3.17227 606.894 8.81894C601.337 14.4656 598.215 22.1242 598.215 30.1098V47.3727H211.785V30.1098C211.785 22.1242 208.663 14.4656 203.106 8.81894C197.548 3.17227 190.011 0 182.151 0C174.292 0 166.754 3.17227 161.197 8.81894C155.639 14.4656 152.517 22.1242 152.517 30.1098V47.3727H105.102C91.2987 47.3674 77.6293 50.126 64.8753 55.4908C52.1214 60.8556 40.5329 68.7214 30.7722 78.6388C21.0115 88.5561 13.2699 100.331 7.98988 113.289C2.70983 126.248 -0.00518486 140.137 7.43338e-06 154.162V211.571C0.606684 211.247 1.29276 211.107 1.97562 211.17H808.024C808.707 211.107 809.393 211.247 810 211.571V154.162C810.005 140.137 807.29 126.248 802.01 113.289C796.73 100.331 788.989 88.5561 779.228 78.6388C769.467 68.7214 757.879 60.8556 745.125 55.4908C732.371 50.126 718.701 47.3674 704.898 47.3727Z" fill="black"/>
<path d="M1.97562 271.389C1.29276 271.452 0.606688 271.312 1.07662e-05 270.988V716.211C0.0522299 744.517 11.1423 771.648 30.8415 791.664C50.5407 811.679 77.2436 822.947 105.102 823H704.898C732.756 822.947 759.459 811.679 779.159 791.664C798.858 771.648 809.948 744.517 810 716.211V270.988C809.393 271.312 808.707 271.452 808.024 271.389H1.97562ZM256.434 359.31C257.46 358.526 258.666 358.025 259.938 357.853C261.21 357.681 262.504 357.846 263.695 358.33C264.886 358.814 265.935 359.602 266.739 360.617C267.544 361.633 268.077 362.841 268.288 364.127C273.383 384.392 282.447 403.405 294.939 420.029C307.43 436.653 323.093 450.547 340.99 460.88C342.052 461.653 343.306 462.109 344.61 462.195C345.914 462.281 347.215 461.995 348.367 461.368C349.518 460.741 350.474 459.799 351.126 458.648C351.778 457.498 352.099 456.185 352.054 454.858V419.529C352.041 418.174 352.408 416.843 353.112 415.692C353.816 414.541 354.828 413.617 356.029 413.027C357.23 412.438 358.571 412.208 359.896 412.364C361.221 412.52 362.476 413.056 363.512 413.909C369.089 419.009 375.68 422.831 382.838 425.117C389.996 427.403 397.554 428.098 405 427.157C412.447 428.131 420.013 427.45 427.176 425.163C434.339 422.876 440.928 419.036 446.488 413.909C447.509 413.002 448.769 412.42 450.113 412.235C451.457 412.051 452.824 412.272 454.046 412.871C455.267 413.47 456.288 414.42 456.981 415.604C457.675 416.788 458.01 418.153 457.946 419.529V454.858C457.886 456.191 458.197 457.513 458.845 458.674C459.494 459.834 460.452 460.784 461.609 461.414C462.766 462.044 464.076 462.328 465.385 462.233C466.695 462.139 467.952 461.67 469.01 460.88C486.958 450.559 502.679 436.674 515.237 420.052C527.795 403.43 536.933 384.411 542.107 364.127C542.246 362.847 542.721 361.628 543.482 360.598C544.243 359.569 545.262 358.765 546.433 358.273C547.605 357.78 548.885 357.617 550.139 357.799C551.394 357.982 552.578 358.503 553.566 359.31C581.662 384.347 603.169 416.108 616.14 451.718C629.11 487.329 633.135 525.664 627.849 563.253C627.556 565.239 626.542 567.041 625.006 568.304C623.47 569.568 621.524 570.201 619.551 570.078C596.16 565.63 571.979 570.311 551.836 583.185C531.694 596.06 517.072 616.182 510.893 639.531C510.427 640.929 509.51 642.126 508.291 642.928C507.072 643.729 505.621 644.089 504.176 643.947C486.32 642.063 468.292 645.006 451.917 652.48C435.542 659.953 421.401 671.69 410.927 686.502C410.291 687.514 409.415 688.346 408.379 688.922C407.343 689.499 406.181 689.801 405 689.801C403.819 689.801 402.657 689.499 401.621 688.922C400.585 688.346 399.709 687.514 399.073 686.502C388.653 671.732 374.58 660.018 358.275 652.545C341.971 645.073 324.014 642.107 306.22 643.947C304.723 644.097 303.218 643.747 301.935 642.95C300.651 642.154 299.659 640.953 299.107 639.531C292.928 616.182 278.306 596.06 258.164 583.185C238.021 570.311 213.84 565.63 190.449 570.078C188.476 570.201 186.53 569.568 184.994 568.304C183.458 567.041 182.444 565.239 182.151 563.253C176.865 525.664 180.89 487.329 193.86 451.718C206.831 416.108 228.338 384.347 256.434 359.31Z" fill="black"/>
</svg>
