<svg width="766" height="822" viewBox="0 0 766 822" fill="none" xmlns="http://www.w3.org/2000/svg">
<path d="M742.659 281.998C742.659 281.356 742.696 280.754 742.809 280.152V207.384H26.6274V281.999C26.6274 319.486 55.1283 349.99 90.1737 349.99C125.22 349.99 153.72 319.486 153.72 281.999C153.72 276.018 158.246 271.201 163.782 271.201C169.354 271.201 173.843 276.058 173.843 281.999C173.843 319.486 202.344 349.99 237.389 349.99C272.436 349.99 300.936 319.486 300.936 281.999C300.936 276.018 305.461 271.201 310.997 271.201C316.57 271.201 321.059 276.058 321.059 281.999C321.059 319.486 349.56 349.99 384.605 349.99C419.651 349.99 448.151 319.486 448.151 281.999C448.151 276.018 452.677 271.201 458.213 271.201C463.786 271.201 468.274 276.058 468.274 281.999C468.274 319.486 496.775 349.99 531.821 349.99C566.867 349.99 595.367 319.486 595.367 281.999C595.367 276.018 599.893 271.201 605.428 271.201C611.001 271.201 615.49 276.058 615.49 281.999C615.49 319.486 643.991 349.99 679.036 349.99C714.157 349.99 742.659 319.486 742.659 281.998Z" fill="black"/>
<path d="M605.507 324.588C591.331 352.564 563.653 371.589 531.899 371.589C500.144 371.589 472.467 352.563 458.291 324.588C444.115 352.564 416.438 371.589 384.683 371.589C352.929 371.589 325.251 352.563 311.075 324.588C296.9 352.564 269.222 371.589 237.468 371.589C205.713 371.589 178.036 352.563 163.86 324.588C149.684 352.564 122.007 371.589 90.2521 371.589C82.0609 371.589 74.1316 370.264 66.6133 367.896V643.431H702.939L702.864 367.896C695.309 370.304 687.342 371.629 679.113 371.629C647.359 371.629 619.683 352.563 605.507 324.588ZM521.614 544.258C519.706 547.55 516.302 549.597 512.674 549.316C509.084 549.155 505.83 546.948 504.147 543.536C502.314 539.763 499.658 536.592 496.255 534.144C488.438 528.485 477.629 528.645 469.961 534.505C463.752 539.241 460.087 546.587 459.937 554.654C459.862 557.824 458.515 560.795 456.234 562.801C453.952 564.808 450.96 565.691 448.043 565.049C443.929 564.327 406.9 558.988 392.612 606.912C391.266 611.367 387.376 614.417 383 614.417C378.624 614.417 374.734 611.367 373.388 606.912C359.1 558.988 322.071 564.327 317.92 565.089C315.077 565.611 312.047 564.808 309.766 562.761C307.484 560.754 306.138 557.824 306.063 554.654C305.913 546.586 302.248 539.241 296.039 534.505C288.334 528.645 277.525 528.525 269.745 534.144C266.341 536.592 263.686 539.763 261.853 543.536C260.17 546.988 256.916 549.195 253.325 549.316C249.361 549.717 246.294 547.55 244.386 544.258C223.329 508.296 229.126 444.599 256.094 415.656C271.952 398.679 292.935 389.326 315.302 389.326H316.386C319.266 389.366 321.997 390.731 323.904 393.099C325.812 395.467 326.635 398.558 326.26 401.648C325.999 403.735 320.987 447.484 347.506 471.447L346.795 458.322C346.57 454.188 348.553 450.295 351.919 448.288C355.285 446.241 359.437 446.482 362.579 448.85C362.579 448.89 371.481 455.232 383 455.232C394.595 455.232 403.347 448.93 403.459 448.85C406.639 446.522 410.79 446.321 414.119 448.368C417.448 450.415 419.468 454.269 419.243 458.363L418.533 471.487C445.088 447.526 440.039 403.776 439.778 401.648C439.404 398.598 440.264 395.467 442.134 393.14C444.004 390.812 446.734 389.447 449.614 389.407H450.699C473.065 389.407 494.048 398.719 509.907 415.737C536.874 444.635 542.671 508.294 521.614 544.258Z" fill="black"/>
<path d="M70.9919 760.63H695.052V822H70.9919V760.63Z" fill="black"/>
<path d="M0.0028764 669.768C0.0028764 707.938 28.9519 738.964 64.4848 738.964H701.481C737.05 739.004 766 707.939 766 669.768V665.072L0 665.112L0.0028764 669.768Z" fill="black"/>
<path d="M460.58 411.803C460.692 440.581 450.78 483.808 411.209 501.067C407.992 502.432 404.364 501.99 401.559 499.823C398.754 497.656 397.183 494.124 397.37 490.431L398.193 474.617C389.366 477.186 376.687 477.186 367.822 474.577L368.645 490.391C368.832 494.084 367.261 497.656 364.456 499.783C361.613 501.95 357.985 502.392 354.806 501.027C315.235 483.768 305.323 440.541 305.436 411.763C292.195 413.97 280.002 420.553 270.352 430.908C253.034 449.492 247.125 489.829 255.503 518.487C256.475 517.644 257.485 516.841 258.533 516.118C273.344 505.402 293.13 505.643 307.754 516.801C316.244 523.263 322.154 532.414 324.771 542.809C342.387 542.889 367.036 550.595 383.007 577.768C398.978 550.595 423.626 542.889 441.279 542.809C443.897 532.414 449.807 523.263 458.297 516.801C472.883 505.683 492.669 505.442 507.518 516.159C508.565 516.921 509.575 517.684 510.548 518.527C518.926 489.869 513.016 449.532 495.699 430.948C486.012 420.593 473.82 414.011 460.58 411.803Z" fill="black"/>
<path d="M530.372 109.933C530.372 149.066 559.919 180.894 596.237 180.894C632.555 180.894 662.103 149.065 662.103 109.933C662.103 70.5587 620.324 22.7952 596.237 0C572.15 22.7983 530.372 70.5607 530.372 109.933Z" fill="black"/>
<path d="M317.022 109.933C317.022 149.066 346.569 180.894 382.887 180.894C419.205 180.894 448.753 149.065 448.753 109.933C448.753 70.5587 406.974 22.7952 382.887 0C358.8 22.7983 317.022 70.5607 317.022 109.933Z" fill="black"/>
<path d="M103.681 109.933C103.681 149.066 133.228 180.894 169.546 180.894C205.864 180.894 235.412 149.065 235.412 109.933C235.412 70.5587 193.633 22.7952 169.546 0C145.497 22.7983 103.681 70.5607 103.681 109.933Z" fill="black"/>
</svg>
