<svg width="809" height="824" viewBox="0 0 809 824" fill="none" xmlns="http://www.w3.org/2000/svg">
<path d="M698.864 28.7492C723.319 28.7492 743.177 48.9766 743.177 73.8849V300.841C749.893 302.999 756.141 305.889 762.03 309.656V66.5664C762.03 35.1101 736.929 9.54353 706.046 9.54353H498.558V28.2709C498.845 28.3806 499.204 28.5635 499.491 28.7464L698.864 28.7492Z" fill="black"/>
<path d="M473.338 369.312C473.446 369.129 473.518 369.02 473.625 368.837C478.042 360.424 486.769 354.609 496.895 354.609H678.924C690.882 354.609 700.793 362.765 704.097 373.812H775.703C775.883 372.312 775.99 370.63 775.99 369.02C775.99 357.206 771.861 345.977 764.14 336.723C756.06 327.067 744.568 320.227 731.784 317.52C721.299 315.289 709.627 316.13 698.962 319.971C695.73 321.104 692.426 320.336 690.056 318.361C689.59 317.995 689.123 317.703 688.764 317.337C688.764 317.337 688.656 317.337 688.656 317.227C685.891 313.935 682.874 311.156 679.463 308.595C669.623 301.207 657.414 297.183 644.342 297.183C637.555 297.183 631.091 298.39 624.843 300.548C620.713 301.938 616.655 303.84 612.884 306.181C612.597 306.29 612.346 306.29 612.166 306.473C611.627 306.766 610.981 306.949 610.407 307.132C609.868 307.314 609.293 307.424 608.755 307.424C608.467 307.534 608.288 307.607 608.036 307.607C607.677 307.607 607.39 307.424 607.031 307.424C606.384 307.314 605.846 307.241 605.271 307.058C604.733 306.876 604.266 306.693 603.691 306.4C603.152 306.034 602.578 305.742 602.111 305.266C601.931 305.083 601.644 304.974 601.393 304.791C587.782 290.453 565.446 284.381 544.941 289.538C543.936 289.831 542.823 290.014 541.71 290.014C540.596 290.014 539.411 289.831 538.406 289.465C538.118 289.282 537.867 289.172 537.688 289.099C536.862 288.734 536.107 288.148 535.497 287.6C535.317 287.49 535.138 287.417 534.958 287.234C534.312 286.575 533.773 285.844 533.378 284.893C532.84 284.052 532.193 283.283 531.619 282.442C521.061 267.848 503.5 258.851 484.647 258.851C457.427 258.851 434.552 277.029 429.489 301.536C429.309 302.56 428.95 303.694 428.77 304.718C428.663 305.266 428.483 305.742 428.303 306.327C428.196 306.693 428.196 307.059 428.016 307.461C428.016 307.571 427.908 307.571 427.837 307.644C427.477 308.376 426.903 309.034 426.364 309.802C426.185 310.095 426.005 310.351 425.718 310.534C424.892 311.375 423.958 311.924 422.773 312.399C422.594 312.399 422.414 312.399 422.235 312.509C421.301 312.801 420.475 312.984 419.469 312.984H419.11C418.823 312.984 418.572 312.984 418.284 312.875C417.818 312.765 417.351 312.582 416.992 312.399C416.525 312.289 416.058 312.289 415.699 312.106C412.108 310.497 408.337 309.217 404.567 308.266C400.078 307.242 395.482 306.656 390.67 306.656C372.822 306.656 356.196 314.703 345.817 327.615C343.411 330.505 341.4 333.431 339.641 336.796C339.353 337.271 338.994 337.637 338.707 338.113C338.599 338.222 338.528 338.405 338.42 338.588C338.42 338.588 338.312 338.588 338.312 338.698C337.486 339.649 336.552 340.307 335.367 340.929C335.188 341.039 334.901 341.112 334.721 341.222C333.608 341.697 332.423 341.953 331.238 341.953C330.304 341.953 329.406 341.77 328.401 341.478C328.114 341.368 327.934 341.295 327.683 341.185C327.503 341.075 327.216 341.002 326.964 340.892C326.677 340.71 326.498 340.527 326.318 340.344C325.959 340.051 325.6 339.978 325.205 339.685C321.255 336.211 316.658 333.614 311.775 331.456C298.272 325.457 282.364 324.616 268.107 329.224C263.044 330.907 258.089 333.175 253.6 336.247C253.061 336.613 252.486 336.723 251.84 336.979C251.301 337.162 250.834 337.527 250.26 337.637H250.152C249.506 337.747 248.967 337.82 248.392 337.82C248.033 337.82 247.746 337.71 247.459 337.637C246.992 337.637 246.525 337.527 246.094 337.454C245.448 337.271 244.801 336.979 244.263 336.723C243.796 336.43 243.437 336.247 243.078 336.064C242.431 335.589 241.893 334.93 241.318 334.272C241.21 334.089 240.959 333.979 240.779 333.723V333.54C240.133 332.589 239.666 331.565 239.415 330.249C239.307 329.59 238.948 328.932 238.768 328.273C232.987 304.572 210.363 287.526 183.969 287.526C158.401 287.526 135.992 304.022 129.636 326.846C129.456 327.578 129.097 328.236 128.918 329.004C128.81 329.48 128.559 329.846 128.379 330.321C128.092 330.979 127.912 331.528 127.553 332.113C127.266 332.589 126.907 332.845 126.547 333.247C126.44 333.357 126.44 333.357 126.368 333.43C125.901 333.906 125.542 334.271 125.075 334.637C124.608 334.93 124.249 335.003 123.782 335.186C123.136 335.478 122.49 335.844 121.843 335.917C121.305 336.027 120.73 336.027 120.084 336.027C119.617 336.027 119.078 336.21 118.503 336.137C115.487 335.661 112.255 335.405 109.024 335.405C83.4556 335.405 61.4059 351.609 54.8706 373.701H472.514C472.083 372.091 472.728 370.702 473.338 369.312Z" fill="black"/>
<path d="M479.801 21.3604V9.54625C479.801 4.3158 475.563 0 470.429 0H451.575C446.44 0 442.203 4.31609 442.203 9.54625V21.3604C448.164 20.0437 454.52 19.1292 461.056 19.1292C467.556 19.0926 473.732 20.0436 479.801 21.3604Z" fill="black"/>
<path d="M136.898 773.158L112.442 798.067C108.851 803.041 108.312 809.296 111.077 814.929C113.842 820.562 119.157 824 125.406 824C130.361 824 134.958 821.659 138.082 817.636L173.095 777.548H170.976C159.125 777.658 147.814 775.974 136.898 773.158Z" fill="black"/>
<path d="M664.674 774.956C656.128 776.748 647.222 777.662 638.029 777.662H626.825L661.406 817.275C669.235 827.37 683.922 825.249 688.878 814.934C691.535 809.301 690.997 803.047 687.514 798.072L664.674 774.956Z" fill="black"/>
<path d="M705.464 579.704C705.464 608.747 682.195 632.412 653.717 632.412H522.072C493.558 632.412 470.325 608.71 470.325 579.704V458.529H32.4655L51.3904 643.827C57.5671 709.19 108.955 758.457 170.901 758.457H637.994C699.94 758.457 751.327 709.188 757.615 643.939L776.54 458.529H705.473L705.464 579.704ZM116.029 717.631C114.269 719.021 112.079 719.862 110.068 719.862C107.303 719.862 104.753 718.729 102.814 716.388C84.4278 693.637 73.2958 665.912 70.4588 636.248L54.4784 480.062C53.9398 474.831 57.7103 470.15 62.8456 469.564C67.909 468.906 72.5775 472.856 73.152 478.087L83.1707 575.853L89.06 634.266C90.8196 652.884 96.4217 670.404 105.256 686.242C108.739 692.533 112.797 698.605 117.286 704.128C120.518 708.262 119.979 714.266 116.029 717.631Z" fill="black"/>
<path d="M786.125 392.796H705.506V439.323H786.125C798.73 439.323 809 428.825 809 416.023C809 403.294 798.694 392.796 786.125 392.796Z" fill="black"/>
<path d="M22.8752 392.796C10.3064 392.796 0 403.294 0 416.132C0 428.971 10.3064 439.432 22.8752 439.432H470.396L470.432 392.796H22.8752Z" fill="black"/>
<path d="M686.72 381.569C686.72 377.253 683.236 373.705 678.999 373.705H496.892C492.655 373.705 489.172 377.253 489.172 381.569V488.699H686.713L686.72 381.569Z" fill="black"/>
<path d="M489.178 579.704C489.178 598.14 503.973 613.209 522.072 613.209H653.791C671.89 613.209 686.685 598.139 686.685 579.704V565.367H489.18L489.178 579.704Z" fill="black"/>
<path d="M489.178 507.791H686.72V546.087H489.178V507.791Z" fill="black"/>
<path d="M460.955 38.2974C433.662 38.2974 410.932 54.7934 405.617 76.5929H516.219C510.941 54.7934 488.247 38.2974 460.955 38.2974Z" fill="black"/>
<path d="M395.123 114.995H526.768C531.904 114.995 536.141 110.679 536.141 105.449C536.141 100.218 531.903 95.9026 526.768 95.9026L395.123 95.866C389.988 95.866 385.751 100.182 385.751 105.412C385.751 110.679 389.88 114.995 395.123 114.995Z" fill="black"/>
<path d="M460.771 205.345C467.953 204.979 474.094 200.956 477.685 194.665C481.276 188.374 482.568 179.961 480.701 173.889C478.69 167.049 472.442 160.502 466.265 154.028C464.434 151.979 462.674 150.004 460.663 147.736V148.102C458.832 150.15 457.072 152.126 455.42 153.991C449.243 160.465 442.995 167.012 440.984 173.852C439.153 179.924 440.445 188.373 444 194.628C447.412 200.92 453.553 204.723 460.088 205.126V205.309L460.771 205.345Z" fill="black"/>
<path d="M386.224 205.045V205.411C386.942 205.411 387.517 205.228 388.056 205.411C393.837 205.045 400.086 201.022 403.676 194.658C407.267 188.294 408.56 180.064 406.693 173.956C404.682 167.226 398.433 160.569 392.365 154.204C390.533 152.156 388.773 150.181 386.762 148.023V148.388C384.931 150.437 383.171 152.412 381.52 154.277C375.451 160.642 369.094 167.298 367.191 174.029C365.36 180.101 366.652 188.367 370.208 194.731C373.619 200.839 379.688 204.679 386.224 205.045Z" fill="black"/>
<path d="M534.859 205.345C542.041 204.979 548.181 200.956 551.772 194.665C555.363 188.374 556.656 179.961 554.788 173.889C552.777 167.049 546.529 160.502 540.352 154.028C538.521 151.979 536.762 150.004 534.75 147.736V148.102C532.919 150.15 531.159 152.126 529.507 153.991C523.331 160.465 517.082 167.012 515.072 173.852C513.24 179.924 514.533 188.373 518.088 194.628C521.499 200.92 527.641 204.723 534.176 205.126V205.309L534.859 205.345Z" fill="black"/>
</svg>
