<svg width="825" height="594" viewBox="0 0 825 594" fill="none" xmlns="http://www.w3.org/2000/svg">
<path d="M113.329 442.823C132.82 442.823 148.622 427.98 148.622 409.67C148.622 391.361 132.82 376.518 113.329 376.518C93.8372 376.518 78.0361 391.361 78.0361 409.67C78.0361 427.98 93.8372 442.823 113.329 442.823Z" fill="black"/>
<path d="M633.308 334.156C617.629 334.229 602.323 338.657 589.317 346.883C576.311 355.109 566.185 366.765 560.215 380.384C554.245 394.003 552.696 408.976 555.765 423.42C558.833 437.864 566.382 451.132 577.46 461.556C588.538 471.979 602.65 479.091 618.021 481.997C633.392 484.903 649.335 483.473 663.843 477.887C678.351 472.301 690.776 462.809 699.554 450.605C708.332 438.401 713.071 424.03 713.174 409.302C713.226 399.43 711.197 389.647 707.203 380.516C703.209 371.385 697.331 363.087 689.906 356.101C682.481 349.115 673.657 343.579 663.943 339.812C654.229 336.046 643.817 334.124 633.308 334.156ZM648.732 427.72L646.38 429.439V447.612C646.38 448.686 645.925 449.717 645.116 450.477C644.307 451.237 643.21 451.664 642.066 451.664H624.681C623.537 451.664 622.44 451.237 621.631 450.477C620.822 449.717 620.368 448.686 620.368 447.612V429.93L618.015 428.211C614.926 426 612.422 423.149 610.699 419.879C608.976 416.61 608.079 413.011 608.079 409.363C608.079 405.715 608.976 402.117 610.699 398.847C612.422 395.578 614.926 392.727 618.015 390.516L620.368 388.797V370.992C620.368 369.918 620.822 368.887 621.631 368.127C622.44 367.367 623.537 366.94 624.681 366.94H642.066C643.21 366.94 644.307 367.367 645.116 368.127C645.925 368.887 646.38 369.918 646.38 370.992V389.165L648.732 390.884C651.821 393.095 654.325 395.947 656.048 399.216C657.771 402.485 658.668 406.084 658.668 409.732C658.668 413.38 657.771 416.979 656.048 420.248C654.325 423.517 651.821 426.368 648.732 428.58V427.72Z" fill="black"/>
<path d="M798.008 321.877L796.831 320.158L797.746 318.317C804.476 303.634 805.464 287.19 800.537 271.889C795.61 256.588 785.084 243.415 770.819 234.699C757.605 226.626 741.98 222.752 726.246 223.648C711.27 224.6 696.996 229.972 685.463 238.996L683.764 240.347H681.672C649.993 232.658 616.754 232.658 585.075 240.347H582.983L581.284 238.996C569.755 229.964 555.48 224.592 540.501 223.648C530.607 222.972 520.67 224.221 511.312 227.316C501.954 230.411 493.376 235.285 486.114 241.634C478.852 247.983 473.062 255.671 469.105 264.217C465.149 272.763 463.111 281.984 463.119 291.303C463.109 300.51 465.112 309.62 469.001 318.071L469.916 319.913L468.74 321.877C451.413 349.203 442.103 380.353 441.757 412.156C441.412 443.96 450.043 475.282 466.772 502.934C483.502 530.586 507.732 553.58 536.996 569.577C566.261 585.573 599.515 594 633.374 594C667.232 594 700.486 585.573 729.751 569.577C759.016 553.58 783.246 530.586 799.975 502.934C816.704 475.282 825.336 443.96 824.99 412.156C824.644 380.353 815.334 349.203 798.008 321.877ZM633.308 505.199C613.117 505.199 593.38 499.575 576.591 489.037C559.803 478.5 546.718 463.523 538.992 446C531.265 428.477 529.243 409.196 533.182 390.593C537.121 371.991 546.844 354.904 561.122 341.493C575.399 328.081 593.589 318.948 613.392 315.248C633.195 311.548 653.721 313.447 672.375 320.705C691.029 327.963 706.973 340.254 718.191 356.025C729.408 371.795 735.396 390.335 735.396 409.302C735.361 434.725 724.594 459.098 705.457 477.075C686.319 495.053 660.373 505.166 633.308 505.199Z" fill="black"/>
<path d="M784.283 141.748V215.421C768.728 205.883 750.572 200.767 731.997 200.686H726.246V141.748C726.256 119.535 717.238 98.1552 701.035 81.9758C684.831 65.7964 662.664 56.0376 639.06 54.6923C626.489 53.9654 613.894 55.684 602.063 59.7406C590.232 63.7973 579.42 70.1045 570.304 78.2675C560.858 86.5421 553.334 96.5616 548.206 107.697C543.077 118.832 540.454 130.844 540.501 142.976V200.932C538.76 200.843 537.014 200.843 535.273 200.932C516.462 200.93 498.061 206.094 482.334 215.789V143.099C482.339 123.543 486.583 104.194 494.808 86.2289C503.033 68.2642 515.067 52.0611 530.175 38.6072C545.076 25.2692 562.759 14.9784 582.108 8.38451C601.456 1.79066 622.05 -0.962954 642.589 0.297536C680.921 2.54455 716.904 18.4186 743.224 44.6932C769.543 70.9677 784.224 105.671 784.283 141.748Z" fill="black"/>
<path d="M59.6055 344.716H430.048C433.725 335.673 438.094 326.891 443.12 318.439L442.466 316.229H59.6055C51.8013 316.197 44.067 317.611 36.8454 320.39C29.6238 323.17 23.0567 327.26 17.52 332.426C11.9834 337.593 7.58608 343.735 4.57974 350.5C1.57339 357.265 0.0171141 364.521 2.79402e-09 371.852V447.489C-7.58308e-05 454.83 1.54352 462.099 4.54218 468.879C7.54083 475.658 11.9355 481.814 17.4738 486.994C23.0121 492.174 29.585 496.275 36.8152 499.062C44.0454 501.849 51.7903 503.267 59.6055 503.234H438.675C433.9 494.04 429.88 484.517 426.65 474.748H59.6055C51.944 474.748 44.5963 471.889 39.1788 466.8C33.7613 461.711 30.7177 454.809 30.7177 447.612V371.852C30.7177 364.655 33.7613 357.753 39.1788 352.664C44.5963 347.575 51.944 344.716 59.6055 344.716Z" fill="black"/>
<path d="M239.206 443.191C258.914 443.191 274.891 428.184 274.891 409.67C274.891 391.157 258.914 376.149 239.206 376.149C219.498 376.149 203.521 391.157 203.521 409.67C203.521 428.184 219.498 443.191 239.206 443.191Z" fill="black"/>
<path d="M369.266 443.191C388.975 443.191 404.951 428.184 404.951 409.67C404.951 391.157 388.975 376.149 369.266 376.149C349.558 376.149 333.582 391.157 333.582 409.67C333.582 428.184 349.558 443.191 369.266 443.191Z" fill="black"/>
</svg>
