<svg width="720" height="833" viewBox="0 0 720 833" fill="none" xmlns="http://www.w3.org/2000/svg">
<path d="M34.3784 308.037L51.5495 298.77L149.245 450.19L136.596 466.16L34.3784 308.037ZM562.591 478.78L572.555 495.604L675.65 401.396L662.083 387.923L562.591 478.78ZM676.577 369.421C677.495 396.333 719.081 396.333 720 369.421C719.081 342.508 677.496 342.508 676.577 369.421ZM43.4235 271.855C42.5048 244.943 0.918977 244.943 0 271.855C0.918615 297.914 43.4235 297.914 43.4235 271.855ZM160.086 27.0424C196.267 -21.7553 284.917 -0.724724 291.24 59.8367C292.158 64.8972 297.564 69.1036 303.888 67.3946C360.879 53.9215 423.274 62.3341 473.021 91.7766C477.544 95.1284 484.787 92.631 487.508 87.5705C511.922 31.2152 604.171 35.4213 623.184 92.631C634.949 130.486 600.571 170.017 561.67 175.899C555.346 176.753 551.706 182.635 553.544 187.662C578.877 264.227 541.778 344.963 445.003 354.233C393.454 360.115 338.263 353.379 287.637 339.939C286.719 339.939 285.836 339.085 284.034 339.085C166.448 307.966 136.59 217.965 193.583 136.333C197.187 132.127 195.385 125.39 189.979 122.86C155.566 106.134 135.672 61.5486 160.086 27.0424ZM501.998 113.697C516.485 126.315 528.214 140.609 537.259 154.903C544.502 164.17 560.791 158.255 569.836 155.758C593.368 147.346 612.34 121.254 604.214 97.7268C587.043 52.3141 514.683 54.8109 500.196 101.079C499.278 105.285 498.394 110.345 501.998 113.697ZM425.115 188.552L411.548 200.316C407.025 203.668 407.025 209.583 410.629 212.934C414.233 217.141 420.593 217.141 425.116 213.789L439.602 202.025L452.251 215.498C461.296 224.765 475.782 212.146 466.737 202.88L453.17 189.407L467.656 177.643C472.179 174.291 472.179 168.376 468.575 165.025C464.971 160.819 458.611 160.819 455.007 164.17L440.521 175.934L427.872 162.461C424.268 158.255 417.908 158.255 413.386 161.607C409.782 164.958 408.863 170.874 412.467 174.225L425.115 188.552ZM345.512 278.589L344.593 284.471C339.152 291.207 331.025 295.413 321.98 293.738C312.016 292.883 305.692 285.325 301.17 277.768C298.449 273.562 292.125 271.886 287.602 275.238C283.08 277.768 281.278 283.65 284.881 287.856L289.404 293.738C302.053 313.093 332.827 318.12 351.8 304.681C368.089 326.566 401.548 326.566 420.557 307.211C430.521 299.653 417.837 285.326 407.909 292.917L401.584 297.977C389.818 308.065 368.125 302.183 364.485 287.889L365.404 282.007C416.953 282.862 412.431 239.091 363.602 233.209C315.691 224.732 294.88 264.262 345.512 278.589ZM261.421 162.491C260.502 210.434 335.583 213.819 339.223 165.843C340.989 117.9 265.025 114.548 261.421 162.491ZM211.673 112.018C214.394 112.018 216.196 111.163 217.998 109.488C232.484 96.8692 248.736 86.7813 266.826 79.1901C270.43 77.5142 272.267 74.984 272.267 71.6322C273.186 44.7197 254.177 21.1587 226.123 17.8073C153.763 8.54035 147.44 96.0169 211.673 112.018ZM209.836 91.8091C222.484 81.7211 237.89 72.4542 253.259 64.8967C252.341 55.6297 246.935 47.2175 240.611 42.1903C227.043 32.1024 202.629 32.1024 191.782 46.3965C180.9 62.3663 192.664 85.1062 209.836 91.8091ZM587.041 108.634C587.041 94.3395 571.672 85.0726 558.104 83.3969C540.933 80.8666 526.447 89.2789 520.122 104.427C532.771 115.37 542.735 127.988 551.78 141.428C569.835 140.606 587.041 125.458 587.041 108.634ZM381.692 260.054C379.89 257.524 372.647 253.318 359.998 250.787C352.755 249.111 339.187 250.787 336.466 253.317C338.268 255.848 345.512 260.054 358.16 262.584C370.844 264.26 379.006 261.763 381.692 260.054ZM320.213 165.021C320.213 141.46 284.033 139.784 281.312 163.345C280.394 186.873 318.376 188.549 320.213 165.021ZM192.66 562.895C191.742 558.689 190.858 553.628 190.858 549.422C185.417 498.948 198.101 441.737 223.435 401.349C188.174 432.468 127.539 501.438 123.017 535.945C120.296 551.094 123.935 561.182 135.665 570.449C145.629 577.218 161.921 583.104 192.66 562.895ZM501.114 575.513C529.168 598.219 546.34 593.192 557.186 586.456C610.538 554.482 513.763 443.448 485.745 411.473C509.241 457.74 516.484 523.366 501.114 575.513ZM286.72 359.327C231.53 395.506 199.873 482.978 210.756 554.482C264.107 419.029 454.972 440.059 478.507 582.25C484.832 564.57 488.471 547.746 489.354 526.715C492.074 466.975 472.183 409.802 436.885 374.437C387.138 377.821 334.667 371.124 286.72 359.327ZM459.498 614.226V610.02C461.3 451.046 246.017 433.363 221.604 590.665C255.983 668.051 407.028 679.852 459.498 614.226ZM463.102 751.354C450.453 751.354 450.453 732.854 463.102 732.854C471.228 732.854 478.471 733.708 486.634 734.53C492.958 698.35 491.156 652.938 482.111 616.758C481.192 618.434 479.39 620.11 478.507 622.64C457.696 648.732 427.84 665.556 389.858 671.438C391.66 700.881 397.985 730.324 407.03 753.03C410.633 747.148 418.795 742.942 425.12 748.824C428.724 752.176 428.724 758.091 425.12 761.443C416.993 769.855 414.273 779.943 414.273 790.031C413.354 807.71 417.877 830.416 464.021 832.947C494.759 833.801 536.381 824.534 540.903 795.946C543.624 770.709 493.877 749.678 463.102 751.354ZM208.041 606.672C196.275 641.997 189.032 687.443 192.671 723.585C203.518 723.585 225.248 718.525 225.248 733.673C225.248 738.734 219.807 742.94 214.401 742.086C112.183 737.879 104.938 816.12 206.275 822.857C225.284 823.711 239.734 820.326 247.896 812.769C261.464 801.005 264.185 770.707 251.5 756.413C247.896 752.207 248.78 746.325 252.419 743.795C258.743 738.734 266.906 743.795 270.509 749.677C282.275 726.971 290.401 699.204 295.842 669.761C256.906 658.818 226.131 638.612 208.041 606.672Z" fill="black"/>
</svg>
