<svg width="777" height="795" viewBox="0 0 777 795" fill="none" xmlns="http://www.w3.org/2000/svg">
<path d="M672.286 169.872L679.527 184.622L686.768 169.872C688.104 167.118 690.291 164.888 692.992 163.526L707.46 156.143L692.992 148.761C690.291 147.399 688.104 145.169 686.768 142.415L679.527 127.665L672.286 142.415C670.95 145.169 668.763 147.399 666.062 148.761L651.594 156.143L666.062 163.526C668.763 164.888 670.95 167.118 672.286 169.872Z" fill="black"/>
<path d="M651.093 377.088C656.662 378.409 677.299 373.369 702.391 352.13C727.484 330.892 736.089 311.187 735.894 305.281C730.324 304.117 709.702 309 684.595 330.239C659.489 351.477 650.912 371.211 651.093 377.088Z" fill="black"/>
<path d="M623.828 596.245V738.213H763.075V596.245H623.828Z" fill="black"/>
<path d="M637.753 560.753C637.753 562.635 638.486 564.441 639.792 565.772C641.098 567.103 642.868 567.851 644.715 567.851H742.188C744.035 567.851 745.806 567.103 747.111 565.772C748.417 564.441 749.151 562.635 749.151 560.753C749.151 558.87 748.417 557.064 747.111 555.733C745.806 554.402 744.035 553.654 742.188 553.654H644.715C642.868 553.654 641.098 554.402 639.792 555.733C638.486 557.064 637.753 558.87 637.753 560.753Z" fill="black"/>
<path d="M52.914 766.606C52.914 774.137 55.8481 781.359 61.0709 786.684C66.2937 792.009 73.3773 795 80.7634 795C88.1496 795 95.2332 792.009 100.456 786.684C105.679 781.359 108.613 774.137 108.613 766.606V511.064H52.914V766.606Z" fill="black"/>
<path d="M720.173 373.979C701.612 391.501 678.099 402.601 652.986 405.695C652.527 405.695 652.123 405.596 651.677 405.581V525.261H735.226V359.513C730.479 364.62 725.453 369.449 720.173 373.979Z" fill="black"/>
<path d="M129.221 113.084L136.462 127.835L143.703 113.084C145.04 110.331 147.227 108.101 149.928 106.739L164.395 99.3562L149.928 91.9738C147.227 90.6114 145.04 88.3817 143.703 85.6278L136.462 70.8774L129.221 85.6278C127.885 88.3817 125.698 90.6114 122.997 91.9738L108.529 99.3562L122.997 106.739C125.698 108.101 127.885 110.331 129.221 113.084Z" fill="black"/>
<path d="M108.613 454.276H52.914V482.67H108.613V454.276Z" fill="black"/>
<path d="M595.979 269.718C595.964 239.789 589.718 210.203 577.654 182.919L301.944 464.016C333.73 478.587 368.592 484.803 403.342 482.096C438.092 479.389 471.623 467.845 500.869 448.52C530.115 429.194 554.143 402.703 570.758 371.468C587.373 340.233 596.044 305.25 595.979 269.718Z" fill="black"/>
<path d="M777 766.606H609.903V795H777V766.606Z" fill="black"/>
<path d="M481.629 80.0627C449.816 63.4831 414.358 55.5166 378.656 56.9273C342.955 58.338 308.208 69.0788 277.75 88.119C247.291 107.159 222.142 133.86 204.717 165.66C187.291 197.46 178.172 233.292 178.237 269.718C178.237 273.281 178.585 276.816 178.766 280.252C181.634 282.594 184.517 284.866 187.385 287.35C189.563 289.284 191.097 291.859 191.776 294.721C192.454 297.582 192.243 300.588 191.173 303.322L184.475 320.358C188.27 336.174 193.844 351.489 201.087 366.001L305.523 259.525C308.149 256.939 311.666 255.508 315.317 255.54C318.968 255.572 322.461 257.065 325.042 259.698C327.624 262.33 329.089 265.89 329.12 269.613C329.152 273.335 327.749 276.921 325.212 279.599L215.833 391.228C231.947 414.758 252.531 434.749 276.364 450.017L563.952 156.811C548.974 132.514 529.366 111.528 506.289 95.0971L395.323 208.203C392.697 210.789 389.179 212.22 385.528 212.188C381.877 212.155 378.385 210.662 375.803 208.03C373.221 205.398 371.757 201.837 371.725 198.115C371.694 194.393 373.097 190.806 375.634 188.129L481.629 80.0627Z" fill="black"/>
<path d="M623.828 383.292H623.981C622.476 372.007 624.943 360.544 630.943 350.938C634.911 343.716 639.576 336.915 644.868 330.636C656.241 280.738 653.366 228.563 636.583 180.278L614.22 168.921C611.903 167.743 609.953 165.93 608.591 163.686C607.228 161.441 606.506 158.854 606.506 156.214C606.506 153.575 607.228 150.987 608.591 148.743C609.953 146.498 611.903 144.686 614.22 143.508L619.414 140.868C599.522 103.54 571.258 71.5345 536.927 47.4607C502.596 23.3869 463.171 7.9266 421.865 2.34058C380.56 -3.24543 338.545 1.20099 299.245 15.3172C259.946 29.4335 224.475 52.8199 195.726 83.5693L201.769 86.65C204.087 87.8275 206.036 89.6402 207.398 91.8847C208.761 94.1292 209.483 96.7166 209.483 99.3562C209.483 101.996 208.761 104.583 207.398 106.828C206.036 109.072 204.087 110.885 201.769 112.062L166.526 130.007L148.995 165.925C148.127 167.692 146.908 169.255 145.414 170.514C143.92 171.773 142.185 172.7 140.32 173.236C131.203 197.359 125.574 222.705 123.61 248.479C133.045 251.783 142.163 255.965 150.847 260.973C152.219 218.966 164.36 178.059 186.061 142.325C207.763 106.59 238.267 77.2752 274.537 57.2987C310.808 37.3223 351.578 27.3815 392.788 28.4661C433.999 29.5508 474.211 41.623 509.422 63.4808C510.716 64.0267 511.918 64.7738 512.987 65.6955C565.085 99.0775 602.371 151.846 616.93 212.799C631.49 273.751 622.177 338.09 590.969 392.157C559.76 446.223 509.113 485.761 449.778 502.377C390.444 518.993 327.094 511.379 273.175 481.151C273.016 481.067 272.863 480.972 272.716 480.867C238.396 461.419 209.327 433.62 188.095 399.945C187.998 399.86 187.886 399.846 187.803 399.747C186.265 398.128 185.141 396.149 184.531 393.983C178.339 383.642 172.921 372.841 168.322 361.671L154.23 397.489C177.181 441.032 211.434 477.302 253.244 502.332C295.054 527.362 342.809 540.187 391.288 539.406C439.766 538.625 487.1 524.267 528.113 497.903C569.126 471.538 602.238 434.183 623.828 389.922V383.292Z" fill="black"/>
<path d="M151.682 294.846C100.829 258.36 50.9506 260.859 0 302.371L48.4163 425.883H66.8387V340.702C66.8387 336.937 68.3058 333.326 70.9172 330.663C73.5286 328.001 77.0704 326.505 80.7635 326.505C84.4565 326.505 87.9983 328.001 90.6097 330.663C93.2211 333.326 94.6882 336.937 94.6882 340.702V425.883H113.111L155.247 318.47C153.687 310.732 152.504 302.839 151.682 294.846Z" fill="black"/>
<path d="M497.001 766.606H373.183C369.49 766.606 365.948 765.111 363.337 762.448C360.725 759.786 359.258 756.175 359.258 752.41C359.258 748.644 360.725 745.033 363.337 742.371C365.948 739.708 369.49 738.213 373.183 738.213H436.805C417.58 683.448 406.777 625.982 404.778 567.851H369.145C366.223 632.767 353.169 696.794 330.476 757.52C329.463 760.195 327.68 762.495 325.361 764.117C323.042 765.739 320.296 766.607 317.484 766.606H277.214C273.123 766.61 269.201 768.269 266.308 771.218C263.415 774.167 261.789 778.166 261.785 782.336V795H512.43V782.336C512.426 778.166 510.8 774.167 507.907 771.218C505.014 768.269 501.092 766.61 497.001 766.606Z" fill="black"/>
</svg>
