<svg width="757" height="798" viewBox="0 0 757 798" fill="none" xmlns="http://www.w3.org/2000/svg">
<path d="M656.073 132.999V79.8325C656.073 35.8429 622.071 0 580.341 0C538.61 0 504.734 35.8429 504.734 79.8325V132.999H656.073Z" fill="black"/>
<path d="M491.389 332.501C531.195 383.141 555.166 448.042 555.166 518.666C555.166 566.711 544 612.101 524.381 652.167C555.639 655.957 580.305 684.253 580.305 718.168V731.534C580.305 757.469 569.991 781.043 553.558 798H681.268C722.935 798 757 762.09 757 718.168V518.665C757 480.096 735.046 453.496 716.122 430.217C697.197 406.939 681.268 387.059 681.268 359.129V332.463L491.389 332.501Z" fill="black"/>
<path d="M479.47 159.667C458.716 159.667 441.557 177.655 441.557 199.5V265.966C441.557 287.844 458.716 305.932 479.47 305.932H681.307C702.061 305.932 719.22 287.844 719.22 265.966V199.5C719.22 177.622 702.061 159.667 681.307 159.667H479.47Z" fill="black"/>
<path d="M277.537 252.728C138.312 252.728 25.2336 371.929 25.2336 518.691C25.2336 567.169 37.6299 612.586 59.1725 651.758H189.249C225.648 651.758 249.399 673.005 259.366 684.144C264.445 689.796 265.233 690.428 265.044 690.328C264.886 690.228 267.283 691.592 277.503 691.592C287.754 691.592 290.183 690.262 290.057 690.328C289.931 690.395 290.719 689.763 295.735 684.144C305.639 673.071 329.359 651.758 365.758 651.758H495.931C517.474 612.59 529.901 567.171 529.901 518.691C529.901 371.929 416.693 252.728 277.501 252.728H277.537ZM286.495 416.216C291.447 421.403 291.447 429.849 286.495 435.035L210.763 514.768C205.842 519.922 197.893 519.922 192.973 514.768C188.084 509.581 188.084 501.202 192.973 496.016L268.611 416.216C273.532 410.963 281.575 410.963 286.495 416.216ZM374.784 416.216C379.737 421.403 379.737 429.849 374.784 435.035L198.214 621.166C193.293 626.386 185.25 626.386 180.33 621.166C175.441 615.979 175.441 607.599 180.33 602.413L357.03 416.18C361.95 411.027 369.899 411.027 374.819 416.18L374.784 416.216Z" fill="black"/>
<path d="M37.8189 678.324C17.0644 678.324 0 696.279 0 718.157V731.524C0 768.132 28.3246 797.99 63.0525 797.99H492.023C526.751 797.99 555.076 768.165 555.076 731.524V718.157C555.076 696.279 538.043 678.324 517.288 678.324H365.822C337.435 678.324 322.925 692.588 314.157 702.363C305.388 712.138 301.95 718.157 277.536 718.157C253.123 718.157 249.811 712.139 241.042 702.363C232.274 692.588 217.639 678.324 189.25 678.324H37.8189Z" fill="black"/>
</svg>
