<svg width="785" height="756" viewBox="0 0 785 756" fill="none" xmlns="http://www.w3.org/2000/svg">
<path d="M55.6041 458.232H52.7422C51.3151 458.221 49.9152 457.734 48.6815 456.819C47.4479 455.904 46.4234 454.593 45.7099 453.016C44.9922 451.43 44.6143 449.63 44.6143 447.799C44.6143 445.968 44.9922 444.168 45.7099 442.582L106.874 304.132C107.584 302.52 108.617 301.178 109.867 300.243C111.117 299.308 112.54 298.814 113.988 298.811H173.845C176.013 298.811 178.093 299.91 179.627 301.867C181.16 303.823 182.022 306.477 182.022 309.244V325.833C182.022 330.537 183.486 335.049 186.093 338.375C188.7 341.701 192.236 343.57 195.923 343.57H327.083C330.77 343.57 334.306 341.701 336.913 338.375C339.52 335.049 340.984 330.537 340.984 325.833V309.244C340.984 306.477 341.846 303.823 343.379 301.867C344.913 299.91 346.993 298.811 349.161 298.811H435.838C438.007 298.811 440.087 299.91 441.62 301.867C443.154 303.823 444.015 306.477 444.015 309.244V325.833C444.015 330.537 445.48 335.049 448.087 338.375C450.694 341.701 454.23 343.57 457.916 343.57H588.75C592.436 343.57 595.972 341.701 598.579 338.375C601.186 335.049 602.651 330.537 602.651 325.833V309.244C602.651 306.477 603.512 303.823 605.046 301.867C606.579 299.91 608.659 298.811 610.828 298.811H670.929C672.386 298.824 673.814 299.335 675.065 300.288C676.316 301.242 677.344 302.605 678.043 304.236L736.182 439.139C736.9 440.725 737.278 442.525 737.278 444.356C737.278 446.187 736.9 447.987 736.182 449.573C735.459 451.13 734.43 452.421 733.197 453.317C731.964 454.213 730.569 454.685 729.15 454.685H725.062C723.495 454.68 721.962 454.1 720.646 453.016C704.005 439.392 684.65 432.15 664.878 432.149H119.958C98.585 432.108 77.7288 440.529 60.2651 456.25C58.9074 457.505 57.2803 458.197 55.6041 458.232ZM118.649 319.678L72.8578 424.011C87.7523 415.932 103.773 411.78 119.958 411.804H664.878C680.59 411.793 696.15 415.728 710.67 423.385L666.187 320.199H619.168V325.833C619.168 336.072 615.981 345.89 610.307 353.13C604.633 360.37 596.937 364.437 588.913 364.437H457.916C449.892 364.437 442.197 360.37 436.523 353.13C430.849 345.89 427.661 336.072 427.661 325.833V319.469H357.093V325.833C357.093 336.072 353.905 345.89 348.232 353.13C342.558 360.37 334.862 364.437 326.838 364.437H196.25C188.226 364.437 180.53 360.37 174.856 353.13C169.182 345.89 165.995 336.072 165.995 325.833V319.469L118.649 319.678Z" fill="black"/>
<path d="M680.088 533.457C675.559 529.72 670.271 527.761 664.878 527.823H119.958C116.189 527.809 112.456 528.747 108.974 530.584C105.491 532.421 102.328 535.12 99.6673 538.524C97.0065 541.929 94.9005 545.972 93.4709 550.421C92.0413 554.87 91.3164 559.636 91.338 564.444V585.31H693.662V564.444C693.667 558.228 692.422 552.115 690.045 546.689C687.668 541.264 684.24 536.707 680.088 533.457Z" fill="black"/>
<path d="M729.477 435.383C710.201 419.611 687.777 411.245 664.878 411.282H119.958C95.2069 411.206 71.0534 420.98 50.8614 439.244C35.1523 453.399 22.3344 472.157 13.4842 493.943C4.63395 515.728 0.00978902 539.906 0 564.444V745.567C0 748.334 0.861513 750.987 2.39501 752.944C3.92851 754.901 6.00838 756 8.17708 756H79.8083C81.0161 755.99 82.2071 755.638 83.2958 754.971C84.3845 754.303 85.3437 753.336 86.1047 752.14L117.832 701.955H667.168L698.813 752.14C699.583 753.35 700.555 754.325 701.659 754.993C702.763 755.661 703.97 756.005 705.191 756H776.823C778.991 756 781.071 754.901 782.605 752.944C784.138 750.987 785 748.334 785 745.567V564.444C785.055 538.696 779.991 513.351 770.28 490.779C760.57 468.208 746.531 449.149 729.477 435.383ZM710.016 595.848C710.016 598.615 709.154 601.269 707.621 603.226C706.087 605.182 704.007 606.282 701.839 606.282H83.1609C80.9922 606.282 78.9123 605.182 77.3788 603.226C75.8453 601.269 74.9838 598.615 74.9838 595.848V564.548C74.9731 557.004 76.1284 549.531 78.3838 542.556C80.6391 535.582 83.9501 529.244 88.1274 523.904C92.3047 518.565 97.2662 514.329 102.728 511.439C108.19 508.548 114.045 507.06 119.958 507.06H664.878C673.394 506.997 681.743 510.077 688.919 515.929C695.364 521.104 700.679 528.276 704.368 536.777C708.056 545.278 709.999 554.831 710.016 564.548V595.848Z" fill="black"/>
<path d="M679.188 57.3834V309.349C679.188 312.116 678.327 314.769 676.793 316.726C675.26 318.683 673.18 319.782 671.011 319.782H635.523V247.479C635.501 231.715 630.583 216.604 621.847 205.458C613.111 194.311 601.268 188.036 588.913 188.009H457.916C445.562 188.036 433.719 194.311 424.983 205.458C416.246 216.604 411.329 231.715 411.307 247.479V319.782H373.447V247.479C373.426 231.715 368.508 216.604 359.772 205.458C351.035 194.311 339.193 188.036 326.838 188.009H196.25C183.895 188.036 172.052 194.311 163.316 205.458C154.58 216.604 149.662 231.715 149.641 247.479V319.782H113.825C111.656 319.782 109.576 318.683 108.043 316.726C106.509 314.769 105.648 312.116 105.648 309.349V57.3834C105.648 42.1644 110.386 27.5687 118.82 16.8072C127.255 6.04573 138.694 0 150.622 0H634.214C646.135 0.0275804 657.562 6.08217 665.992 16.8377C674.421 27.5932 679.167 42.1728 679.188 57.3834Z" fill="black"/>
<path d="M326.838 208.876H195.841C179.132 208.876 165.586 226.159 165.586 247.479V326.042C165.586 347.362 179.132 364.645 195.841 364.645H326.838C343.547 364.645 357.093 347.362 357.093 326.042V247.479C357.093 226.159 343.547 208.876 326.838 208.876Z" fill="black"/>
<path d="M588.913 208.876H457.916C441.207 208.876 427.661 226.159 427.661 247.479V326.042C427.661 347.362 441.207 364.645 457.916 364.645H588.913C605.623 364.645 619.168 347.362 619.168 326.042V247.479C619.168 226.159 605.623 208.876 588.913 208.876Z" fill="black"/>
</svg>
