<svg width="817" height="658" viewBox="0 0 817 658" fill="none" xmlns="http://www.w3.org/2000/svg">
<path d="M0 408.504H244.261V252.184H0V408.504ZM96.6877 320.17H147.564V340.517H96.6877V320.17Z" fill="black"/>
<path d="M0 658H27.4695V572.202H244.261V415.869H0V658ZM96.6877 483.856H147.564V504.203H96.6877V483.856Z" fill="black"/>
<path d="M572.739 252.184V408.504H817V252.184H572.739ZM720.312 340.517H669.436V320.17H720.312V340.517Z" fill="black"/>
<path d="M572.739 572.202H789.53V658H817V415.869H572.739V572.202ZM669.436 483.856H720.312V504.203H669.436V483.856Z" fill="black"/>
<path d="M566.8 252.184H250.21V572.189H566.8V252.184Z" fill="black"/>
<path d="M557.332 0H259.668V212.34H381.939L371.257 237.314H349.658V248.444H467.361V237.314H445.734L435.061 212.34H557.332V0Z" fill="black"/>
</svg>
