<svg width="565" height="834" viewBox="0 0 565 834" fill="none" xmlns="http://www.w3.org/2000/svg">
<path d="M79.8531 156.394C76.6058 181.049 69.5141 198.431 63.7169 212.639C58.3229 225.863 54.06 236.31 54.06 248.556C54.06 286.281 90.1595 316.97 134.53 316.97C178.955 316.97 215.093 286.281 215.093 248.556C215.093 236.312 210.822 225.872 205.413 212.65C199.598 198.439 192.484 181.057 189.231 156.396L79.8531 156.394Z" fill="black"/>
<path d="M267.022 140.559C267.58 140.559 268.367 140.333 269.073 140.035L177.865 6.07223C177.287 5.232 176.73 4.35291 176.18 3.48677C175.455 2.34302 174.404 0.684769 173.726 0H95.4119C94.7275 0.699574 93.6836 2.35042 92.9622 3.49047C92.4174 4.35476 91.8616 5.23015 91.2688 6.09259L0 140.03C0.727919 140.335 1.54738 140.563 2.14235 140.563H8.06812V221.066C8.06812 225.441 12.2439 228.985 17.3938 228.985C22.5459 228.985 26.7194 225.441 26.7194 221.066V140.561L267.022 140.559Z" fill="black"/>
<path d="M547.822 334.456H56.575C47.1099 334.456 39.4101 340.994 39.4101 349.032V778.547C39.4101 786.605 47.1099 793.162 56.575 793.162H547.824C557.296 793.162 565 786.605 565 778.547V349.03C564.998 340.994 557.294 334.456 547.822 334.456ZM557.839 758.174C557.839 773.774 542.892 786.462 524.518 786.462H79.888C61.5157 786.462 46.5672 773.774 46.5672 758.174V369.431C46.5672 353.833 61.5135 341.144 79.888 341.144H524.52C542.894 341.144 557.841 353.833 557.841 369.431L557.839 758.174Z" fill="black"/>
<path d="M129.094 808.999H65.8984V834H129.094V808.999Z" fill="black"/>
<path d="M538.501 808.999H475.318V834H538.501V808.999Z" fill="black"/>
<path d="M524.52 356.983H79.888C71.8003 356.983 65.2185 362.568 65.2185 369.433V555.893H539.194V369.431C539.192 362.566 532.608 356.983 524.52 356.983ZM302.248 494.69C270.104 494.69 243.955 472.485 243.955 445.187C243.955 417.875 270.104 395.656 302.248 395.656C334.385 395.656 360.533 417.875 360.533 445.187C360.533 472.483 334.385 494.69 302.248 494.69Z" fill="black"/>
<path d="M65.2163 758.176C65.2163 765.042 71.7981 770.629 79.8858 770.629H524.518C532.608 770.629 539.189 765.04 539.189 758.176V571.726H65.2141L65.2163 758.176ZM302.248 632.926C334.385 632.926 360.533 655.131 360.533 682.426C360.533 709.735 334.385 731.955 302.248 731.955C270.104 731.955 243.955 709.735 243.955 682.426C243.955 655.131 270.104 632.926 302.248 632.926Z" fill="black"/>
<path d="M302.248 411.49C280.388 411.49 262.606 426.605 262.606 445.185C262.606 463.749 280.388 478.851 302.248 478.851C324.1 478.851 341.886 463.749 341.886 445.185C341.884 426.605 324.1 411.49 302.248 411.49Z" fill="black"/>
<path d="M302.248 716.118C324.1 716.118 341.886 701.001 341.886 682.426C341.886 663.865 324.103 648.765 302.248 648.765C280.388 648.765 262.606 663.865 262.606 682.426C262.606 701.001 280.388 716.118 302.248 716.118Z" fill="black"/>
</svg>
