<svg width="797" height="817" viewBox="0 0 797 817" fill="none" xmlns="http://www.w3.org/2000/svg">
<path d="M714.732 241.721C712.151 225.435 707.85 209.148 700.968 194.577C700.107 192.005 699.247 188.576 700.107 186.005L707.85 139.718C710.431 125.146 711.291 110.574 711.291 96.8597C711.291 73.7162 707.85 49.7156 701.828 26.5721C697.526 11.1432 682.902 0 666.557 0C657.094 0 648.491 3.42866 642.469 9.42882C620.102 30.858 600.315 54.8586 586.551 82.2879C583.97 87.4309 578.809 89.1452 573.647 88.288C535.795 78.002 490.2 78.002 452.348 88.288C447.186 90.0024 441.165 87.4309 438.584 82.2879C423.959 54.8586 405.033 30.858 381.806 10.286C374.923 4.28583 366.321 0.857165 357.718 0.857165C341.373 0.857165 326.748 12.0003 322.447 27.4293C316.425 49.7156 312.984 73.7162 312.984 96.8597C312.984 112.289 313.844 126.86 316.425 140.575L324.167 186.862C325.027 189.434 324.167 192.862 323.307 195.434C316.425 210.006 312.123 226.292 309.542 242.578C285.455 245.149 257.926 254.578 233.838 277.722C226.096 285.436 225.236 298.294 232.978 306.008C237.279 310.294 242.441 312.008 247.603 312.008C252.764 312.008 257.926 310.294 261.367 306.008C275.992 292.293 291.477 286.293 306.962 282.865C306.962 292.293 308.682 301.722 310.403 310.294C293.197 315.437 275.132 324.866 259.647 340.295C251.904 348.009 251.044 360.867 258.786 368.581C263.088 372.867 268.249 374.581 273.411 374.581C278.573 374.581 283.734 372.867 287.175 369.438C299.219 358.295 312.123 352.295 324.167 348.866C337.071 372.01 355.997 390.01 377.504 404.582C307.822 448.297 261.367 523.728 261.367 611.159C261.367 654.874 259.647 693.447 266.529 726.019C207.17 731.162 137.488 728.591 103.077 696.018C95.3341 688.304 70.3861 666.018 83.2902 598.301C92.7533 549.443 109.959 517.728 128.025 486.87C171.038 410.582 192.545 350.581 105.657 218.577C93.6135 199.72 68.6656 194.577 49.7395 207.434C30.8135 219.434 25.6518 244.292 38.556 263.15C105.657 364.295 90.1724 390.867 58.3423 448.298C39.4162 481.727 16.1888 522.871 5.00523 584.587C-8.75916 658.303 5.86551 716.59 48.8793 756.02C93.6135 798.021 161.575 809.164 224.375 809.164C259.647 809.164 292.337 805.736 319.866 801.45C355.997 822.879 671.718 822.022 707.85 799.735C768.069 762.02 762.907 696.018 762.907 612.016C762.907 525.442 716.453 449.155 646.77 405.439C668.277 391.725 687.203 373.724 700.107 349.723C713.011 353.152 725.916 359.152 737.099 370.295C741.4 373.724 745.702 375.438 750.864 375.438C756.025 375.438 761.187 373.724 765.488 369.438C773.231 361.724 773.231 348.866 764.628 341.152C748.283 325.723 731.077 316.294 713.872 311.151C715.592 302.579 717.313 293.151 717.313 283.722C732.798 286.293 749.143 293.151 762.907 306.865C767.209 310.294 771.51 312.008 776.672 312.008C781.833 312.008 786.995 310.294 791.296 306.008C799.039 298.294 799.039 285.436 790.436 277.722C767.209 253.721 739.68 244.292 714.732 241.721ZM439.444 258.007C417.077 253.721 403.312 231.435 407.614 210.006C411.915 187.719 491.921 204.863 487.619 226.292C483.318 248.578 461.811 262.293 439.444 258.007ZM585.691 258.007C563.324 262.293 541.817 248.578 537.515 226.292C533.214 204.005 613.22 187.719 617.521 210.006C621.822 232.292 607.198 253.721 585.691 258.007Z" fill="black"/>
</svg>
