<svg width="524" height="441" viewBox="0 0 524 441" fill="none" xmlns="http://www.w3.org/2000/svg">
<path d="M184.841 68.8163C184.841 79.831 174.054 89.4711 161.728 89.4711C149.423 89.4517 138.636 79.831 138.636 68.8163C138.636 57.8016 149.423 48.1616 161.749 48.1616C174.075 48.1616 184.841 57.8016 184.841 68.8163ZM84.7179 48.1616C72.392 48.1616 61.6261 57.8016 61.6261 68.8163C61.6261 79.831 72.4137 89.4711 84.7395 89.4711C97.0438 89.4517 107.831 79.831 107.831 68.8163C107.831 57.8016 97.0438 48.1616 84.7179 48.1616ZM523.74 41.2897V399.195C523.74 422.598 503.725 440.484 477.536 440.484H46.2047C20.0152 440.484 0 422.598 0 399.195V41.2897C0 17.8861 20.0158 1.56783e-05 46.2047 1.56783e-05H477.514C503.703 -0.0193407 523.74 17.8866 523.74 41.2897ZM492.937 41.2897C492.937 34.3985 485.226 27.5266 477.536 27.5266L46.2047 27.5073C38.5149 27.5073 30.8033 34.3985 30.8033 41.2897V110.127H492.917L492.937 41.2897ZM238.756 48.1616C226.43 48.1616 215.664 57.8016 215.664 68.8163C215.664 79.831 226.451 89.4711 238.777 89.4711C251.082 89.4517 261.869 79.831 261.869 68.8163C261.869 57.8016 251.082 48.1616 238.756 48.1616Z" fill="black"/>
</svg>
