<svg width="717" height="833" viewBox="0 0 717 833" fill="none" xmlns="http://www.w3.org/2000/svg">
<path d="M583.107 806.49C552.729 834.943 525.007 833.086 523.307 832.918C498.241 832.918 494.487 785.429 490.168 730.484C483.264 643.068 473.846 523.346 362.324 521.056C360.979 521.022 359.704 521.022 358.394 521.022C235.644 521.022 229.163 642.127 224.423 730.788C222.086 774.598 219.856 815.978 204.312 828.771C200.311 832.079 195.355 833.395 189.229 832.821C158.285 829.986 132.369 816.08 112.187 791.509C27.3914 688.229 66.1254 429.688 66.5142 427.087L66.9037 424.59L65.2397 422.699C31.1092 384.357 -44.7671 203.412 35.7471 82.8163C105.779 -22.0882 190.819 4.37686 289.324 35.0576C300.052 38.399 310.885 41.7742 321.79 45.014C433.002 77.9223 511.349 47.2754 511.349 47.2754C510.712 47.4442 453.639 61.4511 369.375 45.3178C395.68 40.2213 421.102 31.8507 445.921 23.6829C517.404 0.123655 579.113 -20.1945 643.728 36.9815C800.504 175.636 657.147 415.203 655.695 417.639L654.81 419.057L654.916 420.744C672.654 667.336 625.671 766.633 583.114 806.5L583.107 806.49Z" fill="black"/>
</svg>
