<svg width="644" height="829" viewBox="0 0 644 829" fill="none" xmlns="http://www.w3.org/2000/svg">
<path d="M625.82 214.447C609.806 195.283 585.054 184.389 558.601 184.389H518.665L519.495 172.731L519.535 172.476L522.342 137.754C524.319 112.36 514.474 87.2209 495.929 68.567C477.107 49.9131 450.378 39.2748 422.818 39.2748H327.644V25.9037C327.644 11.585 315.069 0 299.531 0C283.992 0 271.418 11.5859 271.418 25.9037V39.3112H176.52C148.959 39.3112 122.27 49.9495 103.409 68.6034C84.5474 87.2573 74.9787 112.396 76.6793 137.791L77.2328 144.786H56.988C36.4668 144.786 17.9215 154.623 7.79908 170.945C-2.59969 187.267 -2.59969 206.941 7.79908 223.264L94.116 360.836L104.515 494.51C106.61 521.653 120.134 545.953 140.497 563.478C119.026 579.399 103.843 602.316 99.4536 629.24L75.2549 777.156L46.8645 777.193C31.1272 777.193 18.7515 788.851 18.7515 803.096C18.7515 817.341 31.1282 829 46.8645 829H552.156C567.893 829 580.269 817.341 580.269 803.096C580.269 788.851 567.892 777.193 552.156 777.193H523.765L499.567 629.277C495.178 602.353 479.955 579.435 458.523 563.514C478.808 546.026 492.291 521.761 494.506 494.546L498.143 446.891H530.211C569.278 446.891 603.322 422.553 612.891 387.286L641.558 282.106C647.726 258.243 642.111 233.902 625.82 214.447ZM299.645 717.085C280.23 717.085 264.217 702.33 264.217 684.441C264.217 666.552 280.23 652.051 299.645 652.051C319.06 652.051 334.797 666.552 334.797 684.441C334.797 702.33 319.021 717.085 299.645 717.085ZM447.524 374.32C441.632 372.244 436.294 369.402 430.086 366.014C414.348 356.942 394.934 346.048 357.806 346.048C320.677 346.048 300.709 356.942 284.972 365.723C271.765 372.973 262.473 378.146 240.844 378.146C219.492 378.146 209.647 372.973 196.4 365.723C184.301 359.238 169.987 351.478 148.595 348.089C148.042 345.247 147.488 342.405 146.065 340.074L56.9792 196.597H107.038H107.591H461.319L447.524 374.32ZM586.98 269.392L558.314 374.833C554.953 386.747 543.406 395.054 530.201 395.054H502.088L514.464 236.244H558.592C567.607 236.244 576.03 239.888 581.644 246.336C586.982 253.076 588.957 261.377 586.98 269.392Z" fill="black"/>
</svg>
