<svg width="804" height="802" viewBox="0 0 804 802" fill="none" xmlns="http://www.w3.org/2000/svg">
<path d="M309.682 170.005L259.791 162.414L237.251 114.507C233.267 106.021 224.724 100.614 215.356 100.614C205.988 100.614 197.446 106.021 193.462 114.471L170.921 162.414L121.03 170.005C112.057 171.366 104.627 177.596 101.755 186.189C98.8837 194.746 101.037 204.235 107.39 210.68L144.216 248.311L135.494 301.768C133.987 310.863 137.863 320.029 145.436 325.363C153.009 330.698 162.952 331.235 171.064 326.76L215.356 302.305L259.683 326.76C263.344 328.765 267.364 329.767 271.384 329.767C276.266 329.767 281.147 328.264 285.31 325.363C292.884 320.028 296.724 310.863 295.252 301.768L286.53 248.311L323.356 210.68C329.673 204.199 331.863 194.746 328.991 186.189C326.084 177.595 318.656 171.365 309.682 170.005Z" fill="black"/>
<path d="M717.857 0H459.429C437.175 0 417.075 8.66483 401.785 22.5569C386.53 8.87922 366.61 0.357479 344.571 0.357479H86.1429C38.6563 0.357479 0 38.9193 0 86.2899V344.087C0 366.071 8.54253 385.979 22.218 401.161C8.54262 416.378 0 436.25 0 458.27V716.068C0 763.438 38.6563 802 86.1429 802H344.571C366.718 802 386.709 793.371 402 779.658C417.291 793.407 437.282 802 459.429 802H717.857C765.344 802 804 763.438 804 716.068V458.27C804 436.178 795.386 416.235 781.603 400.982C795.35 385.729 804 365.786 804 343.694V85.8966C804 38.5261 765.344 0 717.857 0ZM373.286 716.067C373.286 731.893 360.436 744.711 344.571 744.711H86.1429C70.2779 744.711 57.4286 731.893 57.4286 716.067V458.664C57.4286 442.837 70.2779 430.019 86.1429 430.019H344.571C360.436 430.019 373.286 442.837 373.286 458.664V716.067ZM373.286 343.84C373.286 359.666 360.436 372.484 344.571 372.484H86.1429C70.2779 372.484 57.4286 359.666 57.4286 343.84V86.2899C57.4286 70.4636 70.2779 57.6457 86.1429 57.6457H344.571C360.436 57.6457 373.286 70.4636 373.286 86.2899V343.84ZM746.571 716.067C746.571 731.857 733.686 744.711 717.857 744.711H459.429C443.599 744.711 430.714 731.857 430.714 716.067V458.269C430.714 442.515 443.564 429.697 459.357 429.661H717.969C733.726 429.661 746.576 442.515 746.576 458.269L746.571 716.067ZM746.571 343.73C746.571 359.484 733.722 372.302 717.929 372.338H459.316C443.56 372.266 430.71 359.484 430.71 343.73V85.9324C430.71 70.1419 443.595 57.2883 459.424 57.2883H717.853C733.682 57.2883 746.567 70.1419 746.567 85.9324L746.571 343.73Z" fill="black"/>
<path d="M703.495 214.827C703.495 278.095 652.061 329.404 588.638 329.404C525.216 329.404 473.781 278.095 473.781 214.827C473.781 151.524 525.216 100.251 588.638 100.251C652.061 100.251 703.495 151.524 703.495 214.827Z" fill="black"/>
<path d="M304.693 472.597H126.021C111.915 472.597 100.502 483.983 100.502 498.054V676.289C100.502 690.361 111.916 701.746 126.021 701.746H304.693C318.799 701.746 330.212 690.36 330.212 676.289V498.054C330.212 483.982 318.798 472.597 304.693 472.597Z" fill="black"/>
<path d="M611.472 486.236C602.822 468.907 574.467 468.907 565.816 486.236L476.478 665.333C472.53 673.282 472.961 682.698 477.591 690.217C482.257 697.736 490.44 702.355 499.306 702.355H677.978C686.807 702.355 695.027 697.736 699.693 690.217C704.359 682.698 704.79 673.245 700.806 665.333L611.472 486.236Z" fill="black"/>
</svg>
