<svg width="824" height="812" viewBox="0 0 824 812" fill="none" xmlns="http://www.w3.org/2000/svg">
<path fill-rule="evenodd" clip-rule="evenodd" d="M536.297 110.349C494.602 114.375 454.039 118.469 412.017 118.418H411.983C369.961 118.469 329.398 114.375 287.703 110.349L247.346 54.321C244.96 51.0223 240.548 49.8382 236.806 51.4961C236.806 51.4961 143.407 93.0433 96.8364 119.552C95.6005 120.262 94.5534 121.277 93.7981 122.478C85.6443 135.707 79.3273 167.071 74.4866 206.656C63.7236 294.775 58.5739 425.118 44.292 475.242C37.6832 498.401 27.1606 519.766 18.1657 540.862C8.62152 563.259 0.776759 585.386 0.0729623 608.748C-0.390514 624.024 1.24023 643.563 8.26103 660.666L0.193123 700.386C-0.596503 704.277 1.46339 708.184 5.15403 709.791C5.15403 709.791 96.2356 749.055 127.752 752.743C131.185 753.132 134.532 751.474 136.232 748.497C136.232 748.497 155.046 715.594 161.328 699.895C177.121 692.587 185.206 679.155 191.111 663.135C194.389 681.456 201.187 698.288 214.697 713.801C216.07 740.935 234.266 758.782 234.266 758.782C235.879 760.356 238.059 761.252 240.342 761.252H583.658C585.941 761.252 588.121 760.356 589.734 758.782C589.734 758.782 607.93 740.935 609.32 713.784C622.813 698.288 629.61 681.456 632.889 663.135C638.811 679.155 646.879 692.604 662.689 699.929C668.954 715.594 687.768 748.497 687.768 748.497C689.467 751.474 692.815 753.132 696.248 752.743C727.764 749.055 818.846 709.791 818.846 709.791C822.537 708.184 824.596 704.277 823.807 700.386L815.739 660.648C822.76 643.563 824.39 624.024 823.927 608.748C823.223 585.386 815.378 563.259 805.834 540.862C796.839 519.766 786.317 498.401 779.708 475.242C765.426 425.118 760.276 294.775 749.513 206.656C744.673 167.071 738.356 135.707 730.202 122.478C729.447 121.277 728.4 120.262 727.164 119.552C680.593 93.0433 587.194 51.4961 587.194 51.4961C583.452 49.8382 579.04 51.0223 576.654 54.321L536.297 110.349ZM523.131 128.619C504.386 130.412 485.813 132.121 467.188 133.373C473.951 139.412 481.384 146.568 485.984 152.539C503.03 174.632 516.917 196.996 521.088 224.198C522.153 231.134 524.075 241.944 523.457 251.739C522.925 259.892 520.608 267.336 515.87 272.563C511.424 277.469 504.112 279.584 495.906 279.025C486.723 278.416 476.406 274.644 471.102 271.853C460.425 266.219 452.374 258.945 446.177 250.639C450.52 285.335 454.914 320.353 454.914 380.627C454.914 385.296 451.069 389.085 446.332 389.085C441.594 389.085 437.749 385.296 437.749 380.627C437.749 264.511 421.441 242.147 420.617 135.284C417.751 135.318 414.884 135.335 412 135.335C409.116 135.335 406.249 135.318 403.383 135.284C402.559 242.147 386.251 264.511 386.251 380.627C386.251 385.296 382.406 389.085 377.668 389.085C372.931 389.085 369.086 385.296 369.086 380.627C369.086 320.353 373.48 285.335 377.823 250.639C371.626 258.945 363.575 266.219 352.898 271.853C347.594 274.644 337.277 278.416 328.094 279.025C319.888 279.584 312.576 277.469 308.13 272.563C303.392 267.336 301.075 259.892 300.543 251.739C299.925 241.944 301.847 231.134 302.912 224.198C307.083 196.996 320.97 174.632 338.016 152.539C342.616 146.568 350.049 139.412 356.812 133.373C338.187 132.121 319.614 130.412 300.869 128.619L317.417 151.575C301.899 173.076 289.969 195.406 285.935 221.661C284.733 229.493 282.707 241.724 283.411 252.804C284.201 265.018 288.235 275.997 295.324 283.83C302.963 292.254 315.168 296.855 329.244 295.908C338.651 295.282 348.967 292.102 356.194 289.023C353.739 313.518 351.92 341.837 351.92 380.627C351.92 394.634 363.455 406.002 377.668 406.002C391.882 406.002 403.417 394.634 403.417 380.627C403.417 325.377 407.108 291.358 411.073 259.368C411.382 259.622 411.691 259.876 412 260.113C412.309 259.876 412.618 259.622 412.927 259.368C416.892 291.358 420.583 325.377 420.583 380.627C420.583 394.634 432.118 406.002 446.332 406.002C460.545 406.002 472.08 394.634 472.08 380.627C472.08 341.837 470.261 313.518 467.806 289.023C475.033 292.102 485.349 295.282 494.756 295.908C508.832 296.855 521.037 292.254 528.676 283.83C535.765 275.997 539.799 265.018 540.589 252.804C541.293 241.724 539.267 229.493 538.065 221.661C534.031 195.406 522.101 173.076 506.583 151.575L523.131 128.619ZM381.479 134.709C376.33 138.837 359.507 152.641 351.679 162.791C336.419 182.549 323.613 202.393 319.888 226.719C318.962 232.758 317.142 242.164 317.674 250.69C317.949 254.767 318.567 258.674 320.936 261.297C321.399 261.821 322.172 261.906 322.944 262.024C324.18 262.244 325.536 262.244 326.926 262.159C333.552 261.719 340.968 258.945 344.796 256.932C372.313 242.418 377.72 214.133 382.303 188.504C385.187 172.416 386.045 142.474 386.217 134.878C384.638 134.828 383.058 134.777 381.479 134.709ZM442.521 134.709C440.941 134.777 439.362 134.828 437.783 134.878C437.955 142.474 438.813 172.416 441.697 188.504C446.28 214.133 451.687 242.418 479.204 256.932C483.032 258.945 490.448 261.719 497.074 262.159C498.464 262.244 499.82 262.244 501.056 262.024C501.828 261.906 502.601 261.821 503.064 261.297C505.433 258.674 506.051 254.767 506.326 250.69C506.858 242.164 505.038 232.758 504.112 226.719C500.387 202.393 487.581 182.549 472.32 162.791C464.493 152.641 447.67 138.837 442.521 134.709Z" fill="black"/>
</svg>
