<svg width="643" height="677" viewBox="0 0 643 677" fill="none" xmlns="http://www.w3.org/2000/svg">
<path fill-rule="evenodd" clip-rule="evenodd" d="M643 551.958V606.361C643 618.211 637.107 628.945 627.639 636.709C618.17 644.473 605.093 649.322 590.692 649.322H436.247V670.326C436.247 674.003 432.605 677 428.136 677C426.414 677 424.858 676.591 423.567 675.856L378.112 654.634L332.093 676.101C328.22 677.926 323.287 676.809 321.069 673.594C320.34 672.559 320.009 671.442 320.009 670.353L319.976 649.349L41.2839 649.294C29.9288 649.294 19.5991 645.48 12.1502 639.351C4.66814 633.221 0.0330984 624.749 0.0330984 615.432L0 33.8623C0 24.5457 4.66801 16.073 12.1171 9.94355C19.5991 3.81402 29.9287 0 41.2839 0L591.583 0.0272406C605.654 0.0272406 618.367 4.98535 627.636 12.586C637.138 20.3774 642.997 31.1383 642.997 42.9342L643 551.958ZM376.224 507.417C371.755 507.417 368.113 504.42 368.113 500.715C368.113 497.038 371.755 494.041 376.224 494.041H509.082C513.618 494.041 517.26 497.038 517.26 500.715C517.26 504.42 513.618 507.417 509.082 507.417H376.224ZM167.088 507.417C162.553 507.417 158.911 504.42 158.911 500.715C158.911 497.038 162.553 494.041 167.088 494.041H299.947C304.416 494.041 308.058 497.038 308.058 500.715C308.058 504.42 304.416 507.417 299.947 507.417H167.088ZM167.088 452.388C162.553 452.388 158.911 449.391 158.911 445.714C158.911 442.036 162.553 439.039 167.088 439.039H509.082C513.618 439.039 517.26 442.036 517.26 445.714C517.26 449.391 513.618 452.388 509.082 452.388H167.088ZM167.088 397.386C162.553 397.386 158.911 394.389 158.911 390.712C158.911 387.007 162.553 384.01 167.088 384.01H509.082C513.618 384.01 517.26 387.007 517.26 390.712C517.26 394.389 513.618 397.386 509.082 397.386H167.088ZM59.8253 13.355L59.8584 581.549H41.2856C31.9162 581.549 23.2427 584.109 16.2904 588.523V33.8725C16.2904 28.2334 19.1044 23.1116 23.6069 19.3798C28.1756 15.6749 34.3993 13.3593 41.2855 13.3593L59.8253 13.355ZM41.2856 594.925C34.3994 594.925 28.1752 597.24 23.607 600.945C19.0714 604.65 16.2905 609.799 16.2905 615.438C16.2905 621.077 19.1045 626.199 23.607 629.931C28.1757 633.636 34.3994 635.951 41.2856 635.951H319.978V594.924L41.2856 594.925ZM420.028 642.654V594.925H336.236V658.863L374.01 641.237C376.394 640.066 379.506 639.957 382.121 641.155L420.029 658.863L420.028 642.654ZM626.783 583.047C617.38 590.403 604.634 594.925 590.73 594.925H436.285V635.951H590.73C600.596 635.951 609.634 632.628 616.189 627.234C622.744 621.867 626.783 614.485 626.783 606.339V583.047ZM531.504 181.714H156.702V94.7549H531.504V181.714Z" fill="black"/>
</svg>
