<svg width="437" height="440" viewBox="0 0 437 440" fill="none" xmlns="http://www.w3.org/2000/svg">
<path fill-rule="evenodd" clip-rule="evenodd" d="M392.638 219.63C392.632 217.295 391.888 215.023 390.512 213.143C389.137 211.263 387.202 209.874 384.989 209.176C382.776 208.478 380.399 208.509 378.205 209.263C376.01 210.017 374.111 211.456 372.783 213.37L296.42 323.185C295.343 324.786 294.706 326.644 294.572 328.573C294.438 330.501 294.812 332.43 295.656 334.167C296.532 336.019 297.906 337.587 299.622 338.693C301.338 339.799 303.327 340.4 305.365 340.426H338.092V428.278C338.117 430.674 338.919 432.997 340.377 434.892C341.836 436.786 343.87 438.149 346.169 438.771C348.468 439.393 350.906 439.241 353.112 438.338C355.317 437.435 357.168 435.83 358.383 433.769L434.747 301.991C435.702 300.326 436.206 298.439 436.208 296.517C436.211 294.594 435.713 292.705 434.763 291.038C433.814 289.37 432.446 287.983 430.797 287.015C429.147 286.046 427.274 285.53 425.365 285.519H392.638V219.63ZM218.092 8.65658e-05C216.17 -0.00759572 214.28 0.496174 212.613 1.46038C210.947 2.42459 209.563 3.81501 208.601 5.49083L77.6923 236.102C76.7348 237.771 76.2308 239.665 76.2308 241.593C76.2308 243.52 76.7348 245.414 77.6923 247.083C78.6534 248.759 80.0374 250.15 81.7041 251.114C83.3707 252.078 85.2609 252.582 87.1832 252.574H215.256L174.456 425.752C173.921 428.207 174.238 430.772 175.355 433.019C176.472 435.267 178.321 437.06 180.593 438.101C182.865 439.142 185.423 439.367 187.84 438.738C190.257 438.11 192.387 436.666 193.874 434.647L412.056 127.166C413.201 125.549 413.889 123.651 414.048 121.672C414.206 119.694 413.829 117.709 412.956 115.929C412.083 114.149 410.747 112.64 409.09 111.564C407.433 110.487 405.518 109.883 403.547 109.815H312.129L358.71 15.9232C359.547 14.2515 359.946 12.3922 359.868 10.5219C359.79 8.6516 359.239 6.83236 358.266 5.23696C357.293 3.64156 355.931 2.32297 354.31 1.40641C352.688 0.489851 350.861 0.00575157 349.001 8.65658e-05H218.092ZM98.0923 10.9816C98.0868 8.64696 97.3424 6.37486 95.967 4.49508C94.5916 2.6153 92.6569 1.22568 90.4437 0.527926C88.2304 -0.169825 85.8539 -0.139391 83.659 0.614812C81.4642 1.36901 79.5652 2.80773 78.2378 4.72212L1.87412 114.537C0.798012 116.138 0.160717 117.996 0.0266326 119.924C-0.107451 121.853 0.266426 123.782 1.11049 125.518C1.98656 127.37 3.36044 128.938 5.07645 130.045C6.79245 131.151 8.78198 131.751 10.8196 131.778H43.5469V219.63C43.5712 222.026 44.3737 224.349 45.8319 226.244C47.2902 228.138 49.3241 229.5 51.6234 230.123C53.9226 230.745 56.361 230.593 58.5663 229.69C60.7717 228.786 62.623 227.182 63.8378 225.12L140.201 93.3427C141.156 91.6781 141.66 89.7905 141.663 87.8684C141.666 85.9464 141.168 84.0572 140.218 82.3897C139.268 80.7223 137.9 79.3349 136.251 78.3664C134.602 77.3979 132.729 76.882 130.82 76.8705H98.0923V10.9816ZM163.547 197.667H160.274L205.765 115.196C206.481 113.941 206.945 112.557 207.13 111.122C207.315 109.687 207.217 108.229 206.842 106.832C206.467 105.435 205.823 104.126 204.945 102.98C204.068 101.833 202.975 100.872 201.729 100.151C200.482 99.4301 199.107 98.9633 197.681 98.7772C196.256 98.5912 194.808 98.6896 193.42 99.0669C192.032 99.4442 190.732 100.093 189.593 100.976C188.454 101.859 187.5 102.96 186.783 104.214L132.238 203.048C131.28 204.717 130.776 206.611 130.776 208.538C130.776 210.466 131.28 212.36 132.238 214.029C133.185 215.725 134.563 217.138 136.231 218.122C137.898 219.106 139.796 219.626 141.729 219.63H163.547C166.44 219.63 169.215 218.473 171.261 216.413C173.307 214.354 174.456 211.561 174.456 208.648C174.456 205.736 173.307 202.943 171.261 200.883C169.215 198.824 166.44 197.667 163.547 197.667Z" fill="black"/>
</svg>
