<svg width="464" height="464" viewBox="0 0 464 464" fill="none" xmlns="http://www.w3.org/2000/svg">
<path d="M231.667 0C103.722 0 0 103.869 0 232C0 360.131 103.722 464 231.667 464C359.612 464 463.333 360.129 463.333 232C463.333 103.871 359.612 0 231.667 0ZM308.823 243.797L217.894 343.903C208.743 353.979 193.836 344.01 196.907 329.869L214.829 247.358C216.4 240.127 210.9 233.292 203.51 233.292H163.239C151.556 233.292 146.135 216.607 154.953 207.784L243.025 119.638C252.475 110.179 266.836 120.612 263.484 134.5L246.607 204.429C244.846 211.728 250.367 218.755 257.866 218.755H300.092C311.48 218.755 317.054 234.735 308.823 243.797Z" fill="black"/>
</svg>
