<svg width="820" height="443" viewBox="0 0 820 443" fill="none" xmlns="http://www.w3.org/2000/svg">
<path fill-rule="evenodd" clip-rule="evenodd" d="M262.571 122.289C268.577 91.7179 232.542 71.5698 210.881 93.4065L148.1 156.774C129.963 175.068 127.561 204.239 142.495 225.416L168.96 262.951C170.922 265.753 171.442 269.337 170.361 272.592L159.271 305.348C148.421 337.568 187.899 362.247 210.68 337.485L279.547 262.621C299.767 240.661 297.925 205.722 275.503 186.151L258.326 171.154C255.484 168.682 254.203 164.767 254.923 161.018L262.571 122.289Z" fill="black"/>
<path fill-rule="evenodd" clip-rule="evenodd" d="M0 221.5C0 99.1687 96.8131 0 216.211 0C249.203 0 280.432 7.5811 308.42 21.0952H487.792C507.651 21.0952 525.709 32.7968 534.236 51.1728L559.5 105.476H680.9C713.13 105.476 742.359 124.717 755.772 154.712L812.426 281.284C837.41 337.154 797.532 400.809 737.514 400.809H343.171C307.536 427.343 263.654 443 216.206 443C96.8151 443 0 343.828 0 221.5ZM216.211 42.1905C119.558 42.1905 41.2045 122.452 41.2045 221.5C41.2045 320.548 119.56 400.809 216.211 400.809C312.862 400.809 391.217 320.548 391.217 221.5C391.217 122.452 312.862 42.1905 216.211 42.1905ZM426.251 168.762C424.529 161.593 422.487 154.547 420.125 147.667H680.892C696.987 147.667 711.642 157.267 718.328 172.264L774.942 298.835C787.474 326.811 767.535 358.619 737.506 358.619H386.007C391.212 351.903 396.017 344.858 400.421 337.524H714.159C737.141 337.524 752.075 312.761 741.785 291.749L696.022 197.933C687.293 180.052 669.477 168.763 649.977 168.763L426.251 168.762Z" fill="black"/>
</svg>
