<svg width="812" height="827" viewBox="0 0 812 827" fill="none" xmlns="http://www.w3.org/2000/svg">
<path fill-rule="evenodd" clip-rule="evenodd" d="M-3.15922e-08 390.479H67.8764C72.9513 312.506 103.401 241.602 150.977 186.277L102.964 137.377C43.2156 205.296 5.23828 293.454 -3.15922e-08 390.479ZM134.88 104.83L182.893 153.73C237.211 105.315 306.832 74.3032 383.391 69.1345V0.0041513C288.119 5.33425 201.604 44.014 134.88 104.83ZM428.593 1.07853e-05V69.1304C505.153 74.299 574.77 105.311 629.091 153.726L677.105 104.826C610.378 44.014 523.859 5.33403 428.593 1.07853e-05ZM709.061 137.372L661.048 186.272C708.585 241.593 739.034 312.5 744.109 390.474H811.986C806.752 293.442 768.774 205.329 709.061 137.372ZM811.99 436.511H744.113C739.038 514.485 708.589 585.388 661.052 640.713L709.026 689.614C768.774 621.655 806.751 533.537 811.99 436.511ZM677.11 722.161L629.096 673.26C574.779 721.676 505.158 752.688 428.598 757.856V826.987C523.871 821.656 610.385 782.977 677.11 722.161ZM383.396 826.991V757.86C306.837 752.692 237.22 721.68 182.898 673.264L134.885 722.124C201.612 782.977 288.131 821.656 383.396 826.991ZM102.929 689.619L150.942 640.718C103.405 585.398 72.9554 514.49 67.8805 436.516H0.0040557C5.23747 533.549 43.2156 621.662 102.929 689.619ZM198.677 625.334C198.558 625.212 198.439 625.091 198.36 624.97C198.241 624.849 198.122 624.728 198.003 624.607C145.074 570.538 112.325 495.918 112.325 413.499C112.325 248.31 243.795 114.401 405.998 114.401C486.958 114.401 560.304 147.796 613.398 201.783C613.477 201.864 613.556 201.945 613.636 202.025C613.715 202.106 613.794 202.187 613.874 202.268C666.883 256.337 699.67 331.039 699.67 413.499C699.67 495.915 666.961 570.501 614.032 624.606C613.913 624.728 613.754 624.849 613.635 624.97C613.516 625.091 613.398 625.253 613.279 625.374C560.151 679.28 486.924 712.594 406 712.594C325.077 712.594 251.811 679.24 198.677 625.334ZM402.23 204.328C434.622 173.842 486.323 203.884 477.045 247.817L462.692 315.776C461.781 320.056 463.327 324.458 466.657 327.164L526.01 375.539C552.336 396.981 554.477 436.997 530.569 461.226L395.811 597.832C361.476 632.6 304.78 595.531 321.551 549.296L340.067 498.175C341.415 494.46 340.78 490.301 338.401 487.151L271.476 398.679C253.635 375.056 256.41 341.502 277.899 321.311L402.23 204.328Z" fill="black"/>
</svg>
