<svg width="727" height="814" viewBox="0 0 727 814" fill="none" xmlns="http://www.w3.org/2000/svg">
<path d="M258.353 22.6696C270.047 8.61396 288.996 0.233549 308.088 0.133548C425.746 0.0667783 543.45 0.200326 661.108 0C686.806 0.0333849 711.746 14.8241 722.177 36.5584C728.421 49.7466 726.436 64.3364 726.797 78.2921C726.725 119.959 726.941 161.593 726.616 203.259C726.652 217.549 721.491 232.205 710.663 242.623C698.103 255.277 679.731 262.488 661.216 262.454C602.855 262.388 544.491 262.454 486.134 262.388C465.308 282.053 444.952 302.185 424.379 322.084C411.567 334.804 398.068 346.89 385.724 359.978C382.548 363.083 379.011 367.023 373.923 366.689C368.761 366.822 362.878 363.25 361.796 358.509C361.507 326.491 362.012 294.439 361.759 262.423C343.316 262.356 324.873 262.49 306.43 262.356C284.811 261.755 264.021 250.737 252.724 233.643C246.841 224.462 243.99 213.711 244.242 203.094C244.892 154.583 244.062 106.068 244.748 57.5287C244.928 44.9415 250.161 32.6217 258.282 22.6395M355.696 101.733C344.362 104.304 334.906 112.785 331.983 123.234C328.121 134.652 332.308 148.041 342.414 155.587C352.7 163.5 368.039 165.102 379.842 159.226C393.196 153.116 400.883 137.658 396.841 124.37C392.798 108.144 373.164 96.8581 355.696 101.733ZM478.084 101.233C468.447 102.869 459.425 108.211 454.588 116.157C448.163 126.006 448.452 139.194 455.418 148.776C461.409 157.29 472.129 162.165 482.885 162.899C496.96 162.999 511.073 154.519 515.259 141.865C518.616 133.619 517.244 124.204 512.697 116.558C506.128 105.507 491.546 98.9965 478.12 101.233M596.175 101.634C579.067 104.572 566.76 121.767 570.874 137.491C573.87 154.018 593.288 165.837 610.937 161.73C626.854 159.126 638.403 144.436 637.103 129.679C636.815 111.149 615.303 96.8928 596.211 101.667L596.175 101.634Z" fill="black"/>
<path d="M86.4862 333.166C94.607 333.166 102.656 332.231 110.74 331.597C146.364 330.061 182.42 332.699 216.784 341.88C273.738 356.737 325.498 388.054 363.464 430.018C380.319 412.723 398.401 396.23 418.974 382.641C446.837 364.178 478.238 350.39 511.19 341.708C544.648 332.46 579.91 330.357 614.628 331.492C623.507 332.36 632.386 332.928 641.3 333.428C641.3 421.267 641.372 509.114 641.336 596.952C641.156 640.255 641.806 683.594 640.759 726.893C555.869 717.612 466.36 737.176 398.144 785.688C385.691 794.135 374.828 804.251 363.603 814C340.324 793.601 315.636 774.036 286.798 760.614C225.911 729.998 154.588 720.182 86.1592 726.727C86.1953 595.546 85.8704 464.306 86.4118 333.125L86.4862 333.166Z" fill="black"/>
<path d="M0.363288 407.893C2.74537 395.206 15.5219 384.89 29.4174 384.489C40.1003 384.055 50.7841 384.456 61.468 384.088C60.9627 467.322 61.468 550.56 61.2153 633.791C61.3597 673.622 61.2153 713.486 61.504 753.314C96.4411 746.302 132.678 745.868 168.121 749.274C223.847 755.751 279.468 774.547 321.73 809.571C226.016 809.905 130.256 809.704 34.5058 809.738C16.676 810.639 -0.25109 796.082 0.0371876 779.455C0.145467 660.497 0.0371899 541.505 0.07328 422.547C0.145469 417.639 -0.251554 412.731 0.289835 407.856L0.363288 407.893Z" fill="black"/>
<path d="M666.016 384.218C677.638 384.752 689.368 383.584 700.953 384.819C715.029 387.356 727.625 399.009 726.976 412.83C726.94 532.387 726.976 651.952 726.904 771.509C726.976 778.487 727.337 785.865 723.583 792.209C718.314 803.293 705.32 810.037 692.435 809.804C596.934 809.804 501.433 809.804 405.932 809.77C412.248 803.026 420.694 798.419 428.345 793.077C479.777 761.159 542.474 746.769 604.01 747.237C624.583 747.337 645.155 749.173 665.295 753.113C666.558 724.033 665.583 694.919 665.872 665.804C666.053 571.923 665.728 478.068 666.053 384.221L666.016 384.218Z" fill="black"/>
</svg>
