<svg width="623" height="716" viewBox="0 0 623 716" fill="none" xmlns="http://www.w3.org/2000/svg">
<path d="M560.693 0.0312434H62.3066C27.9296 0.0312434 0 24.3172 0 54.2774V661.754C0 691.684 27.8946 716 62.3066 716H560.693C595.07 716 623 691.714 623 661.754V54.2462C623 24.3164 595.105 0 560.693 0V0.0312434ZM236.758 54.247C236.758 60.2268 231.151 65.1082 224.283 65.1082H211.807C204.939 65.1082 199.332 60.2267 199.332 54.247C199.332 48.2673 204.939 43.3857 211.807 43.3857H224.283C231.151 43.3857 236.758 48.2673 236.758 54.247ZM174.451 54.247C174.451 60.2268 168.844 65.1082 161.976 65.1082H149.501C142.632 65.1082 137.026 60.2267 137.026 54.247C137.026 48.2673 142.633 43.3857 149.501 43.3857H161.976C168.844 43.3857 174.451 48.2673 174.451 54.247ZM112.144 54.247C112.144 60.2268 106.538 65.1082 99.6693 65.1082H87.1941C80.3257 65.1082 74.719 60.2267 74.719 54.247C74.719 48.2673 80.3259 43.3857 87.1941 43.3857H99.6693C106.538 43.3857 112.144 48.2673 112.144 54.247ZM112.144 358.005H510.863C517.731 358.005 523.338 353.123 523.338 347.143V317.091C523.338 311.111 528.945 306.23 535.813 306.23C542.681 306.23 548.288 311.111 548.288 317.091V347.143C548.288 365.053 531.467 379.698 510.897 379.698H112.143C91.572 379.698 74.7513 365.053 74.7513 347.143V195.268C74.7513 177.359 91.572 162.714 112.143 162.714H299.028C305.896 162.714 311.503 167.596 311.503 173.576C311.503 179.555 305.896 184.437 299.028 184.437H112.143C105.274 184.437 99.6675 189.318 99.6675 195.298V347.173C99.6675 353.153 105.274 358.034 112.143 358.034L112.144 358.005ZM535.784 433.944V607.516C535.784 625.426 518.964 640.07 498.393 640.07H373.776C353.206 640.07 336.385 625.426 336.385 607.516V433.944C336.385 416.034 353.206 401.39 373.776 401.39H498.393C518.964 401.39 535.784 416.034 535.784 433.944ZM249.204 509.883H124.587C104.017 509.883 87.1959 495.238 87.1959 477.329V433.944C87.1959 416.034 104.017 401.39 124.587 401.39H249.204C269.775 401.39 286.596 416.034 286.596 433.944V477.329C286.596 495.238 269.775 509.883 249.204 509.883ZM286.596 564.129V607.514C286.596 625.423 269.775 640.068 249.204 640.068H124.587C104.017 640.068 87.1959 625.423 87.1959 607.514V564.129C87.1959 546.22 104.017 531.575 124.587 531.575H249.204C269.775 531.575 286.596 546.22 286.596 564.129ZM558.463 108.496C559.97 111.852 560.706 115.544 560.706 119.358C560.706 137.267 543.885 151.912 523.315 151.912V292.93C523.315 296.835 520.932 300.405 517.077 302.357C515.22 303.334 512.977 303.761 510.839 303.761C508.737 303.761 506.599 303.334 504.602 302.357L423.617 261.993L342.633 302.357C338.778 304.31 334.047 304.188 330.158 302.357C326.303 300.405 323.92 296.835 323.92 292.93V151.912C303.349 151.912 286.529 137.267 286.529 119.358C286.529 115.574 287.265 111.883 288.772 108.496H24.9329V86.8042H598.102V108.496H558.463Z" fill="black"/>
<path d="M523.183 104.047H323.819C316.951 104.047 311.344 108.929 311.344 114.909C311.344 120.889 316.951 125.77 323.819 125.77H523.183C530.051 125.77 535.658 120.888 535.658 114.909C535.658 108.929 530.051 104.047 523.183 104.047Z" fill="black"/>
<path d="M348.776 269.802L417.321 235.631C419.318 234.654 421.421 234.227 423.558 234.227C425.661 234.227 427.798 234.654 429.796 235.631L498.34 269.802V147.427H348.811V269.802H348.776Z" fill="black"/>
<path d="M124.5 418.63H249.117C255.985 418.63 261.592 424.61 261.592 429.492V472.877C261.592 478.856 256.02 483.738 249.117 483.738H124.5C117.632 483.738 112.025 477.758 112.025 472.877V429.492C112.025 423.512 117.597 418.63 124.5 418.63Z" fill="black"/>
<path d="M124.5 548.816H249.117C255.985 548.816 261.592 554.796 261.592 559.677V603.062C261.592 609.042 256.02 613.923 249.117 613.923H124.5C117.632 613.923 112.025 607.943 112.025 603.062V559.677C112.025 553.697 117.597 548.816 124.5 548.816Z" fill="black"/>
<path d="M373.689 418.63H498.306C505.174 418.63 510.781 424.61 510.781 429.492V603.064C510.781 609.044 505.209 613.925 498.306 613.925H373.689C366.821 613.925 361.214 607.946 361.214 603.064V429.492C361.214 423.512 366.786 418.63 373.689 418.63Z" fill="black"/>
</svg>
