<svg width="466" height="480" viewBox="0 0 466 480" fill="none" xmlns="http://www.w3.org/2000/svg">
<path d="M262.228 129.67C252.615 126.036 247.283 141.434 256.838 145.446L366.398 188.994C375.973 192.649 381.382 177.251 371.788 173.218L262.228 129.67Z" fill="black"/>
<path d="M196.218 105.394C186.566 101.76 181.292 117.158 190.828 121.171L227.355 135.686C228.25 136.043 229.145 136.211 230.04 136.211C238.486 136.358 240.841 123.019 232.726 119.91L196.199 105.395L196.218 105.394Z" fill="black"/>
<path d="M412.713 119.844L115.438 1.69995C91.1713 -8.11019 72.5089 26.9712 92.475 44.7222L70.0568 110.514C44.2525 110.22 37.1883 149.398 61.65 159.334L130.23 186.58L120.577 214.855C118.378 220.737 123.613 227.396 129.334 226.01L169.344 217.817L193.086 249.685L61.0078 285.229C-40.6113 316.739 -5.93784 470.993 96.3279 448.934L141.806 436.708L150.116 472.714C151.362 478.89 159.126 481.242 163.174 476.621L191.995 445.573L230.935 458.408C236.5 460.446 242.358 454.438 240.762 448.346L232.453 412.34L406.019 365.641C431.142 359.003 428.437 318.628 402.614 316.17C398.897 300.1 390.47 263.653 386.851 247.958C408.412 232.476 393.759 195.924 368.364 202.562L209.782 245.228L217.897 221.448L224.28 223.989C249.636 217.141 279.488 209.159 304.846 202.311L234.029 174.161L240.529 155.108C242.047 150.906 239.868 145.801 235.917 144.31L162.864 115.279C158.816 113.682 154.36 115.909 152.861 120.257L146.361 139.311L85.1598 114.985L95.9216 83.4535L161.637 109.565C165.568 111.162 170.141 108.977 171.639 104.587C173.118 100.238 171.055 95.4068 167.027 93.7891L101.312 67.6563L106.663 51.943L397.243 167.399C417.774 175.318 426.044 202.858 412.422 220.504C413.239 227.709 413.57 240.881 407.674 245.292C408.219 245.04 408.841 244.788 409.386 244.452C408.199 247.687 406.214 250.628 404.171 253.275C405.981 261.216 408.549 272.16 410.32 280.08C482.671 256.279 484.211 148.217 412.733 119.838L412.713 119.844ZM372.081 253.493L375.856 269.794L307.899 288.091C303.734 289.225 301.185 293.784 302.236 298.279C303.267 302.816 307.607 305.527 311.674 304.392L379.651 286.095L387.201 318.698L221.187 363.359L218.21 350.461C217.276 346.07 212.8 343.171 208.772 344.348L133.247 364.682C129.083 365.817 126.533 370.375 127.585 374.87L130.562 387.768L85.1029 399.994C80.9579 401.192 76.6961 401.066 72.5124 400.519C38.788 393.608 38.0482 343.59 71.481 334.41C140.952 315.693 301.267 272.566 372.144 253.491L372.081 253.493Z" fill="black"/>
<path d="M100.439 365.446L213.735 334.965C223.582 332.129 219.982 316.206 209.979 318.643L96.683 349.124C86.797 351.981 90.4945 367.925 100.439 365.446Z" fill="black"/>
<path d="M242.067 321.065C242.69 321.065 243.332 320.981 243.955 320.813L281.727 310.646C291.613 307.789 287.935 291.887 277.971 294.323L240.199 304.491C231.403 306.78 233.115 321.17 242.067 321.044V321.065Z" fill="black"/>
</svg>
