<svg width="849" height="773" viewBox="0 0 849 773" fill="none" xmlns="http://www.w3.org/2000/svg">
<path d="M169.805 11.2104H56.6018C41.5949 11.2284 27.2073 17.9224 16.5959 29.8238C5.9845 41.7252 0.0159817 57.8618 0 74.6929V709.518C0.0159817 726.349 5.9845 742.485 16.5959 754.387C27.2073 766.288 41.5949 772.982 56.6018 773H169.805C184.812 772.982 199.2 766.288 209.811 754.387C220.423 742.485 226.391 726.349 226.407 709.518V74.6929C226.391 57.8618 220.423 41.7252 209.811 29.8238C199.2 17.9224 184.812 11.2284 169.805 11.2104ZM169.805 646.035H56.6018C51.5978 646.035 46.7989 643.806 43.2606 639.837C39.7223 635.869 37.7345 630.486 37.7345 624.874C37.7345 619.262 39.7223 613.88 43.2606 609.911C46.7989 605.943 51.5978 603.713 56.6018 603.713H169.805C174.809 603.713 179.608 605.943 183.146 609.911C186.685 613.88 188.673 619.262 188.673 624.874C188.673 630.486 186.685 635.869 183.146 639.837C179.608 643.806 174.809 646.035 169.805 646.035ZM169.805 180.497H56.6018C51.5978 180.497 46.7989 178.268 43.2606 174.299C39.7223 170.331 37.7345 164.948 37.7345 159.336C37.7345 153.724 39.7223 148.342 43.2606 144.373C46.7989 140.405 51.5978 138.175 56.6018 138.175H169.805C174.809 138.175 179.608 140.405 183.146 144.373C186.685 148.342 188.673 153.724 188.673 159.336C188.673 164.948 186.685 170.331 183.146 174.299C179.608 178.268 174.809 180.497 169.805 180.497Z" fill="black"/>
<path d="M415.08 11.2104H301.876C286.869 11.2284 272.482 17.9224 261.87 29.8238C251.259 41.7252 245.29 57.8618 245.274 74.6929V709.518C245.29 726.349 251.259 742.485 261.87 754.387C272.482 766.288 286.869 772.982 301.876 773H415.08C430.086 772.982 444.474 766.288 455.085 754.387C465.697 742.485 471.665 726.349 471.681 709.518V74.6929C471.665 57.8618 465.697 41.7252 455.085 29.8238C444.474 17.9224 430.086 11.2284 415.08 11.2104ZM415.08 646.035H301.876C296.872 646.035 292.073 643.806 288.535 639.837C284.997 635.869 283.009 630.486 283.009 624.874C283.009 619.262 284.997 613.88 288.535 609.911C292.073 605.943 296.872 603.713 301.876 603.713H415.08C420.083 603.713 424.882 605.943 428.421 609.911C431.959 613.88 433.947 619.262 433.947 624.874C433.947 630.486 431.959 635.869 428.421 639.837C424.882 643.806 420.083 646.035 415.08 646.035ZM415.08 180.497H301.876C296.872 180.497 292.073 178.268 288.535 174.299C284.997 170.331 283.009 164.948 283.009 159.336C283.009 153.724 284.997 148.342 288.535 144.373C292.073 140.405 296.872 138.175 301.876 138.175H415.08C420.083 138.175 424.882 140.405 428.421 144.373C431.959 148.342 433.947 153.724 433.947 159.336C433.947 164.948 431.959 170.331 428.421 174.299C424.882 178.268 420.083 180.497 415.08 180.497Z" fill="black"/>
<path d="M847.084 660.233L700.584 47.0314C696.683 30.78 687.194 16.9274 674.198 8.51301C661.203 0.0985972 645.762 -2.19051 631.263 2.14792L521.914 35.0121C507.422 39.3841 495.069 50.0263 487.566 64.6026C480.064 79.1789 478.024 96.4984 481.895 112.76L628.405 725.95C632.308 742.202 641.799 756.056 654.796 764.472C667.793 772.888 683.235 775.18 697.736 770.844L807.076 737.98C821.564 733.603 833.912 722.959 841.413 708.384C848.913 693.809 850.953 676.492 847.084 660.233ZM560.986 198.52C558.587 199.263 556.08 199.466 553.61 199.118C551.14 198.769 548.755 197.876 546.595 196.489C544.434 195.102 542.539 193.249 541.02 191.038C539.501 188.826 538.387 186.299 537.742 183.602C537.097 180.905 536.935 178.092 537.264 175.324C537.593 172.557 538.408 169.889 539.66 167.476C540.913 165.063 542.578 162.952 544.562 161.265C546.545 159.577 548.806 158.346 551.216 157.643L660.605 124.779C662.999 124.06 665.496 123.877 667.953 124.241C670.409 124.604 672.778 125.506 674.924 126.897C677.07 128.287 678.951 130.137 680.459 132.343C681.967 134.548 683.073 137.065 683.714 139.75C684.355 142.434 684.518 145.235 684.194 147.99C683.87 150.745 683.065 153.402 681.826 155.809C680.587 158.216 678.937 160.325 676.97 162.017C675.004 163.708 672.76 164.949 670.366 165.667L560.986 198.52ZM777.753 615.338L668.414 648.202C666.014 648.945 663.507 649.148 661.037 648.799C658.567 648.451 656.183 647.557 654.022 646.17C651.862 644.783 649.967 642.931 648.448 640.719C646.928 638.507 645.814 635.98 645.17 633.283C644.525 630.587 644.362 627.773 644.692 625.006C645.021 622.238 645.835 619.571 647.088 617.158C648.34 614.745 650.006 612.634 651.989 610.946C653.972 609.259 656.234 608.028 658.643 607.325L767.993 574.461C772.8 573.097 777.892 573.91 782.169 576.725C786.445 579.539 789.562 584.129 790.845 589.501C792.127 594.873 791.473 600.595 789.023 605.431C786.573 610.266 782.525 613.824 777.753 615.338Z" fill="black"/>
</svg>
