<svg width="781" height="754" viewBox="0 0 781 754" fill="none" xmlns="http://www.w3.org/2000/svg">
<path d="M710.342 0.0433114H70.5846C31.613 0.0859844 0.0384458 35.9768 0 80.2744V604.762C0.0375424 643.128 23.9912 676.116 57.143 683.456C57.2932 695.491 57.5184 716.487 57.5184 726.943C56.9553 741.197 66.6793 753.317 79.2192 753.957C79.5571 753.957 79.895 754 80.2329 754H90.1068C99.7557 753.317 108.053 746.02 111.057 735.564C114.098 724.212 119.016 698.437 121.531 684.993H659.581C662.096 698.479 666.977 724.256 670.055 735.564C673.021 746.02 681.357 753.317 691.006 754H700.879C713.457 754 723.632 742.392 723.632 728.096C723.632 727.712 723.632 727.328 723.594 726.943C723.594 716.488 723.819 695.491 723.932 683.456C757.046 676.074 780.925 643.128 781 604.763L780.925 80.2311C780.887 35.9335 749.312 0.0437 710.34 0L710.342 0.0433114ZM547.438 563.107V466.575C547.663 457.698 554.196 450.743 562.005 450.998C569.476 451.254 575.483 458.082 575.709 466.575V563.107H547.438ZM594.519 606.423V518.383H622.79V606.423H594.519ZM488.793 436.79L484.1 451.94C484.024 452.068 484.024 452.239 483.949 452.367L481.396 460.646L464.314 453.988L471.748 430.005C473.437 424.67 478.581 421.854 483.274 423.731C487.967 425.609 490.445 431.456 488.793 436.832L488.793 436.79ZM481.471 524.83V617.095H452.862L481.471 524.83ZM721.306 595.715C721.306 607.536 712.858 617.138 702.459 617.138H641.599V466.624C641.599 456.681 638.145 447.121 631.913 440.122C619.11 425.528 598.31 425.485 585.433 440.037C585.32 440.165 585.17 440.336 585.057 440.464C572.442 425.697 551.68 425.314 538.69 439.653C538.464 439.909 538.202 440.165 537.976 440.464C530.167 431.331 518.828 427.32 507.828 429.88C506.176 412.512 492.434 400.007 477.154 401.885C466.491 403.208 457.48 411.359 453.914 422.839L394.781 613.557C394.406 614.752 394.931 615.904 394.931 617.099H265.888C267.427 615.179 268.478 612.746 268.478 609.972C268.478 604.04 264.273 599.26 259.055 599.26H247.265V564.095C277.338 560.596 303.807 540.069 317.661 509.555C320.064 504.306 318.262 497.862 313.644 495.131C309.026 492.4 303.357 494.448 300.954 499.697C282.933 539.3 240.057 554.792 205.215 534.265C170.374 513.781 156.745 465.045 174.804 425.442C178.708 416.907 183.89 409.225 190.16 402.781C194.14 398.983 194.628 392.198 191.286 387.674C187.945 383.151 181.975 382.596 177.996 386.394C177.845 386.565 177.658 386.735 177.508 386.906C140.751 424.803 138.01 489.413 171.35 531.193C186.181 549.757 206.53 561.492 228.493 564.138V599.26H216.704C211.485 599.26 207.28 604.04 207.28 609.972C207.28 612.746 208.331 615.178 209.871 617.098H70.466C64.4213 617.098 59.5407 611.551 59.5407 604.68V378.368C59.5407 370.473 65.1724 364.115 72.0808 364.115H708.648C715.593 364.115 721.188 370.516 721.188 378.368V595.678L721.306 595.715ZM121.868 292.929C122.807 288.746 125.698 285.46 129.377 284.393V307.353C123.783 305.732 120.442 299.244 121.868 292.929ZM198.947 193.622V217.393H162.605V193.622H198.947ZM193.09 159.184C193.09 152.398 197.934 146.85 203.903 146.85H214.904V171.474H203.903C197.934 171.474 193.09 165.969 193.09 159.184ZM183.629 238.774V262.545H168.874V238.774H183.629ZM283.348 284.053V307.824H249.933V284.053H283.348ZM268.029 217.393V193.622H276.927C282.709 193.58 287.402 198.872 287.44 205.443C287.479 212.015 282.822 217.349 277.041 217.393H267.992H268.029ZM505.423 166.95L500.354 161.317C498.064 158.799 498.026 154.617 500.241 152.014C501.143 150.989 502.306 150.307 503.545 150.093L510.566 148.941C512.443 148.642 514.058 147.319 514.921 145.356L518.075 138.144C519.502 134.901 522.956 133.535 525.847 135.157C526.973 135.797 527.912 136.864 528.475 138.144L531.629 145.356C532.492 147.277 534.107 148.6 535.984 148.941L543.005 150.093C546.158 150.605 548.336 153.977 547.886 157.561C547.698 158.97 547.097 160.293 546.196 161.317L541.128 166.95C539.776 168.444 539.138 170.62 539.475 172.754L540.677 180.692C541.203 184.276 539.1 187.648 535.946 188.288C534.707 188.544 533.393 188.288 532.267 187.605L525.997 183.85C524.307 182.825 522.318 182.825 520.628 183.85L514.358 187.605C511.542 189.312 508.051 188.075 506.549 184.874C505.948 183.594 505.76 182.143 505.948 180.692L507.15 172.754C507.487 170.62 506.849 168.444 505.498 166.95H505.423ZM721.306 306.583C721.306 314.478 715.674 320.837 708.765 320.837H560.278C561.817 318.916 562.869 316.484 562.869 313.71C562.869 307.778 558.664 302.998 553.445 302.998H532.382V245.471C556.186 241.716 576.573 224.134 586.184 199.125C587.123 201.387 587.799 203.82 588.137 206.295C585.471 209.709 585.734 214.915 588.737 217.945C590.051 219.268 591.779 220.036 593.543 220.036C595.721 220.036 597.786 218.969 599.25 217.134C605.595 209.111 602.404 199.894 599.55 191.743C596.847 185.128 595.345 177.958 595.045 170.661C595.045 159.65 597.448 152.267 602.178 148.683C609.087 144.927 617.084 144.927 623.992 148.64C627.746 150.432 632.101 148.427 633.678 144.159C635.255 139.892 633.49 134.941 629.736 133.149C618.285 127.174 605.032 127.772 593.993 134.685C593.317 135.197 592.604 135.837 591.89 136.477V119.92C591.89 105.58 581.678 93.9726 569.063 93.9726H476.853C464.238 93.9726 454.025 105.58 454.025 119.92V136.477C453.312 135.837 452.636 135.197 451.923 134.685C440.885 127.729 427.632 127.174 416.18 133.149C412.425 134.941 410.623 139.892 412.238 144.159C413.814 148.427 418.17 150.475 421.924 148.64C428.832 144.927 436.829 144.927 443.737 148.683C448.468 152.268 450.871 159.65 450.871 170.661C450.608 177.958 449.069 185.127 446.365 191.743C443.512 199.894 440.283 209.111 446.666 217.134C448.13 218.97 450.195 220.036 452.41 220.036C456.427 220.036 459.656 216.324 459.656 211.757C459.656 209.752 459.018 207.788 457.817 206.295C458.154 203.82 458.793 201.387 459.731 199.125C469.343 224.134 489.692 241.715 513.496 245.471V302.998H493.034C487.815 302.998 483.61 307.778 483.61 313.71C483.61 316.484 484.662 318.959 486.201 320.837H339.741C345.974 314.734 350.104 306.028 350.104 295.957C350.104 283.411 343.909 271.973 334.109 266.298C334.109 266.212 334.184 266.084 334.222 265.999C341.693 249.697 336.137 229.597 321.757 221.104C317.589 218.629 312.971 217.348 308.279 217.348H304.149C307.302 208.386 306.739 198.23 302.572 189.78C317.515 182.184 324.16 162.255 317.477 145.312C312.709 133.192 302.083 125.383 290.37 125.425H203.829C187.423 125.425 174.132 140.532 174.132 159.181C174.132 163.662 174.92 168.058 176.46 172.155H145.073C128.928 172.112 115.787 186.921 115.75 205.271C115.712 218.202 122.283 229.98 132.57 235.442C130.43 240.137 129.304 245.343 129.304 250.635C129.304 254.732 129.979 258.743 131.331 262.541C115.149 262.711 102.158 277.776 102.309 296.169C102.384 306.113 106.514 314.775 112.671 320.793H72.1225C65.1767 320.793 59.5825 314.391 59.5825 306.539V89.2297C59.5825 77.4088 68.0301 67.8068 78.4296 67.8068H702.425C712.824 67.8068 721.272 77.4089 721.272 89.2297V306.539L721.306 306.583ZM237.955 383.399C199.659 383.185 168.497 418.307 168.309 461.837C168.122 505.366 199.021 540.787 237.317 541.001C268.816 541.171 296.412 517.187 304.597 482.663C304.71 482.364 304.897 482.151 304.972 481.852H304.785C306.211 475.579 306.962 469.092 306.962 462.606C307.15 419.076 276.251 383.655 237.955 383.442L237.955 383.399ZM223.275 478.737C218.845 482.236 215.804 487.571 214.865 493.631L214.227 498.154C213.777 501.142 213.401 507.159 213.138 512.024C200.185 503.574 191.213 488.978 188.659 472.25C190.236 468.751 192.075 465.465 194.14 462.307C195.755 461.88 197.407 461.581 199.096 461.41C202.438 461.069 205.779 460.386 209.008 459.319C212.161 457.698 215.728 457.356 219.07 458.38C223.538 460.898 226.541 465.891 226.992 471.567C226.729 475.578 225.94 476.304 223.312 478.694L223.275 478.737ZM287.477 471.269C285.187 472.293 282.859 473.146 280.494 473.872C279.705 474.085 278.954 474.384 278.203 474.725C281.507 466.105 281.395 455.734 267.466 441.993C265.138 439.688 262.51 437.597 259.919 435.591C256.502 433.202 253.386 430.257 250.608 426.928C250.758 426.459 250.946 426.032 251.246 425.648C253.349 422.703 255.864 420.143 258.642 418.052C260.294 416.643 261.909 415.15 263.411 413.571C278.691 423.813 288.077 442.419 288.115 462.563C288.115 465.465 287.89 468.367 287.477 471.269Z" fill="black"/>
</svg>
