<svg width="393" height="788" viewBox="0 0 393 788" fill="none" xmlns="http://www.w3.org/2000/svg">
<path d="M115.032 317.521C143.816 327.123 198.078 327.214 227.409 317.429C266.347 303.917 334.104 303.697 374.439 317.475C376.885 318.334 379.889 319.001 382.718 319.722C389.251 306.32 392.988 292.131 392.988 277.504V239.817C392.988 201.956 353.911 171.295 305.658 171.295H87.3308C39.0776 171.295 0 201.956 0 239.817V277.504C0 288.358 2.06099 298.992 5.68231 309.252C42.5475 304.757 86.2595 307.535 115.032 317.511V317.521Z" fill="black"/>
<path d="M349.323 431.687V390.574C349.323 376.449 354.05 362.772 362.492 350.402C360.664 349.845 358.545 349.443 356.81 348.831C328.154 339.036 273.042 339.073 244.794 348.858C224.428 355.664 197.67 359.511 171.087 359.511C144.503 359.511 117.745 355.664 97.6591 348.949C79.308 342.6 50.3957 340.306 24.4759 341.978C24.8718 342.463 25.1512 342.983 25.5588 343.468C37.3542 357.519 43.677 373.791 43.677 390.574V431.687C43.677 448.47 37.3426 464.751 25.5588 478.793C8.74469 498.318 0.0116149 521.277 0.0116149 544.748V702.348C0.0116149 749.628 48.9168 788 109.175 788H283.837C344.095 788 393 749.628 393 702.348V544.748C393 521.277 384.267 498.327 367.453 478.793C355.657 464.742 349.323 448.47 349.323 431.687Z" fill="black"/>
<path d="M305.658 85.6522C305.658 66.731 286.107 51.3913 261.992 51.3913V34.2609C261.992 15.3397 242.442 0 218.327 0H174.661C150.547 0 130.996 15.3397 130.996 34.2609V51.3913C106.881 51.3913 87.3307 66.731 87.3307 85.6522V137.043H305.658V85.6522Z" fill="black"/>
</svg>
