<svg width="643" height="829" viewBox="0 0 643 829" fill="none" xmlns="http://www.w3.org/2000/svg">
<path d="M52.1351 778.097C52.1351 791.597 58.5434 804.544 69.9502 814.091C81.3569 823.637 96.8278 829 112.959 829H530.041C546.172 829 561.643 823.637 573.05 814.091C584.457 804.544 590.865 791.597 590.865 778.097V532.305C589.718 533.556 588.693 534.865 587.389 536.043C578.925 544.029 567.993 549.907 555.795 553.03C570.669 576.794 581.213 602.285 587.076 628.658C587.981 633.002 587.274 637.474 585.049 641.47C582.824 645.467 579.189 648.797 574.633 651.012C570.068 653.294 564.777 654.353 559.471 654.046C554.165 653.74 549.099 652.082 544.951 649.296L495.875 616.427L452.863 652.408C449.686 655.071 445.74 657 441.408 658.009C437.076 659.018 432.507 659.072 428.143 658.166C423.779 657.259 419.769 655.424 416.503 652.838C413.237 650.252 410.826 647.002 409.504 643.406C389.827 589.808 360.124 539.158 321.5 493.342C282.866 539.165 253.146 589.818 233.444 643.42C232.129 647.031 229.718 650.294 226.445 652.892C223.173 655.489 219.151 657.331 214.773 658.238C210.395 659.146 205.811 659.087 201.468 658.067C197.126 657.048 193.173 655.103 189.998 652.423L146.986 616.442L97.9098 649.311C93.7917 652.11 88.7509 653.792 83.4608 654.13C78.1706 654.469 72.883 653.448 68.3042 651.205C63.7254 648.962 60.0736 645.603 57.8365 641.577C55.5994 637.55 54.8835 633.049 55.7846 628.673C61.6484 602.299 72.192 576.808 87.0657 553.045C74.9213 549.92 64.0389 544.058 55.6108 536.101C54.3596 534.923 53.3342 533.614 52.1351 532.363V778.097Z" fill="black"/>
<path d="M586.225 395.462C590.686 385.876 591.947 375.455 589.875 365.315C587.802 355.175 582.474 345.698 574.46 337.897C568.616 331.967 560.879 327.549 552.15 325.157C543.422 322.765 534.06 322.497 525.157 324.386C464.82 337.272 383.28 375.29 354.223 389.397C361.536 393.336 367.75 398.545 372.446 404.67C377.141 410.796 380.208 417.694 381.438 424.899H443.149C445.453 424.899 447.663 425.665 449.293 427.029C450.922 428.393 451.838 430.242 451.838 432.171C451.838 434.099 450.922 435.949 449.293 437.313C447.663 438.677 445.453 439.443 443.149 439.443H381.438C380.208 446.647 377.141 453.546 372.446 459.671C367.75 465.797 361.536 471.005 354.223 474.944C383.28 489.052 464.82 527.069 525.157 539.955C534.058 541.841 543.415 541.572 552.141 539.181C560.866 536.789 568.6 532.372 574.442 526.444C582.466 518.642 587.801 509.161 589.877 499.015C591.953 488.869 590.69 478.442 586.225 468.85L570.584 434.789C569.819 433.102 569.819 431.239 570.584 429.553L586.225 395.462Z" fill="black"/>
<path d="M334.482 481.838L333.143 482.085C374.111 529.88 405.523 582.93 426.153 639.159C426.589 640.374 427.398 641.472 428.498 642.345C429.599 643.218 430.953 643.834 432.426 644.133C433.873 644.439 435.391 644.422 436.828 644.082C438.265 643.743 439.569 643.093 440.611 642.199L489.132 601.607C490.645 600.337 492.665 599.579 494.804 599.48C496.944 599.381 499.052 599.946 500.723 601.069L555.865 637.996C557.259 638.939 558.967 639.499 560.756 639.598C562.545 639.697 564.327 639.33 565.857 638.548C567.377 637.838 568.594 636.749 569.339 635.432C570.083 634.116 570.318 632.637 570.011 631.204C564.116 604.809 553.321 579.35 538.017 555.75C532.235 555.919 526.455 555.37 520.865 554.121C444.035 537.643 334.482 481.838 334.482 481.838Z" fill="black"/>
<path d="M56.7752 468.85C52.3099 478.442 51.0474 488.869 53.123 499.015C55.1987 509.161 60.5342 518.642 68.5577 526.444C74.4001 532.372 82.134 536.789 90.8593 539.181C99.5845 541.572 108.942 541.841 117.843 539.955C178.181 527.069 259.72 489.052 288.777 474.944C281.464 471.005 275.25 465.797 270.554 459.671C265.859 453.546 262.792 446.647 261.562 439.443H199.851C197.547 439.443 195.337 438.677 193.707 437.313C192.078 435.949 191.162 434.099 191.162 432.171C191.162 430.242 192.078 428.393 193.707 427.029C195.337 425.665 197.547 424.899 199.851 424.899H261.562C262.792 417.695 265.859 410.796 270.554 404.67C275.25 398.545 281.464 393.336 288.777 389.397C259.72 375.29 178.181 337.272 117.843 324.386C108.94 322.489 99.5756 322.751 90.8447 325.144C82.1139 327.537 74.3775 331.96 68.5403 337.898C60.5261 345.698 55.1975 355.175 53.1251 365.315C51.0527 375.455 52.3144 385.876 56.7752 395.462L72.4157 429.553C73.181 431.239 73.181 433.102 72.4157 434.789L56.7752 468.85Z" fill="black"/>
<path d="M321.5 468.53C345.495 468.53 364.946 452.252 364.946 432.171C364.946 412.09 345.495 395.811 321.5 395.811C297.505 395.811 278.054 412.09 278.054 432.171C278.054 452.252 297.505 468.53 321.5 468.53Z" fill="black"/>
<path d="M105 555.677C89.6929 579.272 78.8919 604.726 72.9892 631.116C72.6776 632.553 72.9085 634.035 73.6497 635.356C74.391 636.678 75.6058 637.773 77.1252 638.49C78.6555 639.272 80.4372 639.639 82.2262 639.54C84.0152 639.441 85.7239 638.881 87.1178 637.937L142.277 601.011C143.947 599.892 146.051 599.329 148.187 599.428C150.322 599.528 152.339 600.283 153.851 601.549L202.371 642.141C203.408 643.041 204.713 643.695 206.151 644.035C207.589 644.375 209.11 644.389 210.556 644.075C212.03 643.776 213.384 643.159 214.484 642.287C215.585 641.414 216.394 640.316 216.83 639.101C237.47 582.875 268.881 529.827 309.839 482.027L308.501 481.78C308.501 481.78 199.017 537.585 122.135 553.99C116.554 555.258 110.78 555.826 105 555.677Z" fill="black"/>
<path d="M616.932 392.684H605.393C604.607 395.402 603.627 398.078 602.456 400.698L587.997 432.171L602.456 463.629C604.817 468.892 606.427 474.369 607.253 479.947H616.932C623.846 479.947 630.476 477.649 635.365 473.558C640.254 469.466 643 463.917 643 458.132V414.5C643 408.714 640.254 403.165 635.365 399.074C630.476 394.983 623.846 392.684 616.932 392.684Z" fill="black"/>
<path d="M37.6068 392.684H26.0676C19.154 392.684 12.5236 394.983 7.63501 399.074C2.74639 403.165 0 408.714 0 414.5V458.132C0 463.917 2.74639 469.466 7.63501 473.558C12.5236 477.649 19.154 479.947 26.0676 479.947H35.7473C36.5728 474.369 38.1828 468.892 40.5438 463.629L55.0026 432.171L40.5438 400.698C39.3733 398.078 38.3925 395.402 37.6068 392.684Z" fill="black"/>
<path d="M112.959 0C96.8278 0 81.3569 5.36304 69.9502 14.9093C58.5434 24.4556 52.1351 37.4031 52.1351 50.9035V331.978C59.8457 322.889 70.6525 315.958 83.1436 312.089C95.6348 308.221 109.23 307.595 122.153 310.293C198.965 326.699 304.209 380.104 308.64 382.329C317.145 381.049 325.855 381.049 334.36 382.329C338.792 380.06 444.035 326.699 520.847 310.293C533.77 307.599 547.364 308.227 559.854 312.095C572.344 315.963 583.151 322.892 590.865 331.978V50.9035C590.865 37.4031 584.457 24.4556 573.05 14.9093C561.643 5.36304 546.172 0 530.041 0H466.001L442.853 40.3447C438.202 49.5822 430.517 57.5269 420.69 63.2571C410.862 68.9873 399.295 72.2683 387.329 72.7193H255.671C243.703 72.2687 232.133 68.9863 222.305 63.2532C212.477 57.52 204.793 49.5714 200.147 40.3301L176.999 0H112.959Z" fill="black"/>
<path d="M255.671 58.1754H387.329C396.01 57.701 404.354 55.1865 411.403 50.9209C418.452 46.6553 423.92 40.8117 427.178 34.0617L446.711 0H196.376L215.909 34.0472C219.157 40.7902 224.609 46.6306 231.642 50.8983C238.675 55.166 247.003 57.6882 255.671 58.1754Z" fill="black"/>
</svg>
