<svg width="664" height="836" viewBox="0 0 664 836" fill="none" xmlns="http://www.w3.org/2000/svg">
<path d="M120.339 301.56C130.503 296.23 141.71 292.932 153.268 291.867C164.827 290.802 176.493 291.994 187.548 295.368L250.205 314.152C268.905 320.047 285.389 330.987 297.64 345.634C320.102 339.452 343.953 339.452 366.415 345.634C378.672 330.984 395.162 320.044 413.869 314.152L476.526 295.368C487.581 291.994 499.247 290.802 510.805 291.867C522.364 292.932 533.57 296.23 543.735 301.56C568.503 314.117 588.24 337.554 598.984 366.482H638.126C611.552 276.602 568.743 188.33 519.612 122.429C477.908 66.6188 411.529 0 332.083 0C252.637 0 186.258 66.6188 144.554 122.429C95.4232 188.278 52.6136 276.549 26.058 366.429H65.1819C75.9257 337.554 95.6627 314.117 120.339 301.56Z" fill="black"/>
<path d="M544.472 613.193C534.446 618.549 523.381 621.922 511.944 623.109C500.507 624.296 488.936 623.273 477.927 620.102L412.874 601.65C394.445 596.403 377.86 585.594 364.315 570.168C343.191 575.57 320.938 575.57 299.814 570.168C286.325 585.664 269.665 596.508 251.255 601.65L186.202 620.102C175.193 623.273 163.622 624.296 152.185 623.109C140.748 621.922 129.683 618.549 119.657 613.193C95.2942 600.583 75.7414 577.287 65.145 548.586H1.27156C8.58133 627.063 46.5953 700.096 107.823 753.295C169.051 806.494 249.053 836 332.064 836C415.076 836 495.078 806.494 556.306 753.295C617.534 700.096 655.548 627.063 662.857 548.586H598.984C588.388 577.287 568.835 600.583 544.472 613.193Z" fill="black"/>
<path d="M56.3546 417.028C56.3434 407.11 57.3183 397.213 59.2663 387.47H20.1609C6.96599 437.053 0 483.017 0 520.847C0 523.086 0 525.342 0 527.598H59.34C57.3911 517.855 56.4162 507.958 56.4283 498.04L56.3546 417.028Z" fill="black"/>
<path d="M604.826 387.47C606.769 397.214 607.738 407.11 607.719 417.028V498.04C607.728 507.957 606.76 517.853 604.826 527.598H664C664 525.342 664 523.086 664 520.847C664 483.034 657.052 437.071 643.858 387.47H604.826Z" fill="black"/>
<path d="M332.083 553.186C387.735 553.186 432.85 510.369 432.85 457.551C432.85 404.734 387.735 361.917 332.083 361.917C276.431 361.917 231.315 404.734 231.315 457.551C231.315 510.369 276.431 553.186 332.083 553.186Z" fill="black"/>
<path d="M209.201 457.534C209.258 436.113 215.507 415.117 227.266 396.833C239.026 378.549 255.846 363.677 275.894 353.837C267.057 344.806 255.957 338.043 243.626 334.178L180.969 315.394C174.742 313.509 168.247 312.542 161.711 312.526C147.254 312.675 133.233 317.238 121.721 325.538C95.0915 344.06 78.5426 379.11 78.5426 417.028V498.04C78.5426 535.661 94.8887 570.588 121.205 589.197C139.08 601.843 159.905 605.673 179.992 599.989L245.045 581.554C257.52 577.849 268.784 571.164 277.755 562.141C257.185 552.509 239.863 537.608 227.749 519.122C215.634 500.637 209.21 479.303 209.201 457.534Z" fill="black"/>
<path d="M542.519 325.538C524.44 312.963 503.413 309.36 483.271 315.394L420.614 334.178C408.269 338.028 397.155 344.786 388.309 353.819C408.542 363.705 425.486 378.727 437.254 397.213C449.022 415.698 455.152 436.921 454.961 458.518C454.77 480.115 448.265 501.238 436.172 519.533C424.078 537.829 406.871 552.579 386.466 562.141C395.447 571.161 406.716 577.845 419.195 581.554L484.248 600.006C504.28 605.673 525.159 601.843 543.035 589.197C569.332 570.588 585.679 535.661 585.679 498.04V417.028C585.679 379.11 569.148 344.06 542.519 325.538Z" fill="black"/>
</svg>
