<svg width="730" height="782" viewBox="0 0 730 782" fill="none" xmlns="http://www.w3.org/2000/svg">
<path d="M663.089 0H220.12C183.222 0 153.209 30.1966 153.209 67.394V636.51C153.209 673.675 183.189 703.904 220.12 703.904H663.089C699.988 703.904 730 673.708 730 636.51V67.394C730 30.2293 700.02 0 663.089 0ZM715.123 636.511C715.123 665.431 691.802 688.921 663.089 688.921H220.12C191.407 688.921 168.086 665.431 168.086 636.511V67.3948C168.086 38.4746 191.407 14.9848 220.12 14.9848H663.089C691.802 14.9848 715.123 38.4746 715.123 67.3948V636.511Z" fill="black"/>
<path d="M366.149 736.918L159.536 766.361C145.797 768.52 132.057 765.085 120.852 756.711C109.646 748.466 102.338 736.296 100.194 722.458L15.5131 159.782C11.2257 131.221 30.7463 104.46 59.2321 100.011L114.287 91.6358C118.315 91.0142 121.076 87.1865 120.588 83.13C119.971 79.0733 116.171 76.2925 112.144 76.7833L56.9589 85.2891C20.4182 90.8834 -4.78728 125.267 0.767194 162.072L85.5395 724.748C88.1704 742.513 97.6221 758.249 112.011 768.914C123.607 777.55 137.347 782 151.573 782C154.983 782 158.361 781.738 161.772 781.248L368.252 751.804C372.28 751.182 375.171 747.485 374.554 743.298C373.936 739.176 370.307 736.263 366.149 736.918Z" fill="black"/>
<path d="M441.6 289.86C442.867 289.86 444.134 289.599 445.141 288.977C450.435 286.065 573.634 217.036 573.634 138.359C573.634 94.9451 538.62 59.6782 495.518 59.6782C475.25 59.6782 456.086 67.5299 441.599 81.3682C427.243 67.5299 407.949 59.6782 387.811 59.6782C344.709 59.6782 309.695 94.9451 309.695 138.359C309.695 217.039 432.891 286.071 438.188 288.977C439.097 289.468 440.366 289.86 441.6 289.86Z" fill="black"/>
<path d="M283.389 291.234H242.431C225.184 291.234 211.184 305.334 211.184 322.706V363.96C211.184 381.332 225.184 395.433 242.431 395.433H283.389C300.636 395.433 314.636 381.332 314.636 363.96V322.706C314.603 305.334 300.507 291.234 283.389 291.234Z" fill="black"/>
<path d="M283.389 425.002H242.431C225.184 425.002 211.184 439.102 211.184 456.474V497.728C211.184 515.1 225.184 529.2 242.431 529.2H283.389C300.636 529.2 314.636 515.1 314.636 497.728V456.474C314.603 439.07 300.507 425.002 283.389 425.002Z" fill="black"/>
<path d="M283.389 558.619H242.431C225.184 558.619 211.184 572.719 211.184 590.091V631.345C211.184 648.717 225.184 662.818 242.431 662.818H283.389C300.636 662.818 314.636 648.717 314.636 631.345V590.091C314.603 572.817 300.507 558.619 283.389 558.619Z" fill="black"/>
<path d="M638.269 313.705H367.156C362.998 313.705 359.717 317.009 359.717 321.196C359.717 325.384 362.998 328.688 367.156 328.688H638.269C642.426 328.688 645.707 325.384 645.707 321.196C645.707 317.009 642.426 313.705 638.269 313.705Z" fill="black"/>
<path d="M367.156 372.959H541.905C546.063 372.959 549.343 369.654 549.343 365.467C549.343 361.279 546.063 357.975 541.905 357.975L367.156 358.008C362.998 358.008 359.717 361.312 359.717 365.5C359.717 369.654 363.128 372.959 367.156 372.959Z" fill="black"/>
<path d="M638.269 447.322H367.156C362.998 447.322 359.717 450.626 359.717 454.813C359.717 459.001 362.998 462.305 367.156 462.305H638.269C642.426 462.305 645.707 459.001 645.707 454.813C645.707 450.626 642.426 447.322 638.269 447.322Z" fill="black"/>
<path d="M367.156 506.693H541.905C546.063 506.693 549.343 503.389 549.343 499.201C549.343 495.014 546.063 491.709 541.905 491.709L367.156 491.742C362.998 491.742 359.717 495.046 359.717 499.234C359.717 503.291 363.128 506.693 367.156 506.693Z" fill="black"/>
<path d="M638.269 581.056H367.156C362.998 581.056 359.717 584.36 359.717 588.548C359.717 592.735 362.998 596.04 367.156 596.04H638.269C642.426 596.04 645.707 592.735 645.707 588.548C645.707 584.36 642.426 581.056 638.269 581.056Z" fill="black"/>
<path d="M541.897 625.486H367.147C362.99 625.486 359.709 628.79 359.709 632.978C359.709 637.166 362.99 640.47 367.147 640.47H541.897C546.055 640.47 549.335 637.166 549.335 632.978C549.335 628.79 546.055 625.486 541.897 625.486Z" fill="black"/>
</svg>
