<svg width="642" height="853" viewBox="0 0 642 853" fill="none" xmlns="http://www.w3.org/2000/svg">
<path d="M609.976 274.33C574.839 271.078 541.953 256.097 516.925 231.942C491.897 207.787 476.278 175.954 472.732 141.872C472.732 136.988 472.732 132.104 472.732 127.072C472.732 122.04 472.732 117.156 472.732 112.273H167.743C167.743 113.16 167.743 114.048 167.743 115.084C167.743 118.932 167.743 123.076 167.743 127.072C167.743 131.068 167.743 136.988 166.981 141.872C163.464 175.84 147.954 207.584 123.081 231.724C98.2071 255.864 65.4991 270.916 30.4988 274.33C25.4665 274.33 20.4342 275.07 15.2494 275.07C10.0646 275.07 5.0323 275.07 0 274.33V690.203C5.0323 690.203 10.0646 690.203 15.2494 690.203C20.4342 690.203 25.4665 690.203 30.4988 690.203C65.7533 693.483 98.7321 708.57 123.775 732.875C148.818 757.179 164.364 789.186 167.743 823.401C167.743 828.284 168.506 833.168 168.506 838.2C168.506 843.232 168.506 848.116 167.743 853H474.257C474.257 848.116 474.257 843.232 474.257 838.2C474.257 833.168 474.257 828.284 474.257 823.401C477.637 789.186 493.182 757.179 518.225 732.875C543.268 708.57 576.247 693.483 611.501 690.203C616.534 690.203 621.566 690.203 626.751 690.203C631.935 690.203 636.968 690.203 642 690.203V274.33C636.968 274.33 631.935 275.07 626.751 275.07C621.566 275.07 615.009 274.33 609.976 274.33Z" fill="black"/>
<path d="M594.727 44.6377C594.743 33.7241 590.618 23.1869 583.137 15.0381C581.503 13.082 579.663 11.2964 577.648 9.71023C573.155 6.11347 567.968 3.42305 562.391 1.7966C556.813 0.170159 550.957 -0.35959 545.166 0.238393C543.19 0.0220951 541.195 0.0220951 539.219 0.238393L177.046 81.933H594.727V44.6377Z" fill="black"/>
<path d="M7.6247 244.73C10.1639 244.881 12.7102 244.881 15.2494 244.73C17.7886 244.881 20.3349 244.881 22.8741 244.73C24.9553 244.882 27.0452 244.882 29.1264 244.73H30.4988C35.0764 244.192 39.6109 243.351 44.0708 242.214L50.323 240.586C57.3833 238.566 64.2263 235.89 70.7573 232.594C73.2289 231.407 75.6225 230.073 77.9245 228.599C96.4805 217.89 111.749 202.561 122.148 184.199C123.215 182.423 124.283 180.499 125.198 178.575C126.675 175.683 127.998 172.719 129.162 169.696C130.735 165.933 132.059 162.077 133.127 158.152C133.127 155.488 134.5 152.824 134.957 150.16C135.03 149.521 135.03 148.875 134.957 148.236C134.957 146.312 135.72 144.24 136.025 142.316C136.1 141.627 136.1 140.933 136.025 140.244C136.175 138.471 136.175 136.689 136.025 134.916C136.18 132.452 136.18 129.981 136.025 127.516C136.025 125.74 136.025 124.112 136.025 122.336V116.86C136.104 115.628 136.104 114.393 136.025 113.16H43.7658C32.2639 113.638 21.3701 118.306 13.258 126.233C5.14579 134.161 0.411624 144.766 0 155.932V243.842H2.7449L7.6247 244.73Z" fill="black"/>
<path d="M594.727 111.533H504.145C504.07 112.419 504.07 113.31 504.145 114.197C504.145 114.936 504.145 115.676 504.145 116.564C504.145 117.452 504.145 118.044 504.145 118.932C504.145 119.82 504.145 123.816 504.145 126.332C503.99 128.797 503.99 131.268 504.145 133.732C503.989 135.752 503.989 137.78 504.145 139.8C504.145 139.8 504.145 140.688 504.145 141.132C504.7 145.575 505.567 149.975 506.738 154.304C506.738 156.376 507.805 158.448 508.415 160.372C510.497 167.224 513.255 173.865 516.65 180.203C517.873 182.602 519.249 184.925 520.767 187.159C531.772 205.191 547.574 220.016 566.515 230.079C568.312 231.209 570.199 232.199 572.158 233.038C575.138 234.472 578.192 235.756 581.307 236.886C585.184 238.412 589.157 239.697 593.202 240.734L601.437 242.51H603.419L609.519 243.546H611.654C613.481 243.693 615.317 243.693 617.144 243.546C622.219 243.941 627.318 243.941 632.393 243.546H640.018V155.932C640.018 144.233 635.261 133.007 626.78 124.693C618.3 116.379 606.781 111.65 594.727 111.533Z" fill="black"/>
<path d="M30.4988 719.21C20.3692 718.026 10.1296 718.026 0 719.21V807.121C0 818.896 4.81988 830.189 13.3993 838.516C21.9788 846.842 33.615 851.52 45.7482 851.52H136.33C137.55 841.689 137.55 831.752 136.33 821.921C132.95 795.824 120.714 771.562 101.55 752.964C82.387 734.366 57.3883 722.49 30.4988 719.21Z" fill="black"/>
<path d="M609.976 719.21C583.087 722.49 558.088 734.366 538.925 752.964C519.762 771.562 507.525 795.824 504.145 821.921C502.925 831.752 502.925 841.689 504.145 851.52H594.727C606.86 851.52 618.496 846.842 627.076 838.516C635.655 830.189 640.475 818.896 640.475 807.121V719.21C630.345 718.026 620.106 718.026 609.976 719.21Z" fill="black"/>
</svg>
