<svg width="810" height="758" viewBox="0 0 810 758" fill="none" xmlns="http://www.w3.org/2000/svg">
<path fill-rule="evenodd" clip-rule="evenodd" d="M0 670.538V87.4615C0 39.1536 38.8511 0 86.7857 0H723.214C771.149 0 810 39.1536 810 87.4615V670.538C810 693.73 800.844 715.975 784.572 732.388C768.299 748.787 746.227 758 723.214 758H86.7857C63.773 758 41.7005 748.787 25.4137 732.388C9.14143 715.975 0 693.73 0 670.538ZM752.143 87.4615C752.143 71.354 739.197 58.3077 723.214 58.3077H86.7857C70.8027 58.3077 57.8571 71.354 57.8571 87.4615V233.231H752.143V87.4615Z" fill="black"/>
<path fill-rule="evenodd" clip-rule="evenodd" d="M665.357 174.923C681.334 174.923 694.286 161.87 694.286 145.769C694.286 129.668 681.334 116.615 665.357 116.615C649.38 116.615 636.429 129.668 636.429 145.769C636.429 161.87 649.38 174.923 665.357 174.923Z" fill="black"/>
<path fill-rule="evenodd" clip-rule="evenodd" d="M549.643 174.923C565.62 174.923 578.571 161.87 578.571 145.769C578.571 129.668 565.62 116.615 549.643 116.615C533.666 116.615 520.714 129.668 520.714 145.769C520.714 161.87 533.666 174.923 549.643 174.923Z" fill="black"/>
</svg>
