<svg width="732" height="833" viewBox="0 0 732 833" fill="none" xmlns="http://www.w3.org/2000/svg">
<path fill-rule="evenodd" clip-rule="evenodd" d="M106.97 688.849C40.8015 634.312 0 559.064 0 476.381C0 406.53 28.93 342.105 77.7765 290.88V273.983H61.7169C52.5187 273.983 43.6547 270.424 37.164 264.133C30.6734 257.806 27.0016 249.285 27.0016 240.334V235.696C27.0016 218.908 33.9002 202.802 46.1765 190.902C58.4164 179.002 75.0695 172.352 92.3901 172.352H639.61C656.93 172.352 673.583 179.003 685.823 190.902C698.1 202.802 704.998 218.908 704.998 235.696V240.334C704.998 249.286 701.326 257.806 694.836 264.133C688.308 270.424 679.481 273.983 670.283 273.983H654.223V290.88C703.033 342.109 732 406.528 732 476.381C732 559.067 691.164 634.31 625.03 688.849L656.667 764.021C665.828 785.772 658.114 810.828 638.123 824.167C617.538 837.864 589.796 835.42 572.141 818.307L506.27 754.423C463.061 769.199 415.734 777.36 366.002 777.36C316.269 777.36 268.898 769.199 225.734 754.423L159.826 818.307C142.171 835.419 114.466 837.864 93.8808 824.167C73.8893 810.829 66.1747 785.772 75.3363 764.021L106.97 688.849ZM499.603 88.9407C477.905 88.9407 460.325 106.017 460.325 127.048C460.325 148.079 477.906 165.155 499.603 165.155C521.301 165.155 538.917 148.078 538.917 127.048C538.917 106.017 521.3 88.9407 499.603 88.9407ZM239.528 64.6026C213.899 64.6026 193.092 84.8066 193.092 109.648C193.092 134.49 213.899 154.694 239.528 154.694C265.194 154.694 286.001 134.49 286.001 109.648C286.001 84.8066 265.194 64.6026 239.528 64.6026ZM392.747 0C367.081 0 346.274 20.1681 346.274 45.0097C346.274 69.8871 367.081 90.0552 392.747 90.0552C418.376 90.0552 439.183 69.8871 439.183 45.0097C439.183 20.1681 418.376 0 392.747 0Z" fill="black"/>
</svg>
