<svg width="794" height="818" viewBox="0 0 794 818" fill="none" xmlns="http://www.w3.org/2000/svg">
<path fill-rule="evenodd" clip-rule="evenodd" d="M0 409C0 183.115 177.743 0 397 0C616.255 0 794 183.115 794 409C794 634.883 616.255 818 397 818C177.743 818 0 634.883 0 409ZM389.648 163.6C335.33 163.6 291.279 208.89 291.134 264.814L262.656 235.476C247.152 219.504 222.016 219.504 206.512 235.476C191.008 251.449 191.008 277.345 206.512 293.318L249.933 338.051C248.03 346.231 247.022 354.775 247.022 363.556V390.824H198.5C176.574 390.824 158.8 409.135 158.8 431.724C158.8 454.309 176.574 472.624 198.5 472.624H247.022V499.888C247.022 508.845 247.762 517.626 249.183 526.166L206.512 570.126C191.008 586.101 191.008 611.995 206.512 627.966C222.016 643.942 247.152 643.942 262.656 627.966L286.056 603.86C313.489 634.911 353.036 654.4 397 654.4C440.964 654.4 480.513 634.911 507.946 603.86L531.345 627.966C546.848 643.942 571.986 643.942 587.489 627.966C602.991 611.995 602.991 586.101 587.489 570.126L544.819 526.166C546.236 517.626 546.979 508.845 546.979 499.888V472.624H595.5C617.426 472.624 635.2 454.309 635.2 431.724C635.2 409.135 617.426 390.824 595.5 390.824H546.979V363.556C546.979 354.775 545.97 346.231 544.069 338.051L587.489 293.318C602.991 277.345 602.991 251.449 587.489 235.476C571.986 219.504 546.848 219.504 531.345 235.476L502.868 264.814C502.721 208.89 458.67 163.6 404.352 163.6H389.648Z" fill="black"/>
</svg>
