<svg width="778" height="800" viewBox="0 0 778 800" fill="none" xmlns="http://www.w3.org/2000/svg">
<path fill-rule="evenodd" clip-rule="evenodd" d="M293.249 73.6772L271.682 35.7495C269.14 31.321 264.481 28.571 259.433 28.571H172.491C164.655 28.571 158.336 22.1782 158.336 14.2855C158.336 6.39278 164.655 0 172.491 0H259.433C274.576 0 288.625 8.21419 296.179 21.5357L315.099 54.8564L667.841 55.0349C680.619 55.0349 692.726 60.9277 700.774 70.999C708.822 81.1063 711.929 94.3203 709.211 106.999L679.418 246.032C672.852 276.675 647.261 299.424 616.374 302.067C616.374 302.067 408.497 319.817 408.289 319.852L335.573 326.066C334.797 326.138 334.02 326.138 333.279 326.066C326.007 329.566 321.065 337.03 321.065 345.673C321.065 351.101 323.218 356.316 326.995 360.137C330.808 364.03 335.961 366.172 341.362 366.172L678.506 365.708C686.272 365.708 692.625 372.101 692.625 379.958C692.625 387.887 686.342 394.279 678.541 394.279L604.236 394.386C620.756 401.851 632.229 418.564 632.229 437.993C632.229 464.314 611.085 485.707 585.069 485.707C559.018 485.707 537.909 464.314 537.909 437.993C537.909 418.6 549.346 401.922 565.76 394.422L394.174 394.672C410.306 402.243 421.565 418.814 421.565 437.993C421.565 464.314 400.386 485.707 374.37 485.707C348.32 485.707 327.175 464.315 327.175 437.993C327.175 418.85 338.365 402.315 354.461 394.708L341.4 394.743C328.516 394.743 316.161 389.601 307.054 380.387C297.947 371.172 292.829 358.673 292.829 345.673C292.829 326.566 303.349 309.887 318.985 301.387L293.249 73.6772ZM156.852 556.422L198.186 519.566C205.317 513.173 213.718 508.316 222.755 505.316C262.043 492.495 298.154 494.817 331.618 510.459C332.854 511.031 333.983 511.781 334.972 512.673C335.042 512.709 335.148 512.816 335.219 512.888C337.266 514.638 340.16 517.173 342.808 519.566C350.044 525.995 359.328 529.53 368.929 529.53H491.031C498.832 529.53 505.185 535.923 505.185 543.851V565.815C505.185 573.707 498.832 580.1 491.031 580.1H359.368C351.567 580.1 345.249 586.493 345.249 594.386C345.249 602.278 351.567 608.671 359.368 608.671H491.031C514.433 608.671 533.389 589.492 533.389 565.815V549.386L711.545 474.78C723.44 469.78 736.96 470.565 748.22 476.851L756.163 481.28C768.482 488.172 776.6 500.815 777.836 514.993C779.071 529.208 773.282 543.1 762.34 552.064L604.833 681.315C587.184 695.743 565.228 703.636 542.566 703.636H218.769L156.852 556.422ZM78.9819 510.923C100.126 503.244 123.494 513.565 132.283 534.494L210.117 719.597C214.636 730.383 214.636 742.525 210.082 753.24C205.529 764.025 196.881 772.418 186.008 776.525L131.507 797.239C109.939 805.453 85.865 794.739 77.2875 773.061L3.01804 585.708C-1.21784 574.923 -1.00602 562.816 3.72402 552.208C8.41877 541.601 17.2083 533.352 28.0449 529.423L78.9819 510.923Z" fill="black"/>
</svg>
