<svg width="722" height="813" viewBox="0 0 722 813" fill="none" xmlns="http://www.w3.org/2000/svg">
<path fill-rule="evenodd" clip-rule="evenodd" d="M276.311 187.55C264.844 171.868 258.428 153.289 258.428 133.758C258.428 116.309 263.63 99.2852 273.198 84.592C260.288 76.0798 251.972 62.1282 251.972 46.6583C251.972 20.9095 274.451 0 301.94 0C326.735 0 347.086 16.8479 351.263 38.7104C357.718 38.1453 364.363 38.1453 371.007 38.7104C374.956 16.847 395.573 0 420.14 0C447.592 0 470.07 20.9095 470.07 46.6583C470.07 62.1634 461.755 76.0799 448.845 84.592C458.414 99.3204 463.615 116.345 463.615 133.758C463.615 153.29 457.35 171.904 445.693 187.55C480.017 195.285 505.61 224.318 505.61 258.579C505.61 277.758 497.712 295.347 484.612 308.345C517.683 317.246 541.832 345.502 541.832 378.985C541.832 397.387 534.542 414.023 522.695 426.985C559.754 432.813 588.042 462.977 588.042 499.18C588.042 516.982 581.169 533.441 569.74 546.015C612.38 546.792 646.933 579.498 646.933 619.375C646.933 637.176 640.061 653.636 628.594 666.209H643.136C686.65 666.209 722 699.127 722 739.569C722 780.046 686.612 812.929 643.136 812.929L78.8636 813C35.3498 813 0 780.082 0 739.64C0 699.198 35.3877 666.28 78.8636 666.28H93.4441C81.9771 653.706 75.1427 637.247 75.1427 619.445C75.1427 579.568 109.695 546.863 152.335 546.085C140.906 533.511 134.034 517.052 134.034 499.251C134.034 463.048 162.322 432.848 199.57 427.056C187.534 414.093 180.243 397.458 180.243 379.056C180.243 345.573 204.393 317.317 237.464 308.592C224.326 295.418 216.428 277.829 216.428 258.65C216.39 224.354 241.986 195.321 276.311 187.55ZM420.327 211.78H295.061C267.381 211.78 244.713 232.901 244.713 258.614C244.713 284.539 267.419 305.66 295.061 305.66H427.005C454.875 305.66 477.353 284.575 477.353 258.614C477.353 232.866 454.875 211.78 427.005 211.78H420.327ZM212.857 452.205C184.987 452.205 162.281 473.291 162.281 499.251C162.281 525.176 184.987 546.086 212.857 546.086H509.17C537.04 546.086 559.746 525.176 559.746 499.251C559.746 473.326 537.04 452.205 509.17 452.205H212.857ZM78.8627 692.595C50.9927 692.595 28.287 713.716 28.287 739.641C28.287 765.566 50.9548 786.687 78.8627 786.687H643.213C671.121 786.687 693.789 765.601 693.789 739.641C693.789 713.716 671.121 692.595 643.213 692.595H78.8627Z" fill="black"/>
</svg>
