<svg width="807" height="563" viewBox="0 0 807 563" fill="none" xmlns="http://www.w3.org/2000/svg">
<path d="M78.5633 12.9388C60.5953 -4.31294 31.4744 -4.31294 13.5063 12.9388C-4.5021 30.1906 -4.5021 58.1741 13.5063 75.4638L73.5589 133.06C77.4993 136.851 83.8825 136.851 87.8238 133.06L147.876 75.4638C165.885 58.1741 165.885 30.1906 147.876 12.9388C129.908 -4.31294 100.787 -4.31294 82.8193 12.9388L80.6914 14.9864L78.5633 12.9388Z" fill="black"/>
<path d="M78.5633 226.487C60.5953 209.235 31.4744 209.235 13.5063 226.487C-4.5021 243.739 -4.5021 271.722 13.5063 289.012L73.5589 346.608C77.4993 350.399 83.8825 350.399 87.8238 346.608L147.876 289.012C165.885 271.722 165.885 243.739 147.876 226.487C129.908 209.235 100.787 209.235 82.8193 226.487L80.6914 228.534L78.5633 226.487Z" fill="black"/>
<path d="M78.5633 440.035C60.5953 422.783 31.4744 422.783 13.5063 440.035C-4.5021 457.287 -4.5021 485.27 13.5063 502.56L73.5589 560.156C77.4993 563.948 83.8825 563.948 87.8238 560.156L147.876 502.56C165.885 485.27 165.885 457.287 147.876 440.035C129.908 422.783 100.787 422.783 82.8193 440.035L80.6914 442.083L78.5633 440.035Z" fill="black"/>
<path d="M736.387 0.00945298C775.398 0.00945298 807 30.4187 807 67.9566C807 105.494 775.398 135.904 736.387 135.904H292.532C253.521 135.904 221.918 105.494 221.918 67.9566C221.918 30.4187 253.521 0.00945298 292.532 0.00945298H736.387Z" fill="black"/>
<path d="M736.387 213.558C775.398 213.558 807 243.967 807 281.505C807 319.043 775.398 349.452 736.387 349.452H292.532C253.521 349.452 221.918 319.043 221.918 281.505C221.918 243.967 253.521 213.558 292.532 213.558H736.387Z" fill="black"/>
<path d="M736.387 427.106C775.398 427.106 807 457.515 807 495.053C807 532.591 775.398 563 736.387 563H292.532C253.521 563 221.918 532.591 221.918 495.053C221.918 457.515 253.521 427.106 292.532 427.106H736.387Z" fill="black"/>
</svg>
