<svg width="879" height="603" viewBox="0 0 879 603" fill="none" xmlns="http://www.w3.org/2000/svg">
<path d="M857.572 0H21.4259C9.59271 0 0 10.0781 0 22.5096V507.946C0 520.378 9.59292 530.455 21.4259 530.455H31.1033V585.819C30.4694 594.609 36.7238 602.29 45.0916 602.956C45.4719 603 45.8522 603 46.2326 603H57.474C63.7283 602.29 69.053 597.85 71.0392 591.59C75.6455 575.785 84.4357 530.722 84.4779 530.411H794.481C794.523 530.678 803.313 575.741 807.919 591.59C809.948 597.85 815.23 602.29 821.485 603H832.726C841.136 603 847.939 595.852 847.897 587.018C847.897 586.618 847.897 586.219 847.854 585.819V530.456H857.574C869.407 530.456 879 520.378 879 507.946V22.51C879 10.0783 869.405 0 857.572 0ZM391.276 286.231C380.246 286.231 371.286 276.819 371.286 265.231C371.286 253.644 380.245 244.231 391.276 244.231C402.306 244.231 411.265 253.643 411.265 265.231C411.265 276.818 402.306 286.231 391.276 286.231ZM450.227 500.496C450.227 506.711 445.41 511.773 439.493 511.773C433.577 511.773 428.76 506.711 428.76 500.496V30.062C428.76 23.8464 433.577 18.7852 439.493 18.7852C445.41 18.7852 450.227 23.8464 450.227 30.062V500.496ZM487.711 286.231C476.682 286.231 467.722 276.819 467.722 265.231C467.722 253.644 476.681 244.231 487.711 244.231C498.741 244.231 507.7 253.643 507.7 265.231C507.7 276.818 498.741 286.231 487.711 286.231Z" fill="black"/>
</svg>
