<svg width="840" height="821" viewBox="0 0 840 821" fill="none" xmlns="http://www.w3.org/2000/svg">
<path d="M826.859 794.937H784.343V663.667C803.073 647.742 813.918 624.515 814.018 600.033C814.018 599.769 813.885 599.372 813.885 598.844C813.885 598.58 814.018 598.315 814.018 597.919V520.276V520.342C813.951 492.721 791.397 470.387 763.618 470.42L707.762 470.387V338.821C722.466 325.902 730.916 307.366 731.049 287.874C731.083 287.544 731.016 287.246 730.916 286.949C731.016 286.684 731.083 286.42 731.049 286.156V225.495C730.983 202.334 712.087 183.601 688.8 183.535H624.095L624.062 128.821C634.707 122.709 652.405 111.376 666.445 92.6104H666.478C668.873 89.2734 671.102 85.8373 673.131 82.3016C690.064 53.2269 683.511 32.7422 677.988 23.0948V23.1279C670.437 9.44941 656.265 0.694411 640.563 0C629.851 0.165195 619.438 3.76648 610.921 10.2749C602.438 3.66702 591.959 0.0989598 581.18 0.0659732V0.0329357C565.478 0.792847 551.273 9.54832 543.621 23.1608C539.895 30.033 537.899 37.6648 537.733 45.4293C537.467 55.3414 540.095 67.8628 548.511 82.3346H548.478C555.065 93.3699 563.415 103.282 573.162 111.64C580.747 118.182 588.964 123.931 597.713 128.854V183.634L433.108 183.601V128.821C443.753 122.709 461.451 111.376 475.491 92.6103L475.524 92.5773C477.986 89.2734 480.248 85.8372 482.344 82.3024C490.661 67.8314 493.389 55.3092 493.122 45.3971C492.922 39.1526 491.592 33.0076 489.163 27.2257C488.564 25.838 487.866 24.4834 487.067 23.1618V23.1948C479.516 9.51638 465.344 0.761383 449.675 0.0669714C438.93 0.232175 428.517 3.83346 420.001 10.3419C411.551 3.70092 401.104 0.0669714 390.326 0.0669714C374.658 0.760808 360.485 9.51638 352.934 23.1619V23.1949C349.108 30.0011 347.012 37.6329 346.879 45.4304C346.613 55.3425 349.241 67.8639 357.658 82.3357C364.245 93.371 372.561 103.283 382.342 111.641C389.926 118.183 398.144 123.932 406.893 128.855V183.635H242.219V128.822C252.865 122.71 270.563 111.378 284.602 92.6115V92.5785C287.064 89.2746 289.326 85.8384 291.422 82.3035C299.905 67.8326 302.533 55.3433 302.267 45.4312C302.134 39.1868 300.803 33.008 298.308 27.2598C297.709 25.8722 297.01 24.5175 296.245 23.1959V23.229C288.66 9.55052 274.488 0.795528 258.82 0.101117C258.687 0.101117 258.554 0.233283 258.421 0.233283L258.454 0.200238C247.842 0.365433 237.562 3.93374 229.179 10.3762C220.696 3.76829 210.283 0.134264 199.504 0.101277C183.836 0.795114 169.663 9.55069 162.112 23.2292C161.28 24.4847 160.548 25.8392 160.016 27.26C157.521 33.0089 156.19 39.1876 156.057 45.4314C155.791 55.3434 158.419 67.8648 166.836 82.3367C181.406 107.38 203.596 121.686 216.071 128.856V183.636L151.332 183.603C128.045 183.636 109.15 202.37 109.05 225.497V287.81H109.083C109.183 307.204 117.666 325.607 132.371 338.393V470.484H76.3821C48.6041 470.484 26.0483 492.818 25.9819 520.406V600.032C26.1815 624.382 37.0268 647.411 55.7229 663.137V794.931H13.1408C5.88859 794.931 0 800.779 0 807.982C0 815.152 5.88834 821 13.1408 821H826.859C834.111 821 840 815.152 840 807.949C840 800.78 834.111 794.937 826.859 794.937ZM158.55 353.694C166.468 356.304 174.751 357.626 183.101 357.659C206.521 357.758 228.577 346.689 242.416 327.923C256.322 346.69 278.412 357.758 301.865 357.758C325.352 357.758 347.408 346.689 361.314 327.923C375.22 346.69 397.276 357.791 420.73 357.791C444.183 357.791 466.24 346.689 480.112 327.923C493.985 346.69 516.041 357.791 539.495 357.791C562.948 357.791 585.005 346.689 598.91 327.923H598.877C612.783 346.69 634.872 357.758 658.326 357.659C666.21 357.593 673.994 356.337 681.446 353.892V470.487H158.555L158.55 353.694ZM758.089 794.937H81.9023V679.196C93.0801 683.524 104.956 685.771 116.933 685.804C147.705 685.969 176.382 670.474 192.915 644.736C209.615 670.341 238.225 685.771 268.931 685.771C299.637 685.771 328.246 670.342 344.914 644.736C361.614 670.341 390.224 685.771 420.93 685.771C451.603 685.771 480.212 670.342 496.912 644.736C513.579 670.341 542.189 685.771 572.895 685.771C603.601 685.771 632.21 670.342 648.878 644.736C665.445 670.474 694.154 685.969 724.894 685.804C736.271 685.738 747.549 683.624 758.16 679.527L758.089 794.937Z" fill="black"/>
</svg>
