<svg width="692" height="821" viewBox="0 0 692 821" fill="none" xmlns="http://www.w3.org/2000/svg">
<path d="M682.314 103.224C676.552 57.7512 629.091 14.2338 579.642 8.94687C458.25 -2.98229 233.899 -2.98229 112.399 8.94687C62.9117 14.2381 15.4488 57.7545 9.69118 103.224C-3.23039 214.725 -3.23039 606.275 9.69118 717.776C15.4187 763.184 62.8795 806.799 112.363 812.053C233.756 823.982 458.178 823.982 579.607 812.053C629.094 806.794 676.556 763.213 682.278 717.776C695.235 606.275 695.236 214.725 682.314 103.224ZM273.085 669.865C283.562 679.518 283.562 695.167 273.05 704.82C262.538 714.472 245.495 714.472 235.018 704.82L205.333 677.562L175.648 704.82H175.614C165.066 714.183 148.268 714.055 137.896 704.531C127.523 695.007 127.384 679.582 137.581 669.865L167.266 642.607L137.581 615.349C127.908 605.6 128.257 590.593 138.42 581.229C148.617 571.897 164.962 571.576 175.578 580.459L205.263 607.717L234.947 580.459C245.46 570.807 262.502 570.807 273.014 580.459C283.526 590.112 283.526 605.761 273.014 615.414L243.329 642.671L273.085 669.865ZM271.338 424.928H232.224V460.909C232.224 474.57 220.175 485.633 205.298 485.633C190.421 485.633 178.373 474.569 178.373 460.909L178.407 424.928H139.189C124.346 424.928 112.298 413.864 112.298 400.236C112.298 386.574 124.347 375.511 139.189 375.511H178.373V339.563C178.373 325.902 190.422 314.839 205.264 314.839C220.141 314.839 232.189 325.902 232.189 339.563V375.543H271.373C286.251 375.543 298.299 386.575 298.299 400.236C298.299 413.896 286.25 424.928 271.373 424.928H271.338ZM552.818 711.553H420.599C405.756 711.553 393.708 700.489 393.708 686.829C393.708 673.167 405.757 662.104 420.599 662.104H552.818C567.661 662.104 579.709 673.168 579.709 686.829C579.709 700.49 567.66 711.553 552.818 711.553ZM393.706 400.234C393.706 386.573 405.755 375.542 420.597 375.542H552.817C567.66 375.542 579.708 386.574 579.708 400.234C579.708 413.895 567.659 424.926 552.817 424.926H420.597C413.472 424.926 406.627 422.329 401.598 417.711C396.535 413.061 393.706 406.776 393.706 400.234ZM552.818 623.104H420.599C413.37 623.265 406.349 620.731 401.146 616.081C395.943 611.431 393.009 605.082 393.009 598.412C393.009 591.742 395.943 585.361 401.146 580.711C406.35 576.061 413.369 573.528 420.599 573.72H552.818C560.048 573.528 567.068 576.061 572.271 580.711C577.475 585.361 580.408 591.743 580.408 598.412C580.408 605.081 577.475 611.431 572.271 616.081C567.067 620.731 560.048 623.265 552.818 623.104ZM589.488 207.821C587.882 220.744 574.401 233.475 560.327 235.4C525.893 242.583 166.037 242.583 131.608 235.4C117.534 233.508 104.088 220.744 102.447 207.821C98.7451 176.073 98.7451 159.205 102.447 127.426C104.053 114.502 117.534 101.771 131.608 99.8469C166.043 92.6636 525.898 92.6636 560.327 99.8469C574.297 101.707 587.847 114.502 589.488 127.426C593.19 159.141 593.19 176.009 589.523 207.757L589.488 207.821Z" fill="black"/>
</svg>
