<svg width="826" height="677" viewBox="0 0 826 677" fill="none" xmlns="http://www.w3.org/2000/svg">
<path d="M682.8 159.439C711.294 159.472 734.386 182.133 734.386 210.089C734.386 238.044 711.26 260.705 682.697 260.705C654.167 260.705 631.041 238.044 631.041 210.089C631.041 182.133 654.133 159.472 682.662 159.472H682.697L682.731 159.439L682.8 159.439ZM412.995 202.602V202.636H413.03C515.516 202.636 598.558 284.041 598.558 384.434C598.558 484.893 515.483 566.292 413.003 566.292C310.524 566.292 227.449 484.854 227.449 384.434C227.449 284.009 310.524 202.61 413.003 202.61V202.644L412.995 202.602ZM503.984 1.03882e-05L319.284 0.0337404V0.0674621C289.103 1.01171 261.917 18.4121 248.908 45.1875L232.149 79.6176C113.902 79.6513 113.699 79.6513 113.699 79.6513C64.2121 79.6513 22.1905 115.059 14.7637 162.977C4.88687 226.476 0 299.177 0 371.916C0 449.949 5.60946 528.187 17.0692 595.022V595.055C23.5734 633.161 52.8252 665.365 93.4681 674.504H93.5025C100.833 676.156 108.369 676.999 115.906 676.999H710.233C758.688 676.999 800.737 642.704 808.931 595.021C810.101 588.041 811.236 581.027 812.303 573.878L812.923 569.528C821.629 508.863 826 440.442 826 371.915C826 299.177 821.113 226.47 811.236 162.976C803.803 115.057 761.715 79.6164 712.23 79.6164H593.842L577.083 45.1863C563.662 17.5684 535.232 1.03882e-05 503.984 1.03882e-05Z" fill="black"/>
</svg>
