<svg width="831" height="830" viewBox="0 0 831 830" fill="none" xmlns="http://www.w3.org/2000/svg">
<path d="M283.295 144.294V307.5C320.124 270.812 433.442 157.343 471.97 118.764C409.079 105.904 339.01 116.305 283.295 144.294Z" fill="black"/>
<path d="M513.898 130.3L398.502 245.849H665.178C628.916 192.519 575.845 151.67 514.087 130.3H513.898Z" fill="black"/>
<path d="M118.795 359.696C115.396 378.04 113.318 396.762 113.318 416.052C113.318 463.52 124.65 508.34 144.103 548.432H307.092C307.092 548.432 118.795 359.885 118.606 359.696H118.795Z" fill="black"/>
<path d="M360.73 283.672L283.295 361.02V470.895L360.541 548.432H470.27L547.705 471.084V361.209L470.459 283.672H360.73Z" fill="black"/>
<path d="M712.205 472.597C715.604 454.253 717.682 435.531 717.682 416.052C717.682 368.584 706.35 323.764 686.897 283.672H523.908C560.547 320.549 673.866 434.018 712.394 472.597H712.205Z" fill="black"/>
<path d="M165.822 586.255C202.084 639.585 255.155 680.434 316.913 701.804L432.309 586.255H165.822Z" fill="black"/>
<path d="M415.5 0C186.408 0 0 186.656 0 416.052C22.8525 968.077 808.336 967.888 831 416.052C831 186.656 644.592 0 415.5 0ZM574.712 716.555C352.797 837.777 73.468 670.033 75.5455 416.052C72.1459 191.006 303.126 20.8026 516.542 90.9641C803.426 181.172 840.254 575.286 574.712 716.555Z" fill="black"/>
<path d="M585.477 666.061C638.737 629.751 679.531 576.61 700.873 514.77L585.477 399.032V666.061Z" fill="black"/>
<path d="M547.705 687.809V524.604C510.876 561.481 397.558 674.761 359.219 713.34C422.11 726.2 492.179 715.798 547.705 687.809Z" fill="black"/>
<path d="M245.523 166.043C192.263 202.353 151.469 255.494 130.127 317.334L245.523 432.883V166.043Z" fill="black"/>
</svg>
