<svg width="817" height="806" viewBox="0 0 817 806" fill="none" xmlns="http://www.w3.org/2000/svg">
<path d="M781.153 374.115H768.892V221.068C768.892 208.338 756.286 198.154 740.571 198.154H718.122V174.956C750.069 155.012 750.415 124.317 719.676 90.3687C710.826 80.3255 690.88 80.2902 682.031 90.3687C651.119 124.317 651.637 155.011 683.585 174.956V198.154H660.962C645.421 198.154 632.814 208.338 632.814 221.068V374.115H613.3C593.268 374.115 577.036 387.412 577.036 403.819C577.036 420.086 593.269 433.382 613.3 433.382H781.159C829.037 432.215 828.859 375.211 781.153 374.115Z" fill="black"/>
<path d="M203.681 433.384C251.602 432.323 251.429 375.142 203.681 374.116H187.794V221.069C187.794 208.339 175.188 198.155 159.645 198.155H137.023V174.957C168.97 155.013 169.488 124.318 138.577 90.3695C129.683 80.5744 110.04 80.5038 101.103 90.3695C70.1918 124.318 70.7102 154.871 102.485 174.815V198.154H80.0359C64.321 198.154 51.7149 208.338 51.7149 221.068V374.115H35.8275C-11.7915 375.105 -12.0933 432.286 35.8275 433.383L203.681 433.384Z" fill="black"/>
<path d="M329.222 350.777H497.081C544.83 349.751 545.002 292.57 497.081 291.509H483.611V138.037C483.611 125.448 471.005 115.123 455.462 115.123H432.84V91.9248C464.787 71.9806 465.305 41.2853 434.394 7.47942C425.328 -2.49314 405.814 -2.49314 396.748 7.47942C365.837 41.2862 366.355 71.9806 398.302 91.9248V115.123H375.68C360.138 115.123 347.531 125.448 347.531 138.037V291.509H329.227C281.392 292.464 281.43 349.822 329.222 350.777Z" fill="black"/>
<path d="M609.149 461.538C623.094 482.578 649.127 497.43 679.52 500.048V549.697C677.016 612.111 566.756 612.041 564.291 549.697V535.835C564.291 512.921 541.496 494.248 513.477 494.248H431.968V417.229C460.807 413.799 485.242 399.194 498.625 379.109C450.272 378.896 373.206 379.427 325.24 378.967C339.314 400.468 366.21 415.461 397.423 417.583V494.249H303.091C275.072 494.249 252.32 512.92 252.32 535.836V549.697C249.989 612.006 139.467 612.077 137.091 549.697V499.942C166.621 496.937 191.747 482.297 205.26 461.68C205.26 461.68 59.1627 461.892 31.8751 461.538C45.7333 482.685 71.9821 497.573 102.548 500.083V549.697C109.844 658.928 300.712 643.412 286.853 535.836C286.853 528.516 294.149 522.539 303.086 522.539H397.418V670.208H342.676C307.275 670.208 278.435 693.83 278.435 722.827V738.67C229.262 745.813 234.313 805.293 284.997 806H544.379C594.2 805.328 600.589 747.016 552.15 738.953V722.828C552.15 693.831 523.311 670.209 487.91 670.209H431.959V522.54H513.468C522.448 522.54 529.744 528.516 529.744 535.836V549.698C534.018 649.56 709.728 649.596 714.049 549.698V499.978C743.709 497.043 769.008 482.403 782.52 461.716C755.624 461.751 609.743 461.751 609.135 461.574L609.149 461.538Z" fill="black"/>
</svg>
