<svg width="719" height="830" viewBox="0 0 719 830" fill="none" xmlns="http://www.w3.org/2000/svg">
<path d="M719 564.836V626.587C705.831 621.859 693.404 615.157 682.117 606.695C657.469 588.092 627.744 578.068 597.229 578.068C566.715 578.068 536.989 588.092 512.341 606.695C491.042 623.039 465.223 631.862 438.701 631.862C412.179 631.862 386.361 623.039 365.062 606.695C340.704 587.514 310.784 577.424 280.173 578.069C249.586 577.406 219.687 587.499 195.369 606.695C174.284 623.492 148.299 632.368 121.687 631.862C95.1012 632.37 69.1417 623.493 48.0894 606.695C33.583 595.725 17.2971 587.524 0 582.479V564.836C0.0155005 547.707 6.60258 531.284 18.3155 519.172C30.0283 507.06 45.91 500.248 62.4745 500.232H656.526C673.09 500.248 688.972 507.06 700.685 519.172C712.397 531.284 718.985 547.707 719 564.836Z" fill="black"/>
<path d="M670.827 620.533C685.354 631.52 701.671 639.722 719 644.749V691.191H0V600.641C13.1694 605.369 25.5961 612.071 36.8825 620.533C61.201 639.729 91.1 649.822 121.687 649.159C152.298 649.804 182.217 639.714 206.576 620.533C227.628 603.735 253.587 594.858 280.173 595.366C306.785 594.86 332.77 603.736 353.855 620.533C378.173 639.729 408.072 649.822 438.659 649.159C469.272 649.82 499.197 639.728 523.548 620.533C544.847 604.189 570.665 595.366 597.187 595.366C623.709 595.366 649.528 604.189 670.827 620.533Z" fill="black"/>
<path d="M719 708.488H0V744.12H719V708.488Z" fill="black"/>
<path d="M0 761.417H719V765.396C718.985 782.525 712.397 798.948 700.685 811.06C688.972 823.172 673.09 829.984 656.526 830H62.4745C45.91 829.984 30.0283 823.172 18.3155 811.06C6.60258 798.948 0.0155005 782.525 0 765.396V761.417Z" fill="black"/>
<path d="M644.148 307.11V356.234C630.997 353.123 618.665 347.072 608.018 338.504C588.909 323.684 565.666 315.672 541.78 315.672C517.893 315.672 494.651 323.684 475.542 338.504C459.716 351.17 440.271 358.042 420.26 358.042C400.249 358.042 380.804 351.17 364.978 338.504C345.853 323.683 322.598 315.672 298.698 315.672C274.799 315.672 251.543 323.683 232.418 338.504C216.786 351.537 197.213 358.458 177.136 358.05C157.087 358.446 137.544 351.526 121.938 338.504C108.117 327.615 91.9688 320.319 74.8523 317.229V307.11C74.8744 293.148 80.2476 279.765 89.7946 269.893C99.3416 260.02 112.284 254.464 125.785 254.441H593.215C606.72 254.45 619.67 260.002 629.22 269.877C638.77 279.753 644.139 293.144 644.148 307.11Z" fill="black"/>
<path d="M597.062 352.429C610.875 363.348 627.024 370.675 644.148 373.79V433.552C631.003 430.471 618.67 424.448 608.018 415.909C588.931 401.035 565.68 392.99 541.78 392.99C517.88 392.99 494.629 401.035 475.542 415.909C459.696 428.526 440.259 435.369 420.26 435.369C400.261 435.369 380.824 428.526 364.978 415.909C345.875 401.034 322.611 392.99 298.698 392.99C274.785 392.99 251.521 401.034 232.418 415.909C216.775 428.912 197.203 435.801 177.136 435.368C157.098 435.788 137.556 428.899 121.938 415.909C108.125 404.989 91.9762 397.663 74.8523 394.547V334.786C87.9912 337.885 100.32 343.905 110.982 352.429C129.86 367.647 153.203 375.734 177.136 375.347C201.098 375.747 224.471 367.66 243.374 352.429C259.22 339.811 278.657 332.969 298.656 332.969C318.656 332.969 338.093 339.811 353.938 352.429C373.041 367.303 396.305 375.347 420.218 375.347C444.131 375.347 467.395 367.303 486.498 352.429C502.344 339.811 521.781 332.969 541.78 332.969C561.779 332.969 581.216 339.811 597.062 352.429Z" fill="black"/>
<path d="M644.148 451.108V464.946C644.155 471.084 643.107 477.175 641.053 482.935H77.9467C75.8927 477.175 74.845 471.084 74.8523 464.946V412.103C87.9912 415.203 100.32 421.223 110.982 429.746C129.86 444.965 153.203 453.051 177.136 452.665C201.098 453.065 224.471 444.978 243.374 429.746C259.22 417.129 278.657 410.286 298.656 410.286C318.656 410.286 338.093 417.129 353.938 429.746C373.041 444.621 396.305 452.665 420.218 452.665C444.131 452.665 467.395 444.621 486.498 429.746C502.344 417.129 521.781 410.286 541.78 410.286C561.779 410.286 581.216 417.129 597.062 429.746C610.875 440.666 627.024 447.992 644.148 451.108Z" fill="black"/>
<path d="M209.954 131.044C207.736 131.044 205.609 130.132 204.041 128.511C202.472 126.889 201.591 124.689 201.591 122.395V90.3955C201.591 88.1018 202.472 85.902 204.041 84.2801C205.609 82.6582 207.736 81.747 209.954 81.747C212.172 81.747 214.3 82.6582 215.868 84.2801C217.437 85.902 218.318 88.1018 218.318 90.3955V122.395C218.318 124.689 217.437 126.889 215.868 128.511C214.3 130.132 212.172 131.044 209.954 131.044Z" fill="black"/>
<path d="M359.5 131.044C357.282 131.044 355.155 130.132 353.586 128.511C352.018 126.889 351.137 124.689 351.137 122.395V90.3955C351.137 88.1018 352.018 85.902 353.586 84.2801C355.155 82.6582 357.282 81.747 359.5 81.747C361.718 81.747 363.845 82.6582 365.414 84.2801C366.982 85.902 367.863 88.1018 367.863 90.3955V122.395C367.863 124.689 366.982 126.889 365.414 128.511C363.845 130.132 361.718 131.044 359.5 131.044Z" fill="black"/>
<path d="M550.227 136.302V237.144H467.931V136.302C467.936 130.317 470.237 124.578 474.329 120.346C478.422 116.113 483.972 113.734 489.76 113.729H528.398C534.182 113.747 539.724 116.132 543.814 120.361C547.904 124.59 550.209 130.321 550.227 136.302Z" fill="black"/>
<path d="M400.606 136.302V237.144H318.394V136.302C318.398 130.317 320.7 124.578 324.792 120.346C328.885 116.113 334.435 113.734 340.222 113.729H378.778C384.566 113.734 390.115 116.113 394.208 120.346C398.3 124.578 400.602 130.317 400.606 136.302Z" fill="black"/>
<path d="M251.069 136.302V237.144H168.857V136.302C168.857 130.33 171.145 124.602 175.22 120.371C179.296 116.14 184.827 113.752 190.601 113.729H229.24C235.028 113.734 240.578 116.113 244.67 120.346C248.763 124.578 251.064 130.317 251.069 136.302Z" fill="black"/>
<path d="M509.046 131.044C506.827 131.044 504.7 130.132 503.132 128.511C501.563 126.889 500.682 124.689 500.682 122.395V90.3955C500.682 88.1018 501.563 85.902 503.132 84.2801C504.7 82.6582 506.827 81.747 509.046 81.747C511.264 81.747 513.391 82.6582 514.959 84.2801C516.528 85.902 517.409 88.1018 517.409 90.3955V122.395C517.409 124.689 516.528 126.889 514.959 128.511C513.391 130.132 511.264 131.044 509.046 131.044Z" fill="black"/>
<path d="M365.898 3.20108C371.083 9.60099 396.592 42.6384 396.592 61.1462C396.618 69.8171 393.787 78.2386 388.565 85.0225C383.343 91.8063 376.041 96.5476 367.863 98.4646C362.368 99.8482 356.632 99.8482 351.137 98.4646C342.987 96.5135 335.717 91.7677 330.508 84.9995C325.299 78.2313 322.459 69.8393 322.45 61.1894C322.45 42.6816 347.958 9.64423 353.06 3.24432C353.833 2.2455 354.813 1.43918 355.927 0.885063C357.042 0.330951 358.263 0.0432435 359.5 0.0432435C360.737 0.0432435 361.958 0.330951 363.073 0.885063C364.187 1.43918 365.167 2.2455 365.94 3.24432L365.898 3.20108Z" fill="black"/>
<path d="M216.361 3.20108C221.462 9.60099 246.971 42.6384 246.971 61.1462C247.005 69.8078 244.182 78.2225 238.966 84.9999C233.75 91.7773 226.454 96.5119 218.284 98.4213C212.789 99.805 207.053 99.805 201.558 98.4213C193.408 96.4703 186.138 91.7244 180.929 84.9563C175.72 78.1881 172.88 69.7961 172.871 61.1462C172.871 42.6384 198.379 9.60099 203.481 3.20108C204.254 2.20226 205.234 1.39593 206.348 0.841819C207.463 0.287707 208.684 0 209.921 0C211.158 0 212.379 0.287707 213.494 0.841819C214.608 1.39593 215.588 2.20226 216.361 3.20108Z" fill="black"/>
<path d="M546.129 61.1462C546.12 69.796 543.28 78.1881 538.071 84.9562C532.862 91.7244 525.592 96.4703 517.442 98.4213C514.678 99.1224 511.842 99.4709 508.995 99.4591C506.205 99.4658 503.424 99.1173 500.716 98.4213C492.554 96.4946 485.269 91.7553 480.056 84.9817C474.843 78.2082 472.013 69.8029 472.029 61.1462C472.029 42.6383 497.454 9.60097 502.556 3.20106C503.322 2.19525 504.301 1.384 505.417 0.829382C506.533 0.274759 507.757 -0.00855478 508.995 0.00110538C510.246 -0.00891615 511.482 0.273742 512.612 0.827906C513.742 1.38207 514.735 2.19338 515.519 3.20106C520.621 9.60097 546.129 42.6383 546.129 61.1462Z" fill="black"/>
</svg>
