<svg width="780" height="828" viewBox="0 0 780 828" fill="none" xmlns="http://www.w3.org/2000/svg">
<path d="M711.807 339.503C705.296 336.295 697.586 339.33 694.606 346.229L625.67 505.273C598.168 568.29 549.285 617.925 488.869 644.203C478.277 627.681 459.261 619.749 440.958 624.198C406.685 632.441 371.116 632.441 336.84 624.198C318.537 619.748 299.521 627.682 288.929 644.203C228.513 617.92 179.627 568.286 152.128 505.273L83.1923 346.229C81.7669 342.918 79.143 340.331 75.9035 339.055C72.6965 337.778 69.133 337.951 65.9909 339.468C62.881 341.021 60.4514 343.814 59.2529 347.229C58.0867 350.678 58.2162 354.472 59.674 357.818L128.609 516.827C159.19 586.88 213.745 641.894 281.159 670.556C281.029 678.972 282.941 687.284 286.731 694.7C292.821 706.531 303.381 715.085 315.724 718.12C363.894 729.916 413.913 729.916 462.078 718.12C474.421 715.085 484.981 706.531 491.072 694.7C494.862 687.284 496.773 678.972 496.643 670.556C564.056 641.893 618.608 586.878 649.218 516.827L718.153 357.818H718.121C721.133 350.885 718.286 342.676 711.807 339.503Z" fill="black"/>
<path d="M666.843 525.478C635.873 596.393 581.906 652.965 514.816 684.832C513.552 691.765 511.285 698.422 508.078 704.63C499.331 721.669 484.171 733.914 466.419 738.294C415.398 750.781 362.4 750.781 311.381 738.294C293.597 733.914 278.436 721.669 269.69 704.63C266.515 698.422 264.248 691.765 262.984 684.832C195.896 652.961 141.923 596.391 110.957 525.478L51.9991 389.48V524.719C52.0963 605.12 82.1259 682.209 135.51 739.083C188.928 795.925 261.331 827.903 336.838 828H440.957C516.468 827.897 588.87 795.923 642.285 739.083C695.672 682.206 725.705 605.115 725.796 524.719V389.48L666.843 525.478Z" fill="black"/>
<path d="M608.012 496.578L676.656 338.223H101.139L169.783 496.578C193.268 550.386 233.632 593.813 283.977 619.296C299.656 604.775 320.907 599.084 341.185 604.016C372.608 611.57 405.23 611.57 436.654 604.016C441.416 602.878 446.308 602.291 451.199 602.291C466.878 602.291 482.006 608.328 493.83 619.296C544.171 593.807 584.539 550.381 608.025 496.578L608.012 496.578Z" fill="black"/>
<path d="M32.5553 485.09C28.3441 478.365 26.0764 470.466 26.0764 462.395V407.208C26.0764 399.137 28.3441 391.238 32.5553 384.512V347.572C12.5352 359.851 0.193619 382.58 0.161276 407.208V462.395C0.193669 487.022 12.5361 509.752 32.5553 522.031V485.09Z" fill="black"/>
<path d="M745.236 347.573V384.549V384.514C749.447 391.24 751.715 399.138 751.715 407.21V462.397C751.715 470.468 749.447 478.366 745.236 485.092V522.067V522.033C765.256 509.754 777.598 487.024 777.63 462.397V407.21C777.598 382.582 765.255 359.852 745.236 347.573Z" fill="black"/>
<path d="M395.372 89.8813C395.436 59.5285 381.085 31.211 357.211 14.6205C333.336 -2.0045 303.209 -4.6261 277.132 7.65312C251.055 19.8976 232.557 45.3869 227.989 75.3264C223.454 105.3 233.432 135.687 254.52 156.072L277.877 146.931C297.605 136.411 321.804 119.268 326.63 97.056C328.38 87.0879 323.618 77.1198 315.001 72.8082C308.911 69.7729 301.654 72.3598 298.512 78.7063C297.637 80.5343 297.216 82.5348 297.216 84.5699C297.216 88.0535 298.48 91.3993 300.812 93.8483C305.866 99.2291 305.898 107.956 300.845 113.336C295.823 118.751 287.627 118.786 282.542 113.439L282.477 113.37C269.227 99.2629 267.543 76.9815 278.493 60.8051C289.442 44.5943 309.818 39.2477 326.599 48.1465C345.873 58.2179 356.272 80.9135 351.866 103.299C346.1 129.754 324.882 152.864 288.794 171.972C288.373 172.213 287.952 172.386 287.498 172.558L283.06 174.317C287.952 176.18 293.038 177.525 298.188 178.387V232.195L320.249 251.476C321.513 251.166 322.776 250.786 324.104 250.51V178.388C365.083 171.558 395.306 134.027 395.372 89.8813Z" fill="black"/>
<path d="M120.957 143.832C120.989 144.556 120.957 145.281 120.892 146.005C121.151 146.488 121.443 146.902 121.637 147.385L130.805 169.597C131.68 171.632 132.684 173.633 133.818 175.53C148.816 141.935 162.131 96.5092 150.696 55.3989C150.307 53.9847 150.145 52.5016 150.21 51.0185C131.518 41.8777 110.721 38.7396 90.3775 42.0164C108.454 68.7816 118.787 102.927 120.957 143.832Z" fill="black"/>
<path d="M105.316 193.465L99.4529 179.323C73.3433 151.04 41.2727 129.793 5.93295 117.341C-2.06846 141.624 -1.97126 168.113 6.1921 192.361C39.0398 186.774 72.5665 187.153 105.316 193.465Z" fill="black"/>
<path d="M130.809 255.027L117.916 223.881C117.398 223.847 116.879 223.778 116.361 223.709C83.6426 215.879 49.8553 214.121 16.5548 218.466L41.0772 277.723L41.1096 277.757C68.6448 262.029 99.5842 254.199 130.809 255.027Z" fill="black"/>
<path d="M94.3945 136.998C91.2846 101.161 80.983 72.0838 63.62 50.4575C44.6689 59.2875 28.5689 73.8427 17.2962 92.3307C45.1233 102.644 71.1675 117.717 94.3945 136.998Z" fill="black"/>
<path d="M213.772 130.552L205.738 111.064C199.68 96.4746 190.933 83.333 180.049 72.3989C184.422 116.963 169.456 161.66 154.133 194.155V194.189C171.238 202.226 191.225 198.225 204.442 184.152C217.626 170.045 221.353 148.764 213.772 130.552Z" fill="black"/>
<path d="M140.006 282.621H139.617C103.789 281.482 74.3099 288.381 51.5705 303.074L57.5635 317.526H156.69L142.145 282.413C141.464 282.551 140.718 282.621 140.006 282.621Z" fill="black"/>
<path d="M458.896 290.453C456.078 287.348 452.028 285.831 448.011 286.383L403.469 292.281H403.437C407.259 300.179 409.786 308.734 410.985 317.529H482.317C481.702 315.977 480.795 314.528 479.693 313.321L458.896 290.453Z" fill="black"/>
<path d="M535.283 123.682C538.555 125.752 542.021 127.476 545.584 128.89L530.78 317.524H556.792L571.305 132.643C579.598 132.022 587.697 129.573 595.05 125.4C576.617 116.811 563.012 99.5654 558.25 78.7321C553.618 59.3822 530.132 56.6229 511.278 57.7266C509.464 57.8301 507.617 57.5197 505.933 56.7953C501.851 83.3884 513.481 109.954 535.283 123.682Z" fill="black"/>
<path d="M494.697 233.959C517.664 219.3 529.067 190.533 522.977 162.802C522.589 161.112 522.135 159.456 521.617 157.801C520.613 158.042 519.576 158.18 518.54 158.18C503.12 156.594 488.251 164.596 480.281 178.703C470.823 194.914 453.848 204.33 435.965 203.33C425.178 203.054 414.488 200.985 404.316 197.156C412.966 227.337 440.695 246.583 470.109 242.858L498.843 317.533H526.832L494.697 233.959Z" fill="black"/>
<path d="M583.357 71.9125C586.985 87.9511 598.939 100.299 614.067 103.714C615.071 104.059 616.011 104.542 616.918 105.094C617.857 103.68 618.764 102.266 619.606 100.748C636.937 69.6366 627.284 29.4191 598.064 10.9654C593.95 8.37853 589.577 6.27454 585.041 4.75694C559.32 -3.79704 531.395 6.48151 516.106 30.0741C526.893 29.6602 537.681 31.0743 548.047 34.282C565.378 39.0419 578.919 53.4597 583.357 71.9125Z" fill="black"/>
<path d="M736.454 133.033C701.889 112.683 658.675 120.651 632.568 152.211C606.458 183.771 604.482 230.438 627.838 264.377L577.886 317.529H614.525L646.109 283.899H646.142C656.54 292.143 668.655 297.627 681.484 299.834C680.415 298.317 679.378 296.799 678.341 295.316C655.147 259.617 647.049 228.471 654.013 202.328C660.33 180.495 679.735 165.974 701.147 167.077C719.871 167.905 735.291 183.047 737.526 202.88C739.761 222.679 728.196 241.304 710.185 246.858C703.317 248.996 696.126 244.788 694.117 237.476C692.109 230.163 696.061 222.506 702.929 220.368L703.026 220.333C706.136 219.367 708.792 217.126 710.379 214.056C711.286 212.331 711.805 210.4 711.869 208.399C712.064 204.915 710.898 201.501 708.695 198.914C706.492 196.327 703.414 194.775 700.11 194.637C690.651 193.982 681.937 200.225 678.956 209.814C673.028 232.061 686.796 259.827 699.397 279.212C705.033 287.283 709.504 293.801 713.099 299.182C715.108 298.734 717.149 298.251 719.125 297.665H719.092C751.843 287.628 775.685 257.585 779.475 221.541C783.265 185.497 766.289 150.551 736.454 133.033Z" fill="black"/>
<path d="M187.276 317.525H263.629C264.115 313.8 264.828 310.11 265.767 306.488C271.112 287 283.228 270.479 299.684 260.269L264.925 229.916C261.782 227.191 257.604 226.156 253.651 227.156L224.626 234.641H224.658C218.633 236.193 214.486 242.022 214.746 248.61L215.944 280.791L190.223 287.172C186.238 288.138 182.934 291.069 181.282 295.036C179.662 299.037 179.857 303.59 181.865 307.384L187.276 317.525Z" fill="black"/>
<path d="M458.216 164.176C468.647 145.827 486.497 133.72 506.484 131.409C503.179 127.857 499.454 124.718 495.47 122.062C477.815 110.404 455.852 108.989 437.03 118.337C418.209 127.684 405.089 146.517 402.141 168.385C403.955 168.247 405.802 168.523 407.519 169.213C425.206 176.283 448.336 181.147 458.216 164.176Z" fill="black"/>
<path d="M284.453 312.254C283.967 314.013 283.611 315.772 283.287 317.531H391.353C386.591 290.869 365.308 271.174 339.846 269.933C314.416 268.691 291.483 286.177 284.453 312.254Z" fill="black"/>
</svg>
