<svg width="672" height="828" viewBox="0 0 672 828" fill="none" xmlns="http://www.w3.org/2000/svg">
<path fill-rule="evenodd" clip-rule="evenodd" d="M226.459 128.322V59.7946L139.37 59.4011L138.966 128.322L226.055 128.712C226.251 128.712 226.459 128.515 226.459 128.322ZM172.925 106.652C172.925 112.279 168.2 116.833 162.375 116.833C156.552 116.833 151.825 112.27 151.825 106.652V81.4547C151.825 75.8373 156.551 71.2741 162.375 71.2741C168.198 71.2741 172.925 75.8372 172.925 81.4547V106.652Z" fill="black"/>
<path fill-rule="evenodd" clip-rule="evenodd" d="M342.612 81.4549V106.653C342.612 112.28 337.889 116.833 332.061 116.833C326.24 116.833 321.511 112.27 321.511 106.653V81.4549C321.511 75.8374 326.24 71.2743 332.061 71.2743C337.885 71.2743 342.612 75.8374 342.612 81.4549ZM307.453 59.4013L307.049 128.322L394.138 128.712C394.334 128.712 394.548 128.515 394.548 128.322V59.7948L307.453 59.4013Z" fill="black"/>
<path fill-rule="evenodd" clip-rule="evenodd" d="M512.308 81.4549V106.653C512.308 112.28 507.586 116.833 501.758 116.833C495.937 116.833 491.21 112.27 491.21 106.653V81.4549C491.21 75.8374 495.94 71.2743 501.758 71.2743C507.578 71.2743 512.308 75.8374 512.308 81.4549ZM475.538 59.4013L475.135 128.322L562.224 128.712C562.42 128.712 562.628 128.515 562.628 128.322V59.7948L475.538 59.4013Z" fill="black"/>
<path fill-rule="evenodd" clip-rule="evenodd" d="M562.626 200.064L475.537 199.669L475.133 268.592L562.222 268.981C562.418 268.981 562.626 268.783 562.626 268.592V200.064ZM512.307 221.724V246.922C512.307 252.547 507.584 257.101 501.757 257.101C495.935 257.101 491.208 252.539 491.208 246.922V221.724C491.208 216.105 495.939 211.544 501.757 211.544C507.576 211.544 512.307 216.105 512.307 221.724Z" fill="black"/>
<path fill-rule="evenodd" clip-rule="evenodd" d="M394.548 268.592V200.064L307.454 199.669L307.05 268.592L394.139 268.981C394.335 268.981 394.548 268.783 394.548 268.592ZM342.612 246.922C342.612 252.547 337.889 257.101 332.062 257.101C326.24 257.101 321.511 252.539 321.511 246.922V221.724C321.511 216.105 326.24 211.544 332.062 211.544C337.885 211.544 342.612 216.105 342.612 221.724V246.922Z" fill="black"/>
<path fill-rule="evenodd" clip-rule="evenodd" d="M226.459 268.592V200.064L139.37 199.669L138.966 268.592L226.055 268.981C226.251 268.981 226.459 268.783 226.459 268.592ZM172.925 221.724V246.922C172.925 252.547 168.2 257.101 162.375 257.101C156.552 257.101 151.825 252.539 151.825 246.922V221.724C151.825 216.105 156.551 211.544 162.375 211.544C168.198 211.544 172.925 216.105 172.925 221.724Z" fill="black"/>
<path fill-rule="evenodd" clip-rule="evenodd" d="M139.37 179.306L226.057 179.308C237.919 179.308 247.563 188.614 247.563 200.061V268.584C247.557 280.029 237.912 289.335 226.057 289.335H139.37C127.509 289.335 117.865 280.029 117.865 268.582V200.057C117.865 188.612 127.509 179.306 139.37 179.306ZM75.5569 0V406.262C75.5688 406.542 75.5688 406.821 75.5569 407.098V457.417L446.559 494.815L626.035 439.68V374.033C626.035 374.094 626.035 373.972 626.035 374.033V7.61696e-05L75.5569 0ZM307.453 289.335C295.59 289.335 285.948 280.029 285.948 268.582V200.057C285.948 188.611 295.59 179.306 307.453 179.306L394.14 179.308C406.003 179.308 415.658 188.613 415.658 200.06V268.584C415.651 280.029 405.991 289.335 394.132 289.335L307.453 289.335ZM307.453 319.569H394.14C406.003 319.569 415.658 328.881 415.658 340.326V408.852C415.651 420.291 405.991 429.603 394.132 429.603H307.453C295.59 429.603 285.948 420.291 285.948 408.852V340.326C285.948 328.879 295.59 319.569 307.453 319.569ZM454.026 408.852V340.326C454.026 328.879 463.678 319.57 475.537 319.57H562.222C574.074 319.57 583.732 328.881 583.732 340.326V408.852C583.726 420.291 574.074 429.603 562.222 429.603H475.537C463.682 429.603 454.026 420.291 454.026 408.852ZM139.37 319.569H226.057C237.919 319.569 247.563 328.881 247.563 340.326V408.852C247.557 420.291 237.912 429.603 226.057 429.603H139.37C127.509 429.603 117.865 420.291 117.865 408.852V340.326C117.865 328.879 127.509 319.569 139.37 319.569ZM454.026 200.056C454.026 188.611 463.678 179.305 475.537 179.305L562.222 179.307C574.074 179.307 583.732 188.613 583.732 200.06V268.584C583.726 280.029 574.074 289.335 562.222 289.335H475.537C463.682 289.335 454.026 280.029 454.026 268.582V200.056ZM226.057 149.069H139.37C127.509 149.069 117.866 139.765 117.866 128.318V59.7928C117.866 48.3457 127.509 39.038 139.37 39.038L226.057 39.0399C237.92 39.0399 247.564 48.3515 247.564 59.7947V128.322C247.558 139.762 237.912 149.069 226.057 149.069ZM307.454 149.069C295.591 149.069 285.949 139.765 285.949 128.318V59.7928C285.949 48.3457 295.591 39.038 307.454 39.038L394.141 39.0399C406.003 39.0399 415.659 48.3515 415.659 59.7947V128.322C415.651 139.762 405.991 149.069 394.133 149.069L307.454 149.069ZM454.027 128.318V59.7928C454.027 48.3457 463.678 39.038 475.537 39.038L562.222 39.0399C574.075 39.0399 583.733 48.3515 583.733 59.7947V128.322C583.727 139.762 574.075 149.069 562.222 149.069H475.537C463.682 149.069 454.027 139.765 454.027 128.318Z" fill="black"/>
<path fill-rule="evenodd" clip-rule="evenodd" d="M328.376 643.168L62.0433 476.86C57.6628 475.621 54.4561 471.711 54.4561 467.088V419.956L0 434.082L73.5515 542.04C73.7415 542.292 73.9197 542.553 74.086 542.821L201.054 729.182L328.376 643.168Z" fill="black"/>
<path fill-rule="evenodd" clip-rule="evenodd" d="M347.503 655.112L204.256 751.876C202.472 753.082 200.356 753.721 198.211 753.721C197.55 753.721 196.882 753.656 196.225 753.536C193.424 753.02 190.964 751.431 189.394 749.132L75.5574 582.043V792.608C75.5574 812.127 92.0124 828 112.232 828H588.628C609.251 828 626.029 811.81 626.029 791.909V537.061L485.353 729.557C483.302 732.348 480.042 733.859 476.723 733.859C474.751 733.859 472.766 733.33 471.002 732.228L347.503 655.112ZM327.653 770.65H571.056C576.882 770.65 581.606 775.215 581.606 780.831C581.606 786.445 576.889 791.01 571.066 791.01H327.653C321.832 791.01 317.103 786.445 317.103 780.831C317.103 775.215 321.832 770.65 327.653 770.65Z" fill="black"/>
<path fill-rule="evenodd" clip-rule="evenodd" d="M475.133 408.851L562.222 409.243C562.418 409.243 562.626 409.044 562.626 408.851V340.326L475.537 339.931L475.133 408.851ZM512.307 361.988V387.184C512.307 392.805 507.584 397.364 501.757 397.364C495.935 397.364 491.208 392.805 491.208 387.184V361.988C491.208 356.369 495.939 351.807 501.757 351.807C507.576 351.807 512.307 356.369 512.307 361.988Z" fill="black"/>
<path fill-rule="evenodd" clip-rule="evenodd" d="M394.548 408.851V340.326L307.454 339.931L307.05 408.851L394.139 409.243C394.335 409.243 394.548 409.044 394.548 408.851ZM342.612 387.184C342.612 392.805 337.889 397.364 332.062 397.364C326.24 397.364 321.511 392.805 321.511 387.184V361.988C321.511 356.369 326.24 351.807 332.062 351.807C337.885 351.807 342.612 356.369 342.612 361.988V387.184Z" fill="black"/>
<path fill-rule="evenodd" clip-rule="evenodd" d="M226.459 408.851V340.326L139.37 339.931L138.966 408.851L226.055 409.243C226.251 409.243 226.459 409.044 226.459 408.851ZM172.925 361.988V387.184C172.925 392.805 168.2 397.364 162.375 397.364C156.552 397.364 151.825 392.805 151.825 387.184V361.988C151.825 356.369 156.551 351.807 162.375 351.807C168.198 351.807 172.925 356.369 172.925 361.988Z" fill="black"/>
<path fill-rule="evenodd" clip-rule="evenodd" d="M446.571 515.29L107.715 481.125L473.956 709.813L627.74 499.373C627.878 499.171 628.021 498.972 628.173 498.779L664.355 449.267L450.862 514.858C449.478 515.284 448.014 515.426 446.571 515.29ZM266.814 524.8L469.698 651.487C474.589 654.543 475.983 660.841 472.826 665.564C470.805 668.575 467.414 670.217 463.962 670.217C461.99 670.217 460.013 669.688 458.241 668.584L255.357 541.897C250.466 538.841 249.063 532.544 252.228 527.822C255.393 523.098 261.927 521.756 266.814 524.8Z" fill="black"/>
<path fill-rule="evenodd" clip-rule="evenodd" d="M647.138 399.804V433.198L672 425.559L647.138 399.804Z" fill="black"/>
</svg>
