<svg width="710" height="839" viewBox="0 0 710 839" fill="none" xmlns="http://www.w3.org/2000/svg">
<path d="M283.376 17.8739C297.389 -1.52781 335.491 -7.2557 353.695 11.3797C356.532 14.2839 361.315 14.2839 364.152 11.3797C382.356 -7.2558 420.458 -1.52792 434.598 17.8739C459.068 51.6754 442.092 103.024 366.566 130.893C361.655 132.668 356.278 132.668 351.325 130.893C275.798 102.981 258.822 51.6723 283.419 17.8739H283.376ZM707.235 803.02C705.415 823.188 687.252 839 665.916 839H42.9853C20.7167 839 2.46999 822.421 1.41221 801.246C-4.55709 680.12 5.56108 504.009 87.6072 352.7C95.5239 338.058 100.393 321.52 104.541 289.251C108.817 256.135 112.797 210.555 119.528 187.967C124.227 172.114 141.5 161.305 158.18 164.007C167.96 165.58 174.691 169.331 179.814 173.688C182.608 176.068 186.842 175.785 189.593 173.325C196.198 167.436 205.215 162.112 219.102 162.112C231.929 162.112 240.651 166.226 247.34 171.349C250.092 173.446 253.902 173.527 256.696 171.429C262.708 166.912 269.905 163.564 279.473 163.564C292.258 163.564 300.767 168.081 307.161 173.607C309.87 175.947 313.977 175.745 316.771 173.486C324.137 167.436 332.604 162.111 349.031 162.111C363.002 162.111 372.528 166.024 379.428 170.945C381.841 172.639 385.016 172.841 387.556 171.308C394.965 166.871 404.237 162.676 414.778 162.676C424.896 162.676 432.982 166.548 438.401 170.662C444.032 174.938 449.79 174.252 455.631 170.178C462.151 165.62 468.586 162.111 480.27 162.111C491.024 162.111 499.533 167.073 505.122 172.034C507.111 173.809 512.53 173.728 514.309 171.752C516.891 168.888 523.284 164.935 527.687 163.765C536.027 161.506 548.304 163.039 556.814 171.268C559.227 173.607 562.995 173.93 565.747 171.953C574.298 165.782 584.247 163.765 590.301 165.378C601.139 168.242 607.277 180.504 611.681 189.217C627.514 220.64 647.793 348.704 649.147 352.091C704.438 486.496 716.461 700.597 707.148 803.012L707.235 803.02ZM359.447 478.233C354.578 473.594 346.661 473.594 341.751 478.233L319.016 499.894C314.147 504.532 314.147 512.075 319.016 516.754C321.471 519.094 324.647 520.223 327.864 520.223C331.082 520.223 334.257 519.053 336.712 516.754L359.447 495.093C364.316 490.454 364.315 482.911 359.447 478.233ZM251.152 278.04C251.152 289.456 260.889 298.773 272.913 298.773H388.867C394.879 298.773 400.298 296.474 404.278 292.642C408.215 288.891 410.628 283.728 410.628 278.04C410.628 277.556 410.628 276.991 410.543 276.547C409.781 265.817 400.383 257.347 388.868 257.347H272.913C266.901 257.347 261.482 259.646 257.587 263.478C253.904 266.907 251.575 271.505 251.237 276.587C251.152 277.071 251.152 277.636 251.152 278.079L251.152 278.04ZM380.188 497.997C375.32 493.358 367.403 493.358 362.492 497.997L326.423 532.363C319.31 539.14 308.218 539.583 301.656 533.331C295.094 527.079 295.559 516.511 302.672 509.734L338.784 475.368C343.652 470.729 343.652 463.186 338.784 458.507C333.915 453.868 325.998 453.868 321.088 458.507L285.018 492.873C271.259 505.982 268.634 525.465 276.89 540.632C276.89 540.632 260.759 556.201 260.59 556.362C259.659 556.241 255.214 556.241 253.944 556.443L239.38 542.608C240.354 540.672 241.2 538.655 241.793 536.517C247.424 516.269 241.454 496.464 224.986 480.773C217.492 473.633 205.3 467.059 195.35 464.84C179.602 461.331 163.556 465.445 152.592 475.892C141.627 486.339 137.308 501.586 140.992 516.631C143.32 526.111 150.179 537.728 157.715 544.867C170.119 556.726 185.021 562.857 200.685 562.857C205.807 562.857 210.972 562.212 216.222 560.881C218 560.437 219.736 559.832 221.387 559.146L233.706 570.884L177.908 624.047C169.695 631.872 169.695 644.659 177.908 652.484C182.015 656.397 187.434 658.373 192.853 658.373C198.272 658.373 203.648 656.397 207.797 652.484L257.796 604.847L308.387 653.049C312.494 656.962 317.913 658.938 323.331 658.938C328.75 658.938 334.127 656.961 338.276 653.049C342.255 649.257 344.457 644.215 344.457 638.81C344.457 633.445 342.255 628.404 338.276 624.571L281.208 570.198L294.797 557.25C300.555 559.953 306.779 561.486 313.129 561.486C324.262 561.486 335.524 557.371 344.119 549.143L380.188 514.777C385.057 510.138 385.057 502.595 380.188 497.916L380.188 497.997ZM625.949 360.814C623.663 355.248 621.842 344.034 618.201 321.245C612.317 284.014 603.384 227.785 589.201 199.593C588.312 197.778 586.873 196.406 584.883 196.366C581.792 196.326 575.908 199.673 571.971 203.868C570.531 205.401 569.473 207.136 569.473 209.153C569.685 238.719 563.969 291.035 561.133 317.05C559.482 332.015 555.418 347.141 548.94 361.945C485.945 506.593 497.629 743.164 502.329 808.673C502.583 812.344 505.8 815.167 509.695 815.167H665.913C674.38 815.167 681.619 808.955 682.338 800.969C691.779 696.861 677.428 485.94 625.948 360.777L625.949 360.814Z" fill="black"/>
</svg>
