<svg width="763" height="738" viewBox="0 0 763 738" fill="none" xmlns="http://www.w3.org/2000/svg">
<path fill-rule="evenodd" clip-rule="evenodd" d="M342.085 512.908C341.824 508.941 343.315 504.892 346.295 501.463C347.003 500.678 347.785 499.893 348.642 499.191L361.793 503.074V531.418C356.578 529.641 351.958 527.576 348.679 524.725C344.656 521.295 342.383 517.164 342.122 512.908L342.085 512.908ZM402.216 667.927C450.649 653.548 486.452 604.422 486.452 546.204C486.452 544.18 486.415 542.114 486.303 540.131C451.99 529.926 417.789 519.761 383.555 509.598V537.569C384.561 537.858 385.604 538.189 386.573 538.478C404.866 544.262 417.122 553.145 423.009 564.962C427.256 573.474 428.076 583.431 425.356 593.677C421.444 608.51 409.187 617.6 394.955 621.815C391.23 622.93 387.392 623.715 383.518 624.17V635.863C383.518 641.441 380.09 646.151 375.433 647.556C374.539 647.804 373.57 647.969 372.602 647.969C366.566 647.969 361.723 642.556 361.723 635.863V623.509C339.183 619.46 322.754 605.329 318.618 585.539C317.24 579.053 320.891 572.524 326.777 571.037C332.627 569.508 338.476 573.557 339.854 580.044C341.941 589.96 351.18 596.116 361.761 598.843V556.534C352.335 553.807 342.723 550.254 335.273 543.85C326.368 536.206 321.041 525.836 320.333 514.68C319.811 506.83 321.562 499.103 325.288 492.286L277.227 477.99C265.491 498.152 259.196 521.621 259.196 546.204C259.196 615.7 310.162 672.179 372.788 672.221C382.921 672.18 392.795 670.734 402.145 667.924L402.216 667.927ZM662.41 625.948V592.439L508.245 546.619C508.096 599.464 483.209 645.986 445.767 672.636H620.313C624.635 649.209 641.322 630.7 662.41 625.948ZM255.31 471.468C243.648 493.986 237.427 519.562 237.427 546.211C237.427 599.221 262.351 645.95 299.868 672.64H125.36C121.038 649.214 104.348 630.745 83.2602 625.951V466.426C100.584 462.501 114.928 449.321 121.895 431.803L255.344 471.467L255.31 471.468ZM184.3 546.211C184.3 539.559 179.419 534.146 173.421 534.146H147.268C141.232 534.146 136.389 539.559 136.389 546.211C136.389 552.863 141.27 558.275 147.268 558.275H173.421C174.39 558.275 175.359 558.11 176.253 557.862C180.91 556.499 184.337 551.788 184.337 546.169L184.3 546.211ZM684.2 597.114V636.819C684.2 643.513 679.32 648.884 673.322 648.884C655.513 648.884 640.984 664.997 640.984 684.747C640.984 691.481 636.103 696.811 630.105 696.811H115.565C109.529 696.811 104.686 691.398 104.649 684.705C104.649 664.956 90.1568 648.884 72.3111 648.842C66.2757 648.842 61.4326 643.43 61.4326 636.778V455.559C61.4326 452.336 62.5875 449.279 64.6367 447.006C66.6858 444.734 69.4427 443.453 72.3486 443.453C80.992 443.453 89.1137 439.735 95.2234 432.959C97.2725 430.686 99.0236 428.124 100.439 425.398L24.2134 402.756V738H721.426V465.468L691.659 588.639C690.653 592.854 687.71 595.953 684.17 597.11L684.2 597.114ZM404.484 586.867C405.899 581.496 404.856 578.438 403.962 576.62C401.317 571.29 394.127 566.374 383.546 562.655V599.799C394.35 598.064 402.807 593.064 404.446 586.866L404.484 586.867ZM379.373 340.249C390.214 341.654 399.566 339.299 402.584 333.762C405.229 328.97 404.931 325.747 404.484 323.722C403.18 317.814 397.368 311.038 388.053 304.386L379.373 340.249ZM381.497 411.398C371.773 411.398 361.937 409.993 352.139 407.101C291.635 389.128 255.61 319.88 271.815 252.779C279.676 220.263 298.491 193.077 324.756 176.26C342.266 165.063 361.677 159.319 381.385 159.319C391.258 159.319 401.168 160.766 410.967 163.658C440.287 172.376 464.764 193.241 479.965 222.37C495.128 251.539 499.189 285.46 491.328 317.978C477.73 374.21 431.719 411.354 381.57 411.354L381.497 411.398ZM443.006 260.63C443.565 244.227 434.735 228.899 418.789 218.487C416.07 216.71 413.089 215.057 409.96 213.611L412.754 202.001C414.319 195.555 410.854 188.944 405.042 187.21C399.23 185.475 393.269 189.317 391.705 195.762L388.873 207.414C376.877 205.803 364.657 207.373 354.97 213.901C345.954 219.974 339.956 229.188 338.131 239.93C336.231 250.88 338.95 262.448 345.768 272.364C351.468 280.669 359.926 286.866 368.383 292.196L358.509 333.059C348.935 327.399 341.446 318.804 341.744 308.599C341.931 301.947 337.236 296.328 331.201 296.163C325.202 295.915 320.135 301.162 319.949 307.815C319.353 328.102 331.945 346.487 352.734 356.858L349.866 368.798C348.301 375.244 351.766 381.896 357.578 383.59C358.509 383.879 359.478 384.003 360.409 384.003C365.215 384.003 369.611 380.408 370.916 375.037L373.635 363.757C377.473 364.418 381.385 364.79 385.222 364.79C399.938 364.79 413.909 359.543 421.136 346.321C426.128 337.19 427.656 327.356 425.57 317.895C422.626 304.797 412.866 292.651 396.547 281.825C395.653 281.246 394.759 280.668 393.864 280.09L404.221 237.202C405.413 237.863 406.568 238.524 407.686 239.268C411.859 241.995 421.545 249.473 421.173 259.679C420.95 266.372 425.644 271.951 431.642 272.198C437.641 272.487 442.708 267.281 442.931 260.587L443.006 260.63ZM366.296 234.56C362.645 237.039 360.223 240.509 359.59 244.435C358.882 248.649 360.111 253.276 363.166 257.739C365.662 261.416 369.686 264.762 374.269 267.944L383.173 231.047C376.542 230.634 370.469 231.75 366.259 234.559L366.296 234.56ZM281.539 386.607L112.953 336.53C114.22 312.649 102.447 290.049 83.1854 279.348L120.404 125.28C141.938 126.685 162.354 113.629 172.004 92.268L340.475 142.345C331.273 145.609 322.369 149.947 313.799 155.401C282.467 175.44 260.076 207.832 250.725 246.588C238.355 297.822 251.507 350.046 281.536 386.651L281.539 386.607ZM191.714 216.504L166.455 208.985C160.643 207.249 154.682 211.092 153.118 217.537C151.553 223.983 155.018 230.594 160.829 232.329L186.089 239.848C187.02 240.137 187.989 240.261 188.92 240.261C193.726 240.261 198.122 236.708 199.427 231.296C200.991 224.85 197.526 218.239 191.714 216.504ZM673.474 570.756L0 370.572L89.526 0L763 200.142L673.474 570.713V570.756ZM661.105 462.297L703.39 287.276C704.955 280.831 701.49 274.179 695.679 272.485C678.466 267.362 668.221 247.695 672.841 228.566C674.406 222.12 670.941 215.509 665.129 213.775L168.137 66.1064C162.325 64.3711 156.364 68.1722 154.8 74.659C152.565 83.914 147.2 91.6407 139.749 96.4332C132.26 101.226 123.58 102.507 115.235 100.028C112.44 99.2014 109.46 99.6146 106.964 101.226C104.468 102.837 102.642 105.482 101.897 108.58L59.6113 283.643C58.0466 290.089 61.5114 296.7 67.3233 298.435C84.5357 303.558 94.7809 323.267 90.1609 342.354C88.5962 348.8 92.061 355.411 97.8729 357.145L594.864 504.814C595.796 505.103 596.764 505.227 597.696 505.227C602.502 505.227 606.898 501.673 608.202 496.261C612.822 477.172 630.594 465.81 647.805 470.892C653.617 472.628 659.578 468.827 661.142 462.34L661.105 462.297ZM679.807 291.497L642.589 445.564C621.092 444.118 600.639 457.216 590.989 478.577L422.365 428.459C464.874 413.419 499.895 375.49 512.264 324.256C521.615 285.501 516.809 245.051 498.74 210.308C493.822 200.847 488.01 192.128 481.527 184.195L649.998 234.272C648.732 258.112 660.505 280.754 679.766 291.454L679.807 291.497ZM602.166 338.474L576.907 330.955C571.095 329.261 565.133 333.062 563.569 339.507C562.005 345.953 565.469 352.605 571.281 354.298L596.54 361.818C597.472 362.107 598.44 362.231 599.372 362.231C604.178 362.231 608.574 358.678 609.878 353.265C611.443 346.82 607.978 340.209 602.166 338.474Z" fill="black"/>
</svg>
