<svg width="794" height="803" viewBox="0 0 794 803" fill="none" xmlns="http://www.w3.org/2000/svg">
<path d="M134.623 705.901V802.981L165.644 780.726C168.297 778.823 171.72 778.973 174.209 780.838L205.083 803V705.92H134.623V705.901ZM381.414 143.419C320.361 81.1861 221.316 81.1861 160.208 143.419C99.1007 205.708 99.1007 306.668 160.208 368.957C221.316 431.189 320.361 431.189 381.414 368.957C442.522 306.649 442.522 205.708 381.414 143.419ZM111.966 191.381H0V321.051H111.948C95.6784 279.581 95.6784 232.832 111.966 191.381ZM422.958 176.401H541.604V43.783C541.604 19.625 521.949 0 498.139 0H43.4835C19.6737 0 0.018305 19.569 0.018305 43.783V176.401H118.665C171.573 71.7467 309.564 49.0624 391.791 132.879C404.236 145.583 414.814 160.283 422.958 176.401ZM429.656 321.032H541.604V191.362H429.656C445.944 232.832 445.944 279.581 429.656 321.032ZM344.519 181.008C303.799 139.501 237.805 139.501 197.085 181.008C156.365 222.516 156.365 289.841 197.085 331.348C237.805 372.855 303.799 372.855 344.519 331.348C385.239 289.841 385.239 222.516 344.519 181.008ZM270.802 134.95C336.485 134.95 389.704 189.254 389.704 256.206C389.704 323.103 336.485 377.407 270.802 377.407C205.119 377.407 151.899 323.103 151.899 256.206C151.899 189.254 205.137 134.95 270.802 134.95ZM263.5 216.546H245.656C226.934 216.546 226.934 248.688 245.656 248.688H263.5V216.546ZM278.122 295.867H295.966C314.688 295.867 314.688 263.668 295.966 263.668H278.122V295.867ZM232.516 310.772C222.871 310.772 222.871 295.867 232.516 295.867H263.482V263.668H245.638C207.553 263.668 207.553 201.585 245.638 201.585H263.482V178.21C263.482 168.379 278.104 168.379 278.104 178.21V201.585H309.07C318.714 201.585 318.714 216.546 309.07 216.546H278.104V248.688H295.948C334.032 248.688 334.032 310.772 295.948 310.772H278.104V334.202C278.104 343.978 263.482 343.978 263.482 334.202V310.772H232.516ZM146.812 513.196C137.167 513.196 137.167 498.235 146.812 498.235H394.792C404.437 498.235 404.437 513.196 394.792 513.196H146.812ZM223.603 569.142C213.959 569.142 213.959 554.237 223.603 554.237H318.019C327.664 554.237 327.664 569.142 318.019 569.142H223.603ZM583.532 404.27L583.477 121.947C583.477 101.277 579.432 98.1434 556.245 98.1434V433.129L583.532 404.27ZM622.33 363.174V105.344C622.33 81.1861 602.73 61.5612 578.865 61.5612H556.227V83.2382C587.192 83.2382 598.1 92.3417 598.1 121.947V388.824L622.33 363.174ZM598.1 550.114V654.227C598.1 685.959 572.368 711.703 541.293 711.703H219.76V746.438H580.146C603.956 746.438 622.33 726.664 622.33 701.853V524.445L598.1 550.114ZM500.207 492.415L541.604 448.632V335.937H422.958C370.086 440.591 232.04 463.276 149.831 379.459C137.387 366.774 126.79 352.074 118.646 335.937H0V667.136C10.5781 654.395 26.2987 646.467 43.575 646.467H495.65C520.869 646.467 541.604 627.793 541.604 602.628V580.69L491.331 591.64C485.785 592.965 481.375 588.263 482.253 583.133L496.839 497.787H496.894C497.297 495.213 498.596 494.112 500.207 492.415ZM579.689 569.571C578.078 571.418 576.468 573.116 574.143 573.638L556.245 577.5V602.609C556.245 635.927 529.068 661.297 495.65 661.297L43.5933 661.353C6.442 661.353 -12.9023 706.983 13.7625 733.902C21.4489 741.625 31.9721 746.438 43.5933 746.438H120.001V711.703H49.3399C39.6952 711.703 39.6952 696.742 49.3399 696.742H541.293C564.425 696.742 583.477 677.751 583.477 654.227L583.532 565.542L579.689 569.571ZM701.959 300.418C723.536 315.007 744.856 335.956 759.955 357.372L782.721 333.251C807.318 307.283 789.109 263.071 752.945 263.762C742.679 263.967 732.393 268.145 724.725 276.298L701.959 300.418ZM667.973 336.366C689.55 350.955 710.871 371.904 725.97 393.32L749.633 368.304C735.01 346.776 713.269 325.472 691.637 311.294L667.973 336.366ZM548.613 521.815L689.312 373.005C679.448 363.267 668.413 354.238 657.67 347.261L517.19 495.903C528.226 503.365 538.493 511.928 548.613 521.815ZM699.47 383.694L558.825 532.504C564.791 539.108 570.337 545.936 575.168 552.857L715.648 404.214C710.926 397.293 705.491 390.354 699.47 383.694ZM498.505 574.813L562.833 560.859C548.924 541.346 529.47 522.207 509.815 508.831L498.505 574.813Z" fill="black"/>
</svg>
