<svg width="774" height="829" viewBox="0 0 774 829" fill="none" xmlns="http://www.w3.org/2000/svg">
<path d="M0 807.252V676.193C0 656.523 2.1659 637.941 6.7422 619.632C11.2487 601.493 18.0953 584 27.4228 566.371L77.9015 471.015V377.253C77.9015 357.991 85.9711 340.464 99.0016 327.77C111.997 315.11 129.987 307.214 149.795 307.214H172.187V293.193C172.187 273.012 180.676 254.6 194.405 241.226C202.999 232.854 213.584 226.524 225.391 222.916V141.749H108.506C96.1747 141.749 86.1487 132.016 86.1487 119.968V21.7807C86.1487 9.76734 96.1398 0 108.506 0H387.035C399.367 0 409.393 9.73336 409.393 21.7807V119.968C409.393 131.982 399.402 141.749 387.035 141.749H270.151V222.882C281.993 226.455 292.613 232.853 301.172 241.192C314.865 254.532 323.355 272.944 323.355 293.194V307.215H414.323V280.057C414.323 260.863 422.428 243.371 435.458 230.642C448.453 217.914 466.409 210.052 486.182 210.052H534.111C553.813 210.052 571.769 217.948 584.834 230.642C597.899 243.268 606.004 260.794 606.004 280.057V307.215H624.24C643.942 307.215 661.898 315.111 674.964 327.805C687.993 340.533 696.099 358.026 696.099 377.22V470.982L746.577 566.338C755.905 583.966 762.751 601.425 767.258 619.598C771.834 637.908 774 656.49 774 676.16V807.219C774 819.233 764.009 829 751.643 829H22.3693C10.0378 829 0.0118037 819.267 0.0118037 807.219L0 807.252ZM122.617 454.405H651.407V377.287C651.407 369.97 648.368 363.368 643.477 358.536C638.551 353.771 631.739 350.81 624.229 350.81H605.993V380.793H611.548C623.879 380.793 633.905 390.526 633.905 402.574C633.905 414.587 623.914 424.354 611.548 424.354H408.685C396.354 424.354 386.328 414.621 386.328 402.574C386.328 390.56 396.319 380.793 408.685 380.793H414.239V350.81H149.76C142.284 350.81 135.506 353.805 130.581 358.57C125.656 363.368 122.582 370.005 122.582 377.253V454.371L122.617 454.405ZM145.184 582.981H210.964C223.296 582.981 233.322 573.247 233.322 561.2C233.322 549.187 223.33 539.419 210.964 539.419H145.184C132.852 539.419 122.826 549.153 122.826 561.2C122.826 573.213 132.818 582.981 145.184 582.981ZM269.965 744.088H504.021C516.353 744.088 526.378 734.355 526.378 722.308C526.378 710.294 516.387 700.527 504.021 700.527H269.965C257.634 700.527 247.608 710.26 247.608 722.308C247.608 734.321 257.599 744.088 269.965 744.088ZM145.184 654.587H210.964C223.296 654.587 233.322 644.854 233.322 632.806C233.322 620.793 223.33 611.026 210.964 611.026H145.184C132.852 611.026 122.826 620.759 122.826 632.806C122.826 644.82 132.818 654.587 145.184 654.587ZM563.063 654.587H628.808C641.139 654.587 651.165 644.854 651.165 632.806C651.165 620.793 641.174 611.026 628.808 611.026H563.063C550.731 611.026 540.705 620.759 540.705 632.806C540.705 644.82 550.696 654.587 563.063 654.587ZM423.785 654.587H489.565C501.896 654.587 511.922 644.854 511.922 632.806C511.922 620.793 501.931 611.026 489.565 611.026H423.785C411.453 611.026 401.427 620.759 401.427 632.806C401.427 644.82 411.418 654.587 423.785 654.587ZM284.507 654.587H350.252C362.583 654.587 372.609 644.854 372.609 632.806C372.609 620.793 362.618 611.026 350.252 611.026H284.507C272.175 611.026 262.149 620.759 262.149 632.806C262.149 644.82 272.14 654.587 284.507 654.587ZM563.063 582.982H628.808C641.139 582.982 651.165 573.249 651.165 561.202C651.165 549.188 641.174 539.421 628.808 539.421H563.063C550.731 539.421 540.705 549.154 540.705 561.202C540.705 573.215 550.696 582.982 563.063 582.982ZM423.785 582.982H489.565C501.896 582.982 511.922 573.249 511.922 561.202C511.922 549.188 501.931 539.421 489.565 539.421H423.785C411.453 539.421 401.427 549.154 401.427 561.202C401.427 573.215 411.418 582.982 423.785 582.982ZM284.507 582.982H350.252C362.583 582.982 372.609 573.249 372.609 561.202C372.609 549.188 362.618 539.421 350.252 539.421H284.507C272.175 539.421 262.149 549.154 262.149 561.202C262.149 573.215 272.14 582.982 284.507 582.982Z" fill="black"/>
</svg>
