<svg width="820" height="613" viewBox="0 0 820 613" fill="none" xmlns="http://www.w3.org/2000/svg">
<path d="M424.189 67.0051C427.697 70.009 430.799 73.3173 433.458 76.8534C442.727 73.1649 452.845 71.1116 463.037 71.1116C472.674 71.1116 482.054 72.7848 490.732 76.0929C493.834 73.5452 497.157 71.2257 500.739 69.1723C502.254 65.0656 502.992 60.8068 502.992 56.4339C502.992 31.7172 478.805 11.564 449.005 11.564C439.071 11.564 429.728 13.8075 421.383 17.9903C426.405 26.2797 429.027 35.52 429.027 45.0636C429.101 52.4785 427.402 60.0089 424.189 67.0051Z" fill="black"/>
<path d="M496.715 88.9757C492.173 93.3486 488.665 98.2158 486.413 103.577C484.345 108.445 483.201 113.615 483.201 118.863C483.201 132.781 490.771 145.633 503.917 154.493C507.609 154.113 511.302 153.999 514.995 154.113C523.599 154.417 531.908 156.052 539.663 158.98C552.44 148.257 569.648 142.135 587.594 142.059C592.616 135.062 595.349 127.077 595.349 118.902C595.349 102.056 584.197 87.2647 567.653 79.2796C559.899 77.0361 551.774 74.9827 543.355 73.0435C542.026 72.9294 540.697 72.8534 539.293 72.8534C528.621 72.8534 518.318 75.287 509.308 80.0401C504.544 82.4737 500.297 85.4773 496.715 88.9757Z" fill="black"/>
<path d="M653.32 181.764C662.22 172.524 667.02 162.599 667.02 152.371C667.02 129.404 642.057 107.311 600.182 90.3521C605.573 98.8317 608.601 108.566 608.601 118.871C608.601 127.427 606.422 135.717 602.471 143.397C625.92 147.694 645.306 162.409 653.32 181.764Z" fill="black"/>
<path d="M590.474 155.871C589.625 155.871 588.775 155.757 587.926 155.757C575.26 155.757 563.074 159.369 553.214 165.795C570.792 176.974 581.205 194.884 581.205 213.707C581.205 216.254 580.909 218.878 580.54 221.388C606.242 213.022 627.512 202.793 642.467 191.424C636.891 171.461 615.622 156.745 590.474 155.871Z" fill="black"/>
<path d="M565.876 225.871C567.206 221.992 567.87 217.886 567.87 213.817C567.87 199.329 559.746 185.868 545.456 177.123C543.203 175.754 540.729 174.499 538.255 173.32C530.869 170.012 522.856 168.263 514.437 167.959C510.67 167.845 506.793 167.959 502.99 168.453C496.454 169.328 490.139 171.191 484.267 173.891C485.006 176.02 485.671 178.188 486.151 180.431C487 184.234 487.48 188.112 487.48 191.915C487.48 195.908 487 199.786 486.077 203.779C498.188 212.639 504.689 223.629 504.689 235.302C504.689 236.481 504.578 237.736 504.504 238.915C526.549 235.492 547.191 231.118 565.876 225.871Z" fill="black"/>
<path d="M354.433 200.542C359.639 197.348 365.511 194.496 371.937 192.253C368.244 186.511 363.037 181.339 356.612 177.27C350.666 173.468 343.946 170.73 336.671 169.209C332.055 168.22 327.217 167.65 322.38 167.65C311.598 167.65 301.221 170.198 292.137 174.951C290.327 175.939 288.629 176.89 287.041 177.955C273.895 186.815 266.325 199.743 266.325 213.585C266.325 219.212 267.654 224.688 270.018 229.86C289.109 234.423 309.899 238.149 331.945 240.849C331.575 238.91 331.391 236.97 331.391 234.993C331.465 222.065 339.588 209.783 354.433 200.542Z" fill="black"/>
<path d="M279.732 166.588C270.944 154.724 255.915 146.549 238.891 144.8C236.417 144.496 234.053 144.419 231.69 144.419C200.967 144.419 175.93 164.877 175.634 190.088C193.396 204.195 220.722 216.554 254.363 226.021C253.403 222.029 252.96 217.96 252.96 213.853C252.997 195.183 262.746 177.958 279.732 166.588Z" fill="black"/>
<path d="M248.271 80.536C189.668 98.2555 153.076 124.835 153.076 152.365C153.076 161.415 156.843 170.161 163.859 178.451C170.21 151.491 197.684 131.147 230.697 130.653C230.143 127.535 229.847 124.341 229.847 121.108C229.737 105.442 236.75 91.2214 248.271 80.536Z" fill="black"/>
<path d="M474.112 98.0287C475.811 94.2262 477.879 90.5378 480.464 87.1154C474.888 85.6705 469.017 84.872 463.182 84.872C452.88 84.872 442.873 87.1915 434.158 91.6024C428.101 94.6064 422.895 98.523 418.575 103.2C411.115 111.261 407.128 120.806 407.128 130.959C407.128 131.643 407.238 132.214 407.238 132.898C413.848 132.023 420.569 131.909 427.474 132.708C448.56 135.142 467.356 146.055 478.065 161.721C480.908 160.353 483.826 159.174 486.854 158.109C475.997 147.386 469.83 133.469 469.83 118.981C469.756 111.681 471.269 104.682 474.112 98.0287Z" fill="black"/>
<path d="M371.714 165.985C370.753 167.163 369.904 168.304 369.055 169.483C375.849 174.845 381.352 181.157 385.229 188.382C395.642 185.948 406.683 184.693 418.02 184.693C430.798 184.693 442.983 186.252 454.431 189.256C461.521 191.119 467.947 193.553 473.818 196.367C474.003 194.808 474.113 193.249 474.113 191.804C474.113 188.99 473.818 186.176 473.153 183.438C472.415 180.244 471.27 177.012 469.645 173.894C462.001 159.102 445.163 148.493 425.887 146.25C417.836 145.375 410.304 145.756 402.918 147.505C390.252 150.433 379.173 156.935 371.714 165.985Z" fill="black"/>
<path d="M410.009 245.525C438 245.525 465.031 243.776 490.473 240.658C491.027 238.794 491.433 236.969 491.433 235.106C491.433 227.045 485.562 218.945 474.89 212.329C468.28 208.223 460.34 204.914 451.257 202.481C440.954 199.743 429.802 198.374 418.17 198.374C405.984 198.374 394.241 199.933 383.458 202.937C375.039 205.257 367.579 208.489 361.45 212.291C350.778 218.908 344.906 227.007 344.906 235.068C344.906 237.502 345.46 240.049 346.531 242.483C366.804 244.46 388.185 245.525 410.009 245.525Z" fill="black"/>
<path d="M411.815 74.4908C404.836 69.5095 396.306 66.0113 387.332 64.3758C383.344 63.5772 379.172 63.197 375.109 63.197C362.444 63.197 350.257 66.8094 340.397 73.2352C348.448 78.4066 355.131 84.9087 359.969 92.5902C365.434 101.336 368.388 111.185 368.388 121.223C368.388 135.444 362.517 148.982 351.955 159.78C353.949 160.541 355.833 161.453 357.642 162.404C358.787 160.655 360.116 158.905 361.409 157.232C369.533 147.498 380.869 140.007 393.831 135.9C393.646 134.227 393.535 132.592 393.535 130.919C393.535 117.496 398.927 104.263 408.676 93.7307C412.369 89.8521 416.505 86.3157 421.157 83.3119C418.609 80.0417 415.471 77.0385 411.815 74.4908Z" fill="black"/>
<path d="M326.81 66.3918C339.661 55.5924 357.053 49.4705 375.222 49.4705C380.059 49.4705 384.97 49.9648 389.697 50.7253C398.005 52.2844 405.945 55.0982 413.035 59.0909C414.918 54.5279 415.879 49.7367 415.879 44.8699C415.879 35.8959 412.777 27.3401 406.721 19.9634C396.603 7.49162 379.875 0 361.928 0C332.165 0 307.94 20.1532 307.94 44.8699C307.94 50.992 309.455 56.924 312.298 62.4756C317.172 63.3882 322.083 64.6427 326.81 66.3918Z" fill="black"/>
<path d="M243.063 121.109C243.063 124.607 243.543 128.22 244.577 131.604C264.222 134.722 281.541 145.331 291.733 160.123C301.297 156.016 311.784 153.887 322.456 153.887C327.183 153.887 331.91 154.381 336.526 155.142C338.335 153.773 340.034 152.404 341.622 150.959C350.337 142.593 355.137 131.984 355.137 121.071C355.137 113.656 353.069 106.583 348.897 99.9289C343.616 91.6395 335.565 84.9467 325.558 80.4601C319.871 77.9124 313.741 76.2773 307.316 75.4788C304.583 75.1746 301.851 74.9844 299.192 74.9844C268.21 75.1746 243.063 95.822 243.063 121.109Z" fill="black"/>
<path d="M172.531 265.87C235.861 293.818 320.202 309.294 410.009 309.294C499.816 309.294 584.159 293.932 647.487 265.87C709.045 238.719 742.872 203.28 742.872 166.092C742.872 160.046 741.912 153.924 740.139 147.992C723.412 92.779 631.312 46.0819 508.825 29.4263C513.256 36.8412 515.915 45.0929 516.284 53.8763C526.107 55.5494 535.671 57.2985 544.828 59.3138C554.651 59.9983 563.919 62.4319 572.228 66.3104C594.717 72.8508 614.584 80.7982 630.942 89.8863C663.29 107.796 680.277 129.394 680.277 152.286C680.277 212.252 561.552 259.17 410.005 259.17C258.458 259.17 139.734 212.247 139.734 152.286C139.734 109.47 199.297 72.5473 295.601 55.2453C294.936 51.8231 294.567 48.4388 294.567 44.9405C294.567 40.3774 295.231 35.8905 296.376 31.5936C180.383 49.9975 95.9742 95.0572 79.9129 147.91C78.1034 153.842 77.1803 159.964 77.1803 166.011C77.0695 203.161 111.009 238.718 172.531 265.87Z" fill="black"/>
<path d="M484.01 477.594L517.281 470.103C515.472 430.405 470.199 386.979 409.967 386.979C349.734 386.979 304.467 430.29 302.652 470.103L335.923 477.594C339.505 478.354 341.794 482.081 341.019 485.769C340.354 488.963 337.622 491.206 334.483 491.206C334.003 491.206 333.523 491.092 333.08 491.016L303.981 484.476C305.311 490.104 307.674 495.579 310.887 500.637L333.855 498.013C337.548 497.633 340.835 500.333 341.241 504.059C341.61 507.862 338.988 511.246 335.369 511.664L321.559 513.223C340.466 530.753 372.038 541.667 410.037 541.667C448.035 541.667 479.719 530.753 498.515 513.223L484.704 511.664C481.012 511.284 478.353 507.862 478.833 504.059C479.202 500.257 482.526 497.633 486.218 498.013L509.187 500.637C512.4 495.58 514.652 490.218 516.093 484.476L486.994 491.016C486.514 491.13 486.034 491.206 485.591 491.206C482.563 491.206 479.72 488.963 479.055 485.769C478.058 482.08 480.354 478.354 484.01 477.594ZM349.3 451.318C349.3 441.888 355.91 434.283 364.034 434.283C372.158 434.283 378.768 441.888 378.768 451.318C378.768 460.749 372.158 468.354 364.034 468.354C355.947 468.354 349.3 460.635 349.3 451.318ZM451.812 512.235C445.682 514.858 440.106 515.923 434.974 515.923C424.117 515.923 415.697 511.056 410.122 505.694C401.887 513.565 387.449 520.41 368.32 512.234C364.922 510.789 363.298 506.797 364.738 503.26C366.141 499.762 370.018 498.089 373.453 499.572C385.75 504.819 394.169 501.321 399.08 497.328C396.421 493.146 394.833 488.088 394.833 483.906C394.833 475.236 401.628 473.791 410.047 473.791C418.467 473.791 425.262 475.35 425.262 483.906C425.262 488.088 423.637 493.26 421.015 497.328C425.926 501.207 434.457 504.819 446.642 499.572C450.039 498.127 453.917 499.762 455.357 503.26C456.797 506.797 455.209 510.79 451.812 512.235ZM455.948 469.722C447.824 469.722 441.214 462.117 441.214 452.687C441.214 443.257 447.824 435.652 455.948 435.652C464.072 435.652 470.682 443.257 470.682 452.687C470.719 462.117 464.072 469.722 455.948 469.722Z" fill="black"/>
<path d="M502.917 370.895C502.732 367.396 500.738 364.278 497.71 362.719C494.682 361.16 491.1 361.274 488.257 363.214L458.936 382.569C477.105 389.565 493.057 400.288 505.354 413.331L502.917 370.895Z" fill="black"/>
<path d="M331.726 363.214C328.809 361.275 325.3 361.085 322.272 362.72C319.244 364.279 317.25 367.397 317.066 370.895L314.592 413.331C326.889 400.289 342.841 389.566 361.01 382.569L331.726 363.214Z" fill="black"/>
<path d="M815.171 390.178L815.06 389.874L751.287 193.054C739.175 225.565 705.239 255.263 652.764 278.534C587.809 307.243 501.623 323.023 410.001 323.023C318.379 323.023 232.193 307.243 167.239 278.534C114.691 255.377 80.7557 225.679 68.7158 193.054L4.83186 390.176C4.64723 390.556 -11.7115 435.425 16.8329 472.805C105.311 588.742 279.457 613 409.999 613C540.54 613 714.681 588.664 803.164 472.727C831.709 435.425 815.356 390.559 815.171 390.178ZM564.099 473.719L530.163 481.324C529.203 488.739 526.951 495.736 523.627 502.238L547.63 504.976C551.323 505.356 553.982 508.778 553.502 512.581C553.132 516.079 550.178 518.703 546.892 518.703H546.153L515.135 515.204C495.009 539.844 456.79 555.511 410.004 555.511C363.218 555.511 325.034 539.92 304.873 515.204L273.855 518.703H273.116C269.793 518.703 266.875 516.079 266.506 512.581C266.137 508.778 268.759 505.394 272.377 504.976L296.38 502.238C293.057 495.697 290.804 488.701 289.844 481.324L255.909 473.719C252.327 472.959 250.037 469.232 250.813 465.544C251.551 461.855 255.17 459.498 258.752 460.296L289.586 467.217C290.435 455.239 294.202 443.641 300.258 432.957L303.84 370.064C304.32 361.584 308.936 354.283 316.321 350.481C323.596 346.678 332.126 347.059 338.994 351.66L377.768 377.25C388.182 374.703 398.928 373.258 410.006 373.258C421.084 373.258 431.941 374.627 442.244 377.25L481.018 351.66C487.923 347.097 496.416 346.678 503.691 350.481C510.965 354.283 515.692 361.66 516.172 370.064L519.754 432.957C525.81 443.68 529.502 455.24 530.426 467.217L561.26 460.259C564.842 459.498 568.461 461.818 569.199 465.506C569.975 469.232 567.681 472.921 564.099 473.719Z" fill="black"/>
</svg>
