<svg width="811" height="708" viewBox="0 0 811 708" fill="none" xmlns="http://www.w3.org/2000/svg">
<path d="M149.846 630.167C196.013 590.989 244.783 575.948 244.783 575.948C198.616 568.834 177.676 532.099 177.676 532.099C116.402 556.66 65.7044 623.261 65.7044 623.261C65.7044 623.261 35.4885 621.138 22.4889 625.102C9.48923 629.066 -12.575 654.937 9.17262 678.684C30.9562 702.432 85.7656 689.443 85.7656 689.443C85.7656 689.443 74.277 679.109 85.7656 653.309C98.5898 624.465 149.846 630.167 149.846 630.167Z" fill="black"/>
<path d="M716.145 293.774C716.145 293.774 842.31 231.662 803.63 117.174C764.95 2.68608 536.396 -57.0246 525.504 75.7668C514.612 208.558 703.252 48.976 702.056 153.734C700.861 258.487 644.014 265.78 644.014 265.78C644.014 265.78 561.799 258.489 519.459 338.863C519.459 338.863 521.075 397.753 466.862 451.552C466.862 451.552 542.436 368.737 500.099 273.113C500.099 273.113 433.59 275.555 391.249 309.035C391.249 309.035 364.055 290.136 326.566 290.136C326.566 290.136 307.805 223.141 271.546 213.408C271.546 213.408 217.474 259.169 201.417 332.467C200.679 335.865 176.612 351.048 171.798 369.309C166.95 387.571 139.756 423.528 118.604 404.629C118.604 404.629 108.345 419.564 128.126 438.428C128.126 438.428 121.942 444.975 113.018 442.993C113.018 442.993 117.41 476.473 149.136 487.763C180.862 499.017 166.352 549.591 252.644 573.94C252.644 573.94 338.407 557.483 408.535 571.498C408.535 571.498 257.492 547.539 152.266 636.865C152.266 636.865 99.8805 627.522 89.375 661.214C78.9046 694.907 120.82 709.134 175.244 707.93C229.667 706.726 437.243 670.982 468.687 621.045C468.687 621.045 465.068 654.738 430.004 664.081C430.004 664.081 679.105 679.936 679.105 449.682C679.105 449.682 695.232 498.805 667.827 553.629C667.827 553.629 683.145 584.101 681.143 599.496C681.143 599.496 707.704 597.054 718.737 604.061C718.737 604.061 673.695 598.115 665.368 615.457C657.04 632.798 668.986 647.592 694.389 648.795C719.791 650.034 761.355 662.386 774.25 603.53C787.109 544.71 816.129 367.686 716.138 293.783L716.145 293.774ZM176.587 373.652C181.295 366.432 189.586 368.697 189.586 368.697C187.197 366.715 188.287 359.141 188.287 359.141C219.1 365.087 220.259 394.815 220.259 394.815C220.259 394.815 219.205 400.832 214.989 392.904C201.287 367.211 176.587 373.652 176.587 373.652ZM251.423 461.669C227.251 456.183 225.634 440.859 225.634 440.859C225.634 440.859 217.764 451.512 206.697 448.68C195.594 445.849 194.013 431.232 194.013 431.232C194.013 431.232 217.553 459.439 225.81 425.428C216.815 422.066 211.474 412.014 213.864 405.219C216.289 398.318 228.2 395.097 237.334 398.354C246.469 401.609 256.483 408.723 254.059 415.624C252.232 420.826 242.359 425.711 233.681 426.348C233.646 434.629 236.14 455.227 261.613 456.112C274.753 456.572 281.253 450.732 281.253 450.732C281.253 450.697 275.596 467.155 251.423 461.669ZM356.964 423.199C356.964 423.199 369.366 429.003 366.345 440.116C366.345 440.116 344.983 410.67 298.465 421.535C284.095 424.897 289.997 418.35 289.997 418.35C289.997 418.35 326.572 391.842 369.823 415.589C369.788 415.554 362.094 423.623 356.964 423.199Z" fill="black"/>
</svg>
