<svg width="832" height="547" viewBox="0 0 832 547" fill="none" xmlns="http://www.w3.org/2000/svg">
<path d="M832 169.988C817.702 155.974 710.438 191.01 710.438 191.01C649.998 109.257 547.93 122.493 547.93 122.493C523.668 51.3815 464.275 0 464.275 0C446.945 8.30501 423.982 86.7265 423.982 86.7265C109.253 -9.08344 51.2728 289.203 51.2728 289.203C20.9451 347.338 2.74782 351.49 0.148728 419.015C-8.15542 634.558 334.047 512.663 334.047 512.663C334.047 512.663 343.037 442.07 182.908 419.188C19.4201 395.83 98.061 313.299 98.061 313.299C98.061 313.299 31.7722 386.487 187.132 410.624C342.495 434.761 341.839 500.162 341.839 500.162C341.839 500.162 402.603 518.458 421.486 505.612C440.333 492.765 422.786 462.011 409.463 447.218C396.14 432.425 334.726 416.074 334.726 416.074C326.603 431.257 309.38 437.875 309.38 437.875C343.825 404.396 358.122 334.279 330.177 279.349C302.232 224.372 226.805 240.073 226.805 240.073C226.805 240.073 241.103 226.059 307.391 234.623C373.68 243.188 393.213 220.609 393.213 220.609C388.664 251.753 351.62 279.35 351.62 279.35C345.771 312.397 352.92 409.074 393.213 425.418C433.506 441.769 439.355 482.255 439.355 482.255C439.355 482.255 464.701 519.628 612.908 525.078C761.117 530.528 781.267 409.029 781.267 409.029C766.969 397.35 778.017 353.749 778.017 353.749C829.395 308.591 831.994 169.998 831.994 169.998L832 169.988ZM425.24 316.621C422.388 316.318 420.294 313.291 420.547 309.873C420.8 306.456 423.399 304.034 426.215 304.25C427.66 304.423 461.887 308.576 481.636 344.391C483.225 347.246 482.575 351.139 480.156 353.042C479.29 353.734 478.279 354.08 477.304 354.08C475.607 354.08 473.982 353.085 472.971 351.312C455.893 320.341 425.53 316.664 425.24 316.621ZM532.042 468.492C531.283 471.044 529.298 472.645 527.131 472.645C526.554 472.645 505.071 463.604 498.536 445.783C497.742 443.62 497.236 441.458 496.875 439.295C495.575 440.29 494.167 441.198 492.687 441.89C488.86 443.707 484.744 444.356 480.736 444.356C469.146 444.356 458.423 438.689 457.845 438.386C455.209 437.002 454.054 433.326 455.209 430.168C456.365 427.01 459.47 425.583 462.069 427.01C462.214 427.097 478.1 435.402 488.859 430.298C491.892 428.87 494.022 426.232 495.647 422.771C491.097 414.423 491.603 400.148 492 395.045C492.144 393.271 492.903 391.671 494.094 390.633C495.286 389.594 496.802 389.119 498.246 389.508C500.232 389.984 517.851 394.569 524.603 403.306C527.275 406.767 527.925 411.352 526.372 415.591C523.592 423.204 514.457 428.568 507.309 429.174C506.442 433.283 506.695 437.133 508.031 440.81C512.688 453.657 528.647 460.533 528.827 460.621C531.535 461.702 532.98 465.248 532.042 468.492ZM645.951 411.525C644.94 412.996 643.459 413.775 641.943 413.775C640.788 413.775 639.596 413.299 638.621 412.304C616.706 390.33 577.243 392.969 576.846 392.969C573.994 393.358 571.502 390.59 571.322 387.129C571.141 383.669 573.308 380.728 576.196 380.511C578.001 380.425 620.172 377.57 645.301 402.744C647.503 404.95 647.792 408.844 645.951 411.525Z" fill="black"/>
</svg>
