<svg width="683" height="822" viewBox="0 0 683 822" fill="none" xmlns="http://www.w3.org/2000/svg">
<path d="M134.742 446.209C152.232 446.209 169.271 443.257 185.405 437.353L190.825 435.36L230.157 447.389L227.365 413.515L232.169 408.939C256.228 386.134 269.53 356.355 269.53 325.1C269.53 258.31 209.095 203.957 134.744 203.957C60.432 203.957 0 258.275 0 325.1C0 391.891 60.4327 446.209 134.742 446.209ZM95.5733 302.186C106.248 292.665 123.45 292.665 133.961 302.186L134.864 302.997L135.767 302.186C146.442 292.665 163.644 292.665 174.154 302.186C184.706 311.706 184.583 327.167 173.908 336.688L134.371 372.002L95.2847 336.688C84.7333 327.167 84.8563 311.706 95.531 302.186H95.5733ZM632.679 65.3212L225.724 0.818769C192.715 -4.3474 161.102 15.4686 155.272 45.1735L129.652 175.839C131.377 175.802 133.06 175.618 134.826 175.618C226.546 175.618 301.143 242.704 301.143 325.101C301.143 361.559 286.527 396.32 259.922 423.771L265.177 488.015L191.727 465.58C173.498 471.558 154.366 474.583 134.822 474.583C113.022 474.583 92.2467 470.709 73.1555 463.809L28.1161 693.333C22.2861 723.038 44.4567 751.451 77.4658 756.692L484.42 821.194C500.432 823.629 516.526 820.53 529.869 812.116C543.171 803.74 552.04 791.231 554.914 776.839L682.069 128.716C687.899 99.0111 665.729 70.5976 632.719 65.3575L632.679 65.3212ZM208.235 718.319C208.03 718.319 207.824 718.319 207.578 718.245L166.193 711.676C164.181 711.381 162.827 709.647 163.237 707.839C163.565 706.068 165.618 704.813 167.507 705.182L208.892 711.75C210.904 712.045 212.258 713.78 211.848 715.588C211.519 717.212 210 718.319 208.235 718.319ZM311.739 734.703C311.533 734.703 311.328 734.703 311.082 734.629L269.697 728.061C267.685 727.765 266.33 726.031 266.741 724.223C267.069 722.452 269.04 721.271 271.011 721.566L312.396 728.134C314.407 728.43 315.762 730.164 315.352 731.972C315.023 733.596 313.504 734.703 311.739 734.703ZM415.242 751.124C415.037 751.124 414.832 751.124 414.586 751.05L373.201 744.482C371.189 744.187 369.834 742.452 370.245 740.644C370.573 738.873 372.544 737.655 374.514 737.987L415.899 744.555C417.911 744.851 419.266 746.585 418.855 748.393C418.527 750.017 417.008 751.124 415.242 751.124ZM490.048 119.192C489.144 119.192 488.241 119.119 487.256 118.971L327.013 93.5464C318.474 92.2179 312.725 84.8378 314.245 77.1254C315.723 69.45 323.688 64.3205 332.516 65.6496L492.758 91.0742C501.298 92.4026 507.046 99.7829 505.526 107.495C504.212 114.359 497.561 119.193 490.006 119.193L490.048 119.192Z" fill="black"/>
</svg>
