<svg width="533" height="814" viewBox="0 0 533 814" fill="none" xmlns="http://www.w3.org/2000/svg">
<path d="M98.7082 702.267V718.244H434.28V702.267C434.28 675.825 407.748 654.371 375.045 654.371H345.448V616.387C323.673 630.178 296.254 638.427 266.495 638.427C236.737 638.427 209.317 630.178 187.543 616.387V654.371H157.945C125.243 654.404 98.7082 675.825 98.7082 702.267Z" fill="black"/>
<path d="M493.512 750.161H39.4763C17.6612 750.161 0 764.441 0 782.08C0 799.72 17.6612 814 39.4763 814H493.471C515.286 814 532.947 799.72 532.947 782.08C532.988 764.441 515.287 750.161 493.512 750.161Z" fill="black"/>
<path d="M0.00206667 215.485C0.00206667 290.801 47.7851 357.088 120.169 395.591C148.275 410.524 170.734 430.771 185.816 454.116C207.872 439.672 235.938 430.967 266.503 430.967C296.665 430.967 324.367 439.412 346.303 453.529C360.818 430.87 382.553 411.274 409.933 397.091C483.927 358.814 532.96 291.78 532.96 215.483L533 95.7572H0.00521693L0.00206667 215.485ZM129.398 224.191C131.737 218.42 137.906 214.214 145.326 213.334L216.819 204.922L248.796 152.527C252.102 147.082 258.998 143.626 266.497 143.626C273.997 143.626 280.892 147.082 284.199 152.527L316.176 204.922L387.669 213.334C395.088 214.214 401.298 218.42 403.597 224.191C405.936 229.962 404 236.32 398.597 240.558L346.862 281.314L359.08 338.893C360.371 344.892 357.306 350.924 351.217 354.51C345.128 358.064 337.064 358.553 330.411 355.717L266.458 328.525L202.506 355.717C199.602 356.956 196.457 357.542 193.312 357.542C189.239 357.542 185.126 356.499 181.699 354.51C175.61 350.924 172.586 344.892 173.836 338.893L186.054 281.314L134.319 240.558C129.037 236.32 127.099 229.962 129.398 224.191Z" fill="black"/>
<path d="M226.772 278.445L219.554 312.418L257.296 296.377C263.063 293.932 269.918 293.932 275.683 296.377L313.425 312.418L306.208 278.445C305.119 273.261 307.216 267.979 311.893 264.327L342.418 240.265L300.24 235.309C293.828 234.559 288.263 231.299 285.361 226.571L266.49 195.662L247.619 226.571C244.756 231.266 239.191 234.559 232.739 235.309L190.562 240.265L221.086 264.327C225.763 267.979 227.901 273.261 226.772 278.445Z" fill="black"/>
<path d="M0.00206667 0H532.956V63.8392H0.00206667V0Z" fill="black"/>
<path d="M355.322 534.681C355.322 574.361 315.562 606.509 266.489 606.509C217.416 606.509 177.657 574.361 177.657 534.681C177.657 495.034 217.416 462.853 266.489 462.853C315.562 462.853 355.322 495.034 355.322 534.681Z" fill="black"/>
</svg>
