<svg width="836" height="797" viewBox="0 0 836 797" fill="none" xmlns="http://www.w3.org/2000/svg">
<path d="M836 760.816C836 770.412 831.996 779.616 824.87 786.402C817.744 793.188 808.078 797 798 797H38C27.9218 797 18.2563 793.188 11.1299 786.402C4.00356 779.616 0 770.412 0 760.816C0 751.219 4.00356 742.015 11.1299 735.229C18.2563 728.444 27.9218 724.631 38 724.631V362.788C38 343.595 46.0071 325.187 60.2599 311.616C74.5126 298.044 93.8435 290.419 114 290.419H190C210.156 290.419 229.487 298.044 243.74 311.616C257.993 325.187 266 343.595 266 362.788V724.631H304V507.525C304 488.332 312.007 469.925 326.26 456.353C340.513 442.781 359.844 435.157 380 435.157H456C476.156 435.157 495.487 442.781 509.74 456.353C523.993 469.925 532 488.332 532 507.525V724.631H570V579.894C570 560.701 578.007 542.293 592.26 528.722C606.513 515.15 625.844 507.525 646 507.525H722C742.156 507.525 761.487 515.15 775.74 528.722C789.993 542.293 798 560.701 798 579.894V724.631C808.078 724.631 817.744 728.444 824.87 735.229C831.996 742.015 836 751.219 836 760.816ZM105.26 73.3134C307.242 121.226 491.366 221.412 637.26 362.788H570C559.922 362.788 550.256 366.6 543.13 373.386C536.004 380.172 532 389.376 532 398.972C532 408.569 536.004 417.773 543.13 424.559C550.256 431.344 559.922 435.157 570 435.157H722C732.078 435.157 741.744 431.344 748.87 424.559C755.996 417.773 760 408.569 760 398.972V254.235C760 244.638 755.996 235.435 748.87 228.649C741.744 221.863 732.078 218.051 722 218.051C711.922 218.051 702.256 221.863 695.13 228.649C688.004 235.435 684 244.638 684 254.235V304.169C529.748 155.881 335.545 50.9616 122.74 0.944743C117.75 -0.14817 112.582 -0.294446 107.533 0.514268C102.483 1.32298 97.6503 3.07085 93.3101 5.65807C88.9698 8.24529 85.2073 11.6212 82.2372 15.593C79.2672 19.5649 77.1477 24.0549 76 28.8067C74.8522 33.5585 74.6986 38.479 75.5479 43.2873C76.3972 48.0956 78.2328 52.6976 80.9498 56.8304C83.6669 60.9633 87.2122 64.546 91.3833 67.3742C95.5545 70.2023 100.27 72.2205 105.26 73.3134Z" fill="black"/>
</svg>
