<svg width="782" height="821" viewBox="0 0 782 821" fill="none" xmlns="http://www.w3.org/2000/svg">
<path d="M753.145 0H28.8559C12.9127 0 0 13.1228 0 29.3254V73.3135C0 81.0847 3.02982 88.5627 8.44034 94.0609C13.8509 99.5594 21.209 102.639 28.8556 102.639H753.144C760.791 102.639 768.15 99.5594 773.56 94.0609C778.97 88.5623 782 81.0845 782 73.3135V29.3254C782 21.5542 778.97 14.0762 773.56 8.57803C768.149 3.0795 760.791 0 753.145 0Z" fill="black"/>
<path d="M753.145 514.954H28.8559C12.9127 514.954 0 528.077 0 544.279V588.267C0 596.039 3.02982 603.517 8.44034 609.015C13.8509 614.513 21.209 617.592 28.8556 617.592H644.064V705.569C615.93 712.937 597.57 740.466 601.25 769.754C604.893 799.043 629.42 821 658.492 821C687.564 821 712.092 799.043 715.735 769.754C719.414 740.465 701.055 712.936 672.92 705.569V617.592H753.14C760.787 617.592 768.145 614.513 773.555 609.015C778.966 603.516 781.996 596.038 781.996 588.267V544.279C781.996 536.508 778.966 529.03 773.555 523.532C768.145 518.033 760.792 514.954 753.145 514.954ZM687.641 762.46C687.641 778.846 674.548 792.153 658.424 792.153C642.301 792.153 629.207 778.846 629.207 762.46C629.207 746.075 642.301 732.768 658.424 732.768C674.548 732.768 687.641 746.075 687.641 762.46Z" fill="black"/>
<path d="M729.478 485.629V131.96H52.5224V485.629H729.478ZM639.16 237.681L557.353 340.325C553.926 344.65 548.371 346.666 543.033 345.493C537.694 344.32 533.438 340.141 532.104 334.753L517.676 280.502L445.536 361C442.109 364.849 436.915 366.608 431.901 365.545C426.887 364.482 422.775 360.816 421.152 355.868L397.346 284.021L321.31 371.265C318.389 374.637 314.132 376.507 309.696 376.287C305.295 376.03 301.219 373.757 298.659 370.092L261.146 315.987L163.036 399.711C160.439 401.91 157.156 403.083 153.802 403.083C147.778 403.083 142.367 399.271 140.276 393.516C138.184 387.724 139.843 381.273 144.424 377.277L254.511 283.145C257.613 280.506 261.652 279.296 265.656 279.846C269.66 280.359 273.267 282.595 275.575 285.931L311.789 337.984L392.153 245.608C395.544 241.649 400.774 239.853 405.824 240.879C410.91 241.906 415.022 245.608 416.681 250.594L440.92 322.588L514.791 240.623C518.362 236.701 523.737 235.051 528.858 236.334C533.944 237.617 537.948 241.613 539.318 246.782L552.881 299.127L616.797 219.949C621.991 215.257 629.746 215.037 635.229 219.362C640.712 223.724 642.37 231.413 639.16 237.681Z" fill="black"/>
</svg>
