<svg width="818" height="778" viewBox="0 0 818 778" fill="none" xmlns="http://www.w3.org/2000/svg">
<path d="M818 742.636C818 752.015 814.083 761.01 807.11 767.642C800.137 774.274 790.679 778 780.818 778H37.1818C27.3206 778 17.8632 774.274 10.8903 767.642C3.91736 761.01 0 752.015 0 742.636C0 733.257 3.91736 724.262 10.8903 717.63C17.8632 710.998 27.3206 707.273 37.1818 707.273V565.818C37.1818 547.06 45.0165 529.07 58.9624 515.806C72.9083 502.542 91.823 495.091 111.545 495.091H185.909C205.632 495.091 224.546 502.542 238.492 515.806C252.438 529.07 260.273 547.06 260.273 565.818V707.273H297.455V495.091C297.455 476.333 305.289 458.343 319.235 445.079C333.181 431.815 352.096 424.364 371.818 424.364H446.182C465.904 424.364 484.819 431.815 498.765 445.079C512.711 458.343 520.545 476.333 520.545 495.091V707.273H557.727V353.636C557.727 334.878 565.562 316.889 579.508 303.625C593.454 290.361 612.368 282.909 632.091 282.909H706.455C726.177 282.909 745.092 290.361 759.038 303.625C772.983 316.889 780.818 334.878 780.818 353.636V707.273C790.679 707.273 800.137 710.998 807.11 717.63C814.083 724.262 818 733.257 818 742.636ZM111.545 424.364C114.383 424.732 117.26 424.732 120.097 424.364C328.321 375.481 518.342 272.941 669.273 128.016V176.818C669.273 186.197 673.19 195.192 680.163 201.824C687.136 208.456 696.593 212.182 706.455 212.182C716.316 212.182 725.773 208.456 732.746 201.824C739.719 195.192 743.636 186.197 743.636 176.818V35.3636C743.636 25.9846 739.719 16.9897 732.746 10.3578C725.773 3.7258 716.316 0 706.455 0H557.727C547.866 0 538.409 3.7258 531.436 10.3578C524.463 16.9897 520.545 25.9846 520.545 35.3636C520.545 44.7427 524.463 53.7375 531.436 60.3695C538.409 67.0015 547.866 70.7273 557.727 70.7273H623.911C481.17 208.911 301.005 306.828 103.365 353.636C93.5042 354.668 84.4778 359.383 78.2719 366.745C72.066 374.106 69.1889 383.511 70.2736 392.89C71.3584 402.269 76.316 410.854 84.056 416.756C91.796 422.659 101.684 425.395 111.545 424.364Z" fill="black"/>
</svg>
