<svg width="411" height="407" viewBox="0 0 411 407" fill="none" xmlns="http://www.w3.org/2000/svg">
<path fill-rule="evenodd" clip-rule="evenodd" d="M321.798 172.414C324.161 194.367 316.31 217.433 298.465 240.912C278.777 266.716 247.552 292.382 205.553 317.073C163.554 292.321 132.29 266.715 112.642 240.912C94.7566 217.43 86.9057 194.365 89.3089 172.414C92.1329 146.45 108.136 125.708 130.127 119.576C134.333 118.405 138.578 117.85 142.845 117.85C161.672 117.85 180.839 129.025 196.943 149.807C198.986 152.447 202.23 154.016 205.615 154.016C209 154.016 212.224 152.447 214.287 149.807C234.075 124.301 258.43 113.264 281.101 119.577C302.972 125.71 318.974 146.453 321.798 172.414ZM410.182 202.863C410.182 314.854 318.552 405.665 205.552 405.665C165.356 405.665 128.023 394.232 96.4953 374.521L0 406.519L32.3059 310.844C12.3578 279.482 0.881377 242.443 0.881377 202.802C0.881377 90.8111 92.4904 0 205.552 0C319.013 0 410.182 91.2685 410.182 202.863ZM343.466 170.072C339.68 135.255 317.469 107.27 286.907 98.7327C271.985 94.5643 256.083 95.5369 241.022 101.472C228.304 106.494 216.407 114.89 205.531 126.423C194.656 114.891 182.759 106.494 170.041 101.472C154.96 95.5169 139.077 94.5641 124.156 98.7327C93.5522 107.268 71.3398 135.276 67.5969 170.072C63.2908 209.909 82.7783 271.544 200.086 338.97C201.768 339.982 203.671 340.439 205.573 340.439C207.476 340.439 209.359 339.982 211.061 338.97C328.347 271.559 347.834 209.91 343.466 170.072Z" fill="black"/>
</svg>
