<svg width="697" height="814" viewBox="0 0 697 814" fill="none" xmlns="http://www.w3.org/2000/svg">
<path d="M659.768 205.527C462.438 205.358 91.8122 204.865 38.2579 204.64C38.3118 210.557 38.3118 216.419 38.3657 222.252C245.538 222.421 453.499 223.027 659.822 223.196C659.768 216.891 659.768 210.888 659.768 205.527Z" fill="black"/>
<path d="M659.714 168.922C639.975 167.921 620.29 165.822 600.558 163.779C551.129 181.582 502.712 184.294 450.324 184.569C391.531 184.787 332.739 183.681 274.007 183.681C244.85 183.681 215.64 183.519 186.483 183.681C164.782 183.794 144.308 184.294 123.565 176.714C101.447 167.302 77.687 162.838 53.8172 163.61C48.5791 163.885 43.287 164.216 38.0489 164.603C38.1028 174.612 38.1545 184.623 38.204 194.636C245.43 194.798 453.391 195.411 659.768 195.573C659.714 181.582 659.714 172.346 659.714 168.922Z" fill="black"/>
<path d="M25.348 165.547C16.9346 166.153 8.49426 166.653 0 166.956C0.633699 274.567 3.01344 382.179 4.39544 489.733C5.39767 564.832 6.33249 639.891 7.1999 714.91C7.56394 746.38 11.3796 780.661 8.54819 812.405C14.9998 812.236 21.4581 812.018 27.9165 811.799C28.2872 795.265 29.3928 778.73 29.7636 762.196C29.4601 761.422 29.3 760.595 29.2917 759.758C28.84 561.704 25.8738 363.629 25.348 165.547Z" fill="black"/>
<path d="M523.031 97.8315C528.449 91.1278 532.726 83.5027 535.678 75.2877C531.289 73.7911 527.182 71.5073 523.543 68.5387C515.13 74.7312 503.009 89.441 503.993 99.7266C504.937 108.476 519.909 100.903 523.031 97.8315Z" fill="black"/>
<path d="M66.2013 131.041C57.2554 130.929 48.3162 130.71 39.3702 130.71C31.7879 139.773 22.8744 147.518 12.9639 153.655C25.7727 152.881 38.6826 151.718 51.5925 151.169C55.6334 143.845 60.5417 137.082 66.2013 131.041Z" fill="black"/>
<path d="M513.188 25.6986C494.878 50.3065 481.544 106.159 500.966 118.375C501.175 116.55 501.337 114.782 501.445 113.126C498.572 111.675 496.177 109.365 494.562 106.49C486.472 92.2167 504.141 69.4898 516.208 59.8171C512.318 52.5726 510.67 44.2471 511.489 35.9841C511.755 32.5087 512.323 29.0659 513.188 25.6986Z" fill="black"/>
<path d="M39.532 62.304C40.5622 62.3106 41.5805 62.534 42.5262 62.9608C43.472 63.3876 44.3258 64.0091 45.0367 64.7882C45.7477 65.5673 46.3012 66.4881 46.6642 67.4955C47.0273 68.503 47.1925 69.5766 47.1499 70.6522C47.096 85.7495 46.6713 101.178 45.8016 116.219C45.7477 116.663 45.6398 117.106 45.5859 117.494L68.2912 117.825C67.6507 106.708 68.4462 95.5912 68.5541 84.425C68.5927 84.0322 68.6626 83.6433 68.7631 83.2626C68.6933 82.3806 68.8011 81.4932 69.0793 80.6573C69.3575 79.8215 69.8001 79.0557 70.3786 78.4094C70.9571 77.7631 71.6587 77.2505 72.4382 76.9045C73.2176 76.5586 74.0578 76.387 74.9046 76.4009C146.87 76.2952 211.696 38.4146 282.866 28.9604C318.304 23.2711 354.381 23.4756 389.759 29.5662C423.095 36.1462 457.706 33.0887 490.092 44.2197C493.02 35.0427 497.151 26.3344 502.368 18.3437C462.971 5.01466 422.172 3.79589 380.86 4.73991C339.791 5.73324 298.573 4.90194 257.558 7.88899C213.267 11.1508 165.753 15.1875 124.636 33.9904C111.034 40.774 96.7689 46.0011 82.091 49.5808C68.062 52.5679 53.352 49.3624 39.0129 49.0313C38.468 52.9116 38.2425 56.8336 38.3388 60.7541C38.3408 61.2941 38.2866 61.8326 38.177 62.3603C38.2944 62.4102 38.4216 62.4296 38.5478 62.4167C38.8444 62.4167 39.1612 62.304 39.532 62.304Z" fill="black"/>
<path d="M237.529 311.102C237.145 311.102 236.707 311.046 236.235 311.004C235.228 310.753 234.184 310.714 233.162 310.891C232.141 311.067 231.164 311.455 230.289 312.032C229.91 312.404 229.611 312.855 229.412 313.357C229.213 313.859 229.119 314.399 229.136 314.942C229.096 317.055 229.237 319.077 229.372 321.127L229.568 324.023H231.138C235.635 324.023 240.354 323.818 246.448 323.361L247.965 323.269L248.012 321.684C248.268 313.209 244.372 311.391 237.529 311.102Z" fill="black"/>
<path d="M573.356 64.2906C584.628 63.1353 618.389 63.0789 616.535 43.8604C613.623 13.7222 587.695 -0.325395 563.992 0.00571599C539.804 0.336827 517.901 15.5468 524.891 43.9167C531.019 68.9966 553.934 66.228 573.356 64.2906ZM584.628 28.0163C585.054 26.5586 585.999 25.3274 587.269 24.5764C588.538 23.8254 590.035 23.6118 591.45 23.9796C592.83 24.1042 594.147 24.6395 595.245 25.5223C596.343 26.405 597.176 27.5982 597.645 28.9604C597.912 30.5588 597.667 32.2043 596.949 33.643C596.232 35.0817 595.081 36.2337 593.675 36.9211C592.935 37.4171 592.089 37.7117 591.213 37.7779C590.337 37.8441 589.458 37.6798 588.659 37.3001C587.859 36.9204 587.163 36.3373 586.634 35.604C586.105 34.8708 585.761 34.0109 585.632 33.1028C585.114 32.3862 584.754 31.5579 584.581 30.678C584.407 29.7982 584.423 28.8889 584.628 28.0163ZM533.891 32.3137C533.766 31.2792 533.935 30.2289 534.377 29.2942C534.82 28.3595 535.516 27.5817 536.379 27.0582C537.215 26.4088 538.183 25.9705 539.208 25.7779C540.233 25.5852 541.287 25.6434 542.287 25.9478C543.287 26.2522 544.206 26.7946 544.971 27.5324C545.737 28.2702 546.329 29.1834 546.7 30.2003C547.327 31.3707 547.582 32.7187 547.43 34.0503C547.277 35.382 546.724 36.6288 545.851 37.6115C544.451 38.819 542.773 39.6208 540.983 39.9363C541.037 40.042 541.091 40.1547 541.145 40.1547H538.233C539.153 40.1453 540.072 40.0724 540.983 39.9363C540.929 39.7109 540.822 39.5489 540.774 39.5489C539.832 39.7097 538.867 39.6333 537.958 39.3259C537.05 39.0185 536.225 38.489 535.552 37.7815C534.879 37.0739 534.377 36.2087 534.088 35.2577C533.799 34.3067 533.732 33.2974 533.891 32.3137Z" fill="black"/>
<path d="M242.659 288.305C242.659 285.1 241.824 284.24 238.446 283.958C237.947 283.916 237.435 283.86 236.916 283.796C235.186 283.53 233.43 283.492 231.691 283.684C229.669 283.958 228.954 285.987 228.617 287.911L207.294 287.953C203.566 287.29 199.733 287.828 196.305 289.496C195.03 290.514 194.188 292.014 193.959 293.673C193.845 294.432 193.77 295.196 193.737 295.963V296.322C193.135 296.821 192.715 297.518 192.545 298.3C192.375 299.082 192.465 299.901 192.8 300.622C193.136 301.343 193.697 301.923 194.39 302.266C195.084 302.609 195.869 302.694 196.615 302.508C199.986 301.451 200.229 298.415 200.532 295.287V295.174C200.963 295.139 201.523 295.012 201.793 295.012C203.876 294.977 205.959 295.012 208.035 295.012L228.26 294.97C228.26 297.393 228.361 299.802 228.475 302.155L228.637 305.319L230.478 305.023C232.562 304.738 234.666 304.634 236.767 304.713H237.442C238.57 304.756 239.695 304.862 240.812 305.03L242.713 305.319V303.304C242.761 298.936 242.815 294.413 242.653 289.918C242.659 289.263 242.659 288.749 242.659 288.305Z" fill="black"/>
<path d="M220.81 329.856L219.111 329.701L218.983 331.476C218.397 339.465 218.087 348.004 218.026 357.592V359.269L219.631 359.36C229.648 359.917 240.462 360.191 252.664 360.191H254.12L254.363 358.74C255.085 355.345 256.189 352.051 257.653 348.927L258.563 347.243C258.738 346.832 259.007 346.474 259.347 346.198C259.687 345.923 260.087 345.74 260.511 345.665L261.859 345.362L261.826 343.897C261.724 339.782 261.583 335.717 261.441 331.61L261.34 328.722L259.641 328.799C256.021 328.968 252.455 329.208 248.916 329.454C239.571 330.352 230.174 330.487 220.81 329.856Z" fill="black"/>
<path d="M253.675 315.52L253.918 317.344C254.065 318.528 254.132 319.722 254.12 320.916V322.853L255.954 322.67C257.12 322.557 258.259 322.501 259.405 322.438L262.816 322.233L262.21 314.681L253.675 315.52Z" fill="black"/>
<path d="M331.263 425.42C331.842 419.453 332.159 412.204 333.218 405.187H325.128C324.336 426.192 321.302 447.038 316.081 467.338C315.729 468.774 314.893 470.029 313.726 470.873C312.56 471.717 311.141 472.093 309.73 471.931C309.375 472.082 309 472.174 308.618 472.206C278.828 472.375 248.929 474.143 219.138 473.312C206.438 472.981 197.384 473.093 195.375 458.517C193.352 444.526 194.95 430.204 193.103 416.163C192.911 417.359 192.627 418.537 192.253 419.686C188.128 431.521 178.656 432.515 167.91 433.452C167.809 437.052 167.701 440.532 167.701 443.85C167.658 444.323 167.588 444.794 167.492 445.259C167.67 446.029 167.694 446.828 167.564 447.608C167.433 448.388 167.151 449.132 166.733 449.793C166.316 450.453 165.773 451.017 165.138 451.449C164.503 451.881 163.79 452.172 163.043 452.304C145.05 456.341 126.052 460.652 108.066 454.417C106.597 453.929 105.35 452.895 104.562 451.511C103.773 450.128 103.497 448.49 103.785 446.907C103.785 446.795 103.731 446.738 103.731 446.633C103.569 434.959 101.452 422.356 100.03 409.802C86.055 407.59 72.0327 411.514 58.0643 412.07C57.7633 412.912 57.305 413.684 56.716 414.339C50.3864 420.471 44.7334 427.323 39.8624 434.769C39.9657 447.92 40.0713 461.044 40.1792 474.143C139.98 474.251 239.781 474.528 339.582 474.974C330.204 459.849 329.301 444.97 331.263 425.42Z" fill="black"/>
<path d="M58.0509 331.772C58.5767 354.112 61.1182 376.345 61.6508 398.629C65.8305 398.41 69.9024 397.966 74.0282 397.522V266.91H56.4599C58.0691 288.487 58.6002 310.137 58.0509 331.772Z" fill="black"/>
<path d="M486.89 330.06C464.825 330.335 442.706 330.723 420.634 330.229C402.486 329.786 384.231 327.186 366.5 331.941C361.699 344.891 359.173 358.64 359.044 372.527C366.738 369.889 374.818 368.696 382.909 369.005C416.401 369.174 449.65 372.654 483.236 372.654C520.071 372.654 560.176 367.236 596.85 371.766C607.127 372.551 617.116 375.677 626.115 380.925C625.852 378.381 625.582 375.895 625.265 373.351C625.157 372.384 625.249 371.404 625.535 370.477C604.63 313.857 534.99 329.504 486.89 330.06Z" fill="black"/>
<path d="M626.324 266.91C626.324 289.031 626.432 317.675 627.672 342.889C627.685 343.876 627.579 344.861 627.355 345.82C632.146 352.787 635.867 360.493 638.384 368.659C639.058 368.991 639.733 369.103 640.407 369.491C638.553 335.534 639.881 300.091 640.036 266.91H626.324Z" fill="black"/>
<path d="M401.273 416.551C426.891 416.882 452.387 414.945 478.052 415.332C512.501 415.825 547.057 416.931 581.506 416.163C597.484 415.776 627.598 421.912 627.227 397.029C627.173 395.31 627.011 393.598 626.957 391.936C623.31 372.365 570.073 377.67 557.743 378.388C529.752 379.938 501.546 379.445 473.474 379.445C451.564 379.445 430.403 378.945 408.702 377.008C399.938 376.303 370.815 371.921 358.539 380.051C357.298 407.146 378.885 416.262 401.273 416.551Z" fill="black"/>
<path d="M307.87 38.9641C307.816 63.3537 307.553 87.6868 307.499 112.069C312.582 112.069 317.658 112.02 322.741 112.02V38.0483C317.766 38.2456 312.845 38.5767 307.87 38.9641Z" fill="black"/>
<path d="M179.863 69.5462V111.633L196.851 111.964C195.987 96.0695 195.969 80.1375 196.797 64.2413L179.863 69.5462Z" fill="black"/>
<path d="M259.243 46.5515C253.999 47.7633 248.761 48.982 243.576 50.3628C243.63 70.9904 245.43 91.6179 245.693 112.302C250.244 112.245 254.74 112.189 259.243 112.189V46.5515Z" fill="black"/>
<path d="M66.7811 151C82.6664 150.889 98.4641 153.468 113.56 158.636C136.798 168.121 161.535 172.961 186.483 172.902H264.266C322.795 172.902 381.323 172.792 439.848 172.571C480.39 173.489 520.909 169.854 560.709 161.729C546.633 162.06 532.664 162.116 518.959 161.511C499.962 160.679 498.269 146.801 499.409 132.204C494.68 130.284 490.403 127.321 486.87 123.517C486.828 123.522 486.79 123.542 486.762 123.574C417.439 130.71 345.528 124.983 275.888 125.286C240.543 125.455 205.244 125.455 169.899 124.68C150.723 123.869 131.518 124.165 112.374 125.567C89.9583 127.723 77.9989 134.134 66.7811 151Z" fill="black"/>
<path d="M624.227 63.1846C634.656 69.8209 646.932 76.901 652.224 88.4618C653.283 90.7302 654.179 95.5067 654.813 95.5067H654.975C659.851 96.206 664.815 95.3361 669.206 93.0128C669.599 92.8532 670.009 92.7421 670.426 92.6817C679.366 77.8873 661.379 58.7885 653.121 47.1715C645.874 36.9422 636.187 23.1201 623.384 21.5139C627.522 30.6354 629.449 40.681 628.993 50.7644C628.813 55.3527 627.13 59.7371 624.227 63.1846Z" fill="black"/>
<path d="M132.241 82.6497C126.398 83.9836 120.524 85.1577 114.619 86.1722C114.086 94.8515 115.414 103.482 115.623 112.161C121.178 111.886 126.686 111.611 132.241 111.499V82.6497Z" fill="black"/>
<path d="M638.229 109.195C652.305 107.871 640.926 90.3428 635.27 85.362C628.834 80.0679 622.044 75.2627 614.951 70.9833C614.78 70.8703 614.62 70.7406 614.472 70.5958C611.057 72.1721 607.515 73.431 603.888 74.3578C608.23 90.1737 620.769 110.858 638.229 109.195Z" fill="black"/>
<path d="M634.953 121.305V121.143C626.89 120.746 619.262 117.204 613.576 111.217C603.704 101.911 596.564 89.8663 592.987 76.4854C583.677 77.8169 574.623 78.148 568.489 78.6975C565.522 78.9793 562.563 79.085 559.597 79.085C555.281 79.0918 550.97 78.7645 546.7 78.1057C540.134 91.3784 535.374 105.532 521.669 112.168C518.742 113.588 515.614 114.504 512.406 114.88C511.058 128.428 505.53 150.598 523.867 150.105C534.082 149.776 544.296 149.389 554.507 148.942C579.005 147.836 604.09 147.949 628.535 146.456C632.599 138.742 634.802 130.109 634.953 121.305Z" fill="black"/>
<path d="M665.539 137.509C665.117 137.342 664.709 137.139 664.319 136.903C657.334 132.422 651.989 125.729 645.267 120.918C645.267 121.087 645.375 121.143 645.375 121.305C645.361 132.673 642.518 143.841 637.124 153.712C637.016 153.825 636.962 153.93 636.854 154.043C653.31 155.452 669.719 156.424 686.228 156.199C679.19 150.175 672.361 143.814 665.539 137.509Z" fill="black"/>
<path d="M390.264 44.2901C390.204 43.8866 390.168 43.4796 390.156 43.0713L386.401 42.4091C381.109 41.3594 375.709 40.5281 370.363 39.8659V111.851C376.822 111.851 383.28 111.907 389.785 111.964C390.79 89.3776 394.282 66.6718 390.264 44.2901Z" fill="black"/>
<path d="M455.016 51.2434C455.037 50.7986 455.089 50.356 455.171 49.919C448.187 48.975 441.149 48.3127 434.057 47.7069C434.731 69.3277 434.852 90.8922 434.906 112.52C441.648 112.52 448.349 112.464 455.016 112.245V51.2434Z" fill="black"/>
<path d="M605.479 607.179C610.4 607.285 615.369 607.341 620.31 607.398C616.555 599.155 613.117 591.032 609.942 582.846C609.072 591.068 607.58 599.204 605.479 607.179Z" fill="black"/>
<path d="M229.129 703.216C254.747 698.129 301.782 693.353 315.494 666.498C315.596 633.704 316.229 600.98 315.542 568.179C297.555 578.57 269.558 576.414 252.623 576.309C232.359 591.807 200.08 593.336 176.317 587.75C176.162 587.75 176.054 587.806 175.899 587.806C154.885 588.694 138.146 600.585 122.027 613.414C116.719 617.884 110.542 621.091 103.927 622.812C104.048 623.21 104.138 623.618 104.196 624.031C105.596 640.291 105.648 656.646 104.351 672.916C136.144 699.017 190.076 711.014 229.129 703.216Z" fill="black"/>
<path d="M301.202 539.034C280.151 531.123 258.008 526.84 235.642 526.353C212.99 525.684 190.292 527.058 167.64 526.459C155.789 526.128 136.791 523.641 125.729 531.714C143.984 535.807 162.564 544.099 179.863 540.288C194.101 537.132 207.172 533.947 221.404 538.625C233.734 542.718 242.572 556.104 253.473 563.015C263.313 563.51 273.173 563.4 283 562.684C294.569 561.43 328.667 549.489 301.202 539.034Z" fill="black"/>
<path d="M393.224 543.402C393.164 543.805 393.13 544.212 393.123 544.62C388.204 563.433 385.933 582.893 386.381 602.389C386.364 602.539 386.328 602.686 386.273 602.826C386.338 603.117 386.375 603.414 386.381 603.713C386.381 604.044 386.435 604.263 386.435 604.601C397.895 605.207 409.133 605.263 421.093 605.305C420.891 604.142 420.767 602.965 420.722 601.783C420.614 601.677 420.567 601.079 420.513 601.008C410.138 582.874 403.949 565.509 393.365 543.388L393.224 543.402Z" fill="black"/>
<path d="M401.428 543.677C409.841 558.471 415.585 574.871 423.23 590.173C430.902 573.307 452.124 568.608 468.526 570.926C472.638 571.161 476.644 572.374 480.239 574.473C483.834 576.571 486.922 579.501 489.269 583.036C492.383 576.53 497.486 571.295 503.77 568.165C506.018 567.096 508.334 566.19 510.701 565.452C510.587 557.705 512.509 550.074 516.256 543.388H459.371C441.169 543.402 419.96 540.084 401.428 543.677Z" fill="black"/>
<path d="M432.493 610.145C442.753 625.08 474.351 630.942 483.822 614.133C483.945 613.934 484.085 613.748 484.24 613.576C484.915 598.923 487.045 581.874 468.735 579.239C457.409 577.689 438.466 579.127 431.9 590.68C430.488 592.908 429.608 595.456 429.332 598.112C429.057 600.768 429.394 603.455 430.315 605.947C431.045 606.33 431.645 606.938 432.035 607.689C432.424 608.439 432.584 609.297 432.493 610.145Z" fill="black"/>
<path d="M500.116 622.368C513.822 633.704 533.932 624.482 542.878 609.814C542.435 609.114 542.246 608.273 542.345 607.44C544.037 590.131 510.964 584.657 499.112 584.896C498.826 584.875 498.544 584.82 498.269 584.734C495.55 588.975 493.694 593.754 492.815 598.775C492.869 601.713 492.762 604.693 492.553 607.736C492.808 610.581 493.61 613.342 494.91 615.856C496.209 618.37 497.98 620.585 500.116 622.368Z" fill="black"/>
<path d="M547.428 595.443C547.501 594.188 547.465 592.929 547.32 591.681C544.875 584.737 540.347 578.805 534.41 574.773C529.799 572.559 524.731 571.586 519.668 571.943C514.604 572.299 509.707 573.975 505.422 576.816C519.33 577.964 539.911 583.325 547.428 595.443Z" fill="black"/>
<path d="M612.463 428.379C557.325 430.817 502.233 427.217 447.095 428.379C415.187 429.049 374.388 437.615 351.319 408.139C349.524 405.799 348.11 403.167 347.132 400.348C345.002 409.384 343.831 418.638 343.64 427.943C341.739 445.801 342.851 459.567 354.426 473.735C354.775 474.116 355.076 474.542 355.323 475.003C454.917 475.388 554.543 475.684 654.2 475.89C654.345 475.873 654.488 475.835 654.624 475.778C658.363 470.294 660.685 463.896 661.366 457.2V429.986C656.074 412.563 650.89 395.698 639.793 385.525C641.081 406.04 637.225 427.273 612.463 428.379Z" fill="black"/>
<path d="M538.219 546.001C537.749 545.882 537.295 545.697 536.871 545.452C534.63 544.932 532.336 544.707 530.042 544.783C520.098 545.395 519.256 555.681 518.77 563.804C524.658 562.982 530.648 563.882 536.076 566.403C543.118 570.27 548.788 576.393 552.255 583.875C552.835 584.058 553.358 584.401 553.767 584.869C554.177 585.336 554.458 585.91 554.581 586.531C554.797 587.58 555.006 588.644 555.167 589.68C555.456 590.356 555.548 591.106 555.43 591.836C555.87 596.813 555.275 601.831 553.684 606.545C558.815 606.489 563.952 606.489 569.028 606.545C573.794 587.912 581.412 567.728 561.356 556.449C555.253 552.711 548.862 549.511 542.251 546.882C540.916 546.593 539.541 546.332 538.219 546.001Z" fill="black"/>
<path d="M39.6871 253.806C246.805 254.024 455.036 254.511 661.406 254.743V233.179C460.322 233.009 93.2953 232.516 39.2152 232.291C39.2624 239.484 39.6871 246.67 39.6871 253.806Z" fill="black"/>
<path d="M696.071 715.108C696.125 640.281 696.125 565.424 696.071 490.537C696.017 383.426 695.929 276.312 695.808 169.197C687.975 169.528 680.141 169.584 672.361 169.415C672.361 199.166 672.307 229.085 672.361 258.998C672.821 260.55 672.802 262.213 672.307 263.754C672.361 318.112 672.206 372.583 672.307 427.196C672.974 437.603 672.868 448.049 671.99 458.44V481.942C671.99 482.379 672.415 482.822 672.361 483.266C672.523 573.624 672.995 664.201 673.035 754.672C673.73 755.844 674.148 757.172 674.256 758.547C674.493 759.314 674.618 760.114 674.626 760.921C674.781 778.399 676.211 795.871 675.631 813.342C682.433 814.136 689.295 814.212 696.112 813.567C698.134 781.02 696.071 747.564 696.071 715.108Z" fill="black"/>
<path d="M76.8191 580.409C74.0686 593.463 66.5586 618.733 76.9809 630.512C79.1872 623.648 83.479 617.726 89.2032 613.647C99.8952 608.715 108.888 607.229 118.731 599.155C134.854 584.889 154.858 576.276 175.919 574.533C176.308 574.54 176.695 574.578 177.078 574.646C177.701 574.592 178.328 574.649 178.932 574.815C196.393 579.042 222.961 579.183 239.997 569.341C235.237 565.41 230.842 561.155 225.873 557.175C209.309 543.733 193.008 551.588 175.386 554.3C158.398 556.949 143.587 548.544 127.448 545.395C98.1626 539.64 83.028 551.2 76.8191 580.409Z" fill="black"/>
<path d="M41.3252 499.885C247.918 499.603 455.036 498.335 661.406 498.061V489.212C455.036 488.881 247.547 487.662 40.9073 487.388C40.9545 491.53 41.2781 495.736 41.3252 499.885Z" fill="black"/>
<path d="M42.2286 746.789C145.151 752.425 249.765 748.064 352.795 748.67C455.083 749.282 555.572 745.077 661.406 750.494V738.053C455.036 738.335 248.761 739.603 42.5387 739.878C42.5455 742.202 42.2286 744.555 42.2286 746.789Z" fill="black"/>
<path d="M597.43 606.996C599.98 598.587 601.631 589.909 602.351 581.12C602.142 569.285 593.783 563.698 584.311 559.443C580.819 557.837 577.219 556.456 573.619 555.181C578.295 559.268 581.42 564.967 582.43 571.25C584.452 582.924 580.259 595.365 577.246 606.644L597.43 606.996Z" fill="black"/>
<path d="M112.502 377.233C111.468 388.174 111.922 399.213 113.85 410.02C115.016 420.968 115.967 431.923 116.284 442.983C129.214 445.074 142.423 444.243 155.02 440.546C155.337 420.419 158.034 396.867 154.542 375.845C146.713 374.855 138.832 374.384 130.946 374.436C124.669 373.451 118.253 374.424 112.502 377.233Z" fill="black"/>
<path d="M263.066 351.843L262.634 352.815C261.875 354.449 261.228 356.137 260.7 357.867L260.026 360.156H262.318C268.345 360.1 274.349 360.032 280.331 359.952L298.331 359.748L298.169 357.846C297.868 355.785 297.249 353.788 296.335 351.935L295.89 350.871H294.778C284.369 350.984 273.879 351.385 264.084 351.808L263.066 351.843Z" fill="black"/>
<path d="M146.789 348.807C142.499 348.554 138.199 349.001 134.041 350.131C129.908 351.681 129.807 355.387 130.178 360.917H130.967C140.752 360.723 150.533 361.501 160.177 363.242C161.574 363.092 162.972 363.508 164.085 364.403C165.197 365.298 165.939 366.604 166.157 368.054C168.988 385.264 169.754 402.777 168.436 420.186C173.04 420.073 180.024 420.292 180.132 414.099C180.233 406.582 180.078 399.002 179.761 391.485C179.017 379.256 179.069 366.988 179.917 354.767C169.483 350.063 158.127 348.02 146.789 348.807Z" fill="black"/>
<path d="M269.625 336.196C269.625 338.958 269.679 341.128 269.841 343.46L269.962 345.172L271.601 345.087C276.144 344.869 280.675 344.763 285.218 344.65L286.789 344.502L286.863 342.868C286.971 340.649 287.072 338.486 287.018 336.323V334.823L285.596 334.618C280.795 333.839 275.911 333.785 271.095 334.456L269.659 334.682L269.625 336.196Z" fill="black"/>
<path d="M316.33 355.478C316.438 353.365 316.6 351.188 316.762 349.061C317.847 334.78 318.966 320.021 301.931 315.47L301.519 315.358L301.108 315.47C300.785 315.562 300.491 315.74 300.254 315.987C300.018 316.234 299.847 316.542 299.76 316.879C299.086 316.879 298.412 316.879 297.737 316.879H296.113L296.052 318.577C295.944 321.881 295.742 325.157 295.54 328.44C295.257 333.005 294.967 337.718 294.94 342.41V344.185H296.638C297.036 344.177 297.429 344.103 297.805 343.967C298.454 343.89 299.111 344.023 299.686 344.347C300.973 344.904 301.108 345.052 301.169 345.503C301.169 345.616 303.279 357.127 306.056 357.127H316.229L316.33 355.478Z" fill="black"/>
<path d="M232.547 397.1C233.221 397.1 233.97 397.1 234.678 397.015L238.446 396.762C241.54 396.536 244.621 396.318 247.945 396.233C254.949 396.022 261.906 395.804 268.884 395.747C271.5 395.691 274.061 395.691 276.299 395.747C277.27 396.001 280.243 396.762 281.592 394.733C282.724 393.014 282.063 390.506 279.367 386.406L278.868 385.652H277.998C272.956 385.567 267.886 385.842 262.938 386.11C256.999 386.448 250.904 386.525 244.783 386.68C240.978 386.843 237.168 386.779 233.37 386.49L232.426 386.384C229.729 386.089 227.815 385.87 226.359 387.244C225.784 387.965 225.36 388.804 225.113 389.707C224.867 390.609 224.805 391.556 224.929 392.485L225.017 393C226.116 396.346 229.21 397.1 232.547 397.1Z" fill="black"/>
<path d="M206.93 437.559C207.354 456.418 209.626 460.103 226.723 459.905C235.487 459.793 244.25 460.011 253.014 459.849C270.374 459.624 287.679 459.144 304.978 458.961C311.515 429.111 314.683 398.562 314.416 367.941C276.313 367.61 236.309 370.097 198.462 365.729C198.526 374.458 199.502 383.154 201.375 391.661C204.622 406.74 206.482 422.11 206.93 437.559ZM217.568 383.426C217.684 382.75 217.951 382.112 218.347 381.564C218.743 381.016 219.256 380.572 219.846 380.269C220.537 379.502 221.374 378.895 222.302 378.486C223.231 378.077 224.232 377.876 225.239 377.895C235.931 377.614 246.725 379.001 257.464 378.388C270.38 377.726 296.2 372.753 293.982 394.592C293.308 401.89 285.724 404.215 279.69 404.053C266.459 403.538 253.21 403.773 240.003 404.758C222.941 406.315 213.786 402.447 217.595 383.426H217.568Z" fill="black"/>
<path d="M549.808 615.288C545.516 621.451 539.898 626.473 533.406 629.949C520.071 636.691 500.703 638.79 491.015 624.193C490.282 623.122 489.628 621.994 489.06 620.818C474.903 640.121 436.774 633.041 424.497 613.907C411.378 613.907 399.203 613.745 386.745 613.132C388.496 643.336 393.792 673.2 402.513 702.053C438.129 708.084 474.27 704.103 510.148 704.103C543.221 704.103 576.295 703.272 609.362 702.828C615.241 674.022 619.946 645.095 623.708 615.957C599.102 615.788 574.441 615.253 549.835 615.253L549.808 615.288Z" fill="black"/>
<path d="M622.993 579.704C626.27 588.609 629.735 597.514 633.84 606.137C633.948 606.362 633.996 606.637 634.103 606.841C634.366 607.01 634.683 607.179 634.953 607.341V511.368C631.191 511.368 627.436 511.368 623.681 511.425C624.793 533.738 624.633 556.1 623.202 578.394C623.162 578.835 623.092 579.273 622.993 579.704Z" fill="black"/>
<path d="M211.858 358.909V357C211.905 348.68 212.087 337.725 213.105 326.834C213.224 326.081 213.547 325.379 214.035 324.812C214.37 324.192 214.876 323.693 215.487 323.38C216.099 323.067 216.786 322.954 217.46 323.058C218.808 323.283 220.096 323.41 221.41 323.523L223.338 323.692L223.231 321.67C223.231 321.134 223.163 320.592 223.123 320.049L222.927 316.682L221.181 316.858C218.451 317.126 215.64 317.126 212.923 317.126H211.986L211.494 317.957C204.232 329.303 199.452 342.181 197.492 355.676L197.269 357.479L198.995 357.655C202.649 358.05 206.363 358.437 210.071 358.768L211.858 358.909Z" fill="black"/>
<path d="M559.826 540.647L548.089 541.295L559.549 544.113C573.28 547 586.406 552.43 598.306 560.147C598.815 560.502 599.304 560.888 599.769 561.303L605.445 565.995L603.032 559.816C595.407 540.372 576.747 539.71 559.826 540.647Z" fill="black"/>
<path d="M660.301 674.74C656.067 664.729 650.242 655.162 646.912 644.877C645.058 639.241 642.834 624.447 636.908 621.762C636.496 621.746 636.088 621.672 635.694 621.544C631.649 651.4 626.93 681.095 620.769 710.627C620.587 711.839 620.024 712.952 619.17 713.793C618.316 714.633 617.218 715.153 616.05 715.27C615.211 715.703 614.289 715.93 613.353 715.932C575.729 716.376 538.105 716.932 500.427 717.341C466.348 717.672 432.486 720.546 398.671 714.798C398.563 714.798 398.509 714.741 398.455 714.741C396.97 714.984 395.451 714.651 394.185 713.805C392.918 712.959 391.992 711.658 391.579 710.148C382.052 679.485 376.205 647.704 374.172 615.535C358.93 615.697 343.741 616.641 328.553 616.803C328.452 633.506 328.236 650.203 328.182 666.906C328.143 667.352 328.074 667.795 327.973 668.231C328.035 669.411 327.817 670.59 327.339 671.662C311.942 706.224 253.257 714.241 221.714 717.728C179.593 722.371 128.155 709.76 94.6638 681.799C94.4896 681.628 94.3295 681.442 94.1852 681.243C93.241 680.729 92.4738 679.92 91.9904 678.928C91.5071 677.937 91.3316 676.813 91.4886 675.712C92.7386 660.557 92.8806 645.324 91.9133 630.146C89.2639 633.964 87.5179 638.72 85.246 642.644C84.5612 643.857 83.5213 644.808 82.2797 645.356C81.3382 646.085 80.222 646.527 79.0548 646.634C77.8876 646.741 76.7149 646.508 75.6663 645.962C71.058 643.573 67.1884 639.873 64.5024 635.289C62.3856 637.557 60.2688 639.88 58.152 642.256V642.961C58.152 645.342 56.1295 646.666 53.8644 646.997C50.0015 651.422 46.1387 655.958 42.4039 660.545C42.1375 660.837 41.8561 661.115 41.5612 661.376C41.6691 683.168 41.7747 704.918 41.8781 726.626C248.039 726.351 454.207 725.083 660.368 724.801C660.301 708.802 660.301 692.05 660.301 674.74Z" fill="black"/>
<path d="M58.1587 515.75V609.765H58.2059C58.2397 588.172 64.3697 567.07 75.8281 549.101C75.7227 548.722 75.6527 548.332 75.6191 547.939C74.5068 537.241 74.5068 526.448 75.6191 515.75H58.1587Z" fill="black"/>
<path d="M300.353 279.288C297.576 279.122 294.791 279.122 292.014 279.288C289.155 279.365 286.304 279.52 283.452 279.71C282.801 279.473 282.099 279.438 281.43 279.612C278.182 279.164 274.894 279.14 271.641 279.541L270.104 279.682V281.295C270.086 282.124 270.127 282.953 270.225 283.775C270.34 284.754 270.556 286.593 272.012 286.875C272.632 287.032 273.268 287.11 273.906 287.107C275.273 287.052 276.63 286.837 277.951 286.466C278.025 286.466 278.099 286.466 278.18 286.466C277.924 286.954 277.766 287.491 277.715 288.044C277.189 294.829 278.153 301.564 277.958 308.334C276.61 308.292 275.201 308.242 273.832 308.334L272.585 308.425L272.309 309.708C271.717 313.307 271.687 316.983 272.221 320.592C272.389 322.381 272.565 324.185 272.585 325.981V327.813L274.344 327.728C277.419 327.56 280.502 327.63 283.567 327.94L285.461 328.144L285.333 322.903C285.135 318.858 285.18 314.804 285.468 310.764L285.616 309.102L284.672 308.954C284.956 301.972 283.904 295.033 284.45 288.044C284.478 287.593 284.402 287.141 284.227 286.727C288.589 286.445 292.991 286.248 297.326 286.241C299.152 286.058 300.993 286.298 302.719 286.945C302.719 286.945 303.623 287.544 303.259 287.255C303.446 287.423 303.624 287.602 303.791 287.791C304.074 288.108 304.122 288.171 303.946 287.981C304.082 288.193 304.204 288.414 304.31 288.643C304.189 288.376 304.202 288.446 304.31 288.848C304.31 288.516 304.31 288.566 304.31 289.003C304.398 288.686 304.384 288.742 304.31 289.172C304.193 289.618 304.16 290.083 304.215 290.542C304.269 291.001 304.41 291.445 304.628 291.847C304.846 292.249 305.139 292.603 305.488 292.887C305.837 293.172 306.236 293.381 306.663 293.504C307.09 293.627 307.535 293.661 307.975 293.604C308.414 293.547 308.838 293.401 309.223 293.172C309.608 292.944 309.947 292.639 310.219 292.274C310.491 291.909 310.691 291.491 310.809 291.046C311.135 289.553 311.088 287.998 310.671 286.531C310.254 285.064 309.482 283.734 308.429 282.669C306.209 280.572 303.345 279.373 300.353 279.288Z" fill="black"/>
</svg>
