<svg width="669" height="823" viewBox="0 0 669 823" fill="none" xmlns="http://www.w3.org/2000/svg">
<path d="M448.685 503.157C469.87 500.843 490.076 494.44 507.716 484.488C507.763 487.42 507.017 490.313 505.57 492.974C500.157 498.22 493.203 502.271 485.364 504.739C467.911 510.371 454.098 521.789 447.285 536.214C444.345 542.618 439.538 548.288 433.285 552.724C425.632 554.961 417.419 555.655 409.392 554.691C400.106 553.881 390.679 554.305 381.58 555.964C373.086 558.356 365.06 561.673 357.687 565.839C351.06 570.159 343.268 573.013 334.961 574.132C326.655 573.013 318.861 570.159 312.282 565.839C304.909 561.634 296.882 558.317 288.389 555.964C279.196 554.305 269.77 553.881 260.437 554.691C252.411 555.694 244.197 555.077 236.545 552.917C230.151 548.442 225.251 542.695 222.312 536.215C220.398 533.168 218.485 530.082 216.338 527.112L448.685 503.157ZM453.211 295.79C451.065 292.82 449.151 289.772 447.238 286.687H447.285C444.345 280.245 439.445 274.497 433.052 270.1C425.399 267.863 417.186 267.207 409.159 268.21C399.826 269.02 390.4 268.596 381.207 266.937C372.714 264.623 364.641 261.306 357.314 257.063C350.734 252.742 342.895 249.888 334.635 248.769C326.329 249.888 318.488 252.742 311.91 257.063C304.583 261.306 296.509 264.623 288.017 266.937C278.87 268.596 269.49 269.02 260.204 268.21C252.131 267.284 243.964 267.94 236.312 270.216C230.012 274.652 225.205 280.322 222.312 286.687C218.298 293.707 213.025 300.149 206.679 305.857C199.772 310.91 191.979 315.115 183.626 318.278C175.786 320.708 168.879 324.758 163.559 330.042C161.973 332.665 161.179 335.597 161.273 338.528C178.866 328.577 199.119 322.212 220.305 319.975L453.211 295.79ZM159.593 364.912C158.613 366.147 157.306 367.188 155.767 367.96C134.254 385.548 121.934 409.387 121.374 434.421V516.079L445.694 482.598C469.587 479.86 491.847 471.026 509.393 457.333C510.373 456.06 511.679 454.98 513.219 454.17C534.732 436.62 547.098 412.781 547.612 387.824V306.551L223.291 340.032C199.398 342.732 177.139 351.604 159.593 365.297V364.912ZM0.00138994 818.139L40.7409 802.131C42.4208 801.552 44.1942 801.244 46.0142 801.244C47.8341 801.244 49.6074 801.591 51.2407 802.247L103.786 822.999L156.844 802.169V802.131C160.158 800.819 164.078 800.819 167.391 802.131L219.843 822.883L272.387 802.131C275.701 800.819 279.574 800.819 282.887 802.131L334.499 822.883L387.044 802.247C390.357 800.897 394.277 800.897 397.591 802.247L450.136 823L502.587 802.247C505.947 800.859 509.867 800.859 513.227 802.247L565.679 822.883L617.665 802.247H617.618C620.978 800.859 624.898 800.859 628.258 802.247L668.997 818.14V754.764H0L0.00138994 818.139ZM631.619 153.062C624.059 168.761 621.725 185.81 624.899 202.435C637.778 271.635 644.312 341.529 644.405 411.501C644.265 481.395 637.778 551.178 624.899 620.261C621.725 636.886 624.012 653.935 631.479 669.634L663.117 734.706H6.06634L37.4722 670.134H37.5188C45.0786 654.474 47.3653 637.386 44.192 620.761C18.2456 482.289 18.2456 341.339 44.192 202.867C47.3652 186.203 45.1253 169.154 37.6121 153.493L5.97335 88.4214H663.024L631.619 153.062ZM571.887 295.049V295.088C571.887 292.156 570.393 289.379 567.687 287.489C565.073 285.522 561.527 284.596 558.027 285.02L481.589 292.928L481.543 292.889C480.796 292.503 480.096 292.041 479.396 291.539C475.103 287.296 471.509 282.552 468.756 277.498C463.903 267.47 455.596 258.829 444.864 252.619C433.29 248.183 420.364 246.602 407.717 248.068C400.904 248.646 394.045 248.453 387.325 247.489C381.305 245.522 375.612 242.976 370.338 239.89C359.979 233.333 347.518 229.36 334.499 228.512C321.48 229.399 309.067 233.333 298.66 239.89C293.247 243.053 287.32 245.599 281.113 247.489C274.487 248.453 267.72 248.646 261.047 248.068C248.214 246.602 235.147 248.222 223.388 252.735C212.702 258.907 204.443 267.508 199.496 277.499C196.789 282.552 193.196 287.296 188.856 291.539C183.769 295.049 178.123 297.981 172.009 300.218C159.923 304.268 149.423 311.135 141.91 319.968C136.777 329.379 134.91 339.832 136.544 350.093V355.609C111.391 376.708 97.0179 404.982 96.2712 434.606V527.721C96.2712 530.344 97.5312 532.851 99.7712 534.703C102.011 536.554 105.044 537.596 108.218 537.596H109.758L186.195 529.688H186.242C187.035 530.113 187.735 530.614 188.389 531.192C192.729 535.358 196.322 540.064 199.028 545.118C203.928 555.146 212.235 563.787 222.921 569.997C234.541 574.433 247.421 576.014 260.067 574.548C266.834 573.97 273.693 574.163 280.366 575.127C286.62 577.017 292.499 579.563 297.96 582.726C308.32 589.283 320.78 593.256 333.799 594.182C346.818 593.295 359.278 589.322 369.638 582.726C375.098 579.601 380.978 577.056 387.185 575.127C393.858 574.163 400.625 573.97 407.391 574.548C420.177 576.014 433.244 574.394 445.003 569.881C455.69 563.71 463.996 555.108 468.896 545.117C473.423 534.51 483.549 526.139 496.382 522.398C508.515 518.348 518.968 511.482 526.481 502.649C531.661 493.237 533.527 482.784 531.848 472.523V467.007C557.001 445.87 571.373 417.634 572.12 388.01L571.887 295.049ZM627.792 20.8305V20.8691C624.479 22.1805 620.606 22.1805 617.292 20.8691L564.747 0.116528L511.689 20.9461H511.642C508.329 22.2962 504.456 22.2962 501.142 20.9461L448.69 0.193542L396.145 20.9461C392.786 22.3347 388.866 22.3347 385.506 20.9461L334.501 0.116528L281.956 20.7526C278.643 22.1026 274.723 22.1026 271.409 20.7526L218.864 0L166.413 20.7526C163.053 22.1411 159.133 22.1411 155.773 20.7526L102.854 0.116528L50.8681 20.7526H50.9147C47.5548 22.1411 43.5882 22.1411 40.275 20.7526L0.00259759 4.8603V68.2743L669 68.2357V4.86023L627.792 20.8305Z" fill="black"/>
</svg>
