<svg width="808" height="784" viewBox="0 0 808 784" fill="none" xmlns="http://www.w3.org/2000/svg">
<path d="M803.371 3.57969C800.432 0.919473 796.512 -0.340967 792.453 0.0794122C532.757 33.6844 265.349 19.6736 4.76173 3.56784C1.6813 6.23991 0.00163108 10.0197 0.00163108 14.0805V405.411C-0.126534 413.358 7.31849 420.222 15.2606 419.412C273.251 395.89 534.882 395.89 792.733 419.412C800.643 420.143 808.3 413.547 807.991 405.411L807.991 14.0805C807.991 10.0197 806.311 6.23991 803.371 3.57969ZM464.889 238.238L378.939 291.582C357.74 305.96 326.316 288.707 327.285 263.019L327.285 156.191C327.285 143.871 333.724 132.809 344.643 126.789C355.422 120.769 368.58 121.188 378.939 127.629L464.889 181.113C485.894 193.266 485.906 226.17 464.889 238.238Z" fill="black"/>
<path d="M364.101 151.431C360.317 149.128 355.675 151.095 355.281 156.191L355.282 263.019C355.282 265.96 357.101 267.36 358.222 268.06C359.342 268.62 361.581 269.46 364.101 267.92L450.051 214.576C453.883 211.674 453.857 207.733 450.192 204.915L364.101 151.431Z" fill="black"/>
<path d="M120.108 664.151H59.495C40.4574 664.151 25.0594 679.692 25.0594 698.593V784H154.545V698.593C154.545 679.692 139.146 664.151 120.108 664.151Z" fill="black"/>
<path d="M277.451 664.151H216.838C197.94 664.151 182.542 679.692 182.542 698.593V784H311.887V698.593C311.887 679.692 296.489 664.151 277.451 664.151Z" fill="black"/>
<path d="M434.933 664.151H374.18C355.282 664.151 339.884 679.692 339.884 698.593V784H469.229V698.593C469.229 679.692 453.831 664.151 434.933 664.151Z" fill="black"/>
<path d="M592.275 664.151H531.662C512.624 664.151 497.226 679.692 497.226 698.593V784H626.571V698.593C626.571 679.692 611.173 664.151 592.275 664.151Z" fill="black"/>
<path d="M749.618 664.151H689.005C669.967 664.151 654.568 679.692 654.568 698.593V784H784.054V698.593C784.054 679.692 768.656 664.151 749.618 664.151Z" fill="black"/>
<path d="M233.216 636.148V558.722C233.216 535.481 214.038 516.439 190.521 516.439H146.426C122.908 516.439 103.731 535.481 103.731 558.722V636.148H120.108C139.566 636.148 157.065 645.109 168.543 659.25C180.022 645.109 197.38 636.148 216.838 636.148H233.216Z" fill="black"/>
<path d="M390.558 636.148V558.722C390.558 535.481 371.38 516.439 347.863 516.439H303.768C280.25 516.439 261.213 535.481 261.213 558.722V636.148H277.451C297.049 636.148 314.547 645.249 325.885 659.39C337.224 645.249 354.722 636.148 374.18 636.148H390.558Z" fill="black"/>
<path d="M547.9 636.148V558.722C547.9 535.481 528.863 516.439 505.345 516.439H461.25C437.733 516.439 418.555 535.481 418.555 558.722V636.148H434.933C454.391 636.148 471.889 645.249 483.228 659.39C494.566 645.249 512.064 636.148 531.662 636.148H547.9Z" fill="black"/>
<path d="M705.382 636.148V558.722C705.382 535.481 686.205 516.439 662.687 516.439H618.592C595.075 516.439 575.897 535.481 575.897 558.722V636.148H592.275C611.733 636.148 629.091 645.109 640.57 659.25C652.048 645.109 669.547 636.148 689.005 636.148H705.382Z" fill="black"/>
</svg>
