<svg width="492" height="484" viewBox="0 0 492 484" fill="none" xmlns="http://www.w3.org/2000/svg">
<path d="M246 0C110.289 0 0 108.317 0 241.6C0 374.883 110.289 483.2 246 483.2C381.71 483.2 492 374.883 492 241.6C492 108.317 381.71 0 246 0ZM341.324 233.144L224.474 363.406C221.58 366.533 216.862 368.025 211.969 365.621C207.869 363.406 205.614 358.776 206.844 354.346L229.19 263.746H158.465C154.98 263.746 151.699 261.935 149.855 259.116C147.804 256.297 147.599 252.673 149.034 249.452L207.46 122.411C209.099 118.786 212.789 116.37 216.889 116.37H275.11C278.389 116.37 281.259 117.981 283.309 120.397C285.154 122.813 285.974 126.035 285.154 129.054L262.4 216.433H333.739C337.634 216.433 341.324 218.849 342.965 222.473C344.605 226.097 343.989 230.325 341.324 233.144Z" fill="black"/>
</svg>
