<svg width="838" height="743" viewBox="0 0 838 743" fill="none" xmlns="http://www.w3.org/2000/svg">
<path fill-rule="evenodd" clip-rule="evenodd" d="M181.567 53.5379V26.5357C181.567 11.8804 194.072 0 209.5 0C224.928 0 237.433 11.8804 237.433 26.5357V53.0714H600.567V26.5357C600.567 11.8804 613.072 0 628.5 0C643.928 0 656.433 11.8804 656.433 26.5357V53.5379C757.905 60.341 838 140.695 838 238.821V557.25C838 659.837 750.457 743 642.467 743H195.533C87.5432 743 0 659.837 0 557.25V238.821C0 140.695 80.0949 60.341 181.567 53.5379ZM237.433 291.893C237.433 306.549 224.928 318.429 209.5 318.429C194.072 318.429 181.567 306.549 181.567 291.893C181.567 277.237 194.072 265.357 209.5 265.357C224.928 265.357 237.433 277.237 237.433 291.893ZM237.433 411.304C237.433 425.959 224.928 437.839 209.5 437.839C194.072 437.839 181.567 425.959 181.567 411.304C181.567 396.648 194.072 384.768 209.5 384.768C224.928 384.768 237.433 396.648 237.433 411.304ZM209.5 557.25C224.928 557.25 237.433 545.37 237.433 530.714C237.433 516.059 224.928 504.179 209.5 504.179C194.072 504.179 181.567 516.059 181.567 530.714C181.567 545.37 194.072 557.25 209.5 557.25ZM446.933 291.893C446.933 306.549 434.428 318.429 419 318.429C403.572 318.429 391.067 306.549 391.067 291.893C391.067 277.237 403.572 265.357 419 265.357C434.428 265.357 446.933 277.237 446.933 291.893ZM419 437.839C434.428 437.839 446.933 425.959 446.933 411.304C446.933 396.648 434.428 384.768 419 384.768C403.572 384.768 391.067 396.648 391.067 411.304C391.067 425.959 403.572 437.839 419 437.839ZM446.933 530.714C446.933 545.37 434.428 557.25 419 557.25C403.572 557.25 391.067 545.37 391.067 530.714C391.067 516.059 403.572 504.179 419 504.179C434.428 504.179 446.933 516.059 446.933 530.714ZM628.5 318.429C643.928 318.429 656.433 306.549 656.433 291.893C656.433 277.237 643.928 265.357 628.5 265.357C613.072 265.357 600.567 277.237 600.567 291.893C600.567 306.549 613.072 318.429 628.5 318.429ZM656.433 411.304C656.433 425.959 643.928 437.839 628.5 437.839C613.072 437.839 600.567 425.959 600.567 411.304C600.567 396.648 613.072 384.768 628.5 384.768C643.928 384.768 656.433 396.648 656.433 411.304ZM628.5 557.25C643.928 557.25 656.433 545.37 656.433 530.714C656.433 516.059 643.928 504.179 628.5 504.179C613.072 504.179 600.567 516.059 600.567 530.714C600.567 545.37 613.072 557.25 628.5 557.25Z" fill="black"/>
</svg>
