<svg width="824" height="808" viewBox="0 0 824 808" fill="none" xmlns="http://www.w3.org/2000/svg">
<path d="M555.118 259.276C539.808 244.719 522.212 232.459 502.9 223.086C512.225 236.981 520.432 253.06 527.255 270.992C537.053 267.548 546.364 263.629 555.118 259.276Z" fill="black"/>
<path d="M309.281 390.03H397.745V316.529C371.307 315.403 345.746 311.751 321.932 305.785C314.802 331.323 310.336 359.921 309.281 390.03Z" fill="black"/>
<path d="M320.202 495.447C344.543 489.187 370.725 485.325 397.745 484.151V417.97H309.286C310.273 445.45 314.104 471.659 320.202 495.447Z" fill="black"/>
<path d="M330.73 279.207C351.737 284.335 374.321 287.5 397.745 288.553V202.808C393.619 203.088 389.537 203.487 385.483 204.004C363.586 217.023 344.409 243.895 330.73 279.207Z" fill="black"/>
<path d="M266.21 546.181C284.574 564.28 306.411 578.97 330.637 589.245C318.903 572.829 308.83 553.003 300.859 530.533C288.422 535.031 276.812 540.264 266.21 546.181Z" fill="black"/>
<path d="M330.389 218.86C308.364 228.236 288.345 241.282 271.099 257.211C281.023 262.428 291.757 267.012 303.115 271.014C310.641 251.223 319.853 233.676 330.389 218.86Z" fill="black"/>
<path d="M294.427 297.557C278.941 292.165 264.471 285.717 251.284 278.278C225.929 309.378 209.773 347.944 206.817 390.03H280.742C281.789 356.743 286.593 325.519 294.427 297.557Z" fill="black"/>
<path d="M280.751 417.97H206.82C209.613 457.807 224.201 494.523 247.254 524.699C260.974 516.616 276.235 509.589 292.691 503.764C285.909 477.541 281.734 448.637 280.751 417.97Z" fill="black"/>
<path d="M386.005 604.069C389.886 604.543 393.798 604.928 397.745 605.195V512.129C373.488 513.247 350.064 516.657 328.357 522.146C342.244 560.884 362.581 590.397 386.005 604.069Z" fill="black"/>
<path d="M537.707 503.653C552.36 508.857 566.102 514.998 578.668 522.068C600.587 492.392 614.466 456.676 617.18 417.978H549.625C548.644 448.594 544.483 477.466 537.707 503.653Z" fill="black"/>
<path d="M502.672 585.027C524.151 574.639 543.499 560.682 559.963 543.954C550.517 538.974 540.308 534.508 529.488 530.611C522.185 551.153 513.137 569.492 502.672 585.027Z" fill="black"/>
<path d="M411.992 0C184.456 0 0 180.887 0 403.992C0 627.097 184.456 808 411.992 808C639.527 808 824 627.108 824 403.992C824 180.876 639.53 0 411.992 0ZM412 647.644C274.993 647.644 163.526 538.352 163.526 404C163.526 269.648 274.993 160.356 412 160.356C549.006 160.356 660.474 269.648 660.474 404C660.474 538.352 549.006 647.644 412 647.644Z" fill="black"/>
<path d="M446.936 205.237C440.14 204.093 433.238 203.282 426.242 202.805V288.822C451.88 288.082 476.65 284.75 499.609 279.134C486.365 244.964 467.964 218.685 446.936 205.237Z" fill="black"/>
<path d="M535.935 297.535C543.78 325.497 548.581 356.737 549.627 390.03H617.175C614.304 349.018 598.887 311.36 574.644 280.694C562.669 287.099 549.718 292.744 535.935 297.535Z" fill="black"/>
<path d="M426.242 605.192C433.081 604.737 439.835 603.942 446.48 602.846C469.005 588.674 488.524 559.747 501.996 522.186C478.339 516.199 452.679 512.644 426.242 511.863V605.192Z" fill="black"/>
<path d="M508.415 305.715C482.64 312.184 454.874 315.985 426.242 316.766V390.03H521.097C520.034 359.902 515.56 331.275 508.415 305.715Z" fill="black"/>
<path d="M521.089 417.97H426.242V483.919C455.72 484.695 484.066 488.557 510.217 495.25C516.293 471.522 520.105 445.38 521.089 417.97Z" fill="black"/>
</svg>
