<svg width="803" height="796" viewBox="0 0 803 796" fill="none" xmlns="http://www.w3.org/2000/svg">
<path d="M781.11 268.047L666.076 301.978H666.116C647.495 251.576 614.667 207.574 571.575 175.144C528.483 142.714 476.914 123.281 422.999 119.133V0.00504921C502.777 4.3105 579.449 32.1185 643.236 79.8335C707.019 127.589 755.012 193.118 781.11 268.047Z" fill="black"/>
<path d="M598.633 744.571C538.63 778.383 470.785 796.119 401.794 795.999C260.857 796.197 130.106 722.964 57.4474 603.084C-15.2489 483.208 -19.1879 334.249 46.9831 210.692C113.154 87.1748 239.809 7.18957 380.583 0V119.128C282.142 125.646 194.368 182.802 149.161 269.816C103.92 356.834 107.899 460.992 159.586 544.375C211.273 627.758 303.151 678.236 401.785 677.366C445.156 677.445 487.97 667.452 526.77 648.176L573.245 710.626L598.633 744.571Z" fill="black"/>
<path d="M401.794 160.406C338.408 160.406 277.572 185.41 232.763 229.926C187.92 274.402 162.733 334.796 162.733 397.723C162.733 460.649 187.92 521.037 232.763 565.52C277.566 610.035 338.405 635.039 401.794 635.039C465.183 635.039 526.015 610.035 570.825 565.52C615.668 521.043 640.855 460.649 640.855 397.723C640.776 334.799 615.548 274.479 570.745 230.006C525.942 185.53 465.183 160.485 401.794 160.406ZM423.002 318.405C423.002 306.753 432.511 297.352 444.249 297.352C449.86 297.352 455.271 299.564 459.25 303.514C463.23 307.464 465.458 312.836 465.458 318.406V421.102C465.458 432.754 455.948 442.155 444.25 442.155C432.512 442.155 423.002 432.754 423.002 421.102L423.002 318.405ZM338.13 246.476C338.13 234.824 347.64 225.383 359.338 225.383C371.075 225.383 380.585 234.824 380.585 246.476V420.785C380.585 432.437 371.075 441.838 359.338 441.838C347.64 441.838 338.13 432.437 338.13 420.785V246.476ZM254.212 341.986C254.212 330.373 263.682 320.933 275.42 320.933C287.158 320.933 296.628 330.373 296.628 341.986V420.788C296.628 432.44 287.158 441.841 275.42 441.841C263.682 441.841 254.212 432.44 254.212 420.788V341.986ZM527.734 529.692H275.858C264.12 529.692 254.611 520.291 254.611 508.639C254.611 496.987 264.12 487.586 275.858 487.586H527.734C539.471 487.586 548.981 496.987 548.981 508.639C548.981 520.291 539.471 529.692 527.734 529.692ZM548.941 420.787H548.981C548.981 432.439 539.471 441.84 527.734 441.84C516.036 441.84 506.526 432.439 506.526 420.787V294.388C506.526 282.736 516.036 273.335 527.734 273.335C533.384 273.335 538.835 275.547 542.815 279.536C546.754 283.486 548.982 288.819 548.982 294.389L548.941 420.787Z" fill="black"/>
<path d="M803 397.723C803.04 526.488 740.211 647.285 634.489 721.819L609.341 688.126L563.384 626.309C608.147 595.144 642.805 551.695 663.098 501.296C683.391 450.933 688.484 395.748 677.661 342.549L792.694 308.618C799.499 337.848 802.96 367.743 803 397.723Z" fill="black"/>
</svg>
