<svg width="828" height="836" viewBox="0 0 828 836" fill="none" xmlns="http://www.w3.org/2000/svg">
<path fill-rule="evenodd" clip-rule="evenodd" d="M414 0C185.355 0 0 187.146 0 418C0 648.854 185.355 836 414 836C642.645 836 828 648.854 828 418C828 187.146 642.645 0 414 0ZM744.046 524.198L751.807 540.389C733.681 591.385 704.548 637.086 667.3 674.574L552.362 537.423C580.547 448.593 703.099 438.775 744.046 524.198ZM401.508 443.701L625.34 710.787C566.062 754.48 493.013 780.267 414 780.267C277.644 780.267 159.053 703.469 98.3431 590.376L179.136 459.857C228.696 379.796 341.107 371.63 401.508 443.701ZM496.8 222.933C496.8 176.762 533.871 139.333 579.6 139.333C625.329 139.333 662.4 176.762 662.4 222.933C662.4 269.104 625.329 306.533 579.6 306.533C533.871 306.533 496.8 269.104 496.8 222.933Z" fill="black"/>
</svg>
