<svg width="815" height="810" viewBox="0 0 815 810" fill="none" xmlns="http://www.w3.org/2000/svg">
<path fill-rule="evenodd" clip-rule="evenodd" d="M407.5 0C632.383 0 815 181.496 815 405C815 628.504 632.383 810 407.5 810C182.617 810 0 628.504 0 405C0 181.496 182.617 0 407.5 0ZM377.264 302.888L429.47 251.001C466.16 214.537 525.763 214.537 562.451 251.001C599.141 287.465 599.141 346.703 562.451 383.166L510.245 435.053C498.933 446.295 498.933 464.599 510.245 475.841C521.557 487.084 539.973 487.084 551.285 475.841L603.492 423.955C662.804 364.97 662.804 269.2 603.492 210.211C544.143 151.262 447.781 151.262 388.428 210.211L336.221 262.097C324.909 273.339 324.909 291.643 336.221 302.886C347.533 314.128 365.952 314.13 377.264 302.888ZM266.613 331.281L214.407 383.167C155.094 442.152 155.094 537.922 214.407 596.911C273.755 655.86 370.117 655.86 429.47 596.911L481.677 545.025C492.989 533.783 492.989 515.479 481.677 504.236C470.365 492.994 451.949 492.994 440.637 504.236L388.43 556.123C351.74 592.587 292.138 592.587 255.449 556.123C218.76 519.658 218.76 460.421 255.449 423.958L307.656 372.071C318.968 360.829 318.968 342.525 307.656 331.283C296.344 320.04 277.925 320.038 266.613 331.281ZM359.862 494.864L499.952 355.633C511.264 344.39 511.264 326.087 499.952 314.844C488.64 303.601 470.223 303.601 458.911 314.844L318.821 454.075C307.509 465.317 307.509 483.621 318.821 494.864C330.133 506.106 348.55 506.106 359.862 494.864Z" fill="black"/>
</svg>
