<svg width="629" height="829" viewBox="0 0 629 829" fill="none" xmlns="http://www.w3.org/2000/svg">
<path d="M628.969 486.991C629.51 434.832 622.787 286.482 617.454 258.224C608.876 211.83 568.428 166.973 524.27 156.739C520.375 155.897 515.382 155.12 509.586 154.213C458.226 149.355 364.686 145.355 321.131 145.274C275.195 145.274 185.117 149.808 139.831 154.99C133.795 155.686 127.742 153.841 123.005 149.861C118.267 145.881 115.232 140.092 114.568 133.768C113.904 127.444 115.665 121.103 119.464 116.139C123.262 111.175 128.787 107.996 134.823 107.3C184.916 101.503 276.648 97.3085 321.053 97.2275C360.729 97.3085 447.113 100.644 503.589 105.486C492.26 61.9093 453.836 21.2796 412.105 11.5634C385.304 5.81468 308.209 0.0983433 258.425 0.00118175C208.641 -0.0959798 131.547 5.81468 104.73 11.6444C60.5723 21.8949 20.1238 66.7512 11.5612 113.194C6.15154 141.404 -0.510026 302.659 0.0309359 354.851C0.0309359 357.313 0.0309359 359.969 0.0309359 362.786C0.0309359 435.9 7.75897 658.838 13.9414 691.808C24.3588 748.048 73.3854 802.41 126.91 814.879C159.368 821.956 252.877 828.887 313.233 829C313.665 829 314.067 829 314.5 829C365.242 828.822 497.623 823.138 524.223 817.341C568.381 807.106 608.83 762.282 617.408 715.872C622.848 687.484 629.51 539.086 628.969 486.991ZM345.412 640.879C314.584 640.879 284.448 631.301 258.815 613.357C233.181 595.413 213.203 569.908 201.404 540.067C189.606 510.227 186.518 477.391 192.532 445.712C198.545 414.033 213.389 384.933 235.187 362.093C256.985 339.253 284.757 323.697 314.993 317.394C345.229 311.091 376.569 314.323 405.052 326.681C433.535 339.039 457.88 359.969 475.009 386.823C492.139 413.678 501.283 445.251 501.287 477.55C501.289 498.998 497.258 520.236 489.426 540.052C481.593 559.868 470.112 577.873 455.637 593.04C441.163 608.207 423.979 620.238 405.066 628.446C386.154 636.654 365.883 640.879 345.412 640.879Z" fill="black"/>
<path d="M396.417 544.851C390.513 544.849 384.747 542.975 379.879 539.475L328.874 502.958C324.923 500.137 321.69 496.348 319.454 491.92C317.218 487.493 316.048 482.56 316.046 477.551V395.433C316.046 387.273 319.14 379.447 324.647 373.677C330.154 367.907 337.624 364.665 345.412 364.665C353.201 364.665 360.67 367.907 366.177 373.677C371.685 379.447 374.779 387.273 374.779 395.433V461.357L412.955 488.708C418.121 492.419 422.02 497.764 424.08 503.962C426.141 510.16 426.256 516.886 424.409 523.157C422.561 529.428 418.848 534.916 413.812 538.819C408.776 542.722 402.681 544.836 396.417 544.851Z" fill="black"/>
</svg>
