<svg width="805" height="805" viewBox="0 0 805 805" fill="none" xmlns="http://www.w3.org/2000/svg">
<path d="M770.805 0H34.1533C15.2783 0 0 14.669 0 32.7047V772.295C0 790.37 15.3187 805 34.1533 805H770.847C789.722 805 805 790.331 805 772.295V32.7047C805 14.6303 789.681 0 770.847 0H770.805ZM157.986 750.113C158.107 750.926 158.269 751.739 158.39 752.551H150.145C150.145 744.656 150.953 736.799 152.57 729.058C153.782 723.756 150.266 718.531 144.729 717.37C139.191 716.208 133.735 719.576 132.522 724.878C130.582 733.973 129.612 743.263 129.612 752.551H115.547C117.446 745.856 119.75 737.109 122.458 726.272C123.873 718.57 124.641 710.752 124.722 702.934C124.802 700.379 124.883 697.863 125.045 695.503C125.045 689.387 126.944 683.427 130.461 678.318C132.805 674.37 137.494 672.241 142.142 672.977C147.558 673.519 154.024 679.905 155.48 692.716C155.763 694.883 155.884 697.089 155.803 699.257C154.631 716.209 155.359 733.2 157.905 749.997L157.986 750.113ZM214.207 699.411C214.126 697.166 214.247 694.883 214.571 692.638C216.026 679.983 222.493 673.596 227.787 673.054C232.516 672.241 237.245 674.37 239.589 678.356C243.105 683.426 245.005 689.387 245.005 695.464C245.166 697.863 245.247 700.379 245.368 702.933C245.49 710.906 246.258 718.841 247.753 726.658C250.38 737.147 252.644 745.817 254.584 752.513H240.518C240.518 743.224 239.548 733.935 237.608 724.839C236.395 719.537 230.939 716.17 225.402 717.331C219.864 718.492 216.348 723.717 217.561 729.019C219.177 736.76 219.986 744.617 219.986 752.513H211.74C211.862 751.7 211.983 750.887 212.145 750.074C214.691 733.277 215.419 716.286 214.246 699.334L214.207 699.411ZM275.602 752.59C275.521 752.203 275.561 751.816 275.44 751.429C273.379 744.578 270.792 734.709 267.72 722.556C266.508 715.86 265.861 709.087 265.821 702.313C265.74 699.527 265.619 696.818 265.417 694.108C265.174 684.316 261.9 674.834 256.08 666.784C249.452 657.147 237.609 651.999 225.686 653.509C209.155 655.173 196.464 670.036 194.16 690.277C193.755 693.451 193.594 696.624 193.675 699.837C194.766 715.628 194.16 731.457 191.775 747.093C191.492 748.835 191.209 750.654 190.967 752.551H179.084C178.801 750.654 178.518 748.835 178.276 747.093C175.932 731.457 175.285 715.589 176.376 699.798C176.457 696.663 176.295 693.567 175.932 690.47C173.587 670.035 160.897 655.173 144.284 653.47C132.362 651.999 120.599 657.146 113.971 666.744C108.151 674.795 104.877 684.315 104.634 694.146C104.432 696.778 104.352 699.487 104.271 702.274C104.23 708.931 103.624 715.549 102.452 722.09C99.2993 734.669 96.6722 744.499 94.6513 751.35C94.53 751.737 94.6512 752.124 94.5704 752.511H66.4805C58.9223 752.511 52.8194 746.667 52.8194 739.429V560.618H317.029L317.07 752.508H275.601L275.602 752.59ZM98.0892 486.23C98.0892 479.767 103.586 474.503 110.336 474.503H263.523C270.272 474.658 275.648 480.038 275.486 486.501C275.324 492.771 270.07 497.802 263.523 497.957H110.336C103.586 497.957 98.0892 492.694 98.0892 486.23ZM293.792 541.034C295.287 537.435 296.257 533.564 296.257 529.5C296.298 521.411 293.024 513.631 287.204 507.787C299.289 495.751 299.289 476.747 287.204 464.71C299.692 452.248 299.248 432.431 286.193 420.511C280.09 414.899 271.966 411.803 263.519 411.841H110.332C92.3055 411.803 77.6335 425.736 77.5932 442.997C77.5528 451.086 80.8266 458.866 86.6468 464.71C74.5615 476.746 74.5615 495.75 86.6468 507.787C77.5124 516.922 75.4513 530.003 80.0586 541.034H52.8172V277.072H317.027L317.067 541.034H293.792ZM96.3509 202.375C96.5126 196.105 101.767 191.074 108.314 190.919H261.501C268.251 190.764 273.869 195.873 274.03 202.375C274.192 208.839 268.857 214.218 262.067 214.373H261.501H108.314C101.564 214.218 96.1885 208.838 96.3509 202.375ZM291.774 257.45C293.269 253.889 294.239 250.019 294.239 245.916C294.28 237.827 291.006 230.047 285.186 224.204C291.006 218.398 294.239 210.696 294.239 202.646C294.199 185.345 279.568 171.334 261.501 171.295H108.314C90.2874 171.257 75.6154 185.189 75.5751 202.49C75.5346 210.579 78.8085 218.359 84.6287 224.203C75.4943 233.337 73.4332 246.419 78.0405 257.449H52.8198V65.559C52.8198 58.3214 58.9229 52.4773 66.4809 52.4773H316.991L317.032 257.486H291.771L291.774 257.45ZM752.09 739.5C752.09 746.737 745.987 752.581 738.429 752.581H738.469H337.566L337.525 176.752H421.271C421.191 177.294 420.948 177.758 420.908 178.3C420.342 183.68 424.464 188.517 430.123 189.02C435.741 189.562 440.793 185.615 441.318 180.196C441.48 178.919 442.208 177.874 442.733 176.751H466.539C468.843 185.344 463.063 198.115 459.79 204.308C456.314 210.307 451.989 215.764 446.896 220.602C436.792 230.432 425.879 239.489 414.279 247.617H405.105C393.99 247.617 384.046 254.313 380.329 264.337C363.232 312.136 355.956 362.606 358.867 413.038C360.484 435.95 362.666 493.115 363.636 635.465V637.245C363.636 645.102 369.457 651.837 377.541 653.307C385.139 654.546 392.819 655.127 400.539 655.049C410.926 655.01 421.273 654.314 431.539 652.92C439.34 651.759 445.322 645.605 445.928 638.058L454.82 534.37L462.742 638.564C463.227 645.801 468.683 651.878 476.12 653.464C494.147 655.825 512.456 655.593 530.442 652.884C538.849 651.916 545.235 645.259 545.558 637.171L545.679 633.455C546.285 615.613 547.66 574.548 549.317 531.857C563.948 532.98 580.762 533.56 599.111 533.56C628.091 533.56 660.748 532.167 693.769 529.38C699.428 528.916 703.591 524.155 703.106 518.737V518.698L691.708 399.454C691.425 396.474 693.486 393.726 696.517 393.107C707.39 391.249 717.898 387.959 727.801 383.315C734.995 379.986 738.754 372.246 736.773 364.814C731.317 344.572 716.645 295.458 699.266 277.035C688.999 265.579 676.349 256.329 662.122 249.787C655.574 246.885 648.016 246.962 641.549 250.02C632.455 243.053 622.431 235.041 615.359 228.849C618.39 224.669 621.139 220.257 623.564 215.69C631.162 200.982 633.507 187.669 631.647 176.715H752.013V739.466L752.09 739.5ZM568.39 176.749C568.956 180.542 571.098 184.025 575.261 185.031C580.758 186.386 586.335 183.174 587.709 177.949C587.83 177.523 588.194 177.175 588.356 176.787H610.626C614.021 184.373 610.545 196.874 605.25 207.054C602.017 213.053 598.217 218.781 593.852 224.084C586.092 233.45 577.604 242.158 568.349 250.209C562.286 248.351 555.697 248.931 550.04 251.757C548.463 252.569 546.604 253.46 544.583 254.466C541.229 256.091 537.227 258.065 533.024 260.31C528.376 252.492 519.685 247.655 510.269 247.693H499.599C486.14 239.024 475.51 231.747 468.76 226.522C472.357 222.42 475.469 217.93 478.096 213.169C485.371 199.391 488.403 187.045 487.352 176.788H568.389L568.39 176.749ZM623.277 261.006C611.476 266.502 597.692 266.618 585.77 261.393C590.903 256.71 596.925 250.905 602.866 244.363C609.252 249.859 616.932 256.052 623.318 261.006L623.277 261.006ZM464.151 380.488C464.071 379.017 463.626 377.624 462.858 376.347L447.539 350.338C444.67 345.578 438.405 343.875 433.353 346.506C428.422 349.022 426.562 354.944 429.19 359.665C429.23 359.743 429.27 359.781 429.311 359.859L443.498 383.933L445.155 408.084L425.835 633.84C412.053 635.698 398.068 635.891 384.205 634.459C383.194 492.258 381.012 434.86 379.355 411.725C376.606 363.965 383.518 316.127 399.684 270.881C400.493 268.675 402.716 267.204 405.141 267.282H510.307C512.773 267.282 514.996 268.791 515.764 271.036L517.825 277.499C531.77 322.976 537.508 370.349 534.8 417.679C533.224 436.644 531.486 469.388 529.344 520.743C527.485 567.072 525.908 613.516 525.302 632.794V633.646C511.358 635.581 497.212 635.89 483.147 634.691L466.252 413.73C466.293 413.304 466.333 412.84 466.293 412.414L464.11 380.522L464.151 380.488ZM446.973 247.62C449.722 245.337 452.349 243.053 454.774 240.847C457.361 242.86 460.392 245.143 463.908 247.62H446.973ZM619.478 157.093C618.589 156.474 618.144 155.468 617.174 154.926C607.878 149.585 596.48 148.772 586.416 152.681C583.869 153.648 582.05 155.584 579.908 157.132H476.201C474.827 155.971 474.018 154.461 472.361 153.494C462.176 147.998 449.767 147.804 439.42 152.99C437.036 154.113 434.853 155.545 432.873 157.093H337.528V52.4436H738.39C745.948 52.4436 752.051 58.2878 752.051 65.5253L752.091 157.098L619.478 157.093Z" fill="black"/>
</svg>
