<svg width="719" height="809" viewBox="0 0 719 809" fill="none" xmlns="http://www.w3.org/2000/svg">
<path d="M46.864 0.000883769C20.604 0.483535 -0.314636 23.8576 0.00358292 52.3346C0.35329 80.7772 21.8443 103.6 48.0717 103.323H671.504C697.764 103.254 719 80.1215 719 51.6789C719 23.2019 697.763 0.103261 671.504 0H48.0717L46.864 0.000883769ZM67.8461 118.389L116.169 763.045C118.108 789.004 138.105 809 162.107 809H557.529C581.563 809 601.56 789.004 603.499 763.045L651.79 118.389H67.8461ZM170.116 210.229L170.084 210.264C170.497 210.229 170.879 210.229 171.26 210.264C181.91 210.539 190.653 219.503 191.511 231.053L197.52 311.312L197.552 311.277C198.156 323.516 189.699 334.065 178.445 335.065C167.159 336.065 157.208 327.17 156 314.966L149.992 234.673C149.515 228.502 151.422 222.4 155.205 217.779C159.02 213.16 164.393 210.436 170.115 210.264L170.116 210.229ZM258.053 210.229L258.021 210.264C258.403 210.229 258.784 210.229 259.198 210.264C269.848 210.539 278.59 219.503 279.449 231.053L285.457 311.312L285.489 311.277C286.189 323.585 277.7 334.238 266.382 335.237C255.065 336.237 245.082 327.239 243.938 314.965L237.929 234.672C237.452 228.501 239.328 222.399 243.143 217.779C246.958 213.158 252.33 210.435 258.053 210.263L258.053 210.229ZM460.02 210.298C465.997 209.988 471.783 212.504 475.947 217.159C480.08 221.847 482.21 228.225 481.702 234.672L475.693 314.966C474.485 327.136 464.534 336.065 453.28 335.065C442.026 334.065 433.569 323.55 434.173 311.346L440.182 231.052C441.04 219.709 449.529 210.815 460.02 210.298ZM547.926 210.298C553.903 209.988 559.72 212.47 563.885 217.159C568.05 221.813 570.148 228.225 569.671 234.672L563.662 314.966C562.74 327.412 552.662 336.685 541.186 335.686C529.709 334.686 521.158 323.792 522.079 311.347L528.088 231.053H528.119C528.946 219.71 537.466 210.815 547.926 210.298ZM359.501 210.505H360.137C371.423 210.677 380.515 220.606 380.642 232.845V313.138C380.388 325.411 371.136 335.237 359.819 335.237C348.47 335.237 339.219 325.411 338.996 313.138V232.845C339.091 220.606 348.184 210.677 359.501 210.505ZM184.359 400.946H184.391C184.772 400.911 185.122 400.911 185.503 400.946C196.185 401.187 204.928 410.186 205.786 421.735L211.795 501.994L211.827 501.96C212.526 514.267 204.038 524.92 192.72 525.92C181.402 526.919 171.419 517.921 170.275 505.648L164.267 425.354C163.79 419.183 165.665 413.081 169.48 408.461C173.263 403.876 178.668 401.118 184.359 400.946ZM446.161 400.946C446.543 400.911 446.924 400.911 447.305 400.946C453.028 401.118 458.401 403.842 462.215 408.462C466.03 413.081 467.906 419.183 467.429 425.355L461.421 505.648C460.276 517.887 450.325 526.885 439.008 525.886C427.69 524.92 419.202 514.302 419.901 502.029L425.909 421.735H425.878C426.736 410.186 435.479 401.222 446.161 400.946ZM359.501 401.222H360.137C371.423 401.394 380.515 411.323 380.642 423.561V503.855C380.388 516.128 371.136 525.954 359.819 525.954C348.47 525.954 339.219 516.128 338.996 503.855V423.561C339.091 411.323 348.184 401.394 359.501 401.222ZM272.678 401.256L272.646 401.291H273.282C283.964 401.394 292.833 410.22 293.851 421.735L299.859 501.994C300.495 514.232 292.039 524.782 280.752 525.782C269.498 526.781 259.547 517.852 258.34 505.683L252.331 425.389C251.949 419.218 253.921 413.151 257.767 408.566C261.646 404.015 267.05 401.395 272.741 401.291L272.678 401.256ZM534.448 401.256L534.384 401.291H535.02C540.742 401.394 546.179 404.014 550.026 408.565C553.904 413.116 555.875 419.183 555.494 425.389L549.485 505.682C548.309 517.886 538.358 526.85 527.073 525.851C515.787 524.885 507.298 514.301 507.934 502.028L513.942 421.735H513.974C514.992 410.22 523.829 401.394 534.511 401.291L534.448 401.256ZM198.731 591.627H198.667H199.812C210.494 591.902 219.268 600.866 220.126 612.416L226.135 692.675C227.089 705.121 218.537 716.049 207.06 717.049C195.583 718.083 185.537 708.809 184.583 696.363L178.575 616.069C178.098 609.898 179.974 603.796 183.789 599.176C187.604 594.556 192.976 591.833 198.699 591.626L198.731 591.627ZM431.887 591.627H433.031C438.754 591.833 444.126 594.557 447.909 599.177C451.724 603.796 453.6 609.898 453.123 616.07L447.114 696.364C445.906 708.533 435.956 717.462 424.702 716.462C413.416 715.463 404.959 704.913 405.595 692.674L411.603 612.415C412.462 600.9 421.205 591.937 431.887 591.627ZM359.562 591.902L359.498 591.937C359.721 591.902 359.911 591.902 360.134 591.937C371.42 592.109 380.512 602.038 380.639 614.276V694.57C380.385 706.843 371.133 716.669 359.816 716.669C348.466 716.669 339.215 706.843 338.992 694.57V614.276C339.088 602.038 348.18 592.109 359.497 591.901L359.562 591.902ZM286.95 591.971L286.886 592.006C287.109 591.971 287.331 591.971 287.522 592.006C298.204 592.075 307.105 600.9 308.123 612.45L314.131 692.709C315.085 705.12 306.533 716.048 295.056 717.048C283.579 718.083 273.533 708.809 272.58 696.363L266.571 616.069L266.539 616.104C266.158 609.898 268.129 603.831 272.007 599.28C275.854 594.729 281.29 592.109 286.981 592.006L286.95 591.971ZM520.137 591.971L520.073 592.006C520.296 591.971 520.518 591.971 520.741 592.006C526.432 592.109 531.836 594.729 535.714 599.28C539.593 603.831 541.564 609.898 541.182 616.104L535.174 696.397L535.142 696.363C533.934 708.567 523.983 717.461 512.729 716.462C501.475 715.462 492.987 704.912 493.622 692.708L499.631 612.449C500.648 600.934 509.518 592.108 520.199 591.971L520.137 591.971Z" fill="black"/>
</svg>
