<svg width="815" height="803" viewBox="0 0 815 803" fill="none" xmlns="http://www.w3.org/2000/svg">
<path d="M696.093 66.8131H618.254L657.253 28.3965L633.217 4.87617L553.309 83.5909L633.217 162.306L657.253 138.629L618.254 100.369H696.093C742.892 100.369 780.936 140.353 780.936 189.589V330.868H815V189.589C815 121.851 761.675 66.8131 696.093 66.8131Z" fill="black"/>
<path d="M455.572 335.729C492.661 312.522 509.375 272.695 509.375 245.254C509.375 202.447 481.041 165.912 440.769 153.525C443.793 141.294 445.066 128.75 444.271 115.892C440.45 52.5442 384.101 0.485836 318.678 0.0154293C267.74 -0.768582 223.011 28.3966 202.477 71.3605C184.012 59.1299 161.408 53.3282 138.486 55.6803C101.716 58.9731 69.4023 83.7479 56.5088 118.401C51.415 132.357 49.6641 146.469 51.5742 160.738C20.2158 177.516 0 209.974 0 245.254C0 296.372 38.0439 334.004 91.5283 337.611C106.491 357.838 133.233 365.365 149.788 365.365C175.734 365.365 192.289 360.19 211.868 344.51C223.647 354.232 243.227 365.365 272.356 365.365C305.625 365.365 327.592 351.723 339.212 341.374C393.333 362.699 432.173 350.469 455.572 335.729Z" fill="black"/>
<path d="M157.747 664.073L196.746 702.333H118.907C72.1084 702.333 34.0645 664.857 34.0645 618.757V485.005H0V618.757C0 683.36 53.3252 735.889 118.907 735.889H196.746L157.747 774.148L181.783 797.826L261.691 719.111L181.783 640.396L157.747 664.073Z" fill="black"/>
<path d="M746.394 591.003C749.418 578.773 750.691 566.228 749.896 553.527C745.916 490.023 689.566 437.964 624.303 437.494C574.002 436.867 528.636 465.875 508.102 508.839C489.637 496.765 467.033 491.12 444.111 493.159C407.341 496.608 375.027 521.226 362.134 555.88C357.04 569.835 355.289 583.947 357.199 598.373C325.841 615.151 305.625 647.452 305.625 682.889C305.625 733.85 343.669 771.64 397.153 775.089C412.116 795.317 438.858 803 455.413 803C481.359 803 497.914 797.826 517.493 781.989C529.272 791.867 548.852 802.843 577.981 802.843C611.25 802.843 633.217 789.201 644.837 779.166C698.958 800.334 737.639 788.104 761.197 773.364C798.286 750.158 815 710.33 815 683.046C815 639.926 786.666 603.547 746.394 591.003Z" fill="black"/>
</svg>
