<svg width="676" height="620" viewBox="0 0 676 620" fill="none" xmlns="http://www.w3.org/2000/svg">
<path d="M676 79.3023V115.349H0V79.3023C0 35.4698 38.6735 0 86.4651 0H589.535C637.327 0 676 35.4698 676 79.3023ZM676 158.605V540.698C676 584.53 637.327 620 589.535 620H86.4651C38.6735 620 0 584.53 0 540.698V158.605H676ZM177.332 367.674L239.273 310.865C248.705 302.502 248.705 288.66 239.273 280.298C230.154 271.935 215.377 271.935 205.944 280.298L127.34 352.391C118.221 360.754 118.221 374.595 127.34 382.958L205.944 455.051C210.66 459.377 216.634 461.395 222.608 461.395C228.582 461.395 234.871 459.377 239.273 455.051C248.705 446.688 248.705 432.847 239.273 424.484L177.332 367.674ZM383.276 231.563C370.7 228.102 357.808 234.735 354.035 245.981L277.003 476.679C273.23 488.214 280.147 500.326 292.724 503.786C294.925 504.363 297.126 504.651 299.641 504.651C309.702 504.651 319.135 498.595 321.965 489.367L398.997 258.67C402.77 247.135 395.853 235.023 383.276 231.563ZM548.66 352.391L470.056 280.298C460.623 271.935 445.846 271.935 436.727 280.298C427.295 288.66 427.295 302.502 436.727 310.865L498.668 367.674L436.727 424.484C427.295 432.847 427.295 446.688 436.727 455.051C441.129 459.377 447.103 461.395 453.392 461.395C459.68 461.395 465.34 459.377 470.056 455.051L548.66 382.958C557.779 374.595 557.779 360.754 548.66 352.391Z" fill="black"/>
</svg>
