<svg width="760" height="829" viewBox="0 0 760 829" fill="none" xmlns="http://www.w3.org/2000/svg">
<path d="M340.417 345.417H419.583C425.882 345.417 431.923 342.687 436.377 337.829C440.831 332.971 443.333 326.381 443.333 319.51V293.604H482.917C489.216 293.604 495.256 290.875 499.71 286.016C504.164 281.158 506.667 274.569 506.667 267.698V250.427C506.667 248.137 505.833 245.94 504.348 244.321C502.863 242.701 500.85 241.792 498.75 241.792H261.25C259.15 241.792 257.137 242.701 255.652 244.321C254.167 245.94 253.333 248.137 253.333 250.427V267.698C253.333 274.569 255.836 281.158 260.29 286.016C264.744 290.875 270.784 293.604 277.083 293.604H316.667V319.51C316.667 326.381 319.169 332.971 323.623 337.829C328.077 342.687 334.118 345.417 340.417 345.417Z" fill="black"/>
<path d="M696.667 0H63.3333C46.5363 0 30.4272 7.2784 18.5499 20.234C6.6726 33.1897 0 50.7613 0 69.0833L0 224.521H760V69.0833C760 50.7613 753.327 33.1897 741.45 20.234C729.573 7.2784 713.464 0 696.667 0ZM142.5 146.802C137.803 146.802 133.211 145.283 129.305 142.436C125.4 139.589 122.355 135.543 120.558 130.81C118.76 126.076 118.29 120.867 119.206 115.842C120.123 110.816 122.385 106.2 125.706 102.577C129.028 98.9543 133.26 96.487 137.867 95.4874C142.474 94.4878 147.249 95.0008 151.589 96.9616C155.928 98.9224 159.638 102.243 162.247 106.503C164.857 110.763 166.25 115.772 166.25 120.896C166.25 127.767 163.748 134.356 159.294 139.214C154.84 144.073 148.799 146.802 142.5 146.802ZM498.75 138.167C498.75 140.457 497.916 142.653 496.431 144.273C494.947 145.892 492.933 146.802 490.833 146.802H269.167C267.067 146.802 265.053 145.892 263.569 144.273C262.084 142.653 261.25 140.457 261.25 138.167V103.625C261.25 101.335 262.084 99.1383 263.569 97.5188C265.053 95.8994 267.067 94.9896 269.167 94.9896H490.833C492.933 94.9896 494.947 95.8994 496.431 97.5188C497.916 99.1383 498.75 101.335 498.75 103.625V138.167ZM617.5 146.802C612.803 146.802 608.211 145.283 604.305 142.436C600.4 139.589 597.355 135.543 595.558 130.81C593.76 126.076 593.29 120.867 594.206 115.842C595.123 110.816 597.385 106.2 600.706 102.577C604.028 98.9543 608.26 96.487 612.867 95.4874C617.474 94.4878 622.249 95.0008 626.589 96.9616C630.928 98.9224 634.638 102.243 637.247 106.503C639.857 110.763 641.25 115.772 641.25 120.896C641.25 127.767 638.748 134.356 634.294 139.214C629.84 144.073 623.799 146.802 617.5 146.802Z" fill="black"/>
<path d="M665 716.74C665 719.03 664.166 721.226 662.681 722.846C661.197 724.465 659.183 725.375 657.083 725.375H482.742C505.35 711.456 523.415 690.193 534.422 664.547C535.721 664.685 536.987 664.927 538.333 664.927C556.517 664.965 574.021 657.398 587.245 643.783C600.468 630.169 608.403 611.543 609.418 591.74C610.432 571.936 604.448 552.462 592.698 537.326C580.947 522.189 564.324 512.542 546.25 510.37V492.219C546.25 480.767 542.08 469.785 534.656 461.688C527.233 453.591 517.165 449.042 506.667 449.042H253.333C242.835 449.042 232.767 453.591 225.344 461.688C217.92 469.785 213.75 480.767 213.75 492.219V607.432C213.772 631.476 219.669 655.079 230.834 675.81C242 696.54 258.03 713.649 277.273 725.375H102.917C100.817 725.375 98.8034 724.465 97.3187 722.846C95.8341 721.226 95 719.03 95 716.74V241.792H0V751.281C0 771.894 7.50667 791.662 20.8686 806.237C34.2306 820.812 52.3533 829 71.25 829H688.75C707.647 829 725.769 820.812 739.131 806.237C752.493 791.662 760 771.894 760 751.281V241.792H665V716.74ZM546.25 607.432V562.891C550.897 564.64 554.924 567.933 557.766 572.308C560.608 576.683 562.121 581.92 562.093 587.282C562.065 592.643 560.497 597.861 557.61 602.2C554.723 606.54 550.661 609.783 545.997 611.474C546.028 610.109 546.25 608.814 546.25 607.432ZM484.975 532.633C492.039 535.171 498.016 540.425 501.79 547.416L496.755 551.803C485.062 563.002 470.146 569.386 454.591 569.851C433.013 568.044 412.483 558.974 395.833 543.893C423.532 529.28 454.947 525.312 484.975 532.633ZM422.307 699.469H337.709C315.331 699.469 293.87 689.772 278.046 672.512C262.223 655.252 253.333 631.842 253.333 607.432V565.516C253.312 558.252 255.397 551.166 259.29 545.272C263.183 539.378 268.685 534.979 275.009 532.702C308.085 521.078 354.302 535.672 380 552.736C424.792 590.196 465.642 601.094 506.667 565.361V607.519C506.654 631.913 497.76 655.304 481.94 672.547C466.121 689.789 444.671 699.473 422.307 699.469Z" fill="black"/>
</svg>
