<svg width="822" height="714" viewBox="0 0 822 714" fill="none" xmlns="http://www.w3.org/2000/svg">
<path fill-rule="evenodd" clip-rule="evenodd" d="M520.374 711.508C250.78 646.712 333.397 56.0733 611.688 43.6125C655.171 404.974 492.11 390.021 520.374 711.508Z" fill="black"/>
<path fill-rule="evenodd" clip-rule="evenodd" d="M561.683 714C531.245 404.974 694.306 407.466 652.997 46.1047C929.114 105.916 844.322 711.508 561.683 714Z" fill="black"/>
<path fill-rule="evenodd" clip-rule="evenodd" d="M359.487 556.995C185.555 564.471 -27.5115 397.497 2.92663 185.665C205.122 200.618 259.476 280.367 346.442 342.67C335.571 412.45 339.92 489.707 359.487 556.995Z" fill="black"/>
<path fill-rule="evenodd" clip-rule="evenodd" d="M461.672 98.4398C411.667 150.775 374.706 223.047 355.139 295.319C272.521 233.016 211.645 155.759 13.7974 140.806C85.5443 -61.0576 337.746 -18.6911 461.672 98.4398Z" fill="black"/>
</svg>
