<svg width="820" height="608" viewBox="0 0 820 608" fill="none" xmlns="http://www.w3.org/2000/svg">
<path d="M418.868 188.697C426.158 188.697 432.067 182.904 432.067 175.758C432.067 168.612 426.158 162.819 418.868 162.819C411.578 162.819 405.669 168.612 405.669 175.758C405.669 182.904 411.578 188.697 418.868 188.697Z" fill="black"/>
<path d="M737.319 0H82.7001L0 126.032V141.022H19.1111V210.503H22.7595C19.9802 210.503 17.7167 212.732 17.7167 215.447V227.01C17.7167 228.33 18.2515 229.519 19.1111 230.39V241.148C19.1111 241.148 28.4899 325.965 60.8097 372.966C93.1199 419.977 93.12 520.121 74.3527 550.775C55.5854 581.419 119.174 590.623 123.348 608H156.069C156.069 608 143.156 439.386 124.389 388.293C105.622 337.2 100.417 292.231 115.01 278.945C122.107 272.494 153.271 270.144 188.102 265.088C218.149 385.222 188.895 450.022 185.896 487.417C184.215 508.38 195.275 497.632 204.663 511.947C214.042 526.244 211.311 531.693 211.311 531.693H231.463C231.463 531.693 217.929 474.084 227.929 414.593C242.723 326.686 239.533 274.872 228.578 257.701C251.959 252.224 273.438 244.331 286.762 231.944H535.664C548.997 244.331 570.477 252.224 593.847 257.701C582.902 274.872 579.712 326.686 594.497 414.593C604.506 474.084 590.973 531.693 590.973 531.693H611.125C611.125 531.693 608.393 526.244 617.772 511.947C627.151 497.632 638.22 508.38 636.539 487.417C633.54 450.022 604.277 385.222 634.333 265.088C669.155 270.144 700.329 272.494 707.416 278.945C722.019 292.231 716.804 337.2 698.037 388.293C679.279 439.386 666.366 608 666.366 608H699.087C703.261 590.623 766.84 581.419 748.083 550.775C729.315 520.121 729.315 419.967 761.626 372.966C793.936 325.956 803.315 241.148 803.315 241.148V231.963H814.948C817.727 231.963 820 229.725 820 227.01V215.447C820 212.732 817.727 210.503 814.948 210.503H803.315V141.022H820V126.032L737.319 0ZM163.022 175.749C163.022 182.911 157.101 188.697 149.813 188.697C142.516 188.697 136.605 182.911 136.605 175.749C136.605 168.595 142.516 162.809 149.813 162.809C157.11 162.809 163.022 168.605 163.022 175.749ZM674.714 175.749C674.714 168.595 680.626 162.809 687.913 162.809C695.21 162.809 701.122 168.595 701.122 175.749C701.122 182.911 695.21 188.697 687.913 188.697C680.626 188.697 674.714 182.911 674.714 175.749ZM541.929 210.494H280.516V141.013H541.929V210.494Z" fill="black"/>
</svg>
