<svg width="823" height="723" viewBox="0 0 823 723" fill="none" xmlns="http://www.w3.org/2000/svg">
<path d="M161.091 381.254C130.787 276.557 114.837 154.082 118.027 59.2623V47.4098L119.622 49.3852C126.002 33.582 157.901 21.7295 207.345 13.8279C259.979 5.92623 330.157 0 409.905 0C488.058 0 559.831 5.92623 610.87 13.8279C666.694 21.7295 701.783 37.5328 701.783 55.3115C701.783 57.2869 700.188 59.2623 700.188 61.2377C700.188 82.9672 700.188 104.697 698.593 128.402C768.771 120.5 811.835 207.418 799.076 288.41C779.936 383.23 701.783 444.467 628.415 456.32C604.49 511.631 577.376 555.09 545.477 574.844C483.273 606.451 333.347 612.377 271.143 574.844C221.7 551.139 178.636 438.541 161.091 381.254ZM132.382 55.3115C153.116 65.1885 178.636 71.1148 205.75 77.041H208.94C259.979 84.9426 331.752 90.8689 409.905 90.8689C483.273 90.8689 551.857 84.9426 601.3 79.0164C633.2 73.0902 663.504 65.1885 685.833 55.3115C685.833 47.4098 657.124 39.5082 609.275 31.6066C558.236 23.7049 488.058 17.7787 409.905 17.7787C331.752 17.7787 259.979 23.7049 208.94 31.6066C162.686 39.5082 132.382 47.4098 132.382 55.3115ZM145.141 112.598C153.116 256.803 178.636 395.082 261.574 517.557C272.738 521.508 283.903 527.434 295.068 531.385C244.029 438.541 215.32 300.262 210.535 130.377L145.141 112.598ZM649.149 401.008C696.998 383.23 746.442 341.746 759.202 278.533C767.176 227.172 741.657 167.91 695.403 179.762C687.428 254.828 671.479 329.893 649.149 401.008Z" fill="black"/>
<path d="M411.5 723C303.043 723 204.155 707.197 132.382 679.541C51.0388 649.91 0 602.5 0 547.189C0 505.705 25.5194 470.148 70.1783 444.467C92.5078 430.639 119.622 418.787 149.926 408.91C156.306 424.713 162.686 444.467 170.661 464.221C157.901 470.148 141.952 478.049 122.812 491.877C4.78488 574.844 282.308 620.279 408.31 620.279C529.527 622.254 818.215 574.844 700.188 491.877C687.428 482 676.264 476.074 666.694 470.148C689.023 462.246 712.948 448.418 733.682 432.615C740.062 436.566 746.442 440.516 752.822 444.467C797.481 470.148 823 505.705 823 547.189C823 602.5 771.961 649.91 690.618 679.541C618.845 707.197 519.957 723 411.5 723ZM216.915 391.131L223.295 389.156C223.295 395.082 224.89 401.008 226.484 404.959V410.885C223.295 404.959 220.105 397.057 216.915 391.131Z" fill="black"/>
</svg>
