<svg width="535" height="819" viewBox="0 0 535 819" fill="none" xmlns="http://www.w3.org/2000/svg">
<path d="M426.903 40.1164C419.816 28.0473 408.982 17.9081 395.606 10.8259C382.23 3.74377 366.836 -0.00376085 351.136 2.83213e-06H183.898C168.204 0.0016485 152.817 3.75173 139.448 10.8336C126.078 17.9154 115.25 28.0518 108.165 40.1164L9.14009 208.713C0.567562 223.312 -2.07451 239.966 1.6364 256.011L118.131 760.149C121.963 776.738 132.353 791.669 147.53 802.4C162.707 813.131 181.733 818.997 201.367 819H333.701C353.326 818.987 372.34 813.116 387.507 802.386C402.673 791.656 413.056 776.731 416.887 760.149L533.364 256.011C537.075 239.966 534.432 223.312 525.86 208.713L426.903 40.1164ZM403.356 292.5H301.496V497.25H233.589V292.5H131.729V234H233.589V160.875H301.496V234H403.356V292.5Z" fill="black"/>
</svg>
