<svg width="813" height="751" viewBox="0 0 813 751" fill="none" xmlns="http://www.w3.org/2000/svg">
<path d="M718.15 635.462H635.631C637.257 633.728 638.882 631.995 640.373 630.118C658.53 608.166 666.795 578.703 663.137 549.674L637.392 346.615H667.338L691.592 437.169C693.218 443.379 698.503 447.712 704.6 447.712H758.8C763.001 447.712 767.066 445.545 769.505 442.079C772.079 438.468 773.027 433.847 771.808 429.514L742.134 313.109C734.139 281.914 707.174 259.962 676.687 259.962H569.1V202.192H596.2C603.653 202.192 609.75 195.693 609.75 187.75V144.423H799.45C806.903 144.423 813 137.924 813 129.981C813 58.3469 758.258 0 691.05 0H94.85C42.547 0 0 45.3488 0 101.096V736.558C0 744.501 6.0975 751 13.55 751H799.45C806.903 751 813 744.501 813 736.558C813 680.81 770.453 635.462 718.15 635.462ZM610.021 346.615L618.964 416.516C611.105 414.35 605.279 410.739 598.639 406.407C586.58 398.752 572.894 389.942 546.472 389.942C520.049 389.942 506.499 398.752 494.44 406.407C483.6 413.339 474.928 418.827 456.093 418.827C437.259 418.827 428.722 413.339 417.882 406.407C409.617 401.063 400.402 395.286 386.852 392.109L392.679 346.615H610.021ZM460.7 259.962V202.192H542V259.962H460.7ZM257.45 86.6538H745.25C762.865 86.6538 778.041 98.7854 783.597 115.538H219.104C224.659 98.7854 239.835 86.6538 257.45 86.6538ZM216.8 144.423H392.95V187.75C392.95 195.693 399.048 202.192 406.5 202.192H433.6V259.962H352.3C344.848 259.962 338.75 266.461 338.75 274.404V332.173C338.75 340.116 344.848 346.615 352.3 346.615H365.308L339.563 549.674C335.904 578.703 344.17 608.166 362.327 630.118C363.818 631.995 365.444 633.728 367.07 635.462H216.8V144.423ZM135.5 563.25H81.3C73.8475 563.25 67.75 556.751 67.75 548.808C67.75 540.864 73.8475 534.365 81.3 534.365H135.5C142.953 534.365 149.05 540.864 149.05 548.808C149.05 556.751 142.953 563.25 135.5 563.25ZM135.5 505.481H81.3C73.8475 505.481 67.75 498.982 67.75 491.038C67.75 483.095 73.8475 476.596 81.3 476.596H135.5C142.953 476.596 149.05 483.095 149.05 491.038C149.05 498.982 142.953 505.481 135.5 505.481ZM135.5 447.712H81.3C73.8475 447.712 67.75 441.212 67.75 433.269C67.75 425.326 73.8475 418.827 81.3 418.827H135.5C142.953 418.827 149.05 425.326 149.05 433.269C149.05 441.212 142.953 447.712 135.5 447.712ZM108.4 361.058C86.0425 361.058 67.75 341.561 67.75 317.731C67.75 293.901 86.0425 274.404 108.4 274.404C130.758 274.404 149.05 293.901 149.05 317.731C149.05 341.561 130.758 361.058 108.4 361.058ZM108.4 245.519C86.0425 245.519 67.75 226.022 67.75 202.192C67.75 178.362 86.0425 158.865 108.4 158.865C130.758 158.865 149.05 178.362 149.05 202.192C149.05 226.022 130.758 245.519 108.4 245.519ZM216.8 722.115V664.346H718.15C750.941 664.346 778.177 689.187 784.545 722.115H216.8Z" fill="black"/>
</svg>
