<svg width="814" height="765" viewBox="0 0 814 765" fill="none" xmlns="http://www.w3.org/2000/svg">
<path d="M465.14 99.7826C489.223 99.7826 508.746 77.4455 508.746 49.8913C508.746 22.3371 489.223 0 465.14 0C441.057 0 421.534 22.3371 421.534 49.8913C421.534 77.4455 441.057 99.7826 465.14 99.7826Z" fill="black"/>
<path d="M812.011 569.476C785.978 396.27 721.819 291.033 705.205 266.087H108.792C92.1785 291.033 28.0196 396.27 1.98687 569.493C-1.50186 593.507 -0.386428 618.103 5.25592 641.575C10.8983 665.048 20.9327 686.837 34.6641 705.433C48.3956 724.029 65.496 738.987 84.7809 749.273C104.066 759.558 125.074 764.925 146.352 765H667.646C688.925 764.925 709.935 759.558 729.221 749.272C748.507 738.986 765.608 724.025 779.34 705.427C793.072 686.829 803.106 665.038 808.747 641.564C814.388 618.089 815.502 593.492 812.011 569.476ZM174.434 665.217C147.459 665.178 121.6 652.9 102.526 631.077C83.4521 609.254 72.7212 579.667 72.6866 548.804C72.6866 544.394 74.218 540.164 76.9439 537.045C79.6698 533.926 83.3669 532.174 87.2219 532.174C91.0769 532.174 94.7741 533.926 97.5 537.045C100.226 540.164 101.757 544.394 101.757 548.804C101.78 570.85 109.445 591.984 123.069 607.573C136.694 623.161 155.166 631.93 174.434 631.956C178.289 631.956 181.986 633.709 184.712 636.827C187.438 639.946 188.969 644.176 188.969 648.587C188.969 652.998 187.438 657.228 184.712 660.346C181.986 663.465 178.289 665.217 174.434 665.217ZM363.393 548.804C336.418 548.765 310.559 536.487 291.485 514.664C272.411 492.841 261.68 463.254 261.646 432.391C261.646 427.981 263.177 423.751 265.903 420.632C268.629 417.513 272.326 415.761 276.181 415.761C280.036 415.761 283.733 417.513 286.459 420.632C289.185 423.751 290.716 427.981 290.716 432.391C290.739 454.437 298.404 475.571 312.028 491.16C325.653 506.748 344.125 515.517 363.393 515.543C367.248 515.543 370.945 517.296 373.671 520.414C376.397 523.533 377.928 527.763 377.928 532.174C377.928 536.585 376.397 540.815 373.671 543.933C370.945 547.052 367.248 548.804 363.393 548.804ZM566.887 648.587C563.032 648.587 559.335 646.835 556.609 643.716C553.883 640.597 552.352 636.367 552.352 631.956C552.352 627.546 553.883 623.316 556.609 620.197C559.335 617.078 563.032 615.326 566.887 615.326C586.155 615.3 604.627 606.531 618.252 590.942C631.876 575.354 639.541 554.219 639.564 532.174C639.564 527.763 641.095 523.533 643.821 520.414C646.547 517.296 650.244 515.543 654.099 515.543C657.954 515.543 661.651 517.296 664.377 520.414C667.103 523.533 668.634 527.763 668.634 532.174C668.6 563.036 657.869 592.623 638.795 614.447C619.721 636.27 593.862 648.547 566.887 648.587Z" fill="black"/>
<path d="M348.858 99.7826C372.94 99.7826 392.464 77.4455 392.464 49.8913C392.464 22.3371 372.94 0 348.858 0C324.775 0 305.252 22.3371 305.252 49.8913C305.252 77.4455 324.775 99.7826 348.858 99.7826Z" fill="black"/>
<path d="M502.074 121.103L538.064 166.304H577.6L523.732 98.6351C517.913 107.721 510.546 115.364 502.074 121.103Z" fill="black"/>
<path d="M87.222 216.196C87.222 220.606 88.7534 224.836 91.4793 227.955C94.2052 231.074 97.9023 232.826 101.757 232.826H712.24C716.095 232.826 719.793 231.074 722.518 227.955C725.244 224.836 726.776 220.606 726.776 216.196C726.776 211.785 725.244 207.555 722.518 204.436C719.793 201.317 716.095 199.565 712.24 199.565H101.757C97.9023 199.565 94.2052 201.317 91.4793 204.436C88.7534 207.555 87.222 211.785 87.222 216.196Z" fill="black"/>
<path d="M311.923 121.103C303.452 115.364 296.084 107.721 290.266 98.6351L236.398 166.304H275.934L311.923 121.103Z" fill="black"/>
</svg>
