<svg width="790" height="816" viewBox="0 0 790 816" fill="none" xmlns="http://www.w3.org/2000/svg">
<path d="M4.72808 480.322C4.69526 480.357 37.2821 553.668 37.2821 553.737C53.5919 594.102 117.453 605.349 172.421 599.864C268.151 688.765 444.01 771.882 567.043 782.948C567.174 782.983 567.305 782.983 567.47 782.983C624.308 789.745 691.939 780.119 709.338 737.582L741.892 664.201C774.413 577.918 642.356 474.59 563.698 425.396C618.764 379.615 679.145 302.474 654.529 251.17L621.975 177.789C569.403 80.4357 354.293 151.949 256.497 200.904C157.818 248.272 -32.3541 375.303 4.72808 480.322ZM563.136 765.15C532.748 761.631 499.702 754.317 465.34 743.657L490.51 686.94C524.607 697.6 557.522 705.086 588.072 708.95L563.136 765.15ZM358.655 701.464L383.858 644.644C413.393 658.789 444.897 671.726 474.69 681.8L449.52 738.551C419.788 728.547 389.204 716.092 358.655 701.464ZM258.364 644.816L283.567 588.03C311.1 606.177 339.65 622.633 369.022 637.295L343.819 694.15C313.529 678.935 284.848 662.376 258.397 644.816H258.364ZM532.254 221.716C541.311 242.14 537.045 265.22 521.359 280.538C454.676 346.605 338.67 411.603 241.957 442.338C237.757 443.753 233.031 441.234 231.685 436.646C230.34 432.092 232.768 427.262 237.1 425.847C330.889 396.074 444.631 332.53 509.184 268.878C533.305 246.936 516.273 205.848 484.441 209.781C368.927 223.684 202.183 305.377 117.551 389.147C104.326 400.98 104.228 418.126 109.314 429.028C114.072 439.793 125.262 450.453 142.295 448.245C152.993 447.175 155.158 463.528 144.329 465.357C97.8279 472.291 70.3607 408.708 106.426 376.455C193.033 290.655 362.759 207.439 480.961 192.849C502.587 189.365 523.065 200.75 532.287 221.691L532.254 221.716ZM344.214 469.424C350.416 466.629 356.586 463.766 362.755 460.833L387.958 517.654C357.176 532.351 326.558 544.702 297.025 554.569L271.92 497.955C295.679 489.916 319.931 480.36 344.216 469.389L344.214 469.424ZM507.118 626.605C453.201 610.425 396.989 583.756 346.743 554.605C353.273 551.948 359.869 549.188 366.466 546.325C411.883 571.957 461.96 594.314 509.544 609.769C518.535 612.874 516.37 626.536 507.115 626.64L507.118 626.605ZM602.285 649.202C591.555 647.408 593.49 631.055 604.32 632.09C635.332 636.023 652.888 596.417 630.081 573.993C594.803 539.632 548.63 506.409 495.202 476.737C500.551 473.218 505.802 469.63 510.954 466.042C562.148 495.229 606.684 527.693 641.137 561.259C675.758 594.723 648.487 655.548 602.249 649.197L602.285 649.202ZM416.186 503.476C411.755 505.788 407.292 508.099 402.83 510.307L377.626 453.486C406.899 438.789 436.598 421.746 463.082 404.221L488.219 460.904C465.609 475.911 441.423 490.229 416.187 503.442L416.186 503.476ZM256.104 503.097L281.176 559.641C246.26 570.44 213.147 577.65 183.413 581.168L158.538 525.106C189.058 521.242 221.977 513.792 256.104 503.097ZM544.562 419.4C531.239 430.268 517.16 441.066 502.13 451.485L476.992 394.802C506.692 374.206 533.305 352.471 555.719 330.391L580.66 386.591C569.667 397.631 557.59 408.602 544.562 419.365V419.4ZM52.1519 546.429L37.4501 513.31C69.3808 529.007 106.037 529.559 141.22 526.903L166.029 582.826C107.616 587.035 64.9895 575.34 52.1528 546.395L52.1519 546.429ZM268.285 581.688L244.461 635.369C226.838 623.053 210.266 610.357 195.072 597.35C217.978 594.176 242.557 588.932 268.285 581.688ZM694.445 730.275C682.27 757.703 640.823 770.95 580.51 766.776L605.352 710.783C639.677 713.44 675.907 712.75 707.147 698.156C707.803 697.846 708.46 697.501 709.116 697.156L694.414 730.275L694.445 730.275ZM593.011 373.653L568.169 317.661C593.766 289.647 615.588 261.427 624.974 225.341L639.676 258.461C651.851 285.888 634.852 327.771 593.043 373.655L593.011 373.653Z" fill="black"/>
<path d="M163.92 645.258C158.538 617.899 122.211 617.865 116.795 645.258C112.201 670.511 92.9381 690.762 68.9162 695.592C42.8923 701.25 42.8595 739.441 68.9162 745.134C92.9381 749.964 112.201 770.214 116.795 795.468C122.21 822.861 158.505 822.827 163.92 795.468C168.514 770.18 187.777 749.964 211.799 745.134C237.823 739.476 237.856 701.285 211.799 695.592C187.777 690.762 168.515 670.511 163.92 645.258ZM215.081 720.363C215.081 724.158 212.423 727.435 208.747 728.194C178.162 734.37 153.681 760.106 147.84 792.225C146.199 800.988 134.615 801.057 132.941 792.225C127.067 760.072 102.586 734.335 72.0337 728.194C63.6655 726.435 63.6655 714.291 72.0337 712.532C102.619 706.356 127.1 680.62 132.941 648.501C134.615 639.703 146.166 639.703 147.84 648.501C153.714 680.654 178.195 706.391 208.747 712.532C212.423 713.256 215.081 716.568 215.081 720.363Z" fill="black"/>
<path d="M612.855 117.35C636.089 122.042 654.663 141.569 659.126 165.994C664.409 192.801 700.015 192.87 705.332 165.994C709.795 141.569 728.369 122.042 751.603 117.35C777.134 111.761 777.134 74.3637 751.603 68.7749C728.369 64.083 709.794 44.5561 705.332 20.1307C700.048 -6.67578 664.442 -6.74467 659.126 20.1307C654.663 44.5561 636.089 64.0834 612.855 68.7749C587.356 74.3293 587.29 111.761 612.855 117.35ZM615.939 85.7144C645.704 79.7115 669.529 54.6651 675.239 23.3738C676.781 15.1629 687.644 15.0939 689.219 23.3738C694.929 54.6651 718.754 79.7114 748.519 85.7144C756.395 87.3704 756.362 98.7556 748.519 100.412C718.754 106.414 694.929 131.461 689.219 162.752C687.644 170.998 676.814 170.998 675.239 162.752C669.529 131.461 645.704 106.415 615.939 100.412C608.129 98.7901 608.063 87.3704 615.939 85.7144Z" fill="black"/>
<path d="M773.583 373.987C756.125 370.468 742.178 355.771 738.831 337.452C734.302 314.475 703.75 314.44 699.188 337.452C695.841 355.805 681.893 370.468 664.435 373.987C642.546 378.748 642.546 410.867 664.435 415.663C681.893 419.181 695.841 433.878 699.188 452.197C703.716 475.174 734.269 475.209 738.831 452.197C742.178 433.844 756.125 419.181 773.583 415.663C795.439 410.902 795.505 378.782 773.583 373.987ZM770.498 398.723C746.509 403.553 727.312 423.735 722.718 448.954C721.963 453.37 716.089 453.405 715.334 448.954C710.739 423.735 691.542 403.553 667.553 398.723C663.352 397.929 663.32 391.754 667.553 390.961C691.542 386.131 710.739 365.949 715.334 340.729C716.089 336.313 721.963 336.279 722.718 340.729C727.312 365.949 746.509 386.13 770.498 390.961C774.699 391.754 774.732 397.929 770.498 398.723Z" fill="black"/>
</svg>
