<svg width="812" height="811" viewBox="0 0 812 811" fill="none" xmlns="http://www.w3.org/2000/svg">
<path d="M406 0C325.701 0 247.205 23.7821 180.439 68.339C113.672 112.896 61.6343 176.226 30.9051 250.322C0.175911 324.417 -7.86424 405.95 7.80136 484.609C23.467 563.268 62.1347 635.521 118.915 692.232C175.695 748.942 248.037 787.562 326.793 803.208C405.55 818.855 487.183 810.824 561.37 780.133C635.556 749.442 698.965 697.468 743.577 630.784C788.189 564.099 812 485.7 812 405.5C811.857 297.998 769.037 194.941 692.928 118.925C616.819 42.9102 513.634 0.142358 406 0ZM424.27 37.2553C509.425 41.539 590.473 75.1182 653.66 132.294L614.836 171.07C562.133 123.887 494.933 96.0031 424.27 91.9978V37.2553ZM92.1114 387.252H37.3014C41.5917 302.203 75.2121 221.255 132.458 158.145L171.281 196.921C124.04 249.559 96.1219 316.676 92.1114 387.252ZM387.73 773.744C302.575 769.461 221.527 735.882 158.34 678.705L197.164 639.929C249.867 687.113 317.067 714.997 387.73 719.002V773.744ZM127.636 405.5C127.636 350.513 143.962 296.76 174.549 251.04C205.136 205.319 248.611 169.685 299.475 148.642C350.339 127.599 406.309 122.094 460.306 132.821C514.303 143.549 563.903 170.028 602.833 208.909C641.763 247.791 668.274 297.33 679.015 351.261C689.756 405.191 684.243 461.092 663.175 511.894C642.106 562.696 606.427 606.116 560.651 636.666C514.874 667.215 461.055 683.521 406 683.521C332.196 683.447 261.436 654.132 209.249 602.009C157.062 549.886 127.71 479.213 127.636 405.5ZM679.543 652.855L640.719 614.079C687.96 561.441 715.878 494.324 719.889 423.747H774.699C770.408 508.797 736.788 589.745 679.543 652.855Z" fill="black"/>
<path d="M465.631 255.718L397.88 323.386L378.595 304.125C375.153 300.715 370.502 298.802 365.654 298.802C360.806 298.802 356.154 300.715 352.713 304.125C351.024 305.802 349.684 307.796 348.769 309.993C347.854 312.189 347.384 314.545 347.384 316.924C347.384 319.302 347.854 321.658 348.769 323.854C349.684 326.051 351.024 328.045 352.713 329.722L372.251 349.237L256.034 465.058C254.328 466.749 252.978 468.763 252.063 470.983C251.148 473.203 250.686 475.583 250.705 477.983V542.356C250.695 544.755 251.161 547.132 252.075 549.351C252.99 551.569 254.335 553.585 256.034 555.281C257.732 556.978 259.75 558.322 261.972 559.235C264.193 560.148 266.573 560.614 268.975 560.604H333.428C335.831 560.623 338.214 560.162 340.436 559.248C342.659 558.334 344.676 556.985 346.369 555.281L462.333 439.207L481.871 458.722C483.568 460.416 485.583 461.758 487.801 462.672C490.018 463.585 492.395 464.053 494.793 464.046C497.192 464.04 499.566 463.561 501.779 462.636C503.992 461.71 506 460.358 507.688 458.655C509.376 456.953 510.71 454.934 511.615 452.715C512.519 450.496 512.976 448.12 512.958 445.724C512.941 443.328 512.45 440.96 511.513 438.754C510.576 436.548 509.213 434.549 507.5 432.871L488.215 413.61L555.966 345.942C561.918 340.029 566.641 333 569.863 325.258C573.086 317.516 574.745 309.215 574.745 300.83C574.745 292.446 573.086 284.144 569.863 276.402C566.641 268.661 561.918 261.631 555.966 255.718C543.792 244.128 527.618 237.662 510.799 237.662C493.979 237.662 477.805 244.128 465.631 255.718ZM325.815 524.109H287.245V485.586L397.88 374.834L436.704 413.61L325.815 524.109Z" fill="black"/>
</svg>
