<svg width="679" height="797" viewBox="0 0 679 797" fill="none" xmlns="http://www.w3.org/2000/svg">
<path d="M102.58 561.113C105.151 555.685 103.271 548.973 98.3799 546.119C93.4889 543.267 87.4402 545.353 84.869 550.781C82.2983 556.209 84.1788 562.921 89.0699 565.775C93.9609 568.628 100.01 566.54 102.58 561.113Z" fill="black"/>
<path d="M125.962 620.795C126.755 623.631 128.496 625.95 130.854 627.323C131.685 627.807 132.589 627.954 133.481 628.148C137.069 628.985 140.676 627.585 143.048 624.436C143.497 623.852 144.037 623.365 144.366 622.67C144.999 621.335 145.361 619.905 145.473 618.448C145.817 614.122 143.85 609.789 140.168 607.642C140.039 607.567 139.897 607.579 139.766 607.511C138.866 607.04 137.915 606.752 136.94 606.593C136.597 606.538 136.274 606.47 135.931 606.455C135.793 606.448 135.659 606.398 135.521 606.398C134.563 606.398 133.632 606.558 132.741 606.843C132.457 606.934 132.215 607.109 131.939 607.228C131.145 607.568 130.405 608.005 129.716 608.556C129.399 608.809 129.108 609.063 128.818 609.358C128.058 610.128 127.388 611.003 126.86 612.027C126.806 612.134 126.71 612.194 126.657 612.303C126.256 613.151 126.15 614.056 125.96 614.948C125.845 615.474 125.592 615.97 125.549 616.507C125.442 617.873 125.6 619.231 125.937 620.529C125.959 620.616 125.937 620.708 125.962 620.795Z" fill="black"/>
<path d="M221.402 668.173C226.293 671.026 232.342 668.939 234.913 663.512C237.484 658.084 235.603 651.371 230.713 648.518C225.822 645.665 219.772 647.752 217.201 653.18C214.631 658.608 216.511 665.32 221.402 668.173Z" fill="black"/>
<path d="M275.933 609.211C280.824 612.064 286.873 609.977 289.443 604.549C292.015 599.122 290.134 592.409 285.243 589.555C280.352 586.703 274.303 588.79 271.732 594.217C269.161 599.645 271.042 606.357 275.933 609.211Z" fill="black"/>
<path d="M388.08 611.558C391.519 606.758 390.8 599.774 386.476 595.958C382.151 592.142 375.857 592.939 372.418 597.739C368.979 602.538 369.698 609.523 374.023 613.339C378.348 617.154 384.642 616.357 388.08 611.558Z" fill="black"/>
<path d="M419.479 671.868C422.918 667.068 422.199 660.084 417.874 656.267C413.549 652.452 407.256 653.249 403.816 658.048C400.378 662.848 401.097 669.832 405.421 673.649C409.747 677.465 416.041 676.667 419.479 671.868Z" fill="black"/>
<path d="M538.154 639.557C541.593 634.757 540.874 627.773 536.549 623.957C532.224 620.14 525.93 620.938 522.492 625.738C519.053 630.537 519.771 637.522 524.097 641.338C528.421 645.153 534.715 644.356 538.154 639.557Z" fill="black"/>
<path d="M506.453 578.307C509.891 573.506 509.173 566.522 504.848 562.706C500.523 558.891 494.229 559.688 490.79 564.487C487.352 569.287 488.07 576.271 492.395 580.088C496.72 583.903 503.014 583.106 506.453 578.307Z" fill="black"/>
<path d="M578.106 585.241C581.544 580.441 580.826 573.457 576.501 569.641C572.176 565.825 565.882 566.622 562.443 571.422C559.005 576.221 559.723 583.206 564.048 587.022C568.373 590.838 574.667 590.04 578.106 585.241Z" fill="black"/>
<path d="M335.73 659.68C339.169 654.881 338.45 647.896 334.125 644.081C329.8 640.264 323.506 641.062 320.068 645.862C316.628 650.661 317.347 657.645 321.672 661.461C325.998 665.278 332.291 664.48 335.73 659.68Z" fill="black"/>
<path d="M467.554 632.599C470.993 627.8 470.274 620.815 465.949 616.999C461.624 613.183 455.33 613.98 451.892 618.78C448.453 623.579 449.172 630.564 453.497 634.38C457.822 638.196 464.116 637.399 467.554 632.599Z" fill="black"/>
<path d="M123.072 156.79C123.894 156.895 124.702 156.944 125.489 156.944C134.291 156.944 140.675 150.521 144.49 137.829C149.957 119.627 148.516 91.3094 147.642 79.9746L146.434 64.2687L140.537 78.6174C134.698 92.8201 123.268 111.499 115.253 123.181C107.703 134.177 108.264 142.062 110.062 146.732C112.166 152.194 117.153 156.047 123.072 156.79ZM121.179 128.19C127.353 119.206 134.924 107.096 140.966 95.5107C141.36 111.952 140.122 126.211 137.414 135.211C133.562 148.065 128.168 149.107 123.902 148.566C121.47 148.267 118.179 146.748 116.92 143.484C115.479 139.727 116.993 134.298 121.179 128.19Z" fill="black"/>
<path d="M555.932 160.313C556.769 160.418 557.577 160.466 558.371 160.466C567.166 160.466 573.543 154.051 577.365 141.351C582.825 123.165 581.384 94.84 580.51 83.497L579.301 67.7912L573.404 82.1398C567.566 96.3425 556.136 115.022 548.12 126.704C540.571 137.708 541.131 145.593 542.937 150.262C545.04 155.732 550.027 159.577 555.932 160.313ZM554.046 131.713C560.22 122.729 567.791 110.61 573.841 99.0332C574.227 115.482 572.989 129.75 570.289 138.733C566.415 151.595 560.97 152.613 556.769 152.088C554.337 151.789 551.047 150.279 549.787 147.006C548.339 143.258 549.853 137.829 554.046 131.713Z" fill="black"/>
<path d="M273.073 92.5131C273.896 92.6104 274.704 92.6666 275.49 92.6666C284.285 92.6666 290.67 86.2519 294.492 73.5518C299.966 55.3332 298.518 27.0245 297.637 15.6972L296.421 0L290.532 14.34C284.715 28.5027 273.656 46.6484 265.247 58.9043C257.698 69.8921 258.258 77.7769 260.056 82.4468C262.168 87.9161 267.147 91.7699 273.073 92.5131ZM271.173 63.9131C277.347 54.9132 284.926 42.7946 290.968 31.2171C291.361 47.6581 290.124 61.9256 287.415 70.9342C283.557 83.7878 278.177 84.8299 273.903 84.2888C271.464 83.99 268.174 82.4711 266.914 79.199C265.473 75.4501 266.987 70.0213 271.173 63.9131Z" fill="black"/>
<path d="M339.811 462.098C503.536 462.098 636.742 392.4 636.742 306.729C636.742 271.496 615.074 238.447 574.125 211.017V180.567C574.125 173.724 569.109 168.158 562.943 168.158H551.534C545.368 168.158 540.352 173.724 540.352 180.567V192.09C507.187 176.135 467.259 164.306 424.163 157.734C424.488 148.252 424.296 137.916 423.446 126.696L422.253 110.917L416.341 125.331C412.884 133.758 407.437 144.169 401.005 154.745C364.704 150.756 326.489 150.416 291.063 153.584V112.727C291.063 105.884 286.047 100.317 279.881 100.317H268.698C262.532 100.317 257.515 105.884 257.515 112.727V157.452C214.594 163.779 174.622 175.355 141.214 191.07V177.012C141.214 170.169 136.198 164.603 130.031 164.603H118.703C112.537 164.603 107.521 170.169 107.521 177.012V209.591C65.1982 237.293 42.8073 270.845 42.8073 306.729C42.8073 392.4 176.043 462.098 339.811 462.098ZM545.943 178.672C545.943 176.324 547.949 174.409 550.407 174.409H564.07C566.529 174.409 568.534 176.324 568.534 178.672V311.231H545.943V178.672ZM557.166 377.112C559.073 378.066 559.91 380.498 559.095 382.663C558.272 384.61 556.292 385.797 554.196 384.707L510.98 363.176C509.094 362.271 508.272 359.863 509.08 357.779C509.721 356.236 511.075 355.315 512.494 355.315C513.004 355.315 513.521 355.436 514.016 355.686L557.166 377.112ZM531.601 292.221C531.965 293.239 531.958 294.337 531.586 295.283C530.742 297.375 528.841 298.595 526.621 297.472L483.231 276.628C481.346 275.723 480.479 273.259 481.302 271.142C481.906 269.583 483.297 268.646 484.745 268.646C485.247 268.646 485.75 268.759 486.238 268.993L529.606 289.918C530.516 290.363 531.222 291.178 531.601 292.221ZM471.306 199.012L471.314 198.988C471.918 197.429 473.301 196.5 474.75 196.5C475.253 196.5 475.755 196.613 476.25 196.847L519.611 217.675C521.511 218.612 522.392 221.076 521.598 223.128C520.769 225.189 518.475 226.085 516.641 225.326L473.265 204.401C471.401 203.496 470.506 201.024 471.306 199.012ZM439.536 241.483C441.574 240.926 443.554 242.226 444.078 244.481L455.916 295.217C456.186 296.445 456.026 297.617 455.516 298.489C455.093 299.167 454.366 300.024 453.223 300.331C452.247 300.614 451.286 300.46 450.434 299.903C449.56 299.337 448.949 298.432 448.694 297.342L436.827 246.532C436.318 244.383 437.555 242.073 439.536 241.483ZM429.882 395.535L456.79 352.352C457.358 351.447 458.202 350.841 459.178 350.639C459.396 350.599 459.615 350.575 459.833 350.575C460.583 350.575 461.325 350.833 461.981 351.342C462.789 351.956 463.335 352.894 463.51 353.968C463.684 355.051 463.466 356.149 462.891 357.07L435.954 400.293C434.898 402.031 432.62 402.62 430.792 401.271C430.006 400.673 429.475 399.744 429.292 398.67C429.11 397.555 429.322 396.44 429.882 395.535ZM320.496 417.687C319.986 419.343 318.523 420.507 316.943 420.507C316.703 420.507 316.259 420.458 315.749 420.313L266.498 401.876C264.526 401.117 263.484 398.774 264.103 396.633C264.649 394.872 266.127 393.781 267.7 393.781C268.086 393.781 268.471 393.846 268.857 393.984L318.108 412.428C320.11 413.195 321.158 415.506 320.496 417.687ZM394.362 179.533C397.784 174.589 401.715 168.481 406.047 161.379L409.39 155.635C412.062 151.091 414.604 146.586 416.807 142.296C416.964 147.786 416.921 152.965 416.745 157.909L416.61 161.089C416.137 172.011 414.892 180.979 412.912 187.709C408.602 202.13 402.494 203.342 397.638 202.76C394.704 202.389 391.049 200.643 389.601 196.854C387.948 192.556 389.644 186.4 394.362 179.533ZM387.692 225.748C387.692 223.378 389.588 221.519 392.004 221.519H405.193C407.611 221.519 409.505 223.378 409.505 225.748V357.604H387.692V225.748ZM358.919 364.98C359.349 365.958 359.407 367.064 359.087 368.083L359.072 368.131C358.57 369.804 357.15 370.926 355.527 370.926C355.33 370.926 354.886 370.894 354.34 370.733L305.024 352.264C303.145 351.585 302.083 349.202 302.694 347.125C303.24 345.373 304.711 344.282 306.283 344.282C306.669 344.282 307.062 344.346 307.448 344.483L356.713 362.847C357.689 363.211 358.475 363.971 358.919 364.98ZM338.799 184.76C339.331 183.831 340.168 183.193 341.129 182.95C341.406 182.886 341.682 182.853 341.952 182.853C342.672 182.853 343.364 183.079 343.968 183.516C344.791 184.114 345.358 185.035 345.563 186.149L355.485 237.476C355.704 238.55 355.529 239.649 354.998 240.57C354.466 241.491 353.644 242.129 352.668 242.372C351.605 242.639 350.782 242.307 350.156 241.944C349.13 241.402 348.453 240.449 348.235 239.189L338.311 187.862C338.093 186.78 338.268 185.681 338.799 184.76ZM322.384 274.737C322.908 274.471 323.454 274.35 323.985 274.35C325.39 274.35 326.715 275.214 327.356 276.685C328.207 278.736 327.37 281.257 325.507 282.211L282.633 304.469C281.053 305.276 278.534 304.444 277.697 302.424C276.831 300.34 277.654 297.908 279.532 296.906L322.384 274.737ZM262.861 110.928C262.861 108.584 264.914 106.672 267.432 106.672H281.146C283.664 106.672 285.717 108.584 285.717 110.928V243.296H262.861V110.928ZM183.765 302.715C182.935 302.198 182.338 301.341 182.091 300.291C181.829 299.225 181.967 298.126 182.462 297.197L206.261 251.744C206.967 250.403 208.205 249.668 209.479 249.668C210.112 249.668 210.76 249.854 211.35 250.233C213.133 251.413 213.752 253.966 212.711 255.929L188.956 301.236C187.886 303.224 185.826 304.129 183.765 302.715ZM233.782 349.686C234.197 349.686 234.619 349.767 235.027 349.928C235.966 350.308 236.716 351.068 237.131 352.061C237.997 354.162 237.211 356.642 235.376 357.579L192.394 379.813C190.807 380.702 188.412 379.853 187.516 377.745C187.087 376.759 187.043 375.644 187.378 374.61C187.72 373.568 188.397 372.743 189.307 372.275L232.217 350.082C232.712 349.824 233.243 349.686 233.782 349.686ZM169.279 218.497L208.569 189.13C210.257 187.83 212.534 188.325 213.703 190.187C214.546 191.606 214.536 193.368 213.787 194.706C213.518 195.186 213.152 195.61 212.699 195.944L173.524 225.305C171.788 226.599 169.485 226.105 168.258 224.194C167.202 222.39 167.338 219.897 169.279 218.497ZM112.902 174.814C112.902 172.455 114.946 170.531 117.453 170.531H131.283C133.833 170.531 135.833 172.413 135.833 174.814V308H112.902V174.814ZM97.5174 353.809L140.369 331.648C140.886 331.389 141.432 331.252 141.978 331.252C142.429 331.252 142.88 331.341 143.31 331.518C144.22 331.898 144.941 332.625 145.341 333.586C145.771 334.629 145.814 335.784 145.458 336.85C145.115 337.861 144.46 338.66 143.579 339.112L100.626 361.33C98.7769 362.34 96.5783 361.282 95.7557 359.335C94.8819 357.226 95.6753 354.794 97.5174 353.809Z" fill="black"/>
<path d="M667.729 543.267C659.512 524.843 647.384 508.886 633.456 495.448C634.317 489.485 635.155 480.634 635.832 467.285C636.502 453.801 636.742 440.883 636.749 433.894L636.742 354.406C597.238 421.618 499.415 476.343 339.797 476.343C180.141 476.343 74.651 424.238 42.8073 352.557C42.8195 381.439 42.235 410.372 42.9471 439.239C43.176 448.557 43.4103 457.88 44.0059 467.18C44.3069 471.876 44.2441 476.501 44.7804 481.171C45.0487 483.505 45.4257 486.246 45.7701 488.57C46.0667 490.573 46.4471 492.443 47.1723 494.104C47.2069 494.181 47.1742 494.278 47.1757 494.365C25.7272 514.766 7.21905 541.776 2.09132 573.227C-3.184 605.576 1.35051 639.286 17.6367 666.823C31.5324 690.319 51.4131 708.965 72.5557 724.064C98.9371 742.904 128.104 756.763 157.912 767.386C193.014 779.896 229.383 787.924 265.997 792.481C290.494 795.53 315.147 797 339.797 797C397.451 797 455.544 789.223 510.917 771.066C554.363 756.822 598.023 736.052 632.68 702.988C662.023 674.995 679.986 634.459 678.958 593.222C678.539 576.42 674.969 559.501 667.729 543.267ZM60.7164 505.379C61.5789 505.378 62.423 505.407 63.3664 505.273C68.0841 504.619 73.4207 501.871 80.4533 486.384C81.6544 483.782 82.4332 481.698 83.2052 479.621C84.4063 476.406 85.5348 473.377 88.4104 468.109C90.1867 464.797 92.6186 460.248 96.0401 459.036C101.093 457.299 104.718 458.657 107.885 463.456C111.038 468.157 112.144 474.637 115.799 496.103L117.043 503.382C118.15 509.878 119.745 514.661 122.497 519.581C127.017 527.563 133.468 532.176 140.675 532.58C149.433 532.758 154.515 527.11 156.655 524.646C161.926 518.32 163.746 515.089 167.365 508.65C168.872 505.976 170.713 502.704 173.283 498.349C176.581 492.815 179.828 489.874 183.228 489.373C185.179 489.034 188.608 491.555 193.493 505.135C195.597 511.049 197.155 516.648 198.655 522.061C201.684 532.96 204.545 543.261 211.243 552.325C216.717 559.798 223.808 563.983 232.253 564.759C235.078 565.058 242.482 565.001 250.92 557.859C254.968 554.442 255.732 553.424 263.107 543.672L270.212 534.301C277.493 524.735 286.229 518.232 293.603 516.899C299.988 515.687 304.262 518.151 308.943 525.616C311.491 529.696 312.911 536.854 314.41 544.432C316.034 552.608 317.861 561.842 321.611 569.63L322.098 570.649C325.84 577.944 332.451 582.291 339.789 582.291C339.797 582.291 339.811 582.291 339.818 582.291C347.004 582.274 353.484 578.081 357.226 571.052L358.026 570.083V569.421C361.688 561.754 363.494 553.085 365.103 545.401C366.602 538.211 368.022 531.417 370.599 527.321C375.193 519.944 379.605 517.391 385.982 518.547C392.79 519.831 397.893 529.155 402.829 538.179L407.43 546.565C416.829 563.757 418.525 566.851 423.417 571.456C428.215 575.989 435.903 581.249 445.251 580.158C459.425 578.922 468.052 567.861 468.467 567.328C475.041 558.377 477.903 548.108 480.924 537.225C482.431 531.813 483.989 526.214 486.1 520.3C486.653 518.749 489.842 511.017 496.336 512.075C499.721 512.617 503.048 515.638 506.237 521.035C508.72 525.244 510.518 528.443 511.988 531.061C515.687 537.63 517.543 540.926 522.923 547.332C524.627 549.401 529.556 555.759 538.911 555.274C546.235 554.919 552.729 550.241 557.235 542.024C559.878 537.185 561.399 532.564 562.491 526.093C564.355 515.234 565.622 505.467 566.736 496.846C568.33 484.55 569.706 473.934 571.657 470.993C574.861 466.203 578.508 464.845 583.48 466.574C586.851 467.754 589.137 471.938 591.19 475.695C594.058 480.939 595.194 483.976 596.395 487.192C597.167 489.26 597.946 491.336 599.133 493.922C606.18 509.466 611.524 512.221 616.467 512.916C617.302 513.025 618.079 512.993 618.87 512.995V563.652C618.87 641.776 493.679 705.343 339.797 705.343C185.915 705.343 60.7164 641.776 60.7164 563.652L60.7164 505.379ZM339.797 771.841C156.874 771.841 8.05143 690.526 8.05143 590.572C8.05143 559.436 22.9909 528.802 51.0702 501.703C51.7667 502.345 52.4827 502.946 53.2615 503.426V563.652C53.2615 646.341 181.801 713.616 339.797 713.616C497.792 713.616 626.324 646.341 626.324 563.652V510.991C627.495 510.261 628.592 509.422 629.535 508.375C630.042 507.813 630.741 507.004 631.512 504.694C657.624 531.041 671.541 560.59 671.541 590.572C671.541 690.526 522.72 771.841 339.797 771.841Z" fill="black"/>
<path d="M184.487 596.239C187.051 597.045 189.801 596.662 192.124 595.208C193.237 594.543 194.25 593.66 195.059 592.535C195.909 591.342 196.499 589.991 196.85 588.564C197.12 587.494 197.112 586.391 197.087 585.297C197.079 584.981 197.188 584.684 197.155 584.367V584.367C196.875 581.523 195.62 578.796 193.444 576.875C193.053 576.529 192.583 576.419 192.163 576.148C191.561 575.763 190.983 575.345 190.325 575.106C189.674 574.868 189.022 574.817 188.35 574.733C187.968 574.683 187.604 574.518 187.218 574.518C187.033 574.518 186.857 574.575 186.674 574.586C186.282 574.61 185.915 574.655 185.528 574.729C184.553 574.914 183.613 575.22 182.74 575.706C182.464 575.86 182.227 576.066 181.963 576.249C181.124 576.829 180.351 577.526 179.685 578.377C179.597 578.49 179.471 578.538 179.386 578.656C177.663 581.061 176.987 584.014 177.283 586.844C177.284 586.856 177.279 586.868 177.28 586.879C177.579 589.82 178.896 592.462 180.993 594.32C182.035 595.239 183.23 595.874 184.487 596.239Z" fill="black"/>
</svg>
