<svg width="802" height="827" viewBox="0 0 802 827" fill="none" xmlns="http://www.w3.org/2000/svg">
<path d="M102.383 579.851V648.195C119.232 631.368 137.688 633.879 138.949 633.626C156.738 633.626 172.432 643.794 181.609 659.18C190.786 643.792 206.479 633.626 224.268 633.626H226.707C244.496 633.626 260.188 643.794 269.364 659.18C278.543 643.792 294.235 633.626 312.024 633.626H314.462C332.252 633.626 347.943 643.794 357.122 659.182C366.301 643.792 381.994 633.626 399.783 633.626H402.22C420.009 633.626 435.701 643.794 444.88 659.18C454.058 643.792 469.75 633.626 487.539 633.626H489.978C507.767 633.626 523.459 643.794 532.637 659.18C541.816 643.792 557.508 633.626 575.297 633.626H577.735C595.524 633.626 611.216 643.794 620.395 659.18C629.573 643.792 645.265 633.626 663.054 633.626C664.329 633.883 682.763 631.362 699.62 648.195V579.851H102.383Z" fill="black"/>
<path d="M554.627 275.667C572.068 244.014 564.07 205.299 537.511 182.719C510.806 205.425 503.043 244.206 520.391 275.667H554.627Z" fill="black"/>
<path d="M725.213 218.632C748.735 218.632 767.872 197.311 767.872 171.103C767.872 144.896 748.735 123.575 725.213 123.575C701.69 123.575 682.553 144.896 682.553 171.103C682.553 197.311 701.69 218.632 725.213 218.632Z" fill="black"/>
<path d="M102.383 560.839H699.617V485.744C699.617 443.287 668.615 408.747 630.509 408.747C486.131 408.747 314.747 408.747 171.491 408.747C133.386 408.747 102.383 443.287 102.383 485.744V560.839ZM656.957 494.299C666.378 494.299 674.021 502.81 674.021 513.31C674.021 523.81 666.378 532.322 656.957 532.322C647.533 532.322 639.894 523.81 639.894 513.31C639.894 502.81 647.533 494.299 656.957 494.299ZM605.766 494.299C615.187 494.299 622.83 502.81 622.83 513.31C622.83 523.81 615.187 532.322 605.766 532.322C596.342 532.322 588.702 523.81 588.702 513.31C588.702 502.81 596.342 494.299 605.766 494.299ZM554.574 494.299C563.995 494.299 571.638 502.81 571.638 513.31C571.638 523.81 563.995 532.322 554.574 532.322C545.15 532.322 537.511 523.81 537.511 513.31C537.511 502.81 545.15 494.299 554.574 494.299ZM503.383 494.299C512.804 494.299 520.447 502.81 520.447 513.31C520.447 523.81 512.804 532.322 503.383 532.322C493.959 532.322 486.319 523.81 486.319 513.31C486.319 502.81 493.959 494.299 503.383 494.299ZM452.191 494.299C461.612 494.299 469.255 502.81 469.255 513.31C469.255 523.81 461.612 532.322 452.191 532.322C442.767 532.322 435.128 523.81 435.128 513.31C435.128 502.81 442.767 494.299 452.191 494.299ZM401 494.299C410.421 494.299 418.064 502.81 418.064 513.31C418.064 523.81 410.421 532.322 401 532.322C391.576 532.322 383.936 523.81 383.936 513.31C383.936 502.81 391.576 494.299 401 494.299ZM349.809 494.299C359.228 494.299 366.872 502.81 366.872 513.31C366.872 523.81 359.228 532.322 349.809 532.322C340.384 532.322 332.745 523.81 332.745 513.31C332.745 502.81 340.384 494.299 349.809 494.299ZM298.617 494.299C308.036 494.299 315.681 502.81 315.681 513.31C315.681 523.81 308.036 532.322 298.617 532.322C289.193 532.322 281.553 523.81 281.553 513.31C281.553 502.81 289.193 494.299 298.617 494.299ZM247.426 494.299C256.845 494.299 264.489 502.81 264.489 513.31C264.489 523.81 256.845 532.322 247.426 532.322C238.001 532.322 230.362 523.81 230.362 513.31C230.362 502.81 238.001 494.299 247.426 494.299ZM196.234 494.299C205.653 494.299 213.298 502.81 213.298 513.31C213.298 523.81 205.653 532.322 196.234 532.322C186.81 532.322 179.17 523.81 179.17 513.31C179.17 502.81 186.81 494.299 196.234 494.299ZM145.043 494.299C154.463 494.299 162.106 502.81 162.106 513.31C162.106 523.81 154.463 532.322 145.043 532.322C135.618 532.322 127.979 523.81 127.979 513.31C127.979 502.81 135.618 494.299 145.043 494.299Z" fill="black"/>
<path d="M76.7872 275.667C90.9007 275.667 102.383 262.874 102.383 247.149C102.383 231.425 90.9007 218.632 76.7872 218.632C62.6737 218.632 51.1915 231.425 51.1915 247.149C51.1915 262.874 62.6737 275.667 76.7872 275.667Z" fill="black"/>
<path d="M298.617 307.036C298.617 300.222 293.641 294.678 287.526 294.678C281.611 294.678 245.803 294.678 241.453 294.678C235.338 294.678 230.362 300.222 230.362 307.036V389.736H298.617V307.036Z" fill="black"/>
<path d="M571.638 307.036C571.638 300.222 566.662 294.678 560.547 294.678C556.194 294.678 520.303 294.678 514.474 294.678C508.359 294.678 503.383 300.222 503.383 307.036V389.736H571.638V307.036Z" fill="black"/>
<path d="M281.608 275.667C299.049 244.016 291.044 205.298 264.489 182.719C237.783 205.425 230.02 244.21 247.371 275.667H281.608Z" fill="black"/>
<path d="M383.882 275.667H418.117C435.546 244.041 427.577 205.315 401 182.719C374.293 205.425 366.531 244.21 383.882 275.667Z" fill="black"/>
<path d="M377.964 294.678C371.848 294.678 366.872 300.222 366.872 307.036V389.736H435.128V307.036C435.128 300.222 430.152 294.678 424.036 294.678C418.122 294.678 382.313 294.678 377.964 294.678Z" fill="black"/>
<path d="M136.511 652.638C117.693 652.638 102.383 669.695 102.383 690.661V750.954H173.077V690.661C173.077 669.695 157.767 652.638 138.949 652.638H136.511Z" fill="black"/>
<path d="M224.268 652.638C205.45 652.638 190.141 669.695 190.141 690.661V750.954H260.833V690.661C260.833 669.695 245.523 652.638 226.707 652.638H224.268Z" fill="black"/>
<path d="M663.051 652.638C644.233 652.638 628.923 669.695 628.923 690.661V750.954H699.617V690.661C699.617 669.695 684.307 652.638 665.489 652.638H663.051Z" fill="black"/>
<path d="M312.022 652.638C293.204 652.638 277.895 669.695 277.895 690.661V750.954H348.588V690.661C348.588 669.695 333.279 652.638 314.461 652.638H312.022Z" fill="black"/>
<path d="M487.537 652.638C468.72 652.638 453.41 669.695 453.41 690.661V750.954H524.104V690.661C524.104 669.695 508.794 652.638 489.976 652.638H487.537Z" fill="black"/>
<path d="M575.295 652.638C556.477 652.638 541.167 669.695 541.167 690.661V750.954H611.861V690.661C611.861 669.695 596.551 652.638 577.733 652.638H575.295Z" fill="black"/>
<path d="M399.782 652.638C380.962 652.638 365.652 669.695 365.652 690.661V750.954H436.346V690.661C436.346 669.695 421.036 652.638 402.218 652.638H399.782Z" fill="black"/>
<path d="M298.617 85.5517C303.328 85.5517 307.149 81.295 307.149 76.046V19.0115C307.149 13.7624 303.328 9.50575 298.617 9.50575C293.906 9.50575 290.085 13.7624 290.085 19.0115V76.046C290.085 81.295 293.906 85.5517 298.617 85.5517Z" fill="black"/>
<path d="M375.404 114.069V76.046C375.404 70.7969 371.584 66.5402 366.872 66.5402C362.161 66.5402 358.34 70.7969 358.34 76.046V114.069C358.34 119.318 362.161 123.575 366.872 123.575C371.584 123.575 375.404 119.318 375.404 114.069Z" fill="black"/>
<path d="M452.191 142.586C456.905 142.586 460.723 138.33 460.723 133.08V38.023C460.723 32.7739 456.905 28.5172 452.191 28.5172C447.478 28.5172 443.66 32.7739 443.66 38.023V133.08C443.66 138.33 447.478 142.586 452.191 142.586Z" fill="black"/>
<path d="M554.574 123.575C559.288 123.575 563.106 119.318 563.106 114.069V76.046C563.106 70.7969 559.288 66.5402 554.574 66.5402C549.861 66.5402 546.043 70.7969 546.043 76.046V114.069C546.043 119.318 549.861 123.575 554.574 123.575Z" fill="black"/>
<path d="M213.298 142.586C218.009 142.586 221.83 138.33 221.83 133.08V76.046C221.83 70.7969 218.009 66.5402 213.298 66.5402C208.587 66.5402 204.766 70.7969 204.766 76.046V133.08C204.766 138.33 208.587 142.586 213.298 142.586Z" fill="black"/>
<path d="M76.7872 114.069C86.2113 114.069 93.8511 105.557 93.8511 95.0575C93.8511 84.5577 86.2113 76.046 76.7872 76.046C67.3631 76.046 59.7234 84.5577 59.7234 95.0575C59.7234 105.557 67.3631 114.069 76.7872 114.069Z" fill="black"/>
<path d="M656.957 304.184C666.382 304.184 674.021 295.672 674.021 285.172C674.021 274.673 666.382 266.161 656.957 266.161C647.533 266.161 639.894 274.673 639.894 285.172C639.894 295.672 647.533 304.184 656.957 304.184Z" fill="black"/>
<path d="M366.872 38.023C376.296 38.023 383.936 29.5113 383.936 19.0115C383.936 8.51174 376.296 0 366.872 0C357.448 0 349.809 8.51174 349.809 19.0115C349.809 29.5113 357.448 38.023 366.872 38.023Z" fill="black"/>
<path d="M25.5957 437.264C35.0198 437.264 42.6596 428.753 42.6596 418.253C42.6596 407.753 35.0198 399.241 25.5957 399.241C16.1717 399.241 8.53191 407.753 8.53191 418.253C8.53191 428.753 16.1717 437.264 25.5957 437.264Z" fill="black"/>
<path d="M759.34 551.333C768.765 551.333 776.404 542.822 776.404 532.322C776.404 521.822 768.765 513.31 759.34 513.31C749.916 513.31 742.277 521.822 742.277 532.322C742.277 542.822 749.916 551.333 759.34 551.333Z" fill="black"/>
<path d="M793.468 807.988H750.809V800.384C750.809 783.612 738.56 769.965 723.506 769.965C569.034 769.965 226.428 769.965 78.4936 769.965C63.4399 769.965 51.1915 783.612 51.1915 800.384V807.988H8.53191C3.82059 807.988 0 812.243 0 817.494C0 822.745 3.82059 827 8.53191 827H793.468C798.181 827 802 822.745 802 817.494C802 812.243 798.181 807.988 793.468 807.988Z" fill="black"/>
</svg>
