<svg width="819" height="807" viewBox="0 0 819 807" fill="none" xmlns="http://www.w3.org/2000/svg">
<path d="M115.053 687.172H141.345L148.455 661.033H122.163L115.053 687.172Z" fill="black"/>
<path d="M285.87 99.0678C286.192 100.401 286.796 101.651 287.643 102.739C288.489 103.826 289.559 104.724 290.782 105.376C292.005 106.028 293.354 106.418 294.741 106.521C296.128 106.625 297.521 106.438 298.83 105.974C370.38 80.1216 448.921 80.1216 520.471 105.974C521.78 106.438 523.173 106.625 524.56 106.521C525.946 106.418 527.295 106.028 528.519 105.376C529.742 104.724 530.812 103.826 531.658 102.739C532.505 101.651 533.109 100.401 533.431 99.0678C536.881 84.3252 542.559 70.1769 550.276 57.0966C550.983 55.8754 551.414 54.5179 551.537 53.1173C551.661 51.7167 551.476 50.3062 550.994 48.9829C550.512 47.6596 549.745 46.4549 548.745 45.4516C547.745 44.4482 546.537 43.6701 545.203 43.1707C457.725 11.3497 361.589 11.3497 274.111 43.1707C272.777 43.6703 271.569 44.4486 270.569 45.4519C269.57 46.4553 268.803 47.66 268.321 48.9832C267.839 50.3064 267.653 51.7168 267.777 53.1173C267.901 54.5179 268.331 55.8754 269.038 57.0966C276.751 70.177 282.425 84.3255 285.87 99.0678Z" fill="black"/>
<path d="M718.62 525.414C733.584 528.811 747.945 534.406 761.222 542.01C762.461 542.706 763.839 543.13 765.261 543.252C766.682 543.375 768.114 543.192 769.457 542.717C770.8 542.242 772.023 541.486 773.042 540.501C774.06 539.517 774.85 538.326 775.357 537.012C807.654 450.828 807.654 356.114 775.357 269.93C774.85 268.616 774.06 267.426 773.042 266.441C772.023 265.456 770.8 264.7 769.457 264.225C768.114 263.75 766.682 263.568 765.261 263.69C763.839 263.812 762.461 264.236 761.222 264.933C747.945 272.536 733.584 278.131 718.62 281.528C717.267 281.845 715.997 282.44 714.893 283.274C713.789 284.107 712.876 285.161 712.214 286.367C711.552 287.572 711.156 288.901 711.052 290.268C710.947 291.634 711.137 293.007 711.608 294.297C737.849 364.788 737.849 442.167 711.608 512.658C711.139 513.947 710.952 515.318 711.057 516.683C711.163 518.048 711.56 519.376 712.221 520.58C712.883 521.783 713.795 522.836 714.897 523.669C716 524.502 717.268 525.097 718.62 525.414Z" fill="black"/>
<path d="M409.65 787.625C455.914 787.685 501.817 779.605 545.197 763.765C546.53 763.265 547.739 762.487 548.738 761.484C549.738 760.48 550.505 759.276 550.987 757.952C551.469 756.629 551.654 755.219 551.53 753.818C551.406 752.418 550.976 751.06 550.269 749.839C542.553 736.759 536.875 722.611 533.424 707.869C533.103 706.536 532.499 705.285 531.652 704.198C530.806 703.11 529.736 702.211 528.513 701.559C527.29 700.907 525.94 700.517 524.553 700.414C523.167 700.311 521.773 700.497 520.464 700.961C448.914 726.814 370.374 726.814 298.823 700.961C297.515 700.498 296.121 700.311 294.734 700.414C293.347 700.517 291.998 700.908 290.775 701.56C289.552 702.212 288.482 703.111 287.636 704.198C286.789 705.285 286.185 706.536 285.863 707.869C282.415 722.612 276.736 736.761 269.018 749.841C268.311 751.062 267.881 752.419 267.757 753.82C267.633 755.22 267.818 756.631 268.3 757.954C268.782 759.278 269.549 760.482 270.549 761.486C271.549 762.489 272.757 763.267 274.091 763.766C317.475 779.607 363.383 787.686 409.65 787.625Z" fill="black"/>
<path d="M100.682 281.515C85.7182 278.118 71.3574 272.524 58.0807 264.921C56.8414 264.224 55.4634 263.799 54.0416 263.677C52.6198 263.555 51.188 263.737 49.8447 264.212C48.5013 264.687 47.2784 265.443 46.2601 266.428C45.2417 267.414 44.4522 268.604 43.9457 269.919C11.6457 356.103 11.6457 450.817 43.9457 537C44.4524 538.315 45.2421 539.506 46.2605 540.491C47.2788 541.476 48.5017 542.232 49.845 542.706C51.1882 543.181 52.6199 543.364 54.0417 543.242C55.4634 543.119 56.8413 542.695 58.0807 541.998C71.3574 534.396 85.7182 528.802 100.682 525.404C102.035 525.087 103.305 524.492 104.409 523.658C105.512 522.824 106.425 521.77 107.086 520.565C107.748 519.36 108.144 518.03 108.248 516.664C108.353 515.298 108.163 513.925 107.693 512.636C81.4516 442.144 81.4516 364.766 107.693 294.274C108.162 292.985 108.35 291.614 108.245 290.248C108.139 288.883 107.743 287.555 107.082 286.351C106.42 285.147 105.508 284.094 104.405 283.261C103.303 282.427 102.034 281.833 100.682 281.515Z" fill="black"/>
<path d="M684.349 0.422395C660.57 0.407875 637.214 6.61309 616.666 18.404C596.119 30.1949 579.117 47.1487 567.398 67.5332C555.679 87.9176 549.663 111.002 549.965 134.427C550.266 157.852 556.875 180.779 569.116 200.863L520.221 249.035C487.722 226.402 448.875 214.304 409.077 214.423C369.279 214.541 330.506 226.87 298.147 249.696L249.58 201.847C266.676 174.325 273.002 141.606 267.371 109.819C261.741 78.0321 244.54 49.3582 218.992 29.1684C193.443 8.97854 161.3 -1.34198 128.583 0.140055C95.8653 1.62209 64.8188 14.805 41.2587 37.2193C17.6987 59.6337 3.24139 89.7416 0.595116 121.903C-2.05116 154.065 7.2951 186.074 26.8831 211.934C46.4712 237.795 74.9571 255.732 107.005 262.387C139.053 269.041 172.464 263.956 200.979 248.084L250.954 297.319C229.004 329.097 217.428 366.722 217.776 405.159C218.124 443.596 230.379 481.012 252.902 512.399L204.007 560.57C175.914 543.95 142.633 537.991 110.401 543.81C78.1685 549.629 49.1952 566.826 28.9091 592.18C8.62293 617.534 -1.58421 649.306 0.199875 681.542C1.98396 713.778 15.6369 744.268 38.6008 767.299C61.5648 790.33 92.2642 804.322 124.948 806.653C157.631 808.985 190.056 799.496 216.149 779.965C242.241 760.434 260.21 732.2 266.689 700.553C273.169 668.906 267.714 636.018 251.347 608.049L300.962 559.168C332.761 580.77 370.449 592.392 409.074 592.507C447.7 592.622 485.458 581.225 517.39 559.813L567.365 609.048C551.273 637.122 546.121 670.013 552.875 701.56C559.628 733.107 577.823 761.147 604.053 780.427C630.282 799.707 662.746 808.905 695.364 806.299C727.982 803.692 758.517 789.459 781.25 766.267C803.982 743.074 817.353 712.512 818.858 680.305C820.362 648.098 809.898 616.455 789.424 591.303C768.95 566.151 739.871 549.216 707.634 543.668C675.396 538.121 642.212 544.342 614.296 561.167L565.728 513.318C588.672 481.752 601.173 443.98 601.524 405.157C601.876 366.333 590.061 328.348 567.692 296.384L617.307 247.503C635.162 257.637 655.143 263.589 675.706 264.9C696.269 266.21 716.862 262.844 735.893 255.061C754.925 247.277 771.884 235.286 785.46 220.014C799.036 204.742 808.864 186.598 814.186 166.986C819.507 147.374 820.179 126.819 816.149 106.91C812.119 87.0008 803.496 68.2718 790.945 52.171C778.394 36.0702 762.253 23.0289 743.77 14.0558C725.286 5.08258 704.955 0.417886 684.349 0.422395ZM182.963 149.58L122.057 184.226C119.072 185.924 115.686 186.817 112.239 186.818C108.793 186.818 105.407 185.924 102.422 184.227C99.4367 182.529 96.9578 180.087 95.234 177.147C93.5103 174.207 92.6025 170.871 92.6018 167.475V98.1843C92.6025 94.7887 93.5103 91.453 95.234 88.5126C96.9578 85.5721 99.4367 83.1305 102.422 81.4329C105.407 79.7354 108.793 78.8418 112.239 78.842C115.686 78.8422 119.072 79.7361 122.057 81.4339L182.963 116.079C185.946 117.778 188.423 120.22 190.146 123.16C191.868 126.1 192.774 129.435 192.774 132.83C192.774 136.224 191.868 139.559 190.146 142.5C188.423 145.44 185.946 147.882 182.963 149.58ZM187.823 661.025H168.792L161.673 687.174H181.228C183.832 687.174 186.329 688.193 188.171 690.007C190.012 691.821 191.046 694.282 191.046 696.847C191.046 699.412 190.012 701.873 188.171 703.687C186.329 705.501 183.832 706.52 181.228 706.52H156.421L150.071 729.816C149.737 731.043 149.161 732.193 148.376 733.2C147.591 734.208 146.612 735.053 145.495 735.688C143.239 736.97 140.559 737.316 138.044 736.651C135.529 735.987 133.385 734.365 132.084 732.142C130.783 729.92 130.431 727.28 131.106 724.802L136.08 706.52H109.784L103.369 730.106C103.035 731.333 102.459 732.483 101.674 733.49C100.888 734.498 99.9093 735.343 98.7924 735.978C96.5369 737.26 93.8568 737.607 91.3418 736.942C88.8268 736.277 86.6829 734.655 85.3817 732.433C84.0805 730.21 83.7287 727.57 84.4035 725.092L89.46 706.52H75.698C73.094 706.52 70.5967 705.501 68.7554 703.687C66.9142 701.873 65.8797 699.412 65.8797 696.847C65.8797 694.282 66.9142 691.821 68.7554 690.007C70.5967 688.193 73.094 687.174 75.698 687.174H94.7291L101.831 661.025H82.2926C79.6886 661.025 77.1913 660.006 75.3501 658.191C73.5088 656.377 72.4743 653.917 72.4743 651.352C72.4743 648.786 73.5088 646.326 75.3501 644.512C77.1913 642.698 79.6886 641.679 82.2926 641.679H107.1L113.433 618.399C113.744 617.149 114.306 615.972 115.084 614.939C115.863 613.905 116.843 613.035 117.968 612.38C119.092 611.724 120.338 611.296 121.632 611.121C122.926 610.946 124.243 611.027 125.505 611.359C126.767 611.692 127.949 612.269 128.982 613.058C130.015 613.846 130.878 614.83 131.52 615.951C132.161 617.072 132.57 618.308 132.721 619.586C132.872 620.865 132.762 622.16 132.399 623.397L127.424 641.679H153.721L160.135 618.109C160.447 616.859 161.008 615.682 161.787 614.649C162.565 613.615 163.546 612.745 164.67 612.089C165.794 611.434 167.04 611.006 168.334 610.831C169.629 610.656 170.945 610.737 172.208 611.069C173.47 611.402 174.652 611.979 175.684 612.768C176.717 613.556 177.58 614.54 178.222 615.661C178.864 616.782 179.272 618.018 179.423 619.296C179.574 620.575 179.465 621.87 179.101 623.106L174.044 641.679H187.823C190.427 641.679 192.924 642.698 194.765 644.512C196.607 646.326 197.641 648.786 197.641 651.352C197.641 653.917 196.607 656.377 194.765 658.191C192.924 660.006 190.427 661.025 187.823 661.025ZM696.737 599.424C706.506 579.433 726.175 606.259 721.364 620.72C719.712 625.718 716.177 641.13 716.177 641.13C721.386 641.13 726.544 642.14 731.357 644.104C736.17 646.067 740.543 648.946 744.226 652.575C747.91 656.204 750.832 660.512 752.825 665.254C754.818 669.995 755.843 675.077 755.843 680.209V693.22C755.842 698.351 754.815 703.431 752.821 708.171C750.827 712.911 747.905 717.217 744.221 720.845C740.538 724.472 736.166 727.349 731.354 729.311C726.542 731.274 721.385 732.284 716.177 732.282H691.582C687.917 732.269 684.296 731.506 680.946 730.042C682.268 726.488 682.949 722.734 682.958 718.95V654.479C682.95 648.408 681.215 642.46 677.951 637.31C686.46 624.799 692.433 608.242 696.737 599.424ZM619.254 654.479C619.256 650.939 620.684 647.545 623.225 645.042C625.765 642.539 629.21 641.132 632.803 641.13H649.773C653.366 641.132 656.811 642.539 659.351 645.042C661.892 647.545 663.32 650.939 663.322 654.479V718.95C663.321 720.702 662.969 722.436 662.288 724.055C661.606 725.673 660.608 727.143 659.35 728.381C658.092 729.619 656.598 730.601 654.955 731.27C653.312 731.94 651.551 732.284 649.773 732.282H632.803C631.025 732.284 629.264 731.94 627.621 731.27C625.978 730.601 624.484 729.619 623.226 728.381C621.968 727.143 620.97 725.673 620.288 724.055C619.607 722.436 619.255 720.702 619.254 718.95V654.479ZM409.65 290.974C421.247 290.974 432.583 294.362 442.225 300.709C451.867 307.057 459.382 316.078 463.82 326.634C468.258 337.189 469.419 348.804 467.157 360.009C464.894 371.214 459.31 381.507 451.11 389.586C442.91 397.665 432.463 403.166 421.089 405.395C409.715 407.624 397.926 406.48 387.212 402.108C376.499 397.736 367.341 390.332 360.899 380.832C354.456 371.333 351.017 360.164 351.017 348.74C351.017 333.419 357.195 318.726 368.19 307.893C379.186 297.06 394.1 290.974 409.65 290.974ZM409.65 573.168C386.429 573.18 363.447 568.552 342.093 559.566C320.738 550.58 301.455 537.421 285.408 520.885C295.848 496.951 313.182 476.557 335.264 462.227C357.346 447.897 383.208 440.259 409.65 440.259C436.093 440.259 461.955 447.897 484.037 462.227C506.119 476.557 523.452 496.951 533.892 520.885C517.846 537.421 498.562 550.58 477.208 559.566C455.853 568.552 432.871 573.18 409.65 573.168ZM690.584 191.593C686.639 192.964 682.338 192.964 678.393 191.593C646.925 180.647 602.056 152.047 616.489 108.857C620.989 95.4114 634.178 82.24 648.529 82.4818C655.062 82.6692 661.424 84.5813 666.951 88.0184C672.477 91.4555 676.966 96.2915 679.948 102.021C680.363 102.859 681.009 103.565 681.812 104.058C682.615 104.552 683.542 104.814 684.488 104.814C685.435 104.814 686.362 104.552 687.165 104.058C687.968 103.565 688.614 102.859 689.029 102.021C692.011 96.2915 696.5 91.4555 702.026 88.0184C707.553 84.5813 713.915 82.6692 720.448 82.4818C734.799 82.24 747.988 95.4114 752.488 108.857C766.921 152.031 722.052 180.647 690.584 191.593Z" fill="black"/>
</svg>
