<svg width="777" height="842" viewBox="0 0 777 842" fill="none" xmlns="http://www.w3.org/2000/svg">
<path fill-rule="evenodd" clip-rule="evenodd" d="M241.274 313.84H83.0361V842H241.274V313.84ZM180.998 703.947C191.378 712.608 191.509 726.639 181.303 735.409C171.054 744.179 154.349 744.435 143.75 735.994L143.227 735.592C133.021 727.005 132.846 713.156 142.834 704.387L143.314 703.948C153.52 695.361 170.05 695.215 180.561 703.546L181.085 703.948L180.998 703.947ZM172.886 719.77C172.842 723.351 170.312 726.603 166.431 728.028C162.505 729.453 157.969 728.832 154.828 726.42L154.523 726.164V726.128C150.423 722.729 150.292 717.212 154.218 713.668L154.523 713.412C158.623 710.013 165.165 709.904 169.396 713.119L169.701 713.375V713.412C171.751 715.093 172.886 717.394 172.886 719.77ZM180.998 417.51C192.644 426.681 193.298 441.992 182.437 451.785C171.577 461.615 153.302 462.236 141.526 453.21C129.749 444.185 128.921 428.874 139.607 418.971C150.292 409.032 168.568 408.192 180.475 417.108L180.998 417.51ZM172.886 433.332C172.886 435.707 171.752 438.009 169.702 439.69C166.648 442.211 162.112 442.979 158.143 441.627C154.13 440.275 151.513 437.095 151.426 433.478C151.339 429.897 153.825 426.572 157.751 425.11C161.632 423.612 166.256 424.233 169.396 426.645L169.701 426.901V426.937C171.751 428.618 172.885 430.92 172.885 433.295L172.886 433.332ZM635.25 560.748C645.499 569.299 645.717 583.147 635.729 591.954L635.25 592.392V592.356C624.913 601.052 608.164 601.162 597.697 592.611C587.229 584.061 586.924 570.029 596.999 561.186L597.478 560.748C607.728 552.161 624.258 551.978 634.725 560.346L635.25 560.748ZM627.137 576.57L627.093 576.534C627.137 574.159 626.003 571.893 623.953 570.176L623.648 569.883V569.92C619.417 566.668 612.831 566.777 608.775 570.176L608.47 570.431H608.426C604.327 574.049 604.501 579.786 608.819 583.221C613.137 586.656 619.985 586.509 624.085 582.892L624.39 582.636C626.222 580.955 627.225 578.799 627.225 576.497L627.137 576.57ZM635.25 704.024V703.988C640.265 708.19 643.057 713.854 643.057 719.773C643.057 725.693 640.265 731.393 635.25 735.559C625.044 744.146 608.514 744.329 598.046 735.961L597.523 735.559C587.273 727.008 587.055 713.16 597.043 704.353L597.523 703.915V703.951C602.495 699.749 609.299 697.374 616.408 697.374C623.474 697.374 630.278 699.749 635.25 703.951L635.25 704.024ZM627.093 719.773C627.093 716.156 624.52 712.867 620.464 711.479C616.451 710.053 611.828 710.821 608.775 713.415L608.47 713.671C604.544 717.215 604.675 722.733 608.775 726.131L609.08 726.387V726.423C612.177 728.835 616.756 729.493 620.682 728.068C624.607 726.606 627.137 723.354 627.093 719.773ZM635.25 417.55C645.499 426.1 645.717 439.949 635.729 448.719L635.293 449.121C627.661 455.515 616.146 457.452 606.158 453.981C596.214 450.509 589.671 442.361 589.671 433.299C589.671 424.237 596.213 416.089 606.158 412.617C616.146 409.183 627.66 411.083 635.293 417.477L635.25 417.55ZM627.093 433.336C627.093 429.06 623.473 425.37 618.458 424.529C613.442 423.689 608.426 425.954 606.464 429.901C604.501 433.884 606.158 438.451 610.433 440.827C614.707 443.202 620.377 442.727 623.996 439.694L624.302 439.438V439.475C626.134 437.794 627.137 435.601 627.093 433.336ZM181.041 560.752C190.026 568.279 191.422 580.082 184.356 588.961C177.29 597.84 163.726 601.275 151.95 597.183C140.218 593.127 133.545 582.64 135.987 572.189C138.473 561.738 149.42 554.211 162.157 554.211C169.222 554.211 176.026 556.55 181.041 560.752ZM172.929 576.574V576.538C172.929 578.949 171.795 581.251 169.745 582.932C166.692 585.49 162.069 586.257 158.056 584.869C153.999 583.48 151.383 580.192 151.383 576.538C151.383 572.884 153.999 569.595 158.056 568.206C162.068 566.818 166.692 567.585 169.745 570.18C171.751 571.86 172.885 574.162 172.885 576.538L172.929 576.574ZM433.789 184.531C422.667 173.824 406.529 167.758 389.65 167.868C372.728 167.978 356.721 174.263 345.817 185.116C360.952 193.703 375.431 203.058 389.301 213.07C403.432 202.838 418.306 193.3 433.789 184.531ZM470.775 98.5504C479.628 87.3326 479.628 72.7893 470.818 61.5715C462.008 50.3536 446.044 44.6166 430.3 46.9917C421.838 48.2706 414.031 51.5958 407.838 56.565C401.906 61.2056 397.85 67.2711 396.279 73.9586C395.582 77.1011 392.267 79.3665 388.429 79.3665C384.591 79.33 381.319 77.0279 380.665 73.8489C378.441 63.9828 371.026 55.432 360.515 50.6088C349.96 45.7489 337.399 45.1643 326.233 48.9279C315.111 52.6916 306.563 60.4385 303.03 70.0483C299.454 79.6581 301.198 90.1089 307.828 98.5138C313.28 98.66 318.732 99.537 323.922 101.072C330.551 103.045 336.614 106.151 341.761 110.17C350.135 94.0555 369.108 83.6422 390.043 83.6057C411.022 83.5691 430.038 93.9835 438.456 110.061C447.179 103.045 458.737 98.9525 470.818 98.5503L470.775 98.5504ZM475.616 111.961V111.924C479.716 112.217 483.728 113.094 487.436 114.482C503.966 120.658 512.21 136.297 506.539 150.694C489.529 157.052 472.955 164.214 456.948 172.217C453.677 173.861 450.45 175.505 447.222 177.186C433.091 162.752 411.937 154.458 389.65 154.567C367.363 154.677 346.34 163.191 332.427 177.771C313.105 167.539 292.911 158.514 272.019 150.731C266.349 136.334 274.593 120.695 291.123 114.519C294.873 113.094 298.93 112.254 303.029 111.961C303.858 112.034 304.687 111.998 305.472 111.852C309.921 111.815 314.369 112.436 318.513 113.679C327.193 116.2 334.302 121.535 338.227 128.441C339.754 131.218 343.374 132.789 346.95 132.205C350.527 131.62 353.187 129.062 353.362 125.993C354.714 109.914 370.633 97.3812 389.911 97.2718C409.189 97.1622 425.283 109.513 426.853 125.627C426.853 128.733 429.47 131.437 433.134 132.131C436.754 132.789 440.461 131.254 442.075 128.441C447.57 118.209 459.739 111.705 473.085 111.815C473.957 111.961 474.786 111.998 475.658 111.888L475.616 111.961ZM430.169 33.5447L427.552 33.8736V33.837C416.038 35.591 405.351 40.1221 396.89 46.8817C393.794 49.3665 391.046 52.107 388.69 55.0669C380.273 43.849 366.577 36.1391 351.007 33.8005L350.004 33.6544L350.047 33.6909C350.004 24.7751 354.191 16.2244 361.693 9.90265C369.195 3.58113 379.357 0.0365489 390 6.66904e-05C412.113 -0.0364717 430.126 14.9456 430.17 33.4711L430.169 33.5447ZM635.078 207.181C627.315 202.541 618.243 199.691 608.734 198.887C596.173 197.863 583.568 200.567 573.144 206.487C574.758 212.48 576.241 218.509 577.506 224.538L578.247 228.119C596.174 219.386 615.234 212.334 635.078 207.181ZM742.459 197.754C717.642 195.817 692.608 196.731 668.051 200.421C663.21 201.152 658.412 201.993 653.658 202.943H653.701C642.012 193.15 626.703 187.048 610.304 185.659C595.999 184.453 581.649 187.011 569.131 192.93C563.81 176.085 557.225 159.569 549.374 143.417C548.589 141.81 547.063 140.494 545.1 139.8C543.181 139.105 541 139.105 539.037 139.763L538.776 139.873C535.592 140.823 532.408 141.846 529.224 142.833C535.81 131.431 550.726 125.147 565.599 127.486C580.515 129.824 591.637 140.239 592.858 152.881C593.12 155.95 595.824 158.472 599.444 158.983C603.064 159.495 606.597 157.887 608.08 155.074C615.189 140.932 634.511 134.099 651.564 139.727C669.01 145.208 678.344 161.176 672.761 176.084C671.67 179.008 673.11 182.187 676.206 183.758C679.347 185.366 683.359 184.964 685.933 182.808C690.861 178.788 697.098 176.084 703.859 175.098C710.576 174.148 717.511 174.988 723.616 177.436C729.722 179.812 734.869 183.612 738.402 188.435L738.62 188.764L738.576 188.728C740.539 191.505 741.849 194.575 742.459 197.754ZM713.193 92.9564C714.807 88.9005 715.461 84.5886 715.069 80.3495C714.197 71.0681 708.614 62.5546 699.716 56.9635C690.819 51.4093 679.479 49.3264 668.618 51.2631C661.422 52.5054 654.835 55.3922 649.515 59.6309C646.026 62.4445 643.234 65.8428 641.359 69.6064C642.275 70.0084 643.191 70.4103 644.063 70.8854L644.107 70.8488C653.528 75.5626 660.986 82.6513 665.303 91.1292C666.917 94.1621 668.095 97.3411 668.88 100.593C671.976 98.7295 675.291 97.1217 678.78 95.8062C688.856 92.006 700.109 90.8733 711.012 92.5541L713.236 92.9195L713.193 92.9564ZM715.156 107.354L714.458 107.135C704.994 104.175 694.526 104.504 685.279 107.975C678.127 110.679 672.151 115.137 668.138 120.764C666.175 123.541 662.119 124.711 658.499 123.615C654.923 122.482 652.786 119.339 653.483 116.197C654.923 109.546 653.963 102.713 650.779 96.5376C647.77 90.6545 642.623 85.722 636.037 82.433C625.831 77.3538 613.401 76.5134 602.367 80.1309C591.288 83.7119 582.827 91.3852 579.425 100.887C577.549 106.112 577.331 111.629 578.771 116.927C589.718 120.837 598.615 127.89 603.85 136.842C608.429 132.932 613.881 129.826 619.9 127.707C631.763 123.541 645.109 123.395 657.103 127.268C675.945 133.188 688.899 147.841 690.163 164.686C693.696 163.407 697.404 162.494 701.198 161.946C708.787 160.886 716.551 161.324 723.922 163.224C729.2 160.045 733.387 155.77 736.09 150.801C740.452 142.762 740.67 133.517 736.744 125.332C732.775 117.11 724.968 110.606 715.111 107.353L715.156 107.354ZM205.428 206.557C194.917 200.857 182.399 198.299 169.969 199.322C160.504 200.09 151.432 202.83 143.581 207.325C163.382 212.477 182.399 219.456 200.324 228.153L201.066 224.609C202.33 218.58 203.77 212.586 205.427 206.594L205.428 206.557ZM212.057 127.922C215.067 127.228 218.207 126.899 221.304 126.936C234.302 127.118 245.99 133.55 251.355 143.452C247.342 142.136 243.33 140.894 239.23 139.652L239.274 139.688C235.261 138.482 230.812 140.127 229.199 143.415C221.348 159.603 214.762 176.156 209.398 193.038C196.88 187.337 182.662 184.889 168.486 186.058C152.043 187.337 136.647 193.33 124.871 203.013C120.161 202.063 115.407 201.259 110.653 200.529C86.0545 196.801 60.9756 195.851 36.1145 197.715C36.6815 194.646 37.9028 191.722 39.7346 189.018L39.9526 188.726V188.689C43.4855 183.756 48.7194 179.81 54.9569 177.399C56.3089 177.252 57.6174 176.814 58.7078 176.12C63.7671 174.695 69.1755 174.293 74.4534 175.023H74.6715C81.3447 175.974 87.494 178.604 92.3789 182.514C94.9086 184.743 98.9648 185.218 102.149 183.684C105.333 182.112 106.816 178.933 105.769 175.974C101.669 165.011 105.551 153.099 115.713 145.389C125.832 137.679 140.399 135.596 153.004 140.054C161.291 142.978 167.92 148.459 171.496 155.401C172.935 158.215 176.512 159.859 180.132 159.384C183.795 158.873 186.543 156.351 186.805 153.245C187.503 146.083 191.472 139.396 197.883 134.536C200.98 132.198 204.556 130.298 208.482 128.982C209.747 128.909 210.968 128.58 212.058 127.996L212.057 127.922ZM64.1144 107.13L63.4166 107.35C50.4188 111.625 41.2162 121.491 39.385 133.111C37.5539 144.731 43.3977 156.241 54.6505 163.221C61.8907 161.321 69.5665 160.882 77.0686 161.905H77.374C81.1249 162.453 84.8322 163.367 88.365 164.646C89.4118 150.797 98.3966 138.227 112.44 130.918C126.484 123.61 143.93 122.478 159.196 127.812C165.389 130.005 171.059 133.22 175.77 137.24C181.135 128.105 190.207 120.906 201.372 116.887C203.858 107.459 201.154 97.593 194.045 90.0291C186.892 82.4286 176.119 77.9338 164.561 77.7514C153.047 77.5322 142.056 81.6978 134.554 89.0422C127.096 96.3869 123.955 106.179 125.962 115.681C126.66 118.933 124.392 122.112 120.641 123.135C116.933 124.195 112.834 122.806 111.045 119.846C106.989 114.512 101.101 110.31 94.1664 107.824C86.7082 105.12 78.4655 104.353 70.5268 105.559C68.3461 105.924 66.2089 106.399 64.159 107.057L64.1144 107.13ZM67.0802 661.669H39.2535C28.8295 661.633 18.8418 664.994 11.3397 671.024C4.09952 676.797 0.0435408 684.8 0.0435408 693.204V769.574C0.0435408 777.942 4.09975 785.945 11.3397 791.755C18.8416 797.747 28.8294 801.109 39.2535 801.109H67.0802V661.669ZM67.0802 507.537H39.2535C28.873 507.573 18.9289 511.118 11.6445 517.293C4.27348 523.395 0.0859788 531.691 0.0424333 540.387V615.405C0.347732 633.456 17.7063 648.036 39.2524 648.292H67.0791L67.1227 507.536L67.0802 507.537ZM67.0802 353.404L39.2535 353.367C17.7074 353.66 0.304819 368.203 0 386.254V461.271C0.30531 479.323 17.7074 493.902 39.2535 494.121H67.0802V353.366V353.404ZM194.345 300.493L75.0524 300.457C70.6472 300.457 67.0708 303.453 67.0708 307.144V340.03H62.8401C44.6961 322.272 30.8699 301.699 22.1474 279.518C13.686 258.434 10.284 236.218 12.0723 214.037C43.693 208.958 76.1433 208.849 107.764 213.636C112.736 214.403 117.665 215.28 122.593 216.266C124.12 217.107 125.908 217.472 127.696 217.326C152.425 222.771 176.021 231.212 197.785 242.357C194.819 261.614 193.642 281.017 194.296 300.42L194.345 300.493ZM257.281 340.031V307.144C257.281 303.454 253.705 300.458 249.3 300.458H210.221C209.523 280.652 210.831 260.847 214.059 241.189C214.364 240.458 214.495 239.654 214.451 238.85C215.149 234.831 215.934 230.848 216.763 226.865C222.084 202.128 230.24 177.864 241.1 154.442C292.61 170.739 340.238 194.71 381.629 225.148C381.935 225.733 382.371 226.244 382.851 226.719C383.767 227.56 384.944 228.217 386.209 228.583L387.081 229.241C428.516 260.702 462.71 298.266 488.008 340.072L257.281 340.031ZM137.431 70.2496L136.122 70.8707C123.081 77.375 113.835 88.1184 110.651 100.542C107.468 98.6054 104.022 96.9975 100.402 95.6821C90.0651 91.9915 78.6816 90.8953 67.6032 92.6127L65.3788 92.9781V93.0147C63.7214 88.9587 63.0672 84.6469 63.4596 80.4077C64.7245 67.9112 74.4508 57.1312 88.4514 52.7103C102.452 48.3254 118.241 51.0659 129.014 59.8357C132.634 62.7955 135.469 66.3399 137.388 70.2864L137.431 70.2496ZM693.92 313.829H535.682V841.989H693.92V313.829ZM519.716 494.154L519.759 353.361H257.236V494.154H519.716ZM519.716 648.287L519.759 507.531H257.236V648.287H519.716ZM519.716 801.063V661.701H257.237V801.063H519.716ZM709.876 661.701V801.063H737.746C748.126 801.1 758.158 797.738 765.66 791.709C772.9 785.935 776.956 777.933 776.956 769.565V693.158C776.956 684.79 772.9 676.788 765.66 671.014C758.158 664.985 748.126 661.623 737.746 661.66L709.876 661.701ZM709.876 507.568L709.919 648.287H737.746C759.292 648.031 776.695 633.452 776.999 615.4V539.725C776.956 531.175 772.812 523.026 765.486 517.07C758.114 510.967 748.127 507.533 737.746 507.533L709.876 507.568ZM709.876 353.436L709.919 494.154H737.746C748.126 494.081 758.027 490.573 765.311 484.398L765.704 484.105V484.069C772.857 478.003 776.913 469.818 777 461.267V385.592C776.956 377.041 772.813 368.856 765.486 362.936C758.115 356.834 748.127 353.4 737.747 353.363L709.876 353.436ZM584.264 300.451C584.918 281.048 583.784 261.646 580.774 242.389C602.801 231.025 626.701 222.474 651.737 217.03C652.696 216.957 653.612 216.774 654.484 216.445C659.893 215.312 665.388 214.362 670.884 213.522C696.792 209.612 723.31 209.027 749.436 211.768L749.829 211.804C755.368 212.389 760.907 213.12 766.403 213.997L766.446 214.033C768.322 236.25 764.963 258.576 756.589 279.733C747.953 301.84 734.215 322.34 716.201 340.025H709.877V307.139C709.877 303.448 706.301 300.452 701.896 300.452L584.264 300.451ZM527.695 300.451C523.289 300.451 519.713 303.448 519.713 307.138V340.025H505.8C479.979 295.555 444.52 255.543 401.21 222C416.214 211.257 432.046 201.318 448.576 192.292C448.925 192.146 449.318 191.963 449.667 191.781C450.016 191.598 450.321 191.379 450.626 191.16C455.38 188.565 460.222 186.08 465.15 183.669C488.179 172.195 512.386 162.402 537.465 154.436C548.325 177.859 556.481 202.122 561.802 226.86C566.993 251.16 569.217 275.825 568.345 300.489L527.695 300.451Z" fill="black"/>
</svg>
