<svg width="780" height="613" viewBox="0 0 780 613" fill="none" xmlns="http://www.w3.org/2000/svg">
<path fill-rule="evenodd" clip-rule="evenodd" d="M18.222 165.392H23.1279C63.4109 165.392 96.2583 210.403 96.2583 265.602V323.181C96.2583 350.822 112.713 373.286 132.824 373.286H647.085C667.196 373.286 683.65 350.822 683.65 323.181V265.602C683.65 210.403 716.498 165.392 756.72 165.392H761.717C771.773 165.392 780 176.666 780 190.445V388.482C780 452.783 741.698 505.399 694.677 505.399H694.586C685.81 505.399 678.436 513.625 676.699 525.358L667.527 587.07C665.394 601.058 658.964 613 648.604 613H597.231C586.871 613 580.441 601.058 578.308 587.07L569.136 525.358C567.399 513.625 560.025 505.399 551.249 505.399H234.015C225.239 505.399 217.774 513.625 216.037 525.358L206.865 587.07C204.793 601.058 198.395 613 188.034 613H136.598C126.238 613 119.809 601.058 117.767 587.07L108.595 525.358C106.858 513.625 99.423 505.399 90.617 505.399H85.315C38.2985 505.399 0 452.789 0 388.482V190.445C0 176.666 8.22728 165.392 18.2822 165.392H18.222ZM107.047 0H672.831C704.186 0 729.812 35.1575 729.812 78.0806V94.4477C729.812 113.655 722.438 130.232 709.854 139.042C676.214 162.591 653.178 210.4 653.178 265.6V281.551C653.178 309.108 636.723 331.572 616.613 331.572H163.297C143.187 331.572 126.732 309.108 126.732 281.551V265.6C126.732 210.401 103.605 162.551 70.0561 139.042C57.4714 130.273 50.0975 113.78 50.0975 94.4477V78.0806C50.0975 35.1158 75.6624 0 107.018 0H107.047Z" fill="black"/>
</svg>
