<svg width="459" height="814" viewBox="0 0 459 814" fill="none" xmlns="http://www.w3.org/2000/svg">
<path d="M447.139 16.6795C442.717 11.4546 437.304 7.26968 431.251 4.3962C425.198 1.52272 418.641 0.024926 412.004 0H46.996C40.3594 0.024926 33.8018 1.52272 27.7489 4.3962C21.6959 7.26968 16.2828 11.4546 11.8607 16.6795C7.42484 21.907 4.10275 28.0782 2.11859 34.7768C0.134423 41.4753 -0.46563 48.5453 0.358921 55.5096L61.4098 600.743C57.688 603.754 54.6698 607.625 52.5873 612.06C50.5048 616.495 49.4135 621.375 49.3974 626.325V641.337C49.4173 647.099 50.8915 652.752 53.6683 657.713C56.4451 662.674 60.4241 666.765 65.1957 669.563V772.606C65.1565 778.123 66.8638 783.496 70.0465 787.871C73.2293 792.247 77.7052 795.375 82.7637 796.758C130.848 808.672 180.112 814.451 229.5 813.973C278.888 814.451 328.152 808.672 376.236 796.758C381.295 795.375 385.77 792.247 388.953 787.871C392.136 783.496 393.843 778.123 393.804 772.606V669.563C398.576 666.765 402.555 662.674 405.331 657.713C408.108 652.752 409.582 647.099 409.602 641.337V626.325C409.586 621.375 408.495 616.495 406.412 612.06C404.33 607.625 401.312 603.754 397.59 600.744L458.641 55.5099C459.466 48.5456 458.866 41.4755 456.881 34.7769C454.897 28.0783 451.575 21.907 447.139 16.6795ZM197.237 201.46C209.848 195.357 223.288 191.378 237.066 189.667C239.57 189.305 242.117 189.828 244.31 191.155C246.503 192.483 248.217 194.539 249.186 197.004C250.277 199.607 250.54 202.514 249.935 205.289C249.329 208.063 247.889 210.556 245.829 212.393C228.446 228.127 216.021 249.083 210.213 272.466C204.404 295.849 205.487 320.546 213.318 343.261C221.148 365.977 235.354 385.632 254.04 399.602C272.726 413.572 295.002 421.194 317.897 421.451C320.591 421.46 323.211 422.389 325.364 424.098C327.517 425.808 329.089 428.207 329.845 430.937C330.59 433.489 330.521 436.229 329.649 438.736C328.777 441.243 327.151 443.378 325.019 444.815C307.215 457.193 286.84 464.84 265.631 467.104C244.422 469.369 223.009 466.184 203.219 457.822C183.428 449.459 165.847 436.166 151.974 419.078C138.102 401.989 128.35 381.612 123.551 359.684C116.963 328.395 120.673 295.67 134.068 266.906C147.464 238.142 169.745 215.058 197.237 201.46ZM80.2045 647.175C78.7386 647.173 77.3331 646.557 76.2965 645.463C75.2599 644.369 74.6768 642.885 74.675 641.337V626.325C74.6768 624.778 75.2599 623.294 76.2965 622.199C77.3331 621.105 78.7386 620.489 80.2045 620.487H378.795C380.261 620.489 381.667 621.105 382.703 622.199C383.74 623.294 384.323 624.778 384.325 626.325V641.337C384.323 642.885 383.74 644.369 382.703 645.463C381.667 646.557 380.261 647.173 378.795 647.175H80.2045ZM276.895 785.549C275.833 785.626 274.771 785.703 273.705 785.774C268.233 786.139 262.734 786.433 257.207 786.656C255.275 786.735 253.358 786.836 251.416 786.898C236.839 787.374 222.16 787.374 207.583 786.898C205.64 786.835 203.723 786.735 201.792 786.656C196.269 786.427 190.769 786.133 185.294 785.774C184.228 785.703 183.166 785.626 182.104 785.549V758.916C213.663 761.369 245.353 761.252 276.895 758.564V785.549ZM302.172 783.264V757.678C302.171 754.175 301.489 750.709 300.168 747.495C298.848 744.281 296.917 741.387 294.495 738.992C292.064 736.576 289.18 734.725 286.029 733.558C282.879 732.391 279.532 731.934 276.204 732.216C245.104 734.457 213.895 734.457 182.795 732.216C179.467 731.938 176.121 732.398 172.972 733.564C169.822 734.731 166.937 736.58 164.503 738.992C162.082 741.387 160.151 744.281 158.83 747.495C157.51 750.709 156.828 754.175 156.826 757.678V783.264C134.483 780.811 112.317 776.805 90.4729 771.272V673.862H368.526V771.272C346.682 776.805 324.516 780.811 302.172 783.264Z" fill="black"/>
</svg>
