<svg width="472" height="823" viewBox="0 0 472 823" fill="none" xmlns="http://www.w3.org/2000/svg">
<path d="M358.37 690.894C374.673 690.894 388.205 681.218 389.845 668.387L468.367 54.6845C468.379 54.6045 468.389 54.5236 468.398 54.4428L471.84 27.5481C472.739 20.521 469.821 13.4857 463.835 8.24587C457.848 3.00525 449.293 0 440.365 0H31.6354C22.7068 0 14.1517 3.00525 8.16451 8.24587C2.17943 13.4857 -0.739052 20.521 0.160069 27.5481L3.61468 54.5566C4.00061 57.5767 7.21533 59.8756 11.0538 59.8756H452.673L433.311 211.198H38.6886L21.8703 79.7539C21.4531 76.5052 17.8358 74.1428 13.6781 74.4646C9.57056 74.7938 6.57696 77.6951 6.99211 80.9454L82.155 668.386C83.5475 679.283 93.5285 687.88 106.487 690.232V806.299C106.487 815.508 115.958 823 127.599 823H344.401C356.042 823 365.513 815.508 365.513 806.299V712.145C365.513 708.878 362.164 706.23 358.036 706.23C353.907 706.23 350.559 708.878 350.559 712.145V768.342H296.042L288.36 748.062C286.979 744.418 282.741 741.923 277.932 741.923H194.068C189.259 741.923 185.021 744.418 183.64 748.062L175.958 768.342H121.441V690.894H358.37ZM426.952 48.0461C426.309 32.7178 415.548 19.202 399.579 11.8296H440.365C445.142 11.8296 449.537 13.3734 452.742 16.1782C455.944 18.9821 457.444 22.5963 456.962 26.3566L454.187 48.0461H426.952ZM380.559 345.447C380.559 348.54 377.66 351.154 373.783 351.556L336.089 355.463C331.425 355.946 327.289 353.075 327.289 349.354V341.54C327.289 337.819 331.425 334.948 336.089 335.431L373.783 339.338C377.66 339.74 380.559 342.354 380.559 345.447ZM338.219 426.312C335.454 428.5 331.068 428.726 327.967 426.841L297.821 408.518C294.092 406.252 293.733 401.907 297.059 399.276L304.043 393.751C307.368 391.12 312.861 391.404 315.725 394.353L338.887 418.202C341.27 420.655 340.983 424.125 338.219 426.312ZM297.821 282.376L327.967 264.053C331.068 262.168 335.454 262.395 338.219 264.582C340.984 266.769 341.27 270.239 338.887 272.692L315.725 296.54C312.861 299.491 307.369 299.774 304.043 297.143L297.059 291.618C293.733 288.987 294.092 284.643 297.821 282.376ZM223.339 266.267L228.278 236.447C228.786 233.38 232.091 231.086 236 231.086C239.91 231.086 243.214 233.38 243.722 236.447L248.661 266.267C249.272 269.956 245.642 273.228 240.939 273.228H231.061C226.358 273.228 222.728 269.956 223.339 266.267ZM287.544 304.671C316.011 327.191 316.011 363.703 287.544 386.223C259.077 408.743 212.923 408.743 184.456 386.223C155.989 363.703 155.989 327.191 184.456 304.671C212.923 282.15 259.077 282.15 287.544 304.671ZM248.661 424.627L243.722 454.447C243.214 457.514 239.909 459.808 236 459.808C232.09 459.808 228.786 457.514 228.278 454.447L223.339 424.627C222.728 420.938 226.358 417.666 231.061 417.666H240.939C245.642 417.666 249.272 420.938 248.661 424.627ZM174.179 408.518L144.033 426.841C140.932 428.726 136.546 428.499 133.781 426.312C131.017 424.125 130.73 420.655 133.113 418.202L156.274 394.354C159.14 391.403 164.631 391.12 167.957 393.751L174.941 399.276C178.267 401.907 177.908 406.251 174.179 408.518ZM133.781 264.582C136.546 262.394 140.932 262.168 144.033 264.053L174.179 282.376C177.908 284.642 178.267 288.987 174.941 291.618L167.957 297.143C164.631 299.774 159.14 299.49 156.274 296.54L133.113 272.692C130.73 270.239 131.017 266.769 133.781 264.582ZM98.2171 339.338L135.911 335.431C140.575 334.948 144.711 337.819 144.711 341.54V349.354C144.711 353.075 140.575 355.946 135.911 355.463L98.2171 351.556C94.34 351.154 91.4413 348.54 91.4413 345.447C91.4413 342.354 94.34 339.74 98.2171 339.338ZM350.559 780.171V806.299C350.559 808.985 347.797 811.17 344.401 811.17H127.599C124.203 811.17 121.441 808.985 121.441 806.299V780.171H350.559ZM113.63 679.065C105.033 679.065 97.8968 673.963 97.0332 667.196L73.0428 479.696H398.957L374.967 667.196C374.103 673.963 366.967 679.065 358.37 679.065H113.63Z" fill="black"/>
</svg>
