<svg width="784" height="675" viewBox="0 0 784 675" fill="none" xmlns="http://www.w3.org/2000/svg">
<path d="M734.528 84.9462L728.917 47.2188C724.311 16.1817 699.346 -4.61633 673.18 0.881332L182.401 103.592C160.473 108.217 144.818 129.858 143.005 155.02H399.812L734.528 84.9462Z" fill="black"/>
<path d="M783.258 412.945L743.445 144.722L594.805 175.818C612.151 192.602 623.495 217.821 623.495 246.415V504.398L744.254 479.12C770.371 473.681 787.888 444.04 783.258 412.945Z" fill="black"/>
<path d="M546.492 189.315H48.1175C21.5598 189.315 0 214.912 0 246.444V617.842C0 649.402 21.5598 675 48.1175 675H546.492C573.074 675 594.634 649.402 594.634 617.842V246.444C594.634 214.912 573.074 189.315 546.492 189.315ZM213.074 357.386C213.074 368.789 205.308 378.01 195.729 378.01H89.5221C79.9427 378.01 72.1763 368.789 72.1763 357.386V289.64C72.1763 278.266 79.9427 269.045 89.5221 269.045H195.729C205.308 269.045 213.074 278.266 213.074 289.64V357.386ZM490.828 596.171C475.491 596.171 461.6 588.812 451.531 576.915C441.486 588.812 427.57 596.171 412.233 596.171C381.486 596.171 356.594 566.617 356.594 530.112C356.594 493.606 381.51 464.052 412.233 464.052C427.57 464.052 441.461 471.412 451.531 483.309C461.576 471.412 475.491 464.052 490.828 464.052C521.576 464.052 546.467 493.606 546.467 530.112C546.467 566.617 521.576 596.171 490.828 596.171Z" fill="black"/>
</svg>
