<svg width="813" height="829" viewBox="0 0 813 829" fill="none" xmlns="http://www.w3.org/2000/svg">
<path d="M789.969 201.899C768.181 176.035 735.209 163.877 702.202 169.422L682.591 172.682L688.715 153.404C699.077 120.797 692.266 85.8882 670.477 60.0148C636.242 19.358 575.945 14.6697 536.027 49.6065C516.705 66.5269 504.998 90.1068 503.065 115.999C501.15 141.9 509.217 167.008 525.82 186.701C534.979 197.579 546.262 206.109 559.342 212.05L576.848 219.989L410.113 366.019L266.946 196.041L285.428 190.883C299.222 187.033 311.633 180.346 322.32 170.987C341.633 154.076 353.34 130.487 355.264 104.595C357.206 78.6761 349.112 53.5948 332.527 33.8928C315.933 14.1907 292.808 2.25342 267.416 0.282292C242.023 -1.67041 217.399 6.5549 198.077 23.4845C172.721 45.6735 160.761 79.1366 166.226 112.996L169.424 132.993L150.517 126.748C118.531 116.183 84.2947 123.128 58.9385 145.344C39.6165 162.265 27.9094 185.845 25.9853 211.736C24.0432 237.573 32.1279 262.728 48.7219 282.43C82.9758 323.105 143.291 327.766 183.181 292.847C193.858 283.489 202.223 271.985 208.032 258.666L215.827 240.806L359.004 410.793L192.26 556.803L187.201 537.958C183.425 523.893 176.867 511.237 167.689 500.341C151.104 480.648 127.97 468.711 102.578 466.749C77.1585 464.768 52.561 473.031 33.239 489.932C13.917 506.853 2.20995 530.433 0.276847 556.325C-1.63819 582.216 6.42846 607.325 23.0315 627.027C44.7925 652.882 77.6101 665.077 110.816 659.514L130.427 656.253L124.303 675.532C113.942 708.147 120.753 743.057 142.541 768.911C159.135 788.614 182.26 800.551 207.652 802.513C232.99 804.493 257.66 796.249 276.982 779.329C316.873 744.401 321.443 682.9 287.199 642.225C278.021 631.329 266.738 622.809 253.676 616.886L236.161 608.937L402.896 462.917L546.108 632.95L527.644 638.108C513.824 641.976 501.412 648.682 490.744 658.031C471.422 674.951 459.724 698.522 457.8 724.405C455.867 750.223 463.942 775.396 480.536 795.107C497.13 814.809 520.255 826.747 545.648 828.718C571.049 830.67 595.673 822.445 614.986 805.516C640.352 783.299 652.285 749.679 646.847 716.023L643.649 696.026L662.555 702.271C694.533 712.836 728.769 705.891 754.143 683.674C794.016 648.765 798.613 587.282 764.35 546.579C747.756 526.877 724.631 514.94 699.239 512.969C673.838 511.016 649.213 519.241 629.9 536.171C619.232 545.511 610.867 557.015 605.041 570.353L597.254 588.203L454.015 418.143L620.732 272.141L625.79 290.968C629.584 305.061 636.16 317.717 645.329 328.595C661.923 348.297 685.03 360.225 710.422 362.187C735.742 364.158 760.43 355.923 779.761 339.003C799.083 322.083 810.79 298.503 812.723 272.611C814.638 246.719 806.563 221.601 789.969 201.899Z" fill="black"/>
</svg>
