<svg width="799" height="770" viewBox="0 0 799 770" fill="none" xmlns="http://www.w3.org/2000/svg">
<path d="M75.3719 588.493C100.406 638.622 111.561 696.823 110.217 769.977C93.6179 763.241 78.3293 759.219 63.544 757.911C63.4432 753.791 63.4096 749.213 63.3424 744.243C63.0736 715.206 62.6703 667.89 47.5162 595.883C56.8237 594.772 66.1315 592.254 75.3719 588.493ZM29.1354 596.505C19.3909 595.916 9.67998 593.856 0.0361288 590.39V769.287C15.594 762.518 30.3784 758.66 45.3986 757.712C45.2978 753.657 45.2642 749.21 45.2306 744.403C44.9282 713.764 44.5252 668.313 29.1354 596.505ZM724.128 569.364C733.066 573.68 741.903 576.525 750.707 577.964C708.167 500.99 689.651 369.927 661.597 59.4543L557.864 59.4216C587.367 335.473 644.79 511.646 724.128 569.364ZM27.458 577.866C71.8803 505.11 90.3611 378.142 119.157 59.415H0V571.32C9.07267 575.276 18.0782 577.663 27.1165 578.579C27.2173 578.35 27.3572 578.095 27.458 577.866ZM241.135 59.415H137.376C109.352 369.896 90.8033 500.919 48.2666 577.924C57.07 576.486 65.9078 573.641 74.8455 569.325C154.18 511.644 211.63 335.458 241.135 59.415ZM0.00860151 0V41.7572H798.966L799 0H0.00860151ZM688.747 770C705.347 763.231 720.635 759.242 735.421 757.934C735.521 753.814 735.555 749.236 735.622 744.266C735.891 715.228 736.294 667.946 751.449 595.906C742.141 594.762 732.866 592.244 723.592 588.516C698.593 638.644 687.404 696.821 688.747 770ZM707.901 579.425C685.017 624.78 672.955 676.019 670.838 737.889L128.163 737.856C126.046 676.022 113.983 624.747 91.1001 579.393C199.599 492.937 241.44 228.103 259.375 59.4099H539.581C557.558 228.103 599.393 492.937 707.89 579.426L707.901 579.425ZM293.725 242.986L328.335 256.752L345.136 307.599C347.824 315.741 359.753 315.741 362.407 307.599L379.208 256.752L413.784 242.986C417.212 241.612 419.429 238.408 419.429 234.811C419.429 231.214 417.212 228.009 413.784 226.636L379.208 212.87L362.407 161.99C359.719 153.848 347.824 153.848 345.136 161.99L328.335 212.87L293.725 226.636C286.198 229.612 286.198 240.011 293.725 242.986ZM372.992 366.818L307.468 430.582C303.906 434.048 303.906 439.639 307.468 443.073C311.03 446.507 316.742 446.539 320.304 443.073L385.828 379.309C394.262 371.069 381.426 358.578 372.992 366.818ZM314.961 522.728L471.073 370.836C479.507 362.629 466.704 350.105 458.237 358.345L302.125 510.204C298.563 513.67 298.563 519.261 302.125 522.695C305.687 526.161 311.365 526.195 314.961 522.728ZM389.592 524.527L469.498 446.768C477.965 438.56 465.096 426.036 456.662 434.276L376.789 512.036C373.227 515.502 373.227 521.093 376.789 524.527C380.351 527.993 386.063 527.96 389.592 524.527ZM560.86 589.5L529.375 576.976L514.052 530.543C511.331 522.401 499.436 522.401 496.781 530.543L481.425 576.976L449.939 589.5C442.446 592.476 442.479 602.875 449.939 605.85L481.425 618.374L496.781 664.807C499.469 672.949 511.364 672.949 514.052 664.807L529.375 618.374L560.86 605.85C568.353 602.874 568.353 592.508 560.86 589.5ZM753.6 757.674C768.586 758.655 783.404 762.481 798.962 769.249L798.996 590.386C789.318 593.852 779.607 595.912 769.896 596.501C752.793 676.091 754.608 715.066 753.6 757.674ZM771.509 577.864C771.644 578.093 771.744 578.322 771.845 578.584C780.851 577.668 789.89 575.281 798.962 571.325L798.995 59.4199H679.839C708.636 378.138 727.117 505.11 771.503 577.871L771.509 577.864Z" fill="black"/>
</svg>
