<svg width="681" height="826" viewBox="0 0 681 826" fill="none" xmlns="http://www.w3.org/2000/svg">
<path fill-rule="evenodd" clip-rule="evenodd" d="M541.976 50.3841C541.976 48.7302 541.848 47.0765 541.763 45.4226L633.183 132.271C631.442 132.15 629.701 132.069 627.96 132.069H543.844C542.867 132.069 541.976 131.262 541.976 130.294L541.976 50.3841ZM262.831 333.434C350.131 283.052 395.011 229.642 389.707 182.244C386.862 157.234 370.557 136.581 349.071 130.933C326.567 124.963 301.897 136.096 281.26 161.59C276.929 166.955 270.051 170.142 262.874 170.142C255.698 170.142 248.948 166.955 244.489 161.59C227.546 140.615 207.76 129.28 188.737 129.28C184.618 129.28 180.584 129.804 176.55 130.813C155.022 136.581 138.717 157.154 135.915 182.123C130.564 229.642 175.527 283.055 262.831 333.434ZM680.994 221.175V804.943C680.994 816.52 670.973 826 658.828 826H22.1653C9.97878 826 0 816.48 0 804.943V21.0568C0 9.47975 10.0208 0 22.1653 0H448.057C475.232 0 504.998 24.162 504.998 50.5029V130.413C504.998 150.744 522.492 167.281 543.807 167.281H627.923C655.566 167.16 680.994 195.358 680.994 221.175ZM251.2 378.045C254.767 380.021 258.8 381.03 262.834 381.03C266.868 381.03 270.859 379.981 274.468 378.045C417.519 299.144 441.086 225.522 435.781 177.731C430.898 134.368 401.769 99.4754 361.643 88.7048C327.42 79.6288 292.516 89.3099 262.963 115.651C233.41 89.4308 198.507 79.6289 164.283 88.7048C124.157 99.4351 95.0288 134.368 90.1459 177.731C84.5834 225.531 108.066 299.15 251.2 378.045ZM591.652 701.358C591.652 689.176 581.334 679.374 568.511 679.374H112.389C99.566 679.374 89.248 689.176 89.248 701.358C89.248 713.54 99.5662 723.342 112.389 723.342H568.511C581.334 723.261 591.652 713.459 591.652 701.358ZM591.652 582.727C591.652 570.545 581.334 560.743 568.511 560.743L112.389 560.702C99.566 560.702 89.248 570.504 89.248 582.686C89.248 594.868 99.5662 604.671 112.389 604.671H568.511C581.334 604.711 591.652 594.788 591.652 582.727ZM591.652 464.054C591.652 451.872 581.334 442.07 568.511 442.07H112.389C99.566 442.07 89.248 451.872 89.248 464.054C89.248 476.237 99.5662 486.039 112.389 486.039H568.511C581.334 486.039 591.652 476.156 591.652 464.054Z" fill="black"/>
</svg>
