<svg width="828" height="764" viewBox="0 0 828 764" fill="none" xmlns="http://www.w3.org/2000/svg">
<path d="M291.736 437.662C297.71 422.67 295.707 406.423 285.797 389.328C254.135 334.788 204.727 336.178 190.307 337.874C171.704 340.113 111.134 353.137 112.636 427.727C113.101 450.079 121.151 466.495 136.571 476.569C148.735 484.506 164.119 487.423 180.147 487.423C205.977 487.423 233.418 479.859 251.521 473.653C262.647 469.854 283.613 458.016 291.734 437.632L291.736 437.662Z" fill="black"/>
<path d="M376.638 466.733C375.099 462.425 373.597 458.118 372.023 453.81C325.012 325.127 268.776 278.082 177.682 291.48C85.8838 304.979 47.0231 378.918 62.2633 511.17C63.3723 520.905 64.5888 530.3 65.841 539.492C31.7813 560.691 8.8129 585.893 2.0876 610.652C-2.84953 628.764 1.01428 646.538 13.2137 662.073C21.5138 672.621 32.5332 678.354 45.9847 679.066C46.8792 679.133 47.8094 679.133 48.7038 679.133C63.8726 679.133 80.2586 672.621 95.3925 664.006C121.974 731.876 164.191 764 228.909 764C243.47 764 259.176 762.372 276.062 759.184C375.197 740.426 418.454 685.411 408.434 591.392C411.475 591.595 414.481 591.697 417.486 591.697C430.652 591.697 443.423 589.73 454.443 584.676C471.366 576.909 482.205 563.104 486.678 543.635C490.005 529.083 486.857 516.025 477.34 504.798C457.592 481.53 412.656 471.252 376.594 466.742L376.638 466.733ZM468.793 539.963C465.538 554.14 458.24 563.638 446.505 569.031C406.041 587.652 329.263 552.479 328.475 552.14C323.932 550.037 318.458 551.834 316.24 556.142C314.022 560.45 315.882 565.64 320.426 567.776C322.573 568.759 354.378 583.277 389.796 589.212C400.673 677.433 364.396 724.781 272.482 742.182C188.658 758.056 140.146 731.599 111.095 654.162C132.918 639.102 149.411 622.618 150.699 621.329C154.169 617.836 153.955 612.341 150.27 609.051C146.585 605.761 140.789 605.964 137.318 609.458C122.4 624.552 77.2495 663.456 46.9467 661.759C39.0759 661.352 32.8147 658.062 27.8424 651.72C18.8267 640.222 16.1796 628.215 19.757 615.02C27.4489 586.8 63.6193 555.833 114.175 534.193C118.79 532.226 120.829 527.07 118.754 522.695C116.679 518.319 111.241 516.386 106.626 518.353C98.3261 521.915 90.4555 525.713 82.9425 529.682C82.0839 523 81.2252 516.25 80.4024 509.297C66.2347 386.275 98.97 320.639 180.435 308.639C248.303 298.634 303.895 320.477 354.662 459.508C355.306 461.238 355.879 462.934 356.523 464.663C338.992 463.239 326.434 463.137 324.896 463.137H324.861C319.816 463.137 315.702 467.004 315.702 471.786C315.702 476.569 319.78 480.469 324.825 480.503C355.02 480.571 438.769 487.049 463.067 515.677C469.042 522.732 470.903 530.669 468.756 539.962L468.793 539.963Z" fill="black"/>
<path d="M203.509 610.646C199.967 609.9 196.318 610.578 193.277 612.444C190.236 614.309 188.161 617.192 187.41 620.55C186.658 623.908 187.338 627.368 189.306 630.251C191.274 633.134 194.315 635.101 197.856 635.814C198.822 636.017 199.788 636.085 200.719 636.085C203.294 636.085 205.87 635.373 208.089 634.016C211.13 632.15 213.205 629.267 213.992 625.91C215.53 618.99 210.843 612.139 203.545 610.646L203.509 610.646Z" fill="black"/>
<path d="M287.413 589.312C283.835 588.566 280.222 589.21 277.181 591.11C274.14 592.975 272.065 595.858 271.278 599.216C269.739 606.135 274.426 612.987 281.724 614.479C282.69 614.683 283.62 614.751 284.55 614.751C290.811 614.751 296.464 610.612 297.823 604.575V604.541C298.575 601.183 297.895 597.723 295.927 594.84C293.959 591.957 290.918 589.99 287.377 589.278L287.413 589.312Z" fill="black"/>
<path d="M279.143 639.952C264.045 641.783 256.639 629.233 256.388 628.792C254.385 625.197 250.02 623.433 245.871 624.451C241.72 625.502 238.93 629.165 239.109 633.235C239.824 647.956 230.773 651.822 229.628 652.263C224.941 653.858 222.436 658.708 224.011 663.219C225.299 666.848 228.876 669.121 232.704 669.121C233.67 669.121 234.672 668.985 235.638 668.68C236.318 668.476 248.303 664.474 254.241 651.28C260.86 655.486 269.947 658.606 281.503 657.215C286.512 656.605 290.054 652.229 289.41 647.481C288.766 642.732 284.079 639.442 279.178 639.985L279.143 639.952Z" fill="black"/>
<path d="M593.692 84.3387C547.755 39.1598 503.964 49.7757 487.221 56.4243C459.351 67.5152 417.528 103.672 437.527 168.662C444.325 190.777 456.74 204.955 474.377 210.755C480.208 212.654 486.505 213.638 493.231 213.638C517.058 213.638 546.645 201.766 581.491 178.16L583.567 176.769C593.512 170.155 610.971 153.06 613.261 130.809C614.943 114.427 608.36 98.7906 593.692 84.3749L593.692 84.3387Z" fill="black"/>
<path d="M812.605 166.689C789.422 145.864 742.948 140.775 706.024 140.403C704.879 138.673 703.627 136.74 702.339 134.738C699.263 130.024 696.114 125.105 694.182 122.426C613.363 9.81497 546.067 -21.6265 461.888 13.8526C376.991 49.6364 359.85 130.597 411.014 254.504C414.842 263.798 418.67 272.753 422.498 281.469C396.417 310.131 376.847 344.219 380.961 371.999C383.43 388.687 394.198 401.44 412.051 408.767C418.455 411.413 424.894 412.6 431.227 412.6C449.616 412.6 467.326 402.73 482.423 390.214C517.305 437.971 555.192 461.171 601.698 461.171C626.813 461.171 654.468 454.387 685.486 441.092C773.818 403.171 802.655 338.796 769.668 254.579C783.048 252.951 795.642 249.389 805.659 242.809C819.219 233.889 826.696 220.762 827.877 203.837C828.879 189.15 823.763 176.668 812.708 166.697L812.605 166.689ZM795.147 228.522C766.775 247.177 702.524 234.695 680.158 228.319C675.328 226.962 670.213 229.54 668.745 234.119C667.279 238.698 670.033 243.548 674.863 244.939C677.189 245.617 713.251 255.725 749.743 255.725H750.459C782.944 333.499 758.688 390.582 677.868 425.245C597.335 459.808 544.425 446.07 495.654 377.895C513.507 359.749 525.42 340.924 526.494 339.228C529.07 335.09 527.603 329.765 523.274 327.323C518.909 324.881 513.293 326.237 510.716 330.375C496.907 352.524 453.545 406.929 419.271 392.819C407.215 387.867 400.631 380.235 399.022 369.551C394.979 342.349 423.779 297.882 467.427 263.826C471.327 260.773 471.899 255.312 468.679 251.616C465.46 247.919 459.7 247.376 455.8 250.428C449.182 255.584 442.599 261.35 436.159 267.455C433.44 261.146 430.721 254.77 428.002 248.189C380.456 132.939 393.943 61.4681 469.288 29.7228C532.041 3.30017 591.714 10.5931 679.006 132.192C680.401 134.125 682.477 137.28 684.659 140.671C666.771 141.282 654.07 142.673 652.532 142.876C647.523 143.453 643.91 147.76 644.518 152.543C645.126 157.292 649.777 160.683 654.714 160.141C685.339 156.681 771.058 153.357 800 179.338C807.048 185.647 810.161 193.313 809.481 202.742C808.694 214.307 804.007 222.753 795.099 228.588L795.147 228.522Z" fill="black"/>
<path d="M577.847 311.861H577.704C574.126 311.861 570.763 313.15 568.223 315.525C565.647 317.933 564.18 321.155 564.144 324.581C564.109 328.041 565.504 331.263 568.008 333.739C570.548 336.181 573.947 337.572 577.561 337.606H577.704C585.11 337.606 591.192 331.908 591.264 324.887C591.335 317.798 585.324 311.963 577.847 311.861Z" fill="black"/>
<path d="M655.697 275.228C652.513 275.16 648.649 276.483 646.073 278.891C643.497 281.299 642.03 284.521 641.994 287.947C641.959 291.407 643.354 294.629 645.858 297.105C648.398 299.547 651.797 300.938 655.411 300.972H655.554C662.96 300.972 669.042 295.274 669.113 288.253C669.185 281.164 663.174 275.329 655.697 275.228Z" fill="black"/>
<path d="M658.124 326.449C643.706 331.062 633.832 320.174 633.474 319.733C630.755 316.579 626.104 315.629 622.276 317.427C618.447 319.258 616.444 323.329 617.481 327.297C621.238 341.61 613.188 347.071 612.151 347.716C607.858 350.158 606.427 355.382 608.931 359.486C610.612 362.267 613.725 363.827 616.873 363.827C618.412 363.827 619.986 363.454 621.453 362.674C622.097 362.335 633.008 356.162 636.05 342.154C643.42 345.037 652.937 346.427 663.992 342.866C668.786 341.34 671.362 336.387 669.752 331.843C668.142 327.298 662.954 324.855 658.125 326.416L658.124 326.449Z" fill="black"/>
</svg>
