<svg width="793" height="513" viewBox="0 0 793 513" fill="none" xmlns="http://www.w3.org/2000/svg">
<path fill-rule="evenodd" clip-rule="evenodd" d="M193.248 163.033C116.559 114.417 19.9886 185.911 45.5514 274.563C-11.2549 237.386 -16.9356 151.594 39.8708 111.557C96.6771 68.6608 176.206 97.2583 193.248 163.033ZM664.741 51.5022C684.623 -25.7112 801.076 -2.83311 792.555 34.3437C781.194 71.5205 715.867 8.60592 701.665 68.6608C829.479 151.594 772.673 354.636 619.296 354.636C465.918 354.636 409.112 151.594 536.926 68.6608C519.885 8.60592 457.398 71.5205 446.036 34.3437C437.515 -2.83311 553.968 -25.7112 573.851 51.5022C602.254 42.923 636.338 42.923 664.741 51.5022ZM687.463 137.295C710.186 137.295 730.068 154.453 730.068 177.331C730.068 200.21 710.186 220.228 687.463 220.228C664.741 220.228 647.699 200.21 647.699 177.331C647.699 154.453 664.741 137.295 687.463 137.295ZM548.288 134.435C571.01 134.435 590.893 151.594 590.893 174.472C590.893 197.35 571.01 217.368 548.288 217.368C525.565 217.368 508.523 197.35 508.523 174.472C508.523 151.594 525.565 134.435 548.288 134.435ZM460.238 277.423C471.599 408.972 639.178 454.728 715.866 346.057C724.387 443.289 633.497 523.362 536.926 497.624C440.356 471.886 403.431 357.496 460.238 277.423ZM443.196 257.405C338.104 311.74 357.986 471.886 471.599 497.624C394.911 540.52 298.34 489.045 286.978 400.392C275.617 308.88 357.986 237.386 443.196 257.405ZM315.382 263.124C215.97 286.002 198.929 420.411 289.819 469.027C213.13 486.185 144.963 423.27 153.484 346.057C164.845 268.844 250.054 225.947 315.382 263.124ZM261.416 228.807C162.004 203.069 85.3159 314.6 142.122 400.392C68.274 380.374 34.1902 294.581 79.6352 228.807C122.24 165.892 215.971 165.892 261.416 228.807Z" fill="black"/>
</svg>
