<svg width="656" height="718" viewBox="0 0 656 718" fill="none" xmlns="http://www.w3.org/2000/svg">
<path d="M553.267 0.00494576H524.772C536.222 8.15775 546.238 18.4611 554.643 30.2409C595.848 34.4457 628.326 72.1607 628.326 118.384V599.653C628.326 645.905 595.848 683.556 554.643 687.796C546.238 699.544 536.223 709.847 524.772 718H553.267C610.022 718 656 667.607 656 605.403V112.606C656 50.4333 610.021 0.00494576 553.267 0.00494576Z" fill="black"/>
<path d="M27.5288 186.46H71.8676C87.0666 186.46 99.3964 172.947 99.3964 156.288C99.3964 139.629 87.0673 126.116 71.8676 126.116H27.5288C12.3298 126.084 0 139.597 0 156.256C0 172.946 12.3291 186.46 27.5288 186.46Z" fill="black"/>
<path d="M27.5288 389.189H71.8676C87.0666 389.189 99.3964 375.676 99.3964 359.017C99.3964 342.358 87.0673 328.845 71.8676 328.845H27.5288C12.3298 328.845 0 342.358 0 359.017C0 375.676 12.3291 389.189 27.5288 389.189Z" fill="black"/>
<path d="M99.4271 561.778C99.4271 545.12 87.0981 531.606 71.8984 531.606H27.5303C12.3313 531.574 0.001503 545.087 0.001503 561.778C0.001503 578.436 12.3306 591.95 27.5303 591.95H71.8691C87.0973 591.95 99.4271 578.437 99.4271 561.778Z" fill="black"/>
<path d="M275.67 535.87L278.481 503.194L253.12 520.655C248.61 523.833 242.87 524.315 237.95 521.939L210.451 508.94L217.772 540.781C219.09 546.494 217.743 552.561 214.199 556.991L194.402 581.641L224.274 583.856C229.663 584.273 234.524 587.547 237.248 592.619L252.535 620.865L263.722 590.372C265.743 584.884 270.107 580.807 275.349 579.523L304.576 572.333L281.587 551.277C277.34 547.49 275.172 541.744 275.67 535.87Z" fill="black"/>
<path d="M219.524 181.225C224.795 181.225 229.774 184.05 232.819 188.865L250.098 215.666L259.001 184.307C260.611 178.657 264.653 174.228 269.807 172.527L298.39 162.833L273.966 143.863C269.573 140.461 266.996 134.876 267.084 129.034L267.494 96.1664L243.48 115.778C239.145 119.309 233.523 120.304 228.427 118.378L200.079 107.785L209.684 138.92C211.412 144.505 210.533 150.668 207.312 155.386L189.301 181.61L219.261 181.225L219.524 181.225Z" fill="black"/>
<path d="M420.282 286.666C406.781 286.826 394.394 296.519 387.951 311.99C386.809 314.751 384.671 316.837 382.035 317.8C379.429 318.795 376.588 318.506 374.128 317.062C367.627 313.178 360.715 311.252 354.126 311.252C346.921 311.252 340.068 313.563 334.387 318.121C323.435 326.98 318.983 342.194 322.233 359.88C329.584 400.194 381.069 416.307 411.787 416.949H411.845C412.138 416.949 412.431 416.853 412.666 416.628C436.856 395.861 469.187 349.062 452.904 311.993C445.788 295.783 433.959 286.794 420.282 286.666Z" fill="black"/>
<path d="M568.966 662.239C592.013 652.577 608.443 628.28 608.443 599.648V118.347C608.443 89.6841 591.984 65.4186 568.966 55.7571C576.404 73.0579 580.855 92.1878 580.855 112.57V605.4C580.855 625.814 576.404 644.906 568.966 662.239Z" fill="black"/>
<path d="M560.936 605.427V112.597C560.936 50.3922 514.958 0 458.203 0H112.165C77.6659 0 49.6986 30.6534 49.6986 68.4638V104.253H71.8968C98.0784 104.253 119.34 127.587 119.34 156.251C119.34 184.914 98.0784 208.281 71.8968 208.281H49.7278V307.016H71.9261C98.1076 307.016 119.369 330.35 119.369 359.014C119.369 387.677 98.0784 411.011 71.9261 411.011H49.7278V509.747H71.9261C98.1076 509.747 119.369 533.081 119.369 561.744C119.369 590.408 98.0784 613.742 71.9261 613.742H49.7278V649.531C49.7278 687.342 77.6959 717.995 112.194 717.995H458.232C514.959 718.027 560.936 667.598 560.936 605.427ZM169.038 174.874L190.182 143.868L178.907 107.309C176.887 100.761 178.409 93.6998 182.832 88.8205C187.283 83.9417 193.696 82.2726 199.7 84.5195L233.027 96.9411L261.317 73.8629C266.354 69.7544 272.944 69.1767 278.537 72.258C284.101 75.4036 287.528 81.5982 287.44 88.4676L286.971 127.145L315.759 149.517C320.884 153.497 323.461 160.206 322.465 167.01C321.499 173.783 317.165 179.272 311.19 181.294L277.512 192.753L267.028 229.665C265.153 236.213 260.175 240.963 253.966 242.054C253.088 242.215 252.209 242.279 251.36 242.279C246.088 242.279 241.139 239.519 238.035 234.704L217.682 203.088L182.334 203.505H182.129C175.979 203.505 170.386 199.782 167.574 193.715C164.734 187.617 165.29 180.363 169.038 174.874ZM328.18 578.664C326.716 585.34 321.971 590.412 315.851 591.92L281.44 600.394L268.291 636.279C265.948 642.666 260.619 646.968 254.351 647.513C253.941 647.545 253.472 647.577 253.062 647.577C247.293 647.577 241.992 644.303 239.005 638.783L221.024 605.497L185.881 602.865C179.614 602.416 174.225 598.147 171.824 591.759C169.423 585.404 170.536 578.214 174.694 573.079L197.947 544.127L189.338 506.605C187.815 499.929 189.835 493.028 194.609 488.567C199.382 484.105 205.913 483.046 211.682 485.774L244.072 501.085L273.944 480.542C279.274 476.883 285.922 476.851 291.222 480.478C296.552 484.073 299.51 490.557 298.953 497.426L295.644 535.943L322.734 560.754C327.595 565.087 329.644 571.956 328.18 578.664ZM424.998 433.807C421.249 437.017 416.622 438.75 411.878 438.75H411.439C373.074 437.915 312.454 417.373 302.76 364.123C298.016 338.156 305.484 314.372 322.645 300.506C337.287 288.63 356.557 286.19 374.627 293.38C385.14 275.727 401.863 265.006 420.108 264.813H420.635C441.75 264.813 460.522 278.872 470.889 302.527C492.385 351.508 455.221 407.866 424.998 433.807Z" fill="black"/>
</svg>
