<svg width="794" height="726" viewBox="0 0 794 726" fill="none" xmlns="http://www.w3.org/2000/svg">
<path d="M741.102 432.562C736.584 399.781 727.647 368.085 714.651 338.671C731.412 245.941 725.683 39.2318 669.049 4.94139C619.027 -25.2849 523.99 90.9755 486.085 141.677C427.421 125.964 366.528 125.964 307.864 141.677C269.923 90.9775 174.924 -25.2076 124.9 5.06028C68.2663 39.4666 62.5374 246.173 79.2985 338.79C66.3019 368.204 57.3649 399.9 52.8478 432.642C35.2025 445.065 -5.09614 476.22 0.534746 498.861C3.87389 512.329 22.1406 523.165 42.7978 530.132C30.1943 550.45 21.3554 571.852 25.611 584.894C30.6524 600.336 55.6955 602.929 77.3022 602.194C130.237 697.632 253.721 726 397.003 726C540.26 726 663.672 697.631 716.704 602.194C738.31 602.929 763.386 600.297 768.395 584.894C772.618 571.852 763.812 550.488 751.209 530.132C771.865 522.933 790.099 512.097 793.472 498.861C799.07 476.143 758.738 444.949 741.093 432.565L741.102 432.562ZM320.147 492.085C316.971 495.955 292.256 473.005 263.611 439.954C235.032 472.928 210.676 495.839 207.075 492.085C203.474 488.331 223.214 459.111 251.171 425.247C223.214 391.46 203.9 362.666 207.075 358.409C210.25 354.152 235.032 377.489 263.611 410.54C292.288 377.489 316.546 354.655 320.147 358.409C323.748 362.163 304.008 391.46 276.051 425.247C304.368 459.15 323.42 488.331 320.147 492.085ZM325.45 310.418C310.555 316.998 295.464 312.702 291.765 300.82C288.065 288.939 297.133 274.116 312.061 267.652C326.956 261.189 342.048 265.369 345.747 277.25C349.446 289.132 340.346 303.955 325.45 310.418ZM428.665 661.873C425.588 672.284 412.951 677.741 397.009 677.818C381.034 677.934 368.43 672.284 365.353 661.873C359.363 641.631 379.102 587.914 397.009 587.604C414.883 587.333 434.656 641.67 428.632 661.873H428.665ZM402.214 535.976C400.905 545.381 398.417 561.21 396.584 561.21C394.685 561.248 392.557 545.613 391.346 536.015C373.7 531.332 352.881 508.072 360.901 499.712C365.386 495.107 381.198 492.707 396.977 492.63C412.756 492.514 428.567 495.145 433.052 499.712C441.073 508.072 419.827 531.331 402.608 536.015L402.214 535.976ZM447.816 277.218C451.515 265.336 466.607 261.041 481.502 267.62C496.397 274.199 505.498 288.48 501.799 300.788C498.099 313.095 483.008 316.965 468.113 310.386C453.186 303.845 444.51 289.061 448.242 277.256L447.816 277.218ZM586.648 492.095C583.375 495.965 558.692 473.015 530.112 439.964C501.435 472.938 477.177 495.849 473.576 492.095C469.975 488.341 489.716 459.121 517.672 425.257C489.716 391.47 470.303 362.676 473.576 358.419C476.85 354.162 501.468 377.499 530.112 410.55C558.692 377.499 583.047 354.665 586.648 358.419C590.249 362.173 570.509 391.47 542.552 425.257C570.771 459.16 590.086 488.341 586.648 492.095Z" fill="black"/>
</svg>
