<svg width="813" height="608" viewBox="0 0 813 608" fill="none" xmlns="http://www.w3.org/2000/svg">
<path d="M763.871 517.076L720.044 540.843L648.942 502.244C663.89 474.912 673.852 445.233 678.38 414.545H810.049C803.51 451.925 787.648 487.144 763.871 517.076ZM217.443 515.878C204.35 498.958 193.686 480.361 185.748 460.606C180.884 448.665 177.076 436.337 174.368 423.757C171.049 408.213 169.348 392.379 169.289 376.499L172.487 380.276C174.252 382.362 176.465 384.042 178.969 385.194C181.472 386.347 184.204 386.945 186.971 386.945C189.737 386.945 192.469 386.347 194.973 385.194C197.476 384.042 199.689 382.362 201.454 380.276L281.961 285.575L296.632 268.257L311.398 285.575L342.717 322.424L343.469 323.253L389.836 377.697L391.999 380.276C393.824 382.252 396.052 383.831 398.538 384.912C401.025 385.993 403.715 386.552 406.435 386.552C409.156 386.552 411.846 385.993 414.333 384.912C416.819 383.831 419.047 382.252 420.872 380.276L423.035 377.697L470.06 322.977V322.424L497.522 290.182L516.144 268.072L609.253 377.697L611.417 380.276C613.182 382.346 615.39 384.012 617.884 385.154C620.379 386.297 623.099 386.889 625.853 386.889C628.607 386.889 631.327 386.297 633.822 385.154C636.316 384.012 638.524 382.346 640.29 380.276L642.453 377.697L643.676 376.315V377.697C643.6 390.051 642.467 402.376 640.29 414.545C635.779 440.633 626.678 465.756 613.392 488.795C608.118 498.238 602.145 507.29 595.522 515.878H217.443ZM5.17273 423.757C1.74965 407.947 0.0160724 391.831 0 375.67C0.125993 357.819 1.76178 340.01 4.89058 322.424H136.56C136.56 324.635 135.902 326.846 135.62 328.965L134.773 335.413C133.036 348.766 132.125 362.209 132.046 375.67C131.892 391.79 133.278 407.889 136.184 423.757H5.17273ZM217.349 184.242C222.898 171.714 228.917 159.37 235.312 147.394C245.429 128.249 256.834 109.784 269.452 92.1211H543.513C546.146 95.806 548.779 99.5829 551.319 103.452C570.249 131.903 586.403 162.037 599.566 193.454C604.833 205.614 609.63 217.959 613.956 230.303C625.118 260.868 633.49 292.344 638.973 324.358L625.9 339.743L532.697 230.303L530.534 227.723C528.709 225.747 526.481 224.168 523.994 223.087C521.508 222.006 518.818 221.448 516.097 221.448C513.377 221.448 510.687 222.006 508.2 223.087C505.713 224.168 503.486 225.747 501.661 227.723L499.497 230.303L421.154 322.424L406.482 339.743L391.623 322.424L360.304 285.575L353.532 277.653L311.116 227.723C309.291 225.747 307.063 224.168 304.577 223.087C302.09 222.006 299.4 221.448 296.679 221.448C293.959 221.448 291.269 222.006 288.782 223.087C286.296 224.168 284.068 225.747 282.243 227.723L201.736 322.424L186.971 339.743L173.992 324.451C173.955 323.776 173.955 323.099 173.992 322.424C175.967 310.54 178.506 298.196 181.704 285.575C190.627 250.868 202.552 216.968 217.349 184.242ZM681.201 377.697C681.248 377.022 681.248 376.345 681.201 375.67C681.125 362.179 680.214 348.704 678.474 335.321C676.494 319.343 673.668 303.477 670.009 287.786C665.777 269.362 660.605 249.74 653.833 230.303H783.339C801.006 276.918 811.005 325.984 812.965 375.67C813.012 376.345 813.012 377.022 812.965 377.697H681.201ZM768.856 193.454H640.384C625.38 155.705 606.472 119.559 583.954 85.5805L617.812 67.1563L710.545 117.454C713.336 118.971 716.476 119.766 719.668 119.766C722.86 119.766 725.999 118.971 728.79 117.454C744.116 141.743 757.511 167.152 768.856 193.454ZM575.772 0C617.342 0 656.56 25.5176 690.7 64.4848L627.311 30.1236C624.52 28.6073 621.38 27.8116 618.188 27.8116C614.996 27.8116 611.857 28.6073 609.065 30.1236L562.04 55.4569C550.195 40.4858 537.075 26.5255 522.822 13.726C539.045 4.94001 557.236 0.224392 575.772 0ZM353.532 13.726C369.637 4.78813 387.831 0.0901553 406.341 0.0901553C424.851 0.0901553 443.046 4.78813 459.15 13.726C470.604 19.5262 481.335 26.6052 491.127 34.8218C498.843 41.2025 506.161 48.0317 513.041 55.2727H299.924C306.801 48.1153 314.119 41.3778 321.838 35.0981C331.507 26.7767 342.145 19.603 353.532 13.726ZM237.193 0C255.573 0.273476 273.6 4.98838 289.673 13.726C275.459 26.442 262.4 40.3431 250.642 55.2727H131.199C159.32 25.9782 195.905 0 237.193 0ZM100.633 92.1211H224.308C212.865 109.966 202.441 128.419 193.084 147.394H66.1169C76.3066 128.212 87.8395 109.743 100.633 92.1211ZM47.9653 184.242H176.343C162.394 217.048 151.289 250.945 143.143 285.575H12.6967C21.4085 250.854 33.2098 216.946 47.9653 184.242ZM145.777 460.606C152.304 479.965 161.11 498.514 172.017 515.878H48.0594C34.921 499.004 24.2824 480.396 16.4587 460.606H145.777ZM237.193 607.999C180.917 608.05 126.466 588.453 83.6101 552.727H199.573C218.483 573.924 240.703 592.052 265.408 606.433C256.04 607.472 246.621 607.995 237.193 607.999ZM434.697 606.341C425.336 607.464 415.913 608.018 406.482 607.999C397.243 607.991 388.011 607.468 378.832 606.433C359.323 604.208 340.176 599.596 321.838 592.707C296.784 583.273 273.539 569.755 253.087 552.727H559.877C547.376 563.285 533.792 572.546 519.342 580.363C510.267 585.141 500.835 589.237 491.127 592.615C472.99 599.523 454.027 604.136 434.697 606.341ZM575.772 607.999C566.341 608.021 556.918 607.467 547.557 606.341C579.318 587.691 606.896 562.935 628.628 533.566L700.858 572.717C663.383 595.774 620.026 608.003 575.772 607.999Z" fill="black"/>
</svg>
