<svg width="735" height="833" viewBox="0 0 735 833" fill="none" xmlns="http://www.w3.org/2000/svg">
<path d="M735 649.34V762.557C735 764.183 734.65 765.792 733.969 767.294C733.289 768.796 732.292 770.161 731.035 771.311C729.777 772.46 728.285 773.372 726.642 773.995C725 774.617 723.239 774.937 721.461 774.937H476.561C462.56 702.379 448.615 620.133 440.097 533.668C471.641 505.676 513.716 489.8 557.668 489.306C580.843 489.023 603.85 492.953 625.351 500.867C646.852 508.782 666.42 520.523 682.918 535.41C699.416 550.297 712.515 568.032 721.456 587.587C730.397 607.141 735.001 628.125 735 649.319V649.34ZM381.216 141.155C381.21 138.821 380.192 136.584 378.386 134.934C376.58 133.285 374.133 132.357 371.581 132.354H81.8448C79.2923 132.357 76.8451 133.285 75.0391 134.934C73.2332 136.584 72.2158 138.821 72.2099 141.155V202.086H381.216V141.155ZM226.707 0C194.266 0.0365258 162.987 11.0474 138.893 30.9121C114.799 50.7769 99.5945 78.0908 96.2069 107.594H357.207C353.822 78.0899 338.618 50.7747 314.524 30.9095C290.429 11.0443 259.149 0.0342351 226.707 0ZM452.812 794.229C453.746 798.973 453.531 803.846 452.181 808.504C450.831 813.163 448.379 817.494 444.998 821.192C441.617 824.889 437.39 827.863 432.615 829.903C427.841 831.944 422.634 833.001 417.363 833H36.0281C30.7572 833.001 25.5504 831.943 20.7751 829.903C15.9997 827.863 11.7721 824.889 8.39057 821.192C5.00904 817.495 2.55597 813.164 1.20442 808.505C-0.14713 803.846 -0.36422 798.973 0.56846 794.229C31.4476 637.042 63.9288 431.232 40.9133 233.304C40.8185 232.477 40.9195 231.64 41.2096 230.852C41.4996 230.063 41.9719 229.341 42.5943 228.734C43.1819 228.13 43.9034 227.648 44.7106 227.319C45.5179 226.99 46.3925 226.821 47.2764 226.825H406.194C407.078 226.821 407.953 226.99 408.76 227.319C409.567 227.648 410.289 228.13 410.876 228.734C411.48 229.346 411.935 230.068 412.211 230.852C412.487 231.636 412.578 232.465 412.478 233.284C389.463 431.222 421.944 637.042 452.812 794.229ZM326.339 453.857C320.735 448.49 314.005 444.212 306.552 441.278C299.098 438.345 291.074 436.816 282.96 436.783H282.204C265.1 436.821 248.703 443.031 236.579 454.063C235.321 455.218 233.827 456.133 232.181 456.758C230.535 457.383 228.771 457.705 226.989 457.705C225.207 457.705 223.443 457.383 221.797 456.758C220.152 456.133 218.657 455.218 217.399 454.063C211.488 448.627 204.455 444.317 196.708 441.384C188.961 438.451 180.655 436.954 172.271 436.979H172.124C163.809 436.968 155.575 438.47 147.9 441.398C140.226 444.326 133.266 448.621 127.425 454.033C118.581 460.978 111.753 469.817 107.551 479.76C103.348 489.704 101.9 500.443 103.337 511.023C112.645 566.847 202.214 617.667 226.978 630.698C251.505 617.853 339.607 568.167 349.66 512.322C351.299 501.576 350.031 490.626 345.965 480.433C341.899 470.24 335.16 461.114 326.339 453.857Z" fill="black"/>
</svg>
