<svg width="786" height="827" viewBox="0 0 786 827" fill="none" xmlns="http://www.w3.org/2000/svg">
<path d="M756.525 357.882H29.475C21.6577 357.882 14.1607 360.902 8.63302 366.277C3.10539 371.653 0 378.943 0 386.545V798.337C0 805.939 3.10539 813.229 8.63302 818.605C14.1607 823.98 21.6577 827 29.475 827H756.525C764.342 827 771.839 823.98 777.367 818.605C782.895 813.229 786 805.939 786 798.337V386.545C786 378.943 782.895 371.653 777.367 366.277C771.839 360.902 764.342 357.882 756.525 357.882ZM727.05 638.78C691.69 640.367 658.182 654.612 632.971 678.776C607.76 702.939 592.627 735.315 590.483 769.674H195.518C193.373 735.315 178.24 702.939 153.029 678.776C127.818 654.612 94.3103 640.367 58.95 638.78V546.103C94.3103 544.515 127.818 530.27 153.029 506.106C178.24 481.943 193.373 449.568 195.518 415.208H590.483C592.627 449.568 607.76 481.943 632.971 506.106C658.182 530.27 691.69 544.515 727.05 546.103V638.78Z" fill="black"/>
<path d="M393 469.668C367.891 469.669 343.348 476.922 322.485 490.508C301.621 504.093 285.377 523.399 275.814 545.976C266.251 568.553 263.799 593.383 268.77 617.317C273.74 641.251 285.909 663.21 303.733 680.409C321.556 697.607 344.232 709.27 368.882 713.917C393.532 718.564 419.046 715.987 442.187 706.511C465.328 697.036 485.054 681.09 498.862 660.696C512.67 640.302 519.937 616.38 519.743 591.963C519.483 559.441 506.016 528.337 482.275 505.429C458.534 482.521 426.445 469.667 393 469.668Z" fill="black"/>
<path d="M422.475 295.779V97.0488L500.093 172.528L541.358 132.4L413.633 8.19353C408.123 2.94169 400.715 0 393 0C385.285 0 377.877 2.94169 372.368 8.19353L244.643 132.4L285.908 172.528L363.525 97.0488V295.779H422.475Z" fill="black"/>
</svg>
