<svg width="709" height="694" viewBox="0 0 709 694" fill="none" xmlns="http://www.w3.org/2000/svg">
<path fill-rule="evenodd" clip-rule="evenodd" d="M8.9396 161.517C11.8409 85.1222 13.2916 46.923 36.4749 23.4614C59.6581 3.17846e-06 95.9527 0 168.543 0H540.458C613.048 0 649.342 3.17846e-06 672.525 23.4614C695.708 46.923 697.16 85.1223 700.061 161.519L707.248 350.792C710.369 432.982 711.931 474.08 688.36 499.918C664.79 525.758 625.742 525.758 547.646 525.758H161.355C83.2584 525.758 44.2104 525.758 20.6402 499.918C-2.93014 474.08 -1.36958 432.982 1.75174 350.792L8.9396 161.517ZM394.431 420.606C394.431 443.836 376.553 462.667 354.499 462.667C332.444 462.667 314.566 443.836 314.566 420.606C314.566 397.376 332.444 378.545 354.499 378.545C376.553 378.545 394.431 397.376 394.431 420.606Z" fill="black"/>
<path d="M217.975 630.909C186.914 630.909 164.979 662.961 174.802 694H534.195C544.018 662.961 522.083 630.909 491.022 630.909H444.347L434.364 588.848H274.634L264.65 630.909H217.975Z" fill="black"/>
</svg>
