<svg width="751" height="785" viewBox="0 0 751 785" fill="none" xmlns="http://www.w3.org/2000/svg">
<path d="M669.37 0H81.6304C59.9831 0.00570586 39.2246 6.27308 23.9177 17.4246C8.61068 28.5761 0.00783208 43.6991 0 59.4697V725.53C0.00783208 741.301 8.61068 756.424 23.9177 767.575C39.2246 778.727 59.9831 784.994 81.6304 785H669.37C691.017 784.994 711.775 778.727 727.082 767.575C742.389 756.424 750.992 741.301 751 725.53V59.4697C750.992 43.6991 742.389 28.5761 727.082 17.4246C711.775 6.27308 691.017 0.00570586 669.37 0ZM228.565 47.5758H244.891C249.221 47.5758 253.374 48.8289 256.436 51.0594C259.497 53.29 261.217 56.3152 261.217 59.4697C261.217 62.6242 259.497 65.6494 256.436 67.88C253.374 70.1105 249.221 71.3636 244.891 71.3636H228.565C224.235 71.3636 220.083 70.1105 217.021 67.88C213.959 65.6494 212.239 62.6242 212.239 59.4697C212.239 56.3152 213.959 53.29 217.021 51.0594C220.083 48.8289 224.235 47.5758 228.565 47.5758ZM163.261 47.5758H179.587C183.917 47.5758 188.07 48.8289 191.131 51.0594C194.193 53.29 195.913 56.3152 195.913 59.4697C195.913 62.6242 194.193 65.6494 191.131 67.88C188.07 70.1105 183.917 71.3636 179.587 71.3636H163.261C158.931 71.3636 154.778 70.1105 151.717 67.88C148.655 65.6494 146.935 62.6242 146.935 59.4697C146.935 56.3152 148.655 53.29 151.717 51.0594C154.778 48.8289 158.931 47.5758 163.261 47.5758ZM97.9565 47.5758H114.283C118.613 47.5758 122.765 48.8289 125.827 51.0594C128.889 53.29 130.609 56.3152 130.609 59.4697C130.609 62.6242 128.889 65.6494 125.827 67.88C122.765 70.1105 118.613 71.3636 114.283 71.3636H97.9565C93.6266 71.3636 89.474 70.1105 86.4122 67.88C83.3505 65.6494 81.6304 62.6242 81.6304 59.4697C81.6304 56.3152 83.3505 53.29 86.4122 51.0594C89.474 48.8289 93.6266 47.5758 97.9565 47.5758ZM32.6522 118.939V95.1515H571.413C575.743 95.1515 579.896 96.4046 582.957 98.6352C586.019 100.866 587.739 103.891 587.739 107.045C587.739 110.2 586.019 113.225 582.957 115.456C579.896 117.686 575.743 118.939 571.413 118.939H32.6522ZM571.413 249.773H375.5C371.17 249.773 367.017 248.52 363.956 246.289C360.894 244.059 359.174 241.033 359.174 237.879C359.174 234.724 360.894 231.699 363.956 229.468C367.017 227.238 371.17 225.985 375.5 225.985H571.413C575.743 225.985 579.896 227.238 582.957 229.468C586.019 231.699 587.739 234.724 587.739 237.879C587.739 241.033 586.019 244.059 582.957 246.289C579.896 248.52 575.743 249.773 571.413 249.773ZM587.739 285.455C587.726 288.606 586.002 291.626 582.943 293.854C579.884 296.083 575.739 297.339 571.413 297.348H375.5C371.17 297.348 367.017 296.095 363.956 293.865C360.894 291.634 359.174 288.609 359.174 285.455C359.174 282.3 360.894 279.275 363.956 277.044C367.017 274.814 371.17 273.561 375.5 273.561H571.413C575.739 273.57 579.884 274.826 582.943 277.055C586.002 279.283 587.726 282.303 587.739 285.455ZM571.413 451.97H375.5C371.17 451.97 367.017 450.717 363.956 448.486C360.894 446.255 359.174 443.23 359.174 440.076C359.174 436.921 360.894 433.896 363.956 431.665C367.017 429.435 371.17 428.182 375.5 428.182H571.413C575.743 428.182 579.896 429.435 582.957 431.665C586.019 433.896 587.739 436.921 587.739 440.076C587.739 443.23 586.019 446.255 582.957 448.486C579.896 450.717 575.743 451.97 571.413 451.97ZM587.739 487.651C587.726 490.803 586.002 493.823 582.943 496.051C579.884 498.28 575.739 499.536 571.413 499.545H375.5C371.17 499.545 367.017 498.292 363.956 496.062C360.894 493.831 359.174 490.806 359.174 487.651C359.174 484.497 360.894 481.472 363.956 479.241C367.017 477.011 371.17 475.758 375.5 475.758H571.413C575.739 475.767 579.884 477.023 582.943 479.252C586.002 481.48 587.726 484.5 587.739 487.651ZM310.196 689.848C310.158 699.303 304.985 708.363 295.808 715.049C286.631 721.734 274.196 725.503 261.217 725.53H130.609C117.631 725.503 105.195 721.734 96.0178 715.049C86.8409 708.363 81.6685 699.303 81.6304 689.848V594.697C81.6683 585.242 86.8406 576.182 96.0176 569.497C105.195 562.811 117.63 559.043 130.609 559.015H261.217C274.196 559.043 286.631 562.811 295.808 569.497C304.985 576.182 310.158 585.242 310.196 594.697V689.848ZM310.196 487.651C310.158 497.106 304.985 506.166 295.808 512.852C286.631 519.537 274.196 523.306 261.217 523.333H130.609C117.631 523.306 105.195 519.537 96.0178 512.852C86.8409 506.166 81.6685 497.106 81.6304 487.651V392.5C81.6683 383.045 86.8406 373.985 96.0176 367.3C105.195 360.614 117.63 356.846 130.609 356.818H261.217C274.196 356.846 286.631 360.614 295.808 367.3C304.985 373.985 310.158 383.045 310.196 392.5V487.651ZM310.196 285.455C310.158 294.909 304.985 303.969 295.808 310.655C286.631 317.34 274.196 321.109 261.217 321.136H130.609C117.631 321.109 105.195 317.34 96.0178 310.655C86.8409 303.969 81.6685 294.909 81.6304 285.455V190.303C81.6683 180.848 86.8406 171.788 96.0176 165.103C105.195 158.417 117.63 154.649 130.609 154.621H261.217C274.196 154.649 286.631 158.417 295.808 165.103C304.985 171.788 310.158 180.848 310.196 190.303V285.455ZM571.413 701.742H375.5C371.17 701.742 367.017 700.489 363.956 698.259C360.894 696.028 359.174 693.003 359.174 689.848C359.174 686.694 360.894 683.669 363.956 681.438C367.017 679.208 371.17 677.955 375.5 677.955H571.413C575.743 677.955 579.896 679.208 582.957 681.438C586.019 683.669 587.739 686.694 587.739 689.848C587.739 693.003 586.019 696.028 582.957 698.259C579.896 700.489 575.743 701.742 571.413 701.742ZM571.413 654.167H375.5C371.17 654.167 367.017 652.914 363.956 650.683C360.894 648.452 359.174 645.427 359.174 642.273C359.174 639.118 360.894 636.093 363.956 633.862C367.017 631.632 371.17 630.379 375.5 630.379H571.413C575.743 630.379 579.896 631.632 582.957 633.862C586.019 636.093 587.739 639.118 587.739 642.273C587.739 645.427 586.019 648.452 582.957 650.683C579.896 652.914 575.743 654.167 571.413 654.167ZM653.043 606.591H375.5C371.17 606.591 367.017 605.338 363.956 603.107C360.894 600.877 359.174 597.851 359.174 594.697C359.174 591.542 360.894 588.517 363.956 586.287C367.017 584.056 371.17 582.803 375.5 582.803H653.043C657.373 582.803 661.526 584.056 664.588 586.287C667.65 588.517 669.37 591.542 669.37 594.697C669.37 597.851 667.65 600.877 664.588 603.107C661.526 605.338 657.373 606.591 653.043 606.591ZM653.043 404.394H375.5C371.17 404.394 367.017 403.141 363.956 400.91C360.894 398.68 359.174 395.654 359.174 392.5C359.174 389.346 360.894 386.32 363.956 384.09C367.017 381.859 371.17 380.606 375.5 380.606H653.043C657.373 380.606 661.526 381.859 664.588 384.09C667.65 386.32 669.37 389.346 669.37 392.5C669.37 395.654 667.65 398.68 664.588 400.91C661.526 403.141 657.373 404.394 653.043 404.394ZM653.043 202.197H375.5C371.17 202.197 367.017 200.944 363.956 198.713C360.894 196.483 359.174 193.457 359.174 190.303C359.174 187.149 360.894 184.123 363.956 181.893C367.017 179.662 371.17 178.409 375.5 178.409H653.043C657.373 178.409 661.526 179.662 664.588 181.893C667.65 184.123 669.37 187.149 669.37 190.303C669.37 193.457 667.65 196.483 664.588 198.713C661.526 200.944 657.373 202.197 653.043 202.197ZM669.37 118.939H636.717C632.387 118.939 628.235 117.686 625.173 115.456C622.111 113.225 620.391 110.2 620.391 107.045C620.391 103.891 622.111 100.866 625.173 98.6352C628.235 96.4046 632.387 95.1515 636.717 95.1515H669.37C673.699 95.1515 677.852 96.4046 680.914 98.6352C683.976 100.866 685.696 103.891 685.696 107.045C685.696 110.2 683.976 113.225 680.914 115.456C677.852 117.686 673.699 118.939 669.37 118.939Z" fill="black"/>
</svg>
