<svg width="674" height="791" viewBox="0 0 674 791" fill="none" xmlns="http://www.w3.org/2000/svg">
<path d="M673.914 720.573C674.798 672.948 668.903 626.313 655.639 580.501C637.069 517.716 641.785 468.444 657.702 418.677C672.735 329.031 617.025 249.602 507.964 178.413H161.033C27.5071 274.651 -9.63252 375.832 39.2975 481.133C65.2363 537.326 23.0857 552.652 1.8631 695.689C-4.25021 722.849 2.79452 779.963 51.6774 782.699C245.629 793.74 436.927 793.904 625.868 782.369C667.579 780.293 674.824 743.902 673.914 720.573ZM584.012 430.048C529.187 429.224 439.286 322.275 432.211 301.676C425.134 281.24 404.504 248.449 461.392 233.288C505.017 221.423 557.779 268.883 573.99 296.568C610.838 357.538 639.132 430.87 584.012 430.048Z" fill="black"/>
<path d="M445.77 18.237C441.938 12.6341 433.685 8.18478 423.074 6.86646C359.406 -1.86742 299.57 -2.52658 243.271 6.37209C232.954 8.01999 224.111 12.3045 220.869 18.0722C213.795 29.2779 209.963 42.2963 208.194 56.4683C290.521 52.225 371.007 51.9366 460.803 56.4683C460.213 43.2834 454.321 30.5962 445.77 18.237Z" fill="black"/>
<path d="M183.093 82.9369C178.972 109.282 179.479 135.625 184.614 161.97H481.592C491.638 140.707 489.84 112.988 483.482 82.782C482.441 77.8383 475.458 73.8982 466.598 73.4071C377.758 68.4898 288.917 68.4799 200.08 73.3807C191.098 73.8784 183.88 77.9108 183.093 82.9369Z" fill="black"/>
</svg>
