<svg width="548" height="824" viewBox="0 0 548 824" fill="none" xmlns="http://www.w3.org/2000/svg">
<path d="M69.5379 824H478.462C516.864 824 548 797.979 548 765.886V58.1137C548 26.021 516.864 0 478.462 0H69.5379C31.1364 0 0 26.021 0 58.1137V765.886C0 797.979 31.1364 824 69.5379 824ZM329.008 784.101C329.008 793.642 319.667 801.448 308.25 801.448H239.75C228.333 801.448 218.992 793.642 218.992 784.101V772.825C218.992 763.284 228.333 755.478 239.75 755.478H308.25C319.667 755.478 329.008 763.284 329.008 772.825V784.101ZM218.992 22.5516H329.008V45.1032H218.992V22.5516ZM26.9848 91.9411H519.977V732.926H26.9848V91.9411Z" fill="black"/>
<path d="M74.7273 516.084H142.189C148.417 516.084 152.568 511.747 152.568 507.411V451.032C152.568 445.827 147.379 442.358 142.189 442.358H74.7273C68.5 442.358 64.3485 446.695 64.3485 451.032V507.411C64.3485 512.615 68.5 516.084 74.7273 516.084Z" fill="black"/>
<path d="M293.72 516.084H361.182C367.409 516.084 371.561 511.747 371.561 507.411V451.032C371.561 445.827 366.371 442.358 361.182 442.358H293.72C287.492 442.358 283.341 446.695 283.341 451.032V507.411C283.341 512.615 288.53 516.084 293.72 516.084Z" fill="black"/>
<path d="M403.735 516.084H471.197C477.424 516.084 481.576 511.747 481.576 507.411V451.032C481.576 445.827 476.386 442.358 471.197 442.358H403.735C397.508 442.358 393.356 446.695 393.356 451.032V507.411C393.356 512.615 397.508 516.084 403.735 516.084Z" fill="black"/>
<path d="M184.742 516.952H253.242C259.47 516.952 263.621 512.615 263.621 508.278V451.032C263.621 445.827 258.432 442.358 253.242 442.358H184.742C178.515 442.358 174.364 446.695 174.364 451.032V508.278C174.364 512.615 179.553 516.952 184.742 516.952Z" fill="black"/>
<path d="M142.189 633.179H79.9167C72.6515 633.179 66.4242 638.383 66.4242 644.455V696.497C66.4242 702.568 72.6515 707.773 79.9167 707.773H142.189C149.455 707.773 155.682 702.568 155.682 696.497V644.455C154.644 638.383 149.455 633.179 142.189 633.179Z" fill="black"/>
<path d="M361.182 633.179H298.909C291.644 633.179 285.417 638.383 285.417 644.455V696.497C285.417 702.568 291.644 707.773 298.909 707.773H361.182C368.447 707.773 374.674 702.568 374.674 696.497V644.455C374.674 638.383 368.447 633.179 361.182 633.179Z" fill="black"/>
<path d="M471.197 633.179H408.924C401.659 633.179 395.432 638.383 395.432 644.455V696.497C395.432 702.568 401.659 707.773 408.924 707.773H471.197C478.462 707.773 484.689 702.568 484.689 696.497V644.455C483.652 638.383 478.462 633.179 471.197 633.179Z" fill="black"/>
<path d="M252.205 633.179H188.894C181.629 633.179 175.402 638.383 175.402 644.455V697.364C175.402 703.436 181.629 708.64 188.894 708.64H252.205C259.47 708.64 265.697 703.436 265.697 697.364V644.455C265.697 638.383 259.47 633.179 252.205 633.179Z" fill="black"/>
<path d="M144.265 338.274H76.803C70.5758 338.274 66.4242 342.611 66.4242 346.947V403.326C66.4242 408.531 71.6136 412 76.803 412H144.265C150.492 412 154.644 407.663 154.644 403.326V346.947C154.644 342.611 150.492 338.274 144.265 338.274Z" fill="black"/>
<path d="M364.295 338.274H296.833C290.606 338.274 286.455 342.611 286.455 346.947V403.326C286.455 408.531 291.644 412 296.833 412H364.295C370.523 412 374.674 407.663 374.674 403.326V346.947C374.674 342.611 370.523 338.274 364.295 338.274Z" fill="black"/>
<path d="M473.273 338.274H405.811C399.583 338.274 395.432 342.611 395.432 346.947V403.326C395.432 408.531 400.621 412 405.811 412H473.273C479.5 412 483.651 407.663 483.651 403.326V346.947C483.651 342.611 479.5 338.274 473.273 338.274Z" fill="black"/>
<path d="M255.318 338.274H186.818C180.591 338.274 176.439 342.611 176.439 346.947V404.194C176.439 409.398 181.629 412.867 186.818 412.867H255.318C261.545 412.867 265.697 408.531 265.697 404.194V346.947C265.697 342.611 261.545 338.274 255.318 338.274Z" fill="black"/>
<path d="M74.7273 307.916H142.189C148.417 307.916 152.568 303.579 152.568 299.242V242.863C152.568 237.659 147.379 234.189 142.189 234.189H74.7273C68.5 234.189 64.3485 238.526 64.3485 242.863V299.242C64.3485 304.446 68.5 307.916 74.7273 307.916Z" fill="black"/>
<path d="M293.72 307.916H361.182C367.409 307.916 371.561 303.579 371.561 299.242V242.863C371.561 237.659 366.371 234.189 361.182 234.189H293.72C287.492 234.189 283.341 238.526 283.341 242.863V299.242C283.341 304.446 288.53 307.916 293.72 307.916Z" fill="black"/>
<path d="M403.735 307.916H471.197C477.424 307.916 481.576 303.579 481.576 299.242V242.863C481.576 237.659 476.386 234.189 471.197 234.189H403.735C397.508 234.189 393.356 238.526 393.356 242.863V299.242C393.356 304.446 397.508 307.916 403.735 307.916Z" fill="black"/>
<path d="M184.742 308.783H253.242C259.47 308.783 263.621 304.446 263.621 300.109V242.863C263.621 237.659 258.432 234.189 253.242 234.189H184.742C178.515 234.189 174.364 238.526 174.364 242.863V300.109C174.364 304.446 179.553 308.783 184.742 308.783Z" fill="black"/>
<path d="M74.7273 203.832H142.189C148.417 203.832 152.568 199.495 152.568 195.158V138.779C152.568 133.575 147.379 130.105 142.189 130.105H74.7273C68.5 130.105 64.3485 134.442 64.3485 138.779V195.158C64.3485 200.362 68.5 203.832 74.7273 203.832Z" fill="black"/>
<path d="M293.72 203.832H361.182C367.409 203.832 371.561 199.495 371.561 195.158V138.779C371.561 133.575 366.371 130.105 361.182 130.105H293.72C287.492 130.105 283.341 134.442 283.341 138.779V195.158C283.341 200.362 288.53 203.832 293.72 203.832Z" fill="black"/>
<path d="M403.735 203.832H471.197C477.424 203.832 481.576 199.495 481.576 195.158V138.779C481.576 133.575 476.386 130.105 471.197 130.105H403.735C397.508 130.105 393.356 134.442 393.356 138.779V195.158C393.356 200.362 397.508 203.832 403.735 203.832Z" fill="black"/>
<path d="M184.742 204.699H253.242C259.47 204.699 263.621 200.362 263.621 196.025V138.779C263.621 133.575 258.432 130.105 253.242 130.105H184.742C178.515 130.105 174.364 134.442 174.364 138.779V196.025C174.364 200.362 179.553 204.699 184.742 204.699Z" fill="black"/>
</svg>
