<svg width="636" height="829" viewBox="0 0 636 829" fill="none" xmlns="http://www.w3.org/2000/svg">
<path d="M343.591 606.696V655.403H292.48V606.696C293.928 606.875 342.325 606.875 343.591 606.696Z" fill="black"/>
<path d="M343.591 733.192H292.48V769.142H343.591V733.192Z" fill="black"/>
<path d="M343.772 673.245H292.299C281.158 673.245 272.126 682.151 272.126 693.138V695.457C272.126 706.444 281.158 715.35 292.299 715.35H343.772C354.914 715.35 363.945 706.444 363.945 695.457V693.138C363.945 682.151 354.914 673.245 343.772 673.245Z" fill="black"/>
<path d="M196.59 786.984H439.481C446.871 786.984 453.958 789.878 459.183 795.031C464.408 800.184 467.344 807.172 467.344 814.459V816.779C467.344 820.02 466.038 823.128 463.714 825.42C461.39 827.712 458.237 829 454.95 829H181.121C177.834 829 174.682 827.712 172.358 825.42C170.033 823.128 168.728 820.02 168.728 816.779V814.459C168.728 810.851 169.448 807.278 170.849 803.945C172.249 800.611 174.301 797.582 176.888 795.031C179.476 792.48 182.547 790.456 185.928 789.075C189.308 787.694 192.931 786.984 196.59 786.984Z" fill="black"/>
<path d="M634.789 469.674L601.137 311.957C598.206 298.13 590.534 285.72 579.413 276.817C568.292 267.913 554.4 263.059 540.075 263.071H95.9961C81.6603 263.055 67.7558 267.906 56.6195 276.809C45.4832 285.711 37.7938 298.122 34.8436 311.957L1.01068 469.674C-1.41915 481.058 0.568654 492.927 6.58144 502.936C12.5942 512.945 22.1948 520.366 33.4866 523.734L67.1386 533.725C72.349 535.224 77.8202 535.628 83.1989 534.912C88.5776 534.195 93.7441 532.374 98.3648 529.567C102.985 526.759 106.957 523.026 110.024 518.61C113.091 514.194 115.184 509.193 116.169 503.93C120.17 483.331 122.499 462.45 123.135 441.485C123.219 439.119 124.252 436.883 126.008 435.269C126.878 434.469 127.898 433.847 129.012 433.436C130.125 433.026 131.31 432.836 132.498 432.877C133.686 432.918 134.854 433.189 135.935 433.675C137.017 434.161 137.991 434.853 138.802 435.71C139.612 436.568 140.244 437.574 140.66 438.672C141.076 439.77 141.269 440.938 141.227 442.11C140.574 467.428 137.546 492.632 132.181 517.4C130.197 526.449 131.69 535.902 136.369 543.928C141.049 551.954 148.582 557.982 157.51 560.844L187.092 569.765C192.737 571.626 198.738 572.194 204.639 571.426C210.54 570.658 216.186 568.574 221.148 565.332C226.11 562.09 230.257 557.775 233.275 552.716C236.293 547.657 238.102 541.986 238.565 536.134C241.122 503.188 241.575 470.116 239.922 437.114C239.862 435.943 240.037 434.771 240.437 433.666C240.837 432.561 241.453 431.545 242.251 430.675C243.049 429.806 244.013 429.099 245.088 428.597C246.163 428.095 247.328 427.806 248.515 427.747C249.703 427.689 250.891 427.861 252.012 428.256C253.132 428.65 254.163 429.258 255.045 430.045C255.927 430.832 256.643 431.782 257.152 432.842C257.662 433.902 257.955 435.05 258.014 436.222C259.875 472.503 259.18 508.868 255.933 545.054C255.344 550.493 255.904 555.994 257.577 561.209C259.251 566.424 262.001 571.24 265.656 575.355C269.31 579.47 273.789 582.794 278.811 585.117C283.832 587.441 289.287 588.713 294.832 588.855H341.601C351.244 588.457 360.38 584.49 367.187 577.744C373.995 570.998 377.973 561.969 378.329 552.459C379.884 522.702 379.007 492.87 375.705 463.252C375.442 460.886 376.141 458.513 377.651 456.656C379.161 454.799 381.357 453.61 383.757 453.35C386.156 453.089 388.562 453.78 390.445 455.269C392.328 456.758 393.534 458.923 393.798 461.289C396.253 483.566 397.401 505.965 397.235 528.373C397.235 560.666 424.374 578.061 448.528 570.835L478.29 561.914C486.15 559.311 492.864 554.125 497.31 547.223C501.756 540.322 503.664 532.124 502.714 524.001C499.521 487.369 494.053 450.963 486.341 414.991C485.837 412.625 486.307 410.158 487.647 408.134C488.987 406.11 491.088 404.693 493.487 404.197C495.887 403.7 498.388 404.163 500.44 405.485C502.493 406.806 503.929 408.878 504.433 411.244C511.218 443.002 515.56 470.656 518.907 499.916C519.5 505.671 521.358 511.231 524.352 516.206C527.347 521.181 531.405 525.452 536.245 528.722C541.085 531.991 546.59 534.181 552.376 535.137C558.162 536.094 564.09 535.795 569.747 534.26L602.856 524.448C614.211 520.985 623.817 513.412 629.741 503.251C635.665 493.09 637.468 481.094 634.789 469.674ZM146.293 404.107C146.029 406.473 144.823 408.639 142.94 410.128C141.057 411.617 138.651 412.307 136.252 412.047C133.853 411.787 131.656 410.597 130.147 408.74C128.637 406.883 127.937 404.511 128.201 402.145L132.362 365.124C132.486 363.958 132.842 362.828 133.409 361.798C133.977 360.768 134.744 359.858 135.669 359.12C136.593 358.383 137.655 357.833 138.795 357.5C139.935 357.168 141.131 357.061 142.313 357.185C143.496 357.317 144.64 357.679 145.681 358.249C146.722 358.819 147.638 359.586 148.378 360.506C149.117 361.426 149.665 362.481 149.991 363.61C150.316 364.739 150.412 365.921 150.273 367.087L146.293 404.107ZM384.209 429.085C381.81 429.085 379.509 428.145 377.812 426.473C376.116 424.8 375.163 422.531 375.163 420.165L374.348 399.558C374.348 397.192 375.302 394.923 376.998 393.25C378.695 391.577 380.996 390.637 383.395 390.637C385.794 390.637 388.095 391.577 389.791 393.25C391.488 394.923 392.441 397.192 392.441 399.558L393.165 420.165C393.165 422.515 392.224 424.771 390.547 426.441C388.87 428.112 386.592 429.062 384.209 429.085Z" fill="black"/>
<path d="M511.037 225.426C511.569 232.042 511.235 238.698 510.042 245.23H420.937C419.489 240.502 419.941 246.39 419.941 143.891C419.941 98.8413 446.356 82.6948 447.08 55.8435C447.985 55.8435 482.632 55.8435 483.265 55.8435C484.17 80.2862 506.062 94.9162 510.404 132.74H439.572V225.426H511.037Z" fill="black"/>
<path d="M482.36 0H448.618C443.872 0 440.024 3.79423 440.024 8.47466V29.6167C440.024 34.2971 443.872 38.0914 448.618 38.0914H482.36C487.107 38.0914 490.954 34.2971 490.954 29.6167V8.47466C490.954 3.79423 487.107 0 482.36 0Z" fill="black"/>
<path d="M510.947 150.581H457.664V207.585H510.947V150.581Z" fill="black"/>
<path d="M383.485 130.242V178.771C383.485 184.544 381.16 190.08 377.02 194.162C372.881 198.244 367.266 200.537 361.412 200.537H358.789C352.935 200.537 347.321 198.244 343.181 194.162C339.042 190.08 336.716 184.544 336.716 178.771V130.242H383.485Z" fill="black"/>
<path d="M369.192 217.665V245.23H351.1V217.576C357.076 218.676 363.205 218.706 369.192 217.665Z" fill="black"/>
<path d="M303.064 224.712L276.921 245.23H98.7099L72.6568 224.712H303.064Z" fill="black"/>
</svg>
