<svg width="809" height="792" viewBox="0 0 809 792" fill="none" xmlns="http://www.w3.org/2000/svg">
<path d="M794.554 319.168H14.4464C10.615 319.168 6.94049 320.775 4.23126 323.635C1.52203 326.496 0 330.375 0 334.421V653.353C0.00409057 656.077 0.687123 658.751 1.98044 661.107C3.27375 663.463 5.13177 665.418 7.36768 666.776C78.2996 708.263 143.886 709.788 202.828 671.199C264.241 708.473 333.668 728.531 404.5 729.464C475.332 728.531 544.759 708.473 606.172 671.199C665.114 709.788 730.7 708.263 801.632 666.776C803.868 665.418 805.726 663.463 807.02 661.107C808.313 658.751 808.996 656.077 809 653.353V334.421C809 330.375 807.478 326.496 804.769 323.635C802.06 320.775 798.385 319.168 794.554 319.168Z" fill="black"/>
<path d="M572.989 189.246C569.929 150.455 553.186 114.291 526.074 87.9139C498.961 61.5368 463.456 46.8698 426.589 46.8167H421.677C425.478 43.1584 428.143 38.3718 429.32 33.0856C430.498 27.7993 430.134 22.2606 428.276 17.1967C426.418 12.1328 423.153 7.78051 418.91 4.71144C414.667 1.64237 409.644 0 404.5 0C399.356 0 394.333 1.64237 390.09 4.71144C385.847 7.78051 382.582 12.1328 380.724 17.1967C378.866 22.2606 378.502 27.7993 379.68 33.0856C380.857 38.3718 383.522 43.1584 387.323 46.8167H382.411C345.553 46.8685 310.056 61.527 282.945 87.8914C255.834 114.256 239.084 150.405 236.011 189.185C225.101 192.66 215.739 200.164 209.637 210.326C203.535 220.489 201.1 232.63 202.778 244.531C204.456 256.432 210.134 267.298 218.774 275.144C227.414 282.989 238.44 287.29 249.837 287.259H559.163C570.56 287.29 581.586 282.989 590.226 275.144C598.867 267.298 604.544 256.432 606.222 244.531C607.9 232.63 605.465 220.489 599.363 210.326C593.261 200.164 583.899 192.66 572.989 189.185V189.246Z" fill="black"/>
<path d="M173.357 119.541V73.7834C173.357 69.7381 171.835 65.8586 169.126 62.9982C166.417 60.1377 162.742 58.5308 158.911 58.5308H72.2321C68.4007 58.5308 64.7262 60.1377 62.017 62.9982C59.3077 65.8586 57.7857 69.7381 57.7857 73.7834V119.541C57.8336 133.028 62.1126 146.118 69.9539 156.764C77.7952 167.411 88.7568 175.014 101.125 178.386V256.815H86.6786C82.8471 256.815 79.1726 258.422 76.4634 261.283C73.7542 264.143 72.2321 268.023 72.2321 272.068C72.2321 276.113 73.7542 279.993 76.4634 282.853C79.1726 285.713 82.8471 287.32 86.6786 287.32H144.464C148.296 287.32 151.97 285.713 154.679 282.853C157.389 279.993 158.911 276.113 158.911 272.068C158.911 268.023 157.389 264.143 154.679 261.283C151.97 258.422 148.296 256.815 144.464 256.815H130.018V178.386C142.386 175.014 153.348 167.411 161.189 156.764C169.03 146.118 173.309 133.028 173.357 119.541Z" fill="black"/>
<path d="M751.214 119.541V73.7834C751.214 69.7381 749.692 65.8586 746.983 62.9982C744.274 60.1377 740.599 58.5308 736.768 58.5308H650.089C646.258 58.5308 642.583 60.1377 639.874 62.9982C637.165 65.8586 635.643 69.7381 635.643 73.7834V119.541C635.691 133.028 639.97 146.118 647.811 156.764C655.652 167.411 666.614 175.014 678.982 178.386V256.815H664.536C660.704 256.815 657.03 258.422 654.321 261.283C651.611 264.143 650.089 268.023 650.089 272.068C650.089 276.113 651.611 279.993 654.321 282.853C657.03 285.713 660.704 287.32 664.536 287.32H722.321C726.153 287.32 729.827 285.713 732.537 282.853C735.246 279.993 736.768 276.113 736.768 272.068C736.768 268.023 735.246 264.143 732.537 261.283C729.827 258.422 726.153 256.815 722.321 256.815H707.875V178.386C720.243 175.014 731.205 167.411 739.046 156.764C746.887 146.118 751.166 133.028 751.214 119.541Z" fill="black"/>
<path d="M86.6786 727.603V776.747C86.6786 780.793 88.2006 784.672 90.9098 787.532C93.6191 790.393 97.2936 792 101.125 792H130.018C133.849 792 137.524 790.393 140.233 787.532C142.942 784.672 144.464 780.793 144.464 776.747V726.52C134.15 728.44 123.704 729.46 113.231 729.571C104.349 729.532 95.4788 728.874 86.6786 727.603Z" fill="black"/>
<path d="M695.769 729.556C685.296 729.445 674.85 728.424 664.536 726.505V776.732C664.536 780.777 666.058 784.657 668.767 787.517C671.476 790.378 675.151 791.985 678.982 791.985H707.875C711.706 791.985 715.381 790.378 718.09 787.517C720.799 784.657 722.321 780.777 722.321 776.732V727.603C713.526 728.869 704.646 729.522 695.769 729.556Z" fill="black"/>
</svg>
