<svg width="810" height="804" viewBox="0 0 810 804" fill="none" xmlns="http://www.w3.org/2000/svg">
<path d="M809.778 703.331C809.613 690.429 801.911 678.795 790.013 673.466C772.694 663.002 756.3 651.205 738.915 640.838C742.617 620.95 744.93 600.833 748.897 580.977C740.27 584.682 730.949 586.632 721.529 586.632C720.24 603.596 716.902 620.365 711.548 636.548C701.434 651.01 680.777 646.07 665.54 647.273C663.49 651.4 661.441 655.56 659.491 659.752C654.963 658.68 650.501 657.51 646.072 656.275C645.709 635.444 646.006 614.613 645.775 593.815C622.87 596.772 599.701 596.642 576.796 599.599C576.664 619.845 577.358 640.124 576.631 660.337C575.838 669.534 559.84 670.022 559.081 660.5C558.155 640.611 558.948 620.657 558.882 600.737C535.416 603.044 511.981 605.416 488.383 606.261C488.515 624.427 488.416 642.626 489.639 660.76L489.606 660.792C490.465 665.18 489.011 669.664 485.805 672.816C482.566 675.969 477.972 677.334 473.543 676.456C467.296 654.26 472.155 630.764 470.7 608.048C447.597 609.836 424.461 612.045 401.391 614.158C401.424 620.137 401.49 626.117 401.49 632.129C416.727 642.203 433.253 650.198 450.638 655.95C450.605 661.377 450.539 666.805 450.539 672.199C433.187 669.339 416.496 663.392 401.292 654.65C401.721 663.424 401.424 672.231 400.399 680.973C395.541 686.563 383.775 685.263 383.312 677.009C382.419 656.763 383.213 636.419 383.08 616.141C358.589 616.693 334.362 620.918 309.838 620.658C303.922 621.243 300.055 616.563 296.188 613.086C298.766 610.324 299.427 604.572 304.219 604.637C330.397 600.997 356.871 600.184 383.081 597.195C382.948 580.718 382.982 564.242 382.982 547.766C358.655 548.286 334.494 552.153 310.168 552.088V552.055C296.683 551.893 283.595 547.441 272.852 539.447C274.934 551.6 276.257 563.885 276.852 576.202C268.622 569.702 260.723 562.78 253.219 555.501C251.897 544.581 251.467 533.565 251.996 522.581C244.692 516.601 237.42 510.589 230.016 504.772C229.719 515.171 229.785 525.538 229.653 535.938C223.175 531.128 216.862 526.091 210.714 520.891C210.747 510.069 210.648 499.247 210.45 488.426C202.947 482.349 195.609 476.109 188.107 470C188.206 481.017 188.57 492.001 188.636 503.051C182.852 498.339 177.299 493.301 172.077 488.004C172.209 470.976 171.746 453.947 172.341 436.918C201.262 456.937 226.811 481.245 254.575 502.693C270.076 514.523 283.528 531.908 304.417 534.053H304.384C325.537 534.248 346.69 533.013 367.645 530.413C434.938 525.279 502.332 521.022 569.59 515.302C615.664 513.092 661.505 507.048 707.61 505.553C723.012 503.895 738.513 503.668 753.849 501.913C761.253 500.905 770.937 496.323 770.342 487.679C769.02 477.377 758.311 472.73 750.445 467.823C730.812 456.872 711.443 445.53 692.207 434.026C692.075 318.76 692.075 203.487 692.207 88.2548V88.2873C693.529 75.7109 692.34 63.0363 688.638 50.9473C681.102 35.1214 666.394 23.7471 648.976 20.2696C633.937 17.2148 619.196 12.7626 604.091 10.0325V10.065C587.169 5.3204 569.849 2.00562 552.365 0.185746C524.502 1.81061 496.573 0.64071 468.678 0.998186C463.819 0.900691 458.961 0.900691 454.135 0.96569C408.028 0.8357 361.924 0.8357 315.878 0.998186C267.886 0.96569 219.927 0.96569 171.968 0.998186C152.7 1.29066 133.397 -1.21161 114.128 0.7707C88.2485 -0.724213 62.3688 1.74565 36.4232 0.96569V0.998186C27.0363 0.445728 17.8482 3.6955 10.9734 9.99978C4.09864 16.2719 0.165841 25.0462 0 34.2758C0.0330497 222.336 0.0660993 410.371 0.0991575 598.431C0.594928 615.005 8.79142 630.474 22.31 640.386C49.6771 664.564 74.7961 691.082 102.527 714.805C124.936 731.509 153.922 720.752 179.372 720.492C205.781 744.801 231.66 769.694 258.499 793.482H258.465C269.836 802.159 284.411 805.701 298.591 803.231C405.312 792.832 511.806 780.678 618.469 769.954C649.967 767.711 681.134 762.512 712.6 760.074C735.175 758.124 757.65 755.492 780.158 753.022V752.99C788.884 752.762 797.147 749.155 803.163 742.948C813.112 732.094 809.051 716.557 809.778 703.331ZM623.96 628.554C623.993 636.451 624.059 644.38 624.125 652.277C614.012 653.35 603.865 654.455 593.651 654.617C598.939 641.715 614.838 638.336 623.96 628.554ZM492.946 655.624C508.778 655.722 524.577 655.039 540.342 653.577C539.946 655.429 539.086 659.166 538.657 660.986H538.624C523.619 664.008 508.183 664.626 492.946 662.806L492.946 655.624ZM252.028 578.962C260.225 586.176 268.323 593.488 276.982 600.183C278.205 618.544 279.891 636.84 280.948 655.201L280.981 655.169C270.901 647.012 261.25 638.335 252.061 629.236C252.028 612.435 251.962 595.699 252.028 578.929L252.028 578.962ZM210.912 545.326C217.423 550.526 223.834 555.855 230.213 561.25C229.883 577.499 230.313 593.715 229.949 609.965C223.405 604.31 216.959 598.59 210.647 592.774C210.746 576.915 210.548 561.088 210.912 545.295V545.326ZM188.503 561.185C188.701 565.247 188.899 569.244 189.098 573.306C184.437 568.886 179.777 564.499 175.15 560.08C179.579 560.437 184.008 560.827 188.503 561.185ZM145.007 76.0889C142.33 88.4707 141.503 101.209 142.594 113.819C142.131 143.067 143.057 172.314 143.552 201.531C141.668 225.222 144.247 248.88 143.519 272.603C143.057 331.098 144.544 389.624 142.627 448.093C144.544 499.991 142.991 551.985 143.519 603.948V603.916C144.18 611.683 143.387 619.547 141.074 627.021C137.041 633.131 129.737 629.783 124.382 627.801C122.201 611.455 121.507 594.979 122.366 578.534C122.498 542.592 122.3 506.65 122.333 470.707C122.399 450.916 122.333 431.157 122.333 411.366C122.168 373.539 123.919 335.809 122.366 298.048C122.168 231.915 122.564 165.786 122.201 99.6798L122.168 99.6473C121.308 87.3304 124.052 74.9819 130.034 64.1276C139.156 49.8939 155.154 41.3466 172.241 41.5421C327.751 41.4121 483.26 41.4121 638.77 41.5421H638.737C645.447 41.2171 651.594 45.0843 654.106 51.1943C654.106 54.314 652.718 57.2388 650.305 59.2212C647.859 61.2035 644.686 62.016 641.58 61.431C484.09 61.9184 326.592 61.366 169.103 61.6909C158.956 61.6259 149.601 67.1843 145.007 76.0889ZM622.772 146.674C619.764 151.841 614.212 155.123 608.163 155.319C602.081 155.514 596.331 152.621 592.959 147.649C590.282 143.23 589.72 137.867 591.339 132.96C592.959 128.086 596.661 124.121 601.486 122.074C608.328 119.961 615.764 122.074 620.425 127.436C625.052 132.798 625.978 140.37 622.772 146.674ZM571.674 144.302C569.162 150.281 563.576 154.441 557.031 155.156C550.487 155.903 544.076 153.076 540.241 147.812C535.019 139.915 537.2 129.352 545.166 124.153C551.512 120.188 559.675 120.546 565.625 125.063C571.574 129.58 573.987 137.283 571.674 144.302ZM515.287 151.321C507.983 154.083 499.389 157.951 492.216 152.556H492.25C487.688 149.469 484.879 144.432 484.681 138.972C484.515 133.545 486.961 128.346 491.324 124.966C495.654 121.586 501.372 120.416 506.726 121.846C512.081 123.276 516.41 127.11 518.426 132.18C521.963 138.647 517.568 145.309 515.287 151.321ZM466.139 142.221C464.85 147.876 460.685 152.491 455.132 154.473C449.58 156.456 443.366 155.513 438.673 152.004C433.979 148.494 431.401 142.871 431.864 137.054C432.327 131.27 435.731 126.103 440.953 123.341C446.969 120.221 454.273 120.806 459.66 124.868C465.081 128.93 467.626 135.69 466.139 142.221ZM321.739 163.345C313.575 163.898 305.709 160.29 300.817 153.824C295.958 147.357 294.735 138.907 297.644 131.368C302.602 117.654 309.311 104.623 317.574 92.5654C321.474 90.843 326.069 92.013 328.614 95.3927C335.654 106.799 341.603 118.823 346.396 131.27C349.106 138.907 347.784 147.356 342.826 153.823C337.868 160.258 329.969 163.833 321.739 163.345ZM248.199 147.487C245.29 154.409 239.506 159.804 232.334 162.305C225.129 164.84 217.196 164.223 210.487 160.648C199.513 155.741 194.358 143.262 198.754 132.245C203.645 118.173 210.553 104.849 219.279 92.7275C228.831 88.6653 233.326 99.8119 236.499 106.474C241.622 119.602 252.462 132.603 248.199 147.487ZM226.484 351.412C234.912 345.432 245.191 342.508 255.569 343.157C252.165 338.9 249.521 334.091 247.835 328.956C246.678 307.377 249.058 285.605 246.844 264.123C244.761 257.104 238.316 252.196 230.88 251.969C223.443 251.774 216.7 256.259 214.188 263.149C212.139 289.017 214.32 315.145 212.965 341.078C205.925 350.276 198.059 358.855 189.499 366.719C189.234 370.359 188.937 373.998 188.706 377.638C183.219 377.638 177.732 377.606 172.213 377.606C172.114 346.31 171.849 314.983 172.147 283.688C173.898 255.122 197.564 232.634 226.616 231.854C253.851 231.561 281.119 231.756 308.354 231.691C308.122 244.463 308.916 257.299 308.023 270.071C300.223 283.46 284.953 291.422 277.45 305.136C276.227 318.07 277.153 331.134 277.086 344.165C282.705 343.873 290.472 344.945 291.927 337.828C303.065 311.798 319.955 288.529 341.339 269.681C342.463 257.04 342.76 244.365 342.264 231.691C365.136 231.756 388.041 231.626 410.979 231.789C426.48 232.341 441.618 227.629 457.152 228.051C470.737 227.726 483.858 232.081 497.442 231.886C519.62 231.691 541.765 231.594 563.943 231.789L563.91 231.756C590.087 232.471 611.537 252.457 613.587 278.163C614.611 299.936 613.587 321.742 614.148 343.516L614.181 343.483C623.304 350.405 631.732 358.139 639.4 366.621C639.665 337.178 639.83 307.703 639.632 278.261C637.582 240.921 607.373 211.056 569.429 208.813C454.246 208.975 339.029 209.04 223.804 209.008C217.127 209.333 210.484 208.13 204.369 205.563C204.501 201.013 204.699 196.529 204.865 192.012C211.145 190.809 217.524 190.127 223.903 189.899C350.652 189.997 477.377 189.964 604.135 189.834V189.867C615.868 190.192 627.403 186.812 637.054 180.215C643.764 174.333 649.217 167.151 653.051 159.157C657.381 161.724 661.215 165.039 659.86 170.563C659.662 241.96 660.025 313.357 659.761 384.788C657.513 384.853 652.985 384.983 650.738 385.048C652.225 385.6 655.266 386.673 656.753 387.193L656.72 387.16C662.901 402.499 668.189 418.163 672.552 434.119C690.003 438.116 703.092 452.285 705.438 469.736C713.965 474.123 722.361 478.836 730.591 483.775C716.148 485.14 701.703 486.505 687.227 486.732C688.384 473.96 685.376 457.257 670.833 453.26C658.24 451.05 645.285 452.188 633.32 456.51C620.958 465.024 622.842 481.533 622.842 494.499C615.538 494.694 608.167 494.889 600.895 495.117C600.333 481.371 590.814 465.317 575.213 465.902C563.447 466.227 548.937 462.944 540.311 473.084C533.965 480.721 530.858 490.437 531.651 500.284C525.239 500.446 518.762 500.641 512.35 500.836H512.317C510.73 483.613 517.572 466.649 530.727 455.145C547.451 442.308 569.959 446.955 589.526 446.825C582.023 431.811 569.364 419.884 553.796 413.125C526.694 403.083 496.154 413.482 481.182 437.856C468.92 457.615 466.804 481.891 475.464 503.404C468.358 503.631 461.251 503.891 454.179 503.989V504.021C445.684 473.376 453.088 440.618 473.943 416.41C498.401 388.722 539.452 382.125 571.612 400.681C591.244 412.608 604.961 432.073 609.489 454.334C618.644 439.548 635.6 431.197 653.151 432.821C643.169 394.637 616.001 362.984 579.379 346.932C555.88 337.767 530.033 336.078 505.508 342.09C481.711 347.712 459.93 359.509 442.379 376.245C424.862 393.014 412.203 414.072 405.824 437.275C399.511 460.641 398.255 485.047 402.089 508.9L383.315 510.168L383.348 510.2C373.599 460.284 387.381 408.745 420.862 370.035C452.526 333.963 500.055 315.309 548.281 319.989C512.981 305.657 473.551 304.683 437.556 317.291C399.051 333.15 369.767 365.063 357.604 404.321C346.036 439.581 346.995 477.668 360.348 512.306C353.936 512.859 347.59 513.444 341.178 514.029C331.428 487.576 328.122 459.238 331.527 431.29C336.848 383.583 362.926 340.459 402.985 313.03C440.664 289.761 486.54 283.002 529.472 294.441C553.335 301.493 574.984 314.394 592.37 331.911C576.505 299.056 548.874 273.057 514.797 258.889C480.688 244.752 442.446 243.42 407.44 255.184C366.159 269.32 332.281 298.991 313.309 337.696C291.627 380.658 289.677 430.673 307.888 475.157C313.507 488.774 319.886 502.098 327.025 515.032C318.597 515.585 309.376 518.867 301.476 514.285C292.155 508.175 283.265 501.48 274.837 494.201C241.686 467.357 208.37 440.677 175.849 413.152C170.131 409.154 172.808 401.355 171.915 395.505C184.442 395.473 196.968 395.473 209.462 395.44H209.429C207.446 378.931 213.825 362.494 226.484 351.412ZM769.494 698.289C706.761 704.724 643.962 710.736 581.298 718.048C544.677 720.193 508.419 726.172 471.86 729.097C439.933 731.112 408.401 736.799 376.477 738.716C352.381 740.373 328.618 744.76 304.589 747.035H304.622C289.385 750.252 273.454 746.645 261.192 737.188C232.106 709.857 201.236 684.379 172.975 656.204C170.727 634.138 172.743 611.617 172.115 589.356C210.687 624.226 249.655 658.641 287.865 693.897C298.277 703.647 312.621 708.229 326.867 706.377C349.21 704.069 371.519 701.534 393.896 699.455C439.54 696.53 484.719 689.25 530.368 686.553C571.121 681.451 612.105 678.591 652.989 674.723C669.349 672.481 685.842 671.084 702.302 669.751V669.784C711.027 668.874 719.323 665.527 726.165 660.165C740.873 669.914 755.713 679.436 770.521 689.023C770.19 692.078 769.857 695.169 769.494 698.289Z" fill="black"/>
<path d="M245.716 448.583C247.137 430.123 241.75 409.033 254.607 393.369C260.788 386.48 269.315 382.027 278.57 380.858C279.826 374.553 281.247 368.281 282.767 362.042C271.563 362.172 260.325 361.489 249.12 362.529H249.153C237.618 364.479 229.19 374.261 229.124 385.765C228.496 401.949 229.256 418.165 229.157 434.349C234.61 439.224 240.065 444.001 245.716 448.583Z" fill="black"/>
<path d="M276.786 401.952C274.902 402.83 271.167 404.65 269.283 405.56C262.607 424.701 267.036 445.271 265.978 465.062C274.175 471.529 282.339 477.964 290.37 484.626V484.594C279.43 458.433 274.77 430.16 276.786 401.952Z" fill="black"/>
<path d="M209.79 418.782C213.326 415.988 208.666 409.911 204.931 412.478C201.361 415.24 206.055 421.252 209.79 418.782Z" fill="black"/>
<path d="M722.255 568.598C732.864 568.501 746.416 566.843 751.009 555.826C753.852 543.802 754.711 531.388 757.19 519.267C747.935 520.437 738.681 521.444 729.393 522.257C726.947 537.693 723.411 552.967 722.255 568.598Z" fill="black"/>
<path d="M709.664 523.133C694.593 524.335 679.554 525.83 664.416 526.35C664.35 542.339 664.317 558.328 664.879 574.284C676.645 573.276 688.378 572.204 700.079 570.644C702.855 554.72 706.789 539.024 709.664 523.133Z" fill="black"/>
<path d="M600.032 531.327C592.264 532.01 584.498 532.66 576.73 533.212C576.763 549.299 576.796 565.385 576.862 581.471C599.767 579.846 622.573 576.922 645.544 576.044C645.875 559.99 645.742 543.969 645.775 527.915C638.074 528.435 630.373 528.987 622.705 529.605C622.771 540.784 622.804 551.931 622.903 563.109C615.334 563.434 607.765 563.662 600.197 563.889C600.131 553.035 600.065 542.182 600.032 531.327Z" fill="black"/>
<path d="M512.246 537.791C504.214 538.409 496.15 539.221 488.151 539.904C488.25 556.152 488.481 572.467 488.415 588.715C511.849 586.96 535.316 585.336 558.717 583.126C558.816 566.942 558.617 550.791 558.65 534.607L558.617 534.64C550.255 534.965 541.926 535.712 533.663 536.882C533.729 548.483 533.696 560.053 533.763 571.622C526.689 571.687 519.616 571.785 512.576 571.882C512.709 560.508 512.61 549.166 512.246 537.791Z" fill="black"/>
<path d="M470.43 589.43C470.563 573.181 470.563 556.933 470.563 540.683C447.492 542.763 424.423 544.778 401.319 546.143C401.418 562.522 401.55 578.901 401.352 595.312C424.456 594.727 447.459 592.095 470.43 589.43Z" fill="black"/>
<path d="M666.3 634.538C669.341 621.116 683.884 617.184 691.618 607.337C693.866 601.455 695.485 595.346 696.444 589.139C685.867 590.309 675.257 591.316 664.648 592.161C663.755 606.297 664.317 620.498 666.3 634.538Z" fill="black"/>
</svg>
