<svg width="676" height="844" viewBox="0 0 676 844" fill="none" xmlns="http://www.w3.org/2000/svg">
<path d="M218.578 6.76855V165.151C218.578 193.767 195.915 216.845 167.813 216.845H7.35978C14.0941 196.141 25.4904 177.02 41.0308 161.326L162.762 40.5285C178.692 24.7034 197.858 13.2303 218.578 6.76855Z" fill="black"/>
<path d="M535.75 0H260.558C255.118 0 249.809 0.264007 244.5 1.05523V165.108C244.5 208.231 210.052 243.178 167.834 243.178H1.42433C0.388095 249.376 0 255.838 0 262.168V701.18C0 780.041 62.8082 844 140.25 844H535.75C613.192 844 676 780.041 676 701.18V142.821C676 63.9599 613.192 0 535.75 0ZM207.074 295.136C264.443 244.497 319.352 284.85 338.647 302.389C342.792 306.214 349.007 306.214 353.152 302.521C372.447 284.85 427.615 244.497 484.984 295.136C551.808 354.612 490.035 504.554 376.074 562.447C357.037 572.074 334.762 572.074 315.855 562.447C201.893 504.554 140.121 354.612 207.074 295.136ZM488.852 732.245H187.102C179.95 732.245 174.152 726.347 174.152 719.058C174.152 711.768 179.95 705.87 187.102 705.87H488.852C496.004 705.87 501.802 711.768 501.802 719.058C501.802 726.347 496.004 732.245 488.852 732.245ZM545.471 650.544H130.483C123.331 650.544 117.533 644.646 117.533 637.357C117.533 630.068 123.331 624.169 130.483 624.169H545.471C552.623 624.169 558.421 630.068 558.421 637.357C558.421 644.646 552.623 650.544 545.471 650.544Z" fill="black"/>
</svg>
