<svg width="411" height="437" viewBox="0 0 411 437" fill="none" xmlns="http://www.w3.org/2000/svg">
<path d="M332.01 96.1508L384.469 152.293L332.01 152.273V96.1508ZM238.629 198.429C243.368 198.429 247.213 202.523 247.213 207.596C247.213 212.668 243.368 216.762 238.629 216.762L186.266 216.782C181.527 216.782 177.682 212.668 177.682 207.596C177.682 202.523 181.527 198.429 186.266 198.429L238.629 198.429ZM353.805 289.808C358.526 289.808 362.371 293.923 362.371 298.995C362.371 304.067 358.526 308.162 353.805 308.162H186.266C181.527 308.162 177.682 304.067 177.682 298.995C177.682 293.923 181.527 289.828 186.266 289.828H353.805V289.808ZM229.702 1.4693e-06H229.645C226.009 1.4693e-06 222.298 0.488888 218.605 1.50739L32.3938 54.8967C9.09629 61.8225 -4.68476 87.4893 1.46316 112.526C67.396 375.978 67.4155 376.015 67.4155 376.015C72.7643 397.016 90.542 410.868 109.976 410.868C111.689 410.868 113.421 410.766 115.153 410.542H115.191C113.155 404.003 112.032 397.016 112.013 389.764C111.974 119.877 111.974 116.821 111.974 116.821C112.108 80.9895 138.793 51.8601 172.065 50.8015C173.093 50.7404 173.607 50.7404 173.607 50.7404H276.295C274.62 44.0795 273.268 38.6608 272.316 34.8513C267.025 13.8294 249.174 1.4693e-06 229.702 1.4693e-06ZM173.607 69.8107V69.8515C149.434 70.0348 129.904 91.0163 129.809 116.907C129.809 116.948 129.828 389.689 129.828 389.689C129.924 415.579 149.471 436.561 173.626 436.785H366.42C390.574 436.54 410.199 415.579 410.218 389.689C410.256 351.657 410.199 157.588 410.199 157.588C410.18 155.265 409.342 152.964 407.686 151.211L334.157 72.499C332.52 70.7676 330.388 69.8712 328.257 69.8102L173.607 69.8107Z" fill="black"/>
</svg>
