<svg width="817" height="568" viewBox="0 0 817 568" fill="none" xmlns="http://www.w3.org/2000/svg">
<path d="M712.853 93.5522C707.784 89.1675 703.067 85.0343 698.878 81.2251C669.908 54.9883 636.924 49.4541 614.396 49.4541C594.578 49.4541 578.245 54.4138 578.245 54.4138C530.759 19.1926 472.568 0 412.092 0C349.998 0 291.493 19.6591 243.759 55.9586C243.759 55.9586 222.428 49.4895 202.61 49.4895C180.081 49.4895 147.134 55.0242 118.128 81.2604C113.904 85.07 109.187 89.1673 104.153 93.5875C51.4218 139.519 -46.752 225.019 25.7609 344.233L32.4491 355.231C73.1058 422.223 91.6567 452.776 114.924 452.776C131.996 452.776 145.619 435.812 163.606 400.483C174.625 427.69 188.035 449.506 204.193 466.325C199.37 464.205 194.09 463.019 188.528 463.019C176.032 463.019 165.014 469.057 157.692 478.257C150.406 468.984 139.317 462.874 126.786 462.874C104.856 462.874 87.0087 481.096 87.0087 503.487L86.9734 520.918C86.9734 543.309 104.821 561.531 126.751 561.531C139.247 561.531 150.265 555.493 157.552 546.292C164.838 555.601 175.927 561.675 188.493 561.675C200.919 561.675 211.902 555.709 219.188 546.58C226.474 555.817 237.528 561.855 250.024 561.855C271.954 561.855 289.801 543.633 289.801 521.243V512.186C308.105 517.145 326.903 518.942 346.615 520.811L348.305 520.919C349.291 528.287 352.036 535.152 356.542 541.261C370.693 560.453 398.431 567.856 412.582 568H413.04C426.627 568 452.675 561.351 466.475 543.237C471.508 536.66 474.36 529.149 475.169 521.062C494.213 519.049 511.461 516.066 527.337 511.969V521.062C527.337 543.453 545.184 561.674 567.114 561.674C579.61 561.674 590.629 555.637 597.915 546.436C605.202 555.709 616.291 561.819 628.857 561.819C641.283 561.819 652.266 555.853 659.552 546.724C666.838 555.961 677.892 561.999 690.388 561.999C712.318 561.999 730.165 543.777 730.165 521.387V503.92C730.165 481.529 712.318 463.307 690.388 463.307C677.962 463.307 666.979 469.273 659.693 478.402C652.406 469.165 641.353 463.127 628.857 463.127C624.703 463.127 620.796 463.989 617.029 465.175C633.715 449.613 647.162 430.852 657.616 408.497C673.597 438.364 686.375 452.776 702.11 452.776C725.342 452.776 743.928 422.226 784.55 355.23L791.238 344.196C863.752 224.983 765.583 139.482 712.853 93.5522ZM452.261 531.947C443.038 544.095 423.607 549.63 413.117 549.63H412.8C401.606 549.486 380.557 543.233 370.947 530.222C365.772 523.214 364.54 515.055 367.145 505.28C375.488 474.227 368.588 441.378 363.625 424.27C376.156 420.209 389.18 411.979 402.627 399.723L412.061 495.971L419.242 399.217C433.358 412.335 447.015 421.14 460.146 425.309C455.57 441.662 448.108 476.344 456.203 507.576C458.738 517.208 457.435 525.155 452.261 531.947ZM584.791 467.435C579.441 464.703 573.492 462.978 567.086 462.978C548.958 462.978 533.786 475.485 529.033 492.449C512.454 497.193 494.149 500.571 473.628 502.728C466.341 474.515 474.261 441.522 478.169 428.259C481.689 428.259 485.138 427.9 488.588 427.181C510.764 422.58 525.091 404.251 533.081 390.234C533.152 390.63 533.293 390.953 533.363 391.349L551.175 388.617C547.092 360.943 523.718 354.186 522.733 353.899L517.946 371.654C518.122 371.726 519.565 372.229 521.466 373.307C516.608 383.873 504.605 405.15 484.927 409.175C467.115 412.877 446.066 401.771 422.411 376.613C451.663 371.366 474.051 343.764 474.051 328.094C474.051 310.771 446.594 296.682 412.731 296.682C378.868 296.682 351.411 310.734 351.411 328.094C351.411 343.332 372.567 369.929 400.621 376.218C377.177 401.017 356.338 411.943 338.597 408.241C318.92 404.18 306.917 382.903 302.059 372.337C303.96 371.259 305.403 370.756 305.579 370.684L303.115 361.843L300.756 352.965C299.771 353.253 276.398 360.01 272.315 387.648L290.127 390.379C290.197 389.948 290.338 389.66 290.408 389.229C298.399 403.245 312.726 421.575 334.902 426.175C338.352 426.894 341.872 427.253 345.427 427.253H345.709C350.003 441.522 357.29 472.394 349.792 500.356C349.581 501.075 349.511 501.793 349.335 502.512L348.279 502.44C326.031 500.356 306.706 498.415 288.015 492.377C283.157 475.557 268.056 463.193 250.033 463.193C243.873 463.193 238.101 464.738 232.891 467.29C208.004 448.889 188.855 419.633 174.493 378.051C175.408 376.146 176.253 374.277 177.203 372.3C201.421 320.331 199.872 282.09 198.394 245.147C196.74 203.815 195.085 161.154 227.892 94.0527C276.399 45.2817 341.733 18.3982 412.13 18.3982C475.351 18.3982 535.857 40.7531 582.716 81.2932C622.212 155.905 620.416 201.261 618.657 245.148C617.178 282.095 615.629 320.336 639.848 372.302C642.312 377.621 644.705 382.581 646.994 387.397C633.441 422.295 613.022 448.566 584.791 467.435Z" fill="black"/>
<path d="M294.696 192.456C270.02 192.456 250.026 218.836 250.026 251.326C250.026 283.852 270.021 310.195 294.696 310.195C319.372 310.195 339.365 283.815 339.365 251.326C339.365 218.836 319.371 192.456 294.696 192.456ZM272.696 239.717C266.641 239.717 261.712 232.565 261.712 223.759C261.712 214.918 266.64 207.802 272.696 207.802C278.785 207.802 283.679 214.954 283.679 223.759C283.679 232.529 278.786 239.717 272.696 239.717Z" fill="black"/>
<path d="M294.696 168.92C263.719 168.92 238.586 202.058 238.586 242.922C238.586 265.133 246.048 285.043 257.805 298.593C249.568 286.805 244.499 271.099 244.499 253.812C244.499 217.224 266.957 187.61 294.695 187.61C322.433 187.61 344.891 217.225 344.891 253.812C344.891 271.135 339.822 286.804 331.585 298.593C343.342 285.007 350.805 265.133 350.805 242.922C350.805 202.058 325.708 168.92 294.696 168.92Z" fill="black"/>
<path d="M529.551 192.456C504.875 192.456 484.882 218.836 484.882 251.326C484.882 283.852 504.876 310.195 529.551 310.195C554.227 310.195 574.221 283.815 574.221 251.326C574.221 218.836 554.226 192.456 529.551 192.456ZM507.551 239.717C501.496 239.717 496.568 232.565 496.568 223.759C496.568 214.918 501.496 207.802 507.551 207.802C513.64 207.802 518.534 214.954 518.534 223.759C518.534 232.529 513.606 239.717 507.551 239.717Z" fill="black"/>
<path d="M529.551 168.92C498.574 168.92 473.441 202.058 473.441 242.922C473.441 265.133 480.903 285.043 492.66 298.593C484.423 286.805 479.354 271.099 479.354 253.812C479.354 217.224 501.812 187.61 529.55 187.61C557.288 187.61 579.746 217.225 579.746 253.812C579.746 271.135 574.678 286.804 566.44 298.593C578.197 285.007 585.66 265.133 585.66 242.922C585.66 202.058 560.528 168.92 529.551 168.92Z" fill="black"/>
</svg>
