<svg width="795" height="734" viewBox="0 0 795 734" fill="none" xmlns="http://www.w3.org/2000/svg">
<path d="M492.776 281.252C486.572 273.535 485.686 258.1 470.619 257.243C468.846 257.243 467.96 257.243 467.96 257.243L492.776 281.252ZM522.91 310.407C522.91 310.407 532.659 301.832 534.431 300.117C541.522 294.114 546.839 290.685 553.043 292.4C559.247 294.114 561.906 299.259 565.451 307.834C568.997 317.266 573.428 329.271 588.495 332.701C603.562 336.131 613.311 328.414 621.288 321.554C628.378 315.551 633.696 312.121 639.9 313.836C646.104 315.551 648.763 320.696 652.308 329.271C655.853 338.703 660.284 350.708 675.351 354.138C690.418 357.568 700.167 349.85 708.144 342.991C715.234 336.988 720.552 333.558 726.756 335.273C732.96 336.988 735.619 342.991 739.164 352.423C742.709 362.713 747.14 375.575 763.98 375.575V360.14C758.662 360.14 756.89 357.568 753.344 347.278C749.799 336.988 745.368 324.126 730.301 320.696C715.234 317.266 705.485 324.984 697.508 331.843C690.418 337.846 685.1 341.276 678.896 339.561C672.692 337.846 670.033 332.701 666.488 324.126C662.943 314.694 658.512 302.689 643.445 299.259C628.378 295.829 618.629 303.547 610.652 310.407C603.562 316.409 598.244 319.839 592.04 318.124C585.836 316.409 583.177 311.264 579.632 302.689C576.087 293.257 571.655 281.252 556.589 277.822C541.522 274.392 531.773 282.11 523.796 288.97C522.023 289.827 511.388 299.259 511.388 299.259L522.91 310.407ZM576.087 418.449C579.632 420.164 579.632 422.736 589.381 425.308C592.926 426.166 596.472 426.166 599.13 426.166C607.993 425.308 615.084 419.306 620.401 415.019C627.492 409.016 631.923 406.444 638.127 408.159C644.331 409.874 646.99 414.161 650.535 422.736C654.08 432.168 658.512 444.173 673.579 447.603C688.645 451.033 698.395 443.315 706.371 436.456C713.462 430.453 718.779 427.023 724.983 428.738C731.187 430.453 733.846 436.456 737.391 445.888C740.936 456.178 745.368 469.04 762.207 469.04V453.605C756.89 453.605 755.117 451.033 751.572 440.743C748.027 430.453 743.595 417.591 728.528 414.161C713.462 410.731 703.712 418.449 695.736 425.308C688.645 431.311 683.328 434.741 677.124 433.026C670.92 431.311 668.261 426.166 664.716 417.591C661.171 408.159 656.739 396.154 641.672 392.724C626.605 389.294 614.197 397.869 607.107 404.729C598.244 414.161 575.201 396.154 575.201 396.154L576.087 418.449ZM576.087 502.481C576.087 505.054 582.291 508.484 589.381 511.914C599.13 517.058 620.401 513.628 630.151 504.196C636.355 498.194 647.876 506.769 650.535 516.201C653.194 525.633 658.512 537.638 673.579 541.068C688.645 544.498 698.395 536.78 706.371 529.921C713.462 523.918 718.779 520.488 724.983 522.203C731.187 523.918 733.846 529.921 737.391 539.353C740.936 549.642 745.368 564.22 762.207 564.22V547.07C756.89 547.07 755.117 544.498 751.572 534.208C748.027 523.918 743.595 511.056 728.528 507.626C713.462 504.196 703.712 511.914 695.736 518.773C688.645 524.776 683.328 528.206 677.124 526.491C670.92 524.776 668.261 519.631 664.716 511.056C661.171 501.624 656.739 489.619 641.672 486.189C626.605 482.759 606.221 500.766 598.244 499.051C580.518 493.907 575.201 479.329 575.201 479.329L576.087 502.481ZM568.11 540.21C554.816 540.21 543.294 529.063 543.294 516.201C543.294 503.339 553.93 492.192 567.224 492.192V384.15C565.451 385.007 563.679 385.007 561.906 385.007C556.589 385.007 551.271 382.435 547.726 378.147C547.726 378.147 537.09 379.862 535.318 380.72C534.431 380.72 523.796 382.435 522.91 382.435C520.251 382.435 498.98 385.864 498.094 385.864C496.321 385.864 465.301 389.294 463.528 389.294C458.211 390.152 452.007 390.152 446.689 390.152C444.03 392.724 441.371 394.439 436.94 394.439C433.395 394.439 430.736 392.724 428.077 391.009C425.418 391.009 422.759 391.009 420.1 391.009C419.214 391.009 399.716 391.009 396.171 391.009C377.559 391.009 336.789 389.294 334.13 388.437C330.585 388.437 303.997 385.864 303.997 385.864C302.224 385.864 285.385 383.292 284.498 383.292C280.953 388.437 275.635 391.867 269.431 391.867C260.569 391.867 253.478 385.864 251.706 378.147C250.819 378.147 249.933 378.147 249.933 378.147C249.047 378.147 247.274 377.29 246.388 377.29C235.752 375.575 225.117 373.002 214.482 370.43C197.642 366.143 181.689 361.855 166.622 356.71C163.077 360.998 157.759 363.57 152.441 363.57C142.692 363.57 133.829 354.138 133.829 344.706C85.0836 324.126 47.8595 298.402 24.8161 269.248C19.4983 263.245 15.9532 256.386 12.408 250.383C5.31773 237.521 1.77258 224.659 0 210.939C0 210.939 0 215.227 0 216.942V283.825C7.0903 288.112 12.408 295.829 12.408 304.404C12.408 312.979 7.0903 320.696 0 324.984V457.892C13.2943 457.892 24.8161 469.04 24.8161 481.902C24.8161 494.764 14.1806 505.911 0 505.911C0 505.911 0 544.498 0 546.213C0 547.07 0 548.785 0 549.643C0 550.5 0 553.072 0 553.072C0 553.072 0.886291 557.36 0.886291 558.217C0.886291 558.217 3.54515 569.364 3.54515 570.222C3.54515 570.222 9.74916 569.364 12.408 569.364C34.5652 569.364 52.291 586.514 52.291 607.951C52.291 616.526 49.6321 625.101 44.3144 631.103C48.7458 635.39 54.0635 639.678 59.3813 643.965C62.0401 645.68 76.2207 655.97 81.5385 659.4C84.1973 661.114 94.8328 667.974 98.3779 668.832C100.15 669.689 108.127 673.977 108.127 673.977C110.786 674.834 124.08 681.694 128.512 683.409C130.284 684.266 139.147 687.696 140.92 688.554C147.124 678.264 159.532 670.547 172.826 670.547C193.211 670.547 210.05 686.839 210.05 706.561C210.05 708.276 210.05 709.133 210.05 710.848C211.823 711.706 213.595 711.706 215.368 712.563C218.027 713.421 238.411 717.708 241.07 718.565C244.615 719.423 261.455 721.995 261.455 722.853C264.114 723.71 277.408 725.425 279.181 725.425C283.612 726.283 288.043 726.283 292.475 727.14C294.247 727.14 310.201 728.855 311.973 729.713C313.746 729.713 320.836 730.57 322.609 730.57C328.813 731.428 335.017 731.428 341.221 732.285C342.107 732.285 347.425 732.285 348.311 732.285C355.401 726.283 365.15 721.995 374.9 721.995C386.421 721.995 396.171 726.283 403.261 734C404.147 734 404.147 734 405.033 734C405.92 734 406.806 734 408.579 734C414.783 734 421.873 734 428.077 733.143C431.622 733.143 434.281 733.143 437.826 732.285C449.348 731.428 459.983 730.57 470.619 729.713C473.278 729.713 476.823 728.855 479.482 728.855C483.027 728.855 485.686 727.998 489.231 727.998C491.89 727.998 522.023 722.853 542.408 719.423C540.635 715.993 538.863 710.848 538.863 705.703C538.863 690.269 552.157 677.407 568.11 677.407V540.21ZM51.4047 415.019C33.6789 415.019 19.4983 401.299 19.4983 384.15C19.4983 367 33.6789 353.28 51.4047 353.28C69.1304 353.28 83.311 367 83.311 384.15C84.1973 401.299 69.1304 415.019 51.4047 415.019ZM91.2876 478.472C91.2876 465.61 102.809 454.463 116.104 454.463C129.398 454.463 140.92 465.61 140.92 478.472C140.92 491.334 129.398 502.481 116.104 502.481C102.809 502.481 91.2876 492.192 91.2876 478.472ZM125.853 631.96C112.559 631.96 101.037 620.813 101.037 607.951C101.037 595.089 112.559 583.942 125.853 583.942C139.147 583.942 150.669 595.089 150.669 607.951C150.669 620.813 139.147 631.96 125.853 631.96ZM210.936 436.456C202.074 436.456 194.097 429.596 194.097 420.164C194.097 411.589 201.187 403.871 210.936 403.871C219.799 403.871 227.776 410.731 227.776 420.164C227.776 429.596 219.799 436.456 210.936 436.456ZM227.776 530.778C227.776 511.056 244.615 494.764 265 494.764C285.385 494.764 302.224 511.056 302.224 530.778C302.224 550.5 285.385 566.792 265 566.792C244.615 566.792 227.776 550.5 227.776 530.778ZM283.612 677.407C270.318 677.407 258.796 666.259 258.796 653.397C258.796 640.535 270.318 629.388 283.612 629.388C296.906 629.388 308.428 640.535 308.428 653.397C308.428 667.117 297.793 677.407 283.612 677.407ZM329.699 421.879C329.699 409.016 341.221 397.869 354.515 397.869C367.809 397.869 379.331 409.016 379.331 421.879C379.331 434.741 367.809 445.888 354.515 445.888C340.334 445.888 329.699 435.598 329.699 421.879ZM386.421 581.369C373.127 581.369 361.605 570.222 361.605 557.36C361.605 544.498 373.127 533.35 386.421 533.35C399.716 533.35 411.237 544.498 411.237 557.36C411.237 571.079 400.602 581.369 386.421 581.369ZM448.462 674.834C433.395 674.834 420.1 662.829 420.1 647.395C420.1 631.96 432.508 619.956 448.462 619.956C463.528 619.956 476.823 631.96 476.823 647.395C475.936 662.829 463.528 674.834 448.462 674.834ZM464.415 451.033C464.415 429.596 482.14 412.446 504.298 412.446C526.455 412.446 544.181 429.596 544.181 451.033C544.181 472.47 526.455 489.619 504.298 489.619C482.14 489.619 464.415 472.47 464.415 451.033ZM527.341 610.523C518.478 610.523 510.502 603.664 510.502 594.231C510.502 585.657 517.592 577.939 527.341 577.939C536.204 577.939 544.181 584.799 544.181 594.231C544.181 603.664 537.09 610.523 527.341 610.523ZM795 252.098C794.114 254.671 793.227 258.1 793.227 260.673C793.227 263.245 794.114 265.818 795 268.39C795 271.82 795 276.107 795 280.395C795 287.255 795 294.972 795 302.689C788.796 302.689 784.365 307.834 784.365 313.836C784.365 319.839 788.796 324.126 795 324.984C795 350.708 795 378.147 794.114 404.729C787.91 407.301 782.592 414.161 782.592 421.021C782.592 427.881 787.91 434.741 794.114 438.171C794.114 440.743 794.114 443.315 794.114 445.03C794.114 451.89 794.114 458.75 794.114 465.61C792.341 463.895 790.569 463.037 787.91 463.037C782.592 463.037 778.161 468.182 778.161 474.185C778.161 480.187 783.478 485.332 787.91 485.332C790.569 485.332 792.341 484.474 794.114 482.759C794.114 488.762 794.114 494.764 794.114 499.909C794.114 513.628 794.114 523.918 794.114 529.063C787.91 531.636 784.365 537.638 784.365 544.498C784.365 550.5 787.91 555.645 792.341 559.075C792.341 559.075 792.341 559.075 792.341 559.932C792.341 560.79 792.341 561.647 791.455 562.505C791.455 563.362 791.455 563.362 790.569 564.22V565.077C790.569 565.935 790.569 565.935 789.682 566.792C788.796 571.079 787.023 575.367 785.251 579.654C782.592 574.509 777.274 570.222 771.957 567.65V517.058C778.161 517.058 782.592 511.914 782.592 505.911C782.592 499.909 778.161 495.621 771.957 494.764V473.327V379.005C779.933 374.717 785.251 367 785.251 357.568C785.251 348.136 779.933 340.418 771.957 336.131V282.11C779.047 279.537 783.478 272.678 783.478 265.818C783.478 261.53 781.706 258.1 779.047 254.671C788.796 240.093 794.114 225.516 795 209.224C795 210.082 795 226.374 795 252.098ZM116.104 280.395C102.809 280.395 91.2876 269.248 91.2876 256.385C91.2876 243.523 102.809 232.376 116.104 232.376C129.398 232.376 140.92 243.523 140.92 256.385C140.92 270.105 130.284 280.395 116.104 280.395ZM102.809 191.217C80.6522 191.217 62.9264 174.068 62.9264 152.631C62.9264 131.194 80.6522 114.044 102.809 114.044C124.967 114.044 142.692 131.194 142.692 152.631C142.692 173.21 124.967 191.217 102.809 191.217ZM198.528 152.631C198.528 139.769 210.05 128.622 223.344 128.622C236.639 128.622 248.161 139.769 248.161 152.631C248.161 165.493 236.639 176.64 223.344 176.64C210.05 176.64 198.528 165.493 198.528 152.631ZM247.274 303.547C226.89 303.547 210.936 288.112 210.936 268.39C210.936 248.668 226.89 233.234 247.274 233.234C267.659 233.234 283.612 248.668 283.612 268.39C283.612 287.255 267.659 303.547 247.274 303.547ZM265 92.6075C253.478 92.6075 243.729 83.1752 243.729 72.028C243.729 60.8808 253.478 51.4486 265 51.4486C276.522 51.4486 286.271 60.8808 286.271 72.028C286.271 83.1752 276.522 92.6075 265 92.6075ZM376.672 273.535C389.967 273.535 401.488 284.682 401.488 297.544C401.488 310.407 389.967 321.554 376.672 321.554C363.378 321.554 351.856 310.407 351.856 297.544C351.856 284.682 362.492 273.535 376.672 273.535ZM376.672 102.897C358.946 102.897 344.766 89.1776 344.766 72.028C344.766 54.8785 358.946 41.1589 376.672 41.1589C394.398 41.1589 408.579 54.8785 408.579 72.028C408.579 89.1776 394.398 102.897 376.672 102.897ZM477.709 108.042C467.96 108.042 459.097 100.325 459.097 90.0351C459.097 80.6028 467.074 72.028 477.709 72.028C487.458 72.028 496.321 79.7453 496.321 90.0351C496.321 99.4673 488.344 108.042 477.709 108.042ZM562.793 133.766C549.498 133.766 537.977 122.619 537.977 109.757C537.977 96.8949 549.498 85.7477 562.793 85.7477C576.087 85.7477 587.609 96.8949 587.609 109.757C587.609 123.477 576.087 133.766 562.793 133.766ZM587.609 56.5935C578.746 56.5935 571.655 49.7336 571.655 41.1589C571.655 32.5841 578.746 25.7243 587.609 25.7243C596.472 25.7243 603.562 32.5841 603.562 41.1589C603.562 49.7336 596.472 56.5935 587.609 56.5935ZM652.308 145.771C642.559 145.771 633.696 138.054 633.696 127.764C633.696 118.332 641.672 109.757 652.308 109.757C662.943 109.757 670.92 117.474 670.92 127.764C670.033 138.054 662.057 145.771 652.308 145.771ZM707.258 220.371C699.281 220.371 693.077 214.369 693.077 206.652C693.077 198.935 699.281 192.932 707.258 192.932C715.234 192.932 721.438 198.935 721.438 206.652C721.438 214.369 715.234 220.371 707.258 220.371ZM378.445 163.778L398.829 168.923L412.124 172.353L501.639 194.647C501.639 193.79 501.639 192.932 501.639 192.075C501.639 182.643 509.615 174.068 520.251 174.068C530 174.068 538.863 181.785 538.863 192.075C538.863 196.362 537.977 199.792 535.318 202.364L598.244 217.799L603.562 219.514C607.107 210.939 615.97 204.937 626.605 204.937C639.9 204.937 651.421 216.084 651.421 228.946C651.421 229.804 651.421 230.661 651.421 231.519L682.441 239.236L717.893 247.811L728.528 250.383L749.799 255.528C753.345 251.241 758.662 248.668 764.866 248.668C768.411 248.668 771.07 249.526 773.729 251.241C773.729 251.241 776.388 247.811 777.274 246.096C777.274 245.238 781.706 238.378 781.706 238.378C782.592 237.521 786.137 228.946 786.137 228.089C786.137 227.231 788.796 219.514 788.796 218.657C788.796 217.799 790.569 212.654 790.569 211.797C790.569 210.939 792.341 202.364 792.341 199.792C792.341 197.22 792.341 186.93 792.341 186.93C789.682 189.502 787.91 191.217 783.478 192.075C770.184 194.647 756.89 186.93 753.344 174.068C750.686 161.206 758.662 148.343 771.957 144.914C774.615 144.056 776.388 144.056 779.933 144.056C779.047 141.484 777.274 139.769 776.388 138.054C770.184 128.621 763.094 119.189 754.231 110.614C747.14 102.897 739.164 96.0374 730.301 89.1776C724.983 84.8902 718.779 80.6028 712.575 77.1729C711.689 76.3154 710.803 76.3154 709.916 75.4579C708.144 77.1729 706.371 78.8879 703.712 79.7453C693.963 83.1752 683.328 78.8878 679.783 70.3131C678.01 66.0257 678.01 62.5958 678.896 58.3084C639.013 38.5864 589.381 22.2944 535.318 12.8621C530.886 19.722 522.91 24.0093 514.047 24.0093C502.525 24.0093 492.776 16.2921 490.117 6.00234C475.936 4.28739 460.87 2.57243 445.803 1.71496C435.167 0.857479 424.532 0.857477 413.896 0C411.237 0 407.692 0 405.033 0C402.375 5.14486 396.171 8.57477 389.967 8.57477C382.876 8.57477 376.672 5.14486 373.127 0C364.264 0 356.288 0.85748 348.311 0.85748C335.903 1.71496 324.381 2.57243 311.973 3.42991C284.498 6.00234 257.91 10.2897 233.094 16.2921C233.094 25.7243 224.231 34.2991 214.482 34.2991C207.391 34.2991 201.187 30.8692 198.528 24.8668C171.94 32.5841 147.124 41.1589 124.08 51.4486C125.853 54.8785 125.853 57.4509 125.853 60.8808C125.853 73.743 114.331 84.8902 101.037 84.8902C92.1739 84.8902 85.0836 80.6028 80.6522 74.6005C53.1773 92.6075 31.0201 112.329 17.7258 133.766C21.2709 139.769 24.8161 145.771 24.8161 152.631C24.8161 165.493 14.1806 175.783 0.886291 176.64C3.36771e-06 181.785 0 186.93 0 192.075C0 194.647 0 197.22 0 199.792C0 202.364 0.886291 205.794 0.886291 208.367C5.31773 234.091 20.3846 258.1 43.4281 279.537C66.4716 300.974 98.3779 320.696 135.602 336.131C139.147 330.986 144.465 328.414 150.669 328.414C160.418 328.414 169.281 336.131 169.281 346.421C169.281 347.278 169.281 348.136 169.281 348.993C189.666 355.853 210.936 361.855 233.98 367C239.298 367.857 245.502 369.572 250.819 370.43C253.478 362.713 259.682 357.568 268.545 357.568C278.294 357.568 287.157 365.285 287.157 375.575V376.432C288.93 376.432 291.589 377.29 293.361 377.29C295.134 377.29 297.793 378.147 299.565 378.147C301.338 378.147 343.88 382.435 344.766 382.435C347.425 382.435 359.833 383.292 363.378 383.292C366.923 383.292 381.99 384.15 381.99 384.15C383.763 384.15 424.532 384.15 424.532 384.15C425.418 384.15 425.418 384.15 426.304 384.15V383.292C426.304 377.29 431.622 372.145 437.826 372.145C444.03 372.145 449.348 377.29 449.348 382.435C449.348 382.435 458.211 381.577 460.87 381.577C464.415 381.577 477.709 379.862 480.368 379.862L501.639 377.29C501.639 377.29 518.478 374.717 521.137 374.717C522.023 374.717 537.09 372.145 539.749 371.287C541.522 371.287 543.294 370.43 545.067 370.43C545.067 369.572 545.067 368.715 545.067 367.857C545.067 361.855 547.726 356.71 552.157 354.138L514.933 317.266C513.161 320.696 509.615 323.269 505.184 323.269C498.98 323.269 493.662 318.124 493.662 312.121C493.662 307.834 496.321 304.404 499.866 302.689L475.936 279.537L453.779 258.1C452.007 258.1 450.234 258.958 448.462 258.958C435.167 258.958 423.645 247.811 423.645 234.949C423.645 233.234 423.645 230.661 424.532 228.946L385.535 190.36L370.468 174.068C370.468 174.068 369.582 174.068 369.582 174.925C366.923 176.64 364.264 177.498 360.719 177.498C350.97 177.498 342.107 169.78 342.107 159.491C342.107 150.058 350.084 141.484 360.719 141.484C370.468 141.484 379.331 149.201 379.331 159.491C379.331 160.348 379.331 161.206 378.445 163.778Z" fill="black"/>
</svg>
