<svg width="794" height="656" viewBox="0 0 794 656" fill="none" xmlns="http://www.w3.org/2000/svg">
<path d="M62.119 624.552C27.8714 624.552 0 595.853 0 560.579C0 525.306 27.8714 496.625 62.119 496.625C96.3666 496.625 124.238 525.306 124.238 560.579C124.238 595.853 96.3666 624.552 62.119 624.552ZM794 328C794 261.389 757.52 202.216 699.982 173.646C699.991 172.975 700.009 172.294 700.009 171.623C700.009 76.9839 625.236 0 533.334 0C498.97 0 465.464 11.0161 437.512 31.2736C409.543 11.0161 376.036 0 341.681 0C249.789 0 175.016 76.9839 175.016 171.623C175.016 172.285 175.033 172.956 175.033 173.637C117.478 202.207 80.9887 261.379 80.9887 328C80.9887 394.621 117.478 453.793 175.016 482.336C175.016 483.025 174.998 483.687 174.998 484.359C174.998 579.007 249.771 656 341.664 656C376.009 656 409.516 644.975 437.494 624.699C465.473 644.975 498.979 656 533.316 656C625.218 656 699.991 579.007 699.991 484.359C699.991 483.697 699.973 483.016 699.964 482.336C757.52 453.784 794 394.611 794 328ZM327.089 350.428C321.329 356.34 313.399 359.733 305.308 359.733C297.218 359.733 289.287 356.34 283.536 350.428C277.776 344.497 274.481 336.331 274.481 328.009C274.481 319.669 277.776 311.494 283.51 305.572C289.028 299.917 296.985 296.662 305.344 296.662C313.676 296.662 321.579 299.881 327.071 305.471C332.823 311.494 336.127 319.697 336.127 328.009C336.127 336.34 332.814 344.515 327.089 350.428ZM459.32 350.418C453.56 356.34 445.594 359.733 437.441 359.733C429.341 359.733 421.402 356.34 415.669 350.428C409.98 344.46 406.738 336.285 406.738 328.009C406.738 319.706 409.98 311.54 415.669 305.582C421.161 299.926 429.118 296.68 437.485 296.68C445.862 296.68 453.819 299.927 459.32 305.572C465.053 311.605 468.357 319.779 468.357 328.009C468.348 336.221 465.044 344.395 459.32 350.418ZM591.443 350.418C585.674 356.34 577.753 359.733 569.662 359.733C561.482 359.733 553.525 356.34 547.89 350.418C542.148 344.506 538.853 336.34 538.853 328C538.853 319.549 542.148 311.356 547.899 305.563C553.329 299.917 561.259 296.671 569.636 296.671C578.003 296.671 585.951 299.917 591.452 305.563C597.186 311.375 600.481 319.559 600.481 328C600.472 336.331 597.177 344.506 591.443 350.418Z" fill="black"/>
</svg>
