<svg width="800" height="826" viewBox="0 0 800 826" fill="none" xmlns="http://www.w3.org/2000/svg">
<path d="M400.004 0.00939669C179.408 0.00939669 0 185.247 0 413.009C0 488.725 19.8523 562.299 57.7782 626.695L1.62987 789.289C-1.77758 799.384 0.592784 810.551 7.85209 817.893C12.8891 823.247 19.7039 826 26.6671 826C29.7782 826 32.7411 825.388 35.556 824.317L193.034 766.345C255.404 805.503 326.666 826 399.995 826C620.592 826 800 640.763 800 413C800 185.237 620.592 0 399.995 0L400.004 0.00939669ZM240.005 468.066C210.523 468.066 186.671 443.439 186.671 413C186.671 382.56 210.523 357.934 240.005 357.934C269.486 357.934 293.338 382.56 293.338 413C293.338 443.439 269.486 468.066 240.005 468.066ZM400.004 468.066C370.523 468.066 346.671 443.439 346.671 413C346.671 382.56 370.523 357.934 400.004 357.934C429.486 357.934 453.338 382.56 453.338 413C453.338 443.439 429.486 468.066 400.004 468.066ZM560.004 468.066C530.523 468.066 506.671 443.439 506.671 413C506.671 382.56 530.523 357.934 560.004 357.934C589.486 357.934 613.338 382.56 613.338 413C613.338 443.439 589.486 468.066 560.004 468.066Z" fill="black"/>
</svg>
