<svg width="803" height="835" viewBox="0 0 803 835" fill="none" xmlns="http://www.w3.org/2000/svg">
<path d="M197.745 379.605C228.377 423.196 357.288 600.946 357.288 600.946C357.288 600.946 399.096 652.521 436.585 608.452C474.014 564.384 593.798 392.014 593.798 392.014C593.798 392.014 648.072 333.179 586.852 334.09C525.588 335.001 506.546 337.098 506.546 337.098L464.338 52.7276C464.338 52.7276 461.473 2.13618 405.195 0.0679798C405.195 0.0679798 347.196 -4.54571 335.174 62.2442L295.816 335.594L211.666 335.218C211.666 335.218 167.112 335.985 197.745 379.605Z" fill="black"/>
<path d="M504.78 65.6575L543.442 297.933C552.109 297.875 575.38 297.643 630.738 296.819C649.364 296.515 662.928 300.319 670.958 308.028C676.671 313.509 679.58 320.77 679.58 329.635C679.58 349.826 664.205 371.968 663.537 372.966C661.83 375.266 495.311 603.824 448.74 658.624C433.75 676.269 417.143 685.149 399.407 685.077C369.725 684.947 348.368 659.651 347.285 658.378C345.549 656.122 175.082 430.5 137.074 376.322C128.035 363.464 123.405 351.518 123.405 340.945C123.405 315.881 149.214 304.007 163.907 301.129H255.7L292.625 67.205C123.999 113.573 0 264.755 0 443.734C0 659.477 180.113 835 401.5 835C622.887 835 803 659.477 803 443.734C803 262.773 676.286 110.174 504.78 65.6575Z" fill="black"/>
</svg>
