<svg width="704" height="821" viewBox="0 0 704 821" fill="none" xmlns="http://www.w3.org/2000/svg">
<path d="M621.979 695.504H82.0211C45.0958 695.504 15.0551 724.505 15.0551 760.15V798.374C15.0551 810.85 25.5692 821 38.4932 821H665.507C678.431 821 688.945 810.85 688.945 798.374V760.15C688.945 724.505 658.904 695.504 621.979 695.504Z" fill="black"/>
<path d="M628.416 523.016C614.519 508.228 595.555 499.538 575.01 498.542C567.884 498.196 562.289 492.518 562.289 485.628C562.289 485.545 562.29 485.45 562.292 485.354C562.203 423.704 510.22 373.577 446.335 373.577C402.377 373.577 362.718 397.137 342.834 435.062C339.611 441.208 331.96 443.836 325.444 441.039C317.275 437.534 308.585 435.444 299.616 434.829C295.592 434.554 291.911 432.542 289.596 429.354C275.084 409.365 251.365 397.432 226.148 397.432C183.445 397.432 148.704 430.968 148.704 472.191C148.704 473.498 148.748 474.895 148.84 476.462C148.863 476.85 148.866 477.235 148.853 477.618C148.852 477.627 148.853 477.635 148.853 477.644C148.327 492.065 157.502 522.803 168.951 530.642C187.045 543.03 210.306 540.868 223.059 525.614C227.71 520.049 229.838 513.07 229.05 505.961C228.264 498.851 224.657 492.464 218.893 487.974C210.526 481.459 198.222 482.724 191.468 490.804C186.823 496.359 178.391 497.233 172.635 492.746C166.878 488.263 165.976 480.124 170.621 474.566C186.649 455.391 215.852 452.379 235.714 467.849C259.107 486.074 262.781 519.269 243.904 541.851C231.376 556.841 213.17 564.61 194.291 564.611C180.377 564.611 166.1 560.392 153.455 551.734C137.354 540.71 127.594 515.109 123.834 495.104C106.841 502.521 91.9616 513.789 80.2399 528.275C80.1851 528.343 80.1295 528.409 80.0739 528.475L68.9707 541.649C82.0671 558.778 96.8316 574.775 113.152 589.358C119.799 587.258 126.871 586.132 134.175 586.132H433.129C445.529 576.045 453.427 560.956 453.427 544.113C453.427 522.726 435.403 505.325 413.247 505.325C398.477 505.325 386.461 516.925 386.461 531.183C386.461 539.739 393.671 546.699 402.533 546.699C409.93 546.699 415.926 552.488 415.926 559.629C415.926 566.769 409.93 572.558 402.533 572.558C378.901 572.558 359.674 553.997 359.674 531.183C359.674 502.667 383.707 479.467 413.247 479.467C450.172 479.467 480.213 508.468 480.213 544.113C480.213 559.493 475.736 573.881 467.978 586.132H569.825C577.129 586.132 584.201 587.258 590.848 589.358C609.207 572.954 625.605 554.766 639.859 535.181L628.416 523.016Z" fill="black"/>
<path d="M620.629 669.646L607.239 636.635C601.166 621.664 586.48 611.991 569.825 611.991H134.175C117.52 611.991 102.834 621.664 96.7615 636.635L83.3712 669.646H620.629Z" fill="black"/>
<path d="M162.613 255.368C159.823 255.368 157.554 257.558 157.554 260.251C157.554 262.945 159.823 265.136 162.613 265.136C165.402 265.136 167.672 262.945 167.672 260.251C167.672 257.558 165.402 255.368 162.613 255.368Z" fill="black"/>
<path d="M316.985 169.934C327.097 169.934 335.294 162.021 335.294 152.26C335.294 142.498 327.097 134.585 316.985 134.585C306.873 134.585 298.676 142.498 298.676 152.26C298.676 162.021 306.873 169.934 316.985 169.934Z" fill="black"/>
<path d="M352 0C157.906 0 0 152.435 0 339.803C0 404.303 19.0752 466.277 53.2673 519.309L59.2133 512.254C75.7038 491.913 97.2642 476.707 122.013 467.868C124.368 414.386 170.176 371.574 226.148 371.574C257.991 371.574 288.052 385.701 307.767 409.646C313.561 410.382 319.254 411.583 324.811 413.238C350.717 372.544 396.256 347.718 446.335 347.718C521.028 347.718 582.506 403.387 588.585 474.001C611.497 477.731 632.351 488.719 648.25 505.638L654.892 512.698C686.467 461.157 704 401.64 704 339.803C704 152.435 546.094 0 352 0ZM162.613 290.994C145.054 290.994 130.768 277.203 130.768 260.251C130.768 243.3 145.054 229.509 162.613 229.509C180.172 229.509 194.458 243.3 194.458 260.251C194.458 277.203 180.172 290.994 162.613 290.994ZM377.765 165.189C351.635 165.189 330.378 185.71 330.378 210.933C330.378 218.073 324.382 223.862 316.985 223.862C309.588 223.862 303.592 218.073 303.592 210.933C303.592 185.71 282.335 165.189 256.206 165.189C248.808 165.189 242.812 159.4 242.812 152.26C242.812 145.12 248.808 139.331 256.206 139.331C282.335 139.331 303.592 118.81 303.592 93.5863C303.592 86.4462 309.588 80.6571 316.985 80.6571C324.382 80.6571 330.378 86.4462 330.378 93.5863C330.378 118.81 351.635 139.331 377.765 139.331C385.162 139.331 391.158 145.12 391.158 152.26C391.158 159.4 385.162 165.189 377.765 165.189ZM601.772 273.18C575.643 273.18 554.386 293.701 554.386 318.924C554.386 326.064 548.39 331.854 540.993 331.854C533.595 331.854 527.599 326.064 527.599 318.924C527.599 293.701 506.342 273.18 480.213 273.18C472.816 273.18 466.82 267.391 466.82 260.251C466.82 253.111 472.816 247.322 480.213 247.322C506.342 247.322 527.599 226.801 527.599 201.577C527.599 194.437 533.595 188.648 540.993 188.648C548.39 188.648 554.386 194.437 554.386 201.577C554.386 226.801 575.643 247.322 601.772 247.322C609.169 247.322 615.165 253.111 615.165 260.251C615.165 267.391 609.169 273.18 601.772 273.18Z" fill="black"/>
<path d="M540.993 277.925C551.104 277.925 559.302 270.012 559.302 260.251C559.302 250.49 551.104 242.576 540.993 242.576C530.881 242.576 522.684 250.49 522.684 260.251C522.684 270.012 530.881 277.925 540.993 277.925Z" fill="black"/>
</svg>
