<svg width="652" height="729" viewBox="0 0 652 729" fill="none" xmlns="http://www.w3.org/2000/svg">
<path d="M550.228 0H522C533.343 8.27776 543.266 18.739 551.592 30.6994C592.411 34.9687 624.585 73.2617 624.585 120.194V608.839C624.585 655.8 592.411 694.028 551.592 698.333C543.266 710.261 533.344 720.722 522 729H550.228C606.453 729 652 677.834 652 614.677V114.327C652 51.2013 606.452 0 550.228 0Z" fill="black"/>
<path d="M27.419 189H71.581C86.7194 189 99 175.34 99 158.5C99 141.66 86.7201 128 71.581 128H27.419C12.2806 127.968 0 141.627 0 158.468C0 175.339 12.2799 189 27.419 189Z" fill="black"/>
<path d="M27.419 395H71.581C86.7194 395 99 381.34 99 364.5C99 347.66 86.7201 334 71.581 334H27.419C12.2806 334 0 347.66 0 364.5C0 381.34 12.2799 395 27.419 395Z" fill="black"/>
<path d="M99 570.5C99 553.661 86.7237 540 71.5891 540H27.4109C12.277 539.968 0 553.627 0 570.5C0 587.339 12.2763 601 27.4109 601H71.56C86.723 601 99 587.34 99 570.5Z" fill="black"/>
<path d="M565 671.994C588.353 662.197 605 637.558 605 608.525V120.469C605 91.4033 588.323 66.7971 565 57C572.537 74.5437 577.047 93.9421 577.047 114.61V614.357C577.047 635.058 572.537 654.418 565 671.994Z" fill="black"/>
<path d="M558 614.706V114.323C558 51.1646 512.223 0 455.716 0H111.193C76.8449 0 49 31.1233 49 69.5132V105.851H71.1011C97.1681 105.851 118.336 129.543 118.336 158.646C118.336 187.748 97.1681 211.473 71.1011 211.473H49.0291V311.721H71.1302C97.1972 311.721 118.365 335.414 118.365 364.516C118.365 393.619 97.1681 417.311 71.1302 417.311H49.0291V517.56H71.1302C97.1972 517.56 118.365 541.252 118.365 570.354C118.365 599.457 97.1681 623.149 71.1302 623.149H49.0291V659.487C49.0291 697.878 76.8748 729 111.222 729H455.745C512.224 729.033 558 677.83 558 614.706ZM167.817 177.554L188.869 146.073L177.643 108.953C175.631 102.305 177.148 95.1359 181.55 90.1819C185.982 85.2283 192.368 83.5336 198.345 85.8149L231.526 98.4269L259.692 74.995C264.707 70.8235 271.268 70.2369 276.837 73.3655C282.377 76.5593 285.788 82.8489 285.701 89.8236L285.234 129.094L313.896 151.809C318.998 155.85 321.564 162.661 320.573 169.57C319.611 176.447 315.295 182.02 309.347 184.073L275.816 195.707L265.378 233.185C263.512 239.833 258.555 244.656 252.374 245.764C251.499 245.927 250.624 245.993 249.779 245.993C244.53 245.993 239.602 243.19 236.512 238.301L216.248 206.2L181.055 206.624H180.851C174.728 206.624 169.159 202.844 166.36 196.684C163.532 190.492 164.085 183.127 167.817 177.554ZM326.262 587.533C324.805 594.312 320.081 599.461 313.987 600.993L279.728 609.596L266.636 646.031C264.303 652.517 258.997 656.884 252.757 657.438C252.349 657.47 251.882 657.503 251.474 657.503C245.73 657.503 240.452 654.179 237.478 648.574L219.576 614.778L184.587 612.106C178.347 611.649 172.982 607.315 170.591 600.829C168.2 594.377 169.308 587.077 173.448 581.863L196.6 552.467L188.028 514.37C186.512 507.591 188.523 500.585 193.276 496.055C198.029 491.525 204.531 490.449 210.275 493.22L242.523 508.765L272.264 487.908C277.57 484.193 284.189 484.16 289.467 487.843C294.773 491.493 297.719 498.076 297.164 505.05L293.869 544.157L320.84 569.349C325.68 573.748 327.72 580.722 326.262 587.533ZM422.657 440.456C418.925 443.715 414.318 445.475 409.594 445.475H409.157C370.96 444.627 310.605 423.77 300.954 369.704C296.23 343.339 303.666 319.191 320.752 305.112C335.33 293.054 354.516 290.577 372.506 297.877C382.974 279.953 399.623 269.068 417.788 268.872H418.313C439.335 268.872 458.025 283.146 468.347 307.164C489.749 356.896 452.748 414.117 422.657 440.456Z" fill="black"/>
</svg>
