<svg width="725" height="822" viewBox="0 0 725 822" fill="none" xmlns="http://www.w3.org/2000/svg">
<path d="M637.578 513.182H415.042V677.019H637.578V513.182ZM461.552 603.135H449.426C447.439 603.135 445.532 602.288 444.127 600.78C442.722 599.271 441.932 597.226 441.932 595.092C441.932 592.959 442.722 590.913 444.127 589.405C445.532 587.897 447.439 587.049 449.426 587.049H461.552C463.54 587.049 465.446 587.897 466.851 589.405C468.257 590.913 469.047 592.959 469.047 595.092C469.047 597.226 468.257 599.271 466.851 600.78C465.446 602.288 463.54 603.135 461.552 603.135Z" fill="black"/>
<path d="M310.122 513.182H87.5861V677.019H310.122V513.182ZM275.738 603.135H263.612C261.625 603.135 259.719 602.288 258.313 600.78C256.908 599.271 256.118 597.226 256.118 595.092C256.118 592.959 256.908 590.913 258.313 589.405C259.719 587.897 261.625 587.049 263.612 587.049H275.738C277.726 587.049 279.632 587.897 281.038 589.405C282.443 590.913 283.233 592.959 283.233 595.092C283.233 597.226 282.443 599.271 281.038 600.78C279.632 602.288 277.726 603.135 275.738 603.135Z" fill="black"/>
<path d="M362.582 91.4524C322.711 91.4898 283.775 104.41 250.842 128.531C213.771 156.137 171.717 175.092 127.396 184.173V400.579H597.768V184.173C553.448 175.092 511.394 156.137 474.322 128.531C441.39 104.41 402.453 91.4898 362.582 91.4524ZM205.757 238.656C205.329 237.705 205.08 236.672 205.025 235.618C204.97 234.563 205.109 233.507 205.435 232.51C205.761 231.514 206.267 230.596 206.924 229.809C207.581 229.023 208.376 228.383 209.264 227.927L285.841 188.468C286.849 187.94 287.956 187.665 289.078 187.663C290.777 187.664 292.425 188.283 293.753 189.42C295.08 190.557 296.009 192.143 296.387 193.921C296.765 195.698 296.569 197.56 295.832 199.203C295.095 200.845 293.861 202.17 292.331 202.961L215.754 242.42C214.867 242.879 213.905 243.146 212.923 243.205C211.94 243.265 210.956 243.115 210.027 242.765C209.098 242.416 208.243 241.873 207.51 241.168C206.777 240.463 206.181 239.609 205.757 238.656ZM311.007 244.753L234.445 284.196C233.432 284.726 232.319 285.001 231.192 285C229.493 285.001 227.844 284.381 226.516 283.243C225.188 282.105 224.26 280.517 223.883 278.739C223.507 276.96 223.705 275.097 224.445 273.455C225.184 271.814 226.422 270.49 227.955 269.703L304.532 230.243C305.544 229.728 306.649 229.459 307.769 229.455C309.469 229.453 311.12 230.071 312.449 231.209C313.779 232.347 314.708 233.936 315.085 235.715C315.461 237.495 315.263 239.359 314.522 241.001C313.781 242.644 312.541 243.967 311.007 244.753Z" fill="black"/>
<path d="M717.457 421.472H680.124V129.718C680.121 125.489 679.342 121.302 677.831 117.396C676.32 113.49 674.107 109.942 671.318 106.954C668.528 103.967 665.218 101.598 661.576 99.9836C657.934 98.3693 654.031 97.5411 650.09 97.5461C603.596 96.8726 558.397 81.0158 520.51 52.0868C473.884 18.1448 418.84 0 362.5 0C306.16 0 251.116 18.1448 204.49 52.0868C166.603 81.0158 121.403 96.8726 74.9098 97.5461C70.9691 97.5411 67.0662 98.3693 63.4239 99.9836C59.7816 101.598 56.4713 103.967 53.6822 106.954C50.8932 109.942 48.6799 113.49 47.1689 117.396C45.6579 121.302 44.8788 125.489 44.8761 129.718V421.472H7.54297C5.54246 421.472 3.62388 422.325 2.20931 423.843C0.794726 425.361 1.59947e-05 427.42 0 429.567V477.721C3.19891e-05 479.868 0.794746 481.927 2.20932 483.446C3.6239 484.964 5.54246 485.817 7.54297 485.817H27.5493V754.161C27.5493 756.308 28.3441 758.367 29.7586 759.885C31.1732 761.403 33.0918 762.256 35.0923 762.256H65.0208V813.905C65.0209 816.052 65.8156 818.111 67.2302 819.629C68.6448 821.147 70.5633 822 72.5638 822H118.869C119.994 822 121.105 821.73 122.12 821.209C123.136 820.689 124.03 819.931 124.737 818.992L167.438 762.256H557.562L600.263 818.992C600.97 819.931 601.864 820.689 602.88 821.209C603.895 821.73 605.006 822 606.131 822H652.436C654.437 822 656.355 821.147 657.77 819.629C659.184 818.111 659.979 816.052 659.979 813.905V762.256H689.908C691.908 762.256 693.827 761.403 695.241 759.885C696.656 758.367 697.451 756.308 697.451 754.161V485.817H717.457C719.458 485.816 721.376 484.964 722.791 483.445C724.205 481.927 725 479.868 725 477.721V429.567C725 428.504 724.805 427.451 724.426 426.469C724.047 425.487 723.491 424.595 722.791 423.843C722.09 423.091 721.259 422.495 720.343 422.088C719.428 421.681 718.447 421.472 717.457 421.472ZM104.831 160.105C152.78 153.858 198.562 135.048 238.139 105.332C274.781 78.4671 318.124 64.0951 362.5 64.0951C406.876 64.0951 450.219 78.4671 486.86 105.332C526.438 135.048 572.22 153.858 620.169 160.105V421.472H104.831V160.105ZM332.523 697.912H65.0208V485.816H332.523L332.523 697.912ZM659.979 697.912H392.477V485.816H659.979V697.912Z" fill="black"/>
</svg>
