<svg width="444" height="822" viewBox="0 0 444 822" fill="none" xmlns="http://www.w3.org/2000/svg">
<path d="M357.406 341.926C354.525 341.834 351.798 340.881 349.784 339.263C347.77 337.644 346.622 335.483 346.575 333.221V311.029C357.57 308.955 367.358 304.045 374.368 297.086C381.379 290.127 385.206 281.523 385.236 272.654V211.041C385.22 200.547 379.897 190.486 370.435 183.065C360.973 175.644 348.143 171.47 334.762 171.457H303.129L320.273 91.0198C322.659 79.8244 321.907 68.3555 318.068 57.4112C314.229 46.4669 307.396 36.31 298.044 27.647C288.692 18.9841 277.045 12.0232 263.914 7.24862C250.783 2.47405 236.483 0.000482299 222.009 7.05221e-08C207.536 -0.000482158 193.236 2.47214 180.104 7.24583C166.973 12.0195 155.325 18.9796 145.972 27.642C136.619 36.3043 129.784 46.4608 125.944 57.4048C122.104 68.3489 121.351 79.8176 123.736 91.0132L140.873 171.458H109.238C95.8567 171.47 83.0276 175.644 73.5653 183.065C64.103 190.486 58.7801 200.547 58.7643 211.042V272.654C58.7939 281.523 62.6211 290.127 69.6318 297.086C76.6424 304.045 86.4303 308.955 97.4253 311.029V333.221C97.3705 335.498 96.2031 337.671 94.1641 339.292C92.1251 340.913 89.3701 341.859 86.4681 341.933C63.0877 342.845 41.055 350.789 24.9511 364.113C8.8471 377.437 -0.0890211 395.116 0.000668666 413.475V747.754C-0.0590248 766.081 8.86374 783.726 24.9242 797.04C40.9846 810.354 62.9546 818.32 86.2919 819.289C131.43 821.092 177.097 822 222 822C266.903 822 312.57 821.092 357.717 819.289C381.053 818.318 403.021 810.352 419.079 797.039C435.138 783.725 444.06 766.08 443.999 747.754V413.475C444.082 395.101 435.127 377.41 418.998 364.083C402.869 350.756 380.808 342.82 357.406 341.926ZM409.634 747.754C409.69 759.169 404.151 770.165 394.162 778.468C384.173 786.77 370.498 791.746 355.963 792.365C266.715 795.918 177.294 795.918 88.0453 792.365C73.5095 791.747 59.8322 786.773 49.8414 778.469C39.8505 770.166 34.3103 759.17 34.3662 747.754V413.475C34.3088 401.993 39.9118 390.937 50.0042 382.619C60.0967 374.301 73.8977 369.363 88.5235 368.838C100.171 368.356 111.142 364.398 119.187 357.776C127.232 351.153 131.741 342.368 131.791 333.221V312.238H312.209V333.221C312.283 342.419 316.854 351.243 324.982 357.874C333.109 364.505 344.172 368.437 355.888 368.857C370.445 369.444 384.154 374.408 394.164 382.718C404.174 391.028 409.715 402.044 409.634 413.475V747.754ZM359.755 751.741C359.84 753.08 359.243 754.391 358.097 755.385C356.95 756.38 355.347 756.976 353.639 757.044L336.448 757.689H336.154C334.471 757.686 332.856 757.167 331.654 756.243C330.452 755.318 329.759 754.062 329.723 752.742C329.687 751.422 330.31 750.143 331.461 749.179C332.611 748.215 334.196 747.642 335.878 747.583L353.002 746.938C354.691 746.927 356.323 747.415 357.574 748.305C358.826 749.195 359.604 750.422 359.755 751.741ZM202.082 754.57C202.066 755.902 201.38 757.175 200.173 758.111C198.967 759.048 197.337 759.573 195.639 759.571H195.572C183.859 759.479 172.119 759.321 160.35 759.097C159.505 759.081 158.671 758.935 157.898 758.667C157.124 758.398 156.426 758.013 155.842 757.532C155.259 757.052 154.801 756.486 154.497 755.868C154.192 755.249 154.046 754.589 154.066 753.926C154.059 753.255 154.227 752.591 154.561 751.973C154.894 751.356 155.385 750.799 156.004 750.336C156.623 749.874 157.356 749.515 158.159 749.284C158.961 749.053 159.816 748.953 160.669 748.991C172.357 749.215 184.035 749.372 195.706 749.465C197.415 749.479 199.046 750.025 200.242 750.982C201.438 751.94 202.1 753.23 202.082 754.57ZM289.925 753.926C289.946 754.589 289.8 755.249 289.495 755.868C289.19 756.486 288.733 757.052 288.15 757.533C287.566 758.013 286.868 758.398 286.094 758.667C285.321 758.935 284.487 759.082 283.641 759.097C271.879 759.321 260.138 759.479 248.42 759.571H248.353C246.645 759.577 245.004 759.051 243.79 758.108C242.576 757.166 241.889 755.884 241.88 754.544C241.871 753.204 242.541 751.917 243.742 750.964C244.943 750.012 246.578 749.472 248.286 749.465C259.94 749.372 271.619 749.215 283.323 748.991H283.483C285.165 748.991 286.781 749.508 287.985 750.43C289.189 751.352 289.885 752.606 289.925 753.926ZM114.256 752.86C114.183 754.159 113.474 755.386 112.277 756.285C111.08 757.185 109.487 757.688 107.829 757.689H107.535L90.3359 757.044C88.6285 756.976 87.0252 756.38 85.8784 755.385C84.7315 754.391 84.1349 753.08 84.2196 751.741C84.3453 750.414 85.1163 749.176 86.3733 748.282C87.6303 747.388 89.2772 746.907 90.9735 746.938L108.106 747.583C109.813 747.645 111.419 748.235 112.572 749.224C113.724 750.214 114.33 751.521 114.256 752.86ZM375.269 508.224V688.799C375.328 693.424 373.046 697.879 368.924 701.187C364.802 704.495 359.176 706.386 353.278 706.447C309.223 708.236 264.764 709.144 222 709.144C179.236 709.144 134.778 708.236 89.8408 706.433H89.8072C84.0577 706.226 78.6384 704.267 74.7023 700.974C70.7662 697.68 68.624 693.313 68.7315 688.8V508.225C68.701 503.747 70.8331 499.425 74.6994 496.13C78.5656 492.834 83.8794 490.808 89.5724 490.459C107.183 489.722 124.768 489.222 142.345 488.854C146.401 474.66 156.5 461.972 170.978 452.88C185.457 443.788 203.452 438.834 222 438.834C240.548 438.834 258.543 443.788 273.022 452.88C287.5 461.972 297.599 474.66 301.655 488.854C319.215 489.222 336.767 489.722 354.201 490.446C359.933 490.762 365.298 492.773 369.209 496.074C373.12 499.375 375.287 503.718 375.269 508.224Z" fill="black"/>
</svg>
