<svg width="354" height="820" viewBox="0 0 354 820" fill="none" xmlns="http://www.w3.org/2000/svg">
<path fill-rule="evenodd" clip-rule="evenodd" d="M219.119 568.813C244.214 638.073 261.105 746.132 261.105 766.068C261.105 795.827 223.435 820 177 820C130.565 820 92.8954 795.827 92.8954 766.068C92.8954 746.132 109.786 638.073 134.881 568.813C138.797 569.406 143.006 569.729 147.375 569.729H206.625C210.994 569.729 215.203 569.406 219.119 568.813ZM177 729.1C149.587 729.1 127.342 743.364 127.342 760.926C127.342 778.505 149.587 792.769 177 792.769C204.413 792.769 226.658 778.505 226.658 760.926C226.658 743.364 204.413 729.1 177 729.1ZM177 746.183C189.708 746.183 200.017 752.794 200.017 760.926C200.017 769.075 189.708 775.686 177 775.686C164.292 775.686 153.983 769.075 153.983 760.926C153.983 752.794 164.292 746.183 177 746.183ZM117.778 514.4V545.995C117.778 553.439 131.045 559.479 147.375 559.479H206.625C222.955 559.479 236.222 553.439 236.222 545.995V514.4C235.449 514.164 234.703 513.916 233.957 513.66C224.713 527.993 202.682 538.091 177 538.091C151.318 538.091 129.287 527.993 120.043 513.66C119.297 513.916 118.551 514.164 117.778 514.4ZM308.684 166.012C333.726 166.115 354 179.18 354 195.261C354 211.403 333.567 224.509 308.392 224.509H308.684C333.726 224.612 354 237.679 354 253.758C354 269.901 333.567 283.006 308.392 283.006L308.684 283.008C333.726 283.108 354 296.175 354 312.256C354 328.398 333.567 341.504 308.392 341.504H308.684C333.726 341.607 354 354.672 354 370.753C354 386.895 333.567 400.001 308.392 400.001H308.684C333.726 400.104 354 413.171 354 429.25C354 445.393 333.567 458.498 308.392 458.498H308.232C307.885 461.872 306.899 465.138 305.354 468.247C307.326 471.509 308.392 475.053 308.392 478.757C308.392 494.901 287.958 508.007 262.783 508.007C248.876 508.007 236.408 503.999 228.016 497.685H222.582C222.609 497.986 222.609 498.288 222.609 498.592C222.609 514.735 202.175 527.841 177 527.841C151.825 527.841 131.391 514.735 131.391 498.592C131.391 498.288 131.391 497.986 131.418 497.685H125.984C117.592 503.999 105.124 508.007 91.2174 508.007C66.042 508.007 45.6084 494.901 45.6084 478.757C45.6084 475.053 46.6744 471.509 48.6458 468.247C47.1006 465.138 46.1147 461.872 45.7684 458.498H45.6084C20.433 458.498 0 445.393 0 429.25C0 413.107 20.433 400.001 45.6084 400.001H45.3157C20.2735 399.899 0 386.832 0 370.753C0 354.609 20.433 341.504 45.6084 341.504L45.3157 341.503C20.2735 341.402 0 328.335 0 312.256C0 296.112 20.433 283.006 45.6084 283.006H45.3157C20.2735 282.905 0 269.838 0 253.758C0 237.616 20.433 224.509 45.6084 224.509H45.3157C20.2735 224.407 0 211.34 0 195.261C0 179.117 20.433 166.012 45.6084 166.012L45.3157 166.011C20.2735 165.91 0 152.843 0 136.762C0 120.62 20.433 107.514 45.6084 107.514V103.086C20.433 103.086 0 89.9796 0 73.8359C0 57.6938 20.433 44.5875 45.6084 44.5875C45.7682 44.5875 45.9546 44.5892 46.1411 44.5892C49.4978 30.5775 68.413 19.8337 91.2174 19.8337C104.458 19.8337 116.392 23.4605 124.731 29.2483H131.391C131.391 13.1063 151.825 0 177 0C202.175 0 222.609 13.1063 222.609 29.2483H229.269C237.608 23.4605 249.542 19.8337 262.783 19.8337C287.958 19.8337 308.392 32.9401 308.392 49.0822C333.567 49.0822 354 62.1884 354 78.3305C354 94.0079 334.739 106.82 310.576 107.546C334.739 108.274 354 121.087 354 136.762C354 152.906 333.567 166.012 308.392 166.012H308.684Z" fill="black"/>
</svg>
