<svg width="798" height="635" viewBox="0 0 798 635" fill="none" xmlns="http://www.w3.org/2000/svg">
<path d="M729.995 0C766.122 0 798 33.9014 798 76.9302V106.92H0V76.9302C0 33.9014 29.7523 2.6078 68.0053 0H729.995ZM798 241.222V559.374C798 599.795 767.185 635 729.995 635H68.0053C30.8149 635 0 601.099 0 559.374V241.222H798ZM453.723 388.563C410.157 375.524 365.529 376.827 323.025 389.866C323.025 376.827 323.025 362.485 324.088 352.053L335.776 323.368C336.839 316.848 335.776 311.632 330.463 309.025C326.213 305.113 320.9 305.113 317.712 309.025C311.337 312.936 307.087 323.368 307.087 329.887C306.024 333.799 306.024 339.014 306.024 342.926C299.648 354.661 290.085 366.396 279.459 372.916H266.708C264.583 372.916 261.395 374.22 260.333 375.524C258.208 375.524 256.083 376.827 253.957 376.827C234.831 357.269 211.454 345.534 185.952 345.534C156.2 345.534 126.447 367.7 109.446 398.994C107.321 404.209 108.383 412.033 112.634 414.641C117.947 418.552 122.197 415.945 126.447 412.033C139.198 384.651 162.575 369.004 187.015 369.004C202.953 367.7 218.892 374.22 232.706 385.955C206.141 400.298 183.827 423.768 167.888 455.062C158.325 475.924 155.137 495.483 160.45 512.433C162.575 521.561 166.826 530.688 174.264 541.119C189.14 559.374 210.391 571.109 231.643 571.109C248.644 571.109 263.521 564.589 273.084 550.246C286.897 531.992 298.586 500.698 281.585 439.415H286.897C291.148 439.415 293.273 435.503 294.336 431.591C297.523 419.856 298.586 409.425 297.523 398.994H302.836C302.836 398.994 303.899 398.994 304.961 397.69V408.121C306.024 413.337 307.087 415.945 309.212 417.248C312.399 419.856 314.525 419.856 317.712 418.552C361.278 402.905 406.969 401.602 451.598 414.641C455.848 415.945 461.161 412.033 462.224 405.513C462.224 396.386 460.099 389.866 453.723 388.563ZM265.646 443.326C272.021 466.797 280.522 508.522 261.395 531.992C251.832 543.727 240.144 546.335 233.768 546.335C216.767 546.335 200.828 538.511 189.14 524.168C183.827 516.345 180.639 509.825 179.577 503.306C177.451 492.875 179.577 479.836 187.015 465.493C197.64 442.023 214.642 423.768 235.893 410.729C239.081 408.121 245.457 404.209 249.707 402.905C249.707 402.905 250.77 404.209 251.832 405.513C251.832 415.945 255.02 428.984 263.521 434.199C263.521 438.111 265.646 440.719 265.646 443.326ZM279.459 402.905C280.522 409.425 278.397 414.641 275.209 415.945C272.021 415.945 267.771 412.033 266.708 405.513C266.708 398.994 268.834 393.778 272.021 392.474C275.209 392.474 278.397 396.386 279.459 402.905Z" fill="black"/>
</svg>
