<svg width="636" height="804" viewBox="0 0 636 804" fill="none" xmlns="http://www.w3.org/2000/svg">
<path d="M565.851 671.357L488.743 770.49C486.386 773.518 483.455 775.881 480.149 777.412C429.537 800.739 409.504 801.97 376.282 803.967C375.88 804 375.477 804 375.075 804C369.413 804 363.924 801.571 359.699 797.178C355.158 792.453 352.427 785.831 352.14 778.776C350.387 740.308 349.353 717.114 364.097 656.386C365.045 652.459 366.769 648.832 369.155 645.771L447.388 545.146C448.509 547.309 449.774 549.372 451.47 551.136L559.906 666.805C561.717 668.801 563.757 670.232 565.855 671.364L565.851 671.357ZM633.937 538.216C629.713 515.388 619.768 494.89 605.973 480.515C582.75 456.323 554.383 453.727 543.261 453.727C531.965 453.727 516.647 456.123 507.68 467.637L476.64 507.535C478.767 508.667 480.807 510.065 482.618 511.995L591.054 627.663C592.721 629.46 594.015 631.49 595.135 633.653L627.296 592.29C639.425 576.75 635.978 549.297 633.937 538.216ZM496.328 797.376C538.433 790.155 571.258 749.923 574.473 700.142L505.841 788.261C503.082 791.854 499.806 794.78 496.328 797.376ZM342.017 649.165C326.152 714.121 327.416 740.342 329.141 780.142C329.457 786.664 330.865 792.854 333.05 798.644H91.9701C41.2718 798.644 0 750.859 0 692.159V173.039C0 114.339 41.2718 66.5533 91.9701 66.5533H114.963V26.6213C114.963 11.9127 125.252 0 137.955 0C150.659 0 160.948 11.9127 160.948 26.6213V66.5533H264.411V26.6213C264.411 11.9127 274.699 0 287.403 0C300.107 0 310.396 11.9127 310.396 26.6213V66.5533H425.358V26.6213C425.358 11.9127 435.647 0 448.351 0C461.054 0 471.343 11.9127 471.343 26.6213V66.5533H482.84C533.538 66.5533 574.81 114.339 574.81 173.039V432.062C561.417 427.969 549.863 427.137 543.31 427.137C520.318 427.137 502.153 434.99 490.658 449.765L438.809 516.451L352.012 627.997C347.298 633.986 343.849 641.44 342.01 649.161L342.017 649.165ZM91.9757 306.146C91.9757 320.855 102.265 332.767 114.968 332.767H459.856C472.56 332.767 482.849 320.855 482.849 306.146C482.849 291.438 472.56 279.525 459.856 279.525H114.968C102.265 279.525 91.9757 291.438 91.9757 306.146ZM91.9757 439.253C91.9757 453.961 102.265 465.874 114.968 465.874H436.864C449.567 465.874 459.856 453.961 459.856 439.253C459.856 424.544 449.567 412.631 436.864 412.631H114.968C102.265 412.631 91.9757 424.544 91.9757 439.253ZM333.394 598.981C346.097 598.981 356.386 587.068 356.386 572.36C356.386 557.651 346.097 545.738 333.394 545.738H114.961C102.257 545.738 91.9683 557.651 91.9683 572.36C91.9683 587.068 102.257 598.981 114.961 598.981H333.394Z" fill="black"/>
</svg>
