<svg width="763" height="678" viewBox="0 0 763 678" fill="none" xmlns="http://www.w3.org/2000/svg">
<path d="M190.553 294.609V199.028H180.208V294.746C180.854 294.613 184.152 294.079 185.187 294.079H185.833C186.9 294.079 190.036 294.609 190.553 294.609Z" fill="black"/>
<path d="M370.894 407.39V406.99C370.635 396.326 332.743 378.196 252.438 370.997C252.955 373.13 253.602 375.129 253.99 377.262C308.435 382.995 350.338 394.992 369.731 410.323C370.377 409.39 370.764 408.323 370.894 407.39Z" fill="black"/>
<path d="M178.974 446.176V311.135C172.379 318.201 165.008 335.264 160.223 363.259C157.119 380.589 155.567 400.852 155.567 421.782C155.567 429.913 155.826 437.912 156.343 445.777C163.844 446.044 171.344 446.176 178.974 446.176Z" fill="black"/>
<path d="M118.455 370.994C37.7581 378.193 0 396.456 0 407.121C0 408.187 0.517291 409.254 1.03458 410.187C20.8208 394.856 62.8513 382.725 116.908 377.26C117.296 375.127 117.938 372.994 118.455 370.994Z" fill="black"/>
<path d="M244.286 444.043C245.061 436.844 245.579 429.512 245.579 421.78C245.579 402.05 242.863 382.587 237.69 365.523C231.612 345.661 222.689 330.064 212.343 320.066C217.904 333.396 221.396 349.126 223.335 360.857C226.568 378.987 228.249 400.051 228.249 421.779C228.249 429.778 227.991 437.51 227.473 445.108C233.164 444.708 238.854 444.443 244.286 444.043Z" fill="black"/>
<path d="M9.56368 417.654C27.2807 428.852 65.4311 438.183 113.535 442.849C112.888 436.05 112.371 428.985 112.371 421.786C112.371 410.588 113.276 399.523 114.828 388.859C66.4612 394.058 27.7971 404.723 9.56368 417.654Z" fill="black"/>
<path d="M695.496 0H127.121C104.878 0 86.7725 18.5301 86.6433 41.4591H757.052C746.578 17.0635 722.912 0 695.496 0Z" fill="black"/>
<path d="M75.6486 560.825C75.778 560.825 75.778 560.958 75.778 560.958C102.16 578.955 137.595 591.086 185.444 591.086C240.923 590.952 285.931 574.689 317.87 541.762C353.563 504.969 365.203 456.044 368.953 428.452C348.39 441.783 305.455 452.314 250.621 456.98C241.052 457.78 231.223 458.447 220.877 458.847H220.618C209.238 459.38 197.469 459.647 185.442 459.647C173.286 459.647 161.389 459.38 150.008 458.847C139.663 458.447 129.834 457.78 120.264 456.98C64.2672 452.181 21.9785 441.784 1.54339 428.186C5.68172 460.713 20.8123 523.101 75.2569 560.564C75.3863 560.698 75.5193 560.692 75.6486 560.825Z" fill="black"/>
<path d="M125.309 421.783C125.309 429.382 125.826 436.847 126.602 444.046C132.033 444.446 137.724 444.713 143.413 445.113C142.896 437.514 142.637 429.782 142.637 421.783C142.637 400.054 144.319 378.992 147.552 360.862C149.492 349.131 152.983 333.134 158.674 319.803C148.199 329.934 139.146 345.531 133.197 365.528C128.025 382.591 125.309 402.053 125.309 421.783Z" fill="black"/>
<path d="M361.317 417.782C343.341 404.851 304.674 394.187 256.047 388.854C257.598 399.519 258.504 410.584 258.504 421.782C258.504 428.98 257.987 436.046 257.34 442.845C305.448 438.179 343.738 428.847 361.317 417.782Z" fill="black"/>
<path d="M708.167 413.789V143.572H486.634V446.585C486.634 501.241 443.44 545.767 390.286 545.767H331.832C330.28 547.633 328.728 549.499 326.918 551.232C292.647 586.559 245.186 604.422 185.958 604.422H185.441C137.332 604.422 100.861 592.558 73.3167 574.828C65.1693 586.426 60.5135 600.29 60.5135 614.687V641.082H762.862C762.862 640.816 762.991 640.416 762.991 640.016V599.89C762.991 567.896 753.938 537.102 736.61 510.572C717.987 481.644 708.159 448.183 708.159 413.788L708.167 413.789ZM603.153 175.165C633.414 175.165 657.986 200.494 657.986 231.555C657.986 262.748 633.414 288.077 603.153 288.077C573.021 288.077 548.449 262.748 548.449 231.555C548.449 200.494 573.021 175.165 603.153 175.165ZM568.106 301.145C582.073 301.145 593.454 312.876 593.454 327.273C593.454 341.67 582.073 353.268 568.106 353.268C554.139 353.268 542.759 341.67 542.759 327.273C542.759 312.876 554.139 301.145 568.106 301.145ZM663.544 513.235C663.544 521.367 657.078 528.033 649.189 528.033H557.244C549.355 528.033 542.76 521.367 542.76 513.235V499.637C542.76 491.372 549.355 484.707 557.244 484.707H649.189C657.078 484.707 663.544 491.372 663.544 499.637V513.235ZM663.544 455.246C663.544 463.511 657.078 470.176 649.189 470.176H557.244C549.355 470.176 542.76 463.511 542.76 455.246V441.648C542.76 433.383 549.355 426.717 557.244 426.717H649.189C657.078 426.717 663.544 433.383 663.544 441.648V455.246ZM663.544 397.39C663.544 405.522 657.078 412.188 649.189 412.188H557.244C549.355 412.188 542.76 405.522 542.76 397.39V383.659C542.76 375.528 549.355 368.862 557.244 368.862H649.189C657.078 368.862 663.544 375.527 663.544 383.659V397.39ZM638.326 353.265C624.359 353.265 612.979 341.667 612.979 327.27C612.979 312.872 624.359 301.141 638.326 301.141C652.293 301.141 663.544 312.872 663.544 327.27C663.544 341.667 652.293 353.265 638.326 353.265Z" fill="black"/>
<path d="M191.911 311.135V446.176C199.541 446.176 207.041 446.042 214.543 445.776C215.06 438.044 215.318 430.045 215.318 421.78C215.318 400.851 213.637 380.588 210.663 363.258C205.878 335.129 198.377 318.067 191.911 311.135Z" fill="black"/>
<path d="M86.64 148.904C86.64 170.634 103.193 185.698 127.118 185.698H239.109C269.37 185.698 291.227 165.168 291.227 136.906C291.227 133.307 294.201 130.241 297.693 130.241H736.744C751.229 130.241 762.997 118.11 762.997 103.179V87.8483H86.6371L86.64 148.904Z" fill="black"/>
<path d="M761.32 54.7908H86.64V74.5204H763V69.7213C763 64.5223 762.354 59.5899 761.32 54.7908Z" fill="black"/>
<path d="M649.196 382.188H557.251C556.475 382.188 555.699 382.854 555.699 383.654V397.385C555.699 398.185 556.475 398.851 557.251 398.851H649.196C649.972 398.851 650.619 398.185 650.619 397.385V383.654C650.619 382.854 649.972 382.188 649.196 382.188Z" fill="black"/>
<path d="M638.329 314.471C631.475 314.471 625.914 320.204 625.914 327.269C625.914 334.201 631.475 339.933 638.329 339.933C645.054 339.933 650.615 334.201 650.615 327.269C650.615 320.204 645.054 314.471 638.329 314.471Z" fill="black"/>
<path d="M84.0494 678H726.268C741.529 678 754.719 668.269 760.151 654.405H60.6414C61.0294 667.468 71.3762 678 84.0494 678Z" fill="black"/>
<path d="M603.153 274.747C626.302 274.747 645.054 255.418 645.054 231.556C645.054 210.093 629.664 192.362 609.62 189.163V231.556C609.62 235.288 606.774 238.221 603.153 238.221C599.662 238.221 596.687 235.288 596.687 231.556V189.163C576.772 192.362 561.382 210.092 561.382 231.556C561.382 255.418 580.133 274.747 603.153 274.747Z" fill="black"/>
<path d="M649.196 440.05H557.251C556.475 440.05 555.699 440.85 555.699 441.65V455.247C555.699 456.181 556.475 456.847 557.251 456.847H649.196C649.972 456.847 650.619 456.181 650.619 455.247V441.65C650.619 440.85 649.972 440.05 649.196 440.05Z" fill="black"/>
<path d="M568.11 339.93C574.964 339.93 580.525 334.198 580.525 327.265C580.525 320.2 574.964 314.468 568.11 314.468C561.256 314.468 555.695 320.2 555.695 327.265C555.695 334.197 561.256 339.93 568.11 339.93Z" fill="black"/>
<path d="M649.196 498.04H557.251C556.475 498.04 555.699 498.707 555.699 499.64V513.238C555.699 514.038 556.475 514.704 557.251 514.704H649.196C649.972 514.704 650.619 514.038 650.619 513.238V499.64C650.619 498.707 649.972 498.04 649.196 498.04Z" fill="black"/>
</svg>
