<svg width="757" height="826" viewBox="0 0 757 826" fill="none" xmlns="http://www.w3.org/2000/svg">
<path d="M690.206 258.986C719.991 303.029 734.735 358.672 734.735 425.146C734.735 469.279 728.558 496.074 711.022 546.496L710.771 547.218C695.201 591.99 690.206 613.653 690.206 649.87C690.206 705.79 701.81 743.774 730.567 787.551C737.73 798.457 735.436 813.633 725.441 821.45C715.447 829.266 701.538 826.762 694.374 815.857C660.291 763.971 645.676 716.134 645.676 649.87C645.676 606.408 651.809 579.808 669.138 529.979L669.389 529.257C685.167 483.892 690.206 462.034 690.206 425.146C690.206 370.501 678.983 326.192 656.804 291.529H100.196C78.0173 326.192 66.7941 370.501 66.7941 425.146C66.7941 462.034 71.8332 483.892 87.6105 529.257L87.8616 529.979C105.191 579.808 111.324 606.408 111.324 649.87C111.324 719.514 94.8146 775.806 61.3 817.684C53.2119 827.79 39.1466 828.829 29.8846 820.003C20.6225 811.178 19.6708 795.831 27.7589 785.724C53.6168 753.414 66.7941 708.483 66.7941 649.87C66.7941 613.653 61.7992 591.99 46.2288 547.218L45.9777 546.496C28.4419 496.074 22.2647 469.279 22.2647 425.146C22.2647 358.672 37.009 303.029 66.7941 258.986V48.5881H22.2647C9.96825 48.5881 0 37.7113 0 24.2941C0 10.8768 9.96825 0 22.2647 0H734.735C747.032 0 757 10.8768 757 24.2941C757 37.7113 747.032 48.5881 734.735 48.5881H690.206V258.986ZM333.971 170.058H423.029C435.326 170.058 445.294 159.182 445.294 145.764C445.294 132.347 435.326 121.47 423.029 121.47H333.971C321.674 121.47 311.706 132.347 311.706 145.764C311.706 159.182 321.674 170.058 333.971 170.058Z" fill="black"/>
</svg>
