<svg width="512" height="823" viewBox="0 0 512 823" fill="none" xmlns="http://www.w3.org/2000/svg">
<path d="M256 20.5879C348.648 20.5879 430.324 39.1169 472.991 67.94C479.086 62.793 481.524 58.6754 481.524 54.5578C481.524 53.5285 481.524 53.5285 481.524 53.5285C481.524 30.8818 396.19 0 256 0C126.781 0 31.6952 27.7936 31.6952 53.5285C31.6952 57.646 34.1333 62.793 40.2285 66.9106C81.6762 39.1169 163.352 20.5879 256 20.5879Z" fill="black"/>
<path d="M56.0762 78.2339C92.6476 96.763 167.01 119.41 256 119.41C346.21 119.41 420.571 97.7923 455.924 78.2339C416.914 54.5578 340.114 38.0875 256 38.0875C173.105 38.0875 95.0857 53.5284 56.0762 78.2339ZM341.333 85.4396C321.829 85.4396 309.638 81.3221 305.981 78.2339C309.638 76.1751 321.829 72.0575 341.333 72.0575C360.838 72.0575 374.248 76.1751 377.905 78.2339C374.248 81.3221 360.838 85.4396 341.333 85.4396Z" fill="black"/>
<path d="M512 139.997C508.343 118.38 501.029 96.7629 491.276 76.1751C487.619 79.2632 485.181 82.3514 481.524 85.4396C480.305 86.469 479.086 86.469 477.867 86.469C437.638 111.174 353.524 135.88 256 135.88C160.914 135.88 74.3619 111.174 34.1333 86.469C32.9143 86.469 31.6952 85.4396 30.4762 85.4396C26.819 82.3514 24.381 79.2632 20.7238 76.1751C9.75239 97.7923 2.4381 119.41 0 139.997C167.01 203.82 338.895 203.82 512 139.997Z" fill="black"/>
<path d="M47.5429 780.28V799.839C185.295 830.72 326.705 830.72 464.457 799.839V780.28C396.19 795.721 325.486 802.927 256 802.927C186.514 802.927 115.81 795.721 47.5429 780.28Z" fill="black"/>
<path d="M254.781 205.879C169.448 205.879 82.8952 190.438 0 158.527V707.193C0 722.634 9.75238 739.104 18.2857 754.545L19.5048 755.575C176.762 794.692 335.238 794.692 491.276 755.575L492.495 754.545C501.029 739.104 510.781 722.634 510.781 707.193V157.497C426.667 189.408 340.114 205.879 254.781 205.879ZM241.371 482.785C242.59 479.697 241.371 477.638 238.933 475.58C237.714 473.521 234.057 472.492 230.4 472.492H177.981L305.981 330.435L270.629 479.697C270.629 481.756 271.848 484.844 273.067 486.903C274.286 488.962 277.943 489.991 281.6 489.991H332.8L197.486 629.989L241.371 482.785ZM165.79 594.989L157.257 626.901C157.257 627.93 157.257 627.93 156.038 627.93V628.959H154.819C152.381 631.018 149.943 632.047 146.286 632.047H143.848C143.848 632.047 143.848 631.018 142.629 631.018C141.41 631.018 141.41 631.018 141.41 629.989C80.4571 598.077 43.8857 541.461 43.8857 479.697C43.8857 379.846 138.971 299.553 256 299.553H259.657C260.876 299.553 262.095 300.583 263.314 300.583C264.533 300.583 265.752 300.583 266.971 301.612C266.971 301.612 266.971 301.612 266.971 302.642C268.191 303.671 268.19 303.671 269.41 305.73C269.41 306.759 270.629 306.759 270.629 308.818C270.629 308.818 271.848 308.818 271.848 309.847C271.848 310.877 270.629 310.877 270.629 312.936C270.629 313.965 270.629 313.965 269.41 314.994L241.371 345.876C240.152 347.935 237.714 348.964 235.276 348.964C158.476 358.229 101.181 414.846 101.181 480.727C101.181 485.874 102.4 492.05 102.4 497.197C103.619 502.344 103.619 507.491 104.838 512.638C113.371 541.461 134.095 567.196 163.352 584.695C164.571 584.695 164.571 585.725 164.571 585.725C165.79 586.754 165.79 586.754 165.79 588.813C167.01 589.842 167.01 590.872 167.01 591.901C165.79 592.931 165.79 593.96 165.79 594.989ZM256 659.841C252.343 659.841 247.467 659.841 242.591 658.812C241.371 658.812 241.371 658.812 241.371 658.812C240.152 658.812 240.152 657.782 240.152 657.782C238.933 656.753 237.714 656.753 236.495 656.753C236.495 656.753 236.495 655.724 235.276 655.724C234.057 654.694 234.057 653.665 234.057 652.635C234.057 651.606 232.838 650.577 232.838 649.547C232.838 648.518 232.838 648.518 232.838 648.518C232.838 647.488 234.057 647.488 234.057 647.488C234.057 646.459 234.057 646.459 235.276 645.43L264.533 615.577C264.533 614.548 265.752 614.548 265.752 614.548C266.971 613.518 269.41 612.489 270.629 611.46C351.086 605.283 412.038 548.667 412.038 480.727C412.038 475.58 412.038 470.433 410.819 465.286C409.6 460.139 408.381 453.962 407.162 448.815C397.41 416.904 374.248 389.111 342.552 370.582C341.333 370.582 341.333 369.552 341.333 369.552C340.114 368.523 340.114 368.523 338.895 366.464C338.895 365.435 337.676 364.405 337.676 363.376V361.317L344.991 330.435L346.21 329.406C346.21 328.376 346.21 328.376 346.21 328.376C347.429 327.347 347.429 327.347 348.648 327.347L351.086 325.288C352.305 324.259 353.524 324.259 354.743 324.259C355.962 324.259 355.962 323.229 357.181 324.259C358.4 324.259 358.4 324.259 358.4 325.288H359.619C425.448 357.199 466.895 417.934 466.895 480.727C469.333 579.548 374.248 659.841 256 659.841Z" fill="black"/>
<path d="M363.276 347.935L360.838 360.288C393.752 380.876 418.133 409.699 427.886 444.698C430.324 449.845 431.543 457.051 432.762 463.227C433.981 469.403 433.981 474.55 433.981 480.727C433.981 556.902 368.152 619.695 279.162 627.93L265.752 641.312C368.152 638.224 449.829 567.196 449.829 479.697C448.61 427.198 415.695 377.787 363.276 347.935Z" fill="black"/>
<path d="M81.6762 499.256C80.4572 492.05 80.4571 486.903 80.4571 480.727C80.4571 407.64 143.848 344.847 227.962 333.524L240.152 320.141C142.629 327.347 65.8286 396.316 65.8286 480.727C65.8286 532.196 93.8667 577.49 142.629 608.372L146.286 594.989C118.248 575.431 96.3047 547.637 86.5524 516.756C82.8952 511.609 81.6762 505.432 81.6762 499.256Z" fill="black"/>
</svg>
