<svg width="821" height="675" viewBox="0 0 821 675" fill="none" xmlns="http://www.w3.org/2000/svg">
<path fill-rule="evenodd" clip-rule="evenodd" d="M821 112.491V562.509C821 624.458 770.994 675 709.667 675H111.27C50.008 675 0.0348452 624.462 0.0348452 562.509L0 112.491C0 50.542 50.0062 0 111.235 0H709.632C770.963 0 820.965 50.5384 820.965 112.491H821ZM738.203 93.2268C730.397 85.3026 717.643 85.3026 709.837 93.2268L483.888 321.545C443.361 362.574 377.016 362.574 336.381 321.545L110.432 93.2268C102.626 85.3026 89.9416 85.3026 82.0662 93.2268C74.2604 101.151 74.2604 113.97 82.0662 121.859L290.352 332.326L83.3241 553.602C75.7622 561.702 76.1804 574.522 84.2301 582.165C92.2798 589.807 104.964 589.419 112.526 581.284L319.242 360.323C372.941 404.416 450.897 403.607 503.655 358.21L710.192 578.954C717.754 587.09 730.403 587.477 738.384 579.835C746.434 572.193 746.852 559.409 739.29 551.273L532.262 329.996L738.246 121.856C746.052 113.967 746.052 101.112 738.246 93.2233L738.203 93.2268Z" fill="black"/>
</svg>
