<svg width="673" height="833" viewBox="0 0 673 833" fill="none" xmlns="http://www.w3.org/2000/svg">
<path fill-rule="evenodd" clip-rule="evenodd" d="M23.6005 0.243511C20.681 -0.21094 17.6992 -0.0188774 14.8595 0.806544C12.0198 1.63197 9.38918 3.07125 7.14783 5.02582C4.90649 6.9804 3.10736 9.40409 1.87365 12.1309C0.639942 14.8577 0.000800277 17.8233 0 20.8245V703.152C2.45935e-05 736.377 24.1054 764.935 56.4235 769.987L452.813 831.958C505.904 840.258 554.501 797.885 554.501 743.305V181.388C554.501 125.081 513.829 76.8941 459.058 68.3315L23.6005 0.243511ZM415.475 280.974H415.492C448.366 280.974 475.47 308.514 475.47 341.92V502.5C475.47 535.906 448.366 563.446 415.492 563.446H415.475C382.601 563.446 355.497 535.906 355.497 502.5V341.92C355.497 308.514 382.601 280.974 415.475 280.974Z" fill="black"/>
<path fill-rule="evenodd" clip-rule="evenodd" d="M20.4949 0C15.0593 2.2092e-07 9.84634 2.19404 6.00281 6.09945C2.15928 10.0049 0 15.3014 0 20.8245C2.17425e-07 26.3475 2.15928 31.6448 6.00281 35.5502C9.84634 39.4556 15.0593 41.6496 20.4949 41.6496H574.288C606.409 41.6497 632.01 67.6628 632.01 100.301V703.96C632.01 736.598 606.409 762.611 574.288 762.611H534.003C531.312 762.611 528.647 763.15 526.16 764.197C523.674 765.243 521.414 766.777 519.511 768.711C517.608 770.645 516.098 772.94 515.068 775.467C514.039 777.994 513.508 780.701 513.508 783.436C513.508 786.171 514.039 788.879 515.068 791.406C516.098 793.932 517.608 796.228 519.511 798.162C521.414 800.095 523.674 801.629 526.16 802.676C528.647 803.722 531.312 804.261 534.003 804.261H574.288C628.562 804.261 673 759.107 673 703.96V100.301C673 45.1538 628.562 6.2475e-05 574.288 0H20.4949Z" fill="black"/>
</svg>
