<svg width="813" height="826" viewBox="0 0 813 826" fill="none" xmlns="http://www.w3.org/2000/svg">
<path d="M760.413 218.592L597.841 53.4224C581.949 37.2771 556.226 37.2771 540.373 53.4224C524.481 69.5677 524.481 95.7021 540.373 111.809L633.587 206.513H487.786C375.749 206.513 284.551 299.127 284.551 412.995V495.58C284.551 518.424 302.767 536.892 325.213 536.892C347.66 536.892 365.876 518.424 365.876 495.58V412.995C365.876 344.658 420.563 289.098 487.825 289.098H633.587L540.373 383.802C524.481 399.947 524.481 426.082 540.373 442.188C548.299 450.242 558.703 454.307 569.107 454.307C579.511 454.307 589.914 450.281 597.841 442.188L760.452 276.979C776.305 260.872 776.305 234.738 760.413 218.592Z" fill="black"/>
<path d="M762.93 391.275L657.937 497.906C637.168 519.007 610.149 533.527 580.919 536.314C547.307 539.528 514.915 528.958 489.915 507.199C480.579 499.068 466.173 498.293 455.312 505.456C449.024 509.599 445.213 516.607 443.461 524.041C430.16 581.421 377.761 623.545 316.332 619.133C251.889 614.486 203.222 557.3 203.222 491.637V412.963C203.222 272.304 303.522 154.671 434.768 128.97C442.466 127.46 448.183 120.839 448.183 112.864V82.1985C448.259 68.3765 450.355 54.5922 454.699 41.3897C461.025 22.2243 447.725 1.89719 427.87 0.658214C420.82 0.232314 413.694 0 406.491 0C172.087 0 -16.6316 202.646 1.1632 444.593C16.0253 646.664 176.272 809.545 375.165 824.799C613.385 843.035 813 651.224 813 412.994V412.297C812.962 385.775 781.375 372.497 762.93 391.275Z" fill="black"/>
</svg>
