<svg width="819" height="813" viewBox="0 0 819 813" fill="none" xmlns="http://www.w3.org/2000/svg">
<path d="M750.75 0H68.25C30.6191 0 0 31.4426 0 70.0854V294.359C0 328.202 23.4876 356.514 54.6 363.027V739.681C26.9134 763.989 44.8798 813.744 81.9016 812.99L737.1 812.991C773.892 813.77 792.283 763.995 764.4 739.681V363.027C795.512 356.514 819 328.202 819 294.359V70.0854C819 31.4426 788.381 0 750.75 0ZM737.1 784.957H81.9C64.216 784.676 63.7694 757.296 81.9008 756.923H737.1C754.784 757.202 755.231 784.583 737.1 784.957ZM122.85 560.683V448.547C123.832 411.625 176.456 411.572 177.45 448.548V560.683C176.469 597.604 123.846 597.658 122.85 560.683ZM150.149 686.837C114.164 685.816 114.171 631.784 150.15 630.769C186.136 631.789 186.129 685.822 150.149 686.837ZM386.272 462.564H432.728C450.023 462.564 464.1 448.109 464.1 430.355V364.444H491.4V430.325C491.4 457.237 474.065 479.664 450.45 487.514V504.615C450.45 527.743 432.023 546.666 409.5 546.666C386.977 546.666 368.55 527.743 368.55 504.615V487.514C344.936 479.664 327.6 457.237 327.6 430.325V364.444H354.9V430.355C354.9 448.109 368.977 462.564 386.272 462.564ZM507.917 560.683C514.878 560.683 520.884 563.767 525.253 568.533C550.84 548.468 590.838 569.513 589.816 602.736C590.72 634.703 553.508 656.049 527.573 638.478C519.246 671.699 497.543 699.452 468.741 714.871H491.4C509.295 715.278 509.304 742.596 491.4 742.906H341.25C333.743 742.906 327.6 736.598 327.6 728.888C327.723 721.396 333.607 714.823 341.25 714.871H359.814C322.686 694.687 297.434 654.737 297.434 608.762V584.652C297.434 571.476 307.807 560.683 320.775 560.683H507.917ZM641.55 560.683V448.547C642.532 411.625 695.156 411.572 696.15 448.548V560.683C695.169 597.604 642.546 597.658 641.55 560.683ZM668.849 686.837C632.864 685.816 632.871 631.784 668.85 630.769C704.836 631.789 704.829 685.822 668.849 686.837ZM791.7 294.359C791.7 317.547 773.331 336.41 750.75 336.41C551.235 336.415 265.868 336.406 68.2492 336.41C45.6688 336.41 27.3 317.547 27.3 294.359V70.0854C27.3 46.897 45.6688 28.0342 68.25 28.0342H750.75C773.331 28.0342 791.7 46.897 791.7 70.0854V294.359Z" fill="black"/>
<path d="M409.5 56.0684C341.763 56.0684 286.65 112.664 286.65 182.222C293.403 349.581 525.622 349.532 532.351 182.221C532.35 112.664 477.237 56.0684 409.5 56.0684ZM461.367 134.565L420.417 190.634C409.611 205.248 387.935 188.507 398.583 173.81L439.533 117.742C450.287 103.171 472.035 119.825 461.367 134.565Z" fill="black"/>
<path d="M723.45 224.273H573.3C550.778 224.273 532.35 243.196 532.35 266.325C532.35 289.453 550.778 308.376 573.3 308.376H723.45C777.386 306.86 777.457 225.806 723.45 224.273ZM600.6 280.342H573.3C565.793 280.342 559.65 274.034 559.65 266.325C559.65 258.615 565.793 252.308 573.3 252.308H600.6V280.342ZM723.45 280.342H696.15V252.308H723.45C741.381 252.659 741.379 279.992 723.45 280.342Z" fill="black"/>
<path d="M723.45 126.154C669.452 127.607 669.463 208.81 723.452 210.256C777.448 208.803 777.437 127.599 723.45 126.154Z" fill="black"/>
<path d="M627.9 210.256C681.898 208.803 681.887 127.599 627.899 126.154C573.902 127.607 573.913 208.81 627.9 210.256Z" fill="black"/>
<path d="M245.7 56.0684H95.55C73.028 56.0684 54.6 74.9911 54.6 98.1196C54.6 121.248 73.028 140.171 95.55 140.171H245.7C299.636 138.655 299.707 57.6006 245.7 56.0684ZM122.85 112.137H95.55C88.0426 112.137 81.9 105.829 81.9 98.1196C81.9 90.4103 88.0426 84.1025 95.55 84.1025H122.85V112.137ZM245.7 112.137H218.4V84.1025H245.7C263.631 84.4542 263.629 111.787 245.7 112.137Z" fill="black"/>
<path d="M95.55 154.188C41.5524 155.641 41.5632 236.845 95.5516 238.29C149.548 236.837 149.537 155.633 95.55 154.188Z" fill="black"/>
<path d="M191.1 154.188C137.102 155.641 137.113 236.845 191.102 238.29C245.098 236.837 245.087 155.633 191.1 154.188Z" fill="black"/>
<path d="M548.925 620.756C571.989 620.334 571.985 585.131 548.924 584.713C525.861 585.135 525.865 620.337 548.925 620.756Z" fill="black"/>
</svg>
