<svg width="825" height="638" viewBox="0 0 825 638" fill="none" xmlns="http://www.w3.org/2000/svg">
<path d="M809.768 257.484C756.727 161.334 634.565 0 412.5 0C190.435 0 68.2736 161.297 15.2324 257.484C-5.07746 294.299 -5.07746 343.737 15.2324 380.516C68.2727 476.666 190.435 638 412.5 638C634.565 638 756.726 476.666 809.768 380.516C830.077 343.701 830.077 294.263 809.768 257.484ZM412.5 482.079C329.281 482.079 261.575 408.921 261.575 319.009C261.575 229.098 329.285 155.939 412.5 155.939C495.715 155.939 563.425 229.098 563.425 319.009C563.425 408.921 495.715 482.079 412.5 482.079Z" fill="black"/>
</svg>
