<svg width="826" height="813" viewBox="0 0 826 813" fill="none" xmlns="http://www.w3.org/2000/svg">
<path d="M413 280.485C337.989 280.485 266.385 315.749 221.368 374.742L197.207 406.5L221.368 438.207C266.385 497.251 337.989 532.515 413 532.515C488.011 532.515 559.615 497.251 604.632 438.258L628.793 406.5L604.632 374.793C559.615 315.749 488.011 280.485 413 280.485ZM413 499.995C360.652 499.995 318.01 458.075 318.01 406.5C318.01 354.925 360.652 313.005 413 313.005C465.348 313.005 507.99 354.925 507.99 406.5C507.99 458.075 465.348 499.995 413 499.995Z" fill="black"/>
<path d="M413 0C184.921 0 0 182.01 0 406.5C0 630.99 184.921 813 413 813C641.079 813 826 630.99 826 406.5C826 182.01 641.079 0 413 0ZM671.125 418.695L637.672 462.597C584.911 531.804 500.917 573.165 413 573.165C325.083 573.165 241.089 531.854 188.328 462.597L154.875 418.695C149.351 411.48 149.351 401.52 154.875 394.305L188.328 350.403C241.089 281.196 325.083 239.835 413 239.835C500.917 239.835 584.911 281.146 637.672 350.403L671.125 394.305C676.649 401.52 676.649 411.48 671.125 418.695Z" fill="black"/>
<path d="M413 459.345C442.652 459.345 466.69 435.686 466.69 406.5C466.69 377.315 442.652 353.655 413 353.655C383.348 353.655 359.31 377.315 359.31 406.5C359.31 435.686 383.348 459.345 413 459.345Z" fill="black"/>
</svg>
