<svg width="640" height="650" viewBox="0 0 640 650" fill="none" xmlns="http://www.w3.org/2000/svg">
<path d="M286.653 347.361C288.097 372.068 280.045 395.113 265.827 412.451C304.336 390.327 329.358 355.416 336.832 344.038C328.084 333.744 299.138 302.427 258.387 285.558C274.49 300.892 285.192 322.673 286.653 347.361Z" fill="black"/>
<path d="M275.17 348.12C272.741 306.653 240.211 274.65 201.668 274.65C200.122 274.65 198.576 274.704 197.031 274.794C156.466 277.485 125.533 314.762 128.064 357.891C129.287 378.786 138.086 397.912 152.848 411.765C167.609 425.617 186.601 432.498 206.203 431.216C246.768 428.525 277.701 391.248 275.17 348.12ZM224.311 374.307C219.181 380.719 211.503 384.873 203.519 385.487C195.536 386.119 187.314 383.031 181.505 377.251C175.644 371.526 172.145 363.273 171.89 355.001C171.584 346.711 174.523 338.421 179.755 332.516C184.936 326.574 192.291 322.907 199.816 322.42C207.342 321.842 215.121 324.479 220.897 329.807C226.706 335.044 230.613 342.81 231.242 351.064C231.955 359.263 229.441 367.878 224.311 374.307Z" fill="black"/>
<path d="M215.257 336.579C211.282 332.678 205.813 330.511 200.309 330.836C197.574 331.035 194.89 331.793 192.444 333.094C190.032 334.448 187.892 336.308 186.159 338.512C182.728 342.973 181.114 348.77 181.674 354.333C182.201 359.895 184.851 365.024 188.792 368.438C192.733 371.851 197.761 373.621 202.789 373.332C212.964 373.134 222.086 363.074 221.627 351.678C221.508 346.079 219.266 340.48 215.257 336.579Z" fill="black"/>
<path d="M116.581 358.649C115.137 333.942 123.189 310.897 137.39 293.559C98.8808 315.683 73.8592 350.594 66.385 361.972C75.1332 372.249 104.011 403.511 144.711 420.398C127.996 404.432 117.991 382.543 116.581 358.649Z" fill="black"/>
<path d="M371.791 73.4024C371.502 68.4538 369.413 63.9387 365.93 60.6517C362.72 57.6356 358.66 56.0102 354.413 56.0102C354.04 56.0102 353.666 56.0282 353.309 56.0463L16.3589 78.4232C11.7045 78.7302 7.45777 80.9517 4.36617 84.654C1.27458 88.3564 -0.254237 93.1244 0.034539 98.073L31.4262 632.626C32.0207 642.83 40.3103 650.596 49.9078 649.964L386.858 627.605C391.512 627.298 395.759 625.077 398.834 621.374C401.925 617.654 403.454 612.904 403.165 607.955L371.791 73.4024ZM363.077 461.576C357.556 460.582 352.681 458.578 348.043 456.248C343.406 453.9 339.04 451.137 334.912 448.03C330.768 444.924 326.861 441.492 323.192 437.682C319.556 433.817 316.108 429.663 313.305 424.534C318.792 425.581 323.65 427.604 328.305 429.916C332.942 432.263 337.308 435.009 341.469 438.079C345.631 441.131 349.572 444.563 353.241 448.373C356.876 452.22 360.308 456.392 363.077 461.576ZM290.492 196.268C293.448 190.651 296.522 185.106 299.648 179.616C305.899 168.599 312.49 157.817 319.573 147.36C326.759 136.975 334.165 126.717 342.862 117.343C338.768 129.787 333.384 141.364 327.778 152.814C322.07 164.192 315.87 175.227 309.33 186.045C306.069 191.464 302.739 196.827 299.308 202.137C295.945 207.483 292.445 212.739 288.878 217.958C281.727 228.361 274.337 238.637 266.116 248.336C270.685 236.199 276.104 224.641 281.744 213.226C284.547 207.501 287.451 201.83 290.492 196.268ZM349.13 223.936C346.956 229.409 344.017 233.978 340.824 238.258C337.613 242.52 334.114 246.421 330.343 250.015C326.572 253.61 322.563 256.915 318.248 259.876C313.9 262.802 309.347 265.475 304.064 267.263C306.29 261.845 309.245 257.294 312.405 252.995C315.615 248.733 319.115 244.814 322.852 241.202C326.589 237.572 330.598 234.249 334.895 231.287C339.227 228.343 343.797 225.688 349.13 223.936ZM235.302 201.505C237.867 189.35 240.789 177.304 244.118 165.384C247.413 153.464 251.133 141.671 255.21 129.986C259.287 118.301 263.721 106.724 269.173 95.4903C267.984 108.078 265.793 120.36 263.228 132.514C260.663 144.669 257.741 156.715 254.395 168.635C251.083 180.555 247.362 192.348 243.303 204.034C239.226 215.719 234.792 227.295 229.356 238.547C230.528 225.923 232.737 213.66 235.302 201.505ZM184.155 135.277C184.392 123.881 184.987 112.449 186.821 100.945C189.981 112.124 191.9 123.376 193.48 134.663C195.026 145.951 196.045 157.257 196.674 168.599C197.302 179.941 197.557 191.319 197.37 202.715C197.081 214.111 196.555 225.544 194.822 237.048C191.765 225.869 189.896 214.599 188.282 203.329C186.754 192.041 185.683 180.736 184.987 169.394C184.239 158.034 183.951 146.674 184.155 135.277ZM122.628 138.673C128.149 149.672 133.16 160.905 137.865 172.283C142.554 183.679 146.919 195.202 150.775 206.977C154.682 218.735 158.233 230.655 160.713 243.062C153.816 232.696 147.99 221.841 142.52 210.824C136.999 199.826 131.988 188.592 127.3 177.196C122.645 165.8 118.263 154.259 114.424 142.484C110.517 130.726 106.966 118.806 104.469 106.417C111.332 116.784 117.159 127.638 122.628 138.673ZM33.8892 137.842C43.3509 146.24 51.9292 155.397 60.2018 164.824C68.5253 174.216 76.4072 183.968 84.0343 193.956C91.6444 203.961 98.9997 214.166 105.93 224.749C112.912 235.296 119.588 246.096 125.38 257.655C115.936 249.239 107.357 240.082 99.0846 230.655C90.7611 221.281 82.8792 211.511 75.2351 201.541C67.6081 191.554 60.2528 181.35 53.3222 170.766C46.3406 160.219 39.6817 149.419 33.8892 137.842ZM40.1404 244.453C45.5252 245.645 50.3495 247.722 55.0038 250.034C59.6242 252.399 64.0068 255.145 68.2026 258.161C72.3983 261.177 76.4072 264.482 80.0764 268.293C83.7455 272.103 87.1938 276.257 89.9287 281.477C84.374 280.52 79.5158 278.515 74.8954 276.149C70.258 273.801 65.9773 270.929 61.8665 267.769C57.7727 264.608 53.8487 261.177 50.1626 257.366C46.5274 253.537 43.0451 249.419 40.1404 244.453ZM103.28 526.196C96.8763 537.104 90.1326 547.796 83.0491 558.253C75.9825 568.728 68.6103 578.986 60.3547 588.667C64.8902 576.53 70.3259 564.954 76.0335 553.594C81.7581 542.233 87.8054 531.09 94.1924 520.164C100.528 509.219 107.289 498.545 114.356 488.052C121.405 477.577 128.811 467.319 137.118 457.674C132.634 469.865 127.232 481.442 121.507 492.784C115.766 504.162 109.735 515.323 103.28 526.196ZM54.1035 482.074C56.4477 476.819 59.5053 472.358 62.6479 468.041C65.8414 463.779 69.3407 459.86 73.0099 456.139C76.679 452.437 80.586 449.005 84.8836 446.007C89.1983 443.064 93.7507 440.373 99.1695 438.729C97.0802 444.31 94.1245 448.843 90.9309 453.123C87.7034 457.367 84.1022 461.142 80.2632 464.664C76.4242 468.186 72.4153 471.491 68.1007 474.435C63.7181 477.342 59.2505 480.124 54.1035 482.074ZM168.119 504.577C165.554 516.732 162.632 528.778 159.235 540.68C155.871 552.582 152.168 564.394 148.058 576.061C143.947 587.728 139.513 599.304 134.077 610.556C135.283 597.968 137.475 585.705 140.006 573.532C142.537 561.359 145.459 549.313 148.737 537.393C151.965 525.437 155.685 513.644 159.761 501.959C163.838 490.274 168.323 478.733 173.894 467.517C172.824 480.124 170.667 492.423 168.119 504.577ZM201.481 443.605C200.224 443.642 198.933 443.732 197.676 443.732C114.628 443.732 57.1782 369.594 54.6981 366.325C53.1523 364.302 52.9994 361.466 54.2904 359.245C56.4137 355.597 106.542 271.525 191.748 263.037C193.259 262.856 194.771 262.694 196.3 262.604C197.829 262.495 199.341 262.441 200.853 262.441C286.466 259.551 345.988 336.381 348.519 339.722C350.065 341.744 350.218 344.58 348.927 346.801C346.803 350.45 296.675 434.521 211.469 443.009C209.957 443.19 208.446 443.353 206.917 443.443C205.116 443.533 203.299 443.605 201.481 443.605ZM218.757 570.769C218.468 582.165 217.992 593.597 216.412 605.084C213.508 593.886 211.707 582.635 210.076 571.347C208.531 560.059 207.443 548.753 206.662 537.411C205.881 526.069 205.456 514.727 205.643 503.331C205.864 491.935 206.458 480.503 208.412 468.998C211.69 480.16 213.627 491.429 215.189 502.699C216.701 513.987 217.619 525.311 218.162 536.653C218.723 547.995 218.977 559.373 218.757 570.769ZM280.826 567.247C275.408 556.194 270.329 544.997 265.657 533.601C260.935 522.223 256.654 510.646 252.679 498.924C248.721 487.203 245.12 475.301 242.521 462.948C249.299 473.369 255.074 484.241 260.493 495.294C265.895 506.347 270.991 517.545 275.645 528.959C280.334 540.355 284.631 551.914 288.589 563.653C292.547 575.392 296.149 587.276 298.764 599.63C292.004 589.191 286.245 578.3 280.826 567.247ZM343.202 541.042C334.98 531.578 327.014 521.879 319.42 511.874C311.793 501.886 304.489 491.628 297.49 481.117C290.475 470.606 283.765 459.842 277.871 448.355C287.23 456.844 295.758 466.055 303.996 475.5C312.235 484.946 320.185 494.662 327.812 504.65C335.456 514.601 342.743 524.877 349.776 535.389C356.791 545.9 363.501 556.682 369.379 568.168C359.968 559.698 351.441 550.505 343.202 541.042Z" fill="black"/>
<path d="M623.365 16.1689L286.126 0.0228114C276.512 -0.482881 268.341 7.48178 267.899 17.6859L266.557 49.5446L352.579 43.8375C360.342 43.2956 367.731 46.0408 373.523 51.477C379.316 56.9132 382.764 64.4264 383.257 72.6258L389.287 175.209C412.236 161.14 439.194 154.692 465.439 157.167C494.877 159.641 523.33 173.222 544.581 194.931C549.846 200.403 554.858 206.165 559.189 212.504C560.14 213.696 562.009 216.441 562.366 219.331C562.841 222.257 562.196 225.327 560.769 227.729C559.325 230.131 557.168 232.009 554.603 232.966C552.038 233.942 549.099 233.851 546.67 232.876C545.243 232.316 544.835 232.063 543.969 231.666L541.625 230.655C540.045 230.005 538.465 229.409 536.852 228.903C533.641 227.855 530.346 227.079 527.016 226.555C523.687 226.067 520.323 225.706 516.96 225.887C515.278 225.923 513.597 225.887 511.915 226.031L506.921 226.736C500.33 227.928 493.824 229.878 487.879 233.165C484.787 234.538 482.086 236.669 479.232 238.475C476.616 240.66 473.847 242.665 471.52 245.211C468.989 247.523 466.934 250.323 464.743 252.959C463.74 254.35 462.823 255.849 461.855 257.276C460.853 258.685 460.003 260.202 459.239 261.755C455.807 267.787 453.531 274.469 451.968 281.278L450.983 286.443C450.728 288.177 450.66 289.947 450.491 291.681C449.998 295.167 450.406 298.706 450.355 302.228C450.83 309.218 452.138 316.135 454.466 322.709C459.086 335.857 467.41 347.614 478.179 355.958C488.949 364.338 502.046 369.269 515.584 369.666C522.328 369.847 529.072 368.944 535.578 367.011L538.007 366.234C538.907 365.927 539.383 365.711 540.606 365.331C543.001 364.501 545.94 364.519 548.437 365.638C553.465 367.806 556.607 373.711 555.469 379.527C555.163 380.954 554.654 382.272 553.974 383.482L552.836 385.144L551.902 386.245L548.165 390.562C545.549 393.307 542.967 396.106 540.147 398.617C534.626 403.782 528.698 408.46 522.379 412.505C509.843 420.705 495.913 426.502 481.509 429.861C455.808 435.713 428.374 433.293 403.777 422.637L412.967 579.275L599.074 588.197C608.655 588.649 616.859 580.738 617.301 570.534L639.978 35.5116C640.454 25.3255 632.997 16.6384 623.365 16.1689ZM611.305 105.929V105.965L594.709 497.715C594.573 501.074 591.906 503.693 588.746 503.548H588.712C576.278 502.916 563.776 507.72 554.62 516.678C545.413 525.582 539.773 538.387 539.247 551.589V551.625C539.111 554.966 536.461 557.549 533.318 557.422H533.25C525.046 556.935 516.841 556.284 508.636 555.544C500.432 554.894 492.244 553.937 484.04 553.142C475.835 552.365 467.647 551.246 459.46 550.307C451.272 549.169 443.084 548.067 434.914 546.604C443.169 545.936 451.425 545.611 459.664 545.268C467.902 545.123 476.158 544.762 484.379 544.798C492.618 544.78 500.856 544.617 509.078 544.744C515.482 544.78 521.886 544.888 528.273 545.069C530.176 530.837 536.818 517.31 546.857 507.648C556.777 497.913 569.993 492.098 583.463 491.339L599.567 111.221C586.215 109.18 573.56 102.1 564.489 91.4809C555.333 80.9155 549.846 66.8465 549.15 52.5065C523.585 51.17 498.037 49.382 472.489 47.287C458.797 46.2756 445.14 44.9753 431.465 43.6749C417.791 42.2843 404.134 40.7672 390.493 38.8528C404.253 38.2387 417.978 38.0401 431.72 37.9678C445.446 37.9859 459.171 37.9859 472.879 38.2929C500.313 38.6722 527.747 39.3585 555.146 40.6227C558.306 40.7672 560.769 43.6027 560.633 46.9619V46.998C560.039 60.2002 564.574 73.4927 572.999 83.2453C581.374 93.0341 593.401 99.0302 605.835 99.59C608.978 99.7165 611.441 102.552 611.305 105.929Z" fill="black"/>
<path d="M440.57 284.728L441.759 278.75C443.645 270.893 446.312 263.127 450.423 256.246C451.357 254.476 452.376 252.743 453.565 251.153C454.72 249.528 455.807 247.866 456.997 246.295C459.579 243.297 462.025 240.191 464.98 237.608C467.715 234.772 470.909 232.551 473.966 230.149C477.262 228.144 480.421 225.851 483.955 224.352C490.8 220.812 498.24 218.789 505.698 217.651L511.337 217.019C513.223 216.929 515.108 217.001 516.994 216.965C520.765 216.838 524.536 217.254 528.256 217.85C531.976 218.482 535.662 219.403 539.264 220.595C541.064 221.191 542.831 221.877 544.58 222.618L547.179 223.774C547.944 224.135 549.133 224.749 549.405 224.803C551.103 225.544 552.955 224.857 553.974 223.214C554.433 222.401 554.586 221.534 554.45 220.721C554.263 219.818 554.042 219.313 552.734 217.597C548.657 211.655 543.918 206.273 538.975 201.162C518.981 180.898 492.295 168.184 464.742 166.378C451 165.294 437.105 166.739 423.906 170.748C411.846 174.396 400.38 180.158 389.984 187.544L403.012 409.543C414.173 415.594 426.25 419.802 438.719 421.879C452.291 424.064 466.254 423.703 479.776 420.94C493.314 418.194 506.377 412.794 518.2 405.209C524.145 401.488 529.751 397.118 534.983 392.314C537.65 389.984 540.079 387.365 542.576 384.801L546.109 380.773L546.976 379.78C547.112 379.563 547.264 379.346 547.417 379.148C547.655 378.714 547.825 378.299 547.927 377.847C548.369 376.132 547.196 373.892 545.549 373.296C544.75 372.971 543.901 372.935 542.916 373.278C542.423 373.404 541.251 373.892 540.453 374.181L537.752 375.066C530.532 377.324 522.99 378.425 515.448 378.317C500.415 378.407 485.229 373.368 472.692 364.248C466.407 359.697 460.717 354.188 455.943 347.831C451.221 341.456 447.399 334.304 444.613 326.718C441.861 319.133 440.078 311.078 439.636 302.933C439.687 298.869 439.33 294.805 439.891 290.76C440.146 288.773 440.265 286.732 440.57 284.728Z" fill="black"/>
</svg>
