<svg width="726" height="716" viewBox="0 0 726 716" fill="none" xmlns="http://www.w3.org/2000/svg">
<path d="M363 0C162.831 0 0 160.589 0 358C0 555.411 162.831 716 363 716C563.169 716 726 555.411 726 358C726 160.589 563.169 0 363 0ZM303.624 314.271C313.737 324.244 313.737 340.61 303.624 350.582C298.438 355.441 291.957 357.998 285.214 357.998C278.472 357.998 271.99 355.441 266.805 350.582L233.357 317.339L199.91 350.582C194.724 355.441 188.242 357.998 181.5 357.998C174.758 357.998 168.276 355.441 163.09 350.582C152.978 340.609 152.978 324.243 163.09 314.271L196.797 281.284L163.09 248.297C152.978 238.324 152.978 221.958 163.09 211.986C173.203 202.013 189.797 202.013 199.909 211.986L233.356 245.229L266.804 211.986C276.916 202.013 293.511 202.013 303.622 211.986C313.734 221.959 313.735 238.325 303.622 248.297L269.915 281.284L303.624 314.271ZM562.91 314.271C573.022 324.244 573.022 340.61 562.91 350.582C557.724 355.441 551.242 357.998 544.5 357.998C537.758 357.998 531.276 355.441 526.09 350.582L492.643 317.339L459.195 350.582C454.01 355.441 447.528 357.998 440.786 357.998C434.043 357.998 427.562 355.441 422.376 350.582C412.263 340.609 412.263 324.243 422.376 314.271L456.083 281.284L422.376 248.297C412.263 238.324 412.263 221.958 422.376 211.986C432.489 202.013 449.083 202.013 459.195 211.986L492.642 245.229L526.089 211.986C536.202 202.013 552.796 202.013 562.908 211.986C573.02 221.959 573.021 238.325 562.908 248.297L529.201 281.284L562.91 314.271Z" fill="black"/>
</svg>
