<svg width="820" height="801" viewBox="0 0 820 801" fill="none" xmlns="http://www.w3.org/2000/svg">
<path d="M356.7 400.5C356.7 407.509 358.237 414.117 360.8 420.225L430.192 352.44C423.991 349.937 417.175 348.435 410 348.435C380.634 348.435 356.7 371.814 356.7 400.5Z" fill="black"/>
<path d="M531.924 309.737L489.386 351.239C498.714 365.506 504.3 382.377 504.3 400.5C504.3 451.313 462.019 492.615 410 492.615C391.447 492.615 374.176 487.158 359.57 478.047L327.026 509.786C353.369 519.449 381.402 524.655 410 524.655C484.466 524.655 555.55 489.912 600.24 431.789L624.225 400.5L600.24 369.261C581.585 344.931 558.112 325.056 531.924 309.737Z" fill="black"/>
<path d="M463.3 400.5C463.3 393.491 461.762 386.883 459.2 380.775L389.807 448.56C396.009 451.063 402.825 452.565 410 452.565C439.366 452.565 463.3 429.186 463.3 400.5Z" fill="black"/>
<path d="M315.7 400.5C315.7 349.687 357.981 308.385 410 308.385C428.552 308.385 445.824 313.842 460.43 322.953L492.974 291.164C466.631 281.552 438.597 276.345 410 276.345C335.534 276.345 264.45 311.088 219.76 369.211L195.775 400.5L219.76 431.739C238.415 456.069 261.887 475.944 288.076 491.263L330.562 449.762C321.286 435.494 315.7 418.623 315.7 400.5Z" fill="black"/>
<path d="M410 0C183.577 0 0 179.324 0 400.5C0 621.676 183.577 801 410 801C636.422 801 820 621.676 820 400.5C820 179.324 636.422 0 410 0ZM666.25 412.515L633.04 455.769C580.662 523.954 497.279 564.705 410 564.705C370.23 564.705 331.485 555.894 295.917 540.275L184.602 648.96L155.595 620.625L258.044 520.55C230.881 503.328 206.691 481.551 186.909 455.769L153.75 412.515C148.266 405.406 148.266 395.594 153.75 388.485L186.96 345.231C239.337 277.046 322.721 236.295 410 236.295C449.77 236.295 488.515 245.106 524.082 260.776L635.397 152.09L664.405 180.425L561.956 280.5C589.119 297.722 613.309 319.499 633.091 345.281L666.25 388.485C671.734 395.594 671.734 405.406 666.25 412.515Z" fill="black"/>
</svg>
