<svg width="805" height="627" viewBox="0 0 805 627" fill="none" xmlns="http://www.w3.org/2000/svg">
<path d="M679.53 59.4804L170.439 616.783C164.245 623.563 156.1 627 147.955 627C139.809 627 131.664 623.61 125.47 616.783C113.039 603.175 113.039 581.115 125.47 567.508L634.561 10.2056C646.991 -3.40187 667.142 -3.40187 679.573 10.2056C692.003 23.8131 691.961 45.873 679.53 59.4804ZM243.409 313.517C243.409 217.383 314.682 139.36 402.5 139.36C410.136 139.36 417.773 139.825 424.985 141.218L533.591 22.3269C491.591 7.92996 447.47 0.0348382 402.5 0.0348382C245.955 0.0348382 101.712 92.4541 16.8636 247.106C-5.62121 287.974 -5.62121 339.06 16.8636 379.929C40.6212 423.585 69.4697 462.131 101.712 495.105L245.106 338.132C243.833 330.236 243.409 321.877 243.409 313.517ZM788.136 247.106C764.379 203.45 735.53 164.903 703.288 131.93L559.894 288.903C561.167 296.798 561.591 305.158 561.591 313.517C561.591 409.652 490.318 487.674 402.5 487.674C394.864 487.674 387.227 487.21 380.015 485.817L271.409 604.708C313.409 619.105 357.53 627 402.5 627C559.045 627 703.288 534.581 788.136 379.929C810.621 339.06 810.621 287.974 788.136 247.106Z" fill="black"/>
</svg>
