<svg width="635" height="825" viewBox="0 0 635 825" fill="none" xmlns="http://www.w3.org/2000/svg">
<path d="M633.782 282.326C630.478 228.193 611.438 176.114 578.91 132.074C523.324 55.6254 435.414 7.45258 339.395 0.799001C243.341 -5.88899 149.302 29.6696 83.121 97.6785C43.5085 139.297 16.465 190.685 4.91784 246.236C-3.93766 297.19 -0.804316 349.404 14.0803 398.997C33.529 454.123 68.4069 502.894 114.834 539.807C161.258 576.69 217.357 600.264 276.824 607.845C327.029 614.898 378.293 609.302 425.666 591.555C494.229 566.724 552.543 520.669 591.571 460.476C624.78 406.972 639.562 344.559 633.771 282.312L633.782 282.326ZM601.527 344.075C593.455 404.531 563.822 460.355 517.806 501.743C463.956 550.447 393.859 578.556 320.388 580.973C263.882 580.775 208.605 564.883 161.084 535.151C104.271 500.519 61.8647 447.476 41.3304 385.399C17.5218 306.632 30.7379 221.678 77.4002 153.235C124.369 86.1894 198.557 41.8198 281.323 31.2588C340.111 24.9019 399.515 35.9603 451.727 62.9112C503.976 89.8951 546.621 131.58 574.105 182.498C600.604 232.194 610.209 288.743 601.523 344.065L601.527 344.075Z" fill="black"/>
<path d="M326.455 219.121C327.068 219.717 328.261 220.843 328.84 221.406V221.439C343.827 223.425 358.03 229.12 370.087 238.026C401.218 202.169 408.235 152.038 388.105 109.396C378.637 85.3922 359.188 66.3875 334.528 57.0174C309.46 48.7732 282.79 55.5275 258.165 61.9506C280.985 91.2849 299.82 123.302 314.33 157.271C320.768 177.368 324.855 198.13 326.455 219.121Z" fill="black"/>
<path d="M433.4 117.046C432.923 106.319 432.582 95.6248 432.344 84.9299C416.813 79.4007 402.235 71.5871 386.329 66.9847C394.469 77.149 401.656 88.0422 407.752 99.4644C417.392 103.702 426.077 109.663 433.4 117.046Z" fill="black"/>
<path d="M254.415 92.5506C248.284 84.174 241.2 76.493 233.297 69.6724C221.955 75.1686 210.375 80.2673 199.067 85.7962C213.304 89.2063 227.235 93.7423 240.722 99.3711C245.32 97.0866 249.885 94.802 254.415 92.5506Z" fill="black"/>
<path d="M386.567 253.288C396.343 265.77 402.746 280.404 405.198 295.898C445.73 293.117 482.618 272.126 504.958 239.117C522.499 213.524 532.308 179.123 519.229 149.755C506.593 123.235 480.298 106.648 454.31 93.9669V93.9338C453.05 121.646 447.293 148.994 437.246 174.952C430.979 193.36 422.123 210.809 410.917 226.833C403.288 236.07 395.185 244.911 386.567 253.288Z" fill="black"/>
<path d="M94.8749 179.123C121.476 193.989 153.288 186.639 181.729 195.049C212.656 201.538 241.062 216.47 263.61 238.057C275.054 229.614 288.44 223.985 302.609 221.668C299.646 182.765 277.984 147.471 244.196 126.45C217.561 109.564 184.692 104.83 154.141 113.405C129.005 123.371 108.5 141.978 96.6127 165.684C94.7734 169.955 94.1937 174.588 94.8749 179.123Z" fill="black"/>
<path d="M564.846 230.708C559.328 217.199 553.061 203.989 546.045 191.142C543.763 202.035 539.948 212.696 538.518 223.688C541.345 231.469 545.5 238.719 548.906 246.269C554.083 240.905 559.362 235.74 564.846 230.708Z" fill="black"/>
<path d="M103.219 204.526C96.4414 202.539 89.4592 201.115 82.3747 200.288C76.4481 213.896 71.3393 227.834 67.0816 242.038C77.2999 236.079 87.6883 230.384 97.5657 223.895V223.862C99.0303 217.306 100.903 210.849 103.219 204.526Z" fill="black"/>
<path d="M247.701 254.322C228.286 238.959 204.649 229.523 179.75 227.139C154.852 224.756 129.783 229.556 107.679 240.946C82.0311 253.56 63.1273 276.207 55.6687 303.157C51.2408 327.36 54.0679 352.258 63.7751 374.938C79.1022 364.774 91.6364 351.066 107.202 341.166L107.236 341.2C141.978 314.05 185.031 299.018 229.579 298.423C231.827 282.497 238.028 267.366 247.701 254.322Z" fill="black"/>
<path d="M346.545 250.745C323.214 239.09 294.909 242.865 275.665 260.148C256.421 277.431 250.29 304.547 260.372 328.054C270.454 351.561 294.569 366.46 320.762 365.368C346.92 364.242 369.605 347.356 377.54 323.054C386.226 294.846 373.249 264.584 346.545 250.745ZM337.962 309.48C336.259 316.069 331.354 321.399 324.849 323.75C318.309 326.101 311.02 325.207 305.332 321.333C299.031 317.228 295.522 310.109 296.169 302.759C296.851 295.409 301.585 288.986 308.534 286.039C315.891 282.993 324.372 284.151 330.57 289.085C336.735 294.018 339.597 301.898 337.962 309.48Z" fill="black"/>
<path d="M404.312 320.069C400.837 333.147 394.877 345.464 386.771 356.423C401.485 370.759 419.741 381.222 439.802 386.751C469.401 393.704 500.567 390.459 527.982 377.58C555.98 365.164 575.702 339.869 580.401 310.302C581.287 289.941 579.448 269.578 574.952 249.647C545.558 270.639 514.392 289.147 481.793 305.039C457.099 314.574 430.844 319.672 404.312 320.069Z" fill="black"/>
<path d="M250.631 361.025C241.707 348.542 234.759 334.802 230.092 320.267C198.484 325.035 169.022 338.908 145.554 360.064C123.892 380.592 111.459 408.635 111.051 438.069C111.085 454.789 117.659 470.913 129.41 483.097C144.397 498.36 162.619 510.246 182.817 517.961C182.647 458.861 207.102 402.251 250.631 361.025Z" fill="black"/>
<path d="M442.939 419.568C414.329 410.993 388.987 394.305 370.22 371.659C357.413 380.467 342.597 386.161 327.066 388.247C329.212 430.262 352.406 468.602 389.158 490.881C411.536 504.853 438.58 509.985 464.738 505.151C498.594 496.311 525.23 470.85 534.937 438.105C534.12 436.483 532.451 433.172 531.633 431.55C502.443 424.795 471.721 428.706 442.939 419.568Z" fill="black"/>
<path d="M303.732 388.207C290.857 385.624 278.562 380.757 267.527 373.805C260.306 382.479 253.936 391.783 248.453 401.616C221.987 450.584 234.965 510.912 279.38 545.477C307.105 563.72 343.652 559.979 373.315 548.358C348.416 514.089 321.441 479.425 310.269 438.205C306.863 421.717 304.686 404.993 303.732 388.207Z" fill="black"/>
<path d="M73.6866 395.394C79.1703 405.526 83.9729 416.054 90.0696 425.888C92.7944 416.419 96.507 407.248 101.105 398.474C98.2098 392.315 95.3487 386.091 92.5899 379.9H92.5558C85.9821 384.734 79.6812 389.899 73.6866 395.394Z" fill="black"/>
<path d="M533.543 409.337C539.333 410.695 545.123 412.052 550.88 413.509V413.476C556.568 402.484 561.575 391.161 565.901 379.605C556.125 384.936 546.384 390.332 536.507 395.498C535.451 400.067 534.497 404.669 533.543 409.337Z" fill="black"/>
<path d="M202.813 495.681C202.677 506.408 202.881 517.169 203.154 527.93C218.209 534.916 234.013 540.18 249.408 546.471C241.199 537.1 233.706 527.201 226.996 516.772C218.107 510.713 210 503.627 202.813 495.681Z" fill="black"/>
<path d="M378.703 523.855C384.902 529.384 390.726 535.245 396.243 541.436C410.243 537.297 423.969 532.265 437.32 526.372C423.151 524.087 409.186 520.776 395.494 516.472C389.771 518.591 384.152 521.074 378.703 523.855Z" fill="black"/>
<path d="M449.173 731.023C427.103 730.46 404.997 731.155 382.925 730.891C375.943 698.08 372.128 664.739 365.282 631.858H365.316C333.776 637.785 301.385 637.983 269.812 632.454C263.136 665 259.56 698.043 252.884 730.588C230.37 730.853 207.822 730.158 185.342 730.985H185.308C160.819 732.84 139.293 747.507 129.21 769.259C124.101 782.734 122.466 797.203 124.408 811.44C126.315 822.896 139.633 826.042 149.783 824.717C150.022 813.957 149.511 803.196 150.124 792.469C151.929 773.332 166.814 757.837 186.33 754.758C243.483 753.996 300.738 754.261 357.929 754.427C365.252 754.228 374.006 762.903 368.726 769.657L368.692 769.624C365.627 774.027 360.348 776.411 354.932 775.848C302.513 776.047 250.063 775.882 197.676 775.915C187.356 774.723 177.581 780.583 174.107 790.085C173.221 801.541 172.983 813.03 173.357 824.519C278.942 824.717 384.534 824.717 490.118 824.585C499.076 825.38 510.52 820.38 510.691 810.48L510.725 810.447C513.11 794.025 510.078 777.239 502.074 762.572C491.005 744.097 471.142 732.249 449.173 731.023ZM310.683 700.993C311.534 710.197 308.809 719.402 303.053 726.785C296.139 733.804 285.41 731.189 276.52 731.784C283.094 717.349 286.057 701.622 285.137 685.862C285.41 678.479 283.809 668.546 291.472 663.977H291.506C294.742 661.792 298.898 661.262 302.61 662.587C306.322 663.911 309.149 666.924 310.171 670.632C310.989 680.73 311.194 690.862 310.683 700.993Z" fill="black"/>
</svg>
