<svg width="814" height="829" viewBox="0 0 814 829" fill="none" xmlns="http://www.w3.org/2000/svg">
<path fill-rule="evenodd" clip-rule="evenodd" d="M788.416 373.651C804.709 462.758 782.04 523.512 718.284 628.82C718.284 628.82 676.489 709.151 661.613 732.778C551.103 905.591 407.298 819.184 459.011 680.799C488.764 591.692 543.311 572.791 509.308 442.506C467.512 361.5 488.764 312.896 524.184 276.443C609.191 206.238 760.788 270.368 788.416 373.651Z" fill="black"/>
<path fill-rule="evenodd" clip-rule="evenodd" d="M537.643 125.232C561.02 150.209 566.688 194.762 549.686 224.465C532.685 254.167 499.39 257.542 476.013 232.565C452.636 207.588 446.969 163.035 463.97 133.333C480.972 104.306 514.266 100.255 537.643 125.232Z" fill="black"/>
<path fill-rule="evenodd" clip-rule="evenodd" d="M645.319 141.433C660.904 163.035 660.196 198.138 643.903 219.739C627.61 241.341 601.399 240.666 585.814 219.064C570.23 197.463 570.938 162.36 587.231 140.758C603.524 119.832 629.735 119.832 645.319 141.433Z" fill="black"/>
<path fill-rule="evenodd" clip-rule="evenodd" d="M726.077 176.536C735.994 194.087 733.161 221.089 718.993 236.615C704.825 251.467 684.99 249.441 674.364 231.89C664.446 214.339 667.28 187.337 681.448 171.811C695.616 156.284 716.159 158.985 726.077 176.536Z" fill="black"/>
<path fill-rule="evenodd" clip-rule="evenodd" d="M785.582 219.064C792.666 234.59 787.707 256.867 774.956 268.343C762.205 279.819 745.203 276.443 738.828 260.917C731.744 245.391 736.703 223.114 749.454 211.639C762.205 200.163 778.498 203.538 785.582 219.064Z" fill="black"/>
<path fill-rule="evenodd" clip-rule="evenodd" d="M813.209 276.443C816.043 287.244 811.084 300.745 801.167 306.821C791.957 312.896 781.332 309.521 778.498 298.72C775.664 287.919 780.623 274.418 790.541 268.343C799.75 262.267 810.376 265.643 813.209 276.443Z" fill="black"/>
<path fill-rule="evenodd" clip-rule="evenodd" d="M29.015 274.418C15.5555 364.2 41.0578 423.605 108.355 526.887C108.355 526.887 152.984 605.868 169.277 628.82C286.163 797.583 426.425 706.451 369.753 570.091C336.459 481.659 281.204 464.783 310.248 333.148C349.21 250.792 325.833 202.863 288.996 167.76C201.864 100.93 52.3921 170.46 29.015 274.418Z" fill="black"/>
<path fill-rule="evenodd" clip-rule="evenodd" d="M269.87 17.899C247.909 44.226 244.367 88.1043 262.077 117.131C279.787 146.159 313.082 148.184 335.751 122.532C358.419 96.8799 361.961 52.3266 344.251 23.2994C325.833 -5.7278 292.538 -7.75295 269.87 17.899Z" fill="black"/>
<path fill-rule="evenodd" clip-rule="evenodd" d="M162.902 37.4755C148.026 59.7521 150.151 94.8548 167.152 115.781C184.154 136.708 210.364 135.358 225.241 113.081C240.117 90.8045 237.992 55.7018 220.99 34.7753C203.989 14.5237 177.778 15.1988 162.902 37.4755Z" fill="black"/>
<path fill-rule="evenodd" clip-rule="evenodd" d="M83.5615 75.2783C74.3524 93.5047 78.6028 119.832 92.7707 134.683C107.647 149.534 127.482 146.159 136.691 128.607C145.9 110.381 141.65 84.054 127.482 69.2028C113.314 54.3517 92.7707 57.0519 83.5615 75.2783Z" fill="black"/>
<path fill-rule="evenodd" clip-rule="evenodd" d="M26.1815 119.832C19.8059 135.358 25.4731 157.635 38.9326 168.435C52.3921 179.236 68.6852 175.861 75.0608 159.66C81.4363 144.133 75.7692 121.857 62.3096 111.056C48.8501 100.255 32.557 104.305 26.1815 119.832Z" fill="black"/>
<path fill-rule="evenodd" clip-rule="evenodd" d="M0.6792 177.886C-2.15438 188.687 4.22118 202.188 13.4303 208.263C23.3479 214.339 33.2654 210.289 35.3906 199.488C38.2242 188.687 31.8486 175.186 22.6395 169.11C13.4303 163.71 2.80439 167.76 0.6792 177.886Z" fill="black"/>
</svg>
