<svg width="791" height="831" viewBox="0 0 791 831" fill="none" xmlns="http://www.w3.org/2000/svg">
<path d="M553.798 0H237.205C197.521 0.368746 164.292 31.1393 155.233 72.4382L155.269 72.4792C169.903 64.9403 186.115 60.6383 203.242 60.4747L587.719 60.5156C604.847 60.6386 621.1 64.8995 635.733 72.4382C626.638 31.0974 593.446 0.368159 553.798 0ZM563.114 237.552V237.593H563.151C572.246 237.593 579.618 245.828 579.618 256.03C579.618 266.191 572.21 274.467 563.114 274.467H227.893C218.797 274.467 211.388 266.191 211.388 256.03C211.388 245.828 218.76 237.593 227.856 237.593H227.893L563.114 237.552ZM409.582 361.866V361.907H409.619C418.715 361.907 426.087 370.183 426.087 380.344C426.087 390.505 418.678 398.781 409.582 398.781H227.883C218.788 398.781 211.379 390.505 211.379 380.344C211.379 370.142 218.751 361.907 227.847 361.907H227.883L409.582 361.866ZM587.46 96.3297H203.528C156.986 96.7804 119.356 138.982 119.135 191.057C119.135 191.303 119.172 510.317 119.172 510.317L219.889 510.276C247.58 510.276 270.026 535.391 270.026 566.284V566.53V572.348C270.062 583.574 278.168 592.711 288.18 592.957H502.807C512.82 592.711 520.889 583.574 520.962 572.389V566.325V566.284C520.962 536.333 542.088 511.751 568.715 510.358L671.845 510.317V191.057C671.625 138.982 634.003 96.7797 587.46 96.3297ZM714.101 363.964V364.005C705.042 364.005 697.67 372.281 697.67 382.401C697.67 384.777 698.22 386.949 698.734 389.038L738.564 555.182C728.698 550.593 717.916 548.012 706.583 547.889L567.107 548.422C559.918 550.429 554.601 557.681 554.601 566.326V572.513C554.454 604.349 531.495 630.161 503.033 630.529H287.965C259.505 630.16 236.545 604.348 236.398 572.513V566.326C236.398 556.124 228.989 547.848 219.894 547.848V547.889H84.4082C73.1121 548.012 62.292 550.593 52.4635 555.182H52.4268L92.2575 389.038C92.771 386.949 93.3211 384.777 93.3211 382.401C93.3211 372.24 85.9125 363.963 76.8168 363.963C68.748 363.963 62.55 370.683 60.5689 378.959L1.18994 627C0.456412 632.081 0.0162996 637.284 0.0162996 642.611C-0.0203745 646.216 0.0162996 734.347 0.0162996 736.314C0.199689 788.348 37.8659 830.55 84.4089 831H706.591C753.133 830.549 790.801 788.348 790.984 736.314C790.984 734.347 791.02 646.217 790.984 642.611C790.984 637.284 790.544 632.081 789.81 627L730.431 378.959C728.451 370.724 722.326 364.004 714.293 363.963L714.101 363.964Z" fill="black"/>
</svg>
