<svg width="774" height="786" viewBox="0 0 774 786" fill="none" xmlns="http://www.w3.org/2000/svg">
<path fill-rule="evenodd" clip-rule="evenodd" d="M387 0C341.199 0 304.071 37.7041 304.071 84.2143C304.071 92.5571 305.266 100.616 307.491 108.225L73.1565 281.293C31.9618 286.202 0 321.774 0 364.929V701.786C0 748.297 37.1285 786 82.9286 786H691.071C736.873 786 774 748.297 774 701.786V364.929C774 321.774 742.037 286.202 700.84 281.293L466.509 108.226C468.734 100.617 469.929 92.5574 469.929 84.2143C469.929 37.7041 432.801 0 387 0ZM340.021 153.621C353.375 162.961 369.56 168.429 387 168.429C404.44 168.429 420.625 162.961 433.979 153.622L606.064 280.714H167.936L340.021 153.621Z" fill="black"/>
</svg>
