<svg width="821" height="720" viewBox="0 0 821 720" fill="none" xmlns="http://www.w3.org/2000/svg">
<path fill-rule="evenodd" clip-rule="evenodd" d="M87.9643 0C39.7308 0 0 40.6502 0 90V630C0 679.35 39.7308 720 87.9643 720H733.036C772.217 720 805.79 693.187 817.005 656.662C819.571 648.225 821 639.262 821 630V90C821 40.6502 781.269 0 733.036 0H87.9643ZM87.9643 60H146.607V150H58.6429V90C58.6429 87.9 58.8628 85.8375 59.2293 83.8501C61.9049 70.0126 73.4866 60 87.9643 60ZM205.25 60H293.214V150H205.25V60ZM351.857 60H469.143V150H351.857V60ZM527.786 60H615.75V150H527.786V60ZM674.393 60H733.036C749.566 60 762.357 73.0877 762.357 90V150H674.393V60ZM352.186 240.077C357.39 240.114 362.449 241.577 366.92 244.277L513.527 334.277C522.36 339.714 527.747 349.464 527.747 360.002C527.747 370.54 522.36 380.29 513.527 385.727L366.92 475.727C357.867 481.277 346.577 481.39 337.415 476.102C328.216 470.777 322.535 460.802 322.535 450.002V270.002C322.535 259.202 328.253 249.226 337.415 243.939C341.923 241.314 347.018 240.002 352.186 240.077ZM58.6429 570H146.607V660H87.9643C71.4345 660 58.6429 646.912 58.6429 630V570ZM205.25 570H293.214V660H205.25V570ZM351.857 570H469.143V660H351.857V570ZM527.786 570H615.75V660H527.786V570ZM674.393 570H762.357V630C762.357 646.912 749.566 660 733.036 660H674.393V570Z" fill="black"/>
</svg>
