<svg width="778" height="740" viewBox="0 0 778 740" fill="none" xmlns="http://www.w3.org/2000/svg">
<path d="M79.5443 172.964C82.2286 174.672 85.8076 175.526 88.4918 175.526C92.9656 175.526 98.3341 173.818 101.018 169.548C153.808 100.377 230.757 53.4082 319.337 36.3288C397.18 20.9574 475.918 31.205 547.498 64.5098C555.55 67.9257 564.498 65.3638 568.077 57.6781C571.656 49.9924 568.972 41.4527 560.919 38.0368C483.971 2.17004 398.075 -8.93157 313.074 7.29386C217.336 26.0812 133.229 77.3194 75.9653 152.469C71.4916 158.447 72.3864 167.84 79.5443 172.964Z" fill="black"/>
<path d="M771.185 296.79C771.185 295.936 770.29 295.082 770.29 294.228C749.711 201.999 694.236 120.872 612.814 67.0717C605.656 61.9479 595.814 63.6558 591.34 70.4876C585.972 77.3194 587.761 86.713 594.919 90.9829C670.078 141.367 721.973 216.516 739.868 302.767V303.621C745.237 327.533 747.026 352.298 747.026 377.063C747.026 385.602 754.184 392.434 762.237 392.434C771.185 392.434 777.448 385.603 777.448 377.917C779.237 350.59 776.553 323.263 771.185 296.79Z" fill="black"/>
<path d="M43.7544 452.212C42.8597 447.088 41.0702 442.819 40.1754 437.695C40.1754 436.841 40.1754 436.841 39.2807 435.987C23.1752 359.983 34.8069 283.98 71.4916 214.809C75.0706 207.123 72.3864 198.583 64.3336 194.313C56.2809 190.897 47.3334 193.459 42.8597 201.145C2.596 276.294 -9.93047 359.983 7.9645 443.673C7.9645 443.673 7.9645 444.527 8.85924 444.527C9.75399 449.65 10.6487 453.92 12.4382 459.044C14.2277 465.876 20.491 470.146 27.649 470.146C28.5437 470.146 30.3332 470.146 31.2279 469.292C40.1754 468.438 45.5439 459.898 43.7544 452.212Z" fill="black"/>
<path d="M405.233 367.669C403.443 359.983 395.39 354.006 386.443 355.714C378.39 357.421 372.127 365.107 373.916 373.647C398.969 492.349 364.969 613.613 280.863 704.987C275.494 710.965 275.494 720.359 282.652 726.337C285.336 728.898 288.915 729.752 293.389 729.752C297.863 729.752 302.337 728.044 305.021 724.629C396.285 625.568 432.075 495.765 405.233 367.669Z" fill="black"/>
<path d="M331.863 564.936C323.811 561.52 314.863 565.79 311.284 573.476C293.389 616.174 267.441 655.457 233.441 687.908C227.178 693.886 227.178 703.279 233.441 709.257C236.125 711.819 240.599 713.527 244.178 713.527C248.652 713.527 252.231 711.819 255.81 709.257C292.494 673.39 321.126 631.546 339.916 584.577C344.39 576.038 339.916 567.498 331.863 564.936Z" fill="black"/>
<path d="M453.549 371.085L450.865 358.275C447.286 342.904 438.338 329.24 424.022 320.701C409.706 312.161 393.601 308.745 377.495 312.161C343.495 318.993 322.021 350.59 328.284 382.187L330.074 391.58C338.127 435.133 337.232 478.685 327.39 521.384C325.6 529.069 330.969 537.609 339.021 539.317C347.074 541.025 356.022 535.901 357.811 528.215C368.548 478.685 369.443 427.447 358.706 377.063L357.811 373.647C356.916 359.129 367.653 345.466 382.864 342.05C390.917 340.342 398.969 342.05 406.127 346.32C412.391 350.59 416.864 355.714 418.654 362.545L419.549 365.107C445.496 488.079 414.18 616.174 332.758 715.235C327.39 722.067 328.284 731.46 335.442 736.584C338.127 738.292 341.706 740 345.285 740C349.758 740 354.232 738.292 357.811 734.022C441.917 630.692 476.812 499.18 453.549 371.085Z" fill="black"/>
<path d="M317.547 406.098C316.653 397.558 308.6 392.434 299.652 393.288C290.705 394.142 285.336 401.828 286.231 410.368C299.652 505.158 263.862 600.803 190.493 666.559C184.23 672.536 184.23 681.93 189.598 687.908C192.283 691.324 196.756 693.032 201.23 693.032C204.809 693.032 209.283 691.324 211.967 688.762C293.389 616.174 332.758 510.282 317.547 406.098Z" fill="black"/>
<path d="M496.497 349.736C491.129 322.409 474.128 299.352 449.97 283.98C425.812 268.609 396.285 263.485 367.653 268.609C324.705 277.148 291.6 308.745 282.652 349.736C280.863 357.422 286.231 365.961 295.179 367.669C303.231 369.377 312.179 364.253 313.968 355.714C320.232 326.679 344.39 303.621 374.811 298.498C395.39 294.228 415.97 298.498 432.97 309.599C449.075 319.847 460.707 335.218 465.181 353.152L466.076 357.422C472.339 388.164 475.918 419.761 475.918 450.504C475.918 459.044 483.076 465.022 492.023 465.022C500.971 465.022 507.234 458.19 507.234 449.65C507.234 420.615 504.55 391.58 499.181 363.399L496.497 349.736Z" fill="black"/>
<path d="M490.234 489.787C481.286 488.933 474.128 494.911 473.234 502.596C464.286 578.6 434.759 652.895 389.127 716.943C384.653 723.775 386.443 733.168 393.601 737.438C396.285 739.146 398.969 740 402.548 740C407.917 740 412.391 737.438 415.075 733.168C463.391 665.705 494.707 586.285 504.55 505.158C504.55 498.327 498.286 491.495 490.234 489.787Z" fill="black"/>
<path d="M268.336 394.142L266.547 388.164C262.073 359.129 268.336 330.095 286.231 305.329C305.021 278.856 332.758 260.923 364.969 254.945C376.601 252.383 388.232 252.383 398.969 253.237C407.917 254.091 415.075 248.113 415.97 239.574C416.864 231.034 410.601 224.202 401.654 223.348C387.338 222.494 373.022 223.348 358.706 225.91C317.547 233.596 282.652 256.653 259.389 289.104C236.125 322.409 228.073 361.691 236.125 400.974L237.915 408.66C253.125 494.911 220.02 583.724 150.229 641.794C143.966 646.917 143.071 656.311 148.44 663.143C151.124 666.559 155.598 668.267 160.072 668.267C163.651 668.267 167.23 667.413 169.914 664.851C252.231 596.533 288.915 493.203 268.336 394.142Z" fill="black"/>
<path d="M544.813 353.152L542.129 341.196C533.182 298.498 505.444 261.777 465.181 240.428C458.023 236.158 448.181 238.72 443.707 246.405C439.233 253.237 441.917 262.631 449.97 266.901C480.392 283.126 502.76 311.307 510.813 343.758L511.708 347.174C538.55 472.707 515.287 602.511 448.181 712.673C443.707 719.505 446.391 728.898 453.549 733.168C456.233 734.876 458.918 734.876 461.602 734.876C466.97 734.876 472.339 732.314 475.023 727.191C543.919 614.466 568.972 482.101 544.813 353.152Z" fill="black"/>
<path d="M211.072 535.047C214.651 527.362 210.178 518.822 202.125 515.406C194.072 511.99 185.125 516.26 181.546 523.946C168.124 557.25 145.756 587.139 116.229 610.197C109.966 615.32 108.176 624.714 114.44 631.546C117.124 634.962 121.598 636.67 126.966 636.67C130.545 636.67 134.124 635.816 136.808 633.254C169.019 607.635 194.967 573.476 211.072 535.047Z" fill="black"/>
<path d="M587.761 331.802C577.024 281.418 546.603 237.866 501.865 208.831C457.128 179.796 402.548 170.402 349.758 180.65C240.599 201.999 169.019 303.621 191.388 407.806L193.177 414.638C196.756 433.425 196.756 452.212 194.967 471C194.072 479.539 200.335 486.371 209.283 487.225C218.23 488.079 225.388 482.101 226.283 473.561C228.967 449.65 228.073 424.885 222.704 400.974L220.915 394.996C206.599 308.745 265.652 226.764 356.022 208.831C400.759 200.291 446.391 208.831 483.971 232.742C520.655 256.653 546.603 291.666 556.445 333.51L557.34 336.926C571.656 404.39 572.551 472.708 560.919 540.171C559.129 548.711 565.393 556.397 573.445 557.251C574.34 557.251 575.235 557.251 576.13 557.251C583.288 557.251 590.446 552.127 591.34 544.441C602.972 476.977 602.077 408.66 589.551 340.342L587.761 331.802Z" fill="black"/>
<path d="M568.077 584.577C560.024 582.016 551.077 587.139 549.287 594.825C539.445 629.838 526.024 663.143 509.918 695.594C506.339 703.279 509.023 711.819 517.076 715.235C518.866 716.089 521.55 716.943 524.234 716.943C529.603 716.943 535.866 713.527 538.55 708.403C555.55 674.244 569.866 638.378 580.603 601.657C581.498 594.825 577.024 586.285 568.077 584.577Z" fill="black"/>
<path d="M633.393 323.263C626.235 289.104 611.919 258.361 590.446 230.18C585.077 223.348 575.235 221.64 568.972 226.764C561.814 231.888 560.024 241.282 565.393 247.259C584.182 271.171 596.709 298.498 602.972 328.387C627.13 441.111 616.393 558.104 573.445 665.705C570.761 673.39 574.34 681.93 582.393 685.346C585.077 686.2 586.866 686.2 588.656 686.2C594.919 686.2 601.183 682.784 602.972 676.806C648.604 564.082 659.341 441.965 633.393 323.263Z" fill="black"/>
<path d="M340.811 137.951C322.021 141.367 303.231 147.345 286.231 155.031C278.178 158.446 274.599 166.986 278.178 174.672C281.757 182.358 290.705 185.774 298.758 182.358C313.968 175.526 330.074 170.402 346.179 167.84C410.601 155.885 475.918 171.256 526.918 210.539C529.603 213.101 533.182 213.955 536.761 213.955C541.234 213.955 545.708 212.247 549.287 208.831C554.656 202.853 553.761 192.605 547.498 187.481C489.339 141.367 414.18 123.434 340.811 137.951Z" fill="black"/>
<path d="M177.072 411.222L175.282 405.244C161.861 330.948 191.388 256.653 253.125 208.831C260.283 203.707 261.178 194.313 255.81 187.482C250.441 180.65 240.599 179.796 233.441 184.92C160.966 240.428 127.861 329.241 146.65 416.346L147.545 422.323C157.387 480.393 134.124 539.317 85.8076 576.038C78.6496 581.162 77.7549 590.555 83.1233 597.387C85.8076 600.803 91.1761 603.365 95.6498 603.365C99.2288 603.365 102.808 602.511 105.492 599.949C164.545 554.689 192.283 482.101 177.072 411.222Z" fill="black"/>
<path d="M131.44 419.761L129.65 413.784C127.861 402.682 126.071 391.58 126.071 380.479C126.071 371.939 118.913 365.961 109.966 365.961C101.018 365.961 94.7551 373.647 94.7551 381.333C95.6498 395.85 97.4393 411.222 100.124 425.739L101.018 430.009C108.176 471 92.0708 512.844 58.0704 539.317C51.8072 544.441 50.9124 553.835 56.2809 560.666C58.9651 564.082 63.4389 565.79 67.9126 565.79C71.4916 565.79 75.0706 564.936 77.7549 562.374C122.492 528.216 142.177 473.561 131.44 419.761Z" fill="black"/>
<path d="M648.604 320.701L649.499 326.679C651.288 336.072 653.078 345.466 654.867 354.86C655.762 362.545 662.92 367.669 670.078 367.669C670.973 367.669 671.868 367.669 672.762 367.669C681.71 366.815 687.078 359.129 686.184 350.59C684.394 338.634 682.605 326.679 679.92 315.577L677.236 304.475C659.341 235.304 616.393 176.38 553.761 136.243C488.444 94.3988 409.706 79.8813 331.863 94.3988C211.072 117.456 119.808 207.123 99.2288 322.409C97.4393 330.948 103.703 338.634 111.755 339.488C120.703 341.196 128.756 335.218 129.65 327.533C148.44 224.202 229.862 143.929 338.127 123.434C407.022 109.77 477.707 123.434 536.761 160.154C594.919 197.729 635.183 254.945 648.604 320.701Z" fill="black"/>
<path d="M675.447 393.288C666.499 394.142 660.236 400.974 661.131 409.514C665.604 479.539 658.446 549.565 639.657 617.882C637.867 625.568 642.341 634.108 650.394 635.816C652.183 635.816 653.078 636.67 654.867 636.67C662.025 636.67 668.289 632.4 670.078 625.568C689.763 554.689 697.815 481.247 692.447 407.806C691.552 399.266 684.394 392.434 675.447 393.288Z" fill="black"/>
<path d="M85.8076 429.155L84.9128 423.177C70.5969 347.174 87.5971 271.171 132.334 206.269C177.967 140.513 248.652 95.2528 330.074 79.8813C364.074 73.0495 398.969 72.1956 432.97 76.4654C441.917 77.3194 449.075 72.1956 450.865 63.6559C451.76 55.1162 446.391 48.2844 437.444 46.5765C399.864 41.4526 361.39 43.1606 323.811 49.9923C234.336 67.0717 157.387 116.602 106.387 189.189C56.2809 261.777 38.3859 348.882 56.2809 434.279L57.1756 437.695C60.7546 459.898 53.5966 482.955 37.4912 499.181C31.2279 505.158 32.1227 514.552 38.3859 520.53C41.0702 523.092 45.5439 524.8 49.1229 524.8C53.5966 524.8 57.1756 523.092 60.7546 519.676C82.2286 495.765 92.0708 461.606 85.8076 429.155Z" fill="black"/>
<path d="M721.974 292.52C694.236 183.212 607.446 94.3988 493.813 59.386C485.76 56.8241 476.813 61.094 474.128 68.7797C471.444 76.4654 475.918 85.0051 483.971 87.567C591.34 120.018 671.868 206.269 694.236 311.307L696.026 318.993C710.342 390.726 713.026 463.314 703.184 535.901C702.289 544.441 708.552 551.273 716.605 552.981C717.5 552.981 717.5 552.981 718.395 552.981C726.447 552.981 732.711 547.857 733.605 540.171C743.448 462.46 740.763 383.895 724.658 306.183L721.974 292.52Z" fill="black"/>
</svg>
