<svg width="777" height="769" viewBox="0 0 777 769" fill="none" xmlns="http://www.w3.org/2000/svg">
<path d="M388.5 0C174.259 0 0 172.465 0 384.5C0 596.535 174.259 769 388.5 769C602.741 769 777 596.535 777 384.5C777 172.465 602.741 0 388.5 0ZM267.532 597.601C264.194 599.789 259.771 600.905 256.432 600.905C248.671 600.905 240.91 596.528 237.571 589.919C200.932 527.31 180.943 455.905 180.943 383.377C180.943 268.027 274.166 173.528 388.502 173.528H389.63C503.971 173.528 596.112 268.023 596.112 383.377C596.112 395.479 586.139 405.348 573.912 405.348C561.684 405.348 551.712 395.478 551.712 383.377C551.712 292.187 478.434 217.471 388.553 217.471C298.625 217.471 226.471 292.182 226.471 383.377C226.471 448.175 244.248 513.019 276.421 567.948C281.927 577.861 278.632 591.036 267.532 597.601ZM572.782 578.934C570.571 589.92 561.682 597.601 550.582 597.601H547.244C441.794 580.049 366.302 489.975 366.302 382.303C366.302 370.201 376.275 360.331 388.502 360.331C400.73 360.331 410.702 370.201 410.702 382.303C410.702 468 470.625 540.475 553.87 553.702C566.098 555.891 573.867 567.948 572.782 578.934ZM573.866 498.729C510.605 498.729 459.525 447.105 459.525 383.379C459.525 343.813 428.436 311.972 389.586 311.972C350.736 311.972 319.647 343.813 319.647 383.379C319.647 492.12 384.036 589.922 482.806 630.558C493.906 634.935 499.456 648.153 495.034 659.138C491.695 667.936 482.806 672.313 475.045 672.313C471.706 672.313 469.495 671.197 466.156 670.124C350.739 621.804 275.248 508.645 275.248 382.309C275.248 318.583 326.325 266.959 389.589 266.959C397.35 266.959 405.111 268.075 412.916 269.148C465.078 280.134 505.055 326.265 505.055 382.312C505.055 421.878 536.144 453.719 574.994 453.719C613.844 453.719 644.933 421.878 644.933 382.312C644.933 239.497 530.592 123.027 389.633 123.027C248.674 123.027 134.333 239.497 134.333 382.312C134.333 399.906 135.46 416.385 137.672 431.747C138.799 443.849 129.91 454.835 117.683 455.907H115.472C104.372 455.907 94.3993 447.11 93.2715 436.124C91.0602 418.529 89.9328 399.862 89.9328 381.195C89.9328 214.224 224.265 77.9678 389.633 77.9678C555.001 77.9678 689.333 214.169 689.333 381.195C688.206 446.036 637.124 498.729 573.866 498.729Z" fill="black"/>
</svg>
