<svg width="803" height="802" viewBox="0 0 803 802" fill="none" xmlns="http://www.w3.org/2000/svg">
<path d="M775.326 -2.22847e-06H27.6746C12.4029 -2.22847e-06 0 12.3885 0 27.6403V138.271C0 153.56 12.4038 165.912 27.6746 165.912H55.3491V636.052L27.6746 636.088C12.4029 636.088 0 648.44 0 663.728V774.359C0 789.612 12.4038 801.999 27.6746 801.999H775.29C790.597 801.999 803 789.611 803 774.359V663.728C803 648.439 790.596 636.088 775.326 636.088H747.651L747.615 165.911H775.29C790.597 165.911 803 153.558 803 138.27V27.6395C803 12.3867 790.597 -2.22847e-06 775.326 -2.22847e-06ZM581.496 636.087H470.939C505.999 613.531 529.658 574.182 532.061 527.39C538.334 405.476 445.273 339.565 395.193 321.765C384.008 317.79 371.426 321.407 364.077 330.787C356.728 340.167 356.226 353.2 362.822 363.118C374.473 380.662 378.739 408.015 373.182 429.641C370.852 438.664 365.798 450.587 354.9 456.673C354.9 455.849 354.971 454.883 355.079 453.88C356.226 441.993 349.63 430.715 338.66 425.917C327.727 421.119 314.929 423.876 306.935 432.72C303.207 436.837 270.657 474.467 270.657 525.991C270.657 572.392 295.213 612.958 331.814 636.127L221.505 636.091V456.323C221.505 357.222 302.235 276.554 401.496 276.554C500.719 276.554 581.487 357.185 581.487 456.323L581.496 636.087Z" fill="black"/>
</svg>
