<svg width="408" height="832" viewBox="0 0 408 832" fill="none" xmlns="http://www.w3.org/2000/svg">
<path fill-rule="evenodd" clip-rule="evenodd" d="M204.002 778.579C192.538 778.614 181.871 777.227 171.912 774.488C171.735 790.296 174.037 807.144 181.428 819C186.209 826.661 193.158 832.069 203.914 831.999H204.091C214.846 832.069 221.796 826.661 226.532 819C233.924 807.144 236.27 790.296 236.092 774.488C226.133 777.227 215.465 778.613 204.002 778.579H204.136C209.049 778.544 204.267 778.406 204.002 778.579ZM204.002 778.579C203.47 778.544 200.903 778.579 204.002 778.579ZM204.002 778.579C204.09 778.406 203.825 778.44 204.002 778.579ZM203.957 764.47C200.416 764.505 207.587 764.505 204.046 764.47C229.408 764.574 249.946 755.977 266.942 740.654C285.046 724.291 299.076 700.51 310.541 671.217C365.824 529.569 358.211 262.185 406.766 56.125C414.734 22.1866 382.953 5.58126 344.755 0L225.734 605.241C257.646 612.625 280.928 635.713 280.928 663.065C280.928 696.345 246.448 723.35 204.001 723.35C161.553 723.35 127.073 696.345 127.073 663.065C127.073 635.713 150.355 612.625 182.268 605.241L63.2008 0C25.0469 5.58135 -6.7333 22.1866 1.23357 56.125C49.7441 262.185 42.1761 529.569 97.4592 671.217C108.879 700.51 122.954 724.292 141.058 740.654C158.054 755.977 178.595 764.574 203.957 764.47ZM204.002 616.929C236.534 616.929 262.914 637.625 262.914 663.07C262.914 688.55 236.534 709.211 204.002 709.211C171.469 709.211 145.089 688.55 145.089 663.07C145.089 637.625 171.469 616.929 204.002 616.929ZM204.002 631.454C181.738 631.454 163.635 645.633 163.635 663.07C163.635 680.543 181.738 694.686 204.002 694.686C226.265 694.686 244.369 680.542 244.369 663.07C244.369 645.633 226.265 631.454 204.002 631.454ZM204.002 645.599C216.306 645.599 226.354 653.433 226.354 663.071C226.354 672.743 216.307 680.578 204.002 680.578C191.653 680.578 181.649 672.743 181.649 663.071C181.649 653.434 191.652 645.599 204.002 645.599ZM253.221 372.739L319.438 35.9911L306.867 34.3618C303.769 33.9458 300.582 34.5351 298.059 35.9565C295.492 37.4124 293.81 39.5965 293.323 42.0231C281.771 101.13 242.157 304.002 231.356 359.469C230.426 364.045 234.012 368.413 239.677 369.695L253.221 372.739ZM88.5245 35.9911L154.785 372.739L168.329 369.688C173.995 368.406 177.536 364.038 176.651 359.462C165.806 303.996 126.192 101.13 114.683 42.0165C114.196 39.5898 112.514 37.4059 109.947 35.9499C107.424 34.5285 104.237 33.9393 101.139 34.3552L88.5245 35.9911Z" fill="black"/>
</svg>
