<svg width="782" height="666" viewBox="0 0 782 666" fill="none" xmlns="http://www.w3.org/2000/svg">
<path d="M740.105 0H41.8928C18.7823 0.0801257 0.0697096 21.5528 0 48.0724V425.596H781.998V48.0724C781.928 21.5528 763.216 0.0799924 740.105 0ZM75.264 276.579C69.7132 276.499 64.7209 272.653 62.5563 266.804C60.3569 260.915 61.4042 254.145 65.2095 249.498L203.878 82.6832C209.219 76.4338 217.947 76.2335 223.498 82.2826C229.013 88.3317 229.293 98.3468 224.126 104.796L85.3235 271.611C82.7402 274.816 79.0692 276.619 75.264 276.579ZM243.675 205.272L172.597 290.841C167.256 297.091 158.528 297.251 153.012 291.202C147.462 285.153 147.182 275.178 152.349 268.728L223.567 183.159C228.909 176.909 237.636 176.749 243.152 182.798C248.633 188.847 248.877 198.862 243.675 205.272Z" fill="black"/>
<path d="M0.0044693 511.326C0.0742861 537.846 18.7867 559.318 41.8972 559.398H104.073L45.2138 639.88H45.2487C40.4659 646.65 41.3038 656.585 47.1339 662.194C52.9639 667.802 61.6219 667.041 66.6141 660.471L140.52 559.399H200.426L221.512 628.823C224.131 637.035 232.021 641.281 239.212 638.397C246.404 635.553 250.244 626.58 247.87 618.287L229.996 559.399H551.974C551.974 559.399 534.134 618.207 534.134 618.287C531.935 626.54 535.775 635.272 542.897 638.117C549.984 640.961 557.769 636.835 560.492 628.823L581.579 559.399H641.485L715.39 660.472C720.383 667.081 729.075 667.883 734.906 662.234C740.736 656.626 741.573 646.651 736.756 639.88L677.897 559.399H740.107C763.218 559.319 781.93 537.846 782 511.327V457.645H0.00175043L0.0044693 511.326Z" fill="black"/>
</svg>
