<svg width="784" height="811" viewBox="0 0 784 811" fill="none" xmlns="http://www.w3.org/2000/svg">
<path d="M750.102 45.3077C679.67 -1.46722 603.713 -3.75527 552.386 2.57132C513.738 7.3161 476.102 19.2286 440.485 37.9723C382.153 68.662 272.209 117.052 191.34 96.3228C182.816 94.1354 173.894 96.1882 167.465 101.841C161.072 107.461 158.363 115.639 160.242 123.681C162.12 131.825 163.817 140.069 165.298 148.348C129.649 136.806 103.246 136.335 86.5232 138.353C73.2314 139.935 63.1186 150.602 63.0095 163.187C62.3955 239.508 42.1329 314.383 2.79944 385.755C-1.24587 393.057 -0.884708 401.604 3.73851 408.57C8.32558 415.536 16.3081 419.675 25.0849 419.675C85.7646 419.305 150.633 457.196 200.259 494.818C104.724 504.005 60.6559 534.795 42.4589 553.169C33.3569 562.355 32.9961 576.59 41.5559 586.282C93.7475 645.103 129.903 714.623 148.972 792.861C151.356 803.394 161.938 811.1 173.388 810.999C179.239 810.999 184.946 809.081 189.569 805.413C253.464 754.802 375.071 755.374 441.859 760.186C482.637 763.147 522.151 759.109 559.353 748.207C608.727 733.736 676.524 701.735 719.141 631.607C726.112 559.763 694.435 488.957 632.275 414.656C634.153 393.388 634.659 370.91 633.828 347.085C633.612 340.523 630.18 334.533 624.438 330.663C618.695 326.793 611.507 325.649 604.681 327.534C547.504 343.349 494.63 336.249 454.935 324.438C460.75 321.342 466.601 318.145 472.38 314.881C529.664 290.181 642.283 275.105 725.464 325.043C731.496 328.51 738.756 329.149 745.401 326.793C752.011 324.471 756.959 319.491 759.019 313.199C793.585 204.611 793.801 116.139 750.097 45.3003L750.102 45.3077ZM702.317 625.047C641.384 718.327 539.2 749.081 443.231 743.361C281.169 731.617 207.41 769.138 177.868 792.525C173.533 795.789 167.827 793.77 166.562 789.059C146.841 708.229 109.422 636.381 55.4197 575.51C52.5664 572.28 52.6747 567.569 55.6726 564.54C73.1539 546.873 117.652 516.521 219.649 510.093C231.569 519.818 241.79 528.938 252.879 538.966C210.872 539.336 174.284 543.778 143.947 552.225C138.962 553.504 136.109 558.989 138.167 563.431C143.983 576.858 138.854 592.438 125.959 600.514C121.914 603.038 120.758 608.119 123.359 611.955C142.502 640.458 158.9 671.047 172.083 702.917C173.853 707.157 178.873 709.311 183.461 707.83C199.57 702.615 217.123 709.547 224.348 723.949C225.648 727.685 229.079 730.646 233.341 730.545C290.77 713.82 359.907 707.023 444.308 713.316C516.33 718.666 589.329 697.5 640.148 651.331C643.868 648.033 643.687 641.976 639.678 638.947C635.488 635.616 632.346 631.409 630.323 626.463C624.833 613.07 630.179 597.657 642.965 589.817C647.408 587.091 652.248 585.442 657.413 584.87C659.941 584.601 662.217 583.322 663.698 581.404C665.178 579.486 665.72 577.063 665.178 574.741C658.099 544.22 643.362 511.982 621.078 480.316C624.581 467.091 627.362 453.261 629.457 438.791C680.421 502.829 704.296 563.936 702.345 625.014L702.317 625.047ZM361.169 602.064C406.932 617.711 453.957 622.759 498.895 616.264C504.818 667.717 448.256 708.604 395.917 690.228C356.656 677.845 334.876 633.863 350.047 598.06C353.731 599.44 357.415 600.786 361.171 602.031L361.169 602.064ZM609.815 343.659C612.885 342.918 615.522 344.668 615.775 347.596C616.642 371.724 616.064 394.404 614.041 415.739C611.513 440.775 607.287 464.13 600.93 485.43C588.577 525.912 569.687 560.035 542.417 588.608C470.793 613.543 389.379 601.664 326.43 568.922C311.116 561.014 296.451 551.659 282.545 541.025C263.872 526.622 247.221 509.629 228.656 495.024C171.733 446.87 87.3979 400.97 25.1231 402.822C19.0552 402.822 16.7435 397.135 18.8746 393.399C59.5081 319.636 80.4577 242.203 81.0717 163.259C81.1078 159.086 84.4307 155.519 88.8372 155.014C129.038 149.226 190.151 171.368 235.19 200.544C268.311 220.903 306.416 251.694 336.901 280.836C340.729 284.302 344.125 288.205 348.423 291.2C372.55 308.631 400.182 322.966 429.835 333.97H429.871C473.647 349.988 538.443 363.415 609.853 343.661L609.815 343.659ZM490.407 241.558C446.234 244.654 407.839 211.339 408.056 170.049C412.282 74.9524 557.737 74.9524 561.963 170.049C561.963 199.359 542.964 224.597 515.875 235.703C506.665 237.52 498.172 239.505 490.407 241.558ZM741.762 308.288C740.751 311.047 737.717 312.124 734.935 310.677C646.516 256.936 522.739 273.56 464.264 299.842C453.682 305.663 443.062 311.519 432.588 316.836C419.044 311.687 406.98 306.034 396.65 300.65C413.083 292.809 430.132 283.992 447.289 274.267C453.971 271.07 463.434 266.628 493.413 258.216C503.309 257.408 512.809 255.187 521.586 251.755C565.832 242.534 625.571 241.862 671.295 253.403C675.882 254.48 680.614 252.091 682.095 247.885C687.043 233.381 703.441 224.363 719.478 227.19C724.39 228.132 729.519 224.7 730.061 220.056C735.479 182.636 734.431 148.312 726.954 118.024C725.907 113.313 720.2 110.318 715.324 111.9C710.412 113.414 705.248 113.818 700.01 113.077C678.772 110.553 665.553 87.839 674.763 69.8697C676.966 65.5624 674.438 59.9766 669.562 58.4622C646.157 50.7224 620.838 46.785 594.254 46.785C548.744 46.8187 505.293 57.7549 463.935 79.3932C391.661 117.284 325.636 139.729 267.661 146.089C262.279 146.628 258.956 151.474 259.751 156.319C259.751 168.232 252.418 178.899 241.113 184.048C222.007 172.472 204.561 163.454 184.767 155.411C182.853 143.633 180.541 131.755 177.833 120.111C177.074 116.881 178.988 114.794 179.819 114.054C180.686 113.314 183.034 111.631 186.501 112.54C204.958 117.251 236.417 121.322 281.49 113.819C331.442 105.507 387.898 84.9121 449.294 52.6072C533.596 9.63473 640.326 -2.74882 737.774 57.8231C773.676 124.283 774.94 206.253 741.675 308.285L741.762 308.288Z" fill="black"/>
<path d="M387.364 349.109C379.815 343.658 371.291 339.25 361.937 336.086C335.281 320.776 327.371 314.146 321.809 309.469C266.078 255.359 212.978 217.766 164.869 198.418C162.557 197.475 159.885 197.509 157.573 198.485C155.261 199.461 153.492 201.278 152.697 203.533C147.893 217.296 133.156 226.18 117.77 224.665C112.93 224.194 108.56 227.357 107.874 231.866C102.89 265.147 94.3297 298.395 82.4462 330.737C80.857 335.044 83.2408 339.722 87.7918 341.337C103.721 346.99 112.425 362.84 107.982 378.218C105.924 382.727 107.693 388.178 112.786 390.03C167.001 410.153 224.539 447.774 283.845 501.787C331.703 545.533 394.294 571.815 459.999 572.185C465.562 572.185 471.124 571.983 476.65 571.58C481.779 571.277 485.788 566.532 484.849 561.821C483.946 556.74 484.416 551.658 486.294 546.645C491.351 533.117 506.015 524.469 521.257 526.151C526.53 526.723 531.371 528.372 535.74 530.997C537.871 532.276 540.472 532.679 542.928 532.107C545.384 531.502 547.479 529.987 548.635 527.901C564.238 500.475 574.785 467.565 579.986 430.108C580.708 425.497 576.771 420.921 571.751 420.651C555.425 419.507 542.134 406.854 541.374 391.644C541.122 387.236 537.221 383.77 532.489 383.702C485.137 383.803 427.56 368.728 387.403 349.177L387.364 349.109ZM377.432 363.242C419.005 393.326 414.995 456.729 367.86 481.323C309.094 513.224 237.291 461.873 255.062 400.662C266.295 360.381 313.611 337.835 354.499 351.464C361.397 355.301 369.091 359.271 377.471 363.242H377.432Z" fill="black"/>
</svg>
