<svg width="826" height="809" viewBox="0 0 826 809" fill="none" xmlns="http://www.w3.org/2000/svg">
<path d="M525.097 452.884C526.595 468.285 520.452 483.177 509.278 493.808C538.343 523.845 572.9 536.406 591.061 541.175C591.061 541.03 591.214 541.03 591.214 541.03C587.528 502.983 569.636 476.039 552.588 458.563C543.988 458.163 533.89 454.048 525.135 452.883L525.097 452.884Z" fill="black"/>
<path d="M413.978 809C414.669 809 439.933 808.854 474.604 804.594L484.587 757.481C461.089 758.792 437.475 759.411 414.016 759.411C390.518 759.411 366.904 758.755 343.445 757.481L353.427 804.594C388.098 808.854 413.363 809 414.054 809H413.978Z" fill="black"/>
<path d="M364.143 177.523C357.462 174.938 344.331 179.343 333.964 187.754C329.856 190.995 323.713 190.74 319.912 187.099C307.087 174.283 293.419 168.603 283.59 171.698C274.451 174.538 268.308 185.024 265.966 201.335C265.275 206.651 260.245 210.401 254.639 209.746C250.8 209.236 247.267 209.09 244.004 209.09C231.295 209.09 223.27 212.331 221.197 218.266C217.665 228.751 229.107 248.959 249.034 259.298C273.722 274.699 294.993 278.74 317.762 272.66C326.554 291.52 330.893 312.309 330.317 332.99C330.202 337.469 333.888 341.182 338.61 341.291H338.841C343.448 341.291 347.249 337.833 347.364 333.427C348.017 310.125 343.064 286.606 333.043 265.379C345.906 256.713 358.96 242.768 362.992 226.566C363.53 224.236 370.21 199.005 369.558 189.283C369.289 182.803 367.369 178.943 364.106 177.487L364.143 177.523Z" fill="black"/>
<path d="M85.926 448.485C81.549 448.885 77.5942 450.669 74.4455 453.8C70.3371 458.06 68.8397 463.776 70.3371 469.347C71.8345 475.573 76.9028 480.234 83.4297 481.654C108.003 486.824 157.417 496.545 219.005 504.81C223.651 491.339 229.257 479.033 234.977 468.438C233.749 467.673 232.52 466.872 231.445 466.108C223.919 471.278 212.592 477.904 198.118 477.904C189.095 477.904 180.379 475.319 171.893 470.404C165.904 466.908 161.373 463.013 158.11 459.153C142.675 456.969 128.354 454.748 115.375 452.673C106.083 452.017 96.1392 450.597 85.8873 448.522L85.926 448.485Z" fill="black"/>
<path d="M243.882 729.01L233.785 680.076C199.536 676.18 165.248 671.156 131.383 665.075C137.949 682.697 146.281 699.627 156.494 715.029C185.444 720.599 214.509 725.26 243.882 729.01Z" fill="black"/>
<path d="M311.576 448.988C308.428 456.234 302.553 463.479 291.764 470.105C283.164 475.275 274.141 477.86 264.887 477.86C260.779 477.86 257.093 477.351 253.561 476.55C240.852 499.997 228.182 532.328 228.45 568.082C249.184 566.261 300.135 555.921 334.115 499.087C327.165 486.126 327.549 470.87 334.652 456.233C326.205 455.578 318.527 452.993 311.576 448.988Z" fill="black"/>
<path d="M124.702 644.219C140.137 647.059 155.687 649.644 171.238 651.975L160.986 602.386C144.86 600.056 128.773 597.471 112.8 594.631C115.526 610.687 119.366 627.507 124.396 644.219C124.396 644.219 124.549 644.074 124.665 644.219H124.702Z" fill="black"/>
<path d="M110.077 574.417C178.459 586.832 247.843 594.988 317.454 598.884H317.608C346.29 600.558 374.932 601.469 403.767 601.614V538.299C380 538.044 356.118 537.134 332.237 535.459C288.158 584.902 232.715 587.888 220.429 587.888H218.125C212.942 587.633 208.718 583.737 208.449 578.822C207.067 559.416 209.256 540.775 213.518 523.662C169.439 517.691 131.62 510.992 104.855 505.785C105.009 519.766 105.815 544.743 109.77 574.38H110.192L110.077 574.417Z" fill="black"/>
<path d="M696.303 665.042C679.102 668.137 661.901 671.013 644.547 673.452C644.393 673.598 644.124 673.598 643.855 673.598C627.345 676.074 610.682 678.258 594.171 680.079L584.074 729.012C613.293 725.371 642.512 720.711 671.309 715.031C681.406 699.885 689.585 682.81 696.304 665.078L696.303 665.042Z" fill="black"/>
<path d="M572.632 750.093C572.209 750.093 571.825 750.239 571.25 750.239H570.827C549.249 752.715 527.556 754.754 505.708 756.21L496.148 801.648C548.827 793.347 614.256 775.762 652.453 738.333C625.96 742.993 599.352 746.889 572.59 750.129L572.632 750.093Z" fill="black"/>
<path d="M703.4 644.219C708.315 627.507 712.154 610.833 714.996 594.631C699.023 597.471 683.051 600.056 666.925 602.386L656.827 651.975C672.262 649.644 687.812 647.059 703.248 644.219H703.4Z" fill="black"/>
<path d="M757.579 469.307C759.077 463.627 757.579 458.057 753.471 453.76C749.362 449.61 743.641 447.789 737.652 448.7C729.857 449.865 721.141 451.285 711.696 452.705C710.314 458.02 707.588 463.045 703.518 467.45C695.34 476.516 684.013 481.431 671.573 481.431C663.51 481.431 655.332 479.356 647.96 475.351C643.583 487.657 632.794 493.738 628.993 495.921C623.003 499.417 615.631 501.237 607.952 501.237C606.186 501.237 604.42 501.092 602.615 500.837C603.153 502.257 603.69 503.822 604.266 505.351C667.734 496.941 719.072 486.855 744.49 481.394C751.056 480.084 756.086 475.314 757.583 469.234L757.579 469.307Z" fill="black"/>
<path d="M718.262 574.417C722.37 545.69 723.599 520.968 723.983 505.531C695.992 511.102 655.869 518.093 609.177 524.318C610.943 533.384 612.172 542.959 612.326 553.3C612.326 556.14 611.097 558.87 608.908 560.691C607.68 561.71 606.029 562.366 604.531 562.766L600.577 591.493C639.894 587.087 679.057 581.517 717.84 574.417L718.262 574.417Z" fill="black"/>
<path d="M588.712 612.361H588.29C565.906 614.546 543.521 616.512 520.982 617.932L510.73 667.776C552.351 665.191 594.011 661.041 635.247 655.215L645.499 605.626C626.916 608.102 608.217 610.286 589.519 612.216C589.25 612.216 588.981 612.361 588.712 612.361Z" fill="black"/>
<path d="M182.449 605.622L192.701 655.211C233.938 661.037 275.559 665.187 317.218 667.773L306.966 617.929C265.345 615.198 223.84 611.193 182.449 605.622Z" fill="black"/>
<path d="M403.726 739.757V690.168C354.157 689.913 304.47 687.328 255.215 682.267L265.313 731.601C311.196 736.662 357.459 739.356 403.726 739.757Z" fill="black"/>
<path d="M93.8386 429.583C101.479 430.748 110.234 432.168 119.372 433.588C130.43 434.243 140.682 433.842 149.551 432.677C149.82 426.451 151.317 421.026 152.431 417.021C152.584 416.512 152.699 416.002 152.853 415.347C135.92 406.171 125.976 388.695 127.204 371.182C109.197 361.097 83.2411 352.942 53.6383 364.046C21.6932 376.098 6.68095 386.583 0 392.772C30.4481 412.178 60.7419 423.575 87.9257 429.291C89.8455 429.291 91.8804 429.145 93.9154 429.546L93.8386 429.583Z" fill="black"/>
<path d="M322.251 756.17C300.403 754.75 278.71 752.675 257.132 750.199H256.71C256.172 750.199 255.75 750.054 255.328 749.944C228.565 746.85 201.804 742.954 175.465 738.293C213.707 775.722 279.095 793.307 331.77 801.609L322.209 756.171L322.251 756.17Z" fill="black"/>
<path d="M328.129 619.091L338.226 668.935C388.755 671.411 439.242 671.411 489.774 668.935L499.872 619.091C471.344 620.511 442.662 621.275 414.019 621.275C385.337 621.275 356.695 620.511 328.166 619.091H328.129Z" fill="black"/>
<path d="M446.886 329.497C476.374 270.332 464.356 223.325 456.447 203.267C448.652 209.747 435.828 221.763 418.626 242.37C407.031 256.496 401.003 275.757 398.008 292.469H398.161C413.443 292.469 426.843 298.294 435.981 308.78C441.702 315.37 445.004 322.36 446.886 329.497Z" fill="black"/>
<path d="M221.766 106.35C269.416 59.4922 334.115 35.7897 413.978 35.7897C493.84 35.7897 558.537 59.4922 606.189 106.35C669.541 168.501 691.12 258.063 698.185 322.292C698.991 329.938 699.682 337.184 700.105 344.028C700.258 346.613 700.373 349.089 700.527 351.419C701.064 351.018 701.487 350.654 702.178 350.399C704.213 349.635 706.286 348.834 708.475 348.215C717.229 345.229 727.173 343.045 737.963 342.244C737.156 329.573 735.659 312.716 732.51 293.456C722.95 231.851 697.955 145.089 633.677 81.8105C578.656 27.5613 504.825 0 414.013 0C323.246 0 249.373 27.5613 194.349 81.8105C112.297 162.602 94.1392 282.858 90.1781 339.947C102.733 340.857 115.289 344.098 127.575 349.669C130.302 297.494 145.314 181.495 221.759 106.417L221.766 106.35Z" fill="black"/>
<path d="M722.793 366.416C727.286 377.813 726.211 389.572 719.799 399.439C715.69 405.775 709.701 411.236 701.522 415.605C704.402 418.846 706.705 422.195 708.472 425.69C732.776 425.435 758.847 421.03 781.231 413.384C797.05 408.068 811.794 400.823 826 391.757C783.535 359.645 747.634 357.97 721.829 364.45C722.252 365.106 722.521 365.761 722.789 366.38L722.793 366.416Z" fill="black"/>
<path d="M491.226 504.912C485.083 507.243 478.671 508.408 472.258 508.408C458.205 508.408 444.537 502.728 433.21 492.242C429.524 501.817 423.803 511.903 414.089 519.039C442.079 519.039 471.989 517.874 503.243 515.689C499.404 512.194 495.718 508.553 491.917 504.694C491.648 504.839 491.494 504.839 491.226 504.948L491.226 504.912Z" fill="black"/>
<path d="M424.23 601.615C453.026 601.469 481.708 600.595 510.389 598.884H510.543C533.619 597.573 556.694 595.789 579.616 593.568L584.377 559.526C570.171 555.776 548.746 548.13 526.362 533.384C490.462 536.37 456.328 538.045 424.226 538.3L424.23 601.615Z" fill="black"/>
<path d="M572.74 682.267C523.44 687.327 473.759 689.912 424.23 690.167V739.756C470.496 739.356 516.802 736.661 562.645 731.601L572.74 682.267Z" fill="black"/>
<path d="M371.623 317.734C344.44 339.325 374.964 373.658 372.737 377.809C369.588 383.634 337.72 359.167 312.763 382.069C299.094 394.63 299.132 414.4 310.881 427.616C331.039 450.263 359.336 435.48 365.21 436.063C367.975 436.318 369.549 439.886 367.361 442.034L361.87 447.35C348.585 460.275 341.251 478.516 349.89 493.006C358.798 507.934 376.421 516.453 394.621 510.883C426.989 500.944 418.772 445.82 431.058 463.224L436.472 470.906C448.682 488.201 466.727 496.756 484.927 489.912C499.978 484.268 510.882 469.086 507.581 451.682C501.514 419.788 460.93 423.865 467.112 412.833C467.918 411.414 511.919 411.778 513.992 378.135C514.991 362.115 503.395 345.112 484.12 342.527C463.809 339.797 448.221 350.064 435.051 365.975C431.749 346.714 433.822 331.786 422.764 319.043C409.94 304.225 385.443 306.701 371.621 317.696L371.623 317.734Z" fill="black"/>
<path d="M503.247 233.195C496.566 235.38 491.651 239.531 489.463 244.592C487.16 250.162 487.428 255.587 490.27 260.502C494.762 267.893 505.436 273.719 521.946 277.724C508.854 284.86 499.408 291.851 496.567 300.771C494.916 306.087 495.761 311.658 499.025 317.083C504.208 325.639 513.769 328.224 525.249 324.474C532.775 321.998 540.684 316.828 548.325 309.728C548.056 316.064 548.594 322.399 550.629 328.515C557.041 325.02 564.835 323.09 573.013 323.09C579.31 323.09 585.568 324.11 591.175 326.331C592.25 326.731 593.363 327.241 594.323 327.641C594.323 327.496 594.477 327.241 594.592 327.132C594.592 326.476 594.438 325.821 594.323 325.056L589.677 303.575C595.129 306.815 600.197 309.801 606.341 311.876C615.095 304.631 626.805 299.715 637.326 299.715C638.401 299.715 639.514 299.715 640.589 299.861C642.778 294.181 642.24 288.72 639.092 283.695C633.102 274.374 619.28 269.059 607.147 266.219C621.737 257.553 630.223 248.743 632.142 239.932C633.525 234.106 631.874 228.281 627.497 223.366C621.353 216.23 613.021 214.191 603.461 217.286C595.552 220.016 587.066 226.352 579.156 233.597C578.734 218.196 576.008 202.904 560.458 195.659C557.463 194.239 554.046 194.093 550.629 195.258C541.491 198.244 533.428 209.64 533.159 216.885C532.891 226.351 534.925 233.342 537.383 240.042C530.548 236.037 523.868 232.287 513.885 231.74C510.468 231.595 506.782 232.141 503.25 233.306L503.247 233.195Z" fill="black"/>
<path d="M647.501 319.664C644.929 317.151 641.435 315.841 637.365 315.841C626.653 315.841 613.791 324.906 610.719 332.334C606.688 342.164 606.15 350.101 606.035 358.111C600.468 351.448 595.054 345.222 584.802 341.253C581.193 339.87 577.123 339.142 573.014 339.142C565.22 339.142 558.386 341.727 554.239 346.205C549.631 351.193 547.788 357.019 548.94 363.099C550.706 372.419 559.575 382.177 575.318 392.153C558.923 394.993 546.291 399.035 539.84 407.445C536.039 412.396 534.81 418.404 536.116 425.249C538.189 435.989 547.174 442.143 560.689 442.143C569.366 442.143 579.771 439.521 590.483 434.825C585.262 447.276 582.996 460.42 589.6 475.166C592.403 481.392 599.238 485.142 607.915 485.142C612.292 485.142 616.554 484.122 620.24 481.974C623.849 479.935 631.336 475.675 632.642 466.828L636.174 442.689C641.972 449.68 647.462 456.269 656.485 461.294C661.285 463.952 666.506 465.372 671.536 465.372C678.908 465.372 685.665 462.423 690.465 457.034C695.111 451.864 696.8 445.674 695.418 439.194C692.846 427.325 680.444 416.984 668.849 409.702C687.508 405.733 699.718 399.471 705.171 391.024C708.818 385.344 709.394 378.791 706.783 372.055C703.059 362.48 695.188 357.418 684.015 357.418C674.608 357.418 663.358 361.132 652.223 365.975C657.79 349.772 660.862 332.842 647.462 319.699L647.501 319.664Z" fill="black"/>
<path d="M194.736 341.698C189.284 344.428 154.344 333.797 145.052 366.82C141.366 380.291 149.007 396.602 165.248 403.338C183.41 410.729 148.585 437.38 180.952 456.678C207.715 472.479 225.99 446.047 232.556 446.702C236.396 446.957 256.169 472.479 282.663 456.423C292.645 450.343 296.331 443.862 297.253 437.528C279.784 417.066 281.281 388.594 300.939 370.462C305.7 366.202 310.922 362.707 316.489 360.377C309.808 346.797 294.22 339.916 277.44 343.665C260.392 347.415 271.835 307.548 232.786 306.783C201.109 306.019 199.19 339.551 194.698 341.736L194.736 341.698Z" fill="black"/>
</svg>
