<svg width="810" height="800" viewBox="0 0 810 800" fill="none" xmlns="http://www.w3.org/2000/svg">
<path d="M738.377 420.13C713.334 408.764 690.329 402.705 667.536 400C690.329 397.295 713.333 391.236 738.377 379.87C784.456 359.055 810.485 330.332 809.992 296.337C807.213 258.267 771.441 231.427 736.829 213.556C738.201 175.418 732.222 131.872 699.72 110.507C669.752 93.0815 631.165 100.682 589.594 129.097C566.906 144.537 549.987 160.935 536.164 178.841C545.168 158.231 551.359 135.773 553.751 108.932C558.288 59.6682 545.731 23.3793 515.235 6.81235C479.99 -9.85972 438.238 6.84658 405 27.0795C371.76 6.84653 330.008 -9.85972 294.765 6.81235C264.269 23.3819 251.712 59.6708 256.25 108.932C258.641 135.773 264.797 158.197 273.837 178.841C260.013 160.935 243.094 144.537 220.407 129.097C178.83 100.648 140.28 93.0815 110.28 110.507C77.8134 131.87 71.7992 175.452 73.1706 213.556C38.5586 231.462 2.82181 258.302 0.00785777 296.337C-0.519752 330.332 25.5441 359.055 71.6227 379.87C96.6664 391.236 119.671 397.295 142.464 400C119.672 402.705 96.6674 408.764 71.6227 420.13C25.5441 440.945 -0.484696 469.668 0.00785777 503.663C2.7866 541.733 38.5586 568.573 73.1706 586.444C71.7989 624.582 77.7785 668.128 110.28 689.493C140.248 706.918 178.835 699.318 220.407 670.903C243.094 655.463 260.013 639.065 273.837 621.159C264.832 641.769 258.641 664.227 256.25 691.068C251.712 740.332 264.269 776.621 294.765 793.188C330.01 809.86 371.762 793.153 405 772.921C438.24 793.153 479.992 809.86 515.235 793.188C545.731 776.618 558.288 740.329 553.751 691.068C551.359 664.227 545.203 641.803 536.164 621.159C549.987 639.065 566.906 655.463 589.594 670.903C631.17 699.352 669.72 706.918 699.72 689.493C732.187 668.13 738.201 624.548 736.829 586.444C771.441 568.538 807.178 541.698 809.992 503.663C810.52 469.668 784.456 440.945 738.377 420.13ZM498.908 240.877C499.963 239.473 500.877 238.07 501.898 236.666C501.159 238.207 500.42 239.747 499.682 241.322C492.858 267.033 473.512 296.098 449.593 324.924C463.241 290.313 479.421 259.501 498.908 240.877ZM311.143 240.877C330.63 259.467 346.809 290.312 360.458 324.924C336.503 296.097 317.158 267.066 310.369 241.321C309.631 239.746 308.892 238.206 308.153 236.665C309.173 238.069 310.123 239.473 311.143 240.877ZM216.522 400.446C214.834 400.275 213.18 400.138 211.527 400.001C213.18 399.864 214.834 399.727 216.522 399.556C242.833 392.435 278.359 394.215 315.96 400.001C278.359 405.787 242.833 407.567 216.522 400.446ZM311.143 559.121C310.123 560.525 309.173 561.929 308.153 563.332C308.892 561.792 309.63 560.251 310.369 558.676C317.193 532.966 336.538 503.9 360.457 475.074C346.81 509.685 330.63 540.497 311.143 559.121ZM498.908 559.121C479.421 540.532 463.241 509.686 449.593 475.075C473.547 503.901 492.893 532.932 499.681 558.677C500.42 560.252 501.159 561.792 501.897 563.333C500.877 561.929 499.928 560.525 498.908 559.121ZM494.089 399.999C531.69 394.213 567.216 392.433 593.527 399.554C595.215 399.725 596.869 399.828 598.522 399.999C596.869 400.136 595.215 400.273 593.527 400.444C567.216 407.565 531.69 405.785 494.089 399.999Z" fill="black"/>
</svg>
