<svg width="660" height="827" viewBox="0 0 660 827" fill="none" xmlns="http://www.w3.org/2000/svg">
<path d="M546.65 140.9C484.734 50.0338 407.742 0 330 0C252.258 0 175.266 50.0338 113.35 141.727C43.4154 243.862 0 388.794 0 519.77C0 688.891 147.997 827 330 827C512.003 827 660 688.891 660 519.77C660 388.174 616.585 243.242 546.65 140.9ZM303.052 519.873C296.315 519.77 290.755 525.042 290.755 531.658V546.13C290.755 557.812 281.024 567.322 268.94 567.322C256.856 567.322 247.019 557.812 247.019 546.13V531.658C247.019 526.799 244.131 522.458 239.533 520.597C238.037 520.08 236.432 519.77 234.828 519.77C231.513 519.459 228.305 520.494 225.739 522.561L215.045 532.795C206.384 540.858 192.803 540.858 184.248 532.795C184.141 532.692 184.034 532.692 184.034 532.588C175.586 524.422 175.693 511.086 184.248 503.023L194.835 492.582C197.08 490.411 198.364 487.517 198.364 484.416C198.364 477.903 192.91 472.527 186.173 472.527H171.095C168.957 472.838 166.818 472.838 164.572 472.527C152.702 470.77 144.469 460.019 146.286 448.441C147.997 436.966 159.226 429.006 171.095 430.764H186.601C189.809 430.661 192.91 429.524 195.156 427.353C199.968 422.804 200.074 415.258 195.369 410.606L184.676 400.268C184.569 400.165 184.569 400.061 184.462 400.061C176.121 391.792 176.228 378.56 184.676 370.496C193.231 362.433 206.918 362.433 215.473 370.496L226.273 380.73C228.519 382.901 231.513 384.142 234.722 384.142C241.458 384.142 247.019 378.87 247.019 372.357V357.781C247.019 351.889 249.478 346.72 253.435 342.895C257.392 339.071 262.845 336.692 268.94 336.692C281.024 336.692 290.755 346.1 290.755 357.781V372.357C290.755 375.458 292.038 378.353 294.284 380.627C298.989 385.279 306.688 385.279 311.501 380.73L322.301 370.496C330.856 362.433 344.543 362.433 353.098 370.496C353.205 370.496 353.205 370.6 353.312 370.703C361.653 378.87 361.653 392.102 353.098 400.268L342.511 410.606C340.266 412.88 338.983 415.775 338.983 418.876C338.983 425.388 344.436 430.661 351.173 430.764H366.678C378.762 430.764 388.493 440.171 388.493 451.852C388.493 463.534 378.762 473.044 366.678 473.044H350.852C347.751 473.044 344.65 474.285 342.404 476.352C337.593 481.004 337.486 488.447 342.191 493.099L353.098 503.747C353.205 503.747 353.205 503.85 353.312 503.953C361.653 512.12 361.653 525.352 353.098 533.519C344.543 541.582 330.856 541.582 322.301 533.519L311.501 523.181C309.255 521.114 306.261 519.873 303.052 519.873ZM585.253 266.191C580.12 270.533 573.704 273.324 566.86 273.944C549.002 275.598 533.176 262.986 531.465 245.619C529.754 228.459 542.693 213.263 560.444 211.402C569.427 228.976 577.66 247.377 585.253 266.191ZM502.913 171.499L496.176 156.406C491.043 145.242 495.321 132.423 505.693 125.911C512.751 134.594 519.595 143.795 526.225 153.512C534.138 164.987 541.517 177.081 548.681 189.59C524.514 196.103 507.084 217.398 506.977 242.415C506.87 272.91 532.213 297.721 563.759 297.823C574.559 297.823 585.039 294.826 594.022 289.347C602.683 313.433 610.062 338.14 616.157 363.26C610.062 365.431 603.325 365.431 597.337 362.95C591.027 360.469 585.894 355.714 583.114 349.614L576.271 334.728C574.88 331.938 572.528 329.767 569.64 328.63C563.331 326.251 556.273 329.25 553.707 335.349L547.612 350.442C545.152 356.541 540.233 361.503 534.031 364.191C527.722 366.775 520.558 366.775 514.141 364.191V364.087C500.881 359.022 494.358 344.549 499.598 331.731L505.693 316.638C506.87 313.744 506.87 310.539 505.586 307.644C502.913 301.649 495.642 298.961 489.439 301.545L474.041 308.058C467.732 310.539 460.567 310.539 454.258 308.058C447.842 305.68 442.816 300.925 440.143 294.826C437.469 288.623 437.469 281.8 440.143 275.702C442.388 269.602 447.201 264.64 453.296 261.953L468.694 255.44C471.688 254.303 474.148 251.925 475.324 249.031C477.891 242.931 474.896 236.109 468.694 233.628L453.082 227.735C439.822 222.67 433.299 208.301 438.432 195.482C443.564 182.664 458.429 176.255 471.795 181.113L487.194 187.213C491.792 188.97 497.032 187.936 500.454 184.421C503.983 181.01 504.945 175.841 502.913 171.499ZM133.775 153.512C138.587 146.483 143.506 139.763 148.532 133.251C158.798 136.662 165.962 145.863 166.069 156.51C166.283 170.362 154.841 181.733 140.512 181.94C133.027 181.837 125.969 178.529 121.05 173.153C125.22 166.434 129.391 159.921 133.775 153.512ZM108.645 194.448C117.521 201.478 128.749 205.51 140.512 205.51V205.096C164.144 205.096 184.569 189.28 189.809 167.054C194.835 145.242 183.821 123.844 164.465 113.713C177.618 98.6202 191.199 85.1815 205.208 73.8099C205.849 73.9134 206.491 74.1203 207.132 74.1203C212.051 74.3267 216.756 76.3943 220.071 79.8058C224.028 83.4237 226.166 88.489 226.06 93.6577C226.166 98.8265 223.921 103.789 220.071 107.303L210.02 117.124C206.491 120.536 205.528 125.601 207.453 130.046C209.271 134.491 213.762 137.386 218.681 137.386H233.545C244.666 137.386 253.756 146.069 253.756 156.82C253.756 167.571 244.666 176.358 233.545 176.358H219.109C214.19 176.358 209.806 179.253 207.881 183.698C205.956 188.039 207.025 193.105 210.447 196.516L220.713 206.337C220.82 206.44 220.82 206.44 220.82 206.44C228.626 214.09 228.626 226.392 220.713 233.835C220.713 233.938 220.713 233.938 220.713 233.938C212.906 241.484 200.181 241.484 192.375 233.835L182.216 224.118C178.687 220.706 173.448 219.775 168.957 221.636C164.358 223.394 161.364 227.735 161.364 232.491V246.239C161.364 257.094 152.275 265.777 141.154 265.777C130.032 265.777 121.05 257.094 121.05 246.239V232.491C120.943 227.735 117.949 223.394 113.457 221.636C108.752 219.466 103.085 220.499 99.449 224.118L89.3972 233.835C88.9697 234.248 88.5415 234.558 88.114 234.868C94.5298 220.913 101.374 207.474 108.645 194.448ZM194.727 765.285C194.407 767.973 193.444 770.454 192.268 772.832C173.662 764.045 156.124 753.604 139.87 741.613C146.928 733.342 158.049 729.104 169.277 730.965C184.462 733.342 195.156 745.954 195.156 760.22C195.156 761.874 195.049 763.632 194.727 765.285ZM291.824 780.378C290.755 787.511 286.157 793.714 279.634 797.125C279.527 797.125 279.527 797.125 279.527 797.125C278.672 797.642 277.923 798.366 277.174 798.986C255.573 795.574 234.722 789.889 214.938 782.445C216.97 778.104 218.574 773.555 219.323 768.903V768.8C224.242 739.649 203.71 712.151 173.555 707.396C153.558 704.191 133.561 711.737 121.05 726.52C105.01 712.564 90.6803 697.058 78.1692 680.311C78.7037 679.07 79.1312 677.83 79.1312 676.486C79.6664 669.457 83.3018 662.944 89.1831 658.602H89.2901C100.305 650.953 115.596 653.434 123.402 664.082L132.92 676.796C134.844 679.381 137.732 681.138 140.94 681.655C147.677 682.585 153.879 678.244 154.948 671.731L157.514 656.328C158.477 650.022 162.113 644.44 167.352 640.719C178.367 633.172 193.658 635.55 201.464 646.094C205.208 651.263 206.704 657.569 205.635 663.771L203.069 679.277C202.427 682.689 203.176 686.101 205.315 688.788C209.377 693.956 216.97 695.094 222.424 691.166L234.615 681.965C234.722 681.862 234.722 681.862 234.828 681.758C245.95 674.316 261.134 677.003 268.834 687.754C276.747 698.299 274.287 713.081 263.38 720.627L250.12 729.724C246.27 732.516 244.452 737.064 245.415 741.613C246.484 746.264 250.334 749.883 255.253 750.71L271.293 753.294C271.4 753.294 271.4 753.294 271.507 753.294C284.767 755.361 293.963 767.457 291.824 780.378ZM585.787 674.419C585.467 674.419 585.039 674.212 584.718 674.212C573.062 674.212 563.01 666.562 560.23 655.708C558.519 649.402 559.482 642.683 563.01 637.1C566.219 631.311 571.886 626.97 578.409 625.316C589.209 622.318 600.758 626.556 606.854 635.653C607.174 636.17 607.709 636.48 608.03 636.894C601.614 650.022 594.236 662.531 585.787 674.419ZM618.509 612.807C609.741 605.261 598.299 600.816 586.216 600.609C558.626 600.195 535.956 621.491 535.528 648.058C535.208 669.871 549.965 688.167 570.282 694.474C556.915 710.393 541.73 724.866 525.049 737.788C519.167 731.792 517.884 722.592 522.375 715.252L529.54 703.364C531.144 700.78 531.678 697.575 530.93 694.577C529.326 688.167 522.696 684.343 516.173 685.894L502.271 689.202C491.792 691.786 481.099 685.687 478.532 675.556C475.859 665.322 482.168 655.088 492.648 652.504L506.335 649.092C511.147 647.852 514.676 644.027 515.425 639.271C516.066 634.516 513.821 629.864 509.543 627.383L497.353 620.457C496.39 620.044 495.535 619.527 494.68 619.01C485.804 612.911 483.665 601.022 489.974 592.442C496.176 583.862 508.474 581.795 517.35 587.894L529.54 594.82C532 595.957 534.673 596.37 537.346 595.957C543.976 594.717 548.36 588.617 547.184 582.208L543.762 568.873C541.089 558.639 547.398 548.405 557.878 545.821C568.464 543.236 579.05 549.335 581.724 559.466L585.253 572.698C586.536 577.35 590.493 580.761 595.412 581.484C600.331 582.105 605.143 579.934 607.709 575.799L614.874 564.014C618.723 557.812 625.781 554.504 633.053 555.02C630.38 575.075 625.46 594.406 618.509 612.807Z" fill="black"/>
<path d="M268.894 403.901C241.492 403.901 219.277 425.376 219.277 451.867C219.277 478.358 241.492 499.833 268.894 499.833C296.298 499.833 318.512 478.358 318.512 451.867C318.512 425.376 296.298 403.901 268.894 403.901ZM268.894 476.205C254.99 476.205 243.719 465.308 243.719 451.867C243.719 438.426 254.99 427.53 268.894 427.53C282.798 427.53 294.07 438.426 294.07 451.867C294.07 465.308 282.798 476.205 268.894 476.205Z" fill="black"/>
</svg>
