<svg width="818" height="776" viewBox="0 0 818 776" fill="none" xmlns="http://www.w3.org/2000/svg">
<path fill-rule="evenodd" clip-rule="evenodd" d="M531.449 679.003H106.303C47.5825 679.003 0 626.341 0 561.351V117.653C0 86.4519 11.2108 56.5023 31.1131 34.4349C51.0518 12.4078 78.1113 0 106.304 0H292.145C299.886 0 307.336 3.39496 312.777 9.49796L362.697 64.6666H624.055C682.776 64.6666 730.358 117.329 730.358 182.319V458.928C722.032 455.128 712.318 452.663 701.144 452.663C649.07 452.663 629.313 505.528 629.313 505.528C629.313 505.528 620.366 529.131 612.003 548.007C594.95 557.262 573.623 567.165 573.623 567.165C573.623 567.165 525.857 588.384 525.857 646.665C525.857 659.072 528.053 669.829 531.449 679.003ZM175.286 280.21H555.073C565.809 280.21 574.537 270.551 574.537 258.669C574.537 246.786 565.809 237.127 555.073 237.127H175.286C164.55 237.127 155.822 246.786 155.822 258.669C155.822 270.551 164.55 280.21 175.286 280.21ZM655.056 595.619C656.152 593.639 659.694 587.011 662.177 581.554C671.818 560.496 683.175 530.507 683.175 530.507C686.206 522.545 693.327 517.332 701.142 517.332C708.958 517.332 716.079 522.546 719.109 530.507C719.109 530.507 730.466 560.496 740.107 581.554C742.59 587.01 746.133 593.639 747.228 595.619C749.054 596.832 755.007 600.793 759.973 603.541C779 614.21 806.096 626.781 806.096 626.781C813.29 630.135 818 638.016 818 646.666C818 655.316 813.289 663.197 806.096 666.551C806.096 666.551 779 679.12 759.973 689.791C755.043 692.539 749.054 696.46 747.265 697.672C746.169 699.693 742.59 706.281 740.107 711.778C730.467 732.836 719.109 762.825 719.109 762.825C716.078 770.787 708.958 776 701.142 776C693.327 776 686.206 770.786 683.175 762.825C683.175 762.825 671.819 732.836 662.177 711.778C659.694 706.322 656.152 699.693 655.056 697.713C653.23 696.5 647.278 692.539 642.311 689.791C623.285 679.122 596.189 666.551 596.189 666.551C588.995 663.197 584.285 655.316 584.285 646.666C584.285 638.016 588.996 630.135 596.189 626.781C596.189 626.781 623.285 614.211 642.311 603.541C647.278 600.793 653.231 596.832 655.056 595.619Z" fill="black"/>
</svg>
