<svg width="800" height="772" viewBox="0 0 800 772" fill="none" xmlns="http://www.w3.org/2000/svg">
<path d="M789.507 242.904C779.65 226.066 764.506 216.259 748.219 216.259H151.15C128.007 216.259 107.434 236.428 101.291 265.292C101.291 265.663 7.00471 690.587 9.71114 695.49C10.0326 731.894 32.8913 762.703 61.7139 762.471H379.728C375.799 741.701 379.978 719.08 391.443 704.001L404.586 686.978C342.011 525.725 458.018 364.602 606.453 365.763C666.492 366.04 723.597 390.604 768.034 440.515L798.035 301.928C802.464 281.389 799.321 259.926 789.463 242.903L789.507 242.904Z" fill="black"/>
<path d="M46.5743 312.334L42.7169 68.0919C44.0027 63.6512 54.1461 55.5098 61.7177 55.5098H236.73C238.873 55.5098 241.016 56.6199 242.731 58.4703L285.161 107.319C294.59 118.236 306.877 124.342 319.591 124.342H669.47C674.471 124.342 678.471 129.522 678.471 135.999V160.793H721.33V135.999C721.33 98.9923 698.043 68.8318 669.47 68.8318H319.591C317.448 68.8318 315.305 67.7216 313.591 65.8713L271.16 16.8382C261.588 5.92127 249.445 0 236.73 0H61.7175C33.1446 0 0 29.2356 0 67.7222L6.57177 495.326C6.57177 494.771 46.824 312.89 46.5743 312.334Z" fill="black"/>
<path d="M754.506 501.439C644.786 324.827 336.702 467.995 457.494 690.177C458.78 692.213 458.637 695.543 457.066 697.394C449.065 707.524 429.993 732.781 421.92 743.282C413.777 753.181 419.742 772.424 431.064 771.962H606.506C735.299 774.737 834.13 626.198 754.519 501.442L754.506 501.439ZM505.497 596.731C506.033 557.55 550.785 557.596 551.213 596.731C550.785 635.865 506.033 635.911 505.497 596.731ZM607.646 566.941C637.719 567.542 637.719 625.92 607.646 626.521C577.608 625.827 577.608 567.634 607.646 566.941ZM709.942 596.731C709.406 635.911 664.654 635.865 664.225 596.731C664.654 557.596 709.406 557.55 709.942 596.731Z" fill="black"/>
</svg>
