<svg width="816" height="797" viewBox="0 0 816 797" fill="none" xmlns="http://www.w3.org/2000/svg">
<path d="M575.639 64.0227C576.147 64.0227 576.79 64.0227 577.298 64.1592V54.7693C577.298 43.6041 568.256 34.4528 557.013 34.4528H440.507C435.021 34.4528 429.941 32.2675 426.114 28.409L404.066 5.90719C400.239 2.0487 395.024 0 389.673 0H258.983C247.773 0 238.698 9.11717 238.698 20.3165L238.664 64.1593C239.172 64.0227 239.815 64.0227 240.459 64.0227L575.639 64.0227Z" fill="black"/>
<path d="M357.367 563.614H22.1905C8.33871 563.614 -2.1596 576.281 0.380661 590.042L35.3652 778.766C37.3634 789.351 46.5415 797 57.2089 797H322.385C333.087 797 342.163 789.351 344.195 778.766L379.179 590.042C381.719 576.281 371.218 563.614 357.367 563.614ZM227.761 715.188H246.896C250.418 715.188 253.263 718.056 253.263 721.607C253.263 725.158 250.418 728.026 246.896 728.026L227.761 728.06C224.239 728.06 221.394 725.192 221.394 721.641C221.394 718.056 224.239 715.188 227.761 715.188ZM279.848 760.363H227.761C224.239 760.363 221.394 757.494 221.394 753.943C221.394 750.392 224.239 747.524 227.761 747.524H279.848C283.37 747.524 286.215 750.392 286.215 753.943C286.215 757.494 283.37 760.363 279.848 760.363ZM305.316 728.061H266.945C263.423 728.061 260.578 725.193 260.578 721.641C260.578 718.09 263.422 715.222 266.945 715.222H305.316C308.838 715.222 311.683 718.09 311.683 721.641C311.716 725.158 308.838 728.061 305.316 728.061Z" fill="black"/>
<path d="M793.807 563.614H458.631C444.779 563.614 434.281 576.281 436.821 590.042L471.805 778.766C473.804 789.351 482.982 797 493.649 797H758.825C769.527 797 778.603 789.351 780.635 778.766L815.619 590.042C818.159 576.281 807.658 563.614 793.807 563.614ZM664.201 715.188H683.336C686.858 715.188 689.703 718.056 689.703 721.607C689.703 725.158 686.858 728.026 683.336 728.026H664.201C660.679 728.026 657.835 725.158 657.835 721.607C657.835 718.056 660.679 715.188 664.201 715.188ZM716.288 760.363H664.201C660.679 760.363 657.835 757.494 657.835 753.943C657.835 750.392 660.679 747.524 664.201 747.524H716.288C719.81 747.524 722.655 750.392 722.655 753.943C722.655 757.494 719.81 760.363 716.288 760.363ZM741.756 728.061H703.385C699.863 728.061 697.018 725.193 697.018 721.641C697.018 718.09 699.863 715.222 703.385 715.222H741.756C745.278 715.222 748.123 718.09 748.123 721.641C748.157 725.158 745.278 728.061 741.756 728.061Z" fill="black"/>
<path d="M442.574 422.555V418.458H591.652V422.555C591.652 428.599 596.495 433.482 602.489 433.482H619.829V490.744C616.307 488.218 612.209 486.818 607.908 486.818H477.08C465.87 486.818 456.794 495.935 456.794 507.134V550.841C457.302 550.704 457.946 550.704 458.589 550.704H793.8C794.444 550.704 795.087 550.704 795.595 550.841V541.587C795.595 530.285 786.553 521.134 775.31 521.134H658.639C653.288 521.134 648.073 518.949 644.246 515.09L632.595 503.208V433.448H650.07C655.929 433.448 660.772 428.565 660.772 422.521V418.424H746.794C750.316 418.424 753.16 415.555 753.16 412.004C753.16 408.453 750.316 405.585 746.794 405.585H660.772V401.487C660.772 395.443 655.929 390.561 650.07 390.561H602.521C596.527 390.561 591.684 395.443 591.684 401.487V405.585H442.571V401.487C442.571 395.443 437.728 390.561 431.869 390.561H414.36V310.25H540.611C551.313 310.25 560.388 302.601 562.421 292.017L597.405 103.292C599.945 89.5316 589.446 76.8637 575.595 76.8637L240.384 76.8295C226.532 76.8295 216.034 89.4974 218.574 103.258L253.559 291.982C255.557 302.567 264.735 310.216 275.403 310.216H401.592V390.526H384.286C378.292 390.526 373.449 395.409 373.449 401.453V405.551L220.34 405.585V401.487C220.34 395.443 215.497 390.561 209.637 390.561H162.089C156.094 390.561 151.251 395.443 151.251 401.487V405.585H69.1929C65.6708 405.585 62.8259 408.453 62.8259 412.004C62.8259 415.555 65.6707 418.424 69.1929 418.424H151.251V422.521C151.251 428.565 156.094 433.448 162.089 433.448H179.462V488.457C176.956 487.398 174.213 486.818 171.368 486.818H40.6787C29.4686 486.818 20.393 495.935 20.393 507.134V550.841C20.901 550.704 21.5445 550.704 22.1879 550.704H357.364C358.008 550.704 358.651 550.704 359.159 550.841V541.587C359.159 530.285 350.117 521.134 338.873 521.134H222.203C216.717 521.134 211.637 518.949 207.81 515.09L192.163 499.247V433.483H209.604C215.463 433.483 220.306 428.6 220.306 422.556V418.458H373.416V422.556C373.416 428.6 378.259 433.483 384.253 433.483H431.802C437.729 433.483 442.574 428.599 442.574 422.555ZM485.145 228.403H523.516C527.038 228.403 529.883 231.271 529.883 234.822C529.883 238.373 527.038 241.241 523.516 241.241H485.145C481.623 241.241 478.778 238.373 478.778 234.822C478.778 231.271 481.623 228.403 485.145 228.403ZM445.995 228.403H465.13C468.652 228.403 471.497 231.271 471.497 234.822C471.497 238.373 468.652 241.241 465.13 241.241H445.995C442.473 241.241 439.628 238.373 439.628 234.822C439.595 231.271 442.473 228.403 445.995 228.403ZM445.995 260.738H498.082C501.604 260.738 504.449 263.607 504.449 267.158C504.449 270.709 501.604 273.577 498.082 273.577H445.995C442.473 273.577 439.628 270.709 439.628 267.158C439.595 263.607 442.473 260.738 445.995 260.738Z" fill="black"/>
</svg>
