<svg width="690" height="707" viewBox="0 0 690 707" fill="none" xmlns="http://www.w3.org/2000/svg">
<path d="M690 318.028C690 329.413 685.595 340.798 676.755 349.191L486.233 530.358C470.299 545.617 449.932 555.213 428.304 557.971L252.546 579.744L231.663 599.728L109.313 464.511L180.4 396.903C205.287 373.369 238.014 360.546 271.743 361.455L433.17 365.211C456.656 365.974 475.708 385.106 476.795 409.286V409.843C473.448 428.858 458.487 447.961 432.969 452.157L313.849 456.148C310.845 456.265 308.471 458.789 308.585 461.899C308.7 464.892 311.074 467.21 313.964 467.21H314.192L434.052 463.131C464.519 458.26 482.398 436.076 487.032 413.54L620.367 286.835C637.159 270.813 663.448 271.928 679.067 289.153C686.333 297.251 690 307.64 690 318.028Z" fill="black"/>
<path d="M233.387 618.013L92.1576 461.756C85.292 454.156 73.7352 453.715 66.3548 460.758L5.85212 518.271C-1.55683 525.314 -1.98598 537.169 4.87951 544.739L146.109 700.997C152.974 708.597 164.531 709.037 171.912 701.995L232.414 644.481C239.823 637.439 240.252 625.584 233.387 618.013ZM178.32 666.988C174.057 671.037 168.565 673.238 162.786 673.238C162.5 673.238 162.185 673.238 161.899 673.209C149.284 672.71 139.415 661.794 139.901 648.883C140.387 635.942 151.114 625.994 163.644 626.317C176.26 626.816 186.129 637.732 185.643 650.673C185.414 656.952 182.811 662.733 178.32 666.988Z" fill="black"/>
<path d="M163.215 637.349H162.758C156.293 637.349 150.914 642.631 150.657 649.322C150.4 656.159 155.635 661.94 162.3 662.204C165.647 662.262 168.622 661.147 170.996 658.888C173.371 656.628 174.744 653.576 174.858 650.261C175.116 643.424 169.909 637.643 163.215 637.349Z" fill="black"/>
<path d="M568.141 55.4599V66.7279C567.597 66.6105 566.939 66.6105 566.424 66.6105H232.989C232.331 66.6105 231.816 66.6105 231.158 66.7279V20.5702C231.158 9.18501 240.198 0.0293421 251.411 0.0293421L381.399 0C386.777 0 391.955 2.11276 395.731 5.95681L417.586 28.7273C421.448 32.6006 426.512 34.8014 431.918 34.8014H548.006C559.191 34.8014 568.141 44.0746 568.141 55.4599Z" fill="black"/>
<path d="M566.369 77.703H232.933C219.173 77.703 208.703 90.526 211.249 104.465L246.035 295.465C248.037 306.176 257.134 313.923 267.776 313.923H531.582C542.224 313.923 551.264 306.176 553.266 295.465L588.051 104.465C590.597 90.526 580.157 77.703 566.369 77.703ZM420.101 239.384H437.351C440.326 239.384 442.729 241.849 442.729 244.901C442.729 247.953 440.326 250.418 437.351 250.418H420.101C417.126 250.418 414.723 247.953 414.723 244.901C414.723 241.849 417.126 239.384 420.101 239.384ZM486.44 271.721H420.101C417.126 271.721 414.723 269.257 414.723 266.205C414.723 263.153 417.126 260.688 420.101 260.688H486.44C489.415 260.688 491.818 263.153 491.818 266.205C491.818 269.257 489.415 271.721 486.44 271.721ZM518.135 271.721H507.751C504.776 271.721 502.373 269.257 502.373 266.205C502.373 263.153 504.776 260.688 507.751 260.688H518.135C521.11 260.688 523.513 263.153 523.513 266.205C523.513 269.257 521.111 271.721 518.135 271.721ZM518.135 250.447H461.895C458.92 250.447 456.517 247.983 456.517 244.931C456.517 241.879 458.92 239.414 461.895 239.414H518.135C521.11 239.414 523.513 241.879 523.513 244.931C523.513 247.953 521.111 250.447 518.135 250.447Z" fill="black"/>
</svg>
