<svg width="731" height="824" viewBox="0 0 731 824" fill="none" xmlns="http://www.w3.org/2000/svg">
<path d="M688.358 85.4615C671.413 85.4615 656.866 97.141 649.994 113.884H631.288C640.246 87.0393 621.661 56.4777 596.983 57.0389C588.224 56.9634 576.565 56.2652 568.876 61.4782C581.005 34.2638 562.411 -0.496002 536.066 0.193531C523.577 -0.525562 508.6 0.316743 499.517 11.1357C490.436 0.325411 475.457 -0.536788 462.967 0.194385C436.692 -0.530819 418.1 34.1796 430.071 61.3021C422.421 56.2261 410.725 56.9877 402.05 57.0389C377.436 56.4916 358.755 87.0887 367.757 113.884H253.605C262.56 87.0393 243.98 56.4777 219.3 57.0389C198.529 58.4813 173.14 51.2611 158.383 68.1275C149.354 57.2895 134.381 56.2486 121.833 57.0397C97.1594 56.4724 78.5654 87.0462 87.529 113.884H81.006C61.9094 66.8256 0.231241 82.2071 0.000731993 135.202C9.9274e-07 135.201 0 774.711 0 774.711C1.73637 840.286 83.4645 840.567 85.2833 774.709C85.2833 774.711 85.2833 753.394 85.2833 753.394H645.717V774.711C647.473 840.337 729.191 840.523 731 774.709C731 774.711 731 135.201 731 135.201C731 107.778 711.868 85.4615 688.358 85.4615ZM584.8 85.4615H596.983C612.989 85.7955 612.994 113.551 596.983 113.884H584.8C568.794 113.55 568.789 85.7946 584.8 85.4615ZM523.883 28.6162H536.067C552.068 28.9736 552.072 56.6823 536.067 57.0389H523.883C507.882 56.6814 507.878 28.9718 523.883 28.6162ZM462.967 85.4615H475.15C491.152 85.8189 491.155 113.528 475.15 113.884H462.967C446.966 113.527 446.961 85.8171 462.967 85.4615ZM182.75 85.4615H219.3C235.299 85.7929 235.317 113.55 219.3 113.884H182.75C166.751 113.553 166.733 85.7955 182.75 85.4615ZM121.833 85.4615H134.017C150.023 85.7955 150.027 113.551 134.017 113.884H121.833C105.827 113.55 105.822 85.7946 121.833 85.4615ZM645.717 724.971H85.2832V696.549H645.717V724.971ZM147.265 568.647C157.285 511.819 232.593 511.845 242.602 568.647H147.265ZM414.233 597.069V648.6C414.233 659.369 406.726 668.126 397.493 668.126H333.507C324.274 668.126 316.767 659.369 316.767 648.6V597.069H414.233ZM317.831 568.647C327.852 511.819 403.159 511.845 413.168 568.647H317.831ZM645.717 668.126H605.521C607.822 662.147 609.167 655.566 609.167 648.6V568.647C625.137 568.348 625.216 540.541 609.167 540.224C592.746 540.224 479.4 540.223 462.967 540.224C446.998 540.517 446.917 568.333 462.967 568.647V648.6C462.967 655.566 464.311 662.147 466.613 668.126H434.954C441.252 655.627 437.767 611.303 438.6 597.069C455.122 596.628 454.33 567.926 437.824 568.647C433.436 532.343 408.804 503.613 377.683 498.496C378.215 478.628 352.782 478.638 353.317 498.496C322.196 503.613 297.564 532.343 293.176 568.647C276.663 567.927 275.888 596.636 292.4 597.069C293.247 611.557 289.725 655.399 296.046 668.126H264.387C270.685 655.627 267.201 611.303 268.033 597.069C284.555 596.628 283.763 567.926 267.257 568.647C262.869 532.343 238.238 503.613 207.117 498.496C207.648 478.628 182.216 478.638 182.75 498.496C151.629 503.613 126.998 532.343 122.61 568.647C106.096 567.927 105.321 596.636 121.833 597.069C122.68 611.557 119.159 655.399 125.479 668.126H85.2835V469.168H645.717L645.717 668.126ZM645.717 440.745H85.2832V412.322H645.717V440.745ZM134.017 298.632H231.483C232.229 298.632 232.878 298.978 233.588 299.128C230.999 307.927 230.799 317.382 233.369 326.353C232.79 326.72 232.184 327.054 231.483 327.054H134.017C118.027 326.729 117.992 298.965 134.017 298.632ZM134.017 241.786C134.017 241.786 231.483 241.786 231.483 241.786C247.463 242.111 247.516 269.872 231.483 270.209H134.017C118.036 269.884 117.984 242.122 134.017 241.786ZM134.017 355.477H231.483C247.463 355.801 247.516 383.563 231.483 383.9H134.017C118.036 383.575 117.984 355.813 134.017 355.477ZM266.96 359.871L308.21 383.9H265.788C268.194 376.495 268.733 367.638 266.96 359.871ZM527.538 334.018C522.65 347.091 522.753 363.865 527.538 376.936C512.906 392.997 486.712 379.128 487.334 355.476C486.706 332.032 512.778 317.844 527.538 334.018ZM523.883 284.42C527.346 236.245 587.33 255.63 569.206 298.774C558.821 299.645 549.224 304.277 541.549 311.706C531.272 308.274 523.883 297.102 523.883 284.42ZM645.717 383.9H614.595C629.378 356.881 618.41 316.92 593.815 304.458C611.561 251.11 555.55 204.082 517.792 240.081C481.699 205.579 427.262 247.372 440.428 299.91C409.319 306.479 391.557 352.205 408.805 383.899H387.284C397.502 363.729 389.642 335.446 371.568 325.5L284.363 274.698C278.375 271.212 271.96 270.01 265.712 270.493C274.838 243.614 256.278 212.789 231.483 213.363H134.017C102.969 212.561 85.6335 258.474 106.973 284.42C94.501 299.217 94.5025 326.469 106.973 341.265C98.2688 351.977 94.8661 369.689 99.7122 383.899H85.2831V199.152H645.716L645.717 383.9ZM645.717 170.73H85.2832V142.307H645.717V170.73Z" fill="black"/>
</svg>
