<svg width="798" height="833" viewBox="0 0 798 833" fill="none" xmlns="http://www.w3.org/2000/svg">
<path d="M756.77 315.12C756.183 314.525 755.561 313.968 754.908 313.452C753.465 283.582 741.926 255.215 722.344 233.403C702.762 211.59 676.409 197.747 647.976 194.338C647.966 182.509 649.67 170.747 653.03 159.452C658.483 180.3 678.965 209.488 705.432 207.403C723.396 206.197 740.696 199.85 755.44 189.058C757.498 187.567 759.104 185.493 760.071 183.08C761.037 180.666 761.322 178.014 760.893 175.437C757.302 148.611 734.958 95.239 683.487 113.864C694.094 105.581 706.094 99.4519 718.865 95.795C720.535 95.2971 722.095 94.4593 723.455 93.3295C724.814 92.1997 725.947 90.8002 726.787 89.2116C727.628 87.623 728.16 85.8764 728.352 84.0724C728.545 82.2683 728.394 80.4423 727.909 78.6992C726.919 75.1859 724.654 72.2163 721.597 70.4245C718.541 68.6326 714.935 68.1605 711.55 69.1088C685.047 76.1089 661.634 92.3778 645.205 115.211C628.776 138.044 620.32 166.066 621.243 194.617C611.312 195.817 601.568 198.339 592.249 202.123L619.381 152.92C624.169 146.11 616.322 128.597 615.258 121.23C626.696 117.755 635.075 95.239 641.06 85.7877C644.56 79.404 645.504 71.8331 643.685 64.7253C641.867 57.6175 637.433 51.5493 631.351 47.8433L585.2 20.0452C579.091 16.3873 571.847 15.4011 565.045 17.3017C558.244 19.2023 552.437 23.8356 548.891 30.1915C544.102 40.3378 529.606 59.2405 532.266 71.3327C525.217 74.1125 507.395 75.6414 504.07 83.4249L481.061 125.261C444.486 68.5529 399.266 39.9209 361.494 50.6231C353.431 45.1405 344.115 42.0053 334.506 41.5411C324.897 41.0769 315.343 43.3004 306.831 47.9823C301.061 40.6058 293.59 34.8854 285.12 31.3596C276.651 27.8338 267.462 26.6187 258.419 27.8287C252.597 17.2627 243.61 8.99203 232.844 4.29238C222.078 -0.407281 210.132 -1.27486 198.848 1.82344C187.563 4.92175 177.568 11.8138 170.403 21.4367C163.238 31.0595 159.302 42.8785 159.201 55.0708C152.099 55.0794 145.071 56.5753 138.531 59.4702C131.992 62.365 126.074 66.6001 121.127 71.9253C116.18 77.2505 112.305 83.5577 109.73 90.4744C107.154 97.3912 105.932 104.777 106.134 112.196C101.027 117.347 96.9693 123.523 94.2038 130.354C91.4383 137.185 90.0224 144.53 90.041 151.947C79.1028 152.049 68.4595 155.666 59.5564 162.307C50.6533 168.948 43.9217 178.292 40.2758 189.07C36.6299 199.847 36.2463 211.537 39.1771 222.55C42.108 233.563 48.2112 243.367 56.658 250.63C52.7266 257.808 50.4727 265.854 50.0798 274.115C49.6869 282.375 51.1661 290.615 54.397 298.165L3.591 363.907C1.37579 366.902 0.119343 370.549 0 374.332V735.707C0.027107 761.502 9.84453 786.232 27.2983 804.472C44.7521 822.712 68.4167 832.972 93.1 833H704.9C729.583 832.972 753.248 822.712 770.702 804.472C788.156 786.232 797.973 761.502 798 735.707V374.332C797.825 370.583 796.625 366.965 794.542 363.907L756.77 315.12ZM750.652 351.397L757.701 360.431H747.992C749.056 357.513 749.854 354.454 750.652 351.397ZM635.341 221.441C650.994 221.576 666.365 225.817 680.041 233.776C693.718 241.734 705.262 253.155 713.616 266.99C721.97 280.825 726.864 296.631 727.851 312.957C728.838 329.284 725.885 345.608 719.264 360.431H551.418C544.743 345.612 541.749 329.275 542.711 312.928C543.674 296.58 548.563 280.75 556.927 266.898C565.29 253.047 576.859 241.621 590.564 233.676C604.269 225.731 619.669 221.523 635.341 221.441ZM524.419 102.326L550.088 95.2382L586.663 117.199L593.579 144.024L582.939 163.205L513.912 121.507L524.419 102.326ZM500.612 145.552L569.639 187.249L549.689 223.387L518.7 204.623C512.585 186.792 505.205 169.463 496.622 152.78L500.612 145.552ZM536.522 247.432L533.064 253.687C531.939 250.413 531.007 247.071 530.271 243.679L536.522 247.432ZM366.548 209.766L391.818 200.87L379.183 161.397C378.633 159.663 378.415 157.833 378.542 156.011C378.668 154.189 379.137 152.411 379.921 150.778C381.505 147.481 384.277 144.976 387.628 143.815C390.98 142.653 394.635 142.931 397.79 144.586C400.945 146.241 403.342 149.139 404.453 152.641L417.088 192.114L442.225 183.357C443.889 182.764 445.648 182.521 447.402 182.642C449.156 182.763 450.87 183.246 452.445 184.063C454.019 184.88 455.423 186.015 456.576 187.402C457.728 188.789 458.607 190.401 459.16 192.145C459.713 193.889 459.93 195.73 459.799 197.562C459.668 199.394 459.191 201.18 458.396 202.819C457.6 204.457 456.502 205.914 455.165 207.106C453.827 208.299 452.277 209.203 450.604 209.766L425.467 218.522L438.102 257.995L463.239 249.239C466.587 248.07 470.243 248.336 473.404 249.98C476.564 251.623 478.972 254.51 480.099 258.006C481.226 261.502 480.98 265.323 479.415 268.63C477.85 271.937 475.094 274.461 471.751 275.647L446.481 284.403L470.687 360.431H442.624L421.211 293.16L395.941 302.055C392.59 303.216 388.935 302.938 385.78 301.283C382.624 299.628 380.228 296.731 379.117 293.229C378.005 289.727 378.271 285.907 379.855 282.61C381.439 279.312 384.211 276.808 387.562 275.646L412.832 266.89L400.197 227.278L374.927 236.033C371.612 237.124 368.019 236.81 364.924 235.159C361.828 233.508 359.477 230.651 358.378 227.206C357.279 223.76 357.519 220.001 359.047 216.738C360.576 213.476 363.27 210.972 366.548 209.766ZM353.647 360.431H304.969C282.758 353.899 264.67 327.49 252.301 302.055C264.205 298.121 274.406 289.935 281.117 278.933C287.828 267.93 290.622 254.811 289.009 241.872C295.824 237.867 301.689 232.309 306.166 225.61C313.972 273.206 330.066 318.902 353.647 360.431ZM170.639 85.9252C173.125 87.1578 175.913 87.5619 178.626 87.0827C181.339 86.6036 183.845 85.2643 185.805 83.2464C187.765 81.2286 189.083 78.6297 189.582 75.8022C190.081 72.9746 189.736 70.0551 188.594 67.4394C186.985 63.9791 186.084 60.2063 185.949 56.3618C185.814 52.5172 186.448 48.6855 187.809 45.1112C189.171 41.5368 191.23 38.2984 193.857 35.6027C196.483 32.907 199.618 30.8132 203.063 29.4549C206.507 28.0967 210.184 27.5038 213.86 27.7143C217.536 27.9247 221.129 28.9337 224.411 30.677C227.693 32.4203 230.59 34.8595 232.919 37.8389C235.248 40.8183 236.957 44.2724 237.937 47.9808C238.432 49.8586 239.301 51.6061 240.487 53.1089C241.673 54.6118 243.149 55.8362 244.818 56.702C246.488 57.5679 248.314 58.0557 250.176 58.1336C252.038 58.2115 253.896 57.8778 255.626 57.1541C258.919 55.7576 262.449 55.0721 266.003 55.1389C269.557 55.2057 273.061 56.0233 276.304 57.5427C279.547 59.062 282.463 61.2516 284.875 63.9796C287.287 66.7075 289.146 69.9174 290.34 73.416C291.15 75.6222 292.483 77.5776 294.213 79.0994C295.944 80.6211 298.015 81.6596 300.233 82.1178C302.452 82.5759 304.745 82.4387 306.9 81.7191C309.054 80.9995 310.998 79.7208 312.551 78.0027C315.036 75.1673 318.056 72.9006 321.421 71.3457C324.786 69.7908 328.422 68.9813 332.102 68.9683C312.864 93.7364 302.305 124.632 302.177 156.532C294.247 147.289 283.568 141.109 271.864 138.991C260.16 136.873 248.114 138.939 237.672 144.857C231.976 137.462 224.555 131.724 216.123 128.194C207.691 124.664 198.531 123.462 189.526 124.703C184.304 115.038 176.435 107.227 166.931 102.273C157.427 97.3192 146.722 95.4499 136.193 96.9054C139.481 90.7962 144.895 86.2462 151.31 84.2013C157.725 82.1563 164.648 82.7737 170.639 85.9252ZM71.155 320.68C79.0928 327.547 88.8468 331.718 99.1138 332.637C109.381 333.556 119.671 331.179 128.611 325.823C133.285 331.859 139.123 336.799 145.746 340.319C152.369 343.84 159.627 345.862 167.048 346.254C168.011 350.929 168.677 355.665 169.043 360.431H40.432L71.155 320.68ZM545.3 763.503H252.7C238.675 763.368 225.269 757.451 215.398 747.04C205.526 736.628 199.988 722.564 199.988 707.907C199.988 693.25 205.526 679.186 215.398 668.775C225.269 658.363 238.675 652.446 252.7 652.311H545.3C559.325 652.446 572.731 658.363 582.602 668.775C592.474 679.186 598.012 693.25 598.012 707.907C598.012 722.564 592.474 736.628 582.602 747.04C572.731 757.451 559.325 763.368 545.3 763.503ZM558.6 485.523H718.2C721.693 485.577 725.026 487.065 727.478 489.666C729.93 492.266 731.304 495.771 731.304 499.422C731.304 503.073 729.93 506.577 727.478 509.178C725.026 511.778 721.693 513.267 718.2 513.321H558.6C555.105 513.269 551.77 511.782 549.316 509.181C546.862 506.58 545.487 503.074 545.487 499.422C545.487 495.769 546.862 492.263 549.316 489.662C551.77 487.061 555.105 485.574 558.6 485.523ZM718.2 568.917H625.1C621.605 568.865 618.27 567.378 615.816 564.777C613.362 562.176 611.987 558.67 611.987 555.018C611.987 551.365 613.362 547.859 615.816 545.258C618.27 542.658 621.605 541.17 625.1 541.119H718.2C721.695 541.17 725.03 542.658 727.484 545.258C729.938 547.859 731.313 551.365 731.313 555.018C731.313 558.67 729.938 562.176 727.484 564.777C725.03 567.378 721.695 568.865 718.2 568.917ZM771.4 416.027H26.6V388.229H771.4V416.027Z" fill="black"/>
<path d="M689.76 330.874C694.52 330.804 699.061 328.779 702.403 325.237C705.745 321.695 707.618 316.921 707.618 311.947C707.618 306.973 705.744 302.199 702.402 298.657C699.06 295.115 694.519 293.09 689.76 293.021C685.001 293.091 680.459 295.116 677.117 298.658C673.776 302.199 671.902 306.974 671.902 311.948C671.902 316.922 673.776 321.696 677.118 325.237C680.46 328.779 685.001 330.804 689.76 330.874Z" fill="black"/>
<path d="M650.608 293.021C655.367 292.95 659.909 290.925 663.25 287.384C666.592 283.842 668.465 279.068 668.465 274.094C668.465 269.12 666.592 264.346 663.25 260.804C659.908 257.263 655.367 255.238 650.607 255.168C645.848 255.238 641.307 257.263 637.965 260.805C634.624 264.347 632.75 269.121 632.751 274.095C632.751 279.069 634.624 283.843 637.966 287.384C641.308 290.926 645.849 292.951 650.608 293.021Z" fill="black"/>
</svg>
