<svg width="811" height="814" viewBox="0 0 811 814" fill="none" xmlns="http://www.w3.org/2000/svg">
<path d="M120.567 141.317C121.936 144.238 123.444 147.267 125.014 150.429C138.847 178.248 159.766 220.284 133.445 293.167C118.732 333.889 118.406 367.818 132.502 394.015C146.976 420.923 177.292 439.616 217.861 446.637C255.609 453.177 285.645 469.83 308.912 496.702C309.953 497.554 310.858 498.583 311.472 499.846C322.453 513.197 332.012 528.704 339.855 546.99C376.189 631.786 485.884 615.893 487.015 615.692C500.131 612.905 509.906 611.27 518.738 611.27C525.171 611.27 531.101 612.141 537.458 614.058C564.244 622.205 586.269 621.267 602.903 611.257C612.363 605.575 615.379 595.003 615.416 594.896C615.746 593.958 615.987 592.582 616.302 591.527C612.492 591.783 608.901 591.921 605.554 591.921C588.316 591.921 577.047 588.504 570.099 581.402C563.269 574.412 562.297 565.797 562.455 558.285C553.081 556.501 542 554.121 532.558 551.989C517.143 548.518 503.297 541.443 492.543 531.554C483.773 523.49 477.436 514.324 471.893 503.653C471.55 503.043 471.228 502.45 471.018 501.764C466 491.799 461.537 480.658 456.46 467.702C442.627 432.393 423.693 384.046 373.325 315.317C283.431 192.639 261.243 68.8227 256.444 0L79.3576 24.5891C87.3984 51.1212 98.1907 84.9564 108.807 112.936C112.802 123.508 116.785 133.21 120.567 141.317ZM166.337 300.161C169.126 295.766 174.704 294.654 178.838 297.642C182.946 300.617 184.014 306.58 181.225 310.975C181.036 311.27 162.329 341.139 170.194 363.503C174.051 374.465 184.278 382.357 200.586 386.954C205.184 388.24 209.631 389.593 213.903 391C218.652 392.568 221.328 397.942 219.858 403.007C218.665 407.134 215.109 409.787 211.252 409.787C210.373 409.787 209.481 409.653 208.601 409.358C204.556 408.032 200.359 406.759 195.987 405.526C173.674 399.241 159.301 387.342 153.295 370.177C142.202 338.459 165.344 301.716 166.337 300.161Z" fill="black"/>
<path d="M618.595 557.965C611.886 559.117 604.901 559.908 598.104 560.35C590.297 560.868 584.871 560.935 580.569 560.764C580.687 563.68 581.127 566.065 582.562 567.533C585.296 570.325 593.986 574.275 620.26 571.884C620.415 570.573 620.731 569.149 620.832 567.908C621.208 563.888 621.623 559.506 621.246 557.603C620.919 557.71 620.015 557.71 618.595 557.965Z" fill="black"/>
<path d="M570.614 638.741C558.879 638.741 546.165 636.677 532.533 632.536C522.005 629.347 512.984 629.776 490.532 634.533C467.633 639.384 383.106 641.764 338.255 580.641C249.85 586.227 175.043 598.569 126.949 615.237C187.081 635.679 296.827 653.052 443.029 653.052C589.169 653.052 698.889 635.69 759.033 615.26C728.125 604.621 685.574 595.541 635.573 588.991C634.652 593.197 633.733 597.482 632.491 600.952C632.528 600.952 627.817 618.332 611.748 627.994C599.825 635.163 586.068 638.741 570.614 638.741Z" fill="black"/>
<path d="M788.563 623.634C721.849 655.646 582.016 672.268 443.029 672.268C304.062 672.268 164.243 655.652 97.5138 623.647C97.0128 623.404 96.5071 623.304 96.0549 622.965C89.9567 619.974 84.471 616.858 79.7094 613.599C116.743 793.471 343.074 814 442.979 814C543.01 814 769.318 793.5 806.312 613.614C801.554 616.868 796.074 619.979 789.982 622.969C789.541 623.297 789.048 623.394 788.563 623.634Z" fill="black"/>
<path d="M497.245 509.003C499.454 511.788 501.65 514.564 504.302 517.001C512.77 524.786 523.827 530.388 536.277 533.202C557.045 537.878 572.034 540.84 578.479 541.523C580.363 541.711 585.263 541.965 597.011 541.188C603.192 540.773 609.574 540.063 615.705 538.991C623.382 537.691 629.475 539.192 633.772 543.493C640.594 550.354 639.602 560.806 638.948 567.72C638.889 568.447 638.708 569.295 638.636 570.042C701.835 578.348 752.18 590.319 785.015 604.909C801.681 596.787 810.524 588.573 810.904 581.055C810.921 580.816 810.984 580.611 811 580.37C810.516 554.496 698.895 515.326 497.245 509.003Z" fill="black"/>
<path d="M101.098 604.937C147.265 584.435 228.706 569.087 327.125 562.196C325.912 559.781 324.573 557.545 323.472 554.977C316.739 539.284 308.584 525.905 299.271 514.294C136.122 529.039 74.9979 562.627 74.9979 580.544C74.9979 588.204 84.0234 596.626 101.098 604.937Z" fill="black"/>
<path d="M490.482 108.728C500.85 108.728 510.482 112.09 518.54 117.787C534.952 91.8273 535.545 71.4508 535.545 71.4508C537.79 23.5221 499.973 23.7617 488.577 24.9107C486.611 25.1084 484.642 25.2407 482.668 25.2675C473.571 25.3881 444.761 29.0513 445.772 70.6836C445.772 70.6836 445.537 88.7989 463.307 117.272C471.194 111.932 480.472 108.728 490.482 108.728Z" fill="black"/>
<path d="M394.253 179.892C394.253 179.892 410.344 185.735 441.249 176.494C440.216 172.186 439.498 167.75 439.498 163.106C439.498 145.928 447.158 130.766 458.861 120.793C440.744 95.9913 422.679 89.0669 422.679 89.0669C380.634 71.9801 369.16 110.413 366.665 122.327C366.234 124.384 365.743 126.421 365.155 128.433C362.454 137.697 356.818 168.052 394.253 179.892Z" fill="black"/>
<path d="M442.897 182.135C415.244 192.847 403.509 208.997 403.509 208.997C375.28 246.365 406.007 269.881 415.86 276.095C417.559 277.167 419.224 278.294 420.836 279.512C428.262 285.115 453.589 300.213 475.713 265.899C475.713 265.899 485.909 251.365 487.211 217.116C466.851 215.707 449.791 201.661 442.897 182.135Z" fill="black"/>
<path d="M568.175 273.71C569.656 272.318 571.176 270.976 572.759 269.716C580.051 263.916 601.34 242.891 577.579 209.845C577.579 209.845 567.792 195.055 537.758 183.16C530.521 202.495 513.199 216.247 492.744 217.225C493.747 248.6 504.529 265.502 504.529 265.502C529.127 305.684 559.589 281.785 568.175 273.71Z" fill="black"/>
<path d="M541.453 163.106C541.453 168.127 540.604 172.898 539.404 177.517C567.712 186.212 586.13 180.494 586.13 180.494C629.562 167.96 617.664 129.674 613.117 118.47C612.332 116.537 611.607 114.581 610.974 112.586C608.054 103.397 595.885 75.305 559.074 89.1958C559.074 89.1958 542.807 94.5642 522.873 121.475C534.126 131.46 541.453 146.314 541.453 163.106Z" fill="black"/>
<path d="M523.442 163.102C523.442 143.685 508.684 127.945 490.479 127.945C472.274 127.945 457.515 143.685 457.515 163.102C457.515 182.519 472.274 198.261 490.479 198.261C508.684 198.261 523.442 182.519 523.442 163.102Z" fill="black"/>
<path d="M539.167 354.45C516.931 383.808 521.22 426.832 548.745 450.547C576.271 474.263 616.61 469.689 638.845 440.331C661.08 410.973 656.792 367.949 629.266 344.234C601.741 320.518 561.402 325.092 539.167 354.45ZM568.47 422.316C566.686 424.675 564.086 425.894 561.46 425.894C559.462 425.894 557.464 425.197 555.806 423.763C549.197 418.068 545.064 409.975 544.172 400.97C543.267 391.979 545.717 383.134 551.044 376.099C554.198 371.945 559.889 371.342 563.709 374.652C567.578 377.989 568.181 384.032 565.066 388.16C560.291 394.471 561.208 403.73 567.113 408.809C570.983 412.146 571.586 418.189 568.47 422.316Z" fill="black"/>
<path d="M668.431 329.01C686.721 344.768 713.527 341.728 728.302 322.221C743.077 302.712 740.228 274.123 721.937 258.365C703.647 242.606 676.841 245.645 662.066 265.154C647.291 284.661 650.14 313.25 668.431 329.01ZM676.414 277.502C679.555 273.375 685.221 272.745 689.078 276.081C692.948 279.405 693.538 285.461 690.41 289.589C688.286 292.389 688.701 296.503 691.339 298.781C695.209 302.118 695.8 308.161 692.671 312.288C690.9 314.633 688.299 315.853 685.673 315.853C683.676 315.853 681.678 315.156 680.007 313.709C669.654 304.784 668.046 288.543 676.414 277.502Z" fill="black"/>
<path d="M58.6116 371.515L56.6862 368.142C49.4793 355.512 45.8185 340.943 46.1389 326.162L46.2237 322.214L43.0608 324.268C31.2194 331.955 17.5595 335.859 3.7016 335.517L0 335.427L1.9254 338.8C9.1323 351.43 12.7931 365.997 12.4727 380.779L12.3879 384.727L15.5508 382.674C27.3922 374.987 41.0506 371.083 54.91 371.425L58.6116 371.515Z" fill="black"/>
<path d="M114.951 491.809L112.055 486.732C101.209 467.727 95.6999 445.803 96.182 423.561L96.3108 417.621L91.5507 420.71C73.7321 432.277 53.1778 438.153 32.3235 437.639L26.753 437.502L29.6505 442.579C40.4946 461.583 46.0039 483.506 45.5217 505.748L45.3929 511.69L50.153 508.599C67.9716 497.033 88.526 491.157 109.38 491.672L114.951 491.809Z" fill="black"/>
</svg>
