<svg width="778" height="814" viewBox="0 0 778 814" fill="none" xmlns="http://www.w3.org/2000/svg">
<path fill-rule="evenodd" clip-rule="evenodd" d="M740.79 325.595C761.357 325.595 778 343.008 778 364.526V746.756C778 764.594 771.234 781.688 759.192 794.322C747.149 806.921 730.811 814 713.761 814H64.2387C47.1892 814 30.8507 806.922 18.8083 794.322C6.76593 781.723 0 764.594 0 746.756V364.526C0 343.008 16.6433 325.595 37.2105 325.595H740.822H740.79ZM296.834 559.357C295.481 561.799 295.109 564.701 295.819 567.426C296.496 570.151 298.187 572.487 300.555 573.867L410.431 640.226C414.727 642.809 420.14 641.783 423.286 637.819C442.703 613.505 458.805 601.933 472.539 591.881C488.066 580.591 500.852 570.93 512.388 550.791C540.296 501.916 525.919 440.266 482.417 414.001C438.949 387.741 381.036 405.684 354.243 455.161C340.137 481.209 319.536 518.406 296.837 559.317L296.834 559.357ZM319.499 560.808C340.201 523.47 358.807 489.813 371.898 465.676C392.938 426.816 438.132 411.775 472.3 432.408C506.398 453.005 516.884 501.562 494.964 539.925C485.222 557.019 474.127 564.911 460.968 574.502C447.403 584.376 431.808 595.701 413.305 617.467L319.499 560.808ZM392.769 683.048C394.189 680.606 394.629 677.668 393.953 674.872C393.276 672.112 391.551 669.74 389.183 668.29L283.576 604.479C278.705 601.541 272.515 603.275 269.707 608.372L262.096 622.139C240.987 660.397 251.812 707.891 285.571 728.279C319.331 748.664 364.051 734.72 385.16 696.462C387.731 691.79 390.301 687.296 392.805 683.013L392.769 683.048ZM370.104 681.278L367.533 685.879C352.244 713.59 320.141 724.704 295.684 709.909C271.226 695.151 264.359 660.539 279.649 632.827L282.186 628.226L370.066 681.313L370.104 681.278ZM40.554 304.357V279.583C40.554 258.065 57.1974 240.652 77.7645 240.652H700.19C720.758 240.652 737.401 258.065 737.401 279.583V304.357H40.554ZM84.3269 219.418C98.3316 150.653 156.684 99.0896 226.608 99.0896H348.521C456.769 100.753 554.565 73.7139 596.92 4.88198C599.017 1.48441 602.806 -0.391313 606.629 0.0687629C610.485 0.528847 613.732 3.28938 615.018 7.11159C624.219 34.611 628.346 66.9586 627.027 96.6515C626.248 104.685 625.132 112.436 623.678 119.762C619.212 142.377 611.026 160.887 596.142 165.913C590.222 167.895 586.941 174.548 588.869 180.777C590.763 186.97 597.123 190.403 603.076 188.386C622.358 181.909 636.431 161.488 643.669 133.742C668.634 155.19 686.63 185.201 693.599 219.46L84.3269 219.418Z" fill="black"/>
</svg>
