<svg width="504" height="823" viewBox="0 0 504 823" fill="none" xmlns="http://www.w3.org/2000/svg">
<path d="M449.901 201.346C493.608 240.994 485.136 304.071 458.764 345.869C445.687 366.622 426.788 384.767 408.498 402.306C375.435 434.025 341.287 466.815 338.376 516.607C336.03 556.756 356.753 587.582 376.782 617.403C389.946 636.977 402.372 655.48 408.975 676.698C420.835 714.596 414.362 750.387 390.728 777.493C367.875 803.712 330.425 819.714 285.198 822.571C280.636 822.857 276.161 823 271.774 823C198.872 823 144.693 783.673 126.797 717.806C121.627 698.696 118.282 678.443 115.067 658.833C111.939 639.831 108.724 620.149 103.771 600.968C97.037 574.857 87.3915 547.854 78.0946 521.743C44.6415 427.805 10.0584 330.648 98.2967 248.918C133.532 216.306 183.406 190.124 235.154 177.05C264.871 169.549 297.846 165.442 328.042 165.442C365.535 165.442 417.062 171.693 449.773 201.376L449.901 201.346ZM502.948 66.6526C497.865 33.4694 474.404 0 433.565 0C432.305 0 431.045 0.0357191 429.785 0.107162C411.842 1.00014 396.81 8.39404 385.167 22.1098C367.006 43.5418 360.533 77.4035 369.83 102.621C379.302 128.268 410.018 147.592 441.386 147.592C446.556 147.592 451.682 147.056 456.635 146.02C495.562 137.805 507.944 99.1216 502.948 66.6526ZM289.148 125.447C297.967 125.447 306.135 122.446 312.782 116.838C330.117 102.086 334.505 71.3315 322.644 48.2929C317.996 39.2916 306.873 24.2538 284.542 24.2538C281.023 24.2538 277.287 24.611 273.464 25.3611C259.474 28.0401 249.916 35.9701 245.093 48.9356C237.317 69.9388 244.746 100.05 261.342 114.766C269.032 121.588 279.198 125.482 289.19 125.482L289.148 125.447ZM183.488 145.592C187.355 145.592 191.308 144.949 195.262 143.663C215.117 137.198 219.765 116.053 215.551 97.9425C211.119 78.8688 195.565 58.3301 171.887 58.3301C170.801 58.3301 169.672 58.3658 168.542 58.473C148.035 60.0804 136.696 77.0109 136.044 92.9418C135.48 106.801 143.995 124.017 156.725 134.84C162.503 139.77 171.844 145.628 183.487 145.628L183.488 145.592ZM96.6398 189.169C103.113 189.169 109.456 186.991 115.408 182.669C133.265 169.81 125.835 149.557 123.142 143.663C115.843 127.697 100.116 116.124 85.7781 116.124C79.435 116.124 73.1789 118.303 67.1396 122.553C48.588 135.698 55.6705 155.522 58.2333 161.273C65.5321 177.418 81.695 189.169 96.6398 189.169ZM57.5389 210.387C49.8925 194.992 36.0766 189.527 25.693 189.527C18.6982 189.527 12.3554 191.849 7.79313 196.064C1.40659 201.957 -1.11323 210.958 0.45076 222.068C2.66651 237.641 19.0458 252.393 34.1641 252.393C39.812 252.393 45.2862 250.286 50.4123 246.178C61.1 237.57 63.968 223.175 57.5809 210.351L57.5389 210.387Z" fill="black"/>
</svg>
