<svg width="539" height="815" viewBox="0 0 539 815" fill="none" xmlns="http://www.w3.org/2000/svg">
<path d="M479.111 815C483.082 815 486.89 813.467 489.698 810.737C492.506 808.008 494.083 804.306 494.083 800.446V785.893H434.194V800.446C434.194 804.306 435.772 808.008 438.58 810.737C441.388 813.467 445.196 815 449.167 815H479.111Z" fill="black"/>
<path d="M89.8333 815C93.8042 815 97.6125 813.467 100.42 810.737C103.228 808.008 104.806 804.306 104.806 800.446V785.893H44.9167V800.446C44.9167 804.306 46.4941 808.008 49.3019 810.737C52.1098 813.467 55.918 815 59.8889 815H89.8333Z" fill="black"/>
<path d="M0 727.679C0 735.398 3.15486 742.802 8.77053 748.26C14.3862 753.719 22.0027 756.786 29.9444 756.786H509.056C516.997 756.786 524.614 753.719 530.23 748.26C535.845 742.802 539 735.398 539 727.679V320.179H0V727.679ZM97.3195 349.286C111.045 349.235 124.233 354.467 134.001 363.839H179.667C191.579 363.839 203.004 368.439 211.428 376.627C219.851 384.815 224.583 395.92 224.583 407.5C224.524 419.062 219.773 430.134 211.362 438.309C202.952 446.485 191.561 451.103 179.667 451.161H97.3195C83.4214 451.161 70.0925 445.794 60.2651 436.241C50.4377 426.689 44.9167 413.733 44.9167 400.223C44.9167 386.714 50.4377 373.758 60.2651 364.205C70.0925 354.652 83.4214 349.286 97.3195 349.286Z" fill="black"/>
<path d="M509.056 0H29.9444C22.0027 0 14.3862 3.06664 8.77053 8.52528C3.15486 13.9839 0 21.3874 0 29.1071V291.071H539V29.1071C539 21.3874 535.845 13.9839 530.23 8.52528C524.614 3.06664 516.997 0 509.056 0ZM211.213 249.259C207.101 253.326 202.188 256.547 196.769 258.729C191.349 260.912 185.533 262.012 179.667 261.964H97.3195C88.7247 261.963 80.2622 259.907 72.6777 255.977C65.0931 252.047 58.6194 246.365 53.827 239.429C49.0346 232.494 46.0706 224.52 45.1962 216.209C44.3218 207.898 45.5639 199.505 48.813 191.771C52.0621 184.036 57.2184 177.197 63.8276 171.857C70.4369 166.516 78.296 162.837 86.7126 161.145C95.1292 159.453 103.845 159.799 112.091 162.153C120.338 164.507 127.862 168.796 134.001 174.643H179.667C191.579 174.643 203.004 179.243 211.428 187.431C219.851 195.619 224.583 206.724 224.583 218.304C224.62 224.073 223.454 229.791 221.156 235.111C218.858 240.431 215.476 245.244 211.213 249.259Z" fill="black"/>
<path d="M97.3194 422.054H179.667C181.596 422.071 183.509 421.71 185.292 420.992C187.075 420.274 188.69 419.215 190.042 417.877C191.497 416.544 192.656 414.936 193.446 413.151C194.237 411.366 194.643 409.443 194.639 407.5C194.639 403.64 193.061 399.938 190.254 397.209C187.446 394.48 183.638 392.946 179.667 392.946H127.264C124.94 392.946 122.647 392.42 120.568 391.41C118.489 390.4 116.681 388.932 115.286 387.125C112.989 384.148 109.948 381.791 106.45 380.278C102.953 378.766 99.1153 378.147 95.3026 378.481C91.4898 378.815 87.8283 380.091 84.6656 382.188C81.503 384.284 78.9441 387.132 77.2321 390.46C75.5201 393.789 74.7117 397.487 74.8838 401.204C75.0559 404.922 76.2027 408.535 78.2152 411.7C80.2278 414.865 83.0394 417.478 86.383 419.29C89.7267 421.102 93.4913 422.054 97.3194 422.054Z" fill="black"/>
<path d="M179.667 203.75H127.264C124.94 203.75 122.647 203.224 120.568 202.214C118.489 201.203 116.681 199.736 115.286 197.929C112.989 194.952 109.948 192.595 106.45 191.082C102.953 189.569 99.1153 188.95 95.3026 189.285C91.4898 189.619 87.8283 190.895 84.6656 192.991C81.503 195.088 78.9441 197.936 77.2321 201.264C75.5201 204.592 74.7117 208.291 74.8838 212.008C75.0559 215.725 76.2027 219.338 78.2152 222.504C80.2278 225.669 83.0394 228.282 86.383 230.094C89.7267 231.906 93.4913 232.857 97.3194 232.857H179.667C181.596 232.874 183.509 232.513 185.292 231.796C187.075 231.078 188.69 230.018 190.042 228.68C191.497 227.348 192.656 225.739 193.446 223.955C194.237 222.17 194.643 220.247 194.639 218.304C194.639 214.444 193.061 210.742 190.254 208.013C187.446 205.283 183.638 203.75 179.667 203.75Z" fill="black"/>
</svg>
