<svg width="683" height="822" viewBox="0 0 683 822" fill="none" xmlns="http://www.w3.org/2000/svg">
<path d="M382.41 358.638V22.7712C382.41 10.2067 371.93 0 358.998 0H324.002C311.07 0 300.59 10.2067 300.59 22.7712V358.638C313.215 360.518 326.699 361.712 341.469 361.712C356.301 361.712 369.785 360.548 382.41 358.638Z" fill="black"/>
<path d="M263.909 350.162C265.87 350.789 267.923 351.446 269.946 352.043V50.8247C265.165 44.0799 257.014 39.9614 248.158 41.0059L213.315 45.1245C209.546 45.602 206.297 47.0345 203.386 48.9744C204.03 51.0635 205.317 52.884 205.776 55.0924L263.909 350.162Z" fill="black"/>
<path d="M155.979 252.87L163.886 271.075C164.897 273.314 182.272 309.694 229.832 335.688L175.684 60.7032C173.232 48.3178 161.005 40.23 148.318 42.6176L113.905 49.0341C101.218 51.3918 92.9135 63.3295 95.365 75.685L130.269 252.9L155.979 252.87Z" fill="black"/>
<path d="M42.6262 252.87H99.073L73.0254 120.78C69.3787 120.093 65.6095 119.974 61.7789 121.108L28.3153 131.225C15.9963 134.956 9.10136 147.729 12.9319 159.726L42.6262 252.87Z" fill="black"/>
<path d="M477.224 55.0925C477.622 52.884 478.878 51.0635 479.614 48.9744C476.672 47.0644 473.393 45.602 469.685 45.1245L434.842 40.9761C425.925 39.9316 417.835 44.0799 413.054 50.7949V352.013C415.077 351.416 417.13 350.789 419.091 350.133L477.224 55.0925Z" fill="black"/>
<path d="M519.053 271.105L527.021 252.9H552.762L587.666 75.685C590.117 63.3295 581.813 51.4217 569.126 49.0341L534.712 42.5878C522.026 40.2301 509.798 48.288 507.347 60.6734L453.168 335.688C500.728 309.694 518.042 273.343 519.053 271.105Z" fill="black"/>
<path d="M640.374 252.87L670.068 159.726C673.899 147.729 667.004 134.956 654.685 131.225L621.16 121.108C617.391 119.974 613.621 120.093 609.975 120.78L583.927 252.87H640.374Z" fill="black"/>
<path d="M547.307 282.715C547.307 282.715 500.084 391.527 341.469 391.527C182.916 391.527 135.693 282.715 135.693 282.715H0L89.9104 761.297C96.1924 794.663 129.84 822 164.713 822H518.287C553.191 822 586.808 794.663 593.09 761.297L683 282.715H547.307ZM341.531 698.385C280.487 698.385 231.058 650.246 231.058 590.826C231.058 531.407 280.487 483.268 341.531 483.268C402.513 483.268 451.973 531.407 451.973 590.826C451.942 650.246 402.513 698.385 341.531 698.385Z" fill="black"/>
</svg>
