<svg width="626" height="827" viewBox="0 0 626 827" fill="none" xmlns="http://www.w3.org/2000/svg">
<path d="M91.0779 755.93H534.922V46.5188H91.0779V755.93ZM378.422 103.375H478.479V167.984H378.422V103.375ZM378.422 178.322H478.479V242.931H378.422V178.322ZM373.291 290.742H484.893V697.781H373.291V290.742ZM260.406 103.375H364.311V167.984H260.406V103.375ZM260.406 178.322H364.311V242.931H260.406V178.322ZM257.84 290.742H369.443V697.781H257.84V290.742ZM148.803 103.375H248.861V167.984H148.803V103.375ZM148.803 178.322H248.861V242.931H148.803V178.322ZM141.107 290.742H252.709V697.781H141.107V290.742ZM115.451 396.702C123.148 396.702 129.561 403.162 129.561 412.208C129.561 419.961 123.148 426.422 115.451 426.422C107.754 426.422 101.34 419.961 101.34 412.208C101.34 403.162 107.754 396.702 115.451 396.702ZM115.451 500.077C123.148 500.077 129.561 506.537 129.561 514.291C129.561 522.044 123.148 528.505 115.451 528.505C107.754 528.505 101.34 522.044 101.34 514.291C101.34 506.537 107.754 500.077 115.451 500.077Z" fill="black"/>
<path d="M473.348 302.372H384.836V686.152H473.348V302.372Z" fill="black"/>
<path d="M357.898 302.372H269.385V686.152H357.898V302.372Z" fill="black"/>
<path d="M241.164 302.372H152.652V686.152H241.164V302.372Z" fill="black"/>
<path d="M618.303 776.605H578.537V12.9219C578.537 6.46094 573.406 0 565.709 0H60.291C53.877 0 47.4631 5.16875 47.4631 12.9219V776.605H7.69672C3.84836 776.605 0 780.481 0 784.358V819.247C0 823.123 3.84836 827 7.69672 827H618.303C622.152 827 626 823.123 626 819.247V784.358C626 780.481 622.152 776.605 618.303 776.605ZM73.1188 25.8437H551.598V776.605H73.1188V25.8437Z" fill="black"/>
</svg>
