<svg width="775" height="822" viewBox="0 0 775 822" fill="none" xmlns="http://www.w3.org/2000/svg">
<path d="M114.49 266.032C119.682 263.921 125.145 262.991 130.606 262.919C131.82 256.801 133.607 250.79 135.9 244.994C121.706 229.788 112.939 208.214 111.456 187.748C66.4804 193.186 37.3167 247.177 54.1405 290.608L114.491 266.064L114.49 266.032Z" fill="black"/>
<path d="M144.941 227.645C171.104 185.354 230.814 174.047 269.246 203.637C291.464 135.156 216.718 74.9744 160.477 115.871C125.581 140.559 118.002 193.405 144.941 227.645Z" fill="black"/>
<path d="M275.279 126.103C291.328 151.113 295.138 183.421 285.191 211.759L330.033 201.311C323.93 194.764 318.57 187.178 314.726 178.663L375.818 154.798L367.996 192.509L386.944 188.072L393.552 156.193L414.826 172.472L419.917 153.294L404.509 141.522L426.188 129.679C431.245 101.629 463.443 86.3506 486.302 101.807L519.309 123.024C498.911 -31.8619 296.048 -44.2088 259.227 107.138C265.262 112.648 270.69 118.945 275.242 126.101L275.279 126.103ZM404.444 55.3678C425.718 59.4824 444.43 73.4366 456.13 92.3279L398.207 123.956L404.411 55.3678H404.444ZM350.5 62.9529C361.963 56.6916 374.403 53.5077 386.913 53.3639L380.709 121.666L330.844 77.9084C336.576 72.0049 343.151 66.9601 350.466 62.9529H350.5ZM310.075 113.616C312.367 105.995 315.672 98.8743 319.718 92.3629L370.526 136.944L308.692 161.13C305.017 145.602 305.388 129.251 310.108 113.651L310.075 113.616Z" fill="black"/>
<path d="M199.895 293.19C224.743 294.657 246.995 268.716 248.21 252.903C249.929 241.06 255.796 230.505 264.191 222.885C223.935 186.39 157.752 211.364 148.008 266.034C154.953 268.753 161.292 273.046 166.315 278.95C172.148 285.784 185.128 293.19 199.929 293.19L199.895 293.19Z" fill="black"/>
<path d="M457.344 116.046C450.77 118.801 445.881 124.526 443.959 131.753L428.382 190.394C431.956 193.757 434.721 198.122 436.171 203.167C454.646 268.607 436.879 337.765 394.431 392.117H648.514C682.432 365.748 711.258 332.545 733.477 293.47C735.972 289.069 734.657 283.308 730.477 280.661L477.171 117.898C471.136 114.034 463.886 113.354 457.312 116.109L457.344 116.046ZM459.536 343.209C453.905 343.173 449.354 338.272 449.387 332.261C449.421 326.286 456.231 314.228 459.738 314.265C463.042 314.3 469.852 326.429 469.819 332.44C469.785 338.416 465.166 343.246 459.502 343.21L459.536 343.209ZM584.281 262.134C586.844 259.558 599.52 263.422 603.432 267.787C607.309 272.116 607.141 278.986 603.061 283.136C598.982 287.251 592.508 287.072 588.597 282.743C584.72 278.413 581.888 264.567 584.282 262.17L584.281 262.134ZM536.675 327.609C531.416 329.791 525.482 327.072 523.425 321.491C521.368 315.909 523.391 302.063 526.695 300.703C529.764 299.415 540.383 307.966 542.474 313.548C544.531 319.129 541.968 325.426 536.709 327.609L536.675 327.609ZM520.559 223.384C523.526 221.38 535.293 227.749 538.327 232.793C541.362 237.838 539.98 244.565 535.226 247.784C530.472 251.005 524.133 249.538 521.099 244.493C518.065 239.448 517.761 225.315 520.56 223.419L520.559 223.384ZM481.382 239.807C484.619 239.163 493.519 249.717 494.564 255.586C495.609 261.489 491.934 267.142 486.371 268.215C480.808 269.325 475.482 265.425 474.47 259.521C473.425 253.618 477.943 240.451 481.415 239.772L481.382 239.807Z" fill="black"/>
<path d="M677.196 392.084H720.486C740.648 370.366 758.517 346.072 773.723 319.381C776.252 314.98 774.903 309.22 770.756 306.537L751.673 294.228C751.067 297.269 750.123 300.239 748.538 303.066C729.185 337.128 705.147 367.003 677.197 392.048L677.196 392.084Z" fill="black"/>
<path d="M419.315 208.501C418.001 203.814 413.483 200.988 408.999 202.061L375.486 209.861C398.952 276.982 366.011 349.258 300.57 392.088H371.17C416.989 340.852 437.421 272.617 419.315 208.501Z" fill="black"/>
<path d="M120.8 283.49L54.7854 310.36C61.3599 347.784 83.5106 374.512 118.845 392.079H261.362C339.75 358.483 383.613 283.128 358.229 213.901L288.573 230.144C276.672 232.899 267.467 243.204 265.647 255.762C262.849 275.155 247.171 299.985 219.389 308.823C191.642 317.66 165.613 306.032 153.24 291.506C145.215 282.061 132.162 278.874 120.8 283.49Z" fill="black"/>
<path d="M24.3374 392.331C25.1466 392.295 25.8883 392.081 26.6975 392.081H84.2498C59.9748 372.474 44.1625 348.359 38.1613 317.124L5.66 330.362C1.37819 332.115 -0.948158 337.088 0.366707 341.775C5.59259 360.344 13.8528 377.232 24.3379 392.367L24.3374 392.331Z" fill="black"/>
<path d="M748.342 410.76H26.7032C12.1382 410.474 -0.437367 424.356 0.304046 439.848C1.28178 577.991 64.2278 710.876 127.276 766.08C133.547 771.983 141.74 775.275 150.372 775.275H624.712C633.343 775.275 641.536 772.019 647.773 766.116C684.759 735.882 753.505 631.124 767.97 515.056C771.713 490.583 774.005 465.287 774.781 439.813C775.523 424.392 762.947 410.403 748.382 410.724L748.342 410.76ZM740.858 560.315H34.1847C31.0829 547.935 28.4531 535.592 26.2954 522.926H748.815C746.59 535.628 743.926 548.151 740.858 560.315Z" fill="black"/>
<path d="M182.866 822H590.082C604.647 822 616.515 809.406 616.515 793.949H156.433C156.433 809.406 168.301 822 182.866 822Z" fill="black"/>
</svg>
