<svg width="427" height="526" viewBox="0 0 427 526" fill="none" xmlns="http://www.w3.org/2000/svg">
<path d="M397.929 93.7421H28.4233C12.7197 93.7421 0 106.328 0 121.867C0 137.406 12.7197 149.992 28.4233 149.992H397.929C413.633 149.992 426.352 137.406 426.352 121.867C426.352 106.328 413.633 93.7421 397.929 93.7421Z" fill="black"/>
<path d="M59.7844 466.306C61.2766 484.493 73.2857 500.196 90.5762 506.525C130.061 519.673 171.538 525.931 213.177 524.993C254.817 525.931 296.291 519.673 335.778 506.525C353.069 500.196 365.077 484.493 366.569 466.306L390.918 168.742H35.4377L59.7844 466.306Z" fill="black"/>
<path d="M81.6681 74.2181C116.155 60.0851 148.653 41.5697 178.329 19.1399C206.681 22.8664 230.509 42.0149 240.032 68.7101C241.761 73.5851 247.185 76.1633 252.112 74.4757C257.062 72.7648 259.668 67.3975 257.939 62.5225C251.757 45.3895 240.719 30.3895 226.152 19.3039C211.609 8.24114 194.129 1.53854 175.819 0.0151352C173.308 -0.125487 170.869 0.718277 168.974 2.35886C142.137 25.9371 98.011 46.7259 74.09 57.0153C69.4001 59.1481 67.2921 64.6089 69.3528 69.2967C71.4135 73.9845 76.8839 76.1632 81.6681 74.2181Z" fill="black"/>
<path d="M275.28 31.7261C281.202 27.6948 286.838 23.4761 292.026 19.1165V19.1399C320.378 22.8664 344.207 42.0149 353.73 68.7101C355.459 73.5851 360.883 76.1633 365.809 74.4757C370.76 72.7648 373.365 67.3975 371.636 62.5225C365.454 45.3895 354.417 30.3895 339.849 19.3039C325.283 8.24114 307.826 1.53854 289.516 0.0151367C279.568 1.30418 273.765 11.6167 264.575 16.2571C260.264 19.1868 259.175 25.0225 262.135 29.2885C265.072 33.5542 270.969 34.6557 275.28 31.7261Z" fill="black"/>
</svg>
