<svg width="825" height="760" viewBox="0 0 825 760" fill="none" xmlns="http://www.w3.org/2000/svg">
<path fill-rule="evenodd" clip-rule="evenodd" d="M825 76C825 55.8448 816.964 36.5104 802.633 22.2528C788.303 7.9952 768.869 0 748.611 0C600.631 0 224.369 0 76.3889 0C56.1306 0 36.6972 7.9952 22.3667 22.2528C8.03611 36.5104 0 55.8448 0 76C0 213.408 0 546.592 0 684C0 704.155 8.03611 723.49 22.3667 737.747C36.6972 752.005 56.1306 760 76.3889 760C224.369 760 600.631 760 748.611 760C768.869 760 788.303 752.005 802.633 737.747C816.964 723.49 825 704.155 825 684V76ZM733.333 471.2C733.333 459.101 728.506 447.518 719.919 438.946C711.303 430.403 699.661 425.6 687.5 425.6C640.536 425.6 551.131 425.6 504.167 425.6C492.006 425.6 480.364 430.403 471.747 438.946C463.161 447.518 458.333 459.101 458.333 471.2C458.333 511.662 458.333 582.738 458.333 623.2C458.333 635.299 463.161 646.882 471.747 655.454C480.364 663.997 492.006 668.8 504.167 668.8C551.131 668.8 640.536 668.8 687.5 668.8C699.661 668.8 711.303 663.997 719.919 655.454C728.506 646.882 733.333 635.299 733.333 623.2V471.2ZM137.5 577.6C112.2 577.6 91.6667 598.029 91.6667 623.2C91.6667 648.371 112.2 668.8 137.5 668.8C162.8 668.8 183.333 648.371 183.333 623.2C183.333 598.029 162.8 577.6 137.5 577.6ZM259.722 577.6C234.422 577.6 213.889 598.029 213.889 623.2C213.889 648.371 234.422 668.8 259.722 668.8C285.022 668.8 305.556 648.371 305.556 623.2C305.556 598.029 285.022 577.6 259.722 577.6ZM381.944 577.6C356.644 577.6 336.111 598.029 336.111 623.2C336.111 648.371 356.644 668.8 381.944 668.8C407.244 668.8 427.778 648.371 427.778 623.2C427.778 598.029 407.244 577.6 381.944 577.6ZM702.778 556.107V471.2C702.778 467.157 701.158 463.296 698.317 460.438C695.444 457.611 691.564 456 687.5 456C640.536 456 551.131 456 504.167 456C500.103 456 496.222 457.611 493.35 460.438C490.508 463.296 488.889 467.157 488.889 471.2C488.889 511.662 488.889 582.738 488.889 623.2C488.889 627.243 490.508 631.104 493.35 633.962C496.222 636.789 500.103 638.4 504.167 638.4H528.397L624.525 542.762C642.431 524.947 671.458 524.947 689.364 542.762L702.778 556.107ZM554.889 476.763C529.589 476.763 509.056 497.192 509.056 522.363C509.056 547.504 529.589 567.963 554.889 567.963C580.189 567.963 600.722 547.504 600.722 522.363C600.722 497.192 580.189 476.763 554.889 476.763ZM381.944 547.2H137.5C112.2 547.2 91.6667 526.771 91.6667 501.6C91.6667 448.947 91.6667 341.453 91.6667 288.8C91.6667 263.629 112.2 243.2 137.5 243.2C196.044 243.2 323.4 243.2 381.944 243.2C407.244 243.2 427.778 263.629 427.778 288.8V501.6C427.778 526.771 407.244 547.2 381.944 547.2ZM397.222 395.93V288.8C397.222 280.41 390.378 273.6 381.944 273.6C323.4 273.6 196.044 273.6 137.5 273.6C129.067 273.6 122.222 280.41 122.222 288.8V495.155L154.947 462.597C163.564 454.054 175.206 449.251 187.367 449.251C198.642 449.251 209.489 453.386 217.861 460.803L307.725 371.397C316.342 362.854 327.983 358.051 340.144 358.051C352.306 358.051 363.947 362.854 372.564 371.397L397.222 395.93ZM217.922 315.035C192.622 315.035 172.089 335.494 172.089 360.635C172.089 385.806 192.622 406.235 217.922 406.235C243.222 406.235 263.756 385.806 263.756 360.635C263.756 335.494 243.222 315.035 217.922 315.035ZM733.333 288.8C733.333 263.629 712.8 243.2 687.5 243.2C640.536 243.2 551.131 243.2 504.167 243.2C478.867 243.2 458.333 263.629 458.333 288.8C458.333 307.374 458.333 331.026 458.333 349.6C458.333 374.771 478.867 395.2 504.167 395.2C551.131 395.2 640.536 395.2 687.5 395.2C712.8 395.2 733.333 374.771 733.333 349.6V288.8ZM794.444 152V76C794.444 63.9008 789.617 52.3184 781.031 43.7456C772.414 35.2032 760.772 30.4 748.611 30.4C600.631 30.4 224.369 30.4 76.3889 30.4C64.2278 30.4 52.5861 35.2032 43.9694 43.7456C35.3833 52.3184 30.5556 63.9008 30.5556 76V152H794.444ZM565.278 106.613H595.833C604.267 106.613 611.111 99.8032 611.111 91.4128C611.111 83.0224 604.267 76.2128 595.833 76.2128H565.278C556.844 76.2128 550 83.0224 550 91.4128C550 99.8032 556.844 106.613 565.278 106.613ZM656.944 106.613H748.611C757.044 106.613 763.889 99.8032 763.889 91.4128C763.889 83.0224 757.044 76.2128 748.611 76.2128H656.944C648.511 76.2128 641.667 83.0224 641.667 91.4128C641.667 99.8032 648.511 106.613 656.944 106.613Z" fill="black"/>
</svg>
