<svg width="819" height="641" viewBox="0 0 819 641" fill="none" xmlns="http://www.w3.org/2000/svg">
<path d="M817.695 484.015C816.401 476.899 826.311 485.406 544.826 370.592C544.715 370.552 544.604 370.512 544.493 370.473C433.003 326.743 461.917 335.529 445.499 332.111C420.944 147.092 422.645 158.226 421.943 156.791L403.38 169.552C401.642 165.1 398.24 161.522 393.876 159.455L413.438 145.938C411.589 144.945 424.051 149.993 40.0228 1.11952C27.4131 -3.73044 20.4238 8.47405 13.6191 13.0063C5.15085 15.1927 -1.43109 24.4554 0.26914 34.6721L66.1292 474.991C67.1647 481.948 71.3803 487.514 77.2971 489.819L437.961 639.726C443.582 641.952 449.35 641.117 453.16 638.335L803.24 529.369C811.634 526.825 819.03 516.489 818.993 512.792C818.993 501.741 819.174 492.363 817.695 484.015ZM449.193 346.544L523.225 376.399C501.999 384.191 478.332 392.778 474.93 393.851C473.155 394.169 471.528 395.321 470.566 397.071C468.902 400.092 469.679 403.988 472.341 406.055C472.785 406.373 473.155 406.691 473.672 406.85L574.995 458.849C575.698 459.365 576.215 459.803 577.547 459.803C582.169 459.803 596.443 454.674 660.27 431.657L805.821 490.334C806.006 492.083 806.08 493.912 806.154 495.74C802.456 493.753 798.129 493.156 794.099 494.349C793.951 494.349 713.927 518.678 637.121 542.014C550.516 559.188 501.075 579.064 486.392 583.039C481.585 580.495 477.85 575.605 476.962 569.364L472.229 533.625C526.736 556.642 524.48 556.325 526.773 556.325C533.725 556.325 535.537 545.989 529.103 543.245L490.237 526.708L515.827 517.525L577.471 543.762C580.541 545.113 584.313 543.563 585.644 539.945C586.938 536.487 585.348 532.511 582.094 531.16L534.39 510.846L559.166 501.941L610.494 523.805C613.6 525.157 617.372 523.606 618.703 519.989C619.998 516.49 618.408 512.555 615.153 511.163L577.767 495.262L596.738 488.464C600.029 487.271 601.841 483.415 600.732 479.877C599.622 476.299 596.035 474.391 592.744 475.583L559.537 487.51L525.183 472.88L539.346 468.15C542.674 467.037 544.523 463.22 543.488 459.642C542.452 456.064 538.976 454.037 535.574 455.19L506.471 464.89L464.426 447.001C463.205 446.484 461.948 446.484 460.765 446.802L447.415 346.145C447.933 346.304 448.601 346.385 449.193 346.544ZM467.313 496.889L497.525 509.729L470.308 519.509L467.313 496.889ZM480.293 487.825L505.882 479.278L540.865 494.185L516.088 503.09L480.293 487.825ZM464.909 478.761L462.543 460.832L487.208 471.327L464.909 478.761ZM442.426 627.04C58.5403 466.396 79.4333 478.842 78.5813 472.838C8.80109 2.19189 10.7976 31.5729 14.0523 27.8685C18.5638 21.9054 3.18069 21.8657 380.036 168.321C385.768 171.184 391.463 171.025 392.091 176.312C455.215 665.959 439.906 547.142 449.446 621.078C449.964 625.173 446.013 628.551 442.426 627.04Z" fill="black"/>
<path d="M328.454 449.83C345.797 441.084 351.751 426.018 346.241 406.578C341.212 388.887 323.462 380.38 306.895 392.465C312.22 366.427 300.202 346.709 287.555 344.483C244.621 336.93 261.965 438.779 270.286 449.55C273.429 453.605 277.792 455.315 281.861 456.03C297.429 458.694 314.328 456.946 328.454 449.83Z" fill="black"/>
<path d="M386.996 548.344L290.587 512.247C287.37 511.054 283.709 512.883 282.562 516.421C281.416 519.959 283.154 523.815 286.445 525.048L382.855 561.144C386.072 562.337 389.733 560.548 390.879 556.97C392.025 553.432 390.287 549.576 386.996 548.344Z" fill="black"/>
<path d="M542.535 231.696L610.688 219.889C614.127 219.292 616.456 215.834 615.902 212.137C615.347 208.44 612.019 205.816 608.691 206.531L540.538 218.298C532.439 219.69 534.066 233.048 542.535 231.696Z" fill="black"/>
<path d="M524.633 190.795C547.412 169.805 571.782 150.126 597.075 132.317C599.997 130.289 600.81 126.075 598.887 122.935C596.965 119.794 593.045 118.92 590.16 120.987C564.385 139.114 539.572 159.111 516.386 180.499C513.724 182.924 513.428 187.217 515.683 190.08C518.05 192.942 522.008 193.18 524.633 190.795Z" fill="black"/>
<path d="M518.347 69.1082C515.093 67.7963 511.432 69.5057 510.212 73.0438C502.964 93.4772 491.204 127.507 481.553 154.777C478.595 163.166 490.391 167.976 493.349 159.588C502.964 132.356 512.246 105.403 522.008 77.8541C523.265 74.3557 521.638 70.4201 518.347 69.1082Z" fill="black"/>
<path d="M168.485 145.12C125.035 135.102 90.3844 170.125 90.3844 220.891C90.3844 299.723 168.818 359.757 218.479 316.618C270.804 271.139 236.823 160.905 168.485 145.12ZM210.531 306.08C169.447 341.739 102.998 288.866 102.998 220.887C102.998 178.947 130.178 150.165 165.863 158.394C225.363 172.149 253.611 268.628 210.531 306.08Z" fill="black"/>
<path d="M193.146 197.318C187.192 195.927 182.348 208.529 182.348 225.384C182.348 242.28 187.192 257.068 193.146 258.46C199.1 259.851 203.944 247.249 203.944 230.393C203.944 213.498 199.136 198.709 193.146 197.318Z" fill="black"/>
<path d="M145.594 249.19C151.548 250.582 156.392 237.979 156.392 221.124C156.392 204.228 151.548 189.44 145.594 188.049C139.641 186.658 134.797 199.26 134.797 216.115C134.797 233.011 139.641 247.839 145.594 249.19Z" fill="black"/>
<path d="M198.106 274.114C181.54 286.954 158.612 278.884 144.154 262.427C141.787 259.684 137.793 259.564 135.242 262.148C132.69 264.732 132.579 269.026 134.983 271.729C156.911 296.774 186.643 299.716 205.465 285.166C208.276 282.979 208.941 278.726 206.908 275.704C204.874 272.604 200.917 271.928 198.106 274.114Z" fill="black"/>
</svg>
