<svg width="773" height="819" viewBox="0 0 773 819" fill="none" xmlns="http://www.w3.org/2000/svg">
<path d="M551.637 783.332C551.637 792.673 558.25 800.249 566.439 800.249H614.805C622.956 800.249 629.607 792.672 629.607 783.332V745.007C639.988 739.956 647.216 728.972 647.254 716.303C647.408 681.066 648.139 645.748 655.943 601.413C657.097 594.839 656.481 588.103 654.098 581.89C643.948 555.352 628.031 545.41 611.268 528.011C629.646 529.054 653.521 521.517 654.597 501.312C654.597 486.319 637.296 474.573 615.189 474.573C605.193 474.332 595.158 478.983 590.814 488.444C585.624 473.25 576.127 445.669 571.591 432.881C563.902 411.233 550.061 394.236 530.415 382.409C500.926 363.327 442.141 364.169 381.166 364.329C292.739 365.692 231.337 358.717 200.855 432.881C198.164 440.498 193.627 453.646 189.244 466.314C189.167 466.555 189.09 466.836 188.975 467.116C186.438 474.452 184.016 481.589 182.055 487.321C178.21 481.067 172.405 477.459 166.1 475.776C165.331 475.535 164.562 475.375 163.793 475.215C142.339 471.526 117.003 484.635 117.887 501.353C118.964 521.558 142.8 529.093 161.216 528.052C144.415 545.45 128.498 555.312 118.386 581.931C116.041 588.104 115.387 594.839 116.541 601.413C124.384 645.911 125.153 681.189 125.23 716.304C125.268 728.972 132.496 739.956 142.877 745.007V783.332C142.877 792.673 149.49 800.249 157.679 800.249H206.045C214.195 800.249 220.847 792.673 220.847 783.332V747.974H233.765C237.532 743.805 242.338 740.318 245.914 735.948C256.987 723.721 266.598 711.814 285.437 711.734H487.046C505.885 711.814 515.496 723.681 526.569 735.948C530.144 740.317 534.912 743.805 538.718 747.974H551.636L551.637 783.332ZM262.254 418.884C281.862 405.695 339.878 406.296 391.316 406.457C459.136 408.302 515.497 399.282 533.724 447.508C537.3 457.53 544.49 478.496 549.795 493.85C506.658 502.99 265.825 502.99 222.696 493.85C227.963 478.456 235.229 457.53 238.767 447.508C243.15 435.161 250.839 425.78 262.257 418.925L262.254 418.884ZM311.427 650.071C311.427 643.497 316.579 638.125 322.885 638.125H449.683C455.988 638.125 461.141 643.497 461.141 650.071V663.461C461.141 670.035 455.989 675.408 449.683 675.408H322.885C316.58 675.408 311.427 670.036 311.427 663.461V650.071ZM165.181 582.603C187.364 581.6 230.156 596.312 243.458 602.928C253.8 608.62 250.224 639.007 242.458 646.063C232.001 654.562 182.904 654.642 165.18 639.007C154.608 627.863 151.763 584.888 165.181 582.603ZM530.113 646.023C522.347 638.967 518.734 608.58 529.114 602.888C539.533 597.115 573.673 586.451 594.281 583.284C599.894 582.402 604.508 582.121 607.352 582.603C620.77 584.888 617.925 627.863 607.352 639.007C589.628 654.641 540.532 654.561 530.074 646.063L530.113 646.023Z" fill="black"/>
<path d="M502.516 806.974C497.671 802.644 493.058 800.319 486.714 800.319H285.104C272.955 800.159 265.996 810.341 257.808 819H513.934C510.166 814.911 505.86 809.98 502.438 806.973L502.516 806.974Z" fill="black"/>
<path d="M766.514 155.709L755.788 151.099L400.501 2.9265C395.811 1.00225 390.851 0 385.891 0C380.931 0 375.972 0.96213 371.243 2.96653L17.1468 151.139L6.45901 155.749C2.57593 157.433 0 161.401 0 165.771V713.858C0 719.872 4.69045 724.723 10.4191 724.723H54.671C60.438 724.723 65.09 719.832 65.09 713.858C65.0132 643.503 65.1285 306.441 65.09 243.736H707.91V713.858C707.91 719.872 712.562 724.723 718.291 724.723H762.581C768.348 724.723 773 719.832 773 713.858L772.962 165.771C772.962 161.361 770.424 157.433 766.503 155.749L766.514 155.709Z" fill="black"/>
<path d="M88.1343 312.897L684.823 312.937V267.798L88.1343 267.758V312.897Z" fill="black"/>
</svg>
