<svg width="792" height="739" viewBox="0 0 792 739" fill="none" xmlns="http://www.w3.org/2000/svg">
<path d="M737.224 509.666C729.714 509.666 709.504 509.793 695.44 577.323C687.93 566.238 679.054 560.631 668.949 560.631C658.162 560.631 648.74 567.002 640.957 579.489C627.028 522.534 607.911 522.407 600.674 522.407C592.207 522.407 581.556 525.847 571.725 546.106C568.038 529.797 563.532 515.017 558.069 504.314C560.8 488.515 564.214 473.48 567.901 458.7H587.018C639.727 458.7 682.609 418.692 682.609 369.506C682.609 362.498 676.464 356.765 668.954 356.765H641.643C625.803 356.765 611.056 360.46 597.811 366.703C602.999 354.217 608.325 341.73 614.197 329.626C621.161 331.41 628.671 331.792 636.045 330.645C648.881 328.734 660.351 322.873 668.954 313.826C677.557 322.873 689.027 328.734 701.863 330.645C704.73 331.027 707.598 331.282 710.465 331.282C722.209 331.282 733.679 327.715 743.374 320.962C766.587 304.78 772.869 274.201 758.668 250.884C784.34 240.054 797.995 211.896 789.119 185.775C784.476 172.015 774.372 160.802 760.853 154.304C749.519 148.953 736.82 147.424 724.53 149.844C721.663 122.96 697.903 101.937 668.954 101.937C640.005 101.937 616.245 122.96 613.377 149.844C601.088 147.424 588.388 148.953 577.055 154.304C563.536 160.802 553.431 172.015 548.788 185.775C539.912 211.895 553.567 240.053 579.239 250.884C565.994 272.672 570.637 300.83 590.163 317.393C574.46 349.629 561.351 383.521 550.973 417.539C550.973 417.921 550.7 418.43 550.563 418.94C550.29 419.577 550.154 420.214 550.017 420.851C549.061 423.272 548.378 425.693 548.242 427.095C542.916 444.805 538.138 464.044 534.041 484.303C533.494 484.176 532.948 484.176 532.402 484.176C523.799 484.176 503.317 484.303 489.661 563.809C482.424 553.233 473.958 547.882 464.126 547.882C453.066 547.882 443.643 554.635 435.86 568.141C429.851 543.424 421.386 523.165 409.505 514.373V356.763H423.161C475.869 356.763 518.751 316.755 518.751 267.569C518.751 260.561 512.606 254.828 505.096 254.828H477.786C451.021 254.828 426.852 265.148 409.51 281.712V222.21C415.382 225.395 421.799 227.689 428.763 228.708C431.631 229.09 434.499 229.345 437.366 229.345C449.11 229.345 460.58 225.778 470.275 219.025C493.488 202.843 499.77 172.264 485.569 148.947C511.24 138.117 524.896 109.959 516.02 83.8384C511.377 70.0777 501.272 58.8653 487.754 52.367C476.42 47.0157 463.72 45.4867 451.431 47.9075C448.564 21.023 424.803 0 395.854 0C366.905 0 343.146 21.023 340.278 47.9075C327.988 45.4866 315.288 47.0156 303.955 52.367C290.436 58.8652 280.332 70.0777 275.689 83.8384C266.813 109.958 280.468 138.116 306.14 148.947C291.939 172.264 298.22 202.843 321.434 219.025C333.451 227.434 348.198 230.874 362.946 228.708C369.91 227.689 376.327 225.396 382.199 222.21V370.899C364.857 354.335 340.688 344.014 313.923 344.014H286.613C279.103 344.014 272.958 349.748 272.958 356.756C272.958 405.937 315.835 445.949 368.548 445.949H382.204V514.37C370.323 523.162 361.858 543.421 355.849 568.139C348.066 554.634 338.643 547.88 327.583 547.88C317.751 547.88 309.422 553.232 302.185 563.68C288.393 484.301 267.91 484.173 259.308 484.173C258.762 484.173 258.215 484.173 257.669 484.301C253.573 464.169 248.93 445.185 243.741 428.239V427.602C243.331 425.691 242.785 423.525 241.965 421.104C241.692 420.339 241.419 419.575 241.146 418.683V418.428C241.146 418.428 241.01 418.173 240.873 418.046C230.495 383.516 217.386 349.625 201.819 317.387C221.346 300.695 225.852 272.664 212.607 250.877C238.278 240.047 251.934 211.889 243.058 185.769C238.415 172.008 228.31 160.796 214.791 154.297C203.457 148.946 190.758 147.417 178.469 149.838C175.602 122.953 151.841 101.93 122.892 101.93C93.9434 101.93 70.1838 122.953 67.3156 149.838C55.0264 147.417 42.3264 148.946 30.9933 154.297C17.4744 160.796 7.37004 172.008 2.72684 185.769C-6.1488 211.888 7.5062 240.047 33.1781 250.877C18.9767 274.194 25.2581 304.774 48.4719 320.955C60.4884 329.364 75.236 332.805 89.9836 330.639C102.82 328.727 114.289 322.867 122.892 313.82C131.495 322.867 142.966 328.727 155.801 330.639C158.669 331.021 161.536 331.276 164.404 331.276C168.91 331.276 173.416 330.766 177.786 329.619C183.521 341.724 188.846 354.21 194.035 366.697C180.79 360.454 166.043 356.758 150.203 356.758H122.892C115.382 356.758 109.237 362.492 109.237 369.5C109.237 418.681 152.114 458.693 204.828 458.693H224.081C227.768 473.218 231.045 488.38 233.913 504.308C228.314 515.011 223.808 529.79 220.121 546.099C210.29 525.84 199.638 522.401 191.172 522.401C183.935 522.401 164.818 522.528 150.889 579.482C143.106 566.996 133.683 560.625 122.897 560.625C112.792 560.625 104.053 566.231 96.5423 577.188C82.4772 509.787 62.1313 509.66 54.6207 509.66C2.5947 509.66 0 690.077 0 726.259C0 733.266 6.14478 739 13.6552 739H778.345C785.855 739 792 733.266 792 726.259C792 690.073 789.405 509.66 737.379 509.66L737.224 509.666ZM668.948 184.506C691.479 184.506 709.914 201.58 709.914 222.73C709.914 243.881 691.479 260.955 668.948 260.955C646.418 260.955 627.983 243.753 627.983 222.73C627.983 201.707 646.418 184.506 668.948 184.506ZM641.638 382.252H653.927C647.646 411.303 619.926 433.218 587.017 433.218H574.728C581.01 404.167 608.729 382.252 641.638 382.252ZM477.776 280.321H490.065C483.784 309.372 456.064 331.287 423.155 331.287H410.866C417.148 302.237 444.867 280.321 477.776 280.321ZM368.535 420.48C335.626 420.48 307.906 398.565 301.625 369.515H313.914C346.823 369.515 374.543 391.43 380.824 420.48H368.535ZM122.742 260.963C100.211 260.963 81.7761 243.762 81.7761 222.739C81.7761 201.716 100.211 184.514 122.742 184.514C145.272 184.514 163.707 201.588 163.707 222.739C163.707 243.889 145.272 260.963 122.742 260.963ZM204.673 433.226C171.764 433.226 144.044 411.311 137.763 382.26H150.052C182.961 382.26 210.681 404.176 216.962 433.226H204.673ZM136.533 713.536H95.5676C96.2504 684.868 99.2546 656.837 104.034 633.775C110.861 602.05 119.191 589.691 122.741 586.633C126.428 589.691 134.758 602.177 141.449 634.031C138.581 658.748 136.943 685.887 136.533 713.536ZM273.225 713.536H231.986C232.395 678.752 234.307 644.35 237.448 613.138C242.227 565.485 250.42 528.152 259.432 512.993C265.441 523.313 275.819 553.638 282.1 621.545C276.775 648.302 273.771 679.773 273.225 713.536ZM354.883 120.804C354.883 99.6525 373.318 82.5795 395.849 82.5795C418.379 82.5795 436.814 99.6533 436.814 120.804C436.814 141.954 418.379 159.028 395.849 159.028C373.318 159.028 354.883 141.827 354.883 120.804ZM368.675 713.536C368.948 681.045 370.859 652.887 373.454 629.186C379.326 577.456 388.884 546.491 395.848 537.065C402.813 546.493 412.371 577.455 418.243 629.056C420.837 652.882 422.749 681.04 423.022 713.528L368.675 713.536ZM518.475 713.536C517.929 679.899 514.925 648.3 509.736 621.668C515.881 553.501 526.258 523.308 532.267 512.985C541.279 528.02 549.473 565.224 554.251 611.988V613.262C557.392 644.351 559.304 678.753 559.713 713.538L518.475 713.536ZM655.167 713.536C654.757 685.887 653.118 658.748 650.251 634.157C656.942 602.176 665.272 589.69 668.958 586.632C672.509 589.69 680.838 602.049 687.665 633.647C692.445 656.837 695.449 684.74 696.132 713.536H655.167Z" fill="black"/>
</svg>
