<svg width="533" height="805" viewBox="0 0 533 805" fill="none" xmlns="http://www.w3.org/2000/svg">
<path d="M515.216 292.894L474.501 417.547L401.485 340.363C401.158 340.22 400.995 339.932 400.831 339.803L389.051 327.425L409.082 266.026C412.365 255.884 419.311 246.959 428.871 240.599C438.43 234.239 450.083 230.791 462.067 230.776C470.619 230.82 479.044 232.601 486.686 235.98C494.327 239.358 500.979 244.244 506.123 250.256C511.266 256.267 514.763 263.243 516.34 270.639C517.918 278.034 517.533 285.651 515.216 292.894Z" fill="black"/>
<path d="M460.613 727.851L413.755 762.827C393.554 778.018 370.113 789.511 344.803 796.636C319.494 803.761 292.824 806.373 266.353 804.321C239.882 802.269 214.142 795.594 190.638 784.685C167.135 773.776 146.339 758.853 129.467 740.789L9.75623 614.713C6.25559 611.098 3.60385 606.909 1.95431 602.387C0.304768 597.865 -0.309881 593.1 0.145892 588.368C0.601664 583.636 2.11882 579.03 4.60967 574.817C7.10052 570.604 10.5157 566.867 14.6577 563.822L23.0393 557.784C30.3791 552.275 39.7128 549.252 49.3604 549.259C50.6587 549.235 51.9575 549.283 53.2489 549.403C62.1024 549.878 70.4936 553.044 76.9886 558.359L158.419 643.177C159.954 644.764 161.859 646.042 164.004 646.925C166.149 647.808 168.484 648.275 170.852 648.295C174.653 648.287 178.323 647.078 181.195 644.888C184.442 642.468 186.469 639.016 186.833 635.285C187.197 631.555 185.869 627.849 183.139 624.977L104.944 543.106C103.489 541.539 102.199 540.231 101.872 539.972L69.1952 505.47C62.2812 498.12 58.9448 488.665 59.9117 479.162C60.8785 469.659 66.0703 460.876 74.3581 454.724L82.4293 448.614C90.6606 442.437 101.34 439.386 112.125 440.13C122.91 440.874 132.92 445.352 139.957 452.581C139.977 452.581 139.998 452.585 140.017 452.592C140.036 452.6 140.053 452.611 140.067 452.624C140.081 452.638 140.091 452.654 140.098 452.671C140.104 452.689 140.106 452.707 140.104 452.725C140.805 453.615 141.564 454.469 142.375 455.284L251.58 569.86C253.034 571.377 254.837 572.605 256.871 573.463C258.904 574.32 261.122 574.788 263.377 574.834C265.654 574.863 267.915 574.488 270.024 573.729C272.132 572.971 274.045 571.845 275.647 570.421C278.446 567.902 280.081 564.556 280.232 561.035C280.383 557.514 279.04 554.07 276.464 551.373L165.183 434.612C165.099 434.605 165.02 434.573 164.96 434.52C164.9 434.468 164.864 434.398 164.856 434.324C160.187 427.894 157.663 420.441 157.569 412.811C157.476 405.182 159.818 397.682 164.329 391.165C168.84 384.649 175.338 379.377 183.085 375.949C190.833 372.521 199.518 371.075 208.153 371.775C214.207 372.248 220.095 373.773 225.474 376.263C230.853 378.753 235.617 382.158 239.49 386.28L272.167 420.538C272.64 421.098 273.294 421.53 273.801 422.105L334.056 484.927C335.415 486.355 337.079 487.534 338.955 488.396C340.831 489.259 342.881 489.787 344.99 489.952C347.098 490.117 349.222 489.915 351.241 489.357C353.261 488.8 355.135 487.898 356.759 486.703C358.382 485.508 359.721 484.043 360.701 482.392C361.681 480.742 362.282 478.938 362.469 477.083C362.657 475.228 362.427 473.359 361.793 471.582C361.16 469.805 360.134 468.156 358.776 466.727L297.279 402.525L296.805 402.093L148.975 246.834C145.08 242.762 142.134 238.055 140.306 232.981C138.478 227.907 137.804 222.566 138.323 217.263C138.835 211.896 140.572 206.676 143.43 201.913C146.287 197.151 150.207 192.945 154.955 189.546C164.364 182.621 176.504 179.251 188.727 180.173C194.779 180.646 200.665 182.17 206.044 184.657C211.423 187.144 216.188 190.546 220.064 194.664L376.438 358.419C376.601 358.707 376.928 358.851 377.092 359.124L485.807 473.987C520.263 510.763 536.928 557.972 532.216 605.453C527.504 652.933 501.791 696.886 460.613 727.851Z" fill="black"/>
<path d="M340.575 208.307C338.107 209.523 335.325 210.162 332.496 210.162C329.667 210.162 326.885 209.523 324.417 208.307C211.502 151.162 190.818 99.2799 193.252 65.5972C194.202 52.4881 199.256 39.866 207.855 29.1282C216.454 18.3904 228.263 9.9559 241.973 4.75847C281.545 -9.45927 314.99 11.2995 332.439 26.2217C349.888 11.2995 383.317 -9.45927 422.904 4.75847C436.627 9.9476 448.449 18.3785 457.06 29.1169C465.671 39.8553 470.735 52.4818 471.691 65.5972C474.174 99.2799 453.506 151.162 340.575 208.307Z" fill="black"/>
</svg>
