<svg width="815" height="793" viewBox="0 0 815 793" fill="none" xmlns="http://www.w3.org/2000/svg">
<path d="M655.307 723.149H81.4976V751.986C81.4976 774.608 99.7715 793 122.248 793L774.248 792.968C796.724 792.968 814.998 774.576 814.998 751.954V568.065L664.924 719.11C662.377 721.674 658.938 723.116 655.309 723.116L655.307 723.149Z" fill="black"/>
<path d="M774.248 73.6975H690.042V52.0373C690.042 23.3917 666.897 0.065621 638.404 0.065621C609.911 0.065621 586.767 23.3926 586.767 52.0373V122.69C586.767 151.367 609.911 174.662 638.404 174.662V201.993C594.948 201.993 559.61 166.395 559.61 122.657V73.6646H459.137V52.0045C459.137 23.3589 435.992 0.0328105 407.499 0.0328105C379.006 0.0328105 355.862 23.3597 355.862 52.0045V122.657C355.862 151.335 379.006 174.629 407.499 174.629V201.96C364.043 201.96 328.705 166.362 328.705 122.624V73.6318H228.232V51.9717C228.232 23.3261 205.087 0 176.594 0C148.101 0 124.957 23.3269 124.957 51.9717V122.624C124.957 151.302 148.101 174.596 176.594 174.596V201.927C133.138 201.927 97.8 166.329 97.8 122.591V73.599L40.75 73.6951C18.2739 73.6951 0 92.0873 0 114.709V654.777C0 677.398 18.2739 695.79 40.75 695.79H644.07C647.668 695.79 651.138 694.348 653.685 691.785L811.02 533.431C813.567 530.868 815 527.376 815 523.755V114.709C815 92.0875 796.724 73.6975 774.248 73.6975ZM201.042 73.6975H152.078V52.0373C152.078 38.4519 163.062 27.3971 176.56 27.3971C190.058 27.3971 201.042 38.4519 201.042 52.0373V73.6975ZM383.015 73.6975V52.0373C383.015 38.4519 393.999 27.3971 407.497 27.3971C420.995 27.3971 431.979 38.4519 431.979 52.0373V73.6975H383.015ZM542.258 515.201C542.258 529.524 535.19 542.822 523.316 550.768C513.606 557.272 501.858 559.419 490.716 556.952C497.56 572.94 501.381 589.827 495.109 601.746C492.307 607.097 484.858 615.941 468.017 615.845C441.37 615.524 416.825 593.704 397.373 573.998C404.026 593.896 408.929 613.505 399.442 627.284C395.813 632.538 388.618 638.851 374.865 639.139C357.482 639.363 339.145 629.943 318.706 610.846C289.513 583.386 272.767 543.782 272.767 502.16V394.278C272.767 319.492 333.224 258.645 407.527 258.645C481.833 258.645 542.288 319.493 542.288 394.278V515.202L542.258 515.201ZM613.953 73.6975V52.0373C613.953 38.4519 624.936 27.3971 638.434 27.3971C651.932 27.3971 662.916 38.4519 662.916 52.0373V73.6975H613.953ZM733.497 537.439H657.664V627.447H630.508V523.757C630.508 516.195 636.588 510.075 644.102 510.075H733.532V537.406L733.497 537.439Z" fill="black"/>
<path d="M407.498 286.001C348.156 286.001 299.893 334.576 299.893 394.268V502.151C299.893 536.211 313.487 568.542 337.205 590.839C351.786 604.553 364.774 611.794 374.23 611.762C376.65 611.698 377.477 611.282 377.477 611.282C379.833 606.411 371.938 583.629 368.563 573.889C362.801 557.227 358.598 545.211 361.527 535.438C363.31 529.51 367.544 525.313 373.147 523.936C384.354 521.244 392.726 529.927 407.976 545.789C424.212 562.675 448.757 588.244 468.336 588.5C469.737 588.5 470.692 588.404 471.233 588.276C472.602 580.522 461.046 555.048 446.561 534.221C442.868 528.935 443.377 521.789 447.739 517.079C452.1 512.337 459.136 511.344 464.675 514.676C464.803 514.772 478.269 522.847 493.71 529.384C498.581 531.467 503.897 530.986 508.291 528.006C512.62 525.122 515.104 520.444 515.104 515.189V394.265C515.104 334.571 466.839 286.001 407.498 286.001ZM369.008 401.864C354.013 401.864 341.852 389.624 341.852 374.533C341.852 359.441 354.013 347.201 369.008 347.201C384.002 347.201 396.163 359.441 396.163 374.533C396.163 389.624 384.002 401.864 369.008 401.864ZM452.798 395.039C441.56 395.039 432.423 385.843 432.423 374.532C432.423 363.222 441.56 354.026 452.798 354.026C464.036 354.026 473.173 363.222 473.173 374.532C473.173 385.843 464.036 395.039 452.798 395.039Z" fill="black"/>
</svg>
