<svg width="570" height="828" viewBox="0 0 570 828" fill="none" xmlns="http://www.w3.org/2000/svg">
<path d="M285 0C127.852 0 0 118.024 0 263.096V718.908C0 759.404 34.9855 792.321 78.0555 792.321C121.054 792.321 156.004 759.371 156.004 718.908V703.477C157.542 705.229 159.188 706.913 160.905 708.53C175.715 722.378 195.282 729.992 216.03 729.992C240.141 729.992 261.748 719.615 276.057 703.376V754.587C276.057 774.128 284.141 792.557 298.88 806.538C313.69 820.386 333.257 828 354.005 828C396.968 828 431.954 795.05 431.954 754.587V747.916C446.263 764.155 467.905 774.532 492.052 774.532C535.014 774.532 570 741.582 570 701.119V263.135C570 118.063 442.148 0.0388116 285 0.0388116L285 0ZM455.454 295.707C455.454 325.625 429.626 349.95 397.859 349.95C366.093 349.95 340.265 325.625 340.265 295.707C340.265 265.788 366.093 241.464 397.859 241.464C429.626 241.464 455.454 265.788 455.454 295.707ZM229.732 295.707C229.732 325.625 203.905 349.95 172.138 349.95C140.372 349.95 114.544 325.625 114.544 295.707C114.544 265.788 140.372 241.464 172.138 241.464C203.905 241.464 229.732 265.788 229.732 295.707Z" fill="black"/>
</svg>
