<svg width="655" height="837" viewBox="0 0 655 837" fill="none" xmlns="http://www.w3.org/2000/svg">
<path d="M311.238 177.624C309.515 191.497 308.878 204.926 308.766 216.468C314.498 221.166 330.531 227.493 342.857 216.098C342.857 210.623 342.932 204.741 343.232 198.6C354.433 208.44 369.156 214.618 387.7 215.506C391.034 215.654 394.256 215.543 397.328 215.173C412.013 213.361 427.597 205.888 439.548 194.975C452.023 183.655 460.977 168.339 461.801 151.359C461.951 148.215 461.876 145.181 461.501 142.296C460.377 133.306 457.081 124.428 452.21 116.215C445.28 104.599 434.977 94.3887 422.84 87.4706C410.177 80.2939 395.529 76.5948 380.544 78.4442C375.224 79.1101 369.866 80.4788 364.547 82.6245C375.56 60.5396 393.356 41.4132 416.508 32.9789C425.424 29.7604 430.032 19.994 426.735 11.1525C423.476 2.34793 413.586 -2.20269 404.632 1.05323C366.382 15.0372 339.222 48.8124 326.259 85.029C324.461 90.0602 322.963 95.1283 321.689 100.234L321.652 100.197C287.898 65.0531 245.152 41.5249 200.082 32.7203C149.395 22.8057 95.7091 31.3515 47.8718 62.6486C41.3907 66.9029 34.8718 71.712 28.2784 77.1127C21.4601 82.7357 20.1115 92.4282 24.9816 99.6049C25.3188 100.049 134.821 265.819 311.238 177.624ZM373.239 116.178C377.023 113.995 380.919 112.737 384.777 112.256C392.083 111.369 399.387 113.255 405.794 116.918C412.762 120.876 418.682 126.758 422.652 133.417C425.125 137.597 426.81 142.036 427.335 146.439C427.485 147.733 427.56 148.843 427.485 149.768C427.11 157.056 422.615 164.232 416.283 169.967C409.465 176.181 400.923 180.399 393.168 181.36C391.67 181.545 390.358 181.619 389.309 181.582C376.572 180.953 367.469 175.996 361.662 168.376C356.829 162.05 353.832 153.726 352.558 144.293C357.166 131.9 363.762 121.653 373.239 116.178ZM654.998 364.037C654.998 331.112 641.512 301.369 619.708 279.802C597.83 258.198 567.672 244.88 534.368 244.88C501.026 244.88 470.906 258.198 449.028 279.802C442.06 286.683 436.065 294.489 430.933 302.886C425.839 294.489 419.845 286.683 412.839 279.802C391.036 258.198 360.878 244.88 327.536 244.88C294.194 244.88 263.999 258.198 242.196 279.802C235.228 286.683 229.196 294.489 224.102 302.886C219.007 294.489 213.013 286.683 206.008 279.802C184.205 258.198 153.972 244.88 120.668 244.88C87.3253 244.88 57.2054 258.198 35.3649 279.802C13.5619 301.332 0 331.113 0 364.037C0 396.961 13.5619 426.778 35.3649 448.308C56.8313 469.506 86.3892 482.712 119.057 483.119C109.168 500.395 103.473 520.335 103.473 541.606C103.473 574.531 116.959 604.348 138.838 625.878C160.117 646.891 189.375 660.023 221.668 660.689C212.265 677.632 206.87 697.091 206.87 717.807C206.87 750.731 220.432 780.548 242.235 802.078C264.038 823.608 294.271 837 327.575 837C360.917 837 391.037 823.608 412.877 802.078C434.755 780.548 448.242 750.694 448.242 717.807C448.242 697.09 442.848 677.631 433.444 660.689C465.812 660.023 495.071 646.891 516.349 625.878C538.152 604.348 551.714 574.493 551.714 541.606C551.714 520.372 545.945 500.395 536.055 483.119C568.722 482.712 598.281 469.506 619.785 448.308C641.513 426.778 654.998 396.96 654.998 364.037ZM50.7586 398.108C50.7586 404.175 51.3206 410.131 52.3321 415.902C41.6176 402.178 35.0615 385.16 34.4995 366.627C34.462 365.776 34.3871 364.962 34.3871 364.074C34.3871 363.186 34.462 362.299 34.4995 361.411C34.537 359.746 34.6119 358.081 34.7617 356.454C34.8741 355.085 35.0989 353.753 35.2862 352.384C35.4361 351.237 35.6234 350.054 35.8107 348.907C36.0729 347.39 36.4101 345.91 36.7847 344.431C37.0095 343.58 37.2343 342.692 37.4591 341.841C37.9086 340.176 38.3956 338.511 38.9576 336.921C39.07 336.551 39.2198 336.218 39.3697 335.848C39.7817 334.738 40.2688 333.628 40.7183 332.555C40.3811 333.406 40.0065 334.22 39.6694 335.071C40.044 334.035 40.4935 333.073 40.9057 332.074C40.8307 332.259 40.7558 332.407 40.6809 332.592C41.093 331.52 41.5051 330.484 41.9921 329.448C42.4042 328.523 42.8912 327.635 43.3407 326.747C43.8277 325.748 44.3147 324.713 44.8767 323.714C44.8393 323.751 44.8393 323.788 44.8018 323.825C45.4387 322.641 46.1504 321.531 46.8622 320.384C47.3118 319.682 47.6864 318.942 48.1359 318.239C49.2973 316.463 50.5336 314.687 51.8448 312.986C54.2799 309.804 56.8273 306.771 59.6745 303.959C75.2591 288.57 96.8003 279.063 120.59 279.063C121.264 279.063 121.938 279.137 122.575 279.137C121.901 279.137 121.226 279.026 120.552 279.026C144.416 279.026 165.92 288.57 181.504 303.959C179.406 301.888 177.234 299.964 174.948 298.151C168.243 296.82 161.312 296.08 154.194 296.08C97.0631 295.969 50.7586 341.697 50.7586 398.108ZM153.185 570.28C153.185 578.308 154.122 586.076 155.882 593.549C156.856 594.769 157.793 596.027 158.842 597.211C157.868 596.064 156.856 594.88 155.92 593.66C155.92 593.623 155.92 593.586 155.882 593.549C144.643 579.195 137.825 561.253 137.825 541.646V541.313C137.825 538.872 137.975 536.43 138.2 534.025C138.275 533.138 138.387 532.25 138.5 531.399C138.687 529.734 138.949 528.144 139.249 526.516C139.436 525.554 139.586 524.592 139.773 523.63C140.223 521.559 140.747 519.561 141.347 517.563C141.759 516.121 142.283 514.752 142.771 513.346C143.033 512.643 143.258 511.94 143.557 511.275C144.494 508.907 145.543 506.576 146.667 504.32C146.255 505.097 145.842 505.873 145.468 506.687C145.842 505.873 146.255 505.097 146.667 504.283V504.32C146.854 503.913 147.079 503.506 147.266 503.136C147.266 503.136 147.266 503.173 147.229 503.173C148.427 500.879 149.664 498.623 151.05 496.477C154.496 491.076 158.468 486.007 163.038 481.495C164.387 480.163 165.848 478.942 167.271 477.684C169.107 476.094 171.055 474.577 173.003 473.134C173.078 473.06 173.153 473.023 173.265 472.949C175.176 471.581 177.124 470.286 179.147 469.065C179.372 468.954 179.559 468.806 179.784 468.695C181.695 467.548 183.68 466.475 185.703 465.477C186.078 465.292 186.452 465.107 186.827 464.959C188.738 464.034 190.686 463.183 192.671 462.443C193.233 462.221 193.758 462.036 194.32 461.851C196.193 461.148 198.103 460.519 200.014 459.965C200.726 459.743 201.475 459.595 202.224 459.41C204.06 458.929 205.896 458.485 207.769 458.115C208.63 457.967 209.529 457.856 210.429 457.708C212.227 457.412 214.025 457.116 215.861 456.968C216.61 456.894 217.397 456.894 218.183 456.857C220.131 456.709 222.042 456.598 224.028 456.598C224.515 456.598 224.964 456.635 225.451 456.635C241.148 456.894 255.759 461.37 268.347 468.843H268.459C268.721 468.991 268.946 469.176 269.171 469.324C268.909 469.139 268.609 468.991 268.309 468.806C264.451 468.362 260.554 468.14 256.583 468.14C199.527 468.14 153.185 513.866 153.185 570.28ZM370.208 644.674C364.739 643.787 359.12 643.343 353.388 643.343C296.257 643.343 249.954 689.067 249.954 745.481C249.954 748.995 250.141 752.51 250.516 755.95C250.591 756.061 250.628 756.209 250.703 756.32C250.666 756.209 250.591 756.098 250.516 755.987V755.913C244.672 744.446 241.3 731.535 241.3 717.847C241.3 694.356 250.965 673.084 266.55 657.658C264.602 659.582 262.729 661.617 261.005 663.725C262.766 661.616 264.602 659.619 266.55 657.695C266.925 657.325 267.374 656.955 267.749 656.585C271.046 653.478 274.605 650.592 278.351 648.003C282.622 645.857 286.743 643.564 290.714 641.011C300.454 636.424 311.244 633.649 322.595 633.02C324.243 632.909 325.854 632.761 327.503 632.761C329.338 632.761 331.137 632.946 332.972 633.057C344.136 633.76 354.7 636.498 364.328 640.974C366.351 642.306 368.412 643.564 370.547 644.747C370.397 644.71 370.321 644.674 370.208 644.674ZM381.972 298.229C370.658 294.012 358.408 291.718 345.595 291.718C292.96 291.718 249.499 330.562 242.987 380.798C241.9 375.397 241.301 369.774 241.301 364.04C241.301 343.361 248.793 324.457 261.193 309.66C262.879 307.662 264.677 305.701 266.551 303.852C282.135 288.462 303.714 278.918 327.503 278.918C328.29 278.918 329.076 278.992 329.863 279.029C348.782 279.547 366.127 286.058 380.138 296.712C380.738 297.23 381.335 297.748 381.972 298.229C381.373 297.748 380.775 297.23 380.138 296.749C380.813 297.267 381.562 297.748 382.199 298.303C382.124 298.266 382.047 298.266 381.972 298.229Z" fill="black"/>
</svg>
