<svg width="725" height="865" viewBox="0 0 725 865" fill="none" xmlns="http://www.w3.org/2000/svg">
<path fill-rule="evenodd" clip-rule="evenodd" d="M489.147 385.158C490.855 385.706 492.611 385.949 494.319 385.949C501.037 385.949 507.304 381.976 509.576 375.626C514.603 361.649 530.746 354.143 545.537 358.878C577.147 368.988 611.626 352.955 622.356 323.067C625.224 315.119 620.712 306.471 612.286 303.76C603.828 301.065 594.709 305.313 591.841 313.292C586.83 327.284 570.703 334.791 555.88 330.025C524.318 319.961 489.807 335.963 479.061 365.836C476.209 373.784 480.721 382.448 489.147 385.158Z" fill="black"/>
<path fill-rule="evenodd" clip-rule="evenodd" d="M527.266 279.064C528.974 279.612 530.714 279.871 532.438 279.871C539.14 279.871 545.408 275.882 547.696 269.533C550.128 262.757 555.203 257.276 561.986 254.109C568.785 250.942 576.487 250.485 583.656 252.784C615.251 262.894 649.745 246.877 660.475 216.973C663.327 209.01 658.816 200.362 650.39 197.652C641.963 194.911 632.812 199.22 629.96 207.183C624.934 221.191 608.838 228.697 594 223.947C578.662 219.013 562.244 220.034 547.744 226.794C533.244 233.569 522.385 245.263 517.181 259.742C514.313 267.706 518.84 276.354 527.266 279.064Z" fill="black"/>
<path fill-rule="evenodd" clip-rule="evenodd" d="M565.354 172.97C567.078 173.519 568.834 173.777 570.542 173.777C577.26 173.777 583.527 169.788 585.799 163.439C589.505 153.116 601.443 147.559 612.351 151.076C625.804 155.385 640.223 154.486 652.967 148.579C665.695 142.641 675.217 132.363 679.777 119.65C682.645 111.702 678.133 103.038 669.707 100.343C661.265 97.6178 652.13 101.896 649.278 109.875C647.473 114.884 643.72 118.919 638.709 121.263C633.698 123.593 628.027 123.928 622.71 122.223C594.983 113.377 564.709 127.445 555.284 153.649C552.432 161.612 556.927 170.26 565.354 172.97Z" fill="black"/>
<path fill-rule="evenodd" clip-rule="evenodd" d="M672.849 380.925C704.878 282.566 722.456 186.186 724.969 94.4202C725.694 68.1099 713.562 38.2064 694.825 20.0267C672.446 -1.6701 641.996 -6.10082 611.964 8.51599C563.839 31.979 529.425 100.998 501.778 156.481C500.183 159.678 498.62 162.799 497.074 165.89C490.967 139.352 472.407 116.65 446.017 104.804C439.798 76.545 416.082 54.4219 386.292 48.6818C385.969 47.1135 385.551 45.5452 385.067 43.977C378.929 24.1681 360.401 9.2316 339.005 6.82592C326.631 5.39469 314.902 7.86128 304.752 13.4492C296.068 8.89663 286.272 6.4605 276.267 6.4605C248.266 6.4605 224.727 24.9142 218.588 49.6258C187.961 57.5127 165.485 84.0818 165.26 114.96C130.298 123.486 104.858 153.329 104.858 188.82C104.858 198.23 106.727 207.563 110.336 216.333C101.265 226.915 96.2385 240.162 96.2385 254.048C96.2385 262.392 98.0591 270.446 101.491 277.861C85.3955 261.265 62.759 247.699 37.3031 248.582C28.4096 248.841 21.4333 255.86 21.7072 264.28C21.965 272.517 29.1346 279.033 37.8025 279.033C38.3342 279.049 38.8498 279.003 39.3492 279.003C54.4456 279.003 68.4786 288.443 78.6932 299.39C53.1406 306.364 22.3356 317.677 7.96423 343.302C-0.65536 358.695 -1.68649 377.575 4.01694 399.196C1.14911 403.627 -0.252575 408.819 0.0374296 414.391L27.4751 782.659C29.9724 828.839 70.2508 865 119.165 865H571.428C620.342 865 660.62 828.839 663.118 782.948L691.248 401.602C691.538 396.135 689.427 390.73 685.464 386.772C682.113 383.452 677.569 381.534 672.849 380.925ZM510.22 209.451C516.601 198.184 523.561 184.237 530.94 169.468C555.155 120.852 588.328 54.3001 626.738 35.5875C644.138 27.122 659.009 28.9491 671.737 41.282C686.092 55.1984 693.181 78.159 692.763 93.6284C690.297 183.644 672.897 278.379 641.029 375.215C639.982 378.397 637.662 384.823 634.359 393.654L606.905 405.18C606.309 405.438 605.729 405.712 605.165 406.047C597.399 410.448 588.425 412.625 579.451 412.716C570.477 412.625 561.519 410.448 553.753 406.047L542.266 399.531C529.345 392.192 514.522 388.325 499.442 388.325C495.366 388.325 491.322 388.66 487.326 389.208C476.161 390.578 465.27 394.004 455.522 399.531L444.051 406.047C437.784 409.595 430.679 411.331 423.477 412.077C423.831 410.92 424.234 409.808 424.589 408.666C429.051 394.293 433.869 380.103 438.895 366.049C440.732 360.903 442.649 355.802 444.567 350.702C448.772 339.526 453.17 328.472 457.73 317.524C459.663 312.835 461.548 308.115 463.562 303.471C477.611 271.04 493.142 239.583 510.22 209.451ZM324.086 389.588C322.313 389.878 320.557 390.182 318.817 390.578C313.501 391.689 308.28 393.197 303.27 395.283L300.192 381.93C304.833 382.295 309.44 382.661 313.79 382.661C341.889 382.661 364.509 374.758 390.513 357.279C398.714 351.767 405.948 347.595 412.843 344.139C411.377 348.098 409.895 352.072 408.461 356.061C407.446 358.923 406.334 361.74 405.319 364.618C400.583 378.169 396.071 391.811 391.866 405.591L381.152 399.531C368.215 392.192 353.408 388.325 338.328 388.325C334.429 388.325 330.579 388.675 326.744 389.177C325.842 389.284 324.972 389.467 324.086 389.588ZM298.485 183.796C294.876 184.496 291.299 182.228 290.558 178.984C289.785 175.65 292.105 172.209 295.649 171.478L386.018 152.964C389.143 152.964 391.898 155.034 392.559 157.912C393.075 160.089 392.189 161.825 391.625 162.647C391.061 163.469 389.788 164.931 387.468 165.403L298.485 183.796ZM304.833 245.552C306.718 243.253 308.554 241.045 310.327 238.807C311.599 237.208 312.727 235.549 313.646 233.889C317.625 226.839 318.543 218.937 316.707 211.187L383.956 197.301C384.407 199.25 384.874 201.184 385.647 202.98C388.66 209.954 394.041 215.755 401.549 219.805C403.998 221.084 406.56 222.363 409.186 223.688C411.361 224.769 413.552 225.895 415.727 227.022C416.774 227.555 417.838 228.088 418.885 228.651C420.802 229.656 422.639 230.798 424.508 231.894C426.103 232.823 427.682 233.782 429.229 234.802C431.017 235.975 432.741 237.269 434.433 238.578C435.931 239.736 437.365 240.999 438.783 242.294C440.313 243.71 441.828 245.156 443.229 246.739C445.711 249.541 448.095 252.449 450.061 255.936C443.229 270.202 436.801 284.728 430.582 299.406C429.615 301.659 428.584 303.867 427.634 306.151C409.975 310.384 392.914 318.301 371.84 332.476C345.288 350.306 325.52 355.026 292.942 350.564L283.163 308.267C276.541 279.643 290.928 262.316 304.833 245.552ZM209.437 624.142C218.331 624.142 225.548 630.948 225.548 639.368C225.548 647.788 218.331 654.594 209.437 654.594H96.6574C87.7639 654.594 80.546 647.788 80.546 639.368C80.546 630.948 87.7639 624.142 96.6574 624.142H209.437ZM96.6574 685.046H241.66C250.553 685.046 257.771 691.852 257.771 700.272C257.771 708.691 250.553 715.497 241.66 715.497H96.6574C87.7639 715.497 80.546 708.691 80.546 700.272C80.546 691.852 87.7639 685.046 96.6574 685.046ZM139.949 231.133L150.486 222.911L143.638 211.751C139.353 204.747 137.081 196.814 137.081 188.82C137.081 164.155 157.526 144.041 183.627 143.006L203.202 142.229L198.642 124.248C197.869 121.233 197.482 118.264 197.482 115.447C197.482 95.8362 213.69 79.3161 234.378 77.824L249.264 76.7582V61.6085C249.716 47.9052 261.67 36.9122 276.267 36.9122C284.677 36.9122 290.703 40.5359 294.263 43.5811L305.558 53.2191L316.401 43.1091C321.347 38.4804 328.001 36.227 335.203 37.0644C343.822 38.0389 351.62 44.4033 354.15 52.5643C355.003 55.305 355.245 57.9391 354.907 60.6493L353.022 77.6565H371.179C394.315 77.6565 413.681 94.7551 415.276 116.589L416.017 126.592L426.022 129.912C451.205 138.271 467.767 160.79 467.203 185.988C466.961 196.753 463.288 207.107 456.634 216.212C445.856 207.548 434.239 201.717 424.46 196.86C421.93 195.596 419.481 194.378 417.016 193.084C416.323 192.718 415.502 192.079 415.212 190.48C414.809 188.303 415.679 185.653 417.451 183.72C424.476 176.015 427.295 165.51 425.007 155.598L423.074 147.223C419.127 130.155 400.26 118.629 382.199 122.451L377.882 123.334C377.833 123.349 377.785 123.349 377.737 123.349L284.307 142.656C265.811 146.477 254.05 163.804 258.093 181.299L259.06 185.44L259.076 185.486C259.076 185.516 259.092 185.547 259.092 185.547L260.043 189.673C262.379 199.813 269.839 208.34 279.973 212.466C282.486 213.486 284.581 215.42 285.289 217.384C285.724 218.511 285.483 219.089 284.548 220.551C282.937 222.576 281.229 224.647 279.473 226.748C277.685 228.895 275.832 231.163 273.947 233.508C273.383 234.224 272.819 234.97 272.239 235.701C270.854 237.467 269.484 239.294 268.099 241.182C267.406 242.141 266.729 243.116 266.052 244.121C264.812 245.933 263.604 247.79 262.427 249.724C261.767 250.79 261.122 251.855 260.478 252.982C259.27 255.129 258.142 257.382 257.062 259.697C256.627 260.656 256.128 261.569 255.709 262.544C254.291 265.878 253.034 269.35 252.019 273.019C251.874 273.567 251.81 274.161 251.681 274.709C250.892 277.846 250.263 281.089 249.861 284.469C249.699 285.809 249.667 287.21 249.571 288.595C249.458 290.392 249.2 292.113 249.2 293.97C248.749 293.391 248.282 292.919 247.814 292.341C246.767 291.047 245.688 289.844 244.624 288.595C242.24 285.809 239.855 283.16 237.455 280.693C236.263 279.475 235.086 278.257 233.894 277.115C231.365 274.679 228.819 272.441 226.257 270.355C225.307 269.578 224.372 268.695 223.422 267.964C220.006 265.361 216.574 263.031 213.127 261.021C212.079 260.397 211.016 259.94 209.969 259.392C207.471 258.068 204.958 256.849 202.429 255.829C201.043 255.266 199.641 254.779 198.24 254.322C195.952 253.545 193.632 252.921 191.312 252.388C189.91 252.084 188.508 251.718 187.107 251.49C184.174 251.033 181.226 250.79 178.262 250.698C177.569 250.683 176.908 250.516 176.215 250.516C159.476 250.516 144.234 256.682 130.717 265.01C129.235 261.569 128.461 257.87 128.461 254.048C128.461 245.156 132.65 236.797 139.949 231.133ZM36.433 357.553C43.2482 345.418 59.7946 336.161 88.5211 328.396C101.974 324.772 114.428 318.012 124.546 308.861C129.057 304.78 133.311 301.278 137.403 298.127C141.06 295.295 144.589 292.843 147.988 290.727C148.117 290.651 148.246 290.575 148.375 290.499C155.109 286.357 161.345 283.601 167.209 282.185C167.451 282.124 167.676 282.079 167.918 282.018C170.786 281.378 173.573 281.013 176.264 281.013C196.532 281.013 218.266 300.121 240.87 337.805C252.712 357.553 256.66 386.711 251.52 412.138C250.328 412.031 249.136 411.879 247.943 411.696C242.159 410.646 236.553 408.895 231.526 406.047L220.038 399.531C207.101 392.192 192.295 388.325 177.214 388.325C173.138 388.325 169.094 388.66 165.099 389.208C153.933 390.578 143.042 394.004 133.295 399.531L127.72 402.698C118.166 408.118 107.146 410.828 96.1096 410.92C85.0733 410.828 74.0692 408.118 64.5152 402.698L42.8132 390.38C39.9937 388.797 36.9164 387.7 33.7263 387.122C31.1807 375.063 32.083 365.318 36.433 357.553ZM273.883 776.401H96.6574C87.7639 776.401 80.546 769.595 80.546 761.175C80.546 752.755 87.7639 745.949 96.6574 745.949H273.883C282.776 745.949 289.994 752.755 289.994 761.175C289.994 769.595 282.776 776.401 273.883 776.401ZM370.551 776.401H338.328C329.435 776.401 322.217 769.595 322.217 761.175C322.217 752.755 329.435 745.949 338.328 745.949H370.551C379.444 745.949 386.662 752.755 386.662 761.175C386.662 769.595 379.444 776.401 370.551 776.401Z" fill="black"/>
</svg>
