<svg width="582" height="831" viewBox="0 0 582 831" fill="none" xmlns="http://www.w3.org/2000/svg">
<path d="M286.647 296.289C286.333 296.212 286.038 296.181 285.761 296.181C285.058 296.181 284.488 296.384 284.092 296.588C283.534 296.875 282.807 297.433 282.502 298.451C282.199 299.453 282.519 300.248 282.838 300.74C283.16 301.238 283.776 301.886 284.894 302.152C286.707 302.59 288.563 301.631 289.044 300.03C289.531 298.411 288.457 296.721 286.647 296.289Z" fill="black"/>
<path d="M272.218 510.964L178.99 488.67L157.215 539.945L262.4 565.114L272.218 510.964Z" fill="black"/>
<path d="M313.894 205.534C313.599 205.463 313.299 205.43 313.006 205.43C311.493 205.43 310.112 206.315 309.709 207.656C309.224 209.275 310.308 210.967 312.131 211.399C313.231 211.664 314.109 211.386 314.653 211.105C315.213 210.816 315.944 210.259 316.247 209.237C316.728 207.644 315.648 205.962 313.894 205.534Z" fill="black"/>
<path d="M259.413 387.111C259.369 387.1 259.324 387.088 259.279 387.078C258.994 387.007 258.723 386.976 258.469 386.976C257.821 386.976 257.284 387.166 256.905 387.36C256.438 387.599 255.608 388.156 255.286 389.228C254.801 390.852 255.864 392.547 257.662 392.978C258.777 393.245 259.683 392.957 260.24 392.668C260.796 392.381 261.524 391.825 261.828 390.807C262.315 389.171 261.256 387.549 259.413 387.111Z" fill="black"/>
<path d="M79.8739 721.944C73.6711 736.506 74.9842 752.773 83.5708 767.753C93.7361 785.495 112.692 799.171 134.273 804.335C155.838 809.522 179.892 806.165 198.631 795.357C214.495 786.209 224.768 772.693 227.56 757.3L258.042 589.167L147.527 562.721L79.8739 721.944ZM172.223 677.875C187.651 681.559 200.537 690.385 208.511 702.725C216.485 715.066 218.593 729.453 214.452 743.237C210.33 756.987 200.45 768.487 186.632 775.613C177.425 780.36 167.206 782.788 156.856 782.788C151.673 782.788 146.458 782.18 141.32 780.951C109.518 773.344 90.5785 744.028 99.0971 715.599C103.219 701.841 113.093 690.34 126.899 683.216C140.709 676.09 156.807 674.192 172.223 677.875Z" fill="black"/>
<path d="M341.107 114.714C340.794 114.639 340.499 114.606 340.224 114.606C339.522 114.606 338.952 114.811 338.556 115.015C337.995 115.302 337.268 115.86 336.962 116.879C336.663 117.882 336.981 118.675 337.299 119.168C337.621 119.667 338.238 120.314 339.357 120.581C341.167 121.017 343.027 120.061 343.51 118.458C343.989 116.838 342.916 115.148 341.107 114.714Z" fill="black"/>
<path d="M148.351 757.537C156.743 759.546 165.514 758.512 173.049 754.625C180.587 750.739 185.975 744.466 188.223 736.966C190.488 729.425 189.338 721.565 184.99 714.832C180.643 708.106 173.62 703.297 165.208 701.29V701.288C162.401 700.618 159.554 700.288 156.728 700.288C151.078 700.288 145.507 701.61 140.49 704.199C132.962 708.084 127.578 714.356 125.33 721.861C120.679 737.385 131.005 753.389 148.351 757.537Z" fill="black"/>
<path d="M571.938 163.525L412.006 125.252C410.776 124.956 409.543 124.835 408.331 124.847C409.68 124.796 411.061 124.923 412.435 125.252L496.31 145.324L512.476 91.4211C516.342 78.5094 507.722 65.1717 493.263 61.6919L238.96 0.83447C238.955 0.83447 238.949 0.832737 238.943 0.831006C236.602 0.268345 234.247 0 231.929 0C219.97 0 208.978 7.15705 205.704 17.9844L189.54 71.8942L273.467 91.9803C280.71 93.7133 285.008 100.358 283.066 106.822C281.441 112.236 275.954 115.806 269.961 115.806C269.881 115.806 269.8 115.792 269.72 115.792C275.64 115.716 281.028 112.177 282.636 106.821C284.577 100.356 280.281 93.7116 273.037 91.9786L113.105 53.7056C105.868 51.9708 98.4183 55.8073 96.4748 62.2718C94.5333 68.7364 98.8295 75.381 106.074 77.114L182.491 95.4013L162.851 160.895L246.75 180.973C253.992 182.706 258.29 189.35 256.349 195.815C254.723 201.228 249.236 204.798 243.243 204.798C243.163 204.798 243.082 204.784 243.002 204.784C248.922 204.708 254.31 201.169 255.918 195.813C257.86 189.348 253.563 182.704 246.319 180.971L86.3851 142.698C79.1446 140.963 71.6986 144.799 69.7551 151.264C67.8136 157.729 72.1098 164.373 79.3541 166.106L155.801 184.4L136.155 249.913L220.075 270.032C227.315 271.769 231.609 278.417 229.664 284.88C228.037 290.291 222.552 293.86 216.56 293.86C216.481 293.86 216.399 293.846 216.32 293.846C222.235 293.77 227.624 290.234 229.233 284.88C231.179 278.417 226.885 271.769 219.644 270.032L59.71 231.69C52.4696 229.959 45.0216 233.786 43.0762 240.251C41.1308 246.714 45.425 253.362 52.6655 255.098L129.104 273.424L109.46 338.942L193.388 359.028C200.63 360.761 204.927 367.407 202.985 373.87C201.36 379.284 195.873 382.854 189.879 382.854C189.8 382.854 189.718 382.84 189.639 382.84C195.556 382.763 200.947 379.225 202.554 373.868C204.496 367.405 200.2 360.759 192.957 359.026L33.0253 320.751C25.779 319.017 18.3368 322.853 16.3953 329.318C14.4538 335.78 18.7499 342.427 25.9923 344.16L102.41 362.447L86.2726 416.263C84.4203 422.465 85.4037 428.992 89.0443 434.627C92.681 440.259 98.5055 444.267 105.447 445.917L291.094 490.349C291.38 490.417 291.653 490.504 291.928 490.587L359.833 506.854C374.266 510.292 389.173 502.576 393.039 489.662L409.17 435.877L484.824 453.983C486.001 454.265 487.184 454.4 488.346 454.4C494.341 454.4 499.826 450.828 501.452 445.416C503.395 438.953 499.097 432.307 491.855 430.574L331.927 392.301C330.697 392.007 329.463 391.884 328.251 391.896C329.599 391.846 330.98 391.972 332.353 392.301L416.221 412.373L435.871 346.854L511.54 364.992C512.719 365.274 513.904 365.409 515.068 365.409C521.061 365.409 526.544 361.841 528.173 356.429C530.117 349.966 525.823 343.318 518.582 341.582L358.611 303.238C357.382 302.944 356.15 302.822 354.938 302.834C356.286 302.784 357.665 302.911 359.04 303.238L442.919 323.343L462.567 257.832L538.184 275.929C539.361 276.211 540.544 276.346 541.708 276.346C547.701 276.346 553.186 272.775 554.812 267.363C556.755 260.9 552.457 254.254 545.215 252.521L385.284 214.247C384.055 213.953 382.821 213.83 381.609 213.842C382.957 213.792 384.338 213.918 385.711 214.247L469.615 234.327L489.258 168.833L564.903 186.937C566.081 187.219 567.264 187.354 568.427 187.354C574.421 187.354 579.906 183.782 581.531 178.37C583.479 171.904 579.181 165.258 571.938 163.525ZM288.065 397.048C285.962 404.101 280.908 409.996 273.836 413.649C269.123 416.083 263.886 417.326 258.579 417.328C255.928 417.328 253.261 417.017 250.631 416.392C234.385 412.488 224.718 397.495 229.053 382.964C231.194 375.856 236.301 369.949 243.443 366.31C250.501 362.714 258.678 361.788 266.479 363.707C282.715 367.608 292.396 382.551 288.065 397.048ZM315.279 306.297C311.613 318.466 299.245 326.499 285.768 326.499C283.158 326.499 280.506 326.198 277.866 325.568C269.992 323.682 263.407 319.172 259.326 312.864C255.245 306.553 254.159 299.211 256.273 292.189C258.372 285.157 263.426 279.26 270.502 275.609C277.564 271.963 285.794 270.99 293.678 272.877C309.926 276.762 319.618 291.756 315.279 306.297ZM342.48 215.503C340.377 222.54 335.317 228.444 328.234 232.095C323.534 234.517 318.322 235.755 313.043 235.755C310.393 235.755 307.73 235.443 305.102 234.813C288.844 230.94 279.131 215.946 283.474 201.393C287.844 186.876 304.642 178.237 320.908 182.119C320.919 182.12 320.927 182.122 320.937 182.124C337.181 186.028 346.844 201.002 342.48 215.503ZM369.737 124.725C366.077 136.891 353.704 144.928 340.226 144.928C337.615 144.928 334.966 144.626 332.328 143.996C324.449 142.111 317.865 137.601 313.784 131.292C309.701 124.982 308.617 117.639 310.731 110.617C312.829 103.583 317.886 97.6849 324.961 94.0354C332.025 90.3893 340.257 89.4215 348.132 91.3017H348.134C364.387 95.1884 374.077 110.185 369.737 124.725Z" fill="black"/>
<path d="M464.196 806.762H13.5771C6.07865 806.762 0 812.188 0 818.881C0 825.574 6.07865 831 13.5771 831H464.196C471.695 831 477.773 825.574 477.773 818.881C477.773 812.188 471.695 806.762 464.196 806.762Z" fill="black"/>
</svg>
