<svg width="648" height="824" viewBox="0 0 648 824" fill="none" xmlns="http://www.w3.org/2000/svg">
<path d="M392.626 652.898L416.585 552.362C415.506 552.277 414.431 552.236 413.357 552.236C387.354 552.236 366.196 576.043 366.196 605.304C366.196 625.681 376.839 644.13 392.626 652.898Z" fill="black"/>
<path d="M488.476 457.385C487.356 457.508 486.23 457.62 485.106 457.723C484.252 457.803 483.394 457.873 482.535 457.94C481.598 458.012 480.662 458.083 479.723 458.141C478.59 458.209 477.453 458.262 476.316 458.312C475.593 458.343 474.872 458.381 474.146 458.404C472.256 458.464 470.36 458.5 468.457 458.5C466.362 458.5 464.329 458.475 462.336 458.424L411.271 672.592C411.261 672.63 411.243 672.666 411.235 672.706L391.312 756.249L421.676 765.417C401.561 788.7 383.968 799.595 368.062 798.646C340.413 796.998 316.366 758.478 290.91 717.7C259.904 668.035 224.763 611.742 171.611 607.031C131.057 603.435 86.6106 630.39 35.7306 689.424C31.4031 694.446 31.5223 702.455 35.9962 707.31C40.4702 712.165 47.6038 712.032 51.9312 707.014C97.8414 653.744 136.422 629.288 169.837 632.251C212.399 636.022 242.926 684.923 272.45 732.216C301.147 778.184 328.255 821.606 366.864 823.908C367.903 823.969 368.939 824 369.981 824C394.183 824 419.187 807.206 446.249 772.817L478.58 782.517L561.966 432.807C539.607 445.965 515.328 454.194 490.092 457.194C489.553 457.259 489.015 457.324 488.476 457.385Z" fill="black"/>
<path d="M312.727 44.0779L310.502 54.9704C310.475 55.1294 310.465 55.2903 310.433 55.4493L307.793 68.3404L324.002 51.4034C326.74 48.543 330.572 47.3955 334.21 48.337L355.756 53.9097L340.669 35.67C338.129 32.5999 337.108 28.3191 337.944 24.2353L342.899 0L326.697 16.9152C323.961 19.7685 320.146 20.9231 316.503 19.9817L294.909 14.4252L309.997 32.6379C312.539 35.7079 313.561 39.9905 312.727 44.0779Z" fill="black"/>
<path d="M67.4944 55.8071H0V407.155H67.4944V55.8071Z" fill="black"/>
<path d="M463.744 122.649C410.318 122.649 366.853 171.471 366.853 231.481C366.853 291.527 410.318 340.381 463.744 340.381C517.187 340.381 560.667 291.529 560.667 231.481C560.668 171.471 517.189 122.649 463.744 122.649Z" fill="black"/>
<path d="M468.457 29.7593C442.835 29.7593 415.17 35.0249 378.597 44.3236L397.242 66.8803C397.477 67.164 397.667 67.4784 397.874 67.782C398.039 68.0205 398.225 68.2446 398.374 68.4939C398.491 68.6927 398.573 68.9095 398.679 69.1155C398.876 69.4932 399.084 69.8636 399.243 70.2576C399.304 70.4075 399.338 70.5684 399.393 70.722C399.56 71.1864 399.729 71.6507 399.847 72.1296C399.866 72.2091 399.869 72.2904 399.887 72.3699C400.014 72.9337 400.122 73.4993 400.18 74.0757C400.19 74.1805 400.18 74.2871 400.19 74.3938C400.231 74.9467 400.262 75.4996 400.239 76.0544C400.233 76.1827 400.206 76.311 400.196 76.4393C400.162 76.9723 400.117 77.5054 400.021 78.0312C400.019 78.0439 400.014 78.0547 400.011 78.0674C399.773 79.363 399.351 80.6297 398.736 81.8205C398.427 82.4222 398.077 82.986 397.694 83.51C395.014 87.18 390.667 88.9075 386.452 87.8125L334.983 74.5004L296.261 114.959C295.851 115.387 295.409 115.765 294.957 116.115C294.881 116.173 294.807 116.235 294.732 116.291C294.291 116.614 293.833 116.898 293.363 117.145C293.276 117.19 293.191 117.232 293.102 117.274C292.615 117.514 292.119 117.724 291.61 117.883C291.578 117.892 291.546 117.899 291.513 117.908C291.014 118.06 290.507 118.166 289.997 118.239C289.924 118.249 289.852 118.264 289.778 118.273C289.38 118.32 288.979 118.352 288.578 118.352C288.484 118.352 288.389 118.334 288.295 118.331C288.108 118.325 287.923 118.305 287.737 118.293C287.373 118.26 287.01 118.213 286.65 118.143C286.455 118.105 286.263 118.063 286.07 118.014C285.7 117.921 285.336 117.798 284.972 117.66C284.805 117.597 284.637 117.545 284.472 117.472C283.953 117.243 283.441 116.983 282.949 116.663L282.947 116.661C282.87 116.612 282.805 116.545 282.73 116.491C282.28 116.184 281.843 115.861 281.442 115.494C281.134 115.212 280.867 114.888 280.59 114.574C280.447 114.411 280.284 114.269 280.149 114.097C279.793 113.647 279.478 113.161 279.185 112.664C279.152 112.61 279.111 112.561 279.08 112.507C278.137 110.846 277.549 108.951 277.37 106.976C277.369 106.958 277.364 106.941 277.362 106.925C277.32 106.435 277.33 105.94 277.34 105.447C277.343 105.266 277.322 105.089 277.332 104.908C277.351 104.576 277.419 104.243 277.46 103.909C277.504 103.566 277.525 103.221 277.594 102.877L284.398 69.5673C230.084 83.5715 165.701 97.581 90.0333 103.636V359.41C189.947 367.384 269.768 389.198 334.332 406.844C386.096 420.991 430.802 433.21 468.458 433.21C470.55 433.21 472.631 433.154 474.711 433.074C475.27 433.052 475.829 433.031 476.386 433.004C478.358 432.906 480.325 432.785 482.284 432.617C482.862 432.568 483.437 432.501 484.013 432.443C485.377 432.313 486.734 432.163 488.091 431.999C489.028 431.885 489.964 431.768 490.896 431.637C491.87 431.502 492.841 431.343 493.813 431.189C495.75 430.88 497.678 430.544 499.597 430.167C499.94 430.1 500.283 430.031 500.628 429.962C584.329 412.881 648 330.386 648 231.492C647.998 120.252 567.456 29.7593 468.457 29.7593ZM463.744 365.679C397.892 365.679 344.314 305.479 344.314 231.481C344.314 157.521 397.891 97.3516 463.744 97.3516C529.616 97.3516 583.206 157.521 583.206 231.481C583.207 305.477 529.616 365.679 463.744 365.679Z" fill="black"/>
<path d="M234.892 539.829L241.387 563.575L247.868 539.835C248.963 535.823 251.758 532.684 255.33 531.45L276.538 524.128L255.33 516.806C251.758 515.574 248.963 512.433 247.868 508.422L241.387 484.68L234.892 508.427C233.796 512.437 231.001 515.574 227.432 516.806L206.225 524.128L227.434 531.45C231.001 532.681 233.796 535.819 234.892 539.829Z" fill="black"/>
</svg>
