<svg width="702" height="823" viewBox="0 0 702 823" fill="none" xmlns="http://www.w3.org/2000/svg">
<path d="M491.457 660.183C475.335 644.771 443.855 644.144 434.478 644.288C405.782 644.834 390.729 659.027 379.799 672.844L377.59 675.72C376.656 676.948 375.793 678.077 374.967 679.098C373.799 669.591 370.647 660.918 362.51 655.927C360.381 654.619 357.786 654.26 355.369 654.941C352.953 655.622 350.933 657.28 349.792 659.52L348.696 661.688L347.52 659.565C346.307 657.37 344.223 655.784 341.781 655.192C339.364 654.628 336.76 655.049 334.667 656.456C326.737 661.742 323.898 670.541 323.09 680.084C322.219 679.089 321.303 677.987 320.315 676.769L318.034 674.009C306.618 660.604 291.008 647.029 262.322 647.522C253.035 647.701 221.546 649.511 205.999 665.505C203.313 668.274 202.703 672.441 204.472 675.855C206.241 679.277 210.023 681.177 213.822 680.595C243.272 676.043 252.675 692.189 259.735 723.559C260.283 725.987 261.819 728.093 263.983 729.347C266.148 730.611 268.743 730.906 271.123 730.172C272.722 729.679 274.402 729.025 276.108 728.335C277.536 727.77 280.222 726.677 281.668 726.471C282.207 728.72 282.09 733.451 282.036 735.646C281.964 738.514 283.275 741.256 285.575 742.994C287.874 744.732 290.874 745.279 293.622 744.436C294.7 744.114 295.777 743.737 296.846 743.361C298.211 742.877 299.828 742.313 300.888 742.152C301.157 743.218 301.463 745.485 301.175 749.947C301.014 752.33 301.813 754.678 303.403 756.479C304.983 758.262 307.22 759.346 309.609 759.49C316.022 759.929 320.36 757.241 323.27 755.502C323.692 755.26 324.195 754.947 324.608 754.714C326.386 756.864 328.865 761.094 329.916 762.877C330.697 764.212 331.389 765.359 331.892 766.138L333.742 768.979C337.389 774.606 340.532 779.462 344.134 783.512C345.84 785.439 348.283 786.532 350.861 786.532C350.915 786.532 350.969 786.532 351.031 786.532C353.654 786.478 356.133 785.286 357.803 783.261C361.261 779.068 364.225 774.095 367.674 768.324L369.381 765.466C369.875 764.642 370.512 763.477 371.24 762.115C372.219 760.287 374.536 755.977 376.242 753.755C376.691 753.97 377.176 754.248 377.599 754.472C380.589 756.112 384.99 758.665 391.439 757.966C393.828 757.742 396.02 756.578 397.537 754.723C399.055 752.868 399.765 750.485 399.513 748.11C399.046 743.675 399.271 741.399 399.495 740.324C400.555 740.449 402.19 740.951 403.555 741.381C404.642 741.721 405.738 742.062 406.833 742.34C409.635 743.092 412.581 742.438 414.809 740.61C417.036 738.782 418.258 736.005 418.078 733.138C417.934 730.763 417.656 726.175 418.105 723.944C419.551 724.115 422.263 725.064 423.691 725.584C425.461 726.211 427.203 726.821 428.856 727.242C431.254 727.869 433.823 727.457 435.924 726.131C438.017 724.796 439.481 722.645 439.93 720.208C445.804 688.605 454.606 672.19 484.209 675.586C488.089 676.105 491.735 673.982 493.379 670.505C495.013 666.984 494.241 662.844 491.457 660.183Z" fill="black"/>
<path d="M274.887 123.974C279.18 122.684 284.155 122.039 289.338 124.189C295.885 126.904 298.49 132.639 299.478 138.553C301.795 138.364 304.292 138.472 306.914 139.26C312.788 141.008 316.588 145.326 318.249 152.163C320.243 151.312 322.605 150.649 325.362 150.649C326.279 150.649 327.231 150.721 328.227 150.882C335.449 152.029 340.29 159.367 345.427 168.103C346.02 169.125 346.541 170.003 346.936 170.612L348.867 173.578C349.442 174.474 350.017 175.352 350.564 176.195C351.094 175.316 351.633 174.411 352.19 173.489L353.977 170.496C354.364 169.86 354.84 168.955 355.405 167.906C360.21 158.973 364.764 151.473 371.958 150.04C375.946 149.224 379.278 149.923 381.964 150.962C383.374 144.081 387.011 139.619 392.831 137.639C395.445 136.76 397.951 136.536 400.223 136.671C401.004 130.721 403.402 124.888 409.842 121.94C414.926 119.593 419.928 120.067 424.257 121.196C427.643 106.179 434.263 86.9504 451.606 77.3987C446.307 76.6998 440.639 76.3773 434.802 76.4848C414.764 76.8611 404.291 85.0777 393.891 98.2134L391.915 100.785C386.832 107.505 379.871 116.698 367.045 117.353C364.611 117.514 362.15 116.582 360.372 114.871C358.576 113.159 357.579 110.776 357.606 108.312C357.633 106.081 357.669 102.326 357.39 98.4822L357.04 99.1632C355.54 102.129 352.522 104.02 349.19 104.073C345.849 104.136 342.777 102.353 341.17 99.4499L340.811 98.8048C340.667 102.658 340.846 106.403 340.963 108.634C341.08 111.107 340.173 113.518 338.448 115.292C336.724 117.075 334.47 117.989 331.865 118.025C319.03 117.845 311.72 108.885 306.376 102.353L304.328 99.88C293.478 87.1385 282.656 79.3431 262.636 79.7015C256.834 79.809 251.176 80.3467 245.921 81.2337C263.615 90.1402 270.935 109.091 274.887 123.974Z" fill="black"/>
<path d="M701.856 396.232C701.811 395.622 701.668 395.049 701.497 394.458C701.335 393.875 701.165 393.32 700.886 392.8C700.787 392.603 700.778 392.379 700.662 392.191C700.473 391.886 700.177 391.716 699.961 391.438C699.584 390.954 699.198 390.506 698.731 390.112C698.291 389.736 697.824 389.44 697.321 389.162C696.827 388.884 696.333 388.642 695.785 388.463C695.201 388.266 694.617 388.176 694.007 388.105C693.656 388.06 693.351 387.899 692.992 387.899H607.82V8.96026C607.82 4.0142 603.806 0 598.839 0H105.9C100.943 0 96.9189 4.0142 96.9189 8.96026V387.899H8.97248C8.61323 387.899 8.30786 388.06 7.95758 388.105C7.34684 388.176 6.77202 388.266 6.18823 388.463C5.63138 388.651 5.1374 388.893 4.63444 389.171C4.14046 389.449 3.69138 389.736 3.25129 390.103C2.77528 390.506 2.38009 390.963 1.99389 391.456C1.78731 391.725 1.49093 391.895 1.3113 392.191C1.19454 392.379 1.19454 392.594 1.09574 392.791C0.817319 393.329 0.646669 393.893 0.476021 394.484C0.314355 395.067 0.161674 395.631 0.125748 396.223C0.107786 396.447 0 396.635 0 396.859V814.04C0 818.995 4.02369 823 8.98146 823H693.01C694.15 823 695.282 822.758 696.36 822.328C696.872 822.122 697.285 821.763 697.743 821.468C698.201 821.181 698.704 820.993 699.108 820.617C699.153 820.581 699.162 820.527 699.207 820.482C699.737 819.98 700.087 819.335 700.482 818.717C700.716 818.341 701.048 818.018 701.228 817.615C701.398 817.212 701.416 816.755 701.533 816.325C701.722 815.617 701.955 814.927 701.964 814.192C701.964 814.138 702 814.085 702 814.031V396.859C701.982 396.635 701.874 396.456 701.856 396.232ZM205.999 79.7732C221.528 63.7791 253.026 61.9602 262.313 61.79C291.116 61.3778 306.618 74.8809 318.034 88.2855L320.315 91.0452C321.303 92.2548 322.219 93.357 323.09 94.3516C323.898 84.8178 326.737 76.0189 334.667 70.7233C336.76 69.3345 339.347 68.8775 341.781 69.4689C344.223 70.0603 346.307 71.6462 347.52 73.8415L348.696 75.9651L349.801 73.7967C350.933 71.5656 352.953 69.899 355.369 69.218C357.803 68.5639 360.381 68.8954 362.519 70.2036C370.647 75.1856 373.808 83.868 374.976 93.3749C375.802 92.3534 376.665 91.2244 377.599 89.9969L379.808 87.1206C390.747 73.3039 405.791 59.1198 434.487 58.5732C443.783 58.4299 475.335 59.0392 491.466 74.4687C494.259 77.1299 495.022 81.2785 493.379 84.7551C491.735 88.2317 488.089 90.2836 484.209 89.8356C454.606 86.3859 445.813 102.864 439.93 134.458C439.472 136.895 438.026 139.045 435.924 140.38C433.832 141.715 431.272 142.128 428.865 141.5C427.194 141.079 425.452 140.47 423.682 139.834C422.254 139.323 419.551 138.364 418.105 138.203C417.656 140.434 417.934 145.022 418.078 147.396C418.258 150.264 417.036 153.041 414.809 154.86C412.581 156.679 409.617 157.333 406.824 156.59C405.737 156.303 404.651 155.971 403.573 155.631C402.199 155.201 400.564 154.69 399.495 154.573C399.271 155.649 399.046 157.925 399.513 162.369C399.765 164.743 399.055 167.127 397.537 168.982C396.02 170.836 393.828 172.001 391.439 172.234C384.99 172.826 380.589 170.37 377.599 168.74C377.185 168.516 376.682 168.238 376.242 168.014C374.554 170.245 372.228 174.546 371.24 176.374C370.512 177.736 369.875 178.91 369.381 179.725L367.638 182.646C364.207 188.389 361.252 193.345 357.803 197.529C356.133 199.554 353.663 200.746 351.031 200.799C350.978 200.799 350.915 200.799 350.861 200.799C348.292 200.799 345.84 199.697 344.134 197.78C340.55 193.739 337.407 188.9 333.778 183.3L331.901 180.406C331.389 179.626 330.715 178.479 329.925 177.153C328.874 175.361 326.386 171.132 324.608 168.973C324.195 169.215 323.683 169.51 323.27 169.761C320.36 171.499 315.986 174.071 309.609 173.757C307.22 173.614 304.983 172.53 303.403 170.738C301.813 168.946 301.014 166.598 301.175 164.215C301.472 159.752 301.166 157.495 300.888 156.419C299.819 156.581 298.211 157.145 296.855 157.62C295.777 157.996 294.709 158.373 293.622 158.704C290.874 159.537 287.874 159 285.575 157.253C283.284 155.514 281.964 152.772 282.036 149.905C282.09 147.719 282.207 142.979 281.668 140.73C280.213 140.945 277.536 142.029 276.108 142.594C274.402 143.284 272.722 143.938 271.114 144.43C268.725 145.174 266.139 144.861 263.974 143.606C261.81 142.352 260.274 140.255 259.726 137.818C252.666 106.448 243.263 90.2746 213.813 94.8533C210.014 95.4447 206.232 93.5362 204.463 90.1133C202.703 86.7084 203.322 82.5419 205.999 79.7732ZM190.362 230.413H519.91C524.877 230.413 528.891 234.427 528.891 239.373C528.891 244.319 524.877 248.334 519.91 248.334H190.362C185.404 248.334 181.381 244.319 181.381 239.373C181.381 234.427 185.404 230.413 190.362 230.413ZM528.9 291.872C528.9 296.818 524.886 300.832 519.919 300.832H323.297C318.339 300.832 314.315 296.818 314.315 291.872C314.315 286.925 318.339 282.911 323.297 282.911H519.919C524.877 282.911 528.9 286.917 528.9 291.872ZM190.362 282.911H295.598C300.556 282.911 304.579 286.925 304.579 291.872C304.579 296.818 300.556 300.832 295.598 300.832H190.362C185.404 300.832 181.381 296.818 181.381 291.872C181.381 286.925 185.404 282.911 190.362 282.911ZM190.362 340.929H519.91C524.877 340.929 528.891 344.943 528.891 349.889C528.891 354.835 524.877 358.85 519.91 358.85H190.362C185.404 358.85 181.381 354.835 181.381 349.889C181.381 344.943 185.404 340.929 190.362 340.929ZM17.9539 412.835L254.571 557.149L17.9539 779.48V412.835ZM17.9539 805.079V804.085L270.45 566.835L346.307 613.097C347.744 613.975 349.37 614.405 350.987 614.405C352.603 614.405 354.229 613.966 355.666 613.097L444.205 559.093L672.451 805.079H17.9539ZM684.019 791.173L459.842 549.56L684.019 412.835V791.173Z" fill="black"/>
</svg>
