<svg width="836" height="590" viewBox="0 0 836 590" fill="none" xmlns="http://www.w3.org/2000/svg">
<path d="M714.065 232.424C723.644 232.424 731.481 224.379 731.481 214.545V125.152H748.897C758.476 125.152 766.314 117.106 766.314 107.273C766.314 97.4394 758.476 89.3939 748.897 89.3939H503.503C495.143 38.797 452.299 0 400.573 0C342.925 0 296.076 48.0939 296.076 107.273C296.076 166.451 342.925 214.545 400.573 214.545C452.299 214.545 495.143 175.748 503.503 125.152H609.568V178.788C609.568 188.621 617.405 196.667 626.984 196.667C636.563 196.667 644.4 188.621 644.4 178.788V125.152H696.649V214.545C696.649 224.379 704.486 232.424 714.065 232.424ZM400.573 178.788C362.083 178.788 330.908 146.785 330.908 107.273C330.908 67.7606 362.083 35.7576 400.573 35.7576C439.063 35.7576 470.238 67.7606 470.238 107.273C470.238 146.785 438.889 178.788 400.573 178.788Z" fill="black"/>
<path d="M774.848 327.003C767.533 327.003 760.392 328.255 753.948 330.579L605.562 385.645C606.433 381.176 606.781 376.706 606.781 372.058C606.781 330.758 574.039 296.967 533.633 296.967H408.584L341.88 255.845C324.638 245.297 304.958 239.755 285.278 239.755H183.393V532.609L398.831 584.1C410.152 588.033 421.995 590 433.838 590C443.243 590 452.822 588.748 462.226 586.245C462.923 586.067 463.62 585.888 464.316 585.53L797.489 448.042C812.989 441.785 825.355 428.912 831.624 413C837.894 396.909 837.372 379.388 830.405 363.655C820.652 341.306 798.708 327.003 774.848 327.003Z" fill="black"/>
<path d="M131.144 192.197H17.4162C7.8373 192.197 0 200.242 0 210.076V553.17C0 563.003 7.8373 571.048 17.4162 571.048H131.144C140.723 571.048 148.56 563.003 148.56 553.17V210.076C148.56 200.242 140.723 192.197 131.144 192.197Z" fill="black"/>
</svg>
