<svg width="736" height="568" viewBox="0 0 736 568" fill="none" xmlns="http://www.w3.org/2000/svg">
<path d="M703.779 92.4084C712.783 82.394 717.746 69.3223 717.685 55.7803C717.769 44.6788 714.546 33.8094 708.438 24.5894C702.33 15.3694 693.62 8.22665 683.443 4.09244C673.266 -0.0417669 662.095 -0.975573 651.387 1.4128C640.678 3.80117 630.929 9.40088 623.41 17.4818C609.82 11.7171 595.501 7.90206 580.868 6.14735C575.042 5.42955 569.179 5.07096 563.31 5.07356C557.245 5.06747 551.185 5.42603 545.162 6.14735C530.578 7.89141 516.302 11.6654 502.738 17.3625C495.219 9.28158 485.47 3.68187 474.761 1.2935C464.052 -1.09487 452.881 -0.16108 442.705 3.97313C432.528 8.10734 423.818 15.2501 417.71 24.4701C411.602 33.6901 408.379 44.5595 408.463 55.661C408.45 69.2515 413.451 82.3568 422.486 92.4084C418.016 101.046 414.423 110.12 411.762 119.492C408.319 131.138 406.223 143.149 405.517 155.285C405.517 158.267 405.517 161.25 405.517 164.233C405.438 206.603 421.988 247.269 451.525 277.285C481.061 307.301 521.166 324.208 563.015 324.287C604.864 324.366 645.031 307.611 674.678 277.707C704.325 247.803 721.024 207.199 721.103 164.83C721.129 139.634 715.188 114.8 703.779 92.4084ZM563.31 288.315C530.949 288.284 499.92 275.271 477.016 252.127C454.111 228.982 441.199 197.592 441.105 164.83C441.105 161.887 441.105 158.904 441.105 155.881C441.976 143.609 444.678 131.541 449.119 120.088C450.415 116.867 451.829 113.646 453.361 110.544C466.769 83.4061 489.534 62.1833 517.35 50.8886C526.17 47.2465 535.388 44.6831 544.808 43.2527C550.82 42.3916 556.884 41.9531 562.956 41.9403C585.772 41.9488 608.13 48.4239 627.499 60.6326C646.868 72.8413 662.474 90.296 672.551 111.021C681.892 129.899 686.3 150.886 685.356 171.979C684.411 193.072 678.145 213.568 667.156 231.514C656.166 249.459 640.82 264.255 622.579 274.491C604.338 284.727 583.811 290.061 562.956 289.986L563.31 288.315Z" fill="black"/>
<path d="M642.972 152.899H588.764C585.971 146.791 581.127 141.886 575.094 139.059V78.5685C575.094 75.4042 573.852 72.3695 571.642 70.132C569.432 67.8945 566.435 66.6375 563.309 66.6375C560.184 66.6375 557.187 67.8945 554.977 70.132C552.767 72.3695 551.525 75.4042 551.525 78.5685V138.939C547.443 140.868 543.88 143.763 541.138 147.381C538.395 150.998 536.553 155.232 535.768 159.722C534.983 164.213 535.278 168.829 536.628 173.18C537.978 177.531 540.342 181.488 543.522 184.718C546.703 187.948 550.604 190.355 554.897 191.735C559.19 193.115 563.749 193.428 568.187 192.648C572.624 191.867 576.811 190.016 580.393 187.25C583.975 184.485 586.846 180.887 588.764 176.761H642.972C646.097 176.761 649.095 175.504 651.305 173.266C653.515 171.029 654.756 167.994 654.756 164.83C654.756 161.665 653.515 158.631 651.305 156.393C649.095 154.156 646.097 152.899 642.972 152.899Z" fill="black"/>
<path d="M719.571 451.173L426.493 558.552C394.854 570.458 360.159 571.131 328.093 560.461L167.236 506.533V309.672L233.582 300.008C250.402 297.44 267.58 298.828 283.784 304.064C296.014 308.068 307.403 314.339 317.369 322.557C321.965 326.375 498.378 357.396 498.378 357.396C504.067 358.282 509.189 361.387 512.646 366.047C516.104 370.707 517.623 376.552 516.879 382.331C516.059 387.737 513.346 392.664 509.235 396.213C505.125 399.761 499.891 401.694 494.489 401.66L348.127 407.983C345.595 407.888 343.13 408.815 341.273 410.561C339.417 412.306 338.321 414.726 338.228 417.289C338.134 419.852 339.05 422.348 340.773 424.228C342.497 426.107 344.888 427.216 347.42 427.311L505.566 446.401C508.828 447.11 512.202 447.11 515.465 446.401L704.84 405.358C710.841 403.381 717.372 403.897 722.996 406.795C728.621 409.692 732.878 414.733 734.831 420.809C736.785 426.884 736.274 433.497 733.412 439.191C730.55 444.885 725.571 449.196 719.571 451.173Z" fill="black"/>
<path d="M124.167 269.609L16.5754 269.875C7.39866 269.898 -0.0223723 277.448 5.06806e-05 286.739L0.58775 530.25C0.610173 539.541 8.06756 547.054 17.2443 547.031L124.835 546.765C134.012 546.742 141.433 539.192 141.411 529.901L140.823 286.391C140.801 277.1 133.343 269.586 124.167 269.609Z" fill="black"/>
</svg>
