<svg width="826" height="727" viewBox="0 0 826 727" fill="none" xmlns="http://www.w3.org/2000/svg">
<path fill-rule="evenodd" clip-rule="evenodd" d="M130.584 418.257H15.8935C11.5204 418.162 7.24233 419.493 3.75511 422.034C2.67463 422.762 1.7768 423.714 1.12715 424.819C0.477494 425.924 0.0924093 427.155 0 428.421V703.266C0.0931155 704.531 0.478564 705.76 1.12822 706.864C1.77787 707.967 2.67533 708.917 3.75511 709.644C7.24233 712.186 11.5204 713.517 15.8935 713.421H130.584C134.96 713.518 139.242 712.187 142.732 709.644C143.813 708.918 144.711 707.969 145.361 706.865C146.01 705.761 146.395 704.532 146.487 703.266V428.421C146.395 427.154 146.01 425.924 145.361 424.818C144.711 423.713 143.813 422.762 142.732 422.034C139.242 419.491 134.96 418.16 130.584 418.257ZM169.665 453.284V680.545L175.683 682.686L296.86 725.644C300.616 726.963 342.363 727.18 390.551 726.882C459.569 726.448 539.488 725.238 540.755 724.624L812.822 590.499C813.863 589.955 814.87 589.351 815.836 588.692C820.604 585.527 823.988 580.778 825.336 575.357C826.683 569.934 825.967 564.226 823.318 559.267C822.779 558.287 822.174 557.342 821.506 556.439C817.563 551.148 811.62 547.557 804.955 546.438C795.71 544.939 786.215 545.901 777.496 549.22L580.616 618.903C579.949 619.165 579.282 619.418 578.597 619.662L536.408 634.532C535.416 634.875 534.396 635.135 533.357 635.309C532.486 635.467 531.605 635.57 530.719 635.616L362.547 644.551C359.508 644.666 356.545 643.625 354.296 641.655C352.048 639.685 350.694 636.943 350.528 634.021C350.361 631.099 351.395 628.231 353.407 626.037C355.418 623.842 358.246 622.497 361.279 622.291L528.992 613.383L572.176 598.115C577.713 595.658 582.548 591.947 586.269 587.299C589.99 582.651 592.486 577.205 593.543 571.427C594.819 565.56 594.755 559.497 593.355 553.656C592.068 548.134 589.311 543.028 585.356 538.84C577.377 530.519 563.492 525.722 542.717 528.649C397.704 549.076 346.794 518.756 298.56 490.027C265.702 470.44 234.141 451.667 169.694 453.275L169.665 453.284ZM506.743 374.621C536.182 359.226 567.593 347.614 600.17 340.083C642.122 330.176 685.103 324.872 728.295 324.272V0C687 0.581014 645.905 5.65138 605.794 15.1146C570.863 22.9811 537.437 36.091 506.743 53.9626V374.621ZM261.966 0V324.272C305.157 324.872 348.139 330.176 390.091 340.083C422.668 347.616 454.078 359.228 483.518 374.621V53.9806C452.823 36.1106 419.397 23.0009 384.467 15.1326C344.356 5.66335 303.262 0.586931 261.966 0ZM238.741 33.4273V335.339C238.741 336.807 239.041 338.26 239.625 339.616C240.208 340.972 241.064 342.204 242.142 343.242C243.22 344.28 244.5 345.103 245.909 345.664C247.318 346.226 248.828 346.515 250.353 346.515C295.534 346.296 340.572 351.393 384.467 361.693C421.258 369.897 456.339 384.041 488.221 403.522C490.22 404.94 492.638 405.705 495.121 405.705C497.604 405.705 500.022 404.94 502.021 403.522C533.908 384.037 568.995 369.894 605.794 361.693C649.688 351.392 694.727 346.295 739.907 346.515C741.432 346.515 742.942 346.226 744.35 345.664C745.758 345.102 747.038 344.279 748.116 343.241C749.193 342.203 750.048 340.971 750.63 339.616C751.213 338.26 751.512 336.807 751.511 335.339V33.4364C758.683 33.0931 765.661 32.8401 772.445 32.6775C775.515 32.6052 778.876 32.542 782.537 32.5058V375.606C729.392 376.072 676.428 381.632 624.428 392.202C579.363 400.907 535.824 415.768 495.13 436.335C454.437 415.768 410.897 400.907 365.832 392.202C313.833 381.632 260.868 376.073 207.723 375.606V32.5058C211.385 32.5058 214.746 32.6052 217.815 32.6775C224.593 32.8401 231.568 33.084 238.741 33.4273Z" fill="black"/>
</svg>
