<svg width="820" height="625" viewBox="0 0 820 625" fill="none" xmlns="http://www.w3.org/2000/svg">
<path fill-rule="evenodd" clip-rule="evenodd" d="M380.714 281.522L51.0453 422.717C19.9146 436.033 0 464.946 0 496.739V516.304C0 576.332 52.4507 625 117.143 625C263.689 625 556.311 625 702.857 625C767.549 625 820 576.332 820 516.304V496.739C820 464.946 800.085 436.033 768.955 422.717L439.286 281.522V241.522C497.945 229.158 541.786 180.435 541.786 122.283C541.786 54.7826 482.746 0 410 0C337.254 0 278.214 54.7826 278.214 122.283C278.214 137.283 291.334 149.457 307.5 149.457C323.666 149.457 336.786 137.283 336.786 122.283C336.786 84.7826 369.586 54.3478 410 54.3478C450.414 54.3478 483.214 84.7826 483.214 122.283C483.214 159.783 450.414 190.217 410 190.217C393.834 190.217 380.714 202.391 380.714 217.391V281.522Z" fill="black"/>
</svg>
