<svg width="841" height="833" viewBox="0 0 841 833" fill="none" xmlns="http://www.w3.org/2000/svg">
<path d="M369.999 457.134H451.063L465.791 375.866H384.727L369.999 457.134Z" fill="black"/>
<path d="M479.37 13.2084C460.986 4.51295 440.872 0 420.5 0C400.128 0 380.014 4.51295 361.63 13.2084C345.467 20.8882 330.657 33.4034 309.94 50.9167L306.699 53.5985C288.813 69.5684 265.929 78.9648 241.881 80.2137L237.696 80.5388C210.538 82.6924 191.134 84.1958 174.232 90.1284C155.022 96.8504 137.574 107.743 123.164 122.008C108.755 136.274 97.749 153.551 90.9529 172.575C85.0044 189.316 83.4866 208.536 81.3123 235.435L80.9841 239.58C79.7232 263.399 70.2365 286.065 54.1133 303.781L51.4057 306.951C33.7242 327.512 21.0478 342.181 13.3352 358.19C4.55629 376.399 0 396.322 0 416.5C0 436.678 4.55629 456.601 13.3352 474.81C21.0888 490.819 33.7242 505.488 51.4057 526.008L54.1133 529.218C70.9332 548.723 78.8918 567.374 80.9841 593.42L81.3123 597.565C83.4866 624.464 85.0044 643.684 90.994 660.425C97.7805 679.452 108.778 696.735 123.18 711.007C137.583 725.28 155.026 736.181 174.232 742.912C191.134 748.804 210.538 750.308 237.696 752.461L241.881 752.786C267.685 754.818 286.597 762.457 306.699 779.401L309.899 782.083C330.657 799.596 345.467 812.152 361.63 819.792C380.014 828.487 400.128 833 420.5 833C440.872 833 460.986 828.487 479.37 819.792C495.533 812.112 510.343 799.596 531.06 782.083L534.301 779.401C553.993 762.742 572.823 754.859 599.119 752.786L603.304 752.461C630.462 750.308 649.866 748.804 666.768 742.872C685.978 736.15 703.426 725.257 717.836 710.992C732.245 696.726 743.251 679.449 750.047 660.425C755.996 643.684 757.513 624.464 759.688 597.565L760.016 593.42C762.067 567.861 769.78 549.129 786.887 529.218L789.594 526.008C807.276 505.488 819.952 490.819 827.665 474.81C836.444 456.601 841 436.678 841 416.5C841 396.322 836.444 376.399 827.665 358.19C819.911 342.181 807.276 327.512 789.594 306.992L786.887 303.781C770.763 286.065 761.277 263.399 760.016 239.58L759.688 235.435C757.513 208.536 755.996 189.316 750.006 172.575C743.219 153.548 732.222 136.265 717.82 121.993C703.417 107.72 685.974 96.8191 666.768 90.0877C649.866 84.1958 630.462 82.6924 603.304 80.5388L599.119 80.2137C575.071 78.9648 552.187 69.5684 534.301 53.5985L531.06 50.9167C510.343 33.4034 495.533 20.8476 479.37 13.2084ZM380.994 223.976C389.022 225.402 396.15 229.926 400.812 236.555C405.474 243.184 407.287 251.375 405.854 259.328L395.762 314.915H476.826L488.846 248.56C490.293 240.601 494.873 233.538 501.578 228.924C508.283 224.31 516.564 222.523 524.599 223.956C532.634 225.389 539.765 229.926 544.423 236.567C549.082 243.208 550.886 251.41 549.439 259.369L539.347 314.915H596.165C604.326 314.915 612.152 318.126 617.922 323.841C623.692 329.556 626.933 337.308 626.933 345.391C626.933 353.473 623.692 361.225 617.922 366.94C612.152 372.655 604.326 375.866 596.165 375.866H528.311L513.543 457.134H596.165C604.326 457.134 612.152 460.345 617.922 466.06C623.692 471.775 626.933 479.527 626.933 487.609C626.933 495.692 623.692 503.443 617.922 509.159C612.152 514.874 604.326 518.085 596.165 518.085H502.548L490.528 584.44C489.087 592.399 484.512 599.464 477.811 604.082C471.11 608.7 462.831 610.492 454.796 609.064C446.761 607.636 439.628 603.105 434.965 596.468C430.303 589.831 428.494 581.631 429.936 573.672L440.027 518.085H358.964L346.944 584.44C345.502 592.399 340.928 599.464 334.226 604.082C327.525 608.7 319.247 610.492 311.212 609.064C303.177 607.636 296.043 603.105 291.381 596.468C286.719 589.831 284.909 581.631 286.351 573.672L296.443 518.085H244.835C236.674 518.085 228.848 514.874 223.078 509.159C217.308 503.443 214.066 495.692 214.066 487.609C214.066 479.527 217.308 471.775 223.078 466.06C228.848 460.345 236.674 457.134 244.835 457.134H307.478L322.206 375.866H244.835C236.674 375.866 228.848 372.655 223.078 366.94C217.308 361.225 214.066 353.473 214.066 345.391C214.066 337.308 217.308 329.556 223.078 323.841C228.848 318.126 236.674 314.915 244.835 314.915H333.242L345.262 248.56C346.71 240.607 351.288 233.55 357.988 228.94C364.689 224.33 372.964 222.544 380.994 223.976Z" fill="black"/>
</svg>
