<svg width="813" height="819" viewBox="0 0 813 819" fill="none" xmlns="http://www.w3.org/2000/svg">
<path d="M214.431 139.226C214.431 181.644 180.319 216.008 138.212 216.008C96.1056 216.008 61.9934 181.644 61.9934 139.226C61.9934 96.8083 96.1056 62.4443 138.212 62.4443C180.319 62.4443 214.431 96.8083 214.431 139.226Z" fill="black"/>
<path d="M751.011 679.777C751.011 722.194 716.899 756.558 674.792 756.558C632.685 756.558 598.573 722.194 598.573 679.777C598.573 637.359 632.685 602.995 674.792 602.995C716.899 602.995 751.011 637.359 751.011 679.777Z" fill="black"/>
<path d="M387.429 390.291H425.572V428.715H387.429V390.291Z" fill="black"/>
<path d="M406.499 624.486C524.351 624.486 619.908 528.215 619.908 409.501C619.908 290.787 524.342 194.516 406.499 194.516C288.655 194.516 193.09 290.787 193.09 409.501C193.09 528.215 288.655 624.486 406.499 624.486ZM311.176 390.282C296.203 390.282 284.076 378.066 284.076 362.982C284.076 347.898 296.203 335.682 311.176 335.682H333.195V313.466C333.195 298.383 345.322 286.166 360.295 286.166C375.268 286.166 387.395 298.383 387.395 313.466V335.682H425.538V313.466C425.538 298.383 437.665 286.166 452.638 286.166C467.611 286.166 479.738 298.383 479.738 313.466V335.682H501.757C516.73 335.682 528.857 347.898 528.857 362.982C528.857 378.066 516.73 390.282 501.757 390.282H479.738V428.707H501.757C516.73 428.707 528.857 440.923 528.857 456.007C528.857 471.09 516.73 483.307 501.757 483.307H479.738V505.523C479.738 520.606 467.611 532.823 452.638 532.823C437.665 532.823 425.538 520.606 425.538 505.523V483.307H387.395V505.523C387.395 520.606 375.268 532.823 360.295 532.823C345.322 532.823 333.195 520.606 333.195 505.523V483.307H311.176C296.203 483.307 284.076 471.09 284.076 456.007C284.076 440.923 296.203 428.707 311.176 428.707H333.195V390.282H311.176Z" fill="black"/>
<path d="M406.499 0C361.58 0 317.134 7.47341 274.355 22.2157C257.79 28.017 241.666 34.876 226.015 42.6563C227.438 43.9531 229.064 44.9427 230.453 46.3418C242.512 58.4902 251.828 72.6181 258.298 88.0083C269.341 82.8555 280.452 77.8728 291.97 73.8804C329.062 61.0839 367.544 54.6 406.5 54.6C600.736 54.6 758.8 213.832 758.8 409.501C758.8 448.745 752.364 487.579 739.661 524.878C734.817 539.142 742.371 554.669 756.531 559.549C759.444 560.573 762.425 561.051 765.304 561.051C776.551 561.051 787.086 553.919 790.947 542.589C805.615 499.557 813 454.783 813 409.504C813 183.696 630.652 0 406.499 0Z" fill="black"/>
<path d="M554.703 730.996C543.66 736.149 532.549 741.131 521.031 745.124C483.939 757.92 445.457 764.404 406.5 764.404C212.265 764.404 54.2008 605.173 54.2008 409.503C54.2008 370.259 60.6371 331.425 73.3399 294.126C78.184 279.862 70.6299 264.335 56.4703 259.455C42.3106 254.473 26.897 262.151 22.019 276.449C7.38506 319.447 0 364.22 0 409.499C0 635.308 182.346 819 406.499 819C451.418 819 495.864 811.527 538.643 796.784C555.242 791.017 571.366 784.158 586.983 776.344C585.56 775.047 583.934 774.057 582.545 772.658C570.486 760.51 561.173 746.352 554.703 730.996Z" fill="black"/>
</svg>
