<svg width="806" height="812" viewBox="0 0 806 812" fill="none" xmlns="http://www.w3.org/2000/svg">
<path d="M30.6175 770.083H772.179C777.385 770.083 781.613 773.664 781.613 778.074V804.009C781.613 808.419 777.385 812 772.179 812H30.6175C25.411 812 21.1834 808.419 21.1834 804.009V778.074C21.1834 773.664 25.411 770.083 30.6175 770.083Z" fill="black"/>
<path d="M804.931 483.748C769.464 441.228 743.432 393.618 728.034 343.224V330.106C735.421 330.106 741.385 325.055 741.385 318.797C741.385 312.54 735.422 307.488 728.034 307.488V295.275C728.034 289.018 722.071 283.966 714.684 283.966C707.296 283.966 701.333 289.018 701.333 295.275V307.488H687.983V295.125C687.983 288.867 682.02 283.816 674.632 283.816C667.245 283.816 661.282 288.867 661.282 295.125V307.488H648.11V295.275C648.11 289.018 642.147 283.966 634.76 283.966C627.372 283.966 621.409 289.018 621.409 295.275V307.488H621.231C613.844 307.488 607.881 312.539 607.881 318.797C607.881 325.055 613.844 330.106 621.231 330.106H621.409V343.676C610.907 377.639 595.555 410.435 575.663 441.228L615.713 474.4C621.543 479.225 625.236 485.633 626.037 492.493H799.586C801.989 492.456 804.169 491.287 805.282 489.478C806.35 487.631 806.222 485.482 804.931 483.748ZM661.287 343.224H648.116V330.106H661.287V343.224ZM701.338 343.224H687.987V330.106H701.338V343.224Z" fill="black"/>
<path d="M623.375 507.564C622.084 510.353 620.259 512.954 618.034 515.254C611.715 521.587 602.548 525.394 592.757 525.809C588.085 525.997 583.412 525.319 579.052 523.849L565.88 754.996H755.628L768.799 507.56L623.375 507.564ZM684.963 520.23C704.098 525.168 717.225 540.057 717.36 557.02V563.956H684.963V520.23ZM684.963 586.573H717.36V625.324C717.36 626.983 715.758 628.34 713.8 628.34H684.964L684.963 586.573ZM625.866 557.02C625.999 540.057 639.128 525.167 658.263 520.23V563.956H625.866V557.02ZM625.866 586.573H658.263V628.34H629.427C627.469 628.34 625.867 626.983 625.867 625.324L625.866 586.573ZM732.667 717.003C725.369 720.923 718.605 716.4 710.773 720.32C701.517 725.145 705.433 734.795 697.422 738.113C687.81 742.184 678.376 729.367 664.848 733.137C657.016 735.248 656.126 740.525 647.404 742.033C641.797 742.749 636.012 741.92 631.028 739.621C624.931 728.161 620.748 716.023 618.567 703.584C615.496 691.031 615.808 678.027 619.457 665.587C621.103 654.768 628.268 645.118 639.038 639.2C646.024 636.523 653.857 635.883 661.288 637.39C673.614 640.594 684.161 647.418 691.015 656.69C703.475 670.412 701.161 676.896 711.485 686.696C718.828 693.255 728.128 698.043 738.364 700.568C740.144 701.02 741.212 702.528 740.856 704.036C740.366 709.125 737.385 713.836 732.667 717.003Z" fill="black"/>
<path d="M673.386 666.567C676.724 674.709 666.444 677.763 663.106 669.62C659.724 661.478 670.049 658.463 673.386 666.567Z" fill="black"/>
<path d="M648.426 673.959C651.763 682.064 641.484 685.116 638.146 676.975C634.809 668.87 645.088 665.817 648.426 673.959Z" fill="black"/>
<path d="M674.32 692.275C679.794 705.619 662.928 710.594 657.454 697.288C651.936 683.944 668.802 678.969 674.32 692.275Z" fill="black"/>
<path d="M608.599 495.955C608.554 499.423 607.086 502.778 604.505 505.454C603.659 506.208 602.769 506.887 601.835 507.565C595.516 511.787 586.616 511.787 580.297 507.565C579.718 507.264 579.184 506.924 578.695 506.51L563.03 493.542L561.606 492.487L547.189 480.575L403.897 362.512C403.229 361.947 402.339 361.608 401.405 361.608C400.47 361.608 399.58 361.947 398.913 362.512L312.937 433.38L257.578 478.917L241.202 492.487L236.93 495.804L224.114 506.509C223.624 506.924 223.09 507.263 222.512 507.565C219.486 509.638 215.703 510.731 211.832 510.731C207.915 510.731 204.088 509.6 200.973 507.565C200.039 506.886 199.149 506.208 198.303 505.454C194.743 501.873 193.408 497.048 194.743 492.486C195.5 489.697 197.146 487.134 199.549 485.098L234.794 455.847L238.177 452.982L390.369 326.778L391.793 325.572C397.178 321.199 405.632 321.199 411.017 325.572L411.729 326.175L565.346 453.585L566.592 454.791L603.261 485.098C605.664 487.134 607.311 489.697 608.067 492.487C608.423 493.618 608.599 494.786 608.599 495.955Z" fill="black"/>
<path d="M554.486 507.564L401.405 381.511L267.904 491.43L266.658 492.486L248.323 507.564L238.177 515.857L251.883 754.994H310.623V651.478C310.623 608.996 351.252 574.579 401.405 574.579C451.558 574.579 492.187 608.995 492.187 651.478V754.994H548.079L561.785 513.589L554.486 507.564ZM456.406 477.483H414.754V442.201C435.314 446.422 451.378 460.031 456.406 477.483ZM388.053 442.201V477.483H346.401C351.43 460.03 367.495 446.421 388.053 442.201ZM346.401 500.101H388.053V535.345C367.494 531.123 351.43 517.515 346.401 500.101ZM414.754 535.345V500.101H456.406C451.378 517.516 435.313 531.123 414.754 535.345Z" fill="black"/>
<path d="M401.398 630.003C385.423 631.436 373.719 643.423 375.054 656.993V754.999H427.743V656.993C427.876 649.869 424.939 642.896 419.51 637.468C415.015 632.869 408.429 630.154 401.398 630.003Z" fill="black"/>
<path d="M401.398 597.203C366.02 597.241 337.362 621.516 337.317 651.484V755H348.353V656.994C346.974 630.947 370.648 608.782 401.398 607.387C416.083 607.576 430.011 613.079 439.535 622.541C449.281 632.116 454.576 644.366 454.443 656.994V755H465.479V651.484C465.435 621.516 436.777 597.24 401.398 597.203Z" fill="black"/>
<path d="M184.594 343.668V330.098H184.772C192.159 330.098 198.122 325.047 198.122 318.789C198.122 312.532 192.159 307.481 184.772 307.481H184.594V295.268C184.594 289.01 178.631 283.959 171.244 283.959C163.856 283.959 157.893 289.01 157.893 295.268V307.481H144.721V295.117C144.721 288.86 138.758 283.808 131.371 283.808C123.984 283.808 118.02 288.859 118.02 295.117V307.481H104.67V295.268C104.67 289.01 98.7069 283.959 91.3195 283.959C83.9322 283.959 77.9691 289.01 77.9691 295.268V307.481C70.5819 307.481 64.6186 312.532 64.6186 318.789C64.6186 325.047 70.5817 330.098 77.9691 330.098V343.216C62.5714 393.616 36.5392 441.222 1.07197 483.74C-0.218538 485.474 -0.352054 487.623 0.715961 489.47C1.82847 491.279 4.00898 492.448 6.41204 492.485H176.759C177.56 485.625 181.254 479.216 187.083 474.391L229.269 439.41C209.912 409.141 194.919 376.991 184.594 343.668ZM118.02 343.216H104.67V330.098H118.02V343.216ZM157.893 343.216H144.721V330.098H157.893V343.216Z" fill="black"/>
<path d="M220.912 524.606C217.975 525.473 214.905 525.85 211.834 525.812H210.054C200.264 525.397 191.096 521.59 184.777 515.257C182.552 512.958 180.728 510.357 179.437 507.567H37.2172L50.3889 755.003H234.087L220.912 524.606ZM147.753 520.233C166.844 525.209 179.927 540.099 179.971 557.024V563.96H147.753V520.233ZM147.753 586.577H179.971V625.328C179.971 626.986 178.369 628.343 176.411 628.343H147.753V586.577ZM88.6561 557.024C88.7896 540.061 101.918 525.171 121.053 520.233V563.959H88.6561V557.024ZM88.6561 586.577H121.053V628.343H92.2172C90.2592 628.343 88.6572 626.986 88.6572 625.328L88.6561 586.577ZM187.448 703.583C185.223 716.023 180.995 728.123 174.987 739.62C170.003 741.92 164.218 742.749 158.611 742.033C149.711 740.525 148.821 735.248 141.167 733.137C127.639 729.367 118.027 742.184 108.415 738.113C100.583 734.795 104.499 725.145 95.0642 720.32C87.41 716.4 80.6462 720.923 73.3484 717.003C68.6314 713.799 65.6498 709.124 64.9822 704.035C64.8042 702.49 65.9167 701.057 67.6523 700.567C77.8875 698.004 87.1432 693.216 94.531 686.695C104.855 676.895 102.363 670.411 115.002 656.689C121.855 647.416 132.401 640.593 144.728 637.389C152.16 635.882 159.991 636.522 166.978 639.199C177.747 645.117 184.912 654.767 186.559 665.586C190.208 678.026 190.518 691.031 187.448 703.583Z" fill="black"/>
<path d="M140.233 662.003C147.086 664.038 142.102 676.214 135.204 674.178C128.351 672.18 133.38 659.967 140.233 662.003Z" fill="black"/>
<path d="M165.193 669.356C172.046 671.392 167.018 683.605 160.165 681.569C153.311 679.534 158.34 667.358 165.193 669.356Z" fill="black"/>
<path d="M144.186 684.815C155.445 688.133 147.212 708.111 135.998 704.756C124.739 701.439 132.972 681.498 144.186 684.815Z" fill="black"/>
<path d="M542.205 240.683L414.75 85.6075V59.2958C425.296 59.145 435.844 60.1251 446.123 62.236C465.303 66.2317 474.292 72.3763 489.956 71.0945C499.747 70.1144 509.047 66.8726 516.791 61.7083C517.725 61.1429 517.547 59.8989 516.479 59.4842C508.024 56.2424 500.325 51.7567 493.739 46.2155C500.236 39.8073 506.733 33.3993 513.23 26.9907C514.209 26.0107 513.097 24.5405 511.628 24.8798C498.945 28.0839 485.461 28.4232 472.601 25.8598C459.607 23.0704 454.311 18.3585 439.003 14.551C431.082 12.5909 422.938 11.4976 414.706 11.2338C414.706 4.97633 408.698 -0.0374245 401.311 0.000210495C393.968 0.0379131 388.005 5.08905 388.049 11.3467V85.6064L260.594 240.682C257.345 244.716 256.989 249.917 259.704 254.214C262.374 258.512 267.669 261.188 273.41 261.188H287.116V391.309L364.368 327.377L379.32 314.862C391.602 304.76 411.183 304.76 423.465 314.862L436.459 325.568L515.67 391.309V261.188H529.376C535.116 261.188 540.412 258.512 543.082 254.214C545.796 249.917 545.44 244.715 542.192 240.682L542.205 240.683ZM388.058 278.793H360.467C357.842 278.793 355.75 277.021 355.75 274.797V233.295H388.057L388.058 278.793ZM388.058 210.677H355.751V203.855C355.795 186.892 368.923 171.964 388.058 167.064V210.677ZM447.066 274.797C447.066 275.852 446.576 276.87 445.687 277.624C444.797 278.378 443.595 278.793 442.349 278.793H414.758V233.295H447.065L447.066 274.797ZM447.066 210.677H414.759V167.064C433.894 171.965 447.022 186.892 447.066 203.855V210.677Z" fill="black"/>
</svg>
