<svg width="632" height="823" viewBox="0 0 632 823" fill="none" xmlns="http://www.w3.org/2000/svg">
<path d="M588.91 342.917H574.546V260.617C574.546 207.671 529.446 164.596 473.998 164.596H459.634V41.15C459.634 18.5177 440.243 0 416.544 0H215.456C191.757 0 172.366 18.5177 172.366 41.15V164.596H158.002C102.56 164.596 57.4537 207.665 57.4537 260.617V288.05H43.0903C19.3909 288.05 0 306.568 0 329.2V356.633C0 379.266 19.3909 397.783 43.0903 397.783H57.4537V425.217H43.0903C19.3909 425.217 0 443.734 0 466.367V493.8C0 516.432 19.3909 534.95 43.0903 534.95H57.4537V562.383C57.4537 615.329 102.554 658.404 158.002 658.404H172.366V781.85C172.366 804.482 191.757 823 215.456 823H416.544C440.243 823 459.634 804.482 459.634 781.85V658.404H473.998C529.44 658.404 574.546 615.334 574.546 562.383V480.083H588.91C612.609 480.083 632 461.566 632 438.933V384.067C632 361.434 612.609 342.917 588.91 342.917ZM287.282 754.417C287.282 746.872 293.746 740.7 301.646 740.7H330.373C338.273 740.7 344.736 746.872 344.736 754.417C344.736 761.961 338.273 768.133 330.373 768.133H301.646C293.746 768.133 287.282 761.961 287.282 754.417ZM330.373 713.267H301.646C293.746 713.267 287.282 707.094 287.282 699.55C287.282 692.006 293.746 685.833 301.646 685.833H330.373C338.273 685.833 344.736 692.006 344.736 699.55C344.736 707.094 338.273 713.267 330.373 713.267ZM545.829 562.379C545.829 600.237 513.654 630.962 474.011 630.962H158.016C118.373 630.962 86.1989 600.237 86.1989 562.379V260.612C86.1989 222.754 118.373 192.029 158.016 192.029H474.011C513.654 192.029 545.829 222.754 545.829 260.612V562.379Z" fill="black"/>
<path d="M408.073 384.062L354.929 434.951C352.056 437.558 348.465 438.929 344.73 438.929C340.996 438.929 337.405 437.557 334.532 434.951L301.64 403.403L268.748 434.951C266.019 437.42 262.428 438.929 258.55 438.929H183.286C225.083 501.203 304.37 544.414 308.967 546.88C311.121 548.115 313.563 548.663 316.005 548.663C318.446 548.663 320.888 548.115 323.043 546.88C328.788 543.863 455.903 474.593 472.275 384.062L408.073 384.062Z" fill="black"/>
<path d="M252.654 411.496L291.436 374.323C297.037 368.974 306.23 368.974 311.832 374.323L344.724 405.872L391.98 360.607C394.709 358.138 398.299 356.63 402.178 356.63H473.564C469.111 310.542 428.75 274.33 379.772 274.33C355.785 274.33 333.234 283.108 315.998 298.745C298.762 283.108 276.212 274.33 252.225 274.33C200.229 274.33 158 315.068 158 365.136C158 381.184 161.735 396.685 168.055 411.498L252.654 411.496Z" fill="black"/>
<path d="M143.639 411.496C135.739 411.496 129.275 417.668 129.275 425.212C129.275 432.757 135.739 438.929 143.639 438.929H183.282C177.393 430.15 172.222 420.96 168.057 411.496H143.639Z" fill="black"/>
<path d="M502.72 356.629H473.562C473.849 359.372 473.993 362.253 473.993 365.133C473.993 371.58 473.418 377.89 472.269 384.062H502.72C510.62 384.062 517.083 377.889 517.083 370.345C517.083 362.801 510.62 356.629 502.72 356.629Z" fill="black"/>
</svg>
