<svg width="816" height="785" viewBox="0 0 816 785" fill="none" xmlns="http://www.w3.org/2000/svg">
<path d="M586.5 343.438C586.5 320.666 577.097 298.827 560.359 282.726C543.622 266.624 520.921 257.578 497.25 257.578C473.579 257.578 450.878 266.624 434.141 282.726C417.403 298.827 408 320.666 408 343.438C408 320.666 398.597 298.827 381.859 282.726C365.122 266.624 342.421 257.578 318.75 257.578C295.079 257.578 272.378 266.624 255.641 282.726C238.903 298.827 229.5 320.666 229.5 343.438C229.287 376.563 239.804 408.931 259.59 436.043C298.376 485.854 349.358 525.671 408 551.953C466.642 525.671 517.624 485.854 556.41 436.043C576.196 408.931 586.713 376.563 586.5 343.438Z" fill="black"/>
<path d="M51 441.562C79.1665 441.562 102 419.596 102 392.5C102 365.404 79.1665 343.438 51 343.438C22.8335 343.438 0 365.404 0 392.5C0 419.596 22.8335 441.562 51 441.562Z" fill="black"/>
<path d="M146.128 245.353C160.211 221.887 151.854 191.881 127.461 178.333C103.068 164.785 71.8766 172.825 57.7934 196.291C43.7101 219.757 52.0677 249.763 76.4606 263.312C100.854 276.86 132.045 268.82 146.128 245.353Z" fill="black"/>
<path d="M256.785 142.159C281.29 128.61 289.738 98.5169 275.655 74.943C261.572 51.369 230.29 43.2416 205.785 56.7898C181.28 70.3381 172.832 100.432 186.915 124.005C200.998 147.579 232.28 155.707 256.785 142.159Z" fill="black"/>
<path d="M765 441.562C793.167 441.562 816 419.596 816 392.5C816 365.404 793.167 343.438 765 343.438C736.833 343.438 714 365.404 714 392.5C714 419.596 736.833 441.562 765 441.562Z" fill="black"/>
<path d="M739.447 263.233C763.84 249.685 772.198 219.678 758.115 196.212C744.031 172.746 712.84 164.706 688.447 178.254C664.054 191.802 655.697 221.808 669.78 245.275C683.863 268.741 715.054 276.781 739.447 263.233Z" fill="black"/>
<path d="M630.625 122.587C644.708 99.121 636.35 69.1148 611.957 55.5666C587.564 42.0184 556.373 50.0585 542.29 73.5247C528.207 96.991 536.564 126.997 560.957 140.545C585.35 154.094 616.541 146.053 630.625 122.587Z" fill="black"/>
<path d="M758.239 588.801C772.322 565.334 763.965 535.328 739.572 521.78C715.179 508.232 683.988 516.272 669.904 539.738C655.821 563.204 664.179 593.21 688.572 606.759C712.965 620.307 744.156 612.267 758.239 588.801Z" fill="black"/>
<path d="M615.188 733.239C639.692 719.691 648.141 689.597 634.057 666.023C619.974 642.45 588.692 634.322 564.188 647.87C539.683 661.419 531.234 691.512 545.318 715.086C559.401 738.66 590.683 746.787 615.188 733.239Z" fill="black"/>
<path d="M408 785C436.167 785 459 763.034 459 735.938C459 708.841 436.167 686.875 408 686.875C379.833 686.875 357 708.841 357 735.938C357 763.034 379.833 785 408 785Z" fill="black"/>
<path d="M408 98.125C436.167 98.125 459 76.159 459 49.0625C459 21.966 436.167 0 408 0C379.833 0 357 21.966 357 49.0625C357 76.159 379.833 98.125 408 98.125Z" fill="black"/>
<path d="M273.615 711.321C287.698 687.855 279.34 657.849 254.947 644.301C230.555 630.753 199.363 638.793 185.28 662.259C171.197 685.725 179.555 715.731 203.947 729.28C228.34 742.828 259.532 734.788 273.615 711.321Z" fill="black"/>
<path d="M127.585 606.654C151.978 593.106 160.335 563.1 146.252 539.634C132.169 516.168 100.978 508.127 76.5849 521.676C52.192 535.224 43.8344 565.23 57.9176 588.696C72.0009 612.163 103.192 620.203 127.585 606.654Z" fill="black"/>
</svg>
