<svg width="810" height="465" viewBox="0 0 810 465" fill="none" xmlns="http://www.w3.org/2000/svg">
<path d="M405 55.0415C370.47 55.0412 336.716 65.4486 308.005 84.9478C279.294 104.447 256.917 132.162 243.702 164.588C230.488 197.015 227.031 232.696 233.767 267.119C240.503 301.543 257.131 333.163 281.547 357.981C305.963 382.8 337.071 399.701 370.938 406.548C404.804 413.396 439.907 409.882 471.809 396.45C503.71 383.019 530.977 360.274 550.161 331.091C569.345 301.908 579.584 267.598 579.584 232.5C579.532 185.452 561.121 140.346 528.392 107.077C495.662 73.809 451.287 55.0953 405 55.0415ZM413.108 358.207C412.832 358.321 412.55 358.428 412.266 358.524C407.568 360.267 402.414 360.267 397.716 358.524C397.468 358.439 397.222 358.343 396.979 358.25C303.899 320.708 272.498 249.478 282.68 195.54C290.044 156.071 318.045 130.55 354.006 130.55C370.824 130.55 387.978 136.208 405.112 147.388C422.052 136.708 439.375 131.11 455.697 131.11C491.425 131.11 519.522 156.347 527.274 195.404L527.295 195.509C537.498 248.885 506.142 319.894 413.108 358.207Z" fill="black"/>
<path d="M455.704 160.106C442.885 160.106 427.851 165.987 413.374 176.668C410.912 178.485 407.943 179.454 404.901 179.433C401.859 179.413 398.902 178.405 396.464 176.556C381.789 165.427 367.11 159.546 354.013 159.546C332.069 159.546 315.475 175.418 310.707 200.97C302.821 242.746 328.995 298.628 404.968 330.253C480.942 297.976 507.142 242.327 499.305 201.084C494.268 175.806 477.574 160.106 455.704 160.106Z" fill="black"/>
<path d="M695.146 119.945C627.155 65.2222 521.618 0 405 0C340.505 0 237.725 20.8816 114.328 120.36C72.7802 153.94 34.4957 191.492 0 232.5C34.6512 273.669 73.1125 311.361 114.854 345.055C182.845 399.778 288.382 465 405 465C469.494 465 572.275 444.118 695.672 344.64C737.22 311.06 775.504 273.508 810 232.5C775.35 191.33 736.888 153.638 695.146 119.945ZM405 438.958C364.827 438.959 325.557 426.85 292.154 404.165C258.752 381.479 232.718 349.235 217.344 311.509C201.97 273.784 197.948 232.272 205.785 192.223C213.622 152.174 232.967 115.387 261.373 86.5126C289.779 57.6387 325.971 37.9753 365.372 30.0089C404.772 22.0426 445.612 26.131 482.727 41.7573C519.842 57.3836 551.564 83.8458 573.883 117.798C596.202 151.75 608.114 191.666 608.114 232.5C608.054 287.237 586.635 339.714 548.557 378.42C510.479 417.125 458.851 438.896 405 438.958Z" fill="black"/>
</svg>
