<svg width="820" height="829" viewBox="0 0 820 829" fill="none" xmlns="http://www.w3.org/2000/svg">
<path d="M492.455 401.006C471.04 390.442 445.489 393.333 426.856 408.419C419.682 414.943 410.164 422.208 400.939 414.646C363.015 375.06 293.171 399.079 292.88 455.567C292.88 506.718 371.656 565.876 410.02 589.75C465.662 556.391 587.339 457.939 492.455 401.006Z" fill="black"/>
<path d="M693.786 107.447C672.518 88.0986 645.795 75.9784 617.352 72.7541C609.299 71.8645 603.442 64.5995 604.174 56.4445C607.542 35.5395 632.874 45.1765 646.491 48.1417C587.482 -25.9904 505.342 -13.2402 442.668 77.6466C434.98 87.9876 422.936 94.0671 410.161 94.0671C397.385 94.0671 385.342 87.9883 377.654 77.6466C314.838 -12.7942 232.691 -26.2855 173.681 48.1417C187.445 44.8799 213.216 35.3905 216.73 56.4445C217.096 60.3735 215.925 64.2655 213.472 67.3046C210.983 70.344 207.432 72.2344 203.552 72.605C38.2345 101.517 5.29478 346.597 0.168743 651.581C-3.6383 667.593 57.5673 696.653 123.606 665.073C128.951 662.441 132.209 656.844 131.952 650.839C131.806 648.764 124.045 479.887 187.887 370.471C174.562 487.004 175.294 648.173 175.881 770.343C195.648 848.478 624.236 848.626 644.29 770.343C644.583 751.069 644.437 575.82 643.558 548.094C641.801 480.337 637.408 431.408 632.137 370.471C695.978 479.887 688.364 648.761 688.217 650.839C687.888 656.881 691.183 662.479 696.564 665.073C714.903 674.228 735.001 679.047 755.426 679.158C775.67 679.418 795.62 674.228 813.264 664.184C817.51 661.441 820.036 656.696 820 651.582C819.267 363.65 776.811 180.541 693.786 107.447ZM417.335 619.849C412.833 622.518 407.232 622.518 402.693 619.849C388.49 611.546 263.587 536.821 263.587 456.905C261.244 382.328 353.199 337.554 410.012 384.107C437.32 362.905 474.072 359.051 505.045 374.173C536.673 389.222 556.733 421.544 556.44 456.905C556.44 536.82 431.542 611.546 417.335 619.849Z" fill="black"/>
</svg>
