<svg width="724" height="776" viewBox="0 0 724 776" fill="none" xmlns="http://www.w3.org/2000/svg">
<path fill-rule="evenodd" clip-rule="evenodd" d="M1.93963e-06 334.52L41.9738 66.9105C49.0827 21.5861 69.7568 -8.14364 130.163 1.98236L399.098 47.0811L705.669 445.202C737.541 486.586 722.916 513.2 691.38 536.306L386.327 759.736C358.545 780.076 319.723 782.495 300.071 754.958L1.93963e-06 334.52ZM305.218 311.139C347.569 317.782 381.611 344.503 398.674 379.685C425.67 351.414 466.278 336.401 508.609 343.04C576.318 353.66 622.829 415.65 612.504 481.482C607.793 511.518 592.089 537.166 569.923 555.178L349.011 704.167L193.687 509.653C169.64 482.973 158.283 447.052 163.918 411.123C174.244 345.29 237.519 300.521 305.218 311.139ZM173.443 83.3012C210.006 89.036 235.136 122.518 229.56 158.067C223.986 193.608 189.811 217.787 153.248 212.053C116.685 206.318 91.5645 172.838 97.1389 137.297C102.715 101.748 136.88 77.5664 173.443 83.3012Z" fill="black"/>
</svg>
