<svg width="742" height="827" viewBox="0 0 742 827" fill="none" xmlns="http://www.w3.org/2000/svg">
<path d="M63.814 447.505L3.00567 618.145C-6.94986 646.095 8.63271 676.478 37.8291 686.008L63.814 694.496V447.505Z" fill="black"/>
<path d="M351.687 25.8639L281.286 2.87311C255.957 -5.40092 228.757 4.78455 215.479 25.8639H351.687Z" fill="black"/>
<path d="M704.165 140.978L678.181 132.504V379.495L738.989 208.855C748.958 180.905 733.362 150.522 704.165 140.978Z" fill="black"/>
<path d="M390.308 801.136L460.709 824.127C486.037 832.401 513.237 822.215 526.516 801.136H390.308Z" fill="black"/>
<path d="M594.403 52.5975H147.591C116.747 52.5975 91.7397 76.5373 91.7397 106.065V720.935C91.7397 750.463 116.747 774.403 147.591 774.403H594.403C625.247 774.403 650.255 750.463 650.255 720.935V106.065C650.255 76.5373 625.247 52.5975 594.403 52.5975ZM175.517 239.732H147.591V212.999H175.517V239.732ZM175.517 186.265H147.591V159.532H175.517V186.265ZM175.517 132.798H147.591V106.065H175.517V132.798ZM370.997 674.833C343.071 701.567 287.22 703.732 287.22 661.467C287.22 621.366 343.071 581.266 370.997 567.899C398.923 581.266 454.775 621.366 454.775 661.467C454.775 703.746 398.923 701.567 370.997 674.833ZM370.997 480.334C343.071 466.967 287.22 426.867 287.22 386.766C287.22 344.501 343.071 346.666 370.997 373.4C398.923 346.666 454.775 344.501 454.775 386.766C454.775 426.867 398.923 466.967 370.997 480.334ZM370.997 266.466C343.071 253.099 287.22 212.999 287.22 172.898C287.22 130.633 343.071 132.798 370.997 159.532C398.923 132.798 454.775 130.633 454.775 172.898C454.775 212.999 398.923 253.099 370.997 266.466ZM594.403 720.935H566.478V694.202H594.403V720.935ZM594.403 667.468H566.478V640.735H594.403V667.468ZM594.403 614.001H566.478V587.268H594.403V614.001Z" fill="black"/>
</svg>
