<svg width="706" height="649" viewBox="0 0 706 649" fill="none" xmlns="http://www.w3.org/2000/svg">
<path d="M449.124 522.317C443.861 522.317 437.649 523.229 429.579 525.188C423.219 526.738 417.618 520.926 420.101 515.296C428.652 495.918 428.003 486.155 417.424 475.114C405.156 462.31 383.819 460.991 369.803 472.333C342.996 494.023 350.083 533.122 347.599 582.733C376.615 584.897 403.058 589.374 424.667 589.374C444.759 589.372 458.623 585.406 469.622 576.508C483.585 565.211 484.929 545.565 472.616 532.714C465.631 525.428 458.606 522.317 449.124 522.317Z" fill="black"/>
<path d="M289.135 383.973C279.346 387.376 275.885 392.687 274.323 406.711C273.651 412.736 265.761 415.487 260.908 411.373C252.865 404.55 247.28 401.765 241.628 401.765C239.149 401.765 236.466 402.279 233.427 403.334C222.204 407.235 216.526 418.798 220.771 429.112C229.234 449.675 257.154 454.915 292.089 468.494C308.552 436.979 325.668 416.113 317.221 395.59C314.039 387.86 300.554 380.002 289.135 383.973Z" fill="black"/>
<path d="M540.207 265.145L435.579 250.4C435.211 250.349 438.969 251.052 282.585 221.301C238.826 212.978 218.239 166.798 242.522 132.587C268.706 95.6954 312.92 73.6719 360.791 73.6719C415.104 73.6719 465.199 102.855 488.417 148.02C491.034 153.111 496.094 156.61 501.955 157.379L560.706 165.091C573.902 166.821 584.867 155.115 580.375 143.271C547.853 57.576 459.61 0 360.791 0C232.585 0 128.282 95.8427 128.282 213.648V556.959C128.282 607.33 172.88 648.312 227.7 648.312H493.883C548.701 648.312 593.301 607.33 593.301 556.959V321.395C593.301 293.3 570.477 269.116 540.207 265.145ZM363.349 355.654C367.149 347.914 370.295 340.42 373.336 333.172C383.069 309.986 391.476 289.961 414.091 282.101C418.106 280.706 422.304 279.997 426.569 279.997C441.163 279.997 454.435 288.424 459.6 300.966C464.249 312.261 461.984 321.108 456.98 328.681C466.186 331.316 474.254 336.571 478.905 347.868C487.278 368.206 472.367 392.508 441.732 392.508C425.187 392.508 409.376 384.95 391.072 376.201C383.561 372.612 375.795 368.897 367.359 365.401C365.421 364.598 363.909 363.118 363.157 361.291C362.406 359.463 362.475 357.435 363.349 355.654ZM280.616 272.586C289.47 272.586 296.651 279.183 296.651 287.32C296.651 295.458 289.47 302.055 280.616 302.055C271.759 302.055 264.58 295.458 264.58 287.32C264.58 279.183 271.759 272.586 280.616 272.586ZM248.545 552.539C239.689 552.539 232.51 545.941 232.51 537.805C232.51 529.668 239.689 523.07 248.545 523.07C257.4 523.07 264.58 529.668 264.58 537.805C264.58 545.941 257.401 552.539 248.545 552.539ZM303.358 481.151C302.484 482.932 300.876 484.32 298.886 485.013C296.899 485.704 294.691 485.642 292.753 484.838C254.342 468.914 217.801 463.552 205.77 434.325C198.397 416.413 208.259 396.328 227.752 389.553C239.662 385.414 250.081 386.329 260.846 392.59C263.833 383.181 269.93 374.894 283.46 370.192C303.365 363.277 325.01 372.87 332.218 390.38C341.434 412.769 329.741 433.423 316.204 457.336C311.934 464.877 307.521 472.674 303.358 481.151ZM480.216 587.567C466.078 599.007 448.945 604.108 424.667 604.109C399.768 604.112 371.03 598.801 338.655 596.91C334.236 596.651 330.881 593.15 331.163 589.089C334.885 535.269 324.735 489.167 359.207 461.274C379.926 444.508 411.394 446.525 429.459 465.379C442.875 479.381 444.163 493.056 439.697 508.218C458.035 505.883 472.098 509.88 484.65 522.979C502.805 541.927 500.817 570.901 480.216 587.567ZM505.108 449.398C496.252 449.398 489.073 442.8 489.073 434.664C489.073 426.528 496.252 419.93 505.108 419.93C513.962 419.93 521.143 426.528 521.143 434.664C521.143 442.8 513.962 449.398 505.108 449.398Z" fill="black"/>
<path d="M441.732 377.773C445.555 377.773 449.145 377.172 452.713 375.931C462.666 372.472 467.685 362.255 463.905 353.081C460.625 345.112 455.458 342.291 441.796 341.005C435.239 340.391 432.244 333.138 436.721 328.68C446.041 319.406 447.88 314.149 444.601 306.179C440.906 297.206 429.855 292.371 419.764 295.884C399.736 302.844 394.444 325.96 381.122 355.047C387.198 357.739 392.903 360.468 398.472 363.129C414.912 370.987 429.108 377.773 441.732 377.773Z" fill="black"/>
<path d="M24.0531 604.109C10.7904 604.109 0.000330309 614.023 0.000330309 626.211C0.000330309 638.399 10.7904 648.312 24.0531 648.312C37.3157 648.312 48.1058 638.399 48.1058 626.211C48.1058 614.023 37.3157 604.109 24.0531 604.109Z" fill="black"/>
<path d="M689.512 383.094C680.67 383.094 673.477 389.704 673.477 397.828C673.477 405.953 680.67 412.562 689.512 412.562C698.354 412.562 705.547 405.953 705.547 397.828C705.547 389.704 698.354 383.094 689.512 383.094Z" fill="black"/>
<path d="M56.125 493.602C64.981 493.602 72.1601 487.005 72.1601 478.867C72.1601 470.73 64.981 464.133 56.125 464.133C47.269 464.133 40.0898 470.73 40.0898 478.867C40.0898 487.005 47.269 493.602 56.125 493.602Z" fill="black"/>
<path d="M601.319 51.5703C610.175 51.5703 617.354 44.9735 617.354 36.8359C617.354 28.6984 610.175 22.1016 601.319 22.1016C592.463 22.1016 585.284 28.6984 585.284 36.8359C585.284 44.9735 592.463 51.5703 601.319 51.5703Z" fill="black"/>
<path d="M665.459 523.07C674.315 523.07 681.495 516.474 681.495 508.336C681.495 500.198 674.315 493.602 665.459 493.602C656.603 493.602 649.424 500.198 649.424 508.336C649.424 516.474 656.603 523.07 665.459 523.07Z" fill="black"/>
<path d="M104.229 36.8359C113.085 36.8359 120.264 30.2391 120.264 22.1016C120.264 13.964 113.085 7.36719 104.229 7.36719C95.3729 7.36719 88.1937 13.964 88.1937 22.1016C88.1937 30.2391 95.3729 36.8359 104.229 36.8359Z" fill="black"/>
<path d="M40.0882 169.445C48.9442 169.445 56.1234 162.849 56.1234 154.711C56.1234 146.573 48.9442 139.977 40.0882 139.977C31.2323 139.977 24.0531 146.573 24.0531 154.711C24.0531 162.849 31.2323 169.445 40.0882 169.445Z" fill="black"/>
<path d="M687.163 189.39C690.295 186.512 690.295 181.847 687.163 178.971L664.771 158.395L687.163 137.819C690.295 134.942 690.295 130.277 687.163 127.401L664.771 106.824L687.163 86.2491C690.295 83.3715 690.295 78.7066 687.163 75.8305C684.034 72.9543 678.955 72.9543 675.826 75.8305L647.765 101.616C644.633 104.493 644.633 109.158 647.765 112.034L670.156 132.609L647.765 153.184C644.633 156.062 644.633 160.727 647.765 163.603L675.826 189.388C678.955 192.266 684.034 192.266 687.163 189.39Z" fill="black"/>
<path d="M74.1036 324.376L45.0816 317.71L67.1379 297.443C71.655 293.291 69.3155 286.164 63.0409 285.01L9.59096 275.187C5.25024 274.385 1.02498 276.975 0.157475 280.965C-0.71163 284.955 2.10415 288.836 6.44647 289.634L45.2066 296.758L23.7292 316.491C19.3275 320.537 21.4169 327.463 27.4541 328.848L70.2151 338.67C74.5173 339.655 78.8644 337.252 79.9372 333.309C81.0115 329.362 78.3994 325.363 74.1036 324.376Z" fill="black"/>
</svg>
