<svg width="729" height="658" viewBox="0 0 729 658" fill="none" xmlns="http://www.w3.org/2000/svg">
<path d="M653.517 366.89C588.527 540.833 443.964 591.868 423.343 593.781C416.052 593.144 393.764 586.339 365.227 570.815C373.766 570.604 381.266 569.752 387.307 568.263C445.423 554.23 596.027 434.511 623.521 221.228C623.73 219.528 623.938 217.826 623.938 216.338C636.645 225.057 646.999 237.702 654.29 252.374C654.29 252.374 656.036 255.983 656.949 257.956C674.03 294.317 664.558 337.332 653.517 366.89ZM712.259 389.643C638.52 587.615 467.711 658 423.343 658C392.514 658 300.86 623.976 222.747 536.793C257.95 552.528 291.279 561.884 318.983 566.775C368.976 602.074 412.303 614.408 422.927 615.046C422.927 615.046 423.134 615.046 423.343 615.046H423.968C445.214 613.983 602.484 563.16 672.891 374.332C685.388 340.947 696.241 291.712 675.411 247.481L673.515 243.557C662.267 221.017 645.394 203.367 625.814 192.309C626.646 175.723 625.814 159.775 623.73 144.464C660.183 157.435 692.552 185.708 712.341 227.6C712.772 228.598 713.002 229.138 713.508 230.373C737.047 280.344 731.423 337.758 712.259 389.643ZM155.674 300.332C154.007 292.678 152.549 285.447 151.507 278.218L16.9431 310.752C22.9847 324.787 30.4832 338.608 39.2317 351.792L161.923 322.234C159.632 315.218 157.548 307.987 155.674 300.332ZM192.335 210.384C191.086 210.172 190.043 210.172 188.793 210.172C185.253 210.172 181.92 211.235 179.004 213.573C174.004 217.401 170.879 223.781 170.255 231.436C168.797 251.425 170.671 272.264 175.879 295.442C181.295 318.62 189.002 338.183 199.001 355.195C202.958 361.787 208.582 366.252 214.624 367.316C219.415 368.166 223.997 367.103 227.954 363.913C241.286 353.494 255.659 337.333 269.615 318.195C257.534 307.988 248.993 294.378 245.452 278.643C241.703 262.907 243.369 246.959 249.619 232.286C228.788 221.654 208.791 213.786 192.335 210.384ZM278.78 407.93C282.114 403.04 288.363 401.764 293.153 404.953C299.61 409.206 306.276 413.246 313.151 416.648C305.235 390.281 303.777 362.424 308.152 335.207C301.069 334.355 293.987 332.655 287.113 329.678C279.614 340.097 271.698 350.092 263.991 358.597C260.658 382.413 261.283 406.442 265.865 430.045C269.823 422.39 274.198 414.948 278.78 407.93ZM327.939 313.091C341.48 309.689 352.728 301.395 360.019 289.275C367.309 277.367 369.6 263.12 366.476 249.51C363.143 235.689 355.02 223.993 343.146 216.551C334.814 211.447 325.648 208.683 316.067 208.683C312.109 208.683 308.152 209.32 304.194 210.171C290.654 213.36 279.197 221.867 271.907 233.775C264.824 245.896 262.533 260.142 265.657 273.752C272.323 302.034 300.236 319.683 327.939 313.091ZM399.389 379.224C402.304 374.332 408.554 372.632 413.553 375.395C420.843 379.436 427.926 384.114 434.799 389.217C428.55 365.827 418.343 344.137 405.012 324.361C394.181 320.321 382.932 315.005 371.475 309.05C366.685 314.792 361.269 319.682 355.228 323.723C371.267 346.263 382.308 371.568 386.89 398.787C391.473 392.621 395.638 386.027 399.389 379.224ZM453.13 309.689C458.129 305.861 461.045 299.482 461.671 291.826C463.336 271.838 461.463 250.786 456.046 227.821C450.63 204.643 443.132 185.08 432.925 167.856C428.967 161.264 423.551 157.011 417.511 155.948C412.512 154.883 407.928 156.159 404.179 159.137C390.847 169.769 376.474 185.93 362.518 205.068C374.392 215.275 382.932 228.885 386.681 244.62C390.223 260.143 388.556 276.304 382.516 290.763C403.346 301.396 423.343 309.263 439.799 312.666C444.59 313.729 449.172 312.666 453.13 309.689ZM482.501 293.528C481.46 307.137 475.21 319.258 465.629 326.487C458.963 331.804 451.256 334.355 443.132 334.355C440.632 334.355 438.133 334.144 435.842 333.505C435.425 333.505 435.216 333.292 434.799 333.292C445.007 352.218 452.714 372.632 457.505 393.896C458.963 400.913 456.046 408.143 450.006 411.971C443.34 416.224 434.799 416.011 428.967 411.121C423.551 406.867 417.926 402.827 411.886 399C407.72 405.592 403.346 412.184 398.554 418.137C395.014 422.603 389.806 424.942 384.598 424.942C382.932 424.942 381.058 424.729 379.391 424.304C372.725 422.39 368.143 416.861 367.309 410.056C363.977 381.775 352.936 355.408 335.855 332.655C334.814 332.866 333.772 333.505 332.731 333.718C331.69 333.931 330.647 333.931 329.398 334.143C324.19 362.211 326.065 390.919 335.439 417.712C337.73 424.304 335.855 431.321 330.856 435.999C325.44 441.103 317.733 442.378 311.067 439.401C304.194 435.999 297.319 432.385 290.654 428.344C287.113 434.511 283.779 440.677 280.864 447.057C277.947 453.436 271.282 457.477 264.407 457.477H262.533C255.242 456.625 249.41 451.735 247.743 444.717C242.744 423.453 240.453 401.976 241.286 380.287C241.078 380.287 240.869 380.5 240.662 380.711C233.996 386.027 226.08 388.792 217.748 388.792C215.457 388.792 213.166 388.58 210.873 388.155C199.001 386.027 188.169 377.948 181.295 366.252C176.92 358.809 172.963 350.729 169.213 342.223L51.9379 370.505C168.588 531.477 340.438 557.631 382.516 547.638C424.177 537.643 566.238 435.361 599.984 238.241L482.501 266.522C483.125 275.666 483.125 284.597 482.501 293.528ZM149.632 229.734C150.675 216.125 156.715 204.004 166.297 196.562C175.046 189.97 185.669 187.418 196.293 189.544C215.248 193.372 237.537 202.091 260.658 213.999C270.656 201.878 283.988 193.16 299.195 189.544C314.609 185.717 330.232 187.418 344.605 193.798C360.019 172.533 376.266 154.459 391.473 142.338C400.013 135.533 410.428 132.982 421.26 135.108C433.134 137.235 443.757 145.103 450.839 156.798C455.214 164.453 459.171 172.533 462.712 180.827L602.9 147.016C598.526 116.608 587.694 87.6884 568.322 63.2339C567.697 62.3838 567.281 61.5337 566.655 60.6822C503.332 -18.6335 395.222 -18.6335 337.105 51.5387C309.61 84.4983 295.444 114.695 286.905 135.746C270.032 120.861 243.994 100.447 204.833 83.4354C122.137 47.4984 25.4842 97.0448 3.81997 196.775C3.61277 197.838 3.61277 198.688 3.4042 199.964C-3.05312 230.585 0.070642 261.418 9.44453 290.55L149.425 256.741C149.008 247.597 148.799 238.454 149.632 229.734ZM604.984 168.493L470.211 201.028C472.502 208.044 474.586 215.275 476.252 222.93C478.126 230.585 479.376 237.815 480.417 245.257L603.108 215.488C605.192 199.752 605.816 184.015 604.984 168.493Z" fill="black"/>
</svg>
