<svg width="707" height="679" viewBox="0 0 707 679" fill="none" xmlns="http://www.w3.org/2000/svg">
<path d="M706.944 234.122C706.944 250.399 693.149 263.381 676.108 263.381H606.321C612.812 250.979 618.899 237.997 624.376 224.241C631.477 206.219 636.346 188.781 638.983 171.729C654.198 177.348 665.762 189.943 669.414 205.444C671.645 205.057 673.876 204.67 676.108 204.67C693.149 204.67 706.944 217.846 706.944 234.122ZM231.618 427.697C222.084 422.271 212.752 416.071 203.216 409.289L247.24 525.162H268.744L231.618 427.697ZM450.11 427.697L412.985 525.162H434.489L478.512 409.483C468.977 416.265 459.442 422.271 450.11 427.697ZM340.966 466.644C337.922 466.644 334.474 466.451 330.822 466.063V525.162H351.11V466.063C347.458 466.451 344.008 466.644 340.966 466.644ZM141.303 411.233C138.97 411.233 136.718 411.528 134.533 411.998C129.525 390.789 109.761 374.916 86.0426 374.916C62.324 374.916 42.5599 390.789 37.5521 411.998C35.3672 411.529 33.1149 411.233 30.7824 411.233C13.782 411.233 0 424.395 0 440.633C0 456.87 13.7822 470.033 30.7824 470.033C40.4343 470.033 131.65 470.033 141.303 470.033C158.303 470.033 172.084 456.87 172.084 440.633C172.084 424.395 158.303 411.233 141.303 411.233ZM255.557 598.988L268.744 652.856C272.396 667.776 286.191 678.24 302.217 678.24H379.714C395.538 678.24 409.536 667.776 413.188 652.856L426.374 598.988H255.557ZM448.106 566.77V557.429C448.106 550.306 442.061 544.531 434.603 544.531H247.253C239.796 544.531 233.75 550.306 233.75 557.429V566.77C233.75 573.893 239.796 579.667 247.253 579.667H434.603C442.061 579.667 448.106 573.893 448.106 566.77ZM605.509 217.264C537.953 387.005 381.54 447.267 340.966 447.267C300.189 447.267 143.978 387.005 76.4217 217.264C58.7721 172.891 53.4985 123.867 75.0027 80.8514L76.2544 78.3323C116.219 -0.531679 212.345 -22.4276 278.684 24.464C309.926 46.3599 328.996 68.8377 340.966 84.5329C352.934 68.8376 371.801 46.3599 403.247 24.464C469.383 -22.4277 565.543 -0.531751 605.509 78.3322L606.726 80.8513C628.23 123.867 623.159 172.891 605.509 217.264ZM191.653 196.531C191.653 185.68 182.524 176.961 171.366 176.961C160.207 176.961 151.079 185.68 151.079 196.531C151.079 207.189 160.207 215.908 171.366 215.908C182.524 215.908 191.653 207.189 191.653 196.531ZM196.725 119.217C196.725 98.8717 179.48 82.4019 158.179 82.4019C137.081 82.4019 119.836 98.8718 119.836 119.217C119.836 139.563 137.081 155.84 158.179 155.84C179.48 155.84 196.725 139.563 196.725 119.217Z" fill="black"/>
</svg>
