<svg width="807" height="734" viewBox="0 0 807 734" fill="none" xmlns="http://www.w3.org/2000/svg">
<path fill-rule="evenodd" clip-rule="evenodd" d="M28.5758 267.706C20.7842 262.123 14.0363 254.714 8.99268 245.695C-6.17285 218.674 -1.51215 185.425 18.2802 163.807C-1.54687 142.19 -6.17285 108.941 8.99268 81.9192C24.1582 54.8978 54.4554 42.4068 82.5603 49.2428C90.8389 20.7893 116.475 0.0311504 146.841 0.0311504C172.407 0.0311504 194.669 14.8127 205.974 36.466C274.915 31.5269 350.915 60.0873 402.223 136.931C452.765 61.1629 527.378 32.3154 595.553 36.2552C606.892 14.7092 629.084 0 654.615 0C684.946 0 710.618 20.7581 718.861 49.2116C746.966 42.3757 777.263 54.8665 792.428 81.888C807.594 108.909 802.933 142.159 783.141 163.776C802.968 185.394 807.594 218.643 792.428 245.664C788.046 253.431 782.48 260.016 776.01 265.241C773.993 291.404 768.74 318.855 760.218 346.951C783.385 353.071 799.629 361.875 799.629 361.875C805.681 365.204 808.464 372.505 806.238 379.162C806.238 379.162 781.436 451.243 725.992 473.616C716.496 477.445 706.721 479.557 696.982 480.452C669.363 520.715 630.997 560.443 587.9 597.592C588.909 600.025 589.291 602.745 588.874 605.537C588.874 605.537 576.247 683.559 523.689 716.593C479.514 744.33 420.796 731.768 403.129 727.008C400.45 727.223 397.702 726.579 395.198 725.075C326.291 683.595 249.206 629.696 186.847 570.819C178.359 572.716 169.559 573.646 160.585 573.288C101.07 570.711 54.8065 510.799 54.8065 510.799C50.5977 505.287 50.9108 497.414 55.5718 492.26C55.5718 492.26 70.9813 475.403 94.7728 460.657C91.7466 455.503 88.8596 450.35 86.2159 445.232C52.4406 384.173 33.3445 323.043 28.6491 267.639L28.5758 267.706ZM48.4724 246.732C60.0556 253.103 74.4909 253.389 86.7001 246.124C91.0134 243.583 96.3002 243.583 100.614 246.124C104.927 248.701 107.57 253.425 107.57 258.508C107.57 280.805 125.171 298.915 146.842 298.915C168.477 298.915 186.077 280.805 186.077 258.508C186.077 253.426 188.756 248.701 193.034 246.124C197.347 243.583 202.669 243.583 206.948 246.124C225.731 257.291 249.732 250.634 260.584 231.342C271.436 212.051 264.967 187.32 246.218 176.154C241.905 173.613 239.261 168.889 239.261 163.771C239.261 158.653 241.905 153.928 246.218 151.387C264.967 140.256 271.436 115.525 260.584 96.1986C249.767 76.9074 225.73 70.2509 206.948 81.417C202.669 83.9581 197.348 83.9581 193.034 81.417C188.756 78.8401 186.077 74.1158 186.077 69.0333C186.077 46.7359 168.477 28.6257 146.842 28.6257C125.171 28.6257 107.57 46.7359 107.57 69.0333C107.57 74.1155 104.927 78.8397 100.614 81.417C96.3004 83.9581 91.0135 83.9581 86.7001 81.417C67.9513 70.25 43.9159 76.9074 33.0638 96.1986C22.2464 115.49 28.681 140.221 47.4297 151.387C51.7429 153.928 54.3864 158.652 54.3864 163.771C54.3864 168.888 51.7428 173.613 47.4297 176.154C28.6809 187.285 22.2464 212.016 33.0638 231.342C36.8552 238.071 42.2462 243.297 48.4386 246.732L48.4724 246.732ZM690.65 452.563C699.068 451.991 707.554 450.309 715.798 446.98C748.008 434.024 767 399.952 775.14 381.699C767.209 378.335 755.731 374.183 742.652 371.677C740.983 371.749 739.278 371.462 737.609 370.89C737.539 370.854 737.435 370.818 737.365 370.818C721.921 368.492 704.668 368.778 688.494 375.328C656.284 388.284 637.292 422.356 629.152 440.573C641.848 445.978 663.623 453.386 686.649 452.813C687.971 452.563 689.328 452.455 690.65 452.599L690.65 452.563ZM117.902 479.513C103.815 486.85 92.3011 496.156 84.8925 502.885C98.3536 517.379 127.12 543.22 161.626 544.723C169.8 545.081 177.731 544.079 185.314 542.075C186.497 541.574 187.749 541.216 189.001 541.037C211.889 534.129 230.95 519.241 241.524 509.613C228.028 495.118 199.297 469.242 164.756 467.739C149.625 467.094 135.19 471.21 122.563 477.115C122.389 477.258 122.215 477.366 122.076 477.473C120.755 478.404 119.363 479.048 117.867 479.442L117.902 479.513ZM402.228 524.538C423.864 524.502 441.429 506.428 441.429 484.167C441.429 479.049 444.073 474.325 448.386 471.783C452.699 469.206 457.986 469.206 462.299 471.783C481.048 482.914 505.083 476.293 515.936 456.966C526.753 437.675 520.318 412.944 501.57 401.778C497.256 399.237 494.613 394.512 494.613 389.394C494.613 384.312 497.256 379.588 501.57 377.01C520.318 365.88 526.753 341.148 515.936 321.822C505.118 302.531 481.082 295.91 462.299 307.041C457.986 309.582 452.699 309.582 448.386 307.041C444.072 304.499 441.429 299.775 441.429 294.657C441.429 272.359 423.828 254.249 402.193 254.249C380.523 254.249 362.922 272.359 362.922 294.657C362.922 299.775 360.278 304.499 355.965 307.041C351.652 309.582 346.365 309.582 342.052 307.041C323.303 295.91 299.267 302.531 288.415 321.822C277.598 341.149 284.032 365.844 302.781 377.01C307.094 379.587 309.738 384.311 309.738 389.394C309.738 394.512 307.094 399.236 302.781 401.778C284.032 412.945 277.598 437.64 288.415 456.966C299.233 476.292 323.269 482.914 342.052 471.783C346.365 469.206 351.652 469.206 355.965 471.783C360.278 474.324 362.922 479.049 362.922 484.167C362.922 506.429 380.523 524.538 402.193 524.538H402.228ZM594.444 81.4217C575.695 70.2547 551.66 76.9121 540.808 96.2032C529.99 115.494 536.425 140.225 555.173 151.391C559.487 153.932 562.13 158.657 562.13 163.775C562.13 168.893 559.487 173.617 555.173 176.159C536.425 187.289 529.99 212.021 540.808 231.347C551.625 250.638 575.661 257.295 594.444 246.129C598.757 243.588 604.044 243.588 608.357 246.129C612.671 248.706 615.314 253.43 615.314 258.512C615.314 280.81 632.915 298.92 654.586 298.92C676.221 298.92 693.821 280.81 693.821 258.512C693.821 253.43 696.5 248.706 700.778 246.129C705.091 243.588 710.413 243.588 714.692 246.129C733.44 257.296 757.476 250.638 768.328 231.347C779.145 212.056 772.711 187.325 753.962 176.159C749.649 173.618 747.005 168.894 747.005 163.775C747.005 158.657 749.649 153.933 753.962 151.391C772.711 140.261 779.145 115.529 768.328 96.2032C757.511 76.912 733.474 70.2556 714.692 81.4217C710.413 83.9628 705.091 83.9628 700.778 81.4217C696.5 78.8448 693.821 74.1204 693.821 69.0379C693.821 46.7405 676.22 28.6304 654.586 28.6304C632.915 28.6304 615.314 46.7405 615.314 69.0379C615.314 74.1202 612.671 78.8443 608.357 81.4217C604.044 83.9628 598.757 83.9628 594.444 81.4217ZM654.585 94.2342C691.873 94.2342 722.135 125.371 722.135 163.774C722.135 202.141 691.873 233.314 654.585 233.314C617.262 233.314 587.001 202.141 587.001 163.774C587.001 125.371 617.262 94.2342 654.585 94.2342ZM558.718 613.59C539.03 609.08 499.168 603.532 468.139 623.038C437.077 642.544 423.651 681.555 418.538 701.633C438.225 706.143 478.122 711.655 509.152 692.148C540.179 672.679 553.639 633.632 558.718 613.59ZM146.806 94.2342C184.094 94.2342 214.356 125.371 214.356 163.774C214.356 202.141 184.094 233.314 146.806 233.314C109.483 233.314 79.2211 202.141 79.2211 163.774C79.2211 125.371 109.483 94.2342 146.806 94.2342ZM402.191 319.856C439.48 319.856 469.741 351.029 469.741 389.396C469.741 427.799 439.48 458.936 402.191 458.936C364.868 458.936 334.607 427.799 334.607 389.396C334.607 351.029 364.868 319.856 402.191 319.856Z" fill="black"/>
</svg>
