<svg width="516" height="828" viewBox="0 0 516 828" fill="none" xmlns="http://www.w3.org/2000/svg">
<path fill-rule="evenodd" clip-rule="evenodd" d="M258.001 475.446L230.496 458.911C189.428 434.211 135.636 443.387 105.904 480.176C75.0813 518.299 80.666 572.997 118.586 604.606L243.931 709.113C251.993 715.864 264.003 715.864 272.065 709.113L397.41 604.606C435.329 572.992 440.915 518.295 410.092 480.176C380.362 443.387 326.57 434.211 285.5 458.911L258.001 475.446Z" fill="black"/>
<path fill-rule="evenodd" clip-rule="evenodd" d="M233.771 3.2912C188.839 -11.3841 144.999 25.2027 151.046 69.7129L160.41 138.438C135.803 147.171 118.25 169.972 118.25 196.694C118.25 215.087 126.564 231.622 139.75 242.983V310.536H129C57.7393 310.536 0 366.123 0 434.727V703.809C0 772.413 57.7393 828 129 828H387C458.261 828 516 772.413 516 703.809V434.727C516 366.123 458.261 310.536 387 310.536H376.25V242.983C389.436 231.622 397.75 215.088 397.75 196.694C397.75 170.133 380.449 147.494 356.094 138.6L363.988 103.792C370.917 73.3103 353.238 42.3028 322.374 32.1957L233.771 3.2912ZM43.0012 434.732C43.0012 389.009 81.5077 351.938 129.001 351.938H387.001C434.495 351.938 473.001 389.009 473.001 434.732V703.814C473.001 749.537 434.495 786.608 387.001 786.608H129.001C81.5077 786.608 43.0012 749.537 43.0012 703.814V434.732Z" fill="black"/>
</svg>
