<svg width="786" height="744" viewBox="0 0 786 744" fill="none" xmlns="http://www.w3.org/2000/svg">
<path d="M6.00415 217.001C12.1918 278.215 29.5873 337.552 57.2117 391.674C78.0372 432.538 110.724 465.169 150.411 484.714L151.132 499.1C151.987 516.983 157.907 534.174 168.117 548.422C178.327 562.67 192.35 573.309 208.35 578.946C219.605 626.089 245.323 667.906 281.442 697.795C317.562 727.684 362.025 743.941 407.811 744C456.624 743.927 503.54 723.909 538.838 688.095C574.136 652.28 595.11 603.414 597.415 551.621C618.548 545.384 636.966 531.5 649.484 512.369C662.002 493.237 667.833 470.061 665.971 446.847C664.108 423.633 654.668 401.839 639.283 385.234C623.897 368.629 603.533 358.256 581.711 355.908C559.889 353.56 537.981 359.384 519.773 372.375C501.565 385.366 488.203 404.706 481.995 427.052C475.788 449.398 477.126 473.345 485.778 494.754C494.43 516.164 509.852 533.689 529.379 544.301C528.958 578.291 515.961 610.74 493.197 634.633C470.434 658.526 439.733 671.944 407.731 671.986C378.758 671.903 350.547 662.118 327.11 644.024C303.674 625.93 286.205 600.447 277.188 571.2C290.365 562.96 301.164 551.041 308.412 536.739C315.66 522.437 319.079 506.298 318.298 490.077V486.502C359.584 467.187 393.642 433.824 415.103 391.674C442.688 337.571 460.056 278.264 466.231 217.087L471.52 165.417C473.298 148.528 470.233 131.463 462.726 116.456C455.219 101.449 443.62 89.2005 429.448 81.3148L390.101 59.2678C388.805 45.2801 383.305 32.1069 374.415 21.6968C365.524 11.2866 353.716 4.19252 340.736 1.46379C327.755 -1.26494 314.293 0.516652 302.34 6.54502C290.387 12.5734 280.578 22.5284 274.364 34.9374C268.15 47.3464 265.861 61.5503 267.836 75.4481C269.811 89.346 275.945 102.2 285.33 112.107C294.715 122.015 306.853 128.452 319.949 130.464C333.045 132.476 346.402 129.957 358.046 123.281L397.313 145.328C399.395 146.481 401.1 148.279 402.201 150.482C403.303 152.685 403.75 155.192 403.483 157.67L398.194 209.34C392.957 261.185 378.23 311.442 354.84 357.285C343.25 380.098 326.066 399.156 305.109 412.438C284.151 425.721 260.201 432.734 235.797 432.734C211.392 432.734 187.442 425.721 166.485 412.438C145.528 399.156 128.343 380.098 116.753 357.285C93.3641 311.442 78.6366 261.185 73.3993 209.34L68.511 157.585C68.2447 155.107 68.6918 152.6 69.7933 150.397C70.8949 148.193 72.5992 146.396 74.6815 145.242L114.029 123.195C125.686 129.894 139.064 132.427 152.182 130.421C165.301 128.414 177.462 121.975 186.867 112.055C196.272 102.135 202.419 89.262 204.4 75.3417C206.381 61.4215 204.09 47.1937 197.866 34.7643C191.642 22.3349 181.816 12.3645 169.842 6.32894C157.868 0.293399 144.383 -1.48651 131.382 1.25267C118.382 3.99185 106.557 11.1045 97.6586 21.5379C88.7601 31.9713 83.2605 45.1708 81.974 59.1827L42.8672 81.2296C28.636 89.0658 16.9703 101.293 9.40399 116.304C1.83764 131.315 -1.27521 148.406 0.474703 165.331L6.00415 217.001Z" fill="black"/>
<path d="M655.033 114.598C585.555 2.0649 398.595 169.588 655.033 318.043C911.311 169.588 724.512 1.97978 655.033 114.598Z" fill="black"/>
</svg>
