<svg width="864" height="796" viewBox="0 0 864 796" fill="none" xmlns="http://www.w3.org/2000/svg">
<path d="M494.519 765.953C478.018 773.334 475.633 784.917 492.603 790.947C521.656 801.252 554.62 793.542 582.032 787.695C649.132 771.91 653.082 780.643 692.697 789.193C761.557 804.139 823.883 774.65 826.625 759.23C828.541 748.415 813.134 741.618 798.08 738.877C788.46 737.233 778.646 735.808 772.155 733.213C780.797 728.317 792.723 724.48 794.756 715.492C795.617 711.618 794.248 707.416 790.924 703.726C781.852 693.714 761.363 690.242 744.939 691.229C729.571 692.179 715.455 696.199 699.11 700.51C692.775 702.118 695.278 711.144 701.73 709.536C717.019 705.516 731.214 701.46 745.604 700.547C761.675 699.56 777.551 703.434 783.26 709.755C784.55 711.18 785.176 712.569 784.941 713.555C783.807 718.635 767.15 723.202 759.759 730.291C757.804 732.155 757.882 735.224 759.994 737.015C768.088 743.848 781.969 745.638 796.164 748.05C809.576 750.498 817.202 755.322 816.771 757.696C816.654 758.464 815.676 759.962 811.766 762.702C784.941 781.593 735.828 788.938 695.005 780.096C675.844 775.93 662.98 770.23 640.926 769.718C663.293 763.031 679.482 740.01 673.851 709.499C671.036 694.299 663.567 680.449 656.802 668.684C653.557 663.093 650.233 655.054 644.016 650.048C639.637 646.54 633.889 645.407 629.079 647.015C614.258 652.021 617.544 676.393 614.845 689C612.342 700.584 603.622 708.184 599.399 719.913C591.969 740.413 598.304 765.26 621.844 770.595C583.21 774.761 534.292 795.735 496.204 782.215C492.411 780.863 491.355 779.913 491.081 779.84C492.45 774.432 516.772 771.217 515.716 758.574C514.856 748.342 498.315 745.127 485.958 743.592C473.757 742.057 467.423 738.732 466.876 737.526C466.955 737.344 467.463 736.357 471.217 734.201C494.171 721.083 529.168 717.831 564.477 713.483C570.969 712.643 569.756 703.435 563.07 704.202C530.77 708.185 491.551 711.583 465.977 726.199C451.079 734.713 452.525 748.782 484.629 752.801C504.533 755.286 505.745 759.196 505.745 759.232C505.433 761.096 497.765 764.492 494.519 765.953Z" fill="black"/>
<path d="M838.356 204.038C834.836 202.174 830.965 200.384 826.899 198.593C826.781 197.679 826.586 196.766 826.273 195.889C816.419 169.105 835.619 137.132 845.59 108.996C856.696 77.6435 854.975 53.2717 840.624 38.5461C821.19 18.5951 794.599 12.7486 767.696 22.5417C736.18 33.9793 730.275 74.2095 727.343 103.735C724.879 128.545 722.377 154.16 705.406 169.617C704.741 170.202 704.233 170.896 703.724 171.591C699.228 171.481 694.848 171.481 690.82 171.7C686.05 170.677 684.798 170.239 683.782 170.312C651.795 171.554 657.739 183.247 655.393 186.352C635.959 263.672 643.35 234.293 624.072 311.065C621.217 321.918 626.222 333.537 636.232 339.237C646.555 345.084 659.89 350.821 674.71 355.973C617.581 571.703 616.877 561.217 622.117 572.442C622.664 573.648 623.133 574.671 623.251 575.511C623.642 579.677 616.212 583.623 611.441 588.337C605.85 593.562 602.839 601.163 603.152 609.165C604.051 630.505 628.53 642.381 651.327 642.381C663.214 642.381 672.716 640.371 680.576 630.761C694.81 613.367 680.068 599.519 684.643 592.649C687.81 587.68 694.34 586.145 697.508 577.266C704.312 558.448 707.988 543.357 752.017 375.53C769.262 378.307 791.433 380.683 808.756 378.746C819.627 377.321 828.738 369.319 831.475 358.758C869.405 213.654 864.868 224.982 862.445 220.782C857.909 212.268 848.092 206.559 838.356 204.038ZM687.069 207.582C668.534 198.264 664.506 191.467 664.976 188.837L665.015 188.618C666.579 183.136 683.941 181.492 690.041 181.163C700.99 183.575 701.811 183.758 701.928 183.794C702.984 186.937 704.861 189.714 707.911 191.395C735.987 206.778 767.856 214.525 802.736 214.525C812.238 214.525 817.752 214.927 822.679 210.213C833.159 212.479 831.79 212.186 834.488 212.844C840.041 215.84 847.001 220.006 851.028 224.683C854.821 229.068 854.313 231.48 848.721 233.891C833.589 240.432 794.642 238.788 754.053 229.872C726.133 223.696 705.447 216.827 687.069 207.582ZM682.533 580.989C661.144 598.638 686.482 608.138 672.64 625.056C669.081 629.405 664.115 632.145 658.876 632.584C643.312 634.265 630.487 630.939 619.773 622.352C615.824 619.173 613.399 614.24 613.165 608.796C612.383 589.977 634.749 590.708 633.224 574.667C630.644 549.746 615.589 617.273 684.175 359.19C702.514 365.182 722.653 370.261 742.165 373.806C686.678 585.158 690.119 574.675 682.533 580.989ZM821.697 356.559C819.938 363.356 814.15 368.544 807.424 369.422C767.93 373.806 682.335 354.403 641.392 331.237C635.058 327.62 631.929 320.238 633.767 313.259L661.687 202.064C691.952 231.698 809.691 257.167 850.162 243.244C839.018 287.422 822.05 355.175 821.697 356.559Z" fill="black"/>
<path d="M466.911 394.006C464.017 399.56 473.05 403.615 475.904 398.098C499.484 352.788 498.271 297.099 472.698 252.703C469.57 247.259 460.732 251.68 463.9 257.125C487.987 298.89 489.121 351.359 466.911 394.006Z" fill="black"/>
<path d="M4.4811 562.496C30.6412 622.057 180.834 713.588 324.933 713.588C329.978 713.588 357.74 713.04 361.729 710.628C378.935 706.06 393.872 694.002 402.005 677.303L533.231 407.159C560.056 357.719 566.508 316.977 552.979 282.662C537.455 243.381 502.106 226.024 503.2 170.662C512.116 172.087 518.06 172.526 516.73 172.379C538.667 172.379 555.481 147.459 545.001 127.179C560.134 120.419 568.189 103.757 567.642 91.15C583.127 66.5219 413.652 -4.61983 375.563 0.236944C360.274 -1.11504 342.169 23.4039 348.582 44.4512C325.394 50.4073 316.321 79.2007 331.416 94.5119C339.432 102.112 337.79 100.358 342.873 104.414C301.189 135.328 267.522 123.525 227.243 138.069C190.799 151.297 162.41 182.757 140.551 234.063L5.88155 515.17C-6.55334 540.931 4.63025 563.696 4.39561 562.454C4.43471 562.49 4.44199 562.496 4.4811 562.496ZM15.5866 562.642C51.1315 546.82 77.9563 552.776 81.6321 551.498C132.427 608.939 250.908 661.561 350.541 655.855C342.095 658.924 353.708 666.524 353.943 702.663C245.781 719.362 59.1117 639.635 15.5866 562.642ZM344.478 545.761C350.695 553.69 347.215 566.479 333.06 572.581C362.935 581.643 349.444 617.599 318.553 603.97C307.682 599.147 297.633 590.925 290.516 581.936C288.561 579.597 287.035 576.71 287.153 573.714C287.192 565.419 324.691 520.914 344.478 545.761ZM214.573 360.17C196.273 343.252 164.012 303.642 181.727 285.847C190.603 277.333 218.757 283.034 231.231 288.04C256.452 298.197 275.027 320.561 292.467 341.133C332.547 387.978 357.846 385.055 388.973 417.539C335.519 390.536 259.069 400.803 214.573 360.17ZM187.357 448.05C188.1 424.372 206.282 412.496 221.924 415.858C260.636 424.481 244.525 475.089 221.102 504.176C217.505 508.451 211.639 513.421 205.892 512.653C178.129 508.999 110.402 478.525 138.83 443.592C148.723 431.387 171.363 430.73 187.357 448.05ZM558.642 86.4106C552.581 87.8722 538.699 84.7663 532.677 83.3777C497.797 61.453 437.07 35.9119 396.405 26.1917C390.814 22.6473 379.513 15.2294 375.993 9.85812C377.675 10.4062 379.473 10.0774 380.803 9.05423C427.609 10.9543 549.372 68.1771 558.642 86.4106ZM354.13 53.1222C370.827 66.0209 392.646 78.7007 420.996 91.9277C426.94 94.7049 431.359 86.3006 425.454 83.56C397.299 70.4424 375.793 57.945 359.643 45.3026C354.325 34.9614 358.627 21.7708 366.721 13.5857C381.58 40.0772 519.149 98.8347 557.349 95.948C554.768 109.834 545.539 118.238 536.233 120.284C532.596 121.088 531.149 125.254 533.652 127.921C538.618 133.22 539.556 142.537 535.92 150.138C532.283 157.665 524.228 163.073 517.15 163.073C429.99 148.42 369.457 117.179 338.645 88.0558C327.892 77.0934 336.689 54.6572 354.13 53.1222ZM15.028 519.016L149.778 237.693C170.619 188.765 197.132 159.021 230.839 146.78C268.222 133.26 306.973 144.076 350.803 110.422C403.162 147.291 455.131 161.068 493.221 168.777C492.595 186.865 495.958 204.514 503.27 219.971C525.363 266.67 583.47 293.746 524.19 403.073L392.884 673.395C386.745 685.928 376.225 695.429 363.909 700.106C363.596 686.111 361.406 672.262 357.105 658.815C356.596 657.208 355.228 656.111 353.586 655.709C354.72 655.636 355.853 655.636 356.987 655.563C373.45 654.138 388.504 643.834 395.895 628.742C431.948 554.383 438.4 546.014 443.444 526.462C452.829 490.433 436.132 453.418 408.877 427.259C373.215 376.504 345.57 388.197 300.245 335.287C281.358 313.144 262.471 290.452 235.177 279.453C217.659 272.401 185.829 266.81 173.394 280.622C173.394 280.147 173.355 279.672 173.355 279.197C137.693 352.936 105.198 420.13 68.6765 495.704C61.8335 510.174 62.5373 526.435 71.0618 538.419C71.9611 539.735 73.056 541.05 74.0727 542.366C52.7616 541.452 31.1372 545.472 11.8201 553.949C8.53553 542.95 9.51451 530.417 15.028 519.016Z" fill="black"/>
</svg>
