<svg width="767" height="832" viewBox="0 0 767 832" fill="none" xmlns="http://www.w3.org/2000/svg">
<path fill-rule="evenodd" clip-rule="evenodd" d="M760.125 267L656.269 26.6751C648.351 8.34808 629.897 -2.09877 609.609 0.354298L345.475 32.2915C318.717 35.5307 297.472 49.2925 284.03 72.1184L5.16025 545.949C-5.45224 563.868 0.785862 587.499 19.4519 598.126L423.547 826.953L423.528 826.981C441.972 837.381 466.046 831.101 476.745 812.926L755.615 339.181L755.644 339.2C769.076 316.336 770.621 291.284 760.125 267ZM589.301 117.533C596.65 144.47 555.021 155.371 547.682 128.501C540.324 101.565 581.953 90.6537 589.301 117.533ZM597.789 73.2833C642.895 98.8274 633.827 165.325 583.633 178.509C533.516 191.675 491.684 138.616 517.785 94.2717C533.95 66.805 569.718 57.3905 597.789 73.2833ZM277.995 483.467C267.788 457.837 262.014 430.711 262.323 405.271C263.839 278.811 387.992 298.473 404.737 374.262C407.083 384.899 418.014 391.32 429.786 387.267C456.128 379.491 482.008 385.855 500.548 400.024C563.393 448.082 510.891 532.717 395.505 549.946C368.998 553.905 341.998 553.706 317.596 549.197C301.402 530.738 287.738 507.921 277.995 483.467ZM293.754 577.412C195.48 471.381 202.336 288.111 321.681 277.977C369.606 273.904 417.174 302.83 435.531 348.965C545.326 332.551 631.751 473.635 491.172 555.42C437.617 586.581 364.382 596.544 303.894 583.436C299.77 582.536 296.275 580.358 293.754 577.412Z" fill="black"/>
</svg>
