<svg width="726" height="764" viewBox="0 0 726 764" fill="none" xmlns="http://www.w3.org/2000/svg">
<path d="M224.317 1.12277C224.317 1.12277 205.521 1.46617 182.739 4.47869C159.957 7.49984 133.317 12.5025 114.504 24.0502C84.8696 42.2296 58.0493 77.8037 36.9063 109.798C15.7621 141.789 0.959957 170.408 0.959957 170.408C-0.561619 174.031 -0.257184 178.323 1.75091 181.698C28.0366 230.625 71.4611 245.618 112.91 255.562C104.261 334.545 150.842 377.283 168.914 416.72C200.459 484.233 182.792 521.202 165.096 566.77C156.882 587.921 132.4 617.92 114.958 645.17C106.236 658.794 98.2479 671.746 96.5354 685.559C95.68 692.466 96.5055 699.929 100.623 706.518C104.745 713.108 111.786 718.154 119.697 720.98C279.742 778.149 425.247 777.882 600.227 719.489C608.249 716.823 615.198 712.41 619.393 705.717C623.591 699.028 624.54 690.833 623.621 683.924C621.783 670.103 614.316 657.373 605.465 643.648C587.762 616.195 562.136 585.864 554.176 565.563C545.266 542.844 536.518 520.625 533.614 497.868C530.711 475.113 533.032 451.16 550.493 421.183C564.539 397.065 582.241 373.815 594.8 346.026C606.049 321.142 610.967 291.637 606.73 258.065C658.229 247.68 699.026 219.373 723.37 181.878C725.669 178.295 726.006 173.607 724.24 169.775C724.24 169.775 709.79 140.439 688.698 106.969C667.603 73.5004 640.877 36.0813 610.011 17.6719C590.595 6.08472 563.438 2.57713 540.232 0.95158C517.024 -0.681829 497.834 0.282964 497.834 0.282964C490.864 0.71794 484.886 7.26304 485.319 14.0349C487.266 53.7111 475.931 84.3378 453.409 110.931C431.841 136.398 398.756 157.291 357.593 174.955C280.071 145.723 229.926 84.0312 237.569 15.6078C238.538 8.33293 231.873 1.04254 224.317 1.12277ZM314.925 258.165C334.507 258.103 350.026 268.405 362.243 278.99C374.625 268.286 390.11 257.931 409.699 257.868C430.151 257.805 449.292 264.275 463.675 277.064C478.058 289.851 486.849 308.819 486.773 331.842C486.687 358.137 468.268 380.078 445.811 400.535C423.355 420.992 395.251 441.087 369.959 461.27C365.274 464.916 357.993 464.936 353.331 461.322C328.142 441.271 300.12 421.429 277.873 401.053C255.628 380.68 237.276 358.715 237.362 332.616C237.437 309.799 246.388 290.616 260.822 277.693C275.255 264.767 294.416 258.239 314.925 258.165Z" fill="black"/>
</svg>
