<svg width="827" height="808" viewBox="0 0 827 808" fill="none" xmlns="http://www.w3.org/2000/svg">
<path d="M814.078 75.75H749.469V37.875C749.439 27.8389 745.345 18.2223 738.081 11.1257C730.818 4.02907 720.975 0.0292772 710.703 0L684.859 0C674.587 0.0292772 664.745 4.02907 657.481 11.1257C650.218 18.2223 646.124 27.8389 646.094 37.875V126.25C646.104 129.595 647.469 132.801 649.89 135.166C652.311 137.532 655.592 138.865 659.016 138.875H684.859C688.286 138.875 691.573 140.205 693.997 142.573C696.42 144.94 697.781 148.152 697.781 151.5C697.781 154.848 696.42 158.06 693.997 160.427C691.573 162.795 688.286 164.125 684.859 164.125H659.016C648.744 164.096 638.901 160.096 631.637 152.999C624.374 145.903 620.28 136.286 620.25 126.25V75.75H568.562V37.875C568.533 27.8389 564.439 18.2223 557.175 11.1257C549.912 4.02907 540.069 0.0292772 529.797 0L503.953 0C493.681 0.0292772 483.838 4.02907 476.575 11.1257C469.311 18.2223 465.217 27.8389 465.188 37.875V126.25C465.198 129.595 466.562 132.801 468.984 135.166C471.405 137.532 474.685 138.865 478.109 138.875H503.953C507.38 138.875 510.667 140.205 513.09 142.573C515.514 144.94 516.875 148.152 516.875 151.5C516.875 154.848 515.514 158.06 513.09 160.427C510.667 162.795 507.38 164.125 503.953 164.125H478.109C467.837 164.096 457.995 160.096 450.731 152.999C443.468 145.903 439.374 136.286 439.344 126.25V75.75H387.656V37.875C387.626 27.8389 383.532 18.2223 376.269 11.1257C369.005 4.02907 359.163 0.0292772 348.891 0L323.047 0C312.775 0.0292772 302.932 4.02907 295.669 11.1257C288.405 18.2223 284.311 27.8389 284.281 37.875V126.25C284.291 129.595 285.656 132.801 288.077 135.166C290.498 137.532 293.779 138.865 297.203 138.875H323.047C326.474 138.875 329.761 140.205 332.184 142.573C334.607 144.94 335.969 148.152 335.969 151.5C335.969 154.848 334.607 158.06 332.184 160.427C329.761 162.795 326.474 164.125 323.047 164.125H297.203C286.931 164.096 277.088 160.096 269.825 152.999C262.561 145.903 258.468 136.286 258.438 126.25V75.75H206.75V37.875C206.72 27.8389 202.626 18.2223 195.363 11.1257C188.099 4.02907 178.256 0.0292772 167.984 0L142.141 0C131.869 0.0292772 122.026 4.02907 114.762 11.1257C107.499 18.2223 103.405 27.8389 103.375 37.875V126.25C103.385 129.595 104.75 132.801 107.171 135.166C109.592 137.532 112.873 138.865 116.297 138.875H142.141C145.568 138.875 148.854 140.205 151.278 142.573C153.701 144.94 155.062 148.152 155.062 151.5C155.062 154.848 153.701 158.06 151.278 160.427C148.854 162.795 145.568 164.125 142.141 164.125H116.297C106.025 164.096 96.1821 160.096 88.9187 152.999C81.6552 145.903 77.5614 136.286 77.5312 126.25V75.75H12.9219C9.49793 75.76 6.21713 77.0933 3.79603 79.4588C1.37492 81.8243 0.0102259 85.0297 0 88.375L0 214.625H827V88.375C826.99 85.0297 825.625 81.8243 823.204 79.4588C820.783 77.0933 817.502 75.76 814.078 75.75ZM180.906 75.75H129.219V37.875C129.229 34.5297 130.594 31.3243 133.015 28.9588C135.436 26.5933 138.717 25.26 142.141 25.25H167.984C171.408 25.26 174.689 26.5933 177.11 28.9588C179.531 31.3243 180.896 34.5297 180.906 37.875V75.75ZM361.812 75.75H310.125V37.875C310.135 34.5297 311.5 31.3243 313.921 28.9588C316.342 26.5933 319.623 25.26 323.047 25.25H348.891C352.315 25.26 355.595 26.5933 358.016 28.9588C360.438 31.3243 361.802 34.5297 361.812 37.875V75.75ZM542.719 75.75H491.031V37.875C491.041 34.5297 492.406 31.3243 494.827 28.9588C497.248 26.5933 500.529 25.26 503.953 25.25H529.797C533.221 25.26 536.502 26.5933 538.923 28.9588C541.344 31.3243 542.709 34.5297 542.719 37.875V75.75ZM723.625 75.75H671.938V37.875C671.948 34.5297 673.312 31.3243 675.734 28.9588C678.155 26.5933 681.435 25.26 684.859 25.25H710.703C714.127 25.26 717.408 26.5933 719.829 28.9588C722.25 31.3243 723.615 34.5297 723.625 37.875V75.75ZM91.9926 373.535C89.5245 365.968 89.3641 357.864 91.531 350.21C93.6978 342.556 98.0983 335.684 104.195 330.432C114.071 321.454 126.897 316.207 140.374 315.631C141.762 315.631 143.163 315.699 144.551 315.835C159.831 318.338 173.707 326.058 183.708 337.62C184.918 339.098 186.452 340.292 188.197 341.114C189.942 341.936 191.853 342.367 193.79 342.373C195.749 342.45 197.698 342.058 199.467 341.231C201.235 340.404 202.77 339.166 203.936 337.626C213.945 326.066 227.822 318.345 243.105 315.834C250.496 315.452 257.888 316.55 264.828 319.061C271.767 321.573 278.108 325.444 283.46 330.438C289.558 335.688 293.959 342.559 296.125 350.212C298.292 357.865 298.132 365.969 295.663 373.534C286.312 415.879 238.385 465.251 193.828 479.195C149.27 465.251 101.343 415.879 91.9926 373.535ZM710.703 694.375H806.507L710.703 787.977V694.375ZM0 795.375C0.0102259 798.72 1.37492 801.926 3.79603 804.291C6.21713 806.657 9.49793 807.99 12.9219 808H684.859V681.75C684.87 678.405 686.234 675.199 688.655 672.834C691.076 670.468 694.357 669.135 697.781 669.125H827V239.875H0V795.375ZM348.891 290.375H749.469C752.896 290.375 756.183 291.705 758.606 294.073C761.029 296.44 762.391 299.652 762.391 303C762.391 306.348 761.029 309.56 758.606 311.927C756.183 314.295 752.896 315.625 749.469 315.625H348.891C345.464 315.625 342.177 314.295 339.753 311.927C337.33 309.56 335.969 306.348 335.969 303C335.969 299.652 337.33 296.44 339.753 294.073C342.177 291.705 345.464 290.375 348.891 290.375ZM348.891 353.5H749.469C752.896 353.5 756.183 354.83 758.606 357.198C761.029 359.565 762.391 362.777 762.391 366.125C762.391 369.473 761.029 372.685 758.606 375.052C756.183 377.42 752.896 378.75 749.469 378.75H348.891C345.464 378.75 342.177 377.42 339.753 375.052C337.33 372.685 335.969 369.473 335.969 366.125C335.969 362.777 337.33 359.565 339.753 357.198C342.177 354.83 345.464 353.5 348.891 353.5ZM348.891 416.625H749.469C752.896 416.625 756.183 417.955 758.606 420.323C761.029 422.69 762.391 425.902 762.391 429.25C762.391 432.598 761.029 435.81 758.606 438.177C756.183 440.545 752.896 441.875 749.469 441.875H348.891C345.464 441.875 342.177 440.545 339.753 438.177C337.33 435.81 335.969 432.598 335.969 429.25C335.969 425.902 337.33 422.69 339.753 420.323C342.177 417.955 345.464 416.625 348.891 416.625ZM762.391 492.375C762.38 495.72 761.016 498.926 758.595 501.291C756.174 503.657 752.893 504.99 749.469 505H297.203C293.776 505 290.489 503.67 288.066 501.302C285.643 498.935 284.281 495.723 284.281 492.375C284.281 489.027 285.643 485.815 288.066 483.448C290.489 481.08 293.776 479.75 297.203 479.75H749.469C752.893 479.76 756.174 481.093 758.595 483.459C761.016 485.824 762.38 489.03 762.391 492.375ZM87.6103 311.08C95.6057 303.839 105.049 298.295 115.346 294.797C125.643 291.299 136.57 289.922 147.439 290.754C164.757 292.941 180.959 300.305 193.828 311.838C206.697 300.305 222.9 292.941 240.218 290.754C251.084 289.952 262.002 291.343 272.295 294.84C282.587 298.337 292.033 303.864 300.046 311.08C309.771 319.267 316.906 329.993 320.614 342.001C324.322 354.009 324.448 366.8 320.979 378.876C309.35 431.018 251.588 489.724 197.317 504.495C195.042 505.169 192.614 505.169 190.339 504.495C136.067 489.724 78.3066 431.018 66.6769 378.876C63.2079 366.8 63.3347 354.009 67.0424 342.001C70.75 329.993 77.8849 319.267 87.6103 311.08ZM77.5312 542.875H749.469C752.896 542.875 756.183 544.205 758.606 546.573C761.029 548.94 762.391 552.152 762.391 555.5C762.391 558.848 761.029 562.06 758.606 564.427C756.183 566.795 752.896 568.125 749.469 568.125H77.5312C74.1042 568.125 70.8174 566.795 68.3941 564.427C65.9708 562.06 64.6094 558.848 64.6094 555.5C64.6094 552.152 65.9708 548.94 68.3941 546.573C70.8174 544.205 74.1042 542.875 77.5312 542.875ZM77.5312 606H749.469C752.896 606 756.183 607.33 758.606 609.698C761.029 612.065 762.391 615.277 762.391 618.625C762.391 621.973 761.029 625.185 758.606 627.552C756.183 629.92 752.896 631.25 749.469 631.25H77.5312C74.1042 631.25 70.8174 629.92 68.3941 627.552C65.9708 625.185 64.6094 621.973 64.6094 618.625C64.6094 615.277 65.9708 612.065 68.3941 609.698C70.8174 607.33 74.1042 606 77.5312 606ZM77.5312 669.125H620.25C623.677 669.125 626.964 670.455 629.387 672.823C631.81 675.19 633.172 678.402 633.172 681.75C633.172 685.098 631.81 688.31 629.387 690.677C626.964 693.045 623.677 694.375 620.25 694.375H77.5312C74.1042 694.375 70.8174 693.045 68.3941 690.677C65.9708 688.31 64.6094 685.098 64.6094 681.75C64.6094 678.402 65.9708 675.19 68.3941 672.823C70.8174 670.455 74.1042 669.125 77.5312 669.125ZM77.5312 732.25H620.25C623.677 732.25 626.964 733.58 629.387 735.948C631.81 738.315 633.172 741.527 633.172 744.875C633.172 748.223 631.81 751.435 629.387 753.802C626.964 756.17 623.677 757.5 620.25 757.5H77.5312C74.1042 757.5 70.8174 756.17 68.3941 753.802C65.9708 751.435 64.6094 748.223 64.6094 744.875C64.6094 741.527 65.9708 738.315 68.3941 735.948C70.8174 733.58 74.1042 732.25 77.5312 732.25Z" fill="black"/>
</svg>
