<svg width="816" height="686" viewBox="0 0 816 686" fill="none" xmlns="http://www.w3.org/2000/svg">
<path d="M816 514.5V565.95H0V514.5H816ZM85 668.85C84.9994 671.102 85.4387 673.333 86.2929 675.414C87.147 677.495 88.3992 679.386 89.9779 680.978C91.5566 682.571 93.4309 683.834 95.4937 684.696C97.5565 685.557 99.7674 686.001 102 686H714C716.233 686.001 718.444 685.557 720.506 684.696C722.569 683.834 724.443 682.571 726.022 680.978C727.601 679.386 728.853 677.495 729.707 675.414C730.561 673.333 731.001 671.102 731 668.85C731.019 650.662 738.19 633.225 750.938 620.364C763.686 607.503 780.971 600.269 799 600.25H17C35.0288 600.269 52.3137 607.503 65.062 620.364C77.8104 633.225 84.9808 650.662 85 668.85ZM85 480.2H731C740.017 480.2 748.665 476.586 755.042 470.153C761.418 463.721 765 454.997 765 445.9C765 436.803 761.418 428.078 755.042 421.646C748.665 415.213 740.017 411.6 731 411.6H85C75.9826 411.6 67.3346 415.213 60.9584 421.646C54.5821 428.078 51 436.803 51 445.9C51 454.997 54.5821 463.721 60.9584 470.153C67.3346 476.586 75.9826 480.2 85 480.2ZM463.051 191.044C455.569 188.446 447.482 188.205 439.861 190.353C432.241 192.501 425.448 196.936 420.385 203.069C417.096 206.375 412.643 208.232 408 208.232C403.358 208.232 398.904 206.375 395.616 203.069C391.743 198.671 387.015 195.123 381.726 192.645C376.437 190.167 370.7 188.813 364.87 188.666C360.776 188.614 356.716 189.424 352.95 191.044C348.26 193.293 344.452 197.061 342.132 201.748C339.812 206.435 339.114 211.77 340.15 216.903C342.458 245.434 385.19 275.89 407.984 289.163C430.778 275.848 473.56 245.325 475.851 216.903C476.887 211.77 476.189 206.435 473.869 201.748C471.549 197.061 467.741 193.293 463.051 191.044ZM713.49 377.3H102.51C106.843 298.519 140.917 224.404 197.732 170.18C254.547 115.955 329.789 85.7393 408 85.7393C486.211 85.7393 561.453 115.955 618.268 170.18C675.083 224.404 709.157 298.519 713.49 377.3ZM476.863 159.7C465.601 155.037 453.331 153.411 441.257 154.98C429.183 156.55 417.722 161.262 408 168.652C398.28 161.256 386.819 156.541 374.744 154.971C362.669 153.401 350.397 155.031 339.137 159.7C327.972 164.783 318.736 173.372 312.809 184.186C306.881 195 304.58 207.458 306.249 219.7C310.864 276.635 391.166 319.318 400.313 323.99C402.695 325.212 405.328 325.849 408 325.849C410.672 325.849 413.305 325.212 415.687 323.99C424.834 319.318 505.136 276.635 509.751 219.7C511.42 207.458 509.119 195 503.191 184.186C497.264 173.372 488.028 164.783 476.863 159.7ZM502.86 65.1691C495.361 45.9548 482.302 29.4627 465.383 17.8394C448.465 6.21617 428.469 0 408 0C387.531 0 367.535 6.21617 350.617 17.8394C333.698 29.4627 320.639 45.9548 313.14 65.1691C375.08 46.8761 440.92 46.8761 502.86 65.1691Z" fill="black"/>
</svg>
