<svg width="600" height="802" viewBox="0 0 600 802" fill="none" xmlns="http://www.w3.org/2000/svg">
<path d="M337.346 268.184C396.1 241.493 421.719 206.935 426.994 177.941C429.118 166.257 427.867 155.572 424.076 146.717C420.401 138.346 414.544 131.963 407.29 128.334C394.49 121.94 377.007 124.012 359.126 139.387C355.586 142.437 350.428 141.806 347.46 137.747C333.788 117.723 317.468 110.824 303.601 113.338C295.611 114.789 288.309 119.427 282.821 126.483C277.158 133.761 273.366 143.71 272.61 155.551C270.709 185.061 287.077 225.718 337.346 268.184ZM128.804 656.353C124.276 656.353 120.591 652.356 120.591 647.445C120.591 642.534 124.276 638.537 128.804 638.537H412.139C416.667 638.537 420.352 642.534 420.352 647.445C420.352 652.356 416.667 656.353 412.139 656.353H128.804ZM92.6347 588.668C88.1063 588.668 84.4214 584.671 84.4214 579.76C84.4214 574.849 88.1063 570.853 92.6347 570.853H448.328C452.856 570.853 456.541 574.849 456.541 579.76C456.541 584.671 452.856 588.668 448.328 588.668H92.6347ZM92.6347 521.004C88.1063 521.004 84.4214 517.007 84.4214 512.096C84.4214 507.185 88.1063 503.189 92.6347 503.189H448.328C452.856 503.189 456.541 507.185 456.541 512.096C456.541 517.007 452.856 521.004 448.328 521.004H92.6347ZM599.406 454.865H557.36V694.013C557.36 713.91 549.854 731.999 537.782 745.092C525.709 758.185 509.03 766.325 490.684 766.325H50.2592C31.9126 766.325 15.2242 758.185 3.12241 745.06C5.13937 755.672 8.5236 764.947 14.1284 772.54C27.6071 790.818 54.9137 801.366 108.722 801.366H549.147C562.955 801.366 575.532 795.225 584.637 785.349C593.743 775.474 599.406 761.834 599.406 746.859V454.865ZM540.933 454.865H495.697C483.77 454.865 472.871 449.554 464.987 440.993C457.094 432.475 452.197 420.675 452.197 407.677C452.197 394.699 457.094 382.879 465.239 374.066C473.355 365.568 484.022 360.489 495.697 360.489H540.933V54.4971C540.933 39.5215 535.27 25.8919 526.165 16.0168C517.059 6.14171 504.492 0 490.684 0H50.2592C36.4507 0 23.8738 6.14171 14.7684 16.0168C5.66299 25.8919 0 39.5215 0 54.4971V694.36C0.174545 709.199 5.60482 722.376 14.5357 732.262C23.8738 742.368 36.4507 748.51 50.2592 748.51H490.684C504.492 748.51 517.059 742.368 526.165 732.493C535.27 722.618 540.933 708.988 540.933 694.013V454.865ZM557.36 360.489H599.406V107.343C599.406 92.3675 593.743 78.7379 584.637 68.8628C577.374 60.9859 567.9 55.4752 557.35 54.0344L557.36 360.489ZM599.406 378.304H495.697C488.444 378.304 481.831 381.427 476.778 386.707C471.678 392.259 468.623 399.61 468.623 407.677C468.623 415.743 471.678 423.094 476.585 428.415C481.462 433.747 488.24 437.05 495.697 437.05H599.406V378.304ZM281.958 233.364C276.265 240.831 269.836 248.392 262.641 255.985C253.109 266.039 242.21 276.187 229.885 286.283C227.412 288.313 224.212 288.576 221.565 287.282C140.877 252.031 105.59 203.539 98.1038 162.387C94.7874 144.13 96.8432 127.167 102.846 113.169C108.964 98.8772 119.175 87.6981 131.917 81.3355C151.369 71.6076 176.581 73.0695 201.909 91.789C210.52 80.8728 219.917 73.0695 229.468 68.053C240.455 62.2899 251.752 60.1656 262.438 61.2067C273.221 62.2479 283.373 66.4966 291.994 73.3849C298.985 78.9693 305.017 86.3099 309.613 95.0702C325.012 95.1964 341.429 102.905 355.518 120.289C376.716 105.082 397.797 104.041 414.156 112.202C424.919 117.576 433.559 126.967 438.931 139.187C444.158 151.345 445.923 165.805 443.091 181.349C436.779 216.043 407.155 256.858 339.47 286.441C336.823 287.735 333.623 287.472 331.15 285.442C309.72 267.879 293.633 250.306 281.958 233.364ZM292.071 98.3514C289.24 94.1868 285.953 90.6112 282.316 87.7086C276.042 82.7027 268.731 79.6108 261.022 78.8746C253.226 78.1174 244.847 79.7265 236.586 84.0593C227.441 88.8654 218.355 97.0473 209.987 109.31C207.01 113.38 201.851 114.011 198.312 110.961C176.29 92.0309 154.676 89.5174 138.782 97.468C129.59 102.064 122.181 110.193 117.721 120.615C113.124 131.342 111.583 144.551 114.201 158.98C120.649 194.431 151.931 236.666 223.698 269.026C234.026 260.349 243.18 251.736 251.218 243.26C259.344 234.678 266.394 226.212 272.425 217.936C259.596 194.526 255.078 172.746 256.261 154.373C257.279 138.535 262.496 125.053 270.312 114.999C276.265 107.354 283.742 101.654 292.071 98.3514Z" fill="black"/>
</svg>
