<svg width="444" height="444" viewBox="0 0 444 444" fill="none" xmlns="http://www.w3.org/2000/svg">
<path fill-rule="evenodd" clip-rule="evenodd" d="M378.415 64.9849C291.849 -21.6616 151.496 -21.6616 64.9249 64.9849C-21.6416 151.631 -21.6416 292.114 64.9249 378.765C105.036 418.913 160.467 443.746 221.67 443.746H428.663C435.713 443.746 438.95 435.061 433.567 430.45L376.176 381.412C399.488 356.264 414.973 336.375 428.11 302.877C460.506 220.284 440.246 126.875 378.415 64.9849ZM118.787 227.597C103.357 189.356 120.193 143.226 165.392 149.247C190.258 152.543 205.281 166.21 221.693 182.877L229.778 174.673C268.353 135.525 324.912 140.803 329.706 191.877C335.459 252.914 266.707 292.375 221.693 318.506C187.391 298.599 135.051 267.931 118.787 227.597ZM215.991 341.451C163.446 310.914 83.9082 266.21 91.1075 189.728C97.1388 125.6 166.278 104.93 221.67 151.302C277.062 104.95 346.203 125.598 352.233 189.728C359.615 268.116 275.968 313.191 221.67 344.745L215.991 341.451Z" fill="black"/>
</svg>
