<svg width="470" height="587" viewBox="0 0 470 587" fill="none" xmlns="http://www.w3.org/2000/svg">
<path fill-rule="evenodd" clip-rule="evenodd" d="M0 88C0 39.3881 37.1094 0 82.9091 0H386.909C432.709 0 469.818 39.3881 469.818 88V498.667C469.818 547.279 432.709 586.667 386.909 586.667H82.9091C37.1094 586.667 0 547.279 0 498.667V88ZM106.117 127.188C130.487 93.8153 174.641 85.4509 208.323 107.881L234.907 125.584L261.491 107.881C295.173 85.4509 339.329 93.8153 363.697 127.188C388.958 161.792 384.398 211.375 353.307 240.107L243.977 341.057C238.768 345.87 231.05 345.87 225.841 341.057L116.511 240.107C85.4205 211.375 80.855 161.787 106.117 127.188ZM96.7245 410.665C96.7245 402.558 102.905 395.999 110.543 395.999H359.27C366.908 395.999 373.088 402.558 373.088 410.665C373.088 418.772 366.908 425.332 359.27 425.332H110.543C102.905 425.332 96.7245 418.772 96.7245 410.665ZM96.7245 476.665C96.7245 468.558 102.905 461.999 110.543 461.999H359.27C366.908 461.999 373.088 468.558 373.088 476.665C373.088 484.772 366.908 491.332 359.27 491.332H110.543C102.905 491.332 96.7245 484.772 96.7245 476.665Z" fill="black"/>
</svg>
