<svg width="514" height="550" viewBox="0 0 514 550" fill="none" xmlns="http://www.w3.org/2000/svg">
<path d="M51.0658 496.905L49.798 535.442C49.3226 547.823 65.0108 554.168 73.7263 545.037L114.452 502.167L51.0658 496.905ZM468.305 535.441C468.781 547.822 453.093 554.168 444.378 545.036L403.493 501.858C422.509 500.464 441.525 498.917 460.541 497.06C462.759 496.905 464.978 496.595 467.038 496.131L468.305 535.441ZM143.293 1.50595L248.831 81.0548C240.274 81.0548 231.875 81.2097 223.318 81.3646L133.626 13.8869C130.14 11.2561 129.507 6.30358 132.2 3.05417C134.735 -0.351188 139.806 -0.969891 143.293 1.50595ZM379.406 13.8869L289.715 81.3646C281.157 81.2097 272.601 81.0548 264.044 81.0548L369.74 1.50595C373.226 -0.96983 378.138 -0.351127 380.833 3.05411C383.527 6.30358 382.893 11.2561 379.406 13.8869ZM51.0658 496.905C51.5411 496.905 52.0166 497.06 52.492 497.06C73.0925 499.072 93.693 500.774 114.452 502.167L51.0658 496.905ZM341.138 247.116C348.27 261.819 344.544 278.069 340.266 289.057C318.397 345.392 267.53 365.201 256.437 365.201C245.503 365.201 194.477 345.392 172.609 289.212C168.33 278.069 164.686 261.819 172.292 246.187C177.839 234.89 187.663 226.842 199.39 224.056C202.242 223.283 205.253 222.973 208.264 222.973C216.187 222.973 223.793 225.449 230.291 230.092C240.433 237.366 246.453 244.64 250.099 249.593C253.11 253.617 259.924 253.617 262.934 249.593C266.579 244.64 272.601 237.366 282.584 230.092C291.617 223.592 302.709 221.425 313.644 224.056C325.211 226.842 335.195 234.89 340.424 245.569L341.138 247.116ZM445.328 158.592C382.893 153.174 319.348 150.08 256.437 150.08C193.685 150.08 129.982 153.174 67.2288 159.365C53.4424 248.509 53.4424 339.665 67.7046 429.737C192.417 440.571 319.982 441.19 445.803 428.963C459.431 339.665 459.431 248.509 445.328 158.592ZM355.161 294.629C343.277 325.272 323.31 346.784 303.977 360.558C284.644 374.487 265.945 380.677 256.437 380.677C237.263 380.677 181.642 355.915 157.872 294.629C150.107 274.665 149.948 255.938 157.713 240.461C165.636 224.056 179.264 212.914 195.587 209.045C210.957 205.33 226.962 208.425 239.798 217.557C246.929 222.818 252.318 228.08 256.437 232.568C260.557 228.08 266.104 222.818 273.234 217.557C285.912 208.425 302.075 205.33 317.447 209.045C333.609 212.914 347.397 224.056 355.003 239.533L355.791 241.08C363.081 255.938 362.926 274.664 355.161 294.629ZM501.266 145.282C497.939 124.543 480.507 108.602 458.956 106.436C323.943 93.2807 188.931 93.2807 54.077 106.436C32.5248 108.602 14.9355 124.543 11.766 145.282C-3.92198 244.485 -3.92198 343.688 11.766 442.893C14.9355 463.785 32.525 479.572 54.077 481.738C188.931 494.893 323.943 494.893 458.956 481.738C480.507 479.571 497.939 463.785 501.266 442.893C516.954 343.688 516.954 244.485 501.266 145.282ZM461.016 432.059C459.907 438.559 454.361 443.666 447.23 444.285C383.844 450.631 319.665 453.726 256.437 453.726C193.209 453.726 129.031 450.631 65.6446 444.285C58.672 443.666 53.1261 438.559 52.0168 432.059C37.5958 340.594 37.5958 247.736 52.0168 156.115C53.1261 149.615 58.672 144.507 65.6446 143.889C192.258 131.508 320.774 131.508 447.23 143.889C454.361 144.507 459.907 149.615 461.016 156.115C475.436 247.736 475.436 340.594 461.016 432.059Z" fill="black"/>
</svg>
