<svg width="764" height="722" viewBox="0 0 764 722" fill="none" xmlns="http://www.w3.org/2000/svg">
<path d="M319.814 205.114C319.814 209.644 315.836 213.318 310.93 213.318H71.0698V674.414C71.0698 700.652 94.1834 722 122.595 722H712.474C740.885 722 764 700.652 764 674.414V229.727H399.767C394.86 229.727 390.884 226.053 390.884 221.523C390.884 216.992 394.86 213.318 399.767 213.318H764V164.091H319.814V205.114ZM701.814 278.955C706.721 278.955 710.698 282.629 710.698 287.159V664.568C710.698 669.1 706.721 672.773 701.814 672.773H133.256C128.35 672.773 124.372 669.1 124.372 664.568V287.159C124.372 282.629 128.35 278.955 133.256 278.955H701.814Z" fill="black"/>
<path d="M556.677 423.233C532.972 411.963 514.495 414.339 483.456 432.637C477.404 436.205 469.476 431.989 469.801 425.352C471.349 393.633 464.004 379.188 440.691 368.108C412.775 354.84 377.576 363.41 362.23 387.212C357.795 394.092 354.779 401.233 353.101 408.91C378.512 395.62 409.309 406.233 418.233 428.897C430.773 460.723 404.096 487.745 382.163 524.709C385.952 534.182 390.116 544.883 394.094 556.209C479.568 536.08 550.211 533.758 579.004 489.098C593.784 466.166 584.723 436.559 556.677 423.233Z" fill="black"/>
<path d="M122.595 49.2273H639.56C638.164 21.8651 613.627 0 583.66 0H55.9674C25.1072 0 0 23.1877 0 51.6886V555.448C0 583.123 23.6751 605.784 53.3023 607.074V113.223C53.3023 77.935 84.3865 49.2273 122.595 49.2273Z" fill="black"/>
<path d="M257.628 557.909C242.932 557.909 230.977 568.949 230.977 582.523C230.977 596.096 242.932 607.136 257.628 607.136C272.323 607.136 284.279 596.096 284.279 582.523C284.279 568.949 272.323 557.909 257.628 557.909Z" fill="black"/>
<path d="M692.93 295.364H142.14V656.364H692.93V295.364ZM500.75 320.816C510.059 317.949 520.121 322.596 523.223 331.195C526.325 339.791 521.293 349.084 511.987 351.949C502.678 354.815 492.617 350.168 489.514 341.572C486.41 332.975 491.442 323.682 500.75 320.816ZM269.781 337.225C279.089 334.358 289.151 339.005 292.253 347.604C295.355 356.2 290.325 365.493 281.017 368.358C271.709 371.223 261.647 366.576 258.545 357.979C255.441 349.384 260.472 340.092 269.781 337.225ZM180.276 416.733L205.088 393.818L180.277 370.903C176.807 367.7 176.807 362.505 180.277 359.3L211.37 330.584C214.84 327.381 220.464 327.381 223.934 330.584C227.404 333.789 227.404 338.984 223.934 342.187L199.122 365.102L223.932 388.018C227.402 391.221 227.402 396.416 223.932 399.619L199.122 422.534L223.932 445.449C227.402 448.652 227.402 453.848 223.932 457.051C220.462 460.255 214.839 460.255 211.369 457.051L180.276 428.335C176.807 425.132 176.807 419.937 180.276 416.733ZM187.468 505.671C184.364 497.074 189.396 487.782 198.704 484.915C208.011 482.05 218.072 486.697 221.176 495.294C224.28 503.89 219.248 513.183 209.94 516.048C200.632 518.915 190.57 514.267 187.468 505.671ZM257.628 623.545C233.136 623.545 213.209 605.143 213.209 582.523C213.209 559.903 233.136 541.5 257.628 541.5C282.12 541.5 302.047 559.903 302.047 582.523C302.047 605.143 282.12 623.545 257.628 623.545ZM390.472 574.039C389.704 574.23 388.933 574.32 388.174 574.32C384.368 574.32 380.865 572.047 379.69 568.537C375.069 554.736 369.97 541.577 365.421 530.204C321.978 512.238 281.39 504.735 268.901 473.028C260.823 452.532 273.864 430.886 296.558 424.296C310.255 420.319 321.893 421.589 333.863 428.454C333.099 409.96 337.397 393.666 346.964 378.819C367.02 347.707 412.713 336.357 448.823 353.519C477.578 367.185 486.433 386.624 487.627 411.286C512.88 398.682 535.974 394.941 564.809 408.642C601.806 426.226 614.403 466.261 594.271 497.491C568.057 538.157 514.909 548.562 453.366 560.612C433.197 564.56 412.343 568.642 390.472 574.039ZM511.987 630.903C502.678 633.768 492.617 629.121 489.514 620.526C486.41 611.929 491.442 602.637 500.75 599.77C510.059 596.904 520.121 601.551 523.223 610.149C526.325 618.746 521.293 628.038 511.987 630.903ZM657.131 617.331C656.123 621.06 652.499 623.547 648.519 623.547C646.479 623.547 648.327 623.667 598.976 612.363C592.287 610.82 589.973 603.103 594.85 598.602L618.646 576.622L575.699 568.69C570.887 567.801 567.768 563.478 568.729 559.035C569.692 554.591 574.372 551.721 579.183 552.597L638.407 563.537C645.337 564.819 647.973 572.745 642.947 577.383L618.508 599.956L650.667 607.379C655.427 608.48 658.319 612.934 657.131 617.331ZM654.126 401.184C644.818 404.051 634.756 399.404 631.654 390.807C628.55 382.21 633.582 372.918 642.89 370.051C652.198 367.186 662.26 371.833 665.362 380.43C668.465 389.027 663.433 398.319 654.126 401.184Z" fill="black"/>
<path d="M712.474 65.6364H122.595C94.1834 65.6364 71.0698 86.9829 71.0698 113.223V196.909H302.047V155.886C302.047 151.356 306.025 147.682 310.93 147.682H764V113.223C764 86.9829 740.885 65.6364 712.474 65.6364ZM151.023 155.886H115.488V123.068H151.023V155.886ZM204.326 155.886H168.791V123.068H204.326V155.886ZM257.628 155.886H222.093V123.068H257.628V155.886Z" fill="black"/>
<path d="M401.537 434.506C397.996 425.517 388.028 419.479 376.732 419.479C373.834 419.479 370.958 419.887 368.186 420.691C356.372 424.123 352.021 429.813 349.567 445.051C348.519 451.55 339.998 454.337 334.758 449.875C325.107 441.661 318.513 438.461 311.241 438.461C308.393 438.461 305.333 438.946 301.885 439.947C287.952 443.997 281.278 456.462 285.594 467.416C294.609 490.299 328.934 497.601 368.539 513.514C372.763 506.577 377.03 500.1 381.19 493.787C397.069 469.694 408.543 452.284 401.537 434.506Z" fill="black"/>
</svg>
