<svg width="750" height="700" viewBox="0 0 750 700" fill="none" xmlns="http://www.w3.org/2000/svg">
<path d="M605.671 700H144.329C64.755 700 0 639.565 0 565.293V134.707C0 60.438 64.7518 0 144.329 0H605.703C685.245 0 750 60.435 750 134.707V565.323C750 639.562 685.248 700 605.671 700ZM144.329 21.2324C77.2773 21.2324 22.749 72.127 22.749 134.707V565.323C22.749 627.875 77.2789 678.768 144.329 678.768H605.703C672.723 678.768 727.251 627.873 727.251 565.293V134.707C727.251 72.1255 672.721 21.2324 605.671 21.2324H144.329Z" fill="black"/>
<path d="M585.229 84.8256H164.811C124.139 84.8256 90.9545 115.797 90.9545 153.758V429.519C90.9545 467.595 124.139 498.451 164.811 498.451H585.229C625.901 498.451 659.085 467.596 659.085 429.519V153.758C659.085 115.797 625.901 84.8256 585.229 84.8256ZM538.405 260.245C529.768 323.232 476.014 389.406 407.718 421.255C386.558 430.912 362.976 430.854 342.158 421.139C273.739 389.326 220.109 323.151 211.471 260.129C206.81 225.967 216.815 196.823 239.776 178.266C299.433 130.01 357.164 169.247 374.998 183.776C392.739 169.247 450.562 130.01 510.346 178.266C533.183 196.941 543.19 225.996 538.405 260.245Z" fill="black"/>
<path d="M304.192 564.105H102.291C96.0145 564.105 90.9187 559.349 90.9187 553.491C90.9187 547.634 96.0143 542.877 102.291 542.877H304.224C310.5 542.877 315.596 547.633 315.596 553.491C315.565 559.349 310.499 564.105 304.192 564.105Z" fill="black"/>
<path d="M216.879 617.112H102.291C96.0145 617.112 90.9187 612.356 90.9187 606.498C90.9187 600.64 96.0143 595.884 102.291 595.884H216.911C223.187 595.884 228.283 600.64 228.283 606.498C228.252 612.356 223.186 617.112 216.879 617.112Z" fill="black"/>
<path d="M614.214 577.676C614.214 606.85 588.643 630.601 557.292 630.601C526.035 630.601 500.588 606.85 500.588 577.676C500.588 548.416 526.035 524.549 557.292 524.549C588.643 524.549 614.214 548.416 614.214 577.676Z" fill="black"/>
</svg>
