<svg width="746" height="776" viewBox="0 0 746 776" fill="none" xmlns="http://www.w3.org/2000/svg">
<path d="M469.476 192.424C466.432 191.122 463.281 190.213 460.056 189.689H447.03C434.379 191.719 423.377 199.575 417.998 210.879C401.077 246.427 428.713 285.496 451.752 340.323C510.211 320.459 559.605 314.221 576.532 278.662C585.357 260.124 576.598 238.227 557.011 229.851C551.105 227.327 545.801 226.099 540.795 226.099C531.228 226.099 521.705 230.438 507.92 241.074C502.116 245.549 493.383 241.821 493.086 234.731C492.042 209.899 486.303 199.62 469.476 192.424Z" fill="black"/>
<path d="M312.328 610.745C309.403 609.493 306.308 608.86 303.134 608.86C294.317 608.86 286.275 613.785 282.647 621.409C278.209 630.733 279.925 637.148 289.996 648.869C294.717 654.366 290.785 662.647 283.302 662.928C267.366 663.53 261.156 666.556 256.719 675.879C251.633 686.56 256.668 699.174 267.938 703.994C272.703 706.032 277.636 707.022 283.02 707.022C301.879 707.022 324.437 694.787 352.381 684.004C349.794 676.986 347.541 670.226 345.345 663.63C336.61 637.387 330.296 618.427 312.328 610.745Z" fill="black"/>
<path d="M127.364 569.067C117.331 569.067 109.169 576.803 109.169 586.311C109.169 595.82 117.331 603.556 127.364 603.556C137.397 603.556 145.559 595.82 145.559 586.311C145.559 576.803 137.397 569.067 127.364 569.067Z" fill="black"/>
<path d="M295.129 324.644C277.739 317.212 257.505 324.701 249.775 340.936C243.087 354.987 245.656 364.986 260.352 382.09C265.074 387.586 261.142 395.869 253.658 396.15C230.405 397.029 220.794 401.821 214.107 415.87C210.345 423.775 210.055 432.599 213.298 440.716C216.535 448.833 222.914 455.267 231.255 458.833C238.26 461.829 245.507 463.284 253.407 463.284C280.9 463.284 312.863 445.496 353.14 430.223C349.128 419.562 345.722 409.331 342.405 399.369C330.582 363.856 321.239 335.808 295.129 324.644Z" fill="black"/>
<path d="M496.447 189.689C503.978 197.587 507.849 207.24 509.749 218.463C527.875 207.613 544.651 205.647 564.495 214.133C593.228 226.418 606.07 258.546 593.119 285.753C576.551 320.56 538.35 331.987 494.118 345.215C446.474 359.466 450.358 359.962 446.508 359.962C442.72 359.962 439.334 357.734 437.998 354.391C414.097 294.49 379.729 249.349 401.415 203.786C403.914 198.539 407.258 193.817 411.221 189.689C388.822 189.689 22.8549 189.689 0 189.689V776H746V189.689C713.28 189.689 523.599 189.689 496.447 189.689ZM136.462 456.978C136.462 466.5 128.314 474.222 118.266 474.222C108.219 474.222 100.071 466.5 100.071 456.978C100.071 447.455 108.219 439.733 118.266 439.733C128.314 439.733 136.462 447.455 136.462 456.978ZM63.3117 353.163L87.6841 330.067L43.7029 321.73C38.7756 320.797 35.5806 316.253 36.5667 311.585C37.5511 306.915 42.3455 303.887 47.2709 304.821L107.921 316.318C115.03 317.667 117.704 326.003 112.571 330.869L87.5422 354.589L120.475 362.39C125.35 363.544 128.314 368.226 127.095 372.846C125.87 377.484 120.914 380.271 116.063 379.119L67.5439 367.624C60.6862 366.003 58.3226 357.895 63.3117 353.163ZM136.462 732.889C126.412 732.889 118.266 725.167 118.266 715.644C118.266 706.122 126.412 698.4 136.462 698.4C146.509 698.4 154.657 706.122 154.657 715.644C154.657 725.167 146.509 732.889 136.462 732.889ZM127.364 620.8C107.3 620.8 90.9738 605.328 90.9738 586.311C90.9738 567.294 107.3 551.822 127.364 551.822C147.428 551.822 163.754 567.294 163.754 586.311C163.754 605.328 147.428 620.8 127.364 620.8ZM367.179 697.019C325.678 711.894 293.604 733.884 260.46 719.712C240.041 710.982 230.925 688.136 240.136 668.788C246.391 655.646 256.153 649.976 267.012 647.503C261.78 638.146 259.808 627.46 266.064 614.318C275.279 594.954 299.35 586.273 319.81 595.025C352.984 609.21 356.741 646.479 372.471 685.903C374.246 690.359 371.879 695.336 367.179 697.019ZM367.973 443.253C354.137 448.212 341.391 453.569 329.061 458.747C293.351 473.75 258.354 489.335 223.773 474.55C197.348 463.253 185.599 433.824 197.521 408.776C206.142 390.663 219.47 383.289 236.682 380.43C227.55 366.308 224.566 351.959 233.189 333.846C245.057 308.905 276.107 297.593 302.607 308.924C346.446 327.667 351.539 377.702 373.262 432.137C374.117 434.277 372.671 441.57 367.973 443.253ZM531.943 588.349C515.773 622.319 473.142 626.189 427.4 642.583C422.698 644.266 417.451 642.023 415.673 637.568C398.28 593.995 373.268 561.353 389.425 527.411C399.221 506.83 424.974 497.25 447.132 506.726C462.451 513.277 468.812 523.633 471.488 535.114C484.021 528.516 496.156 527.685 510.08 533.641C520.715 538.189 528.847 546.383 532.973 556.714C537.102 567.046 536.736 578.282 531.943 588.349ZM518.559 456.978C508.51 456.978 500.364 449.256 500.364 439.733C500.364 430.211 508.51 422.489 518.559 422.489C528.606 422.489 536.754 430.211 536.754 439.733C536.754 449.256 528.606 456.978 518.559 456.978ZM627.73 681.156C617.681 681.156 609.535 673.433 609.535 663.911C609.535 654.389 617.681 646.667 627.73 646.667C637.777 646.667 645.925 654.389 645.925 663.911C645.925 673.433 637.777 681.156 627.73 681.156ZM645.925 586.311C620.843 586.311 600.437 566.971 600.437 543.2C600.437 519.429 620.843 500.089 645.925 500.089C671.007 500.089 691.413 519.429 691.413 543.2C691.413 566.971 671.007 586.311 645.925 586.311ZM688.747 304.302C692.301 307.67 692.301 313.13 688.747 316.496L663.34 340.578L688.747 364.658C692.301 368.026 692.301 373.485 688.747 376.851C685.197 380.219 679.433 380.218 675.883 376.851L644.042 346.674C640.488 343.306 640.488 337.846 644.042 334.48L669.449 310.4L644.042 286.32C640.488 282.952 640.488 277.492 644.042 274.126L675.883 243.949C679.433 240.582 685.197 240.582 688.747 243.949C692.301 247.316 692.301 252.776 688.747 256.142L663.34 280.222L688.747 304.302Z" fill="black"/>
<path d="M645.925 517.333C630.874 517.333 618.632 528.935 618.632 543.2C618.632 557.465 630.874 569.067 645.925 569.067C660.974 569.067 673.218 557.465 673.218 543.2C673.218 528.935 660.974 517.333 645.925 517.333Z" fill="black"/>
<path d="M502.598 549.358C498.688 547.687 495.217 546.875 491.987 546.875C485.753 546.875 479.37 549.837 469.96 557.101C467.285 559.161 463.615 559.615 460.475 558.275C457.333 556.933 455.262 554.023 455.125 550.76C454.412 533.829 450.797 527.213 439.649 522.446C426.763 516.932 411.734 522.477 406.011 534.504C394.556 558.57 412.822 584.709 429.41 623.537C471.225 609.595 503.917 605.299 515.359 581.258C518.152 575.392 518.363 568.844 515.957 562.822C513.548 556.794 508.805 552.012 502.598 549.358Z" fill="black"/>
<path d="M727.803 172.444V68.9778H718.118C713.624 102.955 682.974 129.333 645.925 129.333C635.892 129.333 627.73 121.597 627.73 112.089C627.73 102.58 635.892 94.8444 645.925 94.8444C662.845 94.8444 677.062 83.8287 681.118 68.9778H608.947C604.453 102.955 573.803 129.333 536.754 129.333C526.721 129.333 518.559 121.597 518.559 112.089C518.559 102.58 526.721 94.8444 536.754 94.8444C553.674 94.8444 567.892 83.8287 571.947 68.9778H499.776C495.282 102.955 464.632 129.333 427.584 129.333C417.551 129.333 409.388 121.597 409.388 112.089C409.388 102.58 417.551 94.8444 427.584 94.8444C444.503 94.8444 458.721 83.8287 462.777 68.9778H390.606C386.111 102.955 355.462 129.333 318.413 129.333C308.38 129.333 300.218 121.597 300.218 112.089C300.218 102.58 308.38 94.8444 318.413 94.8444C335.332 94.8444 349.55 83.8287 353.606 68.9778H281.433C276.941 102.955 246.291 129.333 209.242 129.333C199.209 129.333 191.047 121.597 191.047 112.089C191.047 102.58 199.209 94.8444 209.242 94.8444C226.162 94.8444 240.379 83.8287 244.435 68.9778H172.262C167.77 102.955 137.12 129.333 100.071 129.333C90.0386 129.333 81.8762 121.597 81.8762 112.089C81.8762 102.58 90.0386 94.8444 100.071 94.8444C116.991 94.8444 131.209 83.8287 135.264 68.9778H61.2175C58.0679 74.1235 52.2018 77.6 45.486 77.6C38.7702 77.6 32.9041 74.1235 29.7545 68.9778H18.1933V172.444C32.7803 172.444 702.199 172.444 727.803 172.444Z" fill="black"/>
<path d="M45.486 68.9778C50.5115 68.9778 54.5835 65.1167 54.5835 60.3556C54.5835 36.5841 74.9894 17.2444 100.071 17.2444C125.153 17.2444 145.559 36.5841 145.559 60.3556C145.559 84.127 125.153 103.467 100.071 103.467C95.0459 103.467 90.9738 107.328 90.9738 112.089C90.9738 116.85 95.0459 120.711 100.071 120.711C135.186 120.711 163.754 93.6356 163.754 60.3556C163.754 36.5841 184.16 17.2444 209.242 17.2444C234.324 17.2444 254.73 36.5841 254.73 60.3556C254.73 84.127 234.324 103.467 209.242 103.467C204.217 103.467 200.145 107.328 200.145 112.089C200.145 116.85 204.217 120.711 209.242 120.711C244.357 120.711 272.925 93.6356 272.925 60.3556C272.925 36.5841 293.331 17.2444 318.413 17.2444C343.495 17.2444 363.901 36.5841 363.901 60.3556C363.901 84.127 343.495 103.467 318.413 103.467C313.387 103.467 309.315 107.328 309.315 112.089C309.315 116.85 313.387 120.711 318.413 120.711C353.528 120.711 382.096 93.6356 382.096 60.3556C382.096 36.5841 402.502 17.2444 427.584 17.2444C452.666 17.2444 473.071 36.5841 473.071 60.3556C473.071 84.127 452.666 103.467 427.584 103.467C422.558 103.467 418.486 107.328 418.486 112.089C418.486 116.85 422.558 120.711 427.584 120.711C462.698 120.711 491.266 93.6356 491.266 60.3556C491.266 36.5841 511.672 17.2444 536.754 17.2444C561.836 17.2444 582.242 36.5841 582.242 60.3556C582.242 84.127 561.836 103.467 536.754 103.467C531.729 103.467 527.657 107.328 527.657 112.089C527.657 116.85 531.729 120.711 536.754 120.711C571.869 120.711 600.437 93.6356 600.437 60.3556C600.437 36.5841 620.843 17.2444 645.925 17.2444C671.007 17.2444 691.413 36.5841 691.413 60.3556C691.413 84.127 671.007 103.467 645.925 103.467C640.899 103.467 636.827 107.328 636.827 112.089C636.827 116.85 640.899 120.711 645.925 120.711C681.04 120.711 709.608 93.6356 709.608 60.3556C709.608 27.0755 681.04 0 645.925 0C622.784 0 602.491 11.7624 591.34 29.3052C580.188 11.7624 559.895 0 536.754 0C513.614 0 493.321 11.7624 482.169 29.3052C471.017 11.7624 450.724 0 427.584 0C404.443 0 384.15 11.7624 372.998 29.3052C361.846 11.7624 341.553 0 318.413 0C295.272 0 274.979 11.7624 263.827 29.3052C252.676 11.7624 232.383 0 209.242 0C186.102 0 165.808 11.7624 154.657 29.3052C143.505 11.7624 123.212 0 100.071 0C64.9566 0 36.3884 27.0755 36.3884 60.3556C36.3884 65.1167 40.4605 68.9778 45.486 68.9778Z" fill="black"/>
</svg>
