<svg width="679" height="828" viewBox="0 0 679 828" fill="none" xmlns="http://www.w3.org/2000/svg">
<path fill-rule="evenodd" clip-rule="evenodd" d="M56.3986 693.6C-42.0798 546.678 1.28009 326.97 87.9998 184.766C413.566 -351.699 872.152 420.649 592.15 723.928C455.456 871.523 169.575 862.762 56.3986 693.6ZM190.888 197.571C223.224 166.57 190.888 133.546 158.551 145.003C123.276 157.134 99.7584 204.985 84.3253 233.965C116.661 246.77 168.84 269.01 204.116 256.879C236.452 245.422 237.187 201.615 190.888 197.571ZM514.984 207.007C468.685 200.941 458.396 244.074 487.058 261.597C517.924 281.141 574.512 270.358 609.053 265.64C601.704 233.965 591.415 182.07 560.549 162.526C531.887 145.003 491.467 169.939 514.984 207.007ZM287.896 545.33C265.114 496.806 209.26 514.329 207.056 553.418C204.851 595.877 252.62 643.727 280.547 674.055C312.148 646.423 365.062 603.29 367.267 561.505C369.471 521.742 315.823 498.828 287.896 545.33ZM392.254 187.462C375.351 151.743 334.196 164.548 332.726 193.528C331.256 224.529 366.532 259.575 387.109 281.815C410.627 261.597 449.577 229.921 451.047 198.919C452.517 169.939 412.831 153.764 392.254 187.462ZM452.517 568.919C444.433 552.07 424.59 558.135 423.855 571.615C423.12 586.441 440.023 602.616 449.577 613.4C460.601 603.964 478.974 589.137 479.708 574.31C480.443 560.831 462.071 552.744 452.517 568.919ZM406.952 419.301C394.459 393.017 363.592 402.453 362.857 423.345C361.387 446.26 387.844 472.544 403.277 489.392C420.18 474.566 449.577 450.977 451.047 428.063C451.782 405.822 422.385 393.691 406.952 419.301ZM264.379 322.926C245.271 282.489 198.972 297.316 196.767 329.666C194.562 364.711 234.982 404.475 257.765 429.411C284.956 406.496 329.051 370.777 330.521 335.731C332.726 302.708 287.896 284.511 264.379 322.926ZM140.914 673.381C118.866 644.401 84.3252 663.272 88.7347 688.882C93.8791 717.188 132.095 742.124 155.612 758.299C172.515 736.059 200.442 701.013 196.032 673.381C190.888 647.097 152.672 639.01 140.914 673.381ZM441.493 719.21C449.577 672.033 397.398 661.25 375.351 689.556C351.834 720.558 362.857 777.844 368.737 813.563C406.952 806.15 470.155 796.714 493.672 765.713C516.454 737.407 487.058 696.296 441.493 719.21ZM545.851 394.365C503.226 378.864 482.648 417.954 505.43 440.868C529.683 465.804 586.271 467.826 620.812 469.848C621.547 438.172 624.486 386.952 600.234 362.016C576.717 339.101 532.622 354.602 545.851 394.365ZM580.392 574.984C550.995 548.026 519.394 573.636 528.948 599.92C539.236 628.226 585.536 648.445 612.728 661.924C625.956 636.314 648.738 594.529 637.715 566.223C628.161 539.265 586.271 537.917 580.392 574.984ZM132.095 415.932C150.467 362.69 92.4093 341.123 61.543 370.777C27.737 403.127 29.9417 471.87 29.9417 513.655C75.5063 511.633 150.467 510.959 183.539 478.609C215.14 448.955 188.683 397.061 132.095 415.932ZM440.023 66.1507C429.734 44.5843 405.482 52.6717 404.747 69.5205C404.012 87.7172 424.59 109.284 437.083 122.089C451.047 109.958 473.829 91.087 475.299 72.8903C476.034 56.0415 452.517 45.9322 440.023 66.1507ZM301.859 50.6499C284.956 14.9304 243.801 27.7355 242.332 56.7154C240.862 87.7172 276.138 122.763 296.715 145.003C319.497 124.785 359.183 93.1088 360.653 62.107C361.387 33.1271 322.437 16.9523 301.859 50.6499Z" fill="black"/>
</svg>
