<svg width="689" height="683" viewBox="0 0 689 683" fill="none" xmlns="http://www.w3.org/2000/svg">
<path d="M344.886 0.0111208C154.962 0.0111208 0 152.543 0 341.109C0 401.217 16.7072 460.559 47.0949 513.153L12.9087 644.67V645.433C11.3953 652.183 13.6803 659.696 18.2207 664.217C23.5326 668.736 31.1294 670.967 37.213 668.736L166.361 634.162C220.311 665.713 281.827 683 344.114 683C534.038 683 689 530.468 689 342.631C689.03 153.268 534.805 0 344.881 0L344.886 0.0111208ZM540.12 318.569C532.523 398.227 461.127 478.614 350.196 534.199C349.425 534.962 347.911 535.696 347.169 535.696H346.398H344.113C341.828 536.459 339.543 536.459 336.516 536.459C333.489 536.459 328.919 536.459 324.348 533.465L322.835 532.702C214.191 477.847 144.307 398.225 136.71 318.567C134.425 280.236 143.535 247.189 163.299 222.387C180.006 201.343 204.311 186.316 231.672 181.062C271.17 172.052 311.44 183.322 338.804 207.36C366.165 182.559 406.404 172.785 446.673 181.062C474.034 187.079 499.079 202.106 515.045 222.387C534.037 247.187 543.146 280.266 540.12 318.569Z" fill="black"/>
</svg>
