<svg width="889" height="781" viewBox="0 0 889 781" fill="none" xmlns="http://www.w3.org/2000/svg">
<path d="M854.905 566.651C848.895 541.795 826.307 522.942 797.467 518.811L597.123 489.436C553.48 484.705 539.927 520.576 530.005 554.223C410.575 505.606 314.658 421.612 259.115 317.111C297.473 308.39 338.576 296.527 333.131 258.361L299.572 82.9988C294.852 57.7547 273.313 37.9833 244.916 32.723C196.07 23.5083 75.1478 14.8225 7.1413 133.663C1.53463 143.443 -0.804805 154.565 0.243896 165.863C1.97834 185.634 7.78668 227.436 26.5027 283.958C101.164 510.902 308.814 692.483 567.891 757.839C637.913 774.998 679.06 779.623 708.623 781C719.594 781 730.122 778.917 739.601 774.786C875.366 715.26 865.484 609.411 854.921 566.66L854.905 566.651Z" fill="black"/>
<path d="M430.323 128.965C430.323 236.13 522.517 293.228 589.988 344.354C613.794 362.38 636.728 379.37 659.661 379.37C682.595 379.37 705.529 362.402 729.334 344.332C796.829 293.25 889 236.13 889 128.987C889 21.8435 762.864 -54.2058 659.661 48.8388C556.459 -54.2058 430.323 21.7995 430.323 128.965Z" fill="black"/>
</svg>
