<svg width="815" height="834" viewBox="0 0 815 834" fill="none" xmlns="http://www.w3.org/2000/svg">
<path d="M690.701 834H124.299C91.3549 833.927 59.7806 820.625 36.4855 797.004C13.1905 773.383 0.0716958 741.367 0 707.962V281.966C0.135906 259.384 6.25285 237.254 17.7112 217.89C29.1695 198.525 45.5483 182.638 65.1349 171.89L348.2 15.3059C366.396 5.26209 386.783 0 407.5 0C428.217 0 448.604 5.26209 466.8 15.3059L749.865 171.064C769.452 181.813 785.83 197.7 797.289 217.064C808.747 236.428 814.864 258.559 815 281.141V707.962C814.928 741.367 801.809 773.383 778.514 797.004C755.219 820.625 723.645 833.927 690.701 834ZM407.093 54.9334C395.531 54.9615 384.156 57.8924 373.983 63.4643L90.9174 219.498C79.8264 225.597 70.5667 234.622 64.1175 245.618C57.6682 256.614 54.2689 269.173 54.2791 281.966V707.962C54.2791 726.793 61.6561 744.852 74.7874 758.167C87.9187 771.481 105.729 778.962 124.299 778.962H690.701C709.13 778.744 726.731 771.168 739.687 757.877C752.643 744.585 759.908 726.65 759.907 707.962V281.966C759.917 269.173 756.518 256.614 750.068 245.618C743.619 234.622 734.359 225.597 723.268 219.498L441.017 63.4643C430.602 57.7586 418.93 54.8235 407.093 54.9334Z" fill="black"/>
<path d="M737.11 195.281L453.773 39.5227C439.53 31.6708 423.576 27.5574 407.364 27.5574C391.153 27.5574 375.198 31.6708 360.956 39.5227L77.8904 195.281C62.5164 203.756 49.6852 216.285 40.7522 231.543C31.8193 246.801 27.1161 264.222 27.1395 281.966V707.962C27.1395 734.091 37.3759 759.15 55.5969 777.626C73.8178 796.101 98.5307 806.481 124.299 806.481H690.701C716.328 806.263 740.832 795.788 758.877 777.335C776.923 758.883 787.047 733.949 787.046 707.962V281.966C787.15 264.305 782.569 246.941 773.784 231.69C764.999 216.44 752.332 203.865 737.11 195.281ZM515.651 696.404H298.535C291.337 696.404 284.434 693.505 279.344 688.344C274.255 683.183 271.395 676.184 271.395 668.885C271.395 661.587 274.255 654.587 279.344 649.426C284.434 644.265 291.337 641.366 298.535 641.366H515.651C522.849 641.366 529.752 644.265 534.842 649.426C539.931 654.587 542.791 661.587 542.791 668.885C542.791 676.184 539.931 683.183 534.842 688.344C529.752 693.505 522.849 696.404 515.651 696.404Z" fill="black"/>
</svg>
