<svg width="825" height="808" viewBox="0 0 825 808" fill="none" xmlns="http://www.w3.org/2000/svg">
<path d="M129.152 409.157V808H185.851C184.133 804.562 182.415 802.843 182.415 799.404V584.511C182.415 574.196 191.006 567.319 199.596 567.319H328.457C337.048 567.319 345.638 574.196 345.638 584.511V799.404C345.638 802.843 345.638 806.281 342.202 808H694.421V409.157L412.646 201.14L129.152 409.157ZM300.967 440.102C295.812 441.821 292.376 445.26 290.658 450.417L276.913 474.485L263.167 450.417C261.449 445.26 256.295 441.821 252.859 440.102L228.805 426.349L252.859 412.596C258.013 410.877 261.449 405.719 263.167 402.281L276.913 378.213L290.658 402.281C292.376 407.438 295.812 410.877 300.967 412.596L325.021 426.349L300.967 440.102ZM428.109 701.413C407.491 701.413 412.646 679.064 412.646 642.962H512.298V701.413H428.109ZM581.024 453.855C586.178 452.136 589.615 448.698 591.333 443.54L605.078 419.472L618.823 443.54C622.259 448.698 625.696 452.136 629.132 453.855L653.186 467.609L629.132 481.362C623.977 483.081 620.541 486.519 618.823 491.677L605.078 515.745L591.333 491.677C589.615 486.519 586.178 483.081 581.024 481.362L556.97 467.609L581.024 453.855ZM531.198 567.319H613.669C622.259 567.319 629.132 574.196 629.132 582.792V622.332H531.198V567.319ZM531.198 642.962H629.132C629.132 679.064 632.568 701.413 613.669 701.413H531.198V642.962ZM510.58 622.332H412.646V582.792C412.646 574.196 419.518 567.319 428.109 567.319H510.58V622.332ZM472.781 371.336C472.781 404 445.291 431.506 412.646 431.506C380.001 431.506 352.511 404 352.511 371.336C352.511 338.672 380.001 311.166 412.646 311.166C445.291 311.166 472.781 338.672 472.781 371.336Z" fill="black"/>
<path d="M819.846 393.685C831.873 371.336 821.564 345.549 800.946 333.515L433.264 68.766C419.518 61.8894 405.773 61.8894 392.028 68.766L204.751 202.86V153.004H113.689V268.187L24.3457 331.796C2.00985 343.83 -6.58086 369.617 5.44613 391.966C17.4731 414.315 44.9634 422.911 65.5811 410.877C148.052 352.426 79.3263 402.281 412.646 159.881C739.093 398.843 677.24 352.426 759.711 412.596C782.047 424.63 809.537 416.034 819.846 393.685Z" fill="black"/>
<path d="M204.751 96.2723H113.689V134.094H204.751V96.2723Z" fill="black"/>
<path d="M649.75 110.026L663.495 134.094L677.24 110.026C678.958 104.868 682.394 101.43 687.549 99.7106L711.603 85.9575L687.549 72.2043C682.394 70.4851 678.958 67.0468 677.24 61.8894L663.495 37.8213L649.75 61.8894C648.031 67.0468 644.595 70.4851 639.441 72.2043L615.387 85.9575L639.441 99.7106C642.877 101.43 646.313 104.868 649.75 110.026Z" fill="black"/>
<path d="M800.946 539.813C795.792 538.094 792.355 534.655 790.637 529.498L776.892 505.43L763.147 529.498C761.429 534.655 757.992 538.094 752.838 539.813L728.784 553.566L752.838 567.319C757.992 569.038 761.429 572.477 763.147 577.634L776.892 601.702C787.201 582.792 790.637 572.477 800.946 567.319L825 553.566L800.946 539.813Z" fill="black"/>
<path d="M240.832 72.2043L254.577 96.2723L268.322 72.2043C270.04 67.0468 273.476 63.6085 278.631 61.8894L302.685 48.1362L278.631 34.383C273.476 32.6638 270.04 29.2255 268.322 24.0681L254.577 0L240.832 24.0681C239.113 29.2255 235.677 32.6638 230.523 34.383L206.469 48.1362L230.523 61.8894C233.959 63.6085 237.395 67.0468 240.832 72.2043Z" fill="black"/>
</svg>
