<svg width="823" height="774" viewBox="0 0 823 774" fill="none" xmlns="http://www.w3.org/2000/svg">
<path d="M822.742 311.269C821.938 306.216 810.879 239.734 772.848 219.926C765.775 216.269 758.124 214.408 749.894 214.408C737.677 214.408 724.207 218.463 709.612 226.541C665.569 250.94 609.47 302.53 550.124 357.113C471.875 429.079 383.179 510.619 293.966 557.754C293.902 557.788 293.805 557.821 293.741 557.854C292.712 558.353 191.961 607.981 210.668 688.69C217.676 718.94 236.194 742.674 264.259 757.333C315.406 784.058 392.687 778.441 476.279 741.942C627.085 676.125 831.26 489.87 822.742 311.269Z" fill="black"/>
<path d="M229.666 516.53C237.35 515.467 242.815 508.154 241.819 500.176C239.858 484.685 237.993 437.117 254.356 422.192C257.571 419.267 263.325 415.777 276.217 419.234C318.813 430.702 359.026 441.538 381.634 421.394C394.397 410.026 399.187 391.112 396.326 363.522C394.365 344.508 397.484 331.577 405.649 325.129C416.901 316.187 439.598 317.217 466.345 327.854C482.998 334.469 499.972 331.677 514.15 319.91C543.437 295.61 555.621 239.799 550.156 202.008C548.098 187.715 553.692 174.186 565.555 164.845C582.722 151.349 608.698 149.454 631.684 160.058C635.124 161.654 638.95 161.753 642.486 160.357C645.99 158.961 648.787 156.235 650.33 152.679C651.873 149.122 651.97 145.166 650.62 141.51C649.269 137.886 646.633 134.994 643.193 133.399C610.434 118.308 574.139 121.433 548.516 141.609C528.487 157.366 518.714 181.532 522.283 206.297C526.912 238.141 514.374 282.285 496.532 297.112C488.206 304.026 481.101 302.397 476.504 300.569C439.437 285.843 408.188 286.308 388.517 301.932C377.201 310.94 364.502 329.455 368.36 366.552C369.582 378.32 369.678 393.544 363.281 399.262C353.7 407.805 327.821 402.918 283.393 390.985C277.252 389.323 271.69 388.625 266.643 388.625C252.08 388.625 242.082 394.509 235.716 400.326C205.819 427.649 212.345 491.473 213.952 503.973C214.885 511.885 221.893 517.636 229.673 516.539L229.666 516.53Z" fill="black"/>
<path d="M149.622 408.432C227.163 368.044 493.354 147.721 550.898 61.399C552.506 58.9724 554.242 56.5126 556.042 54.0528C529.873 40.2909 475.832 21.676 418.898 60.4017C385.978 82.806 340.809 123.759 293.004 167.105C220.831 232.589 138.98 306.782 71.2806 343.382C25.4693 368.147 -0.506876 409.598 0.00749685 457.097C0.393276 492.798 16.1777 525.839 40.0323 542.79C48.4227 489.803 88.6392 440.173 149.622 408.432Z" fill="black"/>
<path d="M287.918 545.378C375.551 499.04 463.545 418.133 541.154 346.762C603.747 289.223 657.789 239.498 703.243 214.335C723.657 203.033 742.496 198.679 759.502 201.238C793.643 139.708 777.441 71.6948 745.55 30.8144C730.343 11.3349 705.365 0.132751 677.042 0H676.656C638.11 0 599.79 20.476 571.403 56.2438C567.996 60.5984 564.813 64.9858 561.952 69.2738C503.635 156.796 234.103 379.979 155.663 420.859C94.7749 452.572 56.0974 502.632 52.2128 554.751C50.6697 575.028 54.3989 595.538 63.3364 615.715C91.4344 679.138 164.993 676.679 195.049 672.756C191.834 594.075 283.647 547.472 287.918 545.378ZM226.74 389.974C237.734 379.936 257.056 369.631 286.697 377.609C325.853 388.147 348.55 391.969 354.144 388.977C354.658 387.681 356.362 382.196 354.915 368.135C350.414 324.623 366.199 302.152 380.248 290.983C403.781 272.302 439.658 271.105 481.254 287.659C483.569 288.59 484.887 288.922 488.037 286.329C502.279 274.529 512.791 235.205 508.934 208.413C504.594 178.563 516.328 149.444 540.311 130.597C569.855 107.361 611.358 103.571 648.617 120.758C655.336 123.849 660.48 129.466 663.116 136.581C665.752 143.694 665.559 151.439 662.569 158.387C659.58 165.334 654.147 170.652 647.266 173.378C640.387 176.104 632.896 175.904 626.177 172.813C607.596 164.27 586.989 165.5 573.647 175.971C568.021 180.392 561.688 188.137 563.392 200.004C569.436 241.588 555.515 303.413 522.499 330.806C504.464 345.764 482.796 349.355 461.449 340.878C436.919 331.139 419.56 331.604 413.773 336.191C409.818 339.316 408.275 348.989 409.658 362.086C413.033 394.562 406.7 417.432 390.368 431.991C362.432 456.889 318.903 445.155 272.803 432.756C270.006 431.991 265.055 430.994 263.223 432.656C254.832 440.302 252.035 473.708 255.154 498.407C257.115 513.963 246.473 528.29 231.428 530.351C230.239 530.518 229.017 530.584 227.795 530.584C214.068 530.584 202.334 519.947 200.502 505.853C198.766 492.125 191.73 421.95 226.74 389.974Z" fill="black"/>
</svg>
