<svg width="673" height="789" viewBox="0 0 673 789" fill="none" xmlns="http://www.w3.org/2000/svg">
<path d="M119.097 219.731C224.049 188.049 271.576 209.695 322.985 233.103C370.097 254.56 421.002 277.715 539.686 249.557C557.52 217.278 569.272 180.437 573.201 140.987H99.7853C102.553 168.768 109.18 195.259 119.088 219.735L119.097 219.731ZM574.504 267.773C573.787 271.957 571.532 275.764 568.115 278.596C557.217 296.34 544.61 312.795 530.534 327.581C502.861 356.778 469.62 379.745 432.684 394.5C469.616 409.224 502.857 432.222 530.534 461.419C576.724 510.122 607.335 576.158 613.486 649.814C627.732 652.834 640.509 659.535 650.52 668.722C664.39 681.495 673 699.114 673 718.526C673 737.938 664.391 755.557 650.52 768.33C636.65 781.103 617.518 789 596.438 789H76.5281C55.4483 789 36.3163 781.072 22.4459 768.33C8.57551 755.557 0 737.938 0 718.526C0 699.114 8.60945 681.495 22.4459 668.722C32.4558 659.504 45.2338 652.834 59.4802 649.814C65.6298 576.162 96.2749 510.09 142.431 461.419C170.105 432.222 203.346 409.255 240.282 394.5C203.35 379.776 170.109 356.778 142.431 327.581C96.2758 278.91 65.6305 212.842 59.4802 139.186C45.2338 136.198 32.4566 129.465 22.4459 120.278C8.57551 107.505 0 89.886 0 70.4739C0 51.0618 8.60945 33.4433 22.4459 20.6702C36.3163 7.8971 55.4483 0 76.5281 0H596.438C617.518 0 636.65 7.92835 650.52 20.6702C664.39 33.4433 673 51.0618 673 70.4739C673 89.886 664.391 107.505 650.52 120.278C640.51 129.496 627.732 136.197 613.486 139.186C609.591 185.938 595.789 229.635 574.47 267.771L574.504 267.773Z" fill="black"/>
</svg>
