<svg width="470" height="829" viewBox="0 0 470 829" fill="none" xmlns="http://www.w3.org/2000/svg">
<path d="M192.752 656.72L181.442 773.971C180.071 788.247 184.945 801.986 195.303 812.613C205.622 823.24 219.673 829 234.981 829C250.288 829 264.339 823.132 274.658 812.613C284.978 801.986 289.852 788.355 288.519 773.971L277.209 656.72H192.675H192.752Z" fill="black"/>
<path d="M414.638 332.674C399.254 332.674 386.764 344.41 386.764 358.865V535.186C386.764 559.552 367.839 581.341 342.022 583.738C312.397 586.493 287.341 564.597 287.341 537.297V358.87C287.341 344.415 274.852 332.679 259.468 332.679H232.775C217.391 332.679 204.901 344.414 204.901 358.87V422.164C204.901 446.53 185.976 468.32 160.159 470.717C130.534 473.472 105.478 451.575 105.478 424.275V358.978C105.478 344.523 92.9889 332.787 77.6045 332.787H27.8737C17.5543 332.787 7.99635 329.782 0 324.737V584.033C0 612.871 24.9415 636.342 55.6704 636.342H414.215C444.906 636.342 469.885 612.907 469.885 584.033V324.737C461.889 329.853 452.331 332.787 442.011 332.787H414.633L414.638 332.674Z" fill="black"/>
<path d="M0.0321867 220.754V286.052C0.0321867 300.506 12.5214 312.242 27.9059 312.242H77.6367C105.129 312.242 127.368 333.137 127.368 358.97V422.801C127.368 436.541 137.801 448.992 152.309 450.387C168.987 451.961 183.115 439.653 183.115 424.268V358.97C183.115 333.138 205.352 312.242 232.846 312.242H259.539C287.031 312.242 309.27 333.137 309.27 358.97V535.832C309.27 549.571 319.703 562.022 334.211 563.417C350.889 564.991 365.017 552.683 365.017 537.406V358.979C365.017 333.146 387.254 312.251 414.748 312.251H442.126C457.51 312.251 470 300.515 470 286.06V220.763C470 98.8586 364.828 0 235.052 0C105.314 0 0.103361 98.822 0.103361 220.763L0.0321867 220.754Z" fill="black"/>
</svg>
