<svg width="796" height="687" viewBox="0 0 796 687" fill="none" xmlns="http://www.w3.org/2000/svg">
<path d="M791.422 352.834C791.173 352.271 790.955 351.709 790.676 351.146L650.258 71.8994C628.307 28.2211 581.233 0 530.393 0H265.518C214.651 0 167.637 28.2211 145.653 71.8994L5.26732 351.116C4.98748 351.678 4.76983 352.241 4.52109 352.804C1.38075 359.911 -0.298271 367.61 0.0437572 375.428C2.68662 437.14 9.24677 532.343 15.87 562.697C30.8566 626.393 65.494 656.153 133.522 669.419C174.969 677.444 321.571 687.809 398 686.95C474.426 687.779 621.055 677.415 662.477 669.419C730.477 656.153 765.141 626.392 780.129 562.697C786.752 532.344 793.312 437.166 795.956 375.428C796.298 367.58 794.65 359.881 791.478 352.745L791.422 352.834ZM569.545 305.454C558.227 304.803 547.842 311.406 544.173 321.622C536.214 343.891 534.597 366.633 529.373 376.909C516.905 401.665 501.514 425.563 473.966 431.011C457.3 434.12 427.203 437.171 397.976 437.23C368.749 437.171 338.651 434.12 321.985 431.011C294.438 425.562 279.047 401.636 266.579 376.909C261.355 366.663 259.769 343.891 251.778 321.622C248.109 311.406 237.725 304.832 226.407 305.454C185.799 307.734 130.054 310.784 89.1654 314.515L198.986 96.2108C211.173 71.9287 237.323 56.2933 265.555 56.2933H530.43C558.693 56.2933 584.811 71.9878 597 96.2108L706.788 314.515C665.932 310.755 610.147 307.704 569.545 305.454Z" fill="black"/>
</svg>
