<svg width="827" height="819" viewBox="0 0 827 819" fill="none" xmlns="http://www.w3.org/2000/svg">
<path d="M827 409.5C827 635.3 641.505 819 413.5 819C185.495 819 0 635.3 0 409.5C0 183.7 185.495 0 413.5 0C517.925 0 616.267 38.5685 692.748 108.205L692.352 66.9235C692.208 51.1388 705.009 38.2476 720.948 38.105H721.2C737.03 38.105 749.904 50.711 750.048 66.4243L750.769 142.346C750.878 160.202 743.99 176.986 731.405 189.699C718.784 202.377 701.908 209.448 683.914 209.555L606.096 210.269H605.844C590.014 210.269 577.14 197.663 576.996 181.95C576.852 166.165 589.653 153.274 605.592 153.131L656.437 152.667C590.23 91.2079 504.59 57.1785 413.541 57.1785C217.301 57.1427 57.7002 215.199 57.7002 409.504C57.7002 603.809 217.301 761.866 413.504 761.866C609.707 761.866 769.308 603.809 769.308 409.504C769.308 371.364 763.214 333.904 751.17 298.154C746.122 283.191 754.308 267.014 769.417 262.014C784.67 256.943 800.861 265.121 805.91 280.085C819.901 321.653 826.968 365.184 826.968 409.499L827 409.5ZM460.7 322.365L413.497 369.111L366.295 322.365C319.345 275.797 237.342 275.797 190.327 322.365C141.826 370.432 141.826 448.571 190.327 496.631C213.838 519.915 245.102 532.735 278.349 532.735C311.597 532.735 342.861 519.915 366.335 496.631L413.538 449.885L460.741 496.631C484.216 519.915 515.48 532.735 548.726 532.735C581.974 532.735 613.238 519.915 636.749 496.631C685.25 448.564 685.25 370.425 636.749 322.365C589.727 275.797 507.723 275.797 460.781 322.365H460.7Z" fill="black"/>
</svg>
