<svg width="898" height="740" viewBox="0 0 898 740" fill="none" xmlns="http://www.w3.org/2000/svg">
<path d="M206.566 160.06C248.86 341.152 449 409.917 449 409.917C449 409.917 649.152 341.152 691.434 160.06C717.092 48.8995 570.866 -77.1671 449 61.4789C328.432 -78.3315 180.909 48.8983 206.566 160.06Z" fill="black"/>
<path d="M206.566 740C293.81 740 401.547 643.748 449 596.74C496.455 643.748 604.251 740 691.434 740C805.638 740 898 656.327 898 554.346C898 453.482 805.645 369.804 691.434 369.804C604.19 369.804 496.453 466.057 449 513.065C401.545 466.057 293.749 369.804 206.566 369.804C92.3619 369.804 0 453.477 0 554.346C0 656.329 92.3555 740 206.566 740ZM691.447 423.659C772.278 423.659 838.976 482.127 838.976 555.458C838.976 628.789 773.53 687.257 691.447 687.257C636.274 687.257 543.919 612.762 488.743 555.458C543.916 498.154 636.323 423.659 691.447 423.659ZM206.566 423.659C261.739 423.659 354.094 498.154 409.27 555.458C352.845 611.598 261.741 687.257 206.566 687.257C125.735 687.257 59.0371 628.789 59.0371 555.458C59.0371 482.127 125.735 423.659 206.566 423.659Z" fill="black"/>
</svg>
