<svg width="813" height="818" viewBox="0 0 813 818" fill="none" xmlns="http://www.w3.org/2000/svg">
<path d="M497.837 0C493.191 18.5186 490.217 31.1461 507.397 45.1145C514.483 31.5344 513.046 7.16075 497.837 0ZM333.926 294.783C327.108 307.234 309.159 296.264 315.944 283.813C327.341 263.072 339.641 246.776 352.443 234.959C296.524 230.903 248.694 253.478 210.754 296.722C201.562 307.234 186.32 292.454 195.579 281.908C225.929 247.34 263.397 223.319 307.551 215.382C40.858 102.752 -153.703 641.099 166.23 774.318C158.308 764.37 151.189 753.436 144.838 741.725C138.053 729.168 156.102 718.339 162.854 730.826C202.462 803.841 269.213 829.487 347.892 808.11C334.121 791.708 321.052 769.203 309.22 740.667C303.772 727.475 322.79 718.727 328.239 731.919C376.971 849.696 440.579 843.628 485.869 731.989C491.184 718.762 510.303 727.263 504.955 740.561C493.256 769.449 480.254 792.095 466.517 808.462C544.696 829.238 610.842 803.241 650.151 730.79C656.902 718.303 674.951 729.132 668.167 741.689C661.816 753.4 654.697 764.334 646.775 774.281C966.717 641.017 772.113 102.715 505.454 215.346C549.608 223.282 587.11 247.304 617.426 281.871C626.651 292.418 611.443 307.233 602.252 296.686C564.215 253.37 516.351 230.83 460.331 234.958C473.233 246.81 485.566 263.106 496.998 283.741C503.883 296.192 485.901 307.233 479.049 294.817C433.825 213.018 379.013 212.665 333.851 294.746L333.926 294.783ZM263.234 605.331C285.06 608.224 308.858 610.481 334.093 611.963C334.093 546.037 371.127 546.989 371.127 613.55C394.758 614.22 418.356 614.22 441.986 613.55C441.986 546.989 479.021 546.037 479.021 611.963C504.222 610.481 528.021 608.224 549.846 605.331C549.846 549.212 586.88 549.847 586.88 599.476C616.461 593.938 640.727 587.13 657.841 579.405C671.478 573.267 680.235 595.172 666.664 601.239C647.345 609.952 619.971 617.571 586.88 623.603C586.88 709.634 549.846 713.549 549.846 629.282C527.853 632.104 504.088 634.326 479.021 635.808C479.021 707.553 441.986 708.188 441.986 637.43C418.356 638.1 394.758 638.1 371.127 637.43C371.127 708.188 334.093 707.553 334.093 635.808C309.025 634.326 285.26 632.104 263.234 629.282C263.234 713.549 226.2 709.669 226.2 623.603C193.143 617.607 165.769 609.988 146.449 601.275C132.88 595.208 141.636 573.338 155.273 579.44C172.353 587.165 196.652 593.973 226.2 599.511C226.2 549.882 263.234 549.247 263.234 605.367V605.331ZM411.572 400.884L467.525 503.139C469.697 507.09 466.89 512.028 462.645 512.028L350.407 512.064C345.928 512.064 343.488 506.878 345.694 502.858L401.681 400.53C403.92 396.439 409.335 396.862 411.54 400.848L411.572 400.884ZM221.255 373.689C264.44 328.08 292.783 357.957 249.599 403.53C292.817 449.103 264.473 479.015 221.255 433.442C178.071 479.05 149.693 449.103 192.945 403.53C149.727 357.957 178.037 328.01 221.255 373.689ZM591.835 373.689C635.019 328.08 663.363 357.957 620.179 403.53C670.95 457.11 626.295 469.773 591.835 433.442C548.617 479.05 520.273 449.103 563.524 403.53C520.306 357.957 548.617 328.01 591.835 373.689ZM458.839 213.127C441.057 155.95 434.439 94.6817 489.89 58.7335C482.67 52.4195 478.158 46.3173 475.551 40.1092C421.236 75.3115 415.353 151.187 416.423 211.958C421.971 212.84 427.486 214.427 432.901 216.72C441.725 214.956 450.382 213.757 458.805 213.122L458.839 213.127ZM395.734 211.999C394.397 138.49 404.257 53.8663 473.111 16.4101C473.746 11.5071 474.849 6.35708 476.186 0.889452C373.644 25.4401 389.217 142.614 353.818 213.093C362.308 213.728 371.031 214.892 379.922 216.62C385.137 214.398 390.418 212.846 395.733 211.964L395.734 211.999Z" fill="black"/>
</svg>
