<svg width="584" height="829" viewBox="0 0 584 829" fill="none" xmlns="http://www.w3.org/2000/svg">
<path d="M562.939 443.485C553.632 431.378 541.781 421.878 528.386 415.786V380.669H531.331C532.978 380.675 534.61 380.328 536.133 379.647C537.657 378.967 539.041 377.967 540.208 376.704C541.374 375.442 542.3 373.941 542.931 372.29C543.563 370.638 543.888 368.867 543.888 367.079C543.888 365.29 543.563 363.52 542.931 361.868C542.3 360.216 541.374 358.716 540.208 357.453C539.041 356.191 537.657 355.191 536.133 354.51C534.61 353.83 532.978 353.483 531.331 353.488H528.386V326.307H531.331C532.978 326.313 534.61 325.966 536.133 325.285C537.657 324.605 539.041 323.605 540.208 322.342C541.374 321.08 542.3 319.58 542.931 317.928C543.563 316.276 543.888 314.505 543.888 312.717C543.888 310.929 543.563 309.158 542.931 307.506C542.3 305.854 541.374 304.354 540.208 303.092C539.041 301.829 537.657 300.829 536.133 300.148C534.61 299.468 532.978 299.121 531.331 299.127H510.231C524.712 245.014 519.765 186.953 496.386 136.645C501.546 115.952 502.686 94.3197 499.735 73.1226C496.783 51.9255 489.803 31.6267 479.239 13.5155C477.458 10.204 474.968 7.4069 471.98 5.36082C467.048 2.02595 461.386 0.179732 455.578 0.0124714C449.769 -0.154789 444.025 1.36296 438.937 4.40927C433.848 7.45557 429.6 11.9202 426.631 17.343C423.661 22.7657 422.076 28.9504 422.041 35.2595C422.041 36.2108 422.166 36.8903 422.166 37.1623C422.187 38.0288 422.271 38.8922 422.416 39.7446C427.298 67.4687 393.63 100.086 380.363 110.143C360.95 122.685 339.07 130.038 316.526 131.598C293.982 133.157 271.419 128.878 250.697 119.112C238.181 113.268 227.418 108.104 221.16 105.114C204.42 95.7014 186.037 90.2364 167.216 89.0777C147.158 89.2393 127.537 95.4502 110.541 107.017C93.5455 118.584 79.8447 135.053 70.9679 154.584C60.4531 177.305 55.6542 202.639 57.0571 228.022C58.46 253.404 66.015 277.934 78.9569 299.126H52.6691C51.0221 299.12 49.3903 299.468 47.8671 300.148C46.344 300.828 44.9594 301.829 43.793 303.091C42.6265 304.354 41.701 305.854 41.0695 307.506C40.4379 309.157 40.1129 310.928 40.1129 312.717C40.1129 314.505 40.4379 316.276 41.0695 317.927C41.701 319.579 42.6265 321.079 43.793 322.342C44.9594 323.604 46.344 324.605 47.8671 325.285C49.3903 325.965 51.0221 326.313 52.6691 326.307H55.6148V353.488H52.6691C51.0221 353.482 49.3903 353.829 47.8671 354.51C46.344 355.19 44.9594 356.19 43.793 357.453C42.6265 358.715 41.701 360.216 41.0695 361.867C40.4379 363.519 40.1129 365.29 40.1129 367.078C40.1129 368.867 40.4379 370.637 41.0695 372.289C41.701 373.941 42.6265 375.441 43.793 376.704C44.9594 377.966 46.344 378.966 47.8671 379.647C49.3903 380.327 51.0221 380.674 52.6691 380.669H55.6148V415.785C39.1219 423.288 25.0414 435.921 15.1455 452.093C5.24957 468.265 -0.0195423 487.255 0.00130326 506.672V752.454C-0.0780198 763.939 3.46582 775.108 10.0435 784.102C16.6211 793.096 25.8361 799.374 36.1559 801.892C120.309 820.763 206.076 829.83 292 828.94C377.925 829.83 463.691 820.763 547.844 801.892C558.164 799.374 567.379 793.096 573.957 784.102C580.534 775.108 584.078 763.939 583.999 752.454V506.672C583.983 483.587 576.533 461.234 562.939 443.485ZM80.6467 326.307H503.354V353.488H80.6467V326.307ZM80.6467 380.669H503.354V407.85H80.6467V380.669ZM93.2467 166.815C100.059 151.78 110.581 139.093 123.64 130.166C136.7 121.24 151.786 116.426 167.216 116.259C182.521 117.584 197.421 122.253 211.022 129.986C217.28 132.975 228.169 138.14 240.685 143.983C265.037 155.497 291.563 160.553 318.071 158.733C344.578 156.913 370.306 148.271 393.129 133.519C393.505 133.247 394.381 132.704 394.631 132.568C397.135 130.665 455.459 85.6808 447.073 35.2602C447.073 33.795 447.447 32.3583 448.154 31.1105C448.861 29.8626 449.874 28.8526 451.078 28.1929C452.094 27.5468 453.237 27.1729 454.412 27.102C455.587 27.0312 456.761 27.2655 457.837 27.7855C457.962 28.0575 458.213 28.3288 458.337 28.6004C467.277 44.1453 473.032 61.5964 475.213 79.7694C477.395 97.9425 475.95 116.412 470.979 133.926C470.436 135.662 470.234 137.501 470.384 139.327C470.535 141.153 471.036 142.924 471.855 144.527C472.228 145.273 472.472 146.077 472.835 146.827C470.942 150.175 468.644 154.079 465.88 158.438C465.528 158.988 465.281 159.609 465.151 160.264C465.02 160.918 465.011 161.595 465.121 162.254C465.232 162.913 465.462 163.541 465.796 164.104C466.131 164.667 466.565 165.152 467.073 165.532C467.581 165.913 468.153 166.181 468.756 166.321C469.359 166.461 469.982 166.47 470.588 166.349C471.195 166.227 471.774 165.977 472.291 165.613C472.809 165.248 473.255 164.776 473.604 164.224C475.039 161.963 476.319 159.86 477.529 157.839C495.265 200.389 498.229 248.468 485.873 293.205L484.207 299.126H112.092C72.2062 258.597 78.0708 199.262 93.2467 166.815ZM471.355 693.036C411.958 702.337 352.011 706.879 292 706.627C231.989 706.88 172.042 702.337 112.646 693.036V530.217H471.355V693.036ZM449.415 189.401C449.863 189.861 450.223 190.413 450.475 191.024C450.727 191.635 450.865 192.294 450.882 192.963C450.899 193.633 450.795 194.299 450.574 194.924C450.354 195.55 450.023 196.122 449.599 196.608C443.742 203.38 437.492 209.737 430.886 215.64C430.41 216.064 429.861 216.382 429.272 216.576C428.682 216.77 428.063 216.836 427.45 216.77C426.837 216.704 426.242 216.507 425.699 216.192C425.156 215.876 424.676 215.447 424.286 214.93C423.499 213.883 423.126 212.54 423.25 211.195C423.374 209.85 423.983 208.613 424.946 207.756C431.234 202.12 437.19 196.061 442.778 189.614C443.633 188.631 444.812 188.056 446.056 188.017C447.301 187.977 448.509 188.475 449.415 189.401ZM400.61 231.453C400.871 232.06 401.019 232.716 401.046 233.385C401.073 234.053 400.978 234.721 400.767 235.35C400.556 235.979 400.233 236.556 399.816 237.049C399.399 237.542 398.896 237.94 398.337 238.222C390.467 242.22 382.221 245.284 373.745 247.36C373.412 247.438 373.072 247.478 372.731 247.479C371.574 247.48 370.457 247.017 369.595 246.178C368.733 245.34 368.187 244.185 368.061 242.936C367.936 241.688 368.239 240.432 368.914 239.411C369.588 238.39 370.586 237.676 371.716 237.405C379.527 235.494 387.125 232.671 394.377 228.984C394.935 228.698 395.54 228.534 396.156 228.503C396.773 228.473 397.389 228.575 397.969 228.805C398.549 229.034 399.081 229.387 399.534 229.841C399.988 230.296 400.353 230.844 400.61 231.453Z" fill="black"/>
</svg>
