<svg width="552" height="832" viewBox="0 0 552 832" fill="none" xmlns="http://www.w3.org/2000/svg">
<path d="M525.182 259.274L450.316 171.237V123.833C464.842 115.126 473.781 101.581 473.781 86.1023V44.5023C473.781 20.3163 450.316 0 422.381 0H129.619C101.684 0 78.2186 19.3488 78.2186 43.5349V85.1349C78.2186 101.581 87.1579 115.126 101.684 122.865V170.27L26.8178 258.307C8.93929 279.591 0 304.744 0 330.865V707.2C0 775.888 64.8097 832 144.146 832H407.854C487.19 832 550.883 775.888 552 708.167V331.833C552 305.712 543.061 280.558 525.182 259.274ZM134.089 48.3721H416.794V82.2326H134.089V48.3721ZM495.012 708.167C495.012 750.735 455.903 784.595 406.737 784.595H144.146C94.9798 784.595 55.8705 750.735 55.8705 708.167V331.833C55.8705 315.386 61.4575 299.907 72.6316 287.33L151.968 193.488C155.32 188.651 157.555 183.814 157.555 178.977V120.93H393.328V178.009C393.328 183.814 395.563 188.651 398.915 192.521L478.251 286.363C489.425 299.907 495.012 315.386 495.012 330.865V708.167Z" fill="black"/>
<path d="M30.1701 452.763C30.1701 452.763 159.79 353.116 274.883 452.763C389.976 552.409 516.243 430.512 516.243 430.512V706.233L495.012 766.214L426.85 800.074L119.563 809.749L30.1701 749.767V452.763Z" fill="black"/>
</svg>
