<svg width="829" height="841" viewBox="0 0 829 841" fill="none" xmlns="http://www.w3.org/2000/svg">
<path d="M774.019 312.606L796.4 289.901C839.867 245.806 839.867 174.335 796.4 130.238L700.62 33.0718C657.153 -11.0239 586.703 -11.0239 543.234 33.0718L520.853 55.7766C517.687 58.9888 517.687 64.2087 520.853 67.4575L762.505 312.606C765.671 315.818 770.817 315.818 774.019 312.606Z" fill="black"/>
<path d="M440.364 137.431L56.2957 527.057C48.5596 534.905 43.4145 544.981 41.5787 555.931L0.523561 798.855C-3.61438 823.385 17.3988 844.666 41.5428 840.468L281.002 798.819C291.797 796.957 301.728 791.737 309.463 783.889L693.532 394.262C696.698 391.05 696.698 385.83 693.532 382.581L451.88 137.432C448.714 134.22 443.567 134.218 440.364 137.431Z" fill="black"/>
</svg>
