<svg width="760" height="677" viewBox="0 0 760 677" fill="none" xmlns="http://www.w3.org/2000/svg">
<path d="M759.482 465.141C756.286 477.703 738.801 487.81 719.028 494.308C731.092 513.259 739.553 533.221 735.479 545.386C730.654 559.79 706.682 562.208 686.001 561.522C635.332 650.541 517.134 677 379.985 677C242.892 677 124.763 650.72 73.9932 561.735C53.3121 562.421 29.3093 559.966 24.5147 545.599C20.4724 533.434 28.9016 513.507 40.9658 494.52C21.1936 487.806 3.7398 477.698 0.511828 465.353C-4.87786 444.235 33.6956 415.176 50.5855 403.589L50.6169 403.553C54.9725 373.013 63.5272 343.449 75.9353 316.014C59.8917 229.522 65.3754 36.7177 119.585 4.734C167.466 -23.6752 258.435 84.7644 294.717 132.05C350.87 117.394 409.156 117.394 465.309 132.05C501.626 84.7607 592.559 -23.6087 640.441 4.62312C694.651 36.7149 700.134 229.516 684.091 315.903C696.5 343.374 705.054 372.902 709.409 403.442C726.299 414.921 764.903 444.023 759.482 465.141ZM588.329 419.115C592.058 380.201 567.648 292.659 509.113 292.659C450.61 292.659 419.366 366.876 420.216 405.031C420.905 439.18 450.611 500.835 504.661 500.835H504.63C546.181 501.015 581.683 466.368 588.329 419.115ZM255.801 500.842C309.415 500.842 339.155 439.186 340.246 405.039C341.092 366.919 309.851 292.38 251.317 292.38C192.814 292.38 168.403 379.918 172.101 418.836H172.133C178.65 466.197 214.185 500.995 255.8 500.851L255.801 500.842ZM319.975 221.084C305.718 215.055 291.273 219.026 287.732 230.145C284.191 241.227 292.871 255.052 307.16 261.081C321.417 267.11 335.863 263.139 339.403 252.129C342.944 241.119 334.233 227.221 319.975 221.084ZM471.981 230.145C468.44 219.063 453.994 215.056 439.737 221.084C425.48 227.112 416.768 241.119 420.309 252.129C423.85 263.139 438.295 267.218 452.552 261.081C466.81 254.944 475.865 241.118 472.293 230.108L471.981 230.145ZM546.809 396.597C546.809 435.51 524.279 467.602 496.14 467.602C468.032 467.602 445.471 435.8 445.471 396.597C445.471 357.394 468.001 325.591 496.14 325.591C524.247 325.555 547.122 357.358 547.122 396.561L546.809 396.597ZM532.864 380.533L532.833 380.497C515.317 374.577 501.623 358.765 496.453 338.586C491.314 358.729 477.683 374.504 460.229 380.497C477.777 386.489 491.47 402.336 496.61 422.551C501.811 402.264 515.599 386.453 533.178 380.497L532.864 380.533ZM313.332 396.597C313.332 435.51 290.802 467.602 262.663 467.602C234.555 467.602 211.994 435.8 211.994 396.597C211.994 357.394 234.524 325.591 262.663 325.591C290.77 325.555 313.551 357.358 313.551 396.561L313.332 396.597ZM299.795 380.497C282.278 374.577 268.554 358.765 263.414 338.586C258.244 358.765 244.519 374.576 227.003 380.497C244.55 386.489 258.244 402.336 263.414 422.551C268.553 402.336 282.247 386.49 299.795 380.497ZM380.013 547.743C360.084 547.743 337.805 606.114 344.792 628.206C348.271 639.252 362.278 644.992 380.013 644.992C397.748 644.992 411.755 639.072 415.233 627.773C421.908 606.113 399.942 547.743 380.013 547.743ZM414.544 466.233C410.251 462.046 395.116 459.7 380.013 459.628C364.909 459.519 349.775 462.046 345.481 466.233C337.71 474.103 358.235 495.401 374.686 500.094C376.033 508.938 378.32 522.655 380.013 522.655C381.705 522.655 383.992 508.938 385.34 500.094C401.791 495.582 422.315 473.887 414.544 466.017L414.544 466.233Z" fill="black"/>
</svg>
