<svg width="858" height="815" viewBox="0 0 858 815" fill="none" xmlns="http://www.w3.org/2000/svg">
<path d="M127.85 390.204V815H263.028L263.065 580.55C263.065 500.532 329.191 435.412 410.445 435.412H447.665C528.919 435.412 595.045 500.532 595.045 580.55V815H730.222V390.204L429.059 145.39L127.85 390.204ZM401.004 222.57C414.409 222.57 425.306 235.919 425.306 252.365C425.306 268.811 414.41 282.122 401.004 282.122C387.562 282.122 376.703 268.773 376.703 252.365C376.703 235.882 387.599 222.57 401.004 222.57ZM334.69 297.832C331.845 282.676 339.371 268.59 351.54 266.378C363.709 264.166 375.879 274.638 378.724 289.794C381.569 304.95 374.044 318.999 361.875 321.248C349.668 323.46 337.498 312.951 334.69 297.832ZM506.524 266.378C518.693 268.591 526.219 282.677 523.411 297.832C520.565 312.951 508.396 323.459 496.227 321.248C484.058 319.036 476.531 304.949 479.377 289.794C482.185 274.638 494.317 264.166 506.524 266.378ZM457.546 222.571C470.951 222.571 481.848 235.92 481.848 252.366C481.848 268.812 470.952 282.123 457.546 282.123C444.104 282.123 433.207 268.774 433.207 252.366C433.207 235.882 444.066 222.571 457.546 222.571ZM462.789 312.324C475.108 333.601 491.845 336.108 494.991 350.747C497.574 362.731 497.612 391.863 467.769 392.969C443.955 393.854 449.421 383.16 428.977 382.682C408.533 383.124 413.999 393.855 390.185 392.969C360.342 391.863 360.379 362.732 362.925 350.747C366.07 336.108 382.583 333.49 395.127 312.324C412.951 282.345 445.976 283.304 462.789 312.324Z" fill="black"/>
<path d="M838.764 317.602L462.784 11.9471C453.311 4.24031 441.328 0 429.01 0C416.729 0 404.708 4.24059 395.236 11.9471L19.2944 317.602C8.36097 326.489 1.58293 339.026 0.235179 352.891C-1.07538 366.793 3.11836 380.363 12.1425 391.13C22.2525 403.225 37.1554 410.12 53.106 410.12C65.3872 410.12 77.3319 405.88 86.8055 398.173L429.043 119.989L771.243 398.173C780.716 405.88 792.699 410.12 804.98 410.12C820.856 410.12 835.796 403.188 845.868 391.13C864.478 368.895 861.343 335.928 838.764 317.602Z" fill="black"/>
<path d="M447.619 455.028H410.4C340.118 455.028 282.939 511.335 282.939 580.551V815H575.082V580.551C575.12 511.337 517.904 455.028 447.619 455.028Z" fill="black"/>
</svg>
