<svg width="764" height="674" viewBox="0 0 764 674" fill="none" xmlns="http://www.w3.org/2000/svg">
<path fill-rule="evenodd" clip-rule="evenodd" d="M322.792 502.042C310.054 525.639 314.51 574.394 321.472 612.276C331.636 667.605 331.769 675.24 314.343 673.849C228.647 653.581 220.439 564.362 217.259 544.151C211.457 507.259 178.263 485.603 176.02 454.034C172.578 405.589 170.627 324.154 173.815 298.366C179.26 254.346 199.682 238.453 253.181 234.074C277.819 234.055 294.317 239.951 310.325 247.249C347.455 264.18 364.335 283.273 408.084 281.085C433.486 279.815 435.364 270.231 421.483 269.048C399.153 267.149 380.206 262.759 366.849 256.613C356.819 251.999 362.625 243.393 370.047 243.385C417.366 244.902 454.354 234.188 484.209 233.6C559.574 232.114 585.221 236.811 590.876 312.814C592.66 336.79 591.805 413.85 588.951 454.037C586.708 485.603 553.514 507.262 547.708 544.155C544.528 564.366 536.32 653.589 450.624 673.853C433.194 675.248 433.331 667.612 443.495 612.279C450.813 572.437 453.512 522.848 440.392 498.33C420.881 461.863 345.259 460.433 322.796 502.042H322.792ZM675.498 227.587L621.41 253.099L641.539 279.55L695.627 254.039L675.498 227.587ZM710.686 450.421L656.593 424.909L636.464 451.361L690.556 476.872L710.686 450.421ZM764 333.006H655.081V363.928H764V333.006ZM88.5021 227.587L142.59 253.099L122.461 279.55L68.3728 254.039L88.5021 227.587ZM53.3144 450.421L107.407 424.909L127.536 451.361L73.4438 476.872L53.3144 450.421ZM0 333.006H108.919V363.928H0V333.006ZM719.358 101.794C682.391 101.794 665.21 130.058 665.21 149.564C665.21 130.058 648.029 101.794 611.057 101.794C648.024 101.794 665.21 73.5271 665.21 54.0212C665.21 73.5271 682.391 101.794 719.358 101.794ZM158.435 60.0038C112.005 60.0038 90.4231 95.5048 90.4231 120.004C90.4231 95.5048 68.8412 60.0038 22.407 60.0038C68.8369 60.0038 90.4231 24.4989 90.4231 0C90.4231 24.4989 112.005 60.0038 158.435 60.0038ZM296.749 108.368L381.998 0.00379123V198.793H543.604L543.72 72.42L467.251 108.372L382.002 0.00758245V198.797H220.396L220.28 72.4238L296.749 108.376V108.368ZM378.049 37.2526L318.288 115.227H378.049V37.2526Z" fill="black"/>
</svg>
