<svg width="821" height="746" viewBox="0 0 821 746" fill="none" xmlns="http://www.w3.org/2000/svg">
<path d="M0 746H249.637V415.552H0V746ZM25.3033 442.309C25.3033 436.332 30.723 431.485 37.4064 431.485C44.0896 431.485 49.5426 436.332 49.5426 442.309V474.959C49.5426 480.935 44.1229 485.783 37.4064 485.783C30.7232 485.783 25.3033 480.936 25.3033 474.959V442.309ZM273.876 746H606.606L606.573 490.304H273.877L273.876 746ZM332.196 543.476H548.288V692.806H332.196V543.476ZM273.876 468.662H606.606V415.584L273.876 415.554V468.662ZM531.863 431.254H533.525C540.209 431.254 545.629 436.101 545.629 442.108C545.629 448.085 540.209 452.932 533.525 452.932H531.863C525.18 452.932 519.76 448.085 519.76 442.108C519.76 436.101 525.18 431.254 531.863 431.254ZM470.251 431.254H471.914C478.597 431.254 484.017 436.101 484.017 442.108C484.017 448.085 478.597 452.932 471.914 452.932H470.251C463.568 452.932 458.148 448.085 458.148 442.108C458.115 436.101 463.568 431.254 470.251 431.254ZM408.573 431.254H410.236C416.919 431.254 422.339 436.101 422.339 442.108C422.339 448.085 416.919 452.932 410.236 452.932H408.573C401.89 452.932 396.47 448.085 396.47 442.108C396.47 436.101 401.89 431.254 408.573 431.254ZM346.929 431.254H348.591C355.274 431.254 360.727 436.101 360.727 442.108C360.727 448.085 355.308 452.932 348.591 452.932H346.929C340.245 452.932 334.825 448.085 334.825 442.108C334.792 436.101 340.212 431.254 346.929 431.254ZM0.00085133 393.877H249.638V215.94H0.00085133V393.877ZM25.3042 332.889C25.3042 326.913 30.7238 322.066 37.4072 322.066C44.0904 322.066 49.5435 326.912 49.5435 332.889V365.539C49.5435 371.516 44.1238 376.363 37.4072 376.363C30.724 376.363 25.3042 371.516 25.3042 365.539V332.889ZM630.815 415.551H819.37V745.999H630.815V415.551ZM556.003 377.608V393.874H324.522V377.608H556.003ZM626.159 340.588H545.33C542.836 345.91 539.943 351.144 536.452 355.931H344.006C334.73 343.263 329.543 327.326 325.42 314.658C324.456 311.744 323.558 308.919 322.627 306.302C321.496 303.002 322.161 299.433 324.456 296.638C326.75 293.873 330.341 292.238 334.231 292.238H546.262C550.119 292.238 553.743 293.873 556.037 296.638C558.331 299.434 558.996 303.002 557.866 306.302C556.935 308.949 556.037 311.744 555.073 314.658C554.607 316.026 554.142 317.453 553.676 318.91H626.193C632.876 318.91 638.33 323.757 638.33 329.764C638.263 335.741 632.843 340.588 626.159 340.588ZM779.076 393.874V303.684C779.076 292.889 769.234 284.088 757.164 284.088C745.094 284.088 735.286 292.889 735.286 303.684V318.908H741.57C748.253 318.908 753.707 323.755 753.707 329.762C753.707 335.738 748.287 340.615 741.57 340.615L703.898 340.585C697.215 340.585 691.762 335.739 691.762 329.732C691.762 323.755 697.182 318.878 703.898 318.878H711.014V303.654C711.014 280.876 731.695 262.381 757.098 262.381C782.567 262.381 803.282 280.906 803.282 303.654V393.844L779.076 393.874ZM819.374 19.0307H0.00255399V0H819.408L819.374 19.0307ZM626.759 40.7081V116.922H638.097C650.798 116.922 661.138 126.169 661.138 137.499V206.99C661.138 218.349 650.798 227.597 638.097 227.597H591.181C578.48 227.597 568.14 218.349 568.14 206.99V137.499C568.14 126.169 578.48 116.922 591.181 116.922H602.519V40.7081H626.759ZM821 172.256C821 205.559 790.71 232.678 753.503 232.678C716.231 232.678 685.94 205.589 685.94 172.256C685.94 142.669 709.88 117.989 741.367 112.844V40.7058H765.606V112.844C797.06 117.959 821 142.639 821 172.256ZM124.353 40.7081H0.00255399V147.546H124.353V40.7081ZM80.3965 104.937H43.8882C37.205 104.937 31.7519 100.09 31.7519 94.1127C31.7519 88.1358 37.1716 83.2888 43.8882 83.2888H80.3965C87.0797 83.2888 92.4996 88.1357 92.4996 94.1127C92.4996 100.089 87.0799 104.937 80.3965 104.937ZM148.591 147.548H272.907V40.7096H148.591V147.548ZM192.48 83.2599H228.989C235.672 83.2599 241.092 88.1067 241.092 94.0837C241.092 100.061 235.672 104.908 228.989 104.908H192.48C185.797 104.908 180.344 100.061 180.344 94.0837C180.377 88.1069 185.797 83.2599 192.48 83.2599ZM421.467 147.548V40.7096H297.117V147.548H421.467ZM341.07 83.2599H377.578C384.261 83.2599 389.681 88.1067 389.681 94.0837C389.681 100.061 384.262 104.908 377.578 104.908H341.07C334.387 104.908 328.967 100.061 328.967 94.0837C328.967 88.1067 334.386 83.2599 341.07 83.2599Z" fill="black"/>
</svg>
