<svg width="822" height="740" viewBox="0 0 822 740" fill="none" xmlns="http://www.w3.org/2000/svg">
<path d="M328.07 275.852C326.998 270.749 326.48 265.469 326.48 260.16C326.48 210.961 373.391 170.938 431.049 170.938C488.708 170.938 535.584 210.964 535.584 260.16C535.584 265.469 535.031 270.749 533.959 275.852H510.832C512.215 270.719 512.906 265.499 512.906 260.16C512.906 221.638 476.193 190.313 431.045 190.313C385.897 190.313 349.184 221.638 349.184 260.16C349.184 265.499 349.875 270.749 351.223 275.852H328.07ZM373.494 260.16C373.494 265.587 374.497 270.838 376.467 275.852H485.533C487.538 270.808 488.575 265.557 488.575 260.16C488.575 233.083 462.786 211.049 431.017 211.049C399.316 211.079 373.494 233.083 373.494 260.16ZM800.013 296.617H21.9866C9.85255 296.617 0 305.053 0 315.406C0 325.759 9.88707 334.166 21.9866 334.166H800.013C812.148 334.166 822 325.759 822 315.406C822 305.053 812.148 296.617 800.013 296.617ZM319.006 354.96H561.067L561.033 740H318.971L319.006 354.96ZM365.571 606.03C365.571 611.782 370.998 616.413 377.74 616.413H419.707C426.449 616.413 431.876 611.753 431.876 606.03C431.876 600.279 426.414 595.648 419.707 595.648H389.908V499.312H419.707C426.449 499.312 431.876 494.652 431.876 488.93C431.876 483.178 426.414 478.547 419.707 478.547H377.74C370.998 478.547 365.571 483.208 365.571 488.93V606.03ZM52.6841 354.96H294.675V740H52.6841V354.96ZM223.805 499.312V595.648H193.971C187.23 595.648 181.803 600.279 181.803 606.03C181.803 611.782 187.265 616.413 193.971 616.413H235.974C242.715 616.413 248.142 611.753 248.142 606.03L248.177 488.93C248.177 483.178 242.715 478.547 236.008 478.547H194.006C187.265 478.547 181.837 483.208 181.837 488.93C181.837 494.682 187.299 499.312 194.006 499.312H223.805ZM585.366 557.862H773.7L773.735 739.999H585.365L585.366 557.862ZM641.265 648.942C641.265 654.694 646.728 659.325 653.434 659.325H705.669C712.41 659.325 717.837 654.664 717.837 648.942C717.837 643.19 712.375 638.559 705.669 638.559H653.434C646.728 638.559 641.265 643.22 641.265 648.942ZM585.366 354.952H773.7L773.735 537.089H585.365L585.366 354.952ZM641.265 446.009C641.265 451.761 646.728 456.392 653.434 456.392H705.669C712.41 456.392 717.837 451.761 717.837 446.009C717.837 440.258 712.375 435.627 705.669 435.627H653.434C646.728 435.627 641.265 440.287 641.265 446.009ZM84.556 275.848H228.366C234.347 275.848 251.079 275.848 255.158 254.67H57.7259C61.8397 275.848 78.5762 275.848 84.556 275.848ZM84.556 233.904H228.366C234.347 233.904 251.079 233.904 255.158 212.726H57.7259C61.8397 233.904 78.5762 233.904 84.556 233.904ZM84.556 191.961H228.366C234.347 191.961 251.079 191.961 255.158 170.783H57.7259C61.8397 191.961 78.5762 191.961 84.556 191.961ZM790.819 215.853C790.819 221.575 796.281 226.236 802.988 226.236C809.729 226.236 815.156 221.575 815.156 215.853V167.332C815.156 161.61 809.694 156.949 802.988 156.949C796.281 156.949 790.819 161.61 790.819 167.332V181.224H757.978V201.99H790.819V215.853ZM637.708 134.944H557.091V151.757H637.708V134.944ZM611.365 91.9098C611.365 69.6993 632.556 51.6185 658.587 51.6185C684.618 51.6185 705.809 69.6993 705.809 91.9098V275.874H733.672L733.638 91.9098C733.638 56.5735 699.967 27.8737 658.586 27.8737C617.172 27.8737 583.535 56.6029 583.535 91.9098V114.209H611.363L611.365 91.9098ZM465.104 79.9347C490.962 79.9347 511.98 62.0011 511.98 39.9379C511.98 17.9041 490.962 0 465.104 0C439.28 0 418.261 17.9041 418.261 39.9673C418.296 62.0011 439.28 79.9347 465.104 79.9347ZM387.84 134.237C407.718 134.237 423.862 120.462 423.862 103.502C423.862 86.5712 407.718 72.7673 387.84 72.7673C367.997 72.7673 351.853 86.5418 351.853 103.502C351.853 120.462 367.997 134.237 387.84 134.237Z" fill="black"/>
</svg>
