<svg width="730" height="825" viewBox="0 0 730 825" fill="none" xmlns="http://www.w3.org/2000/svg">
<path d="M304.707 171.445C304.707 175.313 304.707 180.469 306.004 184.336C303.41 185.625 302.114 186.914 302.114 189.492C302.114 193.359 304.707 195.938 307.3 195.938C308.597 199.805 308.597 202.383 309.893 204.961L326.75 221.719H386.394L403.25 204.961C404.547 202.383 405.844 198.516 405.844 195.938C408.437 195.938 411.03 193.359 411.03 189.492C411.03 186.914 409.734 184.336 407.14 184.336C407.14 180.469 408.437 176.602 408.437 171.445C411.03 171.445 413.623 168.867 413.623 165C413.623 162.422 411.03 159.844 408.437 158.555C408.437 154.688 407.14 149.531 407.14 145.664C408.437 144.375 409.734 143.086 409.734 140.508C409.734 136.641 407.14 134.063 403.25 134.063V132.773C400.657 125.039 394.174 119.883 387.691 116.016C381.208 113.438 374.725 112.148 368.242 110.859V106.992H370.835V94.1016C370.835 90.2344 369.538 86.3672 366.945 85.0781C365.648 83.7891 364.352 82.5 363.055 82.5C363.055 81.2109 364.352 79.9219 364.352 78.6328V69.6094C364.352 68.3203 363.055 65.7422 363.055 65.7422C361.758 64.4531 361.758 64.4531 360.462 64.4531V58.0078C363.055 56.7188 365.648 55.4297 365.648 51.5625V42.5391C365.648 41.25 364.352 38.6719 364.352 38.6719C363.055 37.3828 363.055 37.3828 361.758 37.3828V30.9375C364.352 29.6484 366.945 28.3594 366.945 24.4922V16.7578C366.945 15.4688 365.648 12.8906 365.648 12.8906C364.352 11.6016 364.352 11.6016 363.055 11.6016V6.44531C365.648 5.15625 368.242 3.86719 368.242 0H364.352C364.352 1.28906 364.352 1.28906 363.055 2.57813V0H359.165V2.57813C357.869 2.57813 357.869 1.28906 357.869 0H353.979C353.979 2.57813 355.275 5.15625 359.165 6.44531V10.3125C352.682 11.6016 350.089 12.8906 350.089 16.7578V25.7813C350.089 28.3594 351.385 30.9375 355.275 32.2266V37.3828C352.682 38.6719 350.089 39.9609 350.089 43.8281V51.5625C350.089 54.1406 351.385 56.7188 355.275 58.0078V63.1641C352.682 64.4531 350.089 65.7422 350.089 69.6094V78.6328C350.089 79.9219 350.089 81.2109 351.385 82.5C346.199 85.0781 343.606 88.9453 343.606 95.3906V108.281H346.199V113.438C339.716 114.727 333.233 116.016 326.75 118.594C318.97 121.172 313.783 127.617 309.893 135.352V136.641C306.004 136.641 303.41 139.219 303.41 143.086C303.41 145.664 304.707 146.953 306.004 148.242C304.707 152.109 304.707 157.266 304.707 161.133C302.114 161.133 299.52 163.711 299.52 167.578C299.52 168.867 300.817 170.156 304.707 171.445ZM353.979 25.7813V16.7578C353.979 15.4688 353.979 15.4688 355.275 14.1797V15.4688C355.275 16.7578 356.572 16.7578 356.572 16.7578C357.869 16.7578 357.869 15.4688 357.869 15.4688V14.1797C357.869 14.1797 359.165 15.4688 359.165 16.7578V25.7813C359.165 27.0703 359.165 27.0703 357.869 28.3594V24.4922C357.869 23.2031 356.572 23.2031 356.572 23.2031C355.275 23.2031 355.275 24.4922 353.979 25.7813L355.275 28.3594C353.979 27.0703 353.979 25.7813 353.979 25.7813ZM353.979 51.5625V42.5391C353.979 41.25 353.979 41.25 355.275 39.9609V41.25C355.275 42.5391 356.572 42.5391 356.572 42.5391C357.869 42.5391 357.869 41.25 357.869 41.25V39.9609C357.869 39.9609 359.165 41.25 359.165 42.5391V51.5625C359.165 52.8516 359.165 52.8516 357.869 54.1406V51.5625C357.869 50.2734 356.572 50.2734 356.572 50.2734C355.275 48.9844 355.275 50.2734 353.979 51.5625L355.275 54.1406C353.979 54.1406 353.979 52.8516 353.979 51.5625ZM353.979 69.6094C353.979 68.3203 353.979 68.3203 355.275 67.0313L353.979 69.6094C355.275 69.6094 355.275 69.6094 356.572 69.6094C357.869 69.6094 357.869 68.3203 357.869 68.3203V67.0313C357.869 67.0313 359.165 68.3203 359.165 69.6094V78.6328C359.165 79.9219 359.165 81.2109 357.869 81.2109H355.275C353.979 81.2109 353.979 79.9219 353.979 78.6328V69.6094Z" fill="black"/>
<path d="M713.144 465.352H18.1528C7.77975 465.352 0 473.086 0 483.398V509.18C0 519.492 7.77975 527.227 18.1528 527.227H335.826V778.594H293.037C281.368 778.594 272.291 787.617 272.291 799.219C272.291 810.82 281.368 819.844 293.037 819.844H435.666C447.336 819.844 456.412 810.82 456.412 799.219C456.412 787.617 447.336 778.594 435.666 778.594H392.877V525.938H711.847C722.22 525.938 730 518.203 730 507.891V482.109C730 473.086 722.22 465.352 713.144 465.352Z" fill="black"/>
<path d="M269.698 553.008H18.1528C14.2629 553.008 11.6696 553.008 7.77975 551.719C5.1865 554.297 2.59325 559.453 2.59325 563.32C2.59325 572.344 10.373 580.078 19.4494 580.078H29.8224V825H55.7549V667.734H219.13V825H245.062V580.078H254.139C263.215 580.078 270.995 572.344 270.995 563.32C273.588 559.453 272.291 555.586 269.698 553.008ZM58.3481 580.078H123.179C94.6536 585.234 71.3144 603.281 58.3481 627.773V580.078ZM72.611 649.688C81.6874 621.328 107.62 599.414 140.036 599.414C172.451 599.414 198.384 620.039 207.46 649.688H72.611ZM221.723 627.773C208.757 603.281 185.417 585.234 156.892 580.078H221.723V627.773Z" fill="black"/>
<path d="M33.7123 429.258C38.8988 430.547 44.0853 430.547 49.2718 431.836C49.2718 433.125 50.5684 435.703 50.5684 436.992H225.613C225.613 435.703 226.909 433.125 226.909 431.836C232.096 431.836 237.282 430.547 242.469 429.258C248.952 427.969 254.139 421.523 254.139 415.078V317.109C254.139 309.375 248.952 304.219 242.469 302.93C172.451 291.328 102.433 291.328 33.7123 302.93C27.2291 304.219 22.0426 310.664 22.0426 317.109V415.078C22.0426 422.813 27.2291 429.258 33.7123 429.258ZM99.8401 413.789C125.773 415.078 153.002 415.078 178.934 413.789C184.121 413.789 188.011 417.656 188.011 422.812C188.011 427.969 184.121 431.836 178.934 431.836C165.968 433.125 151.705 433.125 138.739 433.125C125.773 433.125 111.51 433.125 98.5435 431.836C93.357 431.836 89.4671 426.68 89.4671 422.812C90.7638 417.656 94.6536 413.789 99.8401 413.789Z" fill="black"/>
<path d="M722.22 551.719C719.627 553.008 715.737 553.008 711.847 553.008H461.599C459.005 555.586 457.709 559.453 457.709 563.32C457.709 572.344 465.488 580.078 474.565 580.078H486.234V825H512.167V667.734H675.542V825H701.474V580.078H710.551C719.627 580.078 727.407 572.344 727.407 563.32C727.407 559.453 726.11 555.586 722.22 551.719ZM510.87 580.078H575.702C547.176 585.234 523.837 603.281 510.87 627.773V580.078ZM525.133 649.688C534.21 621.328 561.439 599.414 592.558 599.414C623.677 599.414 650.906 620.039 659.982 649.688H525.133ZM674.245 627.773C661.279 603.281 637.94 585.234 609.414 580.078H674.245V627.773Z" fill="black"/>
<path d="M487.531 429.258C492.718 430.547 497.904 430.547 503.091 431.836C503.091 433.125 504.387 435.703 504.387 436.992H679.432C679.432 435.703 680.728 433.125 680.728 431.836C685.915 431.836 691.101 430.547 696.288 429.258C702.771 427.969 707.957 421.523 707.957 415.078V317.109C707.957 309.375 702.771 304.219 696.288 302.93C626.27 291.328 556.252 291.328 487.531 302.93C481.048 304.219 475.861 310.664 475.861 317.109V415.078C475.861 422.813 481.048 429.258 487.531 429.258ZM552.362 413.789C578.295 415.078 605.524 415.078 631.456 413.789C636.643 413.789 640.533 417.656 640.533 422.812C640.533 427.969 636.643 431.836 631.456 431.836C618.49 433.125 604.227 433.125 591.261 433.125C578.295 433.125 564.032 433.125 551.066 431.836C545.879 431.836 541.989 426.68 541.989 422.812C544.583 417.656 548.472 413.789 552.362 413.789Z" fill="black"/>
</svg>
