<svg width="820" height="700" viewBox="0 0 820 700" fill="none" xmlns="http://www.w3.org/2000/svg">
<path d="M456.231 559.757C436.537 559.757 425.814 539.836 425.393 537.063L424.763 517.07C437.449 513.895 446.56 502.257 446.209 496.018C445.788 489.013 433.173 484.124 418.034 485.072C402.861 486.021 390.911 492.479 391.331 499.448C391.682 505.796 402.51 516.449 415.827 517.69L416.457 537.683C409.904 552.679 402.159 561.143 393.399 562.676C380.819 564.901 369.325 552.204 369.22 552.095C369.22 552.095 375.037 572.308 390.386 572.308C391.858 572.308 398.971 570.849 400.969 569.973C402.651 571.25 412.148 578.146 423.222 578.146C424.658 578.146 426.095 578.036 427.567 577.781C433.98 576.65 439.341 572.892 443.687 566.944C447.507 568.294 451.677 569.133 456.232 569.133C476.768 569.133 475.856 544.433 475.856 544.433C475.646 545.966 473.472 559.757 456.231 559.757ZM426.094 568.55C419.681 569.681 413.163 566.689 409.378 564.463C413.724 560.596 417.684 555.306 421.293 548.556C424.482 553.482 429.283 558.809 435.485 562.821C432.752 565.995 429.669 567.893 426.094 568.55Z" fill="black"/>
<path d="M753.355 543.01C832.202 508.897 819.271 431.732 819.13 430.891L817.658 422.682L809.669 423.302C795.231 424.433 784.788 420.931 777.814 412.576C753.004 382.877 770.736 297.87 785.033 229.565L787.066 219.934C807.25 123.03 770.035 12.7324 768.423 8.09967L765.619 0L757.63 2.22557C630.071 37.762 545.654 114.522 536.961 122.667C423.738 68.3042 320.849 101.14 267.902 126.753C194.662 46.4128 53.2257 12.5511 47.1343 11.1314L39.1446 9.27065L36.6215 17.3703C-2.06602 141.342 27.5455 236.499 51.3743 312.967C60.7311 342.957 69.5263 371.343 72.9254 397.357C83.8942 481.527 18.1878 500.752 15.4194 501.555L0 505.715L11.3887 517.244C47.6935 554.094 94.1956 568.542 126.998 574.161C97.3516 582.698 80.8818 579.378 80.7059 579.342L61.6075 574.927L70.8585 592.878C73.1713 597.402 129.065 700 386.145 700C395.502 700 405.138 699.854 415.021 699.599C695.544 691.608 793.553 563.588 797.616 558.142L811.003 540.046L789.276 543.184C774.243 545.336 762.363 544.679 753.357 543.001L753.355 543.01ZM122.055 260.723C55.2984 182.134 83.5427 85.4463 83.5427 85.4463C155.031 131.345 183.381 170.456 183.381 170.456C141.75 211.028 122.055 260.723 122.055 260.723ZM191.966 453.765C191.966 410.969 223.155 376.307 261.632 376.307C287.458 376.307 309.956 391.96 321.976 415.201C310.762 399.621 293.591 389.442 274.073 389.442C240.222 389.442 212.783 419.506 212.783 456.611C212.783 493.717 240.222 523.816 274.073 523.816C285.391 523.816 295.87 520.204 304.981 514.33C293.066 524.874 278.033 531.223 261.633 531.223C223.155 531.223 191.966 496.563 191.966 453.765ZM277.542 420.491C277.542 412.428 283.815 405.897 291.559 405.897C299.269 405.897 305.541 412.428 305.541 420.491C305.541 428.518 299.269 435.048 291.559 435.048C289.947 435.048 288.44 434.611 287.003 434.1C285.952 437.675 282.868 440.339 279.084 440.339C274.458 440.339 270.673 436.435 270.673 431.582C270.673 427.131 273.897 423.592 278.032 423.045C277.892 422.169 277.542 421.367 277.542 420.491ZM611.434 649.436C559.711 666.037 494.739 678.624 414.493 680.886C336.838 683.112 276.743 676.07 230.516 664.87C182.822 584.311 247.827 543.159 263.841 534.584C305.262 531.045 337.852 493.903 337.852 448.48C337.852 409.149 313.392 376.021 279.926 365.549C305.998 337.274 313.568 272.367 313.568 272.367C345.527 279.372 357.862 316.185 357.862 316.185C363.469 278.861 328.706 223.915 328.706 223.915C358.423 226.25 380.29 264.194 380.29 264.194C393.01 208.628 344.196 139.27 331.615 122.598C386.211 107.675 460.223 103.37 538.863 144.452C546.993 149.377 589.43 176.047 575.973 218.662C565.601 251.498 494.989 296.411 541.386 352.198C512.195 365.186 491.659 396.016 491.659 432.063C491.659 478.946 526.387 517.001 569.7 518.387C587.326 526.596 670.165 570.449 611.434 649.436ZM558.834 415.167C558.834 419.983 555.085 423.923 550.424 423.923C546.639 423.923 543.556 421.26 542.504 417.684C541.067 418.195 539.561 418.633 537.949 418.633C530.204 418.633 523.931 412.102 523.931 404.076C523.931 396.012 530.204 389.482 537.949 389.482C545.658 389.482 551.931 396.012 551.931 404.076C551.931 404.988 551.58 405.79 551.44 406.666C555.575 407.177 558.834 410.716 558.834 415.167ZM567.91 514.808C551.51 514.808 536.442 508.459 524.562 497.915C533.673 503.789 544.151 507.401 555.47 507.401C589.321 507.401 616.76 477.337 616.76 440.196C616.76 403.09 589.321 373.027 555.47 373.027C535.986 373.027 518.78 383.206 507.567 398.785C519.586 375.581 542.085 359.892 567.911 359.892C606.389 359.892 637.576 394.552 637.576 437.35C637.541 480.11 606.387 514.808 567.91 514.808ZM702.933 267.546C681.978 231.462 650.368 205.741 626.995 190.272C637.683 172.613 670.799 120.877 710.503 87.9317C718.177 107.159 746.421 189.509 702.933 267.546Z" fill="black"/>
</svg>
