<svg width="803" height="836" viewBox="0 0 803 836" fill="none" xmlns="http://www.w3.org/2000/svg">
<path d="M685.441 122.474C648.583 84.1016 605.623 53.922 557.844 32.8548C508.299 11.1188 455.703 0 401.5 0C347.297 0 294.781 11.1188 245.236 32.8548C197.377 53.922 154.497 84.1016 117.64 122.474C80.7818 160.846 51.7935 205.489 31.5579 255.314C10.5996 306.896 0 361.654 0 418C0 474.346 10.5996 529.188 31.5579 580.769C51.7935 630.511 80.7818 675.237 117.64 713.61C154.497 751.982 197.377 782.078 245.236 803.145C294.781 824.965 347.297 836 401.5 836C455.703 836 508.299 824.965 557.844 803.145C605.623 782.078 648.583 751.982 685.441 713.61C722.299 675.237 751.207 630.511 771.442 580.769C792.4 529.188 803 474.43 803 418C803 361.57 792.4 306.896 771.442 255.314C751.207 205.489 722.299 160.846 685.441 122.474ZM401.5 741.448C230.22 741.448 90.8996 596.319 90.8996 418C90.8996 239.681 230.22 94.6352 401.5 94.6352C572.78 94.6352 712.181 239.681 712.181 418C712.181 596.319 572.78 741.448 401.5 741.448Z" fill="black"/>
<path d="M232.147 348.361H461.163L443.818 366.419C426.072 384.811 426.072 414.823 443.818 433.299C452.731 442.495 464.375 447.093 475.938 447.093C487.501 447.093 499.225 442.495 508.138 433.299L602.973 334.484C605.382 331.976 607.47 329.3 609.156 326.458C609.798 325.538 610.28 324.619 610.762 323.699C611.565 322.194 612.207 320.69 612.85 319.101C613.412 317.596 613.974 316.175 614.375 314.67C614.375 314.67 614.456 314.587 614.456 314.503C615.178 311.828 615.74 309.069 615.981 306.227C616.383 302.799 616.383 299.288 615.981 295.86C615.74 293.018 615.178 290.259 614.456 287.584C614.456 287.5 614.375 287.417 614.375 287.417C613.572 284.491 612.448 281.732 611.083 279.057C608.995 274.96 606.265 271.031 602.973 267.604L508.138 168.788C490.392 150.313 461.564 150.313 443.818 168.788C426.072 187.264 426.072 217.193 443.818 235.668L461.163 253.726H232.147C207.094 253.726 186.698 274.877 186.698 301.044C186.698 327.21 207.094 348.361 232.147 348.361Z" fill="black"/>
<path d="M570.853 487.89H341.837L359.182 469.832C376.928 451.356 376.928 421.428 359.182 402.952C341.436 384.476 312.688 384.476 294.942 402.952L200.027 501.767C196.735 505.195 194.005 509.124 191.917 513.22C190.552 515.896 189.428 518.738 188.625 521.58C188.625 521.664 188.544 521.664 188.544 521.748C187.822 524.423 187.26 527.182 187.019 530.024C186.617 533.452 186.617 536.963 187.019 540.39C187.26 543.233 187.822 545.992 188.544 548.667C188.544 548.75 188.625 548.75 188.625 548.834C189.026 550.339 189.588 551.844 190.15 553.265C190.793 554.853 191.516 556.358 192.238 557.863C192.72 558.782 193.282 559.702 193.844 560.622C195.611 563.464 197.618 566.139 200.027 568.647L294.942 667.379C303.775 676.659 315.418 681.256 327.062 681.256C338.705 681.256 350.269 676.659 359.182 667.379C376.928 648.903 376.928 618.974 359.182 600.499L341.837 582.441H570.853C595.987 582.441 616.302 561.29 616.302 535.207C616.302 509.124 595.987 487.89 570.853 487.89Z" fill="black"/>
</svg>
