<svg width="694" height="652" viewBox="0 0 694 652" fill="none" xmlns="http://www.w3.org/2000/svg">
<path d="M691.281 288.529C688.705 246.665 649.207 209.878 605.399 207.257C519.301 202.557 433.176 200.262 346.996 200.37C260.815 200.478 174.718 202.774 88.6417 207.257C44.8602 209.877 5.41757 246.664 2.75956 288.529C-2.87916 386.846 0.102873 458.314 11.8953 556.492C17.2359 598.249 57.3847 636.603 99.2418 640.71C181.682 648.245 264.253 652 346.964 652C429.675 652 512.274 648.246 594.686 640.71C636.543 636.659 676.689 598.251 682.033 556.492C693.879 458.314 696.865 386.846 691.281 288.529ZM209.904 401.159H99.0516C88.5875 401.159 80.075 392.705 80.075 382.252C80.075 371.826 88.5875 363.345 99.0516 363.345H209.904C220.395 363.345 228.88 371.826 228.88 382.252C228.88 392.705 220.395 401.159 209.904 401.159ZM265.478 324.505L99.0572 324.532C88.5931 324.532 80.0805 316.078 80.0805 305.626C80.0805 295.173 88.5931 286.719 99.0572 286.719H265.478C275.969 286.719 284.454 295.173 284.454 305.626C284.454 316.078 275.969 324.532 265.478 324.532V324.505Z" fill="black"/>
<path d="M86.3654 169.525H86.5822C172.138 164.852 259.783 162.557 346.991 162.557C434.198 162.557 521.843 164.933 607.399 169.579H607.616C639.876 171.523 669.804 186.082 691.95 207.933C691.734 203.179 691.49 198.56 691.246 194.077C688.67 152.212 649.226 115.425 605.364 112.804C515.005 107.888 424.598 105.566 334.163 105.836L334.109 105.809C325.001 105.836 316.353 101.892 310.416 95.005C287.373 68.2385 265.034 41.7154 243.645 15.7308C235.052 5.14344 221.877 -0.690976 208.24 0.0654648C171.86 1.92912 135.51 4.495 99.2066 7.84422C57.3502 11.8957 17.2039 50.2761 11.8601 92.0346C7.79373 126.607 4.64881 165.826 2.69729 207.312C24.7372 185.732 54.4283 171.415 86.3654 169.525Z" fill="black"/>
</svg>
