<svg width="772" height="809" viewBox="0 0 772 809" fill="none" xmlns="http://www.w3.org/2000/svg">
<path d="M651.1 0H617.566C631.042 9.18581 642.829 20.7947 652.72 34.0671C701.212 38.8047 739.432 81.2983 739.432 133.379V675.627C739.432 727.74 701.212 770.161 652.72 774.938C642.829 788.175 631.042 799.784 617.566 808.97H651.1C717.892 808.97 772 752.191 772 682.105V126.869C772 56.818 717.891 0 651.1 0Z" fill="black"/>
<path d="M32.3966 210.08H84.5759C102.462 210.08 116.973 194.855 116.973 176.085C116.973 157.315 102.463 142.09 84.5759 142.09H32.3966C14.5101 142.054 0 157.279 0 176.085C0 194.854 14.5092 210.08 32.3966 210.08Z" fill="black"/>
<path d="M32.3966 438.533H84.5759C102.462 438.533 116.973 423.308 116.973 404.538C116.973 385.768 102.463 370.543 84.5759 370.543H32.3966C14.5101 370.507 0 385.732 0 404.502C0 423.272 14.5092 438.533 32.3966 438.533Z" fill="black"/>
<path d="M117.009 632.953C117.009 614.184 102.5 598.958 84.6121 598.958H32.3984C14.5118 598.922 0.00177208 614.147 0.00177208 632.953C0.00177208 651.722 14.511 666.948 32.3984 666.948H84.5777C102.499 666.948 117.009 651.723 117.009 632.953Z" fill="black"/>
<path d="M669.575 746.143C696.699 735.257 716.033 707.881 716.033 675.622V133.374C716.033 101.079 696.664 73.739 669.575 62.8533C678.329 82.3463 683.568 103.9 683.568 126.865V682.139C683.568 705.104 678.329 726.614 669.575 746.143Z" fill="black"/>
<path d="M509.853 134.378H206.391C195.811 134.378 187.194 143.419 187.194 154.521V281.533C187.194 292.636 195.81 301.677 206.391 301.677H509.853C520.434 301.677 529.05 292.636 529.05 281.533V154.521C529.05 143.383 520.434 134.378 509.853 134.378ZM425.347 230.282H290.94C284.495 230.282 279.222 224.785 279.222 217.987C279.222 211.188 284.461 205.691 290.94 205.691H425.347C431.792 205.691 437.065 211.188 437.065 217.987C437.065 224.786 431.792 230.282 425.347 230.282Z" fill="black"/>
<path d="M539.297 0.0721674H132.069C91.5389 0.0721674 58.4532 34.5012 58.4532 77.0302V117.535H84.6465C115.526 117.535 140.341 143.863 140.341 175.976C140.341 208.38 115.526 234.708 84.6465 234.708H58.4532V345.805H84.6465C115.526 345.805 140.341 372.134 140.341 404.537C140.341 436.94 115.526 462.979 84.6465 462.979H58.4532V574.363H84.6465C115.526 574.363 140.341 600.691 140.341 632.805C140.341 665.209 115.526 691.537 84.6465 691.537H58.4532V731.752C58.4532 774.571 91.5389 809 132.069 809H539.297C606.02 809 660.064 752.294 660.064 682.275V126.788C660.064 56.7735 606.024 0.0721674 539.297 0.0721674ZM431.799 491.511H286.84C280.395 491.511 275.122 486.014 275.122 479.216C275.122 472.417 280.361 466.92 286.84 466.92H431.799C438.244 466.92 443.517 472.417 443.517 479.216C443.517 486.015 438.279 491.511 431.799 491.511ZM486.942 416.796H231.697C225.252 416.796 219.979 411.299 219.979 404.5C219.979 397.701 225.218 392.204 231.697 392.204H486.942C493.387 392.204 498.66 397.701 498.66 404.5C498.66 411.299 493.421 416.796 486.942 416.796ZM553.665 279.294C553.665 303.959 534.572 324.029 511.033 324.029H207.571C184.066 324.029 164.939 303.994 164.939 279.294V152.282C164.939 127.618 184.032 107.547 207.571 107.547H511.033C534.538 107.547 553.665 127.582 553.665 152.282V279.294Z" fill="black"/>
</svg>
