<svg width="604" height="822" viewBox="0 0 604 822" fill="none" xmlns="http://www.w3.org/2000/svg">
<path d="M532.095 0H71.9048C32.2133 0 0 27.8982 0 62.2727V759.727C0 794.102 32.2133 822 71.9048 822H532.095C571.787 822 604 794.102 604 759.727V62.2727C604 27.8982 571.787 0 532.095 0ZM71.9048 373.636H302C310.053 373.636 316.381 379.116 316.381 386.091V635.182C316.381 642.156 310.053 647.636 302 647.636H71.9048C63.8514 647.636 57.5238 642.156 57.5238 635.182V386.091C57.5238 379.116 63.8514 373.636 71.9048 373.636ZM57.5238 336.273V161.909C57.5238 154.935 63.8514 149.455 71.9048 149.455H302C310.053 149.455 316.381 154.935 316.381 161.909V336.273C316.381 343.247 310.053 348.727 302 348.727H71.9048C63.8514 348.727 57.5238 343.247 57.5238 336.273ZM359.524 398.545H417.048C425.101 398.545 431.429 404.025 431.429 411C431.429 417.975 425.101 423.455 417.048 423.455H359.524C351.47 423.455 345.143 417.975 345.143 411C345.143 404.025 351.47 398.545 359.524 398.545ZM345.143 286.455C345.143 279.48 351.47 274 359.524 274H532.095C540.149 274 546.476 279.48 546.476 286.455C546.476 293.429 540.149 298.909 532.095 298.909H359.524C351.47 298.909 345.143 293.429 345.143 286.455ZM359.524 448.364H532.095C540.149 448.364 546.476 453.844 546.476 460.818C546.476 467.793 540.149 473.273 532.095 473.273H359.524C351.47 473.273 345.143 467.793 345.143 460.818C345.143 453.844 351.47 448.364 359.524 448.364ZM359.524 498.182H532.095C540.149 498.182 546.476 503.662 546.476 510.636C546.476 517.611 540.149 523.091 532.095 523.091H359.524C351.47 523.091 345.143 517.611 345.143 510.636C345.143 503.662 351.47 498.182 359.524 498.182ZM359.524 548H532.095C540.149 548 546.476 553.48 546.476 560.455C546.476 567.429 540.149 572.909 532.095 572.909H359.524C351.47 572.909 345.143 567.429 345.143 560.455C345.143 553.48 351.47 548 359.524 548ZM359.524 597.818H474.571C482.625 597.818 488.952 603.298 488.952 610.273C488.952 617.247 482.625 622.727 474.571 622.727H359.524C351.47 622.727 345.143 617.247 345.143 610.273C345.143 603.298 351.47 597.818 359.524 597.818ZM532.095 249.091H359.524C351.47 249.091 345.143 243.611 345.143 236.636C345.143 229.662 351.47 224.182 359.524 224.182H532.095C540.149 224.182 546.476 229.662 546.476 236.636C546.476 243.611 540.149 249.091 532.095 249.091ZM345.143 186.818C345.143 179.844 351.47 174.364 359.524 174.364H417.048C425.101 174.364 431.429 179.844 431.429 186.818C431.429 193.793 425.101 199.273 417.048 199.273H359.524C351.47 199.273 345.143 193.793 345.143 186.818ZM575.238 759.727C575.238 780.402 555.968 797.091 532.095 797.091H71.9048C48.0324 797.091 28.7619 780.402 28.7619 759.727V697.455H575.238V759.727ZM575.238 99.6364H28.7619V62.2727C28.7619 41.5982 48.0324 24.9091 71.9048 24.9091H532.095C555.968 24.9091 575.238 41.5982 575.238 62.2727V99.6364ZM373.905 62.2727C373.905 69.2473 367.577 74.7273 359.524 74.7273H244.476C236.423 74.7273 230.095 69.2473 230.095 62.2727C230.095 55.2982 236.423 49.8182 244.476 49.8182H359.524C367.577 49.8182 373.905 55.2982 373.905 62.2727ZM273.238 747.273C273.238 733.573 286.181 722.364 302 722.364C317.819 722.364 330.762 733.573 330.762 747.273C330.762 760.973 317.819 772.182 302 772.182C286.181 772.182 273.238 760.973 273.238 747.273ZM287.619 323.818H86.2857V174.364H287.619V323.818ZM287.619 622.727H86.2857V398.545H287.619V622.727Z" fill="black"/>
</svg>
