<svg width="722" height="771" viewBox="0 0 722 771" fill="none" xmlns="http://www.w3.org/2000/svg">
<path fill-rule="evenodd" clip-rule="evenodd" d="M626.193 95.2925C633.491 95.2925 639.376 100.872 639.376 107.719C639.376 114.598 633.457 120.146 626.193 120.146H214.76C207.462 120.146 201.578 114.566 201.578 107.719C201.578 100.84 207.497 95.2925 214.76 95.2925H626.193ZM626.193 280.491C633.491 280.491 639.376 286.071 639.376 292.918C639.376 299.797 633.457 305.344 626.193 305.344H214.76C207.462 305.344 201.578 299.765 201.578 292.918C201.578 286.039 207.497 280.491 214.76 280.491H626.193ZM626.193 465.657C633.491 465.657 639.376 471.237 639.376 478.084C639.376 484.963 633.457 490.511 626.193 490.511H214.76C207.462 490.511 201.578 484.931 201.578 478.084C201.578 471.205 207.497 465.657 214.76 465.657H626.193ZM626.193 187.884C633.491 187.884 639.376 193.463 639.376 200.31C639.376 207.19 633.457 212.737 626.193 212.737H371.373C364.075 212.737 358.191 207.158 358.191 200.31C358.191 193.431 364.11 187.884 371.373 187.884H626.193ZM63.3214 268.945C49.0281 268.85 34.5678 269.991 19.9379 272.401C8.26794 274.334 0.0959232 283.56 0.0959232 294.719C0.0959232 304.039 -1.14839 312.789 5.57768 320.397C9.04157 324.328 13.9852 327.118 19.7694 328.132C48.7588 333.141 77.4788 333.268 106.371 328.228C117.974 326.23 126.045 317.1 126.045 305.91C126.045 296.018 127.289 288.03 120.462 280.358C116.965 276.427 111.988 273.638 106.169 272.687C91.7752 270.309 77.5164 269.009 63.3238 268.914L63.3214 268.945ZM63.3214 440.388C49.0962 440.293 34.6686 441.402 19.9379 443.843C8.26794 445.777 0.0959232 455.002 0.0959232 466.161C0.0959232 475.481 -1.14839 484.231 5.57768 491.84C9.04157 495.771 13.9852 498.561 19.7694 499.575C48.7253 504.584 77.4117 504.711 106.371 499.67C117.974 497.673 126.045 488.543 126.045 477.352C126.045 467.461 127.289 459.473 120.462 451.801C116.965 447.87 111.988 445.08 106.169 444.129C91.7752 441.752 77.5164 440.452 63.3238 440.357L63.3214 440.388ZM0.0959232 637.606C0.0959232 646.926 -1.14839 655.708 5.57768 663.284C9.04157 667.215 13.9852 670.005 19.7694 671.02C48.7253 676.029 77.4788 676.155 106.371 671.115C117.974 669.118 126.045 659.987 126.045 648.797C126.045 638.905 127.289 630.917 120.462 623.245C116.965 619.314 111.988 616.525 106.169 615.574C77.1462 610.787 49.065 610.406 19.9033 615.257C8.23333 617.19 0.0613157 626.416 0.0613157 637.575L0.0959232 637.606ZM626.23 558.225C633.527 558.225 639.412 563.805 639.412 570.652C639.412 577.531 633.493 583.078 626.23 583.078H423.436C416.138 583.078 410.253 577.499 410.253 570.652C410.253 563.772 416.172 558.225 423.436 558.225H626.23ZM345.177 558.225C352.475 558.225 358.359 563.805 358.359 570.652C358.359 577.531 352.44 583.078 345.177 583.078H214.788C207.49 583.078 201.605 577.499 201.605 570.652C201.605 563.772 207.524 558.225 214.788 558.225H345.177ZM299.17 187.852C306.468 187.852 312.353 193.432 312.353 200.279C312.353 207.158 306.434 212.705 299.17 212.705H214.791C207.493 212.705 201.609 207.126 201.609 200.279C201.609 193.399 207.528 187.852 214.791 187.852H299.17ZM462.447 373.051C469.744 373.051 475.629 378.63 475.629 385.477C475.629 392.357 469.71 397.904 462.447 397.904H214.79C207.492 397.904 201.607 392.325 201.607 385.477C201.607 378.598 207.526 373.051 214.79 373.051H462.447ZM626.223 373.051C633.521 373.051 639.405 378.63 639.405 385.477C639.405 392.357 633.486 397.904 626.223 397.904H544.534C537.237 397.904 531.352 392.325 531.352 385.477C531.352 378.598 537.271 373.051 544.534 373.051H626.223ZM626.223 650.824C633.521 650.824 639.405 656.404 639.405 663.251C639.405 670.13 633.486 675.678 626.223 675.678H214.79C207.492 675.678 201.607 670.098 201.607 663.251C201.607 656.372 207.526 650.824 214.79 650.824H626.223ZM63.3162 97.5008C49.091 97.4057 34.6634 98.5152 19.9328 100.956C8.26277 102.89 0.0907587 112.115 0.0907587 123.274C0.0907587 132.594 -1.15356 141.376 5.57251 148.953C9.03641 152.884 13.9801 155.674 19.7642 156.688C48.7201 161.697 77.4401 161.824 106.366 156.783C117.969 154.786 126.04 145.656 126.04 134.465C126.04 124.574 127.284 116.586 120.457 108.914C116.96 104.983 111.982 102.193 106.164 101.242C91.8708 98.8646 77.5448 97.5649 63.3187 97.4698L63.3162 97.5008ZM79.9633 73.3121C90.3213 73.9462 100.578 75.1508 110.701 76.7993C134.949 80.7938 152.403 100.385 152.403 123.591V134.497C152.403 157.48 135.151 177.009 111.105 181.193C99.0994 183.285 87.0256 184.553 74.9527 185.061L73.2039 244.406C85.9165 244.913 98.3932 246.213 110.736 248.242C134.983 252.237 152.438 271.828 152.438 295.034V305.939C152.438 328.923 135.185 348.452 111.139 352.636C98.0239 354.918 84.8404 356.25 71.5561 356.63L71.5897 415.786C84.8404 416.23 97.8888 417.561 110.736 419.685C134.983 423.68 152.438 443.271 152.438 466.477V477.383C152.438 500.366 135.185 519.895 111.139 524.079C98.5956 526.267 85.9502 527.566 73.3056 528.01L75.088 587.356C87.1273 587.895 99.0324 589.194 110.736 591.128C134.983 595.123 152.438 614.714 152.438 637.92V648.825C152.438 671.809 135.186 691.338 111.14 695.522C100.849 697.329 90.491 698.502 80.0986 699.136L81.9147 730.901C82.9236 747.83 97.5192 760.638 115.511 761.811C303.505 774.047 489.717 774.079 677.677 761.811C695.669 760.638 710.265 747.83 711.273 730.901C725.163 499.509 725.936 270.023 711.408 40.0908C710.332 23.2257 695.803 10.4501 677.845 9.27657C490.393 -3.02348 302.899 -3.15008 115.412 9.24487C97.454 10.4178 82.8921 23.2257 81.8495 40.1224C81.1769 51.408 80.5379 62.472 79.9325 73.2821L79.9633 73.3121Z" fill="black"/>
</svg>
