<svg width="652" height="820" viewBox="0 0 652 820" fill="none" xmlns="http://www.w3.org/2000/svg">
<path fill-rule="evenodd" clip-rule="evenodd" d="M111.806 0H540.32C571.029 0 598.98 12.823 619.208 33.4654C639.435 54.1077 652 82.633 652 113.972V747.035C652 759.76 648.987 771.733 643.249 782.299C637.543 792.865 629.209 801.828 618.567 808.632C607.924 815.437 596.385 819.199 584.589 819.886C572.824 820.573 560.964 818.12 549.649 812.591L326 702.508L102.351 812.591C91.0359 818.152 79.1756 820.573 67.4114 819.886C55.6151 819.199 44.0749 815.47 33.4332 808.632C22.8228 801.828 14.4887 792.865 8.75097 782.299C3.04519 771.733 0 759.792 0 747.035V113.972C0 82.633 12.5652 54.1077 32.7923 33.4654C53.0187 12.8239 80.9391 0 111.68 0H111.806ZM128.539 375.739C118.154 375.739 109.691 367.136 109.691 356.504C109.691 345.905 118.121 337.268 128.539 337.268H376.002C386.388 337.268 394.851 345.871 394.851 356.504C394.851 367.102 386.421 375.739 376.002 375.739H128.539ZM467.262 375.739C456.876 375.739 448.413 367.136 448.413 356.504C448.413 345.905 456.844 337.268 467.262 337.268H523.551C533.936 337.268 542.399 345.871 542.399 356.504C542.399 367.102 533.969 375.739 523.551 375.739H467.262ZM128.539 240.893C118.154 240.893 109.691 232.29 109.691 221.657C109.691 211.059 118.121 202.422 128.539 202.422H523.556C533.941 202.422 542.404 211.025 542.404 221.657C542.404 232.256 533.974 240.893 523.556 240.893H128.539Z" fill="black"/>
</svg>
