<svg width="639" height="908" viewBox="0 0 639 908" fill="none" xmlns="http://www.w3.org/2000/svg">
<path d="M543.15 120.566H511.2V65.6494C511.205 55.4886 508.911 45.4656 504.501 36.37C500.09 27.2745 493.683 19.355 485.785 13.2355C477.886 7.11608 468.711 2.96389 458.983 1.10613C449.256 -0.751635 439.241 -0.264201 429.728 2.53002L46.3818 115.025C33.0433 118.968 21.311 127.25 12.9474 138.626C4.58376 150.002 0.0404757 163.857 0 178.111V809.571C0 835.676 10.0985 860.712 28.0738 879.171C46.0492 897.63 70.429 908 95.85 908H543.15C568.571 908 592.951 897.63 610.926 879.171C628.902 860.712 639 835.676 639 809.571V218.996C639 192.89 628.902 167.855 610.926 149.396C592.951 130.937 568.571 120.566 543.15 120.566ZM479.25 448.664H159.75C151.276 448.664 143.15 445.207 137.158 439.054C131.166 432.901 127.8 424.556 127.8 415.854C127.8 407.152 131.166 398.807 137.158 392.654C143.15 386.501 151.276 383.044 159.75 383.044H479.25C487.724 383.044 495.85 386.501 501.842 392.654C507.834 398.807 511.2 407.152 511.2 415.854C511.2 424.556 507.834 432.901 501.842 439.054C495.85 445.207 487.724 448.664 479.25 448.664ZM479.25 317.425H159.75C151.276 317.425 143.15 313.968 137.158 307.815C131.166 301.662 127.8 293.317 127.8 284.615C127.8 275.913 131.166 267.568 137.158 261.415C143.15 255.262 151.276 251.805 159.75 251.805H479.25C487.724 251.805 495.85 255.262 501.842 261.415C507.834 267.568 511.2 275.913 511.2 284.615C511.2 293.317 507.834 301.662 501.842 307.815C495.85 313.968 487.724 317.425 479.25 317.425Z" fill="black"/>
</svg>
