<svg width="806" height="818" viewBox="0 0 806 818" fill="none" xmlns="http://www.w3.org/2000/svg">
<path d="M246.278 0C184.648 0 134.333 51.0639 134.333 113.611V136.333H111.944C50.3147 136.333 0 187.397 0 249.944V704.389C0 766.936 50.3147 818 111.944 818H559.722C621.352 818 671.667 766.936 671.667 704.389V681.667H694.056C755.685 681.667 806 630.603 806 568.056V113.611C806 51.0639 755.685 0 694.056 0H246.278ZM246.278 45.4444H694.056C731.653 45.4444 761.222 75.454 761.222 113.611V568.056C761.222 606.213 731.653 636.222 694.056 636.222H671.667V249.944C671.667 187.397 621.352 136.333 559.722 136.333H179.111V113.611C179.111 75.454 208.68 45.4444 246.278 45.4444ZM156.722 318.111H514.944C520.882 318.111 526.577 320.505 530.776 324.766C534.975 329.028 537.333 334.807 537.333 340.833C537.333 346.86 534.975 352.639 530.776 356.9C526.577 361.162 520.882 363.556 514.944 363.556H156.722C150.784 363.556 145.09 361.162 140.891 356.9C136.692 352.639 134.333 346.86 134.333 340.833C134.333 334.807 136.692 329.028 140.891 324.766C145.09 320.505 150.784 318.111 156.722 318.111ZM156.722 454.444H514.944C520.882 454.444 526.577 456.838 530.776 461.1C534.975 465.361 537.333 471.14 537.333 477.167C537.333 483.193 534.975 488.972 530.776 493.234C526.577 497.495 520.882 499.889 514.944 499.889H156.722C150.784 499.889 145.09 497.495 140.891 493.234C136.692 488.972 134.333 483.193 134.333 477.167C134.333 471.14 136.692 465.361 140.891 461.1C145.09 456.838 150.784 454.444 156.722 454.444ZM156.722 590.778H514.944C520.882 590.778 526.577 593.172 530.776 597.433C534.975 601.694 537.333 607.474 537.333 613.5C537.333 619.526 534.975 625.306 530.776 629.567C526.577 633.828 520.882 636.222 514.944 636.222H156.722C150.784 636.222 145.09 633.828 140.891 629.567C136.692 625.306 134.333 619.526 134.333 613.5C134.333 607.474 136.692 601.694 140.891 597.433C145.09 593.172 150.784 590.778 156.722 590.778Z" fill="black"/>
</svg>
