<svg width="797" height="829" viewBox="0 0 797 829" fill="none" xmlns="http://www.w3.org/2000/svg">
<path d="M796.083 647.055L738.083 190.471C733.213 152.9 710.08 122.121 678.866 107.115V445.223C678.866 457.504 674.254 469.094 665.878 477.767L459.261 692.682C450.922 701.394 439.78 706.191 427.973 706.191L148.56 706.153L152.287 735.627C159.076 789.586 203.609 829 254.675 829C259.139 829 263.64 828.693 268.179 828.079L707.275 767.749C763.614 759.882 803.504 705.731 796.12 647.053L796.083 647.055Z" fill="black"/>
<path d="M442.77 537.293V666.469L640.754 460.533H516.567C475.871 460.533 442.77 494.963 442.77 537.293Z" fill="black"/>
<path d="M413.244 537.293C413.244 478.039 459.585 429.831 516.557 429.831H649.378V107.463C649.378 48.2078 603.037 0 546.065 0H103.313C46.3465 0 0 48.202 0 107.463V567.995C0 627.25 46.3408 675.458 103.313 675.458H413.235L413.244 537.293ZM132.83 122.809H516.548C524.702 122.809 531.306 129.678 531.306 138.16C531.306 146.641 524.702 153.511 516.548 153.511H132.83C124.676 153.511 118.072 146.641 118.072 138.16C118.072 129.678 124.676 122.809 132.83 122.809ZM132.83 245.618H516.548C524.702 245.618 531.306 252.487 531.306 260.969C531.306 269.45 524.702 276.32 516.548 276.32H132.83C124.676 276.32 118.072 269.45 118.072 260.969C118.072 252.487 124.676 245.618 132.83 245.618ZM379.515 399.129H132.83C124.676 399.129 118.072 392.259 118.072 383.777C118.072 375.296 124.676 368.426 132.83 368.426H379.515C387.669 368.426 394.273 375.296 394.273 383.777C394.273 392.259 387.669 399.129 379.515 399.129Z" fill="black"/>
</svg>
