<svg width="679" height="690" viewBox="0 0 679 690" fill="none" xmlns="http://www.w3.org/2000/svg">
<path d="M122.299 257.986H556.689V332.696H122.299V257.986ZM374.344 81.444C381.531 108.887 405.954 128.015 433.924 128.078H679V67.4377C679 49.5746 672 32.4068 659.555 19.7602C647.11 7.11365 630.216 0 612.638 0H353.098L374.344 81.444ZM678.996 161.782V622.562C678.996 640.425 671.996 657.593 659.551 670.24C647.106 682.886 630.212 690 612.634 690H66.3624C29.7117 690 0 659.806 0 622.562V67.4401C0 30.1956 29.7125 0.00242758 66.3624 0.00242758H318.75L342.239 90.0461C353.253 132.318 390.899 161.752 433.93 161.784L678.996 161.782ZM181.198 98.3908C181.198 109.52 187.794 119.542 197.906 123.779C208.017 128.047 219.623 125.676 227.369 117.835C235.116 109.962 237.418 98.1376 233.218 87.8626C229.049 77.5875 219.187 70.9157 208.235 70.9157C201.017 70.8525 194.08 73.698 188.945 78.8515C183.781 84.005 180.888 91.0553 180.856 98.3907L181.198 98.3908ZM89.9461 98.3908C89.9461 109.52 96.5108 119.542 106.623 123.779C116.734 128.047 128.37 125.676 136.117 117.835C143.833 109.962 146.166 98.1376 141.966 87.8626C137.797 77.5875 127.935 70.9157 116.983 70.9157C109.765 70.8525 102.796 73.698 97.6622 78.8515C92.5286 84.005 89.6353 91.0553 89.6042 98.3907L89.9461 98.3908ZM430.097 581.996C430.097 577.538 428.355 573.239 425.244 570.076C422.132 566.914 417.901 565.144 413.514 565.144H106.528C97.3503 565.144 89.9454 572.669 89.9454 581.995C89.9454 591.322 97.3502 598.847 106.528 598.847H413.514C422.536 598.689 429.755 591.164 429.755 581.995L430.097 581.996ZM430.097 506.117C430.097 501.659 428.355 497.359 425.244 494.197C422.132 491.035 417.901 489.265 413.514 489.265H106.528C97.3503 489.265 89.9454 496.789 89.9454 506.116C89.9454 515.443 97.3502 522.967 106.528 522.967H413.514C422.474 522.809 429.692 515.411 429.755 506.274L430.097 506.117ZM430.097 430.237C430.097 425.779 428.355 421.48 425.244 418.317C422.132 415.155 417.901 413.385 413.514 413.385H106.528C97.3503 413.385 89.9454 420.91 89.9454 430.236C89.9454 439.563 97.3502 447.088 106.528 447.088H413.514C422.443 446.93 429.63 439.563 429.755 430.489L430.097 430.237ZM590.229 581.996C590.229 577.538 588.455 573.239 585.344 570.076C582.233 566.915 578.033 565.144 573.614 565.144H486.496C477.349 565.144 469.913 572.669 469.913 581.995C469.913 591.322 477.349 598.847 486.496 598.847H573.296C577.683 598.847 581.914 597.076 585.025 593.915C588.137 590.753 589.879 586.453 589.879 581.995L590.229 581.996ZM590.229 506.117C590.229 501.659 588.455 497.359 585.344 494.197C582.233 491.035 578.033 489.265 573.614 489.265H486.496C477.349 489.265 469.913 496.789 469.913 506.116C469.913 515.443 477.349 522.967 486.496 522.967H573.296C582.38 522.967 589.785 515.537 589.878 506.274L590.229 506.117ZM590.229 430.237C590.229 425.779 588.455 421.48 585.344 418.317C582.233 415.156 578.033 413.385 573.614 413.385H486.496C477.349 413.385 469.913 420.91 469.913 430.236C469.913 439.563 477.349 447.088 486.496 447.088H573.296C582.349 447.088 589.754 439.69 589.878 430.489L590.229 430.237ZM590.229 240.882C590.229 236.393 588.455 232.125 585.344 228.963C582.233 225.801 578.033 223.999 573.614 223.999H105.685C96.5379 223.999 89.1019 231.555 89.1019 240.882V349.549C89.1019 354.007 90.8442 358.307 93.9555 361.469C97.0668 364.631 101.298 366.401 105.685 366.401H573.304C577.691 366.401 581.922 364.631 585.034 361.469C588.146 358.307 589.888 354.008 589.888 349.549L590.229 240.882Z" fill="black"/>
</svg>
