<svg width="739" height="786" viewBox="0 0 739 786" fill="none" xmlns="http://www.w3.org/2000/svg">
<path d="M302.318 421.1V336.892C302.318 329.448 298.779 322.308 292.48 317.044C286.18 311.78 277.636 308.823 268.727 308.823V28.1312C268.727 20.6868 265.188 13.5473 258.889 8.28326C252.589 3.01926 244.045 0.061979 235.136 0.061979C190.608 0.106549 147.92 14.9073 116.433 41.2176C84.9474 67.5279 67.2352 103.2 67.1818 140.408V308.823C58.273 308.823 49.729 311.78 43.4295 317.044C37.1299 322.308 33.5909 329.448 33.5909 336.892V421.1C24.682 421.1 16.1381 424.057 9.83856 429.321C3.53904 434.585 0 441.725 0 449.169V757.93C0 765.375 3.53904 772.514 9.83856 777.778C16.1381 783.042 24.682 786 33.5909 786H302.318C311.227 786 319.771 783.042 326.071 777.778C332.37 772.514 335.909 765.375 335.909 757.93V449.169C335.909 441.725 332.37 434.585 326.071 429.321C319.771 424.057 311.227 421.1 302.318 421.1Z" fill="black"/>
<path d="M705.409 421.1H620.659V208.897H670.206C672.433 208.897 674.569 208.158 676.144 206.842C677.719 205.526 678.604 203.741 678.604 201.88C678.604 200.019 677.719 198.234 676.144 196.918C674.569 195.602 672.433 194.863 670.206 194.863H620.659V174.091H670.206C672.433 174.091 674.569 173.352 676.144 172.036C677.719 170.72 678.604 168.935 678.604 167.074C678.604 165.213 677.719 163.428 676.144 162.112C674.569 160.796 672.433 160.057 670.206 160.057H620.659V139.398H670.206C672.433 139.398 674.569 138.659 676.144 137.343C677.719 136.027 678.604 134.242 678.604 132.381C678.604 130.52 677.719 128.735 676.144 127.419C674.569 126.103 672.433 125.363 670.206 125.363H620.659V104.676H670.206C672.433 104.676 674.569 103.937 676.144 102.621C677.719 101.305 678.604 99.5201 678.604 97.659C678.604 95.7979 677.719 94.013 676.144 92.697C674.569 91.381 672.433 90.6417 670.206 90.6417H620.659V69.8986H670.206C672.433 69.8986 674.569 69.1593 676.144 67.8433C677.719 66.5273 678.604 64.7424 678.604 62.8813C678.604 61.0202 677.719 59.2353 676.144 57.9193C674.569 56.6033 672.433 55.864 670.206 55.864H620.659V35.1489H670.206C672.433 35.1489 674.569 34.4096 676.144 33.0936C677.719 31.7776 678.604 29.9927 678.604 28.1316C678.604 26.2705 677.719 24.4856 676.144 23.1696C674.569 21.8536 672.433 21.1143 670.206 21.1143H618.946C617.252 15.1051 613.179 9.75017 607.387 5.91772C601.594 2.08527 594.423 0 587.035 0C579.647 0 572.475 2.08527 566.683 5.91772C560.891 9.75017 556.817 15.1051 555.123 21.1143H503.864C501.636 21.1143 499.5 21.8536 497.926 23.1696C496.351 24.4856 495.466 26.2705 495.466 28.1316C495.466 29.9927 496.351 31.7776 497.926 33.0936C499.5 34.4096 501.636 35.1489 503.864 35.1489H553.477V55.864H503.864C501.636 55.864 499.5 56.6033 497.926 57.9193C496.351 59.2353 495.466 61.0202 495.466 62.8813C495.466 64.7424 496.351 66.5273 497.926 67.8433C499.5 69.1593 501.636 69.8986 503.864 69.8986H553.477V90.6417H503.864C501.636 90.6417 499.5 91.381 497.926 92.697C496.351 94.013 495.466 95.7979 495.466 97.659C495.466 99.5201 496.351 101.305 497.926 102.621C499.5 103.937 501.636 104.676 503.864 104.676H553.477V125.363H503.864C501.636 125.363 499.5 126.103 497.926 127.419C496.351 128.735 495.466 130.52 495.466 132.381C495.466 134.242 496.351 136.027 497.926 137.343C499.5 138.659 501.636 139.398 503.864 139.398H553.477V160.057H503.864C501.636 160.057 499.5 160.796 497.926 162.112C496.351 163.428 495.466 165.213 495.466 167.074C495.466 168.935 496.351 170.72 497.926 172.036C499.5 173.352 501.636 174.091 503.864 174.091H553.477V194.863H503.864C501.636 194.863 499.5 195.602 497.926 196.918C496.351 198.234 495.466 200.019 495.466 201.88C495.466 203.741 496.351 205.526 497.926 206.842C499.5 208.158 501.636 208.897 503.864 208.897H553.477V421.1H470.273C461.364 421.1 452.82 424.058 446.52 429.322C440.221 434.586 436.682 441.725 436.682 449.17V757.931C436.682 765.375 440.221 772.515 446.52 777.779C452.82 783.043 461.364 786 470.273 786H705.409C714.318 786 722.862 783.043 729.161 777.779C735.461 772.515 739 765.375 739 757.931V449.17C739 441.725 735.461 434.586 729.161 429.322C722.862 424.058 714.318 421.1 705.409 421.1Z" fill="black"/>
</svg>
