<svg width="812" height="743" viewBox="0 0 812 743" fill="none" xmlns="http://www.w3.org/2000/svg">
<path fill-rule="evenodd" clip-rule="evenodd" d="M812 645.203H0V743H812V645.203ZM83.5616 428.614V635.423H21.2913V428.614H83.5616ZM487.846 635.423H100.478V428.614H487.846V635.423ZM711.522 635.423H504.763V540.168H711.522V635.423ZM728.432 428.614H790.702V635.423H728.432V428.614ZM581.678 623.687H634.605C639.274 623.687 643.063 620.036 643.063 615.537C643.063 611.038 639.274 607.387 634.605 607.387H581.678C577.011 607.387 573.22 611.038 573.22 615.537C573.22 620.036 577.011 623.687 581.678 623.687ZM711.522 523.868H504.763V428.614H711.522V523.868ZM581.678 509.525H634.605C639.274 509.525 643.063 505.874 643.063 501.375C643.063 496.876 639.274 493.225 634.605 493.225H581.678C577.011 493.225 573.22 496.876 573.22 501.375C573.22 505.874 577.011 509.525 581.678 509.525ZM812 398.313C812 387.001 802.459 377.808 790.702 377.808H21.2913C9.541 377.808 0 387.001 0 398.313C0 409.641 9.541 418.834 21.2913 418.834H790.702C802.459 418.834 812 409.641 812 398.313ZM183.991 368.028H127.124V352.723H183.991V368.028ZM684.876 368.028H628.009V352.723H684.876V368.028ZM724.693 0H87.3103V342.943H724.693V0Z" fill="black"/>
</svg>
