<svg width="753" height="826" viewBox="0 0 753 826" fill="none" xmlns="http://www.w3.org/2000/svg">
<path d="M325.996 108.69H427.451C464.532 109.372 494.461 140.699 494.461 179.306V385.656H258.548V179.306C258.548 140.66 288.551 109.297 325.705 108.69H325.996ZM428.915 -3.51434e-06H324.09C229.537 1.51699 153.426 81.2353 153.426 179.311V389.982L153.389 390.02C124.597 399.729 102.516 424.797 96.1708 455.857H656.831C650.486 424.797 628.406 399.729 599.613 390.02H599.576V179.311C599.576 81.2325 523.473 1.52428 428.915 -3.51434e-06ZM424.362 557C429.203 557 434.044 558.896 437.749 562.726L457.922 583.585L478.058 562.726C481.762 558.896 486.604 557 491.445 557C496.287 557 501.128 558.896 504.833 562.726C512.242 570.387 512.242 582.751 504.833 590.412L484.66 611.232L504.833 632.091C512.242 639.751 512.242 652.153 504.833 659.776C501.128 663.607 496.287 665.503 491.445 665.503C486.604 665.503 481.763 663.607 478.058 659.776L457.922 638.918L437.749 659.776C434.045 663.607 429.24 665.503 424.398 665.503H424.361C419.52 665.503 414.679 663.607 410.974 659.776C403.601 652.153 403.601 639.752 410.974 632.091L431.146 611.232L410.974 590.412C403.601 582.751 403.601 570.387 410.974 562.726C414.678 558.896 419.52 557 424.362 557ZM587.176 557.644C592.018 557.644 596.859 559.541 600.564 563.371L620.737 584.191L640.909 563.371C644.577 559.541 649.419 557.644 654.26 557.644C659.102 557.644 663.98 559.541 667.648 563.371C675.057 571.032 675.057 583.395 667.648 591.056L647.512 611.877L667.648 632.735C675.057 640.396 675.057 652.76 667.648 660.421C663.98 664.251 659.139 666.148 654.297 666.148C649.419 666.148 644.577 664.251 640.909 660.421L620.737 639.563L600.564 660.421C596.896 664.213 592.055 666.148 587.213 666.148H587.176C582.335 666.148 577.494 664.251 573.789 660.421C566.417 652.76 566.417 640.397 573.789 632.735L593.961 611.877L573.789 591.056C566.417 583.396 566.417 570.994 573.789 563.371C577.493 559.541 582.335 557.644 587.176 557.644ZM98.7314 558.972C103.573 558.972 108.414 560.868 112.082 564.698L132.255 585.519L152.428 564.698C156.132 560.868 160.974 558.972 165.815 558.972C170.657 558.972 175.498 560.868 179.203 564.698C186.575 572.321 186.575 584.723 179.203 592.384L159.03 613.204L179.203 634.063C186.575 641.686 186.575 654.087 179.203 661.748C175.498 665.541 170.657 667.475 165.815 667.475C160.974 667.475 156.133 665.541 152.428 661.748L132.255 640.89L112.082 661.748C108.415 665.541 103.573 667.475 98.7681 667.475H98.7314C93.8532 667.475 89.0113 665.541 85.3437 661.748C77.9348 654.087 77.9348 641.686 85.3437 634.063L105.48 613.204L85.3437 592.346C77.9348 584.723 77.9348 572.322 85.3437 564.698C89.0482 560.868 93.8898 558.972 98.7314 558.972ZM261.546 559.578V559.616C266.388 559.578 271.229 561.513 274.934 565.343L295.07 586.163L315.243 565.343C318.947 561.513 323.789 559.578 328.63 559.578C333.472 559.578 338.313 561.513 342.018 565.343C349.39 572.966 349.39 585.367 342.018 592.991L321.845 613.849L342.018 634.707C349.39 642.33 349.39 654.732 342.018 662.355C338.313 666.186 333.472 668.12 328.63 668.12C323.789 668.12 318.948 666.186 315.243 662.355L295.07 641.497L274.934 662.355C271.23 666.186 266.388 668.082 261.583 668.12L261.546 668.082V668.12C256.705 668.12 251.864 666.186 248.159 662.355C240.75 654.732 240.75 642.331 248.159 634.707L268.331 613.849L248.159 592.991C240.75 585.368 240.75 572.966 248.159 565.343C251.863 561.513 256.705 559.578 261.546 559.578ZM85.6799 486.99L85.6433 487.028H85.6066L85.5699 487.066C38.2916 487.028 0 526.659 0 575.583V649.536C0 698.46 38.3282 738.091 85.6431 738.091V738.129H85.6798H86.5968H666.44H667.32H667.357C714.672 738.091 753 698.46 753 649.536V648.778V576.342V575.583C753 526.66 714.672 486.99 667.357 486.99H667.32H666.367H86.6361L85.6799 486.99ZM100.021 769.263C112.418 802.448 143.557 825.999 180.015 825.999H573.456C609.695 825.809 640.65 802.334 652.975 769.302L100.089 769.264L100.021 769.263Z" fill="black"/>
</svg>
