<svg width="836" height="830" viewBox="0 0 836 830" fill="none" xmlns="http://www.w3.org/2000/svg">
<path d="M366.862 290.501V341.96H469.138V290.541C469.138 272.16 462.491 261.188 454.458 254.386C445.649 247.017 432.844 242.644 418.571 242.928C389.331 243.495 366.862 261.188 366.862 290.501ZM285.464 413.259C285.464 407.186 290.317 402.732 295.741 402.732H540.259C545.683 402.732 550.536 407.186 550.536 413.259V536.017C550.536 542.09 545.683 546.585 540.259 546.585H295.741C292.975 546.531 290.343 545.395 288.418 543.423C286.493 541.451 285.431 538.804 285.464 536.058V413.259Z" fill="black"/>
<path d="M359.48 13.1608C377.754 4.4967 397.749 0 418 0C438.251 0 458.246 4.4967 476.52 13.1608C492.587 20.813 507.309 33.2831 527.903 50.7333L531.124 53.4055C550.699 70.0054 569.417 77.86 595.557 79.9248L599.717 80.2487C626.713 82.3946 646.002 83.8926 662.804 89.8038C681.899 96.5016 699.244 107.355 713.568 121.569C727.892 135.783 738.832 152.998 745.588 171.953C751.501 188.634 753.01 207.785 755.171 234.587L755.497 238.717C757.577 264.67 765.529 283.253 782.208 302.687L784.9 305.845C802.476 326.332 815.077 340.948 822.744 356.9C831.471 375.043 836 394.894 836 415C836 435.106 831.471 454.957 822.744 473.1C815.037 489.052 802.476 503.668 784.9 524.114L782.208 527.312C765.162 547.151 757.536 565.816 755.497 591.283L755.171 595.413C753.01 622.215 751.501 641.366 745.547 658.047C738.801 677.005 727.869 694.226 713.552 708.447C699.235 722.668 681.896 733.53 662.804 740.237C646.002 746.107 626.713 747.605 599.717 749.751L595.557 750.075C569.417 752.14 550.699 760.035 531.124 776.594L527.903 779.267C507.309 796.717 492.587 809.227 476.52 816.839C458.246 825.503 438.251 830 418 830C397.749 830 377.754 825.503 359.48 816.839C343.413 809.187 328.691 796.717 308.097 779.267L304.876 776.594C287.095 760.682 264.348 751.32 240.443 750.075L236.283 749.751C209.287 747.605 189.998 746.107 173.196 740.196C154.101 733.498 136.756 722.645 122.432 708.431C108.108 694.217 97.1678 677.002 90.4122 658.047C84.4991 641.366 82.9902 622.215 80.8288 595.413L80.5026 591.283C79.2492 567.55 69.8189 544.965 53.7915 527.312L51.1 524.114C33.5237 503.668 20.9226 489.052 13.256 473.1C4.5292 454.957 0 435.106 0 415C0 394.894 4.5292 375.043 13.256 356.9C20.9634 340.948 33.5237 326.332 51.1 305.886L53.7915 302.687C69.8189 285.035 79.2492 262.45 80.5026 238.717L80.8288 234.587C82.9902 207.785 84.4991 188.634 90.453 171.953C97.1992 152.995 108.131 135.774 122.448 121.553C136.765 107.332 154.104 96.4705 173.196 89.7633C189.998 83.8926 209.287 82.3946 236.283 80.2487L240.443 79.9248C264.348 78.6804 287.095 69.3178 304.876 53.4055L308.056 50.7333C328.691 33.2831 343.413 20.7725 359.48 13.1608ZM530.35 290.501C530.35 255.357 516.525 227.016 493.974 208.027C472.075 189.646 444.059 181.711 417.429 182.237C364.945 183.209 305.691 218.919 305.691 290.501V341.96H295.741C256.021 341.96 224.294 374.148 224.294 413.259V536.017C224.294 575.169 256.021 607.316 295.741 607.316H540.259C579.979 607.316 611.706 575.169 611.706 536.058V413.259C611.706 374.148 579.979 342.001 540.259 342.001H530.309L530.35 290.501Z" fill="black"/>
</svg>
