<svg width="672" height="826" viewBox="0 0 672 826" fill="none" xmlns="http://www.w3.org/2000/svg">
<path d="M273.856 227.501C277.561 227.501 281.266 227.143 284.89 226.356C301.319 222.923 314.889 211.979 323.143 195.598C331.8 178.359 333.532 157.329 327.975 136.37C318.069 98.9604 287.506 71.7785 255.333 71.7785C251.628 71.7785 247.883 72.1361 244.3 72.923C227.87 76.3564 214.342 87.2647 206.087 103.681C197.429 120.92 195.698 141.95 201.255 162.872C211.08 200.318 241.683 227.501 273.856 227.501Z" fill="black"/>
<path d="M164.567 326.567C175.923 319.486 182.647 307.612 183.533 293.092C184.459 277.712 178.781 261.475 167.586 247.241C152.365 227.927 129.414 215.91 107.669 215.91C98.2466 215.91 89.8707 218.163 82.7033 222.634C71.3476 229.68 64.6234 241.554 63.7379 256.074C62.8118 271.418 68.4492 287.726 79.6437 301.925C94.8651 321.238 117.857 333.255 139.601 333.255C149.064 333.255 157.44 331.002 164.567 326.567Z" fill="black"/>
<path d="M498.909 405.436C472.413 388.269 442.374 368.812 429.649 330.401C408.871 267.848 384.389 267.383 358.497 266.882L350.726 266.739C310.902 266.739 298.217 284.836 280.661 309.836C264.877 332.296 247.038 357.797 205.482 372.925C142.102 395.957 128.049 442.524 135.981 478.428C144.034 514.766 172.705 541.161 204.113 541.161C212.086 541.161 220.14 539.515 228.152 536.189C273.09 517.663 312.673 508.686 349.111 508.686C386.8 508.686 413.859 518.414 435.564 526.211C451.51 531.933 464.677 536.834 476.878 535.438C525.48 530.038 548.352 517.949 546.862 463.872C546.178 436.011 525.324 422.532 498.909 405.436Z" fill="black"/>
<path d="M671.894 262.586C669.477 211.298 624.982 169.526 572.675 169.526C567.682 169.526 562.73 169.883 557.737 170.634C565.468 148.03 576.017 107.545 564.26 80.5781C553.67 56.3297 512.235 6.18663 451.548 6.18663C418.61 6.18663 386.235 21.1363 355.229 50.643C342.746 32.117 313.552 0 261.689 0C237.126 0 210.468 7.47495 182.443 22.246C156.431 35.9441 139.841 55.1504 133.157 79.2917C123.613 113.555 136.136 150.178 147.411 173.57C133.881 169.135 116.607 165.129 98.2855 165.129C67.1594 165.129 41.7101 176.36 22.6643 198.569C4.02063 220.314 -3.34779 247.746 1.40333 277.897C8.77217 325.286 42.8378 368.919 75.938 394.066C60.2342 411.806 28.8257 458.3 62.8917 517.78C66.0728 523.324 69.1734 528.689 72.274 533.946C107.468 594.246 135.292 641.848 133.721 826H585.558C585.558 824.391 584.672 663.987 615.959 580.614C620.388 568.883 624.898 557.474 629.328 546.422C656.669 478.038 680.427 418.67 629.207 372.817C642.334 355.757 674.069 309.366 671.894 262.586ZM360.344 138.982C372.182 97.4579 410.275 67.3443 450.905 67.3443C456.985 67.3443 463.025 68.0238 468.904 69.3471C491.534 74.4258 509.977 88.6248 520.889 109.333C531.439 129.361 533.614 153.252 526.97 176.572C515.091 218.059 476.998 248.173 436.368 248.173C430.328 248.173 424.248 247.529 418.369 246.17C395.739 241.092 377.296 226.857 366.384 206.185C355.834 186.156 353.699 162.264 360.344 138.982ZM187.194 96.2063C198.107 74.4611 216.71 59.8685 239.541 55.112C244.695 54.0391 250.01 53.4668 255.325 53.4668C296.962 53.4668 335.98 86.5854 348.06 132.186C354.624 157.007 352.49 182.15 341.98 203.037C331.068 224.782 312.464 239.375 289.633 244.167C284.479 245.24 279.164 245.777 273.889 245.777C232.253 245.777 193.234 212.658 181.114 167.057C174.51 142.272 176.684 117.129 187.194 96.2063ZM62.772 312.404C48.9197 294.843 41.9945 274.493 43.1624 255.073C44.3705 234.83 54.2357 217.948 70.9064 207.612C81.456 201.067 94.1404 197.598 107.71 197.598C136.099 197.598 165.534 212.619 184.54 236.724C198.392 254.25 205.357 274.635 204.189 294.056C202.981 314.298 193.116 331.18 176.446 341.552C165.936 348.097 153.211 351.566 139.682 351.566C111.253 351.566 81.8178 336.581 62.772 312.404ZM479.457 553.606C477.202 553.857 474.907 553.964 472.612 553.964C457.793 553.964 443.901 548.957 427.834 543.198C406.734 535.616 382.775 526.997 349.112 526.997C315.731 526.997 279.007 535.438 236.844 552.819C226.092 557.254 215.099 559.472 204.106 559.472C162.873 559.472 125.706 526.854 115.761 481.932C106.217 438.907 122.727 383.223 197.664 355.929C233.058 343.054 248.36 321.237 263.138 300.135C281.419 274.026 300.265 247.095 354.746 248.455L358.933 248.527C388.087 249.099 424.368 249.814 449.373 325.207C460.165 357.682 486.016 374.42 511.022 390.621C538.283 408.289 566.47 426.529 567.477 463.403C569.329 530.177 535.187 547.419 479.457 553.606ZM613.589 312.367C596.838 343.698 564.705 364.799 533.579 364.799C524.801 364.799 516.425 363.154 508.734 359.9C472.976 344.807 461.863 298.956 483.97 257.683C500.721 226.353 532.854 205.251 563.94 205.251C572.718 205.251 581.094 206.897 588.826 210.187C606.664 217.698 618.946 232.827 623.335 252.747C627.523 271.631 624.059 292.804 613.589 312.367Z" fill="black"/>
<path d="M423.441 228.435C427.669 229.4 432.018 229.865 436.367 229.865C467.695 229.865 497.412 205.545 506.955 172.033C512.432 152.827 510.741 133.335 502.204 117.098C493.989 101.504 480.339 90.846 463.829 87.1269C459.601 86.1612 455.252 85.6605 450.903 85.6605C419.575 85.6605 389.898 109.98 380.355 143.493C374.879 162.699 376.57 182.191 385.106 198.464C393.321 214.057 406.931 224.715 423.441 228.435Z" fill="black"/>
<path d="M579.964 226.713C575.011 224.639 569.655 223.566 563.937 223.566C540.663 223.566 515.979 240.448 502.57 265.518C485.376 297.707 492.101 332.613 517.549 343.343C522.462 345.417 527.858 346.49 533.576 346.49C556.89 346.49 581.574 329.609 594.943 304.502C603.519 288.48 606.419 271.312 603.076 256.22C599.976 242.164 591.761 231.649 579.964 226.713Z" fill="black"/>
</svg>
