<svg width="588" height="813" viewBox="0 0 588 813" fill="none" xmlns="http://www.w3.org/2000/svg">
<path d="M294 483.642C364.841 483.642 422.475 413.755 422.475 327.85C422.475 241.945 364.841 172.048 294 172.048C223.159 172.048 165.525 241.945 165.525 327.85C165.525 413.755 223.159 483.642 294 483.642Z" fill="black"/>
<path d="M0 54.4121L114.192 625.427H473.808L588 54.4121C556.71 41.1563 522.69 30.8462 489.26 22.8372C362.162 -7.61242 225.838 -7.61242 98.7399 22.8372C65.3104 30.8462 31.2902 41.1563 0 54.4121ZM294 141.561C385.987 141.561 460.823 225.133 460.823 327.85C460.823 430.567 385.987 514.129 294 514.129C202.013 514.129 127.177 430.567 127.177 327.85C127.177 225.133 202.013 141.561 294 141.561Z" fill="black"/>
<path d="M473.808 762.188V655.915H114.192V762.188C114.192 787.578 137.685 808.436 168.289 812.214C175.237 761.939 228.946 722.679 294 722.679C359.054 722.679 412.763 761.939 419.711 812.214C450.315 808.436 473.808 787.578 473.808 762.188Z" fill="black"/>
<path d="M294 753.166C249.774 753.166 213.164 779.206 206.886 813H381.114C374.836 779.206 338.226 753.166 294 753.166Z" fill="black"/>
</svg>
