<svg width="635" height="696" viewBox="0 0 635 696" fill="none" xmlns="http://www.w3.org/2000/svg">
<path d="M596.278 277.012H516.882C502.485 277.012 489.593 282.772 480.138 292.335C470.899 301.899 464.99 314.94 464.99 329.503C464.99 358.519 488.196 381.992 516.883 381.992H596.278C606.27 381.992 614.543 373.625 614.543 363.409V295.487C614.543 285.163 606.27 277.012 596.278 277.012ZM508.825 339.392C503.345 339.392 498.94 334.828 498.94 329.503C498.94 323.96 503.345 319.504 508.825 319.504C514.089 319.504 518.601 323.96 518.601 329.503C518.601 334.828 514.089 339.392 508.825 339.392ZM622.171 133.67V256.473C629.154 255.169 634.526 248.974 634.526 241.693V158.013C634.526 148.015 629.692 139.104 622.171 133.67ZM570.494 92.1562C565.981 92.1562 561.899 93.2427 558.138 94.9818V257.125H596.278C598.427 257.125 600.576 257.342 602.51 257.777V127.802C602.51 108.132 588.22 92.1562 570.494 92.1562ZM596.278 401.771H558.138V542.505H602.51C602.51 542.288 602.51 542.288 602.51 542.071V401.228C600.361 401.662 598.427 401.771 596.278 401.771ZM558.138 562.393V601.081L566.196 621.186C567.7 625.425 573.072 625.425 574.791 621.186L598.427 562.393H558.138ZM58.3391 639.661H538.477V603.363H45.554C17.8349 603.363 -3.97524 628.576 0.752083 657.375C4.29781 679.871 25.3558 695.52 47.9173 695.52H503.13C522.791 695.52 538.477 679.436 538.477 659.766V659.549H58.3392C52.8598 659.549 48.5621 654.984 48.5621 649.659C48.562 644.008 52.8596 639.661 58.3391 639.661ZM416.32 485.669H209.826C203.165 485.669 197.793 490.994 197.793 497.84V521.857C197.793 528.595 203.165 534.137 209.826 534.137H416.32C422.982 534.137 428.246 528.595 428.246 521.857V497.84C428.246 490.994 422.982 485.669 416.32 485.669ZM416.32 485.669H209.826C203.165 485.669 197.793 490.994 197.793 497.84V521.857C197.793 528.595 203.165 534.137 209.826 534.137H416.32C422.982 534.137 428.246 528.595 428.246 521.857V497.84C428.246 490.994 422.982 485.669 416.32 485.669ZM394.511 116.826C388.924 104.763 379.899 97.1555 368.941 94.4386C358.949 91.8305 348.313 94.0035 340.04 100.198C330.264 107.48 324.569 114.87 321.023 119.651C319.197 122.259 316.296 123.781 313.181 123.781C309.958 123.781 306.842 122.259 305.123 119.651C301.577 114.87 295.883 107.48 285.999 100.198C280.09 95.7427 272.892 93.3515 265.586 93.3515C262.792 93.3515 260.106 93.7867 257.313 94.4387C246.355 97.1555 237.33 104.763 231.958 115.847C224.974 131.171 228.305 147.037 232.387 158.013C253.66 214.416 302.544 234.303 313.181 234.303C323.709 234.303 372.486 214.416 393.651 158.013C396.015 151.602 398.378 143.234 398.378 134.757C398.378 128.78 397.197 122.585 394.511 116.826ZM516.882 257.125H538.477V39.1227C538.477 17.714 521.179 0 499.799 0H90.5703V583.476H538.477V401.771H516.882C477.345 401.771 445.328 369.386 445.328 329.503C445.328 289.51 477.345 257.125 516.882 257.125ZM213.908 108.132C221.966 90.9609 235.933 79.3326 252.586 75.0941C268.379 71.1818 284.817 74.5508 297.817 84.2231C303.296 88.4615 308.453 93.0257 313.18 97.9162C317.048 93.7865 321.99 89.0048 328.436 84.2231C341.437 74.5509 357.982 71.182 373.668 75.0941C390.106 79.3326 404.073 90.961 411.916 107.262L412.805 109.327C420.003 124.65 419.973 144.32 412.131 165.186C400.204 196.919 380.114 219.197 360.883 233.542C341.652 247.779 322.742 254.191 313.18 254.191C293.734 254.191 237.867 228.543 214.123 165.186C206.28 144.32 206.28 124.65 213.908 108.132ZM447.907 497.84V521.857C447.907 539.571 433.726 554.025 416.32 554.025H209.826C192.313 554.025 178.132 539.571 178.132 521.857V497.84C178.132 480.126 192.313 465.781 209.826 465.781H416.32C433.726 465.781 447.907 480.126 447.907 497.84ZM416.32 485.669H209.826C203.165 485.669 197.793 490.994 197.793 497.84V521.857C197.793 528.595 203.165 534.137 209.826 534.137H416.32C422.982 534.137 428.246 528.595 428.246 521.857V497.84C428.246 490.994 422.982 485.669 416.32 485.669ZM313.181 234.303C323.709 234.303 372.486 214.416 393.651 158.013C396.015 151.602 398.378 143.234 398.378 134.757C398.378 128.78 397.197 122.585 394.511 116.826C388.924 104.763 379.899 97.1555 368.941 94.4386C358.949 91.8305 348.313 94.0035 340.04 100.198C330.264 107.48 324.569 114.87 321.023 119.651C319.197 122.259 316.296 123.781 313.181 123.781C309.958 123.781 306.842 122.259 305.123 119.651C301.577 114.87 295.883 107.48 285.999 100.198C280.09 95.7427 272.892 93.3515 265.586 93.3515C262.792 93.3515 260.106 93.7867 257.313 94.4387C246.355 97.1555 237.33 104.763 231.958 115.847C224.974 131.171 228.305 147.037 232.387 158.013C253.66 214.416 302.544 234.303 313.181 234.303ZM394.511 116.826C388.924 104.763 379.899 97.1555 368.941 94.4386C358.949 91.8305 348.313 94.0035 340.04 100.198C330.264 107.48 324.569 114.87 321.023 119.651C319.197 122.259 316.296 123.781 313.181 123.781C309.958 123.781 306.842 122.259 305.123 119.651C301.577 114.87 295.883 107.48 285.999 100.198C280.09 95.7427 272.892 93.3515 265.586 93.3515C262.792 93.3515 260.106 93.7867 257.313 94.4387C246.355 97.1555 237.33 104.763 231.958 115.847C224.974 131.171 228.305 147.037 232.387 158.013C253.66 214.416 302.544 234.303 313.181 234.303C323.709 234.303 372.486 214.416 393.651 158.013C396.015 151.602 398.378 143.234 398.378 134.757C398.378 128.78 397.197 122.585 394.511 116.826ZM57.909 0C25.8927 0 0 26.1904 0 58.5759V602.277C12.1404 590.214 28.2561 583.476 45.554 583.476H70.9092V0H57.909Z" fill="black"/>
</svg>
