<svg width="826" height="828" viewBox="0 0 826 828" fill="none" xmlns="http://www.w3.org/2000/svg">
<path fill-rule="evenodd" clip-rule="evenodd" d="M707.914 449.479L799.08 501.078V501.114C825.1 516.796 833.711 549.958 818.473 575.959C803.273 601.96 769.764 611.398 742.808 597.296L641.125 539.748C631.166 534.864 622.892 527.225 617.35 517.75L578.038 451.279C577.252 449.883 575.605 449.185 574.032 449.589C572.422 450.03 571.337 451.425 571.337 453.078V598.398L413 639.31L254.663 598.398V452.89C254.663 451.237 253.577 449.805 251.967 449.401C250.395 448.997 248.747 449.695 247.961 451.091L208.649 517.746C203.108 527.221 194.834 534.859 184.875 539.743L83.192 597.291C56.2354 611.394 22.7269 601.955 7.5267 575.954C-7.71083 549.953 0.899839 516.79 26.9201 501.11L118.086 449.511L211.722 291.452C234.972 250.688 279.151 225.751 326.737 226.485H499.93C547.291 225.971 591.133 250.908 614.273 291.452L707.536 449.887L707.914 449.479ZM633.933 600.487L371.335 668.758L371.298 668.721C349.957 673.973 331.649 687.378 320.454 705.96C309.26 724.543 306.077 746.724 311.619 767.584C317.197 788.481 331.049 806.292 350.069 817.126C369.126 827.923 391.777 830.824 413.005 825.169L675.603 756.897V756.934C719.67 745.55 745.952 701.296 734.383 658.105C722.777 614.916 677.661 589.099 633.63 600.484L633.933 600.487ZM412.999 7.58433e-06C456.579 7.58433e-06 495.853 25.781 512.477 65.2966C529.101 104.812 519.815 150.242 488.928 180.39C458.041 210.539 411.69 219.465 371.479 202.976C331.269 186.486 305.173 147.852 305.361 105.106C305.623 46.9702 353.737 7.58433e-06 412.999 7.58433e-06ZM412.999 318.694C408.881 312.781 403.677 307.603 397.648 303.49C387.053 296.402 374.174 293.317 361.445 294.823C340.441 296.439 321.908 308.962 312.923 327.655C307.157 339.994 304.948 353.619 306.521 367.134C309.478 395.338 327.112 419.503 348.79 439.041C366.948 454.942 387.054 468.53 408.694 479.475C411.352 480.87 414.572 480.87 417.23 479.475C438.87 468.53 459.013 454.942 477.208 439.041C498.886 419.503 516.52 395.522 519.478 367.134C521.051 353.619 518.842 339.994 513.076 327.655C504.091 308.925 485.595 296.402 464.554 294.823C451.825 293.317 438.945 296.402 428.35 303.49C422.323 307.603 417.118 312.781 412.999 318.694ZM438.496 318.033C430.596 323.762 424.606 331.621 421.348 340.693C420.038 344.108 416.706 346.348 412.999 346.348C409.293 346.348 405.96 344.108 404.65 340.693C401.393 331.622 395.403 323.762 387.502 318.033C380.389 313.332 371.778 311.312 363.242 312.414C348.453 313.332 335.349 322.072 329.022 335.257C324.717 344.695 323.107 355.089 324.342 365.334C326.851 389.132 342.538 409.514 360.958 426.077C376.795 439.996 394.28 452.005 412.999 461.884C431.719 452.005 449.203 439.996 465.041 426.077C483.461 409.514 499.148 389.132 501.657 365.334C502.892 355.089 501.282 344.695 496.977 335.257C490.649 322.073 477.546 313.332 462.757 312.414C454.221 311.312 445.609 313.332 438.496 318.033ZM192.556 600.484C148.527 589.1 103.412 614.917 91.8032 658.105C80.2346 701.294 106.517 745.547 150.583 756.934L306.524 797.442C290.275 770.853 287.767 738.351 299.673 709.67C311.616 680.951 336.626 659.467 367.177 651.608L377.922 648.706L192.556 600.484Z" fill="black"/>
</svg>
