<svg width="773" height="842" viewBox="0 0 773 842" fill="none" xmlns="http://www.w3.org/2000/svg">
<path d="M386.5 395.732C331.616 376.447 266.512 330.759 249.025 273.351C238.889 240.063 248.844 198.246 283.025 185.901C290.056 183.361 297.129 182.207 304.09 182.207C334.609 182.207 362.789 204.562 373.51 231.466C375.584 236.681 380.75 240.131 386.486 240.131C392.222 240.131 397.388 236.695 399.462 231.466C412.619 198.436 452.063 172.238 489.961 185.914C524.156 198.26 534.097 240.077 523.961 273.364C506.488 330.759 441.384 376.433 386.5 395.732ZM731.426 319.446H716.473V48.4852C716.473 21.7572 694.238 0 666.907 0H106.093C78.7619 0 56.527 21.7572 56.527 48.4852V83.4843H45.876C20.5781 83.4843 0 103.571 0 128.235C0 152.898 20.592 172.985 45.876 172.985H56.527V204.208H45.876C20.5781 204.208 0 224.295 0 248.959C0 273.622 20.592 293.709 45.876 293.709H56.527V324.933H45.876C20.5781 324.933 0 345.019 0 369.683C0 394.347 20.592 414.433 45.876 414.433H56.527V445.67H45.876C20.5781 445.67 0 465.757 0 490.421C0 515.084 20.592 535.171 45.876 535.171H56.527V566.408H45.876C20.5781 566.408 0 586.495 0 611.159C0 635.822 20.592 655.909 45.876 655.909H56.527V687.146H45.876C20.5781 687.146 0 707.233 0 731.896C0 756.56 20.592 776.647 45.876 776.647H56.527V793.515C56.527 820.243 78.7619 842 106.093 842H666.907C694.238 842 716.473 820.243 716.473 793.515V522.595H731.426C754.343 522.595 773 504.396 773 482.041V360C773 337.631 754.343 319.446 731.426 319.446ZM94.9264 749.525H45.876C35.935 749.525 27.8458 741.634 27.8458 731.937C27.8458 722.24 35.935 714.349 45.876 714.349H94.9125C104.853 714.349 112.943 722.24 112.943 731.937C112.957 741.634 104.867 749.525 94.9264 749.525ZM94.9264 628.787H45.876C35.935 628.787 27.8458 620.896 27.8458 611.199C27.8458 601.502 35.935 593.612 45.876 593.612H94.9125C104.853 593.612 112.943 601.502 112.943 611.199C112.957 620.896 104.867 628.787 94.9264 628.787ZM94.9264 508.049H45.876C35.935 508.049 27.8458 500.159 27.8458 490.462C27.8458 480.764 35.935 472.874 45.876 472.874H94.9125C104.853 472.874 112.943 480.764 112.943 490.462C112.957 500.159 104.867 508.049 94.9264 508.049ZM94.9264 387.312H45.876C35.935 387.312 27.8458 379.421 27.8458 369.724C27.8458 360.027 35.935 352.136 45.876 352.136H94.9125C104.853 352.136 112.943 360.027 112.943 369.724C112.957 379.421 104.867 387.312 94.9264 387.312ZM94.9264 266.574H45.876C35.935 266.574 27.8458 258.683 27.8458 248.986C27.8458 239.289 35.935 231.398 45.876 231.398H94.9125C104.853 231.398 112.943 239.289 112.943 248.986C112.943 258.683 104.867 266.574 94.9264 266.574ZM94.9264 145.836H45.876C35.935 145.836 27.8458 137.945 27.8458 128.248C27.8458 118.551 35.935 110.66 45.876 110.66H94.9125C104.853 110.66 112.943 118.551 112.943 128.248C112.943 137.945 104.867 145.836 94.9264 145.836ZM386.5 423.696C384.996 423.696 383.493 423.451 382.059 422.99C317.609 401.803 243.233 349.705 222.335 281.079C208.551 235.812 223.867 178.309 273.362 160.422C317.039 144.668 361.898 165.638 386.5 198.613C411.088 165.651 455.948 144.668 499.638 160.422C549.134 178.309 564.449 235.812 550.665 281.079C529.781 349.705 455.391 401.803 390.941 422.99C389.507 423.451 388.004 423.696 386.5 423.696ZM645.299 742.68C645.299 761.436 629.664 776.687 610.436 776.687H428.826C409.598 776.687 393.963 761.436 393.963 742.68V644.487C393.963 625.731 409.598 610.48 428.826 610.48H610.436C629.664 610.48 645.299 625.731 645.299 644.487V742.68ZM745.154 482.041C745.154 489.429 739 495.432 731.426 495.432H638.254C630.68 495.432 624.526 489.429 624.526 482.041V360C624.526 352.611 630.68 346.608 638.254 346.608H731.426C739 346.608 745.154 352.611 745.154 360V482.041ZM610.436 637.642H428.826C424.955 637.642 421.809 640.711 421.809 644.487V742.68C421.809 746.455 424.955 749.525 428.826 749.525H610.436C614.307 749.525 617.453 746.455 617.453 742.68V644.487C617.453 640.711 614.307 637.642 610.436 637.642ZM516.665 731.38H455.558C447.872 731.38 441.635 725.296 441.635 717.799C441.635 710.302 447.872 704.218 455.558 704.218H516.665C524.351 704.218 530.588 710.302 530.588 717.799C530.588 725.296 524.351 731.38 516.665 731.38ZM560.481 682.949H455.558C447.872 682.949 441.635 676.865 441.635 669.368C441.635 661.871 447.872 655.787 455.558 655.787H560.467C568.152 655.787 574.39 661.871 574.39 669.368C574.39 676.865 568.166 682.949 560.481 682.949ZM684.84 367.252C662.536 367.252 644.394 384.948 644.394 406.706C644.394 423.669 655.491 438.038 670.917 443.592V461.207C670.917 468.704 677.155 474.789 684.84 474.789C692.526 474.789 698.763 468.704 698.763 461.207V443.592C714.19 438.024 725.286 423.655 725.286 406.706C725.286 384.948 707.131 367.252 684.84 367.252Z" fill="black"/>
</svg>
