<svg width="836" height="827" viewBox="0 0 836 827" fill="none" xmlns="http://www.w3.org/2000/svg">
<path d="M462.062 188.141C401.8 99.5167 308.319 209.101 303.145 220.158C295.633 210.421 180.451 123.612 140.889 222.964C99.991 325.946 210.832 472.828 329.853 463.916H330.354C448.541 447.083 524.494 279.901 462.062 188.141ZM195.141 336.178C189.799 336.178 189.799 327.927 195.141 327.927C200.483 327.927 200.483 336.178 195.141 336.178ZM196.81 235.506C191.469 235.506 191.469 227.255 196.81 227.255C202.152 227.255 202.152 235.506 196.81 235.506ZM268.757 400.708C263.415 400.708 263.415 392.456 268.757 392.456C274.099 392.456 274.099 400.708 268.757 400.708ZM286.952 298.22C281.611 298.22 281.611 289.968 286.952 289.968C292.294 289.968 292.294 298.22 286.952 298.22ZM336.197 414.571C330.855 414.571 330.855 406.319 336.197 406.319C341.539 406.319 341.539 414.571 336.197 414.571ZM381.602 294.094C376.26 294.094 376.26 285.842 381.602 285.842C386.943 285.842 386.943 294.094 381.602 294.094ZM401.633 209.926C396.291 209.926 396.291 201.674 401.633 201.674C406.975 201.674 406.975 209.926 401.633 209.926ZM417.325 374.632C411.983 374.632 411.983 366.38 417.325 366.38C422.666 366.38 422.666 374.632 417.325 374.632ZM458.222 275.115C452.881 275.115 452.881 266.863 458.222 266.863C463.564 266.863 463.564 275.115 458.222 275.115Z" fill="black"/>
<path d="M567.228 471.178C603.285 418.862 624.485 358.623 624.485 301.686C624.485 131.369 484.43 0 312.159 0C139.887 0 0 149.028 0 319.345C0 466.062 140.054 615.75 312.326 615.75C354.726 615.75 395.123 605.682 431.848 588.189C516.314 691.006 708.951 899.282 810.611 801.58C913.273 702.724 678.737 539.833 567.228 471.178ZM738.331 646.776C745.843 646.776 745.843 658.329 738.331 658.329C730.819 658.329 730.819 646.776 738.331 646.776ZM559.048 149.028C559.883 148.532 560.884 148.697 561.385 149.523C568.73 160.58 575.073 172.463 580.749 184.51C581.083 185.335 580.749 186.326 579.914 186.656C579.747 186.821 579.414 186.821 579.247 186.821C578.579 186.821 578.078 186.491 577.744 185.831C572.236 173.948 565.892 162.395 558.714 151.338C558.047 150.513 558.213 149.523 559.048 149.028ZM461.227 58.2577C461.728 57.4326 462.73 57.2675 463.564 57.5976C484.097 69.3152 503.127 83.6733 520.32 100.012C530.837 110.079 540.686 121.136 549.533 132.524C550.034 133.184 549.867 134.339 549.199 134.834C548.865 134.999 548.532 135.165 548.198 135.165C547.697 135.165 547.196 135 546.862 134.504C538.182 123.117 528.5 112.39 517.983 102.322C501.123 86.1488 482.26 72.1208 461.895 60.5682C461.06 60.0731 460.726 59.0829 461.227 58.2577ZM312.159 553.696C169.267 553.696 53.5845 451.539 53.5845 310.433C53.5845 169.327 169.434 52.9766 312.159 52.9766C454.884 52.9766 570.733 151.503 570.733 292.774C570.733 434.045 455.051 553.696 312.159 553.696ZM438.859 588.519C438.191 588.519 437.69 588.189 437.356 587.693C437.022 586.868 437.356 585.878 438.024 585.548C472.578 568.219 504.462 544.124 533.007 513.922C542.188 504.02 551.035 493.623 559.048 482.73C559.549 482.07 560.717 481.905 561.385 482.4C562.053 482.896 562.22 484.051 561.719 484.711C553.539 495.603 544.692 506.166 535.344 516.068C506.632 546.599 474.415 570.86 439.526 588.354C439.359 588.519 439.192 588.519 438.859 588.519ZM479.256 605.682C478.254 605.682 477.586 605.022 477.419 604.197C477.419 603.372 478.087 602.547 478.922 602.382C533.508 597.596 585.757 574.656 625.82 537.688C626.488 537.027 627.489 537.027 628.157 537.688C628.825 538.348 628.825 539.338 628.157 539.998C587.426 577.626 534.676 600.896 479.256 605.682ZM613.968 618.39C606.456 618.39 606.456 606.838 613.968 606.838C621.48 606.838 621.48 618.39 613.968 618.39ZM543.023 678.463C542.188 678.463 541.354 677.803 541.354 676.978C541.354 676.153 542.021 675.328 542.856 675.163C605.288 670.707 666.217 646.281 714.293 606.673C714.961 606.012 715.962 606.178 716.63 606.838C717.298 607.498 717.131 608.653 716.463 609.148C667.719 649.417 606.289 674.007 543.023 678.463ZM630.327 710.81C637.839 710.81 637.839 722.363 630.327 722.363C622.815 722.363 622.815 710.81 630.327 710.81ZM774.388 785.737C766.876 785.737 766.876 774.184 774.388 774.184C781.899 774.184 781.899 785.737 774.388 785.737ZM780.731 687.705C740 725.169 687.25 748.439 631.83 753.225H631.663C630.828 753.225 629.993 752.564 629.993 751.739C629.993 750.914 630.661 750.089 631.496 749.924C686.082 745.138 738.331 722.198 778.394 685.23C779.062 684.57 780.063 684.57 780.731 685.23C781.399 686.055 781.399 687.045 780.731 687.705ZM819.793 714.276C819.626 714.276 819.459 714.441 819.125 714.441C818.457 714.441 817.789 714.111 817.622 713.451C809.61 692.821 794.252 669.881 772.051 645.126C771.383 644.466 771.55 643.476 772.218 642.815C772.885 642.155 773.887 642.32 774.555 642.981C797.09 667.901 812.615 691.171 820.794 712.296C821.128 712.956 820.627 713.946 819.793 714.276ZM822.296 768.738C822.13 768.738 821.963 768.738 821.796 768.573C820.961 768.243 820.46 767.253 820.794 766.428C824.3 756.855 825.301 746.788 823.799 735.566C823.632 734.741 824.3 733.915 825.301 733.75C826.303 733.585 826.971 734.246 827.137 735.236C828.64 746.788 827.638 757.681 823.966 767.583C823.632 768.243 822.964 768.738 822.296 768.738Z" fill="black"/>
<path d="M237.04 144.076C249.56 138.135 254.401 122.457 244.385 114.865C234.703 107.604 228.193 122.457 228.026 123.777C226.858 122.952 211.166 117.836 210.332 129.718C209.33 142.096 224.187 149.193 237.04 144.076Z" fill="black"/>
<path d="M505.464 391.961C518.15 397.407 533.341 390.805 532.673 378.428C532.005 366.38 516.314 371.331 515.146 371.991C514.979 370.671 508.802 355.488 498.953 362.584C488.771 370.011 493.278 385.689 505.464 391.961Z" fill="black"/>
<path d="M161.588 400.047C151.906 392.786 145.396 407.639 145.229 408.959C144.06 408.134 128.369 403.018 127.534 414.901C126.533 427.278 141.557 434.375 154.243 429.094C166.763 423.318 171.604 407.639 161.588 400.047Z" fill="black"/>
<path d="M173.44 445.102C165.928 445.102 165.928 456.655 173.44 456.655C180.952 456.655 180.952 445.102 173.44 445.102Z" fill="black"/>
<path d="M102.495 380.738C94.9831 380.738 94.9831 392.291 102.495 392.291C110.007 392.291 110.007 380.738 102.495 380.738Z" fill="black"/>
<path d="M264.25 157.609C271.762 157.609 271.762 146.057 264.25 146.057C256.738 146.057 256.738 157.609 264.25 157.609Z" fill="black"/>
<path d="M515.146 334.033C522.657 334.033 522.657 322.48 515.146 322.48C507.634 322.48 507.634 334.033 515.146 334.033Z" fill="black"/>
<path d="M486.434 422.657C478.922 422.657 478.922 434.21 486.434 434.21C493.945 434.21 493.945 422.657 486.434 422.657Z" fill="black"/>
<path d="M419.829 129.223C427.34 129.223 427.34 117.671 419.829 117.671C412.317 117.671 412.317 129.223 419.829 129.223Z" fill="black"/>
<path d="M321.674 486.856C314.162 486.856 314.162 498.409 321.674 498.409C329.186 498.409 329.186 486.856 321.674 486.856Z" fill="black"/>
<path d="M188.464 123.282C195.976 123.282 195.976 111.729 188.464 111.729C180.952 111.729 180.952 123.282 188.464 123.282Z" fill="black"/>
<path d="M352.055 113.38C359.567 113.38 359.567 101.827 352.055 101.827C344.543 101.827 344.543 113.38 352.055 113.38Z" fill="black"/>
<path d="M268.59 496.263C261.078 496.263 261.078 507.816 268.59 507.816C276.102 507.816 276.102 496.263 268.59 496.263Z" fill="black"/>
</svg>
