<svg width="836" height="822" viewBox="0 0 836 822" fill="none" xmlns="http://www.w3.org/2000/svg">
<path d="M579.346 189.8C588.647 199.267 601.462 205.122 615.485 205.122C629.543 205.122 642.357 199.267 651.623 189.8L651.659 189.763C660.959 180.296 666.71 167.285 666.71 152.975L666.674 91.7566V52.1498C666.674 38.1285 661.172 25.4079 652.262 16.0123L651.623 15.3256C642.394 5.85783 629.543 0.00358645 615.449 0.00358645C601.427 0.00358645 588.612 5.85793 579.311 15.3256L579.275 15.3618C570.046 24.8296 564.295 37.8397 564.295 52.1506V152.972C564.295 167.283 570.046 180.292 579.275 189.761L579.346 189.8ZM585.594 52.149C585.594 43.7649 588.931 36.1395 594.327 30.647C599.794 25.154 607.249 21.721 615.449 21.721C623.685 21.721 631.175 25.154 636.571 30.647L637.068 31.1168C642.179 36.6098 645.339 44.0539 645.339 52.1488V69.4229C637.919 61.1473 627.234 55.9437 615.448 55.9437C603.662 55.9437 593.012 61.1476 585.593 69.4229L585.594 52.149ZM523.826 460.577C538.238 474.743 547.716 494.981 547.716 517.241C547.716 552.62 524.145 583.988 494.467 609.829C465.5 635.125 430.64 655.181 405.365 669.022C380.018 655.181 345.158 635.125 316.156 609.829C286.514 583.99 262.942 552.622 262.942 517.241C262.942 494.944 272.492 474.743 286.798 460.577C295.672 451.868 306.251 445.471 317.54 442.327C328.544 439.291 340.259 439.327 351.583 443.375C367.807 449.229 383.532 463.359 395.851 488.403C398.442 493.751 404.832 495.92 410.086 493.209C412.216 492.125 413.849 490.427 414.807 488.403C427.126 463.396 442.851 449.193 459.075 443.375C470.399 439.327 482.114 439.291 493.118 442.327C504.407 445.471 515.022 451.831 523.826 460.577ZM220.449 205.083C234.506 205.083 247.286 199.228 256.587 189.761L256.623 189.725C265.923 180.257 271.674 167.247 271.674 152.936L271.638 91.7539V52.147C271.638 37.8362 265.887 24.8269 256.587 15.3582L256.552 15.3221C247.251 5.85424 234.471 0 220.413 0C206.32 0 193.541 5.85434 184.239 15.3221C174.939 24.7899 169.188 37.8 169.188 52.147V152.968C169.188 167.315 174.939 180.324 184.276 189.793C193.611 199.225 206.391 205.083 220.449 205.083ZM190.523 52.149C190.523 50.6673 190.7 49.2579 190.878 47.8124C190.913 47.7763 190.913 47.6678 190.913 47.6317C190.913 47.451 190.949 47.2703 190.984 47.1258C191.233 45.6441 191.588 44.1625 192.014 42.7892C192.049 42.7531 192.049 42.7169 192.049 42.7169C192.262 41.9942 192.511 41.2714 192.83 40.6209V40.5848C193.114 39.9343 193.434 39.2838 193.718 38.6333C193.718 38.5972 193.753 38.5972 193.753 38.5611V38.4888C193.753 38.4888 193.753 38.4526 193.789 38.4526C194.144 37.8022 194.463 37.1517 194.854 36.5012V36.465C194.854 36.465 194.925 36.4289 194.925 36.3928C196.202 34.2968 197.658 32.4176 199.326 30.7191C204.722 25.2261 212.177 21.793 220.413 21.793C221.726 21.793 223.04 21.9376 224.318 22.0821H224.46C224.673 22.1183 224.921 22.1544 225.134 22.2267H225.276C225.88 22.3713 226.483 22.4435 227.051 22.5881C227.087 22.6242 227.087 22.6242 227.122 22.6242C227.69 22.7688 228.223 22.8772 228.791 23.0579C228.826 23.094 228.933 23.094 228.968 23.094C229.607 23.3108 230.246 23.4915 230.885 23.7445C230.885 23.7445 230.921 23.7445 230.921 23.7806C231.524 23.9975 232.163 24.2504 232.766 24.5757C232.837 24.6118 232.908 24.6118 232.979 24.6479H233.015C233.157 24.7202 233.299 24.7925 233.441 24.9009C234.47 25.3707 235.535 25.9489 236.494 26.5994C238.269 27.828 239.973 29.1651 241.535 30.7191C243.026 32.2369 244.375 33.9715 245.546 35.7784C246.256 36.8987 246.895 38.1274 247.463 39.3199V39.3561C247.534 39.3922 247.57 39.4284 247.605 39.5368V39.5729C248.173 40.8016 248.635 41.9942 249.025 43.2951C249.025 43.3312 249.061 43.3674 249.061 43.4396C249.061 43.4758 249.061 43.5119 249.096 43.5842C249.451 44.7406 249.7 46.0054 249.913 47.2341V47.3064C249.948 47.5594 249.984 47.8123 250.055 48.0653V48.1376C250.232 49.4385 250.339 50.7757 250.339 52.1128V69.3869C242.919 61.1113 232.234 55.9077 220.448 55.9077C208.662 55.9077 198.012 61.1115 190.557 69.3869L190.523 52.149ZM816.624 111.379C804.732 99.2364 788.296 91.7197 770.227 91.7197H687.975V152.938C687.975 172.597 680.449 191.063 666.712 205.049C653.009 218.998 634.798 226.732 615.451 226.732C596.14 226.732 578 219.071 564.262 205.086L563.907 204.688C550.523 190.991 542.997 172.525 542.997 152.902V91.7561H292.938V152.974C292.938 172.633 285.413 191.1 271.675 205.085C257.866 219.106 239.726 226.768 220.414 226.768C201.103 226.768 182.963 219.107 169.225 205.122C155.522 191.209 147.925 172.634 147.925 152.939V91.757H65.7088C57.828 91.757 50.2315 93.2025 43.2021 95.8406C40.1847 96.9248 37.2738 98.2619 34.4693 99.8881L34.4338 99.8519C30.7419 101.876 27.2275 104.333 23.9974 107.043C22.329 108.38 20.8025 109.826 19.3115 111.38H19.276V111.416C17.004 113.657 14.9805 116.114 13.0637 118.644C11.8212 120.378 10.6498 122.149 9.5138 124.028C8.59085 125.546 7.73887 127.136 6.92234 128.762C5.8219 130.967 4.82788 133.316 3.9759 135.665C3.58541 136.713 3.26593 137.761 2.94644 138.773C2.37845 140.652 1.91697 142.531 1.49094 144.446C0.49692 149.036 0 153.806 0 158.685V755.072C0 773.467 7.41934 790.199 19.3115 802.305C31.2392 814.447 47.6753 822 65.7445 822H770.255C788.325 822 804.761 814.447 816.653 802.305C828.581 790.199 836 773.467 836 755.072L835.929 158.648C835.929 140.217 828.552 123.485 816.624 111.379ZM508.313 626.271C475.76 654.639 436.817 676.431 410.337 690.814C407.107 692.549 403.344 692.404 400.326 690.814C373.844 676.467 334.902 654.639 302.351 626.271C268.52 596.782 241.648 560.211 241.648 517.244C241.648 488.84 253.753 463.073 272.035 445.076C283.36 433.838 297.168 425.598 312.007 421.478C327.058 417.286 343.104 417.358 358.688 422.96C375.586 429.031 391.844 441.534 405.369 462.025C418.859 441.498 435.117 429.031 452.015 422.96C467.599 417.358 483.68 417.286 498.696 421.478C513.535 425.598 527.308 433.837 538.668 445.076C556.95 463.073 569.055 488.84 569.055 517.244C569.02 560.212 542.144 596.784 508.313 626.271ZM814.598 353.246C814.598 340.814 809.628 329.467 801.569 321.3C793.511 313.133 782.4 308.001 770.224 308.001H65.713C62.4826 308.001 59.3942 308.471 56.3772 309.121V743.212C56.3772 743.212 54.9572 783.471 86.1605 800.275H65.713C53.5009 800.275 42.4256 795.143 34.3675 786.976C26.3092 778.773 21.3039 767.461 21.3039 755.066V158.642C21.3039 146.21 26.2738 134.863 34.3321 126.696C35.3615 125.648 36.4265 124.672 37.527 123.733C39.16 122.36 40.8993 121.095 42.7098 119.974C49.4547 115.819 57.3357 113.433 65.7128 113.433H111.471C81.1556 113.433 56.3769 138.622 56.3769 169.52V287.039C59.4298 286.533 62.5538 286.317 65.7128 286.317H770.224C787.299 286.317 802.883 293.038 814.597 304.025L814.598 353.246Z" fill="black"/>
</svg>
