<svg width="923" height="745" viewBox="0 0 923 745" fill="none" xmlns="http://www.w3.org/2000/svg">
<path d="M837.984 659.056H85.0206C78.32 659.056 72.8618 652.617 72.8618 644.713V601.736H765.128C785.185 601.736 801.56 582.42 801.56 558.759V85.9615H837.992C844.693 85.9615 850.151 92.4003 850.151 100.305V644.717C850.151 652.621 844.684 659.056 837.984 659.056ZM910.849 171.906H874.417V644.703C874.417 668.364 858.043 687.68 837.985 687.68H145.719V730.657C145.719 738.561 151.177 745 157.878 745H910.841C917.542 745 923 738.561 923 730.657V186.245C923 178.34 917.55 171.906 910.849 171.906ZM194.318 272.203C187.617 272.203 182.159 278.642 182.159 286.547C182.159 294.451 187.617 300.889 194.318 300.889C201.019 300.889 206.477 294.451 206.477 286.547C206.477 278.642 201.019 272.203 194.318 272.203ZM441.14 202.058C426.186 197.765 410.743 202.948 399.871 215.983L397.297 219.071C392.727 224.568 384.517 224.568 379.947 219.071L377.373 215.983C369.03 205.984 357.981 200.541 346.533 200.541C343.071 200.541 339.61 201.012 336.149 202.007C321.504 206.194 310.144 218.914 305.707 235.927C300.692 256.133 305.662 277.072 318.133 290.577L388.645 367.267L459.158 290.577C471.584 277.072 476.598 256.081 471.894 237.235C467.145 218.861 455.785 206.193 441.142 201.953L441.14 202.058ZM582.961 272.203C576.26 272.203 570.802 278.642 570.802 286.547C570.802 294.451 576.26 300.889 582.961 300.889C589.661 300.889 595.119 294.451 595.119 286.547C595.119 278.642 589.661 272.203 582.961 272.203ZM692.258 199.702V373.391C648.37 379.882 613.491 421.027 607.988 472.799H169.247C163.745 421.027 128.865 379.883 84.9774 373.391V199.702C128.865 193.211 163.744 152.066 169.247 100.294H607.988C613.491 152.066 648.37 193.21 692.258 199.702ZM230.751 286.547C230.751 262.834 214.421 243.57 194.319 243.57C174.217 243.57 157.887 262.834 157.887 286.547C157.887 310.259 174.217 329.523 194.319 329.523C214.421 329.523 230.751 310.259 230.751 286.547ZM495.227 229.227C495.183 229.174 494.828 227.604 494.783 227.552C487.816 200.75 469.933 180.805 446.903 174.209C426.179 168.189 404.923 173.948 388.637 189.39C372.307 173.896 351.096 168.19 330.372 174.209C307.342 180.857 289.457 200.802 282.491 227.552C282.491 227.604 282.092 229.174 282.048 229.227C274.77 258.437 282.491 290.84 301.662 311.725L380.385 397.365C382.692 399.878 385.665 401.134 388.594 401.134C391.567 401.134 394.496 399.878 396.804 397.365L475.526 311.725C494.697 290.839 502.418 258.488 495.141 229.227H495.227ZM619.394 286.547C619.394 262.834 603.064 243.57 582.962 243.57C562.86 243.57 546.53 262.834 546.53 286.547C546.53 310.259 562.86 329.523 582.962 329.523C603.064 329.523 619.394 310.259 619.394 286.547ZM765.122 573.098H12.1588C5.45811 573.098 0 566.712 0 558.755V14.343C0 6.43859 5.4138 0 12.1588 0H765.122C771.823 0 777.281 6.38633 777.281 14.343V558.755C777.281 566.66 771.867 573.098 765.122 573.098ZM716.531 186.254C716.531 178.35 711.117 171.911 704.372 171.911C664.168 171.911 631.507 133.331 631.507 85.9562C631.507 78.0518 626.093 71.6132 619.348 71.6132L157.887 71.6655C151.186 71.6655 145.728 78.0519 145.728 86.0085C145.728 133.436 113.023 171.963 72.863 171.963C66.1623 171.963 60.7042 178.35 60.7042 186.306V386.905C60.7042 394.809 66.118 401.248 72.863 401.248C113.068 401.248 145.728 439.828 145.728 487.203C145.728 495.107 151.142 501.546 157.887 501.546H619.394C626.095 501.546 631.553 495.159 631.553 487.203C631.553 439.775 664.257 401.248 704.418 401.248C711.119 401.248 716.577 394.861 716.577 386.905V186.306L716.531 186.254Z" fill="black"/>
</svg>
