<svg width="799" height="809" viewBox="0 0 799 809" fill="none" xmlns="http://www.w3.org/2000/svg">
<path d="M786.942 604.458L749.036 577.039L750.468 573.211C757.043 554.797 754.215 535.947 742.534 523.441C651.992 428.933 265.03 6.41511 249.825 1.42135C231.863 -3.86559 209.09 6.5989 193.149 16.3345C168.502 31.2476 152.451 54.3271 146.316 78.72C142.019 95.8565 142.129 107.561 154.14 120.395C225.178 198.35 402.921 393.166 420.364 412.273C316.815 359.95 242.182 322.25 131.431 266.278C126.987 265.986 103.699 241.156 49.9974 276.706L49.9607 276.669C33.6151 286.988 20.3189 302.047 18.4815 305.328C14.588 309.229 3.97239 326.804 1.80589 335.446C-3.44665 353.312 3.60575 365.563 12.0911 369.756L516.451 626.369C530.225 648.173 555.276 660.534 581.062 659.294C613.495 674.352 618.895 682.228 638.179 682.228C651.696 682.228 664.699 677.852 676.453 671.034L707.784 694.369C713.404 698.526 720.126 700.641 726.921 700.641C738.161 700.641 746.426 694.953 757.335 687.077C744.773 730.43 718.988 757.12 690.374 769.225C620.842 798.723 493.753 755.916 429.435 734.477C373.126 715.7 268.884 680.477 205.084 691.416C201.631 670.268 193.954 650.506 180.62 633.15C189.509 620.17 191.787 605.477 188.628 591.657C182.971 566.864 163.503 557.894 162.218 556.764L112.667 525.772C110.39 524.35 106.827 524.86 88.9761 523.584L52.392 502.619C44.3846 497.988 34.2833 500.978 30.096 508.525L27.8921 512.281C23.3741 520.229 26.0188 529.964 33.8793 534.486L63.9987 551.805L55.9179 564.53L30.4634 550.019C22.0887 544.987 9.74718 548.232 4.86128 556.837C-0.134181 565.624 2.95129 576.927 11.7668 582.104L51.0694 604.564C51.4 605.84 53.2733 613.096 52.9427 611.82V611.856C54.4487 615.211 54.265 613.971 55.6608 615.576L108.003 648.318C128.316 661.007 154.505 658.673 172.209 642.848C183.412 658.235 189.877 675.7 192.815 694.332C188.995 695.462 185.212 696.884 181.392 698.598C136.727 719.198 123.797 773.672 136.947 796.055C142.053 804.478 151.639 809.984 161.263 808.853C181.171 806.447 212.834 769.73 206.662 703.844C267.195 693.052 372.723 728.748 425.437 746.322C493.757 769.11 621.137 812.135 695.263 780.742C731.737 765.319 762.48 730.316 773.647 673.287C784.152 662.714 792.16 650.827 797.338 637.701C801.746 626.726 797.081 611.814 786.943 604.448L786.942 604.458ZM38.8036 518.483C40.4933 516.222 41.081 512.868 44.2398 512.868C46.1131 512.868 44.7541 512.758 83.9468 535.109H83.9835L87.3995 537.041L81.3756 547.324L40.2732 523.66C38.3265 522.603 37.7384 520.342 38.8036 518.483ZM21.1726 559.939C24.0377 559.939 22.3848 560.012 63.4504 583.238C62.7158 584.478 56.5816 594.942 57.3163 593.702L18.1237 571.352C12.8344 568.253 14.6711 559.939 21.1726 559.939ZM114.727 637.747L67.711 608.323C68.5191 607.011 114.103 535.219 111.311 539.63L158.327 569.054C177.464 581.013 183.194 606.062 171.11 625.059C159.099 643.982 133.79 649.67 114.727 637.747ZM159.797 796.465C132.909 799.053 140.146 724.709 194.398 706.842C198.548 758.071 175.665 794.532 159.797 796.465ZM733.91 532.449C748.566 548.164 739.346 570.587 729.98 589.949C715.03 620.796 702.652 633.047 690.75 643.766C689.171 639.901 695.819 649.053 643 590.24C639.657 567.561 622.725 545.429 594.404 536.606L310.07 223.763C310.29 223.545 310.584 223.435 310.768 223.18C344.964 176.911 382.908 164.44 386.177 160.466C529.764 314.078 728.841 527.119 733.91 532.449ZM513.263 566.067L299.999 461.207C311.092 453.004 331.918 436.049 373.167 402.395L444.059 438.2L444.793 439.002C462.939 458.983 519.982 521.368 538.201 541.313C526.3 547.585 518.478 556.296 513.263 566.067ZM120.755 345.912C123.436 330.38 126.485 314.993 129.901 300.227C130.672 296.836 134.088 294.684 137.541 295.414C140.957 296.179 143.124 299.57 142.389 302.998C138.973 317.655 135.888 332.787 133.243 348.064C132.729 351.09 130.048 353.351 126.999 353.351C123.362 353.387 120.02 349.887 120.755 345.912ZM198.699 322.322C195.393 337.089 192.344 352.22 189.663 367.388C189.149 370.561 186.467 372.675 183.418 372.675C183.051 372.675 182.647 372.675 182.39 372.566C178.827 371.946 176.55 368.665 177.174 365.237C179.855 349.851 182.904 334.427 186.32 319.551C187.092 316.16 190.508 314.009 193.96 314.738C197.413 315.504 199.58 318.931 198.699 322.322ZM334.058 382.629L360.982 396.229C334.095 418.143 297.474 447.676 287.446 455.041C286.161 454.422 257.51 440.275 259.273 441.149C266.215 435.06 232.459 462.078 334.058 382.629ZM377.731 151.423C348.163 165.753 321.936 187.556 301.698 214.538L262.799 171.769C263.901 171.368 264.93 170.748 265.701 169.727C284.618 144.131 310.33 122.655 338.172 109.128C342.322 113.54 375.565 149.09 377.731 151.423ZM199.691 26.9433C218.865 15.2392 235.835 10.28 246.046 13.307C251.739 15.203 253.245 18.3752 329.316 99.684C300.629 114.269 275.174 135.817 255.559 162.361C255.339 162.652 255.265 163.017 255.118 163.309L165.237 64.3858C172.73 49.2542 184.704 35.9852 199.691 26.9433ZM14.5321 355.355C10.4182 348.901 13.2098 338.655 16.6258 331.838C16.8829 331.254 17.2135 330.78 17.4706 330.233L242.668 446.947L284.836 467.694L284.946 467.803C285.02 467.84 285.056 467.84 285.13 467.876L508.381 577.664C505.479 587.764 505.553 598.629 508.087 608.255C-16.7628 340.478 17.5035 360.059 14.5321 355.355ZM564.178 546.051C610.202 540.071 648.329 585.137 623.131 624.807C621.883 625.938 609.834 645.335 582.139 646.794C580.817 646.648 561.239 649.674 541.183 635.017C503.277 607.27 515.216 552.431 564.178 546.051ZM623.095 666.704L601.387 655.692C611.745 652.192 620.927 645.957 627.062 639.649C627.797 640.269 629.266 641.581 630.074 642.128L630.037 642.201C637.971 649.275 648.66 659.083 655.528 666.922C643.333 670.786 631.396 670.824 623.095 666.704Z" fill="black"/>
<path d="M593.443 574.16C578.713 563.404 557.593 565.263 546.39 578.353C529.09 598.589 545.655 629.836 574.526 629.836C606.262 629.836 618.935 592.791 593.443 574.16Z" fill="black"/>
<path d="M391.198 224.672C375.367 214.754 363.76 219.895 362.658 229.266C359.278 257.924 407.764 268.425 424.403 266.566C427.929 266.165 429.472 261.826 429.876 258.289C431.859 241.262 427.488 215.593 415.44 203.742C406.147 194.627 390.61 193.679 387.855 206.513C386.716 211.983 388.26 218.583 391.198 224.672Z" fill="black"/>
</svg>
