<svg width="815" height="826" viewBox="0 0 815 826" fill="none" xmlns="http://www.w3.org/2000/svg">
<path d="M187.32 377.543C241.784 300.685 247.601 244.285 232.512 208.732C223.729 187.986 207.964 174.205 190.134 167.205C172.305 160.168 152.336 160.058 135.258 166.804C116.79 174.023 101.739 188.935 96.0711 211.285C74.3758 202.06 53.0178 204.649 35.8646 214.42C19.9501 223.535 7.90038 238.921 2.75857 257.006C-2.38381 274.944 -0.69463 295.507 10.8662 314.904C30.7224 348.228 80.4944 378.089 176.699 382.865C181.128 383.12 185.105 380.934 187.32 377.543ZM105.605 349.542C103.766 349.068 102.002 348.594 100.238 348.047C99.0366 347.755 97.8354 347.354 96.6343 346.99C94.9827 346.479 93.4062 345.932 91.8298 345.422C89.4275 344.62 87.1003 343.818 84.8107 342.943C83.4969 342.469 82.2583 341.922 81.0196 341.448C76.5154 339.625 72.2738 337.692 68.3702 335.614C67.1691 334.994 65.9304 334.338 64.8044 333.718C63.4907 332.989 62.2521 332.223 60.9758 331.494C59.8122 330.801 58.6861 330.109 57.5601 329.343C54.2569 327.192 51.2166 324.968 48.4014 322.634C47.6507 322.015 46.9 321.395 46.1868 320.738C44.798 319.572 43.4467 318.296 42.1705 317.02C41.4948 316.363 40.8193 315.67 40.2187 315.014C38.7923 313.483 37.4411 311.915 36.1648 310.274C35.4892 309.472 34.8887 308.67 34.3631 307.868C33.7626 307.066 33.2371 306.3 32.7491 305.498C58.8742 321.285 98.5115 333.025 155.678 335.869C193.251 282.893 206.801 240.749 206.2 209.21C207.064 210.486 207.814 211.799 208.49 213.184C209.203 214.533 209.879 215.955 210.517 217.413C222.678 246.035 217.048 292.849 171.255 359.39C145.543 357.858 123.847 354.391 105.605 349.542ZM278.309 175.626C351.428 157.687 385.017 127.097 395.155 98.2205C401.161 81.1574 399.171 64.6768 392.19 51.2231C385.208 37.6966 373.084 27.3417 359.046 22.5656C344.595 17.6799 328.23 18.5549 313.141 27.67C304.808 12.3934 291.07 3.75222 276.018 0.944622C261.38 -1.7534 245.577 1.38215 232.59 9.65854C219.602 17.935 209.393 31.2793 205.789 48.9986C199.709 78.7864 212.959 121.372 266.634 172.195C269.449 175.221 273.918 176.683 278.309 175.626ZM255.525 125.748C254.774 124.8 253.986 123.815 253.273 122.867C252.334 121.628 251.433 120.388 250.532 119.148C249.894 118.273 249.294 117.435 248.693 116.56C247.83 115.32 246.967 114.081 246.178 112.877C245.653 112.075 245.165 111.31 244.677 110.544C243.889 109.304 243.1 108.065 242.35 106.825C242.012 106.242 241.674 105.658 241.336 105.075C239.872 102.559 238.559 100.043 237.357 97.6371C237.095 97.0902 236.794 96.5432 236.532 95.9964C236.006 94.8661 235.518 93.7723 235.03 92.642C234.692 91.9128 234.392 91.1471 234.092 90.4179C233.679 89.397 233.266 88.3762 232.891 87.3553C232.59 86.5897 232.328 85.7875 232.065 85.0219C231.727 84.074 231.427 83.126 231.127 82.178C230.864 81.3394 230.676 80.5373 230.451 79.6987C230.226 78.8601 229.963 77.9851 229.775 77.1464C229.438 75.6151 229.137 74.1202 228.874 72.6253C228.762 71.9326 228.687 71.2763 228.612 70.5836C228.499 69.6721 228.387 68.797 228.311 67.922C228.274 67.2657 228.274 66.6094 228.236 65.9167C228.199 65.0781 228.161 64.2395 228.161 63.4374C228.161 62.7812 228.161 62.1249 228.199 61.5051C228.236 60.6665 228.274 59.8644 228.349 59.0622C228.387 58.4789 228.424 57.859 228.499 57.3122C228.612 56.3642 228.762 55.4527 228.912 54.5776C228.987 54.213 229.025 53.812 229.1 53.4474C229.25 52.6818 229.475 51.9525 229.663 51.2234C236.982 72.7713 253.76 98.2936 284.202 127.06C328.569 116.195 357.208 100.809 374.324 84.3657C373.949 86.5169 373.423 88.668 372.673 90.8556C365.053 112.513 338.253 135.956 278.947 151.634C271.064 143.905 264.233 136.467 258.378 129.357C257.364 128.118 256.463 126.951 255.525 125.748ZM814.916 104.965C814.916 104.017 814.766 102.996 814.503 101.975C812.851 95.8501 806.32 92.1675 799.939 93.8448L292.053 226.011C286.648 227.105 282.594 231.735 282.594 237.35V604.578C278.991 604.578 275.35 604.724 271.634 604.87C263.601 605.307 255.606 606.109 247.574 607.276C203.432 613.802 163.345 631.157 134.254 653.908C103.926 677.608 85.1577 707.468 85.1577 737.767C85.1577 741.522 85.4579 745.205 86.0585 748.851C89.812 772.769 105.427 792.421 129.074 805.947C151.52 818.708 181.174 826 214.617 826C226.329 826 238.565 825.125 251.139 823.229C295.281 816.703 335.368 799.348 364.459 776.597C394.787 752.897 413.555 723.036 413.555 692.738C413.555 690.55 413.405 688.144 413.142 685.519L412.955 683.915C413.33 682.785 413.555 681.545 413.555 680.342L413.593 448.015L684.001 377.646V487.645C680.398 487.645 676.719 487.791 673.041 487.937C665.008 488.374 656.976 489.176 648.981 490.343C604.839 496.869 564.752 514.224 535.661 537.012C505.333 560.675 486.565 590.535 486.565 620.834C486.565 624.589 486.865 628.272 487.428 631.918C491.219 655.836 506.796 675.488 530.482 689.014C552.852 701.775 582.581 709.067 616.024 709.067C627.736 709.067 639.934 708.192 652.546 706.296C696.688 699.77 736.776 682.415 765.866 659.664C796.194 635.964 814.962 606.103 814.962 575.805L815 104.963L814.916 104.965ZM291.52 627.843C256.65 635.828 140.178 667.621 130.982 737.329C127.641 762.668 136.987 779.476 151.401 790.743C153.015 791.436 154.479 792.274 156.206 792.894C154.967 792.42 153.578 792.019 152.377 791.509C152.039 791.253 151.776 790.962 151.439 790.707C147.985 789.212 144.307 787.863 141.191 786.076C133.947 781.956 127.829 777.107 122.875 771.71C123.625 772.513 124.338 773.315 125.127 774.08C124.339 773.315 123.588 772.513 122.837 771.674L122.875 771.71C122.837 771.674 122.837 771.674 122.8 771.638C122.312 771.127 121.861 770.58 121.373 770.033C120.36 768.867 119.421 767.663 118.558 766.46C117.958 765.658 117.357 764.82 116.831 763.981C116.344 763.215 115.893 762.413 115.443 761.647C114.917 760.736 114.467 759.825 113.979 758.913C113.603 758.147 113.228 757.345 112.853 756.543C112.29 755.194 111.764 753.845 111.314 752.46C111.126 751.84 110.938 751.183 110.751 750.527C110.375 749.105 110.038 747.647 109.775 746.188C109.737 745.933 109.662 745.678 109.625 745.423C109.512 744.657 109.437 743.855 109.362 743.089C109.174 741.376 109.062 739.626 109.062 737.766C109.062 714.797 124.377 691.243 149.187 671.883C175.161 651.538 211.27 636.006 251.206 630.099C255.561 629.443 259.727 629.005 263.856 628.604C261.904 628.787 259.952 629.005 258 629.224C260.29 628.932 262.542 628.714 264.757 628.495L263.856 628.604C264.269 628.568 264.644 628.495 265.057 628.458C267.009 628.276 268.923 628.13 270.837 628.021C271.513 627.984 272.226 627.912 272.902 627.875C273.915 627.839 274.891 627.839 275.905 627.766C281.197 627.62 286.416 627.661 291.52 627.843C291.595 627.843 291.669 627.802 291.745 627.802C292.495 627.839 293.246 627.802 293.997 627.875C293.171 627.802 292.308 627.88 291.52 627.843ZM413.584 363.977V321.283L683.992 250.878V293.609L413.584 363.977ZM535.35 599.179C519.623 624.629 520.974 644.718 529.645 660.177C519.547 651.463 512.979 640.854 510.99 628.858C510.99 628.749 510.952 628.676 510.914 628.566C510.839 628.202 510.839 627.801 510.802 627.436C510.839 627.801 510.877 628.202 510.914 628.566C510.764 627.436 510.614 626.269 510.502 625.066C510.577 625.868 510.689 626.67 510.764 627.436C510.652 626.488 510.539 625.577 510.464 624.592C510.389 623.389 510.314 622.149 510.314 620.91C510.314 619.269 510.389 617.628 510.539 615.988C510.577 615.769 510.614 615.55 510.614 615.331C510.764 613.946 510.952 612.56 511.215 611.138C511.29 610.81 511.365 610.482 511.402 610.154C511.665 608.841 511.965 607.529 512.341 606.18C512.416 605.888 512.491 605.56 512.604 605.268C513.016 603.846 513.467 602.424 513.992 601.002C514.067 600.857 514.105 600.674 514.18 600.529C515.156 597.976 516.395 595.424 517.708 592.908C516.432 595.388 515.194 597.867 514.255 600.383C515.381 597.356 516.845 594.33 518.459 591.341C518.196 591.851 518.009 592.398 517.746 592.908C518.121 592.143 518.384 591.377 518.834 590.611C520.636 587.33 522.701 584.122 524.99 580.913C531.596 571.798 540.229 563.047 550.514 555.026C576.488 534.682 612.597 519.149 652.533 513.243C657.263 512.514 661.804 512.04 666.309 511.638C668.974 511.383 671.639 511.165 674.229 511.019H674.604H674.191C676.706 510.909 679.146 510.873 681.623 510.836C679.296 510.873 676.969 510.909 674.566 511.019C681.661 510.691 688.567 510.618 695.248 510.982H695.436H695.924C677.456 513.607 577.543 530.853 535.35 599.179ZM791.153 120.02V133.329L316.446 255.946L306.424 427.24L306.386 246.211L791.115 120.019L471.806 203.147L791.153 120.02Z" fill="black"/>
</svg>
