<svg width="773" height="803" viewBox="0 0 773 803" fill="none" xmlns="http://www.w3.org/2000/svg">
<path d="M66.5398 355.303L187.974 749.782C190.989 759.373 198.282 766.901 207.959 770.484L290.987 800.921C299.473 804.033 308.814 803.635 316.592 799.835L606.582 666.69C621.543 659.741 628.837 643.528 623.887 628.183C484.77 206.234 502.377 242.422 493.821 236.669C426.833 218.247 429.81 219.189 429.066 218.863C421.548 210.647 408.262 209.562 396.948 210.213L386.863 207.463L439.895 73.9931C446.557 56.8383 452.735 69.9397 370.487 3.99987C364.979 -0.415395 357.276 -1.24784 350.949 1.86459L55.1948 142.468C46.1886 146.666 54.376 132.986 1.41827 258.316C-1.11236 264.143 -0.219276 270.911 3.80008 276.014C64.1266 350.241 59.9956 346.947 64.7592 350.169C64.5731 352.123 65.1256 354 66.5398 355.303ZM133.379 212.819L312.539 129.037L375.62 201.563C374.54 203.409 374.54 206.413 371.489 208.005L338.553 223.893L234.611 270.361C208.001 210.068 216.747 229.828 214.701 225.231C213.287 223.024 213.473 220.925 209.937 219.513C190.213 203.951 137.366 225.774 134.278 250.42C131.859 254.763 135.282 257.441 138.074 265.077C138.036 267.827 138.036 265.909 155.826 305.502L83.1434 337.929L133.379 212.819ZM153.662 269.132C173.684 271.195 198.395 259.759 209.523 246.296L227.722 286.323C228.28 287.589 252.321 341.731 250.796 338.329C232.635 354.434 214.585 362.36 195.865 362.36H195.679L171.006 308.328C170.485 307.097 152.545 266.563 153.662 269.132ZM280.603 288.277C279.821 287.77 279.337 287.082 279.114 285.852V285.309C279.896 280.749 289.981 272.787 307.063 269.675C315.995 267.937 332.184 267.503 338.659 273.547C339.143 275.61 338.957 274.162 339.217 276.008C335.421 289.797 294.223 299.062 280.603 288.277ZM282.352 302.934C299.843 308.58 327.271 303.73 341.897 292.402L344.837 306.698C333.561 312.127 302.746 326.929 288.418 333.769L282.352 302.934ZM201.482 228.562L203.156 232.29C202.3 237.32 194.076 246.223 179.561 252.304C165.643 258.13 153.808 258.022 149.007 255.488C148.896 255.452 148.821 255.38 148.71 255.344C139.182 249.77 166.425 226.608 192.14 226.608C196.42 226.644 199.621 227.404 201.482 228.562ZM424.143 245.391L429.093 266.092C424.254 268.408 448.11 256.972 372.785 293.127L364.895 257.841C383.317 263.269 410.112 257.153 424.143 245.391ZM380.861 188.427L324.404 123.5L425.44 76.2347L380.861 188.427ZM212.457 758.901C206.503 756.693 201.999 752.061 200.138 746.198L81.7909 361.78C84.7309 362.83 177.997 395.039 179.369 395.51L294.067 788.831L212.457 758.901ZM601.14 655.542C291.876 797.443 310.673 789.197 307.51 790.031C306.915 787.172 308.143 792.094 192.145 393.995C193.634 393.271 335.168 325.124 333.491 325.956C351.54 317.27 346.07 319.912 354.816 315.714C356.863 314.737 372.494 307.173 371.079 307.86C375.545 305.689 424.744 282.02 488.274 251.402L611.756 631.947C614.845 641.32 610.342 651.272 601.149 655.544L601.14 655.542ZM419.903 227.005L420.722 230.335C416.814 242.351 379.784 253.063 364.526 244.232C364.005 243.509 363.336 242.893 362.517 242.459C362.368 242.387 362.182 242.387 362.033 242.314C361.698 241.808 361.4 241.156 361.289 240.215C361.959 234.642 378.073 222.481 402.747 222.337C411.642 222.337 417.856 224.581 419.903 227.005ZM362.517 13.6265L425.188 62.6654L129.253 201.064L65.6137 151.265C372.048 7.01141 357.385 9.50366 362.521 13.6358L362.517 13.6265ZM13.1338 263.055L56.4904 160.021L120.762 210.29L69.6647 337.682C13.5063 266.386 10.752 268.593 13.1338 263.055Z" fill="black"/>
<path d="M687.592 512.222C693.026 523.08 704.674 528.979 715.914 527.531C735.378 525.214 752.013 517.47 765.299 504.549C773.375 496.696 775.31 484.427 770.1 474.04C562.139 53.2116 576.354 81.9882 573 80.7931C551.453 65.4115 496.56 90.6731 494.586 116.947C492.465 121.218 500.02 133.631 499.424 132.365C499.536 134.5 486.403 107.355 687.592 512.222ZM756.292 495.792C744.904 506.866 731.171 513.236 714.313 515.227C707.986 515.987 701.883 512.621 699.017 506.831L569.618 245.645C590.347 243.727 609.812 234.245 628.642 216.873L758.67 479.402C761.461 485.012 760.497 491.739 756.292 495.792ZM531.401 94.6144C549.675 86.1457 564.561 87.4124 566.98 92.7686C566.98 92.8772 567.017 92.9496 567.054 93.0582C567.054 93.1306 567.017 93.2029 567.017 93.2753C568.171 107.245 527.159 129.393 510.077 121.939L510.002 121.903C509.109 121.541 507.955 120.853 507.397 119.876C507.36 119.804 507.323 119.695 507.286 119.587C505.35 114.918 513.576 103.046 531.401 94.6144Z" fill="black"/>
<path d="M479.565 385.877L277.482 475.847C269.667 479.213 265.685 487.718 268.104 495.571L292.48 577.182C295.42 586.917 306.734 591.911 316.224 587.533L519.088 495.789C526.903 492.279 530.774 483.81 528.317 475.812L503.048 396.084C499.959 386.493 488.905 381.752 479.565 385.877ZM386.414 512.76C386.116 515.944 384.963 520.324 381.911 521.482C367.657 528.105 325.454 533.461 327.241 507.765C327.911 498.898 337.736 491.551 351.766 495.279C337.028 472.479 369.22 453.876 381.017 481.418C385.483 490.935 387.158 502.3 386.414 512.76ZM430.031 514.135C425.565 515.003 418.977 515.04 416.187 511.638C401.56 495.424 377.818 442.26 414.251 434.768C426.644 432.199 440.6 442.368 440.935 461.984C453.366 448.303 471.787 448.774 479.417 459.378C498.136 484.169 460.622 507.656 430.031 514.135Z" fill="black"/>
</svg>
