<svg width="698" height="799" viewBox="0 0 698 799" fill="none" xmlns="http://www.w3.org/2000/svg">
<path d="M660.772 566.889H37.2281C16.6676 566.889 0 586.267 0 610.171C0 634.074 16.6676 653.452 37.2281 653.452H660.772C681.332 653.452 698 634.074 698 610.171C698 586.267 681.332 566.889 660.772 566.889Z" fill="black"/>
<path d="M363.796 317.151V541.955H652.71V317.151C652.71 225.084 588.483 149.203 508.253 149.203C428.393 149.203 363.796 224.43 363.796 317.151ZM437.421 315.152C466.657 285.661 494.71 309.029 504.491 319.4C506.64 321.649 509.758 321.649 511.907 319.4C521.796 309.153 549.849 285.661 579.191 315.152C613.263 349.765 581.771 437.114 523.623 470.728C513.841 476.351 502.556 476.351 492.883 470.728C434.734 437.114 403.242 349.765 437.421 315.152Z" fill="black"/>
<path d="M342.299 317.151C342.299 245.173 376.371 182.318 426.781 149.203C199.056 149.34 196.167 148.708 182.364 149.488V116.089H268.566C283.613 116.089 295.759 101.843 295.759 84.3486V31.6155C295.759 14.2457 283.613 0 268.566 0H171.616C165.705 0 160.868 5.62339 160.868 12.4961V247.673H139.371V159.575C84.4474 183.443 45.3234 245.049 45.3234 317.151V541.955H342.299V317.151Z" fill="black"/>
<path d="M433.015 678.413H324.887V799H433.015V678.413Z" fill="black"/>
<path d="M303.39 678.413H229.764V799H303.39V678.413Z" fill="black"/>
</svg>
