<svg width="714" height="837" viewBox="0 0 714 837" fill="none" xmlns="http://www.w3.org/2000/svg">
<path fill-rule="evenodd" clip-rule="evenodd" d="M668.157 597.173C655.615 624.572 635.261 648.174 609.369 665.359C580.727 684.476 546.474 694.758 511.372 694.724H364.752C366.769 687.995 368.126 681.093 368.859 674.089H511.377C541.963 674.124 571.815 665.186 596.754 648.554C618.098 634.337 635.151 615.117 646.19 592.826C653.158 595.414 660.566 596.898 668.084 597.208L668.157 597.173ZM646.227 475.815C635.188 453.524 618.171 434.303 596.827 420.086C571.852 403.454 542 394.517 511.413 394.517H202.578C167.481 394.552 133.228 384.304 104.581 365.187C78.6895 347.968 58.3719 324.365 45.7931 297.001C53.3113 296.69 60.719 295.206 67.7238 292.618C78.7628 314.909 95.7794 334.13 117.123 348.347C142.099 364.979 171.95 373.916 202.537 373.882H511.372C546.469 373.882 580.722 384.131 609.369 403.247C635.261 420.431 655.615 444.068 668.157 471.433C660.639 471.743 653.232 473.227 646.227 475.815ZM45.8035 171.228C58.3456 143.829 78.6999 120.227 104.591 103.042C133.234 83.9247 167.487 73.6767 202.589 73.6767H345.144C345.841 80.6816 347.234 87.5827 349.251 94.3114H202.593C172.008 94.3114 142.155 103.248 117.216 119.881C95.8724 134.098 78.8191 153.283 67.7801 175.609C60.812 172.987 53.4044 171.503 45.8861 171.227L45.8035 171.228ZM514.131 236.652C620.042 167.432 657.887 109.252 659.868 67.433H659.832C661.152 50.0411 654.514 32.9955 641.605 20.5382C629.099 9.01281 612.743 1.93875 595.286 0.490018C566.203 -2.78809 537.891 10.8767 523.808 35.0317C521.864 38.3444 518.197 40.3803 514.2 40.3803C510.166 40.3803 506.498 38.3444 504.592 35.0317C490.472 10.8767 462.16 -2.82263 433.078 0.490018C415.657 1.93928 399.264 9.01316 386.758 20.5382C373.813 32.9955 367.138 50.0411 368.422 67.433C370.402 109.29 408.213 167.431 514.16 236.652H514.131ZM73.5277 205.458C59.0046 191.793 36.1934 189.688 19.1401 200.455C2.05018 211.221 -4.5875 231.822 3.29697 249.696C11.1818 267.57 31.3527 277.716 51.5229 273.92C71.6932 270.124 86.2163 253.457 86.1797 234.134C86.2164 223.367 81.6697 213.05 73.5277 205.458ZM701.384 505.629C686.825 491.929 664.05 489.824 646.96 500.591C629.87 511.322 623.233 531.958 631.08 549.832C638.965 567.706 659.136 577.852 679.306 574.09C699.477 570.294 714 553.662 714 534.304C714.036 523.537 709.49 513.221 701.384 505.629ZM199.831 837C305.743 767.78 343.588 709.6 345.569 667.781C346.853 650.389 340.178 633.343 327.233 620.886C314.727 609.326 298.334 602.252 280.877 600.838C251.794 597.525 223.482 611.19 209.399 635.344C207.455 638.657 203.788 640.727 199.791 640.727C195.757 640.727 192.09 638.657 190.183 635.344C176.063 611.224 147.788 597.56 118.705 600.838C101.248 602.253 84.855 609.361 72.3495 620.886C59.4403 633.343 52.766 650.424 54.086 667.781C56.0297 709.638 93.8848 767.779 199.831 837Z" fill="black"/>
</svg>
