<svg width="580" height="616" viewBox="0 0 580 616" fill="none" xmlns="http://www.w3.org/2000/svg">
<path fill-rule="evenodd" clip-rule="evenodd" d="M43.4727 523.348H50.7182C50.7182 574.366 89.6342 615.704 137.664 615.704H492.691C540.72 615.704 579.636 574.366 579.636 523.348V92.3555C579.636 41.3376 540.72 0 492.691 0H137.664C89.6342 0 50.7182 41.3376 50.7182 92.3555H43.4727C19.4722 92.3555 0 113.039 0 138.533C0 164.027 19.4722 184.711 43.4727 184.711H50.7182V261.674H43.4727C19.4722 261.674 0 282.358 0 307.852C0 333.346 19.4722 354.03 43.4727 354.03H50.7182V430.993H43.4727C19.4722 430.993 0 451.676 0 477.17C0 502.664 19.4722 523.348 43.4727 523.348ZM499.936 92.3555C499.936 68.6956 491.559 47.1098 477.804 30.7852H492.691C524.701 30.7852 550.655 58.3533 550.655 92.3555V523.348C550.655 557.35 524.701 584.918 492.691 584.918H477.804C491.558 568.594 499.936 547.008 499.936 523.348V92.3555ZM43.4727 123.141C35.4629 123.141 28.9818 130.025 28.9818 138.533C28.9818 147.041 35.4631 153.926 43.4727 153.926H86.9455C94.9553 153.926 101.436 147.041 101.436 138.533C101.436 130.025 94.9551 123.141 86.9455 123.141H43.4727ZM43.4727 292.459C35.4629 292.459 28.9818 299.344 28.9818 307.852C28.9818 316.36 35.4631 323.244 43.4727 323.244H86.9455C94.9553 323.244 101.436 316.36 101.436 307.852C101.436 299.344 94.9551 292.459 86.9455 292.459H43.4727ZM43.4727 461.778C35.4629 461.778 28.9818 468.662 28.9818 477.17C28.9818 485.678 35.4631 492.563 43.4727 492.563H86.9455C94.9553 492.563 101.436 485.678 101.436 477.17C101.436 468.662 94.9551 461.778 86.9455 461.778H43.4727ZM266.437 232.813C240.738 215.767 207.058 222.11 188.433 247.514C169.13 273.88 172.64 311.67 196.386 333.528L273.086 404.148C278.52 409.168 286.615 409.168 292.049 404.148L368.749 333.528C392.523 311.672 396.005 273.882 376.703 247.514C358.08 222.11 324.399 215.767 298.698 232.813L282.565 243.515L266.437 232.813Z" fill="black"/>
</svg>
