<svg width="811" height="787" viewBox="0 0 811 787" fill="none" xmlns="http://www.w3.org/2000/svg">
<path d="M799.041 326.8C787.023 305.5 766.88 289.427 743.724 282.456C717.318 274.452 687.189 278.131 660.986 299.077C647.444 269.094 622.257 252.86 594.903 248.665C570.969 244.985 545.41 250.666 524.589 264.544C503.837 278.325 487.757 300.174 482.713 328.833C473.979 378.244 498.59 448.278 591.521 531.221C588.88 542.388 584.242 566.528 586.274 590.895C577.912 593.929 568.771 597.899 558.784 603.031C426.888 670.483 479.567 780.277 479.736 780.599C482.207 786.021 488.843 788.474 494.53 786.086C500.217 783.698 502.79 777.372 500.285 771.95C500.149 771.692 456.004 679.845 569.414 621.845C576.964 617.972 583.87 614.841 590.132 612.324C594.059 625.815 601.101 638.047 612.882 646.567C625.272 655.506 637.257 655.022 646.939 649.342C657.095 643.372 663.832 631.108 664.373 618.908C664.949 606.095 659.126 593.121 644.027 586.635C635.462 582.955 623.579 581.761 607.871 584.763C607.059 565.269 611.053 545.614 613.288 536.158C735.503 502.013 790.578 450.018 806.187 402.156C815.09 374.4 811.025 348.004 799.041 326.8ZM634.819 606.133C640.1 608.392 642.131 613.233 641.928 618.01C641.691 623.496 639.084 628.789 635.191 631.048C633.092 632.242 630.079 632.081 626.389 629.435C618.535 623.754 613.729 615.299 610.953 605.681C621.82 603.39 629.571 603.906 634.819 606.133ZM786.717 357.692C762.444 312.735 698.188 293.048 652.828 343.072C633.937 271.166 552.452 267.261 511.997 311.121C510.677 313.832 509.289 316.511 508.273 319.415C509.255 316.704 510.338 314.058 511.557 311.541C511.692 311.379 511.861 311.25 511.997 311.089C518.057 298.889 526.824 288.981 537.353 282.01C540.468 279.945 543.752 278.234 547.069 276.653C546.358 277.008 545.614 277.266 544.903 277.621C545.614 277.266 546.392 276.976 547.103 276.621H547.069C548.085 276.137 549.135 275.685 550.15 275.233C550.116 275.233 550.116 275.233 550.082 275.265C550.929 274.91 551.741 274.458 552.621 274.136C551.775 274.458 550.996 274.878 550.184 275.233C553.4 273.877 556.65 272.683 559.968 271.747C558.512 272.135 557.09 272.651 555.668 273.135C557.259 272.586 558.851 272.005 560.475 271.586C560.306 271.618 560.171 271.715 560.002 271.747C560.272 271.683 560.543 271.554 560.814 271.489C560.949 271.457 561.119 271.392 561.254 271.36C562.981 270.908 564.707 270.521 566.468 270.198C566.637 270.166 566.84 270.134 567.009 270.101C569.785 269.617 572.561 269.424 575.371 269.23C572.663 269.424 569.954 269.585 567.28 270.069C570.191 269.553 573.103 269.359 576.048 269.165C575.811 269.165 575.608 269.23 575.405 269.23C576.353 269.165 577.301 268.972 578.248 268.939C581.938 268.843 585.662 268.972 589.284 269.456H589.318C589.995 269.553 590.706 269.553 591.417 269.682C611.661 272.812 630.315 285.141 640.573 308.023C641.453 309.991 642.299 312.057 643.044 314.187C643.078 314.284 643.112 314.348 643.146 314.445C643.924 316.608 644.635 318.867 645.245 321.223C645.278 321.352 645.346 321.481 645.414 321.61C645.617 322.256 645.854 322.901 646.192 323.482C646.328 323.74 646.531 323.998 646.7 324.256C646.971 324.676 647.276 325.096 647.614 325.483C647.818 325.709 648.021 325.935 648.258 326.161C648.63 326.516 649.07 326.871 649.51 327.161C649.747 327.322 649.95 327.484 650.153 327.613C652.659 329.13 655.773 329.743 658.888 329.001C660.309 328.646 661.596 328.032 662.713 327.258C662.781 327.193 662.848 327.161 662.95 327.097C663.661 326.58 664.27 326.031 664.812 325.386C664.846 325.321 664.947 325.289 664.981 325.225C665.387 324.773 665.794 324.386 666.2 323.934C666.945 323.159 667.689 322.385 668.434 321.642C669.044 321.061 669.653 320.48 670.262 319.899C670.905 319.286 671.583 318.705 672.226 318.124C672.835 317.576 673.444 317.059 674.054 316.543C675.137 315.639 676.254 314.768 677.372 313.929C678.049 313.412 678.76 312.961 679.437 312.476C680.012 312.057 680.588 311.67 681.197 311.282C681.942 310.798 682.687 310.314 683.431 309.862C683.939 309.54 684.447 309.249 684.955 308.959C686.512 308.055 688.103 307.216 689.694 306.473L690.507 306.086C691.421 305.667 692.301 305.279 693.215 304.924C693.553 304.795 693.892 304.634 694.264 304.505C697.379 303.278 700.493 302.31 703.641 301.6C703.709 301.6 703.777 301.568 703.845 301.568C704.928 301.31 706.045 301.084 707.128 300.923H707.162C710.243 300.406 713.29 300.148 716.337 300.051C716.608 300.051 716.878 299.987 717.149 299.987C716.878 299.987 716.608 300.051 716.371 300.051C723.412 299.825 730.352 300.729 736.987 302.698C735.396 302.213 733.805 301.826 732.214 301.471C733.873 301.826 735.532 302.246 737.157 302.73C737.834 302.923 738.477 303.214 739.154 303.44C755.912 309.088 770.502 321.061 779.473 336.843C782.858 343.234 785.193 350.302 786.717 357.692C786.852 357.982 787.056 358.208 787.192 358.499C787.463 359.919 787.7 361.371 787.903 362.856C787.666 361.048 787.089 359.435 786.717 357.692ZM272.584 534.484C267.134 531.644 261.819 529.449 256.605 527.739C258.095 495.917 251.493 465.257 248.548 453.541C323.737 354.652 333.995 281.136 315.408 234.018C304.71 206.843 284.534 188.318 261.378 178.571C238.188 168.76 211.952 167.856 189.202 175.828C163.169 184.962 141.739 205.487 134.495 237.406C104.568 221.592 74.2356 223.464 49.9287 236.18C28.635 247.25 12.0802 266.711 4.49704 289.787C-3.01848 312.831 -1.66433 339.488 12.7573 365.082C37.5383 409.071 101.658 449.9 227.392 461.319C230.236 473.163 235.314 498.078 234.772 523.445C212.836 521.961 194.148 529.61 180.166 540.873C167.573 551.008 158.839 564.336 155.115 576.633C150.68 591.091 152.914 604.775 163.07 612.715C171.568 619.363 184.872 621.268 203.356 614.877C234.772 604.033 248.821 578.085 254.136 549.781C256.709 550.814 259.282 551.976 261.923 553.331C342.495 594.738 284.097 709.534 283.928 709.823C281.254 715.181 283.657 721.571 289.243 724.121C294.795 726.671 301.566 724.379 304.207 719.054C304.444 718.634 372.216 585.668 272.584 534.484ZM195.737 594.772C185.784 598.225 179.893 598.258 177.286 596.192C174.714 594.191 174.68 588.898 176.643 582.508C179.25 573.988 185.513 564.532 194.687 557.173C204.369 549.363 217.369 544.038 232.738 544.909C228.777 567.21 218.35 586.929 195.737 594.772ZM149.323 284.076C96.8499 244.799 40.1077 272.038 22.714 317.415C22.714 318.997 22.5447 320.578 22.6463 322.159C22.5447 320.739 22.5109 319.319 22.5109 317.899C22.5786 317.738 22.6801 317.577 22.714 317.415C22.7478 311.735 23.2895 306.151 24.6098 300.859C25.016 299.277 25.4561 297.696 25.9639 296.147C31.7868 278.299 44.4479 263.356 60.63 254.933C81.856 243.863 109.582 244.186 136.327 264.196C136.868 264.615 137.478 264.938 138.053 265.228C142.759 267.617 148.65 266.519 152.103 262.388C153.694 260.452 154.472 258.16 154.506 255.869C154.777 251.447 155.488 247.381 156.334 243.444C156.707 241.669 157.214 239.958 157.688 238.28V238.312C158.399 235.859 159.212 233.503 160.126 231.244C160.126 231.276 160.126 231.276 160.092 231.309C160.701 229.792 161.345 228.275 162.056 226.823C163.207 224.531 164.459 222.433 165.813 220.368C166.524 219.271 167.167 218.141 167.946 217.108C170.18 214.139 172.55 211.396 175.191 208.943C181.521 203.101 188.969 198.744 196.992 195.937C214.325 189.869 234.434 190.644 252.376 198.196C268.965 205.167 283.488 218.076 292.29 236.763C245.978 188.676 153.795 204.101 149.323 284.076ZM431.964 364.987C452.75 330.389 453.055 291.467 452.107 275.682C562.068 215.33 602.792 152.684 606.137 102.723C608.1 73.8058 597.674 49.0195 580.78 31.0429C563.854 13.0018 540.325 1.83474 516.154 0.221149C488.496 -1.68301 460.092 8.61213 439.747 34.8831C419.231 8.70879 390.795 -1.45688 363.17 0.544196C338.999 2.31922 315.504 13.5504 298.645 31.6881C281.854 49.7292 271.563 74.5477 273.662 103.497C277.318 153.586 318.552 216.324 429.659 276.357C430.505 289.298 430.742 323.96 412.393 354.427C406.977 363.464 400.578 372.565 394.079 381.795C368.214 418.651 340.59 458.026 363.644 495.209C368.689 503.374 374.376 511.507 380.029 519.672C400.714 549.461 421.5 579.379 408.94 608.746C406.57 614.2 409.346 620.429 415.067 622.656C420.789 624.915 427.323 622.268 429.658 616.814C446.721 576.956 422.684 542.326 398.75 507.854C393.266 499.979 387.815 492.169 382.941 484.293C367.064 458.668 390.625 425.103 412.732 393.667C419.706 383.759 426.476 374.044 431.961 364.975L431.964 364.987ZM297.668 81.2995C297.126 83.9783 296.517 86.6247 296.28 89.4325C296.517 86.8183 296.855 84.2687 297.329 81.7837C297.431 81.6223 297.566 81.4609 297.668 81.2995C300.41 67.4539 306.605 55.3194 315.441 45.8304C328.407 31.8881 346.383 23.2386 364.833 21.8836C386.398 20.3344 408.741 29.2097 424.483 51.6081C424.009 50.9303 423.603 50.1235 423.129 49.478C424.28 51.0272 425.431 52.6409 426.514 54.3514C425.871 53.3509 425.16 52.544 424.483 51.6081C426.345 54.2545 428.173 56.9333 429.866 59.9668C430.204 60.5801 430.611 61.1287 431.051 61.6773C431.152 61.8064 431.288 61.9355 431.423 62.0646C431.762 62.4196 432.1 62.7424 432.439 63.0651C432.642 63.2265 432.845 63.3878 433.082 63.5492C433.387 63.7751 433.691 63.9688 434.03 64.1624C434.301 64.3238 434.572 64.4851 434.876 64.6142C435.147 64.7433 435.418 64.8401 435.689 64.937C436.061 65.0661 436.433 65.2274 436.806 65.3243C436.874 65.3565 436.975 65.3565 437.077 65.3888C438.736 65.8084 440.496 65.8406 442.222 65.4856C443.17 65.292 444.118 65.0015 445.032 64.5819C447.131 63.5492 448.756 61.9032 449.772 59.999H449.806C464.058 33.6314 486.333 22.0446 508.508 21.5291C510.539 21.4968 512.57 21.4968 514.601 21.6259C516.091 21.7227 517.58 21.9486 519.07 22.1423C531.393 23.7883 543.343 28.5325 553.567 35.9879C557.358 38.7635 560.913 41.8617 564.163 45.315C564.231 45.4118 564.299 45.4763 564.4 45.5732C573.067 54.9002 579.398 66.6159 582.241 80.074C551.367 32.2761 474.794 21.0455 440.154 84.9151C405.047 20.8839 328.027 32.8564 297.668 81.2995Z" fill="black"/>
</svg>
