<svg width="711" height="818" viewBox="0 0 711 818" fill="none" xmlns="http://www.w3.org/2000/svg">
<path d="M616.991 260.283C591.75 233.414 558.781 252.278 547.576 276.498C542.954 283.583 535.706 297.232 527.044 294.026C524.26 293.378 521.479 293.463 518.895 273.284C507.163 211.348 479.461 166.065 434.162 134.367C416.167 122.935 401.362 107.929 390.904 90.5212C380.445 73.1135 374.616 53.7748 373.87 34.0143C373.83 26.7801 371.194 19.7495 366.352 13.962C361.51 8.17459 354.719 3.93759 346.983 1.87755C339.497 -0.428989 331.4 -0.614931 323.792 1.34496C316.183 3.30484 309.432 7.31565 304.454 12.8331C262.774 55.3797 230.63 104.727 209.78 158.177C195.515 195.34 187.336 234.161 185.5 273.428C186.814 283.448 185.466 287.206 179.798 289.498C170.998 290.374 169.532 288.621 164.643 280.002C149.216 246.481 113.955 234.007 88.3817 265.981C47.1302 312.375 19.1769 367.117 6.96313 425.427C-5.25065 483.737 -1.35346 543.84 18.3143 600.489C62.8623 734.882 206.771 818.979 358.555 817.991C680.15 818.338 818.124 474.162 616.991 260.283ZM537.961 580.184C504.556 636.423 431.392 694.414 356.109 696.46C280.011 694.415 206.847 636.423 173.279 580.184C155.68 550.532 119.832 475.157 167.251 417.166C178.763 402.67 194.148 390.995 211.998 383.211C229.848 375.427 249.592 371.784 269.421 372.614C285.863 373.299 301.979 376.966 316.795 383.393C331.611 389.821 344.819 398.875 355.621 410.009C366.482 398.89 379.722 389.838 394.556 383.389C409.391 376.941 425.519 373.227 441.984 372.468C461.828 371.648 481.583 375.311 499.436 383.122C517.288 390.932 532.665 402.639 544.153 417.166C591.408 475.157 555.56 550.532 537.961 580.184Z" fill="black"/>
<path d="M443.45 401.682C428.377 402.443 413.748 406.536 400.868 413.596C387.988 420.656 377.257 430.464 369.633 442.145C368.177 444.314 366.123 446.111 363.669 447.365C361.216 448.618 358.444 449.285 355.62 449.302C352.803 449.254 350.045 448.573 347.597 447.323C345.149 446.073 343.089 444.293 341.606 442.145C334.308 430.664 323.925 420.999 311.4 414.029C298.875 407.059 284.606 403.006 269.889 402.237C255.173 401.468 240.475 404.007 227.131 409.625C213.788 415.243 202.222 423.761 193.485 434.404C129.631 525.648 260.633 666.85 356.108 667.243C417.215 665.492 480.928 614.073 509.281 566.453C520.688 547.026 555.233 480.27 517.918 434.402C509.49 423.855 498.277 415.345 485.281 409.635C472.285 403.925 457.913 401.193 443.45 401.682ZM478.158 556.521C469.186 571.149 457.754 584.452 444.265 595.961C431.667 605.156 421.791 617.789 406.624 620.065C403.186 620.015 399.853 618.999 397.093 617.16C394.334 615.321 392.288 612.752 391.244 609.815C390.2 606.878 390.211 603.722 391.274 600.791C392.338 597.859 394.401 595.302 397.173 593.477C418.586 580.103 436.491 562.706 449.642 542.498C451.748 539.161 455.235 536.702 459.348 535.653C463.462 534.605 467.87 535.05 471.62 536.894C475.369 538.738 478.158 541.831 479.381 545.505C480.605 549.178 480.166 553.136 478.158 556.521Z" fill="black"/>
</svg>
