<svg width="803" height="733" viewBox="0 0 803 733" fill="none" xmlns="http://www.w3.org/2000/svg">
<path fill-rule="evenodd" clip-rule="evenodd" d="M803 293.2H0V659.7C0 700.191 32.0913 733 71.6964 733C215.089 733 587.911 733 731.304 733C770.909 733 803 700.191 803 659.7V293.2ZM401.5 405.847C370.04 372.745 321.544 376.088 295.734 398.019C267.17 422.296 264.015 470.762 292.493 519.286C310.532 551.92 356.159 585.081 394.56 606.836C398.861 609.299 404.139 609.299 408.44 606.836C446.841 585.081 492.468 551.92 510.478 519.286C538.985 470.762 535.83 422.296 507.266 398.019C481.456 376.088 432.96 372.745 401.5 405.847ZM389.225 437.396C391.806 441.794 396.481 444.491 401.5 444.491C406.519 444.491 411.194 441.794 413.775 437.396C432.617 405.378 470.099 404.587 488.941 420.566C497.832 428.131 501.875 439.683 501.875 452.906C501.875 468.592 496.369 486.448 485.815 504.363C485.729 504.48 485.672 504.627 485.586 504.744C470.816 531.66 433.964 558.136 401.5 577.194C369.036 558.136 332.184 531.66 317.414 504.744C317.328 504.627 317.271 504.48 317.185 504.363C306.631 486.448 301.125 468.592 301.125 452.906C301.125 439.683 305.168 428.131 314.059 420.566C332.901 404.587 370.383 405.378 389.225 437.396ZM630.929 87.96H172.071V14.66C172.071 6.56768 165.647 0 157.732 0C149.817 0 143.393 6.56768 143.393 14.66V87.96H71.6964C32.0913 87.96 0 120.769 0 161.26V263.88H803V161.26C803 120.769 770.909 87.96 731.304 87.96H659.607V14.66C659.607 6.56768 653.183 0 645.268 0C637.353 0 630.929 6.56768 630.929 14.66V87.96Z" fill="black"/>
</svg>
