<svg width="770" height="763" viewBox="0 0 770 763" fill="none" xmlns="http://www.w3.org/2000/svg">
<path fill-rule="evenodd" clip-rule="evenodd" d="M0 363.384V751.336L296.961 557.353L0 363.384Z" fill="black"/>
<path fill-rule="evenodd" clip-rule="evenodd" d="M108.67 401.586L80.9908 271.747L8.74781 336.317L108.67 401.586Z" fill="black"/>
<path fill-rule="evenodd" clip-rule="evenodd" d="M473.053 557.358L770 751.34V363.388L473.053 557.358Z" fill="black"/>
<path fill-rule="evenodd" clip-rule="evenodd" d="M669.793 396.062L761.259 336.318L632.531 221.245L669.793 396.062Z" fill="black"/>
<path fill-rule="evenodd" clip-rule="evenodd" d="M442.569 51.45L384.997 0L291.648 83.4332L442.569 51.45Z" fill="black"/>
<path fill-rule="evenodd" clip-rule="evenodd" d="M176.551 258.298C176.579 258.298 177.005 262.712 180.539 269.868C186.424 281.754 196.351 291.693 209.263 298.575L277.106 334.52L324.489 274.131C333.44 262.63 338.445 249.537 338.981 236.308C339.297 228.014 337.771 223.764 337.757 223.723C331.969 205.531 315.303 190.575 294.005 195.058C278.756 198.293 267.536 208.246 264.717 221.05C263.562 226.314 259.423 230.413 254.157 231.524C248.863 232.62 243.418 230.592 240.228 226.26C232.06 215.224 219.507 210.837 204.821 213.962C183.481 218.486 174.406 238.927 176.455 256.803C176.524 257.297 176.551 257.79 176.551 258.298Z" fill="black"/>
<path fill-rule="evenodd" clip-rule="evenodd" d="M377.472 609.952L322.045 573.747L32.3169 763H737.683L447.969 573.747L392.542 609.952C390.259 611.447 387.619 612.201 385.007 612.201C382.381 612.201 379.754 611.447 377.472 609.952Z" fill="black"/>
<path fill-rule="evenodd" clip-rule="evenodd" d="M199.096 187.141C216.449 183.453 233.127 186.4 246.561 195.078C255.678 181.726 270.418 172.02 288.279 168.25C320.592 161.423 352.822 181.04 363.465 213.997C364.523 216.821 366.943 224.69 366.448 237.371C365.706 256.358 358.693 274.892 346.181 290.987L291.675 360.464C288.994 363.878 284.952 365.715 280.827 365.715C278.64 365.715 276.44 365.194 274.405 364.124L196.332 322.778C178.278 313.141 164.308 299.048 155.866 281.98C150.256 270.629 149.252 262.444 149.087 259.428C145.361 225.005 166.769 193.995 199.096 187.141ZM410.792 170.306L531.848 144.656C539.218 143.025 546.575 147.782 548.17 155.212C549.737 162.615 544.993 169.895 537.568 171.471L416.526 197.121C415.55 197.327 414.601 197.423 413.652 197.423C407.3 197.423 401.594 193.008 400.205 186.565C398.637 179.148 403.367 171.883 410.792 170.306ZM562.456 222.263C564.024 229.666 559.28 236.946 551.855 238.522L430.813 264.172C429.836 264.377 428.888 264.473 427.939 264.473C421.586 264.473 415.88 260.059 414.491 253.616C412.924 246.199 417.667 238.92 425.093 237.357L546.135 211.707C553.518 210.103 560.861 214.847 562.456 222.263ZM576.756 289.3C578.324 296.717 573.58 303.983 566.155 305.559L445.113 331.209C444.136 331.415 443.188 331.511 442.239 331.511C435.886 331.511 430.18 327.096 428.791 320.653C427.224 313.25 431.968 305.971 439.393 304.394L560.435 278.745C567.819 277.141 575.161 281.884 576.756 289.3ZM102.955 242.827L102.969 242.868L141.346 422.936L385.011 582.098L645.108 412.188L596.845 185.825C596.831 185.797 596.845 185.77 596.831 185.742L568.492 52.7921L84.3101 155.404L102.955 242.827Z" fill="black"/>
</svg>
