<svg width="802" height="777" viewBox="0 0 802 777" fill="none" xmlns="http://www.w3.org/2000/svg">
<path d="M613.577 684.587C549.566 727.737 473.172 750.352 395.198 749.208C317.226 748.063 241.577 723.193 178.964 678.17C172.627 673.591 163.641 674.875 158.915 681.014C154.19 687.188 155.515 695.86 161.851 700.439C229.299 748.93 310.779 775.708 394.765 776.957C478.753 778.171 561.024 753.821 629.971 707.342C636.451 702.971 638.026 694.299 633.515 688.021C628.969 681.743 620.056 680.217 613.577 684.587Z" fill="black"/>
<path d="M222.396 71.9855H222.431C281.68 40.5594 348.658 25.3671 416.185 28.0728C483.668 30.7436 549.147 51.1742 605.566 87.2134C608.752 89.2599 612.619 89.9883 616.342 89.2599C620.065 88.5314 623.359 86.3809 625.471 83.2938C627.547 80.2414 628.299 76.4606 627.547 72.853C626.76 69.2456 624.54 66.0892 621.39 64.0427C560.601 25.2632 490.076 3.23711 417.363 0.323676C344.617 -2.5553 272.476 13.8164 208.616 47.6356C201.742 51.3471 199.237 59.776 203.031 66.4704C206.826 73.1649 215.486 75.6272 222.396 71.9855Z" fill="black"/>
<path d="M584.799 140.395C589.131 133.978 587.27 125.376 580.647 121.178C524.762 85.7979 459.03 67.7614 392.264 69.4956C325.533 71.2299 260.914 92.6663 207.034 130.925C200.662 135.435 199.301 144.141 203.955 150.315C208.645 156.489 217.631 157.807 224.003 153.298C273.157 118.369 332.121 98.8408 393.048 97.2451C453.944 95.6495 513.941 112.126 564.962 144.384C568.148 146.43 572.014 147.124 575.738 146.396C579.461 145.633 582.723 143.482 584.799 140.395Z" fill="black"/>
<path d="M173.703 619.135C232.236 673.523 309.452 704.984 390.506 707.446C471.557 709.944 550.706 683.304 612.679 632.628C618.729 627.702 619.481 618.926 614.397 613.065C609.278 607.203 600.256 606.474 594.206 611.4C537.642 657.671 465.395 681.986 391.398 679.732C317.4 677.443 246.906 648.722 193.457 599.086C190.736 596.52 187.048 595.132 183.254 595.202C179.423 595.306 175.807 596.832 173.193 599.503C170.58 602.174 169.148 605.746 169.255 609.423C169.327 613.1 170.946 616.602 173.703 619.135Z" fill="black"/>
<path d="M400.963 284.166C339.53 234.634 238.718 280.975 241.293 358.811C243.155 446.636 391.083 512.261 400.963 513.371C410.987 512.122 558.771 446.773 560.632 358.811C563.066 280.836 462.394 234.77 400.963 284.166Z" fill="black"/>
<path d="M752.231 316.914C785.024 290.137 803.354 250.247 801.922 208.724C801.922 139.49 756.814 83.2983 701.256 83.2983C645.837 83.2983 600.589 139.49 600.589 208.724H600.625C599.337 250.244 617.666 290.099 650.459 316.914C654.719 319.793 657.225 324.511 657.189 329.54L646.019 637.524C645.303 651.954 650.638 666.036 660.769 676.615C670.937 687.194 685.041 693.334 699.97 693.681C714.863 694.063 729.254 688.582 739.959 678.489C750.627 668.43 756.641 654.59 756.677 640.16L745.364 329.406C745.4 324.412 747.971 319.759 752.231 316.914Z" fill="black"/>
<path d="M172.631 252.847V97.1772C172.523 89.6156 166.151 83.5105 158.311 83.5105C150.506 83.5105 144.134 89.6153 143.991 97.1772V222.745H124.551V97.1772C124.551 93.5005 123.048 89.9625 120.363 87.3261C117.678 84.7246 114.026 83.2678 110.231 83.2678C106.4 83.2678 102.749 84.7246 100.063 87.3261C97.3784 89.9623 95.8748 93.5002 95.9106 97.1772V222.745H76.8653V97.1772C76.7221 89.6156 70.3496 83.5451 62.5452 83.5451C54.7409 83.5451 48.3682 89.6152 48.2252 97.1772V222.745H28.75V97.1772C28.75 93.5005 27.2464 89.9625 24.5614 87.3261C21.8764 84.7246 18.2248 83.2678 14.4297 83.2678C10.635 83.2678 6.98332 84.7246 4.29804 87.3261C1.61302 89.9623 0.109446 93.5002 0.109446 97.1772V252.812C-2.00277 275.427 26.9953 294.783 40.6353 309.42C42.2106 310.911 43.0339 312.993 42.9265 315.108L31.0407 637.379C30.2889 652.051 35.7305 666.377 46.1837 677.026C56.6013 687.674 71.0643 693.71 86.2082 693.744C101.387 693.779 115.887 687.813 126.376 677.199C136.865 666.619 142.414 652.328 141.698 637.656L129.813 315.11H129.848C129.705 312.994 130.564 310.913 132.14 309.422C145.708 294.854 174.778 275.394 172.631 252.847Z" fill="black"/>
</svg>
