<svg width="818" height="807" viewBox="0 0 818 807" fill="none" xmlns="http://www.w3.org/2000/svg">
<path d="M672.494 433.324H236.362C207.531 433.324 184.078 459.44 184.078 491.539V665.748C184.078 697.845 207.533 723.963 236.362 723.963H672.494C701.323 723.963 724.778 697.845 724.778 665.748V491.539C724.778 459.437 701.323 433.324 672.494 433.324ZM473.071 495.602H547.65C552.8 495.602 556.973 500.249 556.973 505.982C556.973 511.714 552.8 516.361 547.65 516.361H473.071C467.924 516.361 463.751 511.714 463.751 505.982C463.751 500.249 467.924 495.602 473.071 495.602ZM366.835 631.956C357.67 640.394 348.196 649.117 338.675 658.923C336.888 660.76 334.615 661.68 332.345 661.68C330.072 661.68 327.801 660.76 326.015 658.923C316.508 649.13 307.047 640.416 297.898 631.989C268.958 605.327 243.962 582.303 243.962 546.693C243.962 518.524 265.877 495.6 292.815 495.6C311.757 495.6 323.312 503.779 332.345 517.062C341.378 503.779 352.933 495.6 371.875 495.6C398.837 495.6 420.772 518.521 420.772 546.693C420.774 582.294 395.778 605.305 366.835 631.956ZM659.522 640.922H473.073C467.926 640.922 463.753 636.275 463.753 630.541C463.753 624.81 467.926 620.163 473.073 620.163H659.522C664.67 620.163 668.843 624.81 668.843 630.541C668.843 636.275 664.67 640.922 659.522 640.922ZM659.522 578.641H473.073C467.926 578.641 463.753 573.994 463.753 568.263C463.753 562.529 467.926 557.882 473.073 557.882H659.522C664.67 557.882 668.843 562.529 668.843 568.263C668.843 573.994 664.67 578.641 659.522 578.641Z" fill="black"/>
<path d="M93.8965 404.143C95.1028 403.855 96.2972 403.526 97.4816 403.154C97.7676 403.065 98.0477 402.962 98.3318 402.868C99.2401 402.568 100.14 402.247 101.035 401.895C101.411 401.748 101.785 401.594 102.161 401.441C103.001 401.091 103.833 400.717 104.662 400.325C104.992 400.166 105.322 400.017 105.65 399.857C105.792 399.786 105.93 399.701 106.072 399.627L89.8913 348.035C89.4911 346.758 89.121 345.475 88.7809 344.183C88.7589 344.101 88.7429 344.016 88.7209 343.934C83.8334 325.202 85.2999 305.388 92.9682 287.688C100.128 271.159 111.944 258.199 126.67 250.525C126.702 250.51 126.73 250.492 126.762 250.476C127.697 249.991 128.645 249.536 129.603 249.095C129.767 249.02 129.925 248.935 130.087 248.861C131.2 248.358 132.328 247.883 133.468 247.438L545.213 87.3339C552.782 84.3935 560.652 82.9011 568.598 82.9011C598.717 82.9011 625.628 104.181 635.563 135.855L687.144 300.323C687.612 301.813 688.025 303.321 688.409 304.833C688.515 305.252 688.617 305.669 688.715 306.087C689.015 307.344 689.285 308.605 689.529 309.872C689.585 310.168 689.653 310.462 689.707 310.756C689.981 312.278 690.213 313.804 690.407 315.341C690.455 315.724 690.493 316.109 690.535 316.495C690.675 317.727 690.787 318.958 690.875 320.195C690.905 320.602 690.937 321.006 690.961 321.413C691.049 322.959 691.102 324.509 691.106 326.058C691.108 326.303 691.098 326.55 691.096 326.795C691.092 327.704 691.088 328.613 691.054 329.521H758.992C764.142 329.521 768.315 334.17 768.315 339.902C768.315 340.147 768.335 340.392 768.337 340.635C771.128 338.577 774.035 336.714 777.04 335.073L686.49 46.3668C681.03 47.7055 675.469 48.3805 669.871 48.3805C640.04 48.3827 613.084 29.3125 600.164 0L41.6386 217.176C49.2889 255.929 32.0017 295.838 0 313.296L72.2099 543.528V415.98C72.2099 410.246 76.3832 405.599 81.5327 405.599C82.7811 405.599 84.0235 405.544 85.2618 405.457C85.638 405.43 86.0121 405.39 86.3862 405.354C87.2745 405.274 88.1627 405.172 89.045 405.047C89.4411 404.989 89.8372 404.931 90.2314 404.869C91.2017 404.709 92.1659 404.517 93.1262 404.303C93.3803 404.247 93.6404 404.203 93.8965 404.143Z" fill="black"/>
<path d="M672.3 321.872C672.234 320.907 672.144 319.947 672.034 318.987C672.01 318.789 671.996 318.589 671.972 318.39C671.83 317.248 671.652 316.112 671.448 314.975C671.398 314.681 671.334 314.392 671.278 314.1C671.107 313.22 670.917 312.345 670.713 311.471C670.635 311.151 670.561 310.834 670.481 310.516C670.195 309.391 669.889 308.273 669.541 307.166L617.959 142.698C610.637 119.346 590.801 103.657 568.598 103.657C567.138 103.657 565.678 103.727 564.221 103.865C559.858 104.277 555.548 105.304 551.359 106.932L139.612 267.036C138.766 267.363 137.93 267.718 137.108 268.09C137.064 268.112 137.024 268.134 136.98 268.152C112.334 279.41 99.2001 309.75 106.644 338.231C106.654 338.269 106.662 338.307 106.672 338.347C106.922 339.298 107.197 340.247 107.493 341.189L122.061 387.643C122.817 386.852 123.563 386.046 124.278 385.215C124.404 385.068 124.524 384.91 124.65 384.763C125.306 383.983 125.946 383.192 126.566 382.382C126.81 382.063 127.045 381.738 127.281 381.413C127.775 380.742 128.255 380.065 128.723 379.372C128.961 379.02 129.199 378.666 129.431 378.307C129.903 377.579 130.36 376.837 130.806 376.089C130.988 375.777 131.18 375.476 131.358 375.162C131.964 374.102 132.548 373.028 133.096 371.932C133.166 371.794 133.226 371.651 133.296 371.513C133.773 370.549 134.225 369.573 134.657 368.582C134.819 368.212 134.969 367.836 135.123 367.461C135.449 366.677 135.759 365.889 136.057 365.091C136.211 364.679 136.361 364.267 136.507 363.85C136.795 363.026 137.066 362.193 137.326 361.356C137.438 360.988 137.558 360.625 137.666 360.255C138.016 359.052 138.34 357.843 138.626 356.615C138.648 356.528 138.664 356.437 138.682 356.348C138.944 355.205 139.176 354.056 139.386 352.895C139.456 352.492 139.516 352.089 139.582 351.686C139.722 350.815 139.85 349.942 139.96 349.059C140.016 348.612 140.068 348.162 140.116 347.712C140.211 346.823 140.285 345.923 140.349 345.025C140.377 344.62 140.411 344.217 140.433 343.809C140.501 342.513 140.543 341.212 140.543 339.902C140.543 334.17 144.716 329.521 149.865 329.521H672.382C672.432 328.497 672.468 327.47 672.47 326.445C672.47 326.189 672.46 325.933 672.458 325.674C672.446 324.757 672.416 323.841 672.37 322.926C672.346 322.574 672.324 322.224 672.3 321.872Z" fill="black"/>
<path d="M371.875 516.361C357.2 516.361 349.88 522.224 340.545 541.452C338.917 544.807 335.768 546.896 332.345 546.896C328.922 546.896 325.771 544.807 324.144 541.452C314.81 522.224 307.489 516.361 292.815 516.361C276.158 516.361 262.608 529.969 262.608 546.693C262.608 572.535 283.426 591.713 309.784 615.993C317.122 622.751 324.66 629.695 332.345 637.295C340.045 629.679 347.599 622.727 354.954 615.953C381.31 591.684 402.128 572.52 402.128 546.691C402.128 529.969 388.556 516.361 371.875 516.361Z" fill="black"/>
<path d="M752.57 363.294C751.494 359.017 750.714 354.668 750.237 350.282H158.634C155.863 376.251 142.763 399.347 122.415 413.405C116.863 417.241 110.92 420.228 104.744 422.384C101.559 423.493 98.3198 424.405 95.0248 425.048C93.6424 425.32 92.25 425.552 90.8535 425.739V731.539C126.234 736.275 154.373 767.603 158.626 807H750.229C754.481 767.603 782.619 736.275 818 731.539V425.732C787.265 421.564 761.079 397.059 752.57 363.294ZM743.421 665.748C743.421 709.295 711.604 744.722 672.494 744.722H236.362C197.252 744.722 165.432 709.295 165.432 665.748V491.539C165.432 447.99 197.25 412.563 236.362 412.563H672.494C711.604 412.563 743.421 447.99 743.421 491.539V665.748Z" fill="black"/>
</svg>
