<svg width="818" height="831" viewBox="0 0 818 831" fill="none" xmlns="http://www.w3.org/2000/svg">
<path d="M86.7526 176.272C86.7526 300.554 236.971 361.747 243.414 364.254C244.775 364.89 246.394 365.151 247.865 365.151C249.337 365.151 250.956 364.89 252.317 364.254C258.756 361.75 408.978 300.561 408.978 176.272C408.978 127.68 370.053 88.1329 322.224 88.1329C290.729 88.1329 263.1 105.253 247.868 130.932C232.636 105.253 205.005 88.1329 173.512 88.1329C125.683 88.1329 86.7526 127.68 86.7526 176.272Z" fill="black"/>
<path d="M743.592 610.914V604.372C743.592 514.103 671.333 440.695 582.486 440.695C493.639 440.695 421.379 514.107 421.379 604.372V661.039C421.379 699.203 390.769 730.302 353.204 730.302C315.64 730.302 285.029 699.203 285.029 661.039V513.993C297.281 509.582 306.553 498.929 309.054 485.734L335.507 467.793C435.798 399.875 495.7 286.173 495.7 163.681C495.7 80.3641 428.997 12.5966 346.989 12.5966C346.989 5.64416 341.433 0 334.59 0C327.747 0 322.191 5.64416 322.191 12.5966V37.7898C322.191 44.7422 327.747 50.3864 334.59 50.3864C341.433 50.3864 346.989 44.7422 346.989 37.7898C415.311 37.7898 470.901 94.2687 470.901 163.679C470.901 277.722 415.124 383.574 321.747 446.825L304.307 458.637C297.721 447.835 285.985 440.658 272.629 440.658H223.071C209.715 440.658 197.942 447.835 191.393 458.637L173.954 446.825C80.5759 383.58 24.7994 277.722 24.7994 163.679C24.7994 94.2668 80.3912 37.7898 148.712 37.7898C148.712 44.7422 154.267 50.3864 161.11 50.3864C167.953 50.3864 173.509 44.7422 173.509 37.7898V12.5966C173.509 5.64416 167.953 0 161.11 0C154.267 0 148.712 5.64416 148.712 12.5966C66.7031 12.5966 0 80.3641 0 163.681C0 286.173 59.8971 399.843 160.193 467.793L186.646 485.734C189.148 498.929 198.42 509.582 210.671 513.993V661.039C210.671 740.88 274.616 805.846 353.204 805.846C431.793 805.846 495.737 740.881 495.737 661.039V604.372C495.737 555.78 534.663 516.234 582.492 516.234C630.321 516.234 669.246 555.78 669.246 604.372V610.914C625.979 626.389 594.89 668.439 594.89 717.665C594.89 780.125 644.964 831 706.445 831C767.924 831 818 780.128 818 717.665C818 668.438 786.911 626.386 743.644 610.914H743.592ZM223.06 465.848H272.618C279.424 465.848 285.017 471.53 285.017 478.445C285.017 485.36 279.424 491.041 272.618 491.041H223.06C216.253 491.041 210.661 485.36 210.661 478.445C210.661 471.53 216.253 465.848 223.06 465.848ZM706.389 805.805C658.56 805.805 619.634 766.258 619.634 717.666C619.634 669.074 658.56 629.527 706.389 629.527C754.218 629.527 793.143 669.074 793.143 717.666C793.143 766.258 754.218 805.805 706.389 805.805Z" fill="black"/>
<path d="M706.398 642.128C665.412 642.128 632.042 676.03 632.042 717.67C632.042 759.309 665.413 793.212 706.398 793.212C747.383 793.212 780.754 759.309 780.754 717.67C780.754 676.03 747.383 642.128 706.398 642.128ZM706.398 768.055C679.062 768.055 656.84 745.478 656.84 717.706C656.84 689.934 679.062 667.357 706.398 667.357C733.734 667.357 755.956 689.934 755.956 717.706C755.956 745.478 733.734 768.055 706.398 768.055Z" fill="black"/>
</svg>
