<svg width="875" height="829" viewBox="0 0 875 829" fill="none" xmlns="http://www.w3.org/2000/svg">
<path fill-rule="evenodd" clip-rule="evenodd" d="M452.586 571.724H859.914C868.241 571.724 875 565.321 875 557.431C875 549.541 868.241 543.138 859.914 543.138H829.741V114.345H844.737C852.763 114.345 860.457 111.315 866.129 105.94C871.802 100.566 875 93.2768 875 85.6729V28.672C875 21.068 871.802 13.7786 866.129 8.40435C860.457 3.03014 852.763 0 844.737 0H30.2629C22.2371 0 14.5431 3.03014 8.87069 8.40435C3.19828 13.7786 0 21.068 0 28.672C0 44.5087 0 69.8361 0 85.6729C0 93.2768 3.19828 100.566 8.87069 105.94C14.5431 111.315 22.2371 114.345 30.2629 114.345H45.2586V543.138H15.0862C6.75862 543.138 0 549.541 0 557.431C0 565.321 6.75862 571.724 15.0862 571.724H422.414V687.498C387.987 694.13 362.069 722.974 362.069 757.534C362.069 796.983 395.862 829 437.5 829C479.138 829 512.931 796.983 512.931 757.534C512.931 722.974 487.013 694.13 452.586 687.498V571.724ZM437.5 714.655C462.483 714.655 482.759 733.865 482.759 757.534C482.759 781.204 462.483 800.414 437.5 800.414C412.517 800.414 392.241 781.204 392.241 757.534C392.241 733.865 412.517 714.655 437.5 714.655ZM437.5 230.062C400.901 190.327 343.453 194.243 313.099 219.971C280.392 247.728 277.254 303.157 309.901 358.643C331.052 396.862 384.668 435.568 429.776 461.067C434.543 463.754 440.457 463.754 445.224 461.067C490.332 435.568 543.948 396.891 565.099 358.643C597.746 303.157 594.608 247.728 561.901 219.971C531.547 194.243 474.099 190.327 437.5 230.062ZM424.315 261.85C427 266.366 432.039 269.168 437.5 269.168C442.961 269.168 448 266.366 450.685 261.85C473.526 223.087 518.935 221.915 541.776 241.268C553.06 250.844 558.19 265.394 558.19 282.146C558.19 301.241 551.552 323.024 538.668 344.864C538.608 344.978 538.517 345.093 538.457 345.236C520.716 377.481 476.422 409.326 437.5 432.081C398.578 409.326 354.284 377.481 336.543 345.236C336.483 345.093 336.392 344.978 336.332 344.864C323.448 323.024 316.81 301.241 316.81 282.146C316.81 265.394 321.94 250.844 333.224 241.268C356.065 221.915 401.474 223.087 424.315 261.85ZM844.828 28.672V85.6729C844.828 85.7015 844.828 85.73 844.797 85.73C844.797 85.7586 844.767 85.7586 844.737 85.7586H30.2629C30.2328 85.7586 30.2026 85.7586 30.2026 85.73C30.1724 85.73 30.1724 85.7015 30.1724 85.6729V28.672C30.1724 28.6434 30.1724 28.6148 30.2026 28.6148C30.2026 28.5862 30.2328 28.5862 30.2629 28.5862H844.737C844.767 28.5862 844.797 28.5862 844.797 28.6148C844.828 28.6148 844.828 28.6434 844.828 28.672Z" fill="black"/>
</svg>
