<svg width="807" height="831" viewBox="0 0 807 831" fill="none" xmlns="http://www.w3.org/2000/svg">
<path d="M749.816 51.6414C746.721 49.5453 742.953 48.7069 739.319 49.5453C714.424 55.1348 695.853 73.8602 678.493 91.4669C658.846 111.589 630.687 136.742 607.439 112.707C604.748 109.633 601.922 104.742 602.999 98.8728C612.015 58.8373 567.572 23.0991 531.407 28.584C457.863 32.0426 417.798 169.163 346.236 130.314C340.719 126.82 333.856 120.672 332.375 110.47C325.512 67.151 280.027 44.6533 241.943 50.8018C189.528 59.6054 157.129 102.4 118.68 133.527L115.955 117.492C160.465 70.2955 117.301 -11.2735 55.0951 1.30077C-7.68274 11.9209 -20.7695 103.415 36.4903 132.373L153.94 819.503C155.117 827.154 162.351 832.009 169.55 830.822L222.437 821.04C229.636 819.782 234.851 812.271 233.337 804.83L186.236 529.27C221.158 502.02 252.613 459.715 297.39 451.855C322.42 447.942 353.103 462.755 357.14 488.327C362.96 528.047 410.665 547.576 445.281 535.418C506.107 521.514 557.313 386.039 620.9 444.027C625.341 448.918 630.051 456.883 628.167 466.664C620.765 498.734 655.653 527.59 684.821 523.817C711.063 521.022 731.517 502.298 748.743 484.969C763.411 470.087 778.819 454.296 796.38 450.314C803.243 448.777 807.819 441.93 806.877 434.663L755.471 61.1384C754.932 57.3655 752.912 53.8772 749.816 51.6414ZM204.537 795.892L178.027 800.783C150.878 641.619 92.6747 301.739 65.0559 139.857C73.9717 140.381 83.2905 138.424 91.5663 135.106C122.383 314.15 173.991 617.899 204.503 795.897L204.537 795.892ZM579.184 327.067C424.563 451.647 551.832 427.572 364.008 368.989C325.924 359.207 296.588 320.08 295.645 277.741C295.645 191.207 387.455 152.294 446.899 212.063C481.518 133.984 580.463 135.452 610.805 216.116C624.666 255.941 611.078 303.593 579.184 327.067Z" fill="black"/>
<path d="M572.69 552.989C475.291 560.779 378.572 590.789 292.98 639.732C286.453 643.47 284.099 651.959 287.698 658.701C291.298 665.513 299.574 667.889 305.966 664.186C388.223 617.164 481.146 588.342 574.773 580.832C592.267 579.155 590.451 551.941 572.687 552.954L572.69 552.989Z" fill="black"/>
<path d="M329.351 546.773C325.785 539.996 317.609 537.551 311.083 541.219L244.706 578.949C238.179 582.652 235.79 591.141 239.356 597.918C242.956 604.765 251.232 607.141 257.624 603.473L324.002 565.743C330.528 562.04 332.917 553.551 329.351 546.773Z" fill="black"/>
<path d="M578.099 476.765L527.13 485.15C509.67 488.364 513.908 515.368 531.335 512.748L582.304 504.363C599.697 501.184 595.661 474.215 578.099 476.765Z" fill="black"/>
</svg>
