<svg width="801" height="741" viewBox="0 0 801 741" fill="none" xmlns="http://www.w3.org/2000/svg">
<path d="M3.99296 656.527C-1.60338 689.832 5.97872 698.025 28.7613 704.656C50.7134 711.058 84.2552 725.69 101.297 709.876C111.37 700.502 114.187 684.269 115.234 669.979C115.703 664.873 115.703 663.653 122.744 657.175C135.381 645.591 130.506 648.639 143.396 606.303C146.646 595.595 149.895 584.62 152.567 573.455C158.958 596.624 166.034 609.58 167.479 627.491C169.898 658.014 176.613 682.021 188.601 703.018C198.747 720.814 214.344 722.148 228.533 724.664C312.153 739.373 369.673 739.64 380.173 740.592C386.492 741.164 392.738 741.621 398.659 738.42C409.599 732.475 415.412 723.329 419.059 713.04C419.781 714.527 420.611 715.936 421.478 717.385L422.344 720.052C427.904 737.124 436.931 740.744 453.467 740.058C499.321 738.153 543.442 733.161 585.466 725.73C597.02 723.672 606.949 716.622 612.797 706.371C624.713 685.413 631.392 661.443 633.81 630.996C635.291 612.438 642.44 600.167 649.047 575.932C654.896 599.444 662.623 620.174 667.605 642.085C670.601 654.355 682.516 658.127 685.043 665.292C687.86 672.989 683.419 717.041 720.788 717.041C737.866 717.041 781.878 702.56 788.629 697.758C804.877 686.174 797.439 663.691 795.85 648.41C793.359 626.308 801.483 602.987 800.977 579.093C800.436 554.667 795.128 529.631 791.409 506.538C775.812 405.902 745.736 250.266 702.012 159.385C682.407 118.725 653.594 88.1633 613.878 66.0236C585.282 50.2473 547.264 39.0062 529.356 9.96849C528.164 8.67289 526.937 4.21441 522.135 4.74783C521.521 4.82404 521.088 5.01458 520.546 5.1289C509.39 -3.10216 492.853 2.88059 479.856 7.68206C440.682 22.1629 343.846 16.1418 312.873 4.06196C305.29 1.12775 296.769 -2.11131 287.274 1.81365C278.862 0.175047 274.781 4.82405 273.157 7.87259C256.079 37.9005 217.808 49.3708 187.262 66.0612C93.2429 118.458 66.0593 227.902 38.1825 354.76C28.5781 397.897 0.849237 540.492 0.0192183 579.172C-0.486252 606.952 9.19213 625.394 3.99296 656.527ZM376.706 265.894C382.736 261.664 393.098 262.426 399.994 272.106C400.139 274.087 401.041 276.031 402.81 277.136C402.846 277.136 402.883 277.136 402.919 277.174C403.027 277.402 403.135 277.593 403.208 277.783C403.208 277.669 403.316 277.669 403.316 277.517C403.352 277.44 403.388 277.402 403.424 277.326C406.782 279.003 409.815 277.555 411.295 275.002C413.642 271 416.169 266.999 418.697 263.036C429.131 261.13 436.857 269.4 437.796 277.402C439.241 289.711 426.459 306.325 417 313.757C412.631 317.758 406.024 322.978 400.644 320.692C385.841 313.376 353.635 281.823 376.706 265.894ZM425.34 594.298V594.45C421.224 598.375 413.173 605.501 408.226 602.872C395.191 596.47 366.813 568.652 387.068 554.59C393.856 549.865 405.41 552.876 410.501 565.032C412.27 559.849 415.989 555.734 419.383 553.675C428.77 548.112 439.927 555.314 440.937 564.764C442.02 574.748 432.67 587.591 425.34 594.298ZM437.146 423.54C432.814 432.038 416.024 451.587 408.514 447.624C395.733 441.222 368.112 414.204 387.862 400.563C394.975 395.723 405.59 398.924 410.681 410.737C418.407 387.492 450.036 398.047 437.146 423.54ZM392.99 726.833C392.629 727.024 392.051 726.986 391.654 727.138C396.492 723.975 400.861 719.746 404.688 715.02C401.656 720.508 397.539 724.395 392.99 726.833ZM691.002 165.219C734.039 254.694 763.97 410.097 779.243 508.636C795.419 608.511 793.902 618.12 740.466 638.811C739.167 639.307 701.87 650.662 687.247 648.185C684.178 645.366 680.351 642.088 679.557 638.964C676.74 626.503 672.986 614.232 669.411 602.381C653.163 548.955 657.893 550.404 655.402 546.098C661.829 505.667 661.251 462.492 660.601 423.054C660.24 417.3 662.118 334.303 638.505 238.766C637.639 235.298 634.281 233.24 630.995 234.117C627.71 235.031 625.724 238.575 626.59 242.043C649.084 332.966 648.037 419.053 648.29 423.239C649.157 476.931 650.131 537.786 632.729 587.245C627.638 601.65 622.764 614.606 621.536 629.887C619.298 658.277 613.16 680.454 602.22 699.66C594.494 713.264 581.749 713.073 568.029 715.284C575.25 698.44 578.861 680.073 578.139 661.706C577.778 652.751 565.502 653.856 565.827 662.239C566.513 680.226 562.758 698.288 554.959 714.484C554.49 715.437 554.345 716.427 554.345 717.418C537.051 719.933 519.72 722.181 502.426 723.782C509.43 712.083 512.896 676.11 513.582 662.353C513.763 658.771 511.163 655.685 507.769 655.532C504.375 655.342 501.451 658.085 501.306 661.668C500.837 671.232 497.298 713.187 490.222 719.208C488.561 720.618 487.911 722.714 488.056 724.772C478.055 725.534 453.033 727.592 446.029 727.02L445.993 427.688C445.993 393.201 444.079 358.562 448.773 324.301C453.575 290.081 462.781 289.204 487.297 244.887C530.408 167.339 556.294 143.177 565.718 57.2916C564.563 56.377 563.372 55.5006 562.216 54.6241C600.921 75.202 655.154 90.749 691.008 165.21L691.002 165.219ZM308.574 16.187C342.368 29.3723 441.691 35.4694 483.904 19.8834C492.605 16.6825 507.191 11.3094 513.366 15.5393C515.676 17.1017 517.048 20.4551 517.409 25.4468C519.648 54.2172 504.917 91.5235 500.367 102.27C484.336 139.844 459.604 173.606 438.735 209.081C429.42 224.895 418.083 240.252 405.229 261.058C389.884 231.488 408.587 274.624 345.258 174.29C315.219 126.694 298.068 98.2284 290.522 53.07C288.212 39.2369 279.836 19.8024 290.775 14.2389C296.01 11.5333 300.956 13.2147 308.574 16.187ZM18.6495 526.547C26.1594 482.19 32.2977 437.911 50.1329 357.663C76.9949 235.301 104.038 127.076 192.891 77.5383C207.153 69.7264 221.955 63.6291 235.567 56.2366C231.668 75.8233 243.366 107.795 251.129 126.048C267.484 164.573 292.18 197.993 313.085 233.698C329.297 261.363 352.62 289.601 364.283 319.4C376.523 350.076 377.678 365.357 372.407 727.066C360.745 726.608 348.938 725.846 337.168 724.97C336.951 723.446 336.229 721.959 335.002 720.892C327.961 714.91 324.387 672.916 323.917 663.352C323.737 659.769 320.704 656.873 317.455 657.216C314.061 657.407 311.425 660.455 311.642 664.037C312.328 677.641 315.794 711.785 321.896 723.789C304.927 722.303 287.848 720.321 270.734 717.958C269.904 713.233 258.169 695.781 259.397 663.961C259.722 655.539 247.409 654.548 247.085 663.427C246.399 681.375 249.865 699.286 256.725 715.824C240.839 713.423 238.709 713.423 217.804 709.498C209.933 708.012 203.146 703.211 199.21 696.313C188.234 677.107 182.096 654.891 179.821 626.425C178.702 612.135 174.369 599.902 169.784 586.984L168.629 583.783C151.226 534.321 152.201 473.431 153.067 419.738C153.464 413.64 151.587 332.321 174.767 238.581C175.634 235.113 173.648 231.57 170.362 230.655C167.077 229.778 163.719 231.836 162.852 235.304C139.925 327.942 141.008 415.475 140.756 419.553C140.106 459.908 139.456 504.15 146.352 545.377C145.63 546.292 145.053 547.32 144.872 548.578C140.937 578.911 128.517 608.253 121.548 638.891C120.862 641.749 118.01 644.416 114.941 647.198C99.9933 650.285 62.1554 638.967 59.9167 638.091C3.9533 616.369 7.13187 594.838 18.6495 526.547Z" fill="black"/>
<path d="M499.864 352.434C491.921 354.034 494.088 366.762 502.211 365.2C567.31 351.862 616.122 365.619 619.874 365.619C627.276 365.619 628.359 354.263 621.066 352.739C581.458 344.431 539.542 344.317 499.864 352.434Z" fill="black"/>
</svg>
