<svg width="810" height="817" viewBox="0 0 810 817" fill="none" xmlns="http://www.w3.org/2000/svg">
<path d="M88.8539 458.143L155.244 483.538C166.169 487.649 163.903 487.649 173.987 482.808L333.187 408.465C336.402 416.111 477.112 753.475 479.591 759.474C481.564 777.224 499.285 784.216 516.239 784.216C519.893 784.216 523.875 783.679 527.785 783.179C539.368 804.694 537.723 806.385 542.364 807.96C552.557 815.298 573.018 809.074 584.346 803.58C625.341 826.824 668.931 819.024 699.733 786.752C754.832 729.007 728.415 630.496 728.415 567.027C769.74 588.504 811.32 556.424 809.968 517.62C809.347 501.137 810.881 482.081 800.322 467.443C781.433 441.318 723.666 455.648 716.687 540.248C668.019 481.082 668.969 370.704 729.622 320.376C732.325 318.148 732.8 313.998 730.645 311.155C728.489 308.312 724.579 307.813 721.876 310.079C680.405 344.504 660.711 409.467 672.842 471.677C680.369 510.442 698.162 541.331 715.884 558.198C715.372 628.661 741.643 724.33 690.928 777.461C665.315 804.278 630.311 810.694 597.61 795.672C605.575 789.794 617.157 778.96 615.258 768.971C616.427 767.05 616.683 764.629 615.623 762.478L606.342 743.883C612.736 737.275 617.925 730.244 621.176 721.561C626.621 711.572 623.697 700.161 619.678 689.366C618.363 685.985 471.478 345.586 470.899 344.278C494.648 333.136 495.927 332.637 509.446 327.296C540.284 315.155 578.648 300.057 580.001 256.988C582.047 194.133 564.253 127.169 531.149 73.1824C474.735 -18.4489 443.02 -4.57896 404.585 12.3637C118.642 138.73 293.725 61.3493 167.787 117.023L147.07 126.205C112.396 141.42 77.7575 156.749 43.1975 172.079C32.4193 176.613 34.5015 174.807 29.934 185.641C0.813146 256.142 0.374462 252.914 1.21536 257.14C-10.111 287.031 60.7357 454.883 88.8697 458.158L88.8539 458.143ZM751.207 481.041C758.186 473.433 769.075 468.516 778.208 469.053C798.414 470.321 796.733 497.83 797.464 518.077C797.902 530.563 792.275 542.512 781.643 551.733C767.868 563.643 744.411 563.298 728.48 551.887C729.284 528.143 733.742 500.058 751.207 481.041ZM567.678 772.033C577.471 783.981 585.765 788.861 589.016 791.397C580.941 786.633 575.315 798.39 582.366 802.577C582.403 802.616 582.476 802.616 582.512 802.654C577.251 799.85 566.874 791.474 558.032 780.716C556.643 778.987 556.241 776.836 556.643 774.838C551.272 778.68 546.924 782.791 543.746 786.902C543.051 785.557 522.517 744.41 523.211 745.793C536.913 730.463 557.594 720.051 578.164 715.71L600.088 759.585C587.738 759.201 575.534 764.119 564.536 769.882C565.778 770.304 566.765 770.996 567.678 772.033ZM603.888 684.437C568.154 672.603 503.186 702.263 484.338 738.455C480.94 730.233 477.542 721.973 474.107 713.905C290.653 274.308 521.935 828.586 338.404 388.488C335.261 381.15 337.052 372.505 342.861 366.973C372.969 338.657 403.66 328.975 404.939 328.36C444.144 313.454 448.748 323.02 456.969 343.767L457.188 344.228C468.15 369.585 603.738 684.132 603.888 684.437ZM409.396 24.4557C442.865 9.74081 468.223 -4.85899 520.686 80.2799C552.438 132.07 569.501 196.309 567.528 256.552C566.541 287.057 541.769 300.12 515.096 311.031C497.192 204.759 454.187 108.794 390.608 32.7558L409.396 24.4557ZM151.88 138.292L172.596 129.109C227.258 104.943 281.95 80.7384 336.726 56.5726C396.721 128.033 437.858 217.855 456.602 317.292C441.293 300.348 417.397 310.376 397.923 317.023C375.269 325.398 353.968 338.884 334.53 357.171C324.665 366.546 321.633 381.26 327.04 393.786L328.136 396.437L209.391 451.915C205.518 426.288 200.22 400.97 193.424 376.651C192.474 373.193 189.04 371.195 185.678 372.194C182.39 373.193 180.49 376.843 181.44 380.339C188.346 405.196 193.79 431.13 197.663 457.37L169.31 470.626C155.353 362.632 114.832 266.274 48.6944 183.862C57.3904 180.02 66.1231 176.178 74.8192 172.336C116.144 224.164 148.004 281.451 169.6 342.647C170.514 345.298 172.925 346.912 175.446 346.912C179.794 346.912 182.79 342.378 181.292 338.075C159.662 276.68 127.838 219.204 86.8013 167.026C108.468 157.46 130.177 147.82 151.88 138.292ZM40.1876 193.655C103.691 273.261 142.788 366.159 156.632 470.16L98.4264 447.915C103.359 412.453 43.2911 271.073 15.0467 253.438L40.1876 193.655Z" fill="black"/>
<path d="M176.797 629.3H177.016C180.451 629.146 183.155 626.111 183.045 622.499L180.305 542.816C180.013 534.095 167.553 534.671 167.846 543.277L170.586 622.999C170.696 626.533 173.436 629.3 176.797 629.3Z" fill="black"/>
<path d="M131.712 523.608C128.753 521.84 124.916 522.878 123.199 526.066C106.136 557.455 90.8269 590.382 77.7093 623.922C76.394 627.264 77.9285 631.106 81.1073 632.489C84.1765 633.834 87.9033 632.374 89.2552 628.916C102.19 595.875 117.28 563.449 134.087 532.559C135.732 529.409 134.709 525.413 131.712 523.608Z" fill="black"/>
<path d="M88.4142 493.678C59.4028 513.273 35.5079 529.14 9.85824 546.429C4.63336 549.963 7.04483 558.493 13.2198 558.493C15.8505 558.493 13.4755 559.492 54.8362 531.752C67.7705 523.108 81.1799 514.117 95.1375 504.705C98.0239 502.745 98.8644 498.673 97.0009 495.638C95.174 492.603 91.3007 491.719 88.4142 493.678Z" fill="black"/>
<path d="M433.518 442.888C408.563 426.329 384.558 450.072 391.135 474.238C397.821 498.98 438.049 518.69 454.2 518.69C458.913 518.69 463.699 517.192 466.805 513.426C477.767 500.094 493.77 464.517 486.573 441.081C478.388 414.38 442.215 411.729 433.518 442.888Z" fill="black"/>
</svg>
