<svg width="831" height="801" viewBox="0 0 831 801" fill="none" xmlns="http://www.w3.org/2000/svg">
<path fill-rule="evenodd" clip-rule="evenodd" d="M61.9926 325.713C91.9377 193.748 199.752 89.5178 336.648 60.071C347.969 57.5679 359.209 64.4906 361.684 75.4021C364.16 86.3138 357.099 97.1483 345.779 99.5343C224.786 125.465 129.428 217.692 103.013 334.317C100.822 343.743 92.2192 350.235 82.4404 350.235C80.9797 350.235 79.4378 350.118 77.977 349.727C66.6972 347.419 59.5993 336.624 61.9926 325.713ZM346.839 701.652C225.845 676.229 130.166 584.315 103.262 467.65C100.787 456.738 89.5475 449.816 78.2262 452.319C66.9059 454.704 59.8455 465.538 62.3208 476.451C92.7531 608.526 201.015 712.445 337.912 741.191C339.454 741.504 340.914 741.7 342.497 741.7C352.154 741.7 360.877 735.286 362.948 725.782C365.423 714.87 358.16 704.077 346.839 701.652ZM484.068 99.34C605.061 124.763 700.741 216.676 727.644 333.342C729.836 342.768 738.56 349.143 748.217 349.143C749.678 349.143 751.219 348.947 752.802 348.634C764.122 346.249 771.304 335.415 768.707 324.502C738.275 192.538 630.138 88.6178 493.117 59.7618C481.796 57.376 470.677 64.2596 468.203 75.172C465.566 86.1237 472.748 96.915 484.068 99.34ZM752.969 451.149C741.649 448.763 730.408 455.647 728.056 466.559C701.681 583.185 606.325 675.41 485.206 701.343C473.886 703.728 466.826 714.562 469.301 725.475C471.492 734.901 480.095 741.275 489.752 741.275C491.294 741.275 492.876 741.08 494.337 740.767C631.359 711.433 739.17 607.08 768.993 475.125C771.468 464.37 764.29 453.574 752.969 451.149ZM507.325 313.908C482.168 307.102 454.779 319.501 432.138 347.934C428.202 352.941 422.075 355.835 415.501 355.835C408.968 355.835 402.841 352.941 398.864 347.934C380.28 324.624 358.572 312.109 337.472 312.109C332.887 312.109 328.221 312.695 323.758 313.908C299.33 320.518 281.599 343.163 278.474 371.675C272.469 423.928 321.08 482.593 415.496 537.582C509.916 482.709 558.532 424.04 552.6 371.675C549.476 343.123 531.631 320.517 507.325 313.908ZM831 400.5C831 411.725 821.667 420.72 810.022 420.72H678.922C668.737 545.286 565.719 644.59 436.478 654.412V780.78C436.478 792.005 427.145 801 415.5 801C403.855 801 394.522 792.004 394.522 780.78V654.412C264.762 644.595 162.268 544.665 152.078 420.72H20.9776C9.33213 420.72 0 411.725 0 400.5C0 389.275 9.33254 380.28 20.9776 380.28H152.078C162.263 255.714 265.281 156.41 394.522 146.588V20.2203C394.522 8.99524 403.855 0 415.5 0C427.145 0 436.478 8.99564 436.478 20.2203V146.588C566.114 156.405 668.732 256.135 678.922 380.28H810.022C821.668 380.28 831 389.275 831 400.5ZM594.362 367.373C589.371 322.316 559.548 286.06 518.647 275.069C482.818 265.37 446.258 276.282 415.381 305.224C384.624 276.282 347.983 265.369 312.114 275.069C271.173 286.177 241.471 322.434 236.481 367.373C230.881 417.63 255.47 495.152 404.873 578.656C408.078 580.456 411.73 581.355 415.382 581.355C419.033 581.355 422.645 580.456 425.891 578.656C575.377 495.114 600.003 417.635 594.362 367.373Z" fill="black"/>
</svg>
