<svg width="764" height="819" viewBox="0 0 764 819" fill="none" xmlns="http://www.w3.org/2000/svg">
<path d="M20.6473 614.246H123.891C135.277 614.246 144.538 605.061 144.538 593.773C144.538 582.484 135.274 573.299 123.891 573.299H20.6473C9.26128 573.299 0 582.484 0 593.773C0 605.061 9.26349 614.246 20.6473 614.246Z" fill="black"/>
<path d="M20.6473 491.398H123.891C135.277 491.398 144.538 482.212 144.538 470.924C144.538 459.636 135.274 450.448 123.891 450.448H20.6473C9.26128 450.448 0 459.636 0 470.924C0 482.212 9.26349 491.398 20.6473 491.398Z" fill="black"/>
<path d="M454.237 548.57C465.831 537.246 477.211 526.965 488.282 516.964C526.962 482.023 557.513 454.423 557.513 415.675C557.513 389.689 536.651 368.549 511.005 368.549C489.018 368.549 477.474 377.612 463.507 405.843C461.77 409.349 458.176 411.571 454.235 411.571C450.298 411.571 446.704 409.349 444.965 405.843C430.995 377.61 419.454 368.549 397.466 368.549C371.856 368.549 351.022 389.689 351.022 415.675C351.022 454.447 381.576 482.061 420.256 517.017C431.307 526.998 442.665 537.264 454.237 548.57Z" fill="black"/>
<path d="M20.6473 122.851H123.891C135.277 122.851 144.538 113.665 144.538 102.377C144.538 91.0867 135.274 81.9011 123.891 81.9011H20.6473C9.26128 81.9011 0 91.0867 0 102.377C0 113.665 9.26349 122.851 20.6473 122.851Z" fill="black"/>
<path d="M20.6473 368.549H123.891C135.277 368.549 144.538 359.364 144.538 348.074C144.538 336.783 135.274 327.6 123.891 327.6H20.6473C9.26128 327.6 0 336.786 0 348.074C0 359.364 9.26349 368.549 20.6473 368.549Z" fill="black"/>
<path d="M20.6473 245.699H123.891C135.277 245.699 144.538 236.513 144.538 225.223C144.538 213.933 135.274 204.749 123.891 204.749H20.6473C9.26128 204.749 0 213.935 0 225.223C0 236.516 9.26349 245.699 20.6473 245.699Z" fill="black"/>
<path d="M144.54 716.623C144.54 705.333 135.277 696.147 123.893 696.147H20.6473C9.26128 696.147 0 705.335 0 716.623C0 727.911 9.26349 737.097 20.6473 737.097H123.891C135.277 737.097 144.54 727.911 144.54 716.623Z" fill="black"/>
<path d="M711.344 0H135.248C106.214 0 82.5938 23.422 82.5938 52.2112V61.4253H123.891C146.661 61.4253 165.188 79.7942 165.188 102.375C165.188 124.953 146.661 143.324 123.891 143.324H82.5938V184.274H123.891C146.661 184.274 165.188 202.645 165.188 225.223C165.188 247.804 146.661 266.173 123.891 266.173H82.5938V307.122H123.891C146.661 307.122 165.188 325.493 165.188 348.071C165.188 370.652 146.661 389.021 123.891 389.021H82.5938V429.97H123.891C146.661 429.97 165.188 448.339 165.188 470.922C165.188 493.5 146.661 511.871 123.891 511.871H82.5938V552.823H123.891C146.661 552.823 165.188 571.192 165.188 593.773C165.188 616.353 146.661 634.724 123.891 634.724H82.5938V675.674H123.891C146.661 675.674 165.188 694.043 165.188 716.625C165.188 739.204 146.661 757.575 123.891 757.575H82.5938V766.789C82.5938 795.578 106.214 819 135.248 819H711.346C740.379 819 764 795.578 764 766.789V52.2133C763.998 23.4242 740.377 0 711.344 0ZM691.729 737.097H237.459C231.756 737.097 227.134 732.514 227.134 726.859C227.134 721.206 231.756 716.623 237.459 716.623H691.729C697.43 716.623 702.051 721.206 702.051 726.859C702.051 732.514 697.43 737.097 691.729 737.097ZM691.729 655.198H237.459C231.756 655.198 227.134 650.615 227.134 644.96C227.134 639.307 231.756 634.724 237.459 634.724H691.729C697.43 634.724 702.051 639.307 702.051 644.96C702.051 650.615 697.43 655.198 691.729 655.198ZM330.377 415.675C330.377 378.401 360.474 348.074 397.468 348.074C425.168 348.074 441.444 360.429 454.235 380.237C467.028 360.429 483.306 348.074 511.003 348.074C548.033 348.074 578.161 378.399 578.161 415.675C578.161 463.472 542.952 495.273 502.185 532.101C488.991 544.022 475.345 556.347 461.606 570.23C459.665 572.194 457.011 573.297 454.237 573.297C451.465 573.297 448.811 572.192 446.87 570.23C433.149 556.365 419.527 544.055 406.353 532.147C365.586 495.306 330.377 463.487 330.377 415.675ZM702.051 276.413C702.051 282.065 697.43 286.651 691.729 286.651H237.459C231.756 286.651 227.134 282.068 227.134 276.413V71.6632C227.134 66.0104 231.756 61.4253 237.459 61.4253H691.729C697.43 61.4253 702.051 66.0082 702.051 71.6632V276.413Z" fill="black"/>
<path d="M247.784 266.175H681.404V163.8H361.352C355.649 163.8 351.027 159.217 351.027 153.562C351.027 147.907 355.649 143.324 361.352 143.324H681.404V81.8989H247.784V266.175ZM292.116 146.334C294.015 144.409 296.68 143.324 299.405 143.324C302.13 143.324 304.774 144.409 306.714 146.334C308.633 148.217 309.728 150.86 309.728 153.562C309.728 156.264 308.633 158.905 306.714 160.81C304.794 162.715 302.13 163.8 299.405 163.8C296.68 163.8 294.015 162.715 292.116 160.81C290.175 158.885 289.08 156.264 289.08 153.562C289.08 150.86 290.175 148.217 292.116 146.334Z" fill="black"/>
</svg>
