<svg width="821" height="674" viewBox="0 0 821 674" fill="none" xmlns="http://www.w3.org/2000/svg">
<path d="M792.426 512.935C791.583 418.332 755.485 327.416 691.205 257.846C626.961 188.28 539.041 144.995 444.603 136.404L480.078 100.871L480.041 100.908C493.345 87.821 500.784 69.9812 500.711 51.3376C500.381 30.1719 487.261 11.3093 467.507 3.59526C447.754 -4.11804 425.252 0.816967 410.593 16.1335C395.934 0.81678 373.469 -4.11879 353.716 3.59526C333.926 11.3086 320.806 30.171 320.476 51.3741C317.764 86.6137 355.108 113.848 376.584 136.439H376.731L376.767 136.403C282.255 144.92 194.3 188.165 129.978 257.771C65.6606 327.336 29.6015 418.284 28.7571 512.934C9.81048 519.002 -2.1373 537.646 0.318867 557.35C0.318867 576.87 14.5746 593.504 33.8881 596.538L45.5056 620.299C61.6677 653.053 95.053 673.854 131.665 674H689.519C726.129 673.854 759.516 653.053 775.678 620.263L787.295 596.538C829.623 590.908 832.922 524.121 792.426 512.935ZM40.1896 567.879C31.0642 567.659 28.6818 559.325 29.635 551.063C29.7816 547.736 31.3941 544.629 34.0328 542.582C36.7081 540.571 40.1529 539.803 43.4146 540.535C47.9956 540.571 777.141 540.498 781.025 540.535C790.15 540.717 792.532 549.125 791.579 557.351H791.543C791.579 560.165 790.48 562.834 788.464 564.808C786.485 566.782 783.81 567.879 781.025 567.879H40.1896ZM681.673 369.567C674.6 373.515 665.695 371.102 661.591 364.156C623.587 297.442 560.182 248.9 485.756 229.518C477.95 227.435 473.296 219.429 475.348 211.642C477.437 203.856 485.389 199.177 493.231 201.187C575.286 222.573 645.208 276.127 687.098 349.675C691.019 356.658 688.6 365.509 681.673 369.567ZM689.516 644.757H131.662C102.124 644.099 76.2134 625.053 66.795 597.125H754.419C745 625.054 719.055 644.099 689.516 644.757Z" fill="black"/>
</svg>
