<svg width="803" height="824" viewBox="0 0 803 824" fill="none" xmlns="http://www.w3.org/2000/svg">
<path d="M800.68 779.285C795.801 773.492 755.853 752.06 722.418 752.06C720.44 752.06 718.515 752.141 716.617 752.289C702.114 753.461 692.068 758.998 685.897 769.182C679.885 779.083 679.912 797.093 685.924 806.967C692.147 817.165 702.22 822.661 716.749 823.779C750.975 826.54 795.538 802.657 800.706 796.527C801.787 795.194 802.974 791.961 803 788.027C803 783.973 801.813 780.645 800.68 779.285Z" fill="black"/>
<path d="M86.3832 751.872C51.8932 748.949 7.48865 772.738 2.32043 778.854C1.18658 780.214 0 783.528 0 787.596C0.02637 791.543 1.21295 794.763 2.29406 796.069C7.43592 802.212 51.7877 825.732 86.2777 823.361C100.78 822.23 110.853 816.734 117.076 806.55C123.088 796.662 123.115 778.652 117.103 768.764C110.932 758.567 100.886 753.044 86.3832 751.872Z" fill="black"/>
<path d="M139.384 778.423C140.167 784.011 140.216 789.585 139.565 795.214L663.657 797.501C662.802 791.599 662.764 785.687 663.511 779.755L139.384 778.423Z" fill="black"/>
<path d="M640.781 37.8529C638.988 37.8529 637.248 37.9203 635.507 38.0954C625.039 39.1057 617.761 43.1739 613.279 50.5424C608.875 57.7627 608.875 71.449 613.252 78.7233C617.709 86.0783 624.96 90.16 635.428 91.2107C662.087 93.9991 697.289 75.4903 701.982 70.3848C702.536 69.6709 703.38 67.5425 703.38 64.6328C703.353 61.8444 702.51 59.7564 701.982 59.1098C697.737 54.422 666.675 37.8529 640.781 37.8529Z" fill="black"/>
<path d="M359.561 58.8943V70.4387L591.699 70.3108C591.307 66.5743 591.294 62.9271 591.673 59.1906L359.561 58.8943Z" fill="black"/>
<path d="M173.03 537.794C162.773 540.448 157.262 547.978 157.209 548.045C155.31 550.74 152.094 552.087 148.877 552.019C145.633 551.777 142.706 549.877 141.177 546.941C141.098 546.793 137.327 540.219 128.283 537.767C126.411 537.255 124.433 536.999 122.455 536.999C116.522 536.999 110.379 539.249 105.5 543.384C99.8312 548.18 96.8251 554.579 97.2734 560.923C98.1436 570.622 102.442 579.028 109.719 586.046C116.311 592.351 127.228 601.928 142.97 613.028C160.822 601.78 173.61 592.001 181.415 585.562C190.143 578.355 196.261 569.329 198.634 560.142C200.796 551.144 196.841 545.634 194.336 543.075C189.062 537.767 180.914 535.733 173.03 537.794Z" fill="black"/>
<path d="M736.71 0H49.4937V334.709H736.71V0ZM199.662 318.732C129.628 318.732 72.6716 250.233 72.6716 166.041C72.6716 81.8485 129.628 13.3495 199.662 13.3495C269.697 13.3495 326.653 81.8485 326.653 166.041C326.653 250.233 269.697 318.732 199.662 318.732ZM716.459 288.207L716.432 288.221C709.286 296.91 672.661 316.173 640.781 316.173C638.935 316.173 637.116 316.105 635.296 315.971C618.183 314.704 604.999 307.188 597.167 294.256C597.054 294.067 597.023 293.816 596.912 293.626L350.121 293.757C347.616 293.757 345.216 292.734 343.45 290.929C341.657 289.123 340.681 286.658 340.681 284.099V253.224C340.681 250.664 341.657 248.199 343.45 246.394C345.216 244.589 347.616 243.565 350.121 243.565L598.707 243.884C606.685 232.199 619.251 225.262 635.481 224.113C668.916 221.891 709.023 242.932 716.485 252.133C720.124 256.591 722.233 263.084 722.26 269.968C722.26 277.067 720.15 283.695 716.459 288.207ZM716.459 184.927L716.432 184.94C709.286 193.616 672.661 212.879 640.781 212.879C638.935 212.879 637.116 212.825 635.323 212.69C618.183 211.41 604.999 203.907 597.167 190.975C597.054 190.787 597.024 190.536 596.914 190.346L350.121 190.477C347.616 190.477 345.216 189.453 343.45 187.648C341.657 185.843 340.681 183.378 340.681 180.818V149.943C340.681 147.384 341.657 144.919 343.45 143.114C345.216 141.309 347.616 140.285 350.121 140.285L598.708 140.603C606.705 128.907 619.251 121.968 635.507 120.833C668.6 118.449 708.996 139.665 716.511 148.866C720.124 153.311 722.233 159.804 722.26 166.687C722.26 173.787 720.15 180.414 716.459 184.927ZM716.459 82.8184L716.432 82.8319C709.286 91.507 672.661 110.77 640.781 110.77C638.935 110.77 637.116 110.716 635.323 110.582C618.557 109.331 605.655 102.041 597.766 89.6245L350.121 89.7558C347.616 89.7558 345.216 88.7321 343.45 86.927C341.657 85.1219 340.681 82.6567 340.681 80.0973V49.2222C340.681 46.6628 341.657 44.1976 343.45 42.3926C345.216 40.5875 347.616 39.5637 350.121 39.5637L597.606 39.8803C605.525 27.2564 618.566 19.9081 635.507 18.7244C668.6 16.2996 708.996 37.5431 716.511 46.7571C720.124 51.2025 722.233 57.6954 722.26 64.5789C722.26 71.678 720.15 78.3057 716.459 82.8184Z" fill="black"/>
<path d="M181.969 420.477C172.239 422.915 167.229 429.475 167.018 429.745C165.067 432.345 161.797 433.867 158.791 433.557C155.627 433.328 152.726 431.51 151.197 428.667C151.118 428.559 147.558 422.686 139.015 420.464C137.169 419.979 135.27 419.75 133.372 419.75C127.465 419.75 121.453 421.959 116.733 426.014C111.908 430.189 109.377 435.605 109.772 440.872C110.827 451.648 116.76 458.977 121.559 463.355C127.914 469.16 138.408 477.957 153.412 488.087C170.446 477.782 182.628 468.824 190.064 462.923C198.317 456.39 204.066 448.267 206.228 440.037C208.074 432.506 204.778 427.832 202.642 425.636C197.658 420.531 189.748 418.618 181.969 420.477Z" fill="black"/>
<path d="M359.561 171.16L591.535 171.032C591.238 167.277 591.366 163.628 591.843 159.912L359.561 159.615V171.16Z" fill="black"/>
<path d="M359.561 274.44L591.533 274.312C591.236 270.559 591.366 266.91 591.843 263.192L359.561 262.896V274.44Z" fill="black"/>
<path d="M199.662 32.6666C140.043 32.6666 91.5514 92.4904 91.5514 166.041C91.5514 239.591 140.043 299.415 199.662 299.415C259.282 299.415 307.773 239.591 307.773 166.041C307.773 92.4904 259.282 32.6666 199.662 32.6666ZM156.233 151.789L194.784 116.94C198.687 113.424 204.672 113.774 208.1 117.775C211.581 121.776 211.212 127.878 207.283 131.407L168.732 166.256C166.939 167.886 164.724 168.681 162.483 168.681C159.872 168.681 157.262 167.577 155.416 165.421C151.935 161.42 152.304 155.318 156.233 151.789ZM167.625 207.652C165.014 207.652 162.404 206.548 160.558 204.392C157.077 200.405 157.446 194.303 161.349 190.76L234.97 124.16C238.925 120.658 244.884 120.995 248.312 124.995C251.793 128.983 251.424 135.085 247.521 138.628L173.9 205.227C172.081 206.844 169.866 207.652 167.625 207.652ZM249.657 180.293L211.133 215.142C209.313 216.758 207.098 217.567 204.857 217.567C202.246 217.567 199.636 216.462 197.79 214.307C194.31 210.319 194.679 204.217 198.581 200.674L237.106 165.825C241.034 162.323 247.02 162.646 250.448 166.661C253.929 170.648 253.56 176.75 249.657 180.293Z" fill="black"/>
<path d="M334.063 537.781C324.201 540.38 319.428 547.453 319.217 547.749C317.398 550.497 314.576 552.221 311.043 552.033C307.826 551.911 304.82 550.174 303.185 547.304C303.08 547.129 298.808 540.3 289.315 537.781C287.39 537.255 285.413 537.013 283.409 537.013C277.476 537.013 271.543 539.236 266.981 543.344C261.813 547.992 259.308 554.201 260.073 560.385C261.523 570.232 266.322 578.772 274.127 585.871C281.167 592.243 292.743 601.915 309.118 613.028C326.257 601.821 338.44 592.108 345.849 585.71C354.05 578.597 359.587 569.693 361.407 560.654C362.699 553.784 360.616 547.722 355.922 543.236C350.253 537.821 341.947 535.706 334.063 537.781Z" fill="black"/>
<path d="M640.781 243.242C638.988 243.242 637.221 243.323 635.507 243.484C625.039 244.495 617.761 248.563 613.279 255.931C608.875 263.152 608.875 276.852 613.252 284.112C617.709 291.467 624.96 295.562 635.428 296.6C662.087 299.294 697.289 280.866 701.982 275.774C702.536 275.06 703.38 272.932 703.38 270.022C703.353 267.233 702.51 265.145 701.982 264.499C697.737 259.811 666.648 243.242 640.781 243.242Z" fill="black"/>
<path d="M640.781 139.961C638.988 139.961 637.248 140.029 635.507 140.204C625.039 141.214 617.761 145.282 613.279 152.651C608.875 159.871 608.875 173.558 613.252 180.832C617.709 188.187 624.96 192.268 635.428 193.319C662.087 196.04 697.289 177.599 701.982 172.493C702.562 171.739 703.38 169.503 703.38 166.741C703.353 163.953 702.51 161.865 701.982 161.218C697.737 156.531 666.675 139.961 640.781 139.961Z" fill="black"/>
<path d="M785.992 675.075H0.580106V696.776H785.992V675.075Z" fill="black"/>
<path d="M656.154 537.767C647.109 540.219 643.339 546.793 643.181 547.076C641.572 549.945 638.619 551.844 635.375 552.006C631.552 552.114 629.021 550.672 627.148 547.965C627.148 547.965 621.664 540.448 611.406 537.794C609.376 537.269 607.319 537.013 605.315 537.013C599.514 537.013 594.003 539.141 590.101 543.075C587.596 545.634 583.64 551.144 585.592 559.334C588.149 569.329 594.241 578.355 602.969 585.575C610.774 592.001 623.562 601.78 641.414 613.028C657.156 601.929 668.072 592.351 674.665 586.033C681.969 579.042 686.267 570.636 687.058 561.718C687.585 554.579 684.605 548.18 678.936 543.398C672.423 537.861 663.669 535.706 656.154 537.767Z" fill="black"/>
<path d="M436.794 463.072C443.808 468.891 455.358 477.768 471.838 488.1C487.554 477.889 498.602 469.039 505.326 463.206C512.683 456.821 517.245 449.156 518.51 441.033C519.539 433.315 515.346 428.304 512.788 425.933C506.961 420.612 498.576 418.524 491.008 420.464C482.043 422.767 478.008 428.896 477.824 429.152C476.083 431.86 473.104 433.557 469.939 433.571C469.913 433.571 469.913 433.571 469.913 433.571C466.749 433.571 463.769 432.021 462.003 429.341C461.897 429.179 457.388 422.834 448.054 420.477C446.129 419.992 444.177 419.75 442.226 419.75C436.425 419.75 430.835 421.891 426.774 425.825C424.427 428.088 420.71 432.938 422.002 439.808C423.847 448.644 429.042 456.646 436.794 463.072Z" fill="black"/>
<path d="M737.738 354.026H48.8345L2.18858 655.758H784.384L737.738 354.026ZM217.197 563.914C213.479 578.395 205.305 590.68 193.281 600.595C184.289 608.017 169.048 619.629 147.532 632.79C146.029 633.706 144.368 634.164 142.68 634.164C140.861 634.164 139.015 633.612 137.433 632.534C117.946 619.252 104.577 607.573 96.7988 600.123C86.225 589.98 79.7384 576.967 78.5254 563.496C77.5498 549.662 83.008 537.35 93.4236 528.513C104.736 518.922 119.634 515.446 133.135 519.097C140.623 521.131 146.161 524.741 150.09 528.27C154.44 524.781 160.531 521.104 168.389 519.07C182.707 515.379 197.737 519.326 207.626 529.361C216.617 538.454 220.203 551.373 217.197 563.914ZM224.765 443.984C221.205 457.508 213.295 468.958 201.666 478.186C193.044 485.016 178.436 495.698 157.868 507.795C156.392 508.657 154.783 509.088 153.148 509.088C151.382 509.088 149.615 508.576 148.059 507.566C129.39 495.402 116.496 484.638 108.955 477.755C98.6446 468.352 92.2634 456.188 91.0241 443.512C90.0221 430.85 95.0057 419.494 104.551 411.263C115.389 401.928 130.392 398.277 143.656 401.739C150.801 403.598 156.154 406.912 159.978 410.172C164.17 406.952 169.998 403.585 177.486 401.726C191.62 398.183 206.439 402.143 216.037 412.031C224.449 420.666 227.613 432.318 224.765 443.984ZM380.155 563.389C377.201 578.004 369.634 590.411 358.058 600.447C349.435 607.883 334.827 619.508 313.996 632.709C312.467 633.679 310.753 634.164 309.012 634.164C307.246 634.164 305.453 633.652 303.897 632.628C283.831 619.441 269.803 607.761 261.576 600.299C250.422 590.155 243.487 577.614 241.509 564.035C239.742 550.201 244.515 537.808 254.482 528.85C265.373 519.029 280.139 515.379 294.114 519.083C301.708 521.117 307.457 524.754 311.518 528.284C315.736 524.768 321.617 521.117 329.369 519.083C343.634 515.298 358.348 519.11 368.843 529.132C378.335 538.212 382.475 550.713 380.155 563.389ZM381.051 443.485C378.177 457.158 370.847 468.743 359.614 478.051C351.334 484.921 337.306 495.631 317.371 507.727C315.895 508.63 314.207 509.088 312.546 509.088C310.832 509.088 309.118 508.603 307.589 507.66C288.155 495.442 274.733 484.733 266.902 477.903C256.223 468.595 249.261 456.579 247.337 444.051C245.623 431.361 249.973 419.925 259.123 411.559C269.539 402.022 284.543 398.264 298.122 401.739C305.4 403.598 310.885 406.925 314.84 410.172C318.901 406.939 324.57 403.598 331.953 401.726C345.902 398.291 360.721 402.089 370.768 411.815C379.495 420.315 383.266 431.86 381.051 443.485ZM413.775 411.815C423.795 402.089 438.693 398.277 452.589 401.726C459.972 403.598 465.641 406.939 469.702 410.172C473.631 406.925 479.142 403.598 486.42 401.739C500 398.223 514.95 402.009 525.392 411.546C534.542 419.925 538.893 431.361 537.337 442.946C535.202 456.633 528.24 468.649 517.561 477.916C509.677 484.773 496.203 495.496 476.874 507.66C475.345 508.603 473.631 509.088 471.917 509.088C470.256 509.088 468.568 508.63 467.092 507.727C446.999 495.509 433.05 484.84 424.876 478.051C413.643 468.743 406.312 457.158 403.675 444.576C401.25 431.846 405.02 420.315 413.775 411.815ZM543.059 562.877C540.923 577.6 533.989 590.142 522.808 600.285C514.66 607.707 500.711 619.346 480.46 632.628C478.905 633.652 477.112 634.164 475.345 634.164C473.605 634.164 471.891 633.679 470.361 632.709C449.53 619.494 434.922 607.869 426.352 600.447C414.777 590.424 407.209 578.018 404.493 564.561C401.961 550.713 406.101 538.225 415.62 529.132C426.115 519.11 440.881 515.311 455.068 519.083C462.82 521.117 468.7 524.768 472.919 528.284C476.98 524.754 482.728 521.117 490.322 519.083C504.298 515.433 519.064 519.029 529.981 528.863C539.921 537.821 544.694 550.214 543.059 562.877ZM568.479 412.044C578.05 402.157 592.817 398.129 607.056 401.726C614.544 403.585 620.372 406.952 624.564 410.172C628.388 406.912 633.714 403.598 640.886 401.739C654.097 398.304 669.127 401.928 679.965 411.25C689.51 419.494 694.494 430.85 693.571 442.408C692.2 456.215 685.845 468.366 675.535 477.768C667.993 484.652 655.073 495.415 636.404 507.579C634.848 508.576 633.081 509.088 631.315 509.088C629.68 509.088 628.071 508.657 626.595 507.795C605.922 495.644 591.393 484.989 582.823 478.186C571.221 468.985 563.337 457.549 560.014 445.088C556.903 432.331 560.067 420.679 568.479 412.044ZM687.585 600.123C679.806 607.573 666.438 619.252 646.951 632.534C645.369 633.612 643.523 634.164 641.704 634.164C640.016 634.164 638.355 633.706 636.852 632.79C615.335 619.629 600.094 608.017 591.103 600.595C579.079 590.653 570.931 578.355 567.503 565.059C564.233 551.373 567.819 538.454 576.811 529.361C586.726 519.326 601.756 515.338 616.047 519.07C623.905 521.104 629.97 524.781 634.347 528.27C638.276 524.741 643.813 521.131 651.302 519.097C664.803 515.392 679.675 518.922 691.013 528.526C701.429 537.363 706.887 549.675 705.964 562.338C704.672 576.981 698.159 589.993 687.585 600.123Z" fill="black"/>
<path d="M495.121 537.781C485.629 540.3 481.357 547.129 481.199 547.426C479.485 550.255 476.98 552.302 473.13 552.019C469.913 552.019 466.907 550.416 465.167 547.655C465.009 547.453 460.236 540.38 450.374 537.781C448.37 537.255 446.366 537.013 444.362 537.013C438.482 537.013 432.76 539.195 428.515 543.236C423.821 547.736 421.738 553.784 422.845 559.859C424.823 569.72 430.36 578.611 438.561 585.71C445.944 592.095 458.1 601.807 475.266 613.028C491.773 601.834 503.296 592.203 510.257 585.871C518.062 578.759 522.887 570.218 524.232 561.179C525.129 554.188 522.624 547.978 517.482 543.344C511.364 537.848 502.716 535.652 495.121 537.781Z" fill="black"/>
<path d="M594.425 462.937C601.808 468.81 613.964 477.741 631.051 488.1C646.081 477.97 656.576 469.174 662.931 463.368C667.73 458.977 673.663 451.648 674.665 441.572C675.139 435.591 672.608 430.176 667.782 426.014C661.533 420.639 653.095 418.47 645.527 420.464C636.958 422.686 633.398 428.573 633.24 428.829C631.605 431.59 628.651 433.409 625.487 433.544C622.376 433.773 619.264 432.264 617.418 429.651C617.26 429.462 612.303 422.902 602.573 420.477C600.595 419.992 598.618 419.75 596.666 419.75C590.971 419.75 585.592 421.824 581.874 425.65C579.764 427.832 576.442 432.52 578.103 439.296C580.45 448.281 586.198 456.417 594.425 462.937Z" fill="black"/>
<path d="M336.488 420.477C327.128 422.834 322.619 429.193 322.434 429.462C320.588 432.116 317.556 433.854 314.365 433.571C311.201 433.463 308.248 431.779 306.587 429.018C306.508 428.883 302.473 422.767 293.534 420.464C291.636 419.992 289.711 419.75 287.786 419.75C281.932 419.75 276.105 421.932 271.727 425.946C269.143 428.304 264.977 433.315 265.9 440.333C267.245 449.022 271.912 456.889 279.163 463.206C285.835 469.026 296.857 477.849 312.625 488.1C328.973 477.849 340.602 468.945 347.695 463.058C355.447 456.646 360.642 448.644 362.356 440.535C363.806 432.924 360.062 428.088 357.742 425.811C352.31 420.544 344.083 418.551 336.488 420.477Z" fill="black"/>
</svg>
