<svg width="827" height="676" viewBox="0 0 827 676" fill="none" xmlns="http://www.w3.org/2000/svg">
<path d="M826.491 488.162L800.846 378.72V513.709L812.841 510.752C822.654 508.247 828.874 498.141 826.491 488.162ZM762.603 75.8049H64.3581C54.3428 75.8049 46.0644 84.2237 46.0644 94.4079V581.713C46.0644 591.898 54.3431 600.316 64.3581 600.316H762.603C772.618 600.316 780.896 591.898 780.896 581.713V94.4079C780.896 84.1412 772.618 75.8049 762.603 75.8049ZM651.868 358.22C651.868 363.805 647.426 368.322 641.934 368.322L532.698 368.281C527.206 368.281 522.764 363.764 522.764 358.179C522.764 352.717 527.206 348.199 532.698 348.199H641.861C647.434 348.199 651.868 352.635 651.868 358.22ZM185.111 348.199H294.274C299.766 348.199 304.208 352.717 304.208 358.179C304.208 363.764 299.766 368.281 294.274 368.281H185.111C179.618 368.281 175.176 363.764 175.176 358.179C175.095 352.635 179.537 348.199 185.111 348.199ZM329 529.877H150.26C144.768 529.877 140.325 525.36 140.325 519.898C140.325 514.313 144.768 509.795 150.26 509.795H329C334.492 509.795 338.935 514.313 338.935 519.898C339.056 525.36 334.614 529.877 329 529.877ZM329 479.405H150.26C144.768 479.405 140.325 474.888 140.325 469.303C140.325 463.841 144.768 459.324 150.26 459.324H329C334.492 459.324 338.935 463.841 338.935 469.303C339.056 474.888 334.614 479.405 329 479.405ZM329 428.934H150.26C144.768 428.934 140.325 424.417 140.325 418.831C140.325 413.37 144.768 408.852 150.26 408.852H329C334.492 408.852 338.935 413.37 338.935 418.831C339.056 424.417 334.614 428.934 329 428.934ZM458.871 261.996L456.165 261.79L453.985 260.107C446.433 254.521 439.729 248.115 433.712 241.092C431.935 243.721 429.997 246.349 428.018 248.854C425.312 252.222 422.727 255.384 419.86 258.3C397.73 281.831 372.085 292.344 354.438 296.985L351.853 297.601L349.269 296.862C331.702 291.81 306.381 280.476 284.976 255.877C282.392 252.92 279.807 249.676 277.344 246.309C269.59 235.672 263.29 224.009 258.646 211.525C255.859 204.05 254.405 195.96 254.607 187.747C254.93 167.789 264.138 149.144 279.322 137.687C292.043 127.995 307.43 124.217 322.735 126.969C334.851 129.063 345.795 135.182 354.275 144.298C363.16 135.469 374.346 129.802 386.543 127.995C396.275 126.516 406.088 127.871 415.094 131.567C422.04 121.383 432.136 113.58 443.847 110.007C457.093 105.9 470.945 107.502 482.737 114.319C491.622 119.576 498.567 127.338 503.01 136.824C512.419 132.717 522.636 131.69 532.692 133.785C546.019 136.618 557.407 144.832 564.636 156.823C573.197 171.115 574.853 189.307 568.755 205.405C566.292 212.14 562.536 218.342 557.69 223.475C550.138 231.976 541.455 239.245 532.045 245.036C529.057 247.048 525.947 248.732 522.959 250.169C503.736 259.943 485.118 262.572 470.54 262.572C466.219 262.53 462.384 262.324 458.871 261.996ZM676.701 529.871H497.836C492.465 529.871 487.902 525.353 487.902 519.891C487.902 514.306 492.465 509.789 497.836 509.789H676.577C682.069 509.789 686.511 514.306 686.511 519.891C686.633 525.353 682.153 529.871 676.701 529.871ZM676.701 479.399H497.836C492.465 479.399 487.902 474.882 487.902 469.297C487.902 463.835 492.465 459.317 497.836 459.317H676.577C682.069 459.317 686.511 463.835 686.511 469.297C686.633 474.882 682.153 479.399 676.701 479.399ZM676.701 428.928H497.836C492.465 428.928 487.902 424.41 487.902 418.825C487.902 413.363 492.465 408.846 497.836 408.846H676.577C682.069 408.846 686.511 413.363 686.511 418.825C686.633 424.41 682.153 428.928 676.701 428.928ZM550.056 198.09C553.973 187.701 553.044 176.243 547.592 167.29C543.231 160.021 536.527 155.217 528.693 153.533C520.414 151.726 511.933 153.656 504.704 158.666L490.853 168.645L487.138 151.725C485.159 143.225 479.99 136.079 472.761 131.767C465.815 127.661 457.576 126.839 449.621 129.262C442.473 131.48 436.294 136.079 431.933 142.404C445.26 154.395 453.014 172.383 452.731 190.986C452.609 199.405 450.954 207.372 447.884 214.846C446.754 217.31 445.542 219.856 444.492 222.361C449.783 229.712 456.163 236.323 463.392 242.237C476.436 243.058 494.932 241.826 513.953 232.258C516.416 230.902 519.001 229.506 521.585 227.822C529.339 222.976 536.568 216.775 543.07 209.752C546.22 206.262 548.602 202.403 550.056 198.09ZM389.283 148.03C378.945 149.508 369.859 155.299 363.639 164.334L353.826 178.419L344.537 164.005C338.56 154.765 329.555 148.646 319.418 146.88C317.358 146.551 315.299 146.346 313.199 146.346C305.445 146.346 297.812 148.974 291.27 153.902C280.932 161.582 274.712 174.395 274.51 188.07C274.389 193.655 275.318 199.199 277.297 204.374C281.335 215.215 286.707 225.277 293.33 234.353C295.389 237.187 297.57 239.938 299.832 242.567C317.197 262.443 337.47 272.094 352.25 276.857C367.233 272.545 387.829 263.511 405.72 244.497C408.102 241.992 410.364 239.363 412.545 236.407C419.37 227.7 425.145 217.804 429.586 207.084C431.767 201.951 432.777 196.366 432.898 190.699C433.1 177.146 427.325 164.211 417.189 156.12C409.112 149.508 399.298 146.675 389.283 148.03ZM101.99 620.386L111.723 661.699C112.773 666.545 115.761 670.652 120.001 673.281C124.121 675.786 129.088 676.648 133.732 675.498L360.649 620.427L101.99 620.386ZM715.263 14.3238C714.213 9.47791 711.225 5.28905 706.984 2.74255C702.865 0.114266 697.898 -0.624907 693.254 0.524915L466.337 55.5139H725.003L715.263 14.3238ZM14.1136 165.366C9.34819 166.434 5.22895 169.555 2.72479 173.785C0.140189 178.097 -0.586703 183.148 0.463264 187.87L26.1076 297.438V162.324L14.1136 165.366Z" fill="black"/>
</svg>
