<svg width="817" height="819" viewBox="0 0 817 819" fill="none" xmlns="http://www.w3.org/2000/svg">
<path d="M622.783 121.856C620.941 134.535 618.214 147.214 612.723 159.894C640.21 176.789 665.856 197.933 689.659 224.109C670.425 224.959 653.954 226.658 637.448 227.475C620.977 227.475 613.644 232.54 611.803 244.37C610.882 249.435 609.961 258.749 606.312 260.416C596.252 264.631 585.237 265.481 574.256 265.481C568.765 265.481 562.354 261.265 555.943 259.566C550.453 257.867 544.963 257.017 539.472 257.017C526.649 267.997 513.827 278.128 498.241 288.291C498.241 289.991 497.32 290.84 497.32 292.507C495.478 305.186 500.083 311.951 509.222 319.533C483.577 329.663 459.774 338.128 436.855 349.957C425.875 355.022 416.7 366.003 408.447 375.316C402.036 382.93 397.467 393.061 391.977 401.524C369.98 430.249 393.818 482.634 417.621 499.564C423.112 502.93 429.523 504.629 435.934 505.479C444.187 507.178 456.089 507.178 464.342 508.028C492.75 508.878 491.829 508.878 497.319 534.237C502.81 559.595 493.671 584.955 495.477 610.281C495.477 617.045 488.145 625.476 480.813 632.241C469.832 642.371 464.342 652.535 463.421 666.881C462.5 685.476 458.851 704.92 457.93 723.514C457.009 737.043 463.421 743.808 477.164 742.109C489.066 741.259 501.889 737.893 512.869 734.494C553.179 720.115 586.156 694.789 619.136 670.279C624.626 665.214 629.196 657.6 631.959 651.685C637.449 633.94 650.271 621.26 666.778 611.979C675.031 606.914 684.17 601.849 693.344 597.6C708.93 590.836 711.657 580.705 710.736 564.659C709.815 547.765 716.227 547.765 734.539 545.215C740.03 544.366 746.441 540.15 751.01 537.601C756.501 534.235 759.264 529.137 766.596 526.621C759.264 545.216 751.932 564.66 743.714 583.254C630.157 818.184 285.749 857.044 115.372 655.932C101.629 639.887 101.629 628.906 115.372 614.528C123.625 605.247 130.958 595.084 137.369 584.953C144.701 573.123 155.682 575.672 170.346 575.672C186.817 576.521 195.991 569.757 198.754 554.561C202.403 541.032 210.656 523.287 223.479 514.856C244.554 500.477 249.124 485.281 231.732 467.537C219.83 455.707 206.087 444.727 196.027 432.047C190.537 426.132 190.537 417.668 186.853 409.237C182.284 399.107 179.521 389.793 174.03 380.512C166.698 366.982 157.559 355.153 150.227 340.806C142.895 326.427 129.151 319.696 109.917 318.846C101.664 318.846 95.2527 314.63 95.2527 307.866C95.2527 290.971 93.4108 274.075 97.0946 257.148C100.743 242.768 112.68 233.488 130.072 232.638C155.717 230.939 174.951 219.959 194.185 204.763C200.596 199.698 207.928 196.299 215.26 193.783C200.596 170.972 191.457 147.313 188.694 123.653C75.1367 192.116 5.13608e-06 309.568 5.13608e-06 442.243C-0.0354141 650.018 183.126 819 408.482 819C633.801 819 817 649.984 817 442.109C817 306.916 739.143 188.615 622.783 121.856ZM650.27 356.786C644.779 347.505 639.289 340.74 634.684 333.127C647.542 335.643 648.463 336.492 650.27 356.786ZM706.165 423.55C704.323 430.315 691.501 441.295 684.168 439.596C658.523 432.831 634.72 418.485 623.703 399.04C621.862 394.825 618.213 389.759 618.213 384.661C620.976 350.021 601.742 342.407 566.923 333.943C558.67 332.244 549.531 330.577 536.709 328.878C548.611 313.682 564.196 308.584 576.098 303.519C586.158 298.454 593.49 301.82 600.823 310.284C607.234 319.565 615.487 334.793 622.82 344.074C627.389 349.14 632.88 354.205 627.389 361.819C626.468 362.669 631.958 369.433 632.879 369.433C639.291 369.433 645.702 366.884 652.113 364.368C652.113 377.897 663.094 382.113 674.995 388.028C685.976 393.093 696.071 399.858 702.482 405.773C706.166 410.871 707.051 418.452 706.165 423.55ZM67.7303 359.303C51.2594 390.577 48.4964 423.517 61.3191 457.342C67.7304 475.937 66.8094 491.982 59.4772 509.727C55.8288 516.491 54.9078 524.923 53.0659 532.537C25.5793 499.597 36.595 350.027 70.4582 304.375C74.142 323.819 77.8255 340.709 67.7303 359.303Z" fill="black"/>
<path d="M398.38 301.002C400.222 301.002 402.028 301.852 403.87 301.852C405.712 301.852 407.518 301.852 410.281 301.002C514.707 252.833 581.583 182.701 587.994 115.088C592.564 83.8134 584.31 57.6374 565.997 36.4943C552.254 19.5994 531.178 7.76925 506.454 2.70371C467.065 -5.76005 426.755 6.06964 404.793 32.2788C382.797 6.92011 343.408 -4.91007 303.133 3.55368C260.096 12.0174 217.023 46.6572 221.628 115.941C228.925 184.404 295.801 253.685 398.38 301.002Z" fill="black"/>
</svg>
