<svg width="669" height="827" viewBox="0 0 669 827" fill="none" xmlns="http://www.w3.org/2000/svg">
<path d="M142.141 324.404C158.135 318.14 199.022 298.446 200.667 260.581H200.707C201.373 248.329 191.102 237.704 177.265 236.388C168.798 235.626 160.369 238.361 154.568 243.864C151.314 246.806 146.885 248.467 142.219 248.467C137.594 248.467 133.125 246.806 129.871 243.864C124.736 238.949 117.483 236.215 109.918 236.284C109.016 236.284 108.075 236.284 107.095 236.388C93.2573 237.703 82.948 248.295 83.6143 260.581C85.3 298.411 126.109 318.105 142.141 324.404Z" fill="black"/>
<path d="M142.141 708.346C158.135 702.081 199.022 682.387 200.667 644.523L200.707 644.558C201.373 632.271 191.102 621.68 177.265 620.364C168.798 619.533 160.369 622.302 154.568 627.84C151.314 630.747 146.885 632.409 142.219 632.409C137.594 632.409 133.125 630.747 129.871 627.84C124.736 622.925 117.483 620.156 109.918 620.226C109.016 620.226 108.075 620.226 107.095 620.329V620.364C93.2573 621.645 82.948 632.271 83.6143 644.558C85.3 682.353 126.109 702.047 142.141 708.346Z" fill="black"/>
<path d="M133.792 103.38V38.2412L43.3167 118.158H117.054C121.483 118.158 125.756 116.601 128.892 113.832C132.029 111.063 133.792 107.291 133.792 103.38Z" fill="black"/>
<path d="M142.141 516.393C158.135 510.128 199.022 490.434 200.667 452.57H200.707C201.373 440.318 191.102 429.692 177.265 428.376C168.798 427.58 160.369 430.349 154.568 435.852C151.314 438.794 146.885 440.456 142.219 440.456C137.594 440.456 133.125 438.794 129.871 435.852C124.736 430.938 117.483 428.169 109.918 428.273C109.016 428.273 108.075 428.273 107.095 428.376C93.2573 429.657 82.948 440.283 83.6143 452.57C85.3 490.4 126.109 510.059 142.141 516.393Z" fill="black"/>
<path d="M5.01769 151.909V152.116C1.84239 154.851 0.0392383 158.554 0 162.465V812.221C0 816.132 1.76403 819.905 4.90009 822.674C8.03614 825.443 12.2699 827 16.6997 827H652.3C656.73 827 660.964 825.442 664.1 822.674C667.236 819.905 669 816.132 669 812.221V14.7791C669 10.868 667.236 7.09537 664.1 4.32639C660.964 1.5574 656.73 0 652.3 0H183.969C179.54 0 175.267 1.55749 172.131 4.32639L171.974 4.46484H172.013C168.955 7.23374 167.231 10.9371 167.231 14.7793V103.384C167.231 127.854 144.768 147.686 117.054 147.686H16.6999C12.3487 147.686 8.11491 149.209 5.01769 151.909ZM301.061 251.066H602.123C611.335 251.066 618.823 257.677 618.823 265.811C618.823 273.979 611.335 280.59 602.123 280.59H301.061C291.81 280.59 284.322 273.979 284.322 265.811C284.322 257.677 291.81 251.066 301.061 251.066ZM301.061 310.148L485.03 310.113C494.281 310.113 501.769 316.724 501.769 324.892C501.769 333.061 494.282 339.672 485.03 339.672H301.061C291.81 339.672 284.322 333.061 284.322 324.892C284.322 316.724 291.81 310.113 301.061 310.113V310.148ZM301.061 443.055L602.123 443.02C611.335 443.02 618.823 449.631 618.823 457.799C618.823 465.968 611.335 472.579 602.123 472.579H301.061C291.81 472.579 284.322 465.968 284.322 457.799C284.322 449.631 291.81 443.02 301.061 443.02V443.055ZM301.061 502.136L485.03 502.102C494.281 502.102 501.769 508.712 501.769 516.881C501.769 525.015 494.282 531.626 485.03 531.626H301.061C291.81 531.626 284.322 525.015 284.322 516.881C284.322 508.713 291.81 502.102 301.061 502.102V502.136ZM301.061 635.043L602.123 635.009C611.335 635.009 618.823 641.619 618.823 649.788C618.823 657.921 611.335 664.533 602.123 664.533H301.061C291.81 664.533 284.322 657.922 284.322 649.788C284.322 641.62 291.81 635.009 301.061 635.009V635.043ZM301.061 694.125L485.03 694.09C494.281 694.09 501.769 700.701 501.769 708.835C501.769 717.003 494.282 723.614 485.03 723.614H301.061C291.81 723.614 284.322 717.003 284.322 708.835C284.322 700.701 291.81 694.09 301.061 694.09V694.125ZM103.916 207.003C117.323 205.861 130.73 208.63 142.137 214.894C153.544 208.63 166.991 205.827 180.358 207.003C211.914 209.772 235.513 233.792 234.141 261.758C231.554 319.144 171.107 345.794 152.643 352.578C145.979 355.035 138.452 355.035 131.789 352.578C113.285 345.759 52.7991 319.144 50.2511 261.758C48.8791 233.827 72.4374 209.806 103.916 207.003ZM103.916 398.992C117.323 397.815 130.73 400.584 142.137 406.883C153.544 400.584 166.991 397.815 180.358 398.992C211.914 401.726 235.513 425.78 234.141 453.747C231.554 511.132 171.107 537.783 152.643 544.566C145.979 547.024 138.452 547.024 131.789 544.566C113.285 537.748 52.7991 511.132 50.2511 453.747V453.712C48.8791 425.781 72.4374 401.76 103.916 398.992ZM103.916 590.98C117.323 589.803 130.73 592.572 142.137 598.871C153.544 592.572 166.991 589.804 180.358 590.98C211.914 593.714 235.513 617.734 234.141 645.701C231.554 703.086 171.107 729.737 152.643 736.52C145.979 739.012 138.452 739.012 131.789 736.52C113.285 729.702 52.7991 703.086 50.2511 645.701C48.8791 617.77 72.4374 593.749 103.916 590.98Z" fill="black"/>
</svg>
