<svg width="827" height="576" viewBox="0 0 827 576" fill="none" xmlns="http://www.w3.org/2000/svg">
<path fill-rule="evenodd" clip-rule="evenodd" d="M827 48C827 21.504 807.152 0 782.696 0H44.3036C19.848 0 0 21.504 0 48V528C0 554.496 19.848 576 44.3036 576H782.696C807.152 576 827 554.496 827 528V48ZM559.465 275.392L762.612 92.2881C768.874 86.6561 769.73 76.544 764.503 69.76C759.304 62.976 749.971 62.0479 743.709 67.7119L422.952 356.8C417.458 361.728 409.542 361.728 404.048 356.8L83.2909 67.7119C77.0294 62.0479 67.6958 62.976 62.4975 69.76C57.2697 76.544 58.1261 86.6561 64.3876 92.2881L267.534 275.392L63.6792 484.384C57.772 490.432 57.5058 500.576 63.1176 507.008C68.6999 513.408 78.0627 513.696 83.9994 507.616L288.121 298.336C288.918 297.536 289.568 296.672 290.159 295.776L385.175 381.408C401.597 396.192 425.403 396.192 441.825 381.408L536.841 295.776C537.432 296.672 538.082 297.536 538.879 298.336L743.001 507.616C748.937 513.696 758.3 513.408 763.882 507.008C769.494 500.576 769.228 490.432 763.321 484.384L559.465 275.392ZM413.5 95.072C388.07 75.424 350.028 77.984 329.589 95.968C306.226 116.512 302.918 157.504 326.193 198.592C340.429 225.184 376.226 252.352 406.47 270.08C410.871 272.64 416.129 272.64 420.53 270.08C450.774 252.352 486.571 225.184 500.807 198.592C524.082 157.504 520.803 116.512 497.411 95.968C476.972 77.984 438.93 75.424 413.5 95.072ZM402.04 126.912C404.846 130.624 409.07 132.8 413.5 132.8C417.93 132.8 422.154 130.624 424.96 126.912C438.428 108.992 465.335 108.992 478.803 120.832C484.77 126.048 487.339 134.08 487.339 143.264C487.339 155.072 483.234 168.48 475.555 182.016C475.466 182.144 475.377 182.272 475.318 182.432C464.419 202.944 437.572 222.944 413.5 237.696C389.428 222.944 362.58 202.944 351.682 182.432C351.623 182.272 351.534 182.144 351.446 182.016C343.766 168.48 339.661 155.072 339.661 143.264C339.661 134.08 342.23 126.048 348.197 120.832C361.665 108.992 388.601 108.992 402.04 126.912Z" fill="black"/>
</svg>
