<svg width="799" height="799" viewBox="0 0 799 799" fill="none" xmlns="http://www.w3.org/2000/svg">
<path d="M28.5357 799H770.464C786.159 799 799 785.847 799 769.773C799 753.698 786.159 740.545 770.464 740.545H769.607V354.162C769.607 312.658 752.201 272.91 721.953 245.436L494.524 37.0456C440.306 -12.3485 358.694 -12.3485 304.476 37.0456L77.0468 245.436C46.799 272.91 29.3926 312.658 29.3926 354.162V740.545H28.5357C12.8414 740.545 0 753.698 0 769.773C0 785.847 12.8414 799 28.5357 799ZM231.996 351.531C257.107 325.811 290.493 311.782 325.877 311.782C352.415 311.782 377.813 319.673 399.5 334.579C421.187 319.673 446.585 311.782 473.123 311.782C508.507 311.782 541.893 325.811 567.005 351.531C605.813 391.572 616.656 452.949 593.828 504.096C584.982 523.972 570.143 541.801 550.739 556.122L416.621 656.956C411.77 660.756 405.777 662.509 399.786 662.509C393.793 662.509 388.085 660.756 382.949 656.956L248.261 556.122C228.286 541.215 214.018 523.68 205.172 504.096C182.344 452.949 193.187 391.572 231.996 351.531Z" fill="black"/>
</svg>
