<svg width="816" height="409" viewBox="0 0 816 409" fill="none" xmlns="http://www.w3.org/2000/svg">
<path fill-rule="evenodd" clip-rule="evenodd" d="M208.536 127.014C176.144 97.4189 123.75 101.338 96.6539 135.421C74.9394 162.733 76.8917 200.81 101.236 226.031L101.395 226.259L199.37 325.013C203.235 328.893 208.574 331.099 214.192 331.099C219.809 331.099 225.148 328.893 229.013 325.013L326.988 226.259L327.147 226.031C351.491 200.811 353.443 162.733 331.729 135.421C304.636 101.337 252.242 97.4197 219.847 127.014L214.189 132.187L208.536 127.014Z" fill="black"/>
<path fill-rule="evenodd" clip-rule="evenodd" d="M0 204.5C0 91.5576 96.3408 0 215.156 0C247.987 0 279.064 6.99926 306.915 19.4762H485.413C505.175 19.4762 523.144 30.2796 531.63 47.2453L556.771 97.3809H677.578C709.652 97.3809 738.738 115.145 752.085 142.838L808.463 259.696C833.325 311.277 793.641 370.048 733.916 370.048H341.497C306.036 394.545 262.368 409 215.151 409C96.3429 409 0 317.44 0 204.5ZM215.156 38.9524C118.974 38.9524 41.0035 113.053 41.0035 204.5C41.0035 295.947 118.976 370.048 215.156 370.048C311.336 370.048 389.309 295.947 389.309 204.5C389.309 113.053 311.336 38.9524 215.156 38.9524ZM424.172 155.81C422.458 149.191 420.426 142.685 418.076 136.333H677.57C693.587 136.333 708.17 145.197 714.823 159.043L771.161 275.9C783.633 301.728 763.79 331.095 733.908 331.095H384.124C389.304 324.895 394.085 318.39 398.467 311.619H710.675C733.545 311.619 748.407 288.757 738.167 269.358L692.627 182.742C683.941 166.233 666.211 155.81 646.807 155.81L424.172 155.81Z" fill="black"/>
</svg>
