<svg width="635" height="848" viewBox="0 0 635 848" fill="none" xmlns="http://www.w3.org/2000/svg">
<path d="M505.475 315.52C504.146 279.019 478.009 249.154 438.838 239.434C398.744 229.478 358.577 243.456 336.426 274.996L323.725 293.096C321.03 296.951 313.979 296.951 311.284 293.096L298.583 274.996C281.195 250.193 252.62 236.249 221.756 236.249C213.339 236.249 204.774 237.288 196.172 239.4C157.039 249.12 130.863 278.985 129.534 315.487C129.498 316.828 129.461 318.202 129.461 319.61C129.461 412.118 290.536 507.948 317.518 523.367C344.469 507.982 505.576 412.118 505.576 319.61C505.576 318.235 505.539 316.861 505.502 315.52V315.487L505.475 315.52ZM257.866 450.53C256.389 452.071 254.359 452.842 252.292 452.842C250.593 452.842 248.858 452.306 247.455 451.2C228.664 436.384 212.272 421.704 198.723 407.526C196.065 404.744 196.398 400.487 199.462 398.073C202.526 395.659 207.215 395.962 209.873 398.744C222.979 412.453 238.854 426.664 257.129 441.077C260.193 443.491 260.524 447.747 257.866 450.53ZM277.617 295.073C276.399 295.777 274.996 296.112 273.667 296.112C271.23 296.112 268.83 295.006 267.428 292.994C253.288 272.816 232.65 269.8 221.648 269.8C214.818 269.8 208.136 270.839 201.712 272.85C197.873 274.057 193.664 272.213 192.298 268.727C190.969 265.241 193 261.42 196.839 260.18C204.813 257.666 213.157 256.393 221.611 256.393C235.677 256.393 261.889 260.214 279.832 285.788C282.01 288.906 281.013 293.062 277.58 295.039L277.617 295.073ZM446.338 396.668C444.898 398.344 442.72 399.216 440.542 399.216C438.954 399.216 437.33 398.747 435.964 397.774C432.752 395.495 432.198 391.272 434.745 388.355C457.229 362.446 468.636 339.318 468.636 319.643C468.636 315.956 471.922 312.939 476.02 312.939C480.118 312.939 483.404 315.956 483.404 319.643C483.404 342.401 470.926 368.345 446.338 396.668ZM575.96 113.977H515.561L491.38 5.37897C490.974 3.56896 489.756 1.99362 488.057 1.0216C486.322 0.0495751 484.255 -0.252123 482.261 0.217157L5.50081 114.212C2.252 114.983 0 117.664 0 120.681V794.371C0 823.934 26.5075 848 59.0693 848H575.931C608.493 848 635 823.934 635 794.371V167.609C635 138.046 608.493 113.98 575.931 113.98L575.96 113.977ZM152.286 113.977H471.846C475.944 113.977 479.23 116.993 479.23 120.68C479.23 124.367 475.944 127.384 471.846 127.384H152.286C148.225 127.384 144.902 124.367 144.902 120.68C144.902 116.993 148.225 113.977 152.286 113.977ZM420.754 196.097C420.754 199.784 417.468 202.8 413.37 202.8C378.777 202.8 346.622 214.934 322.773 236.989C321.333 238.33 319.413 239 317.494 239C315.611 239 313.765 238.364 312.325 237.09C309.409 234.509 309.372 230.252 312.214 227.604C338.832 202.968 374.754 189.393 413.331 189.393C417.429 189.393 420.715 192.41 420.715 196.097L420.754 196.097ZM85.1645 312.94C89.2255 312.94 92.5481 315.957 92.5481 319.644C92.5481 352.928 107.98 388.49 138.401 425.324C140.838 428.274 140.173 432.497 136.924 434.71C135.595 435.615 134.045 436.05 132.494 436.05C130.242 436.05 128.027 435.112 126.587 433.369C94.2096 394.152 77.7808 355.908 77.7808 319.64C77.7808 315.953 81.1034 312.94 85.1645 312.94ZM409.12 786.853H225.929C221.868 786.853 218.545 783.837 218.545 780.15C218.545 776.463 221.868 773.446 225.929 773.446H409.12C413.217 773.446 416.503 776.463 416.503 780.15C416.503 783.837 413.217 786.853 409.12 786.853ZM464.608 735.738H170.405C166.344 735.738 163.021 732.721 163.021 729.034C163.021 725.347 166.344 722.331 170.405 722.331H464.608C468.706 722.331 471.992 725.347 471.992 729.034C471.992 732.721 468.706 735.738 464.608 735.738ZM508.91 677.919C508.91 681.606 505.624 684.622 501.526 684.622H133.491C129.43 684.622 126.108 681.606 126.108 677.919V587.418C126.108 583.731 129.43 580.714 133.491 580.714H501.526C505.624 580.714 508.91 583.731 508.91 587.418V677.919ZM375.527 528.494C390.811 518.539 405.541 508.182 419.348 497.657C422.486 495.277 427.138 495.645 429.76 498.461C432.381 501.31 431.975 505.533 428.874 507.913C414.808 518.639 399.745 529.231 384.165 539.388C382.873 540.226 381.36 540.628 379.883 540.628C377.594 540.628 375.305 539.656 373.865 537.846C371.502 534.829 372.241 530.639 375.563 528.494L375.527 528.494ZM321.33 537.008C320.149 537.644 318.857 537.946 317.528 537.946C316.199 537.946 314.907 537.645 313.725 537.008C305.603 532.583 114.695 427.638 114.695 319.641C114.695 318.099 114.731 316.591 114.768 315.082C116.319 272.581 146.74 237.822 192.26 226.529C238.703 214.999 285.331 231.188 311.022 267.824L317.483 277.041L323.944 267.824C349.639 231.189 396.229 214.965 442.706 226.529C488.226 237.825 518.647 272.617 520.197 315.082C520.271 316.591 520.271 318.099 520.271 319.641C520.271 427.672 329.369 532.614 321.241 537.008H321.33ZM140.909 671.219H494.181V594.126H140.909V671.219ZM170.444 625.969H464.647C468.744 625.969 472.03 628.986 472.03 632.673C472.03 636.36 468.744 639.376 464.647 639.376H170.444C166.383 639.376 163.06 636.36 163.06 632.673C163.06 628.986 166.383 625.969 170.444 625.969Z" fill="black"/>
</svg>
