<svg width="444" height="400" viewBox="0 0 444 400" fill="none" xmlns="http://www.w3.org/2000/svg">
<path fill-rule="evenodd" clip-rule="evenodd" d="M204.899 186.511C181.223 171.618 150.267 177.251 133.285 199.209C115.826 221.801 118.923 254.16 140.542 273.016L214.407 337.438C218.631 341.13 225 341.13 229.224 337.438L303.09 273.016C324.708 254.159 327.806 221.801 310.346 199.209C293.363 177.251 262.409 171.618 238.732 186.511L221.814 197.142L204.899 186.511Z" fill="black"/>
<path fill-rule="evenodd" clip-rule="evenodd" d="M83.1818 27C83.1818 12.0868 95.5942 0 110.909 0C126.224 0 138.636 12.0868 138.636 27V32.4H194.091V27C194.091 12.0868 206.503 0 221.818 0C237.133 0 249.545 12.0868 249.545 27V32.4H305V27C305 12.0868 317.412 0 332.727 0C348.042 0 360.455 12.0868 360.455 27V32.4H377.091C413.851 32.4 443.636 61.4039 443.636 97.2V334.8C443.636 370.596 413.851 399.6 377.091 399.6H66.5455C29.7852 399.6 0 370.596 0 334.8V97.2C0 61.4039 29.7852 32.4 66.5455 32.4H83.1818V27ZM110.909 21.6C107.855 21.6 105.364 24.0258 105.364 27V59.4C105.364 62.3742 107.855 64.8 110.909 64.8C113.963 64.8 116.455 62.3742 116.455 59.4V27C116.455 24.0258 113.963 21.6 110.909 21.6ZM221.818 21.6C218.764 21.6 216.273 24.0258 216.273 27V59.4C216.273 62.3742 218.764 64.8 221.818 64.8C224.873 64.8 227.364 62.3742 227.364 59.4V27C227.364 24.0258 224.873 21.6 221.818 21.6ZM332.727 21.6C329.673 21.6 327.182 24.0258 327.182 27V59.4C327.182 62.3742 329.673 64.8 332.727 64.8C335.782 64.8 338.273 62.3742 338.273 59.4V27C338.273 24.0258 335.782 21.6 332.727 21.6ZM22.1818 334.8V129.6H421.455V334.8C421.455 358.657 401.591 378 377.091 378H66.5455C42.0456 378 22.1818 358.657 22.1818 334.8Z" fill="black"/>
</svg>
