<svg width="816" height="777" viewBox="0 0 816 777" fill="none" xmlns="http://www.w3.org/2000/svg">
<path d="M15.7787 687.337C19.2078 687.937 23.867 687.619 52.306 687.902C59.4251 687.937 83.6148 693.195 94.6853 694.571C89.6907 695.136 86.3734 695.594 85.6279 695.912C85.9261 695.947 86.187 696.018 86.4852 696.053C86.4479 696.053 160.957 708.969 167.106 709.604C98.7103 714.579 103.221 719.026 151.079 727.212C442.106 777.532 425.217 776.474 477.297 776.474C496.903 776.474 508.494 779.05 522.695 772.804C588.333 766.487 710.212 697.287 762.359 660.623C834.408 609.809 823.71 571.875 789.381 521.098C778.758 505.359 794.19 531.367 621.95 238.163C620.235 235.269 616.396 234.211 613.303 235.834C610.246 237.457 609.128 241.127 610.843 244.021C783.045 537.155 767.721 511.436 778.684 527.597C794.264 550.676 806.602 569.202 802.837 590.798C788.487 591.433 772.795 594.468 757.215 599.69C763.663 585.928 764.819 570.613 755.24 554.24C745.064 536.843 703.952 467.044 703.207 465.703C645.807 368.058 650.875 373.884 645.955 373.288C637.457 367.183 618.597 365.419 606.073 366.936C575.957 370.712 550.834 391.038 525.489 405.4C503.275 362.419 427.465 231.501 426.607 230.02C443.565 218.692 472.601 197.661 469.471 177.158C498.73 162.619 531.157 151.363 555.832 169.218C572.642 181.534 587.552 202.706 597.056 220.703C598.622 223.667 602.461 224.867 605.592 223.385C608.723 221.903 609.99 218.268 608.424 215.304C597.801 195.332 582.184 173.277 563.585 159.691C533.506 137.918 495.562 150.763 464.512 166.043C463.766 164.773 416.429 84.4216 407.969 70.2406C405.583 66.3236 403.049 64.6298 397.234 65.1238C396.973 64.665 396.824 64.171 396.526 63.7123C369.838 18.8618 370.583 18.2972 365.812 13.3919C357.836 5.24044 349.077 4.14682 341.212 2.77008C270.543 -10.0045 210.87 23.0959 157.197 67.3113C152.762 70.9812 151.494 76.98 154.253 81.6378L160.738 92.7186C122.608 122.431 91.9327 167.141 80.6761 211.882C75.0106 235.101 73.4452 260.544 84.2916 281.928C95.2868 303.454 121.751 319.087 145.904 312.382C165.658 307.018 178.815 288.527 182.692 269.472C192.532 221.339 153.359 180.158 173.002 105.98C176.282 106.756 174.269 106.192 204.758 107.215L230.29 150.795C225.035 155.277 220.338 159.547 222.575 164.276C222.686 167.698 224.103 168.933 225.855 170.133C297.755 291.944 276.36 256.307 280.534 262.936C212.697 301.576 210.499 336.441 247.883 400.52C411.918 679.543 412.29 680.176 421.65 695.948C385.794 693.514 352.695 696.09 328.617 697.501C238.901 681.551 247.362 683.704 240.466 683.915C239.05 683.315 236.217 683.068 203.529 677.352C173.45 672.164 36.6219 676.787 1.80359 683.88C-4.12278 684.586 5.6036 685.326 15.7787 687.337ZM760.456 611.327C773.613 606.845 786.733 604.128 798.959 603.14C792.064 618.949 777.49 634.934 754.791 650.955C705.144 685.82 600.518 744.147 540.175 757.878C527.465 760.736 516.283 761.724 506.256 761.23C513.785 751.067 523.924 740.975 535.851 732.047C537.268 730.988 538.051 729.471 538.2 727.883C573.684 723.225 636.71 690.619 667.645 673.575C696.978 657.484 735.445 634.371 752.589 608.01C753.894 610.904 757.213 612.42 760.456 611.327ZM744.093 560.053C767.911 600.846 706.411 638.392 661.236 663.2C625.156 683.067 595.039 697.252 566.413 707.909C512.144 728.129 494.327 713.203 472.336 671.528C411.133 555.364 363.759 505.642 367.9 474.973C370.695 456.306 386.946 437.638 406.589 430.616C448.075 415.865 507.189 443.743 564.441 438.45C594.595 435.697 630.452 420.453 645.92 393.035C676.633 445.331 732.502 540.224 744.093 560.053ZM574.572 383.264C587.469 377.724 615.349 382.523 616.281 388.275C618.033 391.627 595.334 424.233 576.138 416.505C571.069 414.458 569.914 407.754 581.058 400.131C576.548 400.731 571.889 400.378 568.795 398.79C561.154 394.909 566.894 386.581 574.572 383.264ZM205.903 95.7033L176.42 94.7505L171.165 85.8933C175.637 86.7402 178.545 86.5285 183.465 86.0344C255.402 78.5534 341.126 43.8299 360.581 27.5268C380.709 62.1792 374.484 50.4995 386.636 72.7658C346.269 108.83 297.106 134.132 243.135 148.07L215.74 101.278C213.764 98.0314 210.151 95.9504 205.903 95.7033ZM240.828 170.866C277.505 162.291 376.723 109.713 402.105 85.2224C487.162 229.834 443.776 153.786 456.263 176.797C459.654 183.325 450.97 195.182 440.869 204.039C418.504 223.554 394.612 235.022 369.826 247.619C350.035 256.971 309.854 276.626 294.572 260.994L292.932 259.159C291.963 257.818 299.234 269.849 240.828 170.866ZM258.979 394.658C223.57 333.962 226.999 306.826 289.058 272.143C311.422 288.34 347.726 271.049 371.394 260.322C388.13 276.342 454.14 396.532 464.725 416.613C443.554 413.72 422.942 411.956 402.107 419.331C377.991 427.976 358.758 450.137 355.292 473.357C350.335 510.162 397.746 556.565 460.959 676.895C474.302 702.196 489.771 726.333 520.67 728.415C510.122 737.201 501.027 746.729 494.17 756.398C493.499 757.351 493.238 758.445 493.2 759.504C478.105 756.01 466.587 747.753 458.648 734.343C452.536 724.11 259.762 396.004 258.979 394.658Z" fill="black"/>
<path d="M513.297 501.162C497.158 460.157 444.975 469.297 438.304 503.385C432.303 534.05 462.419 576.502 480.945 591.675C487.84 597.391 498.65 596.544 507.445 593.545C554.558 577.383 604.248 533.802 568.983 498.836C556.086 486.061 532.008 484.612 513.297 501.162ZM489.256 582.571C473.602 569.761 445.833 530.98 450.828 505.573C452.618 496.539 458.507 490.434 468.906 486.87C481.728 482.495 500.364 491.317 503.868 514.677C504.688 520.076 512.105 521.734 515.422 517.253C528.953 498.656 549.714 497.139 559.814 507.125C563.504 510.795 569.467 518.347 567.977 528.051C563.355 557.657 498.798 590.475 489.256 582.571Z" fill="black"/>
<path d="M653.859 576.855C635.111 580.172 626.836 594.711 631.682 605.861C647.485 642.207 705.817 597.251 708.576 588.676C709.731 585.077 708.799 581.16 707.308 577.808C695.94 551.801 666.047 520.853 644.391 542.238C635.669 550.813 637.57 567.221 653.859 576.855Z" fill="black"/>
<path d="M586.655 112.324C613.641 119.77 636.117 140.061 645.248 165.256C647.783 172.243 658.07 171.996 660.343 164.974C668.767 138.684 686.435 121.711 714.314 113.101C721.582 110.878 721.806 101.35 714.612 98.88C688.036 89.7759 666.94 68.1095 659.598 42.2785C657.585 35.1504 647.633 34.9386 644.688 41.2199C631.829 68.6741 612.559 87.3414 585.76 98.2098C578.827 101.033 579.424 110.349 586.655 112.324ZM651.137 56.1457C660.306 77.3893 677.675 95.2796 699.257 105.69C677.49 114.9 661.798 129.862 652.443 150.4C641.782 130.039 623.295 113.454 601.267 104.526C622.326 93.6572 639.023 77.4598 651.137 56.1457Z" fill="black"/>
<path d="M546.694 204.315C532.791 194.751 512.813 194.398 487.28 203.185C484 204.315 482.286 207.773 483.478 210.913C484.671 214.054 488.324 215.642 491.641 214.513C541.811 197.186 550.085 221.006 575.393 264.445C577.108 267.338 580.947 268.397 584.041 266.809C587.097 265.186 588.215 261.551 586.538 258.622C576.325 241.155 565.256 217.053 546.694 204.315Z" fill="black"/>
<path d="M296.706 367.915C294.656 365.198 290.705 364.562 287.835 366.503C284.965 368.444 284.294 372.185 286.344 374.902C299.875 392.863 311.689 411.954 321.418 431.68C324.959 438.879 336.513 433.833 332.935 426.599C322.871 406.238 310.684 386.476 296.706 367.915Z" fill="black"/>
</svg>
