<svg width="699" height="801" viewBox="0 0 699 801" fill="none" xmlns="http://www.w3.org/2000/svg">
<path d="M634.781 337.995H309.747L301.009 316.682C291.325 292.724 267.698 276.99 241.449 277.062H64.2202C28.7605 277.133 0.0726958 305.311 0 340.14V737.921C0.0728076 772.751 28.7605 800.929 64.2202 801H634.78C670.239 800.928 698.927 772.751 699 737.921V401.071C698.927 366.242 670.24 338.066 634.781 337.995ZM449.835 652.096C446.85 654.528 443.027 655.708 439.168 655.35C435.309 654.993 431.778 653.169 429.302 650.237C426.827 647.341 425.625 643.55 425.989 639.76C426.353 635.97 428.21 632.501 431.195 630.069C454.641 611.046 482.601 582.009 482.601 551.543C485.513 494.758 410.516 460.859 367.117 497.476C359.69 503.769 350.079 511.779 340.467 504.199C318.369 482.279 284.693 476.271 256.15 489.18C231.395 500.301 215.704 524.796 216.25 551.544C216.25 606.755 307.265 660.965 349.497 680.848C356.633 677.272 369.885 670.692 385.175 661.538C392.056 657.676 400.83 659.929 404.944 666.616C409.058 673.267 406.982 681.921 400.32 686.14C368.574 703.59 360.42 709.168 349.497 710.885C339.303 709.741 188.877 642.085 187.125 551.545C184.649 471.016 286.877 423.669 349.497 474.735C379.569 451.42 420.562 446.95 455.074 463.292C535.896 505.488 526.288 595.459 449.835 652.096Z" fill="black"/>
<path d="M241.45 248.456C279.677 248.313 314.044 271.199 328.097 306.1L329.407 309.39H626.193V114.431C626.12 90.759 606.606 71.5918 582.505 71.5204H101.949C77.8481 71.5919 58.3339 90.759 58.2612 114.431V248.743C60.2272 248.492 62.2295 248.421 64.2318 248.457L241.45 248.456Z" fill="black"/>
<path d="M655.313 0H160.189C136.088 0.0715133 116.574 19.2386 116.502 42.9107H582.5C622.693 42.9107 655.313 74.9507 655.313 114.429V311.676C671.732 315.288 686.84 323.262 699 334.704V42.9116C698.927 19.2396 679.413 0.0714034 655.313 0Z" fill="black"/>
</svg>
