<svg width="812" height="749" viewBox="0 0 812 749" fill="none" xmlns="http://www.w3.org/2000/svg">
<path d="M780.276 715.625C784.844 736.973 764.795 754.874 745.253 747.183L651.859 709.791C615.313 727.956 574.326 738.166 531.055 738.166C458.598 738.166 392.486 709.525 342.616 662.453C507.706 643.227 636.378 496.575 636.378 319.16C636.378 261.613 622.8 207.249 598.69 159.514C721.144 191.204 812 306.829 812 444.597C812 508.641 792.458 567.912 759.085 615.912L780.276 715.625Z" fill="black"/>
<path d="M305.436 0C136.793 0 0 142.939 0 319.16C0 388.773 21.3182 453.216 57.61 505.459L34.642 613.791C29.5667 636.995 51.2652 656.486 72.5843 648.001L174.1 607.426C213.818 627.183 258.358 638.189 305.436 638.189C474.079 638.189 610.999 495.514 610.999 319.16C610.999 142.939 474.079 0 305.436 0ZM333.353 465.547C315.714 474.829 295.158 474.829 277.519 465.547C171.815 410.519 114.332 267.58 176.637 210.961C229.806 162.829 280.818 201.149 298.71 217.989C302.518 221.569 308.227 221.569 312.161 217.989C330.054 201.149 381.192 162.829 434.488 210.961C496.54 267.58 439.31 410.519 333.353 465.547Z" fill="black"/>
</svg>
