<svg width="796" height="815" viewBox="0 0 796 815" fill="none" xmlns="http://www.w3.org/2000/svg">
<path fill-rule="evenodd" clip-rule="evenodd" d="M482.905 373.876C489.593 436.036 434.462 505.396 327.482 570.107C220.499 505.52 165.372 436.04 172.059 373.876C175.7 339.652 196.359 312.353 224.539 304.394C229.803 302.882 235.185 302.166 240.646 302.166C264.947 302.166 290 317.049 311.253 344.865C315.092 349.959 321.069 352.904 327.481 352.904C333.853 352.904 339.829 349.959 343.708 344.865C369.631 310.841 401.254 296.157 430.423 304.314C458.601 312.472 479.263 339.653 482.905 373.876ZM796 245.819V388.24C796 433.766 779.773 473.201 747.755 505.396L654.945 598.715V691.715C654.945 717.9 636.898 755.069 550.972 783.92C491.011 803.897 411.577 815 327.473 815C243.37 815 163.934 803.898 103.973 783.841C18.0499 755.109 0 717.821 0 691.636V81.1014C0 52.3697 33.8384 32.3931 106.506 18.1459C165.674 6.40689 244.199 0 327.473 0C410.746 0 489.268 6.40699 548.439 18.1459C621.104 32.392 654.945 52.3697 654.945 81.1014V158.741H709.443C757.174 158.701 796 197.747 796 245.819ZM523.625 369.617C518.163 318.481 485.946 277.413 441.461 264.88C401.963 253.658 361.316 266.91 327.478 301.133C293.639 266.909 252.992 253.658 213.494 264.88C169.009 277.495 136.793 318.563 131.33 369.617C125.156 427.081 152.386 515.828 317.271 611.885C320.397 613.835 323.959 614.631 327.521 614.631C331.083 614.631 334.606 613.716 337.772 611.885C502.455 515.701 529.714 427.075 523.625 369.617ZM610.577 81.1085C602.661 75.8158 581.289 65.429 526.791 55.9577C471.857 46.4865 401.054 41.194 327.396 41.194C253.737 41.194 182.895 46.4071 128 55.9577C73.5808 65.4289 52.1295 75.7356 44.2145 81.1085C52.13 86.3216 73.5017 96.7075 128 106.179C182.934 115.769 253.737 120.942 327.396 120.942C401.054 120.942 471.896 115.729 526.791 106.179C581.289 96.6679 602.662 86.2817 610.577 81.1085ZM755.037 245.819C755.037 220.549 734.576 199.976 709.325 199.976H654.826V540.655L718.744 476.386C743.164 451.832 754.997 423.021 754.997 388.36L755.037 245.819Z" fill="black"/>
</svg>
