<svg width="817" height="817" viewBox="0 0 817 817" fill="none" xmlns="http://www.w3.org/2000/svg">
<path d="M209.185 14.922C209.185 10.9645 207.521 7.16898 204.561 4.37056C201.6 1.57213 197.584 0 193.397 0C189.21 0 185.195 1.57213 182.234 4.37056C179.273 7.16898 177.61 10.9645 177.61 14.922V115.664H209.185V14.922Z" fill="black"/>
<path d="M639.389 14.922C639.389 10.9645 637.726 7.16898 634.765 4.37056C631.805 1.57213 627.789 0 623.602 0C619.415 0 615.399 1.57213 612.439 4.37056C609.478 7.16898 607.815 10.9645 607.815 14.922V115.664H639.389V14.922Z" fill="black"/>
<path d="M718.326 608.092H594.001V725.603H718.326V608.092Z" fill="black"/>
<path d="M471.649 380.531H347.324V499.907H471.649V380.531Z" fill="black"/>
<path d="M471.649 608.092H347.324V725.603H471.649V608.092Z" fill="black"/>
<path d="M718.326 380.531H594.001V499.907H718.326V380.531Z" fill="black"/>
<path d="M224.972 608.092H100.647V725.603H224.972V608.092Z" fill="black"/>
<path d="M33.1363 817H783.865C788.257 816.996 792.604 816.169 796.654 814.564C800.705 812.96 804.378 810.611 807.46 807.654C810.542 804.697 812.973 801.191 814.61 797.339C816.247 793.487 817.058 789.367 816.997 785.216V298.459H0.00266162V785.216C-0.0529206 789.365 0.762535 793.484 2.40185 797.333C4.04117 801.183 6.47181 804.687 9.55314 807.643C12.6345 810.598 16.3053 812.947 20.3533 814.553C24.4013 816.16 28.7461 816.991 33.1363 817ZM256.547 740.525C256.547 744.482 254.883 748.278 251.923 751.076C248.962 753.874 244.946 755.447 240.759 755.447H84.8595C80.6725 755.447 76.6569 753.874 73.6962 751.076C70.7355 748.278 69.0722 744.482 69.0722 740.525V593.169C69.0722 589.212 70.7355 585.416 73.6962 582.618C76.6569 579.82 80.6725 578.247 84.8595 578.247H240.759C244.946 578.247 248.962 579.82 251.923 582.618C254.883 585.416 256.547 589.212 256.547 593.169V740.525ZM562.426 365.608C562.426 361.651 564.089 357.855 567.05 355.057C570.011 352.259 574.026 350.686 578.213 350.686H734.113C738.3 350.686 742.316 352.259 745.277 355.057C748.237 357.855 749.901 361.651 749.901 365.608V512.964C749.901 516.921 748.237 520.717 745.277 523.515C742.316 526.313 738.3 527.886 734.113 527.886H578.213C574.026 527.886 570.011 526.313 567.05 523.515C564.089 520.717 562.426 516.921 562.426 512.964V365.608ZM562.426 593.169C562.426 589.212 564.089 585.416 567.05 582.618C570.011 579.82 574.026 578.247 578.213 578.247H734.113C738.3 578.247 742.316 579.82 745.277 582.618C748.237 585.416 749.901 589.212 749.901 593.169V740.525C749.901 744.482 748.237 748.278 745.277 751.076C742.316 753.874 738.3 755.447 734.113 755.447H578.213C574.026 755.447 570.011 753.874 567.05 751.076C564.089 748.278 562.426 744.482 562.426 740.525V593.169ZM315.749 365.608C315.749 361.651 317.412 357.855 320.373 355.057C323.334 352.259 327.349 350.686 331.536 350.686H487.436C491.623 350.686 495.639 352.259 498.6 355.057C501.56 357.855 503.224 361.651 503.224 365.608V512.964C503.224 516.921 501.56 520.717 498.6 523.515C495.639 526.313 491.623 527.886 487.436 527.886H331.536C327.349 527.886 323.334 526.313 320.373 523.515C317.412 520.717 315.749 516.921 315.749 512.964V365.608ZM315.749 593.169C315.749 589.212 317.412 585.416 320.373 582.618C323.334 579.82 327.349 578.247 331.536 578.247H487.436C491.623 578.247 495.639 579.82 498.6 582.618C501.56 585.416 503.224 589.212 503.224 593.169V740.525C503.224 744.482 501.56 748.278 498.6 751.076C495.639 753.874 491.623 755.447 487.436 755.447H331.536C327.349 755.447 323.334 753.874 320.373 751.076C317.412 748.278 315.749 744.482 315.749 740.525V593.169ZM55.2169 401.274C61.7646 368.632 86.7777 347.534 118.936 347.534C133.157 347.534 147.59 351.75 161.957 360.08C176.166 352.132 190.69 347.974 204.468 347.974C236.406 347.974 261.5 368.841 268.389 401.134L268.413 401.242C277.281 444.434 250.311 501.78 170.062 532.5C169.758 532.618 169.45 532.724 169.138 532.823C164.407 534.433 159.23 534.433 154.499 532.823C154.223 532.735 153.949 532.636 153.676 532.539C73.3683 502.423 46.3582 444.91 55.2169 401.274Z" fill="black"/>
<path d="M816.997 147.271C817.049 143.131 816.23 139.023 814.587 135.185C812.945 131.347 810.511 127.856 807.428 124.915C804.345 121.974 800.675 119.641 796.629 118.053C792.584 116.465 788.245 115.653 783.865 115.664H639.389V166.612C639.389 170.57 637.726 174.365 634.765 177.163C631.805 179.962 627.789 181.534 623.602 181.534C619.415 181.534 615.399 179.962 612.439 177.163C609.478 174.365 607.815 170.57 607.815 166.612V115.664H209.185L209.185 166.612C209.185 170.57 207.521 174.365 204.561 177.163C201.6 179.962 197.584 181.534 193.397 181.534C189.21 181.534 185.195 179.962 182.234 177.163C179.273 174.365 177.61 170.57 177.61 166.612L177.61 115.664H33.1363C28.7558 115.653 24.4167 116.465 20.3713 118.053C16.3258 119.642 12.6548 121.974 9.57169 124.915C6.48857 127.857 4.05487 131.348 2.41211 135.186C0.769356 139.024 -0.0496657 143.133 0.00266724 147.273V268.615H816.997V147.271Z" fill="black"/>
<path d="M161.781 503.436C222.6 478.895 243.678 437.572 237.428 406.982C233.568 388.989 220.942 377.818 204.472 377.818C194.483 377.818 182.628 382.176 171.094 390.088C168.369 391.958 165.084 392.955 161.717 392.935C158.35 392.914 155.079 391.877 152.38 389.974C140.695 381.734 129.131 377.378 118.938 377.378C102.164 377.378 89.9292 388.402 86.235 406.866C79.9398 437.868 100.972 479.389 161.781 503.436Z" fill="black"/>
</svg>
