<svg width="799" height="785" viewBox="0 0 799 785" fill="none" xmlns="http://www.w3.org/2000/svg">
<path d="M503.369 45.2727C503.369 66.0723 523.259 69.6086 523.259 82.0073C523.259 94.9647 503.371 100.075 503.371 120.054C503.371 141.224 523.204 143.921 523.204 157.369C523.204 159.424 524.063 161.396 525.59 162.85C527.118 164.303 529.189 165.12 531.35 165.12C533.51 165.12 535.582 164.303 537.109 162.85C538.637 161.396 539.495 159.424 539.495 157.369C539.495 135.298 519.79 133.689 519.79 119.425C519.79 106.973 539.672 103.465 539.672 82.6528C539.672 62.6804 519.799 57.63 519.799 44.6409C519.799 31.9144 539.495 29.4895 539.495 7.75174C539.495 5.69601 538.637 3.72446 537.109 2.27084C535.582 0.817214 533.51 0.000582126 531.35 0.000582126C529.189 0.000582126 527.118 0.817214 525.59 2.27084C524.063 3.72446 523.204 5.69601 523.204 7.75174C523.205 20.8515 503.369 24.7152 503.369 45.2727Z" fill="black"/>
<path d="M381.363 120.062C381.363 140.986 401.19 144.065 401.19 157.368C401.19 159.424 402.049 161.395 403.576 162.849C405.104 164.303 407.175 165.119 409.336 165.119C411.496 165.119 413.568 164.303 415.095 162.849C416.623 161.395 417.481 159.424 417.481 157.368C417.481 135.65 397.782 133.333 397.782 119.419C397.782 107.002 417.658 103.453 417.658 82.6549C417.658 62.6748 397.785 57.6392 397.785 44.6403C397.785 31.9138 417.481 29.4889 417.481 7.75116C417.481 5.69543 416.623 3.72389 415.095 2.27027C413.568 0.816641 411.496 0 409.336 0C407.175 0 405.104 0.816641 403.576 2.27027C402.049 3.72389 401.19 5.69543 401.19 7.75116C401.19 20.9546 381.363 24.6629 381.363 45.2722C381.363 66.078 401.255 69.6129 401.255 82.0084C401.255 94.9826 381.363 100.086 381.363 120.062Z" fill="black"/>
<path d="M259.339 45.2727C259.339 66.0721 279.23 69.6082 279.23 82.0068C279.23 94.9671 259.342 100.075 259.342 120.054C259.342 141.224 279.176 143.896 279.176 157.368C279.176 159.424 280.034 161.396 281.562 162.849C283.089 164.303 285.161 165.119 287.321 165.119C289.481 165.119 291.553 164.303 293.081 162.849C294.608 161.396 295.466 159.424 295.466 157.368C295.466 135.298 275.762 133.689 275.762 119.425C275.762 106.973 295.643 103.464 295.643 82.6524C295.643 62.6799 275.771 57.6292 275.771 44.6405C275.771 31.914 295.466 29.4893 295.466 7.75135C295.466 5.69562 294.608 3.72407 293.081 2.27045C291.553 0.816826 289.481 0.000194042 287.321 0.000194042C285.161 0.000194042 283.089 0.816826 281.562 2.27045C280.034 3.72407 279.176 5.69562 279.176 7.75135C279.176 20.8517 259.339 24.7153 259.339 45.2727Z" fill="black"/>
<path d="M774.564 627.224H732.941V594.475C732.941 503.892 701.218 426.126 641.203 369.583C587.368 320.315 517.821 289.517 443.545 282.051C444.625 275.958 444.296 269.714 442.581 263.755C440.866 257.795 437.806 252.263 433.615 247.544C429.423 242.824 424.201 239.032 418.311 236.43C412.422 233.828 406.007 232.479 399.514 232.477C393.021 232.476 386.605 233.821 380.714 236.421C374.824 239.02 369.599 242.81 365.405 247.527C361.211 252.245 358.148 257.775 356.43 263.734C354.712 269.693 354.38 275.937 355.457 282.03C281.186 289.472 211.639 320.256 157.807 369.515C97.7984 426.052 66.0788 503.843 66.0788 594.476V627.224H24.4564C21.2233 627.231 18.0235 627.846 15.0414 629.034C12.0592 630.223 9.35366 631.961 7.08051 634.149C4.80735 636.337 3.01155 638.931 1.79653 641.782C0.581514 644.633 -0.0287065 647.685 0.00103725 650.762C0.119609 669.159 7.87393 686.767 21.5744 699.748C35.2749 712.729 53.8113 720.031 73.1446 720.064H75.9215C87.3138 739.784 104.076 756.22 124.448 767.646C144.82 779.072 168.05 785.066 191.697 784.999H607.324C630.969 785.062 654.197 779.066 674.567 767.64C694.938 756.214 711.701 739.781 723.096 720.064H725.876C745.205 720.029 763.737 712.726 777.434 699.746C791.13 686.766 798.882 669.161 798.999 650.766C799.032 647.69 798.425 644.638 797.212 641.787C796 638.935 794.206 636.34 791.935 634.152C789.663 631.963 786.959 630.224 783.977 629.035C780.996 627.846 777.797 627.23 774.564 627.224ZM283.715 432.963C283.768 425.513 285.408 418.15 288.536 411.32C291.665 404.49 296.217 398.335 301.917 393.228C307.617 388.12 314.347 384.166 321.699 381.605C329.051 379.043 336.872 377.928 344.69 378.326C380.514 378.326 391.659 401.162 399.499 401.162C407.565 401.162 418.05 378.315 454.318 378.315C487.892 378.315 515.291 400.095 515.291 432.953C515.291 473.771 473.906 524.822 399.499 575.261C325.098 524.825 283.715 473.777 283.715 432.963ZM399.493 247.979C403.771 247.806 408.031 248.589 411.934 250.265C415.836 251.941 419.272 254.463 421.966 257.629C424.66 260.796 426.537 264.519 427.447 268.5C428.357 272.481 428.275 276.61 427.207 280.555C408.756 279.24 390.228 279.235 371.776 280.539C370.711 276.594 370.631 272.467 371.543 268.488C372.455 264.509 374.333 260.788 377.027 257.623C379.721 254.459 383.156 251.938 387.057 250.264C390.958 248.589 395.217 247.807 399.493 247.979ZM725.877 704.561H73.144C58.1165 704.536 43.7084 698.861 33.0591 688.771C22.4099 678.681 16.3827 664.994 16.2909 650.694C16.2719 649.659 16.4686 648.631 16.8697 647.669C17.2707 646.707 17.8681 645.831 18.6274 645.09C19.3866 644.349 20.2926 643.758 21.293 643.353C22.2934 642.947 23.3684 642.734 24.4559 642.726H774.564C775.651 642.734 776.726 642.948 777.725 643.354C778.725 643.76 779.629 644.351 780.387 645.093C781.145 645.835 781.74 646.712 782.139 647.674C782.538 648.637 782.731 649.665 782.709 650.699C782.619 664.996 776.595 678.679 765.95 688.768C755.304 698.857 740.9 704.534 725.877 704.561Z" fill="black"/>
</svg>
