<svg width="828" height="812" viewBox="0 0 828 812" fill="none" xmlns="http://www.w3.org/2000/svg">
<path d="M776.25 0H51.75C22.425 0 0 21.9917 0 50.75V761.25C0 790.008 22.425 812 51.75 812H776.25C805.575 812 828 790.008 828 761.25V50.75C828 21.9917 805.575 0 776.25 0ZM626.175 54.1333C645.15 54.1333 660.675 69.3583 660.675 87.9667C660.675 106.575 645.15 121.8 626.175 121.8C607.2 121.8 591.675 106.575 591.675 87.9667C591.675 69.3583 607.2 54.1333 626.175 54.1333ZM55.2 87.9667C55.2 69.3583 70.725 54.1333 89.7 54.1333H448.5C467.475 54.1333 483 69.3583 483 87.9667C483 106.575 467.475 121.8 448.5 121.8H89.7C70.725 121.8 55.2 106.575 55.2 87.9667ZM753.825 732.492H74.175V189.467H752.1V732.492H753.825ZM738.3 121.8C719.325 121.8 703.8 106.575 703.8 87.9667C703.8 69.3583 719.325 54.1333 738.3 54.1333C757.275 54.1333 772.8 69.3583 772.8 87.9667C772.8 106.575 757.275 121.8 738.3 121.8Z" fill="black"/>
<path d="M414 644.525C414 644.525 619.275 536.258 619.275 392.467C619.275 328.183 565.8 275.742 500.25 275.742C465.75 275.742 434.7 290.967 414 312.958C391.575 289.275 362.25 275.742 327.75 275.742C262.2 275.742 208.725 328.183 208.725 392.467C208.725 534.567 414 644.525 414 644.525ZM489.9 323.108C501.975 311.267 527.85 318.033 546.825 336.642C567.525 356.942 572.7 382.317 560.625 392.467C548.55 404.308 522.675 397.542 503.7 378.933C484.725 360.325 477.825 334.95 489.9 323.108Z" fill="black"/>
</svg>
