<svg width="815" height="831" viewBox="0 0 815 831" fill="none" xmlns="http://www.w3.org/2000/svg">
<path d="M481.784 218.29C491.113 220.861 499.913 226.147 507.264 233.325C519.209 245.002 527.125 261.68 527.125 280.072C527.125 309.427 507.299 335.533 482.35 357.103C458.071 378.102 428.917 394.85 407.501 406.492C386.085 394.85 356.93 378.101 332.652 357.103C307.738 335.533 287.913 309.428 287.913 280.072C287.913 261.68 295.829 245.003 307.773 233.325C315.088 226.146 323.924 220.861 333.253 218.29C342.335 215.79 351.983 215.826 361.313 219.147C374.777 223.933 387.818 235.646 398.101 256.395C400.716 261.644 407.042 263.787 412.272 261.144C414.393 260.073 416.018 258.359 417.008 256.395C427.291 235.611 440.296 223.932 453.761 219.147C463.055 215.826 472.702 215.79 481.784 218.29ZM815 225.397V831L0 830.964V225.398C0.0353463 221.576 2.08504 217.898 5.65432 215.97L402.515 1.27258C405.519 -0.370197 409.265 -0.477345 412.481 1.27258L808.492 215.513C812.344 217.156 814.994 220.941 814.994 225.405L815 225.397ZM21.206 231.753L407.536 44.9034L793.695 231.68L407.5 22.7973L297.951 82.0439L21.206 231.753ZM522.034 218.004C512.138 208.362 500.194 201.256 487.331 197.684C474.22 194.077 460.225 194.113 446.69 198.969C432.519 204.041 418.914 214.219 407.499 230.682C396.049 214.183 382.444 203.969 368.273 198.969C354.702 194.184 340.743 194.077 327.632 197.684C314.768 201.255 302.824 208.362 293 218.004C277.168 233.468 266.671 255.645 266.671 280.072C266.671 316.927 289.819 348.175 318.867 373.314C346.679 397.384 379.934 415.811 402.481 427.99C405.485 429.633 409.231 429.74 412.447 427.99C435.064 415.812 468.284 397.384 496.06 373.314C525.144 348.173 548.256 316.925 548.256 280.072C548.327 255.609 537.831 233.468 522.034 218.004ZM793.794 329.357L407.536 565.338L21.206 329.357V809.538H37.6741V598.726L37.6387 386.771L389.907 579.618L407.506 590.332L421.253 598.724L456.38 620.152L766.418 809.535H793.806V801.285L497.311 620.186L462.255 598.758H462.219L428.011 577.83L793.85 354.384L793.794 329.357Z" fill="black"/>
</svg>
