<svg width="898" height="821" viewBox="0 0 898 821" fill="none" xmlns="http://www.w3.org/2000/svg">
<path fill-rule="evenodd" clip-rule="evenodd" d="M210.474 738.289C237.027 743.934 263.772 749.19 290.806 750.747C310.881 751.915 331.149 748.768 350.839 744.745C425.527 729.497 492.679 683.559 535.234 619.744C624.705 485.528 588.5 297.846 455.896 207.364C305.077 104.455 91.7878 168.4 21.1726 338.108C-14.6802 424.243 -2.23735 503.598 37.7844 585.451C48.9122 608.259 61.7074 630.158 74.599 651.992C80.1469 715.353 64.69 760.253 36.5016 794.383C32.2044 799.606 31.5629 807.003 34.9301 812.875C38.2652 818.78 44.9036 821.927 51.5419 820.759C118.116 809.144 170.003 780.367 210.474 738.289ZM290.838 384.274C259.7 353.648 212.911 357.249 187.866 378.337C159.742 401.987 156.214 449.159 184.242 496.461C201.719 527.736 245.846 559.595 283.045 580.455C287.888 583.148 293.756 583.148 298.599 580.455C335.798 559.595 379.925 527.736 397.402 496.461C425.43 449.159 421.903 401.987 393.811 378.337C368.733 357.249 321.945 353.648 290.838 384.274ZM416.547 167.07C433.159 174.402 449.322 183.323 464.843 193.932C563.55 261.251 611.621 379.634 598.185 493.216C615.245 496.883 632.69 498.764 650.007 499.153C672.712 499.673 695.321 494.839 717.48 489.291C751.345 524.005 794.669 547.786 850.052 557.453C856.69 558.621 863.328 555.474 866.696 549.57C870.031 543.665 869.421 536.301 865.092 531.077C842.099 503.209 829.528 466.581 833.921 414.997C844.6 396.894 855.183 378.759 864.387 359.909C881.319 325.228 895.653 289.022 897.738 249.766C902.003 168.464 853.74 85.8001 788.64 41.386C655.427 -49.5187 468.21 16.8595 416.547 167.07ZM277.081 418.663C279.967 423.562 285.194 426.547 290.838 426.547C296.45 426.547 301.678 423.562 304.564 418.663C321.785 389.692 356.066 388.816 373.287 403.286C381.336 410.066 384.896 420.415 384.896 432.224C384.896 446.791 379.668 463.305 369.791 479.915C369.727 480.078 369.631 480.207 369.567 480.337C355.713 505.318 321.368 529.78 290.838 547.623C260.277 529.78 225.931 505.318 212.078 480.337C212.013 480.207 211.917 480.078 211.853 479.915C201.976 463.305 196.749 446.791 196.749 432.224C196.749 420.415 200.308 410.066 208.358 403.286C225.579 388.816 259.86 389.692 277.081 418.663ZM656.133 382.133H742.91C751.761 382.133 758.945 374.865 758.945 365.911C758.945 356.957 751.761 349.69 742.91 349.69H656.133C647.282 349.69 640.098 356.957 640.098 365.911C640.098 374.865 647.282 382.133 656.133 382.133ZM621.434 276.823H742.91C751.761 276.823 758.945 269.556 758.945 260.602C758.945 251.648 751.761 244.38 742.91 244.38H621.434C612.583 244.38 605.4 251.648 605.4 260.602C605.4 269.556 612.583 276.823 621.434 276.823ZM569.387 171.482H742.91C751.761 171.482 758.945 164.215 758.945 155.26C758.945 146.306 751.761 139.039 742.91 139.039H569.387C560.536 139.039 553.352 146.306 553.352 155.26C553.352 164.215 560.536 171.482 569.387 171.482Z" fill="black"/>
</svg>
