<svg width="813" height="811" viewBox="0 0 813 811" fill="none" xmlns="http://www.w3.org/2000/svg">
<path d="M138.378 306.748L25.426 352.742C4.74598 361.253 -5.33997 385.497 2.84057 406.905L88.5839 654.106L138.378 306.748Z" fill="black"/>
<path d="M46.919 228.236C50.679 208.457 68.666 191.829 100.397 178.775C132.129 165.746 156.289 165.063 172.168 176.752C180.729 183.056 186.573 192.828 190.663 203.466C192.644 203.229 194.575 202.862 196.633 202.862H226.561C220.997 182.899 210.911 161.806 192.162 147.963C166.197 128.762 131.036 128.053 87.7709 145.835C44.4547 163.645 19.3795 189.098 13.2314 221.511C5.63517 261.674 30.5325 299.577 45.3692 317.964L79.3363 304.017C68.3611 293.037 41.2028 258.075 46.919 228.236Z" fill="black"/>
<path d="M799.758 221.511C793.635 189.124 768.535 163.645 725.269 145.862C681.978 128.079 646.817 128.788 620.853 147.989C602.129 161.832 592.043 182.925 586.454 202.862H616.407C618.439 202.862 620.37 203.256 622.352 203.466C626.417 192.828 632.285 183.056 640.821 176.752C656.751 165.063 680.86 165.746 712.592 178.801C744.323 191.856 762.336 208.483 766.096 228.262C771.812 258.102 744.628 293.063 733.704 304.043L767.645 317.991C782.482 299.551 807.354 261.648 799.758 221.511Z" fill="black"/>
<path d="M787.589 352.742L674.636 306.748L724.405 654.106L810.149 406.905C818.355 385.497 808.243 361.253 787.589 352.742Z" fill="black"/>
<path d="M493.267 193.537H542.35C552.08 162.883 564.961 102.679 536.151 56.3432C512.88 18.9649 469.259 0 406.533 0C343.781 0 300.16 18.9649 276.914 56.3432C248.079 102.679 260.985 162.883 270.665 193.537H319.875C311.466 174.178 294.292 116.443 315.785 82.085C330.037 59.2851 360.574 47.7275 406.533 47.7275C452.491 47.7275 483.003 59.2851 497.255 82.085C518.774 116.469 501.6 174.178 493.165 193.537H493.267Z" fill="black"/>
<path d="M642.981 280.245C642.981 253.899 622.326 232.544 596.845 232.544H216.17C190.663 232.544 170.034 253.899 170.034 280.245L100.804 763.299C100.804 789.645 121.458 811 146.94 811H666.049C691.531 811 712.185 789.645 712.185 763.299L642.981 280.245ZM531.172 281.978C543.671 281.978 553.808 292.433 553.808 305.356C553.808 318.28 543.697 328.734 531.172 328.734C518.698 328.734 508.535 318.28 508.535 305.356C508.535 292.459 518.698 281.978 531.172 281.978ZM281.843 281.978C294.317 281.978 304.454 292.433 304.454 305.356C304.454 318.28 294.342 328.734 281.843 328.734C269.343 328.734 259.232 318.28 259.232 305.356C259.257 292.459 269.369 281.978 281.843 281.978ZM578.426 521.614C563.462 628.653 406.482 688.595 406.482 688.595C406.482 688.595 249.299 628.653 234.487 521.614C217.008 394.875 345.356 353.346 406.482 451.901C470.885 353.346 596.108 394.875 578.426 521.614Z" fill="black"/>
</svg>
