<svg width="818" height="703" viewBox="0 0 818 703" fill="none" xmlns="http://www.w3.org/2000/svg">
<path d="M818 662.442C817.968 673.189 813.649 683.487 805.986 691.086C798.322 698.685 787.938 702.969 777.1 703H40.9C30.0526 703 19.6496 698.727 11.9793 691.121C4.3091 683.515 0 673.199 0 662.442C0 651.686 4.3091 641.37 11.9793 633.764C19.6496 626.158 30.0526 621.885 40.9 621.885H777.1C787.938 621.916 798.322 626.199 805.986 633.798C813.649 641.398 817.968 651.695 818 662.442Z" fill="black"/>
<path d="M759.069 594.846H58.9314C56.9825 594.858 55.0539 594.454 53.2762 593.662C51.4986 592.869 49.9136 591.707 48.6287 590.254C47.3438 588.801 46.389 587.091 45.8292 585.239C45.2694 583.388 45.1175 581.439 45.384 579.525C58.798 493.437 102.83 414.949 169.52 358.251C236.209 301.553 321.155 270.387 409 270.387C496.845 270.387 581.791 301.553 648.48 358.251C715.17 414.949 759.202 493.437 772.616 579.525C772.882 581.439 772.731 583.388 772.171 585.239C771.611 587.091 770.656 588.801 769.371 590.254C768.086 591.707 766.501 592.869 764.724 593.662C762.946 594.454 761.017 594.858 759.069 594.846Z" fill="black"/>
<path d="M409 297.423C405.384 297.423 401.917 295.999 399.36 293.463C396.803 290.928 395.367 287.489 395.367 283.904V229.827C395.367 226.241 396.803 222.803 399.36 220.267C401.917 217.732 405.384 216.308 409 216.308C412.616 216.308 416.084 217.732 418.64 220.267C421.197 222.803 422.633 226.241 422.633 229.827V283.904C422.633 287.489 421.197 290.928 418.64 293.463C416.084 295.999 412.616 297.423 409 297.423Z" fill="black"/>
<path d="M449.9 243.346H368.1C364.484 243.346 361.017 241.922 358.46 239.386C355.903 236.851 354.467 233.412 354.467 229.827C354.467 226.241 355.903 222.803 358.46 220.267C361.017 217.732 364.484 216.308 368.1 216.308H449.9C453.516 216.308 456.984 217.732 459.54 220.267C462.097 222.803 463.533 226.241 463.533 229.827C463.533 233.412 462.097 236.851 459.54 239.386C456.984 241.922 453.516 243.346 449.9 243.346Z" fill="black"/>
<path d="M470.486 84.7656L438.039 116.941C430.355 124.559 419.934 128.838 409.068 128.838C398.203 128.838 387.782 124.559 380.097 116.941L346.287 83.4137C341.688 78.8804 338.042 73.4869 335.562 67.5459C333.081 61.6049 331.814 55.2346 331.835 48.8045C331.858 40.7098 333.898 32.7462 337.775 25.6228C341.653 18.4994 347.246 12.4374 354.058 7.9764C361.854 2.85672 371.02 0.172508 380.37 0.270432C390.502 0.296191 400.405 3.25648 408.864 8.78755C417.087 3.05549 426.897 -0.0139563 436.948 4.77061e-05H437.221C445.368 0.00785622 453.385 2.02627 460.549 5.87329C467.713 9.72031 473.799 15.275 478.257 22.0364C484.422 31.7877 487.014 43.3457 485.599 54.7687C484.184 66.1917 478.847 76.7838 470.486 84.7656Z" fill="black"/>
<path d="M202.319 203.059L184.732 267.951C183.399 273.121 181.036 277.973 177.781 282.223C174.526 286.472 170.446 290.031 165.781 292.691C159.54 296.19 152.501 298.051 145.331 298.099C141.746 298.049 138.179 297.595 134.697 296.747L66.258 278.496C58.6089 276.531 51.4402 273.051 45.1842 268.264C38.9282 263.478 33.7143 257.485 29.857 250.647C22.3974 237.958 19.9674 222.97 23.0403 208.602C24.7365 200.904 28.0072 193.632 32.6503 187.238C37.2933 180.843 43.21 175.461 50.0343 171.424C61.8309 164.242 75.6463 161.018 89.4347 162.231C94.772 149.299 104.524 138.639 116.984 132.115C129.445 125.59 143.822 123.617 157.601 126.54C165.36 128.188 172.693 131.403 179.144 135.985C185.594 140.567 191.023 146.418 195.093 153.173C199.644 160.569 202.631 168.804 203.873 177.38C205.115 185.956 204.586 194.692 202.319 203.059Z" fill="black"/>
<path d="M796.187 220.904C796.204 231.392 793.429 241.698 788.143 250.782C784.26 257.586 779.036 263.546 772.782 268.307C766.529 273.068 759.373 276.533 751.742 278.496L683.303 296.747C679.821 297.595 676.254 298.049 672.669 298.099C665.499 298.051 658.46 296.19 652.219 292.691C647.554 290.031 643.474 286.472 640.219 282.223C636.964 277.973 634.601 273.121 633.268 267.951L615.681 203.059C613.414 194.692 612.885 185.956 614.127 177.38C615.369 168.804 618.356 160.569 622.907 153.173C626.977 146.418 632.406 140.567 638.856 135.985C645.307 131.403 652.64 128.188 660.399 126.54C674.174 123.696 688.518 125.704 700.96 132.219C713.403 138.733 723.165 149.347 728.565 162.231C742.348 161.1 756.138 164.318 767.966 171.424C774.79 175.461 780.707 180.843 785.35 187.238C789.993 193.632 793.264 200.904 794.96 208.602C795.773 212.653 796.184 216.774 796.187 220.904Z" fill="black"/>
</svg>
