<svg width="702" height="822" viewBox="0 0 702 822" fill="none" xmlns="http://www.w3.org/2000/svg">
<path fill-rule="evenodd" clip-rule="evenodd" d="M702 73.5393C702 54.0367 694.307 35.3283 680.589 21.5324C666.871 7.7364 648.268 0 628.875 0C501.521 0 200.479 0 73.125 0C53.7323 0 35.1291 7.7364 21.4108 21.5324C7.69259 35.3283 0 54.0367 0 73.5393C0 224.265 0 622.289 0 762.896C0 778.545 8.24866 793.018 21.6452 800.931C35.0417 808.873 51.6261 809.05 65.2274 801.431C87.8376 788.782 114.075 774.074 130.279 765.014C135.018 762.367 140.81 762.543 145.373 765.514L220.867 814.874C235.404 824.375 254.153 824.375 268.691 814.874L343.044 766.279C347.87 763.102 354.13 763.102 358.956 766.279L433.309 814.874C447.847 824.375 466.596 824.375 481.133 814.874L556.627 765.514C561.19 762.543 566.982 762.367 571.721 765.014C587.925 774.074 614.162 788.782 636.773 801.431C650.374 809.05 666.958 808.873 680.355 800.931C693.751 793.018 702 778.545 702 762.896V73.5393ZM127.676 647.146H574.324C582.397 647.146 588.949 640.556 588.949 632.438C588.949 624.319 582.397 617.73 574.324 617.73H127.676C119.603 617.73 113.051 624.319 113.051 632.438C113.051 640.556 119.603 647.146 127.676 647.146ZM127.647 529.483H574.324C582.397 529.483 588.949 522.894 588.949 514.775C588.949 506.656 582.397 500.067 574.324 500.067H127.647C119.574 500.067 113.022 506.656 113.022 514.775C113.022 522.894 119.574 529.483 127.647 529.483ZM351 143.343C306.891 91.7476 234.731 95.3364 196.969 126.87C156.312 160.875 153.094 228.795 193.693 296.775C220.165 343.987 287.44 391.7 343.921 423.174C348.309 425.645 353.691 425.645 358.079 423.174C414.56 391.7 481.835 343.987 508.307 296.775C548.906 228.795 545.688 160.875 505.031 126.87C467.269 95.3364 395.109 91.7476 351 143.343ZM338.452 176.024C341.113 180.436 345.852 183.142 351 183.142C356.119 183.142 360.886 180.436 363.519 176.024C394.261 124.605 455.569 123.811 486.311 149.491C517.988 175.965 514.8 228.854 483.152 281.803C483.064 281.92 482.976 282.038 482.917 282.185C459.751 323.632 401.456 364.608 351 393.435C300.544 364.608 242.219 323.632 219.083 282.185C218.995 282.038 218.936 281.92 218.848 281.803C187.2 228.854 184.012 175.965 215.66 149.491C246.402 123.811 307.739 124.605 338.452 176.024Z" fill="black"/>
</svg>
