<svg width="829" height="707" viewBox="0 0 829 707" fill="none" xmlns="http://www.w3.org/2000/svg">
<path fill-rule="evenodd" clip-rule="evenodd" d="M731.62 361.729C756.996 361.729 781.239 353.294 800.827 338.647V639.155C800.827 676.431 770.798 707 734.089 707L95.0345 706.959C58.3666 706.959 28.2964 676.431 28.2964 639.114V338.648C47.8845 353.172 72.1278 361.606 97.5035 361.606H286.713C308.243 410.566 361.1 447.02 405.541 473.758C411.247 477.132 417.763 477.132 423.47 473.758C468.03 447.015 520.764 410.562 542.298 361.606H731.621L731.62 361.729ZM828.267 156.426L810.257 260.807C803.741 298.823 769.542 325.813 731.498 325.813H551.717C552.446 318.531 552.446 311.084 551.717 303.39C548.075 268.831 527.475 237.356 495.138 224.272C466.322 212.669 437.83 218.882 414.518 235.01C391.085 218.799 362.714 212.587 333.899 224.272C301.562 237.315 281.042 268.831 277.319 303.39C276.51 311.084 276.51 318.572 277.319 325.813H97.5076C59.4638 325.813 25.3871 298.864 18.7489 260.807L0.738717 156.426C-1.64914 142.848 1.79096 130.217 10.4925 119.562C19.1939 109.029 30.8908 103.434 44.4884 103.434H237.417V64.3483C237.417 28.8416 265.788 0 300.837 0H528.163C563.09 0 591.461 28.8416 591.461 64.3483V103.434L784.431 103.475C797.99 103.475 809.726 109.071 818.427 119.603C827.21 130.094 830.655 142.725 828.267 156.426ZM547.468 64.3883C547.468 53.7324 538.645 44.886 528.203 44.886H300.908C290.426 44.886 281.643 53.7318 281.643 64.3883V103.474H547.501L547.468 64.3883ZM414.56 437.761C491.943 392.174 520.758 346.217 516.63 307.251C511.328 257.549 455.801 229.531 414.56 284.169C373.319 229.613 317.67 257.509 312.489 307.251C308.361 346.131 337.177 392.047 414.56 437.761Z" fill="black"/>
</svg>
