<svg width="793" height="520" viewBox="0 0 793 520" fill="none" xmlns="http://www.w3.org/2000/svg">
<path fill-rule="evenodd" clip-rule="evenodd" d="M793 72.2222C793 53.0689 785.552 34.6956 772.269 21.1467C758.986 7.59777 740.974 0 722.196 0C580.589 0 212.411 0 70.8036 0C52.0265 0 34.0139 7.59777 20.7311 21.1467C7.44838 34.6956 0 53.0689 0 72.2222C0 166.718 0 353.282 0 447.778C0 466.931 7.44838 485.304 20.7311 498.853C34.0139 512.402 52.0265 520 70.8036 520C212.411 520 580.589 520 722.196 520C740.974 520 758.986 512.402 772.269 498.853C785.552 485.304 793 466.931 793 447.778V72.2222ZM467.304 404.444H693.875C701.692 404.444 708.036 397.973 708.036 390C708.036 382.027 701.692 375.556 693.875 375.556H467.304C459.487 375.556 453.143 382.027 453.143 390C453.143 397.973 459.487 404.444 467.304 404.444ZM254.893 175.731C223.824 143.087 175.933 146.409 150.444 167.989C122.236 191.909 119.12 239.662 147.243 287.502C165.057 319.656 210.117 352.3 248.039 373.736C252.287 376.162 257.499 376.162 261.747 373.736C299.669 352.3 344.728 319.656 362.542 287.502C390.666 239.662 387.55 191.909 359.342 168.018C333.853 146.409 285.961 143.087 254.893 175.731ZM242.771 206.787C245.32 211.12 249.937 213.778 254.893 213.778C259.849 213.778 264.466 211.12 267.015 206.787C285.622 175.24 322.638 174.46 341.245 190.233C350.025 197.687 354.018 209.04 354.018 222.098C354.018 237.524 348.58 255.118 338.158 272.769C338.073 272.913 338.016 273.029 337.931 273.144C323.346 299.693 286.953 325.751 254.893 344.529C222.833 325.751 186.44 299.693 171.854 273.144C171.769 273.029 171.713 272.913 171.628 272.769C161.206 255.118 155.768 237.524 155.768 222.098C155.768 209.04 159.761 197.687 168.54 190.233C187.148 174.46 224.164 175.24 242.771 206.787ZM467.304 317.778H693.875C701.692 317.778 708.036 311.307 708.036 303.333C708.036 295.36 701.692 288.889 693.875 288.889H467.304C459.487 288.889 453.143 295.36 453.143 303.333C453.143 311.307 459.487 317.778 467.304 317.778ZM467.304 231.111H693.875C701.692 231.111 708.036 224.64 708.036 216.667C708.036 208.693 701.692 202.222 693.875 202.222H467.304C459.487 202.222 453.143 208.693 453.143 216.667C453.143 224.64 459.487 231.111 467.304 231.111ZM467.304 144.444H693.875C701.692 144.444 708.036 137.973 708.036 130C708.036 122.027 701.692 115.556 693.875 115.556H467.304C459.487 115.556 453.143 122.027 453.143 130C453.143 137.973 459.487 144.444 467.304 144.444Z" fill="black"/>
</svg>
