<svg width="643" height="974" viewBox="0 0 643 974" fill="none" xmlns="http://www.w3.org/2000/svg">
<path d="M321.459 519.978C447.114 475.512 490.396 398.228 477.402 340.904C468.958 305.307 440.813 283.193 403.938 283.193C382.238 283.193 357.899 291.154 333.578 306.227C330.027 308.425 325.745 309.598 321.357 309.573C316.969 309.549 312.705 308.328 309.188 306.09C284.872 290.618 260.461 282.44 238.597 282.44C201.58 282.44 173.615 304.792 165.614 340.773C152.556 398.814 195.793 476.418 321.459 519.978Z" fill="black"/>
<path d="M643 50.0623C642.875 36.8042 636.639 24.1204 625.638 14.7526C614.637 5.38479 599.756 0.0854434 584.212 0H58.7882C43.2435 0.0854434 28.3626 5.38479 17.362 14.7526C6.36135 24.1204 0.12468 36.8042 0 50.0623V133.815H643V50.0623ZM406.89 78.973H236.11C230.653 78.973 225.419 77.124 221.56 73.8328C217.701 70.5417 215.534 66.0779 215.534 61.4234C215.534 56.769 217.701 52.3052 221.56 49.014C225.419 45.7228 230.653 43.8739 236.11 43.8739H406.89C412.348 43.8739 417.581 45.7228 421.44 49.014C425.299 52.3052 427.466 56.769 427.466 61.4234C427.466 66.0779 425.299 70.5417 421.44 73.8328C417.581 77.124 412.348 78.973 406.89 78.973Z" fill="black"/>
<path d="M643 923.938V807.279H0V923.938C0.12468 937.196 6.36135 949.88 17.362 959.247C28.3626 968.615 43.2435 973.915 58.7882 974H584.212C599.756 973.915 614.637 968.615 625.638 959.247C636.639 949.88 642.875 937.196 643 923.938ZM321.5 952.691C307.038 952.691 292.901 949.034 280.876 942.181C268.852 935.329 259.479 925.589 253.945 914.193C248.41 902.798 246.962 890.258 249.783 878.161C252.604 866.063 259.567 854.95 269.793 846.228C280.019 837.506 293.048 831.566 307.232 829.16C321.415 826.753 336.117 827.988 349.478 832.708C362.839 837.429 374.259 845.422 382.294 855.678C390.328 865.934 394.617 877.991 394.617 890.326C394.596 906.86 386.886 922.712 373.178 934.404C359.471 946.095 340.886 952.672 321.5 952.691Z" fill="black"/>
<path d="M321.5 863.063C315.177 863.062 308.996 864.661 303.739 867.657C298.482 870.653 294.384 874.911 291.964 879.893C289.544 884.875 288.911 890.358 290.144 895.647C291.378 900.936 294.422 905.795 298.893 909.608C303.364 913.421 309.06 916.018 315.262 917.07C321.463 918.122 327.891 917.582 333.732 915.518C339.573 913.454 344.566 909.959 348.078 905.475C351.591 900.991 353.465 895.719 353.465 890.326C353.455 883.098 350.085 876.168 344.092 871.057C338.1 865.946 329.975 863.071 321.5 863.063Z" fill="black"/>
<path d="M643 168.914H0V772.18H643V168.914ZM125.19 334.185C136.92 281.436 181.437 247.33 238.597 247.33C265.886 247.33 293.774 255.188 321.672 270.717C349.247 255.879 377.444 248.094 403.938 248.094C460.733 248.094 505.408 281.822 517.756 334.021L517.785 334.148C526.668 373.176 515.673 415.494 486.828 453.307C454.696 495.426 401.744 530.119 333.699 553.633C333.298 553.771 332.892 553.898 332.482 554.015C325.387 556.235 317.598 556.235 310.502 554.015C310.139 553.913 309.779 553.801 309.422 553.68C159.464 502.933 108.839 406.873 125.19 334.185ZM529.374 715.144H113.626C108.169 715.144 102.935 713.295 99.0764 710.004C95.2176 706.713 93.0498 702.249 93.0498 697.595C93.0498 692.94 95.2176 688.476 99.0764 685.185C102.935 681.894 108.169 680.045 113.626 680.045H529.374C534.831 680.045 540.065 681.894 543.924 685.185C547.782 688.476 549.95 692.94 549.95 697.595C549.95 702.249 547.782 706.713 543.924 710.004C540.065 713.295 534.831 715.144 529.374 715.144ZM529.374 647.14H113.626C108.169 647.14 102.935 645.291 99.0764 642C95.2176 638.708 93.0498 634.245 93.0498 629.59C93.0498 624.936 95.2176 620.472 99.0764 617.181C102.935 613.889 108.169 612.041 113.626 612.041H529.374C534.831 612.041 540.065 613.889 543.924 617.181C547.782 620.472 549.95 624.936 549.95 629.59C549.95 634.245 547.782 638.708 543.924 642C540.065 645.291 534.831 647.14 529.374 647.14Z" fill="black"/>
</svg>
