<svg width="802" height="771" viewBox="0 0 802 771" fill="none" xmlns="http://www.w3.org/2000/svg">
<path d="M801.744 350.402L778.894 86.5653C775.882 52.2956 747.631 25.1378 711.982 22.2424L437.594 0.213915V0.245382C416.119 -1.48538 394.939 6.00418 379.684 20.6691L21.4584 364.969C-7.15282 392.505 -7.15282 437.096 21.4584 464.631L318.7 750.372C347.344 777.876 393.763 777.876 422.407 750.372L780.532 406.104C795.786 391.439 803.545 371.077 801.744 350.402ZM542.808 454.156C542.841 476.09 533.806 497.142 517.668 512.688C501.529 528.202 479.628 536.888 456.779 536.825H427.023L280.886 536.573C266.254 536.542 254.37 525.149 254.338 511.083L254.108 370.923V342.129C254.174 296.31 292.9 259.208 340.56 259.273C388.256 259.367 426.819 296.563 426.752 342.411V371.174H456.508C504.106 371.268 542.667 408.339 542.801 454.127L542.808 454.156ZM670.055 187.266C655.914 200.861 634.668 204.92 616.205 197.556C597.742 190.192 585.696 172.885 585.696 153.657C585.696 134.461 597.742 117.153 616.205 109.789C634.668 102.426 655.914 106.485 670.055 120.079C689.337 138.646 689.337 168.7 670.055 187.266Z" fill="black"/>
</svg>
