<svg width="824" height="813" viewBox="0 0 824 813" fill="none" xmlns="http://www.w3.org/2000/svg">
<path d="M796.533 0H192.267C184.982 0 177.996 3.29443 172.845 9.15854C167.694 15.0227 164.8 22.9761 164.8 31.2692V531.577H27.4667C20.1821 531.577 13.1958 534.871 8.0448 540.735C2.8938 546.6 0 554.553 0 562.846V687.923C0 721.095 11.5752 752.909 32.1792 776.366C52.7832 799.822 80.7282 813 109.867 813H714.133C743.272 813 771.217 799.822 791.821 776.366C812.425 752.909 824 721.095 824 687.923V31.2692C824 22.9761 821.106 15.0227 815.955 9.15854C810.804 3.29443 803.818 0 796.533 0ZM164.8 687.923C164.8 704.509 159.012 720.416 148.71 732.144C138.408 743.873 124.436 750.462 109.867 750.462C95.2974 750.462 81.3249 743.873 71.0229 732.144C60.7209 720.416 54.9333 704.509 54.9333 687.923V594.115H164.8V687.923ZM697.653 595.679L604.267 687.923L510.88 595.679C505.714 590.9 501.549 584.869 498.689 578.027C495.828 571.184 494.344 563.701 494.344 556.123C494.344 548.545 495.828 541.062 498.689 534.22C501.549 527.377 505.714 521.347 510.88 516.568C522.11 505.864 536.337 500.095 550.981 500.308C565.548 500.058 579.7 505.836 590.808 516.568L604.267 531.577L617.725 518.131C628.633 506.833 642.806 500.49 657.552 500.308C672.197 500.095 686.424 505.864 697.653 516.568C702.819 521.347 706.984 527.377 709.845 534.22C712.705 541.062 714.19 548.545 714.19 556.123C714.19 563.701 712.705 571.184 709.845 578.027C706.984 584.869 702.819 590.9 697.653 595.679ZM714.133 376.794H302.133C294.849 376.794 287.862 373.5 282.711 367.636C277.56 361.772 274.667 353.818 274.667 345.525C274.667 337.232 277.56 329.278 282.711 323.414C287.862 317.55 294.849 314.256 302.133 314.256H714.133C721.418 314.256 728.404 317.55 733.555 323.414C738.706 329.278 741.6 337.232 741.6 345.525C741.6 353.818 738.706 361.772 733.555 367.636C728.404 373.5 721.418 376.794 714.133 376.794ZM714.133 251.717H302.133C294.849 251.717 287.862 248.423 282.711 242.559C277.56 236.695 274.667 228.741 274.667 220.448C274.667 212.155 277.56 204.202 282.711 198.337C287.862 192.473 294.849 189.179 302.133 189.179H714.133C721.418 189.179 728.404 192.473 733.555 198.337C738.706 204.202 741.6 212.155 741.6 220.448C741.6 228.741 738.706 236.695 733.555 242.559C728.404 248.423 721.418 251.717 714.133 251.717Z" fill="black"/>
</svg>
