<svg width="647" height="824" viewBox="0 0 647 824" fill="none" xmlns="http://www.w3.org/2000/svg">
<path d="M435.6 238.161V155.774H442.019C465.641 155.774 484.859 137.776 484.859 115.732L484.897 40.0772C484.897 17.9978 465.641 0.0348777 442.056 0.0348777L204.984 0C181.362 0 162.144 17.9978 162.144 40.0423V115.697C162.144 137.776 181.399 155.739 204.984 155.739H211.403V238.126C84.4885 281.865 0 394.629 0 521.558C0 688.427 145.199 824 323.576 824C501.954 824 647 688.383 647 521.558C647 394.423 562.405 281.655 435.6 238.161ZM573.864 540.746C543.339 557.732 515.761 558.081 484.601 540.746C445.231 518.807 406.906 518.807 367.498 540.746C337.27 557.558 309.842 558.255 278.384 540.746C238.157 518.562 200.205 519.051 161.281 540.746C130.01 558.151 102.245 557.662 72.4289 540.885C61.159 534.537 48.3596 527.387 27.3874 525.19C27.3874 524.004 27.2755 522.818 27.2755 521.632C27.2755 402.623 108.478 297.106 229.383 259.228C234.981 257.554 238.675 252.601 238.675 247.229V155.776H408.321V247.229C408.321 252.705 412.015 257.553 417.613 259.228C538.518 297.003 619.72 402.337 619.72 521.632C619.72 522.922 619.571 524.039 619.571 525.19C598.151 527.213 585.321 534.362 573.864 540.746Z" fill="black"/>
<path d="M452.28 375.939C445.451 425.189 403.544 476.946 350.329 501.716C333.013 509.669 313.571 509.739 296.144 501.716C242.93 476.846 201.023 425.19 194.345 375.796C190.539 348.241 198.86 324.627 217.407 309.454C262.599 272.97 305.961 297.979 323.161 311.129C340.476 297.979 384.175 273.005 429.221 309.454C447.767 324.802 455.937 348.245 452.28 375.939Z" fill="black"/>
</svg>
