<svg width="712" height="641" viewBox="0 0 712 641" fill="none" xmlns="http://www.w3.org/2000/svg">
<path d="M91.5658 445.598C97.6826 445.598 104.03 444.303 109.916 441.478C131.844 431.237 141.769 404.635 131.844 382.034L131.729 381.681L84.6412 277.035C74.3696 254.434 48.056 244.547 25.8972 254.905C15.164 259.967 7.08527 268.913 2.81508 280.331C-1.3397 291.631 -0.878055 303.873 4.0846 314.82L51.1721 419.349C58.6738 435.828 74.8313 445.598 91.5658 445.598ZM34.3222 346.25C34.4376 347.191 34.6684 348.251 34.8992 349.192C35.8225 352.253 37.4383 354.96 39.5156 357.314L32.8218 360.493L10.8938 311.525C6.73904 302.461 6.39281 292.22 9.85513 282.803C13.3174 273.386 20.1267 265.852 29.0133 261.615C47.479 253.022 69.5224 261.262 78.0628 280.095L99.9908 329.064L92.7199 332.477C92.7199 332.477 92.7199 332.477 92.6045 332.477C92.0274 328.24 90.4117 324.237 87.6418 321.177C83.3716 316.468 77.1395 314.114 71.2535 315.056C67.2142 315.644 63.521 317.763 60.8666 320.824C59.4817 322.472 58.443 324.237 57.7505 326.239C55.7885 325.532 53.5957 325.061 51.6337 325.179C47.5944 325.297 43.555 326.827 40.5543 329.417C35.9379 333.419 33.5143 339.893 34.3222 346.25ZM48.056 355.196C47.9406 355.078 47.7098 355.078 47.5944 354.96C44.9399 353.077 42.8625 350.252 41.9393 347.073C41.7084 346.485 41.7084 345.779 41.593 345.308C41.1314 341.541 42.5163 337.539 45.2862 335.185C47.0173 333.654 49.3255 332.83 51.7492 332.713C51.8646 332.713 51.8646 332.713 51.98 332.713C53.942 332.713 55.9039 333.419 57.6351 334.714C58.6738 335.42 60.2895 335.655 61.4436 335.185C62.7132 334.714 63.8673 333.066 63.9827 331.653C64.2135 329.299 64.906 327.298 66.2909 325.768C67.9066 324.002 69.984 322.825 72.4076 322.354C75.87 321.765 79.6785 323.296 82.2175 326.121C84.6412 328.946 85.9107 333.066 85.449 337.068C85.449 337.303 85.3336 337.421 85.3336 337.657C84.9874 340.364 83.9487 343.307 82.91 345.896L75.4083 365.437L56.0193 358.492C55.9039 358.492 55.7885 358.374 55.6731 358.374C53.0187 357.668 50.3642 356.608 48.056 355.196C48.1714 355.196 48.1714 355.196 48.056 355.196Z" fill="black"/>
<path d="M156.773 457.605C135.768 445.01 108.531 452.19 96.1822 473.731L39.054 572.963C26.7051 594.504 33.8605 622.166 54.8652 634.761C61.7899 638.881 69.407 641 77.2549 641C80.948 641 84.7566 640.529 88.4497 639.587C99.8754 636.527 109.57 629.111 115.571 618.752L172.699 519.521C178.701 509.045 180.317 496.921 177.316 485.385C174.2 473.496 166.929 463.726 156.773 457.605ZM132.767 545.771C131.959 549.538 129.305 552.951 125.727 554.953C125.496 555.07 125.266 555.07 125.035 555.188C122.496 556.483 119.495 557.307 116.956 557.895L96.5285 562.957L90.8733 542.357C89.9501 539.179 89.373 536.472 89.2576 533.882C89.2576 533.882 89.2576 533.882 89.2576 533.764C89.2576 533.529 89.1422 533.294 89.1422 533.058C89.1422 528.938 90.7579 524.936 93.5278 522.346C95.7206 520.345 98.6058 519.168 101.491 519.168C102.299 519.168 103.222 519.286 104.03 519.521C106.338 520.11 108.416 521.64 109.801 523.524C111.07 525.289 111.647 527.408 111.647 529.762C111.647 531.057 112.455 532.705 113.609 533.411C114.763 534.118 116.494 534.118 117.649 533.411C119.611 532.234 121.803 531.763 123.881 531.999C126.189 532.234 128.497 533.411 130.113 535.177C132.652 537.767 133.691 542.004 132.767 545.771ZM166.236 515.637L139.577 562.015L133.575 558.366C136.807 555.423 139.115 551.539 140.038 547.419C141.423 541.063 139.692 534.353 135.537 529.88C132.652 526.82 128.843 524.936 124.804 524.348C122.727 524.112 120.534 524.23 118.456 524.818C117.879 522.7 117.072 520.699 115.802 518.933C113.378 515.519 109.916 513.165 105.877 512.105C99.9908 510.575 93.4124 512.341 88.6805 516.696C85.5644 519.521 83.4871 523.524 82.4484 527.761L75.87 523.759L102.53 477.381C112.917 459.488 135.537 453.485 153.08 463.961C161.505 469.023 167.621 477.145 170.16 487.033C172.584 496.803 171.199 506.926 166.236 515.637Z" fill="black"/>
<path d="M711.667 233.246C706.127 155.203 633.187 42.1999 566.942 9.47601C541.551 -3.11916 518.469 -3.11915 500.581 9.24059L232.482 173.213C232.482 173.331 232.367 173.331 232.367 173.331C231.905 173.566 231.443 173.684 230.866 174.037C230.751 174.037 230.174 174.508 230.174 174.508C230.058 174.508 230.058 174.626 229.943 174.743C217.94 183.454 212.747 201.111 215.055 226.183L175.931 252.198C175.815 252.316 175.815 252.315 175.7 252.315C154.003 267.147 168.891 320.471 193.82 368.497L189.203 369.439C177.547 372.028 167.737 378.973 161.274 389.097C154.811 399.22 152.618 411.344 155.157 423.115C159.658 444.186 178.008 458.782 198.551 458.782C201.552 458.782 204.668 458.429 207.669 457.84L248.293 448.894C276.223 480.912 302.19 498.804 319.963 498.804C324.233 498.804 328.157 497.745 331.389 495.626C331.389 495.508 331.504 495.508 331.504 495.508C331.62 495.508 331.62 495.508 331.62 495.508L369.474 470.436C383.67 478.911 396.48 483.148 407.214 483.148C414.023 483.148 419.909 481.5 424.987 478.087H425.102C425.218 477.969 425.218 477.969 425.333 477.969L686.623 300.224C705.204 287.394 713.859 264.204 711.667 233.246ZM191.396 276.446C194.743 274.328 200.513 275.505 208.015 279.86C210.323 299.753 221.98 328.593 239.753 358.727L213.786 364.377C188.28 316.822 182.163 282.45 191.396 276.446ZM256.026 423.822C253.602 426.058 250.255 427.471 247.139 427.588C246.562 427.588 245.985 427.706 245.408 427.588C241.599 427.235 238.022 424.881 236.291 421.467C235.137 419.349 234.79 416.877 235.367 414.405C235.714 412.404 236.868 410.52 238.368 409.108C239.407 408.284 240.099 406.636 239.984 405.341C239.753 403.928 238.483 402.398 237.098 401.927C234.906 401.221 233.174 399.926 231.905 398.278C230.52 396.159 229.828 393.687 229.943 391.333C230.174 387.684 232.482 384.035 235.829 382.152C237.906 380.975 240.215 380.386 242.523 380.386C244.023 380.386 245.639 380.621 247.024 381.092C247.139 381.092 247.255 381.21 247.37 381.21C247.485 381.21 247.485 381.21 247.485 381.21C248.755 381.681 250.024 382.387 251.063 382.976C252.563 383.917 267.105 393.805 272.876 397.925C272.876 397.925 258.449 421.467 256.257 423.704C256.257 423.586 256.141 423.704 256.026 423.822ZM264.912 437.829C264.566 435.828 262.72 427.471 262.72 427.471C264.682 425.116 266.413 422.645 268.029 419.937L280.608 399.338C281.301 398.396 281.532 397.219 281.301 396.042C281.185 395.1 280.262 393.687 279.454 393.217C272.876 388.626 266.297 384.035 259.719 379.562C257.988 378.385 256.487 377.325 254.756 376.266C253.833 375.795 252.794 375.442 251.871 374.971L249.563 364.024L278.415 357.785C281.532 362.847 284.763 367.909 287.648 373.088C296.419 388.155 304.152 403.811 310.73 420.173L313.269 427.235L264.912 437.829ZM318.694 446.893C321.233 459.724 320.194 468.552 315.924 471.495C309.923 475.497 293.65 468.552 270.568 444.304L303.113 437.241C308.768 441.596 313.962 444.892 318.694 446.893ZM327.35 489.387C314.77 497.745 286.725 480.912 256.718 447.246L262.258 446.069C273.453 458.193 295.842 480.088 312 480.088C314.885 480.088 317.655 479.382 320.079 477.734C327.234 472.908 329.196 461.254 325.734 444.186C325.734 443.95 325.618 443.833 325.618 443.48C320.771 421.114 310.846 399.573 299.882 379.444C288.802 358.962 275.876 339.305 261.45 320.942C249.678 305.992 236.752 291.278 221.518 279.742C218.864 277.741 216.209 275.858 213.324 274.092C202.36 267.265 193.589 265.97 187.472 270.09C169.814 281.743 186.202 327.886 206.284 365.79L201.321 366.849C173.969 314.938 164.736 268.56 179.97 258.437C188.511 252.786 204.784 258.79 224.634 275.152C245.754 292.573 268.49 319.411 288.456 350.723C332.543 419.937 344.084 478.205 327.35 489.387ZM432.488 451.955C430.526 461.254 426.718 467.964 420.947 471.848C411.022 478.558 395.211 476.321 376.399 465.727L394.634 453.603C420.255 436.535 396.134 364.495 357.818 304.697C316.27 239.838 266.644 198.521 242.407 208.644C241.253 209.115 240.33 209.586 239.291 210.292L222.095 221.71C220.941 201.699 225.211 187.339 234.444 180.864L235.598 180.158C264.105 162.972 329.658 213.706 379.631 291.867C418.524 352.724 439.759 417.23 432.488 451.955ZM526.894 96.9359C526.894 78.926 514.892 64.3297 500.004 64.3297C507.505 64.3297 514.199 60.6807 519.046 54.7951C523.894 48.9095 526.894 40.7874 526.894 31.8413C526.894 40.7874 529.895 48.9095 534.858 54.7951C539.705 60.6807 546.514 64.3297 553.9 64.3297C546.514 64.3297 539.705 67.9788 534.858 73.8644C529.895 79.8677 526.894 87.8721 526.894 96.9359ZM567.403 106.588C564.518 110.237 562.672 114.946 562.672 120.243C562.672 109.531 555.516 100.82 546.63 100.82C551.015 100.82 555.055 98.7016 557.94 95.1702C560.825 91.6389 562.672 86.8127 562.672 81.5156C562.672 86.9304 564.403 91.6389 567.403 95.1702C570.289 98.5839 574.328 100.82 578.829 100.82C574.213 100.938 570.173 103.175 567.403 106.588Z" fill="black"/>
</svg>
