<svg width="840" height="553" viewBox="0 0 840 553" fill="none" xmlns="http://www.w3.org/2000/svg">
<path d="M419.916 0C248.556 0 88.452 102.27 2.26791 267.203C-0.75597 272.967 -0.75597 280.033 2.26791 285.797C88.452 450.73 248.556 553 419.916 553C591.276 553 751.38 450.73 837.732 285.797C840.756 280.033 840.756 272.967 837.732 267.203C751.38 102.27 591.276 0 419.916 0ZM425.628 407.777C423.78 408.522 421.932 409.079 419.916 409.079C417.9 409.079 416.052 408.522 414.204 407.777C408.828 405.732 281.987 353.109 281.987 240.242C281.987 187.247 320.964 143.921 369.012 143.921C387.66 143.921 405.132 150.43 419.916 162.331C434.7 150.43 452.34 143.921 470.82 143.921C518.868 143.921 557.844 187.247 557.844 240.242C557.844 353.109 431.172 405.732 425.628 407.777Z" fill="black"/>
</svg>
