<svg width="691" height="774" viewBox="0 0 691 774" fill="none" xmlns="http://www.w3.org/2000/svg">
<path d="M0.147423 289.601C4.2783 138.46 130.683 11.0584 288.482 0.771286C463.632 -11.0984 610.691 115.512 622.257 278.523L623.083 286.436C623.083 313.341 633.824 355.28 647.042 379.811C661.087 405.133 675.132 429.664 686.699 447.073C698.265 464.482 685.046 486.638 664.392 486.638H623.91V629.866C623.91 659.145 599.124 682.093 569.382 682.093H484.286V754.103C484.286 767.555 470.241 777.051 457.022 773.094L96.8099 655.98C84.4173 652.023 76.1556 640.945 76.1556 628.284V493.76C26.5851 439.16 -2.3311 367.941 0.147423 289.601ZM311.615 486.638C420.67 486.638 508.245 401.968 508.245 298.306C508.245 194.643 419.844 109.181 311.615 109.181C203.386 109.181 114.16 193.852 114.16 298.306C114.16 402.759 202.56 486.638 311.615 486.638ZM209.996 322.045L304.18 411.464C305.832 413.046 309.137 414.629 311.615 414.629C314.094 414.629 317.399 413.838 319.051 411.464L412.409 321.254C425.628 308.593 432.237 291.975 432.237 274.566C432.237 257.157 424.801 240.54 412.409 227.879C399.19 215.218 381.84 208.887 363.664 208.887C345.489 208.887 328.139 216.009 314.92 227.879L310.789 231.835L306.658 227.879C293.44 215.218 276.09 208.887 257.914 208.887C239.738 208.887 222.389 216.009 209.17 227.879C195.951 240.54 189.341 257.157 189.341 274.566C190.168 292.766 196.777 309.384 209.996 322.045Z" fill="black"/>
</svg>
