<svg width="837" height="706" viewBox="0 0 837 706" fill="none" xmlns="http://www.w3.org/2000/svg">
<path d="M110.347 617.448H241.128C246.548 617.448 251.745 615.328 255.577 611.554C259.41 607.779 261.562 602.66 261.562 597.323C261.562 591.985 259.41 586.866 255.577 583.092C251.745 579.318 246.548 577.197 241.128 577.197H110.347C104.927 577.197 99.7295 579.318 95.8972 583.092C92.065 586.866 89.9121 591.985 89.9121 597.323C89.9121 602.66 92.065 607.779 95.8972 611.554C99.7295 615.328 104.927 617.448 110.347 617.448Z" fill="black"/>
<path d="M792.044 0H44.9561C33.0383 0.0170356 21.6136 4.68729 13.1864 12.9869C4.75928 21.2866 0.0172972 32.5385 0 44.2759L0 118.338H837V44.2759C836.983 32.5385 832.241 21.2866 823.814 12.9869C815.386 4.68729 803.962 0.0170356 792.044 0Z" fill="black"/>
<path d="M418.5 562.385C451.3 549.924 482.416 533.528 511.142 513.569C576.958 467.715 617.5 411.718 631.657 346.962C633.985 336.127 635.142 325.08 635.106 314.005C635.106 261.019 590.886 217.918 536.579 217.918C517.361 217.891 498.394 222.216 481.143 230.557C463.892 238.899 448.819 251.034 437.087 266.026L428.178 277.296C427.033 278.75 425.566 279.927 423.889 280.737C422.211 281.547 420.368 281.968 418.5 281.968C416.632 281.968 414.789 281.547 413.111 280.737C411.434 279.927 409.967 278.75 408.822 277.296L399.913 266.026C388.176 251.036 373.1 238.902 355.846 230.56C338.593 222.219 319.624 217.894 300.404 217.918C246.114 217.918 201.926 261.019 201.894 314.005C201.856 325.08 203.013 336.128 205.343 346.962C236.551 489.66 391.935 552.596 418.5 562.385Z" fill="black"/>
<path d="M0 661.724C0.0172972 673.462 4.75928 684.713 13.1864 693.013C21.6136 701.313 33.0383 705.983 44.9561 706H792.044C803.962 705.983 815.386 701.313 823.814 693.013C832.241 684.713 836.983 673.462 837 661.724V142.488H0V661.724ZM300.421 193.832C323.169 193.806 345.624 198.882 366.084 208.677C386.543 218.471 404.468 232.726 418.5 250.36C432.537 232.74 450.462 218.499 470.918 208.716C491.374 198.933 513.823 193.865 536.563 193.896C604.373 193.896 659.579 247.816 659.612 314.118C659.651 326.909 658.308 339.668 655.606 352.179C640.305 422.119 595.055 484.926 524.76 533.726C472.071 570.258 424.418 586.036 422.423 586.696C419.918 587.512 417.213 587.512 414.707 586.696C412.713 586.036 365.059 570.258 312.371 533.726C242.076 484.942 196.76 422.135 181.443 352.115C178.739 339.609 177.397 326.855 177.437 314.069C177.405 247.752 232.611 193.832 300.421 193.832ZM110.347 553.047H241.128C253.051 553.047 264.486 557.712 272.917 566.015C281.348 574.318 286.084 585.58 286.084 597.323C286.084 609.065 281.348 620.327 272.917 628.631C264.486 636.934 253.051 641.599 241.128 641.599H110.347C98.4236 641.599 86.9888 636.934 78.5579 628.631C70.127 620.327 65.3906 609.065 65.3906 597.323C65.3906 585.58 70.127 574.318 78.5579 566.015C86.9888 557.712 98.4236 553.047 110.347 553.047Z" fill="black"/>
</svg>
