<svg width="796" height="805" viewBox="0 0 796 805" fill="none" xmlns="http://www.w3.org/2000/svg">
<path d="M257.692 63.6351L150.691 171.928L109.881 130.655C95.5781 116.191 87.7267 96.9691 87.7267 76.5302C87.7267 56.0913 95.6166 36.8699 109.881 22.4051C139.38 -7.42817 187.382 -7.42817 216.922 22.4051L257.692 63.6351Z" fill="black"/>
<path d="M338.814 177.392C338.814 197.831 330.924 217.052 316.659 231.517C287.12 261.35 239.12 261.35 209.619 231.517L168.808 190.244L275.849 81.9922L316.659 123.264C330.962 137.729 338.814 156.953 338.814 177.392Z" fill="black"/>
<path d="M518.916 321.255L478.106 362.527L371.105 254.275L411.915 213.003C426.685 198.066 446.04 190.598 465.435 190.598C484.829 190.598 504.184 198.066 518.954 213.003C533.257 227.468 541.108 246.689 541.108 267.128C541.069 287.567 533.219 306.829 518.916 321.255Z" fill="black"/>
<path d="M312.148 313.899L352.958 272.627L459.999 380.879L419.189 422.152C389.689 451.985 341.688 452.025 312.148 422.152C297.845 407.687 289.994 388.465 289.994 368.026C289.994 347.588 297.883 328.364 312.148 313.899Z" fill="black"/>
<path d="M528.17 157.186L648.543 35.4099C659.465 50.3074 665.45 68.2307 665.45 87.1371C665.45 110.407 656.472 132.301 640.225 148.77C609.715 179.625 561.87 182.342 528.17 157.186Z" fill="black"/>
<path d="M579.282 0C597.277 0 615.234 5.73874 630.391 17.0589L510.018 138.835C499.096 123.938 493.111 106.014 493.111 87.108C493.111 63.8385 502.089 41.9445 518.375 25.4752C535.126 8.49475 557.205 0 579.282 0Z" fill="black"/>
<path d="M35.064 439.369L155.438 317.592C166.359 332.49 172.344 350.413 172.344 369.32C172.344 392.589 163.366 414.483 147.119 430.952C116.609 461.808 68.7642 464.564 35.064 439.369Z" fill="black"/>
<path d="M86.1765 282.182C104.172 282.182 122.128 287.96 137.286 299.241L16.9125 421.018C5.9905 406.12 0.0056541 388.197 0.0056541 369.29C0.0056541 346.021 8.98382 324.127 25.2306 307.658C42.021 290.677 64.0997 282.182 86.1765 282.182Z" fill="black"/>
<path d="M623.668 369.283C623.668 350.377 629.654 332.493 640.575 317.556L760.949 439.332C727.252 464.528 679.407 461.777 648.893 430.921C632.647 414.451 623.668 392.592 623.668 369.283Z" fill="black"/>
<path d="M796 369.283C796 388.19 790.015 406.114 779.093 421.011L658.72 299.234C673.877 287.914 691.834 282.175 709.829 282.175C731.906 282.175 753.943 290.666 770.772 307.686C787.018 324.116 796 346.014 796 369.283Z" fill="black"/>
<path d="M779.205 526.862C762.337 512.83 738.006 513.065 721.41 527.452L567.187 661.091C565.321 662.703 562.989 663.568 560.541 663.568H324.659C319.024 663.568 314.438 658.969 314.438 653.23C314.438 647.531 318.985 642.893 324.659 642.893L498.195 642.933C498.195 591.088 482.765 551.23 418.985 551.23L202.456 551.191C158.42 551.191 122.585 608.067 122.585 653.235C122.585 658.934 118.038 663.572 112.364 663.572H0V805H520C539.977 805 562.87 800.48 579.077 788.688C605.351 769.546 623.113 756.024 645.501 735.113L782.58 596.009C791.714 586.733 796.571 573.84 795.911 560.673C795.289 547.505 789.194 535.155 779.205 526.862Z" fill="black"/>
</svg>
