<svg width="791" height="802" viewBox="0 0 791 802" fill="none" xmlns="http://www.w3.org/2000/svg">
<path d="M35.9545 802H755.045C764.578 801.991 773.719 798.147 780.459 791.313C787.2 784.478 790.991 775.211 791 765.545V736.382C790.922 728.082 788.016 720.064 782.774 713.688C777.531 707.313 770.275 702.972 762.236 701.401V295.072C780.67 274.022 790.897 246.877 791 218.727V196.855C790.984 183.324 785.675 170.352 776.239 160.785C766.803 151.217 754.009 145.835 740.664 145.818H733.473V107.028C733.394 105.369 733.23 103.715 732.981 102.073H740.664C745.385 102.073 750.061 101.13 754.423 99.2985C758.786 97.4666 762.749 94.7814 766.088 91.3962C769.427 88.011 772.075 83.9922 773.882 79.5691C775.689 75.1461 776.619 70.4056 776.618 65.6182V36.4545C776.619 31.6672 775.689 26.9266 773.882 22.5036C772.075 18.0806 769.427 14.0617 766.088 10.6765C762.749 7.29133 758.786 4.60612 754.423 2.77423C750.061 0.942341 745.385 -0.000344634 740.664 9.45129e-08H50.3364C45.6146 -0.000344634 40.9391 0.942341 36.5768 2.77423C32.2144 4.60612 28.2507 7.29133 24.9119 10.6765C21.5731 14.0617 18.9248 18.0806 17.118 22.5036C15.3112 26.9266 14.3815 31.6672 14.3818 36.4545V65.6182C14.3815 70.4056 15.3112 75.1461 17.118 79.5691C18.9248 83.9922 21.5731 88.011 24.9119 91.3962C28.2507 94.7814 32.2144 97.4666 36.5768 99.2985C40.9391 101.13 45.6146 102.073 50.3364 102.073H58.0188C57.7696 103.715 57.6055 105.369 57.5273 107.028V145.818H50.3364C36.9913 145.835 24.1975 151.217 14.7611 160.785C5.3247 170.352 0.0162133 183.324 0 196.855V218.727C0.107796 246.875 10.3343 274.017 28.7636 295.068V701.401C20.7253 702.973 13.4702 707.314 8.22801 713.69C2.98579 720.065 0.0788946 728.082 0 736.382V765.545C0.00883436 775.211 3.79973 784.478 10.5406 791.313C17.2815 798.147 26.4215 801.991 35.9545 802ZM71.9091 326.702C95.8328 336.673 122.39 338.099 147.218 330.744C172.046 323.39 193.669 307.693 208.536 286.232C219.095 301.418 233.098 313.81 249.366 322.363C265.635 330.917 283.692 335.381 302.017 335.382C320.343 335.382 338.4 330.918 354.669 322.365C370.937 313.812 384.941 301.422 395.5 286.236C406.059 301.421 420.063 313.812 436.331 322.364C452.599 330.917 470.656 335.381 488.981 335.382C507.306 335.382 525.363 330.918 541.631 322.366C557.9 313.814 571.904 301.424 582.464 286.239C597.333 307.697 618.957 323.391 643.784 330.744C668.612 338.098 695.167 336.674 719.091 326.706V699.927H395.5V532.236C395.5 497.43 381.863 464.05 357.589 439.438C333.315 414.827 300.392 401 266.064 401C231.735 401 198.812 414.827 174.538 439.438C150.264 464.05 136.627 497.43 136.627 532.236V699.927H71.9091V326.702ZM194.155 575.982C194.155 570.214 195.842 564.575 199.002 559.779C202.163 554.983 206.655 551.245 211.911 549.038C217.167 546.831 222.95 546.253 228.53 547.379C234.109 548.504 239.234 551.281 243.257 555.36C247.28 559.439 250.019 564.635 251.129 570.292C252.239 575.949 251.669 581.813 249.492 587.142C247.315 592.471 243.629 597.026 238.898 600.231C234.168 603.435 228.607 605.145 222.918 605.145C215.296 605.123 207.993 602.044 202.603 596.579C197.214 591.115 194.176 583.71 194.155 575.982Z" fill="black"/>
<path d="M500.966 414.61H635.202C639.608 414.61 643.971 415.49 648.042 417.199C652.113 418.909 655.812 421.415 658.927 424.574C662.043 427.733 664.514 431.483 666.201 435.611C667.887 439.738 668.755 444.162 668.755 448.629V557.512C668.755 566.536 665.219 575.19 658.926 581.57C652.633 587.951 644.098 591.536 635.198 591.536H500.969C492.068 591.536 483.532 587.951 477.239 581.569C470.945 575.188 467.409 566.533 467.409 557.509V448.633C467.409 439.609 470.944 430.956 477.238 424.575C483.531 418.194 492.066 414.61 500.966 414.61Z" fill="black"/>
</svg>
