<svg width="807" height="823" viewBox="0 0 807 823" fill="none" xmlns="http://www.w3.org/2000/svg">
<path fill-rule="evenodd" clip-rule="evenodd" d="M327.465 0H479.535C546.424 0 600.351 -1.60547e-06 642.75 5.78687C686.77 11.8543 723.842 24.761 753.283 54.7822C782.724 84.8034 795.411 122.612 801.326 167.506C807 210.75 807 265.74 807 333.958V489.042C807 557.258 807 612.253 801.326 655.493C795.41 700.386 782.72 738.193 753.283 768.218C723.845 798.243 686.772 811.181 642.75 817.213C600.347 823 546.427 823 479.535 823H327.465C260.576 823 206.649 823 164.25 817.213C120.231 811.181 83.1583 798.239 53.7172 768.218C24.2761 738.197 11.624 700.388 5.67437 655.493C-1.57426e-06 612.25 0 557.26 0 489.042V333.958C0 265.742 -1.57426e-06 210.747 5.67437 167.506C11.6239 122.614 24.2796 84.807 53.7172 54.7822C83.1547 24.7574 120.228 11.8545 164.25 5.78687C206.653 -1.60547e-06 260.573 0 327.465 0ZM586.907 149.617C526.14 149.617 476.858 199.875 476.858 261.847C476.858 323.854 526.14 374.078 586.907 374.078C647.708 374.078 696.956 323.854 696.956 261.847C696.956 199.875 647.708 149.617 586.907 149.617ZM73.3939 517.203L165.87 436.327C237.711 373.513 347.248 388.945 399.754 469.225L408.523 482.657C430.602 516.467 475.997 524.393 507.875 500.018C554.302 464.525 617.167 461.194 666.926 491.636L733.574 532.425C733.334 580.263 732.405 616.528 728.588 645.535C723.773 682.115 714.935 701.511 701.42 715.328C687.87 729.112 668.853 738.125 632.984 743.035C596.049 748.12 547.077 748.19 476.856 748.19H330.148C259.923 748.19 210.952 748.12 174.019 743.035C138.116 738.125 119.133 729.111 105.583 715.328C92.0676 701.51 83.2294 682.115 78.4154 645.535C74.1854 613.515 73.4971 572.652 73.3939 517.203Z" fill="black"/>
</svg>
