<svg width="778" height="825" viewBox="0 0 778 825" fill="none" xmlns="http://www.w3.org/2000/svg">
<path d="M777.998 404.713C777.998 427.283 776.203 450.01 772.537 472.19C770.069 487.367 757.427 498.108 743.063 498.108C741.418 498.108 739.697 497.952 738.051 497.641C721.743 494.761 710.746 478.729 713.514 461.761C716.581 443.004 718.078 423.78 718.078 404.712C718.078 215.899 570.406 62.2625 388.924 62.2625C207.442 62.2625 59.8465 215.899 59.8465 404.712C59.8465 423.858 61.4175 443.004 64.4098 461.761C67.1776 478.728 56.181 494.761 39.8729 497.641C23.6397 500.521 8.1544 489.08 5.38615 472.113C1.79538 450.009 0 427.283 0 404.713C0 181.58 174.531 0 389 0C603.469 0 777.998 181.58 777.998 404.713ZM697.057 592.908C615.741 566.757 583.952 506.05 571.983 483.244C568.991 477.485 565.924 470.714 562.782 463.553C552.308 439.971 539.218 410.629 513.558 392.417C512.137 391.483 510.641 390.472 509.145 389.615C509.07 389.538 508.995 389.46 508.92 389.46C508.696 389.382 508.546 389.226 508.397 389.149C508.322 389.071 508.247 389.071 508.172 388.993C508.172 388.993 508.097 388.993 508.023 388.915C475.631 369.146 423.789 362.142 389.001 362.142C368.354 362.142 345.837 364.477 325.713 368.602C303.121 373.271 284.345 380.12 269.981 388.915C269.981 388.915 269.907 388.915 269.907 388.993C269.757 389.071 269.682 389.149 269.607 389.149C269.458 389.227 269.233 389.382 269.009 389.46C268.934 389.538 268.859 389.616 268.785 389.616C267.288 390.55 265.792 391.484 264.072 392.651C238.712 410.63 225.621 439.972 215.147 463.554C212.005 470.714 208.938 477.407 205.946 483.245C194.799 504.648 142.359 573.06 80.8721 592.909C65.088 597.968 56.2605 615.401 61.1229 631.823C65.1625 645.21 76.9816 653.771 89.7743 653.771C92.6919 653.771 95.6842 653.303 98.6765 652.37C177.897 626.842 240.66 547.458 258.614 512.979C262.579 505.43 266.095 497.491 269.536 489.786C270.808 486.906 272.154 483.949 273.501 481.069C277.316 529.635 283.674 592.446 293.25 634.317C207.894 624.044 122.54 659.612 97.7779 703.741C82.8164 730.515 89.3995 766.083 113.862 790.288C136.304 812.392 171.165 825 209.541 825C275.297 825 318.681 803.363 360.573 782.505C360.798 782.428 360.947 782.272 361.172 782.194C372.243 774.022 384.137 765.928 396.855 758.534C402.99 754.954 409.274 751.529 415.782 748.339C438.449 736.976 463.435 728.181 490.59 724.056C502.783 722.188 514.23 731.06 516.024 743.825C517.818 756.589 509.291 768.419 497.023 770.286C489.916 771.376 482.884 772.777 475.852 774.722C468.746 776.59 461.639 778.847 454.532 781.649C448.323 784.062 442.114 786.786 435.83 789.977C440.693 792.234 445.406 794.491 450.119 796.748C480.191 811.224 508.693 825 568.537 825C587.688 825 606.016 821.887 622.324 815.972C638.707 810.057 652.995 801.339 664.217 790.288C688.679 766.083 695.262 730.515 680.3 703.742C655.464 659.535 569.963 623.889 484.455 634.396C493.357 593.147 500.164 529.565 504.204 480.292V480.214C505.625 483.405 507.122 486.596 508.468 489.709C511.909 497.414 515.425 505.43 519.39 512.98C533.08 539.13 574.823 618.668 679.328 652.37C682.245 653.304 685.237 653.771 688.155 653.771C700.947 653.771 712.766 645.21 716.732 631.823C721.669 615.402 712.841 597.967 697.057 592.908ZM388.997 326.888C439.567 326.888 478.767 268.283 478.767 217.922C478.767 166.399 438.52 124.527 388.997 124.527C339.474 124.527 299.228 166.399 299.228 217.922C299.228 268.278 338.428 326.888 388.997 326.888Z" fill="black"/>
</svg>
