<svg width="820" height="824" viewBox="0 0 820 824" fill="none" xmlns="http://www.w3.org/2000/svg">
<path d="M636.049 628.913C636.049 624.597 632.528 621.057 628.236 621.057C623.943 621.057 620.422 624.597 620.422 628.913V698.235H140.994V407.093L176.776 413.634C178.453 413.903 180.163 414.038 181.84 414.038V442.563C181.84 450.419 183.785 458.14 187.575 464.917C195.623 479.314 210.848 488.316 227.248 488.316L533.969 488.451C546.31 488.451 558.282 483.225 566.733 474.324C574.916 465.827 579.477 454.565 579.477 442.663L579.611 212.477C579.611 187.223 559.188 166.689 534.069 166.689L227.348 166.554C215.242 166.554 203.806 171.275 195.221 179.907C186.636 188.538 181.807 200.035 181.807 212.342V229.74L140.96 222.289V125.658H620.286V334.637C620.286 338.953 623.807 342.493 628.099 342.493C632.392 342.493 635.913 338.953 635.913 334.637V83.6855C635.913 37.5265 598.588 0 552.678 0H208.5C162.589 0 125.264 37.5274 125.264 83.6855V219.426L60.2388 207.524C51.3858 205.94 42.2976 207.794 34.8861 213.02C27.4747 218.246 22.411 225.967 20.8348 234.868L0.545518 346.673C-1.03063 355.574 0.813803 364.711 6.01184 372.163C11.2099 379.614 18.8895 384.705 27.7425 386.29L53.0953 391.01C54.4031 391.28 55.3086 392.19 55.5769 393.505L60.6408 416.399C62.0828 422.535 66.3754 427.66 72.211 429.886C74.4243 430.796 76.7718 431.201 79.1193 431.201C82.8753 431.201 86.6649 430.02 89.7838 427.795L122.817 404.766C123.454 404.227 124.393 404.126 125.164 404.227H125.298V740.314C125.298 786.473 162.624 824 208.534 824H552.841C598.751 824 636.076 786.472 636.076 740.314L636.049 628.913ZM356.397 51.7817H454.723C460.826 51.7817 465.655 56.7381 465.655 62.7731C465.655 68.9096 460.725 73.7645 454.723 73.7645H356.397C350.294 73.7645 345.465 68.8081 345.465 62.7731C345.331 56.7378 350.294 51.7817 356.397 51.7817ZM313.069 51.3771C319.307 51.3771 324.504 56.4683 324.504 62.8743C324.504 69.2806 319.441 74.3715 313.069 74.3715C306.697 74.3715 301.634 69.2803 301.634 62.8743C301.634 56.4681 306.697 51.3771 313.069 51.3771ZM227.218 472.64C218.23 472.64 209.78 468.459 204.179 461.513L310.317 324.314C314.877 318.549 321.618 315.143 328.929 315.143C336.206 315.143 342.98 318.549 347.542 324.314L462.265 472.734L227.218 472.64ZM197.572 212.381C197.572 204.39 200.691 196.804 206.291 191.207C211.892 185.577 219.437 182.441 227.352 182.441L534.073 182.576C550.472 182.576 563.853 196.063 563.853 212.517L563.719 442.703C563.719 447.154 562.679 451.47 560.734 455.381L481.522 352.847C473.977 343.17 462.776 337.54 450.569 337.54C438.328 337.54 427.026 343.171 419.615 352.847L404.524 372.335L359.788 314.41C352.242 304.733 341.041 299.103 328.834 299.103C316.593 299.103 305.292 304.599 297.88 314.41L197.572 444.151C197.572 443.611 197.437 442.971 197.437 442.465V410.569C199.014 409.793 200.556 408.984 201.998 408.074C209.41 402.848 214.473 395.126 216.05 386.226L236.339 274.421C237.915 265.52 236.071 256.383 230.873 248.931C225.674 241.48 217.995 236.389 209.142 234.804L197.572 232.714L197.572 212.381ZM113.934 391.685L80.9012 414.68C79.7275 415.455 78.5537 415.219 77.9165 415.085C77.2793 414.815 76.3404 414.309 75.9715 412.859L70.9076 389.966C69.2308 382.514 63.362 376.884 55.9506 375.434L30.5978 370.713C25.7687 369.803 21.6101 367.173 18.8937 363.127C16.1773 359.081 15.1377 354.226 16.0432 349.539L36.3324 237.735C37.2379 232.879 39.8537 228.698 43.878 225.967C46.9968 223.877 50.5181 222.697 54.1398 222.697C55.1794 222.697 56.3531 222.832 57.3928 222.966L206.328 250.311C211.157 251.222 215.315 253.851 218.032 257.898C220.748 261.944 221.788 266.798 220.882 271.485L200.593 383.29C199.688 388.145 197.072 392.326 193.048 395.057C191.237 396.372 189.157 397.283 186.944 397.788C186.81 397.788 186.542 397.923 186.407 397.923C184.194 398.463 181.847 398.463 179.499 398.058L127.988 388.651C123.159 387.741 117.958 388.785 113.934 391.685ZM380.709 795.011C362.096 795.011 346.905 779.839 346.905 761.024C346.905 742.311 361.996 727.038 380.709 727.038C399.321 727.038 414.513 742.21 414.513 761.024C414.546 779.839 399.321 795.011 380.709 795.011Z" fill="black"/>
<path d="M403.212 307.586C428.833 307.586 449.659 286.648 449.659 260.888C449.659 235.128 428.833 214.19 403.212 214.19C377.591 214.19 356.765 235.128 356.765 260.888C356.798 286.648 377.591 307.586 403.212 307.586ZM403.212 230.037C420.114 230.037 433.897 243.895 433.897 260.888C433.897 277.881 420.114 291.739 403.212 291.739C386.31 291.739 372.527 277.881 372.527 260.888C372.393 243.894 386.176 230.037 403.212 230.037Z" fill="black"/>
<path d="M540.437 535.787H204.578C200.285 535.787 196.764 539.328 196.764 543.643C196.764 547.959 200.285 551.5 204.578 551.5H540.437C544.729 551.5 548.251 547.959 548.251 543.643C548.251 539.328 544.729 535.787 540.437 535.787Z" fill="black"/>
<path d="M510.389 602.104C514.681 602.104 518.203 598.563 518.203 594.247C518.203 589.932 514.681 586.391 510.389 586.391H250.122C245.829 586.391 242.308 589.932 242.308 594.247C242.308 598.563 245.829 602.104 250.122 602.104H510.389Z" fill="black"/>
<path d="M196.662 644.588C196.662 648.904 200.184 652.444 204.476 652.444H540.335C544.628 652.444 548.149 648.904 548.149 644.588C548.149 640.272 544.628 636.732 540.335 636.732L204.579 636.766C200.186 636.766 196.662 640.272 196.662 644.588Z" fill="black"/>
<path d="M814.019 419.261C808.821 411.81 801.142 406.719 792.289 405.134L643.354 377.789C634.501 376.205 625.412 378.059 618.001 383.285C610.59 388.511 605.526 396.233 603.95 405.133L583.66 516.938C580.273 535.381 592.513 553.15 610.858 556.555L636.211 561.275C637.519 561.545 638.424 562.456 638.692 563.77L643.756 586.664C645.198 592.8 649.491 597.926 655.327 600.151C657.54 601.061 659.887 601.466 662.235 601.466C665.991 601.466 669.78 600.286 672.899 598.06L705.932 575.031C706.57 574.492 707.508 574.391 708.28 574.492L759.791 583.898C768.644 585.483 777.732 583.629 785.143 578.403C792.555 573.176 797.619 565.455 799.195 556.554L819.484 444.75C821.027 435.883 819.083 426.848 814.019 419.261ZM803.992 441.886L783.703 553.69C782.797 558.545 780.181 562.726 776.157 565.457C772.133 568.188 767.304 569.234 762.642 568.323L711.132 558.917C706.202 558.006 701.104 559.052 696.946 561.918L663.913 584.947C662.74 585.722 661.566 585.486 660.929 585.351C660.392 585.081 659.352 584.576 658.984 583.126L653.92 560.232C652.243 552.781 646.374 547.15 638.963 545.7L613.61 540.98C603.717 539.159 597.211 529.617 599.055 519.806L619.345 408.001C620.25 403.146 622.866 398.965 626.89 396.234C630.009 394.143 633.53 392.963 637.152 392.963C638.192 392.963 639.365 393.098 640.405 393.233L789.34 420.578C794.169 421.488 798.328 424.118 801.044 428.164C803.861 432.345 804.897 437.199 803.992 441.886Z" fill="black"/>
<path d="M738.032 426.477C728.81 424.791 719.554 425.938 711.237 429.883C704.865 423.207 696.549 418.756 687.292 417.205C675.588 414.979 663.75 417.609 653.991 424.386C644.233 431.197 637.592 441.38 635.514 453.147C628.874 489.898 681.424 534.506 687.561 539.462C689.003 540.642 690.68 541.283 692.491 541.283C693.262 541.283 694.168 541.148 694.972 540.878C702.384 538.383 767.175 515.523 773.915 478.637C778.241 454.193 762.245 430.793 738.032 426.477ZM758.455 475.771C754.431 497.619 713.953 516.973 694.067 524.425C678.07 510.432 646.983 477.862 650.873 456.013C652.315 448.426 656.474 441.751 662.845 437.3C667.775 433.894 673.376 432.208 679.245 432.208C680.921 432.208 682.766 432.343 684.443 432.748C691.988 434.198 698.494 438.379 702.92 444.65C705.402 448.19 710.198 448.966 713.719 446.605C719.956 442.29 727.636 440.705 735.048 442.02C750.911 444.785 761.339 459.957 758.455 475.771Z" fill="black"/>
<path d="M135.124 271.342C129.524 263.486 120.033 259.71 110.676 261.666C101.185 263.486 93.9086 270.566 91.6953 279.974L80.1251 327.987C77.9118 337.394 81.1647 346.936 88.7103 353.107C93.1369 356.647 98.469 358.468 103.801 358.468C107.557 358.468 111.347 357.557 114.868 355.736L148.572 338.608C154.944 335.337 159.639 329.437 161.316 322.525C162.992 315.579 161.584 308.127 157.425 302.396L135.124 271.342Z" fill="black"/>
</svg>
