<svg width="640" height="830" viewBox="0 0 640 830" fill="none" xmlns="http://www.w3.org/2000/svg">
<path d="M256 345.833H128C119.163 345.833 112 352.027 112 359.667V470.333C112 477.973 119.163 484.167 128 484.167H256C264.837 484.167 272 477.973 272 470.333V359.667C272 352.027 264.837 345.833 256 345.833Z" fill="black"/>
<path d="M224 152.167H160C151.163 152.167 144 158.36 144 166V221.333C144 228.973 151.163 235.167 160 235.167H224C232.837 235.167 240 228.973 240 221.333V166C240 158.36 232.837 152.167 224 152.167Z" fill="black"/>
<path d="M560 0H80C58.7905 0.0219654 38.4569 7.3162 23.4595 20.2827C8.46211 33.2492 0.0254057 50.8293 0 69.1667V760.833C0.0254057 779.171 8.46211 796.751 23.4595 809.717C38.4569 822.684 58.7905 829.978 80 830H560C581.21 829.978 601.543 822.684 616.541 809.717C631.538 796.751 639.975 779.171 640 760.833V69.1667C639.975 50.8293 631.538 33.2492 616.541 20.2827C601.543 7.3162 581.21 0.0219654 560 0ZM352 166C352 158.662 355.371 151.625 361.373 146.437C367.374 141.248 375.513 138.333 384 138.333H512C520.487 138.333 528.626 141.248 534.627 146.437C540.629 151.625 544 158.662 544 166V276.667C544 284.004 540.629 291.041 534.627 296.23C528.626 301.418 520.487 304.333 512 304.333H384C375.513 304.333 367.374 301.418 361.373 296.23C355.371 291.041 352 284.004 352 276.667V166ZM528 415V470.333C528 477.671 524.629 484.708 518.627 489.897C512.626 495.085 504.487 498 496 498H432C423.513 498 415.374 495.085 409.373 489.897C403.371 484.708 400 477.671 400 470.333V415C400 407.662 403.371 400.625 409.373 395.437C415.374 390.248 423.513 387.333 432 387.333H496C504.487 387.333 512.626 390.248 518.627 395.437C524.629 400.625 528 407.662 528 415ZM160 55.3333C163.165 55.3333 166.258 56.1446 168.889 57.6647C171.52 59.1847 173.571 61.3452 174.782 63.8729C175.993 66.4006 176.31 69.182 175.693 71.8654C175.075 74.5488 173.551 77.0137 171.314 78.9483C169.076 80.8829 166.225 82.2004 163.121 82.7342C160.018 83.268 156.801 82.994 153.877 81.947C150.953 80.9 148.455 79.1269 146.696 76.852C144.938 74.5772 144 71.9026 144 69.1667C144 65.4978 145.686 61.9793 148.686 59.385C151.687 56.7908 155.757 55.3333 160 55.3333ZM160 124.5H224C236.73 124.5 248.939 128.872 257.941 136.655C266.943 144.438 272 154.994 272 166V221.333C272 232.34 266.943 242.895 257.941 250.678C248.939 258.461 236.73 262.833 224 262.833H160C147.27 262.833 135.061 258.461 126.059 250.678C117.057 242.895 112 232.34 112 221.333V166C112 154.994 117.057 144.438 126.059 136.655C135.061 128.872 147.27 124.5 160 124.5ZM96 55.3333C99.1645 55.3333 102.258 56.1446 104.889 57.6647C107.52 59.1847 109.571 61.3452 110.782 63.8729C111.993 66.4006 112.31 69.182 111.693 71.8654C111.075 74.5488 109.551 77.0137 107.314 78.9483C105.076 80.8829 102.225 82.2004 99.1215 82.7342C96.0178 83.268 92.8007 82.994 89.8771 81.947C86.9535 80.9 84.4546 79.1269 82.6965 76.852C80.9384 74.5772 80 71.9026 80 69.1667C80 65.4978 81.6857 61.9793 84.6863 59.385C87.6869 56.7908 91.7565 55.3333 96 55.3333ZM80 359.667C80 348.66 85.0571 338.104 94.0589 330.322C103.061 322.539 115.27 318.167 128 318.167H256C268.73 318.167 280.939 322.539 289.941 330.322C298.943 338.104 304 348.66 304 359.667V470.333C304 481.34 298.943 491.895 289.941 499.678C280.939 507.461 268.73 511.833 256 511.833H128C115.27 511.833 103.061 507.461 94.0589 499.678C85.0571 491.895 80 481.34 80 470.333V359.667ZM80 622.5C80 618.831 81.6857 615.313 84.6863 612.718C87.6869 610.124 91.7565 608.667 96 608.667H288C292.243 608.667 296.313 610.124 299.314 612.718C302.314 615.313 304 618.831 304 622.5C304 626.169 302.314 629.687 299.314 632.282C296.313 634.876 292.243 636.333 288 636.333H96C91.7565 636.333 87.6869 634.876 84.6863 632.282C81.6857 629.687 80 626.169 80 622.5ZM208 733.167H144C139.757 733.167 135.687 731.709 132.686 729.115C129.686 726.521 128 723.002 128 719.333C128 715.664 129.686 712.146 132.686 709.552C135.687 706.957 139.757 705.5 144 705.5H208C212.243 705.5 216.313 706.957 219.314 709.552C222.314 712.146 224 715.664 224 719.333C224 723.002 222.314 726.521 219.314 729.115C216.313 731.709 212.243 733.167 208 733.167ZM320 760.833C310.507 760.833 301.226 758.399 293.333 753.839C285.439 749.279 279.287 742.798 275.654 735.215C272.021 727.631 271.07 719.287 272.922 711.237C274.774 703.187 279.346 695.792 286.059 689.988C292.772 684.185 301.325 680.232 310.636 678.631C319.947 677.029 329.598 677.851 338.369 680.992C347.14 684.133 354.636 689.452 359.911 696.277C365.185 703.102 368 711.125 368 719.333C368 730.34 362.943 740.895 353.941 748.678C344.939 756.461 332.73 760.833 320 760.833ZM496 733.167H432C427.757 733.167 423.687 731.709 420.686 729.115C417.686 726.521 416 723.002 416 719.333C416 715.664 417.686 712.146 420.686 709.552C423.687 706.957 427.757 705.5 432 705.5H496C500.243 705.5 504.313 706.957 507.314 709.552C510.314 712.146 512 715.664 512 719.333C512 723.002 510.314 726.521 507.314 729.115C504.313 731.709 500.243 733.167 496 733.167ZM544 581H96C91.7565 581 87.6869 579.543 84.6863 576.948C81.6857 574.354 80 570.835 80 567.167C80 563.498 81.6857 559.979 84.6863 557.385C87.6869 554.791 91.7565 553.333 96 553.333H544C548.243 553.333 552.313 554.791 555.314 557.385C558.314 559.979 560 563.498 560 567.167C560 570.835 558.314 574.354 555.314 576.948C552.313 579.543 548.243 581 544 581Z" fill="black"/>
<path d="M448 276.667C435.342 276.667 422.968 273.421 412.443 267.341C401.919 261.261 393.716 252.619 388.872 242.508C384.028 232.398 382.76 221.272 385.23 210.538C387.699 199.805 393.795 189.945 402.745 182.207C411.696 174.468 423.099 169.198 435.514 167.063C447.929 164.928 460.797 166.024 472.492 170.212C484.186 174.4 494.182 181.492 501.214 190.592C508.246 199.691 512 210.389 512 221.333C512 236.009 505.257 250.083 493.255 260.46C481.252 270.837 464.974 276.667 448 276.667ZM448 193.667C441.671 193.667 435.484 195.289 430.222 198.329C424.959 201.369 420.858 205.69 418.436 210.746C416.014 215.801 415.38 221.364 416.615 226.731C417.85 232.098 420.897 237.027 425.373 240.897C429.848 244.766 435.55 247.401 441.757 248.468C447.964 249.536 454.399 248.988 460.246 246.894C466.093 244.8 471.091 241.254 474.607 236.704C478.123 232.154 480 226.805 480 221.333C480 213.996 476.629 206.959 470.627 201.77C464.626 196.582 456.487 193.667 448 193.667Z" fill="black"/>
<path d="M480 442.667C488.837 442.667 496 436.473 496 428.833C496 421.193 488.837 415 480 415C471.163 415 464 421.193 464 428.833C464 436.473 471.163 442.667 480 442.667Z" fill="black"/>
</svg>
