<svg width="605" height="857" viewBox="0 0 605 857" fill="none" xmlns="http://www.w3.org/2000/svg">
<path d="M302.5 138.019C407 138.019 490.875 148.718 490.875 162.627V43.8664H489.5C490.875 42.7965 490.875 40.6567 490.875 38.5169C490.875 17.1186 405.625 0 302.5 0C198 0 114.125 17.1186 114.125 37.4469C114.125 39.5868 114.125 40.6567 115.5 42.7965H114.125V161.557C114.125 148.718 198 138.019 302.5 138.019Z" fill="black"/>
<path d="M603.625 204.353C603.625 180.815 470.25 161.557 302.5 161.557C136.125 161.557 1.37501 180.815 1.37501 204.353V790.665H0C0 791.735 0 793.875 0 794.945C0 829.182 134.75 857 302.5 857C468.875 857 605 829.182 605 794.945C605 793.875 605 792.805 605 790.665H603.625V204.353ZM490.875 543.516H361.625V644.087H242V543.516H112.75V450.433H242V352.001H361.625V450.433H490.875V543.516Z" fill="black"/>
</svg>
