<svg width="756" height="839" viewBox="0 0 756 839" fill="none" xmlns="http://www.w3.org/2000/svg">
<path d="M504.031 419.403C508.489 428.924 513.367 437.799 518.244 446.296H518.435C522.703 453.768 527.39 461.05 532.038 467.726C558.445 504.936 587.33 524.774 614.767 524.774L614.805 524.812C619.225 524.774 623.684 524.205 627.99 523.181C659.084 515.708 680.424 482.937 688.159 430.516C694.142 376.124 690.217 321.082 676.575 268.094C664.686 214.65 643.042 163.865 612.747 118.188C582.263 74.8716 548.12 55.2609 517.025 62.7338C485.931 70.0165 464.591 102.978 456.856 155.398C455.636 163.705 454.836 172.391 454.226 181.305C453.807 190.598 453.617 200.536 453.807 210.625H453.845C454.836 246.773 459.752 282.731 468.478 317.855C476.671 352.865 488.598 386.898 504.031 419.403ZM497.134 161.287C502.011 127.908 513.176 105.264 526.589 102.001C527.809 101.736 529.028 101.622 530.248 101.584C543.471 101.584 561.952 116.339 579.633 141.449C606.917 182.983 626.351 229.106 636.944 277.586C649.558 325.568 653.254 375.368 647.919 424.676C643.041 458.055 631.647 480.699 618.463 483.962C605.05 486.996 584.93 472.014 565.42 444.514V444.476C559.666 436.511 554.483 428.128 549.949 419.405C555.627 409.543 561.877 400.022 568.659 390.881C582.073 373.016 597.391 356.668 614.387 342.141C620.064 337.134 622.503 329.434 620.674 322.113L602.383 245.228C600.554 237.832 594.762 232.066 587.369 230.245C565.61 225.011 544.576 217.349 524.57 207.411C514.32 202.328 504.412 196.638 494.886 190.418C494.886 180.67 495.648 170.922 497.134 161.287Z" fill="black"/>
<path d="M182.531 551.511L191.677 550.487C201.089 549.387 210.577 549.045 220.027 548.78L288.617 780.911C300.202 820.17 339.412 844.635 379.958 837.883L385.597 836.935V836.973C397.067 835.038 407.203 828.363 413.377 818.539C419.55 808.715 421.189 796.729 417.911 785.653L394.705 707.061L459.485 691.585V691.547C475.261 687.868 488.902 678.044 497.362 664.313C505.86 650.582 508.489 634.006 504.678 618.341L493.932 574.152L611.716 586.479H611.754C612.401 586.669 613.087 586.744 613.773 586.707C615.793 586.782 617.812 586.441 619.68 585.682C627.263 585.644 634.846 584.696 642.238 582.838C689.795 571.496 725.957 529.432 743.867 464.305H743.829C760.71 394.627 760.025 321.837 741.81 252.506C726.529 182.525 694.063 117.399 647.307 62.9635C601.58 13.0094 550.175 -8.23163 502.619 2.88168C482.613 7.73678 464.398 18.016 449.957 32.6191L186.188 196.673C166.792 208.697 146.214 218.71 124.799 226.6L96.5627 239.344C48.6251 261.041 13.9876 304.206 3.3935 355.527C-7.23764 406.847 7.43271 460.106 42.8715 498.869C78.3099 537.634 130.216 557.162 182.531 551.511ZM465.167 627.827C466.462 633.061 465.586 638.599 462.728 643.188C459.908 647.74 455.373 651.002 450.114 652.178L383.238 668.184L380.037 657.412L356.411 559.776L451.028 569.675L465.167 627.827ZM512.151 42.3314C513.18 42.1417 514.399 41.9141 515.39 41.7245H515.428C519.506 40.89 523.659 40.4727 527.812 40.5107C556.278 40.5107 587.563 57.6929 617.247 90.2754C637.711 112.957 654.82 138.409 668.042 165.909C683.018 196.595 694.565 228.798 702.375 262.024C718.989 324.685 719.828 390.49 704.814 453.578C690.791 503.949 665.184 535.925 632.87 543.586C631.841 543.776 630.622 544.003 629.631 544.193C559.936 557.545 474.964 457.826 442.645 323.888V323.926C426.031 261.227 425.192 195.421 440.206 132.344C454.229 81.9723 479.647 49.9927 512.151 42.3314Z" fill="black"/>
</svg>
