<svg width="841" height="805" viewBox="0 0 841 805" fill="none" xmlns="http://www.w3.org/2000/svg">
<path d="M589.898 188.177L675.106 107.053C682.583 101.443 691.95 98.6449 701.438 99.1893C710.926 99.7337 719.877 103.582 726.598 110.008C733.319 116.433 737.345 124.99 737.914 134.061C738.483 143.131 735.557 152.087 729.688 159.235L644.831 240.358C641.224 243.812 636.941 246.553 632.226 248.424C627.511 250.296 622.457 251.261 617.352 251.265C612.247 251.269 607.191 250.311 602.473 248.447C597.755 246.583 593.467 243.849 589.854 240.4C586.242 236.952 583.375 232.857 581.417 228.35C579.46 223.842 578.45 219.01 578.446 214.13C578.442 209.249 579.444 204.416 581.394 199.905C583.343 195.395 586.203 191.296 589.81 187.842L589.898 188.177ZM587.353 3.94975C582.678 1.69381 577.57 0.373094 572.342 0.0682993C567.114 -0.236496 561.876 0.481037 556.948 2.17705C552.02 3.87305 547.506 6.51191 543.681 9.93236C539.856 13.3528 536.801 17.483 534.702 22.0705L485.736 130.124C481.881 138.673 481.548 148.299 484.802 157.073C488.057 165.847 494.659 173.122 503.286 177.439C510.536 181.001 518.778 182.277 526.833 181.087C534.888 179.896 542.342 176.3 548.128 170.812C551.629 167.494 554.429 163.564 556.377 159.235L604.904 51.265C608.759 42.716 609.092 33.0901 605.838 24.3159C602.583 15.5417 595.981 8.26719 587.353 3.94975ZM788.043 226.348L675.106 272.741C666.218 276.906 659.347 284.183 655.921 293.061C652.494 301.939 652.773 311.738 656.701 320.424C660.629 329.111 667.904 336.018 677.017 339.714C686.129 343.41 696.381 343.611 705.644 340.274L818.581 293.462C823.068 291.611 827.147 288.963 830.603 285.66C836.599 279.536 840.228 271.638 840.89 263.273C841.552 254.908 839.207 246.578 834.244 239.661C829.28 232.744 821.995 227.654 813.594 225.233C805.193 222.812 796.179 223.206 788.043 226.348ZM763.999 502.354C767.75 505.94 770.726 510.197 772.756 514.883C774.786 519.568 775.831 524.59 775.831 529.661C775.831 534.733 774.786 539.754 772.756 544.44C770.726 549.125 767.75 553.382 763.999 556.968C760.248 560.554 755.795 563.399 750.894 565.34C745.993 567.28 740.74 568.279 735.436 568.279C730.131 568.279 724.878 567.28 719.977 565.34C715.076 563.399 710.623 560.554 706.872 556.968L683.179 534.317L565.678 584.233C585.81 610.872 594.691 643.789 590.548 676.413C586.404 709.037 569.542 738.967 543.327 760.226C517.112 781.485 483.475 792.508 449.131 791.096C414.787 789.683 382.264 775.938 358.056 752.605L299.964 697.068L190.975 743.377C196.859 750.753 199.745 759.919 199.1 769.174C198.454 778.43 194.321 787.148 187.465 793.712C179.882 800.941 169.61 805 158.902 805C148.193 805 137.921 800.941 130.338 793.712L11.258 679.954C4.27879 673.022 0.26714 663.843 0.012869 654.225C-0.241402 644.606 3.28013 635.245 9.88411 627.985C16.4881 620.724 25.696 616.09 35.695 614.995C45.6939 613.9 55.7593 616.424 63.9095 622.069L282.764 151.516L259.071 128.865C253.435 123.469 249.598 116.597 248.045 109.117C246.491 101.637 247.29 93.8845 250.342 86.8386C253.393 79.7927 258.56 73.769 265.189 69.528C271.819 65.287 279.614 63.0189 287.591 63.01C292.892 62.9975 298.143 63.9923 303.039 65.9365C307.935 67.8807 312.378 70.7357 316.11 74.3354L763.999 502.354ZM495.389 621.314L490.124 616.28L377.537 664.099L414.042 698.998C419.383 704.104 425.724 708.155 432.703 710.918C439.682 713.682 447.162 715.104 454.715 715.104C462.269 715.104 469.749 713.682 476.728 710.918C483.706 708.155 490.047 704.104 495.389 698.998C500.73 693.892 504.967 687.83 507.858 681.158C510.748 674.486 512.236 667.335 512.236 660.114C512.236 652.892 510.748 645.742 507.858 639.07C504.967 632.398 500.73 626.336 495.389 621.23V621.314Z" fill="black"/>
</svg>
