<svg width="830" height="578" viewBox="0 0 830 578" fill="none" xmlns="http://www.w3.org/2000/svg">
<path d="M811.913 0H18.0859C8.10656 0 0 9.57055 0 21.3123V524.193C0 535.934 8.10656 545.472 18.0859 545.472H811.913C821.892 545.472 830 535.934 830 524.193V21.3123C830 9.57055 821.892 0 811.913 0ZM739.874 24.4696C759.191 24.4696 774.873 42.9209 774.873 65.6473C774.873 88.3411 759.191 106.825 739.874 106.825C720.585 106.825 704.875 88.3411 704.875 65.6473C704.875 42.9209 720.585 24.4696 739.874 24.4696ZM739.874 134.781C759.191 134.781 774.873 153.265 774.873 175.959C774.873 198.652 759.191 217.137 739.874 217.137C720.585 217.137 704.875 198.652 704.875 175.959C704.875 153.265 720.585 134.781 739.874 134.781ZM739.874 245.093C759.191 245.093 774.873 263.576 774.873 286.303C774.873 308.997 759.191 327.481 739.874 327.481C720.585 327.481 704.875 308.997 704.875 286.303C704.875 263.576 720.585 245.093 739.874 245.093ZM643.095 516.102C643.095 518.832 641.222 521.035 638.901 521.035H21.6648C19.3444 521.035 17.4716 518.832 17.4716 516.102V29.403C17.4716 26.6733 19.3444 24.4696 21.6648 24.4696H638.901C641.222 24.4696 643.095 26.6733 643.095 29.403V516.102ZM799.837 504.492C799.837 513.602 793.518 521.035 785.748 521.035H694.029C686.258 521.035 679.939 513.602 679.939 504.492V454.796C679.939 445.686 686.258 438.253 694.029 438.253H785.748C793.518 438.253 799.837 445.686 799.837 454.796V504.492Z" fill="black"/>
<path d="M25.858 511.168H634.708V34.3364H25.858V511.168ZM73.576 87.7489C73.576 76.4022 81.4314 67.1601 91.0763 67.1601H569.49C579.135 67.1601 586.962 76.4022 586.962 87.7489V457.756C586.962 469.103 579.135 478.312 569.49 478.312H91.0763C81.4314 478.312 73.576 469.103 73.576 457.756V87.7489Z" fill="black"/>
<path d="M91.0763 468.445H569.49C574.494 468.445 578.575 463.643 578.575 457.756V87.7489C578.575 81.8291 574.494 77.0269 569.49 77.0269H91.0763C86.0436 77.0269 81.9623 81.8291 81.9623 87.7489V457.756C81.9623 463.643 86.0436 468.445 91.0763 468.445Z" fill="black"/>
<path d="M739.874 96.9582C754.572 96.9582 766.487 82.9398 766.487 65.6473C766.487 48.3548 754.572 34.3364 739.874 34.3364C725.176 34.3364 713.261 48.3548 713.261 65.6473C713.261 82.9398 725.176 96.9582 739.874 96.9582Z" fill="black"/>
<path d="M739.874 207.27C754.572 207.27 766.487 193.251 766.487 175.959C766.487 158.666 754.572 144.648 739.874 144.648C725.176 144.648 713.261 158.666 713.261 175.959C713.261 193.251 725.176 207.27 739.874 207.27Z" fill="black"/>
<path d="M739.874 317.614C754.55 317.614 766.487 303.537 766.487 286.303C766.487 269.036 754.55 254.959 739.874 254.959C725.198 254.959 713.261 269.036 713.261 286.303C713.261 303.537 725.198 317.614 739.874 317.614Z" fill="black"/>
<path d="M785.748 448.119H694.029C690.87 448.119 688.326 451.112 688.326 454.796V504.492C688.326 508.176 690.87 511.168 694.029 511.168H785.748C788.879 511.168 791.451 508.176 791.451 504.492V454.796C791.451 451.112 788.879 448.119 785.748 448.119Z" fill="black"/>
<path d="M62.0311 565.305C62.0311 572.31 66.8671 578 72.8211 578H197.694C203.649 578 208.486 572.31 208.486 565.305V555.339H62.0311V565.305Z" fill="black"/>
<path d="M619.474 565.305C619.474 572.31 624.31 578 630.264 578H755.166C761.091 578 765.956 572.31 765.956 565.305V555.339H619.474V565.305Z" fill="black"/>
</svg>
