<svg width="807" height="605" viewBox="0 0 807 605" fill="none" xmlns="http://www.w3.org/2000/svg">
<path d="M289.887 543.659C390.264 543.728 490.676 543.349 591.053 543.693C591.119 433.185 591.153 322.686 591.119 212.143C591.352 141.473 590.654 70.7671 591.485 0.0969654C406.593 -0.00650574 221.701 -0.0409954 36.8083 0.0624757C23.3383 -0.523846 10.6994 6.85692 4.21394 19.1003C0.854711 26.6881 -0.542179 35.0691 0.189472 43.4155C-0.0433483 174.231 0.222729 305.056 0.0896989 435.836C0.156214 460.945 -0.309427 486.087 0.522074 511.196C1.68618 529.786 16.7192 544.134 34.6797 543.789C119.758 543.306 204.801 543.797 289.887 543.659ZM65.2486 431.191C65.2486 329.309 65.2818 227.427 65.3151 125.545V125.58C64.4171 116.647 65.3484 107.61 68.0424 99.0916C72.2996 89.2619 80.3152 81.7437 90.1605 78.2597C100.139 76.8111 110.25 76.2593 120.327 76.6387H490.078C499.025 76.0869 507.906 78.4321 515.522 83.3297C525.699 90.9174 531.52 103.299 530.954 116.268C530.788 219.703 531.254 323.175 530.988 426.602C531.786 439.19 526.73 451.434 517.384 459.505C506.94 467.3 494.036 470.748 481.264 469.197C357.403 468.886 233.577 469.231 109.717 468.955L109.683 468.99C99.9385 469.611 90.1928 467.403 81.5787 462.644C71.4013 455.642 65.2818 443.848 65.2486 431.191Z" fill="black"/>
<path d="M806.981 36.5984C806.715 16.5257 791.049 0.315059 771.692 0.108453C717.379 0.14294 663.064 0.0394714 608.716 0.142934C609.381 68.5704 608.849 136.998 609.049 205.425C608.816 318.105 609.381 430.777 608.749 543.422C663.728 543.87 718.74 543.697 773.718 543.525H773.685C782.831 543.249 791.478 539.179 797.731 532.247C803.984 525.315 807.31 516.072 806.977 506.588L806.981 36.5984ZM731.781 235.435C727.091 230.745 724.962 223.916 726.16 217.294C727.357 210.637 731.681 205.05 737.668 202.429C743.588 199.773 750.406 200.532 755.695 204.395C760.95 208.292 763.877 214.707 763.411 221.398C763.112 228.986 758.622 235.746 751.87 238.746C745.085 241.747 737.302 240.436 731.781 235.435ZM670.516 271.546C677.168 273.064 682.789 277.582 685.783 283.893C686.647 289.308 686.647 294.827 685.783 300.242C683.454 304.208 680.295 307.519 676.469 309.968C671.713 312.383 666.192 312.693 661.17 310.83C656.148 308.968 652.09 305.071 649.895 300.035C647.168 293.275 648.099 285.515 652.356 279.651C656.58 273.823 663.498 270.719 670.516 271.546ZM662.068 201.429C668.753 199.429 675.971 201.291 680.993 206.327C685.982 211.362 688.011 218.778 686.281 225.779C684.585 232.711 679.43 238.16 672.778 240.092C666.126 242.058 658.976 240.161 654.02 235.194C649.064 230.193 647.036 222.847 648.665 215.914C650.328 208.948 655.45 203.429 662.068 201.429ZM693.898 463.483C675.838 458.379 661.403 444.238 655.483 425.786C651.259 411.473 653.055 395.953 660.405 383.054C667.756 370.155 679.996 361.05 694.13 357.945C694.496 393.125 695.062 428.34 693.898 463.483ZM663.665 143.905C658.775 144.008 655.716 139.559 652.622 136.386C651.99 122.142 652.323 107.897 652.356 93.6884C652.157 89.9291 653.487 86.2386 656.048 83.5832C658.609 80.893 662.168 79.5134 665.793 79.7204C692.999 79.5479 720.205 79.479 747.445 79.7549C751.037 79.5824 754.529 80.962 757.057 83.6177C759.585 86.239 760.949 89.8603 760.782 93.5852C760.782 106.554 760.849 119.556 760.682 132.524C760.483 135.87 758.986 138.974 756.525 141.147C754.064 143.285 750.871 144.32 747.644 143.975C719.639 143.975 691.636 144.146 663.665 143.905ZM746.515 443.997C739.264 453.102 729.519 459.689 718.543 462.863C718.344 427.856 718.31 392.883 718.41 357.908C735.938 361.874 750.174 375.084 755.927 392.708C761.647 410.332 758.09 429.787 746.515 443.997ZM763.511 294.242C762.812 301.796 757.99 308.245 751.138 310.832C744.254 313.419 736.571 311.728 731.316 306.452C726.726 301.589 724.73 294.725 725.961 288.034C727.225 281.378 731.582 275.756 737.635 273.101C743.921 270.548 751.072 271.652 756.393 275.998C761.715 280.343 764.409 287.275 763.511 294.242Z" fill="black"/>
<path d="M265.314 166.69C264.382 179.279 275.158 187.073 281.345 196.282C284.87 204.801 275.99 210.389 271.832 216.355C268.839 219.149 267.11 223.115 267.01 227.288C266.91 231.462 268.473 235.497 271.333 238.463C274.427 240.912 278.385 241.843 282.209 241.084C286.034 240.291 289.36 237.877 291.355 234.393C298.539 223.425 309.116 212.872 308.817 198.696C308.518 186.142 297.974 178.555 291.589 169.208C287.731 162.758 295.114 157.413 298.54 152.791V152.825C308.518 143.237 310.879 127.82 304.261 115.472C302.964 111.334 300.103 107.885 296.312 106.022C292.487 104.16 288.13 103.987 284.205 105.574C279.548 108.092 277.32 113.714 278.95 118.887C280.247 124.44 284.704 130.648 280.014 135.822C271.466 143.754 266.212 154.825 265.314 166.69Z" fill="black"/>
<path d="M203.882 189.39C203.283 198.254 210.567 204.29 213.094 212.084C212.529 218.913 204.779 223.121 205.644 230.364C205.445 240.09 217.684 244.366 224.901 240.021L224.935 240.09C236.908 233.744 242.762 219.431 238.837 206.118C235.478 198.875 228.593 191.184 232.917 182.699C238.006 172.077 246.022 161.178 242.761 148.52C242.395 143.554 239.768 139.105 235.677 136.483C231.586 133.896 226.564 133.483 222.141 135.379C213.726 139.76 218.216 150.279 217.285 157.798C212.495 168.145 203.017 176.94 203.882 189.39Z" fill="black"/>
<path d="M333.064 223.357C331.268 226.323 330.802 229.944 331.833 233.29C332.864 236.635 335.292 239.325 338.418 240.671C344.671 242.774 351.556 240.636 355.613 235.256C362.931 229.22 366.689 219.701 365.525 210.112C364.261 201.249 354.65 194.661 356.878 185.211C361.534 173.933 371.18 163.621 368.219 150.308H368.252C368.319 145.134 365.924 140.271 361.867 137.305C357.776 134.304 352.52 133.649 347.864 135.477C336.756 140.754 347.199 154.205 340.481 162.068H340.514C334.361 168.966 330.602 177.76 329.771 187.107C328.74 196.005 335.093 202.627 338.718 209.939C339.982 215.319 335.192 219.011 333.064 223.357Z" fill="black"/>
<path d="M162.135 287.44C161.57 333.656 184.751 376.696 223 400.465C265.407 401.81 308.112 400.568 350.615 401.154L350.649 401.12C364.185 392.946 376.225 382.358 386.203 369.803C399.275 371.045 412.445 370.527 425.384 368.251C436.459 364.802 445.772 356.835 451.193 346.212C456.581 335.555 457.645 323.104 454.12 311.653C447.335 293.926 430.372 282.682 412.013 283.751C412.845 276.818 410.882 269.817 406.625 264.402C401.004 259.677 393.72 257.711 386.602 259.022C317.654 259.263 248.676 258.953 179.726 259.091C174.105 258.677 168.65 261.022 164.958 265.471C160.534 271.817 162.534 280.129 162.135 287.44ZM409.583 312.376C415.47 312.41 422.721 311.031 426.878 316.584C429.772 319.964 431.102 324.551 430.503 329.035C429.871 333.553 427.377 337.554 423.652 339.934C417.1 345.418 408.252 343.452 400.503 343.728C404.427 333.588 407.455 323.068 409.583 312.376ZM245.645 380.493C225.523 373.215 208.86 358.213 199.081 338.553C194.957 331.172 188.771 319.342 198.216 313.444H198.25C200.279 311.996 202.84 311.651 205.201 312.444C207.529 313.237 209.358 315.134 210.19 317.549C216.077 334.138 227.252 348.21 241.854 357.384C246.942 360.316 253.76 361.799 256.322 367.834C257.419 371.111 256.754 374.767 254.525 377.388C252.33 380.009 248.938 381.183 245.645 380.493ZM189.536 283.608C192.729 282.229 196.188 281.711 199.614 282.091C259.05 282.263 318.519 282.332 377.95 282.298C382.341 281.608 387.795 284.677 387.33 289.851C388.028 295.266 382.474 298.266 377.95 297.852C321.475 298.025 264.997 298.025 208.495 297.887C202.608 298.163 196.721 297.956 190.867 297.197C185.047 295.99 184.747 286.367 189.536 283.608Z" fill="black"/>
<path d="M181.897 441.715C254.637 441.853 327.41 441.784 400.149 441.922H400.116C409.462 441.37 418.043 436.3 423.231 428.23C424.994 424.988 425.127 421.021 423.597 417.642C422.067 414.227 419.04 411.813 415.482 411.158C411.158 409.743 407.732 413.744 404.24 415.641C329.438 416.158 254.64 416.227 179.806 415.917C173.254 416.159 167.5 408.398 160.881 412.123C157.688 413.882 155.46 417.124 154.928 420.884C154.362 424.609 155.526 428.402 158.087 431.092C164.373 437.714 172.917 441.509 181.897 441.715Z" fill="black"/>
<path d="M41.0069 561.221C40.6411 569.912 42.2708 578.534 45.6966 586.467C49.6544 593.745 57.238 598.056 65.2867 597.573C89.3998 597.366 113.547 598.021 137.66 597.262C154.656 594.331 157.849 574.637 164.334 561.221C123.192 561.324 82.1132 561.565 41.0069 561.221Z" fill="black"/>
<path d="M668.484 597.368C692.564 598.058 716.678 597.265 740.757 597.713C748.906 598.403 756.656 593.884 760.314 586.296C763.008 578.26 764.272 569.741 764.039 561.257C723.263 561.223 682.453 561.223 641.678 561.223C648.263 574.536 651.655 594.367 668.484 597.368Z" fill="black"/>
<path d="M0.828729 594.984C2.09262 605.848 15.5963 606.987 22.7135 601.434C23.412 598.329 26.2391 595.191 25.075 591.949C22.1814 579.464 0.13054 581.464 0.828729 594.984Z" fill="black"/>
<path d="M621.756 585.016C477.342 584.809 332.927 585.085 188.513 585.016C183.657 584.981 177.437 584.947 174.61 589.844C171.65 593.535 173.945 598.363 175.708 602.019C180.564 603.744 185.653 604.537 190.741 604.364C334.56 604.33 478.37 604.295 622.222 604.295C627.444 604.606 632.1 600.915 633.165 595.604C632.367 589.672 627.543 585.222 621.756 585.016Z" fill="black"/>
<path d="M797.598 583.912C792.775 584.464 786.988 582.912 783.263 587.016C781.167 589.12 780.103 592.12 780.402 595.121C780.668 598.156 782.231 600.881 784.659 602.571C788.285 604.295 792.276 605.123 796.267 604.985C799.76 601.985 804.516 598.88 804.283 593.5H804.316C803.119 589.637 800.757 586.291 797.598 583.912Z" fill="black"/>
</svg>
