<svg width="550" height="817" viewBox="0 0 550 817" fill="none" xmlns="http://www.w3.org/2000/svg">
<path d="M549.101 17.0333C548.979 12.4202 544.864 8.58761 539.568 8.23278C466.883 2.76794 384.056 0 293.367 0C139.076 0 13.6343 8.16183 12.4036 8.23278C7.14781 8.58764 2.99218 12.2782 2.78838 16.8914C-15.3421 365.861 60.846 785.735 61.6199 789.959C62.2718 793.579 65.3682 796.489 69.4016 797.34C129.823 810.399 195.657 817 265.048 817C383.032 817 469.33 798.157 472.96 797.34C476.586 796.56 479.437 794.111 480.415 790.953C562.633 532.719 549.265 22.1388 549.101 17.0333ZM461.913 780.835C440.604 785.022 363.153 798.72 265.004 798.72C199.858 798.72 138.05 792.759 81.0921 781.048C71.9658 729.061 7.79729 348.475 23.1565 25.7226C54.772 23.8774 163.753 18.1285 293.315 18.1285C379.566 18.1285 458.568 20.648 528.397 25.5806C529.782 91.6554 535.941 541.687 461.913 780.835Z" fill="black"/>
<path d="M398.93 89.499C335.861 124.063 310.519 131.267 239.466 120.088C198.682 113.701 163.237 124.169 142.703 132.756C148.652 135.382 154.559 138.612 160.304 142.621L168.411 148.299C211.191 178.391 239.466 198.263 272.304 190.385C324.25 177.93 359.288 184.211 384.875 188.824C420.606 195.211 450.633 193.792 471.085 148.867C471.085 148.867 481.474 222.181 380.637 206.603C355.703 202.735 324.943 196.596 277.804 207.881C234.658 218.242 201.371 194.822 155.251 162.387L147.184 156.71C111.861 131.975 67.5331 144.36 52.1728 149.896C51.1542 419.096 98.0074 664.73 106.034 704.792C286.401 744.749 416.859 711.676 440.608 704.792C495.774 596.061 499.318 137.16 499.562 77.8931C484.242 73.5992 442.606 65.546 398.93 89.499Z" fill="black"/>
</svg>
