<svg width="840" height="788" viewBox="0 0 840 788" fill="none" xmlns="http://www.w3.org/2000/svg">
<path fill-rule="evenodd" clip-rule="evenodd" d="M674.103 684.025V124.415C674.103 92.8283 699.177 66.8359 729.727 66.8359C760.242 66.8359 785.352 92.792 785.352 124.415V684.063H674.032L674.103 684.025Z" fill="black"/>
<path fill-rule="evenodd" clip-rule="evenodd" d="M55.1581 684.025V124.415C55.1581 92.8283 80.2331 66.8359 110.783 66.8359C141.298 66.8359 165.94 92.792 165.94 124.415V684.063H55.1553L55.1581 684.025Z" fill="black"/>
<path fill-rule="evenodd" clip-rule="evenodd" d="M12.8253 788C5.90814 788 0 782.369 0 774.724V710.469C0 703.309 5.90833 697.193 12.8253 697.193H827.746C834.663 697.193 839.994 703.309 839.994 710.469V774.724C839.994 782.369 834.554 788 827.746 788H12.8253Z" fill="black"/>
<path fill-rule="evenodd" clip-rule="evenodd" d="M421.009 668.177C294.011 668.177 191.084 518.301 191.084 334.332C191.084 150.363 293.9 0 421.009 0C548.119 0 651.47 149.877 651.47 334.332C651.47 518.787 548.072 668.177 421.009 668.177ZM358.468 333.368C359.945 333.368 361.422 332.883 362.899 331.354L418.524 273.775C421.009 271.202 421.009 267.174 418.524 264.601C416.038 262.028 412.147 262.028 409.661 264.601L354.036 322.739C351.55 325.313 351.55 329.34 354.036 331.429C355.045 332.958 356.522 333.442 358.468 333.442V333.368ZM364.376 405.193C365.853 405.193 367.33 404.708 368.807 403.664L487.985 279.85C490.471 277.277 490.471 273.249 487.985 271.161C485.499 268.588 481.608 268.588 479.59 271.161L359.979 394.526C357.494 397.099 357.494 401.127 359.979 403.7C360.988 404.744 362.934 405.229 364.411 405.229L364.376 405.193ZM421.01 599.376C428.395 599.376 435.312 598.332 442.698 596.803C487.516 587.629 522.029 549.926 544.149 510.695C573.186 458.187 586.48 394.49 586.48 334.374C586.48 274.221 573.186 209.968 544.149 158.052C522.029 118.335 487.516 80.6327 442.698 71.3847C435.313 69.8556 428.395 68.8115 421.01 68.8115C413.624 68.8115 406.707 69.8557 399.321 71.3847C354.504 80.5586 319.99 118.262 297.87 158.052C268.833 210.075 255.539 273.77 255.539 334.374C255.539 395.012 268.833 458.187 297.87 510.695C319.99 550.412 354.504 587.63 399.321 596.803C406.707 598.332 413.624 599.376 421.01 599.376ZM421.01 81.5342C426.918 81.5342 432.826 82.5785 438.735 83.5481C482.543 91.6778 515.003 128.411 535.759 166.598C562.311 216.533 574.128 277.132 574.128 334.232C574.128 391.332 562.312 451.477 535.759 501.417C515.116 539.605 482.548 576.375 438.735 584.467C432.827 585.996 426.919 586.481 421.01 586.481C415.101 586.481 409.193 585.996 403.284 584.467C359.476 576.338 327.016 539.605 306.26 501.417C279.708 451.482 268.36 390.883 268.36 334.232C268.36 277.622 279.708 216.538 306.26 166.598C326.904 128.411 359.471 91.64 403.284 83.5481C409.193 82.5038 415.101 81.5342 421.01 81.5342Z" fill="black"/>
<path fill-rule="evenodd" clip-rule="evenodd" d="M41.868 376.625C19.7479 376.14 2.02257 357.233 2.02257 334.335C2.02257 311.437 19.7479 292.045 41.868 291.56V376.736V376.625Z" fill="black"/>
<path fill-rule="evenodd" clip-rule="evenodd" d="M204.384 318.112H153.658C146.272 318.112 140.833 311.996 140.833 304.836C140.833 297.191 146.273 291.56 153.658 291.56H204.384C211.769 291.56 217.209 297.191 217.209 304.836C217.209 311.996 211.3 318.112 204.384 318.112Z" fill="black"/>
<path fill-rule="evenodd" clip-rule="evenodd" d="M204.384 376.625H153.658C146.272 376.625 140.833 370.994 140.833 363.349C140.833 356.189 146.273 350.67 153.658 350.67H204.384C211.769 350.67 217.209 356.301 217.209 363.349C217.209 370.994 211.3 376.625 204.384 376.625Z" fill="black"/>
<path fill-rule="evenodd" clip-rule="evenodd" d="M686.922 318.112H637.674C630.757 318.112 624.849 311.996 624.849 304.836C624.849 297.191 630.757 291.56 637.674 291.56H686.922C693.839 291.56 699.747 297.191 699.747 304.836C699.747 311.996 693.839 318.112 686.922 318.112Z" fill="black"/>
<path fill-rule="evenodd" clip-rule="evenodd" d="M686.922 376.625H637.674C630.757 376.625 624.849 370.994 624.849 363.349C624.849 356.189 630.757 350.67 637.674 350.67H686.922C693.839 350.67 699.747 356.301 699.747 363.349C699.747 370.994 693.839 376.625 686.922 376.625Z" fill="black"/>
<path fill-rule="evenodd" clip-rule="evenodd" d="M799.146 376.625H798.137V291.448H799.146C821.842 291.448 840 310.356 840 334.223C840 358.09 821.734 376.513 799.146 376.513V376.625Z" fill="black"/>
</svg>
