<svg width="691" height="814" viewBox="0 0 691 814" fill="none" xmlns="http://www.w3.org/2000/svg">
<path d="M633.353 96.9047H624.513V658.952C624.479 682.072 615.357 704.235 599.148 720.584C582.939 736.932 560.965 746.132 538.042 746.167H56.8788V755.857C56.8911 771.274 62.9686 786.055 73.7769 796.957C84.5852 807.858 99.2409 813.988 114.526 814H633.353C648.628 813.955 663.265 807.814 674.066 796.92C684.867 786.026 690.955 771.264 691 755.857V155.048C690.955 139.641 684.867 124.879 674.066 113.984C663.265 103.09 648.628 96.9501 633.353 96.9047Z" fill="black"/>
<path d="M120.099 135.667V1.59935C107.929 4.45407 97.0152 11.2354 89.0137 20.914L13.3515 112.481C6.74891 120.52 2.41261 130.202 0.797452 140.512H115.295C116.564 140.497 117.777 139.982 118.675 139.076C119.573 138.171 120.084 136.947 120.099 135.667Z" fill="black"/>
<path d="M344.027 343.255C343.51 337.122 341.09 331.308 337.112 326.64C333.134 321.972 327.799 318.686 321.865 317.25V369.277C327.8 367.836 333.134 364.546 337.112 359.876C341.09 355.205 343.509 349.39 344.027 343.255Z" fill="black"/>
<path d="M0 658.952C0.0166831 674.368 6.09559 689.147 16.903 700.047C27.7103 710.947 42.3635 717.078 57.6474 717.095H538.042C553.326 717.078 567.979 710.947 578.787 700.047C589.594 689.147 595.673 674.368 595.69 658.952V58.1429C595.673 42.7276 589.594 27.9485 578.787 17.0482C567.979 6.14798 553.326 0.0168265 538.042 0H148.922V135.667C148.912 144.659 145.365 153.279 139.061 159.637C132.757 165.996 124.21 169.572 115.295 169.583H0V658.952ZM307.453 101.75C346.408 101.75 384.489 113.401 416.879 135.229C449.269 157.058 474.514 188.083 489.422 224.383C504.329 260.682 508.23 300.625 500.63 339.16C493.03 377.696 474.271 413.093 446.726 440.875C419.18 468.657 384.085 487.577 345.878 495.242C307.671 502.908 268.069 498.974 232.079 483.938C196.089 468.902 165.327 443.44 143.685 410.771C122.042 378.103 110.491 339.695 110.491 300.405C110.548 247.736 131.318 197.241 168.243 159.999C205.168 122.756 255.233 101.808 307.453 101.75ZM115.295 537.821H480.395C484.217 537.821 487.883 539.353 490.586 542.079C493.288 544.805 494.807 548.502 494.807 552.357C494.807 556.212 493.288 559.91 490.586 562.635C487.883 565.361 484.217 566.893 480.395 566.893H115.295C111.473 566.893 107.807 565.361 105.104 562.635C102.401 559.91 100.883 556.212 100.883 552.357C100.883 548.502 102.401 544.805 105.104 542.079C107.807 539.353 111.473 537.821 115.295 537.821ZM115.295 605.655H480.395C484.217 605.655 487.883 607.186 490.586 609.912C493.288 612.638 494.807 616.335 494.807 620.19C494.807 624.046 493.288 627.743 490.586 630.469C487.883 633.195 484.217 634.726 480.395 634.726H115.295C111.473 634.726 107.807 633.195 105.104 630.469C102.401 627.743 100.883 624.046 100.883 620.19C100.883 616.335 102.401 612.638 105.104 609.912C107.807 607.186 111.473 605.655 115.295 605.655Z" fill="black"/>
<path d="M293.041 231.533C287.106 232.974 281.771 236.263 277.793 240.934C273.815 245.604 271.396 251.42 270.879 257.555C271.396 263.688 273.815 269.501 277.793 274.169C281.771 278.838 287.106 282.123 293.041 283.56V231.533Z" fill="black"/>
<path d="M307.453 469.988C340.707 469.988 373.215 460.042 400.865 441.408C428.516 422.774 450.066 396.289 462.792 365.301C475.518 334.314 478.848 300.217 472.36 267.321C465.873 234.425 449.859 204.208 426.344 180.491C402.83 156.775 372.87 140.623 340.255 134.08C307.639 127.536 273.832 130.895 243.109 143.73C212.386 156.566 186.126 178.301 167.651 206.189C149.176 234.077 139.315 266.864 139.315 300.405C139.364 345.366 157.094 388.471 188.615 420.263C220.137 452.056 262.875 469.938 307.453 469.988ZM242.055 257.555C242.834 243.728 248.34 230.601 257.636 220.41C266.933 210.218 279.445 203.591 293.041 201.659V186.125C293.041 182.27 294.559 178.572 297.262 175.846C299.965 173.12 303.63 171.589 307.453 171.589C311.275 171.589 314.941 173.12 317.643 175.846C320.346 178.572 321.865 182.27 321.865 186.125V201.659C335.461 203.591 347.972 210.218 357.269 220.409C366.565 230.601 372.072 243.727 372.85 257.553C372.85 261.409 371.332 265.106 368.629 267.832C365.926 270.558 362.261 272.089 358.438 272.089C354.616 272.089 350.95 270.558 348.248 267.832C345.545 265.106 344.027 261.409 344.027 257.553C343.509 251.419 341.09 245.604 337.112 240.933C333.134 236.263 327.8 232.974 321.865 231.533V287.378C335.46 289.306 347.971 295.929 357.268 306.117C366.565 316.306 372.072 329.43 372.85 343.255C372.072 357.081 366.566 370.208 357.269 380.4C347.973 390.592 335.461 397.218 321.865 399.151V414.685C321.865 418.54 320.346 422.237 317.643 424.963C314.941 427.689 311.275 429.22 307.453 429.22C303.63 429.22 299.965 427.689 297.262 424.963C294.559 422.237 293.041 418.54 293.041 414.685V399.151C279.445 397.218 266.933 390.592 257.637 380.4C248.34 370.209 242.834 357.082 242.055 343.256C242.055 339.401 243.574 335.704 246.276 332.978C248.979 330.252 252.645 328.72 256.467 328.72C260.289 328.72 263.955 330.252 266.658 332.978C269.361 335.704 270.879 339.401 270.879 343.256C271.396 349.391 273.816 355.206 277.793 359.876C281.771 364.547 287.106 367.836 293.041 369.277V313.431C279.446 311.503 266.934 304.881 257.637 294.692C248.341 284.504 242.834 271.379 242.055 257.555Z" fill="black"/>
</svg>
