<svg width="560" height="828" viewBox="0 0 560 828" fill="none" xmlns="http://www.w3.org/2000/svg">
<path d="M0 118.286C0 146.911 28.266 176.541 77.532 198.986C64.364 185.525 56.6465 167.2 56 147.857C56 81.5284 154.392 29.5714 280 29.5714C409.528 29.5714 490 63.5786 490 118.286C490 170.509 415.156 207 308 207C240.408 207 126 194.536 126 147.857C126 101.179 240.408 88.7143 308 88.7143C311.713 88.7143 315.274 90.2721 317.899 93.0449C320.525 95.8178 322 99.5786 322 103.5C322 107.421 320.525 111.182 317.899 113.955C315.274 116.728 311.713 118.286 308 118.286C217.476 118.286 162.316 136.709 154.434 147.857C162.316 159.006 217.434 177.429 308 177.429C403.116 177.429 462 146.733 462 118.286C462 89.6162 398.202 59.1429 280 59.1429C164.5 59.1429 84 105.895 84 147.857C84 189.819 164.5 236.571 280 236.571C447.496 236.571 560 175.403 560 118.286C560 61.1685 447.496 0 280 0C112.504 0 0 61.1685 0 118.286Z" fill="black"/>
<path d="M560 709.714V180.578C531.686 207.572 497.894 227.359 461.216 238.42C473.387 241.541 484.216 248.882 491.971 259.268C499.727 269.654 503.962 282.487 504 295.714V782.164C519.8 778.733 533.997 769.653 544.198 756.456C554.399 743.258 559.98 726.75 560 709.714Z" fill="black"/>
<path d="M308 561.857C323.464 561.857 336 548.618 336 532.286C336 515.954 323.464 502.714 308 502.714C292.536 502.714 280 515.954 280 532.286C280 548.618 292.536 561.857 308 561.857Z" fill="black"/>
<path d="M107.982 567.564C119.107 555.105 127.69 540.364 133.198 524.257C138.705 508.149 141.021 491.018 140 473.927C137.863 437.976 122.941 404.206 98.2253 379.384C73.5093 354.561 40.8245 340.519 6.71999 340.071C4.50799 340.071 2.226 340.471 0 340.604V604.085C7.02422 605.424 14.1427 606.136 21.28 606.214C37.4678 606.387 53.5166 603.046 68.4311 596.398C83.3455 589.749 96.8075 579.935 107.982 567.564Z" fill="black"/>
<path d="M0 646.136C46.368 724.13 148.05 768.857 280 768.857H336.994C340.047 746.753 349.775 726.281 364.731 710.486C379.686 694.691 399.071 684.417 420 681.193V412.95C399.071 409.726 379.686 399.452 364.731 383.657C349.775 367.862 340.047 347.39 336.994 325.286H280C197.232 325.286 84.826 311.757 0 251.135V310.766C2.24 310.663 4.47999 310.5 6.71999 310.5C47.9766 311.022 87.5223 327.991 117.432 358.008C147.341 388.025 165.404 428.87 168 472.359C169.257 493.45 166.385 514.588 159.562 534.454C152.739 554.321 142.112 572.488 128.345 587.823C114.577 603.159 97.9644 615.332 79.5435 623.584C61.1225 631.837 41.2887 635.99 21.28 635.786C14.159 635.753 7.04866 635.2 0 634.13V646.136ZM308 473.143C319.076 473.143 329.903 476.612 339.112 483.11C348.321 489.609 355.499 498.846 359.737 509.653C363.976 520.46 365.085 532.351 362.924 543.824C360.763 555.297 355.43 565.835 347.598 574.106C339.766 582.377 329.788 588.01 318.925 590.292C308.062 592.574 296.802 591.403 286.57 586.927C276.337 582.45 267.591 574.87 261.438 565.144C255.284 555.418 252 543.983 252 532.286C252 516.6 257.9 501.557 268.402 490.465C278.904 479.374 293.148 473.143 308 473.143Z" fill="black"/>
<path d="M280 828H448C455.426 828 462.548 824.885 467.799 819.339C473.05 813.793 476 806.271 476 798.429V295.714C476 287.871 473.05 280.35 467.799 274.804C462.548 269.258 455.426 266.143 448 266.143H280C154 266.143 48.146 231.485 0 180.578V214.585C79.982 281.372 196 295.714 280 295.714H350C353.713 295.714 357.274 297.272 359.899 300.045C362.525 302.818 364 306.579 364 310.5C364.022 330.1 371.404 348.89 384.527 362.75C397.65 376.609 415.442 384.405 434 384.429C437.713 384.429 441.274 385.986 443.899 388.759C446.525 391.532 448 395.293 448 399.214V694.929C448 698.85 446.525 702.611 443.899 705.384C441.274 708.157 437.713 709.714 434 709.714C415.442 709.738 397.65 717.534 384.527 731.393C371.404 745.253 364.022 764.043 364 783.643C364 787.564 362.525 791.325 359.899 794.098C357.274 796.871 353.713 798.429 350 798.429H280C157.08 798.429 57.89 760.991 0 694.5V709.714C0 766.832 112.504 828 280 828Z" fill="black"/>
</svg>
