<svg width="744" height="825" viewBox="0 0 744 825" fill="none" xmlns="http://www.w3.org/2000/svg">
<path fill-rule="evenodd" clip-rule="evenodd" d="M410.936 713.729L403.513 753.053L596.279 782.24L603.702 742.916L410.936 713.729ZM576.168 799.895L575.827 825L406.843 799.487L415.402 775.606L576.087 799.929L576.168 799.895ZM644.488 438.352C644.98 440.019 645.397 441.686 645.737 443.387C648.691 457.538 647.025 472.166 641.004 485.534C638.656 490.603 635.626 495.365 631.915 499.753C631.498 500.23 631.043 500.672 630.551 501.08C617.562 511.32 605.291 522.239 593.778 533.805C589.347 538.057 585.901 543.024 583.591 548.467C583.401 548.909 583.401 549.419 583.591 549.861C583.931 550.406 584.386 550.848 584.992 551.188C585.636 551.596 586.393 551.868 587.188 551.936C587.794 551.97 588.4 551.8 588.892 551.46C589.082 551.324 589.309 551.154 589.498 551.018L627.597 526.389L627.635 526.423C633.012 520.47 637.14 513.667 639.867 506.387C646.078 493.12 651.001 479.41 654.598 465.396L685.653 331.572C685.766 330.347 685.804 329.259 685.766 328.34L685.804 328.306C683.494 330.517 681.411 332.899 679.669 335.484L644.488 438.352ZM429.375 695.767C430.322 682.433 430.019 669.063 428.466 655.762C426.118 637.256 426.724 618.547 430.208 600.211C430.284 599.837 430.322 599.463 430.36 599.089C432.329 579.494 440.396 560.819 453.688 545.171C468.987 529.522 487.431 516.63 508.071 507.105C508.45 506.901 508.828 506.697 509.169 506.459L512.161 504.622C543.328 486.082 573.967 467.882 598.507 419.985C598.696 419.611 599.037 419.339 599.453 419.203C599.87 419.033 600.324 419.033 600.741 419.203C603.392 420.189 605.891 421.482 608.201 423.047C616.344 429.136 621.721 437.674 623.35 447.063C625.471 457.371 624.297 467.984 619.904 477.645C618.465 480.808 616.609 483.802 614.375 486.591C600.968 497.239 588.281 508.634 576.352 520.677C570.027 526.868 565.142 534.148 561.96 542.074C559.878 547.449 560.218 553.368 562.907 558.504C564.952 562.45 568.171 565.818 572.223 568.267C576.162 570.683 580.782 572.111 585.554 572.452C591.803 572.86 598.014 571.125 602.899 567.587L640.847 543.094C649.86 535.032 656.715 525.167 660.805 514.349C667.584 499.858 672.961 484.89 676.862 469.582L707.954 335.863C712.309 324.774 720.11 315.044 730.411 307.798C732.115 306.641 734.198 305.927 736.319 305.757C737.19 305.825 737.985 306.233 738.478 306.88C742.341 312.595 744.272 319.194 743.969 325.896L724.087 540.482C723.14 551.13 719.996 561.539 714.846 571.166C709.847 580.112 703.674 588.515 696.479 596.169L619.789 679.887V679.853C611.799 687.132 605.247 695.535 600.399 704.754C597.862 709.856 596.006 715.197 594.87 720.674C539.881 711.965 484.472 703.999 429.375 695.767ZM149.131 720.702C204.12 711.994 259.489 704.033 314.625 695.767C313.678 682.433 313.981 669.063 315.534 655.762C317.882 637.256 317.276 618.547 313.792 600.211C313.716 599.837 313.678 599.463 313.64 599.089C311.671 579.494 303.604 560.819 290.312 545.171C275.012 529.522 256.568 516.63 235.929 507.105C235.55 506.901 235.171 506.697 234.83 506.459L231.839 504.622C200.671 486.082 170.033 467.882 145.493 419.985C145.304 419.611 144.963 419.339 144.546 419.203C144.13 419.033 143.675 419.033 143.259 419.203C140.608 420.189 138.108 421.482 135.798 423.047C127.656 429.136 122.278 437.674 120.65 447.063C118.529 457.371 119.703 467.984 124.096 477.645C125.535 480.808 127.391 483.802 129.625 486.591C143.031 497.239 155.718 508.634 167.648 520.677C173.972 526.868 178.857 534.114 182.039 542.04C182.115 542.244 182.191 542.448 182.266 542.652H182.229C184.122 547.891 183.705 553.538 181.092 558.504C179.047 562.45 175.828 565.818 171.776 568.268C167.837 570.683 163.217 572.112 158.445 572.452H158.142C151.969 572.792 145.872 571.057 141.063 567.553L103.116 543.061C94.1022 534.998 87.2855 525.167 83.1952 514.349C76.4162 499.858 71.0386 484.89 67.1383 469.582L36.0464 335.863C31.6912 324.774 23.8898 315.044 13.5889 307.798C11.8847 306.641 9.80183 305.927 7.68095 305.757C6.80991 305.825 6.01457 306.233 5.52226 306.88C1.65938 312.595 -0.272064 319.194 0.0309053 325.896L19.9134 540.482C20.8602 551.13 24.0036 561.539 29.1539 571.166C34.1529 580.112 40.3255 588.515 47.5211 596.169L124.211 679.887V679.853C132.201 687.132 138.753 695.535 143.601 704.754C146.138 709.856 147.995 715.192 149.131 720.702ZM340.491 753.053L147.764 782.24L140.303 742.916L333.069 713.729L340.491 753.053ZM167.91 799.929L168.213 825L337.197 799.487L328.638 775.606L167.91 799.929ZM99.5148 438.351C99.0225 440.018 98.6059 441.685 98.265 443.386C95.311 457.537 96.9774 472.165 102.999 485.533C105.347 490.602 108.377 495.364 112.088 499.753C112.505 500.229 112.959 500.671 113.451 501.079C126.441 511.319 138.712 522.238 150.224 533.804C154.655 538.056 158.102 543.057 160.412 548.534L160.488 548.704C160.601 549.078 160.563 549.52 160.374 549.86C160.071 550.405 159.579 550.881 159.011 551.221C158.329 551.629 157.572 551.867 156.776 551.935C156.17 551.969 155.602 551.799 155.11 551.459C154.921 551.323 154.693 551.153 154.504 551.017L116.406 526.388V526.422C110.99 520.469 106.824 513.666 104.098 506.386C97.8869 493.119 92.964 479.409 89.3662 465.395L58.3121 331.571C58.1985 330.346 58.1606 329.258 58.1985 328.339V328.305C60.5086 330.516 62.5537 332.932 64.2958 335.483L99.5148 438.351ZM450.464 109.265H290.08C282.468 109.265 276.295 114.81 276.295 121.647C276.295 128.485 282.468 133.996 290.08 133.996H450.503C458.077 133.996 464.251 128.485 464.251 121.647C464.251 114.81 458.078 109.265 450.503 109.265H450.464ZM447.51 154.44H293.069L235.543 205.943C234.179 207.168 232.778 208.461 231.377 209.787H231.339C199.603 239.553 181.614 279.081 181.008 320.307C180.705 361.366 198.807 400.793 231.225 429.704C232.475 430.826 233.839 432.017 235.316 433.242C272.164 463.552 320.336 480.356 370.328 480.356C420.28 480.356 468.451 463.552 505.302 433.242C506.779 432.017 508.143 430.826 509.392 429.704C541.81 400.789 559.912 361.362 559.61 320.307C559.004 279.078 541.052 239.584 509.279 209.787C507.84 208.427 506.439 207.134 505.113 205.943L447.51 154.44ZM315.716 88.7179C314.997 88.2757 314.353 87.7655 313.785 87.1871C311.778 85.146 310.755 82.4927 310.945 79.7713C311.134 77.0839 312.497 74.5326 314.732 72.7297C318.898 69.396 322.912 65.9261 326.737 62.3204C316.512 60.4834 306.476 57.8301 296.743 54.4623C285.533 50.5843 274.702 45.9239 264.363 40.4468C265.083 48.8492 267.241 57.1158 270.839 64.9056C275.384 74.7027 283.185 83.0367 293.183 88.7182L315.716 88.7179ZM329.918 88.0376H329.88C329.577 88.2757 329.236 88.5138 328.933 88.7179H447.581C473.106 75.0429 484.012 46.8421 473.409 21.873C459.548 24.0842 445.309 22.9956 432.054 18.7094C418.761 14.3551 406.34 8.02752 395.319 0C389.79 14.2872 382.556 28.031 373.732 40.9571C361.726 58.476 346.957 74.3621 329.84 88.0371L329.918 88.0376ZM398.768 435.22H398.73C431.109 424.47 452.621 396.746 452.658 365.756C452.886 355.245 450.803 344.801 446.561 335.038C441.979 324.799 434.291 315.92 424.406 309.355C417.135 304.627 409.106 300.919 400.623 298.368C392.822 296.02 384.944 294.047 376.916 292.448L374.871 292.006C366.274 290.714 358.018 288.094 350.407 284.284C348.437 282.923 346.998 281.018 346.316 278.875C345.37 275.61 344.915 272.276 345.067 268.942C344.915 262.819 347.528 256.9 352.3 252.512C357.072 248.124 363.624 245.675 370.44 245.675C377.257 245.675 383.809 248.124 388.581 252.512C393.352 256.9 395.966 262.82 395.852 268.942V269.215C395.89 283.196 408.463 294.523 424.028 294.523H424.671C440.199 294.489 452.809 283.195 452.847 269.215V268.942C452.771 237.918 431.26 210.228 398.881 199.478C397.934 186.144 385.664 175.767 370.781 175.733H369.948C355.064 175.767 342.756 186.143 341.81 199.478C309.468 210.228 287.919 237.918 287.881 268.942C287.692 279.42 289.775 289.863 294.054 299.66C298.637 309.866 306.324 318.744 316.17 325.309C323.442 330.038 331.47 333.746 339.991 336.297C347.755 338.678 355.67 340.651 363.661 342.216L365.706 342.658C374.302 343.951 382.596 346.57 390.208 350.38C392.177 351.741 393.616 353.646 394.298 355.823C395.245 359.055 395.661 362.388 395.548 365.722C395.699 371.879 393.086 377.798 388.276 382.152C383.505 386.541 376.99 389.024 370.136 389.024C363.319 389.024 356.805 386.541 351.996 382.152C347.224 377.798 344.611 371.879 344.762 365.722V365.45C344.725 351.468 332.113 340.175 316.587 340.141H315.943C300.378 340.175 287.805 351.469 287.767 365.45V365.756C287.805 396.746 309.354 424.437 341.696 435.186C342.643 448.521 354.951 458.931 369.834 458.931H370.477C385.361 458.931 397.669 448.522 398.577 435.186L398.768 435.22ZM376.007 433.655V427.668H375.969C375.969 422.974 379.529 418.858 384.641 417.735C411.227 411.816 429.898 390.351 429.86 365.756C430.049 357.932 428.572 350.142 425.467 342.828C422.399 336.059 417.325 330.174 410.773 325.82C405.395 322.316 399.412 319.56 393.125 317.689C386.081 315.614 378.924 313.845 371.691 312.417L369.646 312.008V311.974C357.944 310.205 346.733 306.361 336.66 300.748C330.828 296.836 326.548 291.326 324.504 285.066C322.762 279.827 321.966 274.418 322.08 268.975C322.08 245.061 343.667 225.67 370.29 225.67C396.914 225.67 418.538 245.061 418.538 268.975V269.247C418.538 271.901 420.924 274.044 423.878 274.078H424.522C427.476 274.044 429.862 271.901 429.862 269.247V268.975C429.9 244.618 411.608 223.323 385.364 217.166C379.948 216.282 375.972 212.03 375.972 207.063V201.076C375.972 198.422 373.548 196.279 370.632 196.279H369.95C366.996 196.279 364.61 198.422 364.61 201.076V207.063C364.573 211.791 361.013 215.873 355.938 216.996C329.352 222.915 310.719 244.38 310.757 268.975C310.568 276.799 312.045 284.556 315.15 291.869C318.218 298.673 323.293 304.557 329.844 308.912C335.222 312.415 341.206 315.137 347.492 317.042C354.536 319.117 361.693 320.886 368.927 322.315L370.972 322.723C382.673 324.526 393.884 328.336 403.957 333.949C409.789 337.895 414.069 343.405 416.114 349.665C417.856 354.87 418.651 360.313 418.537 365.756C418.537 389.67 396.95 409.061 370.327 409.061C343.703 409.061 322.117 389.67 322.117 365.756V365.45C322.079 362.796 319.693 360.653 316.739 360.653H316.095C313.141 360.653 310.755 362.796 310.755 365.45V365.756C310.717 390.113 329.009 411.408 355.253 417.565C360.669 418.415 364.645 422.667 364.645 427.633V433.621C364.645 436.274 367.069 438.417 369.985 438.451H370.629C373.583 438.417 375.969 436.274 376.007 433.621L376.007 433.655ZM170.483 155.897C175.217 157.292 180.14 158.244 185.139 158.653C199.871 134.976 225.32 118.24 254.898 112.695C253.61 124.261 257.094 135.827 264.668 145.216C255.958 156.748 243.877 165.967 229.751 171.852C220.245 175.798 210.058 178.213 199.643 179.064C195.78 188.554 194.152 198.692 194.871 208.796C195.136 211.517 194.152 214.272 192.144 216.347C190.137 218.423 187.297 219.715 184.229 219.885C181.162 220.055 178.17 219.103 175.86 217.266C173.587 215.395 172.262 212.81 172.148 210.054C171.353 199.304 172.679 188.521 176.011 178.214C171.77 177.534 167.566 176.615 163.438 175.391C140.374 168.655 121.515 153.517 111.478 133.651C108.827 128.514 111.289 122.425 117.008 120.01C122.688 117.594 129.505 119.84 132.156 124.942C139.541 139.638 153.441 150.863 170.483 155.897ZM216.156 154.774H216.118C223.503 147.529 232.516 141.678 242.514 137.629C236.455 144.297 228.805 149.603 220.132 153.21C218.807 153.754 217.481 154.264 216.118 154.74L216.156 154.774Z" fill="black"/>
</svg>
