<svg width="815" height="806" viewBox="0 0 815 806" fill="none" xmlns="http://www.w3.org/2000/svg">
<path fill-rule="evenodd" clip-rule="evenodd" d="M139.772 568.272C141.606 571.373 142.625 574.887 142.625 578.608V806H482.072C504.281 806 525.879 798.351 543.401 784.501C598.414 740.677 743.687 624.914 791.569 586.67C806.442 574.887 815 556.903 815 537.678C815 520.934 808.48 505.016 797.07 493.44C785.66 481.863 769.971 475.248 753.671 475.248H746.744C735.13 475.248 723.516 477.729 712.921 482.69L549.514 557.936C549.921 561.244 550.125 568.272 550.125 568.272C550.125 592.872 540.549 616.645 523.23 634.009C506.115 651.374 482.684 661.296 458.437 661.296H366.75C355.544 661.296 346.375 651.994 346.375 640.624C346.375 629.255 355.544 619.952 366.75 619.952H458.437C471.885 619.952 484.925 614.578 494.501 604.862C504.077 595.146 509.375 582.123 509.375 568.272C509.375 539.745 486.555 516.592 458.437 516.592H305.625C259.781 516.592 180.93 549.461 139.772 568.272ZM101.875 578.608C101.875 567.239 92.7062 557.936 81.5 557.936H20.375C9.16875 557.936 0 567.239 0 578.608V785.328C0 796.698 9.16875 806 20.375 806H81.5C92.7062 806 101.875 796.698 101.875 785.328V578.608ZM305.625 475.248H458.437C458.437 475.248 460.067 475.248 461.086 475.248C489.204 476.282 514.265 490.132 530.565 511.218C531.38 507.91 533.214 504.603 535.862 501.915C553.385 484.137 570.704 448.582 570.704 413.233C570.704 401.863 579.873 392.561 591.079 392.561C602.285 392.561 611.454 401.863 611.454 413.233C611.454 441.14 603.304 469.254 591.69 492.199L667.689 460.158C670.949 442.587 672.579 424.395 672.579 405.791C672.579 263.568 573.556 146.151 445.601 126.719C494.705 168.063 526.286 219.33 547.884 258.4C553.385 268.322 549.921 280.932 539.937 286.513C530.157 292.095 517.729 288.581 512.227 278.451C491.241 240.002 458.845 187.495 407.704 148.838C356.563 187.495 324.37 240.002 303.18 278.451C297.679 288.374 285.25 291.888 275.47 286.513C265.69 280.932 262.226 268.322 267.524 258.4C289.121 219.123 320.702 167.856 369.806 126.719C241.647 146.358 142.829 263.568 142.829 405.791C142.829 445.067 150.368 482.277 164.019 516.179C207.01 497.781 267.931 475.042 305.829 475.042L305.625 475.248ZM427.875 247.857V227.185C427.875 215.815 418.706 206.513 407.5 206.513C396.294 206.513 387.125 215.815 387.125 227.185V248.89C363.897 253.645 346.375 274.524 346.375 299.537C346.375 328.064 369.195 351.217 397.313 351.217H417.687C420.336 351.217 422.985 352.25 424.819 354.317C426.653 356.385 427.875 358.865 427.875 361.553C427.875 364.24 426.856 366.927 424.819 368.788C422.985 370.648 420.336 371.889 417.687 371.889H366.75C355.544 371.889 346.375 381.191 346.375 392.561C346.375 403.93 355.544 413.233 366.75 413.233H387.125V433.905C387.125 445.274 396.294 454.577 407.5 454.577C418.706 454.577 427.875 445.274 427.875 433.905V412.199C437.655 410.132 446.62 405.377 453.751 398.142C463.328 388.426 468.625 375.403 468.625 361.553C468.625 347.702 463.328 334.679 453.751 324.963C444.175 315.247 431.339 309.873 417.687 309.873H397.313C394.664 309.873 392.015 308.839 390.181 306.772C388.347 304.911 387.125 302.224 387.125 299.537C387.125 296.849 388.144 294.162 390.181 292.302C392.015 290.441 394.664 289.201 397.313 289.201H448.25C459.456 289.201 468.625 279.898 468.625 268.529C468.625 257.159 459.456 247.857 448.25 247.857H427.875ZM239.61 146.564C285.454 106.461 343.93 82.4811 407.5 82.4811C471.07 82.4811 529.75 106.461 575.39 146.564C584.762 134.988 594.339 121.551 600.859 107.908C609.824 89.0962 613.084 69.8712 607.786 53.3337C603.915 41.1372 595.765 29.7676 580.687 20.8787C559.905 8.68223 537.9 9.5091 519.155 15.7107C507.134 19.6384 496.742 25.6332 489 31.0079C471.477 18.8115 439.489 0 407.5 0C375.511 0 343.522 18.8115 326 31.0079C318.257 25.84 307.662 19.6384 295.845 15.7107C276.896 9.5091 254.891 8.68223 234.312 20.8787C219.235 29.7676 211.085 41.1372 207.214 53.3337C201.916 69.8712 205.176 89.0962 214.141 107.908C220.661 121.551 230.237 134.988 239.61 146.564Z" fill="black"/>
</svg>
