<svg width="823" height="751" viewBox="0 0 823 751" fill="none" xmlns="http://www.w3.org/2000/svg">
<path d="M185.533 88.4255L183.531 87.8143L69.741 236.257C53.323 257.677 41.9489 282.021 36.3483 307.727C30.7477 333.433 31.0443 359.934 37.2192 385.528L45.0742 418.074C54.2596 456.172 58.8971 495.08 58.9042 534.105V550.071H142.145C144.999 540.434 149.509 531.28 155.506 522.956L169.058 504.226C183.813 483.888 191.674 459.973 191.646 435.514C191.622 416.285 186.759 397.322 177.439 380.114L166.498 359.957C165.578 358.26 165.098 356.388 165.098 354.49V281.147C165.073 273.588 162.507 266.222 157.754 260.059C153 253.896 146.292 249.24 138.549 246.728V330.043C138.549 333.285 137.151 336.394 134.661 338.686C132.172 340.979 128.796 342.267 125.275 342.267C121.755 342.267 118.378 340.979 115.889 338.686C113.4 336.394 112.001 333.285 112.001 330.043V232.252C112.001 229.334 113.134 226.512 115.197 224.296L193.803 139.868L201.934 124.865C203.745 121.518 204.756 117.852 204.897 114.115C205.038 110.378 204.306 106.656 202.75 103.202C201.195 99.7473 198.853 96.6405 195.882 94.0914C192.911 91.5422 189.38 89.6101 185.528 88.4255H185.533Z" fill="black"/>
<path d="M149.962 224.518C158.946 227.877 167.022 233.009 173.62 239.553L192.955 217.295C198.857 210.687 202.751 202.756 204.243 194.312C205.735 185.867 204.77 177.209 201.448 169.219L149.962 224.518Z" fill="black"/>
<path d="M788.985 672.309H682.791V721.204H788.985V672.309Z" fill="black"/>
<path d="M802.259 574.519H669.524V647.862H802.259V574.519Z" fill="black"/>
<path d="M188.019 262.107C190.333 268.233 191.557 274.662 191.646 281.148L195.944 275.871C199.785 271.406 202.496 266.208 203.88 260.655C205.264 255.103 205.286 249.336 203.945 243.775L188.019 262.107Z" fill="black"/>
<path d="M692.47 550.071H775.711V534.105C775.718 495.078 780.356 456.168 789.542 418.068L797.397 385.522C803.572 359.928 803.869 333.427 798.268 307.721C792.668 282.015 781.294 257.671 764.876 236.251L651.084 87.8112L649.093 88.4224C645.239 89.606 641.705 91.5381 638.732 94.0881C635.758 96.638 633.414 99.7463 631.858 103.203C630.302 106.659 629.57 110.383 629.712 114.122C629.854 117.861 630.867 121.529 632.681 124.877L640.812 139.868L719.417 224.296C721.48 226.512 722.614 229.334 722.614 232.252V330.043C722.614 333.285 721.215 336.394 718.726 338.686C716.237 340.979 712.86 342.267 709.34 342.267C705.819 342.267 702.443 340.979 699.953 338.686C697.464 336.394 696.066 333.285 696.066 330.043V246.728C688.323 249.24 681.615 253.896 676.861 260.059C672.108 266.222 669.542 273.588 669.517 281.148V354.49C669.517 356.388 669.037 358.26 668.117 359.957L657.176 380.114C646.568 399.646 641.756 421.413 643.228 443.209C644.7 465.005 652.403 486.055 665.557 504.226L679.109 522.956C685.106 531.28 689.616 540.434 692.47 550.071Z" fill="black"/>
<path d="M660.995 239.553C667.593 233.009 675.669 227.877 684.653 224.518L633.166 169.217C629.844 177.208 628.88 185.866 630.372 194.311C631.864 202.756 635.759 210.686 641.66 217.295L660.995 239.553Z" fill="black"/>
<path d="M646.596 262.107L630.667 243.772C629.325 249.333 629.347 255.1 630.731 260.652C632.115 266.204 634.827 271.403 638.668 275.868L642.965 281.144C643.056 274.66 644.282 268.232 646.596 262.107Z" fill="black"/>
<path d="M320.763 108.935L324.368 122.238L327.999 108.888C330.918 98.1492 336.95 88.3422 345.451 80.5142C353.951 72.6862 364.6 67.1312 376.262 64.4424L390.759 61.1007L376.323 57.7804C364.648 55.0966 353.985 49.5404 345.475 41.7061C336.964 33.8719 330.927 24.0544 328.009 13.3041L324.388 0L320.773 13.3178C317.854 24.0625 311.821 33.8751 303.316 41.7067C294.811 49.5384 284.156 55.0947 272.488 57.7819L258.017 61.119L272.464 64.4454C284.138 67.1328 294.799 72.6922 303.307 80.5288C311.814 88.3655 317.848 98.1845 320.763 108.935Z" fill="black"/>
<path d="M513.839 526.704L510.227 513.4L506.611 526.718C503.695 537.464 497.661 547.278 489.157 555.111C480.652 562.944 469.995 568.502 458.326 571.189L443.856 574.519L458.303 577.845C469.977 580.533 480.638 586.092 489.145 593.929C497.653 601.765 503.687 611.584 506.601 622.335L510.207 635.638L513.837 622.288C516.757 611.549 522.789 601.742 531.289 593.914C539.79 586.086 550.439 580.531 562.101 577.842L576.598 574.5L562.162 571.18C550.485 568.498 539.821 562.942 531.309 555.108C522.797 547.273 516.758 537.455 513.839 526.704Z" fill="black"/>
<path d="M563.324 317.819C563.324 291.225 554.76 265.228 538.715 243.116C522.671 221.004 499.866 203.769 473.185 193.592C446.504 183.415 417.146 180.752 388.821 185.941C360.497 191.129 334.479 203.935 314.058 222.74C293.638 241.545 279.731 265.504 274.097 291.587C268.463 317.67 271.355 344.706 282.406 369.275C293.458 393.845 312.173 414.845 336.185 429.62C360.197 444.395 388.428 452.281 417.307 452.281C456.02 452.24 493.134 438.061 520.508 412.853C547.882 387.645 563.28 353.468 563.324 317.819ZM470.404 354.503C470.368 365.313 466.439 375.807 459.233 384.341C452.027 392.875 441.95 398.967 430.582 401.662V415.609C430.582 418.851 429.183 421.96 426.694 424.253C424.204 426.545 420.828 427.833 417.307 427.833C413.787 427.833 410.411 426.545 407.921 424.253C405.432 421.96 404.033 418.851 404.033 415.609V401.662C392.665 398.967 382.588 392.875 375.382 384.341C368.176 375.807 364.247 365.313 364.211 354.503C364.211 351.261 365.609 348.151 368.099 345.859C370.588 343.567 373.964 342.279 377.485 342.279C381.005 342.279 384.382 343.567 386.871 345.859C389.361 348.151 390.759 351.261 390.759 354.503C390.774 358.775 392.008 362.968 394.338 366.662C396.667 370.356 400.011 373.422 404.033 375.55V328.319C392.647 325.653 382.551 319.569 375.339 311.029C368.128 302.488 364.213 291.978 364.213 281.16C364.213 270.341 368.128 259.831 375.339 251.291C382.551 242.75 392.647 236.666 404.033 234V220.028C404.033 216.787 405.432 213.677 407.921 211.385C410.411 209.093 413.787 207.805 417.307 207.805C420.828 207.805 424.204 209.093 426.694 211.385C429.183 213.677 430.582 216.787 430.582 220.028V234C441.95 236.695 452.027 242.787 459.233 251.321C466.44 259.855 470.368 270.349 470.404 281.16C470.404 284.402 469.006 287.511 466.516 289.803C464.027 292.096 460.651 293.384 457.13 293.384C453.61 293.384 450.233 292.096 447.744 289.803C445.254 287.511 443.856 284.402 443.856 281.16C443.841 276.888 442.607 272.694 440.277 269C437.947 265.306 434.604 262.241 430.582 260.112V307.343C441.95 310.038 452.027 316.13 459.233 324.664C466.44 333.198 470.368 343.692 470.404 354.503Z" fill="black"/>
<path d="M430.582 375.55C434.614 373.432 437.966 370.369 440.297 366.673C442.629 362.976 443.857 358.777 443.857 354.503C443.857 350.228 442.629 346.029 440.297 342.332C437.966 338.636 434.614 335.573 430.582 333.455V375.55Z" fill="black"/>
<path d="M390.759 281.16C390.774 285.432 392.008 289.625 394.338 293.319C396.667 297.014 400.011 300.079 404.033 302.208V260.112C400.011 262.241 396.667 265.306 394.338 269C392.008 272.694 390.774 276.888 390.759 281.16Z" fill="black"/>
<path d="M151.824 672.309H45.63V721.204H151.824V672.309Z" fill="black"/>
<path d="M165.098 574.519H32.3625V647.862H165.098V574.519Z" fill="black"/>
<path d="M809.726 751H13.2742C9.75366 751 6.37731 749.712 3.88792 747.42C1.39853 745.127 0 742.018 0 738.776C0 735.534 1.39853 732.425 3.88792 730.133C6.37731 727.84 9.75366 726.552 13.2742 726.552H809.726C813.246 726.552 816.623 727.84 819.112 730.133C821.601 732.425 823 735.534 823 738.776C823 742.018 821.601 745.127 819.112 747.42C816.623 749.712 813.246 751 809.726 751Z" fill="black"/>
</svg>
