<svg width="803" height="824" viewBox="0 0 803 824" fill="none" xmlns="http://www.w3.org/2000/svg">
<path d="M430.748 546.416C363.236 546.416 308.313 602.086 308.313 670.511C308.313 738.94 363.237 794.61 430.748 794.61C498.258 794.61 553.181 738.939 553.181 670.511C553.181 602.086 498.258 546.416 430.748 546.416ZM447.224 780.478C492.937 769.473 527.052 727.773 527.052 678.12C527.052 623.564 485.873 578.582 433.368 573.407C435.565 574.419 437.101 576.653 437.101 579.258V599.921C460.14 602.473 477.96 618.685 477.96 638.255C477.96 641.81 475.116 644.692 471.608 644.692C468.101 644.692 465.257 641.81 465.257 638.255C465.257 624.018 449.776 612.435 430.748 612.435C411.721 612.435 396.241 624.018 396.241 638.255C396.241 652.491 411.721 664.074 430.748 664.074C456.781 664.074 477.96 681.431 477.96 702.765C477.96 722.336 460.138 738.549 437.101 741.102V761.763C437.101 765.318 434.257 768.2 430.749 768.2C427.242 768.2 424.398 765.318 424.398 761.763V741.102C401.359 738.551 383.539 722.336 383.539 702.765C383.539 699.21 386.383 696.327 389.89 696.327C393.398 696.327 396.241 699.21 396.241 702.765C396.241 717.005 411.721 728.587 430.748 728.587C449.776 728.587 465.257 717.005 465.257 702.765C465.257 688.53 449.776 676.949 430.748 676.949C404.716 676.949 383.539 659.592 383.539 638.255C383.539 618.683 401.361 602.472 424.398 599.921V579.258C424.398 576.294 426.386 573.823 429.076 573.075C427.142 572.967 425.2 572.9 423.239 572.9C374.252 572.9 333.11 607.477 322.253 653.813C330.225 600.38 375.838 559.291 430.746 559.291C491.251 559.291 540.476 609.185 540.476 670.511C540.478 726.165 499.941 772.399 447.224 780.478Z" fill="black"/>
<path d="M761.974 497.279V493.37C773.93 482.948 780.698 470.89 780.698 457.935V408.698C780.698 368.848 716.752 337.463 634.19 336.219L754.442 214.337C755.632 213.13 756.302 211.491 756.302 209.784C756.302 208.076 755.632 206.439 754.442 205.231L589.701 38.2532C587.22 35.7394 583.198 35.7394 580.721 38.2532L359.139 262.843C354.017 261.058 348.823 259.423 343.559 257.944C360.765 248.035 372.338 229.772 372.338 208.911C372.338 186.132 358.542 166.446 338.677 157.358C367.659 140.661 385.465 114.145 386.509 85.1359C386.543 84.8736 386.559 84.6048 386.559 84.3329L386.562 81.2863C386.603 58.5185 386.654 30.1806 368.362 19.1129C365.973 17.6677 363.259 16.9338 360.301 16.9338C353.294 16.9338 346.058 21.0072 338.397 25.3187C331.166 29.3904 323.688 33.5989 317.614 33.6005C317.046 33.6005 316.492 33.5619 315.969 33.4863C311.768 32.8715 305.557 25.927 300.079 19.8001C291.374 10.065 282.373 0 270.92 0C259.467 0 250.464 10.065 241.758 19.8001C236.279 25.927 230.069 32.8715 225.868 33.4863C225.345 33.5619 224.789 33.6005 224.221 33.6005C218.149 33.6005 210.671 29.392 203.44 25.3203C195.779 21.0072 188.543 16.9338 181.534 16.9338C178.576 16.9338 175.863 17.6677 173.471 19.1129C155.183 30.179 155.234 58.5137 155.275 81.2799L155.278 84.3313C155.278 84.658 155.302 84.9782 155.348 85.292C156.453 114.243 174.248 140.696 203.181 157.358C183.316 166.446 169.521 186.131 169.521 208.91C169.521 229.769 181.093 248.032 198.298 257.941C82.2295 290.568 0 398.624 0 522.509C0 593.46 27.1452 645.24 80.6798 676.411C124.708 702.045 186.936 714.505 270.925 714.505C276.212 714.505 281.414 714.455 286.531 714.355C304.472 777.597 362.064 824 430.15 824C491.178 824 543.766 786.717 566.936 733.448C585.815 737.409 606.823 739.6 629.098 739.6C714.106 739.6 780.698 707.742 780.698 667.075V634.984C794.878 623.916 803 610.796 803 596.599V547.361C803 527.759 787.524 510.206 761.974 497.279ZM767.995 457.936C767.995 478.438 742.417 496.92 704.508 507.701V479.172C680.942 485.457 652.276 489.03 621.967 489.03C564.821 489.03 513.503 476.335 491.234 456.688L490.206 455.781V438.265C513.439 463.793 566.227 481.222 629.101 481.222C691.976 481.222 744.766 463.793 767.998 438.263V457.936H767.995ZM579.095 660.623C600.473 666.059 625.049 669.122 651.402 669.122C678.944 669.122 704.548 665.774 726.583 659.871C701.288 670.694 666.648 677.487 629.1 677.487C611.748 677.487 595.022 676.034 579.547 673.406C579.549 673.123 579.559 672.843 579.559 672.563C579.559 668.544 579.4 664.564 579.095 660.623ZM471.483 489.699C471.483 482.861 474.338 476.249 479.538 470.069C480.022 471.5 480.621 472.907 481.27 474.304C478.772 478.244 477.48 482.273 477.48 486.35C477.48 514.681 540.04 538.619 614.09 538.619C665.586 538.619 712.557 527.189 735.723 509.91C738.557 508.58 741.315 507.212 743.919 505.778C727.111 530.598 672.754 549.349 610.375 549.349C535.089 549.349 471.483 522.033 471.483 489.699ZM425.49 297.013C416.286 290.512 406.654 284.571 396.635 279.239L560.911 112.733C567.917 117.94 576.343 120.751 585.195 120.751C594.054 120.751 602.49 117.935 609.501 112.721L680.962 185.152C675.818 192.259 673.041 200.805 673.041 209.784C673.041 218.762 675.82 227.308 680.962 234.415L576.256 340.545C572.248 341.237 568.328 342.01 564.497 342.853C576.535 316.767 568.231 280.21 541.97 253.594C524.165 235.548 501.381 225.198 479.463 225.198C463.485 225.198 449.639 230.672 439.42 241.026C425.546 255.094 421.156 275.84 425.49 297.013ZM468.413 298.903C473.804 304.363 484.789 302.451 492.407 294.731C505.101 281.861 523.928 280.006 534.365 290.586C539.638 295.93 541.978 303.457 540.954 311.781C540.249 317.523 537.961 323.18 534.393 328.184L541.881 335.775C544.362 338.291 544.362 342.366 541.88 344.879C540.64 346.136 539.014 346.764 537.39 346.764C535.764 346.764 534.138 346.135 532.898 344.878L525.386 337.262C519.196 341.772 512.164 344.123 505.524 344.125C498.992 344.125 492.853 341.881 488.306 337.277C485.824 334.763 485.824 330.688 488.302 328.172C490.783 325.659 494.804 325.657 497.283 328.169C502.674 333.627 513.663 331.718 521.281 323.998C525.236 319.987 527.747 315.083 528.349 310.191C528.877 305.896 527.823 302.167 525.383 299.693C519.987 294.224 508.999 296.125 501.388 303.839C494.222 311.102 485.108 314.863 476.651 314.863C470.119 314.863 463.979 312.618 459.431 308.01C450.257 298.711 450.574 282.846 459.407 270.396L451.915 262.801C449.433 260.286 449.433 256.211 451.915 253.697C454.393 251.183 458.418 251.183 460.895 253.697L468.39 261.293C480.665 252.344 496.315 252.023 505.49 261.325C507.972 263.841 507.972 267.916 505.49 270.43C503.012 272.944 498.987 272.944 496.51 270.43C491.116 264.963 480.127 266.863 472.513 274.577C464.9 282.294 463.02 293.437 468.413 298.903ZM530.457 268.162C515.298 253.259 496.113 244.714 477.823 244.714C465.335 244.714 454.615 248.761 446.827 256.42C442.586 260.59 439.466 265.676 437.489 271.362C439.106 263.249 442.685 255.929 448.404 250.132C456.187 242.245 466.927 238.075 479.465 238.075C498.039 238.075 517.548 247.05 532.991 262.7C559.403 289.473 565.146 327.305 546.123 347.67C545.554 347.845 544.998 348.031 544.435 348.209C561.658 328.348 555.651 292.938 530.457 268.162ZM599.03 422.519C611.886 422.519 622.749 415.486 622.749 407.159C622.749 391.326 638.751 378.924 659.178 378.924C676.739 378.924 691.018 388.093 694.683 400.721H714.924C718.432 400.721 721.275 403.604 721.275 407.159C721.275 410.714 718.432 413.597 714.924 413.597H694.683C691.017 426.227 676.737 435.394 659.178 435.394C655.67 435.394 652.826 432.511 652.826 428.956C652.826 425.401 655.67 422.519 659.178 422.519C672.041 422.519 682.906 415.486 682.906 407.159C682.906 398.832 672.039 391.799 659.178 391.799C646.316 391.799 635.451 398.834 635.451 407.159C635.451 422.992 619.454 435.394 599.03 435.394C581.467 435.394 567.186 426.227 563.522 413.597H543.276C539.768 413.597 536.924 410.714 536.924 407.159C536.924 403.604 539.768 400.721 543.276 400.721H563.522C567.188 388.091 581.469 378.924 599.03 378.924C602.537 378.924 605.381 381.807 605.381 385.362C605.381 388.917 602.537 391.799 599.03 391.799C586.165 391.799 575.298 398.834 575.298 407.159C575.298 415.484 586.167 422.519 599.03 422.519ZM749.272 538.936C749.272 557.935 727.307 575.197 693.922 586.208V556.717C669.295 564.287 638.4 568.64 605.573 568.64C578.638 568.64 552.685 565.752 530.392 560.38C523.85 554.372 516.786 548.938 509.273 544.163C535.913 555.448 571.183 562.224 610.375 562.224C673.249 562.224 726.039 544.796 749.272 519.266V538.936ZM767.995 408.699C767.995 436.926 719.521 461.326 657.117 467.071C708.095 459.539 745.999 438.13 745.999 413.661C745.999 383.147 687.066 357.367 617.307 357.367C555.111 357.367 501.561 377.864 490.671 403.935C496.538 373.729 557.537 349.051 629.1 349.051C704.389 349.053 767.995 376.367 767.995 408.699ZM585.211 51.9088L740.971 209.784L616.015 336.435C614.216 336.506 612.453 336.625 610.673 336.723L732.103 213.628L578.893 58.3125L585.211 51.9088ZM179.981 30.1693C180.258 30.002 180.683 29.8088 181.534 29.8088C185.251 29.8088 191.361 33.2497 197.271 36.5763C205.513 41.2177 214.856 46.4771 224.221 46.4755C225.394 46.4755 226.558 46.3935 227.681 46.2293C236.409 44.9531 243.58 36.9352 251.171 28.4473C257.698 21.1488 265.098 12.875 270.92 12.875C276.743 12.875 284.14 21.1488 290.669 28.4473C298.261 36.9352 305.431 44.9531 314.161 46.2293C315.282 46.3935 316.446 46.4755 317.619 46.4755C326.982 46.4755 336.325 41.2145 344.569 36.5747C350.479 33.2481 356.587 29.8088 360.304 29.8088C361.163 29.8088 361.601 30.0148 361.856 30.1677C373.942 37.4807 373.899 61.7549 373.864 81.2622V82.2391C373.863 82.3002 373.861 82.3598 373.861 82.4209C373.861 111.555 353.242 138.292 320.021 152.298C318.04 152.099 316.03 151.996 313.996 151.996H304.686C331.163 141.116 347.397 122.047 347.397 101.386L347.4 100.536C347.432 85.9036 347.472 67.6919 336.335 61.9738C335.771 61.6825 335.101 61.5425 334.286 61.5425C330.712 61.5425 325.509 64.029 319.995 66.6635C313.003 70.0046 305.079 73.7882 297.329 73.7898C296.376 73.7898 295.436 73.7319 294.531 73.6209C287.463 72.7438 281.419 67.0079 275.012 60.9277C268.885 55.1114 262.546 49.0972 256.898 49.0972C251.246 49.0972 244.909 55.1114 238.778 60.9309C232.376 67.0047 226.33 72.7438 219.264 73.6209C218.359 73.7319 217.417 73.7898 216.465 73.7898C208.711 73.7898 200.788 70.0046 193.794 66.6619C188.284 64.029 183.079 61.5425 179.505 61.5425C178.679 61.5425 178.028 61.6793 177.457 61.9738C172.176 64.6856 169.426 70.2219 167.978 76.838C168.001 58.2368 168.795 36.9368 179.981 30.1693ZM227.867 164.871H313.991C339.161 164.871 359.636 184.626 359.636 208.91C359.636 233.19 339.159 252.945 313.991 252.945H300.534C316.06 248.507 327.349 235.376 327.349 219.908C327.349 200.802 310.134 185.258 288.977 185.258H219.007C201.672 185.258 186.993 195.694 182.25 209.972C182.242 209.618 182.222 209.267 182.222 208.91C182.222 184.627 202.698 164.871 227.867 164.871ZM221.061 265.698C221.293 265.653 221.507 265.573 221.728 265.502C223.746 265.709 225.795 265.819 227.867 265.819H313.991C316.063 265.819 318.108 265.709 320.123 265.503C320.347 265.573 320.563 265.653 320.796 265.7C391.743 279.771 451.244 322.876 488.264 381.366C481.314 389.763 477.502 398.979 477.502 408.698V454.267C465.546 464.688 458.78 476.745 458.78 489.699V523.927C449.511 522.096 439.941 521.127 430.15 521.127C394.398 521.127 361.544 533.926 335.801 555.233C335.801 555.233 397.002 499.98 407.851 429.703C421.743 339.723 327.071 267.029 220.49 289.688C113.911 312.344 36.8388 396.437 14.881 488.609C29.0728 378.533 111.412 287.447 221.061 265.698ZM310.269 582.351L309.269 581.194C299.766 586.538 288.664 589.818 277.165 590.679L275.693 590.789V626.921C275.693 629.583 273.556 631.749 270.93 631.749C268.303 631.749 266.166 629.583 266.166 626.921V590.789L264.694 590.679C230.534 588.133 203.776 564.487 203.776 536.847C203.776 534.185 205.914 532.019 208.54 532.019C211.166 532.019 213.303 534.185 213.303 536.847C213.303 561.34 239.151 581.266 270.923 581.266C302.702 581.266 328.554 561.34 328.554 536.847C328.554 512.351 302.702 492.422 270.923 492.422C233.899 492.422 203.776 468.162 203.776 438.342C203.776 410.7 230.536 387.053 264.694 384.507L266.166 384.398V348.266C266.166 345.604 268.303 343.437 270.93 343.437C273.556 343.437 275.693 345.604 275.693 348.266V384.398L277.165 384.507C311.323 387.058 338.081 410.706 338.081 438.342C338.081 441.004 335.944 443.17 333.318 443.17C330.692 443.17 328.554 441.004 328.554 438.342C328.554 413.848 302.702 393.92 270.923 393.92C239.151 393.92 213.303 413.848 213.303 438.342C213.303 462.837 239.151 482.766 270.923 482.766C307.954 482.766 338.081 507.026 338.081 536.847C338.081 542.9 336.825 548.869 334.345 554.586L335.511 555.485C324.606 564.789 312.797 579.211 310.269 582.351ZM430.15 811.125C354.769 811.125 293.443 748.966 293.443 672.563C293.443 596.159 354.769 534 430.15 534C505.53 534 566.856 596.159 566.856 672.563C566.856 748.966 505.53 811.125 430.15 811.125ZM767.995 667.075C767.995 692.139 729.77 714.184 677.515 722.833V696.739C661.067 699.146 643.161 700.456 624.619 700.456C608.712 700.456 593.182 699.531 578.455 697.706L577.494 697.587C578.099 693.913 578.588 690.198 578.927 686.44C594.57 688.985 611.435 690.364 629.101 690.364C691.976 690.364 744.766 672.934 767.998 647.405V667.075H767.995ZM790.298 596.599C790.298 618.832 760.22 638.695 716.947 648.934V621.397C695.821 626 671.339 628.574 645.65 628.574C618.724 628.574 592.726 625.813 570.462 620.593C568.955 616.423 567.286 612.33 565.435 608.34C567.11 608.58 568.796 608.806 570.497 609.02C593.773 615.926 621.44 619.888 651.402 619.888C714.276 619.888 767.066 602.458 790.299 576.93L790.298 596.599ZM746.61 590.328C769.813 579.523 784.145 564.903 784.145 549.165C784.145 537.465 776.493 526.266 761.976 516.521V511.764C779.673 521.779 790.299 534.152 790.299 547.363C790.297 564.046 773.343 579.381 746.61 590.328Z" fill="black"/>
</svg>
