<svg width="817" height="794" viewBox="0 0 817 794" fill="none" xmlns="http://www.w3.org/2000/svg">
<path d="M813.668 644.153C803.246 617.618 771.578 605.816 743.071 617.839L726.947 624.657C726.872 624.688 726.81 624.738 726.738 624.773L706.304 633.393C735.947 603.025 750.945 561.233 750.945 508.613C750.945 388.237 673.022 283.201 562.917 251.15C578.985 241.356 589.735 223.69 589.735 203.565C589.735 181.504 576.82 162.397 558.138 153.377C585.449 137.057 602.217 111.329 603.214 83.1951C603.246 82.9304 603.262 82.6591 603.262 82.3861L603.265 79.4265C603.304 57.1872 603.353 29.5101 585.789 18.6411C583.463 17.2018 580.824 16.4723 577.947 16.4723C571.194 16.4723 564.275 20.4559 556.949 24.6745C550.11 28.6118 543.039 32.6831 537.352 32.6848C536.829 32.6848 536.318 32.6484 535.838 32.5772C531.964 31.9982 526.101 25.2932 520.929 19.3773C512.6 9.85159 503.988 0 492.944 0C481.902 0 473.289 9.84993 464.959 19.3756C459.788 25.2915 453.925 31.9966 450.052 32.5756C449.57 32.6467 449.06 32.6831 448.535 32.6831C442.849 32.6831 435.777 28.6118 428.94 24.6728C421.616 20.4559 414.697 16.4706 407.942 16.4706C405.065 16.4706 402.426 17.2002 400.098 18.6411C382.539 29.5068 382.587 57.1789 382.627 79.4132L382.63 82.3844C382.63 82.7021 382.652 83.0147 382.694 83.3224C383.739 111.41 400.495 137.087 427.769 153.377C409.086 162.398 396.172 181.504 396.172 203.565C396.172 223.69 406.921 241.353 422.988 251.149C319.768 281.196 244.842 375.384 235.871 486.222H119.115V467.715C119.115 450.248 105.408 436.036 88.559 436.032L30.5526 436.027C13.7054 436.024 0 450.235 0 467.703L0.00159569 727.73C0.00159569 745.199 13.7085 759.411 30.559 759.414L88.5558 759.416C96.6906 759.416 104.355 756.112 110.137 750.117C115.922 744.12 119.107 736.173 119.107 727.737V708.535L319.72 793.484C320.486 793.808 321.304 793.975 322.132 793.975L590.23 794C591.055 794 591.872 793.835 592.636 793.512L780.86 714.061C809.34 702.032 824.056 670.677 813.668 644.153ZM106.343 727.737C106.343 732.637 104.486 737.261 101.112 740.758C97.7406 744.256 93.2807 746.181 88.5574 746.181H70.1432C73.7128 746.178 77.0812 744.664 79.6311 741.923C82.1842 739.177 83.5885 735.544 83.5885 731.694V716.555C77.2344 722.542 68.7996 726.195 59.5558 726.195C39.8331 726.195 23.7885 709.561 23.7885 689.113C23.7885 668.666 39.8331 652.03 59.5558 652.03C68.7996 652.03 77.2344 655.684 83.59 661.673L83.5932 527.448C83.5932 519.459 77.552 512.958 70.1272 512.958L26.2283 512.954C18.8068 512.954 12.7687 519.446 12.7639 527.43V467.705C12.7639 457.536 20.7423 449.262 30.5542 449.262L88.5558 449.267C98.3661 449.269 106.348 457.544 106.348 467.715L106.343 727.737ZM738.179 508.612C738.179 573.584 715.121 618.901 667.688 647.149C627.751 670.932 570.594 682.494 492.947 682.494C484.725 682.494 476.747 682.357 468.979 682.096C469.004 682.056 469.027 682.014 469.051 681.975C658.16 669.471 701.994 541.477 665.401 449.108C628.701 356.465 560.884 322.138 494.264 310.557C427.644 298.977 489.876 267.958 538.717 259.157C538.622 259.139 538.536 259.104 538.447 259.076C538.87 259.041 539.294 259.022 539.712 258.977C539.912 259.038 540.105 259.114 540.311 259.156C654.964 282.417 738.179 387.329 738.179 508.612ZM491.352 481.269C455.12 481.269 425.643 456.808 425.643 426.743C425.643 398.464 451.725 375.151 484.974 372.479V339.121C484.974 335.467 487.832 332.504 491.357 332.504C494.882 332.504 497.739 335.467 497.739 339.121V372.481C530.989 375.154 557.069 398.467 557.069 426.743C557.069 430.398 554.211 433.361 550.686 433.361C547.161 433.361 544.303 430.398 544.303 426.743C544.303 403.976 520.55 385.454 491.352 385.454C462.159 385.454 438.409 403.976 438.409 426.743C438.409 449.512 462.159 468.034 491.352 468.034C527.587 468.034 557.069 492.493 557.069 522.558C557.069 550.835 530.989 574.147 497.739 576.82V610.176C497.739 613.831 494.882 616.794 491.357 616.794C487.832 616.794 484.974 613.831 484.974 610.176V576.82C451.725 574.148 425.643 550.835 425.643 522.558C425.643 518.903 428.501 515.94 432.026 515.94C435.551 515.94 438.409 518.903 438.409 522.558C438.409 545.325 462.159 563.847 491.352 563.847C520.548 563.847 544.303 545.325 544.303 522.558C544.303 499.791 520.55 481.269 491.352 481.269ZM406.638 30.0047C406.863 29.8658 407.216 29.7053 407.939 29.7053C411.386 29.7053 417.156 33.0289 422.737 36.2416C430.614 40.7761 439.538 45.9162 448.533 45.9162C449.665 45.9162 450.786 45.8335 451.87 45.673C460.293 44.414 467.153 36.5692 474.415 28.2627C480.575 21.2169 487.556 13.2331 492.941 13.2331C498.327 13.2331 505.308 21.2186 511.469 28.2627C518.731 36.5692 525.591 44.414 534.014 45.673C535.098 45.8351 536.219 45.9162 537.351 45.9162C546.344 45.9145 555.269 40.7761 563.143 36.2416C568.725 33.0289 574.497 29.7053 577.943 29.7053C578.668 29.7053 579.019 29.8658 579.244 30.0047C590.572 37.0142 590.529 61.5133 590.497 79.4017V80.3446C590.495 80.4058 590.495 80.4654 590.495 80.5266C590.495 108.695 570.999 134.557 539.586 148.134C537.718 147.946 535.822 147.848 533.904 147.848H513.232C538.385 136.819 553.968 116.121 553.968 93.5876C553.968 93.538 553.968 93.4884 553.97 93.4404L553.971 92.6794C553.997 78.2469 554.032 58.4809 544.825 52.8247C544.643 52.7139 544.357 52.5832 543.769 52.5832C540.968 52.5832 536.277 55.2648 531.739 57.8572C525.338 61.5149 518.084 65.6607 510.775 65.6624C509.855 65.6624 508.944 65.5962 508.064 65.4655C501.215 64.4497 495.639 58.1202 489.739 51.4185C484.731 45.7342 479.057 39.2922 474.68 39.2922C470.303 39.2922 464.629 45.7342 459.622 51.4185C453.719 58.1202 448.144 64.4497 441.297 65.4655C440.416 65.5962 439.503 65.6624 438.584 65.6624C431.274 65.6624 424.02 61.5149 417.618 57.8572C413.082 55.2648 408.392 52.5832 405.59 52.5832C405.001 52.5832 404.716 52.7122 404.532 52.8247C397.248 57.2997 395.756 70.6105 395.461 83.1223C395.424 82.2587 395.405 81.3935 395.405 80.525C395.405 80.3744 395.4 80.2255 395.39 80.0766V79.3851C395.359 61.5034 395.315 37.0109 406.638 30.0047ZM452.001 161.081H533.904C557.651 161.081 576.97 180.139 576.97 203.563C576.97 226.987 557.651 246.045 533.904 246.045H519.897C540.982 246.045 558.135 230.229 558.135 210.791C558.135 191.352 540.981 175.537 519.897 175.537H447.175C427.339 175.537 410.987 189.534 409.118 207.378C409.005 206.121 408.936 204.85 408.936 203.563C408.935 180.139 428.254 161.081 452.001 161.081ZM250.489 470.537H290.415L438.929 596.904L289.606 487.434C288.527 486.644 287.241 486.22 285.92 486.22H248.675C249.125 480.949 249.731 475.72 250.489 470.537ZM779.721 700.06C780.707 699.542 781.666 698.993 782.603 698.419C781.665 698.995 780.707 699.544 779.721 700.06ZM786.233 695.956C787.141 695.277 788.028 694.578 788.877 693.845C788.877 693.845 611.145 743.855 589.87 748.837C568.594 753.818 479.236 748.267 380.303 748.835C281.371 749.402 160.098 609.303 119.115 499.455H283.892L447.514 619.408C452.835 624.086 457.011 629.709 459.928 636.125C459.939 636.148 459.942 636.174 459.952 636.198C466.547 650.795 465.163 666.657 456.336 677.597C453.154 681.548 449.178 684.643 444.528 686.794C440.004 688.873 435.077 689.982 429.881 690.099C429.832 690.099 429.785 690.084 429.738 690.084C429.703 690.084 429.666 690.084 429.631 690.084C418.868 690.27 408.129 686.188 399.384 678.595C399.177 678.415 398.957 678.248 398.729 678.095L289.362 605.488C286.394 603.518 282.446 604.416 280.544 607.491C278.644 610.569 279.508 614.661 282.476 616.633L391.508 689.019C402.306 698.268 415.546 703.326 428.935 703.326C429.128 703.326 429.323 703.324 429.517 703.321C429.591 703.324 429.659 703.344 429.733 703.344H573.113C573.938 703.344 574.755 703.178 575.52 702.856L731.761 636.94C731.903 636.879 732.042 636.808 732.179 636.737L747.886 630.096C769.868 620.822 794.076 629.365 801.841 649.138C808.278 665.565 801.36 684.652 786.233 695.956Z" fill="black"/>
<path d="M59.5574 665.264C46.8749 665.264 36.5556 675.963 36.5556 689.113C36.5556 702.262 46.8749 712.961 59.5574 712.961C72.2415 712.961 82.5608 702.262 82.5608 689.113C82.5608 675.961 72.2415 665.264 59.5574 665.264Z" fill="black"/>
</svg>
