<svg width="703" height="816" viewBox="0 0 703 816" fill="none" xmlns="http://www.w3.org/2000/svg">
<path d="M0.000184333 726.213V122.395C0.000184333 89.9342 12.3445 58.8024 34.3175 35.8488C56.2905 12.8952 86.0923 2.64613e-05 117.167 2.64613e-05H585.833C616.908 2.64613e-05 646.71 12.8952 668.683 35.8488C690.656 58.8024 703 89.9342 703 122.395V726.213C703.028 740.004 699.71 753.578 693.356 765.667C687.001 777.755 677.816 787.964 666.66 795.339C655.505 802.715 642.741 807.016 629.563 807.841C616.384 808.666 603.22 805.989 591.301 800.058C581.928 795.162 573.726 789.859 565.134 784.555C548.637 771.536 528.389 764.773 507.722 765.38C487.073 764.901 466.864 771.651 450.311 784.555C421.374 805.66 386.786 816.657 351.5 815.97C316.218 816.629 281.638 805.635 252.69 784.555C236.122 771.679 215.923 764.932 195.278 765.38C174.62 764.837 154.391 771.594 137.866 784.555C129.274 789.859 121.072 795.162 111.699 800.058C99.7797 805.989 86.6159 808.666 73.4373 807.841C60.2587 807.016 47.4954 802.715 36.3395 795.339C25.1837 787.964 15.9994 777.755 9.64447 765.667C3.28958 753.578 -0.028494 740.004 0.000184333 726.213ZM312.444 571.179H507.722C518.08 571.179 528.014 566.88 535.339 559.229C542.663 551.578 546.778 541.201 546.778 530.38C546.778 519.56 542.663 509.183 535.339 501.531C528.014 493.88 518.08 489.582 507.722 489.582H312.444C302.086 489.582 292.152 493.88 284.828 501.531C277.504 509.183 273.389 519.56 273.389 530.38C273.389 541.201 277.504 551.578 284.828 559.229C292.152 566.88 302.086 571.179 312.444 571.179ZM312.444 407.985H507.722C518.08 407.985 528.014 403.686 535.339 396.035C542.663 388.384 546.778 378.007 546.778 367.186C546.778 356.366 542.663 345.989 535.339 338.338C528.014 330.686 518.08 326.388 507.722 326.388H312.444C302.086 326.388 292.152 330.686 284.828 338.338C277.504 345.989 273.389 356.366 273.389 367.186C273.389 378.007 277.504 388.384 284.828 396.035C292.152 403.686 302.086 407.985 312.444 407.985ZM312.444 244.791H507.722C518.08 244.791 528.014 240.493 535.339 232.841C542.663 225.19 546.778 214.813 546.778 203.992C546.778 193.172 542.663 182.795 535.339 175.144C528.014 167.492 518.08 163.194 507.722 163.194H312.444C302.086 163.194 292.152 167.492 284.828 175.144C277.504 182.795 273.389 193.172 273.389 203.992C273.389 214.813 277.504 225.19 284.828 232.841C292.152 240.493 302.086 244.791 312.444 244.791ZM195.278 571.179C203.002 571.179 210.553 568.786 216.976 564.303C223.399 559.82 228.404 553.448 231.36 545.993C234.316 538.538 235.09 530.335 233.583 522.421C232.076 514.507 228.356 507.237 222.894 501.531C217.432 495.826 210.473 491.94 202.897 490.366C195.321 488.791 187.468 489.599 180.332 492.687C173.196 495.775 167.096 501.005 162.804 507.714C158.513 514.423 156.222 522.311 156.222 530.38C156.222 541.201 160.337 551.578 167.661 559.229C174.986 566.88 184.92 571.179 195.278 571.179ZM195.278 407.985C203.002 407.985 210.553 405.592 216.976 401.109C223.399 396.626 228.404 390.254 231.36 382.799C234.316 375.344 235.09 367.141 233.583 359.227C232.076 351.313 228.356 344.043 222.894 338.338C217.432 332.632 210.473 328.746 202.897 327.172C195.321 325.598 187.468 326.406 180.332 329.493C173.196 332.581 167.096 337.811 162.804 344.52C158.513 351.229 156.222 359.117 156.222 367.186C156.222 378.007 160.337 388.384 167.661 396.035C174.986 403.686 184.92 407.985 195.278 407.985ZM195.278 244.791C203.002 244.791 210.553 242.398 216.976 237.915C223.399 233.432 228.404 227.06 231.36 219.605C234.316 212.15 235.09 203.947 233.583 196.033C232.076 188.119 228.356 180.849 222.894 175.144C217.432 169.438 210.473 165.552 202.897 163.978C195.321 162.404 187.468 163.212 180.332 166.3C173.196 169.388 167.096 174.617 162.804 181.326C158.513 188.035 156.222 195.923 156.222 203.992C156.222 214.813 160.337 225.19 167.661 232.841C174.986 240.493 184.92 244.791 195.278 244.791Z" fill="black"/>
</svg>
