<svg width="811" height="649" viewBox="0 0 811 649" fill="none" xmlns="http://www.w3.org/2000/svg">
<path d="M811 173.57C810.935 159.58 805.476 146.183 795.812 136.29C786.147 126.398 773.058 120.811 759.391 120.744H722.527V475.43C722.533 486.333 720.44 497.131 716.366 507.205C712.293 517.279 706.319 526.433 698.787 534.142C691.255 541.852 682.312 547.966 672.47 552.136C662.628 556.305 652.079 558.448 641.427 558.442H117.964V596.174C118.029 610.164 123.487 623.562 133.152 633.454C142.816 643.346 155.905 648.933 169.573 649H759.391C773.058 648.933 786.147 643.346 795.812 633.454C805.476 623.562 810.935 610.164 811 596.174V173.57Z" fill="black"/>
<path d="M173.878 407.512H519.158C522.957 393.894 530.085 381.492 539.869 371.478C549.652 361.464 561.768 354.168 575.073 350.279V177.977C561.768 174.088 549.652 166.792 539.869 156.778C530.085 146.764 522.957 134.362 519.158 120.744H173.878C170.079 134.362 162.951 146.764 153.168 156.778C143.384 166.792 131.268 174.088 117.964 177.977V350.279C131.268 354.168 143.384 361.464 153.168 371.478C162.951 381.492 170.079 393.894 173.878 407.512ZM464.482 233.942C470.315 233.942 476.016 235.712 480.866 239.029C485.716 242.346 489.496 247.06 491.728 252.576C493.96 258.092 494.544 264.161 493.406 270.017C492.268 275.872 489.459 281.251 485.335 285.473C481.211 289.694 475.956 292.569 470.235 293.734C464.515 294.899 458.585 294.301 453.196 292.016C447.807 289.731 443.202 285.862 439.961 280.898C436.72 275.934 434.991 270.098 434.991 264.128C434.991 256.122 438.098 248.444 443.629 242.783C449.159 237.122 456.66 233.942 464.482 233.942ZM289.106 230.758C289.715 218.784 294.262 207.373 302.008 198.378C309.754 189.383 320.243 183.333 331.773 181.212V173.57C331.773 169.567 333.326 165.728 336.092 162.897C338.857 160.067 342.607 158.477 346.518 158.477C350.429 158.477 354.18 160.067 356.945 162.897C359.71 165.728 361.264 169.567 361.264 173.57V181.212C372.793 183.333 383.283 189.383 391.029 198.378C398.775 207.373 403.321 218.784 403.931 230.758C403.931 234.761 402.377 238.6 399.612 241.431C396.846 244.261 393.096 245.851 389.185 245.851C385.274 245.851 381.524 244.261 378.758 241.431C375.993 238.6 374.44 234.761 374.44 230.758C374.06 226.87 372.624 223.169 370.296 220.073C367.967 216.977 364.838 214.611 361.264 213.241V253.995C372.793 256.116 383.283 262.166 391.029 271.16C398.775 280.155 403.321 291.567 403.931 303.541C403.321 315.515 398.774 326.926 391.029 335.921C383.283 344.915 372.793 350.965 361.264 353.086V360.729C361.264 364.732 359.71 368.571 356.945 371.401C354.18 374.232 350.429 375.822 346.518 375.822C342.607 375.822 338.857 374.232 336.092 371.401C333.326 368.571 331.773 364.732 331.773 360.729V353.086C320.243 350.965 309.754 344.915 302.008 335.92C294.262 326.926 289.715 315.514 289.106 303.54C289.106 299.537 290.659 295.698 293.425 292.868C296.19 290.037 299.941 288.447 303.851 288.447C307.762 288.447 311.513 290.037 314.278 292.868C317.043 295.698 318.597 299.537 318.597 303.54C318.976 307.428 320.412 311.129 322.74 314.226C325.069 317.322 328.198 319.689 331.773 321.059V280.305C320.243 278.183 309.753 272.134 302.008 263.139C294.262 254.144 289.715 242.732 289.106 230.758ZM213.809 233.942C219.642 233.942 225.344 235.712 230.193 239.029C235.043 242.346 238.823 247.06 241.055 252.576C243.287 258.092 243.871 264.161 242.733 270.017C241.595 275.872 238.787 281.251 234.662 285.473C230.538 289.694 225.283 292.569 219.562 293.734C213.842 294.899 207.912 294.301 202.523 292.016C197.135 289.731 192.529 285.862 189.288 280.898C186.048 275.934 184.318 270.098 184.318 264.128C184.318 256.122 187.425 248.444 192.956 242.783C198.486 237.122 205.988 233.942 213.809 233.942Z" fill="black"/>
<path d="M331.773 213.241C327.996 214.263 324.656 216.536 322.273 219.704C319.889 222.873 318.597 226.759 318.597 230.758C318.597 234.757 319.889 238.643 322.273 241.812C324.656 244.98 327.996 247.253 331.773 248.276V213.241Z" fill="black"/>
<path d="M0 52.8256V475.43C0.0166232 489.435 5.45933 502.862 15.1343 512.765C24.8093 522.668 37.9266 528.239 51.6091 528.256H641.427C655.11 528.239 668.227 522.668 677.902 512.765C687.577 502.862 693.02 489.435 693.036 475.43V52.8256C693.02 38.8206 687.577 25.3941 677.902 15.491C668.227 5.58801 655.11 0.017015 641.427 0H51.6091C37.9266 0.017015 24.8093 5.58801 15.1343 15.491C5.45933 25.3941 0.0166232 38.8206 0 52.8256ZM73.7273 158.477C73.7288 152.473 76.0596 146.715 80.2073 142.47C84.3549 138.225 89.9798 135.839 95.8455 135.837C105.62 135.828 114.991 131.85 121.902 124.775C128.813 117.701 132.7 108.109 132.709 98.1046C132.711 92.1008 135.041 86.3432 139.189 82.0978C143.337 77.8525 148.962 75.4667 154.827 75.4651H538.209C544.075 75.4667 549.7 77.8525 553.847 82.0978C557.995 86.3432 560.326 92.1008 560.327 98.1046C560.336 108.109 564.223 117.701 571.134 124.775C578.046 131.85 587.417 135.828 597.191 135.837C603.057 135.839 608.681 138.225 612.829 142.47C616.977 146.715 619.308 152.473 619.309 158.477V369.779C619.308 375.783 616.977 381.54 612.829 385.786C608.681 390.031 603.057 392.417 597.191 392.419C587.417 392.428 578.046 396.406 571.134 403.48C564.223 410.555 560.336 420.147 560.327 430.151C560.326 436.155 557.995 441.913 553.847 446.158C549.7 450.403 544.075 452.789 538.209 452.791H154.827C148.962 452.789 143.337 450.403 139.189 446.158C135.041 441.913 132.711 436.155 132.709 430.151C132.7 420.147 128.813 410.555 121.902 403.48C114.991 396.406 105.62 392.428 95.8455 392.419C89.9798 392.417 84.3549 390.031 80.2073 385.786C76.0596 381.54 73.7288 375.783 73.7273 369.779V158.477Z" fill="black"/>
<path d="M374.44 303.541C374.06 299.653 372.624 295.952 370.296 292.856C367.967 289.76 364.838 287.393 361.264 286.023V321.059C364.838 319.689 367.967 317.322 370.296 314.226C372.624 311.13 374.06 307.428 374.44 303.541Z" fill="black"/>
</svg>
