<svg width="674" height="612" viewBox="0 0 674 612" fill="none" xmlns="http://www.w3.org/2000/svg">
<path d="M94.3972 0.0118513C77.4603 0.562163 63.7113 12.6142 60.6402 27.9955C45.4878 30.637 33.4941 41.9186 30.6567 56.1714C13.281 59.2256 0 73.5616 0 90.7306V478.15C0 497.521 17.1713 512.379 37.4721 512.27C121.277 511.857 209.859 532.989 299.22 568.621C321.247 577.426 352.752 577.426 374.78 568.621C387.066 563.724 399.293 559.184 411.55 554.864C412.662 570.823 410.673 586.672 404.822 602.63C402.541 608.766 409.59 614.269 415.587 611.05L437.643 599.356L452.065 610.389C456.219 613.581 462.508 611.738 464 606.895C471.108 583.865 473.215 560.229 470.611 536.18C527.185 520.607 582.85 511.994 636.528 512.27C656.829 512.38 673.971 497.521 673.971 478.15L674 450.001V90.73C674 73.5328 660.72 59.1969 643.343 56.1708C640.535 41.918 628.571 30.6364 613.418 27.9949C610.142 11.5958 594.697 -1.03411 576.209 0.0668656C488.48 5.18474 399.201 32.9207 337.016 82.8055C274.826 32.92 185.545 5.1808 97.8238 0.0668656C96.683 0.011838 95.538 -0.0156625 94.3972 0.0118513ZM606.601 27.3348C606.893 27.3348 607.215 27.3623 607.508 27.3898C607.566 27.3898 607.595 27.4173 607.654 27.4173C607.303 27.3623 606.952 27.3348 606.63 27.3348H606.601ZM74.912 34.3788V337.27C74.912 349.02 84.7991 357.631 97.8749 358.43C147.72 361.511 199.323 378.654 243.198 401.437C278.886 419.982 309.279 442.104 329.549 464.255V94.03C332.123 95.9836 334.551 98.0748 337.008 100.139C339.436 97.9923 342.01 96.0112 344.526 93.975V464.249C364.798 442.099 395.162 419.976 430.847 401.431C474.725 378.648 526.326 361.506 576.17 358.424C589.217 357.626 599.104 349.014 599.104 337.264L599.133 34.373C599.104 38.2527 602.468 41.417 606.592 41.4445C609.254 41.4445 611.77 41.9673 614.11 42.7377V393.641C614.11 413.012 596.939 427.843 576.667 427.788C499.909 427.65 449.773 450.158 365.025 487.717C368.506 490.358 371.695 493.33 374.211 496.797C457.027 462.43 526.528 441.601 606.619 441.849C619.431 441.904 629.055 433.539 629.055 421.789L629.114 62.5461C629.084 66.4258 632.448 69.5901 636.573 69.6176C639.206 69.6176 641.692 70.1128 644.032 70.8557V421.787C644.032 441.158 626.89 456.017 606.589 455.962C529.277 455.687 462.284 475.691 380.292 509.7C381.257 513.139 381.959 516.661 381.93 520.403C381.93 521.173 381.725 521.944 381.667 522.714C465.502 490.521 553.058 469.692 636.601 470.077C649.384 470.132 658.979 461.767 658.979 450.017V477.258C652.66 481.578 644.908 484.192 636.542 484.164C578.945 483.889 490.365 494.373 374.794 540.461C374.648 540.516 374.501 540.544 374.355 540.599C374.297 540.626 374.238 540.654 374.18 540.681C352.357 549.184 321.584 549.156 299.762 540.654C299.733 540.654 299.703 540.626 299.674 540.626C299.528 540.571 299.352 540.544 299.206 540.461C209.867 504.801 121.293 483.752 37.488 484.137C29.0925 484.192 21.3411 481.55 14.993 477.203V449.99C14.993 461.739 24.5874 470.132 37.4004 470.049C119.865 469.664 205.983 489.503 292.394 522.687C292.335 521.916 292.131 521.173 292.131 520.375C292.131 516.661 292.803 513.112 293.769 509.672C211.746 475.636 144.783 455.686 67.4415 455.962H67.383C47.1114 456.017 29.9693 441.158 29.9693 421.787V70.8839C32.3388 70.1135 34.8252 69.6182 37.4871 69.6182C41.6116 69.5907 44.9757 66.4264 44.9464 62.5467V421.79C44.9464 433.539 54.5999 441.904 67.3829 441.849C147.473 441.574 216.952 462.431 299.761 496.798C302.277 493.331 305.494 490.332 308.946 487.69C224.206 450.159 174.092 427.651 97.3042 427.789C77.0619 427.816 59.9198 412.985 59.9198 393.614V42.7109C62.2892 41.9404 64.7757 41.4177 67.4376 41.4177C71.5621 41.3902 74.9261 38.2259 74.8969 34.3462L74.912 34.3788ZM202.218 83.7416C251.771 83.7416 292.111 121.63 292.111 168.241C292.111 214.853 251.772 252.797 202.218 252.797C152.664 252.797 112.325 214.853 112.325 168.241C112.325 121.63 152.664 83.7416 202.218 83.7416ZM471.836 83.7416C521.39 83.7416 561.669 121.63 561.669 168.241C561.669 214.853 521.389 252.797 471.836 252.797C422.283 252.797 381.944 214.853 381.944 168.241C381.944 121.63 422.282 83.7416 471.836 83.7416ZM202.218 97.7746C160.767 97.7746 127.302 129.253 127.302 168.243C127.302 207.233 160.767 238.711 202.218 238.711C243.668 238.711 277.133 207.233 277.133 168.243C277.133 129.253 243.668 97.7746 202.218 97.7746ZM471.836 97.7746C430.386 97.7746 396.951 129.253 396.951 168.243C396.951 207.233 430.416 238.711 471.836 238.711C513.287 238.711 546.664 207.233 546.664 168.243C546.664 129.253 513.258 97.7746 471.836 97.7746ZM176.038 133.022C182.239 133.022 187.271 139.323 187.271 147.11C187.271 154.897 182.239 161.198 176.038 161.198C169.836 161.198 164.805 154.897 164.805 147.11C164.805 139.323 169.836 133.022 176.038 133.022ZM228.428 133.022C234.63 133.022 239.661 139.323 239.661 147.11C239.661 154.897 234.63 161.198 228.428 161.198C222.227 161.198 217.196 154.897 217.196 147.11C217.196 139.323 222.227 133.022 228.428 133.022ZM426.876 140.066C428.865 140.066 430.766 140.809 432.2 142.13C435.066 144.826 436.851 145.377 438.109 145.377C439.366 145.377 441.239 144.826 444.076 142.13C447.001 139.406 451.711 139.406 454.636 142.13C457.591 144.881 457.591 149.366 454.636 152.118C450.015 156.466 444.34 159.465 438.109 159.465C431.879 159.465 426.204 156.493 421.582 152.118C418.627 149.367 418.627 144.882 421.582 142.13C422.986 140.809 424.887 140.066 426.876 140.066ZM494.273 140.066C496.262 140.066 498.163 140.809 499.568 142.13C502.434 144.826 504.248 145.377 505.506 145.377C506.764 145.377 508.606 144.826 511.473 142.13C514.398 139.406 519.108 139.406 522.034 142.13C524.988 144.881 524.988 149.366 522.034 152.118C517.412 156.466 511.737 159.465 505.506 159.465C499.276 159.465 493.601 156.493 488.979 152.118C486.025 149.367 486.025 144.882 488.979 142.13C490.383 140.809 492.284 140.066 494.273 140.066ZM471.836 170.333C491.991 170.333 512.117 180.899 516.622 202.059C517.412 205.856 514.808 209.543 510.771 210.341C506.705 211.139 502.727 208.663 501.937 204.81C495.94 176.662 447.733 176.662 441.736 204.81C440.917 208.608 436.997 211.084 432.931 210.341C428.894 209.571 426.29 205.884 427.08 202.059C431.585 180.899 451.711 170.333 471.836 170.333ZM238.2 170.416C239.166 170.251 240.16 170.251 241.126 170.443C245.192 171.214 247.824 174.956 247.005 178.753C238.025 221.045 166.443 221.045 157.434 178.753C156.586 174.928 159.219 171.214 163.285 170.443C167.351 169.7 171.271 172.177 172.09 176.002C178.087 204.15 226.294 204.15 232.291 176.002C232.876 173.195 235.217 170.994 238.2 170.416ZM120.929 266.911C173.934 274.038 234.456 288.263 287.812 312.147C291.527 313.826 293.107 318.008 291.352 321.502C289.567 324.997 285.121 326.483 281.406 324.804C229.922 301.774 170.658 287.796 118.822 280.834C114.726 280.284 111.889 276.734 112.445 272.882C113.03 269.03 116.834 266.361 120.929 266.911ZM553.162 266.911C557.258 266.361 561.031 269.058 561.616 272.91C562.201 276.762 559.334 280.312 555.239 280.862C503.404 287.823 444.139 301.801 392.685 324.832C388.94 326.51 384.464 325.024 382.681 321.53C380.925 318.035 382.505 313.825 386.22 312.175C439.576 288.291 500.159 274.065 553.163 266.939L553.162 266.911ZM120.929 309.175C173.934 316.302 234.456 330.472 287.812 354.356C291.556 356.035 293.136 360.245 291.352 363.766C289.567 367.261 285.121 368.747 281.406 367.096C229.922 344.065 170.658 330.087 118.822 323.126C114.726 322.575 111.889 318.998 112.445 315.146C113.059 311.294 116.834 308.625 120.929 309.175ZM553.162 309.175C557.258 308.625 561.031 311.294 561.616 315.146C562.201 318.998 559.364 322.576 555.239 323.098C503.404 330.06 444.139 344.038 392.685 367.096C388.94 368.774 384.464 367.288 382.681 363.766C380.896 360.244 382.476 356.034 386.22 354.356C439.576 330.473 500.158 316.302 553.162 309.175ZM74.9194 364.729V393.621C74.9194 405.398 84.5138 413.707 97.3268 413.68C179.551 413.542 232.937 438.444 322.448 478.039C304.136 456.576 272.983 432.968 235.948 413.735C193.679 391.777 143.748 375.351 96.855 372.461C88.7231 371.939 81.1499 369.132 74.9194 364.729ZM599.15 364.729C592.948 369.132 585.372 371.938 577.21 372.434C530.348 375.323 480.413 391.75 438.118 413.735C401.114 432.941 369.93 456.521 351.617 478.039C441.098 438.444 494.484 413.57 576.686 413.707C589.498 413.735 599.123 405.398 599.123 393.648L599.15 364.729ZM337.02 492.261C324.909 492.261 314.612 498.919 309.873 508.55C309.844 508.632 309.844 508.715 309.815 508.797L309.669 508.935C308.001 512.429 307.065 516.309 307.065 520.409C307.065 523.188 307.65 525.967 308.528 528.609C324.587 533.754 349.481 533.754 365.541 528.636C366.418 525.967 367.003 523.216 367.003 520.409C367.003 516.309 366.038 512.457 364.4 508.935L364.312 508.852V508.77C359.632 499.03 349.247 492.288 337.049 492.288L337.02 492.261Z" fill="black"/>
</svg>
