<svg width="787" height="832" viewBox="0 0 787 832" fill="none" xmlns="http://www.w3.org/2000/svg">
<path d="M730.868 416.058H716.814V319.033C718.29 302.672 695.277 281.944 682.769 299.275C678.271 306.242 681.469 314.7 687.933 319.102C683.12 325.272 663.621 333.071 630.664 340.281C708.241 279.102 718.676 141.91 619.386 100.896C611.235 97.118 601.187 97.8806 596.9 91.0518C587.625 77.8797 582.495 63.287 570.479 50.7041C538.155 16.3187 474.491 -21.6712 431.912 14.9326C362.802 71.8838 273.808 66.8578 196.367 105.054C103.895 146.407 61.9095 254.415 125.606 332.619C110.358 327.835 101.258 323.225 98.7981 319.481C105.228 314.975 109.057 306.448 104.314 299.273C91.8066 281.942 68.7936 302.67 70.2687 319.031V416.056H56.2149C25.1564 416.056 0 441.013 0 471.516V596.298C0 726.35 107.231 832 238.909 832H548.091C679.778 832 787 726.35 787 596.298V471.516C787 441.013 761.844 416.056 730.785 416.056L730.868 416.058ZM281.292 179.237C333.994 135.84 417.611 147.347 459.354 89.3915C463.43 82.8749 472.143 80.7952 478.748 84.8161C485.353 88.837 487.321 97.4336 483.245 103.949C457.808 143.396 413.152 156.741 374.188 168.422C346.081 176.741 319.519 184.644 298.72 201.005C248.689 242.115 296.12 274.213 341.163 282.67C348.611 284.611 353.108 292.237 351.141 299.585C349.103 307.142 341.198 311.232 333.855 309.43C317.834 305.132 299.704 300.418 283.683 290.712C238.394 263.467 238.885 211.435 281.292 179.237ZM393.578 776.577C323.837 776.577 267.099 720.596 267.099 651.795C266.396 575.191 339.265 514.706 415.713 529.055C430.646 531.481 431.067 553.25 416.276 556.23C387.993 562.366 367.474 587.565 367.474 616.162C368.949 689.232 473.014 700.254 490.445 629.438C493.045 614.742 515.637 615.295 518.026 630.027C532.466 705.454 471.227 777.313 393.579 776.62L393.578 776.577ZM393.578 471.545C211.091 471.545 105.902 444.161 98.4544 429.949V350.606C222.865 401.492 563.734 401.699 688.783 350.572L688.924 428.84C681.264 444.161 576.065 471.545 393.578 471.545Z" fill="black"/>
</svg>
