<svg width="792" height="793" viewBox="0 0 792 793" fill="none" xmlns="http://www.w3.org/2000/svg">
<path d="M270.877 505.661H242.347C187.213 505.696 142.524 550.052 142.488 604.784C142.381 675.124 84.9287 732.156 14.0712 732.255C7.50936 732.361 1.83943 736.893 0.376872 743.264C-1.12093 749.636 1.94606 756.185 7.79466 759.159C11.9315 761.141 101.802 802.912 218.095 725.6C211.711 743.548 198.052 758.026 180.435 765.53C174.123 767.937 170.378 774.345 171.412 780.964C172.447 787.584 177.974 792.611 184.714 793C206.575 792.752 275.868 791.69 327.547 743.724C356.933 714.483 372.588 674.376 370.77 633.1V604.78C370.52 550.123 325.936 505.914 270.877 505.661Z" fill="black"/>
<path d="M723.294 466.684L726.86 431.001C739.556 319.742 402.723 319.706 413.989 430.293L440.807 696.852C446.513 740.04 504.144 748.535 570.511 750.518C636.701 748.536 694.792 739.898 700.069 696.852L704.634 651.965L704.598 651.93C646.04 646.762 590.232 624.708 544.082 588.494C538.091 583.644 537.092 574.9 541.871 568.811C546.65 562.758 555.458 561.625 561.664 566.263C603.567 599.113 654.247 619.079 707.454 623.752C818.935 628.248 815.946 528.742 723.294 466.684ZM570.483 474.33C497.018 474.33 442.066 448.134 442.066 424.77C442.066 401.406 496.986 375.21 570.483 375.21C643.948 375.21 698.899 401.405 698.899 424.77C698.899 448.133 643.979 474.365 570.519 474.365L570.483 474.33ZM761.382 577.695C755.89 589.873 733.459 596.633 710.313 595.537L719.871 499.956C753.108 527.604 770.797 559.322 761.382 577.729V577.695Z" fill="black"/>
<path d="M309.641 397.937C321.517 401.052 332.643 406.468 342.451 413.831L442.092 44.6136C444.552 35.5513 443.304 25.8872 438.561 17.7456C433.818 9.56829 426.043 3.65639 416.878 1.21409C407.749 -1.22848 398.013 0.0458603 389.811 4.75401C381.608 9.46217 375.617 17.2147 373.192 26.2771L273.552 395.359H273.588C285.641 393.907 297.909 394.751 309.641 397.937Z" fill="black"/>
<path d="M335.387 494.759L343.233 465.589C344.16 462.155 343.732 458.509 342.091 455.358C323.832 424.702 284.247 414.082 252.9 431.428C249.833 433.34 247.586 436.314 246.623 439.783L236.495 477.448C269.625 476.386 306.322 475.89 335.387 494.759Z" fill="black"/>
</svg>
