<svg width="546" height="830" viewBox="0 0 546 830" fill="none" xmlns="http://www.w3.org/2000/svg">
<path d="M172.817 0L151.57 159.555L394.444 159.52L373.197 0.000850584L172.817 0ZM186.646 174.903V229.939L3.12164 279.6V381.005H542.897V279.636L359.373 229.94V174.904L186.646 174.903ZM12.2767 396.357L57.6548 446.3V665.455L10.3531 712.462H535.616L488.315 665.455V446.3L533.693 396.357H12.2767ZM419.813 429.677C419.813 442.587 433.367 453.056 450.08 453.056C442.067 453.056 434.375 455.532 428.651 459.918C422.973 464.304 419.813 470.281 419.813 476.471C419.813 470.281 416.654 464.303 410.976 459.918C405.298 455.532 397.559 453.056 389.546 453.056C406.26 453.056 419.813 442.587 419.813 429.677ZM222.774 480.999C227.169 480.893 231.565 481.353 235.778 482.343L265.45 489.135C270.395 490.266 275.615 490.266 280.515 489.135L310.187 482.343H310.232C326.259 478.523 343.705 483.016 353.504 493.556C364.31 503.142 368.157 516.264 363.807 528.502L350.254 563.236C352.223 583.999 346.865 604.796 334.777 623.401C331.48 627.857 325.435 630.652 318.796 630.758C312.156 630.864 305.928 628.246 302.403 623.896C294.253 611.976 288.574 599.136 285.552 585.837C284.453 581.168 279.188 577.738 273.006 577.738C266.825 577.738 261.559 581.169 260.46 585.837C257.438 599.137 251.76 611.976 243.609 623.896C240.083 628.246 233.856 630.864 227.217 630.758C220.577 630.652 214.533 627.857 211.236 623.401C199.148 604.796 193.789 583.998 195.759 563.236L182.205 528.502C177.855 516.264 181.702 503.142 192.508 493.556C199.56 485.987 210.731 481.388 222.774 480.999ZM126.202 635.285C126.202 641.51 129.361 647.453 135.04 651.838C140.718 656.259 148.456 658.7 156.469 658.735C139.755 658.735 126.202 669.204 126.202 682.115C126.202 669.204 112.649 658.735 95.9352 658.735C103.948 658.7 111.641 656.259 117.319 651.838C122.997 647.452 126.202 641.51 126.202 635.285ZM0 727.852V830H546V727.852H0Z" fill="black"/>
</svg>
