<svg width="852" height="697" viewBox="0 0 852 697" fill="none" xmlns="http://www.w3.org/2000/svg">
<path fill-rule="evenodd" clip-rule="evenodd" d="M852 0H0V232.333C58.8184 232.333 106.5 284.343 106.5 348.5C106.5 412.657 58.8184 464.667 0 464.667V697H852V464.667C793.18 464.667 745.5 412.657 745.5 348.5C745.5 284.343 793.18 232.333 852 232.333V0ZM439.312 580.833H412.688L395.997 508.014C381.688 445.58 336.998 396.834 279.762 381.226L213 363.021V333.979L279.762 315.774C336.998 300.166 381.688 251.42 395.997 188.988L412.688 116.167H439.312L456.003 188.988C470.312 251.42 515.002 300.166 572.24 315.774L639 333.979V363.021L572.24 381.226C515.002 396.834 470.312 445.58 456.003 508.014L439.312 580.833Z" fill="black"/>
</svg>
