<svg width="832" height="834" viewBox="0 0 832 834" fill="none" xmlns="http://www.w3.org/2000/svg">
<path d="M415.983 517.07C402.295 517.07 389.563 514.119 377.825 509.213L394.457 469.966C401.301 472.917 408.145 473.875 415.983 473.875C426.766 473.875 437.509 470.924 446.342 465.06L471.807 499.401C456.131 511.206 436.553 517.07 415.983 517.07ZM359.204 426.81L317.106 431.716C322 463.105 341.577 490.586 367.997 505.304L384.629 466.057C370.942 457.241 361.154 442.524 359.204 426.81ZM376.83 373.842L351.365 339.501C329.839 358.127 315.157 385.608 315.157 416.04V419.95L357.254 415.044C358.248 399.329 366.048 384.611 376.83 373.842ZM534.44 676.015C497.237 693.684 457.129 702.499 415.983 702.499C399.351 702.499 382.719 700.544 366.048 698.589L358.209 711.352C351.365 722.161 351.365 734.885 356.259 745.694C361.153 756.502 371.936 763.363 383.674 764.32C394.457 765.317 405.2 765.317 415.983 765.317C456.131 765.317 495.284 758.456 532.444 745.693C544.182 741.784 553.015 731.972 554.964 720.167C557.908 708.401 553.97 696.634 545.176 687.78L534.44 676.015ZM526.602 668.196L446.346 588.705C445.352 587.708 443.402 586.75 441.452 586.75H440.458C438.508 586.75 436.558 588.705 434.57 590.66L372.896 688.777C386.622 689.774 401.305 691.728 415.987 691.728C454.146 691.728 491.347 683.871 526.602 668.196ZM294.631 158.946C332.789 141.277 372.937 131.465 415.985 131.465C432.618 131.465 450.244 133.42 466.876 136.371L474.715 123.608C481.559 112.799 481.559 100.075 476.665 89.2664C471.77 78.4578 460.988 71.5974 449.25 70.6398C397.364 65.7339 344.525 72.5945 295.584 90.2633C284.801 94.1727 277.002 103.026 274.058 114.793C271.114 126.559 275.052 139.322 283.846 147.179L294.631 158.946ZM248.596 359.125C253.49 358.129 257.39 354.219 259.378 350.31C261.328 345.404 261.328 340.498 258.384 336.589L207.493 239.468C171.285 281.667 149.758 332.68 143.87 387.646L248.596 359.125ZM146.818 508.254L131.141 507.258H129.191C117.453 507.258 106.67 513.16 99.8261 522.972C92.9822 532.785 91.9879 545.547 96.882 556.317C117.453 603.421 147.773 645.619 186.926 678.964C195.72 686.821 207.497 689.772 219.235 685.824C230.973 681.915 239.806 673.061 243.706 661.295L247.606 646.577C200.652 612.236 165.402 563.181 146.818 508.254ZM473.725 416.997C473.725 433.669 465.887 449.384 454.149 460.153L479.614 494.494C501.14 475.868 515.822 448.387 515.822 417.955V408.143L473.725 413.049V416.997ZM117.453 394.422L132.135 390.513C138.024 330.645 161.5 274.724 201.647 228.619L194.803 214.898C188.915 204.089 178.171 197.229 166.433 196.271H163.489C152.706 196.271 142.918 201.177 136.074 209.992C104.76 253.148 83.2333 303.204 73.4451 355.216C71.495 366.982 75.3951 378.748 84.2278 386.606C93.9777 394.425 105.715 398.37 117.453 394.422ZM303.429 166.799L378.791 240.387C382.691 244.297 387.585 245.293 392.479 245.293C397.373 244.297 402.267 242.342 404.217 237.436L460.997 146.179C445.358 144.224 430.675 142.269 415.993 142.269C376.84 142.269 338.683 151.085 303.429 166.799ZM471.777 402.281L513.875 397.375C507.03 364.989 484.51 337.508 455.145 324.784L438.513 364.031C455.145 370.892 466.883 384.613 471.777 402.281ZM415.992 359.125C419.892 359.125 424.786 360.122 428.725 360.122L445.357 320.875C436.563 317.924 426.775 316.965 415.992 316.965C395.421 316.965 375.845 322.868 360.207 333.638L385.672 367.979C394.466 362.038 405.209 359.125 415.992 359.125ZM415.992 369.896C389.572 369.896 369.001 391.474 369.001 417C369.001 442.526 390.527 464.104 415.992 464.104C442.413 464.104 462.984 442.526 462.984 417C462.984 391.474 442.413 369.896 415.992 369.896ZM265.273 515.12L158.601 509.217C176.227 559.273 208.536 603.426 250.595 634.818L278.965 532.795C279.959 528.886 278.965 523.98 277.015 520.032C274.071 517.081 269.173 515.12 265.273 515.12ZM569.667 189.379L545.197 294.355C544.203 298.264 545.197 302.212 548.141 306.121C551.085 309.072 554.985 311.027 558.924 311.027L670.49 312.982C648.964 262.964 613.716 219.776 569.667 189.379ZM631.341 143.271C621.553 136.411 609.815 134.456 599.032 138.366C587.294 142.275 579.456 152.086 576.511 163.892L572.611 179.606C621.553 211.993 659.711 259.097 681.28 314.018H695.963C707.701 314.018 719.439 308.115 726.322 297.346C733.166 287.534 733.166 274.771 728.272 264.001C704.758 216.859 671.488 175.623 631.341 143.271ZM832 417C832 646.576 645.025 834 416 834C186.975 834 0 646.576 0 417C0 187.424 186.975 0 416 0C645.025 0 832 187.424 832 417ZM416 527.883C476.679 527.883 526.617 477.827 526.617 417C526.617 369.896 497.252 329.691 456.149 313.976C456.149 312.98 455.155 312.98 454.199 312.98H452.249C441.467 309.071 428.773 307.078 416.041 307.078C355.361 307.078 305.424 357.133 305.424 417.96C305.386 478.824 355.32 527.883 416 527.883ZM699.859 436.626C695.959 497.451 671.489 556.319 632.336 602.425L635.28 607.331C641.168 618.139 651.912 625.957 663.65 626.954C675.388 627.951 687.126 623.045 694.009 613.233C705.747 597.519 715.536 580.847 724.368 563.178C719.474 522.934 712.63 479.778 703.797 435.625L699.859 436.626ZM582.4 468.015C578.5 469.012 574.562 471.925 573.606 475.872C572.612 479.782 571.656 483.729 573.606 487.639L627.441 592.615C663.65 549.459 685.176 496.452 689.115 440.532L582.4 468.015ZM732.17 544.555C741.958 521.98 749.797 497.451 754.691 472.921C756.641 461.155 752.741 449.389 744.902 441.531C738.058 435.629 729.226 431.72 720.432 431.72C718.482 431.72 716.532 431.72 714.544 432.716C721.388 470.966 727.276 509.222 732.17 544.555Z" fill="black"/>
</svg>
