<svg width="696" height="690" viewBox="0 0 696 690" fill="none" xmlns="http://www.w3.org/2000/svg">
<path fill-rule="evenodd" clip-rule="evenodd" d="M380.179 390.189C317.16 366.68 247.239 366.829 184.345 390.608C203.635 425.618 241.559 447.48 282.821 447.42C323.96 447.6 361.667 425.438 380.179 390.189ZM624.957 298.342L530.939 388.602L582.16 437.747C608.754 461.945 650.487 461.706 676.737 437.208C702.332 412.531 702.426 372.73 676.987 347.929L625.017 298.335L624.957 298.342ZM503.507 182.383L386.923 250.395L422.195 284.237L538.307 215.566L503.535 182.384L503.507 182.383ZM458.653 139.587L495.11 174.387L378.527 242.369L342.787 208.079L458.651 139.557L458.653 139.587ZM415.516 98.4085L450.257 131.591L334.457 200.112L299.779 166.84L415.484 98.4085H415.516ZM372.38 57.2298L256.42 124.882C257.637 126.26 258.917 127.608 260.259 128.925L291.472 158.813L407.088 90.4116L372.316 57.2293L372.38 57.2298ZM249.867 115.778L363.95 49.2035L353.618 39.3502C341.538 27.6109 325.026 21.052 307.858 21.0819C290.66 21.1418 274.211 27.8203 262.194 39.65C249.646 51.6591 242.404 67.8612 241.968 84.8713C241.718 95.6523 244.433 106.284 249.865 115.718L249.867 115.778ZM35.9579 307.653C44.7915 293.398 57.1826 281.478 72.0715 273.003C57.2138 264.588 44.7907 252.729 35.9579 238.503C27.1554 252.759 14.7955 264.648 0 273.153C14.7955 281.569 27.1865 293.428 35.9579 307.653ZM588.031 532.058C573.204 523.642 560.781 511.783 551.948 497.558C543.146 511.783 530.786 523.642 515.991 532.058C530.786 540.563 543.146 552.453 551.948 566.708C560.782 552.452 573.173 540.533 588.031 532.058ZM125.757 89.006H125.788C136.9 70.2586 153.069 54.7151 172.608 44.0238C152.944 33.7213 136.557 18.5082 125.133 0C114.021 18.7474 97.8206 34.2909 78.2811 44.9822C97.9453 55.3146 114.364 70.5277 125.788 89.0359L125.757 89.006ZM589.773 264.743L616.804 290.558L522.754 380.764L473.499 333.506L589.773 264.743ZM465.135 325.507L430.488 292.235L546.6 223.565L581.372 256.747L465.135 325.507ZM160.995 247.43V344.046V344.016C161.432 374.682 174.48 403.912 197.297 425.352C220.145 446.795 250.89 458.714 282.821 458.474C314.627 458.684 345.185 446.735 367.721 425.262C390.288 403.759 402.961 374.53 402.961 344.041V281.479L459.114 335.355C460.05 338.979 460.893 342.782 461.611 346.676C462.485 351.468 463.203 356.2 463.671 360.691V690H100.257V360.691C105.438 317.087 127.035 276.808 160.995 247.43ZM172.513 344.046V126.203C172.856 108.444 187.777 94.099 206.317 93.7693H230.913H230.882C232.099 105.419 236.313 116.59 243.149 126.293L243.337 126.563C245.927 130.186 248.862 133.6 252.077 136.715L391.442 270.407V344.02C391.442 356.329 389.194 368.517 384.731 380.047C318.746 355.31 245.422 355.49 179.595 380.556C174.882 368.907 172.478 356.538 172.478 344.05L172.513 344.046Z" fill="black"/>
</svg>
