<svg width="437" height="816" viewBox="0 0 437 816" fill="none" xmlns="http://www.w3.org/2000/svg">
<path d="M302.413 0H294.714C294.714 49.2603 277.31 86.8315 245.858 109.451C233.931 106.656 221.449 104.832 209.031 104.046C157.066 100.763 93.4468 115.235 85.1943 166.868C82.3733 184.52 80.6366 205.556 79.6658 228.017C1.04254 269.679 1.16764 388.185 1.31544 483.786C1.33506 496.547 1.35285 508.601 1.17868 520.025C-0.413934 624.383 -0.0631538 696.676 0.344046 780.384L0.510851 816L8.20962 815.968L8.04343 780.348C7.63562 696.68 7.28606 624.423 8.87745 520.142C9.05284 508.653 9.03383 496.568 9.0136 483.775C8.87132 391.933 8.71923 278.447 79.3199 236.938C76.2052 328.74 84.9048 439.616 85.1538 442.758C87.3842 485.403 105.995 515.655 140.47 532.673C164.872 544.719 190.364 546.517 203.388 546.517C237.348 546.517 317.091 537.48 324.077 453.778C329.011 394.663 327.801 306.997 325.954 236.379C397.479 277.437 397.307 391.531 397.164 483.769C397.144 496.566 397.126 508.652 397.301 520.142C398.892 624.386 398.541 696.618 398.136 780.257L397.968 815.968L405.666 816L405.834 780.294C406.24 696.614 406.591 624.346 404.999 520.025C404.824 508.599 404.843 496.545 404.863 483.782C405.01 387.863 405.134 268.886 325.719 227.602C325.387 215.475 325.043 203.959 324.716 193.248C347.181 159.973 385.809 141.484 437 141.484V133.829C352.726 133.829 302.413 83.7984 302.413 0ZM298.564 237.199C287.255 184.397 251.557 148.901 198.456 137.656C251.557 126.413 287.255 90.9153 298.564 38.1151C309.871 90.9153 345.569 126.413 398.669 137.656C345.569 148.901 309.871 184.397 298.564 237.199Z" fill="black"/>
</svg>
