<svg width="694" height="824" viewBox="0 0 694 824" fill="none" xmlns="http://www.w3.org/2000/svg">
<path d="M463.686 410.991H222.686V461.126H463.686V410.991Z" fill="black"/>
<path d="M73.2874 262.887L80.8216 287.306L88.3713 262.88C89.5489 259.071 92.5508 256.089 96.388 254.918L120.948 247.428L96.3897 239.939C92.5526 238.768 89.5489 235.786 88.3731 231.977L80.8233 207.551L73.2892 231.97C72.1133 235.784 69.1079 238.768 65.2691 239.939L40.7004 247.428L65.2708 254.918C69.1079 256.089 72.1116 259.075 73.2874 262.887Z" fill="black"/>
<path d="M195.837 386.958H490.534C494.646 386.958 500.15 383.43 504.555 377.973C511.983 368.764 514.914 356.591 512.395 345.407L445.049 46.8039C438.016 15.7506 430.646 0 423.152 0H263.217C255.723 0 248.356 15.7506 241.32 46.8142L173.976 345.41C171.456 356.584 174.391 368.754 181.823 377.966C187.18 384.602 192.719 386.958 195.837 386.958ZM406.911 97.9647C413.435 96.5141 419.908 100.59 421.367 107.067L465.096 300.931C466.557 307.406 462.452 313.834 455.927 315.282C455.037 315.48 454.148 315.576 453.271 315.576C447.731 315.576 442.732 311.774 441.471 306.181L397.743 112.318C396.282 105.841 400.385 99.4153 406.911 97.9647Z" fill="black"/>
<path d="M228.87 741.427H457.501C466.05 741.427 468.596 730.214 469.019 727.965L502.087 552.74C502.353 551.317 501.848 549.827 500.582 548.313C498.276 545.556 494.252 543.702 490.567 543.702H195.837C192.133 543.702 188.097 545.556 185.793 548.316C183.905 550.581 184.211 552.188 184.313 552.715L217.384 727.963C217.81 730.212 220.352 741.427 228.87 741.427Z" fill="black"/>
<path d="M681.947 397.915L694 375.319L671.283 387.265C667.737 389.129 663.495 389.128 659.952 387.267L637.223 375.319L649.284 397.91C651.164 401.429 651.164 405.642 649.288 409.161L637.225 431.782L659.941 419.812C661.714 418.878 663.664 418.411 665.615 418.411C667.565 418.411 669.518 418.878 671.292 419.814L693.996 431.784L681.942 409.156C680.071 405.639 680.073 401.431 681.947 397.915Z" fill="black"/>
<path d="M673.502 799.966H517.897C531.924 799.966 539.424 786.674 541.767 774.235L592.312 506.47C593.28 501.325 590.858 497.108 588.656 494.476C583.924 488.816 575.974 485.159 568.409 485.159H117.96C110.379 485.159 102.432 488.807 97.7125 494.454C95.5199 497.078 93.1111 501.291 94.0898 506.464L144.602 774.231C146.943 786.674 154.453 799.966 168.505 799.966H12.1045C5.41935 799.966 0 805.346 0 811.983C0 818.62 5.41935 824 12.1045 824H673.502C680.187 824 685.606 818.62 685.606 811.983C685.606 805.346 680.189 799.966 673.502 799.966ZM160.523 557.166C158.897 548.656 161.247 540.061 167.149 532.988C174.002 524.772 184.994 519.668 195.837 519.668H490.567C501.376 519.668 512.352 524.762 519.208 532.959C525.12 540.028 527.489 548.624 525.881 557.163L492.813 732.387C489.03 752.476 475.167 765.461 457.499 765.461H228.87C211.495 765.461 197.315 752.168 193.59 732.382L160.523 557.166Z" fill="black"/>
</svg>
