<svg width="629" height="787" viewBox="0 0 629 787" fill="none" xmlns="http://www.w3.org/2000/svg">
<path d="M629 715.885C595.889 729.311 569.619 754.873 555.82 787C548.977 771.102 539.055 756.643 526.624 744.397C514.079 732.299 499.215 722.671 482.906 716.069C491.764 712.344 500.203 707.807 508.11 702.458C508.984 701.979 509.745 701.389 510.467 700.688C516.245 696.741 521.643 692.315 526.624 687.446C539.055 675.274 548.939 660.852 555.82 645.064C569.658 677.081 595.965 702.532 629 715.885ZM499.671 683.795L148.521 683.758C131.946 683.721 118.489 670.701 118.451 654.582V375.464C118.489 326.813 136.774 279.819 169.925 243.266V246.66L171.863 298.041C172.091 303.427 176.767 307.631 182.355 307.447C187.906 307.226 192.239 302.689 192.011 297.267L190.073 245.885V245.922C189.692 236.996 190.453 228.033 192.316 219.291C203.226 169.901 248.085 134.564 300.127 134.306H348.787C400.869 134.601 445.688 169.937 456.754 219.291C458.578 228.033 459.377 236.996 459.073 245.922L453.218 388.706V388.669C452.154 414.894 442.612 440.087 425.999 460.743C397.335 437.984 361.486 425.554 324.455 425.554C287.466 425.554 251.617 437.984 222.95 460.743C206.147 440.198 196.568 414.968 195.617 388.779L194.058 351.008C194.058 348.389 192.956 345.881 190.979 344.074C189.002 342.303 186.341 341.381 183.642 341.566C180.943 341.566 178.32 342.672 176.457 344.59C174.632 346.545 173.682 349.127 173.91 351.746L175.468 389.517C176.571 420.575 188.128 450.452 208.352 474.501C209.378 475.755 210.747 476.715 212.268 477.268C212.648 478.743 213.37 480.071 214.396 481.215C216.259 483.169 218.844 484.276 221.543 484.276C224.281 484.276 226.866 483.169 228.69 481.215C253.439 458.935 285.6 446.025 319.32 444.882C353.039 443.701 386.075 454.361 412.344 474.907C368.208 514.965 301.224 519.76 251.464 486.416C249.259 484.94 246.56 484.387 243.899 484.83C241.276 485.309 238.957 486.784 237.437 488.924C234.243 493.387 235.422 499.473 239.984 502.571C269.407 522.305 305.142 531.157 340.69 527.432C376.273 523.707 409.271 507.736 433.639 482.358C458.045 456.981 472.224 423.931 473.556 389.259L479.41 246.655V243.446C512.712 279.889 531.036 326.955 530.884 375.644V650.333C525.828 658.742 519.67 666.488 512.598 673.386C508.531 677.149 504.197 680.616 499.635 683.751L499.671 683.795ZM246.601 205.606C248.464 207.487 251.049 208.594 253.71 208.594C256.409 208.594 258.994 207.487 260.819 205.606C270.969 195.241 285.035 189.413 299.747 189.45H348.407C363.119 189.413 377.185 195.241 387.335 205.606C389.236 207.561 391.897 208.667 394.634 208.63C398.892 208.999 402.883 206.675 404.556 202.876C406.191 199.077 405.088 194.651 401.857 191.995C387.905 177.831 368.593 169.827 348.407 169.901H299.747C279.56 169.827 260.248 177.832 246.334 191.995C244.472 193.803 243.445 196.274 243.483 198.856C243.559 201.401 244.662 203.835 246.601 205.606ZM118.644 232.975C121.343 233.159 124.004 232.237 125.981 230.466C127.957 228.659 129.06 226.151 129.06 223.532C134.952 172.519 176.276 132.166 228.813 126.187C234.439 126.371 239.153 122.093 239.305 116.634C239.495 111.174 235.123 106.638 229.497 106.453C176.579 100.699 134.876 60.1255 129.063 8.81563C128.721 3.83611 124.463 0 119.331 0C114.199 0 109.941 3.83611 109.599 8.81563C106.786 33.7501 95.3434 57.0255 77.2098 74.9147C58.8484 92.6198 34.822 103.759 9.08571 106.452C3.95363 106.783 0 110.915 0 115.894C0 120.837 3.95363 124.968 9.08571 125.337C34.86 127.808 58.9243 138.948 77.2098 156.763C95.3814 174.616 106.786 197.928 109.599 222.862C110.017 227.768 114.237 231.567 119.331 231.567L118.644 232.975Z" fill="black"/>
</svg>
