<svg width="805" height="825" viewBox="0 0 805 825" fill="none" xmlns="http://www.w3.org/2000/svg">
<path fill-rule="evenodd" clip-rule="evenodd" d="M704.375 371.123H724.5C746.637 371.123 764.75 389.682 764.75 412.366C764.75 423.295 760.524 433.812 752.876 441.442C745.43 449.278 735.166 453.609 724.5 453.609H603.75C576.984 453.609 551.425 464.538 532.508 483.716C513.59 503.1 503.125 529.289 503.125 556.716C503.125 584.142 513.791 610.331 532.508 629.715C551.224 649.1 576.984 659.823 603.549 659.823H724.902C769.178 659.823 805 623.117 805 577.75V412.366C805 366.793 768.976 329.88 724.5 329.88H704.375V267.191C704.375 250.9 698.136 235.434 686.866 223.886C675.596 212.338 660.503 205.946 644.604 205.946H120.75C109.681 205.946 100.625 196.666 100.625 185.324C100.625 173.983 109.681 164.703 120.75 164.703H194.81L252.368 123.46H81.1038C36.225 123.666 0 160.785 0 206.771V741.896C0 787.675 36.225 825 81.1038 825H644.805C677.81 825 704.375 797.574 704.375 763.961V701.272H603.75C566.318 701.272 530.495 686.012 504.131 658.998C477.768 631.984 462.875 595.278 462.875 556.922C462.875 518.566 477.768 481.86 504.131 454.846C530.495 427.832 566.318 412.572 603.75 412.572H704.375V371.123ZM322 639.201C322 627.859 312.944 618.58 301.875 618.58H100.625C89.5563 618.58 80.5 627.859 80.5 639.201V721.687C80.5 733.029 89.5563 742.308 100.625 742.308H301.875C312.944 742.308 322 733.029 322 721.687V639.201ZM281.75 659.823V701.065H120.75V659.823H281.75ZM603.75 536.094C614.819 536.094 623.875 545.374 623.875 556.716C623.875 568.057 614.819 577.337 603.75 577.337C592.681 577.337 583.625 568.057 583.625 556.716C583.625 545.374 592.681 536.094 603.75 536.094ZM100.625 329.88H181.125C192.194 329.88 201.25 320.601 201.25 309.259C201.25 297.917 192.194 288.638 181.125 288.638H100.625C89.5563 288.638 80.5 297.917 80.5 309.259C80.5 320.601 89.5563 329.88 100.625 329.88ZM241.5 329.88H322C333.069 329.88 342.125 320.601 342.125 309.259C342.125 297.917 333.069 288.638 322 288.638H241.5C230.431 288.638 221.375 297.917 221.375 309.259C221.375 320.601 230.431 329.88 241.5 329.88ZM382.375 329.88H462.875C473.944 329.88 483 320.601 483 309.259C483 297.917 473.944 288.638 462.875 288.638H382.375C371.306 288.638 362.25 297.917 362.25 309.259C362.25 320.601 371.306 329.88 382.375 329.88ZM523.25 329.88H603.75C614.819 329.88 623.875 320.601 623.875 309.259C623.875 297.917 614.819 288.638 603.75 288.638H523.25C512.181 288.638 503.125 297.917 503.125 309.259C503.125 320.601 512.181 329.88 523.25 329.88ZM259.814 164.909H631.321L540.558 10.0426C537.74 5.2997 533.312 1.79406 528.08 0.556778C522.847 -0.680506 517.212 0.14435 512.785 3.03134L260.015 164.909H259.814Z" fill="black"/>
</svg>
