<svg width="790" height="834" viewBox="0 0 790 834" fill="none" xmlns="http://www.w3.org/2000/svg">
<path d="M758.055 289.697V245.002C769.529 234.874 776.661 223.291 776.661 210.086C776.661 172.192 714.292 139.113 605.526 119.288C575.901 107.109 547.921 98.7692 540.241 96.5518C536.949 92.3983 532.952 88.6751 528.124 85.5476C500.898 67.9408 457.479 75.4535 431.13 82.5855C429.406 78.9781 428.073 75.3211 427.352 71.5813C422.446 46.346 442.996 10.4209 443.199 10.0734C444.438 7.92215 444.438 5.22487 443.168 3.09021C441.898 0.972103 439.579 -0.202786 437.227 0.028882C435.895 0.177812 404.42 3.66938 382.507 19.9689C372.366 27.5147 363.933 38.4527 355.782 49.0433C346.91 60.5274 338.54 71.3827 330.358 74.4109C323.978 76.7773 314.26 76.2643 301.956 75.6024C283.93 74.6426 259.258 73.3188 228.316 80.4343C197.563 87.5002 149.63 108.665 117.042 134.976C69.5012 148.942 13.3391 173.251 13.3391 210.086C13.3391 223.291 20.471 234.874 31.9448 245.002V289.697C9.59286 318.488 0 346.073 0 381.486V562.518C0 598.608 18.6998 630.959 55.5821 658.693C62.5103 663.889 70.0655 668.887 78.1849 673.719V698.987C78.1849 741.531 118.406 777.407 194.506 802.725C263.804 825.792 343.509 834 395 834C446.491 834 526.196 825.792 595.494 802.725C671.594 777.407 711.815 741.531 711.815 698.987V673.719C719.935 668.887 727.49 663.889 734.418 658.693C771.3 630.959 790 598.608 790 562.518V381.486C790 346.073 780.407 318.488 758.055 289.697ZM464.517 468.874C473.906 458.581 486.383 452.773 499.518 452.773C514.299 452.773 528.297 460.154 537.952 473.028C539.473 475.046 541.949 475.957 544.332 475.344C549.912 473.938 555.774 473.226 561.762 473.226C588.503 473.226 611.09 488.02 611.09 505.561C611.09 523.085 588.503 537.895 561.762 537.895C557.687 537.895 553.596 537.547 549.614 536.869C546.997 536.422 544.379 537.779 543.109 540.228C534.018 557.802 517.309 568.723 499.518 568.723C498.907 568.723 498.296 568.657 497.684 568.64C498.421 563.296 498.813 557.835 498.813 552.275C498.813 519.428 485.599 489.774 464.517 468.874ZM285.591 581.781C289.588 597.683 296.689 612.03 306.062 624.243C299.228 628.595 291.657 630.895 283.82 630.895C267.017 630.895 251.201 620.023 242.564 602.515C241.311 599.967 238.646 598.577 235.965 599.04C232.188 599.719 228.316 600.05 224.46 600.05C199.13 600.05 177.719 585.256 177.719 567.715C177.719 550.191 199.13 535.381 224.46 535.381C230.135 535.381 235.683 536.093 240.95 537.499C243.395 538.145 245.966 537.185 247.486 535.067C256.64 522.275 269.87 514.928 283.82 514.928C299.228 514.928 313.806 523.996 322.834 539.171C324.402 541.818 327.505 542.943 330.28 541.884C334.026 540.445 337.913 539.717 341.863 539.717C361.644 539.717 377.727 557.77 377.727 579.944C377.727 582.377 377.538 584.776 377.162 587.142C367.381 594.457 355.469 598.776 342.6 598.776C324.715 598.776 307.896 590.419 296.469 575.857C294.588 573.474 291.391 572.779 288.773 574.202C286.156 575.624 284.823 578.784 285.591 581.781ZM342.6 612.014C382.539 612.014 415.032 577.727 415.032 535.58C415.032 496.61 387.257 464.358 351.487 459.725C363.604 454.016 376.739 451.07 390.376 451.07C443.246 451.07 486.273 496.477 486.273 552.276C486.273 608.092 443.246 653.482 390.376 653.482C355.218 653.482 323.555 633.245 306.846 602.069C317.614 608.521 329.888 612.014 342.6 612.014ZM645.653 357.442C578.785 376.472 489.769 386.963 395 386.963C300.231 386.963 211.215 376.472 144.347 357.442C81.8057 339.653 44.4845 315.195 44.4845 292.045V254.449C67.2911 269.391 99.1732 280.495 127.999 288.305C199.397 307.617 294.212 318.24 395 318.24C495.788 318.24 590.603 307.617 662.001 288.305C690.827 280.495 722.709 269.391 745.515 254.449V292.045C745.515 315.195 708.194 339.653 645.653 357.442ZM230.981 93.373C260.292 86.6381 283.036 87.846 301.329 88.8224C314.997 89.5505 325.797 90.1296 334.512 86.9028C346.033 82.6501 355.484 70.3882 365.5 57.3982C373.118 47.5027 381.003 37.2762 389.733 30.7895C401.097 22.3336 416.02 17.7333 426.333 15.3835C419.844 29.6642 411.113 53.9067 415.063 74.2438C417.697 87.7302 425.691 99.2971 433.434 110.483C442.98 124.268 451.993 137.291 450.472 152.614C448.325 174.126 408.966 185.61 393.981 188.208C390.564 188.804 388.26 192.196 388.809 195.803C389.373 199.411 392.602 201.86 396.019 201.264C398.605 200.834 459.376 189.912 462.934 154.004C464.971 133.601 454.078 117.88 443.56 102.673C441.632 99.8928 439.751 97.1624 437.964 94.4486C460.065 88.8555 498.954 82.2033 521.588 96.848C553.408 117.417 538.72 177.535 538.564 178.13C537.67 181.672 539.661 185.296 543 186.239C543.548 186.388 544.081 186.471 544.63 186.471C547.388 186.471 549.928 184.518 550.68 181.556C551.213 179.454 560.257 142.603 549.301 112.949C605.714 130.308 681.861 163.552 681.861 192.461C681.861 200.685 672.362 221.585 584.459 237.967C531.683 247.78 460.849 253.654 395 253.654C362.271 253.654 277.989 252.364 202.453 240.367C110.334 225.738 96.2264 204.822 94.4238 196.515C92.8093 189.019 94.6746 180.762 99.9569 171.975C120.945 137.109 190.415 102.689 230.981 93.373ZM699.275 698.987C699.275 744.725 640.793 773.783 591.732 790.099C523.783 812.703 445.551 820.762 395 820.762C344.449 820.762 266.217 812.703 198.268 790.099C149.207 773.783 90.7246 744.725 90.7246 698.987V680.768C116.666 694.569 147.749 706.632 183.659 716.743C249.085 735.16 326.11 745.718 395 745.718C463.89 745.718 540.915 735.16 606.341 716.743C642.251 706.632 673.334 694.569 699.275 680.768V698.987Z" fill="black"/>
<path d="M301.767 201.298C302.034 201.347 302.316 201.364 302.583 201.364C305.686 201.364 308.382 198.931 308.79 195.589C309.244 191.965 306.815 188.655 303.382 188.175C260.982 182.367 229.931 166.514 211.074 141.064C208.942 138.184 205.008 137.671 202.281 139.922C199.553 142.172 199.067 146.342 201.199 149.222C222.14 177.502 255.982 195.026 301.767 201.298Z" fill="black"/>
</svg>
