<svg width="410" height="805" viewBox="0 0 410 805" fill="none" xmlns="http://www.w3.org/2000/svg">
<path d="M311.296 675.784C325.457 675.784 337.212 666.319 338.637 653.769L406.844 53.4885C406.855 53.4102 406.864 53.3311 406.871 53.252L409.861 26.9456C410.642 20.0722 408.107 13.1907 402.908 8.06552C397.707 2.93952 390.276 0 382.52 0H27.4808C19.7251 0 12.2946 2.93952 7.09386 8.06473C1.89314 13.1899 -0.641976 20.0714 0.13904 26.9456L3.14078 53.3634C3.47691 56.3175 6.26937 58.5661 9.60271 58.5661H393.211L376.393 206.579H33.6064L18.9975 78.0095C18.636 74.8311 15.4331 72.5236 11.8814 72.8359C8.31343 73.158 5.71306 75.9958 6.07368 79.175L71.3626 653.769C72.5744 664.427 81.2439 672.835 92.4997 675.136V788.664C92.4997 797.671 100.727 805 110.838 805H299.162C309.273 805 317.5 797.671 317.5 788.664V696.569C317.5 693.374 314.592 690.784 311.006 690.784C307.42 690.784 304.511 693.374 304.511 696.569V751.537H257.155L250.482 731.701C249.283 728.137 245.601 725.696 241.424 725.696H168.576C164.399 725.696 160.717 728.137 159.518 731.701L152.845 751.537H105.489V675.784H311.296ZM370.869 46.9952C370.311 32.0024 360.963 18.782 347.092 11.5708H382.52C386.67 11.5708 390.488 13.081 393.271 15.8244C396.053 18.5669 397.356 22.1021 396.937 25.7801L394.527 46.9952H370.869ZM164.715 251.35C179.577 244.361 195.405 240.716 211.127 240.106C216.349 239.903 218.159 246.193 213.481 248.271C213.135 248.424 212.79 248.58 212.446 248.738C168.482 268.883 150.766 317.355 173.016 356.684C195.704 396.788 250.706 412.604 295.384 392.035C295.787 391.849 296.187 391.662 296.586 391.472C301.179 389.279 305.889 394.235 302.693 397.901C293.227 408.764 281.026 418.013 266.41 424.742C212.079 449.756 145.167 430.427 117.747 381.53C91.2095 334.209 112.201 276.044 164.715 251.35ZM304.511 763.108V788.664C304.511 791.291 302.112 793.429 299.162 793.429H110.838C107.889 793.429 105.489 791.291 105.489 788.664V763.108H304.511ZM98.7043 664.213C91.2367 664.213 85.0384 659.222 84.2864 652.603L63.4475 469.204H346.552L325.713 652.604C324.963 659.222 318.763 664.213 311.296 664.213H98.7043Z" fill="black"/>
</svg>
