<svg width="824" height="812" viewBox="0 0 824 812" fill="none" xmlns="http://www.w3.org/2000/svg">
<path d="M412 0C330.514 0 250.858 23.8115 183.105 68.4233C115.352 113.035 62.5451 176.444 31.3618 250.63C0.178515 324.817 -7.98046 406.45 7.91665 485.207C23.8138 563.963 63.053 636.305 120.672 693.085C178.291 749.865 251.703 788.533 331.623 804.199C411.543 819.864 494.382 811.824 569.666 781.095C644.949 750.366 709.294 698.328 754.565 631.561C799.837 564.795 824 486.299 824 406C823.877 298.359 780.43 195.162 703.192 119.049C625.954 42.9354 521.231 0.121547 412 0ZM648.549 682.651C578.245 741.141 488.216 771.481 396.289 767.663C304.362 763.845 217.243 726.147 152.183 662.035C87.1234 597.923 48.8682 512.072 44.9936 421.484C41.1191 330.896 71.9076 242.177 131.262 172.897C132.626 171.31 134.31 170.018 136.206 169.104C138.102 168.189 140.17 167.672 142.279 167.584C144.388 167.496 146.493 167.841 148.461 168.595C150.428 169.349 152.216 170.496 153.711 171.965L283.073 299.443C283.556 299.856 284.008 300.302 284.427 300.777L560.645 572.972C561.127 573.385 561.58 573.831 561.999 574.307L649.495 660.529C650.988 662.001 652.155 663.762 652.922 665.701C653.689 667.64 654.039 669.715 653.951 671.795C653.862 673.874 653.336 675.913 652.406 677.782C651.476 679.65 650.163 681.309 648.549 682.651ZM692.74 639.104C691.377 640.694 689.695 641.989 687.798 642.905C685.902 643.821 683.833 644.34 681.723 644.427C679.613 644.515 677.507 644.17 675.539 643.414C673.571 642.658 671.784 641.508 670.291 640.036L540.929 512.558C540.446 512.146 539.994 511.7 539.575 511.225L263.356 239.028C262.873 238.615 262.421 238.17 262.002 237.694L174.506 151.472C173.012 150 171.845 148.239 171.078 146.3C170.311 144.36 169.961 142.285 170.05 140.206C170.139 138.126 170.665 136.088 171.595 134.219C172.525 132.35 173.838 130.692 175.452 129.349C245.755 70.8576 335.786 40.5159 427.713 44.3333C519.641 48.1507 606.762 85.8488 671.823 149.962C736.883 214.075 775.138 299.927 779.012 390.516C782.886 481.105 752.096 569.824 692.74 639.104Z" fill="black"/>
<path d="M300.976 637.135H523.025C526.338 637.133 529.516 635.835 531.859 633.527C534.203 631.218 535.522 628.088 535.527 624.823V590.747L288.473 347.291V624.823C288.478 628.088 289.797 631.218 292.141 633.527C294.485 635.835 297.662 637.133 300.976 637.135ZM384.246 586.444H439.754C443.801 586.444 447.683 588.029 450.544 590.849C453.406 593.669 455.014 597.493 455.014 601.481C455.014 605.469 453.406 609.294 450.544 612.114C447.683 614.934 443.801 616.518 439.754 616.518H384.246C380.199 616.518 376.318 614.934 373.456 612.114C370.594 609.294 368.987 605.469 368.987 601.481C368.987 597.493 370.594 593.669 373.456 590.849C376.318 588.029 380.199 586.444 384.246 586.444Z" fill="black"/>
<path d="M523.025 174.864H300.976C297.662 174.867 294.485 176.165 292.141 178.473C289.797 180.781 288.478 183.912 288.473 187.177V221.253L535.527 464.709V187.177C535.522 183.912 534.203 180.781 531.859 178.473C529.516 176.165 526.338 174.867 523.025 174.864ZM412 225.556C408.982 225.556 406.032 224.674 403.523 223.021C401.013 221.369 399.057 219.021 397.902 216.273C396.747 213.525 396.445 210.502 397.034 207.585C397.623 204.668 399.076 201.989 401.21 199.886C403.344 197.783 406.063 196.351 409.023 195.77C411.983 195.19 415.051 195.488 417.84 196.626C420.628 197.764 423.011 199.692 424.688 202.164C426.364 204.637 427.259 207.544 427.259 210.518C427.259 214.507 425.652 218.331 422.79 221.151C419.928 223.971 416.047 225.556 412 225.556Z" fill="black"/>
<path d="M412 74.0912C338.322 74.1585 266.701 98.0372 208.116 142.066L257.955 191.179V187.177C257.969 175.938 262.506 165.164 270.571 157.218C278.636 149.271 289.571 144.802 300.976 144.79H523.025C534.429 144.802 545.364 149.271 553.429 157.218C561.494 165.164 566.032 175.938 566.045 187.177V494.783L679.834 606.914C717.9 557.744 741.257 499.065 747.266 437.504C753.276 375.943 741.698 313.952 713.84 258.533C685.983 203.115 642.956 156.475 589.619 123.883C536.282 91.291 474.759 74.0444 412 74.0912Z" fill="black"/>
<path d="M566.045 624.823C566.032 636.061 561.494 646.836 553.429 654.782C545.364 662.729 534.43 667.198 523.025 667.21H300.976C289.571 667.198 278.636 662.729 270.571 654.782C262.506 646.836 257.969 636.061 257.955 624.823V317.217L144.166 205.086C94.7394 268.931 70.4977 348.279 75.941 428.403C81.3843 508.527 116.143 583.983 173.765 640.766C231.387 697.549 307.958 731.801 389.266 737.165C470.574 742.529 551.095 718.641 615.884 669.934L566.045 620.821V624.823Z" fill="black"/>
</svg>
