<svg width="823" height="815" viewBox="0 0 823 815" fill="none" xmlns="http://www.w3.org/2000/svg">
<path d="M411.5 0C184.599 0 0 183.278 0 408.556C22.6052 950.561 800.478 950.403 823 408.553C822.999 183.278 638.4 0 411.5 0ZM411.5 789.875C199.722 789.875 27.4333 618.819 27.4333 408.556C48.5265 -97.3162 774.551 -97.1691 795.567 408.558C795.566 618.819 623.277 789.875 411.5 789.875Z" fill="black"/>
<path d="M411.5 68.0927C222.413 68.0927 68.5833 220.822 68.5833 408.556C87.4177 860.227 735.651 860.095 754.417 408.553C754.416 220.822 600.586 68.0927 411.5 68.0927ZM332.307 163.888C339.628 161.92 347.149 166.255 349.105 173.517L356.204 199.823C358.167 207.084 353.827 214.558 346.506 216.5C339.384 218.448 331.64 214.202 329.709 206.871L322.609 180.565C320.647 173.304 324.987 165.83 332.307 163.888ZM247.174 204.544C252.532 199.224 261.213 199.224 266.571 204.544L285.967 223.801C291.325 229.121 291.325 237.739 285.967 243.059C280.609 248.378 271.929 248.378 266.571 243.059L247.174 223.801C241.816 218.482 241.816 209.864 247.174 204.544ZM206.219 289.075C208.174 281.8 215.689 277.478 223.016 279.446L249.512 286.495C256.832 288.436 261.172 295.911 259.21 303.172C257.275 310.502 249.534 314.748 242.412 312.801L215.917 305.752C208.596 303.81 204.256 296.336 206.219 289.075ZM562.383 372.368V424.715C562.383 450.808 570.929 475.744 586.441 494.922L576.099 503.886L586.775 495.334C598.342 509.578 611.496 522.638 625.862 534.142C635.893 541.656 629.811 558.77 617.249 558.359L493.8 558.36C489.926 666.533 333.036 666.453 329.2 558.36H280.013L198.452 639.337C191.71 633.197 185.24 626.773 179.056 620.08L241.22 558.36H205.75C193.206 558.738 187.091 541.677 197.137 534.141C231.292 506.91 261.819 471.114 260.615 424.714L260.616 367.7C259.703 302.406 306.946 240.269 370.349 223.707V204.278C370.349 181.749 388.808 163.422 411.499 163.422C434.191 163.422 452.649 181.749 452.649 204.278V223.742C482.492 232.36 508.446 250.2 527.644 273.985L624.547 177.775C631.289 183.915 637.759 190.339 643.943 197.032L543.115 297.14C555.316 319.486 562.383 345.121 562.383 372.368ZM670.127 316.977C677.367 314.796 685.029 318.852 687.232 326.06C702.771 376.943 703.635 431.072 689.731 482.58C684.713 499.823 658.856 492.857 663.235 475.531C675.806 428.931 675.029 379.976 660.978 333.96C658.781 326.765 662.873 319.158 670.127 316.977Z" fill="black"/>
<path d="M534.949 372.368C534.949 352.714 530.5 334.085 522.723 317.386L307.446 531.123H582.013C553.123 503.124 534.465 466.035 534.95 424.714L534.949 372.368Z" fill="black"/>
<path d="M419.738 245.4C350.358 239.164 286.534 298.791 288.051 367.701L288.05 424.715C288.514 466.437 269.771 503.225 240.966 531.123H268.654L508.188 293.301C487.215 266.013 455.659 247.714 419.738 245.4Z" fill="black"/>
<path d="M425.216 204.278C424.894 186.378 398.102 186.385 397.783 204.278V217.896H425.216V204.278Z" fill="black"/>
</svg>
