<svg width="826" height="770" viewBox="0 0 826 770" fill="none" xmlns="http://www.w3.org/2000/svg">
<path fill-rule="evenodd" clip-rule="evenodd" d="M689.44 7.03708C688.645 8.08255 687.761 9.09725 686.818 10.0812L5.57898 721.247C-2.7572 733.239 -1.75577 750.182 8.6129 761.006C20.1304 772.998 38.7763 772.998 50.2644 761.006L160.697 645.728H560.892C584.339 645.728 606.815 636.011 623.369 618.699C639.953 601.418 649.261 577.956 649.261 553.48V510.985L740.753 558.738C759.016 568.27 780.696 567.256 798.046 556.033C815.425 544.84 826 525.037 826 503.728V234.243C826 212.934 815.425 193.131 798.046 181.938C780.696 170.714 759.016 169.7 740.753 179.233L649.261 226.985V184.49C649.261 170.592 646.257 157.031 640.631 144.732L729 52.4842C740.488 40.4921 740.488 20.9971 729 9.00489C718.189 -2.3108 700.987 -2.95639 689.44 7.03708ZM531.435 92.2429H89.5887C66.1414 92.2429 43.666 101.96 27.1115 119.271C10.5275 136.552 1.21935 160.014 1.21935 184.49V553.48C1.21935 577.956 10.5275 601.418 27.1115 618.699L531.435 92.2429Z" fill="black"/>
</svg>
