<svg width="817" height="814" viewBox="0 0 817 814" fill="none" xmlns="http://www.w3.org/2000/svg">
<path d="M507.475 256.166L255.455 502.695C237.126 474.904 227.045 441.735 227.045 406.773C227.045 308.161 308.608 228.375 409.416 228.375C445.158 228.375 479.066 238.236 507.475 256.166ZM311.357 557.379C339.767 575.309 373.675 585.17 409.416 585.17C510.225 585.17 591.788 505.384 591.788 406.773C591.788 371.81 580.791 338.641 563.378 310.85L311.357 557.379ZM807.151 454.285C825.48 478.49 817.232 512.556 790.655 527.796L766.828 539.45C747.582 550.207 737.502 570.826 741.167 592.341L745.75 617.443C751.248 647.026 729.254 674.817 698.095 676.609L671.518 678.402C649.523 679.299 631.195 694.539 624.78 715.158L617.448 740.259C609.2 768.946 577.125 785.082 548.715 773.428L523.971 763.567C503.81 755.499 479.982 760.878 466.236 777.014L448.823 796.736C428.662 819.148 392.921 820.044 371.842 797.633L354.43 777.91C339.767 761.774 315.94 757.292 295.778 765.36L271.034 775.221C242.625 786.875 210.549 772.532 201.385 742.948L194.053 717.847C187.638 697.228 169.309 682.885 147.315 681.988L120.738 681.092C89.5792 680.195 67.5847 652.405 72.1669 622.821L76.7491 597.72C80.4149 576.205 69.4176 555.586 50.1724 545.725L27.2614 533.175C-0.231772 518.831 -8.47972 484.765 9.84906 460.561L25.4285 439.045C38.2587 421.116 38.2587 397.808 25.4285 380.775L9.84906 360.156C-8.47972 335.952 -0.231776 301.886 26.345 286.646L49.2559 274.095C68.5011 263.338 78.582 242.719 74.9162 221.204L70.334 196.102C64.8354 166.519 86.8299 138.728 117.989 136.936L144.566 135.143C166.56 134.246 184.889 119.006 191.304 98.3874L198.635 73.2863C206.883 44.5993 238.959 28.4629 267.368 40.117L292.112 49.9781C312.274 58.0463 336.101 52.6675 349.848 36.5311L367.26 16.8088C388.338 -5.60293 424.079 -5.60293 445.158 16.8088L462.57 36.5311C477.233 52.6675 501.06 57.1499 521.222 49.0816L545.966 39.2205C574.375 27.5664 606.451 41.9099 615.615 71.4934L622.947 96.5945C629.362 117.213 647.691 131.557 669.685 132.453L696.262 133.35C726.504 134.246 749.415 162.037 744.833 191.62L740.251 216.721C736.585 238.236 747.582 258.855 766.828 268.716L789.739 281.267C817.232 295.61 825.48 329.676 807.151 353.881L791.571 375.396C778.741 393.325 778.741 416.634 791.571 433.667L807.151 454.285ZM671.518 406.773C671.518 265.131 554.214 150.383 409.416 150.383C264.619 150.383 147.315 265.131 147.315 406.773C147.315 548.415 264.619 663.162 409.416 663.162C554.214 663.162 671.518 548.415 671.518 406.773Z" fill="black"/>
</svg>
