<svg width="827" height="736" viewBox="0 0 827 736" fill="none" xmlns="http://www.w3.org/2000/svg">
<path fill-rule="evenodd" clip-rule="evenodd" d="M136.738 447.746H96.6686V736H136.738V447.746ZM690.262 447.746V736H730.341V447.746H690.262ZM484.925 447.746V690.699H669.503V447.746H484.925ZM523.61 586.181H630.799C633.547 586.181 636.183 587.236 638.126 589.115C640.069 590.994 641.16 593.542 641.16 596.199V655.016C641.16 657.673 640.069 660.221 638.126 662.1C636.183 663.978 633.547 665.034 630.799 665.034H523.638C520.89 665.034 518.255 663.978 516.312 662.1C514.369 660.221 513.277 657.673 513.277 655.016V596.263C513.277 593.606 514.369 591.057 516.312 589.179C518.255 587.3 520.89 586.244 523.638 586.244L523.61 586.181ZM620.42 606.217V644.961H534.065V606.299L620.42 606.217ZM523.61 473.247H630.799C633.547 473.247 636.183 474.302 638.126 476.181C640.069 478.06 641.16 480.608 641.16 483.265V542.082C641.16 544.739 640.069 547.287 638.126 549.166C636.183 551.045 633.547 552.1 630.799 552.1H523.638C520.89 552.1 518.255 551.045 516.312 549.166C514.369 547.287 513.277 544.739 513.277 542.082V483.365C513.277 480.708 514.369 478.16 516.312 476.281C518.255 474.403 520.89 473.347 523.638 473.347L523.61 473.247ZM620.42 493.284V532.027H534.065V493.402L620.42 493.284ZM363.748 345.031H191.378C188.116 345.048 184.992 346.308 182.685 348.538C180.379 350.769 179.075 353.789 179.058 356.943V368.856H376.078V356.943C376.058 353.788 374.752 350.768 372.444 348.538C370.136 346.308 367.011 345.047 363.748 345.031ZM313.977 264.948H241.196C239.707 276.47 237.317 287.865 234.047 299.038C231.448 307.85 228.303 316.502 224.628 324.949H330.508C326.829 316.498 323.683 307.839 321.089 299.019C317.823 287.852 315.433 276.463 313.94 264.948H313.977ZM470.335 0H84.8852V244.875H470.288V0H470.335ZM756.988 145.074L762.451 125.356C763.373 122.403 763.34 119.248 762.356 116.313C761.867 115.028 761.254 114.154 760.652 113.999L734.41 107.205C733.798 107.05 732.809 107.515 731.697 108.398C729.349 110.458 727.706 113.162 726.988 116.149L721.506 135.876L757.006 145.074H756.988ZM757.138 221.997C758.966 221.596 760.473 221.259 761.612 220.986C760.501 220.458 759.239 219.948 757.845 219.447L757.138 221.997ZM695.32 230.285C708.418 229.76 721.473 228.501 734.419 226.514L751.647 164.437L716.146 155.238L695.349 230.285H695.32ZM764.165 220.266V219.911C764.165 219.747 764.09 219.966 764.005 220.312H764.118L764.165 220.266ZM656.749 230.476L608.646 56.9405L580.897 64.1263L585.983 82.4871L595.214 80.0919C597.871 79.4059 600.7 79.7685 603.081 81.0998C605.461 82.4312 607.197 84.6223 607.906 87.1912C608.616 89.7601 608.241 92.4962 606.864 94.7977C605.487 97.0993 603.221 98.7776 600.564 99.4636L591.352 101.85L597.588 124.327L606.809 121.932C609.466 121.246 612.295 121.609 614.676 122.94C617.056 124.271 618.792 126.462 619.501 129.031C620.211 131.6 619.836 134.336 618.459 136.638C617.082 138.939 614.816 140.618 612.159 141.304L602.947 143.69L609.183 166.167L618.404 163.781C621.059 163.095 623.888 163.457 626.267 164.788C628.647 166.118 630.382 168.308 631.091 170.876C631.801 173.444 631.426 176.179 630.05 178.479C628.674 180.78 626.409 182.458 623.754 183.144L614.542 185.53L620.777 208.008L629.999 205.621C631.314 205.282 632.685 205.196 634.034 205.368C635.383 205.541 636.684 205.969 637.862 206.628C639.04 207.287 640.073 208.164 640.901 209.208C641.728 210.253 642.335 211.445 642.686 212.716C643.038 213.988 643.127 215.313 642.948 216.618C642.769 217.922 642.327 219.18 641.645 220.319C640.964 221.459 640.057 222.457 638.977 223.257C637.897 224.058 636.664 224.644 635.349 224.984L626.137 227.379L626.42 228.372C635.688 229.401 645.898 230.121 656.749 230.494V230.476ZM672.441 209.647L676.011 222.525L679.572 209.665H673.449L672.441 209.647ZM604.011 225.011C591.503 222.47 583.515 220.722 582.743 220.312V220.029C582.922 219.401 584.118 221.505 586.143 220.631C591.123 218.647 596.286 217.122 601.562 216.077L604.049 225.057L604.011 225.011ZM617.283 247.498C616.953 247.498 616.633 247.425 616.341 247.37C610.407 246.569 604.878 245.649 599.839 244.638C595.014 243.678 590.255 242.434 585.588 240.913L603.107 368.911H744.168L761.396 240.895C756.71 242.425 751.932 243.675 747.088 244.638L745.289 244.993C744.925 245.084 744.557 245.157 744.187 245.212C720.839 249.211 697.159 251.117 673.449 250.904C654.67 250.975 635.907 249.843 617.283 247.516V247.498ZM827 388.947H0V427.691H827V388.947Z" fill="black"/>
</svg>
