<svg width="726" height="829" viewBox="0 0 726 829" fill="none" xmlns="http://www.w3.org/2000/svg">
<path fill-rule="evenodd" clip-rule="evenodd" d="M387.396 51.504C390.118 51.7902 394.992 47.534 394.992 47.534C394.992 47.534 396.807 45.6026 398.924 43.3493C403.193 38.7354 409.579 37.1259 415.361 39.1288C415.865 39.3077 416.369 39.4865 416.84 39.6296C424.839 42.4194 430.217 50.3241 430.217 59.2651V104.295C430.217 126.364 440.906 144.712 457.106 162.166C475.458 181.945 500.835 200.329 528.397 220.107C616.791 283.486 726 360.307 726 524.341C726 677.745 614.003 758.613 513.545 799.385C416.271 838.872 309.695 838.872 212.455 799.385C111.988 758.612 0 677.708 0 524.341C0 360.317 109.235 283.487 197.603 220.107C225.165 200.328 250.508 181.944 268.894 162.166C285.094 144.712 295.783 126.363 295.783 104.295V58.8C295.783 50.1445 301.026 42.4543 308.757 39.7724C308.858 39.7366 308.959 39.7009 309.059 39.7009C314.908 37.6621 321.361 38.8067 326.269 42.8125C327.647 44.5651 329.294 46.1746 331.041 47.5337C333.428 49.4651 335.949 51.7898 338.638 51.5037C339.444 50.2161 340.453 49.0715 341.595 48.1416C341.797 47.784 341.965 47.3905 342.167 46.9971C345.629 40.0941 348.116 29.1855 349.629 12.8755C350.334 5.54337 356.116 0 363.006 0C369.93 0 375.712 5.54382 376.384 12.8755C377.93 29.2212 380.383 40.1299 383.845 46.9971C384.047 47.3905 384.215 47.784 384.417 48.1416C385.559 49.0715 386.568 50.2161 387.375 51.5037L387.396 51.504ZM336.071 79.9744C331.567 79.5095 326.996 77.9357 322.694 75.6109V104.296C322.694 133.803 309.72 158.947 288.074 182.266C268.58 203.226 241.892 222.861 212.65 243.821C130.672 302.621 26.9124 372.118 26.9124 524.34C26.9124 663.79 130.7 735.575 222.063 772.667C228.719 775.349 235.407 777.889 242.129 780.178C216.013 765.8 188.519 747.808 162.874 725.741C103.247 674.344 53.8368 601.061 53.8368 499.985C53.8368 422.765 92.4566 370.15 142.266 325.266C188.683 283.419 245.047 248.547 284.508 204.019C284.911 203.554 285.381 203.089 285.818 202.696C313.312 168.36 333.849 130.125 336.067 80.4141C336.067 80.271 336.101 80.128 336.101 79.9849L336.071 79.9744ZM484.026 780.142C490.715 777.818 497.404 775.35 503.991 772.667C595.346 735.577 699.143 663.79 699.143 524.341C699.143 372.119 595.415 302.623 513.405 243.821C484.163 222.862 457.475 203.226 437.981 182.267C416.335 158.947 403.361 133.803 403.361 104.296V75.6114C399.025 77.9363 394.488 79.5099 389.984 79.9749C389.984 80.118 390.017 80.261 390.017 80.4041C392.236 130.12 412.772 168.354 440.266 202.686C440.737 203.079 441.174 203.544 441.577 204.009C481.037 248.538 537.406 283.411 583.819 325.256C633.631 370.107 672.248 422.751 672.248 499.975C672.248 601.051 622.839 674.337 563.211 725.731C537.599 747.799 510.104 765.754 484.022 780.168L484.026 780.142ZM152.278 353.773C111.944 391.721 80.6856 435.894 80.6856 499.952C80.6856 588.475 123.238 653.109 174.931 699.247C136.614 650.247 107.574 585.078 107.574 499.952C107.574 440.223 125.826 393.759 152.278 353.773ZM551.116 699.238C602.81 653.099 645.362 588.466 645.362 499.943C645.362 435.885 614.103 391.717 573.769 353.764C600.221 393.751 618.472 440.212 618.472 499.943C618.472 585.068 589.433 650.234 551.116 699.238ZM323.698 221.786C312.237 243.461 299.33 263.919 286.389 284.664C250.828 341.676 215.133 401.296 215.133 499.909C215.133 622.584 258.727 700.238 299.364 745.946C276.005 695.014 254.123 616.257 254.123 499.909C254.123 414.999 267.702 375.301 283.903 338.026C297.481 306.874 313.044 277.509 323.699 221.751L323.698 221.786ZM426.651 745.98C467.321 700.271 510.882 622.619 510.882 499.943C510.882 401.303 475.187 341.678 439.626 284.699C426.652 263.919 413.745 243.46 402.318 221.821C412.973 277.581 428.535 306.945 442.114 338.096C458.314 375.365 471.893 415.029 471.893 499.978C471.893 616.326 450.012 695.088 426.652 746.015L426.651 745.98Z" fill="black"/>
</svg>
