<svg width="816" height="742" viewBox="0 0 816 742" fill="none" xmlns="http://www.w3.org/2000/svg">
<path d="M674.667 126.242H141.327C123.173 126.242 108.374 140.777 108.374 158.679V231.353H707.614V158.679C707.614 140.777 692.854 126.242 674.667 126.242ZM250.212 163.88H456.6C460.122 163.88 462.967 166.68 462.967 170.147C462.967 173.614 460.123 176.415 456.6 176.415L250.212 176.448C246.69 176.448 243.845 173.648 243.845 170.181C243.845 166.68 246.69 163.88 250.212 163.88ZM153.014 163.88H206.659C210.181 163.88 213.026 166.68 213.026 170.147C213.026 173.614 210.181 176.415 206.659 176.415L153.014 176.448C149.491 176.448 146.647 173.648 146.647 170.181C146.613 166.68 149.491 163.88 153.014 163.88ZM342.634 218.586H153.014C149.491 218.586 146.647 215.786 146.647 212.318C146.647 208.851 149.491 206.051 153.014 206.051H342.669C346.191 206.051 349.036 208.851 349.036 212.318C349.002 215.752 346.156 218.586 342.634 218.586ZM492.459 218.586H394.723C391.201 218.586 388.356 215.786 388.356 212.318C388.356 208.851 391.201 206.051 394.723 206.051H492.459C495.981 206.051 498.826 208.851 498.826 212.318C498.826 215.752 495.981 218.586 492.459 218.586ZM662.98 176.448H492.459C488.937 176.448 486.092 173.648 486.092 170.181C486.092 166.714 488.937 163.914 492.459 163.914L662.98 163.88C666.502 163.88 669.347 166.68 669.347 170.148C669.381 173.615 666.502 176.448 662.98 176.448Z" fill="black"/>
<path d="M47.1779 231.358H95.6074V158.684C95.6074 133.882 116.097 113.713 141.294 113.713H674.669C699.865 113.713 720.355 133.882 720.355 158.684V231.358H768.784C773.729 231.358 778.538 232.092 783.246 233.258L783.279 101.61C783.279 85.3752 769.936 72.2403 753.443 72.2403H369.425C359.502 72.2403 350.257 67.4064 344.702 59.3058L312.867 12.9344C307.312 4.86697 298.067 0 288.143 0H148.679C132.186 0 118.842 13.135 118.842 29.3696V42.8707C118.842 59.1053 105.498 72.2403 89.0052 72.2403H62.5888C46.096 72.2403 32.752 85.3752 32.752 101.61V233.224C37.4257 232.091 42.2334 231.358 47.1779 231.358Z" fill="black"/>
<path d="M688.348 578.358H493.005C485.419 578.358 479.222 584.492 479.222 592.027V671.835C479.222 679.369 485.386 685.504 493.005 685.504H688.313C695.967 685.504 702.199 679.37 702.199 671.835V592.027C702.233 584.493 696.002 578.358 688.348 578.358ZM609.844 658.2H523.381C519.859 658.2 517.014 655.4 517.014 651.933C517.014 648.466 519.859 645.665 523.381 645.665H609.844C613.366 645.665 616.211 648.466 616.211 651.933C616.245 655.4 613.4 658.2 609.844 658.2ZM658.071 618.196H523.418C519.896 618.196 517.051 615.396 517.051 611.929C517.051 608.462 519.896 605.661 523.418 605.661H658.071C661.593 605.661 664.438 608.462 664.438 611.929C664.438 615.396 661.593 618.196 658.071 618.196Z" fill="black"/>
<path d="M768.814 243.886H47.1796C18.2914 243.886 -3.79008 269.223 0.54489 297.325L57.4752 702.563C60.9974 725.231 80.8095 742 104.11 742H711.89C735.191 742 755.003 725.232 758.525 702.563L815.455 297.325C819.79 269.222 797.702 243.886 768.814 243.886ZM714.965 671.834C714.965 686.302 703.01 698.069 688.312 698.069H493.005C478.374 698.069 466.487 686.302 466.487 671.834V592.025C466.487 577.557 478.374 565.789 493.005 565.789H688.312C703.01 565.789 714.965 577.557 714.965 592.025V671.834Z" fill="black"/>
</svg>
