<svg width="741" height="824" viewBox="0 0 741 824" fill="none" xmlns="http://www.w3.org/2000/svg">
<path d="M71.7889 289.147H669.168C674.979 289.147 680.937 289.656 686.932 290.604C693.441 291.621 699.877 293.213 706.13 295.28L615.988 52.0084C610.103 36.0844 599.438 23.0738 585.794 14.061C572.149 5.0481 555.268 0 536.953 0H204.044C185.729 0 168.884 5.08228 155.203 14.061C141.559 23.04 130.893 36.0844 125.009 52.0084L34.8666 295.28C41.1188 293.213 47.5553 291.621 54.0649 290.604C60.0597 289.656 66.0174 289.147 71.8284 289.147H71.7889ZM505.364 133.801V87.0448H235.64V133.801H505.364ZM194.59 133.801V68.1387C194.59 57.7033 203.785 49.2326 215.112 49.2326H525.886C537.214 49.2326 546.408 57.703 546.408 68.1387V133.801H562.664C573.992 133.801 583.187 142.272 583.187 152.707V231.414C583.187 241.85 573.992 250.32 562.664 250.32C551.337 250.32 542.142 241.85 542.142 231.414V171.58H198.896V231.414C198.896 241.85 189.701 250.32 178.374 250.32C167.046 250.32 157.851 241.85 157.851 231.414V152.707C157.851 142.272 167.046 133.801 178.374 133.801H194.63H194.59ZM252.993 405.054H487.966C509.334 405.054 528.826 413.118 542.948 426.129C557.144 439.139 565.898 457.097 565.898 476.85C565.898 496.535 557.108 514.492 543.022 527.503C528.826 540.581 509.334 548.645 487.965 548.645H252.992C231.551 548.645 212.058 540.547 197.935 527.57L196.795 526.419C183.371 513.509 175.06 496.027 175.06 476.85C175.06 457.097 183.849 439.139 197.935 426.129C212.021 413.118 231.551 405.054 252.993 405.054ZM487.966 442.833H252.993C242.843 442.833 233.611 446.661 226.955 452.827C220.261 458.994 216.106 467.498 216.106 476.815C216.106 485.794 219.93 494.027 226.551 500.465C233.649 506.97 242.88 510.799 253.031 510.799H488.004C498.154 510.799 507.422 506.97 514.079 500.838C520.736 494.672 524.891 486.134 524.891 476.816C524.891 467.465 520.735 458.961 514.042 452.794C507.385 446.628 498.154 442.8 488.004 442.8L487.966 442.833ZM669.169 326.961H71.7898C68.0385 326.961 64.3607 327.232 60.9041 327.808C44.8692 330.349 29.4218 338.175 18.0578 349.357C15.6305 351.694 13.4606 354.202 10.6654 357.861C3.97186 367.077 0 377.647 0 388.896C0 391.946 0.257442 394.961 0.809111 397.841L65.8317 746.784C70.1715 769.993 79.623 791.101 93.7089 805.433C104.926 816.885 119.417 824 136.812 824H604.188C621.584 824 636.074 816.885 647.291 805.433C661.34 791.101 670.829 769.993 675.168 746.784L740.191 397.841C740.743 394.927 741 391.945 741 388.896C741 377.58 736.954 366.907 729.636 356.878C727.576 354.168 725.37 351.694 722.979 349.323C711.578 338.141 696.168 330.315 680.133 327.774C676.639 327.231 672.998 326.927 669.247 326.927L669.169 326.961Z" fill="black"/>
</svg>
