<svg width="835" height="817" viewBox="0 0 835 817" fill="none" xmlns="http://www.w3.org/2000/svg">
<path d="M790.174 225.32L620.537 391.3C642.51 414.52 656.574 445.48 656.574 479.02C656.574 549.54 597.684 607.16 525.611 607.16H345.426C273.353 607.16 214.463 549.54 214.463 479.02V303.58C214.463 233.06 273.353 175.44 345.426 175.44C380.584 175.44 411.347 189.2 435.079 210.7L605.595 43.86C548.463 15.48 485.179 0 417.5 0C187.216 0 0 183.18 0 408.5C0 633.82 187.216 817 417.5 817C532.642 817 637.237 771.42 712.826 697.46C788.416 623.5 835 521.16 835 408.5C835 342.28 819.179 280.36 790.174 225.32Z" fill="black"/>
<path d="M388.495 303.58C388.495 280.36 369.158 260.58 344.547 260.58C319.937 260.58 300.6 279.5 300.6 303.58V479.88C300.6 503.1 319.937 522.88 344.547 522.88H524.732C548.463 522.88 568.679 503.96 568.679 479.88C568.679 455.8 549.342 436.88 524.732 436.88H450.021L778.747 116.1C795.447 99.76 795.447 72.24 778.747 55.9C761.168 38.7 733.921 38.7 716.342 55.9L388.495 376.68V303.58Z" fill="black"/>
</svg>
