<svg width="473" height="400" viewBox="0 0 473 400" fill="none" xmlns="http://www.w3.org/2000/svg">
<path d="M48.3322 11.4086V285.557C48.333 291.53 53.4489 296.964 59.0722 296.965C115.856 296.657 157.834 309.551 212.285 353.648C148.796 353.648 85.3069 353.648 21.8178 353.648L21.4822 57.0406C21.6137 50.5691 15.6248 44.7455 9.56749 45.4544C4.29007 46.0703 -0.112098 51.4026 0.00217592 57.0406L0.337801 365.056C0.338284 371.03 5.4545 376.464 11.0778 376.464H201.377C206.503 389.726 219.884 399.28 236.114 399.28C252.583 399.28 266.272 389.701 271.355 376.464H461.822C467.445 376.464 472.562 371.03 472.562 365.056L472.227 57.0406C472.299 51.0188 467.156 45.4857 461.487 45.4857C455.817 45.4857 450.674 51.0188 450.747 57.0406L451.082 353.648C387.537 353.648 323.992 353.648 260.447 353.648C314.846 309.62 356.745 296.658 413.492 296.965C419.115 296.964 424.231 291.53 424.232 285.557V11.4086C424.231 5.43562 419.115 0.00153725 413.492 0.000624606C327.666 0.000624606 286.112 39.2465 236.282 72.0136C186.453 39.2465 144.898 0.000624606 59.0722 0.000624606C53.0309 -0.0723866 48.4644 6.26989 48.3322 11.4086ZM32.2222 45.6326V308.016H42.9622V45.6326H32.2222ZM429.602 45.6326V308.016H440.342V45.6326H429.602Z" fill="black"/>
</svg>
