<svg width="821" height="821" viewBox="0 0 821 821" fill="none" xmlns="http://www.w3.org/2000/svg">
<path fill-rule="evenodd" clip-rule="evenodd" d="M772.676 243.31H773.823C787.207 243.31 799.965 249.554 808.934 260.442C817.903 271.369 822.179 285.95 820.719 300.531L773.927 774.858C771.355 801.127 751.123 821 726.997 821H76.0824C51.5395 821 31.0984 800.365 29.0471 773.602L0.158554 393.043C-0.91908 378.651 3.53065 364.413 12.4647 353.792C21.3989 343.132 33.9836 337.117 47.1583 337.117H47.5755V51.7005C47.5755 37.9955 52.5466 24.8225 61.4115 15.1524C70.2414 5.48232 82.27 0 94.7844 0H255.179C265.956 0 276.35 4.53041 284.172 12.6398L367.083 98.528C367.152 98.6041 367.291 98.6803 367.396 98.6803H725.42C751.493 98.6803 772.629 121.789 772.629 150.343V243.313L772.676 243.31ZM132.37 337.117H343.002C343.106 337.117 343.21 337.041 343.349 336.965L423.653 255.607C431.44 247.688 441.66 243.31 452.298 243.31H688.587V166.863H132.372L132.37 337.117Z" fill="black"/>
</svg>
