<svg width="824" height="585" viewBox="0 0 824 585" fill="none" xmlns="http://www.w3.org/2000/svg">
<path d="M378.774 558.262L368.142 544.256C357.51 528.977 354.852 509.878 358.839 493.326C361.497 480.594 369.471 470.408 378.774 461.495C299.032 419.478 235.239 369.821 187.394 308.705C146.194 253.955 151.51 180.107 199.355 131.723C202.013 116.444 207.329 102.439 216.632 88.4328C237.897 57.8748 272.452 40.0493 310.994 40.0493C341.561 40.0493 369.471 51.5086 390.736 71.8805C393.394 74.427 396.052 76.9736 398.71 79.5201V45.1423C275.11 6.94483 150.181 -10.8807 22.5935 6.94483C9.30323 8.21808 0 19.6773 0 32.4098V517.518C0 532.797 14.6194 544.256 30.5677 542.983C146.194 526.431 269.794 545.529 398.71 582.453V570.994C390.735 569.721 384.09 564.628 378.774 558.262ZM159.484 511.152H132.903C111.639 511.152 93.0323 493.326 93.0323 472.954V422.024C93.0323 415.658 99.6774 409.292 106.323 409.292C112.968 409.292 119.613 415.658 119.613 422.024V472.954C119.613 479.32 126.258 485.687 132.903 485.687H159.484C166.129 485.687 172.774 492.053 172.774 498.419C172.774 504.785 166.129 511.152 159.484 511.152ZM265.806 472.954C265.806 493.326 248.529 511.152 225.936 511.152C204.671 511.152 186.065 493.326 186.065 472.954V447.489C186.065 425.844 204.671 409.292 225.936 409.292C248.529 409.292 265.806 425.844 265.806 447.489V472.954Z" fill="black"/>
<path d="M225.935 434.757C219.29 434.757 212.645 441.123 212.645 447.489V472.954C212.645 479.32 219.29 485.687 225.935 485.687C232.581 485.687 239.226 479.32 239.226 472.954V447.489C239.226 441.123 232.581 434.757 225.935 434.757Z" fill="black"/>
<path d="M801.406 9.49136C673.819 -9.60738 547.561 8.21811 425.29 47.6888V82.0666C427.948 79.5201 430.606 76.9736 433.264 74.4271C454.529 54.0551 482.439 42.5958 513.006 42.5958C550.219 42.5958 586.103 60.4213 607.368 90.9793C616.671 104.985 621.987 118.991 624.645 134.27C673.819 182.653 677.806 256.502 635.277 308.705C592.748 360.908 536.929 406.745 463.832 448.762C466.49 458.948 466.49 470.408 463.832 480.594C459.845 493.326 453.2 504.785 442.568 512.425L445.226 516.245C457.187 534.07 451.871 556.989 434.594 569.721C431.935 570.994 429.277 572.268 425.29 573.541V585C555.535 548.076 677.806 528.977 793.432 545.529C809.381 548.076 824 535.343 824 520.064V34.9563C824 22.2238 814.697 10.7646 801.406 9.49136ZM637.935 425.844L611.355 502.239C610.026 507.332 604.71 511.152 598.065 511.152C591.419 511.152 587.432 507.332 584.774 502.239L558.194 425.844C555.535 419.478 559.523 411.838 566.168 409.292C572.813 406.745 580.787 410.565 583.445 416.931L596.735 457.675L610.026 416.931C612.684 410.565 619.329 406.745 627.303 409.292C635.277 411.838 639.265 419.478 637.935 425.844ZM691.097 447.489C697.742 447.489 704.387 453.855 704.387 460.222C704.387 466.588 697.742 472.954 691.097 472.954H677.806C677.806 479.32 684.452 485.687 691.097 485.687H717.677C724.323 485.687 730.968 492.053 730.968 498.419C730.968 504.785 724.323 511.152 717.677 511.152H691.097C669.832 511.152 651.226 493.326 651.226 472.954V447.489C651.226 425.844 669.832 409.292 691.097 409.292H717.677C724.323 409.292 730.968 415.658 730.968 422.024C730.968 428.39 724.323 434.757 717.677 434.757H691.097C684.452 434.757 677.806 441.123 677.806 447.489H691.097Z" fill="black"/>
<path d="M413.329 514.971C410.671 512.425 410.671 508.605 412 504.785C413.329 500.966 415.987 498.419 418.645 497.146C429.277 492.053 435.923 483.14 438.581 472.954C441.239 462.768 439.91 451.309 433.264 442.396L427.948 434.757C483.768 388.92 531.613 334.17 566.168 269.234C592.748 219.577 615.342 149.549 584.774 104.985C552.877 60.4213 489.084 56.6016 451.871 92.2525C425.29 117.718 412 155.915 412 168.647C412 155.915 398.71 117.718 372.129 92.2525C334.916 56.6016 271.123 60.4213 239.226 104.985C207.329 149.549 229.923 219.577 257.832 269.234C295.045 339.263 342.89 394.013 400.039 438.576C400.039 439.85 401.368 441.123 401.368 442.396L412 457.675C414.658 460.222 414.658 464.041 413.329 467.861C412 471.681 409.342 474.227 406.684 475.501C396.052 480.594 389.406 489.506 386.748 499.692C384.09 509.878 385.419 521.338 392.065 530.25L402.697 544.256C405.355 548.076 409.342 549.349 413.329 549.349C415.987 549.349 418.645 548.076 421.303 546.802C427.948 542.983 429.277 535.343 425.29 528.977L413.329 514.971Z" fill="black"/>
<path d="M209.987 292.153C236.568 325.257 268.465 354.542 303.019 381.28C276.439 350.722 253.845 316.344 233.91 279.42C220.619 253.955 203.342 215.758 198.026 176.287C179.419 213.211 182.077 257.775 209.987 292.153Z" fill="black"/>
<path d="M614.013 292.153C641.923 257.775 644.581 213.211 624.645 176.287C619.329 218.304 600.723 257.775 590.09 279.42C570.155 315.071 547.561 348.176 520.981 378.734C556.865 353.269 587.432 323.984 614.013 292.153Z" fill="black"/>
</svg>
