<svg width="822" height="785" viewBox="0 0 822 785" fill="none" xmlns="http://www.w3.org/2000/svg">
<path d="M789.12 239.632L708.651 316.479C715.573 340.442 719.034 366.058 719.034 392.5C719.034 554.458 580.592 686.668 411 686.668C241.408 686.668 102.966 554.458 102.966 392.5C102.966 230.542 241.408 98.3316 411 98.3316C438.688 98.3316 465.512 102.463 490.604 108.247L571.074 31.4C521.754 11.5684 467.242 0 411 0C184.301 0 0 176.005 0 392.5C0 608.995 184.301 785 411 785C637.699 785 822 608.995 822 392.5C822 337.963 810.752 286.732 789.12 239.632Z" fill="black"/>
<path d="M377.255 271.858C377.255 244.589 353.893 223.105 326.204 223.105C297.651 223.105 275.154 245.416 275.154 271.858V474.305C275.154 501.574 298.516 523.058 326.204 523.058H538.194C566.747 523.058 589.244 500.747 589.244 474.305C589.244 447.037 565.882 425.553 538.194 425.553H449.937L777.872 111.553C797.773 92.5474 797.773 61.1474 777.872 42.1421C757.971 23.1369 725.091 23.1369 705.189 42.1421L377.255 355.316V271.858Z" fill="black"/>
</svg>
