<svg width="764" height="782" viewBox="0 0 764 782" fill="none" xmlns="http://www.w3.org/2000/svg">
<path d="M763.704 166.356C755.115 -55.5909 8.61079 -55.3133 0.305015 166.356C1.29104 195.53 -5.03878 240.934 13.0283 266.186V488.169C13.0283 519.931 31.5404 549.349 63.9216 574.43V740.024C63.9216 763.18 81.0347 782 102.091 782H127.538C148.595 782 165.708 763.18 165.708 740.024C186.701 740.024 203.878 721.134 203.878 698.048V635.853C306.747 662.543 457.261 662.543 560.131 635.853V698.048C560.131 721.134 577.307 740.024 598.301 740.024C598.301 763.18 615.414 782 636.471 782H661.917C682.974 782 700.087 763.18 700.087 740.024V574.43C732.468 549.349 750.98 519.931 750.98 488.169V266.186C769.015 241.07 762.718 195.456 763.704 166.356ZM51.1983 326.882C51.4209 323.069 50.4985 311.316 52.1207 307.923C59.5956 313.59 67.7706 319.012 76.6447 324.188C78.6486 344.302 52.1524 347.031 51.1981 326.847L51.1983 326.882ZM76.6449 382.081V395.898C76.3586 414.298 51.4849 414.298 51.1983 395.898V382.081C51.4845 363.681 76.3582 363.681 76.6449 382.081ZM51.1983 464.914V451.097C51.4845 432.697 76.3582 432.697 76.6449 451.097V464.914C76.3586 483.314 51.4849 483.314 51.1983 464.914ZM79.0308 535.608C70.124 528.647 58.3551 517.279 68.2161 505.701C77.9176 495.382 86.7283 506.086 94.5218 513.431C107.691 524.66 92.2308 546.696 79.0308 535.608ZM140.261 740.031C140.261 747.762 134.568 754.023 127.538 754.023H102.091C95.0619 754.023 89.3682 747.762 89.3682 740.031V591.541C104.477 600.461 121.526 608.611 140.261 615.922V740.031ZM153.812 562.124C148.246 576.641 134.536 569.295 125.312 564.503C118.887 561.424 115.929 553.169 118.759 546.068C121.59 539.002 129.033 535.749 135.522 538.862C145.002 542.99 158.679 547.607 153.844 562.124L153.812 562.124ZM178.431 698.059C178.431 705.755 172.706 712.051 165.708 712.051V625.021C169.875 626.385 174.105 627.714 178.431 628.973V698.059ZM214.152 581.055C210.621 595.956 195.926 591.094 186.319 587.701C179.544 585.672 175.537 577.977 177.381 570.525C181.357 555.799 194.939 560.906 204.863 564.089C211.67 565.943 215.838 573.534 214.152 581.055ZM263.391 604.876C252.831 603.862 236.259 602.428 238.422 586.442C240.998 571.33 255.09 574.933 265.236 577.032C280.663 579.69 278.882 604.737 263.391 604.876ZM325.831 612.117C315.271 611.733 299.812 611.907 300.607 595.991C302.166 580.635 316.384 583.014 326.626 584.168C342.817 585.567 341.99 611.908 325.831 612.117ZM388.652 614.076C385.471 614.076 379.078 614.111 375.929 614.076C359.261 613.656 359.325 586.407 375.992 586.092C379.142 586.127 385.28 586.092 388.429 586.092C405.192 586.337 405.32 613.586 388.652 614.076ZM452.269 611.033C442.058 612.362 427.236 614.531 426.027 598.999C425.549 583.433 439.863 583.713 450.233 583.154C466.837 581.999 469 609.214 452.301 611.033H452.269ZM515.599 602.498C505.547 604.737 490.883 608.27 488.53 592.879C487.512 585.218 492.315 578.117 499.281 576.998C509.587 574.969 523.391 571.156 526.096 586.408C527.241 594.033 522.565 601.239 515.63 602.499L515.599 602.498ZM578.197 587.561C568.432 590.884 554.087 596.026 550.365 580.915C547.248 565.943 561.625 563.04 571.518 560.557C587.677 556.079 594.293 582.384 578.197 587.561ZM598.301 712.052C591.303 712.052 585.577 705.756 585.577 698.06V628.975C589.903 627.716 594.134 626.386 598.301 625.022V712.052ZM610.674 561.914C608.097 554.743 611.278 546.593 617.831 543.76C627.278 539.108 639.905 531.972 645.758 545.789C648.589 552.855 645.695 561.11 639.269 564.258C630.045 569.085 616.272 576.467 610.706 561.95L610.674 561.914ZM674.64 740.036C674.64 747.767 668.947 754.028 661.917 754.028H636.471C629.441 754.028 623.747 747.767 623.747 740.036V615.966C642.482 608.655 659.531 600.47 674.64 591.585V740.075V740.036ZM696.047 524.975C689.177 533.126 676.421 545.229 667.515 532.671C659.404 520.358 670.696 512.418 678.044 505.177C689.845 492.304 707.753 511.963 696.047 524.975ZM712.81 464.355C712.524 482.755 687.65 482.755 687.364 464.355V450.538C687.65 432.138 712.524 432.138 712.81 450.538V464.355ZM712.81 395.34C712.524 413.739 687.65 413.739 687.364 395.34V381.522C687.65 363.122 712.524 363.122 712.81 381.522V395.34ZM712.81 326.324C712.174 346.122 685.646 343.884 687.364 324.225C696.302 319.013 704.509 313.521 712.015 307.855C713.414 310.933 712.62 322.896 712.81 326.324ZM725.534 257.658C628.869 395.832 134.692 395.545 38.4749 257.658V241.007C42.451 244.61 46.6814 248.143 51.1983 251.606V257.308C50.7848 269.865 66.2439 276.127 73.4007 266.613C209.892 355.567 554.281 355.498 690.675 266.648C697.832 276.162 713.258 269.866 712.845 257.343V251.676C717.362 248.213 721.624 244.68 725.569 241.077V257.728L725.534 257.658Z" fill="black"/>
</svg>
