<svg width="673" height="816" viewBox="0 0 673 816" fill="none" xmlns="http://www.w3.org/2000/svg">
<path d="M621.941 783.601C604.547 783.474 530.915 783.601 528.985 783.601C528.083 790.518 528.985 805.658 528.631 813.913C528.631 816.718 528.502 815.825 530.306 815.984C545.67 815.984 617.308 815.857 621.943 815.793C622.845 808.654 621.749 791.378 622.007 783.729V783.601L621.941 783.601Z" fill="black"/>
<path d="M49.2387 783.732C49.3031 791.254 48.9488 808.88 49.1742 815.605C49.2387 816.019 127.929 815.669 143.458 815.796C146.002 815.446 146.292 816.975 146.228 813.756V786.537C146.035 784.943 146.582 784.082 145.938 783.604C144.424 783.477 67.0224 783.604 49.3704 783.604V783.732L49.2387 783.732Z" fill="black"/>
<path d="M167.353 0.4106C139.362 2.54612 112.337 22.0841 106.539 50.0371C149.54 51.6308 192.866 49.9734 238.639 50.7065C239.895 50.4834 239.67 49.814 239.251 48.1566C230.65 18.5782 199.342 -2.07536 168.387 0.3464H167.356L167.353 0.4106Z" fill="black"/>
<path d="M493.322 0.410786C465.814 3.02438 438.113 23.1687 433.603 50.93C471.354 51.4718 526.625 50.93 566.346 50.93C566.829 50.8025 566.893 50.2606 566.636 49.2725C558.165 18.8332 526.276 -2.74477 494.355 0.283252L493.322 0.410786Z" fill="black"/>
<path d="M0.246251 130.044C0.536152 160.132 0.0529914 190.858 0.246251 215.94C0.439518 217.119 0.0207853 219.031 1.69572 219.095C8.49215 219.286 61.2534 219.095 79.4199 219.159C194.541 219.095 641.04 219.446 672.449 218.936C672.578 198.218 672.449 150.312 672.449 127.491V102.822C673.351 88.3515 671.611 71.7133 657.02 63.8091C646.133 58.1357 634.151 60.1756 622.039 59.7612C611.248 59.7612 596.496 59.9525 586.446 59.9843C547.246 60.0481 414.181 60.2712 413.67 60.2712C284.539 60.4624 165.328 60.5581 76.8085 60.3987C65.1158 60.3987 50.2022 60.3987 37.8655 60.2075C17.6375 57.9763 -0.722804 69.897 0.179297 91.5068C0.179297 103.587 0.372561 117.898 0.243711 129.628L0.246251 130.044ZM531.266 120.896C559.45 88.9587 607.38 128.099 580.387 161.343C553.104 191.432 505.658 154.267 530.654 121.597L531.266 120.896ZM438.112 122.426C463.268 89.2459 514.161 123.095 491.453 158.411C466.876 192.197 415.339 158.762 437.564 123.191L438.112 122.426ZM340.835 133.199C353.365 90.3613 417.464 109.294 402.84 151.973C388.635 187.671 333.297 172.117 340.641 134.028L340.867 133.199L340.835 133.199ZM98.1911 114.681C134.203 70.1859 201.265 121.183 166.22 166.507C130.563 206.795 67.4339 160.611 97.5792 115.446L98.1911 114.681Z" fill="black"/>
<path d="M545.155 159.712C566.479 171.983 588.865 144.445 572.599 125.99C549.311 102.882 516.907 140.652 544.414 159.297L545.187 159.776L545.155 159.712Z" fill="black"/>
<path d="M452.645 158.888C474.741 172.721 499.189 143.876 480.41 125.23C457.219 104.257 426.457 139.063 451.872 158.41L452.581 158.888L452.645 158.888Z" fill="black"/>
<path d="M361.231 159.173C383.875 171.923 407.291 141.898 387.418 124.144C363.228 105.084 334.722 140.304 360.49 158.695L361.263 159.173L361.231 159.173Z" fill="black"/>
<path d="M23.3053 774.006C157.202 774.611 479.535 774.07 625.743 774.229C637.596 773.623 651.221 776.842 661.69 768.747C678.536 756.188 671.127 732.953 672.641 715.487C672.223 706.243 672.931 649.891 672.641 629.811C671.933 622.257 674.445 313.53 671.546 228.433C623.456 229.613 14.0344 225.565 0.313178 229.676V621.972C-0.169982 624.012 0.667496 626.148 0.313178 632.873C0.44202 656.459 0.248753 705.799 0.313178 714.15C1.34392 735.473 -6.83759 768.175 22.4097 773.785L23.2472 773.912L23.3053 774.006ZM582.74 675.103C579.197 690.881 563.414 697.032 548.307 695.312C538.966 695.184 529.399 695.439 520.606 695.312C496.287 695.248 448.841 695.375 439.564 695.312H205.488C189.351 695.248 149.506 695.375 142.935 695.312C127.217 694.483 108.147 699.423 96.2296 685.909C85.8901 675.359 89.9808 659.168 89.2399 646.099C88.95 638.832 89.4653 610.369 89.2399 594.337C89.3687 589.11 89.1755 587.548 89.2399 585.157C89.2399 578.432 89.111 386.398 89.111 375.399C89.2399 371.542 89.3365 365.869 91.3336 361.342C100.417 341.263 123.673 348.593 142.259 347.286C152.083 347.477 197.822 347.095 222.269 347.222C295.355 347.095 469.226 347.095 495.802 347.095C514.935 347.286 531.75 346.967 540.414 347.095C552.751 347.445 568.116 344.64 577.392 355.254C585.703 363.668 583.126 376.45 583.416 387.192C583.287 403.033 583.545 415.017 583.416 430.73C582.804 526.002 584.511 596.533 582.868 674.049L582.643 674.941L582.74 675.103ZM77.5469 286.251C81.9275 260.083 105.86 257.405 128.793 259.031C145.414 259.095 167.027 259.031 182.199 259.031C254.673 259.031 357.746 258.904 463.78 259.031C494.541 258.967 516.508 259.031 539.926 259.031C550.813 259.382 563.214 257.597 574.069 260.338C600.321 267.733 603.22 306.682 578.289 318.188C567.466 323.734 554.872 321.758 543.243 322.013H495.572C481.529 322.013 378.101 322.076 333.614 322.013H129.557C119.443 321.789 107.268 323.319 97.54 319.686C84.4307 314.745 75.7338 300.785 77.3763 287.143L77.5052 286.123L77.5469 286.251Z" fill="black"/>
<path d="M555.718 574.325C555.525 536.618 555.718 416.102 555.654 405.43C555.654 383.788 534.266 371.166 514.006 373.779C421.173 374.066 338.681 373.907 221.276 374.13C193.833 374.002 187.809 374.321 163.49 374.257C148.932 373.652 131.087 373.11 122.068 386.943C113.403 399.151 116.882 415.247 116.463 429.112C116.528 471.759 116.592 560.171 116.463 588.607C117.623 610.823 113.403 632.146 120.007 649.326C128.607 669.47 151.444 671.733 170.77 670.298C179.273 670.298 193.414 670.235 201.37 670.298C270.654 670.171 379.877 670.426 472.355 670.298C487.042 670.075 507.045 670.968 522.442 670.298C547.115 668.099 558.872 645.278 555.909 622.329C555.78 608.56 555.78 588.065 555.78 574.614V574.391L555.718 574.325Z" fill="black"/>
</svg>
