<svg width="768" height="801" viewBox="0 0 768 801" fill="none" xmlns="http://www.w3.org/2000/svg">
<path d="M0.00175499 253.667V760.356C0.00175499 782.804 17.3163 801 38.6753 801H729.326C750.686 801 768 782.803 768 760.356V253.667H0.00175499ZM627.458 732.573H140.33C125.69 732.573 113.827 720.105 113.862 704.72L113.896 669.48H653.959L653.924 704.756C653.924 720.106 642.063 732.573 627.458 732.573ZM56.807 325.588C56.807 296.547 79.2983 272.909 106.932 272.909H661.056C688.689 272.909 711.181 296.547 711.181 325.588V340.253C711.181 369.295 688.689 392.932 661.056 392.932H654.096L653.959 640.65H542.323C548.289 632.074 551.82 622.958 551.82 613.374C551.82 584.98 523.363 559.973 479.992 544.84V585.737C479.992 593.808 473.82 600.15 466.277 600.15C458.734 600.15 452.563 593.808 452.563 585.737V537.165C457.089 538.102 461.477 539.219 465.797 540.408C445.363 534.715 422.289 531.112 397.706 530.103V564.982C397.706 572.909 391.535 579.395 383.992 579.395C376.449 579.395 370.278 572.909 370.278 564.982V530.103C345.695 531.112 322.621 534.715 302.187 540.408C306.507 539.219 310.93 538.102 315.421 537.165V585.737C315.421 593.808 309.25 600.15 301.707 600.15C294.164 600.15 287.993 593.808 287.993 585.737V544.84C244.587 559.973 216.165 584.98 216.165 613.374C216.165 622.959 219.73 632.074 225.661 640.65H113.894L114.031 392.932H106.934C79.3004 392.932 56.8091 369.295 56.8091 340.253L56.807 325.588Z" fill="black"/>
<path d="M106.942 301.697H661.065C673.614 301.697 683.762 314.885 683.762 325.55V340.215C683.762 353.403 673.579 364.068 661.065 364.068H106.942C94.3931 364.068 84.2451 350.88 84.2451 340.215V325.55C84.2451 312.363 94.4282 301.697 106.942 301.697Z" fill="black"/>
<path d="M701.343 27.6728C701.343 12.3956 689.549 0 675.012 0H572.979C558.442 0 546.647 12.3956 546.647 27.6728V30.8437H701.343V27.6728Z" fill="black"/>
<path d="M221.351 27.6728C221.351 12.3956 209.556 0 195.02 0H92.9862C78.4496 0 66.6549 12.3956 66.6549 27.6728V30.8437H221.351V27.6728Z" fill="black"/>
<path d="M461.343 27.6728C461.343 12.3956 449.548 0 435.012 0H332.978C318.441 0 306.647 12.3956 306.647 27.6728V30.8437H461.343V27.6728Z" fill="black"/>
<path d="M371.009 530.108C375.295 529.964 379.58 529.82 384.004 529.82C388.427 529.82 392.712 529.964 396.998 530.108C392.678 529.964 388.392 529.785 384.004 529.785C379.615 529.785 375.329 529.928 371.009 530.108Z" fill="black"/>
<path d="M729.325 59.6709H38.6736C17.2794 59.6709 0 77.8317 0 100.315V224.843H767.995V100.315C767.995 77.8307 750.718 59.6709 729.325 59.6709ZM89.1418 188.34C68.7079 188.34 52.1824 170.937 52.1824 149.498C52.1824 128.023 68.7421 110.655 89.1418 110.655C109.576 110.655 126.101 128.059 126.101 149.498C126.101 170.973 109.542 188.34 89.1418 188.34ZM201.875 188.34C181.441 188.34 164.915 170.937 164.915 149.498C164.915 128.023 181.475 110.655 201.875 110.655C222.309 110.655 238.834 128.059 238.834 149.498C238.834 170.973 222.274 188.34 201.875 188.34ZM476.571 167.982C476.571 175.261 470.948 181.17 464.022 181.17H303.946C297.02 181.17 291.397 175.261 291.397 167.982V130.941C291.397 123.663 297.02 117.753 303.946 117.753H464.022C470.948 117.753 476.571 123.663 476.571 130.941V167.982ZM566.124 188.34C545.69 188.34 529.164 170.937 529.164 149.498C529.164 128.023 545.724 110.655 566.124 110.655C586.558 110.655 603.083 128.059 603.083 149.498C603.083 170.973 586.523 188.34 566.124 188.34ZM678.856 188.34C658.423 188.34 641.897 170.937 641.897 149.498C641.897 128.023 658.457 110.655 678.856 110.655C699.29 110.655 715.816 128.059 715.816 149.498C715.816 170.973 699.256 188.34 678.856 188.34Z" fill="black"/>
<path d="M326.5 417.905C331.643 412.284 331.643 403.384 326.432 397.799C321.118 392.106 312.443 392.034 307.027 397.582C306.067 398.555 284.124 421.868 304.558 457.865C306.067 460.964 307.644 466.981 301.335 472.134C295.37 477.034 294.307 486.078 298.97 492.348C301.678 495.987 305.724 497.897 309.804 497.897C312.753 497.897 315.735 496.888 318.238 494.834C338.878 477.899 334.078 454.19 328.456 443.632C319.473 427.778 325.164 419.49 326.536 417.869L326.5 417.905Z" fill="black"/>
<path d="M395.831 417.905C400.973 412.284 400.973 403.384 395.762 397.799C390.448 392.106 381.773 392.034 376.357 397.582C375.397 398.555 353.454 421.868 373.888 457.865C375.397 460.964 376.974 466.981 370.665 472.134C364.7 477.034 363.603 486.114 368.265 492.384C370.974 496.023 375.02 497.933 379.1 497.933C382.048 497.933 385.031 496.924 387.534 494.906C408.174 477.971 403.374 454.225 397.751 443.704C388.769 427.85 394.46 419.562 395.831 417.941L395.831 417.905Z" fill="black"/>
<path d="M467.074 443.668C458.092 427.814 463.783 419.526 465.154 417.905C470.297 412.284 470.297 403.384 465.086 397.799C459.771 392.106 451.097 392.034 445.68 397.582C444.72 398.555 422.778 421.868 443.212 457.865C444.72 460.964 446.298 466.981 439.989 472.134C434.023 477.034 432.96 486.078 437.623 492.348C440.332 495.987 444.378 497.897 448.458 497.897C451.406 497.897 454.389 496.888 456.892 494.834C477.532 477.899 472.732 454.19 467.109 443.632L467.074 443.668Z" fill="black"/>
</svg>
