<svg width="847" height="829" viewBox="0 0 847 829" fill="none" xmlns="http://www.w3.org/2000/svg">
<path d="M2.43158 503.116L311.7 826.45C313.335 828.16 315.469 829 317.574 829C319.708 829 321.842 828.16 323.45 826.45L352.492 796.116C360.916 788.496 626.925 547.849 723.974 440.622C786.409 371.667 822.823 313.809 838.591 258.5C859.458 185.315 841.445 118.881 785.051 61.0224C733.312 7.94433 671.043 -5.20936 605.005 22.9809C581.643 32.9481 545.562 53.4602 506.156 94.6882L505.712 95.1812C438.233 165.701 423.573 163.035 422.132 162.514C410.771 158.313 415.87 139.886 416.063 139.103C416.174 138.756 416.258 138.35 416.313 137.974C427.786 63.7166 397.469 15.4775 364.436 2.0918C355.706 -1.44277 345.065 -0.486451 333.675 4.87306C293.133 23.9373 248.488 92.9213 214.208 189.429C164.298 329.888 33.1924 458.759 31.89 460.062C31.8345 460.091 31.8345 460.12 31.779 460.149C31.7513 460.207 31.7235 460.236 31.668 460.265L2.43158 490.832C-0.810527 494.221 -0.810527 499.726 2.43158 503.116ZM20.0568 496.973L37.5434 478.691L335.061 789.742L317.574 808.024L20.0568 496.973Z" fill="black"/>
</svg>
