<svg width="766" height="756" viewBox="0 0 766 756" fill="none" xmlns="http://www.w3.org/2000/svg">
<path fill-rule="evenodd" clip-rule="evenodd" d="M756.943 223.964C747.803 132.05 681.704 62.6351 600.033 44.9171V27C600.033 12.0883 588.602 0 574.5 0C560.398 0 548.966 12.0883 548.966 27V40.5H408.533V27C408.533 12.0883 397.102 0 383 0C368.898 0 357.467 12.0883 357.467 27V40.5H217.033V27C217.033 12.0883 205.602 0 191.5 0C177.398 0 165.967 12.0883 165.967 27V44.877C83.6897 62.6443 17.2757 132.868 8.54177 225.458C-2.88095 346.549 -2.83844 449.308 8.61683 570.838C18.7628 678.476 106.78 756 207.163 756H558.55C658.397 756 746.188 679.29 756.815 572.218C769.023 449.229 769.057 345.782 756.943 223.964ZM158.488 250.908C148.517 240.363 132.349 240.363 122.379 250.908C112.407 261.452 112.407 278.548 122.379 289.092L142.624 310.5L122.379 331.908C112.407 342.452 112.407 359.548 122.379 370.092C132.349 380.637 148.517 380.637 158.488 370.092L178.733 348.683L198.979 370.092C208.949 380.637 225.117 380.637 235.088 370.092C245.06 359.548 245.06 342.452 235.088 331.908L214.842 310.5L235.088 289.092C245.06 278.548 245.06 261.452 235.088 250.908C225.117 240.363 208.949 240.363 198.979 250.908L178.733 272.317L158.488 250.908ZM362.754 250.908C352.784 240.363 336.616 240.363 326.645 250.908C316.673 261.452 316.673 278.548 326.645 289.092L346.891 310.5L326.645 331.908C316.673 342.452 316.673 359.548 326.645 370.092C336.616 380.637 352.784 380.637 362.754 370.092L383 348.683L403.245 370.092C413.216 380.637 429.384 380.637 439.354 370.092C449.327 359.548 449.327 342.452 439.354 331.908L419.109 310.5L439.354 289.092C449.327 278.548 449.327 261.452 439.354 250.908C429.384 240.363 413.216 240.363 403.245 250.908L383 272.317L362.754 250.908ZM530.912 289.092C520.94 278.548 520.94 261.452 530.912 250.908C540.883 240.363 557.05 240.363 567.021 250.908L587.266 272.317L607.512 250.908C617.483 240.363 633.65 240.363 643.621 250.908C653.593 261.452 653.593 278.548 643.621 289.092L623.376 310.5L643.621 331.908C653.593 342.452 653.593 359.548 643.621 370.092C633.65 380.637 617.483 380.637 607.512 370.092L587.266 348.683L567.021 370.092C557.05 380.637 540.883 380.637 530.912 370.092C520.94 359.548 520.94 342.452 530.912 331.908L551.157 310.5L530.912 289.092ZM122.379 453.408C132.349 442.863 148.517 442.863 158.488 453.408L178.733 474.817L198.979 453.408C208.949 442.863 225.117 442.863 235.088 453.408C245.06 463.952 245.06 481.048 235.088 491.592L214.842 513L235.088 534.408C245.06 544.952 245.06 562.048 235.088 572.592C225.117 583.137 208.949 583.137 198.979 572.592L178.733 551.183L158.488 572.592C148.517 583.137 132.349 583.137 122.379 572.592C112.407 562.048 112.407 544.952 122.379 534.408L142.624 513L122.379 491.592C112.407 481.048 112.407 463.952 122.379 453.408ZM383 445.5C347.746 445.5 319.167 475.721 319.167 513C319.167 550.279 347.746 580.5 383 580.5C418.254 580.5 446.833 550.279 446.833 513C446.833 475.721 418.254 445.5 383 445.5ZM523.433 513C523.433 475.721 552.013 445.5 587.266 445.5C622.52 445.5 651.1 475.721 651.1 513C651.1 550.279 622.52 580.5 587.266 580.5C552.013 580.5 523.433 550.279 523.433 513Z" fill="black"/>
</svg>
