<svg width="803" height="830" viewBox="0 0 803 830" fill="none" xmlns="http://www.w3.org/2000/svg">
<path d="M0 186.201V578.199C0 603.102 14.4079 626.161 36.5 638.152L401.5 830V395.574L0 186.201ZM334.263 682.424C334.263 700.871 314.092 712.862 296.803 703.638L179.618 642.763C170.974 638.152 166.171 629.85 166.171 621.549V555.14C166.171 536.693 186.342 524.703 203.632 533.926L320.816 594.801C329.46 599.413 334.263 607.714 334.263 616.015V682.424ZM803 186.201V555.14C803 591.112 782.829 625.239 749.21 642.763L401.5 830V395.574L0 186.201L161.368 106.879L564.789 316.252L565.75 410.332C565.75 410.332 571.513 429.701 603.21 427.856C633.947 426.012 622.421 396.496 643.553 398.341C681.974 401.108 680.053 376.205 680.053 376.205V259.067L268.947 54.3053L352.513 13.722C389.974 -4.72492 435.118 -4.72492 472.579 14.6444L803 186.201ZM307.368 629.851C304.487 635.385 297.763 637.229 292 634.462L191.145 584.655C185.382 581.888 183.461 575.432 186.342 569.898C189.224 564.364 195.947 562.519 201.711 565.286L302.566 615.093C308.329 617.86 310.25 624.316 307.368 629.851ZM307.368 668.589C304.487 674.123 297.763 675.968 292 673.201L191.145 623.394C185.382 620.627 183.461 614.171 186.342 608.636C189.224 603.102 195.947 601.258 201.711 604.025L302.566 653.832C308.329 656.599 310.25 663.055 307.368 668.589Z" fill="black"/>
</svg>
