<svg width="777" height="830" viewBox="0 0 777 830" fill="none" xmlns="http://www.w3.org/2000/svg">
<path d="M777 277.248V356.497C764.552 337.358 743.677 324.906 720.013 324.906H684.616L691.585 217.276H720.014C751.489 217.276 777 244.123 777 277.248Z" fill="black"/>
<path d="M689.029 66.861L672.432 325.657H631.686L627.666 199.67C626.694 170.911 604.489 148.429 577.131 148.429L538.2 149.828L531.717 101.146C528.183 75.2185 506.822 55.5684 481.926 55.5684C479.593 55.5684 477.291 55.7048 474.86 56.0801L270.446 86.2714L273.623 37.3505C274.952 15.3807 293.137 -1.43802 314.142 0.0973119L653.628 24.2504C674.601 25.7855 690.358 44.9253 689.029 66.861Z" fill="black"/>
<path d="M525.85 149.453L235.664 159.858C207.852 160.745 186.133 185.274 187.106 214.441L187.235 217.136C178.937 213.281 169.796 211.371 160.395 211.371H113.782L107.266 162.928C104.349 141.094 118.87 120.796 139.616 117.725L476.547 68.0202C497.551 64.9499 516.709 80.233 519.497 102.169L525.85 149.453Z" fill="black"/>
<path d="M615.414 199.294C614.669 177.188 597.1 159.858 575.997 160.506L236.021 172.718C215.016 173.367 198.549 191.993 199.294 214.066L199.651 224.334C204.773 227.951 209.538 232.556 213.557 237.707L231.256 260.052L245.778 278.543L249.182 282.841L412.203 277.042C415.51 276.973 418.395 279.703 418.492 283.25C418.621 286.798 415.963 289.766 412.592 289.869L259.072 295.327L268.959 307.813C277.516 318.73 289.964 324.904 303.384 324.904H619.469L615.414 199.294ZM281.339 228.871L248.599 230.031H248.372C245.098 230.031 242.375 227.302 242.278 223.822C242.148 220.274 244.806 217.306 248.178 217.204L280.917 216.044C284.256 215.976 287.109 218.705 287.206 222.253C287.368 225.767 284.71 228.769 281.339 228.871ZM567.176 284.342L446.136 288.641H445.909C442.635 288.641 439.912 285.912 439.815 282.432C439.685 278.884 442.343 275.916 445.714 275.814L566.754 271.515C570.093 271.379 572.946 274.176 573.043 277.724C573.173 281.272 570.547 284.24 567.176 284.342ZM567.176 218.706L318.714 227.541H318.488C315.214 227.541 312.491 224.812 312.393 221.332C312.264 217.784 314.922 214.817 318.293 214.714L566.754 205.879C570.093 205.708 572.946 208.54 573.043 212.088C573.173 215.601 570.547 218.569 567.176 218.706Z" fill="black"/>
<path d="M682.872 626.61H431.713C424.42 626.61 418.487 632.853 418.487 640.529V741.138C418.487 748.814 424.419 755.057 431.713 755.057H682.872C690.165 755.057 696.098 748.814 696.098 741.138V640.529C696.098 632.853 690.166 626.61 682.872 626.61ZM453.048 658.473H495.48C498.852 658.473 501.575 661.338 501.575 664.886C501.575 668.434 498.852 671.3 495.48 671.3H453.048C449.677 671.3 446.954 668.434 446.954 664.886C446.954 661.338 449.677 658.473 453.048 658.473ZM525.367 723.223H453.048C449.677 723.223 446.954 720.357 446.954 716.809C446.954 713.261 449.677 710.396 453.048 710.396H525.367C528.738 710.396 531.461 713.261 531.461 716.809C531.494 720.323 528.738 723.223 525.367 723.223ZM597.719 723.223H557.297C553.925 723.223 551.202 720.357 551.202 716.809C551.202 713.261 553.925 710.396 557.297 710.396H597.719C601.09 710.396 603.813 713.261 603.813 716.809C603.813 720.323 601.09 723.223 597.719 723.223ZM603.035 671.3H522.937C519.565 671.3 516.842 668.435 516.842 664.887C516.842 661.339 519.565 658.473 522.937 658.473H603.035C606.406 658.473 609.129 661.339 609.129 664.887C609.161 668.435 606.406 671.3 603.035 671.3ZM661.545 671.3H625.564C622.193 671.3 619.47 668.435 619.47 664.887C619.47 661.339 622.193 658.473 625.564 658.473H661.545C664.916 658.473 667.639 661.339 667.639 664.887C667.639 668.435 664.916 671.3 661.545 671.3Z" fill="black"/>
<path d="M720.015 337.727H303.379C286.426 337.727 270.315 329.778 259.554 316.03L204.156 245.89C193.426 232.142 177.315 224.193 160.363 224.193H56.8571C25.5117 224.193 0 251.041 0 284.167V770.162C0 803.185 25.5108 830 56.8571 830H719.979C751.455 830 776.966 803.152 776.966 770.162L776.998 397.561C776.998 364.573 751.491 337.727 720.015 337.727ZM708.28 741.131C708.28 755.868 696.87 767.877 682.867 767.877H431.708C417.705 767.877 406.295 755.868 406.295 741.131V640.522C406.295 625.751 417.705 613.742 431.708 613.742L682.867 613.776C696.902 613.776 708.28 625.785 708.28 640.556V741.131Z" fill="black"/>
</svg>
