<svg width="823" height="814" viewBox="0 0 823 814" fill="none" xmlns="http://www.w3.org/2000/svg">
<path d="M701.98 118.379C631.821 49.4205 538.9 7.74475 440.216 0.976323C341.532 -5.7921 243.682 22.7993 164.567 81.5199C85.4527 140.241 30.3623 225.165 9.3744 320.756C-11.6135 416.348 2.9043 516.216 50.2718 602.092C50.778 603.293 51.0386 604.581 51.0386 605.882C51.0386 607.184 50.778 608.472 50.2718 609.673L20.3699 709.752C16.8492 721.195 16.5224 733.366 19.4243 744.977C22.3261 756.589 28.3486 767.208 36.8543 775.712C45.4792 784.218 56.2493 790.286 68.0464 793.286C79.8435 796.285 92.2376 796.108 103.942 792.771L205.915 762.444C208.274 761.636 210.84 761.636 213.199 762.444C273.511 795.935 341.458 813.679 410.628 814C440.382 813.938 470.053 810.89 499.184 804.902C571.448 789.228 638.112 754.607 692.18 704.673C746.248 654.739 785.726 591.333 806.469 521.111C827.213 450.888 828.457 376.439 810.072 305.577C791.687 234.715 754.35 170.053 701.98 118.379ZM468.132 510.732H257.285C249.66 510.732 242.346 507.737 236.954 502.405C231.562 497.073 228.533 489.841 228.533 482.301C228.533 474.76 231.562 467.529 236.954 462.197C242.346 456.865 249.66 453.869 257.285 453.869H468.132C475.757 453.869 483.07 456.865 488.462 462.197C493.855 467.529 496.884 474.76 496.884 482.301C496.884 489.841 493.855 497.073 488.462 502.405C483.07 507.737 475.757 510.732 468.132 510.732ZM563.971 359.098H257.285C249.66 359.098 242.346 356.103 236.954 350.771C231.562 345.439 228.533 338.207 228.533 330.667C228.533 323.126 231.562 315.895 236.954 310.563C242.346 305.231 249.66 302.235 257.285 302.235H563.971C571.597 302.235 578.91 305.231 584.302 310.563C589.694 315.895 592.723 323.126 592.723 330.667C592.723 338.207 589.694 345.439 584.302 350.771C578.91 356.103 571.597 359.098 563.971 359.098Z" fill="black"/>
</svg>
