<svg width="720" height="788" viewBox="0 0 720 788" fill="none" xmlns="http://www.w3.org/2000/svg">
<path d="M684.3 172.298C692.447 151.067 682.671 126.57 661.49 118.404C640.31 110.238 615.87 120.037 607.724 141.268L527.889 333.981L604.465 366.645L684.3 172.298ZM624.017 152.701C628.905 141.268 641.939 136.369 653.344 141.268C664.749 146.168 669.637 159.233 664.749 170.665C659.861 182.097 646.827 186.997 635.422 182.097C624.017 177.198 619.129 164.133 624.017 152.701Z" fill="black"/>
<path d="M666.378 409.107L452.942 319.283C410.58 301.318 363.331 319.283 342.15 358.479C340.521 378.077 340.521 397.675 338.892 415.639L358.443 386.242C371.477 366.645 394.287 353.579 420.356 353.579C430.132 353.579 439.907 355.212 449.683 360.112L640.31 440.137C672.895 453.202 690.818 489.132 684.301 523.428L659.861 654.081L713.628 523.428C731.55 479.333 710.369 427.071 666.378 409.107Z" fill="black"/>
<path d="M633.793 454.835L443.166 374.81C417.097 365.011 387.77 373.177 373.107 396.041L338.892 446.669C338.892 463.001 337.262 479.333 337.262 495.664C345.409 500.564 351.926 508.73 351.926 518.529V554.458H477.381C505.079 554.458 527.889 577.322 527.889 605.086V639.382C527.889 647.548 524.63 654.081 519.742 657.347L532.777 686.744L628.905 727.573L669.637 520.162C672.895 492.398 658.232 464.634 633.793 454.835Z" fill="black"/>
<path d="M55.3958 662.247L0 788C8.14643 788 368.219 788 368.219 788C391.029 788 431.761 788 431.761 788C436.649 788 506.708 788 506.708 788H558.845L503.45 662.247H55.3958Z" fill="black"/>
<path d="M237.876 490.765H320.969C324.228 366.645 335.633 191.896 348.667 79.2083C348.667 75.942 348.667 72.6756 348.667 69.4093C348.667 61.2435 347.038 54.7109 345.409 46.5451C324.228 -15.515 234.617 -15.515 213.437 46.5451C211.807 53.0777 210.178 61.2435 210.178 69.4093C210.178 72.6756 210.178 75.942 210.178 79.2083C223.212 191.896 234.617 366.645 237.876 490.765ZM280.237 41.6456C299.789 41.6456 317.711 57.9772 317.711 79.2083C317.711 98.8062 301.418 116.771 280.237 116.771C260.686 116.771 242.764 100.439 242.764 79.2083C242.764 57.9772 259.057 41.6456 280.237 41.6456Z" fill="black"/>
<path d="M232.988 507.096C228.1 507.096 223.212 511.996 223.212 516.895V552.825H335.633V516.895C335.633 511.996 330.745 507.096 325.857 507.096H232.988Z" fill="black"/>
<path d="M55.3957 645.915H505.079C509.967 645.915 513.225 642.649 513.225 637.749V603.453C513.225 583.855 498.562 569.156 479.01 569.156H81.4643C61.9129 569.156 47.2493 583.855 47.2493 603.453V637.749C47.2493 642.649 50.5079 645.915 55.3957 645.915Z" fill="black"/>
</svg>
