<svg width="641" height="843" viewBox="0 0 641 843" fill="none" xmlns="http://www.w3.org/2000/svg">
<path d="M297.863 843L608.892 784.582L610.099 780.131C610.588 778.333 658.374 598.85 634.153 440.855C610.682 287.797 539.529 237.367 473.382 225.607V122.59C473.382 104.047 468.855 90.9757 459.935 83.7548C452.846 78.0111 445.394 77.9236 442.937 78.1374H250.66C243.832 33.7915 210.732 0 170.951 0H143.607C98.9129 0 62.5453 42.6354 62.5453 95.0284C62.5453 147.421 98.9129 190.047 143.607 190.047H170.951C215.645 190.047 252.013 147.421 252.013 95.0284C252.013 94.2411 251.929 93.4831 251.909 92.6959L444.134 92.6667C444.457 92.6667 447.153 92.5404 449.994 95.0186C452.888 97.5455 457.759 104.475 457.759 122.59V223.508C451.306 222.906 444.946 222.614 438.722 222.614L151.07 221.914H151.049C151.049 221.914 151.049 221.914 151.039 221.914H150.81C146.418 221.924 141.973 222.177 137.612 222.672C46.3183 233.013 -14.1347 347.799 2.8625 478.534C19.0999 603.447 97.7367 697.639 185.804 697.639C188.208 697.639 190.612 697.377 193.027 697.231L193.048 697.386L195.629 697.085C196.826 696.988 198.034 697.017 199.231 696.881C201.323 696.648 203.373 696.288 205.434 695.948L333.47 681.108C329.213 730.177 319.762 781.374 302.088 831.085L297.863 843ZM538.925 683.469L540.851 697.931L499.883 702.664L497.957 688.202L538.925 683.469ZM216.447 518.769C207.62 535.854 194.641 546.185 179.881 547.856C178.466 548.021 177.05 548.089 175.635 548.089C145.21 548.089 116.701 512.17 110.747 466.298C107.614 442.205 111.049 418.939 120.438 400.775C129.264 383.69 142.244 373.359 156.993 371.687C158.419 371.522 159.824 371.454 161.239 371.454C191.674 371.454 220.173 407.374 226.137 453.246C229.27 477.328 225.835 500.604 216.447 518.769ZM457.926 692.858L459.851 707.319L418.883 712.061L416.957 697.6L457.926 692.858Z" fill="black"/>
</svg>
