<svg width="397" height="459" viewBox="0 0 397 459" fill="none" xmlns="http://www.w3.org/2000/svg">
<path d="M396.818 403.681V21.828C396.777 9.7786 386.939 0.0408489 374.766 0H66.1364C53.9837 0.0409117 44.1251 9.7786 44.0839 21.828V27.2902L276.222 27.2697C290.959 27.2697 304.951 33.7343 314.375 44.9447L357.797 96.4557C365.196 105.293 369.247 116.401 369.268 127.878V425.509H374.766C386.939 425.468 396.777 415.731 396.818 403.681Z" fill="black"/>
<path d="M301.257 58.5202C297.289 53.8764 292.06 50.419 286.19 48.5782V112.198H346.168C345.652 111.482 345.238 110.725 344.659 110.05L301.257 58.5202Z" fill="black"/>
<path d="M33.0682 43.635C14.8188 43.6555 0.0206345 58.3029 0 76.3665V425.509C0.0206663 443.573 14.8188 458.22 33.0682 458.241H319.666C337.916 458.22 352.714 443.573 352.734 425.509V130.926H286.598C274.425 130.905 264.566 121.147 264.545 109.098V43.635H33.0682ZM231.477 70.9247C235.941 70.9247 239.951 73.5841 241.666 77.6553C243.361 81.7263 242.431 86.4316 239.269 89.5408C236.128 92.6708 231.374 93.5913 227.261 91.9138C223.149 90.2158 220.461 86.2473 220.461 81.8283C220.461 75.7937 225.38 70.9247 231.477 70.9247ZM187.393 70.9247C191.837 70.9247 195.867 73.5841 197.562 77.6553C199.277 81.7263 198.327 86.4316 195.185 89.5408C192.023 92.6708 187.29 93.5913 183.178 91.9138C179.044 90.2158 176.357 86.2473 176.357 81.8283C176.357 75.7937 181.297 70.9247 187.393 70.9247ZM187.393 136.388H231.477C237.574 136.388 242.493 141.256 242.493 147.291C242.493 153.326 237.574 158.195 231.477 158.195H187.393C181.297 158.195 176.357 153.326 176.357 147.291C176.357 141.256 181.297 136.388 187.393 136.388ZM143.289 70.9247C147.753 70.9247 151.783 73.5841 153.478 77.6553C155.194 81.7263 154.243 86.4316 151.081 89.5408C147.939 92.6708 143.206 93.5913 139.073 91.9138C134.96 90.2158 132.273 86.2473 132.273 81.8283C132.273 75.7937 137.213 70.9247 143.289 70.9247ZM148.828 141.85V229.141H60.6391L60.6184 141.829L148.828 141.85ZM99.2051 70.9247C103.669 70.9247 107.679 73.5841 109.394 77.6553C111.089 81.7263 110.159 86.4316 106.997 89.5408C103.855 92.6708 99.1018 93.5913 94.9892 91.9138C90.8763 90.2158 88.1893 86.2473 88.1893 81.8283C88.1893 75.7937 93.1083 70.9247 99.2051 70.9247ZM44.0844 81.8282C44.0844 77.4095 46.7712 73.4406 50.9049 71.7427C55.0177 70.0652 59.7508 70.9858 62.9126 74.1157C66.0541 77.2252 67.0048 81.9304 65.2894 86.0012C63.5947 90.0721 59.5646 92.7318 55.1208 92.7318C49.0241 92.7318 44.0844 87.8629 44.0844 81.8282ZM66.1369 409.143C60.0402 409.143 55.1212 404.254 55.1212 398.24C55.1212 392.205 60.0401 387.316 66.1369 387.316H187.394C193.47 387.316 198.41 392.205 198.41 398.24C198.41 404.254 193.47 409.143 187.394 409.143H66.1369ZM66.1369 365.508C60.0402 365.508 55.1212 360.619 55.1212 354.584C55.1212 348.57 60.0401 343.681 66.1369 343.681H286.598C292.675 343.681 297.614 348.57 297.614 354.584C297.614 360.619 292.675 365.508 286.598 365.508H66.1369ZM286.577 321.873L66.1369 321.853C60.0402 321.853 55.1212 316.984 55.1212 310.949C55.1212 304.914 60.0401 300.046 66.1369 300.046H286.598C292.675 300.046 297.614 304.914 297.614 310.949C297.614 316.984 292.675 321.853 286.598 321.853L286.577 321.873ZM286.577 278.238L66.1369 278.218C60.0402 278.218 55.1212 273.328 55.1212 267.314C55.1212 261.279 60.0401 256.39 66.1369 256.39H286.598C292.675 256.39 297.614 261.279 297.614 267.314C297.614 273.328 292.675 278.218 286.598 278.218L286.577 278.238ZM286.577 234.603L187.394 234.583C181.297 234.583 176.358 229.693 176.358 223.659C176.358 217.644 181.297 212.755 187.394 212.755H286.598C292.675 212.755 297.614 217.644 297.614 223.659C297.614 229.693 292.675 234.583 286.598 234.583L286.577 234.603ZM286.598 174.56C292.674 174.56 297.614 179.45 297.614 185.484C297.614 191.499 292.674 196.388 286.598 196.388H187.393C181.297 196.388 176.357 191.499 176.357 185.484C176.357 179.45 181.297 174.56 187.393 174.56H286.598Z" fill="black"/>
</svg>
