<svg width="652" height="838" viewBox="0 0 652 838" fill="none" xmlns="http://www.w3.org/2000/svg">
<path d="M490.348 358.941C508.737 348.327 518.004 328.354 518.004 299.444C518.004 270.533 508.593 250.281 490.059 239.806C487.163 238.269 484.267 236.873 481.081 235.895C527.851 199.582 601.264 133.52 578.671 90.3646C562.743 60.1966 527.848 63.688 511.921 65.364C504.247 66.202 497.151 61.8724 495.269 54.6099C484.988 17.8773 461.821 12.4301 448.79 12.4301C431.415 12.4301 412.446 17.1788 392.465 26.816C386.528 29.6093 379.288 27.7937 374.8 22.3467C362.638 7.68189 345.841 0 326.005 0C306.168 0 289.372 7.68171 277.209 22.3467C272.72 27.7937 265.481 29.6093 259.544 26.6764C239.563 17.179 220.595 12.4299 203.219 12.4299C190.188 12.4299 167.021 17.877 156.74 54.7492C154.858 61.8722 147.908 66.2014 139.22 65.3638C124.306 63.8275 89.266 60.0565 73.3381 90.3644C50.75 133.521 124.161 199.586 170.928 235.895C167.742 236.873 164.846 238.269 161.95 239.806C143.417 250.281 134.005 270.393 134.005 299.443C134.005 328.494 143.272 348.327 161.661 358.941C110.838 414.11 -43.517 596.513 11.7971 721.797C45.8242 798.893 151.523 838 326 838C500.478 838 606.176 798.893 640.204 721.797C695.516 596.513 541.168 414.111 490.348 358.941ZM314.712 274.722H337.3C340.052 274.722 342.513 275.42 344.685 276.677C344.83 276.817 345.119 276.957 345.409 277.096C349.174 279.61 351.78 283.94 351.78 288.689V310.337C351.78 318.019 345.264 324.304 337.301 324.304H314.712C306.749 324.304 300.233 318.019 300.233 310.337V288.689C300.233 283.94 302.839 279.611 306.604 277.096C306.894 276.957 307.183 276.817 307.328 276.677C309.5 275.42 311.961 274.722 314.712 274.722ZM367.997 339.947C370.459 341.064 372.775 342.321 375.092 343.299H375.237C386.531 358.243 444.594 436.18 475.291 524.307L451.11 516.904C444.305 514.809 436.921 517.882 433.735 524.027L430.405 530.173C422.296 486.038 403.473 416.205 359.6 346.376C362.641 344.56 365.535 342.321 367.997 339.947ZM276.921 343.299C279.238 342.321 281.555 341.064 284.016 339.947C286.478 342.321 289.373 344.555 292.414 346.371C248.541 416.205 229.718 486.038 221.61 530.168L218.279 524.023C215.094 517.877 207.709 514.805 200.904 516.9L176.723 524.302C207.419 436.172 265.482 358.239 276.777 343.437H276.922L276.921 343.299ZM489.05 299.444C489.05 317.88 484.416 329.891 475.294 335.059C471.819 337.014 467.62 338.271 462.696 338.69C444.163 340.506 415.493 332.126 380.453 314.668C380.453 314.668 380.598 313.83 380.598 313.411H403.186C411.149 313.411 417.665 307.126 417.665 299.444C417.665 291.762 411.149 285.477 403.186 285.477H380.598C380.598 285.477 380.598 284.639 380.453 284.22C404.778 272.069 426.063 264.248 443.004 261.315H443.873C457.339 259.08 468.054 259.918 475.293 263.969C484.416 269.136 489.049 281.148 489.049 299.584L489.05 299.444ZM176.727 263.828C183.967 259.778 194.682 258.94 208.148 261.175H209.017C225.957 264.108 247.243 271.929 271.568 284.08C271.423 284.499 271.423 284.918 271.423 285.337H248.835C240.871 285.337 234.356 291.622 234.356 299.304C234.356 306.985 240.871 313.27 248.835 313.27H271.423C271.423 313.27 271.423 313.969 271.568 314.388C236.528 331.986 207.858 340.365 189.324 338.55C184.401 338.131 180.202 336.874 176.727 334.918C167.605 329.751 162.971 317.739 162.971 299.303C162.971 280.867 167.605 268.856 176.727 263.688L176.727 263.828Z" fill="black"/>
</svg>
