<svg width="812" height="729" viewBox="0 0 812 729" fill="none" xmlns="http://www.w3.org/2000/svg">
<path d="M742.178 185.974H565.934C574.084 177.569 581.542 168.002 587.978 157.405C621.832 101.671 617.561 35.5797 578.475 10.076C539.409 -15.3965 480.052 9.16185 446.169 64.896C420.867 106.564 416.877 154.019 432.806 185.974H381.49C386.933 175.149 390.131 162.361 390.813 148.118C392.116 120.89 383.986 91.3347 367.926 64.896C334.063 9.16185 274.687 -15.4277 235.63 10.076C196.534 35.5797 192.274 101.671 226.127 157.405C232.563 168.002 240.021 177.569 248.171 185.974H69.822C31.3171 185.974 0 218.438 0 258.329V656.644C0 696.546 31.3272 729 69.822 729H742.178C780.683 729 812 696.546 812 656.644V258.329C812 218.427 780.683 185.974 742.178 185.974ZM537.935 125.305C557.904 92.4359 552.24 64.6986 546.656 61.0627C541.975 58.0085 540.571 51.5884 543.519 46.737C546.476 41.8855 552.661 40.4311 557.353 43.4854C575.638 55.4113 579.136 96.5081 554.917 136.379C553.012 139.516 549.744 141.231 546.416 141.231C544.591 141.231 542.747 140.721 541.083 139.631C536.401 136.576 534.988 130.156 537.935 125.305ZM443.432 206.751C433.939 217.222 419.754 234.54 407.173 256.605C394.592 234.613 380.317 217.264 370.733 206.751H443.432ZM255.92 43.4854C260.612 40.4415 266.797 41.8855 269.744 46.737C272.692 51.5884 271.288 57.9981 266.607 61.0627C261.033 64.709 255.359 92.4462 275.328 125.305C278.275 130.156 276.872 136.576 272.19 139.631C270.526 140.711 268.682 141.231 266.857 141.231C263.529 141.231 260.271 139.506 258.366 136.379C234.127 96.4977 237.635 55.4113 255.92 43.4854ZM791.951 284.051L406 446.278L20.0494 284.051V258.329C20.0494 229.886 42.3844 206.751 69.822 206.751H273.674C278.556 209.805 283.538 212.558 288.641 214.771C300.46 219.913 312.119 222.468 323.176 222.468C333.221 222.468 342.734 220.276 351.436 216.069C370.914 236.524 439.823 317.076 402.882 397.94C400.517 403.124 402.652 409.326 407.654 411.778C409.038 412.453 410.501 412.775 411.935 412.775C415.694 412.775 419.293 410.583 421.007 406.833C442.259 360.303 434.4 315.196 418.33 278.67C433.217 248.689 453.427 225.699 462.63 216.069C471.341 220.287 480.854 222.479 490.899 222.479C501.956 222.479 513.625 219.913 525.434 214.781C530.537 212.558 535.519 209.815 540.411 206.761H742.158C769.596 206.761 791.931 229.907 791.931 258.34V284.051H791.951Z" fill="black"/>
<path d="M583.512 237.784L566.519 226.777L542.711 266.252L559.704 277.259L583.512 237.784Z" fill="black"/>
<path d="M141.195 267.107L122.155 227.632L104.221 236.922L123.261 276.396L141.195 267.107Z" fill="black"/>
<path d="M268.431 306.511H248.382V339.598H268.431V306.511Z" fill="black"/>
<path d="M725.487 252.013H705.438V291.053H725.487V252.013Z" fill="black"/>
<path d="M189.026 280.322L197.095 297.265L205.155 280.322L223.2 277.61L210.148 264.427L213.225 245.811L197.095 254.6L180.966 245.811L184.043 264.427L170.991 277.61L189.026 280.322Z" fill="black"/>
<path d="M509.014 338.123L517.074 355.056L525.143 338.123L543.178 335.401L530.126 322.219L533.203 303.602L517.074 312.391L500.944 303.602L504.021 322.219L490.969 335.401L509.014 338.123Z" fill="black"/>
<path d="M345.14 299.842L353.2 316.785L361.27 299.842L379.304 297.13L366.252 283.947L369.34 265.331L353.2 274.12L337.07 265.331L340.158 283.947L327.106 297.13L345.14 299.842Z" fill="black"/>
<path d="M634.533 280.665H600.97V301.442H634.533V280.665Z" fill="black"/>
</svg>
