<svg width="810" height="712" viewBox="0 0 810 712" fill="none" xmlns="http://www.w3.org/2000/svg">
<path d="M765.158 58.1544H698.478V72.0659C698.478 79.7519 692.006 85.9773 684.014 85.9773C676.023 85.9773 669.55 79.7519 669.55 72.0659V58.1544H614.007V89.4549C614.007 104.201 626.447 116.165 641.778 116.165C649.661 116.304 656.026 122.495 656.026 130.076C656.026 137.658 649.662 143.849 641.778 143.988C610.499 143.953 585.114 119.538 585.078 89.4549V58.1544H461.699V72.0659C461.555 79.6476 455.118 85.6986 447.235 85.6986C439.352 85.6986 432.915 79.6471 432.771 72.0659V58.1544H377.228V85.9773C376.324 93.6286 378.855 101.245 384.134 107.019C389.45 112.757 397.007 116.095 404.999 116.165C412.882 116.269 419.247 122.46 419.247 130.076C419.247 137.693 412.882 143.884 404.999 143.988C373.72 143.953 348.335 119.538 348.299 89.4549C348.408 89.0724 348.227 59.7891 348.299 58.1544H224.92V72.0659C224.92 79.7519 218.447 85.9773 210.456 85.9773C202.464 85.9773 195.991 79.7519 195.991 72.0659V58.1544H140.448C140.159 60.4498 140.665 87.8897 140.448 89.4549C140.448 104.201 152.888 116.165 168.22 116.165C176.211 116.165 182.684 122.39 182.684 130.076C182.684 137.762 176.211 143.988 168.22 143.988C136.941 143.953 111.556 119.538 111.52 89.4549V58.1544H44.8397C20.0695 58.1892 0.0370286 77.4568 0 101.28V182.941H810V101.28C809.964 77.4568 789.929 58.19 765.158 58.1544Z" fill="black"/>
<path d="M8.05664e-05 210.766V668.735C8.05664e-05 692.559 20.0696 711.931 44.8398 712H765.157C789.927 711.93 809.996 692.559 809.996 668.735V210.766H8.05664e-05ZM748.236 524.19C748.019 547.039 728.673 565.472 704.916 565.472C681.158 565.472 661.813 547.039 661.595 524.19C661.812 501.34 681.158 482.908 704.916 482.908C728.673 482.908 748.019 501.34 748.236 524.19ZM670.852 273.223L676.638 271.275L674.613 265.711C672.262 258.477 676.312 250.756 683.762 248.287C691.211 245.853 699.347 249.574 702.095 256.669L704.12 262.372C729.035 250.478 740.606 283.414 713.377 288.665C725.926 312.314 691.284 323.93 686.04 297.568L680.255 299.516C672.769 301.846 664.705 297.951 662.138 290.821C659.571 283.657 663.439 275.832 670.852 273.223ZM598.097 433.901L613.139 423.05C619.54 418.633 628.435 419.92 633.173 426.006C637.91 432.058 636.717 440.648 630.497 445.308C625.109 448.439 613.682 459.811 606.776 458.941C600.628 458.837 595.204 454.977 593.252 449.377C591.299 443.743 593.251 437.553 598.097 433.901ZM578.425 583.869C580.486 566.48 613.971 548.429 620.951 571.905C621.674 575.556 620.842 579.312 618.673 582.338C616.503 585.399 613.176 587.52 609.379 588.181C606.74 588.772 606.089 590.094 607.21 591.798C610.175 596.041 610.464 601.501 608.005 606.058C605.51 610.579 600.665 613.431 595.349 613.5C590.539 613.535 586.019 611.24 583.343 607.379C578.462 600.528 576.653 592.006 578.425 583.869ZM347.145 266.127C361.573 266.127 375.711 269.883 388.079 276.978C404.713 251.695 433.352 236.114 464.45 235.383C571.63 237.4 596.476 397.415 504.806 443.641C516.269 455.569 515.835 475.498 515.365 491.078C515.328 498.764 508.892 504.955 500.9 504.99H486.436C498.369 529.161 494.391 557.819 476.311 578.164C460.87 594.093 460.436 618.647 475.298 635.062C479.637 641.461 477.793 650.052 471.176 654.295C464.558 658.503 455.627 656.834 451.142 650.504C439.282 635.062 433.894 615.9 436.099 596.806C439.065 571.14 458.7 562.063 464.015 540.743C465.426 528.014 461.773 515.215 453.745 504.991H428.144C420.152 504.956 413.716 498.766 413.68 491.079V472.021C413.607 461.657 417.223 451.606 423.949 443.503C420.912 442.112 417.983 440.442 415.271 438.495C407.424 448.58 397.335 456.892 385.764 462.84C394.623 475.812 398.167 491.462 395.744 506.8C395.708 514.486 389.271 520.677 381.28 520.712H357.848C350.58 530.032 347.217 541.649 348.446 553.264C353.654 573.192 371.661 581.504 374.627 605.849C376.724 623.969 371.661 642.192 360.452 656.904C355.932 663.129 347.073 664.764 340.528 660.556C333.947 656.347 332.066 647.861 336.297 641.462C343.565 632.42 347 621.117 345.988 609.744C341.938 589.851 323.496 581.33 319.953 558.272C317.855 545.509 319.7 532.467 325.304 520.711H313.01C305.018 520.676 298.582 514.486 298.546 506.8V491.775C298.546 481.376 302.089 471.256 308.671 462.978C222.066 419.332 245.606 267.828 347.145 266.127ZM213.064 263.206L228.686 247.207C234.146 241.782 243.114 241.573 248.864 246.72C254.613 251.868 255.047 260.493 249.804 266.127L234.182 282.264C228.65 287.62 219.718 287.794 213.968 282.612C208.255 277.465 207.857 268.84 213.064 263.206ZM152.604 512.917L157.667 516.534L161.283 511.665C166.092 505.683 175.024 504.466 181.352 508.987C187.68 513.474 189.127 522.029 184.57 528.22L180.954 533.089C205.11 545.853 183.522 574.024 163.742 555.486C150.29 578.823 120.964 557.851 140.454 538.932L135.392 535.315C129.136 530.689 127.907 522.098 132.571 516.012C137.272 509.891 146.168 508.535 152.604 512.917ZM96.7724 322.19C104.728 318.991 113.731 319.025 121.651 322.329C138.9 327.824 150.58 362.568 125.556 364.898C121.687 364.898 117.963 363.368 115.25 360.724C112.502 358.047 111.02 354.43 111.092 350.708C111.2 349.526 110.73 348.378 109.79 347.648C106.246 349.491 102.088 349.874 98.2909 348.691C94.4579 347.509 91.2758 344.9 89.5039 341.422C87.732 337.979 87.5151 333.945 88.8891 330.328C90.2633 326.676 93.0841 323.755 96.7724 322.19Z" fill="black"/>
<path d="M430.022 414.287C478.044 447.814 533.73 402.845 532.86 344.451C534.378 271.938 452.258 231.771 410.638 294.509C440 327.758 447.488 374.05 430.022 414.287Z" fill="black"/>
<path d="M377.229 54.6732C377.301 47.3002 380.556 40.3095 386.16 35.3014C391.765 30.3281 399.287 27.7544 406.917 28.2413C414.547 28.6935 421.634 32.1714 426.516 37.84C431.434 43.5089 433.676 50.8469 432.772 58.1503H461.7C462.713 43.0912 457.18 28.2752 446.441 17.2502C435.701 6.25992 420.695 0 405 0C389.306 0 374.3 6.2601 363.56 17.2502C352.82 28.2752 347.288 43.0903 348.3 58.1503H377.229L377.229 54.6732Z" fill="black"/>
<path d="M614.008 54.6733C614.08 47.3003 617.335 40.3095 622.94 35.3014C628.544 30.3281 636.066 27.7544 643.696 28.2414C651.326 28.6935 658.413 32.1714 663.295 37.84C668.213 43.509 670.455 50.8469 669.551 58.1503H698.479C699.492 43.0912 693.959 28.2752 683.22 17.2858C672.48 6.26084 657.474 0.000919312 641.779 0.000919312C626.085 0.000919312 611.079 6.26102 600.339 17.2858C589.599 28.2761 584.067 43.0912 585.079 58.1503H614.008L614.008 54.6733Z" fill="black"/>
<path d="M140.449 54.6733C140.522 47.3003 143.776 40.3095 149.381 35.3014C154.986 30.3281 162.508 27.7544 170.137 28.2414C177.767 28.6935 184.854 32.1714 189.737 37.84C194.655 43.509 196.897 50.8469 195.992 58.1503H224.921C225.934 43.0912 220.401 28.2752 209.662 17.2858C198.921 6.26084 183.916 0.000919312 168.221 0.000919312C152.527 0.000919312 137.521 6.26102 126.781 17.2858C116.04 28.2761 110.508 43.0912 111.521 58.1503H140.45L140.449 54.6733Z" fill="black"/>
<path d="M347.143 444.612C430.964 441.412 430.493 296.772 347.143 293.95C263.467 296.906 263.612 441.727 347.143 444.612Z" fill="black"/>
<path d="M347.578 472.435C342.045 472.435 336.766 474.626 332.933 478.486C329.136 482.382 327.184 487.563 327.473 492.885H366.816C367.286 487.668 365.514 482.486 361.862 478.625C358.21 474.73 353.039 472.504 347.578 472.435Z" fill="black"/>
<path d="M466.329 453.515C459.603 452.472 452.769 454.663 448.031 459.358C443.294 464.088 441.269 470.73 442.607 477.165H486.434C487.519 471.391 485.891 465.444 482.022 460.889C478.189 456.333 472.439 453.654 466.329 453.515Z" fill="black"/>
<path d="M690.527 524.19C690.527 531.841 696.964 538.032 704.919 538.032C712.875 538.032 719.312 531.841 719.312 524.19C719.312 516.538 712.875 510.348 704.919 510.348C696.964 510.348 690.527 516.538 690.527 524.19Z" fill="black"/>
</svg>
