<svg width="822" height="802" viewBox="0 0 822 802" fill="none" xmlns="http://www.w3.org/2000/svg">
<path d="M745.017 293.414L765.226 318.263L764.627 319.601L732.087 320.103C729.174 320.143 726.315 320.88 723.762 322.252C721.209 323.623 719.04 325.586 717.444 327.968L699.462 354.406C699.462 354.406 698.092 354.239 698.006 354.239L687.474 324.203C686.532 321.509 684.933 319.081 682.814 317.127C680.695 315.174 678.121 313.754 675.314 312.992L643.974 304.458C643.803 304.374 643.46 304.29 643.631 303.036L669.748 283.868C672.049 282.164 673.896 279.944 675.133 277.395C676.37 274.847 676.961 272.045 676.856 269.226L675.486 237.434C675.4 237.266 675.4 236.932 676.685 236.764L703.401 255.003C705.779 256.629 708.524 257.668 711.401 258.033C714.279 258.397 717.205 258.075 719.928 257.095L750.412 245.967C750.583 245.884 750.926 245.8 751.44 246.971L741.935 277.342C741.083 280.065 740.919 282.949 741.455 285.748C741.992 288.547 743.214 291.177 745.017 293.414Z" fill="black"/>
<path d="M806.842 180.048C799.535 161.747 788.582 145.046 774.618 130.914C760.653 116.782 743.956 105.499 725.494 97.721C682.764 80.235 633.099 84.5856 588.057 109.35C590.027 113.617 591.825 118.052 593.538 122.486C605.448 153.543 611.483 186.456 611.349 219.621C611.349 301.948 574.185 379.506 514.416 422.175C511.59 424.183 508.764 426.023 505.938 427.864C515.08 439.871 526.122 450.377 538.649 458.987C547.177 464.948 556.37 469.944 566.051 473.88C575.724 477.841 585.841 480.678 596.192 482.33C604.305 483.735 612.529 484.435 620.768 484.422C659.125 483.632 696.181 470.683 726.35 447.525C760.285 421.991 786.649 388.089 802.732 349.302C826.88 292.494 828.421 230.749 806.842 180.048ZM780.862 326.294C779.412 329.24 777.158 331.736 774.347 333.508C771.536 335.28 768.279 336.258 764.935 336.334L732.31 336.836C732.078 336.881 731.868 336.999 731.71 337.171L713.643 363.693C712.032 366.099 709.835 368.077 707.25 369.449C704.664 370.822 701.771 371.546 698.829 371.557C698.027 371.543 697.226 371.487 696.431 371.39C693.111 370.977 689.977 369.66 687.388 367.588C684.798 365.517 682.858 362.775 681.788 359.677L671.17 329.641L639.316 320.605C636.084 319.725 633.17 317.98 630.901 315.566C628.631 313.153 627.099 310.167 626.475 306.947C625.851 303.726 626.162 300.4 627.372 297.343C628.582 294.287 630.643 291.621 633.322 289.649L659.353 270.573L658.325 238.111C658.175 234.846 658.964 231.605 660.605 228.757C662.245 225.908 664.67 223.567 667.605 221.998C670.54 220.429 673.866 219.696 677.206 219.882C680.546 220.069 683.765 221.167 686.498 223.052L713.214 241.291L744.384 230.33C747.53 229.139 750.96 228.852 754.268 229.504C757.576 230.157 760.624 231.721 763.051 234.012C765.47 236.251 767.2 239.106 768.048 242.254C768.895 245.403 768.825 248.72 767.846 251.832L758.256 282.287L778.636 307.888C780.733 310.445 782.054 313.526 782.447 316.78C782.841 320.034 782.292 323.33 780.862 326.294Z" fill="black"/>
<path d="M158.452 293.414L178.66 318.263L178.061 319.601L145.436 320.103C142.533 320.134 139.683 320.868 137.142 322.241C134.601 323.614 132.449 325.581 130.879 327.968L112.811 354.406L111.441 354.239L100.823 324.119C99.8903 321.43 98.2926 319.007 96.1713 317.065C94.0501 315.124 91.471 313.725 88.6632 312.992L57.3226 304.458C57.1513 304.374 56.8088 304.29 57.0657 303.036L83.0972 283.868C85.3977 282.164 87.2446 279.944 88.4817 277.395C89.7187 274.847 90.3097 272.045 90.2045 269.226L88.8344 237.434C88.8344 237.266 88.8344 236.932 90.1189 236.764L116.75 255.003C119.131 256.622 121.875 257.657 124.752 258.021C127.628 258.385 130.552 258.067 133.276 257.095L163.761 245.967C163.932 245.884 164.274 245.8 164.874 246.971L155.369 277.342C154.497 280.063 154.322 282.951 154.859 285.754C155.397 288.556 156.63 291.186 158.452 293.414Z" fill="black"/>
<path d="M307.448 422.008C247.678 379.589 210.6 302.032 210.6 219.621C210.456 186.435 216.462 153.498 228.326 122.402C230.038 117.968 231.837 113.617 233.806 109.351C188.85 84.5019 139.185 80.1513 96.3699 97.6374C54.0686 114.705 22.8137 150.514 8.34219 198.454C-5.70469 248.468 -1.93022 301.661 19.046 349.302C53.6405 430.876 127.454 484.422 201.181 484.422C209.42 484.435 217.644 483.735 225.757 482.33C236.111 480.689 246.229 477.852 255.899 473.88C265.533 469.939 274.694 464.973 283.215 459.071C295.772 450.402 306.842 439.84 316.011 427.78C313.1 425.94 310.274 424.016 307.448 422.008ZM194.245 326.294C192.81 329.251 190.559 331.757 187.745 333.531C184.931 335.305 181.666 336.276 178.318 336.334L145.778 336.836C145.658 336.838 145.54 336.87 145.435 336.929C145.33 336.987 145.242 337.071 145.179 337.171L127.111 363.693C125.49 366.108 123.28 368.092 120.679 369.465C118.077 370.838 115.168 371.557 112.211 371.557C111.438 371.543 110.666 371.487 109.899 371.39C106.564 370.992 103.412 369.681 100.806 367.609C98.2003 365.537 96.2469 362.787 95.171 359.677L84.6385 329.641L52.6985 320.605C49.4736 319.715 46.5675 317.961 44.3081 315.543C42.0487 313.125 40.5259 310.138 39.9116 306.919C39.2972 303.7 39.6157 300.377 40.8311 297.326C42.0464 294.274 44.1104 291.615 46.7901 289.649L72.8216 270.573L71.7084 238.111C71.5618 234.838 72.3578 231.591 74.0059 228.738C75.6539 225.885 78.088 223.541 81.0315 221.973C83.9749 220.404 87.3098 219.674 90.6569 219.864C94.0041 220.055 97.2294 221.159 99.9663 223.052L126.597 241.291L157.852 230.33C160.985 229.14 164.402 228.853 167.696 229.506C170.991 230.159 174.023 231.723 176.434 234.012C178.87 236.24 180.612 239.094 181.46 242.247C182.308 245.4 182.228 248.722 181.229 251.832L171.724 282.287L192.019 307.888C194.116 310.445 195.436 313.526 195.83 316.78C196.224 320.034 195.674 323.33 194.245 326.294Z" fill="black"/>
<path d="M467.833 483.334C465.27 487.706 461.565 491.334 457.097 493.847C452.628 496.361 447.557 497.67 442.401 497.641H379.463C374.317 497.636 369.262 496.318 364.798 493.817C360.333 491.317 356.615 487.72 354.011 483.384C351.407 479.047 350.007 474.121 349.951 469.094C349.894 464.067 351.182 459.112 353.688 454.721L357.798 447.609C362.936 449.282 368.16 450.705 373.383 451.876C385.738 454.666 398.379 456.07 411.06 456.059C423.573 456.094 436.047 454.69 448.224 451.876C453.533 450.705 458.842 449.282 463.98 447.609L468.09 454.721C470.658 459.08 471.988 464.031 471.943 469.061C471.898 474.092 470.479 479.019 467.833 483.334Z" fill="black"/>
<path d="M599.446 531.023C594.533 534.709 588.514 536.708 582.32 536.713C578.674 536.706 575.066 535.995 571.702 534.621L517.927 512.784C513.426 511.004 509.488 508.093 506.511 504.346C503.533 500.6 501.622 496.15 500.972 491.45C500.28 486.692 500.891 481.84 502.741 477.387C504.591 472.935 507.614 469.04 511.504 466.099L515.871 462.752C519.948 466.229 524.206 469.497 528.63 472.541C538.205 479.272 548.55 484.888 559.457 489.274C570.274 493.756 581.6 496.958 593.195 498.812C598.577 499.752 604.009 500.394 609.465 500.736L610.15 506.175C610.747 510.87 610.073 515.635 608.195 519.996C606.317 524.356 603.3 528.159 599.446 531.023Z" fill="black"/>
<path d="M320.806 491.282C320.179 496.011 318.279 500.493 315.301 504.27C312.322 508.048 308.371 510.986 303.851 512.784L250.161 534.537C246.74 535.92 243.074 536.631 239.372 536.629C235.431 536.616 231.537 535.788 227.946 534.201C224.355 532.614 221.148 530.302 218.536 527.418C215.924 524.534 213.966 521.143 212.79 517.468C211.614 513.792 211.247 509.915 211.713 506.091L212.399 500.736C217.799 500.404 223.174 499.762 228.497 498.812C240.209 496.987 251.653 493.784 262.578 489.274C273.33 484.895 283.554 479.368 293.062 472.792C297.56 469.684 301.877 466.332 305.992 462.752L310.445 466.183C314.277 469.108 317.252 472.969 319.071 477.375C320.89 481.781 321.488 486.578 320.806 491.282Z" fill="black"/>
<path d="M473.741 203.139L474.255 204.478L451.649 227.318C449.622 229.357 448.135 231.846 447.314 234.572C446.493 237.298 446.365 240.178 446.939 242.964L453.361 274.171L452.248 275.008L422.963 261.036C420.36 259.794 417.488 259.191 414.593 259.278C411.699 259.366 408.869 260.141 406.351 261.538L377.921 277.183C377.836 277.267 377.493 277.434 376.723 276.346L381.347 244.805C381.73 241.997 381.417 239.14 380.434 236.475C379.45 233.81 377.825 231.416 375.695 229.494L351.719 207.992C351.633 207.908 351.376 207.657 352.147 206.653L384.258 201.131C387.115 200.635 389.807 199.47 392.103 197.736C394.4 196.002 396.232 193.751 397.445 191.175L410.889 162.227C410.945 162.145 411.022 162.079 411.112 162.035C411.202 161.991 411.302 161.971 411.403 161.976C411.728 162.011 412.046 162.095 412.345 162.227L427.672 190.255C429.027 192.772 430.992 194.927 433.395 196.531C435.798 198.135 438.567 199.14 441.459 199.458L473.741 203.139Z" fill="black"/>
<path d="M577.525 128.342C547.811 50.3665 482.476 0 411.06 0C339.474 0 274.052 50.3665 244.339 128.342C233.197 157.537 227.568 188.464 227.726 219.621C227.726 296.761 262.15 369.131 317.552 408.537C335.347 421.489 355.7 430.691 377.322 435.561C388.381 438.089 399.703 439.352 411.06 439.326C422.305 439.352 433.513 438.089 444.456 435.561C466.082 430.67 486.452 421.502 504.311 408.621C559.714 369.131 594.223 296.761 594.223 219.621C594.352 188.459 588.694 157.532 577.525 128.342ZM486.586 216.099L463.894 238.94C463.748 239.132 463.687 239.372 463.723 239.609L470.145 270.816C470.793 274.017 470.515 277.33 469.344 280.386C468.173 283.441 466.155 286.118 463.514 288.115C460.874 290.113 457.717 291.353 454.396 291.696C451.075 292.04 447.722 291.473 444.713 290.059L415.513 276.087L386.399 291.732C383.7 293.199 380.667 293.976 377.579 293.991C373.962 294.021 370.427 292.938 367.475 290.896C364.684 289.081 362.478 286.529 361.113 283.537C359.749 280.545 359.282 277.236 359.768 273.995L364.392 242.537L340.159 220.282C337.703 218.073 335.928 215.237 335.033 212.095C334.138 208.953 334.16 205.629 335.094 202.498C336.029 199.367 337.84 196.553 340.323 194.374C342.807 192.194 345.864 190.736 349.15 190.163L381.261 184.641L395.39 155.274C396.781 152.305 398.994 149.776 401.78 147.971C404.566 146.167 407.812 145.16 411.153 145.065C414.493 144.969 417.795 145.788 420.684 147.43C423.573 149.071 425.934 151.47 427.501 154.354L442.743 182.466L475.711 186.481C479.035 186.863 482.184 188.143 484.803 190.177C487.423 192.212 489.41 194.921 490.54 197.998C491.67 201.076 491.899 204.401 491.2 207.599C490.501 210.796 488.904 213.74 486.586 216.099Z" fill="black"/>
<path d="M406.154 801.998C404.554 802.006 402.984 801.576 401.622 800.757C400.26 799.938 399.16 798.762 398.447 797.363L258.647 522.682C258.146 521.698 257.849 520.627 257.771 519.531C257.694 518.435 257.838 517.334 258.196 516.292C258.554 515.251 259.118 514.288 259.857 513.459C260.595 512.63 261.494 511.952 262.501 511.462C263.508 510.973 264.603 510.682 265.726 510.606C266.848 510.531 267.974 510.672 269.04 511.021C270.107 511.371 271.092 511.922 271.94 512.644C272.788 513.366 273.483 514.243 273.984 515.227L397.591 758.032V490.303C397.591 488.085 398.493 485.956 400.099 484.387C401.705 482.818 403.883 481.937 406.154 481.937C408.425 481.937 410.603 482.818 412.209 484.387C413.814 485.956 414.717 488.085 414.717 490.303V793.665C414.717 795.553 414.064 797.386 412.864 798.865C411.664 800.344 409.987 801.384 408.106 801.814C407.465 801.95 406.81 802.011 406.154 801.998Z" fill="black"/>
<path d="M406.145 801.998C404.701 801.994 403.282 801.634 402.019 800.95C400.757 800.267 399.691 799.282 398.922 798.088C398.153 796.895 397.706 795.53 397.621 794.122C397.536 792.714 397.818 791.308 398.438 790.034L535.01 510.216C535.494 509.224 536.173 508.334 537.009 507.599C537.845 506.863 538.821 506.296 539.881 505.929C540.941 505.561 542.065 505.402 543.189 505.459C544.312 505.517 545.413 505.79 546.428 506.263C547.444 506.736 548.354 507.399 549.107 508.216C549.86 509.033 550.441 509.986 550.816 511.022C551.192 512.058 551.355 513.156 551.297 514.254C551.238 515.352 550.959 516.427 550.474 517.419L413.886 797.238C413.188 798.665 412.091 799.87 410.721 800.712C409.35 801.555 407.764 802.001 406.145 801.998Z" fill="black"/>
</svg>
