<svg width="824" height="291" viewBox="0 0 824 291" fill="none" xmlns="http://www.w3.org/2000/svg">
<path d="M754.31 0H69.6898C51.1977 0 33.4866 7.63338 20.4267 21.2338C7.36675 34.8342 0 53.3176 0 72.5367V218.463C0 237.682 7.36713 256.166 20.4267 269.766C33.4862 283.367 51.1977 291 69.6898 291H754.31C792.783 291 824 258.529 824 218.463V72.5367C824 53.3176 816.633 34.8345 803.573 21.2338C790.514 7.63308 772.802 0 754.31 0ZM206.128 186.884C198.24 201.066 181.125 206.453 167.023 199.129C165.869 215.326 152.921 227.88 137.294 227.88C121.704 227.88 108.755 215.326 107.602 199.129C93.537 206.104 76.7194 200.64 68.9431 186.614C61.1666 172.586 65.0735 154.684 77.8729 145.502C65.073 136.319 61.1667 118.417 68.9431 104.39C76.7195 90.3632 93.537 84.9392 107.602 91.8749C108.755 75.6783 121.704 63.1628 137.294 63.1628C152.921 63.1628 165.869 75.6783 167.023 91.8749C181.05 84.9003 197.905 90.3638 205.681 104.39C213.458 118.418 209.588 136.319 196.752 145.502C209.886 154.53 213.979 172.664 206.128 186.884ZM389.268 186.884C381.38 201.066 364.228 206.414 350.163 199.129C349.009 215.326 336.024 227.841 320.434 227.841C304.844 227.841 291.858 215.326 290.742 199.129C276.677 206.104 259.859 200.64 252.083 186.614C244.307 172.586 248.214 154.684 261.013 145.502C248.213 136.319 244.307 118.417 252.083 104.39C259.86 90.3632 276.677 84.9392 290.742 91.8749C291.858 75.6783 304.844 63.1628 320.434 63.1628C336.024 63.1628 349.009 75.6783 350.126 91.8749C364.19 84.9003 381.008 90.3638 388.821 104.39C396.598 118.418 392.691 136.319 379.892 145.502C393.026 154.53 397.119 172.664 389.268 186.884ZM572.37 186.884C564.482 201.066 547.367 206.414 533.265 199.129C532.148 215.326 519.163 227.841 503.573 227.841C487.983 227.841 474.997 215.326 473.881 199.129C459.816 206.104 442.961 200.679 435.185 186.614C427.409 172.586 431.316 154.684 444.115 145.502C431.315 136.319 427.409 118.417 435.185 104.39C442.962 90.3632 459.816 84.9005 473.844 91.8749C474.997 75.6783 487.983 63.1628 503.573 63.1628C519.163 63.1628 532.148 75.6783 533.265 91.8749C547.33 84.939 564.147 90.3638 571.923 104.39C579.7 118.418 575.793 136.319 562.994 145.502C576.128 154.53 580.221 172.664 572.37 186.884ZM755.51 186.884C747.622 201.066 730.507 206.414 716.405 199.129C715.289 215.326 702.303 227.88 686.713 227.88C671.086 227.88 658.138 215.326 656.984 199.129C642.956 206.104 626.102 200.679 618.325 186.614C610.549 172.586 614.418 154.684 627.255 145.502C614.418 136.319 610.549 118.417 618.325 104.39C626.102 90.3632 642.956 84.9005 656.984 91.8749C658.137 75.6783 671.086 63.1628 686.713 63.1628C702.303 63.1628 715.251 75.6783 716.405 91.8749C730.47 84.939 747.287 90.3638 755.064 104.39C762.84 118.418 758.933 136.319 746.134 145.502C759.268 154.53 763.361 172.664 755.51 186.884Z" fill="black"/>
</svg>
