<svg width="583" height="783" viewBox="0 0 583 783" fill="none" xmlns="http://www.w3.org/2000/svg">
<path d="M384.118 667.252L375.645 748.957C373.624 768.362 355.318 783 333.087 783H249.951C227.68 783 209.413 768.361 207.392 748.957L198.919 667.252H384.156H384.118ZM555.793 0H27.2069C12.2045 0 0 10.69 0 23.8308V51.0657C0 64.2065 12.2045 74.8965 27.2069 74.8965H555.793C570.796 74.8965 583 64.2065 583 51.0657V23.8308C583 10.69 570.796 0 555.793 0ZM358.507 254.78C347.391 249.162 332.972 250.694 313.111 259.682C299.585 265.81 283.456 265.81 269.931 259.682C250.07 250.695 235.65 249.129 224.418 254.746C194.685 269.622 189.632 291.513 205.762 335.497C210.892 349.284 213.963 363.889 216.645 376.792C223.369 408.895 227.994 423.16 241.987 422.513C248.399 422.513 251.276 413.832 255.201 395.925C259.282 377.269 264.84 351.668 291.502 351.668C318.203 351.668 323.684 377.269 327.725 395.925C331.651 414.24 334.683 422.615 340.473 422.513C355.32 422.479 359.712 408.487 366.359 376.52C369.041 363.719 372.072 349.183 377.124 335.464V335.43C393.371 291.479 388.357 269.623 358.507 254.712V254.78ZM535.973 174.471L549.187 95.2857L33.7748 95.3198L46.9892 174.505C207.351 128.954 375.603 128.954 535.975 174.505L535.973 174.471ZM532.553 194.966L482.687 493.391C357.498 519.536 225.463 519.536 100.314 493.391L50.4483 194.966C208.482 149.313 374.555 149.313 532.589 194.966H532.553ZM399.314 341.764C413.228 304.146 420.613 262.272 370.125 237.043C351.78 227.749 329.626 229.212 302.381 241.536C295.579 244.634 287.417 244.634 280.615 241.536C253.408 229.212 231.216 227.749 212.793 237.043C162.422 262.269 169.768 304.142 183.565 341.799C188.229 354.327 190.989 367.638 193.709 380.507C200.161 411.214 206.846 442.943 240.777 442.943H240.816C267.906 444.509 274.008 418.704 278.128 399.776C281.548 384.116 284.696 372.132 291.537 372.132C298.339 372.132 301.448 384.116 304.829 399.742C308.794 418.092 314.118 443.011 338.916 443.011C339.693 443.011 340.47 443.011 341.286 442.943C376.266 442.943 382.913 411.079 389.325 380.235C392.007 367.469 394.767 354.224 399.314 341.764ZM291.498 533.498C228.417 533.498 165.413 527.132 103.893 514.91L116.68 591.475C121.966 623.034 153.371 646.796 189.75 646.796H393.175C429.554 646.796 460.959 623.034 466.245 591.475L479.032 514.91C417.507 527.132 354.5 533.498 291.428 533.498H291.498Z" fill="black"/>
</svg>
