<svg width="823" height="745" viewBox="0 0 823 745" fill="none" xmlns="http://www.w3.org/2000/svg">
<path d="M647.474 491.936C628.253 478.242 610.183 463.116 593.433 446.721C574.381 425.805 562.064 400.075 546.057 376.947C526.532 348.875 497.396 328.251 463.76 318.655C429.616 308.408 393.069 308.408 358.922 318.655C325.252 328.251 296.15 348.875 276.625 376.947C260.585 400.107 248.302 425.838 229.249 446.721C212.533 463.116 194.53 478.242 175.343 491.936C132.029 526.58 101.268 580.806 112.638 636.491C118.357 663.197 132.265 687.626 152.535 706.656C172.839 725.686 198.591 738.469 226.475 743.348C252.023 746.698 278.045 744.942 302.884 738.176C326.368 732.353 348.364 721.521 372.187 717.52C398.209 712.641 424.976 712.641 450.999 717.52C474.72 721.944 496.749 732.353 520.302 738.176C545.14 744.942 571.162 746.698 596.711 743.348C624.56 738.404 650.211 725.62 670.447 706.558C690.648 687.528 704.489 663.132 710.207 636.49C721.544 580.866 691.161 526.578 647.474 491.936Z" fill="black"/>
<path d="M157.078 414.325C202.558 393.995 215.282 326.721 185.232 263.358C155.183 199.995 93.8305 165.512 47.6748 185.322C-10.123 210.466 -10.1906 272.759 19.9605 336.289C50.1116 399.85 118.268 431.987 157.078 414.325Z" fill="black"/>
<path d="M309.83 271.169C359.811 262.842 389.861 196.223 376.866 121.277C363.872 46.3303 312.843 -6.79003 262.759 0.954429C199.073 10.7782 182.729 75.9008 195.723 150.847C208.717 225.793 267.192 278.356 309.83 271.169Z" fill="black"/>
<path d="M775.356 185.322C729.537 165.512 668.291 200.383 638.136 263.685C607.985 326.986 620.471 394.349 665.951 414.327C704.765 431.632 773.016 399.266 803.067 335.965C833.151 272.663 833.153 210.471 775.356 185.322Z" fill="black"/>
<path d="M513.2 271.169C555.838 278.326 614.313 225.271 627.307 150.589C640.301 75.9066 623.923 10.7808 560.271 0.69632C510.19 -6.78532 459.158 46.8549 446.164 121.543C433.17 196.231 463.49 262.784 513.2 271.178V271.169Z" fill="black"/>
</svg>
