<svg width="817" height="801" viewBox="0 0 817 801" fill="none" xmlns="http://www.w3.org/2000/svg">
<path d="M440.47 696.522C419.157 689.557 396.067 689.557 376.53 696.522L408.5 748.761L440.47 696.522Z" fill="black"/>
<path d="M408.5 0C330.352 0 266.413 62.687 266.413 139.304V574.63C266.413 576.372 266.413 578.113 268.189 579.854V583.337L335.68 694.78L360.546 738.313L392.515 792.294C396.067 797.517 401.396 801 408.5 801C415.604 801 420.933 797.517 424.485 792.294L548.811 586.82C550.587 583.337 550.587 581.596 550.587 578.113V139.304C550.587 62.687 486.648 0 408.5 0ZM333.904 689.557C333.904 687.815 333.904 684.333 333.904 682.591C333.904 684.333 333.904 686.074 333.904 689.557ZM460.007 665.178L408.5 750.502L380.083 701.746L376.53 694.78L358.77 661.696L316.143 592.044H504.409L460.007 665.178ZM515.065 156.717H301.935V139.304C301.935 81.8413 349.889 34.8261 408.5 34.8261C467.111 34.8261 515.065 81.8413 515.065 139.304V156.717Z" fill="black"/>
<path d="M641.167 604.233C634.063 597.267 623.407 597.267 616.302 604.233C609.198 611.198 609.198 621.646 616.302 628.611L666.033 677.367C669.585 680.85 674.913 682.591 678.465 682.591C682.017 682.591 687.346 680.85 690.898 677.367C698.002 670.402 698.002 659.954 690.898 652.989L641.167 604.233Z" fill="black"/>
<path d="M799.239 383.087H728.196C717.539 383.087 710.435 390.052 710.435 400.5C710.435 410.948 717.539 417.913 728.196 417.913H799.239C809.896 417.913 817 410.948 817 400.5C817 390.052 809.896 383.087 799.239 383.087Z" fill="black"/>
<path d="M666.033 111.443L616.302 160.2C609.198 167.165 609.198 177.613 616.302 184.578C619.854 188.061 625.183 189.802 628.735 189.802C632.287 189.802 637.615 188.061 641.167 184.578L690.898 135.822C698.002 128.857 698.002 118.409 690.898 111.443C683.794 104.478 673.137 104.478 666.033 111.443Z" fill="black"/>
<path d="M182.937 604.233L133.207 652.989C126.102 659.954 126.102 670.402 133.207 677.367C136.759 680.85 142.087 682.591 145.639 682.591C149.191 682.591 154.52 680.85 158.072 677.367L207.802 628.611C214.907 621.646 214.907 611.198 207.802 604.233C200.698 597.267 190.041 597.267 182.937 604.233Z" fill="black"/>
<path d="M88.8044 383.087H17.7609C7.10435 383.087 0 390.052 0 400.5C0 410.948 7.10435 417.913 17.7609 417.913H88.8044C99.4609 417.913 106.565 410.948 106.565 400.5C106.565 390.052 99.4609 383.087 88.8044 383.087Z" fill="black"/>
<path d="M158.072 111.443C150.967 104.478 140.311 104.478 133.207 111.443C126.102 118.409 126.102 128.857 133.207 135.822L182.937 184.578C186.489 188.061 191.817 189.802 195.37 189.802C198.922 189.802 204.25 188.061 207.802 184.578C214.907 177.613 214.907 167.165 207.802 160.2L158.072 111.443Z" fill="black"/>
</svg>
