<svg width="814" height="816" viewBox="0 0 814 816" fill="none" xmlns="http://www.w3.org/2000/svg">
<path d="M795.675 100.876C769.176 72.7925 741.352 46.0464 714.853 17.9629C689.679 -7.44586 649.93 -6.10855 620.78 23.3122C606.206 36.6852 592.956 51.3956 578.382 66.1059L566.457 78.1417C565.132 79.479 563.807 80.8163 563.807 82.1536L562.482 80.8163L578.382 96.864L718.828 237.281L733.402 251.991L750.627 235.944C763.876 222.571 777.126 209.198 790.376 195.825C819.525 166.404 822.175 127.622 795.675 100.876Z" fill="black"/>
<path d="M533.333 111.574L497.559 146.344L416.736 227.92C317.364 328.218 217.992 429.853 117.295 530.151C109.345 538.175 102.721 547.536 98.7457 556.897C74.8963 606.377 51.047 654.52 27.1977 702.663L9.97322 737.433C5.99834 745.457 3.34842 754.818 0.698492 762.842C-3.27639 788.251 9.97323 809.648 33.8225 814.997C40.4473 816.334 47.0722 816.334 56.3469 814.997C62.9717 813.66 70.9215 810.985 80.1962 805.636L113.32 789.588C153.069 770.866 191.493 750.806 231.242 730.747L236.542 728.072C253.766 720.048 273.641 709.35 292.19 690.628C345.189 637.135 398.187 582.306 451.185 528.814L680.404 296.122C681.729 294.785 683.054 293.448 684.379 292.111L700.278 277.4L533.333 111.574ZM219.317 695.977L215.342 698.651C184.868 713.362 159.694 726.735 134.52 738.771C123.92 728.072 114.645 717.374 104.046 708.013L80.1962 683.941C97.4207 647.834 115.97 611.727 133.195 574.282C134.52 571.607 135.845 568.933 138.495 564.921C143.794 575.619 154.394 584.98 171.619 590.33C174.268 599.691 179.568 611.727 190.168 621.088C198.118 629.112 208.717 635.798 223.292 639.81C225.942 651.846 233.892 667.893 249.791 677.255C239.192 685.278 229.917 690.628 219.317 695.977Z" fill="black"/>
</svg>
