<svg width="654" height="728" viewBox="0 0 654 728" fill="none" xmlns="http://www.w3.org/2000/svg">
<path d="M354.123 365.678L397.907 358.324L387.933 426.518L354.123 365.678ZM267.841 370.27L338.661 358.294L317.772 320.686L267.841 370.27ZM360.803 277.972L325.236 313.239L349.324 356.431L400.039 348.357L407.127 299.822L360.803 277.972ZM351.08 273.44L286.345 243.274L320.155 304.024L351.08 273.44ZM418.701 220.944L368.08 270.949L408.069 289.618L418.701 220.944ZM528.572 106.977L596.193 476.039V476.069C563.167 486.005 541.118 515.75 542.184 548.856L286.503 591.717C275.526 560.472 244.288 539.911 209.85 541.262L142.229 172.2C175.255 162.235 197.336 132.52 196.332 99.413L451.571 56.5219C462.549 87.7974 493.787 108.358 528.225 107.007L528.572 106.977ZM514.02 338.66L417.854 293.757L432.721 192.246L358.357 266.023L262.071 221.031L312.787 311.523L238.423 385.21L343.806 367.411L394.521 457.903L409.482 356.392L514.02 338.66ZM410.05 346.194L480.963 334.218L416.322 304.053L410.05 346.194ZM551.973 7.982L654 561.641L645.563 572.716L632.139 574.968L632.108 574.998C609.682 580.701 590.394 594.447 578.256 613.417L584.09 643.012L578.099 651.086L566.62 653.037L124.173 727.624C118.464 728.675 112.568 727.504 107.8 724.353C103.033 721.201 99.8026 716.338 98.7989 710.876L0 173.337C2.32091 127.414 35.8173 88.3619 82.3953 77.228L89.8286 117.658L97.5127 74.7969L492.074 8.07349L503.741 33.3764L505.592 5.79292L539.998 0L551.973 7.982ZM576.311 584.447L250.946 639.374L212.336 645.857L179.875 595.462L189.942 649.639H189.911C159.614 657.233 135.808 679.654 127.371 708.529L547.77 637.513C548.46 633.881 549.621 630.73 550.562 627.398L448.029 634.902L554.255 617.013C555.353 614.342 556.45 611.761 557.705 608.939L518.813 606.508L563.632 599.154C567.396 593.901 571.63 588.979 576.303 584.446L576.311 584.447ZM538.8 101.986C538.361 99.3748 536.855 97.0637 534.629 95.5329C532.37 94.0021 529.579 93.4318 526.882 93.8821C497.839 98.8046 470.082 80.3455 464.75 52.5515C464.31 49.9702 462.805 47.659 460.547 46.1583C458.32 44.6275 455.56 44.0273 452.831 44.4775L190.35 88.6296C187.621 89.0798 185.237 90.5205 183.638 92.6516C182.038 94.7827 181.411 97.454 181.881 100.035C184.359 113.422 181.191 127.229 173.037 138.365C164.882 149.53 152.43 157.124 138.442 159.495C135.745 159.915 133.298 161.356 131.699 163.487C130.131 165.648 129.503 168.29 130.005 170.901L199.288 545.941C199.727 548.553 201.233 550.864 203.491 552.395C205.718 553.895 208.509 554.496 211.206 554.045C240.375 549.153 268.195 567.792 273.339 595.676C274.311 601.079 279.674 604.711 285.32 603.78L547.745 559.449H547.776C550.474 559.028 552.889 557.558 554.457 555.427C556.056 553.296 556.684 550.624 556.213 548.043C553.735 534.656 556.935 520.849 565.058 509.714C573.213 498.548 585.664 490.954 599.653 488.613C605.267 487.653 609.031 482.58 608.121 477.207L538.8 101.986Z" fill="black"/>
</svg>
