<svg width="421" height="820" viewBox="0 0 421 820" fill="none" xmlns="http://www.w3.org/2000/svg">
<path d="M292.396 136.131H126.169C122.713 132.002 120.425 127.304 119.468 122.372C118.511 117.441 118.908 112.399 120.632 107.607C123.373 102.618 127.579 98.2512 132.883 94.8896C138.186 91.528 144.424 89.2745 151.051 88.3267V83.9046H267.515V88.328C274.141 89.2755 280.38 91.5288 285.683 94.8903C290.987 98.2518 295.193 102.619 297.934 107.608C299.658 112.4 300.055 117.442 299.098 122.373C298.141 127.304 295.852 132.002 292.396 136.131ZM267.515 64.1456V9.87952C267.515 8.58212 267.2 7.29742 266.589 6.09877C265.977 4.90012 265.081 3.811 263.951 2.8936C262.821 1.9762 261.48 1.24848 260.003 0.751996C258.527 0.255511 256.945 -2.09021e-05 255.347 1.28239e-09H163.218C159.991 1.28239e-09 156.896 1.04088 154.614 2.89365C152.333 4.74642 151.051 7.25931 151.051 9.87952V64.1456H267.515ZM210.382 276.258C247.557 257.457 291.686 249.859 335.059 254.794C335.699 247.064 334.524 239.306 331.597 231.932H89.4023C84.725 247.117 84.4298 262.975 88.5397 278.268C107.219 286.799 128.372 291.112 149.799 290.759C171.226 290.405 192.145 285.398 210.382 276.258ZM333.055 274.568C294.498 269.649 255.059 276.393 222.221 293.521C199.076 304.397 172.859 310.225 146.118 310.439C127.984 310.431 110.021 307.591 93.2072 302.075C97.3692 321.15 103.205 344.47 110.46 373.109C126.82 437.686 113.574 509.585 100.764 579.116C93.9451 611.951 89.1548 645.043 86.4111 678.267C82.5931 748.344 107.275 760.529 111.682 762.135H309.319C313.726 760.529 338.409 748.344 334.59 678.267C331.846 645.043 327.056 611.951 320.237 579.116C307.427 509.585 294.181 437.686 310.541 373.109C321.738 328.909 329.557 297.374 333.055 274.568ZM384.535 362.976C362.156 432.021 380.856 511.355 398.94 588.078C409.006 625.934 416.079 664.274 420.116 702.864C427.713 811.855 360.649 819.651 357.79 819.931C357.309 819.977 356.824 820 356.34 820H64.6591C64.1746 820 63.6906 819.977 63.2094 819.931C60.3504 819.651 -6.71389 811.855 0.885012 702.864C4.92091 664.274 11.9941 625.933 22.0611 588.076C40.144 511.355 58.8438 432.02 36.4651 362.977C1.38769 254.746 -13.1318 209.946 14.3528 181.039C27.3677 167.349 48.5421 159.988 82.8475 155.891H338.161C372.461 159.989 393.633 167.351 406.647 181.039C434.132 209.948 419.613 254.745 384.535 362.976ZM334.378 377.091C360.305 274.753 367.646 241.223 349.609 216.948C348.526 215.491 346.998 214.286 345.172 213.449C343.347 212.612 341.287 212.173 339.19 212.173H81.8097C79.7136 212.173 77.653 212.612 75.8277 213.449C74.0023 214.286 72.474 215.491 71.3909 216.948C53.3553 241.222 60.6954 274.753 86.6223 377.091C102.112 438.233 89.1904 508.368 76.6942 576.193C69.7372 609.706 64.8655 643.483 62.0977 677.395C56.9085 772.638 102.78 781.126 108.027 781.78C108.639 781.856 109.256 781.894 109.874 781.894H311.125C311.743 781.894 312.361 781.856 312.972 781.78C318.219 781.126 364.092 772.638 358.902 677.395C356.134 643.483 351.262 609.706 344.305 576.193C331.81 508.368 318.887 438.233 334.378 377.091Z" fill="black"/>
</svg>
