<svg width="467" height="500" viewBox="0 0 467 500" fill="none" xmlns="http://www.w3.org/2000/svg">
<path d="M441.61 72.9852C455.273 72.9852 466.365 84.9092 466.365 99.5965V446.48C466.365 467.869 450.313 485.103 430.558 485.103C410.802 485.103 394.75 467.848 394.75 446.48L394.771 134.907C394.771 124.006 391.208 113.235 384.63 104.531L360.481 72.9802H441.629L441.61 72.9852ZM122.623 278.086C137.156 278.086 148.957 265.248 148.957 249.625C148.957 234.002 137.156 221.316 122.623 221.316C108.089 221.316 96.2885 234.002 96.2885 249.625C96.2885 265.248 108.089 278.086 122.623 278.086ZM83.5361 315.686H161.585C162.678 315.686 163.649 315.251 164.317 314.359C164.722 313.771 165.269 312.879 165.005 311.4C163.366 302.544 158.832 291.642 142.639 286.768C136.748 290.445 129.887 292.817 122.62 292.817C115.353 292.817 108.491 290.467 102.601 286.768C86.4076 291.642 81.8937 302.543 80.1127 311.4C79.971 312.879 80.5175 313.75 80.8009 314.359C81.4891 315.251 82.5822 315.686 83.5538 315.686H83.5361ZM307.531 130.059H62.0005C56.1103 130.059 51.2927 124.902 51.2927 118.418V67.6973C51.2927 61.3654 56.09 56.1867 62.0005 56.1867H280.103V96.4415C280.103 113.697 292.046 127.992 307.531 130.059ZM375.158 115.611H311.64C301.762 115.611 293.807 106.907 293.807 96.4409V9.29249C294.495 10.0323 295.183 10.7721 295.872 11.5119L296.013 11.8166C296.115 11.9254 296.196 12.0124 296.297 12.1212L374.065 113.87C374.47 114.457 374.895 115.045 375.158 115.632L375.158 115.611ZM430.557 499.855H49.6522C22.2248 499.855 0 475.963 0 446.48V26.5462C0 11.9457 11.1124 0 24.8365 0H272.289C275.042 0 277.632 0.43519 280.102 1.17501V41.4299H61.9994C48.5588 41.4299 37.5884 53.2234 37.5884 67.6713V118.392C37.5884 132.993 48.5593 144.786 61.9994 144.786H312.872C322.345 144.786 330.563 138.89 334.551 130.338H380.782C380.924 131.818 381.066 133.428 381.066 134.907V446.48C381.066 475.834 403.291 499.856 430.576 499.856L430.557 499.855ZM225.917 206.28C225.917 210.414 228.933 213.656 232.779 213.656H269.537C273.242 213.656 276.399 210.414 276.399 206.28C276.399 202.298 273.242 198.903 269.537 198.903H232.779C228.933 198.903 225.917 202.298 225.917 206.28ZM258.02 328.677C258.02 324.696 254.862 321.301 251.158 321.301H232.779C228.933 321.301 225.917 324.696 225.917 328.677C225.917 332.812 228.933 336.054 232.779 336.054H251.158C254.862 336.054 258.02 332.812 258.02 328.677ZM252.798 382.488H160.478C156.632 382.488 153.617 385.73 153.617 389.865C153.617 393.999 156.633 397.241 160.478 397.241H252.798C256.502 397.241 259.659 393.999 259.659 389.865C259.659 385.73 256.502 382.488 252.798 382.488ZM37.5915 335.902C37.5915 349.175 47.6111 359.946 60.0795 359.946H185.174C197.521 359.946 207.662 349.175 207.662 335.902V201.277C207.662 188.004 197.521 177.103 185.174 177.103H60.0795C47.5903 177.103 37.5915 188.004 37.5915 201.277V335.902ZM37.5915 389.865C37.5915 393.999 40.6075 397.241 44.4533 397.241H134.974C138.82 397.241 141.836 393.999 141.836 389.865C141.836 385.73 138.82 382.488 134.974 382.488H44.4533C40.6074 382.488 37.5915 385.73 37.5915 389.865ZM89.4304 451.05C89.4304 446.915 86.4144 443.673 82.5686 443.673H44.4336C40.5877 443.673 37.5718 446.915 37.5718 451.05C37.5718 455.032 40.5878 458.426 44.4336 458.426H82.5686C86.4145 458.426 89.4304 455.031 89.4304 451.05ZM270.913 451.05C270.913 446.915 267.897 443.673 264.051 443.673H108.638C104.792 443.673 101.777 446.915 101.777 451.05C101.777 455.032 104.793 458.426 108.638 458.426H264.051C267.897 458.426 270.913 455.031 270.913 451.05ZM341.412 451.05C341.412 446.915 338.254 443.673 334.55 443.673H296.152C292.448 443.673 289.29 446.915 289.29 451.05C289.29 455.032 292.448 458.426 296.152 458.426H334.55C338.254 458.426 341.412 455.031 341.412 451.05ZM341.412 389.865C341.412 385.73 338.254 382.488 334.55 382.488H276.255C272.409 382.488 269.393 385.73 269.393 389.865C269.393 393.999 272.409 397.241 276.255 397.241H334.55C338.254 397.241 341.412 393.999 341.412 389.865ZM341.412 328.68C341.412 324.698 338.254 321.303 334.55 321.303H276.255C272.409 321.303 269.393 324.698 269.393 328.68C269.393 332.814 272.409 336.056 276.255 336.056H334.55C338.254 336.056 341.412 332.814 341.412 328.68ZM341.412 267.472C341.412 263.491 338.254 260.096 334.55 260.096H232.774C228.928 260.096 225.912 263.491 225.912 267.472C225.912 271.607 228.928 274.849 232.774 274.849H334.55C338.254 274.849 341.412 271.607 341.412 267.472ZM341.412 206.288C341.412 202.306 338.254 198.911 334.55 198.911H298.621C294.917 198.911 291.76 202.306 291.76 206.288C291.76 210.422 294.917 213.664 298.621 213.664H334.55C338.254 213.664 341.412 210.422 341.412 206.288ZM51.2922 335.91V201.285C51.2922 196.128 55.1381 191.842 60.077 191.842H185.171C189.968 191.842 193.956 196.128 193.956 201.285V335.91C193.956 341.067 189.968 345.201 185.171 345.201H60.077C55.1381 345.201 51.2922 341.067 51.2922 335.91ZM70.238 323.66C73.5374 327.946 78.3346 330.449 83.5366 330.449H161.585C166.787 330.449 171.726 327.947 175.026 323.66C178.325 319.373 179.56 313.781 178.447 308.472C175.431 292.848 167.192 282.077 154.177 275.876C159.399 268.652 162.678 259.513 162.678 249.634C162.678 225.895 144.704 206.573 122.62 206.573C100.537 206.573 82.5622 225.895 82.5622 249.634C82.5622 259.666 85.7199 268.652 91.0635 275.876C78.0281 282.077 69.8098 292.827 66.7939 308.472C65.7009 313.781 66.9356 319.373 70.2148 323.66H70.238Z" fill="black"/>
</svg>
