<svg width="673" height="755" viewBox="0 0 673 755" fill="none" xmlns="http://www.w3.org/2000/svg">
<path d="M660.888 350.478H607.948C601.262 350.478 595.836 345.035 595.836 338.301C595.836 331.567 601.262 326.123 607.948 326.123H660.888C667.574 326.123 673 331.567 673 338.301C673 345.035 667.574 350.478 660.888 350.478ZM65.0036 350.478H12.1117C5.42605 350.478 0 345.035 0 338.301C0 331.567 5.42605 326.123 12.1117 326.123H65.0036C71.7014 326.123 77.1153 331.567 77.1153 338.301C77.1153 345.035 71.7014 350.478 65.0036 350.478Z" fill="black"/>
<path d="M336.476 77.5336C329.79 77.5336 324.364 72.0903 324.364 65.3562V12.1774C324.364 5.44331 329.79 0 336.476 0C343.174 0 348.587 5.44331 348.587 12.1774V65.3562C348.587 72.0903 343.174 77.5336 336.476 77.5336Z" fill="black"/>
<path d="M528.471 157.503C525.37 157.503 522.27 156.309 519.908 153.935C515.172 149.173 515.172 141.477 519.908 136.716L557.333 99.0877C562.069 94.3263 569.723 94.3263 574.459 99.0877C579.195 103.849 579.195 111.545 574.459 116.307L537.034 153.935C534.66 156.309 531.559 157.503 528.471 157.503Z" fill="black"/>
<path d="M144.529 157.503C141.429 157.503 138.328 156.309 135.966 153.935L98.541 116.307C93.8053 111.545 93.8053 103.849 98.541 99.0877C103.277 94.3263 110.931 94.3263 115.667 99.0877L153.092 136.716C157.828 141.477 157.828 149.173 153.092 153.935C150.73 156.309 147.63 157.503 144.529 157.503Z" fill="black"/>
<path d="M587.358 246.008C582.598 246.008 578.092 243.183 576.155 238.495C573.599 232.272 576.53 225.148 582.707 222.579L631.529 202.243C637.706 199.661 644.804 202.62 647.359 208.831C649.927 215.053 646.996 222.177 640.807 224.746L591.985 245.083C590.471 245.716 588.908 246.008 587.358 246.008Z" fill="black"/>
<path d="M85.642 246.008C84.0917 246.008 82.5293 245.716 81.0153 245.083L32.1445 224.746C25.9675 222.177 23.0244 215.053 25.5921 208.831C28.1355 202.62 35.2209 199.661 41.41 202.243L90.2808 222.579C96.4699 225.148 99.4009 232.272 96.8453 238.495C94.9075 243.183 90.4019 246.008 85.642 246.008Z" fill="black"/>
<path d="M232.581 98.2839C227.821 98.2839 223.304 95.4588 221.39 90.7705L201.164 41.6346C198.596 35.4119 201.539 28.2881 207.716 25.7187C213.893 23.1371 220.978 26.0962 223.546 32.3067L243.773 81.4426C246.328 87.6652 243.397 94.789 237.208 97.3585C235.694 97.9917 234.12 98.2839 232.581 98.2839Z" fill="black"/>
<path d="M440.382 98.2839C438.832 98.2839 437.269 97.9917 435.756 97.3585C429.579 94.789 426.635 87.6652 429.203 81.4426L449.43 32.3067C451.985 26.0962 459.059 23.1371 465.248 25.7187C471.437 28.2881 474.368 35.4119 471.812 41.6346L451.586 90.7705C449.648 95.4588 445.142 98.2839 440.382 98.2839Z" fill="black"/>
<path d="M336.476 112.142C211.144 112.142 109.163 214.664 109.163 340.688V515.507H563.776V340.688C563.789 214.664 461.82 112.142 336.476 112.142ZM377.183 231.541C395.702 231.541 410.212 250.757 410.212 275.307C410.212 299.857 395.714 319.073 377.183 319.073C358.677 319.073 344.179 299.857 344.179 275.307C344.179 250.757 358.677 231.541 377.183 231.541ZM295.792 231.541C314.311 231.541 328.821 250.757 328.821 275.307C328.821 299.857 314.323 319.073 295.792 319.073C277.262 319.073 262.74 299.857 262.74 275.307C262.74 250.757 277.249 231.541 295.792 231.541ZM224.563 387.071C206.045 387.071 191.535 367.868 191.535 343.354C191.535 318.805 206.033 299.577 224.563 299.577C243.094 299.577 257.616 318.805 257.616 343.354C257.604 367.868 243.094 387.071 224.563 387.071ZM369.638 463.132H303.35C276.499 463.132 254.649 441.151 254.649 414.154C254.649 394.536 266.179 377.171 283.535 369.39C288.634 344.548 310.46 326.123 336.476 326.123C362.468 326.123 384.305 344.548 389.44 369.39C406.809 377.159 418.351 394.524 418.351 414.154C418.351 441.164 396.489 463.132 369.638 463.132ZM448.437 387.071C429.906 387.071 415.384 367.868 415.384 343.354C415.384 318.805 429.893 299.577 448.437 299.577C466.955 299.577 481.465 318.805 481.465 343.354C481.465 367.868 466.955 387.071 448.437 387.071Z" fill="black"/>
<path d="M618.17 635.393V588.011C618.17 561.61 596.793 540.117 570.523 540.117H102.429C76.1948 540.117 54.8298 561.61 54.8298 588.011V635.393H618.17Z" fill="black"/>
<path d="M54.8298 659.748V742.823C54.8298 749.557 60.2558 755 66.9415 755H606.058C612.744 755 618.17 749.557 618.17 742.823V659.748H54.8298Z" fill="black"/>
</svg>
