<svg width="813" height="758" viewBox="0 0 813 758" fill="none" xmlns="http://www.w3.org/2000/svg">
<path d="M688.9 380.011L760.119 313.592C795.135 278.055 814.066 231.27 812.954 183.018C811.842 134.767 790.773 88.7835 754.152 54.6823C717.532 20.5811 668.194 1.00171 616.454 0.0373808C564.713 -0.926945 514.576 16.7984 476.524 49.5079L405.304 115.927L334.085 49.5079C295.87 17.7041 246.055 0.741136 194.857 2.09785C143.659 3.45456 94.958 23.0281 58.7409 56.8043C22.5238 90.5806 1.53575 136 0.0809923 183.747C-1.37376 231.495 16.815 277.952 50.9172 313.592L122.136 380.011L50.9172 446.431C16.815 482.07 -1.37376 528.528 0.0809923 576.275C1.53575 624.023 22.5238 669.442 58.7409 703.218C94.958 736.994 143.659 756.568 194.857 757.924C246.055 759.281 295.87 742.318 334.085 710.514L405.304 644.095L476.524 710.514C514.739 742.318 564.554 759.281 615.752 757.924C666.95 756.568 715.651 736.994 751.868 703.218C788.085 669.442 809.073 624.023 810.528 576.275C811.983 528.528 793.794 482.07 759.692 446.431L688.9 380.011ZM496.323 68.371C664.258 -76.1577 895.151 138.643 739.466 295.127L668.246 361.547L425.531 134.392L496.323 68.371ZM419.548 287.024C439.775 224.59 502.02 254.213 484.073 310.935C464.417 372.572 402.171 342.949 419.548 287.024ZM342.774 253.814C389.921 236.545 412.426 325.946 374.253 342.683C351.035 351.849 333.088 333.119 326.251 310.271C319.841 288.751 323.687 262.582 342.774 253.814ZM315.568 324.086C355.878 360.882 319.272 422.52 271.555 382.269C231.245 345.739 267.709 283.836 315.568 324.086ZM77.6956 180.753C74.8665 180.768 72.0965 179.997 69.7388 178.539C67.3812 177.08 65.5427 175 64.4578 172.563C63.3729 170.126 63.0907 167.443 63.6472 164.856C64.2037 162.269 65.5737 159.895 67.5825 158.037L168.144 64.253C170.826 61.7692 174.457 60.3808 178.236 60.3933C182.016 60.4058 185.636 61.818 188.299 64.3194C190.963 66.8208 192.451 70.2065 192.438 73.7316C192.425 77.2566 190.91 80.6324 188.228 83.1161L88.521 176.768C87.1191 178.105 85.4301 179.152 83.5646 179.838C81.6992 180.525 79.6992 180.837 77.6956 180.753ZM102.622 265.106C99.8305 265.15 97.0863 264.427 94.731 263.029C92.3756 261.63 90.513 259.617 89.3748 257.239C88.2365 254.861 87.8727 252.223 88.3287 249.654C88.7847 247.085 90.0403 244.698 91.9395 242.789L258.165 87.7655C260.89 85.5893 264.395 84.4521 267.98 84.5812C271.565 84.7103 274.966 86.0963 277.502 88.4621C280.039 90.8279 281.525 93.9992 281.664 97.3425C281.802 100.686 280.583 103.955 278.249 106.496L112.166 261.519C109.536 264.022 105.952 265.454 102.195 265.504L102.622 265.106ZM314.286 691.651C146.351 836.18 -83.6874 621.512 71.1435 464.895L142.363 398.476L385.078 625.63L314.286 691.651ZM405.304 508.599C366.846 509.928 299.9 496.777 302.321 462.106C307.022 338.433 503.587 338.565 508.43 462.106C508.573 496.511 453.021 508.599 405.304 508.599ZM505.012 394.889C453.449 385.723 483.646 305.489 529.369 311.466C580.646 320.632 550.877 400.734 505.012 394.889ZM552.444 672.257C549.719 674.433 546.214 675.57 542.629 675.441C539.044 675.312 535.643 673.926 533.107 671.56C530.57 669.194 529.084 666.023 528.945 662.68C528.807 659.337 530.026 656.068 532.36 653.527L698.443 498.503C701.107 496.002 704.726 494.59 708.506 494.577C712.286 494.565 715.916 495.953 718.598 498.437C721.28 500.921 722.795 504.297 722.808 507.822C722.822 511.347 721.333 514.732 718.67 517.234L552.444 672.257ZM743.454 601.719L642.892 695.504C641.564 696.733 639.989 697.707 638.258 698.37C636.526 699.032 634.671 699.37 632.8 699.363C630.928 699.357 629.076 699.007 627.35 698.334C625.623 697.66 624.056 696.676 622.737 695.437C621.418 694.199 620.374 692.73 619.664 691.115C618.954 689.5 618.592 687.771 618.598 686.025C618.605 684.28 618.98 682.553 619.703 680.942C620.425 679.332 621.48 677.87 622.808 676.641L722.515 583.653C725.13 581.32 728.599 580.002 732.217 579.967C735.836 579.932 739.333 581.183 741.999 583.466C744.664 585.749 746.298 588.892 746.568 592.258C746.838 595.623 745.725 598.959 743.454 601.587V601.719Z" fill="black"/>
</svg>
