<svg width="822" height="731" viewBox="0 0 822 731" fill="none" xmlns="http://www.w3.org/2000/svg">
<path d="M376.412 352.789C387.183 356.567 396.918 364.558 403.858 374.293C410.901 384.173 415.251 396.088 415.251 407.602C415.251 411.997 414.595 416.138 413.387 419.952C411.246 426.745 407.345 432.23 402.201 435.972C397.161 439.677 390.913 441.711 384.042 441.675C379.934 441.711 375.515 440.948 370.889 439.313C360.082 435.536 350.347 427.581 343.408 417.846C336.365 407.965 332.015 396.051 332.015 384.5C332.015 380.105 332.671 375.928 333.879 372.114C336.019 365.321 339.921 359.873 345.41 355.877C350.761 352.172 356.733 350.319 363.258 350.319C367.366 350.319 371.82 351.082 376.446 352.717L376.412 352.789ZM280.502 267.354C291.308 271.132 301.043 279.087 307.983 288.822C315.026 298.702 319.376 310.617 319.376 322.131C319.376 326.526 318.72 330.704 317.512 334.554C315.371 341.346 311.47 346.795 306.326 350.573C301.251 354.314 295.003 356.349 288.167 356.349C284.059 356.349 279.571 355.586 274.772 353.879C263.932 349.919 254.369 342.073 247.534 332.483C240.491 322.603 236.141 310.688 236.141 299.174C236.141 294.779 236.797 290.602 238.005 286.788C240.145 279.995 244.046 274.547 249.19 270.768C254.265 267.027 260.513 264.993 267.384 264.993C271.492 264.993 275.911 265.756 280.538 267.39L280.502 267.354ZM184.663 285.48C195.47 289.258 205.17 297.212 212.11 306.984C219.152 316.864 223.503 328.779 223.503 340.293C223.503 344.652 222.847 348.829 221.638 352.643C219.498 359.436 215.597 364.921 210.453 368.662C205.378 372.404 199.13 374.438 192.259 374.438C188.151 374.438 183.732 373.675 179.106 372.041C168.3 368.263 158.599 360.308 151.625 350.573C144.582 340.693 140.232 328.778 140.232 317.264C140.232 312.905 140.888 308.728 142.096 304.914C144.237 298.085 148.138 292.636 153.627 288.677C158.978 284.972 164.95 283.119 171.475 283.119C175.584 283.119 180.003 283.882 184.629 285.516L184.663 285.48ZM280.538 393.544C303.185 401.499 323.623 418.281 338.33 438.949C353.14 459.727 362.323 484.646 362.323 508.656C362.323 517.592 361.046 525.91 358.629 533.429C354.486 546.543 346.995 557.04 337.121 564.269C327.316 571.461 315.164 575.384 301.735 575.384C293.38 575.384 284.37 573.785 274.98 570.516C252.332 562.561 231.86 545.779 217.153 525.147C202.342 504.369 193.16 479.451 193.16 455.441C193.16 446.541 194.437 438.223 196.819 430.703C200.962 417.554 208.453 407.056 218.362 399.828C228.166 392.672 240.284 388.749 253.748 388.749C262.137 388.713 271.148 390.275 280.537 393.58L280.538 393.544ZM706.766 216.462V387.332C706.731 390.056 705.592 392.781 703.417 394.597C699.619 397.794 694.061 397.14 691.023 393.108L657.294 348.537L621.459 425.327C620.216 428.85 616.971 431.393 613.173 431.393C608.306 431.393 604.335 427.216 604.335 422.094V258.487L531.111 288.564V682.424L779.988 580.246V186.386L706.766 216.462ZM584.899 246.576L124.601 116.789L61.4924 142.725L521.791 272.511L584.934 246.612L584.899 246.576ZM237.108 70.6192L697.406 200.406L760.549 174.47L300.251 44.6833L237.108 70.6192ZM525.897 704.516C524.792 705.06 523.549 705.351 522.272 705.351C521.271 705.351 520.304 705.169 519.372 704.843L30.8981 567.17C26.9625 566.044 24.3387 562.303 24.3387 558.198V144.429C24.3387 142.939 24.6839 141.523 30.4493 135.602L121.418 98.2606L206.069 63.5342L296.552 26.3744C298.382 25.6116 300.281 25.5752 302.041 26.0475L790.542 163.757C791.992 164.047 793.338 164.738 794.512 165.791C796.48 167.535 797.688 170.077 797.688 172.911V586.68C797.688 590.858 795.064 594.381 791.508 595.543L525.919 704.593L525.897 704.516ZM513.434 683.92V289.362L42.0524 156.488V551.046L513.434 683.92ZM5.83446 124.416C2.20949 129.901 0.103581 136.548 0 143.631L0.0345212 558.164C0.0345212 566.228 2.48564 573.638 6.76657 579.486C11.0475 585.335 17.1927 589.767 24.5803 591.836L513.673 729.723C517.298 730.74 520.75 731.139 524.099 730.958C527.31 730.776 530.589 730.013 533.904 728.705L800.872 619.116C807.397 616.465 812.713 611.96 816.338 606.403C819.963 600.809 822 594.016 822 586.606V172.836C822 164.809 819.514 157.398 815.233 151.514C810.953 145.665 804.807 141.233 797.42 139.163L308.363 1.27744C304.738 0.260312 301.285 -0.13918 297.937 0.0424302C294.691 0.22405 291.446 0.986843 288.132 2.29457L21.1636 111.884C14.7423 114.535 9.49484 118.931 5.83505 124.452L5.83446 124.416Z" fill="black"/>
</svg>
