<svg width="815" height="704" viewBox="0 0 815 704" fill="none" xmlns="http://www.w3.org/2000/svg">
<path d="M777.999 363.225L708.566 160.17C703.785 146.263 694.9 134.221 683.14 125.713C671.38 117.204 657.327 112.65 642.927 112.68H519.943V75.5519C519.943 55.5392 512.188 36.3441 498.38 22.1795C484.572 8.01486 465.839 0.0381194 446.293 0H355.917C336.358 0.0380361 317.61 8.01016 303.78 22.1707C289.95 36.3312 282.163 55.526 282.126 75.5519V112.68H172.073C157.673 112.65 143.62 117.204 131.86 125.713C120.1 134.221 111.215 146.263 106.434 160.17L37.0007 363.225C-12.3336 369.557 -12.3336 447.123 37.0007 453.455L106.434 656.51C111.32 670.348 120.232 682.319 131.968 690.811C143.705 699.302 157.702 703.905 172.073 704H642.927C657.298 703.905 671.295 699.302 683.032 690.811C694.768 682.319 703.68 670.348 708.566 656.51L777.999 453.455C827.334 447.123 827.334 369.557 777.999 363.225ZM310.237 75.408C310.274 63.0154 315.099 51.1413 323.657 42.3784C332.216 33.6155 343.813 28.6757 355.917 28.6378H445.59C451.648 28.5614 457.66 29.7195 463.276 32.0448C468.893 34.37 474.001 37.8159 478.305 42.1818C482.608 46.5477 486.02 51.7465 488.343 57.4754C490.665 63.2044 491.851 69.3491 491.832 75.5519V112.536H310.237V75.408ZM481.572 209.099C464.143 266.662 403.143 243.205 420.15 185.21C437.157 127.215 498.579 151.248 481.572 209.243V209.099ZM348.889 154.126C393.445 137.289 414.528 225.361 377.984 240.471C333.428 257.164 312.345 169.092 348.889 154.27V154.126ZM407.5 247.379C449.666 247.379 482.696 278.175 482.696 316.023C482.696 350.273 425.21 353.007 407.5 353.007C379.389 354.159 330.196 343.797 332.444 316.023C333.604 296.767 342.138 278.757 356.191 265.904C370.244 253.051 388.681 246.394 407.5 247.379ZM544.118 220.899C548.499 230.201 549.689 240.743 547.496 250.823C545.302 260.902 539.854 269.93 532.03 276.448C528.684 280.361 524.527 283.46 519.863 285.52C515.198 287.58 510.144 288.549 505.068 288.356C499.991 288.163 495.021 286.813 490.519 284.405C486.017 281.996 482.096 278.59 479.042 274.433C455.85 238.888 514.04 179.31 543.696 220.899H544.118ZM270.741 220.899C300.398 179.166 358.587 239.032 335.818 274.433C332.764 278.59 328.843 281.996 324.341 284.405C319.838 286.813 314.868 288.163 309.792 288.356C304.715 288.549 299.661 287.58 294.997 285.52C290.332 283.46 286.175 280.361 282.829 276.448C274.935 269.987 269.403 260.986 267.133 250.903C264.862 240.82 265.985 230.247 270.32 220.899H270.741ZM194.28 625.426C194.28 629.243 192.799 632.903 190.163 635.602C187.528 638.301 183.953 639.817 180.225 639.817C176.497 639.817 172.922 638.301 170.286 635.602C167.65 632.903 166.169 629.243 166.169 625.426V514.473C166.169 510.656 167.65 506.996 170.286 504.297C172.922 501.598 176.497 500.082 180.225 500.082C183.953 500.082 187.528 501.598 190.163 504.297C192.799 506.996 194.28 510.656 194.28 514.473V625.426ZM270.039 625.426C270.039 629.243 268.558 632.903 265.922 635.602C263.286 638.301 259.711 639.817 255.983 639.817C252.256 639.817 248.68 638.301 246.045 635.602C243.409 632.903 241.928 629.243 241.928 625.426V514.473C241.928 510.656 243.409 506.996 246.045 504.297C248.68 501.598 252.256 500.082 255.983 500.082C259.711 500.082 263.286 501.598 265.922 504.297C268.558 506.996 270.039 510.656 270.039 514.473V625.426ZM345.797 625.426C345.797 629.243 344.316 632.903 341.68 635.602C339.044 638.301 335.469 639.817 331.742 639.817C328.014 639.817 324.439 638.301 321.803 635.602C319.167 632.903 317.686 629.243 317.686 625.426V514.473C317.686 510.656 319.167 506.996 321.803 504.297C324.439 501.598 328.014 500.082 331.742 500.082C335.469 500.082 339.044 501.598 341.68 504.297C344.316 506.996 345.797 510.656 345.797 514.473V625.426ZM421.555 625.426C421.555 629.243 420.075 632.903 417.439 635.602C414.803 638.301 411.228 639.817 407.5 639.817C403.772 639.817 400.197 638.301 397.561 635.602C394.925 632.903 393.445 629.243 393.445 625.426V514.473C393.445 510.656 394.925 506.996 397.561 504.297C400.197 501.598 403.772 500.082 407.5 500.082C411.228 500.082 414.803 501.598 417.439 504.297C420.075 506.996 421.555 510.656 421.555 514.473V625.426ZM497.314 625.426C497.314 629.243 495.833 632.903 493.197 635.602C490.561 638.301 486.986 639.817 483.258 639.817C479.531 639.817 475.956 638.301 473.32 635.602C470.684 632.903 469.203 629.243 469.203 625.426V514.473C469.203 510.656 470.684 506.996 473.32 504.297C475.956 501.598 479.531 500.082 483.258 500.082C486.986 500.082 490.561 501.598 493.197 504.297C495.833 506.996 497.314 510.656 497.314 514.473V625.426ZM573.072 625.426C573.072 629.243 571.591 632.903 568.955 635.602C566.32 638.301 562.744 639.817 559.017 639.817C555.289 639.817 551.714 638.301 549.078 635.602C546.442 632.903 544.961 629.243 544.961 625.426V514.473C544.961 510.656 546.442 506.996 549.078 504.297C551.714 501.598 555.289 500.082 559.017 500.082C562.744 500.082 566.32 501.598 568.955 504.297C571.591 506.996 573.072 510.656 573.072 514.473V625.426ZM648.83 625.426C648.83 629.243 647.35 632.903 644.714 635.602C642.078 638.301 638.503 639.817 634.775 639.817C631.047 639.817 627.472 638.301 624.837 635.602C622.201 632.903 620.72 629.243 620.72 625.426V514.473C620.72 510.656 622.201 506.996 624.837 504.297C627.472 501.598 631.047 500.082 634.775 500.082C638.503 500.082 642.078 501.598 644.714 504.297C647.35 506.996 648.83 510.656 648.83 514.473V625.426ZM786.995 410.427C786.995 414.244 785.514 417.904 782.878 420.603C780.242 423.301 776.667 424.818 772.939 424.818H42.0607C38.3329 424.818 34.7579 423.301 32.122 420.603C29.4861 417.904 28.0053 414.244 28.0053 410.427V406.253C28.0053 402.437 29.4861 398.776 32.122 396.078C34.7579 393.379 38.3329 391.863 42.0607 391.863H772.939C775.103 392.007 777.213 392.621 779.128 393.662C781.043 394.704 782.72 396.15 784.049 397.905C785.377 399.66 786.327 401.683 786.835 403.842C787.343 406.001 787.397 408.245 786.995 410.427Z" fill="black"/>
</svg>
