<svg width="798" height="843" viewBox="0 0 798 843" fill="none" xmlns="http://www.w3.org/2000/svg">
<path d="M627.156 199.712L561.397 269.213L607.367 317.689L673.126 248.188L627.156 199.712Z" fill="black"/>
<path d="M764.045 139.301C789.056 126.289 801.175 103.569 797.286 76.9335C792.057 41.1204 758.971 6.23184 725.047 0.752458C699.818 -3.35368 678.31 9.4814 666.01 35.9265C659.558 49.8357 653.943 57.7489 647.735 61.3792C624.901 40.3318 597.868 31.9156 569.019 36.9055C546.983 40.7533 524.535 52.5958 504.727 70.584L502.512 68.2454C491.874 57.1235 474.629 57.1507 464.068 68.2862L417.562 117.424L479.02 182.279L544.755 112.801L523.015 89.891C538.856 75.8866 556.307 66.6818 573.204 63.7449C596.361 59.6932 617.315 67.3616 635.448 86.4647C638.449 89.619 642.725 91.0195 646.872 90.2037C668.779 85.9616 680.538 66.437 689.141 47.905C696.546 31.9836 706.991 25.2941 721.158 27.6327C743.735 31.2901 768.359 57.2594 771.837 81.0805C774.013 96.0094 767.741 107.077 752.66 114.908C735.119 124.045 716.663 136.486 712.658 159.573C711.898 163.965 713.225 168.479 716.225 171.633C753.033 210.492 739.936 256.611 713.122 290.344L691.382 267.407L625.609 336.925L687.067 401.767L733.612 352.548C744.173 341.399 744.186 323.193 733.612 311.922L731.41 309.596C766.003 266.876 780.247 207.201 740 158.635C743.387 152.095 750.883 146.167 764.045 139.301Z" fill="black"/>
<path d="M562.964 132.028L497.214 201.519L543.202 250.014L608.952 180.522L562.964 132.028Z" fill="black"/>
<path d="M668.56 420.734L399.725 137.098C389.653 132.978 378.848 130.748 367.695 130.748C344.049 130.748 321.884 140.402 305.257 157.941L25.7193 453.461C9.11832 470.987 -0.0128654 494.373 1.36051e-05 519.322C0.0128926 544.258 9.15696 567.644 25.7708 585.17L244.533 815.848C261.108 833.36 283.247 843 306.854 843C330.5 843 352.691 833.333 369.304 815.753L648.855 520.288C674.278 493.407 680.795 454.086 668.56 420.734ZM355.047 342.921C373.542 323.383 400.819 319.304 414.857 334.07C422.366 341.997 425.277 353.812 422.868 366.539C420.795 377.429 415.012 388.347 406.563 397.267C395.681 408.796 382.08 415.404 369.227 415.404C360.276 415.404 352.497 412.196 346.728 406.091C332.303 390.795 335.961 363.058 355.047 342.921ZM228.28 370.753C230.353 359.863 236.136 348.945 244.572 340.012C263.092 320.46 290.369 316.368 304.382 331.161C311.864 339.06 314.775 350.875 312.392 363.588C310.332 374.493 304.562 385.41 296.1 394.33C285.218 405.86 271.605 412.467 258.764 412.467C249.813 412.467 242.034 409.245 236.265 403.154C228.769 395.309 225.858 383.493 228.28 370.753ZM362.788 609.331C351.57 621.173 336.631 627.686 320.699 627.686C304.794 627.686 289.88 621.187 278.688 609.399L219.084 546.474C207.879 534.673 201.71 518.914 201.698 502.109C201.698 485.304 207.854 469.532 219.046 457.73C235.647 440.15 261.894 434.725 283.531 444.011C294.491 436.085 307.485 431.802 320.944 431.802C338.627 431.802 355.266 439.076 367.798 452.278C390.658 476.357 393.491 513.788 375.731 541.199C384.695 564.327 379.904 591.207 362.788 609.331ZM403.537 441.999C405.61 431.108 411.38 420.19 419.829 411.244C438.349 391.706 465.626 387.64 479.664 402.365C487.173 410.292 490.083 422.121 487.675 434.834C485.602 445.738 479.819 456.642 471.37 465.562C460.488 477.092 446.875 483.699 434.034 483.699C425.083 483.699 417.304 480.491 411.535 474.386C404.026 466.541 401.116 454.725 403.537 441.999ZM474.268 582.22C463.347 593.749 449.734 600.344 436.893 600.344C427.968 600.344 420.202 597.149 414.432 591.098C406.924 583.171 404.013 571.342 406.435 558.63C408.508 547.739 414.291 536.821 422.739 527.902C441.195 508.35 468.524 504.217 482.575 519.064C496.987 534.292 493.342 562.029 474.268 582.22Z" fill="black"/>
</svg>
