<svg width="833" height="631" viewBox="0 0 833 631" fill="none" xmlns="http://www.w3.org/2000/svg">
<path d="M416.505 331.053C584.277 331.053 693.465 311.538 734.444 294.923C736.984 280.935 742.972 237.115 725.48 207.67C719.42 197.508 711.182 190.281 700.658 185.528C693.654 133.323 640.09 100.979 617.191 97.1155C572.917 36.8733 482.083 37.3362 482.083 37.3362L479.18 33.7426C478.926 33.4334 452.326 1.32247 415.491 0.0473494C392.265 -0.841416 369.584 10.7894 347.81 34.2837L344.689 37.6455C344.689 37.6455 261.185 34.1677 203.589 100.014C186.859 104.998 141.86 118.91 132.606 185.605C122.336 190.281 114.279 197.391 108.473 207.36C91.0536 237.269 98.3111 282.364 101.07 296.004C143.819 312.272 252.003 331.053 416.505 331.053ZM487.343 299.985C487.343 299.985 508.645 261.614 545.624 265.903C576.289 269.458 588.41 300.758 588.41 300.758C540.072 261.961 488.94 298.401 487.343 299.985ZM505.996 82.0476C538.258 91.708 549.907 119.762 554.333 133.982C604.777 131.664 598.679 184.294 598.679 184.294C597.881 180.584 589.679 148.202 548.672 155.466L538.946 157.205L537.494 146.81C537.313 145.497 532.124 113.655 499.572 101.522C481.281 94.7214 449.419 99.0493 429.75 117.867C429.787 117.867 452.504 66.0497 505.996 82.0476ZM319.216 113.541C351.514 118.487 358.409 150.946 358.409 150.946C310.035 112.11 263.37 146.115 261.809 147.661C261.809 147.661 282.961 107.976 319.216 113.541ZM278.68 249.906C283.143 235.686 294.793 207.671 327.018 197.972C372.597 184.293 403.19 233.793 403.19 233.793C383.557 214.975 351.658 210.647 333.405 217.448C300.816 229.543 295.663 261.422 295.446 262.774L293.922 273.015L284.304 271.392C242.135 263.934 234.623 298.673 234.333 300.18C234.333 300.18 234.334 247.896 278.68 249.906Z" fill="black"/>
<path d="M824.327 606.732H8.67326C3.95559 606.732 0 612.297 0 618.866C0 625.435 3.99191 631 8.67326 631H824.327C829.008 631 833 625.436 833 618.866C833 612.297 829.044 606.732 824.327 606.732Z" fill="black"/>
<path d="M816.198 586.097C840.802 437.366 789.125 336.741 764.267 298.676C723.514 340.138 526.354 351.692 416.497 351.692C306.538 351.692 109.047 340.1 68.5878 298.521C43.8377 336.584 -8.02034 437.518 16.5114 586.091L816.198 586.097ZM497.497 423.22C510.198 425.693 518.11 441.614 515.097 458.731C512.121 475.85 499.42 487.713 486.718 485.201C474.017 482.689 466.105 466.807 469.082 449.65C472.057 432.57 484.795 420.708 497.497 423.22ZM446.256 373.72C460.263 373.72 471.659 388.79 471.659 407.376C471.695 425.963 460.3 441.033 446.256 441.033C432.212 441.033 420.852 425.963 420.852 407.376C420.852 388.79 432.248 373.72 446.256 373.72ZM451.772 475.155C464.654 499.191 482.182 502.051 485.449 518.589C488.134 532.152 488.134 565.036 456.998 566.273C432.102 567.277 437.8 555.182 416.461 554.68C395.123 555.182 400.82 567.277 375.889 566.273C344.716 565.036 344.752 532.152 347.438 518.589C350.704 502.011 367.978 499.036 381.115 475.155C399.732 441.266 434.207 442.387 451.772 475.155ZM387.212 373.72C401.256 373.72 412.615 388.79 412.615 407.376C412.615 425.963 401.256 441.033 387.212 441.033C373.204 441.033 361.809 425.963 361.809 407.376C361.845 388.79 373.204 373.72 387.212 373.72ZM335.535 423.22C348.237 420.708 360.938 432.571 363.914 449.69C366.89 466.808 358.979 482.728 346.278 485.241C333.576 487.752 320.838 475.889 317.899 458.771C314.887 441.652 322.798 425.732 335.535 423.22Z" fill="black"/>
</svg>
