<svg width="752" height="783" viewBox="0 0 752 783" fill="none" xmlns="http://www.w3.org/2000/svg">
<path d="M536.16 398.328L621.975 373.266L509.494 62.9605C508.251 59.5315 505.595 56.7421 502.013 55.1069L469.654 40.3227L458.419 9.3284C457.176 5.89939 454.519 3.10996 450.94 1.47477C447.36 -0.160417 443.286 -0.445605 439.464 0.668145C435.642 1.78358 432.534 4.16802 430.712 7.38271C428.891 10.5974 428.571 14.2542 429.814 17.6832L441.049 48.6758L424.578 77.7211C422.756 80.9358 422.436 84.5926 423.679 88.0216L536.16 398.328Z" fill="black"/>
<path d="M465.206 451.6C463.384 454.813 463.064 458.472 464.307 461.901L468.96 474.738L726.404 399.554L721.751 386.716C720.508 383.287 717.852 380.497 714.27 378.862C712.125 377.882 709.803 377.387 707.464 377.387C705.898 377.387 704.327 377.608 702.794 378.056L473.955 444.886C470.137 446.003 467.029 448.387 465.206 451.6Z" fill="black"/>
<path d="M105.282 134.998H409.075L395.074 96.3747C393.247 91.3342 392.551 86.1299 392.954 80.9982H105.282C96.9896 80.9982 90.2421 87.0547 90.2421 94.4982V121.498C90.2421 128.943 96.9896 134.998 105.282 134.998Z" fill="black"/>
<path d="M482.921 513.251C484.164 516.68 486.821 519.47 490.402 521.105C493.982 522.742 498.058 523.025 501.878 521.912L730.717 455.082C734.537 453.966 737.645 451.582 739.466 448.367C741.288 445.152 741.608 441.496 740.365 438.067L735.712 425.23L478.268 500.413L482.921 513.251Z" fill="black"/>
<path d="M748.303 634.502C741.696 616.28 726.686 601.383 707.122 593.632L700.973 591.197L668.51 501.641L582.697 526.704L615.16 616.258L611.785 621.476C601.046 638.076 598.676 658.047 605.282 676.271C615.605 704.749 645.154 722.89 676.846 722.891C684.541 722.891 692.356 721.823 700.061 719.574C739.491 708.058 761.134 669.895 748.303 634.502Z" fill="black"/>
<path d="M497.176 549.595C491.778 549.595 486.411 548.706 481.291 546.961V715.498C481.291 737.829 461.049 755.998 436.17 755.998H75.2018C50.3231 755.998 30.0807 737.829 30.0807 715.498V310.498H60.1614V715.498C60.1614 722.942 66.9089 728.998 75.2018 728.998H436.17C444.463 728.998 451.211 722.942 451.211 715.498V513.035L435.702 470.256C431.974 459.969 432.931 448.993 438.398 439.352C443.865 429.712 453.188 422.558 464.649 419.212L507.556 406.681L418.863 161.998H120.323V240.038L56.9635 254.257C23.4235 261.783 0 288.711 0 319.742V715.5C0 752.719 33.7355 783 75.2018 783H436.17C477.637 783 511.372 752.719 511.372 715.5V547.533L511.184 547.587C506.591 548.929 501.872 549.595 497.176 549.595ZM376.009 606.017C376.009 636.658 348.335 661.498 314.197 661.498H311.371C294.977 661.498 279.256 655.653 267.664 645.248L255.688 634.498L243.712 645.248C232.12 655.653 216.397 661.498 200.005 661.498H197.179C163.037 661.498 135.363 636.658 135.363 606.017C135.363 589.82 143.248 574.432 156.948 563.892L229.226 508.283C236.594 502.615 245.979 499.498 255.684 499.498C265.389 499.498 274.774 502.615 282.144 508.283L354.422 563.892C368.124 574.433 376.009 589.82 376.009 606.017ZM225.605 418.498C225.605 403.586 239.072 391.498 255.686 391.498C272.3 391.498 285.767 403.586 285.767 418.498C285.767 433.411 272.3 445.498 255.686 445.498C239.072 445.498 225.605 433.411 225.605 418.498ZM391.049 472.498C391.049 487.411 377.582 499.498 360.968 499.498C344.355 499.498 330.888 487.411 330.888 472.498C330.888 457.586 344.355 445.498 360.968 445.498C377.582 445.498 391.049 457.588 391.049 472.498ZM150.404 283.498C150.404 268.586 163.87 256.498 180.484 256.498H330.888C347.502 256.498 360.968 268.586 360.968 283.498V310.498C360.968 325.411 347.502 337.498 330.888 337.498H180.484C163.87 337.498 150.404 325.411 150.404 310.498V283.498ZM150.404 445.498C167.017 445.498 180.484 457.586 180.484 472.498C180.484 487.411 167.017 499.498 150.404 499.498C133.79 499.498 120.323 487.411 120.323 472.498C120.323 457.586 133.79 445.498 150.404 445.498Z" fill="black"/>
</svg>
