<svg width="784" height="828" viewBox="0 0 784 828" fill="none" xmlns="http://www.w3.org/2000/svg">
<path d="M504.295 29.581C504.295 13.2747 491.248 0 475.206 0H55.8911C39.8228 0 26.75 13.2747 26.75 29.581V75.6952H504.295V29.581Z" fill="black"/>
<path d="M734.323 521.827C740.866 509.26 744.558 495.251 744.558 480.894V333.23C744.558 284.712 705.747 245.248 658.054 245.248C610.322 245.248 571.498 284.725 571.498 333.23V480.894C571.498 492.206 573.81 503.077 577.87 513.333H552.171C544.761 513.333 537.614 514.388 530.742 516.178V378.383C530.742 298.641 515.489 215.494 486.755 175.629C497.069 171.062 504.308 160.619 504.308 148.466V102.392H26.75V148.452C26.75 160.512 33.8973 170.862 44.0796 175.483C15.2801 215.293 0 298.534 0 378.369V744.172C0 790.406 36.998 828 82.4703 828H448.272C493.744 828 530.742 790.406 530.742 744.185V686.412C537.614 688.202 544.761 689.257 552.171 689.257H697.444C745.176 689.257 784 649.806 784 601.315C784 566.205 763.635 535.943 734.323 521.827ZM82.4703 178.073H448.272C461.411 178.073 478.451 205.785 490.315 252.914H40.4271C52.2912 205.785 69.3318 178.073 82.4703 178.073ZM189.536 529.212C195.764 491.992 227.546 464.054 265.595 464.054C303.67 464.054 335.478 491.992 341.693 529.212C367.694 539.682 385.155 565.27 385.155 594.37C385.155 633.033 354.214 664.483 316.178 664.483H215.064C177.028 664.483 146.087 633.033 146.087 594.37C146.074 565.27 163.548 539.682 189.536 529.212ZM114.568 532.591C91.3651 532.591 73.1945 507.791 73.1945 476.127C73.1945 444.502 91.3651 419.716 114.568 419.716C137.77 419.716 155.941 444.489 155.941 476.127C155.941 507.778 137.77 532.591 114.568 532.591ZM169.329 383.311C169.329 351.686 187.499 326.9 210.702 326.9C233.905 326.9 252.075 351.673 252.075 383.311C252.075 414.975 233.905 439.775 210.702 439.775C187.499 439.775 169.329 414.975 169.329 383.311ZM279.167 383.311C279.167 351.686 297.337 326.9 320.54 326.9C343.742 326.9 361.913 351.673 361.913 383.311C361.913 414.975 343.742 439.775 320.54 439.775C297.337 439.775 279.167 414.975 279.167 383.311ZM375.288 476.127C375.288 444.502 393.458 419.716 416.661 419.716C439.864 419.716 458.034 444.489 458.034 476.127C458.034 507.778 439.864 532.591 416.661 532.591C393.458 532.591 375.288 507.778 375.288 476.127ZM504.465 744.185C504.465 775.676 479.266 801.29 448.272 801.29H82.4703C51.4897 801.29 26.277 775.676 26.277 744.185V738.469H504.465V744.185ZM611.689 662.534H552.171C518.957 662.534 491.944 635.063 491.944 601.302C491.944 567.527 518.97 540.03 552.171 540.03H611.689V662.534ZM718.281 480.894C718.281 492.74 714.681 504.225 708.349 514.108C704.762 513.64 701.136 513.32 697.43 513.32H607.222C601.138 503.558 597.762 492.5 597.762 480.881V420.384H718.281V480.894Z" fill="black"/>
</svg>
