<svg width="592" height="808" viewBox="0 0 592 808" fill="none" xmlns="http://www.w3.org/2000/svg">
<path d="M592 446.384C592 404.902 592 363.6 591.789 322.298C591.789 322.118 591.789 321.937 591.789 321.757C591.789 321.577 591.789 321.396 591.789 321.216C591.789 315.084 591.789 309.132 591.789 303C591.789 292.539 590.734 283.521 588.835 275.405C579.763 236.989 555.501 207.771 516.47 188.654C506.555 183.784 496.639 178.554 486.934 173.323C460.773 158.895 445.371 139.957 440.097 115.068C440.097 114.888 439.886 114.707 439.886 114.527H459.929C468.79 114.527 475.963 108.395 475.963 100.639V13.7071C475.963 6.13215 468.79 0 459.929 0H131.86C122.999 0 115.826 6.13215 115.826 13.7071V101.18C115.826 108.755 122.999 115.068 131.86 115.068H152.325C152.325 115.248 152.114 115.609 151.903 115.789C147.895 133.284 139.666 147.352 127.008 158.534C117.092 167.191 105.277 174.045 90.7199 181.8L81.6479 186.309C74.6857 189.736 67.5125 193.163 60.9722 197.311C20.6757 223.102 0.210989 258.091 0.210989 301.557C0.210989 308.23 0.210989 314.904 0.210989 321.396C0.210989 321.577 0 321.757 0 321.938C0 322.118 0.210989 322.298 0.210989 322.659C1.28746e-05 414.28 0 505.721 0 597.343V681.93C0 711.689 10.3378 738.202 30.5916 760.746C58.8624 792.129 95.9943 808 140.932 808H452.123C488.833 808 520.901 796.637 547.273 774.273C576.81 749.204 591.578 718.002 591.789 681.209V636.661L592 446.384ZM32.4904 301.377C32.4904 300.295 32.4904 299.212 32.4904 298.13C32.4904 297.048 32.4904 295.786 32.7014 294.704C32.9123 290.555 33.5453 286.588 34.1782 282.62C34.6001 280.636 35.0221 278.652 35.4441 276.848C39.0307 263.321 45.5709 251.057 55.0649 240.236C57.1746 237.891 59.2844 235.727 61.6051 233.382C67.0905 228.332 73.2088 223.463 80.1711 218.954C85.6565 215.527 91.5638 212.641 97.4711 209.755C100.847 208.132 104.011 206.509 107.176 204.886C108.02 204.345 109.075 203.984 109.919 203.443C114.56 201.098 118.991 198.573 123.632 195.868C125.531 194.786 127.219 193.704 129.118 192.621C129.962 192.08 131.016 191.539 131.86 190.818C136.291 187.932 140.721 184.866 144.941 181.439C145.785 180.718 146.629 179.996 147.473 179.455C148.316 178.734 149.16 178.012 150.004 177.291C157.388 170.798 163.718 163.404 168.992 155.468C169.625 154.386 170.469 153.123 171.102 152.041C176.587 142.663 180.807 132.202 183.339 121.02C183.339 120.659 183.55 120.298 183.55 119.757C183.55 119.396 183.55 119.036 183.55 118.675C183.55 118.314 183.55 117.954 183.55 117.593C183.55 116.691 183.339 115.789 182.917 114.888H408.24C408.029 115.609 408.029 116.33 407.818 117.052C407.818 117.413 407.818 117.593 407.818 117.954C407.818 118.675 407.818 119.577 408.029 120.298C409.294 126.43 410.982 132.202 413.303 137.793C414.358 140.498 415.624 143.384 417.1 145.909C417.944 147.713 418.999 149.516 420.054 151.139C421.531 153.664 423.219 156.37 424.907 158.714C430.814 167.011 437.987 174.586 446.426 181.439C449.802 184.145 453.388 186.85 457.186 189.375C460.984 191.9 464.992 194.425 469.212 196.589C479.339 202.18 489.676 207.411 500.014 212.641C501.913 213.543 503.812 214.625 505.711 215.527C533.349 230.677 550.016 251.959 556.767 280.816C558.244 287.129 558.877 294.343 559.088 303C559.088 304.623 559.088 306.246 559.088 307.689H32.4904C32.4904 305.886 32.4904 303.541 32.4904 301.377ZM191.778 441.154C191.989 440.071 192.411 439.17 192.833 438.087C193.043 437.727 193.254 437.186 193.465 436.825C194.098 435.562 195.153 434.3 196.419 433.218C196.63 433.037 196.841 432.857 197.263 432.677C198.529 431.775 200.217 431.054 201.904 430.512C205.069 429.611 208.023 429.791 210.766 430.512C212.242 430.873 213.719 431.414 214.985 432.136C218.361 433.939 221.103 435.923 223.424 438.087C224.268 438.809 225.112 439.711 225.956 440.612C226.589 441.154 227.011 441.875 227.433 442.416C228.066 443.318 228.699 444.22 229.331 445.302C230.175 446.564 230.808 447.827 231.441 449.27C233.34 453.418 234.395 457.746 234.817 462.616C234.606 464.6 234.395 466.404 233.973 468.207C233.551 470.371 232.496 472.355 231.441 473.979C230.808 474.88 229.964 475.782 228.909 476.504C226.378 478.487 223.424 479.389 219.837 479.389C219.205 479.389 218.572 479.389 217.939 479.209C217.306 479.209 216.673 479.029 215.829 478.848C215.196 478.668 214.352 478.487 213.719 478.307C213.086 478.127 212.242 477.766 211.609 477.586C210.344 477.045 209.078 476.504 208.023 475.782C206.124 474.7 204.436 473.437 202.959 472.175C202.326 471.634 201.694 471.093 201.272 470.371C199.584 468.568 198.107 466.764 196.63 464.6C194.731 461.895 193.254 459.009 192.2 456.123C190.934 451.254 190.512 446.384 191.778 441.154ZM195.153 555.861C196.63 543.777 203.803 534.218 213.93 525.921C220.47 520.511 227.222 514.92 232.918 508.968C240.724 501.032 244.522 491.293 247.053 481.193C248.952 473.798 251.484 466.764 256.547 460.271C262.877 452.155 271.316 446.745 281.443 444.22C286.084 443.137 290.937 442.416 296 442.416C297.899 442.416 299.798 442.416 301.696 442.777C302.329 442.777 302.962 442.957 303.595 442.957C306.76 443.318 309.713 444.039 312.456 444.761C313.511 445.121 314.566 445.482 315.621 445.843C327.014 450.171 335.875 458.288 340.516 469.109C342.837 474.7 344.314 480.471 346.212 486.062C349.588 497.064 355.495 506.623 364.778 514.739C370.264 519.429 375.96 524.118 381.445 528.987C390.307 536.562 395.37 545.761 396.636 556.402C397.902 566.863 391.783 575.88 380.602 580.75C379.125 581.291 377.648 582.013 375.96 582.554C375.116 582.734 374.483 582.914 373.85 583.095C364.989 585.439 356.128 585.62 346.845 584.177C343.892 583.636 340.727 583.275 337.562 582.914C332.921 582.373 328.49 581.832 323.849 581.471C319.207 581.111 314.566 580.57 309.924 580.209C290.304 578.766 270.683 580.57 251.062 582.914C246.421 583.455 241.99 584.718 237.349 585.079C230.386 585.439 223.846 585.079 217.517 583.275C212.664 582.013 208.234 579.848 204.014 576.782C196.63 571.732 194.098 564.338 195.153 555.861ZM235.45 393.179C235.661 390.834 236.294 388.309 236.927 385.964C238.403 381.095 240.724 376.766 244.522 373.52C244.944 373.159 245.366 372.979 245.788 372.618C246.632 372.077 247.475 371.355 248.319 370.995C249.796 370.273 251.273 369.552 253.172 369.011C254.649 368.83 256.125 368.83 257.602 368.65C259.29 368.83 260.767 369.191 262.244 369.552C266.674 370.814 270.261 373.159 273.215 376.586C273.847 377.307 274.48 378.029 274.902 378.75C275.746 379.832 276.59 380.914 277.434 382.177C277.856 382.898 278.489 383.8 278.911 384.521C279.122 384.882 279.333 385.423 279.544 385.784C279.966 386.505 280.177 387.227 280.599 387.948C284.818 398.048 285.029 408.329 281.021 418.609C280.81 419.15 280.599 419.511 280.388 420.052C279.755 421.495 278.911 422.757 278.067 424.02C276.801 425.643 275.535 427.266 273.847 428.529C269.628 431.955 264.354 433.398 259.29 432.677C256.547 432.316 254.016 431.414 251.484 429.791C249.585 428.529 247.686 427.266 246.21 425.643C243.467 422.937 241.357 419.691 239.669 416.264C239.247 415.543 239.036 415.002 238.825 414.28C238.825 414.28 238.825 414.1 238.614 413.92C237.56 411.214 236.716 408.509 236.083 405.804C236.083 405.263 235.872 404.902 235.872 404.361C235.239 400.573 235.028 396.966 235.45 393.179ZM308.237 403.279C308.237 401.655 308.237 400.032 308.448 398.409C308.448 398.229 308.448 397.868 308.448 397.688C308.448 397.146 308.659 396.786 308.659 396.245C308.87 394.802 309.292 393.359 309.713 391.736C309.924 391.014 310.135 390.293 310.346 389.571C310.557 389.03 310.768 388.489 310.979 388.129C311.401 387.227 311.823 386.325 312.245 385.423C312.878 384.161 313.722 382.718 314.355 381.455C316.043 378.93 317.731 376.586 320.051 374.602C320.262 374.421 320.684 374.061 320.895 373.88C323.005 372.257 325.326 370.814 328.068 369.732C328.701 369.552 329.545 369.371 330.178 369.191C330.6 369.011 331.233 369.011 331.655 368.83C332.077 368.83 332.71 368.65 333.132 368.65C333.343 368.65 333.554 368.65 333.765 368.47C335.242 368.65 336.718 368.83 338.195 368.83C344.736 370.634 348.955 374.421 351.909 379.471C352.331 380.193 352.753 380.914 352.964 381.636C354.44 384.882 355.495 388.309 355.917 391.736C357.605 403.459 355.073 414.461 346.634 424.2C345.79 425.282 344.947 426.184 343.892 427.086C340.938 429.791 337.351 431.595 332.921 432.316C325.326 433.579 319.629 430.512 315.199 425.462C310.768 420.232 308.659 414.28 308.026 407.788C308.237 406.345 308.237 404.721 308.237 403.279ZM396.214 462.616C395.792 463.338 395.37 464.059 394.948 464.78C394.104 466.223 393.049 467.486 391.994 468.748C388.83 472.536 384.821 475.602 379.969 477.766C378.914 478.307 377.648 478.668 376.593 478.848C376.171 479.029 375.538 479.029 375.116 479.209C374.905 479.209 374.905 479.209 374.694 479.209C374.061 479.389 373.639 479.389 373.006 479.389C373.006 479.389 373.006 479.389 372.795 479.389C365.411 479.75 359.504 475.602 357.816 468.207C357.394 466.404 357.394 464.6 356.972 462.616C358.027 452.696 361.614 444.039 369.42 437.546C371.53 435.743 374.061 433.939 377.015 432.496C381.024 430.332 385.454 429.43 390.096 430.693C391.15 431.054 392.205 431.414 393.26 431.955C393.893 432.316 394.526 432.677 394.948 433.038C395.37 433.398 396.003 433.759 396.425 434.3C397.269 435.202 398.113 436.104 398.535 437.186C399.168 438.448 399.8 439.891 400.222 441.514C401.488 446.745 401.066 451.614 399.378 456.484C398.535 458.288 397.48 460.452 396.214 462.616ZM559.51 650.548V681.209C559.51 701.409 554.024 719.264 543.054 734.775C540.522 738.382 537.779 741.809 534.614 745.055C531.45 748.302 528.074 751.548 524.487 754.795C504.234 772.109 480.393 780.405 452.123 780.405H141.143C106.332 780.405 78.4832 768.502 56.3307 743.793C53.799 741.087 51.4783 738.202 49.3685 735.316C48.5246 734.234 47.6807 732.971 47.0478 731.709C45.7819 729.905 44.727 728.102 43.6721 726.298C43.0392 725.036 42.4063 723.773 41.7733 722.691C41.1404 721.429 40.5075 720.166 40.0855 718.904C39.2416 716.92 38.3977 715.116 37.7648 713.132C37.3429 711.87 36.9209 710.427 36.4989 709.164C33.7562 700.507 32.4904 691.489 32.4904 681.93V650.729L559.51 650.548Z" fill="black"/>
</svg>
