<svg width="813" height="748" viewBox="0 0 813 748" fill="none" xmlns="http://www.w3.org/2000/svg">
<path d="M810.258 628.987L761.779 414.962C805.914 399.291 801.711 330.256 755.473 320.656C763.299 309.535 768.345 296.675 770.183 283.168C772.02 269.662 770.595 255.908 766.029 243.075C761.463 230.242 753.89 218.709 743.954 209.456C734.018 200.203 722.012 193.503 708.956 189.925C739.781 113.125 647.306 42.6773 582.013 92.6541C567.713 81.9085 550.391 76.0247 532.553 75.854C531.084 61.7683 526.133 48.2785 518.154 36.6188C510.174 24.9591 499.42 15.5016 486.875 9.11144C474.331 2.72132 460.396 -0.397429 446.346 0.0405097C432.296 0.478448 418.58 4.45908 406.451 11.6183C394.323 4.45908 380.606 0.478448 366.556 0.0405097C352.507 -0.397429 338.572 2.72132 326.028 9.11144C313.483 15.5016 302.729 24.9591 294.749 36.6188C286.769 48.2785 281.818 61.7683 280.349 75.854C262.687 76.0322 245.528 81.8115 231.31 92.3718C165.597 42.395 73.1219 112.843 103.947 189.925C90.846 193.486 78.7954 200.189 68.8242 209.462C58.853 218.735 51.2576 230.302 46.6869 243.175C42.1161 256.048 40.7059 269.845 42.5765 283.386C44.4472 296.928 49.5432 309.812 57.4292 320.938C11.1918 330.256 6.98841 399.715 51.1241 415.245L2.64491 629.128C-0.835635 644.537 -0.881596 660.531 2.51034 675.96C5.90227 691.388 12.6477 705.867 22.2608 718.353C29.1717 727.459 38.0494 734.862 48.221 739.998C58.3926 745.135 69.5913 747.871 80.9682 748H731.934C788.68 748.141 823.288 682.352 810.258 628.987ZM559.595 161.69C563.311 161.69 566.875 163.177 569.503 165.825C572.13 168.472 573.606 172.063 573.606 175.808C573.643 184.021 576.907 191.884 582.684 197.678C588.461 203.473 596.28 206.726 604.431 206.726C608.147 206.726 611.711 208.213 614.339 210.86C616.967 213.508 618.443 217.099 618.443 220.843C618.443 224.588 616.967 228.178 614.339 230.826C611.711 233.474 608.147 234.961 604.431 234.961C588.848 234.961 573.901 228.733 562.869 217.644C551.837 206.555 545.621 191.509 545.584 175.808C545.584 172.063 547.06 168.472 549.688 165.825C552.315 163.177 555.879 161.69 559.595 161.69ZM446.243 207.714C464.824 207.714 482.643 215.151 495.781 228.389C508.919 241.627 516.3 259.581 516.3 278.302C516.3 282.047 514.824 285.638 512.196 288.285C509.569 290.933 506.005 292.42 502.289 292.42C498.573 292.42 495.009 290.933 492.381 288.285C489.754 285.638 488.277 282.047 488.277 278.302C488.277 267.07 483.849 256.297 475.966 248.354C468.083 240.411 457.392 235.949 446.243 235.949C442.527 235.949 438.964 234.462 436.336 231.814C433.708 229.167 432.232 225.576 432.232 221.831C432.232 218.087 433.708 214.496 436.336 211.849C438.964 209.201 442.527 207.714 446.243 207.714ZM347.183 122.019C351.247 107.901 363.296 111.995 375.206 112.56C387.821 112.579 400.053 108.188 409.814 100.137C412.675 97.7402 416.364 96.5873 420.069 96.9315C423.774 97.2757 427.192 99.0888 429.57 101.972C431.948 104.855 433.092 108.572 432.751 112.305C432.409 116.038 430.61 119.482 427.749 121.878C414.017 137.407 343.54 156.184 347.183 122.019ZM340.598 189.925C344.314 189.925 347.878 191.413 350.506 194.06C353.133 196.708 354.609 200.299 354.609 204.043C354.609 207.787 353.133 211.378 350.506 214.026C347.878 216.673 344.314 218.161 340.598 218.161C330.961 218.161 321.716 222.009 314.888 228.862C308.06 235.715 304.206 245.015 304.169 254.726C304.169 258.47 302.692 262.061 300.065 264.709C297.437 267.356 293.873 268.844 290.157 268.844C286.441 268.844 282.877 267.356 280.25 264.709C277.622 262.061 276.146 258.47 276.146 254.726C276.183 237.527 282.99 221.045 295.073 208.896C307.156 196.748 323.529 189.925 340.598 189.925ZM154.948 282.397C166.555 282.359 177.674 277.687 185.868 269.404C194.062 261.121 198.663 249.903 198.663 238.208C198.663 234.464 200.14 230.873 202.767 228.225C205.395 225.578 208.959 224.09 212.675 224.09C216.391 224.09 219.955 225.578 222.582 228.225C225.21 230.873 226.686 234.464 226.686 238.208C226.686 257.392 219.132 275.792 205.683 289.37C192.233 302.948 173.987 310.595 154.948 310.632C151.232 310.632 147.668 309.145 145.041 306.497C142.413 303.85 140.937 300.259 140.937 296.514C140.937 292.77 142.413 289.179 145.041 286.532C147.668 283.884 151.232 282.397 154.948 282.397ZM48.1817 367.103C48.1817 361.936 50.2189 356.981 53.845 353.327C57.4711 349.673 62.3892 347.621 67.5173 347.621H745.385C748.204 347.672 750.98 348.327 753.529 349.541C756.078 350.756 758.341 352.502 760.169 354.665C761.998 356.827 763.349 359.356 764.134 362.085C764.918 364.814 765.119 367.679 764.721 370.491C764.722 373.079 764.208 375.642 763.208 378.026C762.209 380.41 760.744 382.568 758.902 384.371C757.06 386.175 754.877 387.588 752.483 388.526C750.089 389.464 747.533 389.908 744.965 389.833H67.9377C65.0897 389.862 62.2692 389.27 59.6694 388.098C57.0696 386.926 54.7521 385.201 52.8756 383.042C50.9992 380.884 49.6082 378.341 48.798 375.59C47.9878 372.839 47.7776 369.944 48.1817 367.103ZM480.992 503.057C461.936 566.728 402.528 536.657 419.482 478.633C425.787 455.198 443.161 436.28 465.159 445.457C483.373 454.492 486.876 481.174 480.992 503.057ZM378.429 536.234C333.592 554.163 312.155 462.963 348.304 445.598C392.44 427.668 414.298 518.869 378.429 536.234ZM282.031 576.046C243.78 538.492 278.668 475.245 324.065 516.469C361.615 554.163 326.587 617.128 281.47 576.046H282.031ZM407.292 703.105C370.302 704.658 308.232 690.258 310.474 655.67C314.537 530.022 500.047 530.728 503.97 655.67C503.41 690.682 451.288 703.247 406.451 703.247L407.292 703.105ZM531.993 576.046C487.016 617.269 451.848 554.304 489.959 516.61C534.655 475.104 569.543 538.21 531.432 575.763L531.993 576.046Z" fill="black"/>
</svg>
