<svg width="680" height="825" viewBox="0 0 680 825" fill="none" xmlns="http://www.w3.org/2000/svg">
<path d="M612.863 825H67.0961C30.0954 825 0 795.513 0 759.293V65.6806C0 29.4605 30.0954 0 67.0961 0H612.863C649.891 0 680 29.4605 680 65.6806V759.293C680.014 795.513 649.891 825 612.863 825ZM67.0961 26.6129C45.0887 26.6129 27.1864 44.1242 27.1864 65.6806V759.293C27.1864 780.849 45.0887 798.387 67.0961 798.387H612.863C634.898 798.387 652.814 780.849 652.814 759.293V65.6806C652.827 44.1242 634.898 26.6129 612.863 26.6129H67.0961Z" fill="black"/>
<path d="M399.423 204.533C393.7 177.402 369.205 157.282 340.007 157.282C310.836 157.282 286.314 177.402 280.564 204.533C261.071 212.996 248.117 231.958 248.117 253.421C248.117 282.935 272.652 306.927 302.789 306.927H377.171C407.307 306.927 431.829 282.922 431.829 253.421C431.842 231.971 418.902 213.01 399.423 204.533Z" fill="black"/>
<path d="M385.68 53.9177C364.882 53.9177 348.584 74.902 348.584 101.701C348.584 128.527 364.882 149.525 385.68 149.525C406.478 149.525 422.776 128.527 422.776 101.701C422.776 74.902 406.478 53.9177 385.68 53.9177Z" fill="black"/>
<path d="M214.365 128.234C193.581 128.234 177.283 149.232 177.283 176.058C177.283 202.883 193.567 223.881 214.365 223.881C235.162 223.881 251.461 202.883 251.461 176.058C251.461 149.232 235.162 128.234 214.365 128.234Z" fill="black"/>
<path d="M465.594 128.234C444.81 128.234 428.512 149.232 428.512 176.058C428.512 202.883 444.797 223.881 465.594 223.881C486.392 223.881 502.69 202.883 502.69 176.058C502.69 149.232 486.392 128.234 465.594 128.234Z" fill="black"/>
<path d="M294.334 53.9177C273.536 53.9177 257.238 74.902 257.238 101.701C257.238 128.527 273.536 149.525 294.334 149.525C315.104 149.525 331.375 128.527 331.375 101.701C331.362 74.902 315.09 53.9177 294.334 53.9177Z" fill="black"/>
<path d="M256.191 358.423H129.054C98.5915 358.423 73.8247 382.667 73.8247 412.487C73.8247 442.306 98.6051 466.551 129.054 466.551H256.191C286.613 466.551 311.366 442.293 311.366 412.487C311.366 382.68 286.613 358.423 256.191 358.423ZM256.191 439.938H206.182V385.035H256.191C271.619 385.035 284.18 397.344 284.18 412.487C284.18 427.629 271.619 439.938 256.191 439.938Z" fill="black"/>
<path d="M550.96 358.423H423.836C393.374 358.423 368.607 382.667 368.607 412.487C368.607 442.306 393.387 466.551 423.836 466.551H550.96C581.381 466.551 606.148 442.293 606.148 412.487C606.148 382.68 581.381 358.423 550.96 358.423ZM550.96 439.938H500.964V385.035H550.96C566.402 385.035 578.962 397.344 578.962 412.487C578.962 427.629 566.388 439.938 550.96 439.938Z" fill="black"/>
<path d="M256.191 502.718H129.054C98.5915 502.718 73.8247 526.962 73.8247 556.782C73.8247 586.562 98.6051 610.806 129.054 610.806H256.191C286.613 610.806 311.366 586.575 311.366 556.782C311.366 526.975 286.613 502.718 256.191 502.718ZM256.191 584.18H206.182V529.331H256.191C271.619 529.331 284.18 541.639 284.18 556.782C284.18 571.898 271.619 584.18 256.191 584.18Z" fill="black"/>
<path d="M550.96 502.718H423.836C393.374 502.718 368.607 526.962 368.607 556.782C368.607 586.562 393.387 610.806 423.836 610.806H550.96C581.381 610.806 606.148 586.575 606.148 556.782C606.135 526.975 581.381 502.718 550.96 502.718ZM550.96 584.18H500.964V529.331H550.96C566.402 529.331 578.962 541.639 578.962 556.782C578.948 571.898 566.388 584.18 550.96 584.18Z" fill="black"/>
<path d="M256.191 646.973H129.054C98.5915 646.973 73.8247 671.231 73.8247 701.037C73.8247 730.843 98.6051 755.101 129.054 755.101H256.191C286.613 755.101 311.366 730.857 311.366 701.037C311.366 671.217 286.613 646.973 256.191 646.973ZM256.191 728.488H206.182V673.586H256.191C271.619 673.586 284.18 685.908 284.18 701.037C284.18 716.166 271.619 728.488 256.191 728.488Z" fill="black"/>
<path d="M550.96 646.973H423.836C393.374 646.973 368.607 671.231 368.607 701.037C368.607 730.843 393.387 755.101 423.836 755.101H550.96C581.381 755.101 606.148 730.857 606.148 701.037C606.148 671.217 581.381 646.973 550.96 646.973ZM550.96 728.488H500.964V673.586H550.96C566.402 673.586 578.962 685.908 578.962 701.037C578.962 716.166 566.388 728.488 550.96 728.488Z" fill="black"/>
</svg>
