<svg width="709" height="766" viewBox="0 0 709 766" fill="none" xmlns="http://www.w3.org/2000/svg">
<path d="M456.052 27.366C456.052 12.2807 444.254 0 429.746 0H50.5444C36.0132 0 24.191 12.2807 24.191 27.366V70.0272H456.052V27.366Z" fill="black"/>
<path d="M664.076 482.753C669.993 471.127 673.331 458.167 673.331 444.885V308.278C673.331 263.393 638.233 226.884 595.103 226.884C551.937 226.884 516.827 263.405 516.827 308.278V444.885C516.827 455.35 518.918 465.407 522.589 474.895H499.349C492.648 474.895 486.184 475.871 479.97 477.527V350.05C479.97 276.279 466.175 199.358 440.19 162.478C449.517 158.253 456.064 148.592 456.064 137.349V94.7246H24.191V137.336C24.191 148.493 30.6546 158.068 39.8628 162.343C13.8183 199.172 0 276.18 0 350.037V688.449C0 731.221 33.4586 766 74.5809 766H405.389C446.511 766 479.97 731.221 479.97 688.461V635.014C486.184 636.67 492.648 637.646 499.349 637.646H630.724C673.89 637.646 709 601.149 709 556.289C709 523.808 690.584 495.812 664.076 482.753ZM74.5809 164.739H405.389C417.271 164.739 432.681 190.376 443.41 233.976H36.5597C47.2889 190.376 62.6993 164.739 74.5809 164.739ZM171.404 489.585C177.036 455.152 205.778 429.306 240.187 429.306C274.62 429.306 303.385 455.152 309.005 489.585C332.519 499.271 348.31 522.943 348.31 549.864C348.31 585.632 320.329 614.727 285.931 614.727H194.49C160.093 614.727 132.112 585.632 132.112 549.864C132.1 522.943 147.902 499.271 171.404 489.585ZM103.608 492.711C82.6248 492.711 66.1925 469.768 66.1925 440.475C66.1925 411.218 82.6248 388.288 103.608 388.288C124.591 388.288 141.023 411.206 141.023 440.475C141.023 469.756 124.591 492.711 103.608 492.711ZM153.13 354.609C153.13 325.352 169.563 302.422 190.546 302.422C211.529 302.422 227.961 325.34 227.961 354.609C227.961 383.902 211.529 406.845 190.546 406.845C169.563 406.845 153.13 383.902 153.13 354.609ZM252.461 354.609C252.461 325.352 268.893 302.422 289.876 302.422C310.859 302.422 327.291 325.34 327.291 354.609C327.291 383.902 310.859 406.845 289.876 406.845C268.893 406.845 252.461 383.902 252.461 354.609ZM339.387 440.475C339.387 411.218 355.819 388.288 376.802 388.288C397.785 388.288 414.217 411.206 414.217 440.475C414.217 469.756 397.785 492.711 376.802 492.711C355.819 492.711 339.387 469.756 339.387 440.475ZM456.207 688.461C456.207 717.594 433.418 741.29 405.389 741.29H74.5809C46.5641 741.29 23.7632 717.594 23.7632 688.461V683.173H456.207V688.461ZM553.173 612.924H499.349C469.312 612.924 444.884 587.51 444.884 556.277C444.884 525.031 469.324 499.593 499.349 499.593H553.173V612.924ZM649.568 444.885C649.568 455.844 646.313 466.469 640.586 475.612C637.342 475.179 634.063 474.883 630.712 474.883H549.133C543.632 465.852 540.578 455.622 540.578 444.873V388.906H649.568V444.885Z" fill="black"/>
</svg>
