<svg width="597" height="823" viewBox="0 0 597 823" fill="none" xmlns="http://www.w3.org/2000/svg">
<path d="M581.959 406.987C569.074 357.633 539.767 312.763 497.768 278.089C485.28 267.54 471.355 258.387 456.311 250.839V234.618H456.28C456.306 234.297 456.326 233.98 456.326 233.665C456.375 207.507 456.597 181.338 456.35 155.179C456.482 146.237 452.755 137.584 445.919 130.959C439.083 124.334 429.645 120.229 419.504 119.471C407.896 118.453 396.14 118.789 384.445 118.551C381.057 118.485 377.668 118.54 374.279 118.54V60.9938H381.303C403.891 60.9938 426.479 61.001 449.067 61.0154C460.405 61.0154 464.977 54.7682 460.121 45.7058C453.604 34.5746 443.52 25.3642 431.113 19.2115C408.463 6.90321 382.352 0.393738 355.72 0.415786C300.081 -0.103906 244.435 -0.136425 188.78 0.31823C148.271 0.706031 108.207 7.78373 70.6754 21.1823C58.2307 25.7864 46.3482 31.4852 35.2097 38.1918C32.3638 39.8557 30.0968 42.1784 28.6591 44.9033C27.2215 47.6283 26.6692 50.6493 27.0632 53.6328C27.4572 56.6162 28.7822 59.4459 30.8918 61.8092C33.0015 64.1724 35.8136 65.9774 39.0175 67.0245C41.1002 67.7499 43.0225 68.8544 45.0805 69.6446C49.1046 70.5953 52.5647 72.8582 54.756 75.9723C56.9473 79.0864 57.7048 82.8173 56.8742 86.405C56.3919 88.5125 56.4415 90.6873 57.0195 92.7761C57.5976 94.8649 58.69 96.8168 60.2199 98.4944C61.7497 100.172 63.6797 101.534 65.8739 102.485C68.068 103.437 70.4728 103.953 72.9189 103.999C77.6086 104.517 82.3492 104.575 87.0534 104.173C89.2252 104.2 91.3777 103.811 93.3601 103.031C95.3425 102.251 97.1069 101.1 98.5297 99.6576C99.9525 98.2157 100.999 96.5179 101.597 94.6831C102.194 92.8484 102.328 90.921 101.989 89.0361C102.008 86.3286 101.872 83.622 101.582 80.9265C101.201 78.6847 101.619 76.3943 102.777 74.3689C103.935 72.3435 105.777 70.6822 108.052 69.6126C117.471 64.0245 128.566 61.0176 139.932 60.9724C165.798 60.5719 191.676 60.4853 217.555 60.2903C219.354 60.2796 221.153 60.496 223.223 60.6261V118.421C208.473 118.421 194.301 117.815 180.216 118.551C174.839 118.457 169.496 119.321 164.51 121.09C159.523 122.859 154.995 125.497 151.2 128.845C147.405 132.192 144.42 136.181 142.427 140.569C140.433 144.957 139.471 149.655 139.599 154.379C139.649 179.823 139.714 205.263 139.796 230.699C139.809 232.789 139.796 234.879 139.796 237.867V250.503C134.222 253.016 128.85 255.859 123.715 259.012C102.451 272.028 83.5976 287.844 67.8173 305.905C28.3619 352.949 5.4472 409.114 1.90124 467.468C-0.1449 494.628 -0.539824 521.865 0.718147 549.062C1.37508 576.113 5.59721 603.007 13.3 629.204C35.0555 695.16 72.3412 756.364 122.741 808.849C126.992 813.569 131.613 818.041 136.629 823H460.01C487.284 795.425 511.394 765.552 531.989 733.817C549.414 707.917 563.736 680.501 574.726 652.006C587.65 617.195 594.849 580.941 596.106 544.341C599.156 498.193 594.389 451.904 581.959 406.987ZM314.837 416.451C315.571 414.154 316.367 411.871 317.265 409.62C320.096 399.977 327.017 391.65 336.608 386.343C363.468 374.494 382.592 405.179 385.602 424.086C387.882 436.444 385.34 449.117 378.389 460.046C375.752 464.318 372.002 467.981 367.445 470.736C362.889 473.491 357.655 475.26 352.171 475.897C346.972 476.199 341.763 475.461 336.937 473.738C332.11 472.015 327.791 469.352 324.305 465.949C318.303 458.98 314.307 450.84 312.658 442.221C311.01 433.602 311.757 424.761 314.837 416.451ZM219.701 406.677C226.426 407.382 232.826 409.612 238.274 413.148C243.721 416.684 248.028 421.404 250.771 426.845C253.118 430.789 255.011 434.93 256.421 439.205C262.438 457.354 262.054 482.464 242.118 494.079C236.229 497.59 229.207 499.338 222.096 499.061C214.985 498.785 208.166 496.5 202.652 492.545C193.363 485.082 187.257 475.053 185.344 464.122C181.051 443.813 188.545 405.868 219.701 406.677ZM169.482 572.134C168.054 572.33 166.611 572.431 165.165 572.435C142.257 572.475 129.546 547.029 128.072 529.748C127.501 522.216 128.727 514.662 131.672 507.57C132.889 503.971 134.902 500.619 137.595 497.704C140.288 494.79 143.61 492.371 147.368 490.585C151.691 489.17 156.378 488.851 160.897 489.663C165.416 490.476 169.584 492.387 172.927 495.18C181.77 501.647 188.542 510.028 192.575 519.495C196.608 528.963 197.763 539.191 195.926 549.17C194.578 554.859 191.35 560.072 186.646 564.156C181.942 568.241 175.972 571.016 169.482 572.134ZM404.317 654.755C391.62 667.325 375.183 676.531 356.855 681.339C342.896 685.274 328.493 687.867 313.897 689.072C271.721 692.539 226.777 684.167 201.072 653.814C195.437 647.261 191.312 639.805 188.927 631.864C180.674 603.511 197.452 573.352 212.103 548.759C225.325 523.129 246.939 501.542 274.187 486.753C309.32 470.357 344.397 488.284 368.765 511.306C406.937 547.37 447.723 609.772 404.317 654.755ZM460.558 529.719C456.688 535.736 450.392 540.26 442.912 542.398C435.431 544.537 427.311 544.134 420.152 541.269C414.097 537.951 409.164 533.268 405.868 527.707C402.571 522.146 401.031 515.91 401.407 509.648C402.218 495.035 410.187 472.776 425.853 465.219C430.011 463.201 434.752 462.301 439.487 462.632C444.223 462.962 448.743 464.508 452.486 467.077C458.919 472.073 463.601 478.573 465.988 485.819C468.645 493.06 469.535 500.713 468.599 508.277C467.664 515.841 464.924 523.147 460.558 529.719Z" fill="black"/>
</svg>
