<svg width="821" height="815" viewBox="0 0 821 815" fill="none" xmlns="http://www.w3.org/2000/svg">
<path d="M0.0537982 316.422C-0.0179327 316.812 -0.0179327 317.203 0.0537982 317.593C0.0537982 360.529 20.4271 395.659 45.678 395.659C59.7019 394.13 71.7534 385.868 77.2416 374.06C80.2186 368.921 82.7294 363.586 84.7021 358.056C89.1497 344.98 91.3735 331.384 91.3018 317.722V316.551L0.0537982 316.422Z" fill="black"/>
<path d="M743.233 753.59V396.703C737.602 391.791 732.796 386.164 728.886 380.049C720.923 396.833 703.349 408.152 683.262 409.453C663.212 408.119 645.6 396.8 637.638 380.049C629.747 396.865 612.1 408.217 592.013 409.453C571.963 408.184 554.388 396.833 546.533 380.049C538.571 396.8 520.959 408.12 500.909 409.453C480.859 408.119 463.248 396.8 455.285 380.049C447.43 396.605 430.177 407.893 410.379 409.453C390.329 408.119 372.717 396.8 364.755 380.049C356.792 396.8 339.18 408.12 319.13 409.453C299.08 408.119 281.469 396.8 273.506 380.049C265.615 396.865 247.969 408.217 227.882 409.453C207.832 408.184 190.256 396.833 182.402 380.049C174.439 396.8 156.828 408.12 136.778 409.453C116.656 408.152 99.0446 396.768 91.1535 379.918V380.569C87.3156 386.716 82.4735 392.278 76.8064 397.093V753.588C53.1339 756.418 35.4151 774.731 35.4868 796.394V815H784.547V796.394C784.619 774.731 766.906 756.419 743.233 753.59ZM429.893 506.378C429.893 486.341 447.826 470.077 469.921 470.077H651.838C662.454 470.077 672.641 473.915 680.137 480.713C687.634 487.511 691.865 496.749 691.865 506.377V660.56C691.865 680.596 673.932 696.86 651.837 696.86H469.92C447.826 696.86 429.892 680.597 429.892 660.56L429.893 506.378ZM123.439 449.52C123.439 445.747 125.089 442.104 128.066 439.437C131.043 436.77 135.06 435.306 139.22 435.338H299.908C304.068 435.306 308.085 436.77 311.062 439.437C314.039 442.104 315.689 445.747 315.689 449.52V717.808C315.689 721.581 314.039 725.224 311.062 727.891C308.085 730.558 304.068 732.022 299.908 731.989H138.651C130.186 731.762 123.443 725.484 123.443 717.808L123.439 449.52Z" fill="black"/>
<path d="M469.918 484.786H651.834C665.213 484.786 676.081 496.918 676.081 506.774V660.69C676.081 672.823 665.213 682.679 651.834 682.679H469.918C456.539 682.679 445.671 670.546 445.671 660.69V506.774C445.671 494.642 456.539 484.786 469.918 484.786Z" fill="black"/>
<path d="M820.712 316.422H729.752V317.593C729.68 331.254 731.904 344.851 736.352 357.927C738.181 363.132 740.548 368.206 743.381 373.02C748.654 385.283 760.957 393.935 775.376 395.529C800.627 395.529 821 360.529 821 317.463C820.857 316.422 820.712 316.422 820.712 316.422Z" fill="black"/>
<path d="M638.502 316.422V317.593C638.43 331.254 640.654 344.851 645.101 357.927C653.136 380.436 667.626 395.529 684.125 395.529C700.625 395.529 715.258 380.436 723.15 357.927C727.597 344.851 729.821 331.255 729.749 317.593V316.422H638.502Z" fill="black"/>
<path d="M547.25 316.422V317.593C547.106 331.254 549.33 344.883 553.849 357.927C561.74 380.436 576.231 395.529 592.73 395.529C609.229 395.529 623.863 380.436 631.897 357.927C636.309 344.851 638.497 331.255 638.354 317.593V316.422H547.25Z" fill="black"/>
<path d="M456.007 316.422V317.593C455.935 331.254 458.159 344.851 462.606 357.927C470.497 380.436 484.988 395.529 501.63 395.529C518.273 395.529 532.62 380.436 540.655 357.927C545.102 344.851 547.326 331.255 547.254 317.593V316.422H456.007Z" fill="black"/>
<path d="M364.902 316.422V317.593C364.83 331.254 367.054 344.851 371.501 357.927C379.536 380.436 394.026 395.529 410.525 395.529C427.025 395.529 441.515 380.436 449.549 357.927C453.997 344.851 456.221 331.255 456.149 317.593V316.422H364.902Z" fill="black"/>
<path d="M273.649 316.422V317.593C273.578 331.254 275.802 344.851 280.249 357.927C288.283 380.436 302.774 395.529 319.273 395.529C335.773 395.529 350.406 380.436 358.297 357.927C362.745 344.851 364.969 331.255 364.897 317.593V316.422H273.649Z" fill="black"/>
<path d="M182.407 316.422V317.593C182.263 331.254 184.451 344.851 188.863 357.927C196.897 380.436 211.387 395.529 227.887 395.529C244.386 395.529 259.02 380.175 266.911 357.667C271.43 344.623 273.654 330.994 273.51 317.332V316.421L182.407 316.422Z" fill="black"/>
<path d="M91.1544 316.422V317.593C91.0826 331.254 93.3065 344.851 97.7541 357.927C105.645 380.436 120.136 395.529 136.778 395.529C153.421 395.529 167.768 380.436 175.802 357.927C180.25 344.851 182.474 331.255 182.402 317.593V316.422H91.1544Z" fill="black"/>
<path d="M10.2405 301.725L137.79 167.977H136.498V139.223C136.498 131.611 139.834 124.292 145.788 118.893C151.742 113.493 159.812 110.469 168.205 110.469H273.084C276.096 152.721 302.711 190.648 343.671 211.009C384.596 231.403 434.166 231.403 475.086 211.009C516.047 190.647 542.661 152.72 545.674 110.469H651.415C659.88 110.469 667.951 113.494 673.94 118.925C679.858 124.292 683.158 131.611 683.122 139.223V167.717L808.513 301.732L10.2405 301.725Z" fill="black"/>
<path d="M138.644 449.529V717.817H299.332V449.529H138.644ZM284.842 604.228C284.842 609.107 280.467 613.076 275.086 613.076C269.706 613.076 265.33 609.107 265.33 604.228C265.402 600.715 267.698 597.593 271.213 596.162V571.181C267.698 569.749 265.402 566.627 265.33 563.114C265.438 559.959 267.375 557.096 270.459 555.567C273.544 554.071 277.274 554.201 280.215 555.86C283.192 557.519 284.95 560.511 284.842 563.667C284.735 566.822 282.762 569.684 279.677 571.18V596.161C282.941 597.755 284.95 600.878 284.842 604.228Z" fill="black"/>
<path d="M410.381 0C343.093 0.0650506 288.534 49.4416 288.286 110.466C286.672 140.716 298.795 170.284 321.822 192.207C344.884 214.131 376.843 226.556 410.236 226.556C443.628 226.556 475.587 214.131 498.649 192.207C521.676 170.284 533.8 140.716 532.185 110.466C532.042 49.5099 477.6 0.133232 410.381 0ZM433.479 33.5678C437.532 31.2909 442.446 30.5753 447.073 31.6161C451.736 32.6245 455.717 35.2918 458.156 39.0323C467.41 54.7754 466.119 73.8692 454.856 88.4739C450.014 96.5733 439.792 100.737 429.892 98.6229C419.634 93.386 413.573 83.2696 414.254 72.601C412.891 57.5408 419.957 42.8711 433.049 33.5682L433.479 33.5678ZM372.504 31.8764C380.18 28.396 389.47 30.1199 395.029 36.0399C406.004 47.587 410.309 63.1677 406.65 78.0655C405.502 87.0104 399.154 94.687 390.007 98.2327C377.956 99.3711 366.693 92.6705 363.035 82.229C355.144 66.3561 354.713 43.1962 372.073 31.8764H372.504ZM321.285 98.3626C320.532 91.6945 323.904 85.1893 330.037 81.4488C336.063 78.9766 343.057 79.5296 348.545 82.88C360.345 89.5807 368.164 100.77 369.778 113.325C371.428 120.676 368.236 128.223 361.6 132.711C354.822 135.476 346.894 134.598 341.084 130.369C329.463 122.986 322.182 111.211 321.285 98.3626ZM461.313 189.443C447.683 194.388 434.053 187.101 420.567 185.41C401.342 181.767 383.122 195.298 364.04 189.834C358.732 187.784 354.643 183.751 352.777 178.807C350.912 173.83 351.45 168.398 354.284 163.812C360.202 153.533 366.909 143.677 374.37 134.277C380.216 125.332 389.291 118.501 400.051 114.891C417.447 110.76 435.847 116.582 446.679 129.593C459.125 141.336 468.379 155.55 473.652 171.098C475.588 179.327 470.208 187.492 461.313 189.834L461.313 189.443ZM478.099 134.277C474.118 136.684 469.132 137.367 464.541 136.131C459.949 134.895 456.183 131.87 454.282 127.902C448.723 109.621 458.479 90.3327 477.381 82.233C481.757 81.0295 486.527 81.5825 490.437 83.7618C494.346 85.9736 497.001 89.5842 497.754 93.6826C500.767 109.555 493.02 125.527 478.099 134.277Z" fill="black"/>
</svg>
