<svg width="688" height="790" viewBox="0 0 688 790" fill="none" xmlns="http://www.w3.org/2000/svg">
<path d="M568.752 700.226V724.729C568.752 751.393 548.477 774.292 521.517 778.057C464.538 785.957 406.39 790 348.593 790C290.796 790 232.555 785.957 175.419 778.057C159.369 775.804 145.779 766.731 137.36 754.078H137.644C163.879 754.078 187.717 744.295 205.785 728.123C253.115 733.431 301.013 736.116 348.591 736.116C407.209 736.116 466.268 732.073 524.065 723.988C541.849 721.488 557.552 712.754 568.747 700.194L568.752 700.226ZM220.161 655.323C220.161 610.76 183.111 574.526 137.606 574.526C92.0735 574.526 55.051 610.756 55.051 655.323C55.051 699.89 92.101 736.12 137.606 736.12C183.138 736.12 220.161 699.89 220.161 655.323ZM559.574 305.209C600.03 305.209 632.949 272.991 632.949 233.396C632.949 193.802 600.03 161.583 559.574 161.583C519.118 161.583 486.199 193.802 486.199 233.396C486.199 272.991 519.118 305.209 559.574 305.209ZM73.4073 538.642C73.4073 518.829 56.9472 502.72 36.7037 502.72C16.4601 502.72 0 518.829 0 538.642C0 558.455 16.4601 574.564 36.7037 574.564C56.9472 574.564 73.4073 558.455 73.4073 538.642ZM642.121 152.574C667.409 152.574 688 132.421 688 107.671C688 82.9208 667.409 62.7685 642.121 62.7685C616.832 62.7685 596.241 82.9208 596.241 107.671C596.241 132.421 616.832 152.574 642.121 152.574ZM458.663 53.1079C458.663 32.7707 444.757 14.9332 424.797 9.68656C375.481 -3.15157 322.635 -3.27482 272.846 9.59397C252.634 14.8712 238.507 32.7706 238.507 53.1077V116.681H458.661L458.663 53.1079ZM309.512 446.8C310.427 447.448 311.782 448.189 313.044 447.973C317.143 447.263 321.999 437.356 320.012 423.994C318.53 413.964 314.053 407.576 310.647 405.199C309.827 404.613 308.66 403.965 307.557 403.965C307.399 403.965 307.273 403.996 307.115 403.996C303.048 404.705 298.16 414.612 300.147 427.975C301.629 438.004 306.106 444.393 309.512 446.769V446.8ZM283.971 581.691C287.975 585.055 300.557 583.08 312.697 581.198C323.386 579.531 335.463 577.649 348.58 577.649C361.698 577.649 373.774 579.531 384.464 581.198C396.604 583.111 409.153 585.086 413.19 581.691C415.271 579.963 416.437 575.365 416.437 568.761C416.437 535.77 386.797 497.411 348.612 497.411C310.395 497.411 280.787 535.771 280.787 568.761C280.787 575.365 281.922 579.963 284.034 581.691H283.971ZM438.885 487.226C442.637 486.331 448.66 482.319 453.263 474.048C459.917 462.136 458.529 450.872 454.651 448.341C454.304 448.125 453.2 447.385 450.772 448.002C447.02 448.897 440.998 452.909 436.394 461.18C429.741 473.092 431.128 484.356 435.007 486.887C435.353 487.134 436.457 487.843 438.885 487.226ZM384.113 447.971C385.375 448.187 386.699 447.446 387.645 446.798C391.019 444.391 395.497 438.033 396.978 428.004C398.965 414.641 394.077 404.735 390.009 404.025C389.852 403.994 389.726 403.994 389.568 403.994C388.464 403.994 387.298 404.642 386.478 405.228C383.104 407.635 378.626 413.993 377.145 424.022C375.158 437.385 380.046 447.291 384.113 448.002L384.113 447.971ZM262.15 486.887C266.028 484.356 267.416 473.092 260.762 461.18C256.159 452.909 250.136 448.897 246.384 448.002C245.69 447.847 245.123 447.786 244.65 447.786C243.42 447.786 242.758 448.187 242.506 448.372C238.627 450.903 237.24 462.167 243.893 474.079C248.497 482.35 254.52 486.362 258.272 487.257C260.7 487.843 261.772 487.133 262.15 486.917L262.15 486.887ZM236.861 637.397C232.447 614.159 219.708 593.667 201.829 579.132V377.055C201.829 362.242 214.222 350.113 229.357 350.113H467.868C483.003 350.113 495.396 362.242 495.396 377.055V610.488C495.396 625.301 483.003 637.43 467.868 637.43H236.897L236.861 637.397ZM420.319 452.544C409.693 471.678 411.711 493.311 424.828 501.829C428.486 504.174 432.711 505.408 437.221 505.408C439.239 505.408 441.257 505.131 443.275 504.699C453.271 502.261 463.077 494.02 469.415 482.694C480.041 463.653 478.023 442.02 464.843 433.409C459.608 429.984 453.019 428.996 446.396 430.539C436.4 432.977 426.689 441.218 420.35 452.544L420.319 452.544ZM380.967 465.628C382.165 465.906 383.458 465.999 384.624 465.999C389.386 465.999 394.084 464.394 398.372 461.339C406.918 455.321 413.224 443.748 415.147 430.54C418.364 408.443 408.715 388.97 393.233 386.285C387.179 385.297 381.124 386.81 375.701 390.698C367.155 396.716 360.944 408.196 358.926 421.497C355.709 443.593 365.358 462.974 380.935 465.658L380.967 465.628ZM348.583 479.454C299.235 479.454 262.436 526.578 262.436 568.799C262.436 581.175 265.558 589.908 272.054 595.371C277.572 599.938 284.446 601.481 292.234 601.481C299.298 601.481 307.181 600.216 315.536 598.889C325.532 597.377 336.915 595.556 348.55 595.556C360.186 595.556 371.569 597.346 381.564 598.889C399.254 601.666 414.578 604.105 425.047 595.402C431.574 589.939 434.664 581.205 434.664 568.83C434.664 526.644 397.866 479.485 348.517 479.485L348.583 479.454ZM281.987 430.539C283.911 443.748 290.249 455.321 298.762 461.338C303.082 464.394 307.749 465.998 312.51 465.998C313.708 465.998 315.001 465.906 316.168 465.628C331.776 462.943 341.394 443.531 338.178 421.466C336.16 408.165 329.917 396.685 321.403 390.667C315.885 386.81 309.925 385.267 303.871 386.254C288.357 388.939 278.739 408.443 281.956 430.509L281.987 430.539ZM253.924 504.698C255.942 505.161 257.96 505.408 259.978 505.408C264.487 505.408 268.68 504.142 272.37 501.828C285.488 493.311 287.506 471.677 276.879 452.543C270.541 441.217 260.829 432.977 250.833 430.539C244.243 429.027 237.622 430.014 232.387 433.409C219.175 442.019 217.157 463.652 227.815 482.694C234.153 494.02 243.959 502.26 253.955 504.698H253.924ZM559.563 323.171C509.017 323.171 467.838 282.866 467.838 233.399C467.838 206.827 479.757 182.849 498.582 166.43C492.055 158.159 485.275 150.259 478.023 142.544C475.279 139.674 472.252 137.082 469.13 134.644H228.069C224.947 137.082 221.92 139.767 219.082 142.637C160.653 204.76 128.455 285.46 128.455 369.773V557.036C131.482 556.758 134.509 556.573 137.631 556.573C154.154 556.573 169.731 560.43 183.51 567.343V377.023C183.51 352.242 204.069 332.12 229.39 332.12H467.9C493.22 332.12 513.779 352.242 513.779 377.023V610.456C513.779 635.237 493.22 655.359 467.9 655.359H238.568C238.568 676.282 231.977 695.663 220.5 711.649C263.068 715.969 305.985 718.191 348.646 718.191C406.445 718.191 464.588 714.148 521.57 706.248C548.529 702.483 568.805 679.584 568.805 652.921V369.771C568.805 354.062 567.702 338.447 565.4 322.985C563.476 323.078 561.553 323.17 559.629 323.17L559.563 323.171Z" fill="black"/>
</svg>
