<svg width="822" height="789" viewBox="0 0 822 789" fill="none" xmlns="http://www.w3.org/2000/svg">
<path d="M667.192 194.109C639.656 158.229 605.667 128.164 567.088 105.563C551.34 95.3059 533.27 89.4616 514.662 88.6064C496.409 89.3728 478.791 95.7352 464.062 106.881C451.387 116.498 439.504 127.179 428.533 138.814C349.985 217.376 271.589 296.094 193.345 374.97C172.643 394.091 152.947 414.341 134.342 435.633C102.557 475.573 98.356 510.804 124.112 552.251C134.168 568.362 145.47 583.609 157.907 597.844C188.758 634.269 225.811 664.566 267.235 687.238C278.908 693.858 291.97 697.446 305.289 697.692C318.609 697.938 331.786 694.835 343.682 688.65C358.511 681.24 371.96 671.195 383.413 658.978C431.272 610.56 479.102 562.11 526.901 513.629C576.862 463.234 627.735 413.779 676.691 362.347C717.336 319.675 721.354 280.112 695.324 234.049C686.921 220.034 677.518 206.683 667.192 194.109ZM394.739 288.025C404.603 273.33 430.908 254.301 446.618 271.446C449.695 275.492 451.7 280.294 452.437 285.38C453.173 290.466 452.616 295.662 450.819 300.459C449.703 304.118 448.235 307.652 446.436 311.01C438.853 325.234 423.783 340.4 406.522 336.726C401.397 335.711 396.727 333.018 393.206 329.047C389.684 325.075 387.499 320.038 386.976 314.683C386.525 305.142 389.265 295.731 394.739 288.025ZM326.237 297.445C330.388 292.519 335.49 288.541 341.216 285.764C346.794 282.688 353.315 281.978 359.392 283.785C362.485 285.251 365.117 287.581 366.99 290.512C368.863 293.442 369.901 296.856 369.988 300.364C370.745 309.034 369.309 317.758 365.819 325.683C362.328 333.608 356.904 340.464 350.076 345.58C345.643 348.861 340.233 350.432 334.791 350.018C329.349 349.605 324.221 347.234 320.302 343.319C308.336 330.979 316.739 308.748 326.237 297.445ZM395.835 521.637C381.809 522.48 367.831 519.284 355.465 512.406C345.884 507.36 336.878 501.231 328.612 494.132C304.591 473.69 286.232 444.395 290.799 412.178C291.744 405.168 294.009 398.416 297.467 392.302C309.98 370.543 336.466 361.123 358.661 354.058C380.693 345.494 404.699 343.887 427.619 349.442C455.568 358.297 463.149 387.97 462.235 415.098C460.684 457.582 444.973 517.492 395.835 521.637ZM527.815 451.647C524.904 457.503 520.83 462.661 515.857 466.784C510.883 470.907 505.123 473.902 498.952 475.574C493.381 477.139 487.443 476.499 482.306 473.78C477.169 471.061 473.202 466.46 471.186 460.879C470.025 455.624 470.233 450.145 471.789 445C473.346 439.855 476.194 435.226 480.046 431.583C485.138 426.418 491.276 422.481 498.019 420.054C504.763 417.627 511.943 416.771 519.046 417.548C522.412 418.544 525.42 420.54 527.694 423.287C529.968 426.034 531.408 429.411 531.833 432.996C532.197 439.478 530.806 445.935 527.815 451.647ZM522.517 371.014C516.405 379.756 507.573 386.073 497.491 388.912C493.742 390.239 489.731 390.584 485.82 389.915C481.909 389.247 478.221 387.586 475.087 385.083C471.952 382.579 469.471 379.311 467.866 375.573C466.26 371.834 465.581 367.743 465.889 363.667C466.912 356.194 469.661 349.084 473.905 342.937C478.149 336.789 483.763 331.783 490.275 328.342C492.011 327.306 493.747 326.458 495.573 325.516C502.748 321.131 511.279 319.749 519.412 321.654C540.328 328.906 532.107 357.732 522.517 371.014Z" fill="black"/>
<path d="M107.845 642.664C98.2813 645.841 88.1338 646.689 78.1992 645.14C68.2646 643.591 58.8134 639.688 50.5879 633.737C47.7827 631.894 45.6814 629.108 44.6397 625.85C43.598 622.592 43.6799 619.063 44.8715 615.861C46.9994 610.498 50.313 607.525 56.4237 610.313C63.4891 613.566 70.6708 616.601 77.9108 619.449C80.8759 620.868 84.0938 621.639 87.3619 621.713C103.734 619.704 119.578 614.458 134.024 606.261C123.29 593.288 113.428 579.576 104.504 565.218C102.607 562.178 100.845 559.145 99.2191 556.117C86.609 554.842 73.9005 555.015 61.3274 556.633C45.6696 556.446 30.5626 562.586 19.2371 573.738C7.91151 584.89 1.26652 600.17 0.723181 616.31C-1.5374 631.128 1.54324 646.287 9.38288 658.921C17.2225 671.556 29.278 680.791 43.271 684.881C51.3325 687.509 58.9804 691.333 65.9747 696.232C71.6666 699.745 76.5203 704.533 80.1771 710.242C83.8339 715.95 86.2004 722.433 87.1016 729.211C88.1772 745.5 95.2631 760.744 106.902 771.809C118.541 782.874 133.849 788.92 149.677 788.702C162.932 790.101 176.232 786.543 187.156 778.675C198.079 770.807 205.898 759.153 209.187 745.837C210.778 733.92 211.368 721.883 210.953 709.861C211.018 707.231 211.873 704.687 213.4 702.579C217.212 698.011 221.501 693.856 225.348 689.913C197.905 671.312 172.69 649.431 150.228 624.724C136.553 630.622 122.485 637.492 107.845 642.664Z" fill="black"/>
<path d="M775.953 100.773C765.156 98.4087 755.382 92.5296 748.069 84.0024C740.757 75.4752 736.293 64.7511 735.337 53.4101C734.178 42.1901 729.811 31.5788 722.79 22.925C715.77 14.2712 706.413 7.96569 695.909 4.81C685.132 0.387802 673.413 -1.01948 661.939 0.730589C650.465 2.48066 639.643 7.32598 630.569 14.7761C611.944 30.4737 609.631 52.3401 611.967 75.0977C612.586 77.8499 612.537 80.7172 611.824 83.4451C611.111 86.173 609.755 88.6771 607.878 90.7351C605.965 92.4148 603.677 93.5508 601.653 95.0834C601.41 95.2699 600.268 96.2754 599.083 97.2796C606.972 102.583 614.714 108.316 622.309 114.479C626.136 108.716 629.678 103.226 633.625 98.0756C643.529 85.1645 653.28 72.0332 664.091 59.9497C665.434 58.1254 667.192 56.6713 669.211 55.7166C671.229 54.7619 673.445 54.3362 675.662 54.4772C677.878 54.6182 680.026 55.3217 681.916 56.5251C683.805 57.7284 685.377 59.3945 686.492 61.3752C691.308 68.445 688.52 75.7953 679.563 81.7544C674.751 84.7232 670.436 88.4751 666.785 92.8647C657.255 105.3 648.312 118.179 639.992 129.8C648.122 137.32 656.122 145.398 663.994 154.032C668.322 150.357 672.849 146.937 677.553 143.791C687.974 137.143 699.726 133.031 711.917 131.765C724.109 130.499 736.42 132.112 747.917 136.483C749.601 137.129 751.034 138.325 751.997 139.89C752.96 141.454 753.4 143.301 753.25 145.148C752.609 148.635 750.658 151.721 747.821 153.731C745.505 155.211 742.927 156.199 740.237 156.64C737.547 157.08 734.799 156.964 732.153 156.297C726.157 155.198 720.043 154.947 713.981 155.552C706.955 156.561 700.148 158.804 693.856 162.183C692.719 162.78 684.108 168.117 679.179 171.522C681.184 173.937 683.179 176.395 685.164 178.898C696.339 192.396 706.461 206.786 715.436 221.931C716.916 224.544 718.311 227.14 719.621 229.721L728.149 230.05L731.198 230.162L751.347 230.932L751.531 230.934C755.34 231.013 759.15 230.833 762.937 230.397C772.971 229.952 782.747 226.98 791.412 221.741C800.076 216.503 807.365 209.156 812.643 200.343C831.47 166.874 823.176 113.621 775.953 100.773Z" fill="black"/>
</svg>
