<svg width="802" height="821" viewBox="0 0 802 821" fill="none" xmlns="http://www.w3.org/2000/svg">
<path d="M788.594 129.948H738.231V74.108C738.231 65.8046 732.434 58.9542 725.007 58.9542H515.403C487.323 22.8344 446.381 0 400.909 0C355.438 0 314.677 22.8344 286.416 58.9542H76.6311C69.3847 58.9542 63.4064 65.597 63.4064 74.108V129.948H13.2248C5.97831 129.948 0 136.591 0 145.102V238.1C0 246.404 5.79715 253.254 13.2248 253.254H44.0221V805.846C44.0221 814.15 49.8193 821 57.2469 821H744.753C752 821 757.978 814.357 757.978 805.846V253.047H788.775C796.022 253.047 802 246.404 802 237.893V144.895C801.638 136.799 795.841 129.948 788.594 129.948ZM444.388 145.725C444.569 144.272 444.932 143.026 445.294 141.573C445.656 140.328 446.2 139.082 446.562 137.837C447.83 134.723 449.461 131.817 451.635 129.326C451.997 128.91 452.54 128.288 452.903 127.873C454.352 126.419 455.801 125.174 457.613 123.928C460.33 121.853 463.591 121.022 466.852 122.268C467.577 122.475 468.301 122.891 469.026 123.306C469.569 123.721 470.294 124.344 470.656 124.759C472.287 126.627 473.374 129.118 473.917 132.024C473.917 132.439 474.098 133.062 474.098 133.477C474.642 137.421 474.28 141.158 473.555 144.895C473.555 145.102 473.555 145.31 473.374 145.517C473.193 146.14 473.012 146.763 472.83 147.178C472.468 148.216 472.106 149.254 471.743 150.292C471.2 151.537 470.656 152.99 469.932 154.236C468.664 156.727 467.214 159.218 465.584 161.294C465.222 161.709 464.678 162.332 464.135 162.747C463.772 163.162 463.229 163.577 462.685 164.2C461.598 165.03 460.511 165.861 459.424 166.483C454.714 168.974 450.366 168.559 447.468 165.446C446.2 163.992 445.113 162.332 444.569 160.048C444.569 159.841 444.388 159.426 444.388 159.218C444.388 159.01 444.207 158.803 444.207 158.595C444.207 158.388 444.026 157.972 444.026 157.557C444.026 157.142 443.845 156.935 443.845 156.519C443.845 156.312 443.845 156.312 443.845 156.104C443.663 154.859 443.663 153.613 443.482 152.368C443.845 149.877 444.026 147.801 444.388 145.725ZM409.967 89.8844C410.149 89.0541 410.149 88.2238 410.33 87.3934C410.33 86.9783 410.511 86.5631 410.511 86.1479C411.236 82.8266 412.323 79.5052 413.772 76.1838C414.315 74.9383 414.859 73.9004 415.583 72.6549C417.033 70.1639 418.844 68.088 421.018 66.4273C421.562 66.0121 421.924 65.8046 422.468 65.3894C422.83 65.1818 423.011 65.1818 423.373 64.9742C424.642 64.3514 426.091 64.1439 427.359 63.7287C428.446 63.9363 429.533 63.9363 430.439 64.1439C431.344 64.559 432.25 64.9742 433.156 65.597C433.7 66.0121 434.243 66.4273 434.787 66.8425C435.33 67.2576 435.692 67.6728 436.236 68.088C436.417 68.2956 436.598 68.5032 436.961 68.9184C438.591 70.9942 439.859 73.4852 440.946 76.3914C441.852 79.2976 442.758 82.619 443.12 85.7328C443.301 86.7707 443.301 87.8086 443.301 88.8465C443.482 93.4134 443.301 97.7727 442.395 101.924C442.214 102.755 442.033 103.377 441.852 104.208C441.671 104.831 441.49 105.453 441.308 106.076C441.127 106.906 440.765 107.737 440.403 108.567C440.221 108.982 440.221 109.19 440.04 109.397C439.134 111.681 438.047 113.964 436.598 116.04C436.236 116.455 436.055 117.078 435.692 117.493C433.337 120.607 430.62 122.891 426.997 123.721C423.373 124.551 420.294 123.513 417.939 121.23C416.67 120.192 415.765 118.946 414.678 117.286C411.417 112.304 410.149 106.699 409.605 100.679C409.424 97.1499 409.424 93.4134 409.967 89.8844ZM400.909 133.477C402.359 133.477 403.627 133.477 404.895 133.685C405.801 133.685 406.707 133.893 407.431 134.1C412.866 135.346 417.939 137.837 422.105 141.781C422.83 142.404 423.373 143.026 423.917 143.649C427.54 147.593 430.258 152.575 432.069 158.388C433.7 163.577 434.787 168.974 436.055 174.372C438.41 184.751 442.576 193.677 449.098 201.358C452.903 205.925 456.888 210.076 460.874 214.643C467.033 221.909 470.656 230.42 471.562 240.384C472.468 251.386 467.033 260.935 457.069 264.879C456.526 265.086 455.982 265.294 455.439 265.502C454.352 265.917 453.446 266.124 452.359 266.54C451.816 266.747 451.272 266.747 450.548 266.955C447.287 267.577 443.845 267.577 440.403 267.37C439.134 267.162 437.685 266.955 436.417 266.747C435.33 266.54 434.243 266.332 433.156 266.124C428.989 265.294 424.642 264.671 420.294 264.049C418.12 263.841 415.946 263.633 413.772 263.218C412.685 263.218 411.598 263.011 410.511 262.803C396.743 261.35 382.975 263.011 369.387 265.294C366.127 265.917 363.047 266.955 359.786 267.37C354.895 267.785 350.366 267.37 346.018 265.709C345.112 265.502 344.387 265.086 343.481 264.671C341.126 263.426 338.771 261.765 336.597 259.689C335.691 258.859 334.967 258.029 334.242 256.991C333.699 256.368 333.336 255.745 332.974 255.122C332.431 254.084 331.887 253.047 331.525 252.009C331.162 250.971 330.8 249.933 330.619 248.687C330.075 245.781 329.894 242.667 330.257 239.553C330.257 238.931 330.438 238.1 330.438 237.478C330.8 234.156 331.706 231.042 332.793 228.344C334.967 222.739 338.228 217.757 342.032 212.983C342.394 212.567 342.938 211.945 343.3 211.529C347.829 206.34 352.539 201.358 356.706 195.545C362.141 188.072 364.858 178.939 366.67 169.597C367.395 165.238 368.482 161.086 369.931 156.934C370.474 155.274 371.199 153.821 371.924 152.16C372.286 151.33 372.648 150.707 373.192 149.877C374.46 147.801 375.728 145.932 377.177 144.272C382.431 138.044 388.953 134.308 396.562 133.477C398.011 133.685 399.46 133.477 400.909 133.477ZM359.605 80.3355C361.235 73.07 364.315 67.0501 371.018 64.3515C372.105 64.1439 373.011 64.1439 374.098 63.9363C375.185 64.1439 376.272 64.3515 377.359 64.7666C380.438 66.0121 382.975 68.088 384.967 71.2018C386.779 73.9004 388.228 76.8066 389.315 79.9204C392.938 90.092 393.301 100.471 390.221 110.851C390.04 111.266 390.04 111.681 389.859 112.096C388.772 115.002 387.322 117.701 385.148 119.984C383.518 121.645 381.888 122.891 380.076 123.513C377.902 124.344 375.366 124.344 373.192 123.306C372.648 123.098 371.924 122.891 371.38 122.475C370.837 122.06 370.112 121.645 369.569 121.23C365.04 117.493 362.322 112.304 360.511 106.491C357.974 97.7727 357.612 89.0541 359.605 80.3355ZM327.72 133.477C327.72 133.062 327.902 132.439 327.902 132.024C328.445 129.118 329.351 126.627 331.162 124.759C331.344 124.551 331.525 124.344 331.706 124.136C332.249 123.721 332.793 123.098 333.518 122.683C333.88 122.475 334.423 122.268 334.967 122.06C338.228 120.815 341.307 121.645 344.206 123.721C344.75 124.136 345.293 124.551 345.836 124.966C346.923 125.797 347.829 126.835 348.735 127.665C354.713 134.1 357.431 142.404 358.155 151.952C357.974 153.821 357.793 155.481 357.612 157.142C357.431 157.972 357.25 158.803 357.068 159.426C356.525 161.294 355.619 162.954 354.713 164.2C354.351 164.615 353.808 165.238 353.445 165.446C351.271 167.521 348.192 168.144 344.931 167.106C344.025 166.899 342.938 166.483 342.032 165.861C337.322 163.162 334.061 158.803 331.525 153.821C330.981 152.575 330.257 151.122 329.713 149.877C329.351 148.839 328.989 147.801 328.626 146.763C328.445 146.14 328.264 145.31 328.083 144.687C327.539 141.366 327.177 137.422 327.72 133.477ZM731.528 790.693H525.186V515.85C525.186 501.319 519.932 488.033 511.599 478.484C511.055 477.861 510.512 477.239 509.968 476.824C508.881 475.786 507.794 474.54 506.526 473.502C505.983 473.087 505.258 472.464 504.715 472.049C501.092 469.143 496.925 466.859 492.577 465.406C488.229 463.746 483.7 462.915 478.809 462.915H322.829C310.148 462.915 298.553 468.935 290.22 478.484C281.887 488.033 276.633 501.319 276.633 515.85V790.693H70.2905V253.047H263.227C270.655 270.484 280.437 286.053 292.213 299.753C293.481 301.206 294.749 302.659 296.017 303.905C298.553 306.604 301.271 309.302 303.988 311.793C305.438 313.039 306.706 314.284 308.155 315.53C311.597 318.644 315.22 321.55 319.025 324.248C320.474 325.286 321.923 326.324 323.554 327.362C325.003 328.4 326.633 329.438 328.083 330.268C329.713 331.306 331.162 332.137 332.793 333.174C334.423 334.005 336.054 335.043 337.503 335.873C339.134 336.703 340.764 337.534 342.394 338.364C348.192 341.063 353.989 343.554 360.148 345.422C373.192 349.574 386.96 351.857 401.091 351.857C415.221 351.857 428.989 349.574 442.033 345.422C448.192 343.554 453.99 341.063 459.787 338.364C461.417 337.534 463.048 336.703 464.678 335.873C466.309 335.043 467.939 334.212 469.388 333.174C471.019 332.344 472.468 331.306 474.099 330.268C475.729 329.23 477.178 328.4 478.628 327.362C480.077 326.324 481.707 325.286 483.157 324.248C484.606 323.21 486.055 321.965 487.504 320.927C490.403 318.644 493.302 316.152 496.019 313.661C497.468 312.416 498.736 311.17 500.005 309.925C501.273 308.679 502.722 307.226 503.99 305.981C505.258 304.528 506.526 303.282 507.794 301.829C520.295 287.713 530.802 271.314 538.592 253.047L731.347 253.047V790.693H731.528Z" fill="black"/>
</svg>
