<svg width="614" height="863" viewBox="0 0 614 863" fill="none" xmlns="http://www.w3.org/2000/svg">
<path d="M0 98.4357V764.6C0 791.675 12.4038 816.302 32.36 834.079C52.3558 851.928 79.9458 863 110.318 863H503.722C534.015 863 561.604 851.928 581.6 834.079C601.596 816.231 614 791.639 614 764.6V98.4357C614 71.3956 601.596 46.7692 581.6 28.9205C561.604 11.0718 534.014 0 503.722 0H110.318C79.9855 0 52.3569 11.0718 32.4404 28.8851C12.4445 46.7338 0.0407053 71.3611 0.0407053 98.4357H0ZM369.437 443.954C375.838 438.241 386.253 438.241 392.653 443.954C399.054 449.667 399.054 458.964 392.653 464.677L278.762 566.375C272.361 572.088 261.946 572.088 255.546 566.375C249.145 560.662 249.145 551.365 255.546 545.652L369.437 443.954ZM416.108 296.653C422.509 290.94 432.924 290.94 439.324 296.653C445.724 302.367 445.724 311.663 439.324 317.376L197.894 532.881C191.493 538.594 181.039 538.594 174.678 532.881C168.277 527.168 168.277 517.871 174.678 512.158L416.108 296.653ZM300.985 297.54C307.386 291.827 317.801 291.827 324.201 297.54C330.602 303.254 330.602 312.55 324.201 318.263L210.31 419.961C203.909 425.674 193.494 425.674 187.094 419.961C180.693 414.248 180.693 404.951 187.094 399.238L300.985 297.54ZM472.082 700.335C481.146 700.335 488.501 706.9 488.501 714.99C488.501 723.081 481.146 729.646 472.082 729.646H427.875C418.811 729.646 411.456 723.081 411.456 714.99C411.456 706.9 418.811 700.335 427.875 700.335H472.082ZM186.127 700.335C195.191 700.335 202.546 706.9 202.546 714.99C202.546 723.081 195.191 729.646 186.127 729.646H141.92C132.856 729.646 125.501 723.081 125.501 714.99C125.501 706.9 132.856 700.335 141.92 700.335H186.127ZM353.886 756.863C341.84 767.615 325.263 774.251 307.015 774.251C288.728 774.251 272.19 767.616 260.145 756.899C248.099 746.111 240.665 731.314 240.665 715.026C240.665 698.702 248.099 683.905 260.105 673.188C272.19 662.436 288.768 655.8 307.015 655.8C325.263 655.8 341.84 662.436 353.886 673.153C365.931 683.941 373.366 698.738 373.366 715.026C373.366 731.314 365.931 746.111 353.886 756.863ZM71.3096 98.4389V764.603C71.3096 774.113 75.7223 782.807 82.7985 789.123C89.8747 795.404 99.6537 799.378 110.308 799.378H503.712C514.367 799.378 524.106 795.439 531.222 789.158C538.258 782.807 542.671 774.113 542.671 764.638V98.4744C542.671 88.9641 538.258 80.2705 531.222 73.9542C524.106 67.6379 514.367 63.6991 503.712 63.6991H110.308C99.6537 63.6991 89.8746 67.6379 82.7985 73.9542C75.7223 80.2706 71.3096 88.9641 71.3096 98.4744V98.4389ZM38.4326 764.603V98.4389C38.4326 80.9091 46.5822 64.87 59.5816 53.2658C72.6611 41.5908 90.6297 34.3525 110.268 34.3525H503.673C523.272 34.3525 541.24 41.5915 554.32 53.2304C567.399 64.9054 575.508 80.9091 575.508 98.4389V764.603C575.508 782.168 567.398 798.243 554.359 809.847C541.28 821.45 523.311 828.725 503.673 828.725H110.268C90.6297 828.725 72.6611 821.45 59.6213 809.847C46.5417 798.172 38.4326 782.133 38.4326 764.603Z" fill="black"/>
</svg>
