<svg width="827" height="678" viewBox="0 0 827 678" fill="none" xmlns="http://www.w3.org/2000/svg">
<path d="M710.356 213.98C700.743 213.98 692.954 221.982 692.954 231.904C692.954 241.826 700.742 249.864 710.356 249.864C719.97 249.864 727.758 241.827 727.758 231.904C727.758 222.018 719.97 213.98 710.39 213.98H710.356ZM710.356 177.706C739.37 177.706 762.871 201.996 762.871 231.903C762.871 261.847 739.37 286.1 710.356 286.1C681.342 286.1 657.842 261.846 657.842 231.903C657.842 201.995 681.343 177.742 710.322 177.742H710.356L710.356 177.706ZM315.053 272.306C319.532 272.306 324.046 274.049 327.457 277.605H327.492C334.349 284.682 334.349 296.169 327.492 303.245C324.046 306.766 319.566 308.544 315.052 308.544C310.572 308.544 306.059 306.766 302.647 303.245C295.79 296.133 295.79 284.681 302.647 277.605C306.059 274.084 310.504 272.306 314.983 272.306H315.053ZM406.68 233.116C419.189 233.152 431.939 234.823 444.619 238.344C523.047 260.001 569.6 343.222 548.579 424.12C530.971 491.902 471.599 536.636 406.679 536.636C394.067 536.636 381.283 534.929 368.533 531.408C302.821 513.236 259.51 451.89 259.545 384.889V384.853C259.545 374.824 267.436 366.752 277.119 366.752H277.154C286.871 366.752 294.728 374.86 294.728 384.853C294.728 384.853 294.659 385.422 294.693 386.525C295.313 436.881 328.153 482.717 377.634 496.41C387.317 499.077 397.069 500.357 406.649 500.357C456.062 500.357 501.275 466.324 514.675 414.759C530.664 353.165 495.241 289.825 435.558 273.328C426.185 270.732 416.813 269.452 407.578 269.381C407.578 269.381 406.888 269.416 406.578 269.416C396.895 269.416 389.039 261.308 389.039 251.279C389.039 241.286 396.93 233.107 406.613 233.107L406.68 233.116ZM406.577 198.763C306.993 198.763 226.259 282.085 226.259 384.858C226.259 487.669 306.995 570.989 406.577 570.989C506.197 570.989 586.93 487.666 586.93 384.858C586.93 282.083 506.194 198.763 406.612 198.763L406.578 198.799L406.577 198.763ZM406.577 162.525C525.595 162.525 622.048 262.068 622.048 384.862C622.048 507.693 525.595 607.236 406.577 607.236C287.594 607.236 191.106 507.693 191.106 384.862C191.106 262.068 287.559 162.525 406.542 162.525H406.577ZM303.993 0C252.616 1.8492 206.852 34.709 187.454 84.1764L175.773 113.977L80.9431 114.013C36.2505 114.653 0.207302 152.1 0 198.331V593.682C0.206755 639.877 36.2505 677.36 80.9431 678H746.057C790.749 677.36 826.793 639.877 827 593.682V198.331C826.793 152.1 790.749 114.618 746.091 114.013H651.226L639.511 84.141C620.248 35.065 575.039 2.31156 524.109 6.07757e-05L303.993 0Z" fill="black"/>
</svg>
