<svg width="855" height="764" viewBox="0 0 855 764" fill="none" xmlns="http://www.w3.org/2000/svg">
<path fill-rule="evenodd" clip-rule="evenodd" d="M298.863 764L308.348 673.047C308.419 672.41 308.524 671.773 308.701 671.135C310.287 665.003 315.964 661.499 321.393 663.291C398.117 688.896 479.849 687.98 556.076 660.702C556.605 660.503 557.134 660.383 557.663 660.304C560.343 659.826 563.093 660.583 565.279 662.414C567.465 664.246 568.91 666.994 569.333 670.02L581.885 763.959H656.634L726.587 538.093L726.552 538.133C726.905 536.859 727.398 535.664 728.103 534.628C742.489 513.881 759.061 495.165 777.466 478.877C797.951 459.723 823.691 438.1 855 411.897L851.65 265.037C841.496 262.967 831.412 260.338 821.468 257.113C805.284 251.896 788.819 247.795 772.212 244.848C770.026 244.49 768.052 243.375 766.5 241.622C757.086 231.11 746.614 219.282 735.084 206.101C723.555 192.92 711.109 178.505 697.745 162.934L697.71 162.894C695.947 161.023 694.854 158.514 694.607 155.766C691.963 131.076 693.479 105.989 699.085 81.9364C706.278 52.7866 717.772 25.1904 733.11 0.381391C709.063 -1.41058 684.946 3.12908 662.733 13.6422C636.747 25.9071 614.746 46.8535 599.619 73.6534C597.398 78.233 592.709 80.6222 588.196 79.3878C480.801 50.5571 389.51 47.3713 314.375 69.8306C241.883 90.6179 178.981 141.55 138.255 212.429C111.422 259.698 99.0824 315.566 103.102 371.513C107.298 427.303 127.642 485.761 164.1 546.886C164.699 547.802 165.193 548.838 165.51 549.913L230.492 763.995L298.863 764ZM506.187 141.98C507.139 146.56 507.316 151.299 506.611 155.958V156.157C503.931 174.833 488.628 187.776 471.987 185.346C436.199 178.895 399.636 180.448 364.376 189.966C329.328 201.395 296.608 220.589 268.12 246.353C254.721 257.742 235.752 255.074 225.245 240.34L225.139 240.18C219.78 232.774 217.347 223.216 218.369 213.738C219.427 204.261 223.87 195.699 230.675 190.045C265.546 158.784 305.565 135.609 348.404 121.83C391.42 110.002 436.058 107.852 479.845 115.458C492.609 117.29 503.119 127.843 506.187 141.98ZM486.407 152.254V152.453C485.455 158.825 480.237 163.245 474.56 162.449C436.164 155.599 396.955 157.351 359.16 167.625C321.538 179.811 286.421 200.319 255.854 227.916C253.633 229.787 250.883 230.584 248.132 230.186C245.417 229.827 242.949 228.274 241.222 225.925L241.116 225.766V225.726C240.164 224.491 239.494 223.018 239.071 221.465C238.718 219.872 238.648 218.239 238.824 216.646C239.071 213.381 240.587 210.394 242.949 208.523C275.74 179.094 313.361 157.233 353.629 144.21C394.107 133.18 436.1 131.189 477.244 138.396C480.135 138.755 482.78 140.427 484.507 143.056C486.235 145.684 486.936 149.029 486.407 152.254ZM664.992 264.27C670.21 270.163 670.986 279.363 666.931 286.292C662.841 293.181 654.978 295.889 648.174 292.703C641.369 289.517 637.525 281.354 638.936 273.23C640.382 265.066 646.728 259.173 654.062 259.173C658.188 259.173 662.101 261.005 664.992 264.27ZM654.097 236.037C671.233 236.076 686.007 249.815 689.285 268.809C692.6 287.805 683.573 306.8 667.707 314.166C651.841 321.533 633.577 315.241 624.092 299.113C614.607 282.946 616.511 261.521 628.676 247.863C635.445 240.257 644.577 235.997 654.097 236.037ZM83.3937 318.03C87.0606 310.623 88.33 302.061 86.9901 293.739C62.3791 300.787 36.8168 287.327 25.7451 261.563C14.6735 235.759 21.1615 204.778 41.2595 187.295C45.3143 183.273 45.9136 176.344 42.5993 171.526C39.285 166.707 33.2201 165.632 28.7422 169.057C2.33318 192.113 -7.15161 232.293 5.64763 267.138C18.4117 301.982 50.2854 322.808 83.3937 318.03Z" fill="black"/>
</svg>
