<svg width="801" height="777" viewBox="0 0 801 777" fill="none" xmlns="http://www.w3.org/2000/svg">
<path d="M221.421 293.244L350.102 230.957C366.553 249.353 390.56 260.072 416.402 260.072C430.135 260.072 443.375 257.029 455.696 251.077C476.526 241 491.988 223.755 499.261 202.552C506.534 181.317 504.769 158.66 494.248 138.777C485.351 121.87 470.594 108.411 452.766 100.566C456.755 82.1705 454.178 62.8281 445.282 45.9208C430.313 17.5842 400.446 0 367.26 0C353.527 0 340.288 3.04333 327.966 8.99511C291.497 26.6468 273.245 65.3307 282.248 102.357L153.567 164.644C137.115 146.249 113.108 135.495 87.2665 135.495C73.5335 135.495 60.294 138.539 47.9727 144.49C27.1433 154.568 11.6805 171.813 4.40773 193.049C-2.86491 214.251 -1.09973 236.907 9.42093 256.858C18.3176 273.765 33.0747 287.224 50.9027 295.069C46.9133 313.464 49.4906 332.807 58.3871 349.714C73.3203 378.051 103.223 395.635 136.374 395.635C150.142 395.635 163.346 392.592 175.703 386.64C212.172 368.954 230.424 330.305 221.421 293.244Z" fill="black"/>
<path d="M698.618 574.923C696.783 528.732 657.172 492.685 608.095 494.51C567.249 495.998 533.815 523.828 525.872 561.126L381.8 566.333C370.927 530.117 334.846 504.452 294.6 505.872C271.299 506.717 249.729 516.219 233.876 532.585C218.025 548.951 209.763 570.255 210.646 592.573C211.388 611.509 218.907 629.6 231.723 643.871C220.107 658.986 214 677.584 214.706 696.52C216.507 741.629 254.812 777 301.907 777C303.036 777 304.131 777 305.261 776.932C346.072 775.444 379.541 747.615 387.484 710.317L531.592 705.11C542.465 741.292 578.087 767.126 618.793 765.571C666.876 763.813 704.546 724.925 702.746 678.866C702.004 659.93 694.449 641.839 681.67 627.602C693.249 612.419 699.359 593.825 698.618 574.923Z" fill="black"/>
<path d="M781.802 213.577C769.446 198.8 752.148 188.554 732.977 184.429C732.907 165.627 726.234 147.232 713.843 132.421C697.179 112.538 672.325 101.109 645.706 101.109C625.935 101.109 606.554 107.635 591.125 119.504C559.246 143.986 549.714 185.443 566.518 219.938L454.042 306.369C438.932 295.346 420.15 289.191 400.98 289.191C381.21 289.191 361.864 295.751 346.4 307.587C308.837 336.464 302.835 389.182 332.949 425.126C345.305 439.903 362.64 450.149 381.774 454.275C381.845 473.076 388.517 491.472 400.909 506.249C417.573 526.132 442.427 537.561 469.046 537.561C488.816 537.561 508.198 531.035 523.626 519.166C555.47 494.684 565.002 453.227 548.198 418.732L660.674 332.3C675.784 343.324 694.566 349.479 713.771 349.479C733.541 349.479 752.888 342.952 768.316 331.083C786.498 317.084 797.936 297.2 800.443 274.95C803.055 252.768 796.418 230.958 781.802 213.577Z" fill="black"/>
</svg>
