<svg width="724" height="826" viewBox="0 0 724 826" fill="none" xmlns="http://www.w3.org/2000/svg">
<path fill-rule="evenodd" clip-rule="evenodd" d="M411.147 533.634L321.956 393.464C308.156 404.417 298.652 418.706 294.082 434.202C288.056 454.603 290.605 477.07 303.131 496.778L303.094 496.795L303.131 496.844C315.656 516.519 335.829 529.735 358.331 535.203C375.409 539.35 393.779 539.019 411.147 533.634ZM352.56 377.44C369.929 372.071 388.317 371.757 405.394 375.903C427.897 381.372 448.069 394.587 460.595 414.262V414.279C473.139 433.987 475.669 456.47 469.643 476.905C465.074 492.401 455.57 506.69 441.77 517.643L352.56 377.44ZM519 331.482C523.551 338.668 520.82 347.82 512.901 351.95C504.981 356.08 494.895 353.602 490.344 346.416L452.875 287.523C448.324 280.337 451.055 271.185 458.975 267.055C466.894 262.925 476.98 265.403 481.532 272.589L519 331.482ZM362.592 210.095C380.415 190.8 401.698 174.611 425.348 162.089C425.639 161.907 425.949 161.742 426.258 161.577C450.272 149.005 476.689 140.2 504.38 135.789L441.57 37.0674C430.318 19.4078 412.112 7.51356 391.849 2.57417C371.549 -2.36523 349.228 -0.333306 329.784 9.85937C329.511 10.008 329.22 10.1402 328.947 10.2724C309.958 20.4816 297.141 36.803 291.77 54.9913C286.327 73.4108 288.566 93.664 299.799 111.307C299.981 111.588 300.145 111.869 300.291 112.15L362.592 210.095ZM522.204 163.79C493.948 166.747 466.985 174.941 442.844 187.579C442.553 187.727 442.261 187.876 441.97 188.008C418.193 200.596 397.165 217.545 380.397 238.063L450.436 348.15L450.472 348.134C461.724 365.81 479.93 377.704 500.211 382.627C520.511 387.566 542.832 385.534 562.276 375.342C562.549 375.193 562.84 375.061 563.113 374.929C582.102 364.72 594.919 348.398 600.29 330.21C605.733 311.79 603.494 291.537 592.261 273.894L522.204 163.79ZM111.985 338.04C111.731 337.644 111.457 337.231 111.203 336.818L111.166 336.834C94.2345 310.188 90.8118 279.825 98.9499 252.237C107.088 224.665 126.823 199.935 156.19 184.539L156.171 184.506C185.52 169.143 219.001 166.037 249.405 173.421C279.772 180.806 307.045 198.713 324.013 225.359L324.049 225.343C324.304 225.739 324.541 226.136 324.796 226.532L111.985 338.04ZM337.14 255.095C341.964 273.382 341.509 292.248 336.284 309.957C328.146 337.512 308.41 362.258 279.044 377.655L279.062 377.688C249.714 393.051 216.233 396.157 185.829 388.772C166.33 384.031 148.106 374.962 133.068 362.01L337.14 255.095ZM477.435 586.216L478.51 725.345H621.099L621.045 714.872C621.008 709.139 621.973 703.82 623.921 698.815C625.906 693.76 628.892 689.051 632.897 684.624L719.813 588.744C721.305 587.108 722.38 585.44 723.053 583.738C723.69 582.136 724 580.236 724 578.006V336.372C724 331.746 721.906 327.534 718.556 324.478C715.188 321.421 710.546 319.538 705.448 319.538H698.002V319.472C692.94 319.472 688.298 321.388 684.893 324.478C681.525 327.534 679.432 331.746 679.432 336.372V473.271C679.432 479.813 678.048 486.007 675.335 491.822C672.641 497.571 668.654 502.775 663.41 507.351L553.264 603.545L530.014 581.624L584.141 534.377C586.089 532.676 587.527 530.809 588.456 528.827C589.421 526.745 589.876 524.465 589.858 521.987C589.821 519.543 589.312 517.312 588.328 515.33C587.364 513.381 585.852 511.53 583.795 509.812L581.884 508.227C578.224 505.17 573.582 503.684 568.975 503.75C564.388 503.816 559.818 505.451 556.268 508.623L483.025 574.025C481.131 575.726 479.711 577.576 478.801 579.559C477.872 581.558 477.417 583.788 477.435 586.216ZM428.607 760.433V821.408H428.68C428.68 822.663 429.262 823.803 430.173 824.645C431.101 825.488 432.357 826 433.741 826H668.162C669.546 826 670.802 825.471 671.73 824.645C672.659 823.803 673.223 822.663 673.223 821.408H673.296V760.433H673.223C673.223 759.178 672.641 758.038 671.73 757.195C670.802 756.353 669.546 755.824 668.162 755.824H637.94H461.887H433.741V755.758C432.412 755.758 431.137 756.303 430.173 757.179C429.244 758.021 428.68 759.161 428.68 760.417H428.607V760.433ZM644.112 775.631C653.397 775.631 660.916 782.454 660.916 790.879C660.916 799.304 653.397 806.127 644.112 806.127H634.171C624.886 806.127 617.367 799.304 617.367 790.879C617.367 782.454 624.886 775.631 634.171 775.631H644.112ZM245.527 725.329L246.601 586.2C246.619 583.771 246.164 581.541 245.254 579.542C244.343 577.56 242.941 575.693 241.03 574.008L167.787 508.606C164.237 505.435 159.667 503.816 155.079 503.733C150.473 503.667 145.83 505.154 142.171 508.21L140.259 509.796C138.202 511.514 136.691 513.348 135.726 515.313C134.743 517.312 134.233 519.543 134.197 521.971C134.16 524.449 134.634 526.745 135.599 528.81C136.509 530.792 137.947 532.659 139.913 534.361L194.004 581.591L170.755 603.512L60.6079 507.318C55.3646 502.742 51.3775 497.555 48.683 491.789C45.9521 485.974 44.5866 479.763 44.5866 473.221H44.6594V336.322H44.5866C44.5866 331.697 42.4929 327.484 39.1248 324.428C35.7203 321.339 31.0777 319.423 26.0164 319.423V319.489H18.5702C13.4725 319.489 8.82993 321.388 5.46181 324.428C2.0937 327.484 0 331.697 0 336.322V577.94C0 580.17 0.309497 582.07 0.946708 583.672C1.62033 585.374 2.69449 587.026 4.18739 588.678L91.1031 684.558C95.1084 688.985 98.0942 693.694 100.079 698.749C102.045 703.754 102.992 709.073 102.955 714.806L102.901 725.279H245.527V725.329ZM295.375 821.408V760.433C295.375 759.178 294.792 758.038 293.882 757.195C292.954 756.353 291.697 755.824 290.314 755.824H262.167H86.1146H55.8926C54.5089 755.824 53.2527 756.353 52.3242 757.195C51.3957 758.038 50.8313 759.178 50.8313 760.433V821.408C50.8313 822.663 51.4139 823.803 52.3242 824.645C53.2527 825.488 54.5089 826 55.8926 826H290.295C291.679 826 292.935 825.471 293.864 824.645C294.811 823.803 295.375 822.663 295.375 821.408ZM79.9428 806.143C70.6577 806.143 63.1386 799.321 63.1386 790.896C63.1386 782.471 70.6577 775.648 79.9428 775.648H89.8833C99.1683 775.648 106.687 782.471 106.687 790.896C106.687 799.321 99.1683 806.143 89.8833 806.143H79.9428Z" fill="black"/>
</svg>
