<svg width="824" height="673" viewBox="0 0 824 673" fill="none" xmlns="http://www.w3.org/2000/svg">
<path d="M464.995 30.2504C384.674 -25.5476 276.548 -1.94073 223.001 82.8292L127.233 236.274C126.203 236.274 126.203 236.274 126.203 236.274L29.4051 390.791C2.63125 432.64 -5.60686 480.926 3.66101 528.14C12.9289 576.427 39.7027 617.202 79.8635 642.955C107.667 663.343 140.62 673 175.632 673C187.989 673 199.316 671.927 211.673 668.708C256.983 659.05 297.144 631.152 321.858 589.303L515.454 282.414C567.972 198.717 545.317 84.9753 464.995 30.2504ZM488.68 263.1L401.15 402.594L162.245 241.639L249.775 102.144C277.578 59.2224 322.888 35.6156 369.227 35.6156C396.001 35.6156 422.775 44.1999 446.459 60.2955C512.364 104.29 530.9 195.498 488.68 263.1Z" fill="black"/>
<path d="M266.251 120.386L223.001 189.06C217.852 196.571 219.911 207.302 228.15 212.667C231.239 214.813 234.328 215.886 237.417 215.886C242.566 215.886 247.715 212.667 250.804 208.375L294.054 139.7C295.084 137.554 306.412 119.313 313.62 123.605C320.828 128.97 331.126 126.824 336.275 118.24C341.424 110.728 339.364 99.9979 331.126 94.6327C315.679 82.8293 288.906 83.9023 266.251 120.386Z" fill="black"/>
<path d="M797.609 396.156C797.609 392.937 796.579 389.718 793.49 386.499C793.49 386.499 793.49 386.499 792.46 386.499C792.46 385.426 792.46 385.426 792.46 383.28C780.103 368.257 766.716 355.381 752.299 344.65C751.27 343.577 751.27 341.431 749.21 340.358C749.21 339.285 746.121 340.358 745.091 339.285C725.525 325.336 702.871 314.605 677.127 310.313C630.787 303.875 584.448 314.605 546.347 343.577C509.275 372.549 483.531 414.398 477.352 462.685C467.055 532.432 495.888 596.814 547.376 635.444C547.376 636.517 547.376 638.663 548.406 639.736C549.436 640.809 551.495 640.809 552.525 640.809C572.091 655.831 596.805 665.489 621.519 669.781C630.787 670.854 640.055 673 648.293 673C733.764 673 807.906 609.691 821.293 519.556C829.531 476.634 818.204 433.713 797.609 396.156ZM542.227 583.938L737.883 378.988C746.121 384.353 752.299 391.864 759.508 398.302L561.793 603.253C553.555 597.887 547.376 590.376 542.227 583.938Z" fill="black"/>
</svg>
