<svg width="803" height="798" viewBox="0 0 803 798" fill="none" xmlns="http://www.w3.org/2000/svg">
<path d="M315.451 269.008C296.735 269.008 280.727 280.528 274.085 296.786H356.817C350.175 280.528 334.166 269.008 315.451 269.008Z" fill="black"/>
<path d="M173.563 498.803C192.289 498.803 208.302 487.282 214.945 471.024H132.198C138.84 487.282 154.849 498.803 173.563 498.803Z" fill="black"/>
<path d="M457.338 216.811C476.052 216.811 492.062 205.29 498.704 189.032H415.973C422.615 205.29 438.624 216.811 457.338 216.811Z" fill="black"/>
<path d="M345.756 581.116C327.041 581.116 311.032 592.636 304.39 608.895H387.122C380.48 592.636 364.471 581.116 345.756 581.116Z" fill="black"/>
<path d="M173.563 409.996C154.848 409.996 138.84 421.516 132.198 437.774H214.945C208.302 421.516 192.29 409.996 173.563 409.996Z" fill="black"/>
<path d="M457.338 128.004C438.623 128.004 422.615 139.524 415.973 155.782H498.704C492.062 139.524 476.053 128.004 457.338 128.004Z" fill="black"/>
<path d="M315.451 357.815C334.165 357.815 350.175 346.294 356.817 330.036H274.085C280.727 346.294 296.736 357.815 315.451 357.815Z" fill="black"/>
<path d="M345.756 669.923C364.47 669.923 380.48 658.402 387.122 642.145H304.39C311.032 658.402 327.042 669.923 345.756 669.923Z" fill="black"/>
<path d="M629.514 299.108C610.799 299.108 594.791 310.628 588.149 326.887H670.881C664.239 310.628 648.229 299.108 629.514 299.108Z" fill="black"/>
<path d="M629.514 387.915C648.228 387.915 664.239 376.394 670.881 360.137H588.149C594.791 376.394 610.8 387.915 629.514 387.915Z" fill="black"/>
<path d="M487.627 528.919C506.353 528.919 522.366 517.398 529.009 501.141H446.261C452.903 517.398 468.913 528.919 487.627 528.919Z" fill="black"/>
<path d="M487.627 440.112C468.912 440.112 452.903 451.632 446.261 467.891H529.009C522.366 451.632 506.354 440.112 487.627 440.112Z" fill="black"/>
<path d="M282.221 781.54C292.928 792.181 307.147 798 322.371 798C322.371 798 322.371 798 322.538 798C337.594 798 351.981 792.014 362.688 781.375L786.438 360.264C808.521 338.318 808.521 302.408 786.438 280.464L520.946 16.4588C498.696 -5.48628 462.728 -5.48628 440.479 16.4588L16.7292 437.569C6.02225 448.376 0 462.507 0 477.636C0 492.764 6.02225 506.896 16.7292 517.535L282.221 781.54ZM345.756 703.173C302.675 703.173 267.616 668.332 267.616 625.52C267.616 582.707 302.675 547.866 345.756 547.866C388.837 547.866 423.896 582.707 423.896 625.52C423.896 668.332 388.837 703.173 345.756 703.173ZM487.627 562.169C444.546 562.169 409.487 527.328 409.487 484.516C409.487 441.703 444.546 406.862 487.627 406.862C530.724 406.862 565.783 441.703 565.783 484.516C565.783 527.328 530.724 562.169 487.627 562.169ZM707.655 343.512C707.655 386.324 672.595 421.165 629.514 421.165C586.434 421.165 551.374 386.324 551.374 343.512C551.374 300.699 586.434 265.858 629.514 265.858C672.595 265.858 707.655 300.699 707.655 343.512ZM603.473 198.287C610.008 204.781 610.008 215.301 603.473 221.795L223.277 599.624C220.009 602.871 215.729 604.495 211.449 604.495C207.168 604.495 202.888 602.871 199.621 599.624C193.086 593.13 193.086 582.61 199.621 576.116L579.817 198.287C586.352 191.792 596.938 191.792 603.473 198.287ZM457.338 94.7538C500.419 94.7538 535.478 129.595 535.478 172.407C535.478 215.22 500.419 250.061 457.338 250.061C414.257 250.061 379.198 215.22 379.198 172.407C379.198 129.595 414.257 94.7538 457.338 94.7538ZM315.451 235.758C358.531 235.758 393.591 270.599 393.591 313.411C393.591 356.224 358.531 391.065 315.451 391.065C272.37 391.065 237.31 356.224 237.31 313.411C237.31 270.599 272.37 235.758 315.451 235.758ZM173.563 376.746C216.66 376.746 251.72 411.587 251.72 454.399C251.72 497.212 216.66 532.053 173.563 532.053C130.482 532.053 95.4228 497.212 95.4228 454.399C95.4228 411.587 130.482 376.746 173.563 376.746Z" fill="black"/>
</svg>
