<svg width="803" height="810" viewBox="0 0 803 810" fill="none" xmlns="http://www.w3.org/2000/svg">
<path fill-rule="evenodd" clip-rule="evenodd" d="M661.076 428.255L599.34 490.532C584.305 505.698 563.88 514.247 542.569 514.247C521.257 514.247 500.832 505.698 485.762 490.532C470.691 475.329 462.252 454.725 462.252 433.227C462.252 411.764 470.692 391.125 485.762 375.958L547.462 313.717L661.043 428.257L661.076 428.255ZM562.319 298.725L624.019 236.483C639.054 221.28 659.515 212.768 680.791 212.768C702.103 212.768 722.527 221.281 737.597 236.483C752.632 251.65 761.107 272.29 761.107 293.752C761.107 315.251 752.632 335.819 737.597 351.021L675.862 413.298L562.319 298.725ZM338.035 200.531L276.335 138.289C261.264 123.123 252.825 102.482 252.825 81.0203C252.825 59.5217 261.265 38.9177 276.335 23.7156C291.369 8.54927 311.83 0 333.106 0C354.418 0 374.807 8.54918 389.877 23.7156L451.613 85.9927L338.035 200.531ZM466.404 100.945L528.139 163.222C543.21 178.388 551.685 198.992 551.685 220.491C551.685 241.989 543.21 262.593 528.139 277.795C513.105 292.998 492.68 301.511 471.368 301.511C450.056 301.511 429.631 292.998 414.597 277.795L352.896 215.554L466.441 100.978L466.404 100.945ZM94.2524 394.519C115.457 394.519 132.656 411.868 132.656 433.259V743.216C132.656 764.607 115.458 781.956 94.2524 781.956H38.4034C17.1987 781.956 0 764.608 0 743.216V433.259C0 411.869 17.1978 394.519 38.4034 394.519H94.2524ZM153.613 436.8H267.974C284.534 436.8 300.775 441.2 315.1 449.535L491.163 552.051C512.864 564.714 520.311 592.722 507.793 614.614C501.765 625.13 491.837 632.785 480.241 635.933C468.61 639.081 456.235 637.435 445.773 631.354L333.436 565.894C328.401 562.961 322.018 564.713 319.111 569.757C316.203 574.801 317.941 581.275 322.941 584.208L435.278 649.669C450.525 658.54 468.61 660.937 485.631 656.322C502.616 651.743 517.12 640.511 525.913 625.13C527.261 622.734 528.467 620.301 529.53 617.833L713.99 510.418C742.358 493.891 778.669 503.693 795.052 532.309C802.924 546.045 805.052 562.428 800.973 577.738C796.895 593.083 786.931 606.14 773.314 614.081L482.509 783.492C427.369 815.578 360.241 818.726 302.443 791.898L204.321 746.397C194.712 741.925 184.251 739.636 173.684 739.636H153.614V436.73L153.613 436.8Z" fill="black"/>
</svg>
