<svg width="744" height="823" viewBox="0 0 744 823" fill="none" xmlns="http://www.w3.org/2000/svg">
<path d="M174.555 0C78.5701 0 0 70.1108 0 156.283V663.986C0 750.15 78.5701 820.253 174.555 820.253C270.494 820.261 349.037 750.159 349.037 663.995V156.283C349.037 70.1108 270.494 0 174.555 0ZM169.953 25.6801C250.14 25.6801 312.296 84.2667 312.296 156.283V397.303C266.37 387.816 146.963 369.049 27.5556 399.283V156.283C27.5556 84.2667 89.7484 25.6801 169.953 25.6801Z" fill="black"/>
<path d="M569.445 823C665.43 823 744 752.897 744 666.717V159.014C744 72.8413 665.43 2.73877 569.445 2.73877C473.505 2.73877 394.963 72.8413 394.963 159.014V666.717C394.963 752.897 473.505 823 569.445 823ZM574.046 797.328C493.86 797.328 431.704 738.733 431.704 666.717V425.697C477.63 435.184 597.037 453.959 716.444 423.725V666.717C716.444 738.733 654.252 797.328 574.046 797.328Z" fill="black"/>
</svg>
