<svg width="832" height="534" viewBox="0 0 832 534" fill="none" xmlns="http://www.w3.org/2000/svg">
<path d="M449.085 382.295H468.897V394.432C468.897 404.47 477.785 412.636 488.71 412.636H548.147C559.072 412.636 567.96 404.47 567.96 394.432V382.295H592.963C596.828 381.595 599.411 379.771 599.551 375.81L589.075 236.242C588.836 233.061 585.958 230.591 582.487 230.591H449.085C445.437 230.591 442.48 233.308 442.48 236.659V376.227C442.48 379.578 445.437 382.295 449.085 382.295Z" fill="black"/>
<path d="M831.941 379.806L809.166 228.104C807.822 219.143 799.384 212.386 789.538 212.386H641.547C636.077 212.386 630.797 214.495 627.064 218.171C625.42 219.79 624.15 221.671 623.25 223.688H606.958C603.971 217.047 596.848 212.388 588.652 212.388H442.48C433.873 212.388 426.553 217.465 423.824 224.524H384.831C387.119 220.903 391.375 218.456 396.251 218.456H402.855C413.78 218.456 422.668 210.29 422.668 200.252V48.5455C422.668 38.5072 413.78 30.3409 402.855 30.3409H395.701C392.548 13.1437 376.225 0 356.626 0H290.584C270.985 0 254.662 13.1437 251.509 30.3409H244.355C239.278 30.3409 234.657 32.1189 231.146 35.0149C227.636 32.1189 223.015 30.3409 217.938 30.3409H210.784C207.631 13.1437 191.308 0 171.709 0H105.667C86.0674 0 69.7451 13.1437 66.5916 30.3409H59.4377C48.5127 30.3409 39.6251 38.5072 39.6251 48.5455V200.25C39.6251 210.288 48.5127 218.455 59.4377 218.455H66.0418C70.9174 218.455 75.1754 220.902 77.4621 224.523H50.03C38.6609 224.523 28.7909 231.958 26.5604 242.202L0.470548 362.058L0 515.12C0 525.53 9.21779 534 20.5473 534H811.451C822.782 534 832 525.53 832 515.12L831.941 379.806ZM435.876 230.591C435.876 227.244 438.838 224.523 442.48 224.523H588.652C592.11 224.523 595.002 227.005 595.24 230.174L606.626 381.878C606.753 383.574 606.127 385.195 604.866 386.437C603.604 387.679 601.89 388.364 600.04 388.364H581.168C577.521 388.364 574.564 391.081 574.564 394.432C574.564 407.815 562.713 418.705 548.147 418.705H488.71C474.144 418.705 462.293 407.815 462.293 394.432C462.293 391.081 459.336 388.364 455.689 388.364H442.48C438.838 388.364 435.876 385.642 435.876 382.295V230.591ZM237.751 48.5455C237.751 45.1989 240.713 42.4773 244.355 42.4773H257.563C261.21 42.4773 264.167 39.7602 264.167 36.4091C264.167 23.0257 276.019 12.1364 290.584 12.1364H356.626C371.191 12.1364 383.043 23.0257 383.043 36.4091C383.043 39.7602 386 42.4773 389.647 42.4773H402.855C406.497 42.4773 409.459 45.1989 409.459 48.5455V200.25C409.459 203.597 406.497 206.318 402.855 206.318H396.251C383.969 206.318 373.648 214.072 370.704 224.523H276.507C273.563 214.072 263.243 206.318 250.961 206.318H244.356C240.714 206.318 237.752 203.597 237.752 200.25V48.5455H237.751ZM244.355 218.455H250.959C255.835 218.455 260.093 220.902 262.379 224.523H199.912C202.2 220.902 206.457 218.455 211.332 218.455H217.936C223.013 218.455 227.635 216.677 231.145 213.781C234.657 216.677 239.278 218.455 244.355 218.455ZM66.0418 206.318H59.4377C55.7954 206.318 52.8335 203.597 52.8335 200.25V48.5455C52.8335 45.1989 55.7954 42.4773 59.4377 42.4773H72.646C76.2932 42.4773 79.2502 39.7602 79.2502 36.4091C79.2502 23.0257 91.1014 12.1364 105.667 12.1364H171.709C186.274 12.1364 198.126 23.0257 198.126 36.4091C198.126 39.7602 201.083 42.4773 204.73 42.4773H217.938C221.58 42.4773 224.542 45.1989 224.542 48.5455V200.25C224.542 203.597 221.58 206.318 217.938 206.318H211.334C199.052 206.318 188.731 214.072 185.787 224.523H91.5885C88.6447 214.072 78.324 206.318 66.0418 206.318ZM13.4214 364.438L39.5112 244.583C40.5101 239.992 44.9349 236.659 50.03 236.659H422.668V242.727H52.0641C48.9172 242.727 46.2045 244.769 45.5887 247.606L20.4928 362.902C20.1048 364.684 20.6051 366.533 21.8598 367.938C23.1146 369.343 24.9902 370.159 26.9682 370.159H422.668V376.227H23.9418C20.7157 376.227 17.691 374.912 15.647 372.62C13.5997 370.326 12.789 367.345 13.4214 364.438ZM422.668 254.864V358.023H409.459V254.864H422.668ZM396.251 315.008V358.023H370.491C371.337 354.928 371.776 351.824 371.787 348.773H371.819V315.007C371.819 314.386 372.367 313.881 373.042 313.881H395.024C395.701 313.881 396.251 314.386 396.251 315.008ZM356.712 358.023H303.792V342.666C306.018 339.847 308.688 337.291 311.805 335.091C318.977 330.029 327.442 327.435 335.633 327.705C343.373 327.988 349.928 330.881 354.087 335.854C359.002 341.734 359.91 349.982 356.712 358.023ZM270.772 339.818C257.986 339.818 250.959 335.261 250.959 333.75V303.409C250.959 293.371 259.847 285.205 270.772 285.205C281.697 285.205 290.584 293.371 290.584 303.409V333.75C290.584 335.261 283.557 339.818 270.772 339.818ZM290.584 348.487V358.023H250.959V348.487C256.409 350.673 263.205 351.955 270.772 351.955C278.338 351.955 285.134 350.674 290.584 348.487ZM223.811 254.864L211.993 358.023H198.855L210.673 254.864H223.811ZM112.271 342.33L129.35 358.023H95.1927L112.271 342.33ZM76.5161 358.023H60.8889L64.8514 339.818H96.327L76.5161 358.023ZM111.939 324.865C107.896 321.148 105.667 316.207 105.667 310.95C105.667 300.099 115.273 291.273 127.083 291.273C132.804 291.273 138.181 293.321 142.226 297.036L161.831 315.049C145.995 316.767 133.413 328.328 131.544 342.878L111.939 324.865ZM165.905 326.946C171.626 326.946 177.004 328.994 181.049 332.709L187.768 338.884L185.576 358.023H148.475C145.901 354.706 144.491 350.747 144.491 346.622C144.491 335.772 154.097 326.946 165.905 326.946ZM52.8335 276.204V333.154L47.4197 358.023H35.0236L52.8335 276.204ZM20.5473 521.864C16.5006 521.864 13.2084 518.839 13.2084 515.12V386.012L26.4167 388.364V503.659C26.4167 510.493 28.9181 516.786 33.0837 521.864H20.5473ZM191.459 521.864C195.624 516.786 198.126 510.493 198.126 503.659V388.364H211.334V503.659C211.334 510.493 213.835 516.786 218.001 521.864H191.459ZM402.792 521.864C406.958 516.786 409.459 510.493 409.459 503.659V388.364H422.668V503.659C422.668 510.493 425.169 516.786 429.335 521.864H402.792ZM622.083 235.823L632.62 376.227H619.441L608.902 235.823H622.083ZM614.126 521.864C618.292 516.786 620.793 510.493 620.793 503.659V388.364H634.002V503.659C634.002 510.493 636.503 516.786 640.669 521.864H614.126ZM818.793 515.12C818.793 518.839 815.501 521.864 811.453 521.864H799.045C803.211 516.786 805.712 510.493 805.712 503.659V400.5L818.795 399.488L818.793 515.12ZM817.293 386.282C816.02 387.625 814.25 388.364 812.311 388.364H794.447C790.8 388.364 787.843 391.081 787.843 394.432C787.843 407.815 775.992 418.705 761.426 418.705H700.043C685.478 418.705 673.627 407.815 673.627 394.432C673.627 391.081 670.67 388.364 667.023 388.364H652.934C649.477 388.364 646.584 385.882 646.346 382.713L634.961 231.008C634.834 229.312 635.459 227.692 636.721 226.449C637.982 225.207 639.696 224.523 641.547 224.523H789.538C792.819 224.523 795.631 226.774 796.08 229.763L818.793 383.315C818.595 384.398 818.11 385.421 817.293 386.282Z" fill="black"/>
<path d="M783.783 230.591H648.625C646.796 230.591 645.046 231.289 643.797 232.519C642.548 233.749 641.91 235.398 642.037 237.078L652.513 376.646C652.753 379.827 655.63 382.297 659.101 382.297H680.231V394.433C680.231 404.472 689.119 412.638 700.044 412.638H761.426C772.351 412.638 781.239 404.472 781.239 394.433V382.297H804.735C806.643 382.297 808.459 381.538 809.714 380.216C810.969 378.894 811.537 377.137 811.278 375.399L790.326 235.831C789.874 232.829 787.082 230.591 783.783 230.591Z" fill="black"/>
<path d="M217.938 194.182V54.6136C217.938 51.2625 214.981 48.5455 211.334 48.5455H191.521V36.4091C191.521 26.3708 182.634 18.2045 171.709 18.2045H105.667C94.742 18.2045 85.8544 26.3708 85.8544 36.4091V48.5455H66.0418C62.3947 48.5455 59.4377 51.2625 59.4377 54.6136V194.182C59.4377 197.533 62.3947 200.25 66.0418 200.25H211.334C214.981 200.25 217.938 197.533 217.938 194.182ZM92.4586 60.6818C96.1057 60.6818 99.0628 57.9648 99.0628 54.6136V36.4091C99.0628 33.0625 102.025 30.3409 105.667 30.3409H171.709C175.351 30.3409 178.313 33.0625 178.313 36.4091V54.6136C178.313 57.9648 181.27 60.6818 184.917 60.6818H191.52L182.715 66.75H94.6611L85.856 60.6818H92.4586ZM204.73 188.114H72.646V66.75L85.8544 75.8523V169.909C85.8544 173.26 88.8114 175.977 92.4586 175.977H184.917C188.564 175.977 191.521 173.26 191.521 169.909V75.8523L204.73 66.75V188.114Z" fill="black"/>
<path d="M250.959 200.25H396.251C399.898 200.25 402.855 197.533 402.855 194.182V54.6136C402.855 51.2625 399.898 48.5455 396.251 48.5455H376.438V36.4091C376.438 26.3708 367.551 18.2045 356.626 18.2045H290.584C279.659 18.2045 270.772 26.3708 270.772 36.4091V48.5455H250.959C247.312 48.5455 244.355 51.2625 244.355 54.6136V194.182C244.355 197.533 247.312 200.25 250.959 200.25ZM277.376 60.6818C281.023 60.6818 283.98 57.9648 283.98 54.6136V36.4091C283.98 33.0625 286.942 30.3409 290.584 30.3409H356.626C360.268 30.3409 363.23 33.0625 363.23 36.4091V54.6136C363.23 57.9648 366.187 60.6818 369.834 60.6818H376.437L367.632 66.75H279.578L270.773 60.6818H277.376ZM257.563 66.75L270.772 75.8523V169.909C270.772 173.26 273.729 175.977 277.376 175.977H369.834C373.481 175.977 376.438 173.26 376.438 169.909V75.8523L389.647 66.75V188.114H257.563V66.75Z" fill="black"/>
</svg>
