<svg width="813" height="813" viewBox="0 0 813 813" fill="none" xmlns="http://www.w3.org/2000/svg">
<path d="M664.647 148.295C671.057 154.707 671.057 165.148 664.647 171.559C658.236 177.971 647.798 177.971 641.388 171.559C611.554 141.719 562.981 141.719 533.147 171.559L500.272 204.441C497.067 207.564 492.875 209.208 488.683 209.208C484.491 209.208 480.3 207.564 477.095 204.358C470.684 197.946 470.684 187.506 477.095 181.095L509.97 148.213C552.625 105.549 621.988 105.549 664.647 148.295ZM813 225.65C813 285.906 789.494 342.625 746.839 385.208L385.213 746.908C342.639 789.572 285.93 813 225.687 813C165.444 813 108.736 789.489 66.1615 746.908C23.5059 704.244 0 647.605 0 587.35C0 527.095 23.5059 470.375 66.1615 427.792L427.787 66.0919C470.361 23.4276 527.07 0 587.313 0C647.556 0 704.264 23.5107 746.839 66.0919C789.494 108.674 813 165.395 813 225.65ZM780.125 225.65C780.125 174.19 760.072 125.772 723.662 89.2722C687.253 52.856 638.844 32.7976 587.312 32.7976C535.779 32.7976 487.372 52.855 450.962 89.2722L281.821 258.532L554.437 531.204L723.662 361.944C760.071 325.528 780.125 277.109 780.125 225.65Z" fill="black"/>
</svg>
