<svg width="559" height="837" viewBox="0 0 559 837" fill="none" xmlns="http://www.w3.org/2000/svg">
<path d="M284.386 541.443C289.293 538.108 294.237 534.74 299.254 531.34C328.401 511.756 355.039 490.864 378.69 469.22C344.709 450.485 313.828 430.541 286.71 409.878L286.673 409.911C262.581 429.103 236.349 447.118 208.64 463.433C203.254 466.604 197.941 469.808 192.775 473.045C219.487 496.716 249.889 519.505 283.352 540.855C283.684 541.083 284.016 541.28 284.348 541.508L284.386 541.443Z" fill="black"/>
<path d="M229.736 188.918C242.65 207.031 253.165 228.152 261.244 252.183C271.427 251.921 277.847 252.248 278.991 252.313C282.016 252.379 285.152 252.477 288.362 252.64H288.399C288.657 252.673 288.879 252.673 289.137 252.673H289.174C289.727 252.706 290.244 252.739 290.834 252.739C290.982 252.739 291.129 252.739 291.24 252.771C291.35 252.771 291.461 252.804 291.572 252.804H291.609C297.327 253.098 303.305 253.491 309.503 254.014C318.653 231.585 329.573 212.654 341.601 196.699V196.666C343.999 158.184 341.195 125.783 335.882 98.8716C334.849 93.7712 333.742 88.8344 332.598 84.1263C320.939 37.7317 302.123 10.6282 293.49 0C263.42 31.6158 247.039 67.8099 238.369 101.293V101.326C236.672 107.799 235.27 114.175 234.163 120.419C229.145 147.752 228.888 172.112 229.736 188.918Z" fill="black"/>
<path d="M478.559 536.831C453.433 515.416 423.733 494.883 390.121 475.659C365.549 498.381 337.73 520.254 307.255 540.721C303.307 543.37 299.433 546.018 295.559 548.634C333.746 573.253 365.881 595.257 393.477 615.659C425.207 590.909 453.763 564.425 478.52 536.798L478.559 536.831Z" fill="black"/>
<path d="M355.63 179.895C367.99 166.555 381.161 155.799 394.555 147.134C404.737 101.36 456.834 51.2061 481.148 29.9213C415.696 33.2235 368.326 68.5018 347.291 87.5953C353.01 113 356.589 143.635 355.666 179.924L355.63 179.895Z" fill="black"/>
<path d="M93.6695 547.62C121.008 575.673 148.975 600.619 176.978 621.969C205.093 598.526 237.486 574.005 273.498 548.96C239.703 527.25 208.932 504.07 181.888 479.973H181.851C149.974 500.604 120.381 523.295 93.6695 547.62Z" fill="black"/>
<path d="M264.938 263.921C261.101 263.986 256.526 264.15 251.324 264.444C234.02 265.392 209.965 268.04 183.843 274.612C186.979 282.001 194.174 296.55 208.379 315.71C228.671 301.323 245.975 287.984 259.995 276.606H260.031C262.319 274.71 264.533 272.912 266.673 271.146V271.113C269.735 268.596 272.576 266.209 275.269 263.92C273.867 263.888 272.022 263.855 269.772 263.855C268.333 263.855 266.746 263.888 265.012 263.888L264.938 263.921Z" fill="black"/>
<path d="M98.6566 696.446C117.326 675.456 140.348 653.19 167.355 630.107C139.499 608.757 111.68 583.942 84.4889 556.151L84.452 556.184C55.9324 583.256 35.8247 607.581 23.1692 624.55C40.9893 642.565 67.3696 668.394 98.6566 696.446Z" fill="black"/>
<path d="M215.908 325.457C234.651 348.769 258.375 371.819 286.526 394.116C314.197 371.229 338.954 346.643 360.279 320.912C332.054 299.856 307.335 280.959 290.068 267.619C273.576 281.939 248.524 302.406 215.908 325.457Z" fill="black"/>
<path d="M272.617 702.757C251.882 687.75 230.852 673.429 209.969 660.089C199.307 653.289 188.423 645.769 177.502 637.758C150.052 661.136 126.771 683.663 108.102 704.816C137.507 730.809 166.211 754.218 193.588 774.587C216.831 750.163 243.359 726.067 272.654 702.756L272.617 702.757Z" fill="black"/>
<path d="M23.6811 467.151C43.0512 492.098 63.6756 516.096 85.0377 538.59C111.602 514.527 141.008 491.967 172.516 471.435L172.553 471.402C146.948 447.567 124.773 422.719 106.437 397.348C106.4 397.348 106.4 397.38 106.363 397.38C78.5441 417.586 50.7621 440.995 23.6442 467.119L23.6811 467.151Z" fill="black"/>
<path d="M201.335 453.584C228.046 437.857 253.393 420.529 276.675 402.057C248.413 379.595 224.505 356.317 205.467 332.71C187.056 345.428 168.019 357.689 148.796 369.263C138.354 375.541 127.655 382.472 116.882 389.96C135.182 415.495 157.504 440.506 183.404 464.471C189.196 460.809 195.247 457.18 201.335 453.584Z" fill="black"/>
<path d="M343.522 651.491C357.173 642.533 370.492 633.116 383.331 623.471C355.586 603.004 323.155 580.902 284.639 556.151C248.26 581.392 215.498 606.044 187.165 629.617C197.422 637.137 207.679 644.166 217.714 650.574C239.372 664.404 261.214 679.281 282.686 694.877C301.798 680.099 322.238 665.516 343.563 651.523L343.522 651.491Z" fill="black"/>
<path d="M482.875 330.453C461.66 311.948 437.31 298.478 412.184 288.702C408.9 287.394 405.617 286.184 402.333 285.072C400.672 287.655 398.975 290.271 397.204 292.887V292.919C391.449 301.485 385.065 310.182 378.203 318.912C406.318 339.739 433.14 359.127 458.192 376.684C470.368 357.688 478.153 341.7 482.912 330.519L482.875 330.453Z" fill="black"/>
<path d="M535.862 404.77C525.237 378.679 510.442 357.329 492.99 339.903C487.825 351.412 480.04 366.517 468.713 384.009C497.306 403.887 523.317 421.183 546.229 435.569C543.315 424.911 539.883 414.612 535.898 404.77H535.862Z" fill="black"/>
<path d="M406.766 153.513V153.546C401.97 156.423 397.284 159.529 392.783 162.864C378.578 173.294 365.886 185.751 354.67 200.201C349.763 206.511 345.151 213.181 340.835 220.276V220.308C334.193 231.131 328.29 242.835 323.051 255.39C347.475 258.202 374.262 263.237 400.863 271.902C400.9 271.902 400.9 271.902 400.937 271.934C401.453 272.032 401.97 272.196 402.45 272.425C402.523 272.457 402.597 272.457 402.634 272.49C403.151 272.654 403.667 272.817 404.184 273.013C409.164 260.949 417.318 244.634 429.974 226.488C451.483 195.754 490.297 154.493 555.934 125.53C536.527 123.143 504.982 121.508 470.633 128.799C447.057 133.802 425.767 142.069 406.766 153.513Z" fill="black"/>
<path d="M551.39 457.577C540.764 477.128 523.461 504.265 496.269 535.784C517.779 555.074 535.784 574.953 549.878 595.093C552.092 592.542 554.342 589.927 556.63 587.246V587.213C560.836 544.056 559.655 498.899 551.39 457.577Z" fill="black"/>
<path d="M383.777 775.534C396.174 786.389 408.201 797.341 419.676 808.163H419.713C458.932 792.339 489.961 771.349 506.047 748.854C506.49 748.2 507.006 747.547 507.449 746.86C498.889 730.938 486.825 714.852 470.775 697.948C441.112 727.014 411.891 753.071 383.814 775.533L383.777 775.534Z" fill="black"/>
<path d="M373.85 783.385C347.065 804.212 321.127 821.834 296.481 836.024C335.7 833.278 373.629 825.006 406.687 813.137C396.135 803.231 385.141 793.291 373.85 783.417V783.385Z" fill="black"/>
<path d="M479.702 689.122C494.607 704.685 506.303 719.627 515.194 734.438C531.65 705.601 544.526 666.04 551.905 622.49C550.724 620.398 549.544 618.272 548.289 616.18C525.931 641.518 502.908 666.007 479.665 689.156L479.702 689.122Z" fill="black"/>
<path d="M14.1226 615.333C27.2939 597.939 47.5867 573.778 75.737 547.196L75.7739 547.164C54.4855 524.767 33.9348 500.933 14.5279 476.15C11.6501 478.962 8.84609 481.806 6.07895 484.618V484.65C-0.525275 524.08 -1.85344 564.655 2.6108 603.428C6.44788 607.45 10.2851 611.409 14.1226 615.333Z" fill="black"/>
<path d="M171.11 278.116C167.716 279.13 164.358 280.176 161.075 281.288C156.869 282.694 152.7 284.198 148.641 285.767C122.003 296.033 99.2016 309.569 80.2745 326.309C87.7642 343.867 97.6894 361.881 109.864 379.962C120.49 372.606 131.042 365.773 141.335 359.593C160.52 348.019 179.559 335.758 197.933 323.04C182.215 302.017 174.504 286.193 171.147 278.149L171.11 278.116Z" fill="black"/>
<path d="M307.734 265.687C310.538 267.812 313.453 270.068 316.478 272.422C331.126 283.603 348.725 296.943 367.947 311.329C375.953 301.095 383.258 290.927 389.678 280.955C365.254 273.533 340.829 269.185 318.545 266.733C314.855 266.341 311.276 265.981 307.734 265.687Z" fill="black"/>
<path d="M135.219 225.996C145.587 242.867 152.522 258.267 157.097 270.069C161.857 268.467 166.506 267.061 171.044 265.754C171.745 265.557 172.409 265.361 173.11 265.198C173.295 265.132 173.479 265.067 173.664 265.034C202.11 257.22 228.379 254.016 247.601 252.774C243.063 239.631 237.713 227.468 231.626 216.253C227.087 207.785 222.033 199.873 216.61 192.517C203.29 174.436 187.388 159.724 169.015 148.412V148.379C164.772 145.763 160.381 143.311 155.843 141.055C154.737 140.499 153.667 139.976 152.56 139.453C103.379 116.273 50.8074 120.196 24.6066 124.413C81.9414 153.152 116.217 194.806 135.294 225.932L135.219 225.996Z" fill="black"/>
<path d="M282.978 710.34C253.573 733.619 227.008 757.716 203.802 782.106C230.587 801.494 256.23 818.005 280.174 831.279C306.702 816.795 335 797.93 364.369 775.174C338.211 752.68 310.871 730.905 282.978 710.34Z" fill="black"/>
<path d="M370.421 328.428C348.986 354.257 324.192 378.909 296.558 401.828C323.048 421.935 353.192 441.324 386.36 459.567C386.913 459.862 387.43 460.156 387.983 460.483C412.777 436.714 434.065 411.996 451.332 386.853C426.059 369.1 398.867 349.484 370.421 328.428Z" fill="black"/>
<path d="M541.208 605.063C527.52 584.759 509.663 564.652 488.006 545.132C463.396 572.498 435.098 598.752 403.737 623.34C430.929 643.937 452.992 662.639 470.85 680.197C494.647 656.394 518.296 631.186 541.171 605.063H541.208Z" fill="black"/>
<path d="M542.134 447.44C518.521 432.695 491.587 414.843 461.85 394.245C461.85 394.245 461.813 394.245 461.813 394.212C444.62 419.061 423.663 443.451 399.35 466.926C432.408 485.954 461.74 506.291 486.754 527.51C515.126 494.39 532.283 466.468 542.134 447.44Z" fill="black"/>
<path d="M163.885 131.667C183.698 141.77 201.112 155.142 215.943 171.686C215.98 161.125 216.571 149.028 218.194 135.917C219.448 125.684 221.404 114.339 224.355 102.307C206.166 67.0948 176.835 42.5407 136.951 29.2007C120.053 23.5444 104.262 21.0596 92.6034 19.9804C132.524 52.2507 154.181 102.928 163.848 131.635L163.885 131.667Z" fill="black"/>
<path d="M16.0117 457.183C43.3138 431.027 71.3176 407.584 99.3942 387.346C87.6615 370.05 77.8849 352.787 70.2107 335.819C52.6116 353.833 38.9605 375.085 29.4417 399.444C22.7268 416.576 17.1187 434.427 12.6917 452.737C12.6917 452.737 12.6548 452.737 12.6917 452.769C13.7986 454.241 14.8685 455.679 16.0123 457.216L16.0117 457.183Z" fill="black"/>
<path d="M15.7472 634.852C13.5704 637.925 11.5412 640.966 9.58577 643.94C18.8464 683.796 34.9327 720.512 58.5087 750.557V750.59C66.6625 736.433 77.399 721.458 90.4966 705.896C59.8736 678.498 33.8626 653.126 15.71 634.882L15.7472 634.852Z" fill="black"/>
<path d="M168.314 822.941C199.601 832.455 232.696 836.771 265.571 837H265.608C243.36 824.249 219.784 808.849 195.323 791.128C185.435 801.918 176.395 812.576 168.314 822.941Z" fill="black"/>
<path d="M99.9789 714.266C86.2173 730.777 75.2959 746.503 67.4376 761.151C84.1507 779.82 104.148 795.416 127.613 806.957C136.653 811.403 145.95 815.294 155.506 818.694C164.25 807.283 174.175 795.513 185.059 783.612C157.794 763.341 129.199 740.03 99.9789 714.266Z" fill="black"/>
<path d="M5.64092 624.648C5.75161 625.269 5.8623 625.857 5.97297 626.479C6.15746 626.184 6.37882 625.89 6.60019 625.629C6.26813 625.302 5.97294 624.975 5.64092 624.648Z" fill="black"/>
<path d="M461.992 688.988C444.061 671.202 421.592 652.207 393.662 631.118C380.085 641.384 365.954 651.389 351.454 660.903C331.013 674.341 311.422 688.269 293.049 702.425C320.904 723.023 348.17 744.798 374.292 767.293C402.591 744.7 432.07 718.415 461.992 688.988Z" fill="black"/>
</svg>
