<svg width="808" height="725" viewBox="0 0 808 725" fill="none" xmlns="http://www.w3.org/2000/svg">
<path d="M249.529 198.79C249.529 237.539 281.449 268.952 320.824 268.952H332.706V280.645C332.706 319.394 364.625 350.806 404 350.806C443.375 350.806 475.294 319.394 475.294 280.645V268.952H487.177C526.551 268.952 558.471 237.539 558.471 198.79V187.097H760.471C786.72 187.097 808 208.038 808 233.871V678.226C808 704.058 786.72 725 760.471 725H47.5294C21.2796 725 0 704.058 0 678.226V233.871C0 208.038 21.2796 187.097 47.5294 187.097H249.529V198.79ZM213.882 456.048H594.118C607.243 456.048 617.882 445.578 617.882 432.661C617.882 419.745 607.243 409.274 594.118 409.274H213.882C200.757 409.274 190.118 419.745 190.118 432.661C190.118 445.578 200.757 456.048 213.882 456.048ZM213.882 572.984H594.118C607.243 572.984 617.882 562.513 617.882 549.597C617.882 536.68 607.243 526.21 594.118 526.21H213.882C200.757 526.21 190.118 536.68 190.118 549.597C190.118 562.513 200.757 572.984 213.882 572.984ZM380.235 222.177H320.824C307.699 222.177 297.059 211.707 297.059 198.79V163.71C297.059 154.851 302.145 146.753 310.196 142.791L344.588 125.868V96.309L310.196 79.3861C302.145 75.4245 297.059 67.3261 297.059 58.4677V46.7742C297.059 20.9415 318.338 0 344.588 0H463.412C489.662 0 510.941 20.9415 510.941 46.7742V58.4677C510.941 67.3261 505.855 75.4245 497.804 79.3861L463.412 96.309V125.868L497.804 142.791C505.855 146.753 510.941 154.851 510.941 163.71V198.79C510.941 211.707 500.301 222.177 487.177 222.177H427.765V280.645C427.765 293.562 417.125 304.032 404 304.032C390.875 304.032 380.235 293.562 380.235 280.645V222.177Z" fill="black"/>
</svg>
