<svg width="575" height="648" viewBox="0 0 575 648" fill="none" xmlns="http://www.w3.org/2000/svg">
<path d="M250.322 123.872C283.869 123.872 311.115 96.1587 311.115 61.9073C311.087 27.7136 283.898 0 250.322 0C216.776 0 189.53 27.7136 189.53 61.965C189.558 96.1587 216.747 123.872 250.322 123.872Z" fill="black"/>
<path d="M500.616 529.942V104.203C500.616 80.8866 482.054 61.9384 459.151 61.9384H330.382C330.382 106.951 294.452 143.571 250.293 143.571C206.135 143.571 170.204 106.948 170.204 61.9384H41.4649C18.5898 61.9384 0 80.8577 0 104.203V529.972C0 553.288 18.5615 572.236 41.4649 572.236H459.18C482.055 572.178 500.616 553.287 500.616 529.942ZM89.5706 226.538H105.549C110.885 226.538 115.199 230.935 115.199 236.373C115.199 241.811 110.885 246.209 105.549 246.209H89.5706C84.2349 246.209 79.9211 241.811 79.9211 236.373C79.9211 230.935 84.2351 226.538 89.5706 226.538ZM89.5706 311.874H316.679C322.015 311.874 326.329 316.271 326.329 321.709C326.329 327.147 322.015 331.545 316.679 331.545H89.5706C84.2349 331.545 79.9211 327.147 79.9211 321.709C79.9211 316.271 84.2351 311.874 89.5706 311.874ZM151.953 416.827H89.5706C84.2349 416.827 79.9211 412.43 79.9211 406.992C79.9211 401.553 84.2351 397.156 89.5706 397.156H151.953C157.288 397.156 161.602 401.553 161.602 406.992C161.602 412.43 157.288 416.827 151.953 416.827ZM397.705 416.827H210.048C204.713 416.827 200.399 412.43 200.399 406.992C200.399 401.553 204.713 397.156 210.048 397.156H397.705C403.041 397.156 407.354 401.553 407.354 406.992C407.354 412.43 403.04 416.827 397.705 416.827ZM397.705 331.513H374.262C368.926 331.513 364.612 327.116 364.612 321.678C364.612 316.24 368.926 311.842 374.262 311.842H397.705C403.041 311.842 407.354 316.24 407.354 321.678C407.354 327.116 403.04 331.513 397.705 331.513ZM397.705 246.2H164.355C159.019 246.2 154.705 241.803 154.705 236.364C154.705 230.926 159.019 226.529 164.355 226.529H397.705C403.041 226.529 407.354 230.926 407.354 236.364C407.354 241.803 403.04 246.2 397.705 246.2Z" fill="black"/>
<path d="M533.537 137.758H519.913V529.972C519.913 564.136 492.667 591.908 459.149 591.908L74.3833 591.879V605.765C74.3833 629.081 92.9448 648 115.82 648H533.535C556.41 648 575 629.081 575 605.736V179.996C575 156.68 556.412 137.758 533.537 137.758Z" fill="black"/>
</svg>
