<svg width="820" height="793" viewBox="0 0 820 793" fill="none" xmlns="http://www.w3.org/2000/svg">
<path fill-rule="evenodd" clip-rule="evenodd" d="M820 79.3C820 58.2696 812.013 38.0957 797.769 23.219C783.525 8.34231 764.21 0 744.074 0C596.99 0 223.01 0 75.9259 0C55.7904 0 36.4748 8.34231 22.2311 23.219C7.98736 38.0957 0 58.2696 0 79.3C0 222.674 0 570.326 0 713.7C0 734.73 7.98736 754.904 22.2311 769.781C36.4748 784.658 55.7904 793 75.9259 793C223.01 793 596.99 793 744.074 793C764.21 793 783.525 784.658 797.769 769.781C812.013 754.904 820 734.73 820 713.7V79.3ZM452.974 666.12C446.687 647.659 429.832 634.4 410 634.4C390.168 634.4 373.313 647.659 367.026 666.12H106.296C97.9141 666.12 91.1111 673.225 91.1111 681.98C91.1111 690.735 97.9141 697.84 106.296 697.84H367.026C373.313 716.301 390.168 729.56 410 729.56C429.832 729.56 446.687 716.301 452.974 697.84H713.704C722.086 697.84 728.889 690.735 728.889 681.98C728.889 673.225 722.086 666.12 713.704 666.12H452.974ZM728.889 301.34C728.889 275.076 708.48 253.76 683.333 253.76C579.649 253.76 240.351 253.76 136.667 253.76C111.52 253.76 91.1111 275.076 91.1111 301.34C91.1111 362.116 91.1111 494.324 91.1111 555.1C91.1111 581.364 111.52 602.68 136.667 602.68C240.351 602.68 579.649 602.68 683.333 602.68C708.48 602.68 728.889 581.364 728.889 555.1V301.34ZM698.519 301.34C698.519 292.585 691.716 285.48 683.333 285.48C579.649 285.48 240.351 285.48 136.667 285.48C128.284 285.48 121.481 292.585 121.481 301.34C121.481 362.116 121.481 494.324 121.481 555.1C121.481 563.855 128.284 570.96 136.667 570.96C240.351 570.96 579.649 570.96 683.333 570.96C691.716 570.96 698.519 563.855 698.519 555.1V301.34ZM477.544 442.399C482.676 439.734 485.926 434.215 485.926 428.22C485.926 422.225 482.676 416.706 477.544 414.041L356.062 350.601C351.355 348.127 345.767 348.412 341.272 351.299C336.807 354.186 334.074 359.292 334.074 364.78V491.66C334.074 497.148 336.807 502.254 341.272 505.141C345.767 508.027 351.355 508.313 356.062 505.839L477.544 442.399ZM789.63 158.6V79.3C789.63 66.6754 784.831 54.5901 776.297 45.6451C767.732 36.7317 756.162 31.72 744.074 31.72C596.99 31.72 223.01 31.72 75.9259 31.72C63.8385 31.72 52.2674 36.7317 43.7029 45.6451C35.1689 54.5901 30.3704 66.6754 30.3704 79.3V158.6H789.63ZM561.852 111.242H592.222C600.604 111.242 607.407 104.137 607.407 95.382C607.407 86.6273 600.604 79.522 592.222 79.522H561.852C553.47 79.522 546.667 86.6273 546.667 95.382C546.667 104.137 553.47 111.242 561.852 111.242ZM652.963 111.242H744.074C752.456 111.242 759.259 104.137 759.259 95.382C759.259 86.6273 752.456 79.522 744.074 79.522H652.963C644.581 79.522 637.778 86.6273 637.778 95.382C637.778 104.137 644.581 111.242 652.963 111.242Z" fill="black"/>
</svg>
