<svg width="822" height="749" viewBox="0 0 822 749" fill="none" xmlns="http://www.w3.org/2000/svg">
<path fill-rule="evenodd" clip-rule="evenodd" d="M794.604 0H27.4088C12.2708 0 0 15.2307 0 34.0403V714.96C0 733.753 12.2708 749 27.4088 749H794.604C809.742 749 822 733.753 822 714.96V34.0403C822 15.2307 809.742 0 794.604 0ZM767.209 578.766V680.903H712.404V578.766H767.209ZM109.609 578.766V680.903H54.8044V578.766H109.609ZM534.405 403.907C542.823 397.812 548.004 386.601 548.004 374.492C548.004 362.382 542.823 351.188 534.405 345.093L370.005 225.927C361.535 219.783 351.066 219.75 342.557 225.813C334.048 231.892 328.8 243.152 328.8 255.343V493.657C328.8 505.848 334.048 517.108 342.557 523.187C351.066 529.25 361.535 529.201 370.005 523.073L534.405 403.907ZM54.8044 510.686H109.609V408.548H54.8044V510.686ZM712.404 510.686H767.209V408.548H712.404V510.686ZM466.225 374.492L383.604 434.385V314.615L466.225 374.492ZM712.404 340.452H767.209V238.314H712.404V340.452ZM54.8044 340.452H109.609V238.314H54.8044V340.452ZM109.609 170.218H54.8044V68.0805H109.609V170.218ZM767.209 170.218H712.404V68.0805H767.209V170.218Z" fill="black"/>
</svg>
