<svg width="819" height="782" viewBox="0 0 819 782" fill="none" xmlns="http://www.w3.org/2000/svg">
<path d="M185.64 636.027H644.28V364.933H185.64V636.027ZM349.44 405.472C349.44 397.725 355.107 390.614 362.282 387.007C369.445 383.409 378.727 383.889 385.4 388.289L523.865 479.084C529.784 482.974 533.464 489.396 533.464 496.257C533.464 503.118 530.002 509.541 524.084 513.43L385.957 604.225C382.244 606.665 377.93 607.906 373.584 607.906C370.112 607.906 365.46 607.113 362.271 605.518C355.097 601.911 349.44 594.8 349.44 587.053V405.472Z" fill="black"/>
<path d="M393.12 445.135V547.39L470.925 496.268L393.12 445.135Z" fill="black"/>
<path d="M819 166.827V83.4133C819 37.3483 779.885 0 731.64 0H87.36C39.1154 0 3.34709e-06 37.3483 3.34709e-06 83.4133V166.827H819ZM715.981 68.1174C732.874 68.1174 746.568 81.1925 746.568 97.3121C746.568 113.432 732.874 126.507 715.981 126.507C699.098 126.507 685.416 113.432 685.416 97.3121C685.416 81.1925 699.109 68.1174 715.981 68.1174ZM606.781 68.1174C623.674 68.1174 637.368 81.1925 637.368 97.3121C637.368 113.432 623.674 126.507 606.781 126.507C589.898 126.507 576.216 113.432 576.216 97.3121C576.216 81.1925 589.909 68.1174 606.781 68.1174ZM497.581 68.1174C514.474 68.1174 528.168 81.1925 528.168 97.3121C528.168 113.432 514.474 126.507 497.581 126.507C480.698 126.507 467.016 113.432 467.016 97.3121C467.016 81.1925 480.709 68.1174 497.581 68.1174ZM76.44 83.4133H251.16C263.216 83.4133 273 92.7556 273 104.267C273 115.778 263.216 125.12 251.16 125.12H76.44C64.3843 125.12 54.6 115.778 54.6 104.267C54.6 92.7556 64.3843 83.4133 76.44 83.4133Z" fill="black"/>
<path d="M0 208.533V698.587C0 744.652 39.1154 782 87.36 782H731.64C779.885 782 819 744.652 819 698.587V208.533H0ZM687.96 656.88C687.96 668.391 678.176 677.733 666.12 677.733H163.8C151.744 677.733 141.96 668.391 141.96 656.88V344.08C141.96 332.569 151.744 323.227 163.8 323.227H666.12C678.176 323.227 687.96 332.569 687.96 344.08V656.88Z" fill="black"/>
</svg>
