<svg width="793" height="780" viewBox="0 0 793 780" fill="none" xmlns="http://www.w3.org/2000/svg">
<path fill-rule="evenodd" clip-rule="evenodd" d="M107.063 0H685.937C744.88 0 793 49.2145 793 109.521V459.629C793 519.926 744.89 569.14 685.937 569.14H107.063C48.1099 569.14 0 519.926 0 459.629V109.521C0.00991139 49.2246 48.1198 0 107.063 0ZM235.643 607.313V662.459H703.936C744.087 662.459 744.087 724.854 703.936 724.854H235.643V780H174.649V724.854H89.0637C48.9127 724.854 48.9127 662.459 89.0637 662.459H174.649V607.313H235.643ZM323.835 146.65L502.21 311.479C523.321 297.984 521.289 269.544 502.765 258.006L323.835 146.65ZM502.21 311.479L323.835 146.65C303.883 132.131 275.685 146.609 275.685 172.088V397.052H275.755C275.725 421.01 301.554 436.371 322.021 423.616L502.21 311.479ZM428.38 284.57L336.68 227.498V341.642L428.38 284.57Z" fill="black"/>
</svg>
