<svg width="807" height="721" viewBox="0 0 807 721" fill="none" xmlns="http://www.w3.org/2000/svg">
<path fill-rule="evenodd" clip-rule="evenodd" d="M436.031 557.414C434.445 557.467 432.867 557.133 431.389 556.431C429.911 555.728 428.563 554.673 427.426 553.326C426.289 551.979 425.385 550.368 424.768 548.589C424.151 546.81 423.833 544.898 423.833 542.966C423.833 541.035 424.151 539.123 424.768 537.343C425.385 535.564 426.289 533.953 427.426 532.606C428.563 531.259 429.911 530.204 431.389 529.501C432.867 528.799 434.445 528.465 436.031 528.518H723.395C724.981 528.465 726.559 528.799 728.037 529.501C729.515 530.204 730.862 531.259 732 532.606C733.137 533.953 734.041 535.564 734.658 537.343C735.275 539.123 735.593 541.035 735.593 542.966C735.593 544.898 735.275 546.81 734.658 548.589C734.041 550.368 733.137 551.979 732 553.326C730.862 554.673 729.515 555.728 728.037 556.431C726.559 557.133 724.981 557.467 723.395 557.414H436.031ZM436.031 476.915C434.445 476.968 432.867 476.634 431.389 475.931C429.911 475.229 428.563 474.173 427.426 472.826C426.289 471.48 425.385 469.869 424.768 468.09C424.151 466.31 423.833 464.398 423.833 462.467C423.833 460.535 424.151 458.623 424.768 456.844C425.385 455.065 426.289 453.454 427.426 452.107C428.563 450.76 429.911 449.704 431.389 449.002C432.867 448.3 434.445 447.966 436.031 448.019H723.395C724.981 447.966 726.559 448.3 728.037 449.002C729.515 449.704 730.862 450.76 732 452.107C733.137 453.454 734.041 455.065 734.658 456.844C735.275 458.623 735.593 460.535 735.593 462.467C735.593 464.398 735.275 466.31 734.658 468.09C734.041 469.869 733.137 471.48 732 472.826C730.862 474.173 729.515 475.229 728.037 475.931C726.559 476.634 724.981 476.968 723.395 476.915H436.031ZM436.031 396.416C434.445 396.469 432.867 396.134 431.389 395.432C429.911 394.73 428.563 393.674 427.426 392.327C426.289 390.98 425.385 389.37 424.768 387.59C424.151 385.811 423.833 383.899 423.833 381.968C423.833 380.036 424.151 378.124 424.768 376.345C425.385 374.565 426.289 372.955 427.426 371.608C428.563 370.261 429.911 369.205 431.389 368.503C432.867 367.801 434.445 367.466 436.031 367.519H723.395C724.981 367.466 726.559 367.801 728.037 368.503C729.515 369.205 730.862 370.261 732 371.608C733.137 372.955 734.041 374.565 734.658 376.345C735.275 378.124 735.593 380.036 735.593 381.968C735.593 383.899 735.275 385.811 734.658 387.59C734.041 389.37 733.137 390.98 732 392.327C730.862 393.674 729.515 394.73 728.037 395.432C726.559 396.134 724.981 396.469 723.395 396.416H436.031ZM436.031 315.916C434.445 315.97 432.867 315.635 431.389 314.933C429.911 314.231 428.563 313.175 427.426 311.828C426.289 310.481 425.385 308.87 424.768 307.091C424.151 305.312 423.833 303.4 423.833 301.468C423.833 299.537 424.151 297.625 424.768 295.845C425.385 294.066 426.289 292.455 427.426 291.109C428.563 289.762 429.911 288.706 431.389 288.004C432.867 287.301 434.445 286.967 436.031 287.02H723.395C724.981 286.967 726.559 287.301 728.037 288.004C729.515 288.706 730.862 289.762 732 291.109C733.137 292.455 734.041 294.066 734.658 295.845C735.275 297.625 735.593 299.537 735.593 301.468C735.593 303.4 735.275 305.312 734.658 307.091C734.041 308.87 733.137 310.481 732 311.828C730.862 313.175 729.515 314.231 728.037 314.933C726.559 315.635 724.981 315.97 723.395 315.916H436.031ZM436.031 235.417C434.445 235.47 432.867 235.136 431.389 234.434C429.911 233.731 428.563 232.676 427.426 231.329C426.289 229.982 425.385 228.371 424.768 226.592C424.151 224.812 423.833 222.901 423.833 220.969C423.833 219.038 424.151 217.126 424.768 215.346C425.385 213.567 426.289 211.956 427.426 210.609C428.563 209.262 429.911 208.207 431.389 207.504C432.867 206.802 434.445 206.468 436.031 206.521H593.701C596.792 206.624 599.728 208.192 601.884 210.89C604.04 213.588 605.247 217.204 605.247 220.969C605.247 224.734 604.04 228.35 601.884 231.048C599.728 233.746 596.792 235.314 593.701 235.417H436.031ZM213.945 61.7117C212.359 61.7648 210.78 61.4304 209.302 60.7281C207.824 60.0259 206.477 58.9702 205.34 57.6233C204.203 56.2764 203.299 54.6657 202.682 52.8864C202.065 51.107 201.747 49.1951 201.747 47.2636C201.747 45.3321 202.065 43.4202 202.682 41.6408C203.299 39.8614 204.203 38.2507 205.34 36.9038C206.477 35.5569 207.824 34.5012 209.302 33.799C210.78 33.0968 212.359 32.7623 213.945 32.8154H381.89C384.981 32.9189 387.917 34.4864 390.073 37.1847C392.23 39.883 393.436 43.499 393.436 47.2636C393.436 51.0281 392.23 54.6441 390.073 57.3424C387.917 60.0407 384.981 61.6083 381.89 61.7117H213.945ZM131.451 61.7117C128.36 61.6083 125.425 60.0407 123.268 57.3424C121.112 54.6441 119.906 51.0281 119.906 47.2636C119.906 43.499 121.112 39.883 123.268 37.1847C125.425 34.4864 128.36 32.9189 131.451 32.8154H153.868C156.959 32.9189 159.895 34.4864 162.051 37.1847C164.207 39.883 165.414 43.499 165.414 47.2636C165.414 51.0281 164.207 54.6441 162.051 57.3424C159.895 60.0407 156.959 61.6083 153.868 61.7117H131.451ZM48.958 61.7117C47.3721 61.7648 45.7936 61.4304 44.3156 60.7281C42.8377 60.0259 41.4904 58.9702 40.3532 57.6233C39.2161 56.2764 38.3122 54.6657 37.6951 52.8864C37.0779 51.107 36.7599 49.1951 36.7599 47.2636C36.7599 45.3321 37.0779 43.4202 37.6951 41.6408C38.3122 39.8614 39.2161 38.2507 40.3532 36.9038C41.4904 35.5569 42.8377 34.5012 44.3156 33.799C45.7936 33.0968 47.3721 32.7623 48.958 32.8154H71.3747C72.9606 32.7623 74.5391 33.0968 76.017 33.799C77.495 34.5012 78.8423 35.5569 79.9794 36.9038C81.1166 38.2507 82.0204 39.8614 82.6376 41.6408C83.2548 43.4202 83.5728 45.3321 83.5728 47.2636C83.5728 49.1951 83.2548 51.107 82.6376 52.8864C82.0204 54.6657 81.1166 56.2764 79.9794 57.6233C78.8423 58.9702 77.495 60.0259 76.017 60.7281C74.5391 61.4304 72.9606 61.7648 71.3747 61.7117H48.958ZM0 123.423V721H807V123.423H0ZM807 0H0V94.5271H807V0ZM205.884 627.586C208.975 627.69 211.91 629.257 214.067 631.956C216.223 634.654 217.429 638.27 217.429 642.034C217.429 645.799 216.223 649.415 214.067 652.113C211.91 654.812 208.975 656.379 205.884 656.483H58.382C55.291 656.379 52.3552 654.812 50.199 652.113C48.0428 649.415 46.8363 645.799 46.8363 642.034C46.8363 638.27 48.0428 634.654 50.199 631.956C52.3552 629.257 55.291 627.69 58.382 627.586H205.884ZM333.031 627.586C334.617 627.533 336.195 627.868 337.673 628.57C339.151 629.272 340.499 630.328 341.636 631.675C342.773 633.022 343.677 634.632 344.294 636.412C344.911 638.191 345.229 640.103 345.229 642.034C345.229 643.966 344.911 645.878 344.294 647.657C343.677 649.437 342.773 651.047 341.636 652.394C340.499 653.741 339.151 654.797 337.673 655.499C336.195 656.201 334.617 656.536 333.031 656.483H264.373C262.787 656.536 261.209 656.201 259.731 655.499C258.253 654.797 256.906 653.741 255.768 652.394C254.631 651.047 253.727 649.437 253.11 647.657C252.493 645.878 252.175 643.966 252.175 642.034C252.175 640.103 252.493 638.191 253.11 636.412C253.727 634.632 254.631 633.022 255.768 631.675C256.906 630.328 258.253 629.272 259.731 628.57C261.209 627.868 262.787 627.533 264.373 627.586H333.031ZM185.538 566.693C183.952 566.746 182.374 566.412 180.896 565.71C179.418 565.008 178.071 563.952 176.933 562.605C175.796 561.258 174.893 559.647 174.275 557.868C173.658 556.089 173.34 554.177 173.34 552.245C173.34 550.314 173.658 548.402 174.275 546.622C174.893 544.843 175.796 543.232 176.933 541.885C178.071 540.539 179.418 539.483 180.896 538.781C182.374 538.078 183.952 537.744 185.538 537.797H333.031C334.617 537.744 336.195 538.078 337.673 538.781C339.151 539.483 340.499 540.539 341.636 541.885C342.773 543.232 343.677 544.843 344.294 546.622C344.911 548.402 345.229 550.314 345.229 552.245C345.229 554.177 344.911 556.089 344.294 557.868C343.677 559.647 342.773 561.258 341.636 562.605C340.499 563.952 339.151 565.008 337.673 565.71C336.195 566.412 334.617 566.746 333.031 566.693H185.538ZM58.382 566.693C55.291 566.59 52.3552 565.022 50.199 562.324C48.0428 559.626 46.8363 556.01 46.8363 552.245C46.8363 548.481 48.0428 544.865 50.199 542.166C52.3552 539.468 55.291 537.9 58.382 537.797H127.049C130.14 537.9 133.075 539.468 135.232 542.166C137.388 544.865 138.594 548.481 138.594 552.245C138.594 556.01 137.388 559.626 135.232 562.324C133.075 565.022 130.14 566.59 127.049 566.693H58.382ZM189.779 308.395L190.434 308.832L235.016 340.162L189.824 371.93L144.641 403.697V340.162V276.671L189.779 308.395ZM139.414 239.707L201.642 283.45L202.252 283.909L264.517 327.75C266.325 329.019 267.826 330.848 268.866 333.051C269.906 335.255 270.449 337.754 270.439 340.295C270.429 342.837 269.867 345.33 268.809 347.521C267.752 349.712 266.237 351.523 264.418 352.771L201.651 396.907L138.714 441.141C136.866 442.444 134.762 443.115 132.627 443.082C130.491 443.048 128.402 442.312 126.582 440.952C124.761 439.592 123.277 437.657 122.286 435.354C121.295 433.05 120.834 430.463 120.951 427.867V340.162V251.683C120.947 249.057 121.53 246.479 122.638 244.226C123.747 241.973 125.338 240.131 127.242 238.896C129.145 237.661 131.289 237.082 133.443 237.219C135.597 237.356 137.68 238.205 139.468 239.675L139.414 239.707ZM321.168 216.837V463.553H70.2538V216.837H321.168ZM58.382 187.941H333.031C336.178 187.941 339.196 189.462 341.422 192.17C343.649 194.878 344.9 198.552 344.903 202.383V477.941C344.903 481.774 343.652 485.451 341.426 488.161C339.199 490.872 336.18 492.395 333.031 492.395H58.382C56.8233 492.395 55.28 492.021 53.8402 491.294C52.4003 490.568 51.0921 489.503 49.9905 488.161C48.8888 486.818 48.0151 485.225 47.4195 483.471C46.8239 481.718 46.5179 479.839 46.5191 477.941V202.383C46.5191 198.553 47.7689 194.879 49.9936 192.171C52.2184 189.462 55.2357 187.941 58.382 187.941ZM565.725 637.913C564.139 637.967 562.56 637.632 561.083 636.93C559.605 636.228 558.257 635.172 557.12 633.825C555.983 632.478 555.079 630.867 554.462 629.088C553.845 627.309 553.527 625.397 553.527 623.465C553.527 621.534 553.845 619.622 554.462 617.842C555.079 616.063 555.983 614.452 557.12 613.106C558.257 611.759 559.605 610.703 561.083 610.001C562.56 609.299 564.139 608.964 565.725 609.017H723.395C724.981 608.964 726.559 609.299 728.037 610.001C729.515 610.703 730.862 611.759 732 613.106C733.137 614.452 734.041 616.063 734.658 617.842C735.275 619.622 735.593 621.534 735.593 623.465C735.593 625.397 735.275 627.309 734.658 629.088C734.041 630.867 733.137 632.478 732 633.825C730.862 635.172 729.515 636.228 728.037 636.93C726.559 637.632 724.981 637.967 723.395 637.913H565.725Z" fill="black"/>
</svg>
