<svg width="823" height="745" viewBox="0 0 823 745" fill="none" xmlns="http://www.w3.org/2000/svg">
<path fill-rule="evenodd" clip-rule="evenodd" d="M305.848 275.67V469.41C305.848 477.975 307.752 485.803 311.362 492.368C314.972 498.967 320.387 504.619 327.378 508.796C334.368 513.008 341.687 515.009 348.842 514.869C355.964 514.728 363.217 512.446 370.011 508.023L518.557 411.176C525.088 406.929 530.143 401.347 533.589 394.853C536.97 388.394 538.775 380.847 538.775 372.597C538.775 364.348 536.97 356.836 533.589 350.341C530.176 343.847 525.089 338.265 518.557 334.018L370.011 237.171C363.217 232.713 355.964 230.431 348.842 230.291C341.654 230.15 334.335 232.186 327.378 236.399C320.42 240.576 315.004 246.228 311.362 252.827C307.784 259.391 305.848 267.185 305.848 275.785V275.67ZM0 152.807V592.228C0 634.247 16.0494 672.475 41.9442 700.138C67.8391 727.834 103.547 745 142.835 745H680.165C719.451 745 755.192 727.834 781.056 700.138C806.951 672.441 823 634.249 823 592.228V152.807C823 110.788 806.951 72.5604 781.056 44.8974C755.161 17.201 719.453 0 680.165 0H142.835C103.549 0 67.808 17.201 41.9442 44.8974C16.0494 72.5937 0 110.786 0 152.807ZM267.283 469.401V275.661C267.283 259.83 271.09 244.91 278.212 231.922C285.301 218.969 295.574 208.122 308.538 200.364C321.47 192.607 335.418 188.886 349.465 189.131C363.512 189.412 377.395 193.695 390.063 201.979L538.61 298.827C550.917 306.865 560.599 317.536 567.196 330.139C573.825 342.776 577.37 357.169 577.37 372.509C577.37 387.848 573.825 402.241 567.196 414.878C560.599 427.48 550.917 438.187 538.61 446.19L390.063 543.038C377.362 551.322 363.511 555.604 349.465 555.886C335.451 556.167 321.47 552.41 308.538 544.653C295.607 536.895 285.335 526.048 278.212 513.095C271.09 500.072 267.283 485.187 267.283 469.356V469.401Z" fill="black"/>
</svg>
