<svg width="804" height="767" viewBox="0 0 804 767" fill="none" xmlns="http://www.w3.org/2000/svg">
<path fill-rule="evenodd" clip-rule="evenodd" d="M803.904 108.713L626.701 108.682V45.6995C626.701 20.5318 648.223 -0.0314518 674.605 3.61143e-05H755.997C782.346 3.61143e-05 803.901 20.5318 803.901 45.6995L803.904 108.713ZM803.904 181.535L626.701 181.504L626.8 606.518C626.8 621.593 630.04 634.524 637.181 647.959L694.044 754.558C702.937 771.147 727.864 771.147 736.757 754.558L793.553 648.024C800.76 634.588 804 621.658 804 606.583L803.901 181.568L803.904 181.535ZM38.8446 426.116H508.258C529.78 426.116 547.202 409.495 547.202 388.995C547.202 368.494 529.813 351.874 508.258 351.874L38.8446 351.905C17.3886 351.905 0 368.526 0 389.026C0 409.526 17.3894 426.147 38.8446 426.147V426.116ZM580.229 692.738H38.8446C17.3886 692.738 0 709.358 0 729.859C0 750.359 17.3894 766.98 38.8446 766.98H580.229C601.685 766.98 619.074 750.359 619.074 729.859C619.074 709.358 601.684 692.738 580.229 692.738ZM38.8446 255.709H132.169C153.691 255.709 171.113 239.089 171.113 218.588C171.113 198.088 153.724 181.467 132.169 181.467H38.8446C17.3886 181.467 0 198.088 0 218.588C0 239.089 17.3894 255.709 38.8446 255.709ZM276.772 255.709H508.258C529.78 255.709 547.202 239.089 547.202 218.588C547.202 198.088 529.813 181.467 508.258 181.467H276.772C255.316 181.467 237.927 198.088 237.927 218.588C237.927 239.089 255.316 255.709 276.772 255.709ZM508.258 522.331H414.934C393.478 522.331 376.089 538.952 376.089 559.452C376.089 579.953 393.479 596.573 414.934 596.573H508.258C529.78 596.573 547.202 579.953 547.202 559.452C547.202 538.952 529.813 522.331 508.258 522.331ZM38.8446 596.541H270.356C291.878 596.541 309.301 579.92 309.301 559.42C309.301 538.92 291.911 522.299 270.356 522.299H38.8446C17.3886 522.299 0 538.92 0 559.42C0 579.92 17.3894 596.541 38.8446 596.541Z" fill="black"/>
</svg>
