<svg width="694" height="826" viewBox="0 0 694 826" fill="none" xmlns="http://www.w3.org/2000/svg">
<path d="M255.903 276.784C248.257 276.739 240.77 278.822 234.389 282.771C228.008 286.719 223.022 292.355 220.063 298.963C217.103 305.571 216.304 312.854 217.766 319.889C219.228 326.924 222.885 333.393 228.274 338.477C233.663 343.56 240.542 347.03 248.037 348.445C255.532 349.86 263.307 349.156 270.375 346.424C277.444 343.692 283.488 339.054 287.74 333.099C291.993 327.143 294.264 320.138 294.264 312.971C294.28 308.234 293.301 303.54 291.381 299.158C289.462 294.775 286.641 290.79 283.079 287.43C279.517 284.07 275.283 281.4 270.621 279.573C265.958 277.747 260.957 276.799 255.903 276.784ZM388.945 236.016C383.798 236.016 378.767 237.447 374.488 240.127C370.208 242.807 366.873 246.617 364.904 251.074C362.934 255.531 362.419 260.435 363.423 265.167C364.427 269.898 366.905 274.245 370.544 277.656C374.184 281.067 378.82 283.39 383.868 284.331C388.916 285.272 394.148 284.789 398.903 282.943C403.658 281.097 407.722 277.971 410.581 273.96C413.44 269.948 414.967 265.232 414.967 260.408C414.983 257.201 414.321 254.022 413.019 251.056C411.717 248.09 409.801 245.395 407.381 243.127C404.961 240.859 402.086 239.063 398.922 237.842C395.758 236.622 392.366 236.001 388.945 236.016ZM329.449 164.673C325.419 164.651 321.472 165.748 318.107 167.825C314.741 169.903 312.107 172.868 310.537 176.347C308.967 179.826 308.532 183.663 309.286 187.374C310.04 191.085 311.949 194.503 314.773 197.198C317.597 199.893 321.209 201.744 325.153 202.516C329.098 203.289 333.198 202.95 336.938 201.541C340.677 200.132 343.887 197.717 346.163 194.6C348.44 191.483 349.68 187.804 349.729 184.026C349.777 181.501 349.289 178.992 348.291 176.646C347.294 174.3 345.808 172.164 343.92 170.362C342.032 168.56 339.78 167.129 337.295 166.152C334.81 165.176 332.143 164.673 329.449 164.673ZM346.797 597.885C336.657 597.885 328.349 613.574 328.349 624.453C328.349 630.751 336.657 636.591 346.797 636.591C356.937 636.591 365.244 630.751 365.244 624.453C365.244 613.574 356.937 597.885 346.797 597.885ZM418.509 490.813C405.023 492.275 392.58 498.334 383.548 507.835C374.516 517.337 369.526 529.619 369.526 542.345C369.526 555.071 374.516 567.354 383.548 576.855C392.58 586.357 405.023 592.415 418.509 593.877C431.996 592.415 444.439 586.357 453.471 576.855C462.503 567.354 467.493 555.071 467.493 542.345C467.493 529.619 462.503 517.337 453.471 507.835C444.439 498.334 431.996 492.275 418.509 490.813ZM517.833 214.831C504.954 207.875 494.256 197.862 486.814 185.801C479.372 173.74 475.45 160.055 475.44 146.122V107.645H489.734C504.962 107.645 519.567 101.974 530.335 91.8804C541.104 81.7867 547.153 68.0968 547.153 53.8223C547.153 39.5477 541.104 25.8578 530.335 15.7642C519.567 5.67054 504.962 0 489.734 0H206.303C191.074 0 176.469 5.67054 165.701 15.7642C154.933 25.8578 148.883 39.5477 148.883 53.8223C148.883 68.0968 154.933 81.7867 165.701 91.8804C176.469 101.974 191.074 107.645 206.303 107.645H218.519V145.664C218.558 159.769 214.624 173.635 207.117 185.86C199.609 198.085 188.793 208.236 175.76 215.289C128.959 240.354 88.9925 275.245 58.9969 317.223C29.0013 359.202 9.79327 407.126 2.88042 457.233C-4.03242 507.341 1.53807 558.268 19.1547 606.018C36.7713 653.768 65.9546 697.041 104.414 732.441C167.684 791.185 252.744 824.71 341.788 826H346.797C439.023 825.788 527.389 791.274 592.488 730.038C657.587 668.802 694.097 585.851 694 499.402C694.002 441.622 677.709 384.869 646.771 334.894C615.834 284.919 571.351 243.499 517.833 214.831ZM418.509 659.266C418.691 661.094 418.691 662.934 418.509 664.762C418.51 672.821 415.103 680.552 409.035 686.261C402.967 691.97 394.732 695.193 386.135 695.223C379.639 695.233 373.292 693.396 367.932 689.956C362.003 694.977 354.298 697.757 346.308 697.757C338.318 697.757 330.612 694.977 324.684 689.956C319.324 693.396 312.977 695.233 306.481 695.223C298.011 695.074 289.937 691.831 283.981 686.183C278.025 680.536 274.657 672.932 274.595 664.991C274.413 663.163 274.413 661.323 274.595 659.495C214.977 644.149 173.439 608.993 173.439 560.324C173.928 482.797 230.736 406.186 346.797 406.186C462.857 406.186 519.665 482.797 519.665 560.095C519.665 608.764 478.128 643.92 418.509 659.266ZM456.748 302.664C401.039 320.185 344.72 373.091 258.469 373.091C208.478 373.514 160.041 356.819 122.251 326.14C144.878 300.155 172.418 278.3 203.493 261.668C225.348 250.001 243.525 233.128 256.183 212.756C268.841 192.384 275.53 169.239 275.572 145.664V107.645H418.143V145.664C418.089 169.116 424.647 192.165 437.155 212.476C449.663 232.787 467.675 249.639 489.367 261.324C507.826 270.94 525.078 282.463 540.8 295.679C512.637 290.605 483.52 293.025 456.748 302.664ZM275.084 490.813C261.597 492.275 249.154 498.334 240.122 507.835C231.09 517.337 226.1 529.619 226.1 542.345C226.1 555.071 231.09 567.354 240.122 576.855C249.154 586.357 261.597 592.415 275.084 593.877C288.57 592.415 301.013 586.357 310.045 576.855C319.077 567.354 324.067 555.071 324.067 542.345C324.067 529.619 319.077 517.337 310.045 507.835C301.013 498.334 288.57 492.275 275.084 490.813Z" fill="black"/>
</svg>
