<svg width="687" height="827" viewBox="0 0 687 827" fill="none" xmlns="http://www.w3.org/2000/svg">
<path d="M346.294 281.462C322.183 281.462 298.071 281.462 274.001 282.451C276.089 280.512 279.241 279.523 281.329 276.596C283.416 274.657 284.481 272.718 285.504 270.741C292.832 276.596 302.288 279.485 311.703 279.485C319.031 279.485 326.358 277.546 332.663 274.619C336.879 277.584 341.054 280.512 346.294 281.462ZM197.493 280.512C193.317 282.451 188.077 283.439 182.838 283.439H180.75L179.686 284.428C191.23 284.428 201.71 283.439 213.212 283.439C207.973 284.39 202.733 282.451 197.493 280.512ZM377.733 264.924C381.909 260.058 385.061 254.202 384.038 247.397C384.038 242.531 381.95 238.653 379.862 234.737C378.798 236.676 376.71 237.665 374.622 237.665H372.534C369.382 236.676 368.359 233.787 369.382 230.859C373.558 220.138 370.447 208.466 360.99 200.673C348.423 189.951 329.551 190.94 319.072 202.611C316.984 204.55 314.896 207.478 313.832 210.405C312.767 213.333 311.744 216.26 311.744 219.149C311.744 222.077 308.592 224.016 305.44 224.016C302.288 224.016 300.2 221.088 300.2 218.161V216.222C296.024 218.161 292.872 220.1 289.72 223.027C284.48 228.882 281.328 235.687 282.393 243.481C282.393 251.275 286.568 258.08 291.808 262.947C301.223 270.74 313.832 271.691 325.335 266.825C323.247 263.897 322.183 261.958 321.159 259.031C320.095 256.103 322.223 253.176 325.335 252.226C328.487 251.237 331.639 253.214 332.662 256.103C333.727 259.031 335.814 261.958 337.902 264.848C338.966 265.836 338.966 265.836 339.99 266.787C345.23 270.664 351.534 273.592 358.862 272.641C366.23 272.717 372.494 269.79 377.733 264.924ZM428.045 268.84C424.892 269.828 422.805 269.828 419.653 269.828H417.565C411.261 275.683 402.91 278.572 394.518 278.572C390.342 278.572 385.102 277.584 380.886 275.645C376.71 278.572 372.494 280.511 368.318 281.5C392.43 281.5 416.542 282.488 440.612 282.488C435.372 279.523 431.196 274.656 428.045 268.84ZM388.213 167.601C388.213 169.54 387.149 171.479 385.061 173.456C381.909 174.444 378.757 173.456 377.733 171.517C373.558 163.723 364.101 158.856 353.622 159.845C347.318 160.834 342.077 163.723 337.902 167.639C333.727 172.505 331.598 178.36 332.662 184.177C345.23 182.238 358.862 185.165 368.277 192.921C369.341 193.909 371.429 195.848 372.452 196.799C373.516 194.86 375.604 192.921 376.628 190.944C382.932 185.089 392.347 181.211 401.762 181.211H402.827C401.844 174.406 395.541 169.54 388.213 167.601ZM173.379 271.73C181.771 275.608 191.186 273.669 197.491 267.852C201.666 263.975 203.795 259.108 203.795 253.254C203.795 247.399 201.707 242.532 197.491 238.655C195.403 236.716 194.339 235.727 192.251 234.777C190.163 233.788 188.075 232.838 184.923 232.838C181.771 232.838 179.683 229.91 179.683 226.983C179.683 224.056 182.835 222.117 185.987 222.117C184.923 220.178 183.9 218.239 181.812 216.262C177.636 212.384 172.396 210.407 166.092 210.407C159.788 210.407 154.548 212.346 150.373 216.262C148.285 218.201 146.197 222.117 145.133 225.006C147.221 228.884 147.221 233.75 147.221 237.666H148.285C155.613 243.521 159.829 252.265 159.829 261.009C159.829 267.814 157.742 274.619 153.525 280.474C157.701 281.463 161.917 280.474 166.092 279.486C165.028 277.547 164.005 275.608 165.028 273.631C167.116 271.73 171.291 270.78 173.379 271.73ZM423.865 204.591C422.801 202.652 421.777 199.724 419.69 197.785C415.514 193.908 409.21 190.98 402.905 190.98C396.601 190.98 390.338 192.919 386.121 197.785C382.969 200.713 381.945 203.64 379.817 207.518C381.905 212.384 382.969 216.262 381.905 221.128L382.969 222.117C390.297 227.971 394.513 236.716 395.536 246.448C395.536 254.242 393.448 261.047 389.232 267.852C394.472 268.841 398.647 268.841 403.887 266.864C401.799 264.925 401.799 262.986 402.823 261.009C403.887 258.082 406.998 257.131 410.15 258.082C419.566 261.96 430.045 260.021 436.349 253.215C440.525 249.337 443.677 243.483 443.677 237.628C443.677 231.773 441.589 225.956 436.349 222.04C434.262 220.101 432.174 219.112 430.045 218.162C427.958 217.173 424.805 216.223 422.718 216.223C419.566 216.223 417.478 213.296 417.478 210.368C417.56 206.528 420.713 204.591 423.865 204.591ZM625.065 291.196C624.001 291.196 622.978 292.184 621.913 292.184H625.065V291.196ZM217.383 284.39C224.711 284.39 231.015 284.39 238.343 283.402C236.255 282.413 234.167 281.463 233.103 279.524C227.863 282.451 222.623 283.44 217.383 284.39ZM575.821 288.306C581.061 288.306 586.301 289.295 591.541 289.295C589.453 288.306 587.365 286.367 585.237 284.428C581.061 286.329 577.909 288.306 575.821 288.306ZM478.351 284.39C477.287 284.39 477.287 284.39 476.264 283.402C476.264 283.402 475.199 283.402 475.199 284.39H478.351ZM239.403 271.73C243.579 275.608 249.883 277.585 256.188 277.585C262.492 277.585 268.755 274.658 272.972 270.78C275.06 268.841 276.124 265.913 277.147 263.974C272.972 258.12 270.843 251.314 269.82 244.509C269.82 238.654 270.884 232.838 272.972 227.971H268.796H262.492C257.252 226.983 253.077 226.032 247.837 223.105C246.773 224.094 246.773 224.094 245.75 225.044C239.445 229.91 231.095 232.838 222.702 232.838C213.287 232.838 203.831 228.96 196.503 222.116C197.568 224.055 197.568 225.044 197.568 226.983C199.655 227.971 201.743 229.91 203.872 231.849C210.176 237.704 213.287 245.459 213.287 254.242C213.287 262.035 210.135 268.841 204.895 274.696C211.199 275.684 216.44 274.696 221.679 272.757C220.615 270.818 219.592 267.891 218.527 265.952C217.463 263.024 219.592 260.097 222.703 259.146C225.855 258.158 229.007 260.135 230.031 263.024C231.095 265.952 233.183 268.879 235.27 270.818C238.341 269.792 239.403 270.78 239.403 271.73ZM521.287 63.4712C528.614 64.4596 534.919 67.349 541.182 72.2154C542.246 71.2269 543.269 71.2269 544.334 70.2764C542.246 67.349 539.094 65.4101 534.918 63.4712C530.743 62.4827 526.527 62.4827 521.287 63.4712ZM604.101 150.076C602.013 153.003 599.925 155.931 599.925 159.809V160.797C605.165 170.53 606.229 182.201 602.013 192.923C609.341 193.911 615.645 196.801 621.908 201.667L625.06 204.594C628.212 193.873 637.627 185.129 650.194 183.19C653.346 182.202 657.522 183.19 660.674 183.19C661.738 176.385 658.586 170.53 653.346 166.652C649.171 163.725 644.954 162.775 640.779 161.786C637.627 161.786 635.539 158.859 635.539 155.931C635.539 153.004 637.627 151.065 640.779 151.065C639.715 149.126 637.627 147.187 636.604 146.199C625.059 140.344 611.429 142.32 604.101 150.076ZM653.347 268.843C650.195 268.843 648.107 268.843 644.955 267.855C643.891 272.721 640.78 278.576 636.563 282.454C634.475 284.393 632.388 286.332 630.259 287.32C631.323 287.32 632.347 287.32 633.411 288.309L634.475 289.297C637.627 291.236 641.803 291.236 644.955 291.236C649.131 290.248 651.259 288.309 653.347 285.381C653.347 285.381 653.347 284.393 654.411 284.393C655.476 281.466 659.651 280.515 661.739 281.466L662.803 282.454C663.868 281.466 665.955 280.515 668.043 280.515C674.347 281.503 681.675 278.576 684.827 273.71C689.003 266.905 686.915 258.122 680.652 253.256C680.652 254.244 679.588 255.195 679.588 256.183C674.348 262.988 667.02 266.905 658.628 268.843L653.347 268.843ZM651.259 194.86C641.844 196.799 634.475 204.592 634.475 213.336C634.475 215.275 633.411 216.264 632.387 217.214C634.475 222.08 635.539 226.947 635.539 231.813L636.604 232.802C643.931 238.656 648.148 247.4 649.171 257.133C652.323 258.122 656.498 259.072 659.651 258.122C664.89 257.133 670.13 254.244 673.283 250.328C676.435 246.45 677.458 240.595 676.435 235.729C675.37 231.851 673.283 227.935 670.131 225.007C668.043 223.069 668.043 220.141 670.131 217.214C672.218 215.275 675.37 215.275 677.458 216.225V210.371C673.242 199.725 661.739 192.921 651.259 194.86ZM589.405 151.063C590.469 151.063 590.469 151.063 589.405 151.063C590.469 148.136 592.557 146.197 594.645 143.269C600.949 136.464 609.3 132.548 617.692 132.548C614.54 125.743 607.212 121.826 598.82 121.826C596.732 124.754 595.668 127.681 592.516 130.57C587.276 136.425 579.948 140.303 571.556 142.242C578.925 144.257 585.23 147.185 589.405 151.063ZM541.222 91.6783C540.158 88.7509 538.07 85.8235 535.982 82.9341L533.895 80.9952C523.415 72.251 506.63 73.2015 496.151 82.9341C487.759 91.6783 487.759 103.388 494.063 113.121C495.127 110.193 498.239 109.243 501.391 110.193C504.543 111.182 505.566 114.071 504.543 116.999C501.391 124.792 502.455 132.587 506.63 139.392C518.175 136.464 531.765 139.392 541.222 147.185C546.462 144.258 551.702 143.307 556.942 142.319C560.094 138.441 562.181 133.575 562.181 128.709C562.181 125.781 565.333 123.843 568.486 123.843C571.638 123.843 573.725 126.77 573.725 129.697V131.636C577.901 129.697 581.053 127.758 584.205 124.831C595.75 113.16 594.685 95.6331 582.117 85.9004C572.702 78.1067 559.07 77.1562 548.591 82.0225C550.678 84.9499 551.743 86.8889 552.766 89.8162C553.831 92.7436 551.702 95.671 548.591 96.6215C545.398 95.595 542.246 94.6057 541.222 91.6783ZM535.982 280.511C532.83 277.584 530.742 274.656 528.655 271.767C526.567 272.755 524.479 272.755 522.351 272.755H518.175C513.999 278.61 507.695 282.488 500.368 284.427C516.087 285.415 532.872 286.366 548.591 286.366C543.311 285.377 539.134 283.438 535.982 280.511ZM505.567 228.92C504.503 227.932 502.415 225.993 501.391 225.042C500.327 226.981 498.239 228.92 497.216 230.897C490.912 236.752 481.496 240.63 472.081 240.63H471.017C473.105 247.435 479.409 253.29 486.737 254.24C486.737 252.301 487.801 250.362 489.889 248.385C493.041 247.397 496.193 248.385 497.216 250.324C501.392 258.118 510.848 262.984 521.328 261.995C522.392 261.995 523.416 261.995 524.48 261.007C522.392 253.213 522.392 244.469 525.545 237.664C518.176 236.714 510.807 233.786 505.567 228.92ZM491.976 134.521C487.8 138.399 483.584 140.376 479.409 141.327C484.648 141.327 488.824 142.315 493.041 144.254C494.105 143.266 495.128 143.266 496.193 142.315C495.087 140.338 494.064 137.449 491.976 134.521ZM98.9862 289.251H103.162L102.097 288.262C100.01 288.3 98.9862 289.251 98.9862 289.251ZM433.268 149.12C426.964 153.987 419.636 155.926 412.309 155.926C403.917 155.926 395.525 152.998 389.262 148.132C384.022 151.059 378.782 152.01 373.542 152.998C375.63 153.987 377.718 155.926 379.847 156.876C397.654 154.937 413.373 166.609 415.461 183.146V184.135C416.525 184.135 417.549 185.123 418.613 186.074V184.135C418.613 175.391 421.765 167.597 429.093 160.792C433.268 156.914 439.572 153.987 445.877 152.048C441.661 152.048 437.444 151.059 433.268 149.12ZM106.312 187.062C103.159 190.94 101.072 196.795 102.136 201.661C104.224 201.661 105.288 200.673 107.376 200.673C117.856 199.684 128.335 203.6 135.663 210.405L139.838 214.283C140.903 212.344 141.926 210.405 144.014 209.417C150.318 203.562 158.669 200.673 168.126 200.673H169.19C167.102 194.818 161.862 189.951 155.558 188.012C155.558 189.951 154.494 191.89 152.406 192.879C149.254 193.867 146.102 192.879 145.078 190.94C140.903 183.146 132.511 179.268 123.054 180.218C114.703 180.256 109.464 183.184 106.312 187.062ZM486.736 275.645C489.888 275.645 491.976 275.645 495.128 274.656C498.28 273.668 501.432 272.717 504.543 269.79C500.368 268.801 497.216 265.912 494.064 263.935H490.912C475.192 263.935 460.537 252.264 458.408 237.665V236.676C457.343 236.676 456.32 235.688 455.256 234.737V236.676C455.256 245.42 452.103 253.214 444.776 260.019C442.688 261.958 440.6 262.946 438.472 264.885C443.712 273.63 454.191 278.495 465.736 276.557C467.823 275.568 470.976 274.618 473.063 273.629C475.151 272.641 477.239 270.702 478.303 268.763C480.391 266.824 483.543 265.836 486.695 267.775C488.824 269.79 488.824 272.717 486.736 275.645ZM417.553 712.621L414.401 785.615C442.688 783.676 470.975 779.761 499.304 773.944L511.871 631.828C490.911 667.869 458.407 697.071 417.553 712.621ZM421.729 391.444L424.881 324.304C370.395 323.315 316.929 323.315 262.445 324.304L263.509 392.432C287.621 381.711 314.843 375.895 344.195 375.895C371.459 375.895 397.659 381.711 421.729 391.444ZM147.17 329.17L159.738 513.098C171.282 463.446 205.832 422.576 251.968 398.243L250.903 325.248C216.353 326.236 181.761 327.231 147.17 329.17ZM268.756 711.673L269.82 784.667C314.892 788.545 358.898 789.534 401.886 786.606L405.038 716.539C386.166 722.394 365.207 726.272 343.224 726.272C316.943 726.272 291.804 721.405 268.756 711.673ZM167.111 611.417L178.656 772.005C205.92 776.872 232.119 781.738 258.318 783.677L257.254 706.804C215.294 686.35 182.831 652.286 167.111 611.417ZM523.422 498.499L539.141 329.17C504.55 327.231 469.958 326.243 435.409 325.292L432.257 396.348C475.2 417.714 508.726 454.703 523.422 498.499ZM612.499 211.386C599.932 200.664 581.06 201.653 570.581 213.325C566.405 218.191 563.253 224.046 563.253 229.862C563.253 232.79 560.101 234.729 556.949 234.729C554.861 234.729 553.797 233.74 552.773 231.801C552.773 232.79 551.709 234.729 549.621 234.729C545.446 236.668 542.293 236.668 538.077 237.656C530.749 249.328 532.837 263.927 544.381 272.709C553.796 280.503 566.405 281.453 577.908 276.587C575.82 273.66 574.755 271.721 573.732 268.793C572.668 265.866 574.796 262.939 577.908 261.988C581.06 261 584.212 262.977 585.235 265.866C586.299 268.793 588.387 271.721 590.475 274.61C591.539 275.599 591.539 275.599 592.563 276.549C597.803 280.427 604.107 283.354 611.435 282.404C618.762 282.404 625.067 279.477 629.242 274.61C633.417 269.744 636.569 263.889 635.546 257.084C635.546 252.217 633.458 248.34 631.37 244.423C630.306 246.362 628.218 247.351 626.131 247.351H624.043C620.891 246.362 619.867 243.473 620.891 240.546C625.066 230.851 621.915 219.18 612.499 211.386ZM378.791 509.224C373.551 514.09 370.399 519.946 368.311 525.762C371.463 533.555 373.551 541.35 372.487 550.093L374.575 552.032C396.599 570.509 399.709 602.634 380.879 624.038C392.423 628.904 406.013 626.966 416.493 619.172C415.429 619.172 414.405 618.183 413.341 618.183C410.189 617.195 409.165 614.306 410.189 611.378C411.253 608.451 414.365 607.5 417.517 608.451C433.236 615.256 451.043 611.378 463.611 600.657C470.938 592.863 476.178 583.131 476.178 573.398C476.178 562.676 472.002 552.944 463.611 546.139C460.459 543.211 456.283 540.284 453.131 539.334H452.067C447.891 537.395 443.675 536.406 439.499 535.456C436.347 535.456 434.259 532.528 434.259 529.601C434.259 526.674 437.412 524.735 440.564 524.735C442.651 524.735 444.739 525.723 446.868 525.723C444.78 518.918 441.628 513.063 436.388 509.185C421.733 493.635 394.511 493.636 378.791 509.224ZM293.889 490.71C298.064 489.721 302.28 488.771 306.456 488.771C323.24 487.782 338.96 493.637 351.527 503.37C354.679 506.297 357.831 510.175 360.942 513.102C363.03 508.236 366.182 504.358 370.358 500.442C380.838 490.709 393.405 485.843 408.102 485.843C410.189 485.843 412.277 485.843 414.406 486.832C412.318 470.294 396.599 457.634 378.792 457.634C379.856 458.622 379.856 459.573 380.879 460.561C381.944 463.488 380.879 466.416 378.792 467.366C375.639 468.355 372.487 467.366 371.464 465.427C363.072 450.828 347.352 443.035 329.545 444.973C318 445.962 308.586 450.828 301.258 459.572C293.93 467.366 290.778 478.049 292.866 487.781C292.866 488.77 293.889 489.759 293.889 490.71ZM344.2 386.58C441.669 386.58 521.286 460.564 521.286 551.042C521.286 642.551 441.664 715.543 344.2 715.543C246.735 715.543 167.113 641.56 167.113 551.081C167.113 460.56 246.735 386.58 344.2 386.58ZM228.923 615.297C245.707 628.907 270.842 630.885 289.713 621.152C286.561 616.286 283.409 611.419 282.386 606.553C281.321 603.626 283.45 600.698 286.561 599.748C289.713 598.759 292.866 600.736 293.889 603.626C295.977 608.492 298.065 613.358 302.281 618.225C303.345 618.225 303.345 619.213 304.369 619.213C304.369 619.213 304.369 620.201 305.433 620.201L308.585 623.129C327.457 638.717 356.809 637.728 373.551 620.201C381.943 611.457 386.118 600.736 385.095 590.015C384.031 580.282 379.856 571.538 373.551 563.744C373.551 565.683 372.487 567.622 371.463 568.611C370.399 570.55 368.311 572.489 366.223 572.489H364.136C360.984 571.5 359.96 568.611 360.984 565.683C368.311 547.207 363.071 526.753 347.352 513.143C336.872 504.398 324.304 500.482 310.672 500.482C297.04 501.471 284.473 506.337 275.058 516.07C270.883 519.948 268.754 523.864 265.643 528.73V529.719C263.555 534.585 262.491 539.451 261.467 544.318C261.467 547.245 258.315 549.184 255.163 549.184C252.011 549.184 249.923 546.257 249.923 543.329C249.923 540.402 250.987 537.475 250.987 534.585C241.572 537.513 233.18 541.39 226.876 548.195C205.875 567.623 207.963 597.772 228.923 615.297ZM135.67 330.121C100.056 332.06 64.3994 333.999 29.8037 336.926L92.682 750.563C117.817 757.369 141.928 764.174 167.105 769.04L135.67 330.121ZM458.414 149.114C456.326 150.102 455.262 150.102 453.174 151.052H456.326C457.39 150.064 458.414 150.064 458.414 149.114ZM263.512 159.797C250.945 162.724 241.488 171.468 239.4 183.14C237.313 198.728 248.816 213.327 265.6 215.265C271.904 216.254 279.232 215.265 284.471 212.338C289.711 207.472 297.039 204.544 304.366 203.594C306.454 200.666 307.518 197.739 310.67 194.85C313.822 190.972 317.998 188.995 322.215 186.105C322.215 185.117 322.215 184.166 321.151 183.178C320.086 174.434 323.238 165.651 328.478 158.846C334.782 152.041 343.133 148.125 351.525 147.175C348.373 146.187 346.285 144.248 343.133 142.309C335.806 135.503 330.566 126.721 330.566 117.977C329.502 108.244 333.718 99.5006 339.981 92.6566C342.069 89.7292 345.221 87.7903 348.373 86.8018C348.373 83.8745 347.309 80.9471 345.221 79.0081C338.917 70.264 326.349 67.3368 315.87 73.1534C311.694 75.0923 309.565 79.0081 307.478 82.886C306.413 85.8134 303.302 86.7639 300.15 85.8134C298.062 84.825 295.974 82.886 296.998 79.9586C293.846 80.9471 290.694 81.8976 288.606 83.8365C283.366 86.7639 279.191 91.6302 277.061 96.4967C279.149 97.4852 280.214 100.375 279.149 103.302C278.085 105.241 277.061 105.241 274.974 106.229C274.974 109.157 276.038 111.096 278.126 114.023C283.366 121.817 295.933 123.756 306.413 119.878C309.565 118.889 312.717 119.878 313.74 122.805C314.805 125.733 313.74 128.66 310.588 129.61C308.5 130.599 306.413 130.599 305.348 131.549C308.5 133.488 311.653 136.416 313.74 139.343C320.044 147.137 322.132 156.87 321.068 165.613C320.004 172.419 316.892 178.274 312.676 183.14C311.612 184.128 309.524 185.079 308.5 185.079C307.436 185.079 305.348 185.079 304.325 184.09C302.237 182.152 301.173 179.224 303.261 176.297C306.413 172.419 308.5 168.503 309.565 163.637C310.629 156.831 308.5 150.026 304.325 145.16C300.149 139.305 293.845 136.416 286.518 135.427C279.19 134.439 271.863 136.416 266.623 140.294C262.447 143.221 259.295 147.099 258.231 151.015C261.383 150.027 264.535 152.004 264.535 154.893C267.687 156.908 265.6 159.797 263.512 159.797ZM415.468 79.9972C410.228 75.1309 402.901 73.1919 395.573 73.1919C388.246 73.1919 381.941 76.1193 376.701 80.9856C374.614 82.9246 373.549 84.8635 372.526 87.7909C371.462 90.7183 370.438 92.6572 370.438 95.5846C370.438 98.512 367.286 100.451 364.134 100.451C360.982 100.451 358.894 98.512 358.894 95.5846C357.83 95.5846 356.806 96.573 355.742 96.573H354.678H353.613C352.549 97.5615 350.461 98.512 349.438 100.451C344.198 105.317 342.11 112.122 342.11 118.927C342.11 125.732 345.262 131.588 350.502 136.454C358.894 143.259 370.397 144.248 379.854 140.332C378.789 138.393 377.766 135.465 376.702 133.527C375.637 130.599 377.766 127.672 380.877 126.721C384.029 125.733 387.181 127.71 388.205 130.599C389.269 133.526 391.357 136.454 393.445 138.393L395.532 140.332C404.948 148.125 420.667 148.125 429.059 138.393C436.387 130.599 436.387 119.916 431.147 112.122C430.083 114.061 427.995 115.05 426.971 115.05H424.884C421.732 114.061 420.708 111.172 421.732 108.245C425.948 97.5231 423.86 86.8022 415.468 79.9972ZM548.55 169.53C545.398 170.518 542.246 168.541 541.222 165.652C540.158 162.724 538.07 159.797 535.983 156.908C534.918 155.919 534.918 155.919 533.895 154.969C523.415 146.224 506.631 147.175 496.151 156.908C487.759 165.652 487.759 177.362 494.063 187.094C495.128 184.167 498.239 183.216 501.391 184.167C504.543 185.155 505.566 188.045 504.543 190.972C500.367 201.694 503.479 213.365 512.935 221.159C521.327 227.964 533.894 229.903 544.374 226.025C546.462 225.037 549.614 226.025 551.702 227.964C552.766 220.171 555.877 212.376 562.181 206.56C569.509 199.755 578.966 194.889 588.381 193.9C595.708 182.229 593.621 167.63 583.141 158.847C573.725 151.053 560.094 150.103 549.614 154.969C551.702 157.896 552.766 159.835 553.79 162.763C553.79 165.652 551.702 168.579 548.55 169.53ZM467.865 143.259C466.8 144.248 466.8 143.259 467.865 143.259C466.8 144.248 466.8 144.248 465.777 144.248C466.841 144.248 467.865 143.259 468.929 143.259C467.865 144.248 467.865 143.259 467.865 143.259ZM132.513 169.53C137.753 170.518 141.929 173.408 145.081 176.335C161.865 174.396 177.585 186.068 178.607 201.655C182.783 203.594 185.935 205.533 189.087 208.461C186.999 203.594 186.999 197.739 188.023 192.873C182.783 187.018 179.631 178.274 180.695 170.48C181.759 162.686 185.935 154.892 192.24 150.026H193.304C192.24 146.148 192.24 141.282 193.304 137.366C194.368 133.488 195.392 130.56 197.48 127.633C190.152 128.621 184.912 131.511 179.672 136.377C181.76 138.316 183.848 139.305 185.977 141.244C188.064 143.182 188.064 147.098 184.912 149.037C182.824 150.976 178.608 150.976 176.52 148.049C174.432 146.11 171.28 144.171 168.128 142.194C167.064 142.194 167.064 141.206 166.041 141.206C153.473 137.328 139.841 144.133 136.689 155.805C135.625 158.732 135.625 162.61 135.625 165.537C136.689 166.64 134.601 168.579 132.513 169.53ZM229.983 176.373C228.919 176.373 228.919 176.373 229.983 176.373C226.831 176.373 224.743 176.373 222.656 175.384C212.176 173.445 203.784 167.591 198.544 159.797C195.392 162.724 193.304 166.602 193.304 171.468C193.304 174.395 193.304 177.323 194.368 180.212C196.456 178.273 198.544 178.273 200.672 179.224C203.825 180.212 204.848 184.09 202.76 186.029C197.52 193.823 198.585 204.505 204.848 211.349C213.24 221.082 228.96 222.071 239.439 214.277C230.024 205.533 225.807 193.823 227.895 181.201C228.918 180.251 228.919 178.312 229.983 176.373ZM24.5596 305.788L27.7117 327.192C103.157 321.337 179.668 317.459 255.111 315.52H256.176H257.24C391.391 312.593 525.542 316.509 659.64 327.192L662.792 305.788C451.071 288.299 236.24 288.299 24.5596 305.788ZM532.826 529.638C532.826 530.627 532.826 531.577 531.762 531.577C532.826 537.432 532.826 544.238 532.826 551.043C532.826 566.63 530.738 582.179 526.522 596.778L510.802 770.973C539.089 765.118 566.353 757.363 594.64 748.58H596.728L659.606 335.936C623.992 333.008 587.313 331.069 551.655 329.131L532.826 529.638ZM265.593 795.349H264.529C263.465 795.349 262.441 795.349 262.441 794.361C206.89 788.506 151.335 777.823 94.7656 761.285V764.213C96.8534 777.823 107.333 789.533 120.965 793.411C262.441 838.196 412.312 838.196 566.353 793.411C581.008 789.533 591.488 777.823 593.617 764.213L594.682 760.335C513.996 786.605 432.246 799.265 347.339 799.265C320.075 799.265 292.857 798.277 265.593 795.349ZM61.2387 239.635C50.7589 250.357 51.8233 266.894 63.3264 276.627C71.7184 283.432 84.2859 285.371 93.7009 280.505C92.6365 278.566 90.5488 275.638 90.5488 272.711C89.4845 269.784 91.6131 266.856 94.7243 265.906C97.8764 264.917 101.029 266.894 102.052 269.784C103.116 272.711 105.204 275.638 107.292 277.577C108.356 278.566 108.356 278.566 109.38 279.516C114.619 283.394 120.924 285.371 127.187 285.371C133.491 285.371 139.754 282.444 143.971 277.577C148.147 272.711 150.275 266.856 150.275 261.04C150.275 257.162 148.187 253.246 146.1 250.318C145.035 252.257 142.948 253.246 140.86 253.246H138.772C135.62 252.257 134.597 249.368 135.62 246.44C139.796 236.708 136.684 225.036 128.292 218.231C123.052 213.365 115.725 211.426 108.398 211.426C101.07 211.426 93.7428 214.353 89.5258 220.17C87.438 222.109 86.3737 224.048 84.2859 226.975C83.2216 229.903 82.1981 231.842 82.1981 234.769C82.1981 237.696 79.046 239.635 75.8939 239.635C72.7419 239.635 70.6541 236.708 70.6541 233.781V231.842C66.4785 234.769 63.3264 236.708 61.2387 239.635ZM118.877 124.78C125.181 128.658 129.357 134.513 132.509 140.368C140.901 130.635 155.556 125.769 170.253 129.646C178.645 119.914 191.212 114.059 204.844 115.048V112.12C202.757 111.132 201.692 108.242 202.757 106.265C205.909 96.5327 201.692 85.8113 192.277 79.995C180.732 72.2013 162.925 74.1403 154.533 85.8498C152.445 88.7772 150.358 92.6551 150.358 96.5713C155.597 100.449 159.773 106.304 161.902 113.109V116.036C161.902 118.964 159.814 121.891 156.662 121.891H155.598C152.446 121.891 150.358 119.952 150.358 117.025V115.086C149.294 110.22 146.183 106.342 141.966 104.364C139.878 103.376 136.726 102.425 134.638 101.437C134.638 103.376 133.574 105.315 132.551 106.303C130.463 108.242 126.246 107.292 124.159 104.364C118.919 97.5591 110.527 94.6318 102.135 95.6202C96.8947 96.6087 91.6548 99.4981 88.5025 104.364C85.3504 108.242 84.327 114.097 85.3504 118.963C96.854 115.998 109.462 117.975 118.877 124.78ZM216.347 112.12C216.347 114.059 215.283 116.986 216.347 118.925C216.347 121.853 217.411 123.792 218.435 126.719C219.499 129.646 218.435 132.574 216.347 133.524C215.283 133.524 214.259 134.513 214.259 134.513C212.171 134.513 210.084 133.524 209.019 131.585V130.597C206.932 132.536 205.867 135.463 205.867 138.39C202.715 151.051 212.171 162.722 224.739 165.65C228.915 166.638 233.131 165.65 236.284 164.661C239.436 160.783 243.611 156.868 247.828 154.929V153.94C248.892 144.207 255.156 136.414 263.548 130.597C267.723 127.67 271.94 125.731 276.115 124.743C274.027 122.804 272.963 120.865 270.875 118.888C270.875 117.899 269.811 117.899 269.811 116.949C267.723 116.949 265.635 115.01 265.635 113.071C263.547 103.338 256.22 96.5333 246.763 94.5946C232.068 91.6672 219.498 100.448 216.347 112.12ZM284.465 75.1281C290.769 71.2503 299.12 69.2734 306.489 69.2734C308.577 67.3344 310.665 65.3955 312.794 64.407C313.858 63.4186 315.946 63.4186 316.969 62.4681C315.905 62.4681 314.881 61.4797 313.817 60.5292C310.665 55.6629 304.402 51.785 298.097 49.8077C283.443 45.9298 268.746 53.6856 264.571 67.3342C262.483 75.1279 264.571 83.8719 269.811 89.7271C272.922 83.9103 278.161 79.0436 284.465 75.1281ZM507.694 53.7241C508.758 54.7126 508.758 56.6515 509.782 58.5904C511.869 57.602 512.934 56.6515 515.021 55.663C523.413 52.7357 531.806 51.7852 540.156 54.6746H541.22C541.22 48.8198 539.133 43.0032 533.893 39.0868C532.828 41.0257 531.805 42.0142 529.717 42.9647C526.565 42.9647 523.413 41.0257 523.413 38.0984C522.349 30.3047 516.085 23.4994 507.693 21.5607C495.085 17.7208 483.582 24.5261 480.429 34.2588C491.974 36.1978 501.389 43.003 507.694 53.7241ZM66.4764 198.721C74.8684 200.66 84.2836 198.721 90.5882 192.866C91.6525 188.988 93.7403 184.122 96.8924 181.195C102.132 174.39 110.524 170.473 118.917 169.523H125.221C124.156 168.535 124.156 167.584 124.156 166.596V165.608C122.069 164.619 121.004 161.73 122.069 159.753C125.221 150.02 121.004 139.299 111.589 133.483C99.0216 125.689 82.2373 127.628 73.8451 139.337C71.7574 141.276 70.6931 144.204 69.6696 146.143C68.6053 149.07 68.6053 151.009 68.6053 153.936C68.6053 156.864 66.5175 159.791 63.3654 159.791C60.2133 159.791 58.1256 157.852 58.1256 154.925V153.936C54.9735 155.875 51.8214 157.814 49.7336 160.741C41.3417 170.474 43.4294 185.073 52.8857 192.867C58.0846 192.905 62.3007 195.832 66.4764 198.721ZM188.062 66.3765C192.238 67.365 195.39 69.3039 198.542 71.2429C206.934 77.0976 212.174 84.853 214.262 93.6357C222.653 84.8915 235.221 80.9755 247.788 82.9142C249.876 82.9142 253.028 83.9027 255.116 84.8532C251.964 78.0479 251.964 70.2542 254.052 62.4603V61.4719V59.5329C252.987 54.6666 249.876 50.7888 245.66 48.8115C243.572 47.823 240.42 46.8725 238.332 45.8841C238.332 47.823 237.268 49.762 236.244 50.7504C234.156 52.6893 229.94 51.7389 227.852 48.8115C222.612 42.0062 214.22 39.0788 205.828 40.0673C200.588 41.0557 195.348 43.9451 192.196 48.8115C188.061 56.6432 186.998 61.5102 188.062 66.3765ZM323.23 54.7052C324.294 56.6441 324.294 58.583 323.23 60.5599C332.645 58.621 343.124 61.5484 351.517 67.3652C351.517 66.3767 350.452 65.4263 351.517 64.4378C354.669 54.7052 350.452 43.9837 341.037 38.1675C329.492 30.3738 314.838 32.3127 305.423 41.0948C312.75 43.9843 319.055 48.8508 323.23 54.7052ZM466.791 64.4378C470.967 66.3767 474.119 68.3157 477.271 71.2431C480.423 74.1704 482.511 77.0978 484.599 80.9757C485.663 79.0368 487.751 77.0978 488.774 75.1209C491.926 71.2431 496.102 69.2662 500.319 67.3272C500.319 64.3998 499.254 61.4725 498.231 58.583C491.927 45.9228 475.184 41.0565 461.552 47.8616C460.488 47.8616 460.488 48.85 459.464 48.85C462.616 52.7279 465.768 57.5942 466.791 64.4378ZM453.159 72.1935C447.92 72.1935 441.615 74.1325 438.505 78.0483C436.417 79.9872 434.329 82.9146 433.265 85.842C435.352 89.7199 435.352 94.5862 435.352 98.5022C447.92 109.224 450.007 126.711 441.657 140.36C445.832 141.349 450.049 140.36 453.201 139.372C452.137 137.433 451.113 135.494 452.137 133.517C453.201 130.59 456.312 129.639 459.464 130.59C467.856 133.517 477.272 132.529 483.576 126.712C484.64 125.723 486.728 123.785 487.752 121.846L488.816 120.857C481.488 114.052 478.336 104.319 479.401 94.5868C477.313 93.5983 475.225 92.6479 472.073 92.6479C468.921 92.6479 466.833 89.7205 466.833 86.7931C466.833 83.8657 469.985 81.9268 473.137 81.9268C472.073 79.9878 471.05 78.0489 468.962 77.0605C464.704 74.171 459.463 72.1935 453.159 72.1935ZM347.335 29.3855C348.399 30.374 350.487 31.3244 351.511 32.3129C352.575 30.374 353.598 28.435 354.663 27.4466C360.967 20.6413 369.318 16.7251 377.71 16.7251C376.645 13.7977 373.534 10.8703 370.382 8.9314C368.294 7.94295 365.142 6.99246 363.055 6.00401C363.055 7.94295 361.99 9.88188 360.967 10.8703C358.879 12.8093 354.663 11.8588 352.575 8.9314C347.335 2.12614 338.943 -0.80124 330.551 0.187207C325.311 1.17565 320.071 4.06508 316.919 8.9314C313.766 12.8093 312.743 18.664 313.766 23.5304C325.311 20.6409 337.879 22.5803 347.335 29.3855ZM390.278 63.4497C392.366 63.4497 393.43 62.4613 395.518 62.4613C405.997 61.4729 415.412 65.3887 422.782 71.2055C423.846 72.1939 424.87 73.1444 425.934 75.0834C426.998 73.1444 428.022 72.156 430.109 70.217C436.414 64.3623 444.764 61.4728 453.156 61.4728H454.221C453.156 58.5455 451.069 55.6181 447.917 52.7287C445.829 50.7897 443.741 49.8013 440.589 49.8013C440.589 51.7402 439.525 53.6791 437.437 54.6676C434.285 55.656 431.133 54.6676 430.109 52.7287C425.934 44.935 417.542 41.0573 409.15 42.0072C403.91 42.9956 398.67 44.9346 394.495 49.8009C391.343 53.7167 389.254 58.5838 390.278 63.4497ZM364.079 33.263C361.991 36.1904 360.927 39.1178 359.903 42.0072C364.079 49.8009 365.143 58.5449 361.991 66.3388C360.927 68.2777 358.839 70.2167 356.751 70.2167H355.687H354.622C355.687 71.2051 356.71 72.1556 356.71 73.144C358.798 76.0714 359.862 78.9988 360.886 81.8882H362.973C364.038 78.9608 366.126 77.0219 368.213 74.0945C371.365 71.1671 374.517 68.2398 378.693 66.3008V64.3619C377.629 56.5682 379.757 48.7741 386.021 41.969C389.173 38.0912 393.348 35.1638 397.565 33.2248C396.501 32.2364 395.477 30.2975 394.413 29.347C385.039 23.5302 371.447 25.5073 364.079 33.263ZM8.83691 282.438C17.2289 287.304 28.7316 286.316 35.0362 279.511C37.124 277.572 41.3404 277.572 43.4282 279.511C45.5159 281.45 45.5159 285.365 43.4282 287.304C40.2761 291.182 35.0362 293.159 30.8609 295.098C43.4282 294.11 57.0602 293.159 69.6275 292.171C64.3876 290.232 59.1478 288.293 53.9079 284.377C38.1883 270.767 36.1008 248.374 50.7558 232.786C46.5803 229.859 40.2761 228.908 35.0362 229.859C29.7964 230.847 24.5565 233.737 21.4042 237.652C19.3164 241.53 17.2287 245.446 18.2521 249.324C18.2521 252.251 16.1643 255.179 13.0122 255.179C9.86016 255.179 7.77238 253.24 7.77238 251.301C5.68461 252.289 4.62028 254.228 3.59683 256.167C-2.70735 263.961 -0.578492 276.584 8.83691 282.438ZM33.9715 219.176C42.3634 217.237 50.7558 219.176 58.0832 224.042C59.1475 225.031 60.171 225.981 61.2353 225.981C65.4109 224.042 69.6273 222.103 74.8673 221.115C75.9317 218.187 78.0194 215.26 80.1072 213.321C83.2593 210.394 87.4348 207.466 90.5869 205.527C84.2827 208.455 78.0196 210.394 71.715 210.394H67.5395C65.4517 211.382 62.2996 211.382 60.2119 209.405C57.0598 208.417 52.8842 206.478 49.7321 204.539L48.6678 203.55H43.428C39.2524 204.539 36.1003 207.428 32.9482 210.356C30.8605 213.283 30.8605 217.161 30.8605 220.088C31.8839 219.176 32.948 219.176 33.9715 219.176ZM431.174 184.123C431.174 189.978 433.262 195.794 438.502 199.711C440.589 201.65 442.677 202.638 444.806 203.588C446.894 204.577 450.046 205.527 452.133 205.527C455.286 205.527 457.373 208.455 457.373 211.382C457.373 214.31 454.221 216.248 452.133 216.248H451.069C452.133 218.187 454.221 221.115 456.309 223.054C460.485 226.932 466.789 229.859 473.093 229.859C479.397 229.859 485.661 227.92 489.878 223.054C493.03 220.126 494.053 217.199 496.182 213.321C494.094 208.455 493.03 204.577 494.094 199.711L493.03 198.723C479.398 187.051 476.245 167.586 486.726 152.987C481.486 151.998 476.246 151.998 472.071 153.975C474.158 155.914 474.158 157.853 473.135 159.83C472.071 162.758 468.959 163.708 465.807 162.757C456.392 158.88 445.913 160.819 439.608 167.624C433.263 172.452 431.174 178.307 431.174 184.123Z" fill="black"/>
</svg>
