<svg width="712" height="819" viewBox="0 0 712 819" fill="none" xmlns="http://www.w3.org/2000/svg">
<path fill-rule="evenodd" clip-rule="evenodd" d="M618.91 383.569C619.669 379.474 618.399 375.294 615.458 372.131C612.518 368.954 608.199 367.133 603.648 367.133H108.344C103.793 367.133 99.475 368.954 96.5342 372.131C93.5933 375.294 92.3241 379.474 93.0825 383.569C93.0825 383.569 149.872 694.5 166.155 783.6C169.886 804.032 189.264 819 211.956 819C275.401 819 436.592 819 500.037 819C522.728 819 542.107 804.032 545.837 783.6C562.12 694.5 618.91 383.569 618.91 383.569ZM193.691 762.504L196.694 778.969C197.932 785.775 204.387 790.759 211.956 790.759C275.401 790.759 436.592 790.759 500.037 790.759C507.606 790.759 514.06 785.775 515.299 778.969L518.301 762.504H193.691ZM510.779 395.373L479.822 706.023L528.625 706.037L585.384 395.373H510.779ZM325.04 395.373V706.023L386.953 706.037V395.373H325.04ZM126.608 395.373L183.367 706.023H232.17L201.214 395.373H126.608Z" fill="black"/>
<path fill-rule="evenodd" clip-rule="evenodd" d="M123.822 338.892V331.803C123.822 312.317 141.127 296.531 162.487 296.531H162.518C166.79 296.531 170.257 293.368 170.257 289.47V274.136L143.836 250.032C140.926 247.392 139.301 243.791 139.301 240.049C139.301 240.049 139.301 233.709 139.301 225.929C139.301 214.689 144.192 203.915 152.906 195.979C161.605 188.029 173.415 183.567 185.735 183.567H201.214C205.315 183.567 209.262 185.05 212.157 187.705L232.17 205.962L247.648 191.842V183.567C247.648 172.327 252.54 161.554 261.254 153.618C269.953 145.668 281.763 141.206 294.083 141.206C306.404 141.206 318.214 145.668 326.913 153.618C335.627 161.554 340.518 172.327 340.518 183.567H371.475C371.475 172.327 376.366 161.554 385.08 153.618C393.779 145.668 405.589 141.206 417.909 141.206C430.23 141.206 442.04 145.668 450.739 153.618C459.453 161.554 464.344 172.327 464.344 183.567V191.842L479.822 205.962L499.836 187.705C502.73 185.05 506.677 183.567 510.779 183.567C510.779 183.567 517.729 183.567 526.257 183.567C538.578 183.567 550.388 188.029 559.087 195.979C567.801 203.915 572.692 214.689 572.692 225.929V240.049C572.692 243.791 571.067 247.392 568.157 250.032L541.735 274.136V289.47C541.735 293.368 545.203 296.531 549.475 296.531C559.737 296.531 569.581 300.244 576.84 306.867C584.099 313.489 588.17 322.47 588.17 331.832V338.892H123.822ZM309.562 296.531H402.431C410.975 296.531 417.909 290.205 417.909 282.41C417.909 274.616 410.975 268.29 402.431 268.29H309.562C301.018 268.29 294.083 274.616 294.083 282.41C294.083 290.205 301.018 296.531 309.562 296.531ZM464.344 268.29C472.888 268.29 479.822 274.616 479.822 282.41C479.822 290.205 472.888 296.531 464.344 296.531C455.8 296.531 448.866 290.205 448.866 282.41C448.866 274.616 455.8 268.29 464.344 268.29ZM247.648 268.29C256.192 268.29 263.127 274.616 263.127 282.41C263.127 290.205 256.192 296.531 247.648 296.531C239.104 296.531 232.17 290.205 232.17 282.41C232.17 274.616 239.104 268.29 247.648 268.29ZM402.431 211.808C410.975 211.808 417.909 218.134 417.909 225.929C417.909 233.723 410.975 240.049 402.431 240.049C393.887 240.049 386.953 233.723 386.953 225.929C386.953 218.134 393.887 211.808 402.431 211.808ZM309.562 211.808C318.106 211.808 325.04 218.134 325.04 225.929C325.04 233.723 318.106 240.049 309.562 240.049C301.018 240.049 294.083 233.723 294.083 225.929C294.083 218.134 301.018 211.808 309.562 211.808Z" fill="black"/>
<path fill-rule="evenodd" clip-rule="evenodd" d="M139.304 127.084C139.304 132.647 138.103 138.155 135.77 143.295C133.436 148.434 130.016 153.104 125.704 157.038C121.392 160.971 116.273 164.092 110.639 166.22C105.006 168.349 98.9674 169.445 92.8695 169.445C86.7716 169.445 80.7334 168.349 75.0997 166.22C69.466 164.092 64.3471 160.971 60.0352 157.038C55.7234 153.104 52.303 148.434 49.9694 143.295C47.6359 138.155 46.4348 132.647 46.4348 127.084C46.4348 115.849 51.327 105.074 60.0352 97.13C68.7434 89.1857 80.5543 84.7227 92.8695 84.7227C105.185 84.7227 116.996 89.1857 125.704 97.13C134.412 105.074 139.304 115.849 139.304 127.084Z" fill="black"/>
<path fill-rule="evenodd" clip-rule="evenodd" d="M92.8695 268.288C92.8695 273.851 91.6684 279.359 89.3349 284.499C87.0013 289.638 83.5809 294.308 79.2691 298.242C74.9572 302.176 69.8383 305.296 64.2046 307.425C58.5708 309.553 52.5326 310.649 46.4347 310.649C40.3368 310.649 34.2987 309.553 28.6649 307.425C23.0312 305.296 17.9123 302.176 13.6004 298.242C9.28856 294.308 5.8682 289.638 3.53463 284.499C1.20107 279.359 -2.03263e-07 273.851 0 268.288C-2.03263e-07 262.725 1.20107 257.217 3.53463 252.077C5.8682 246.938 9.28856 242.268 13.6004 238.334C17.9123 234.401 23.0312 231.28 28.6649 229.151C34.2987 227.022 40.3368 225.927 46.4347 225.927C52.5326 225.927 58.5708 227.022 64.2046 229.151C69.8383 231.28 74.9572 234.401 79.2691 238.334C83.5809 242.268 87.0013 246.938 89.3349 252.077C91.6684 257.217 92.8695 262.725 92.8695 268.288Z" fill="black"/>
<path fill-rule="evenodd" clip-rule="evenodd" d="M309.559 56.4816C309.559 63.8989 307.958 71.2435 304.846 78.0962C301.735 84.9488 297.175 91.1753 291.425 96.4201C285.676 101.665 278.851 105.825 271.339 108.664C263.828 111.502 255.777 112.963 247.646 112.963C239.516 112.963 231.465 111.502 223.953 108.664C216.442 105.825 209.616 101.665 203.867 96.4201C198.118 91.1753 193.558 84.9488 190.446 78.0962C187.335 71.2435 185.733 63.8989 185.733 56.4816C185.733 49.0643 187.335 41.7197 190.446 34.867C193.558 28.0144 198.118 21.7879 203.867 16.5431C209.616 11.2983 216.442 7.13787 223.953 4.2994C231.465 1.46094 239.516 -1.85432e-07 247.646 0C255.777 -1.85432e-07 263.828 1.46094 271.339 4.2994C278.851 7.13787 285.676 11.2983 291.425 16.5431C297.175 21.7879 301.735 28.0144 304.846 34.867C307.958 41.7197 309.559 49.0643 309.559 56.4816Z" fill="black"/>
<path fill-rule="evenodd" clip-rule="evenodd" d="M665.565 127.084C665.565 132.647 664.364 138.155 662.031 143.295C659.697 148.434 656.277 153.104 651.965 157.038C647.653 160.971 642.534 164.092 636.9 166.22C631.267 168.349 625.228 169.445 619.13 169.445C613.033 169.445 606.994 168.349 601.361 166.22C595.727 164.092 590.608 160.971 586.296 157.038C581.984 153.104 578.564 148.434 576.23 143.295C573.897 138.155 572.696 132.647 572.696 127.084C572.696 115.849 577.588 105.074 586.296 97.13C595.004 89.1857 606.815 84.7227 619.13 84.7227C631.446 84.7227 643.257 89.1857 651.965 97.13C660.673 105.074 665.565 115.849 665.565 127.084Z" fill="black"/>
<path fill-rule="evenodd" clip-rule="evenodd" d="M712 282.408C712 287.971 710.799 293.48 708.465 298.619C706.132 303.759 702.711 308.429 698.4 312.362C694.088 316.296 688.969 319.416 683.335 321.545C677.701 323.674 671.663 324.77 665.565 324.77C659.467 324.77 653.429 323.674 647.795 321.545C642.162 319.416 637.043 316.296 632.731 312.362C628.419 308.429 624.999 303.759 622.665 298.619C620.332 293.48 619.131 287.971 619.131 282.408C619.131 276.845 620.332 271.337 622.665 266.197C624.999 261.058 628.419 256.388 632.731 252.454C637.043 248.521 642.162 245.401 647.795 243.272C653.429 241.143 659.467 240.047 665.565 240.047C671.663 240.047 677.701 241.143 683.335 243.272C688.969 245.401 694.088 248.521 698.4 252.454C702.711 256.388 706.132 261.058 708.465 266.197C710.799 271.337 712 276.845 712 282.408Z" fill="black"/>
<path fill-rule="evenodd" clip-rule="evenodd" d="M526.255 56.4816C526.255 63.8989 524.653 71.2435 521.542 78.0962C518.431 84.9488 513.87 91.1753 508.121 96.4201C502.372 101.665 495.547 105.825 488.035 108.664C480.523 111.502 472.472 112.963 464.342 112.963C456.211 112.963 448.16 111.502 440.649 108.664C433.137 105.825 426.312 101.665 420.563 96.4201C414.814 91.1753 410.253 84.9488 407.142 78.0962C404.03 71.2435 402.429 63.8989 402.429 56.4816C402.429 49.0643 404.03 41.7197 407.142 34.867C410.253 28.0144 414.814 21.7879 420.563 16.5431C426.312 11.2983 433.137 7.13787 440.649 4.2994C448.16 1.46094 456.211 -1.85432e-07 464.342 0C472.472 -1.85432e-07 480.523 1.46094 488.035 4.2994C495.547 7.13787 502.372 11.2983 508.121 16.5431C513.87 21.7879 518.431 28.0144 521.542 34.867C524.653 41.7197 526.255 49.0643 526.255 56.4816Z" fill="black"/>
</svg>
