<svg width="831" height="774" viewBox="0 0 831 774" fill="none" xmlns="http://www.w3.org/2000/svg">
<path d="M358.75 554.582L398.838 487.588V774L122.644 648.581V468.094L337.367 561.379C345.238 564.814 354.367 561.885 358.75 554.582ZM225.587 322.967L347.957 282.66C337.368 275.198 326.859 267.185 316.796 258.815L173.651 303.583L225.587 322.967ZM483.198 282.739L605.568 323.045L657.504 303.622L514.359 258.854C504.256 267.263 493.868 275.159 483.198 282.739ZM472.364 554.577L432.276 487.583V773.995L708.469 648.576V468.088L493.747 561.374C485.875 564.809 476.746 561.88 472.364 554.577ZM432.397 422.599L493.909 525.481L755.207 411.907L708.344 319.529L432.397 422.599ZM75.7868 411.901L337.251 525.475L398.763 422.593L122.652 319.519L75.7868 411.901ZM557.448 113.453C550.185 47.3667 472.891 10.1767 415.56 82.7386C358.228 10.1787 281.057 47.3667 273.672 113.453C267.951 165.287 307.958 226.36 415.56 287.078C523.16 226.362 563.171 165.288 557.448 113.453ZM830.723 130.033C828.856 118.9 818.063 111.439 806.621 113.255C756.755 121.229 725.066 148.311 698.284 176.419C690.372 184.709 690.899 197.658 699.42 205.317C703.477 208.948 708.549 210.764 713.662 210.764C719.261 210.764 724.86 208.554 729.04 204.211C754.805 177.129 777.973 159.246 813.395 153.562C824.918 151.667 832.589 141.165 830.723 130.033ZM614.702 155.614C618.029 157.548 621.762 158.535 625.413 158.535C632.595 158.535 639.533 154.903 643.469 148.547C680.879 87.3964 732.49 50.1296 792.825 40.6933C804.268 38.8773 812.058 28.4557 810.273 17.2438C808.406 6.11072 797.695 -1.46898 786.293 0.347116C714.313 11.559 650.855 56.8391 607.52 127.706C601.393 137.299 604.72 149.929 614.702 155.614ZM101.962 204.093C106.101 208.435 111.741 210.646 117.341 210.646C122.412 210.646 127.525 208.83 131.582 205.198C140.103 197.618 140.63 184.59 132.718 176.3C105.939 148.193 74.3314 121.111 24.3808 113.136C12.9383 111.32 2.14611 118.781 0.279547 129.914C-1.58691 141.048 6.08169 151.548 17.6458 153.364C53.1489 159.128 76.1971 177.13 101.962 204.093ZM38.3008 40.6946C98.6354 50.0902 150.284 87.3966 187.657 148.549C191.593 154.905 198.572 158.536 205.713 158.536C209.365 158.536 213.098 157.628 216.424 155.615C226.406 149.851 229.611 137.337 223.687 127.626C180.353 56.7637 116.814 11.6059 44.9144 0.266667C33.472 -1.54933 22.6798 6.10931 20.9347 17.1633C19.0683 28.3752 26.8584 38.8785 38.3008 40.6946Z" fill="black"/>
</svg>
