<svg width="798" height="805" viewBox="0 0 798 805" fill="none" xmlns="http://www.w3.org/2000/svg">
<path d="M53.5996 559.171L248.095 749.793L85.1013 801.98C78.6908 803.965 72.0247 804.983 65.3192 805C47.9785 804.979 31.3559 798.008 19.1057 785.619C10.5934 777.151 4.59605 766.449 1.79079 754.722C-1.01448 742.995 -0.515923 730.71 3.23016 719.254L53.5996 559.171Z" fill="black"/>
<path d="M376.346 708.682L267.296 743.585L267.129 743.417L59.6672 540.042L83.522 464.028C91.6995 474.685 102.11 483.385 114.007 489.506C125.905 495.626 138.996 499.017 152.344 499.434C169.466 501.28 184.261 502.874 201.466 519.738C218.672 536.602 220.334 551.117 222.246 567.897C222.868 590.162 232.19 611.275 248.179 626.627C264.233 642.473 285.658 651.561 308.107 652.049C325.229 653.895 340.024 655.573 357.229 672.437C367.63 681.87 374.4 694.705 376.346 708.682Z" fill="black"/>
<path d="M477.501 676.296L393.801 703.061C390.715 686.466 382.372 671.331 370.029 659.936C353.958 644.115 332.544 635.031 310.101 634.514C292.979 632.584 278.184 630.99 260.979 614.126C243.773 597.262 242.111 582.747 240.199 565.967C239.547 543.709 230.229 522.607 214.266 507.237C198.173 491.45 176.772 482.372 154.338 481.815C137.216 479.969 122.421 478.375 105.216 461.511C99.1311 455.804 94.1926 448.967 90.6701 441.375V441.291L127.159 325.508C129.648 347.901 139.983 368.659 156.3 384.037C173.714 401.308 196.689 411.698 221.049 413.318C239.833 416.087 256.041 418.436 275.74 437.733C290.559 451.669 299.465 470.85 300.593 491.262C302.415 515.465 313.114 538.111 330.598 554.775C348.026 572.099 371.027 582.547 395.43 584.224C416.027 585.246 435.515 593.946 450.122 608.639C464.948 622.534 473.857 641.693 474.974 662.084C475.672 666.732 476.42 671.43 477.501 676.296Z" fill="black"/>
<path d="M164.562 206.621L602.843 636.192L582.063 642.904L580.899 643.156L494.706 670.759C494.041 667.151 493.459 663.376 492.878 659.516C491.073 635.333 480.37 612.706 462.872 596.087C445.471 578.786 422.494 568.365 398.123 566.722C379.339 563.953 363.131 561.604 343.432 542.307C328.621 528.322 319.695 509.131 318.496 488.695C316.708 464.525 306.035 441.902 288.574 425.266C271.142 407.96 248.138 397.54 223.742 395.901C205.04 393.132 188.832 390.783 169.133 371.569C154.319 357.553 145.394 338.334 144.198 317.873C143.14 308.592 141.106 299.452 138.13 290.605L164.562 206.621Z" fill="black"/>
<path d="M719.706 598.688L622.126 630.067L170.63 187.492L204.791 78.8403C230.641 154.602 335.535 278.859 428.461 372.492C520.722 465.706 644.651 572.511 719.706 598.688Z" fill="black"/>
<path d="M769.244 581.069C768.344 582.064 767.274 582.888 766.086 583.502C765.472 583.832 764.832 584.113 764.174 584.341V584.425L754.283 587.614C753.634 587.807 752.964 587.92 752.288 587.949C751.515 588.019 750.738 588.047 749.961 588.033C700.09 588.033 573.668 495.407 440.181 360.662C304.366 223.653 212.022 94.1102 215.513 45.6995C215.55 45.0455 215.661 44.3979 215.846 43.7698L218.838 34.289C219.189 33.3182 219.695 32.4114 220.334 31.6042C220.89 30.6575 221.56 29.7839 222.329 29.0033C258.568 -7.66126 401.282 110.89 460.877 163.58C460.361 164.732 459.778 165.853 459.132 166.936C457.956 169.246 456.564 171.437 454.976 173.48C452.846 176.589 450.425 179.483 447.745 182.122L445.833 184.136C442.021 187.942 439 192.477 436.945 197.476C434.89 202.475 433.842 207.837 433.864 213.249C433.82 218.612 434.842 223.929 436.869 228.887C438.896 233.844 441.888 238.341 445.667 242.111C449.423 245.99 453.909 249.072 458.862 251.176C463.815 253.279 469.135 254.362 474.509 254.36H474.592C480.538 254.369 486.414 253.051 491.797 250.501L479.246 263.17C471.766 270.979 467.606 281.43 467.653 292.293C467.699 303.155 471.949 313.569 479.496 321.313C487.155 328.96 497.498 333.243 508.271 333.227C519.045 333.211 529.376 328.899 537.013 321.229L545.076 313.091C541.445 320.811 540.264 329.475 541.692 337.899C543.12 346.322 547.088 354.096 553.055 360.159C560.697 367.761 571.001 372.012 581.731 371.989C587.025 372.045 592.277 371.027 597.175 368.994C602.072 366.962 606.515 363.958 610.24 360.159L612.567 357.978C616.502 353.951 620.913 350.429 625.7 347.49C629.332 345.196 633.173 343.257 637.17 341.701C689.368 402.193 805.234 544.74 769.244 581.069Z" fill="black"/>
<path d="M491.714 230.365C489.486 232.666 486.821 234.491 483.88 235.73C480.938 236.97 477.779 237.599 474.592 237.58H474.509C468.143 237.517 462.057 234.93 457.564 230.378C453.07 225.827 450.529 219.675 450.487 213.249C450.481 210.041 451.101 206.862 452.313 203.896C453.526 200.931 455.306 198.235 457.552 195.966L459.464 194.036C462.861 190.66 465.949 186.981 468.69 183.045C470.564 180.482 472.258 177.791 473.76 174.99C483.744 157.387 487.751 136.97 485.169 116.854C482.588 96.7381 473.561 78.0258 459.464 63.5703C457.221 61.3117 455.441 58.6291 454.225 55.6759C453.009 52.7227 452.381 49.5566 452.377 46.3584C452.373 43.1603 452.993 39.9927 454.202 37.0365C455.411 34.0802 457.185 31.3933 459.423 29.1291C463.942 24.5564 470.075 21.983 476.474 21.9752C479.642 21.9713 482.78 22.5973 485.709 23.8176C488.638 25.0379 491.299 26.8285 493.542 29.0872C516.597 52.4015 530.853 83.1174 533.843 115.92C536.833 148.723 528.37 181.549 509.917 208.718C508.504 210.732 507.091 212.83 505.512 214.843C501.824 219.663 497.826 224.231 493.542 228.519L491.714 230.365Z" fill="black"/>
<path d="M525.294 309.399C520.753 313.92 514.631 316.452 508.254 316.447C505.094 316.465 501.961 315.851 499.037 314.642C496.113 313.432 493.454 311.65 491.215 309.399C486.747 304.798 484.238 298.617 484.223 292.175C484.207 285.732 486.687 279.539 491.132 274.916L697.763 66.4229C702.293 61.8613 708.433 59.303 714.832 59.3109C721.23 59.3188 727.364 61.8922 731.883 66.4649C736.402 71.0376 738.936 77.2352 738.929 83.6942C738.921 90.1532 736.372 96.3445 731.841 100.906L525.294 309.399Z" fill="black"/>
<path d="M771.156 328.864C771.164 333.688 769.755 338.407 767.109 342.424C764.462 346.441 760.695 349.577 756.284 351.435C751.874 353.293 747.017 353.79 742.326 352.864C737.635 351.938 733.322 349.63 729.93 346.231C715.247 331.574 696.105 322.33 675.586 319.986C655.066 317.642 634.363 322.336 616.806 333.311C610.931 336.939 605.516 341.278 600.681 346.231L598.77 348.077C596.546 350.355 593.892 352.16 590.966 353.385C588.039 354.61 584.899 355.23 581.731 355.209C576.958 355.223 572.288 353.807 568.313 351.14C564.338 348.473 561.237 344.674 559.403 340.226C557.57 335.778 557.085 330.881 558.012 326.154C558.938 321.428 561.234 317.086 564.608 313.678L566.52 311.748C572.483 305.719 578.995 300.269 585.97 295.472C612.825 276.676 645.371 268.008 677.916 270.983C710.462 273.959 740.935 288.388 764.008 311.748C768.544 316.272 771.115 322.428 771.156 328.864Z" fill="black"/>
<path d="M626.697 74.3097L621.544 91.761L626.614 109.212C627.281 111.427 627.339 113.783 626.782 116.029C626.226 118.275 625.075 120.326 623.453 121.963C621.832 123.6 619.8 124.761 617.575 125.323C615.35 125.885 613.016 125.826 610.822 125.153L593.533 120.035L576.245 125.153C575.095 125.552 573.886 125.751 572.671 125.741C570.683 125.744 568.722 125.28 566.943 124.385C565.164 123.49 563.616 122.188 562.422 120.584C561.228 118.98 560.421 117.117 560.065 115.143C559.708 113.169 559.813 111.138 560.369 109.212L565.439 91.761L560.452 74.3097C559.788 72.0943 559.73 69.7384 560.286 67.4928C560.843 65.2472 561.992 63.1957 563.611 61.5568C565.245 59.9389 567.278 58.7905 569.499 58.2301C571.72 57.6696 574.048 57.7174 576.245 58.3685L593.533 63.4865L610.822 58.2846C613.023 57.6582 615.35 57.6352 617.563 58.2182C619.776 58.8011 621.794 59.9689 623.412 61.6013C625.029 63.2337 626.186 65.2716 626.763 67.5053C627.341 69.739 627.318 72.0878 626.697 74.3097Z" fill="black"/>
<path d="M794.429 436.055C792.882 437.619 790.946 438.732 788.825 439.278C786.704 439.824 784.477 439.784 782.377 439.16L767.915 434.881L753.369 439.16C752.264 439.497 751.115 439.667 749.961 439.663C748.079 439.655 746.225 439.206 744.545 438.352C742.864 437.498 741.402 436.262 740.275 434.742C739.147 433.221 738.384 431.458 738.046 429.589C737.707 427.721 737.803 425.799 738.325 423.974L742.564 409.291L738.325 394.692C737.711 392.572 737.673 390.325 738.214 388.185C738.755 386.045 739.855 384.091 741.4 382.527C742.925 380.959 744.85 379.847 746.963 379.314C749.075 378.781 751.292 378.847 753.369 379.506L767.915 383.785L782.377 379.423C784.469 378.801 786.688 378.759 788.802 379.299C790.916 379.84 792.847 380.944 794.393 382.497C795.939 384.049 797.044 385.992 797.591 388.123C798.138 390.253 798.109 392.494 797.504 394.609L793.182 409.375L797.504 423.974C798.123 426.08 798.163 428.316 797.622 430.444C797.08 432.571 795.977 434.511 794.429 436.055Z" fill="black"/>
<path d="M427.963 15.6631L423.723 30.4296L427.963 45.0283C428.581 47.1346 428.621 49.3707 428.08 51.4983C427.538 53.626 426.435 55.5654 424.887 57.11C423.34 58.6731 421.404 59.7864 419.283 60.3327C417.162 60.879 414.935 60.8381 412.835 60.2143L398.373 55.9354L383.827 60.2143C382.722 60.5518 381.573 60.7215 380.419 60.7177C378.538 60.7092 376.683 60.2603 375.003 59.4064C373.322 58.5524 371.86 57.3166 370.733 55.7962C369.605 54.2757 368.842 52.512 368.504 50.6437C368.165 48.7753 368.261 46.8531 368.783 45.0283L373.022 30.3457L368.783 15.747C368.157 13.6378 368.108 11.3969 368.642 9.26214C369.176 7.12734 370.272 5.17814 371.814 3.62127C373.357 2.0644 375.288 0.957904 377.403 0.419119C379.517 -0.119666 381.737 -0.0706509 383.827 0.560971L398.373 4.8399L412.835 0.477073C414.936 -0.127009 417.159 -0.157967 419.276 0.387357C421.393 0.932682 423.329 2.03479 424.887 3.58139C426.43 5.12901 427.53 7.06853 428.072 9.19511C428.613 11.3217 428.575 13.5564 427.963 15.6631Z" fill="black"/>
<path d="M734.418 231.036C734.952 232.873 735.054 234.81 734.716 236.693C734.379 238.577 733.61 240.355 732.473 241.886C731.335 243.417 729.859 244.66 728.162 245.514C726.466 246.369 724.595 246.812 722.698 246.809C721.572 246.806 720.452 246.637 719.374 246.306L704.745 241.943L690.282 246.306C688.196 246.93 685.981 246.971 683.873 246.424C681.765 245.877 679.844 244.764 678.313 243.201C676.765 241.64 675.662 239.686 675.121 237.545C674.58 235.404 674.62 233.155 675.238 231.036L679.477 216.437L675.238 201.755C674.633 199.647 674.599 197.415 675.14 195.29C675.682 193.165 676.778 191.226 678.315 189.674C679.852 188.123 681.773 187.016 683.878 186.47C685.983 185.924 688.195 185.958 690.282 186.569L704.828 190.848L719.291 186.569C721.391 185.949 723.617 185.911 725.737 186.457C727.857 187.003 729.793 188.114 731.343 189.673C732.879 191.224 733.969 193.168 734.496 195.296C735.023 197.424 734.967 199.656 734.335 201.755L730.096 216.437L734.418 231.036Z" fill="black"/>
</svg>
