<svg width="810" height="659" viewBox="0 0 810 659" fill="none" xmlns="http://www.w3.org/2000/svg">
<path d="M244.91 154.133C244.91 166.863 235.403 177.184 223.659 177.184C211.932 177.184 202.416 166.863 202.416 154.133V58.0639C202.416 45.3345 211.932 35.0225 223.659 35.0225C235.403 35.0225 244.91 45.3345 244.91 58.0639V154.133Z" fill="black"/>
<path d="M607.575 154.133C607.575 166.863 598.059 177.184 586.324 177.184C574.588 177.184 565.072 166.863 565.072 154.133V58.0639C565.072 45.3345 574.588 35.0225 586.324 35.0225C598.059 35.0225 607.575 45.3345 607.575 58.0639V154.133Z" fill="black"/>
<path d="M777.729 0H0V70.0162H186.382V58.0542C186.382 35.7611 203.106 17.6216 223.659 17.6216C244.22 17.6216 260.953 35.7611 260.953 58.0542V70.0162H549.03V58.0542C549.03 35.7611 565.771 17.6216 586.324 17.6216C606.876 17.6216 623.609 35.7611 623.609 58.0542V70.0162H777.729C795.558 70.0162 810 54.3419 810 35.0129C810 15.6839 795.549 0 777.729 0Z" fill="black"/>
<path d="M687.824 127.994H623.618V154.133C623.618 176.436 606.885 194.576 586.324 194.576C565.771 194.576 549.047 176.436 549.047 154.133V127.994H260.953V154.133C260.953 176.436 244.22 194.576 223.676 194.576C203.123 194.576 186.382 176.436 186.382 154.133V127.994H122.177L24.1346 393.497L122.185 659H687.832L785.865 393.497L687.824 127.994ZM530.104 338.464C525.815 345.601 517.015 347.596 510.444 342.934L510.338 342.858L488.105 379.731C510.851 422.111 511.222 476.501 484.824 520.32C447.539 582.183 371.102 599.574 314.068 559.141C257.035 518.709 241.019 435.81 278.295 373.938C304.694 330.109 350.788 308.641 395.679 314.224L417.894 277.34L417.779 277.264C411.226 272.611 409.378 263.076 413.676 255.949C417.956 248.822 426.756 246.826 433.327 251.479L525.983 317.15C532.562 321.802 534.393 331.347 530.104 338.464ZM550.268 276.352L524.824 301.101L447.353 246.184L458.036 210.979C461.538 205.176 469.887 204.37 476.67 209.176L544.298 257.119C551.099 261.935 553.77 270.539 550.268 276.352Z" fill="black"/>
<path d="M298.123 387.972C268.001 437.958 280.957 504.953 327.042 537.654C373.127 570.307 434.901 556.273 465.031 506.277C465.031 506.277 480.322 474.765 463.263 457.921C446.203 441.076 392.424 464.818 361.153 429.335C329.89 393.833 320.763 381.333 311.238 380.624C301.714 379.875 298.123 387.972 298.123 387.972Z" fill="black"/>
</svg>
