<svg width="805" height="829" viewBox="0 0 805 829" fill="none" xmlns="http://www.w3.org/2000/svg">
<path fill-rule="evenodd" clip-rule="evenodd" d="M60.658 570.618C55.3231 570.694 50.2362 572.95 46.5154 576.888C42.7947 580.826 40.7446 586.124 40.816 591.618L42.5612 721.068C42.5981 723.79 43.1553 726.477 44.2009 728.977C45.2466 731.477 46.7601 733.741 48.6553 735.638C50.5504 737.536 52.7899 739.03 55.2459 740.036C57.7019 741.042 60.3263 741.54 62.9692 741.502C65.6122 741.464 68.2219 740.89 70.6495 739.813C73.0771 738.736 75.2749 737.178 77.1175 735.226C78.96 733.274 80.4112 730.968 81.3881 728.439C82.3651 725.91 82.8487 723.207 82.8112 720.485L81.066 591.051C81.0291 588.329 80.472 585.642 79.4263 583.142C78.3807 580.642 76.8671 578.379 74.972 576.481C73.0769 574.584 70.8374 573.089 68.3814 572.083C65.9253 571.077 63.3009 570.579 60.658 570.618Z" fill="black"/>
<path fill-rule="evenodd" clip-rule="evenodd" d="M770.835 306.795C765.634 308.018 761.117 311.318 758.278 315.97C755.439 320.621 754.509 326.243 755.694 331.6C761.714 358.801 764.75 386.618 764.75 414.516C764.75 620.785 602.823 787.55 402.547 787.55C265.583 787.55 140.418 708.072 78.912 582.032C76.5155 577.123 72.3237 573.395 67.2585 571.667C62.1932 569.939 56.669 570.354 51.9005 572.82C47.1331 575.288 43.5126 579.604 41.8349 584.821C40.1573 590.037 40.56 595.726 42.9543 600.636C111.254 740.598 250.45 829 402.547 829C624.578 829 805 643.184 805 414.516C805 383.518 801.627 352.61 794.938 322.387C794.349 319.733 793.259 317.225 791.73 315.005C790.2 312.785 788.261 310.897 786.022 309.45C783.784 308.002 781.291 307.022 778.685 306.566C776.079 306.111 773.412 306.188 770.835 306.795Z" fill="black"/>
<path fill-rule="evenodd" clip-rule="evenodd" d="M402.453 0C180.422 0 -9.34884e-06 185.816 0 414.484C7.56741e-06 445.482 3.37312 476.39 10.0625 506.613C10.6507 509.267 11.7408 511.775 13.2705 513.995C14.8001 516.215 16.7395 518.103 18.9777 519.55C21.2159 520.998 23.7092 521.978 26.3151 522.434C28.921 522.889 31.5885 522.812 34.1653 522.205C39.3663 520.982 43.8827 517.682 46.7218 513.03C49.561 508.379 50.4905 502.757 49.3063 497.4C43.2858 470.199 40.25 442.382 40.25 414.484C40.25 208.215 202.177 41.45 402.453 41.45C539.417 41.45 664.582 120.928 726.088 246.968C728.485 251.877 732.676 255.606 737.742 257.333C742.807 259.061 748.331 258.646 753.1 256.18C757.867 253.712 761.487 249.396 763.165 244.179C764.843 238.963 764.44 233.274 762.046 228.364C693.746 88.4015 554.55 -5.20913e-06 402.453 0Z" fill="black"/>
<path fill-rule="evenodd" clip-rule="evenodd" d="M742.031 87.4983C739.388 87.5363 736.778 88.1101 734.351 89.1869C731.923 90.2637 729.725 91.8224 727.883 93.774C726.04 95.7257 724.589 98.0319 723.612 100.561C722.635 103.09 722.151 105.793 722.189 108.515L723.934 237.949C723.971 240.671 724.528 243.358 725.574 245.858C726.619 248.358 728.133 250.621 730.028 252.519C731.923 254.416 734.163 255.911 736.619 256.917C739.075 257.923 741.699 258.421 744.342 258.382C749.677 258.306 754.764 256.05 758.485 252.112C762.205 248.175 764.255 242.876 764.184 237.382L762.439 107.932C762.402 105.21 761.845 102.523 760.799 100.023C759.753 97.5227 758.24 95.2593 756.345 93.3618C754.45 91.4644 752.21 89.9699 749.754 88.9638C747.298 87.9578 744.674 87.4598 742.031 87.4983Z" fill="black"/>
<path fill-rule="evenodd" clip-rule="evenodd" d="M402.497 87.4984C227.371 87.4984 84.9652 234.15 84.9652 414.497C84.9652 594.844 227.371 741.496 402.497 741.496C577.624 741.496 720.03 594.844 720.03 414.497C720.03 234.15 577.624 87.4984 402.497 87.4984ZM402.497 262.526C448.567 262.533 486.343 301.435 486.346 348.874C486.344 372.081 477.109 393.086 462.479 408.652C499.154 425.759 528.69 456.462 541.988 496.021C548.159 514.378 542.865 534.054 531.847 546.667C520.829 559.279 504.809 566.469 487.462 566.469H317.533C300.186 566.469 284.166 559.264 273.148 546.651C262.131 534.037 256.835 514.379 263.007 496.021C276.307 456.461 305.854 425.757 342.532 408.652C327.899 393.085 318.651 372.085 318.649 348.874C318.652 301.435 356.428 262.533 402.497 262.526Z" fill="black"/>
</svg>
