<svg width="651" height="787" viewBox="0 0 651 787" fill="none" xmlns="http://www.w3.org/2000/svg">
<path fill-rule="evenodd" clip-rule="evenodd" d="M529.988 0H121.012C54.4476 0 0 53.1764 0 118.187V668.813C0 733.824 54.4476 787 121.012 787H529.988C596.542 787 651 733.824 651 668.813V118.187C651 53.1764 596.542 0 529.988 0ZM482.034 121.773H390.806C358.273 121.773 331.69 147.746 331.69 179.519V268.618C331.69 300.39 358.273 326.353 390.806 326.353H482.034C514.566 326.353 541.15 300.39 541.15 268.618V179.519C541.15 147.746 514.566 121.773 482.034 121.773ZM385.843 616.682H126.719C93.8303 616.682 93.8303 665.227 126.719 665.227H385.843C418.732 665.227 418.732 616.682 385.843 616.682ZM524.302 498.055H126.698C93.8408 498.055 93.8408 546.6 126.698 546.6H524.302C557.159 546.6 557.159 498.055 524.302 498.055ZM524.302 379.427H126.698C93.8408 379.427 93.8408 427.972 126.698 427.972H524.302C557.159 427.972 557.159 379.427 524.302 379.427ZM243.85 260.8H126.709C93.8303 260.8 93.8303 309.345 126.709 309.345H243.85C276.728 309.345 276.728 260.8 243.85 260.8ZM243.85 142.152H126.709C93.8303 142.152 93.8303 190.697 126.709 190.697H243.85C276.728 190.697 276.728 142.152 243.85 142.152Z" fill="black"/>
</svg>
