<svg width="658" height="825" viewBox="0 0 658 825" fill="none" xmlns="http://www.w3.org/2000/svg">
<path d="M552.566 0H344.062H217.328C204.134 0 193.389 9.3225 193.389 20.79V130.845C193.389 135.19 194.951 139.223 197.579 142.569H124.19C121.309 142.569 118.966 144.595 118.966 147.107V205.636H105.466C47.3076 205.636 0 246.721 0 297.229V733.407C0 783.915 47.3076 825 105.466 825H455.892C514.04 825 561.348 783.915 561.348 733.407V297.229C561.348 246.721 514.04 205.636 455.892 205.636H442.393V147.107C442.393 144.604 440.06 142.569 437.168 142.569H363.789C366.428 139.233 367.98 135.199 367.98 130.845V41.5892H552.534C584.294 41.5892 610.122 64.02 610.122 91.6025C610.122 103.07 620.867 112.402 634.061 112.402C647.255 112.402 658 103.07 658 91.6025C658.032 41.085 610.724 0 552.566 0Z" fill="black"/>
</svg>
