<svg width="662" height="833" viewBox="0 0 662 833" fill="none" xmlns="http://www.w3.org/2000/svg">
<path d="M444.711 325.503H453.718C458.221 325.503 461.599 322.63 461.599 318.8V234.537C461.599 230.706 458.221 227.834 453.718 227.834H361.398V162.721H403.054V86.1177C440.207 78.4573 468.354 64.0942 476.235 47.816C532.527 46.8585 584.316 56.4339 624.847 73.6696L660.874 71.7545C657.497 25.7926 549.415 -5.80632 419.942 0.896474C291.595 6.64172 189.143 49.7311 191.395 96.6506L254.442 92.8205V162.721H296.099V227.834H208.282C203.779 227.834 200.401 230.706 200.401 234.537V318.8C200.401 322.63 203.779 325.503 208.282 325.503H217.289C114.837 325.503 0 438.493 0 579.252C0 719.053 113.711 833 217.289 833H444.711C547.163 833 662 720.01 662 579.252C662 439.45 548.289 325.503 444.711 325.503Z" fill="black"/>
</svg>
