<svg width="810" height="834" viewBox="0 0 810 834" fill="none" xmlns="http://www.w3.org/2000/svg">
<path d="M64.821 289.645L28.459 326.415C25.3738 329.438 22.9145 333.051 21.2249 337.044C19.5353 341.038 18.649 345.332 18.6179 349.675C18.5868 354.019 19.4114 358.325 21.0436 362.343C22.6758 366.361 25.083 370.01 28.1247 373.077C31.1663 376.144 34.7816 378.568 38.7595 380.207C42.7373 381.846 46.9982 382.668 51.2935 382.624C55.5888 382.58 59.8324 381.672 63.7768 379.952C67.7212 378.232 71.2874 375.735 74.2674 372.607L110.759 335.771C113.754 332.721 116.125 329.104 117.738 325.127C119.351 321.15 120.173 316.891 120.158 312.593C120.143 308.294 119.291 304.041 117.651 300.076C116.01 296.11 113.613 292.51 110.597 289.482C107.581 286.453 104.004 284.055 100.071 282.424C96.1382 280.793 91.9262 279.961 87.6755 279.977C83.4248 279.992 79.2187 280.854 75.2973 282.512C71.3759 284.171 67.8161 286.595 64.821 289.645Z" fill="black"/>
<path d="M74.138 119.404C71.1447 116.29 67.5681 113.809 63.6167 112.106C59.6653 110.404 55.4183 109.515 51.1234 109.49C46.8284 109.465 42.5716 110.305 38.6011 111.961C34.6306 113.617 31.0261 116.056 27.9976 119.136C24.9692 122.216 22.5776 125.875 20.9622 129.899C19.3469 133.923 18.5401 138.233 18.5891 142.576C18.6381 146.919 19.5418 151.208 21.2474 155.194C22.9531 159.18 25.4267 162.783 28.5237 165.792L64.9504 202.627C67.9437 205.742 71.5203 208.223 75.4717 209.925C79.4231 211.628 83.6701 212.517 87.965 212.542C92.26 212.567 96.5168 211.727 100.487 210.071C104.458 208.414 108.062 205.975 111.091 202.895C114.119 199.816 116.511 196.157 118.126 192.133C119.742 188.108 120.548 183.799 120.499 179.456C120.45 175.113 119.547 170.824 117.841 166.838C116.135 162.852 113.662 159.249 110.565 156.24L74.138 119.404Z" fill="black"/>
<path d="M744.829 202.627L781.255 165.792C784.353 162.783 786.826 159.18 788.532 155.194C790.237 151.208 791.141 146.919 791.19 142.576C791.239 138.233 790.432 133.923 788.817 129.899C787.202 125.875 784.81 122.216 781.782 119.136C778.753 116.056 775.149 113.617 771.178 111.961C767.208 110.305 762.951 109.465 758.656 109.49C754.361 109.515 750.114 110.404 746.162 112.106C742.211 113.809 738.634 116.29 735.641 119.404L699.215 156.24C696.117 159.249 693.644 162.852 691.938 166.838C690.233 170.824 689.329 175.113 689.28 179.456C689.231 183.799 690.038 188.108 691.653 192.133C693.268 196.157 695.66 199.816 698.688 202.895C701.717 205.975 705.321 208.414 709.292 210.071C713.262 211.727 717.519 212.567 721.814 212.542C726.109 212.517 730.356 211.628 734.308 209.925C738.259 208.223 741.836 205.742 744.829 202.627Z" fill="black"/>
<path d="M699.02 335.771L735.512 372.607C738.492 375.735 742.058 378.232 746.002 379.952C749.947 381.672 754.19 382.58 758.486 382.624C762.781 382.668 767.042 381.846 771.02 380.207C774.998 378.568 778.613 376.144 781.655 373.077C784.696 370.01 787.103 366.361 788.736 362.343C790.368 358.325 791.192 354.019 791.161 349.675C791.13 345.332 790.244 341.038 788.554 337.044C786.865 333.051 784.405 329.438 781.32 326.415L744.958 289.645C741.963 286.595 738.403 284.171 734.482 282.512C730.56 280.854 726.354 279.992 722.104 279.977C717.853 279.961 713.641 280.793 709.708 282.424C705.775 284.055 702.198 286.453 699.182 289.482C696.166 292.51 693.769 296.11 692.128 300.076C690.488 304.041 689.636 308.294 689.621 312.593C689.606 316.891 690.428 321.15 692.041 325.127C693.654 329.104 696.025 332.721 699.02 335.771Z" fill="black"/>
<path d="M251.419 289.514C248.734 289.267 246.028 289.586 243.471 290.452C240.915 291.319 238.565 292.712 236.569 294.546C234.574 296.379 232.977 298.611 231.88 301.102C230.783 303.592 230.21 306.286 230.197 309.012V349.249C230.224 368.728 237.888 387.4 251.508 401.173C265.129 414.946 283.594 422.696 302.856 422.724H506.923C526.185 422.696 544.65 414.946 558.271 401.173C571.891 387.4 579.555 368.728 579.582 349.249V309.012C579.57 306.285 578.998 303.591 577.901 301.1C576.804 298.61 575.208 296.377 573.212 294.543C571.216 292.71 568.866 291.316 566.309 290.45C563.752 289.585 561.045 289.266 558.36 289.514C552.36 290.115 546.302 289.439 540.576 287.53C534.85 285.621 529.582 282.521 525.112 278.429C520.642 274.337 517.068 269.345 514.621 263.772C512.174 258.2 510.907 252.171 510.903 246.074C510.898 239.977 512.156 233.947 514.595 228.371C517.034 222.795 520.6 217.797 525.064 213.698C529.528 209.6 534.791 206.491 540.514 204.574C546.238 202.656 552.295 201.97 558.296 202.562C560.984 202.811 563.694 202.493 566.255 201.628C568.815 200.764 571.171 199.371 573.171 197.538C575.172 195.706 576.775 193.473 577.879 190.982C578.982 188.49 579.562 185.795 579.582 183.065V142.893C579.555 123.414 571.891 104.742 558.271 90.9688C544.65 77.1957 526.185 69.4458 506.923 69.4181H467.132C467.661 64.6726 467.574 59.8776 466.873 55.155C456.392 -18.4504 353.517 -18.3195 342.906 55.155C342.205 59.8776 342.118 64.6726 342.647 69.4181H302.856C283.594 69.4458 265.129 77.1957 251.508 90.9688C237.888 104.742 230.224 123.414 230.197 142.893V183.065C230.217 185.795 230.797 188.49 231.901 190.982C233.004 193.473 234.607 195.706 236.608 197.538C238.609 199.371 240.964 200.764 243.524 201.628C246.085 202.493 248.795 202.811 251.483 202.562C262.095 201.714 272.651 204.779 281.202 211.189C289.753 217.599 295.721 226.921 298.004 237.435C304.668 264.979 278.593 293.048 251.419 289.514Z" fill="black"/>
<path d="M725.224 465.186C712.355 473.489 686.915 491.73 665.337 507.223C664.142 508.058 663.26 509.276 662.833 510.68C662.406 512.084 662.458 513.593 662.982 514.963C665.474 521.156 667.113 527.666 667.854 534.31C674.641 587.718 605.262 619.365 602.305 620.719C575.577 633.36 525.175 632.633 502.666 629.512C501.386 629.364 500.149 628.96 499.025 628.323C497.902 627.685 496.915 626.829 496.123 625.802C495.33 624.776 494.747 623.6 494.409 622.343C494.07 621.087 493.982 619.774 494.15 618.483C494.318 617.192 494.738 615.947 495.386 614.822C496.035 613.697 496.898 612.713 497.926 611.928C498.954 611.144 500.127 610.574 501.375 610.253C502.623 609.931 503.922 609.863 505.196 610.055C529.387 612.816 569.127 613.758 594.483 602.772C595.072 602.511 652.3 575.915 648.722 537.431C646.412 512.614 624.233 486.306 598.197 492.6C591.921 494.105 585.904 496.068 580.081 497.965C556.4 505.62 531.943 513.537 478.112 492.731C376.337 453.344 275.145 502.414 267.575 506.209L224.05 524.79C220.074 520.167 214.755 516.931 208.853 515.545C202.951 514.158 196.767 514.692 191.182 517.07C169.119 526.295 106.036 553.054 53.4983 575.3C32.2086 584.373 15.3335 601.595 6.55702 623.207C-2.21942 644.818 -2.18427 669.062 6.6548 690.647L43.2109 779.694C52.2324 801.327 69.3576 818.468 90.8422 827.369C112.327 836.271 136.423 836.207 157.861 827.194L292.957 769.552C298.454 767.144 303.085 763.083 306.222 757.921C309.359 752.759 310.849 746.747 310.491 740.699L319.808 736.708C331.173 731.768 343.671 730.115 355.911 731.932C427.276 742.727 549.626 717.734 612.709 679.525C674.229 642.529 732.925 600.933 788.308 555.083C843.239 509.284 783.326 427.696 725.224 465.186ZM285.387 751.429L257.501 763.337L168.925 547.689C181.606 542.39 191.959 538.006 198.623 535.193C199.802 534.688 201.069 534.427 202.35 534.425C203.63 534.422 204.898 534.678 206.079 535.178C207.261 535.678 208.331 536.411 209.229 537.335C210.126 538.259 210.831 539.355 211.304 540.558L290.563 738.802C291.522 741.171 291.517 743.828 290.547 746.194C289.578 748.559 287.723 750.441 285.387 751.429Z" fill="black"/>
</svg>
