<svg width="824" height="833" viewBox="0 0 824 833" fill="none" xmlns="http://www.w3.org/2000/svg">
<path d="M810.155 401.305L708.73 299.712C756.721 275.454 785.859 224.649 782.829 170.471C779.766 95.292 717.037 36.8589 642.707 39.9567C593.307 42.0136 548.996 71.2676 527.268 116.177L428.469 13.584C410.166 -4.528 380.905 -4.528 362.602 13.584L260.18 116.51C253.684 122.947 253.577 133.49 259.942 140.06C262 142.183 264.585 143.716 267.426 144.49C290.479 150.602 310.659 164.767 324.4 184.461C350.022 221.909 348.556 271.865 320.777 307.706C286.156 352.249 222.39 359.968 178.35 324.952C160.994 311.145 148.562 291.992 142.938 270.4C140.575 261.523 131.544 256.251 122.759 258.641C119.918 259.416 117.333 260.94 115.275 263.071L13.8405 366.331C-4.34678 384.359 -4.65141 413.88 13.1737 432.275C13.3959 432.5 13.6182 432.725 13.8405 432.949L115.275 532.878C49.1613 567.378 23.2183 649.544 57.3287 716.412C91.4392 783.281 172.677 809.521 238.79 775.02C263.655 762.038 283.909 741.561 296.736 716.412L395.536 818.997C413.361 837.401 442.548 837.7 460.735 819.68C460.957 819.455 461.179 819.222 461.402 818.997L563.157 716.079C569.653 709.642 569.768 699.1 563.396 692.53C561.337 690.398 558.76 688.874 555.92 688.108C532.858 681.996 512.679 667.822 498.946 648.128C473.324 610.688 474.789 560.724 502.56 524.883C537.181 480.34 600.956 472.621 644.996 507.637C662.351 521.444 674.784 540.589 680.399 562.19C681.947 567.869 686.319 572.299 691.925 573.848C697.59 575.347 703.6 573.698 707.733 569.518L810.155 466.259C828.351 448.238 828.647 418.71 810.83 400.315C810.608 400.09 810.378 399.865 810.155 399.64V401.305Z" fill="black"/>
</svg>
