<svg width="822" height="546" viewBox="0 0 822 546" fill="none" xmlns="http://www.w3.org/2000/svg">
<path fill-rule="evenodd" clip-rule="evenodd" d="M186.979 0C290.254 0 373.98 92.5677 373.98 206.778C373.98 368.868 273.286 461.339 163.604 543.194C151.14 552.48 135.659 536.955 142.831 522.325C160.04 487.141 171.87 450.941 174.778 413.121C77.1882 406.156 0 316.442 0 206.778C0 92.5677 83.7263 0 186.979 0Z" fill="black"/>
<path fill-rule="evenodd" clip-rule="evenodd" d="M635.021 0C738.274 0 822 92.5677 822 206.778C822 368.868 721.327 461.339 611.646 543.194C599.182 552.48 583.7 536.955 590.851 522.325C608.06 487.141 619.911 450.941 622.797 413.121C525.23 406.156 448.02 316.442 448.02 206.778C448.02 92.5677 531.746 0 635.021 0Z" fill="black"/>
</svg>
