<svg width="899" height="677" viewBox="0 0 899 677" fill="none" xmlns="http://www.w3.org/2000/svg">
<path fill-rule="evenodd" clip-rule="evenodd" d="M449.46 0.0361737C230.951 0.0361737 54.5149 169.397 54.5149 379.021V427.692C73.305 404.007 99.5349 386.011 129.792 376.79C131.575 208.581 273.806 73.1337 449.497 73.1337C625.239 73.1337 767.497 208.619 769.242 376.828C799.462 386.049 825.691 404.045 844.52 427.693V378.985C844.52 169.323 668.005 0 449.535 0L449.46 0.0361737ZM449.46 108.46C295.767 108.46 171.977 224.09 166.671 370.293C169.731 370.107 172.831 369.995 175.969 369.995C198.401 369.995 219.904 374.643 239.314 383.009V379.997C239.314 268.603 333.305 178.359 449.382 178.359C565.46 178.359 659.451 268.598 659.451 379.997V383.12C678.9 374.755 700.403 370.07 722.873 370.07C725.973 370.07 729.072 370.256 732.133 370.367C726.903 224.136 603.037 108.459 449.344 108.459L449.46 108.46ZM449.46 213.534C353.106 213.534 276.118 287.45 276.118 379.916V405.124C294.522 420.034 309.243 438.922 318.58 460.45C331.249 463.239 343.221 467.961 353.953 474.393V379.056C353.953 328.006 396.222 287.405 449.455 287.405C502.688 287.405 544.957 328.006 544.957 379.056V474.536C555.688 468.103 567.699 463.344 580.406 460.518C589.744 439.027 604.428 420.102 622.791 405.229V379.908C622.791 287.439 545.809 213.526 449.45 213.526L449.46 213.534ZM176.123 405.13L175.929 405.316C111.692 405.316 58.3083 453.429 58.3083 513.369C58.3083 516.492 59.3156 519.504 59.5869 522.59C25.4155 533.261 0 561.891 0 596.953C0 641.347 39.557 676.818 86.746 676.818H366.976C404.596 676.818 436.443 648.411 436.443 612.68C436.443 576.949 404.635 548.542 366.976 548.542C365.93 548.542 364.962 549.174 363.877 549.211C360.041 516.566 330.752 491.208 295.262 491.208C293.209 491.208 291.272 492.137 289.219 492.286C278.215 442.798 232.413 405.13 176.123 405.13ZM722.946 405.316C666.69 405.316 620.897 442.943 609.858 492.468C607.804 492.283 605.906 491.39 603.814 491.39C568.325 491.39 539.036 516.748 535.122 549.394C534.076 549.394 533.107 548.724 532.023 548.724C494.403 548.724 462.556 577.131 462.556 612.862C462.556 648.593 494.403 677 532.023 677H812.293C859.443 677 899 641.529 899 597.135C899 562.073 873.623 533.443 839.452 522.772C839.762 519.686 840.73 516.675 840.73 513.551C840.73 453.578 787.304 405.536 723.07 405.498L722.946 405.316Z" fill="black"/>
</svg>
