<svg width="771" height="592" viewBox="0 0 771 592" fill="none" xmlns="http://www.w3.org/2000/svg">
<path fill-rule="evenodd" clip-rule="evenodd" d="M279.298 591.992C258.735 591.992 238.172 583.956 222.766 568.665C198.184 544.419 191.185 506.892 205.352 474.984C219.116 444.743 240.215 437.081 260.777 429.624C275.279 424.38 290.148 418.795 305.922 405.173L438.279 288.712C418.453 259.222 407.635 224.317 407.066 187.743C406.329 138.296 424.682 91.6467 458.473 56.1565C493.169 19.9576 539.419 0.00174593 589.15 0.00174593C636.673 0.00174593 681.649 18.459 715.78 52.0705C787.918 123.379 789.559 240.933 719.631 314.119C685.137 350.318 638.686 370.103 588.955 370.103C554.092 370.103 520.3 360.194 491.5 341.362L381.186 479.452C367.957 495.866 363.201 511.19 358.245 526.106C351.647 547.015 344.48 568.843 315.277 583.384C303.924 589.208 291.633 592 279.309 592L279.298 591.992ZM333.082 228.6C288.306 257.137 250.127 295.039 220.959 339.856C247.215 332.943 271.428 319.321 291.456 299.536C311.416 279.751 325.748 255.298 333.082 228.6ZM60.9096 286.832L285.56 65.1036C288.674 67.7257 291.621 70.6884 294.569 73.8894C297.516 76.8861 300.262 80.0531 303.008 83.2201L78.3238 305.149C75.2093 302.357 72.2622 299.36 69.3149 296.363C66.4013 293.196 63.6558 289.999 60.9096 286.832ZM30.9694 228.6L82.1761 211.811C86.0274 210.687 88.2378 208.065 88.7736 204.149L95.5721 163.659C98.1508 149.289 108.232 138.459 121.995 135.292L171.36 123.918C175.78 122.794 178.694 119.048 178.694 114.383L179.062 78.3537C179.062 61.395 190.617 47.1946 207.127 44.0274L242.19 37.489C254.113 42.529 265.298 49.0671 275.781 56.9001L211.916 69.0231C207.127 69.9425 204.012 73.6885 204.012 78.5586L203.644 114.587C203.644 130.831 192.659 144.828 177.019 148.539L127.454 159.913C123.603 160.832 120.857 163.829 120.12 167.95L113.355 208.644C111.144 221.687 102.336 231.972 89.8447 236.058L39.5425 252.471C36.1265 244.843 33.1797 236.841 30.9694 228.6ZM110.81 327.529L127.689 279.173C132.277 266.675 142.726 258.093 155.586 256.424L195.975 250.635C200.027 250.09 202.941 247.468 203.879 243.348L216.739 193.901C220.959 178.202 234.555 167.578 250.128 167.578H251.401L286.464 168.702H286.632C291.22 168.702 295.071 165.705 296.177 161.039L310.845 93.8514C318.38 104.681 324.442 116.225 328.83 128.382L320.39 166.658C316.907 182.902 302.941 194.071 286.431 194.071H285.896L250.463 192.947C246.043 192.777 242.024 195.74 240.918 200.405L228.092 249.852C224.24 264.052 213.222 273.928 199.089 275.801L159.069 281.42C155.217 281.965 152.471 284.212 151.165 287.958L133.716 337.234C125.879 334.646 118.178 331.446 110.81 327.529ZM31.17 140.707C75.9466 112.34 114.125 74.6426 143.328 30.2002C116.905 36.9088 92.4899 50.5641 72.4632 70.35C52.2684 90.5099 38.5046 114.792 31.17 140.707ZM468.347 407.794C482.849 419.543 496.78 424.583 510.377 429.623C530.773 437.08 552.039 444.743 565.636 474.982C579.97 506.891 572.97 544.418 548.221 568.663C532.782 583.988 512.42 591.991 491.69 591.991C479.399 591.991 467.108 589.198 455.721 583.409C426.35 568.834 419.384 547.005 412.587 525.926C409.271 515.675 405.989 505.017 399.726 493.813L468.347 407.794ZM305.555 374.013L279.499 341.355C250.698 360.187 217.108 370.097 182.045 370.097C132.312 370.097 86.065 350.311 51.3682 313.908C-18.5586 240.93 -16.9176 123.38 55.2196 52.0688C89.3462 18.4573 134.323 0 181.849 0C231.582 0 278.035 19.9559 312.526 56.1548C346.485 91.6048 364.636 138.293 363.9 187.741C363.531 224.315 352.513 259.22 332.687 288.711L367.55 319.495L305.555 374.013ZM491.659 561.96C477.526 561.96 464.498 556.375 454.585 546.294C445.041 536.01 439.716 522.797 439.884 508.597C440.051 494.601 445.778 481.354 455.691 471.648C465.437 462.113 478.063 456.903 491.66 456.903C505.792 456.903 518.987 462.522 528.934 472.977C538.479 482.887 543.636 496.099 543.435 510.3C543.268 524.296 537.742 537.543 527.662 547.248C517.917 556.715 505.255 561.96 491.659 561.96ZM627.496 30.0345C656.867 74.6452 695.046 112.343 739.826 140.707C732.659 114.758 718.694 90.3076 698.533 70.3517C678.539 50.5667 654.088 36.7769 627.496 30.0345ZM550.034 339.856C520.864 295.042 482.685 257.173 437.91 228.6C445.244 255.298 459.544 279.715 479.572 299.534C499.565 319.319 523.777 332.943 550.034 339.856ZM279.301 561.96C265.905 561.96 253.045 556.749 243.333 547.214C233.42 537.509 227.727 524.262 227.56 510.266C227.359 496.065 232.516 482.852 242.061 472.943C251.973 462.489 265.169 456.869 279.302 456.869C292.899 456.869 305.558 462.113 315.27 471.614C335.666 491.978 336.201 525.352 316.375 546.09C306.463 556.341 293.434 561.96 279.301 561.96ZM572.067 292.998H569.489C561.786 291.874 555.356 286.63 552.978 279.173L539.013 237.559L497.519 224.516C490.184 222.099 485.061 216.105 483.554 208.647C482.281 200.611 485.027 193.153 491.256 188.283L526.119 161.789L525.383 117.928C525.014 110.641 528.865 103.353 535.664 99.4369L536.568 99.0623C543.166 95.8953 550.902 96.4402 556.963 100.356L592.764 126.101L633.522 111.9C640.689 109.278 649.128 111.151 654.453 116.566C659.979 122.185 661.988 130.187 659.61 137.646L646.951 179.464L673.006 214.539C677.427 220.498 678.331 228.739 675.016 235.993C671.332 243.28 664.366 247.571 656.664 247.571L613.73 248.32L588.779 284.349C584.928 290.002 578.866 292.998 572.067 292.998Z" fill="black"/>
</svg>
