<svg width="517" height="801" viewBox="0 0 517 801" fill="none" xmlns="http://www.w3.org/2000/svg">
<path d="M332.476 706.923C332.476 655.316 327.942 581.79 323.143 503.945C318.13 422.64 312.955 338.721 312.397 271.301H211.729C211.173 338.721 206.007 422.639 201 503.945C196.208 581.788 191.68 655.316 191.68 706.923C191.68 745.914 223.247 777.637 262.047 777.637C300.883 777.637 332.476 745.914 332.476 706.923ZM262.047 760.649C235.232 760.649 213.418 738.741 213.418 711.812C213.418 684.883 235.232 662.974 262.047 662.974C288.878 662.974 310.707 684.883 310.707 711.812C310.707 738.741 288.878 760.649 262.047 760.649Z" fill="black"/>
<path d="M262.047 686.339C248.078 686.339 236.713 697.766 236.713 711.814C236.713 725.86 248.078 737.288 262.047 737.288C276.034 737.288 287.412 725.86 287.412 711.814C287.412 697.766 276.035 686.339 262.047 686.339Z" fill="black"/>
<path d="M497.349 193.054V0H20.3483V193.054H497.349ZM65 18.6152H452.697C459.13 18.6152 464.345 23.8451 464.345 30.2966C464.345 36.7481 459.13 41.978 452.697 41.978H65C58.5672 41.978 53.3524 36.7481 53.3524 30.2966C53.3524 23.8451 58.5672 18.6152 65 18.6152ZM65 84.8438H452.697C459.13 84.8438 464.345 90.0738 464.345 96.5253C464.345 102.977 459.13 108.207 452.697 108.207H65C58.5672 108.207 53.3524 102.977 53.3524 96.5253C53.3524 90.0738 58.5672 84.8438 65 84.8438ZM53.3524 162.689C53.3524 156.237 58.5672 151.007 65 151.007H452.697C459.13 151.007 464.345 156.237 464.345 162.689C464.345 169.14 459.13 174.37 452.697 174.37H65C58.5672 174.37 53.3524 169.14 53.3524 162.689Z" fill="black"/>
<path d="M73.1183 350.266L69.6108 338.805L66.1032 350.266C64.9701 353.967 62.0848 356.862 58.3975 358.002L46.8448 361.572L58.3958 365.139C62.0848 366.279 64.9701 369.176 66.1032 372.878L69.6108 384.339L73.1183 372.878C74.2515 369.176 77.1368 366.279 80.8257 365.139L92.3767 361.572L80.8241 358.002C77.1368 356.862 74.2515 353.965 73.1183 350.266Z" fill="black"/>
<path d="M452.146 589.958L448.617 578.452L445.1 589.952C443.966 593.653 441.081 596.548 437.392 597.688L425.841 601.258L437.392 604.827C441.081 605.967 443.966 608.862 445.1 612.564L448.617 624.063L452.146 612.557C453.28 608.861 456.163 605.967 459.849 604.827L471.395 601.258L459.849 597.688C456.163 596.548 453.28 593.655 452.146 589.958Z" fill="black"/>
<path d="M387.963 247.938V216.417H129.734V247.938H387.963Z" fill="black"/>
<path d="M505.352 777.637H262.047H11.6476C5.21478 777.637 0 782.867 0 789.319C0 795.77 5.21478 801 11.6476 801H505.352C511.785 801 517 795.77 517 789.319C517 782.867 511.785 777.637 505.352 777.637Z" fill="black"/>
</svg>
