<svg width="664" height="812" viewBox="0 0 664 812" fill="none" xmlns="http://www.w3.org/2000/svg">
<path d="M39.0588 5.91423e-07C28.7091 0.027476 18.792 3.75585 11.4736 10.3708C4.15527 16.9857 0.0303973 25.9495 0 35.3043V458.957H312.471V5.91423e-07H39.0588ZM273.412 353.044C273.412 357.725 271.354 362.215 267.692 365.525C264.029 368.836 259.062 370.696 253.882 370.696C248.703 370.696 243.735 368.836 240.073 365.525C236.41 362.215 234.353 357.725 234.353 353.044V141.217C234.353 136.536 236.41 132.046 240.073 128.735C243.735 125.425 248.703 123.565 253.882 123.565C259.062 123.565 264.029 125.425 267.692 128.735C271.354 132.046 273.412 136.536 273.412 141.217V353.044Z" fill="black"/>
<path d="M624.941 0H351.529V458.957H664V35.3043C663.97 25.9495 659.845 16.9857 652.526 10.3708C645.208 3.75585 635.291 0.0274754 624.941 0ZM429.647 353.044C429.647 357.725 427.589 362.215 423.927 365.525C420.265 368.836 415.297 370.696 410.118 370.696C404.938 370.696 399.971 368.836 396.308 365.525C392.646 362.215 390.588 357.725 390.588 353.044V141.217C390.588 136.536 392.646 132.046 396.308 128.735C399.971 125.425 404.938 123.565 410.118 123.565C415.297 123.565 420.265 125.425 423.927 128.735C427.589 132.046 429.647 136.536 429.647 141.217V353.044Z" fill="black"/>
<path d="M192.951 529.565L182.014 494.261H481.986L471.049 529.565H192.951Z" fill="black"/>
<path d="M664 494.261V706.087C663.97 715.442 659.845 724.406 652.526 731.021C645.208 737.635 635.291 741.364 624.941 741.391H39.0588C28.7091 741.364 18.792 737.635 11.4736 731.021C4.15527 724.406 0.0303973 715.442 0 706.087V494.261H141.393L159.36 551.983C160.522 555.675 162.978 558.927 166.358 561.251C169.739 563.574 173.862 564.844 178.108 564.87H485.892C490.138 564.844 494.261 563.574 497.642 561.251C501.022 558.927 503.478 555.675 504.64 551.983L522.607 494.261H664Z" fill="black"/>
<path d="M143.215 706.087H91.1379C83.9413 706.087 78.1176 713.992 78.1176 723.739V776.696C78.1176 796.166 89.8021 812 104.156 812H130.197C144.551 812 156.235 796.166 156.235 776.696V723.739C156.235 713.992 150.412 706.087 143.215 706.087Z" fill="black"/>
<path d="M592.392 706.087H540.314C533.118 706.087 527.294 713.992 527.294 723.739V776.696C527.294 796.166 538.979 812 553.333 812H579.373C593.727 812 605.412 796.166 605.412 776.696V723.739C605.412 713.992 599.588 706.087 592.392 706.087Z" fill="black"/>
</svg>
