<svg width="571" height="821" viewBox="0 0 571 821" fill="none" xmlns="http://www.w3.org/2000/svg">
<path d="M58.9212 707.184C58.7701 471.445 58.7323 235.739 58.8457 0C43.7682 7.82048 28.9172 15.9721 14.218 24.3561C8.36088 27.0071 3.67561 31.3149 1.02986 36.6168C0.236315 41.1567 -0.0659811 45.7626 0.0851607 50.3689C0.122946 269.311 0.160741 488.246 0.236312 707.222C19.8101 707.255 39.3852 707.25 58.9212 707.184Z" fill="black"/>
<path d="M570.525 255.878C570.374 180.557 570.676 105.268 570.336 29.9793H570.374C570.26 13.974 555.712 0.950657 537.499 0.486627C399.387 0.254662 261.305 0.188383 123.193 0.387212C114.049 0.188383 105.206 3.20388 98.5931 8.73789C91.9803 14.2718 88.1639 21.8936 87.9743 29.9128C87.7098 105.135 87.672 180.388 87.861 255.608C248.764 255.741 409.622 255.48 570.525 255.878ZM425.874 66.1346C433.129 64.6765 440.573 64.2458 447.98 64.8423C466.61 65.1405 485.277 64.7097 503.868 65.2399C510.103 65.3394 515.847 68.2555 519.059 72.8947C522.309 77.567 522.573 83.3663 519.815 88.2704C516.754 94.9311 509.12 99.1391 500.921 98.6097C479.873 98.9743 458.825 98.676 437.778 98.8086V98.8417C431.014 99.5376 424.25 97.3505 419.639 92.9433C416.012 88.7679 414.614 83.4328 415.823 78.2962C416.994 73.1599 420.659 68.7194 425.874 66.1346ZM132.19 70.31C131.51 60.4347 138.614 51.4544 149.383 48.5387C155.807 47.1138 162.571 48.2073 167.975 51.5542C173.379 54.8679 176.855 60.1036 177.498 65.8696C177.649 109.942 177.687 154.018 177.535 198.089C177.46 204.65 173.719 210.714 167.521 214.392C161.362 218.038 153.502 218.8 146.549 216.414C137.48 212.868 131.774 204.849 132.151 196.167C131.962 154.215 131.85 112.263 132.19 70.31Z" fill="black"/>
<path d="M570.563 283.652C409.661 283.685 248.719 283.685 87.8266 283.652C87.6754 415.939 87.6754 548.192 87.7888 680.436C87.8643 691.571 95.762 701.512 107.628 705.488C114.354 707.311 121.42 707.907 128.411 707.244C265.661 707.211 402.902 707.211 540.181 707.244C551.366 706.847 561.493 701.379 566.897 692.797C570.562 684.612 571.809 675.731 570.487 666.982C570.562 539.209 570.601 411.435 570.563 283.652ZM177.453 483.109C176.698 490.068 171.823 496.199 164.643 499.247C157.426 502.262 148.924 501.798 142.235 497.954C135.32 493.481 131.579 486.158 132.373 478.669C131.995 433.701 132.071 388.73 132.222 343.769C132.297 334.557 139.666 326.67 149.906 324.781C156.557 323.588 163.434 325.046 168.725 328.691C174.053 332.369 177.227 337.903 177.453 343.835C177.416 390.261 177.869 436.681 177.453 483.109Z" fill="black"/>
<path d="M0.153834 734.39C0.116039 747.744 -0.299641 761.131 0.418331 774.453C0.682849 777.933 2.4589 781.147 5.293 783.533C14.7778 791.585 29.0236 786.813 40.7761 788.139C40.3605 796.257 40.5872 804.376 41.5319 812.462C44.0637 817.797 50.1475 821.177 56.7225 820.846C72.9714 820.846 89.2203 820.978 105.432 820.746V820.713C112.687 820.978 119.187 816.736 120.963 810.573C121.794 803.117 121.303 795.595 121.416 788.139C230.168 788.007 338.919 787.973 447.681 788.106C447.756 794.833 447.492 801.56 447.794 808.32L447.832 808.287C448.21 815.444 455.049 821.045 463.25 820.813C480.405 820.846 497.599 821.144 514.792 820.912C522.614 820.482 528.849 814.981 529.303 808.121C529.643 801.428 529.341 794.767 529.492 788.073C538.107 787.907 546.761 788.504 555.339 787.709C564.333 785.522 570.454 778.264 570.228 770.113C570.492 758.25 570.341 746.386 570.417 734.556C380.348 734.258 190.223 734.655 0.153834 734.39Z" fill="black"/>
</svg>
