<svg width="325" height="819" viewBox="0 0 325 819" fill="none" xmlns="http://www.w3.org/2000/svg">
<path d="M276.718 0H48.1574C21.5835 0 0 16.6671 0 37.1879V781.812C0 802.333 21.5835 819 48.1574 819H276.843C303.417 819 325 802.333 325 781.812V37.1879C324.875 16.6671 303.292 0 276.718 0ZM243.781 249.91C238.916 243.359 241.91 235.074 250.393 231.316C258.877 227.559 269.607 229.871 274.472 236.422C285.576 251.355 291.315 268.408 291.315 285.749C291.315 303.091 285.451 320.143 274.472 335.076C271.228 339.508 265.24 341.916 259.127 341.916C256.132 341.916 253.138 341.338 250.393 340.086C241.91 336.329 238.916 328.043 243.781 321.492C251.766 310.702 256.008 298.274 256.008 285.749C256.008 273.128 251.766 260.7 243.781 249.91ZM162.438 55.3964C188.512 55.3964 209.597 71.6782 209.597 91.8135C209.597 111.949 188.512 128.231 162.438 128.231C136.363 128.231 115.278 111.949 115.278 91.8135C115.278 71.6782 136.363 55.3964 162.438 55.3964ZM98.5605 199.138C117.898 190.564 139.981 186.132 162.438 186.132C184.894 186.132 206.977 190.66 226.315 199.138C234.798 202.895 237.668 211.181 232.927 217.732C229.683 222.164 223.695 224.572 217.582 224.572C214.587 224.572 211.593 223.994 208.848 222.742C194.875 216.576 178.781 213.3 162.562 213.3C146.344 213.3 130.25 216.576 116.276 222.742C107.793 226.499 97.0633 224.187 92.1977 217.636C87.2073 211.277 90.2016 202.895 98.5605 199.138ZM219.827 285.653C219.827 310.124 194.127 329.97 162.438 329.97C130.749 329.97 105.048 310.124 105.048 285.653C105.048 261.182 130.749 241.336 162.438 241.336C194.127 241.336 219.827 261.278 219.827 285.653ZM50.4031 236.422C55.2687 229.871 65.9981 227.559 74.4818 231.316C82.9655 235.074 85.8349 243.359 81.0941 249.91C73.1094 260.7 68.8676 273.128 68.8676 285.653C68.8676 298.177 73.1094 310.605 81.0941 321.396C85.9597 327.947 82.9655 336.232 74.4818 339.99C71.7371 341.242 68.7428 341.82 65.7486 341.82C59.6353 341.82 53.6468 339.315 50.4031 334.98C39.2994 320.047 33.5604 302.994 33.5604 285.653C33.5604 268.311 39.4242 251.355 50.4031 236.422ZM58.5125 467.738C39.5489 467.738 24.0787 455.792 24.0787 441.148C24.0787 426.504 39.5489 414.558 58.5125 414.558C77.476 414.558 92.9463 426.504 92.9463 441.148C92.9463 455.792 77.476 467.738 58.5125 467.738ZM195.624 605.892C195.624 613.022 191.881 619.38 185.893 624.005C179.904 628.629 171.545 631.519 162.438 631.519C144.098 631.519 129.251 620.055 129.251 605.892V517.065C129.251 502.903 144.098 491.438 162.438 491.438C180.777 491.438 195.624 502.903 195.624 517.065V605.892ZM162.438 467.738C143.474 467.738 128.004 455.792 128.004 441.148C128.004 426.504 143.474 414.558 162.438 414.558C181.401 414.558 196.871 426.504 196.871 441.148C196.871 455.792 181.401 467.738 162.438 467.738ZM226.315 372.168C206.977 380.742 184.894 385.174 162.438 385.174C139.981 385.174 117.898 380.646 98.5605 372.168C90.0768 368.41 87.2073 360.125 91.9482 353.574C96.8138 347.022 107.543 344.71 116.027 348.468C130 354.633 146.094 357.909 162.313 357.909C178.532 357.909 194.626 354.633 208.599 348.468C217.083 344.71 227.812 347.022 232.678 353.574C237.668 360.125 234.674 368.41 226.315 372.168ZM266.363 467.738C247.399 467.738 231.929 455.792 231.929 441.148C231.929 426.504 247.399 414.558 266.363 414.558C285.326 414.558 300.797 426.504 300.797 441.148C300.797 455.792 285.326 467.738 266.363 467.738Z" fill="black"/>
<path d="M162.438 113.876C178.033 113.876 190.633 104.049 190.633 92.1026C190.633 88.1526 189.261 84.2026 186.516 80.8306C185.768 79.8672 184.146 79.5782 182.898 80.1562C181.651 80.7343 181.276 81.9867 182.025 82.9501C184.146 85.7441 185.269 88.827 185.269 92.1026C185.269 101.833 174.914 109.829 162.313 109.829C149.712 109.829 139.357 101.833 139.357 92.1026C139.357 88.827 140.48 85.6477 142.601 82.9501C143.349 81.9867 142.975 80.7343 141.727 80.1562C140.48 79.5782 138.858 79.8672 138.109 80.8306C135.489 84.2026 133.992 88.1526 133.992 92.1026C134.242 104.049 146.843 113.876 162.438 113.876Z" fill="black"/>
<path d="M162.438 96.1489C163.935 96.1489 165.058 95.1855 165.058 94.1257V67.5354C165.058 66.3793 163.81 65.5123 162.438 65.5123C160.941 65.5123 159.818 66.3793 159.818 67.5354V94.1257C159.818 95.1855 160.941 96.1489 162.438 96.1489Z" fill="black"/>
<path d="M171.67 428.335C170.672 427.564 168.925 427.564 167.927 428.335L153.205 439.703C152.706 440.088 152.457 440.666 152.457 441.148C152.457 441.63 152.706 442.208 153.205 442.593L167.927 453.962C168.426 454.347 169.175 454.54 169.798 454.54C170.422 454.54 171.171 454.347 171.67 453.962C172.668 453.191 172.668 451.842 171.67 451.071L158.82 441.148L171.67 431.225C172.668 430.454 172.668 429.105 171.67 428.335Z" fill="black"/>
<path d="M71.238 439.318C71.238 439.221 71.2381 439.221 71.1133 439.125C71.1133 439.029 71.1133 439.029 70.9885 438.932C70.9885 438.836 70.9885 438.836 70.8638 438.836C70.8638 438.74 70.739 438.643 70.739 438.643L70.6142 438.547C70.4895 438.451 70.4895 438.451 70.3647 438.354L60.2592 430.84L60.1344 430.743C60.0096 430.743 60.0096 430.647 59.8849 430.647C59.7601 430.647 59.7601 430.551 59.6353 430.551C59.5106 430.551 59.5106 430.454 59.3859 430.454C59.2611 430.454 59.2611 430.454 59.1363 430.358C59.0116 430.358 59.0116 430.358 58.8868 430.358C58.762 430.358 58.762 430.358 58.6373 430.358C58.5125 430.358 58.5125 430.358 58.3878 430.358C58.263 430.358 58.263 430.358 58.1382 430.358C58.0135 430.358 58.0135 430.358 57.8887 430.358C57.7639 430.358 57.7639 430.358 57.6392 430.358C57.5144 430.358 57.5145 430.358 57.3897 430.454C57.2649 430.454 57.2649 430.551 57.1402 430.551C57.0154 430.551 57.0154 430.647 56.8907 430.647C56.7659 430.647 56.7659 430.743 56.6411 430.743L56.5163 430.84L46.4108 438.354C46.286 438.451 46.286 438.451 46.1613 438.547L46.0365 438.643C45.9117 438.74 45.9118 438.74 45.9118 438.836L45.787 438.932C45.787 439.029 45.787 439.029 45.6622 439.125C45.6622 439.221 45.5375 439.221 45.5375 439.318C45.5375 439.414 45.5375 439.414 45.5375 439.51C45.5375 439.607 45.5375 439.703 45.5375 439.799V450.012C45.5375 451.168 46.7851 452.035 48.1574 452.035H68.4933C69.9905 452.035 71.1133 451.071 71.1133 450.012V439.799C71.1133 439.703 71.1133 439.607 71.1133 439.51C71.2381 439.414 71.238 439.414 71.238 439.318ZM65.9981 447.892H51.0269V440.57L58.5125 434.982L65.9981 440.57V447.892Z" fill="black"/>
<path d="M277.217 432.863H255.509C254.011 432.863 252.889 433.73 252.889 434.886C252.889 436.042 254.011 436.909 255.509 436.909H277.217C278.714 436.909 279.837 436.042 279.837 434.886C279.837 433.73 278.714 432.863 277.217 432.863Z" fill="black"/>
<path d="M277.217 439.029H255.509C254.011 439.029 252.889 439.896 252.889 441.052C252.889 442.208 254.011 443.075 255.509 443.075H277.217C278.714 443.075 279.837 442.112 279.837 441.052C279.837 439.992 278.714 439.029 277.217 439.029Z" fill="black"/>
<path d="M277.217 445.291H255.509C254.011 445.291 252.889 446.254 252.889 447.314C252.889 448.47 254.011 449.337 255.509 449.337H277.217C278.714 449.337 279.837 448.47 279.837 447.314C279.837 446.254 278.714 445.291 277.217 445.291Z" fill="black"/>
<path d="M174.04 607.915H150.96C149.463 607.915 148.34 608.783 148.34 609.939C148.34 611.095 149.463 611.962 150.96 611.962H174.04C175.537 611.962 176.66 611.095 176.66 609.939C176.66 608.879 175.413 607.915 174.04 607.915Z" fill="black"/>
<path d="M174.04 519.859H165.182V512.923C165.182 511.767 163.935 510.899 162.562 510.899C161.065 510.899 159.942 511.767 159.942 512.923V519.859H150.96C149.463 519.859 148.34 520.726 148.34 521.882C148.34 523.038 149.463 523.906 150.96 523.906H159.942V530.746C159.942 531.902 161.065 532.769 162.562 532.769C164.06 532.769 165.182 531.902 165.182 530.746V523.906H174.04C175.537 523.906 176.66 522.942 176.66 521.882C176.66 520.823 175.413 519.859 174.04 519.859Z" fill="black"/>
</svg>
