<svg width="782" height="806" viewBox="0 0 782 806" fill="none" xmlns="http://www.w3.org/2000/svg">
<path d="M755.859 262.774C727.873 185.768 677.888 119.377 612.563 72.4548C547.24 25.5269 469.706 0.251917 390.192 0.00861455C311.045 -0.200269 233.747 24.7257 168.725 71.3756L120.659 21.6278C100.578 0.426598 70.002 -5.87431 43.6307 5.78816C17.0244 16.8589 -0.299193 43.6649 0.00391447 73.3603V278.519C0.0711837 332.34 42.1841 375.929 94.1911 376H292.417C321.008 376 346.774 358.176 357.705 330.847C368.671 303.519 362.616 272.047 342.401 251.125L286.295 193.057C318.418 175.964 354.073 167.051 390.195 167.121C437.051 167.225 482.764 182.195 521.178 209.976C559.557 237.792 588.821 277.095 605.001 322.635C615.764 351.426 641.026 371.756 670.659 375.412C700.327 379.067 729.49 365.49 746.544 340.112C761.68 317.483 765.179 288.589 755.861 262.791L755.859 262.774ZM40.3697 153.181C45.8189 153.181 50.7296 156.558 52.8152 161.78C54.8671 166.967 53.7234 172.955 49.8889 176.958C46.0206 180.927 40.2351 182.111 35.2235 179.987C30.1779 177.829 26.9152 172.746 26.9152 167.106C26.9152 159.413 32.936 153.181 40.3697 153.181ZM93.7511 335.917C91.9011 343.367 84.5683 347.857 77.3704 345.943C47.6693 338.005 26.915 310.259 26.915 278.51V222.809C26.915 215.115 32.936 208.883 40.3697 208.883C47.8035 208.883 53.8244 215.115 53.8244 222.809V278.51C53.8244 297.552 66.2699 314.228 84.0973 318.963C91.2956 320.913 95.6008 328.502 93.7511 335.917ZM296.007 69.6297C290.557 69.6297 285.647 66.2527 283.561 61.0308C281.509 55.8437 282.653 49.8559 286.487 45.8525C290.356 41.8838 296.141 40.7002 301.153 42.8238C306.198 44.9822 309.461 50.0649 309.461 55.7046C309.461 59.3947 308.048 62.9457 305.526 65.557C303.003 68.1682 299.572 69.6297 296.007 69.6297ZM523.897 69.2467C522.652 72.6932 520.13 75.5131 516.9 77.0449C513.638 78.5767 509.938 78.7159 506.608 77.4278C457.061 58.4199 403.844 51.7358 351.377 58.0019C343.977 58.8723 337.317 53.3718 336.476 45.7477C335.601 38.0888 340.916 31.1959 348.282 30.3252C404.993 23.5714 462.447 30.7777 515.964 51.3178C519.328 52.6059 522.053 55.2169 523.533 58.5938C525.013 61.9359 525.141 65.7655 523.897 69.2467Z" fill="black"/>
<path d="M687.443 430.017H488.435C459.731 430.017 433.863 447.842 422.888 475.17C411.879 502.499 417.958 533.972 438.253 554.894L494.58 612.963C462.33 630.057 426.535 638.97 390.269 638.9C343.228 638.796 297.335 623.826 258.77 596.044C220.239 568.228 190.859 528.924 174.616 483.383C163.809 454.592 138.448 434.261 108.697 430.605C78.9127 426.95 49.6346 440.527 32.5131 465.906C17.3169 488.535 13.8044 517.43 23.1592 543.228C51.2555 620.236 101.437 686.628 167.021 733.551C232.601 780.48 310.442 805.755 390.27 805.999C469.73 806.208 547.333 781.281 612.612 734.63L660.868 784.379C681.164 805.303 711.692 811.569 738.201 800.219C764.71 788.905 782 762.237 782 732.646V527.483C781.932 473.661 739.653 430.071 687.441 430L687.443 430.017ZM93.0975 457.868C98.5681 457.868 103.498 461.245 105.592 466.467C107.652 471.654 106.504 477.642 102.654 481.646C98.7707 485.614 92.9623 486.798 87.9308 484.674C82.8654 482.516 79.5898 477.433 79.5898 471.793C79.5898 464.1 85.6344 457.868 93.0975 457.868ZM146.521 662.852C143.955 665.428 140.476 666.821 136.897 666.751C133.317 666.682 129.906 665.15 127.407 662.504C92.7257 625.601 65.8449 581.666 48.4537 533.516C46.1573 527.11 44.9754 520.321 45.0091 513.497C45.0429 505.838 51.0876 499.641 58.517 499.641H58.5845C62.1641 499.676 65.6086 501.138 68.1079 503.784C70.6406 506.395 72.0589 509.946 72.0251 513.637C71.9914 517.118 72.5992 520.53 73.7811 523.768C89.8894 568.329 114.778 608.992 146.858 643.148C149.357 645.829 150.708 649.38 150.641 653.071C150.573 656.761 149.088 660.275 146.521 662.852ZM484.827 485.719C479.356 485.719 474.426 482.342 472.332 477.12C470.272 471.933 471.421 465.945 475.27 461.942C479.154 457.973 484.962 456.789 489.994 458.913C495.059 461.071 498.335 466.154 498.335 471.794C498.335 475.484 496.916 479.035 494.384 481.646C491.851 484.258 488.407 485.719 484.827 485.719ZM606.393 485.719H538.854C531.391 485.719 525.346 479.487 525.346 471.794C525.346 464.1 531.391 457.868 538.854 457.868H606.393C613.857 457.868 619.901 464.1 619.901 471.794C619.901 479.487 613.857 485.719 606.393 485.719Z" fill="black"/>
</svg>
