<svg width="824" height="827" viewBox="0 0 824 827" fill="none" xmlns="http://www.w3.org/2000/svg">
<path d="M25.8987 541.888C-8.63291 587.13 -8.63291 651.629 25.8987 696.879C36.0677 710.198 51.7242 721.971 70.2341 735.867L170.35 811.373C222.513 850.67 294.945 811.334 294.945 743.703C294.945 743.51 294.982 743.394 294.982 743.394C294.982 743.394 295.055 743.24 295.164 743.124C295.274 743.047 295.42 742.969 295.42 742.969C295.42 742.969 295.53 742.892 295.713 742.892L603.609 742.892C713.277 742.892 802.202 649.089 802.202 533.322V519.309C802.202 458.82 738.26 422.728 690.558 456.272C653.868 482.097 610.777 495.839 566.694 495.839L295.704 495.839C295.521 495.839 295.411 495.801 295.411 495.801C295.411 495.801 295.265 495.724 295.155 495.608C295.045 495.531 294.972 495.338 294.972 495.338C294.972 495.338 294.936 495.26 294.936 495.067C294.936 427.436 222.507 388.103 170.341 427.398L70.2247 502.864C51.7148 516.8 36.0592 528.535 25.8894 541.891L25.8987 541.888Z" fill="black"/>
<path d="M798.101 285.112C832.633 239.87 832.633 175.371 798.101 130.121C787.932 116.802 772.276 105.029 753.766 91.1327L653.65 15.6274C601.487 -23.6698 529.055 15.666 529.055 83.2971C529.055 83.4901 529.018 83.6059 529.018 83.6059C529.018 83.6059 528.945 83.7604 528.835 83.8762C528.726 83.9534 528.579 84.0306 528.579 84.0306C528.579 84.0306 528.47 84.1078 528.287 84.1078L220.391 84.1078C110.723 84.1078 21.7977 177.911 21.7977 293.678L21.7977 307.691C21.7977 368.18 85.7395 404.272 133.441 370.728C170.132 344.903 213.222 331.161 257.306 331.161L528.296 331.161C528.479 331.161 528.589 331.199 528.589 331.199C528.589 331.199 528.735 331.276 528.845 331.392C528.955 331.469 529.028 331.662 529.028 331.662C529.028 331.662 529.064 331.74 529.064 331.933C529.064 399.564 601.493 438.897 653.659 399.602L753.775 324.136C772.285 310.2 787.941 298.465 798.111 285.109L798.101 285.112Z" fill="black"/>
</svg>
