<svg width="794" height="805" viewBox="0 0 794 805" fill="none" xmlns="http://www.w3.org/2000/svg">
<path d="M331.462 194.956C418.418 163.421 534.463 188.123 571.613 276.167C575.487 265.371 576.333 253.698 574.057 242.445C549.616 148.692 418.844 118.717 333.926 153.216C317.035 159.171 298.687 159.367 281.676 153.774C264.665 148.181 249.925 137.105 239.703 122.235C237.4 118.735 215.114 87.1301 213.69 84.0318C210.773 102.033 214.938 120.475 225.292 135.399L247.989 168.267C257.157 181.295 270.261 190.946 285.32 195.76C300.379 200.575 316.576 200.293 331.462 194.956Z" fill="black"/>
<path d="M769.122 446.571L645.7 503.712C608.323 520.424 562.526 505.195 535.832 474.02L537.36 486.853C542.263 536.354 597.358 567.671 641.596 546.085L764.728 489.085C786.943 479.305 798.476 453.6 792.382 430.109C787.137 436.323 779.359 441.84 769.122 446.571Z" fill="black"/>
<path d="M641.6 494.623L765.03 437.483C776.524 432.163 784.438 425.771 788.099 418.901C783.569 410.432 776.739 403.456 768.418 398.798C763.939 396.247 760.332 392.375 758.077 387.696C755.822 383.017 755.026 377.754 755.795 372.606C773.394 258.668 730.938 151.741 639.323 79.2351C533.182 -4.75222 382.301 -23.7657 254.903 30.8114C246.462 34.4105 238.818 39.6862 232.422 46.3272C226.025 52.9682 221.006 60.84 217.66 69.4783C220.949 80.0101 241.673 106.925 247.791 116.502C256.764 129.572 269.705 139.313 284.644 144.243C299.583 149.173 315.703 149.021 330.549 143.812C391.044 120.979 459.508 125.145 513.608 154.992C565.937 184.406 603.197 237.473 575.588 292.297H575.57C575.079 293.307 574.263 294.117 573.257 294.595C572.251 295.073 571.114 295.19 570.034 294.927C567.012 294.2 563.916 293.833 560.81 293.833C537.126 293.342 516.289 316.349 519.935 340.567L533.287 452.571C553.574 491.548 604.953 511.588 641.6 494.623Z" fill="black"/>
<path d="M242.982 464.17C217.691 466.096 222.963 492.972 228.209 507.178C258.124 513.058 286.834 485.602 281.828 454.651L280.183 442.921C275.677 448.78 270.068 453.674 263.683 457.322C257.297 460.969 250.261 463.296 242.982 464.17Z" fill="black"/>
<path d="M27.4976 404.314C28.2871 398.814 29.5503 390.836 31.2246 382.862C31.7674 380.312 31.6411 377.662 30.8582 375.176C30.0753 372.69 28.6631 370.456 26.7624 368.696C17.99 360.588 9.89547 351.759 2.56185 342.297C-5.26872 365.951 5.36118 393.081 27.4976 404.314Z" fill="black"/>
<path d="M545.223 628.059C527.235 606.519 511.814 592.299 476.299 604.746C382.781 639.881 257.638 608.271 219.885 512.773C212.005 495.13 206.583 457.698 241.958 454.226C249.715 453.248 257.099 450.283 263.413 445.612C269.728 440.942 274.764 434.718 278.048 427.529L260.509 301.89C255.245 260.223 210.18 234.316 172.221 251.04L31.3266 310.822C21.3078 315.023 12.8807 322.365 7.28059 331.774C12.0306 339.212 23.399 352.144 33.3759 361.274C36.5578 364.211 38.9246 367.941 40.2405 372.094C41.5564 376.246 41.7755 380.676 40.8759 384.941C37.5245 401.445 35.1807 418.144 33.8578 434.941C49.3084 665.591 318.413 827.161 525.468 725.252C549.023 714.318 569.754 693.356 576.577 673.811C573.061 663.226 567.484 653.463 560.175 645.103L545.223 628.059Z" fill="black"/>
<path d="M529.575 734.357C335.025 827.966 89.6537 703.623 35.0552 498.135C58.7821 728.03 331.681 870.564 534.383 774.754C566.496 761.114 585.445 724.158 580.207 689.301C569.713 707.265 550.625 724.583 529.575 734.357Z" fill="black"/>
</svg>
