<svg width="814" height="799" viewBox="0 0 814 799" fill="none" xmlns="http://www.w3.org/2000/svg">
<path d="M813.999 664.681V717.877C814.194 756.48 791.772 790.049 760.155 798.44C754.481 799.186 748.729 799.186 743.055 798.44C716.72 798.347 692.733 780.398 681.267 752.191C634.31 640.622 542.625 565.51 438.344 553.3V649.249C437.6 681.233 421.987 709.998 397.843 723.939C373.699 737.833 345.056 734.569 323.572 715.407L26.8048 433.433C9.8612 417.301 0 392.872 0 367.043C0 341.213 9.8609 316.784 26.8048 300.652L323.572 18.6787C345.016 -1.69502 374.325 -5.75186 399.095 8.23522C424.373 21.8487 440.691 51.7803 440.848 84.8365V181.298C542.545 191.649 637.281 246.989 706.351 336.506C775.416 425.975 813.838 543.095 813.999 664.681Z" fill="black"/>
</svg>
