<svg width="809" height="593" viewBox="0 0 809 593" fill="none" xmlns="http://www.w3.org/2000/svg">
<path d="M15.0745 24.4682C27.1342 9.6461 45.2236 0.117637 63.313 0.117637C284.406 0.117637 506.504 0.117637 727.597 0.117637C739.657 0.117637 752.722 -0.941089 764.781 3.29379C789.906 11.7635 807.995 37.1728 809 64.6995C809 86.9326 809 109.166 809 131.399C539.668 131.399 269.332 131.399 1.44752e-06 131.399C1.44752e-06 110.224 1.44752e-06 89.05 1.44752e-06 67.8756C1.44752e-06 51.9948 5.02485 36.1141 15.0745 24.4682Z" fill="black"/>
<path d="M0 237.271C269.332 237.271 539.668 237.271 809 237.271C809 326.203 809 415.135 809 503.009C809 511.479 809 519.948 809 528.418C807.995 545.358 800.96 561.238 789.906 572.884C777.846 585.589 761.766 591.941 745.687 593C518.564 593 291.441 593 64.318 593C49.2435 593 34.1689 587.706 23.1143 577.119C9.04472 564.415 0 545.358 0 525.242C0 428.899 0 333.614 0 237.271ZM530.624 300.794C507.509 312.44 491.43 336.79 488.415 363.258C487.41 373.845 487.41 384.432 489.42 395.02C491.43 403.489 494.445 411.959 497.46 420.429C506.504 440.545 520.574 457.484 535.648 472.306C548.713 485.011 562.783 495.598 578.862 505.126C591.927 512.537 603.986 519.948 618.056 525.242C634.135 518.89 649.21 511.479 664.284 503.009C689.409 488.187 713.528 469.13 731.617 444.779C740.662 432.075 747.697 417.253 751.717 402.431C754.732 392.902 754.732 383.374 754.732 373.845C754.732 355.847 747.697 337.849 737.647 324.085C728.602 312.44 715.538 303.97 702.473 298.676C676.344 289.148 645.19 296.559 624.086 317.733C611.021 303.97 592.932 294.441 574.842 292.324C558.763 290.206 543.688 293.383 530.624 300.794ZM88.4373 345.26C83.4124 345.26 77.3826 349.495 75.3727 354.788C72.3578 360.082 73.3627 366.434 76.3776 371.728C79.3925 375.963 84.4174 379.139 89.4422 379.139C154.765 379.139 219.083 379.139 284.406 379.139C291.441 379.139 298.476 372.787 299.481 365.376C300.486 357.965 296.466 350.553 290.436 347.377C286.416 345.26 282.396 345.26 278.376 345.26C216.068 345.26 152.755 345.26 88.4373 345.26ZM88.4373 429.957C81.4025 431.016 74.3677 436.31 74.3677 444.779C73.3627 452.19 77.3826 459.601 83.4124 462.778C87.4323 464.895 91.4522 463.836 95.472 463.836C174.865 463.836 253.252 463.836 332.645 463.836C338.675 463.836 344.704 460.66 347.719 454.308C350.734 447.956 349.729 440.545 345.709 435.251C342.694 431.016 337.67 428.899 331.64 428.899C251.242 429.957 168.835 428.899 88.4373 429.957Z" fill="black"/>
<path d="M538.663 334.673C547.708 328.32 557.758 325.144 568.812 326.203C582.882 327.262 595.947 334.673 602.981 346.319C605.996 350.553 607.001 354.788 611.021 357.964C616.046 362.199 625.091 363.258 630.116 357.964C634.135 354.788 636.145 349.495 639.16 346.319C647.2 335.731 658.255 329.379 671.319 327.262C680.364 326.203 690.414 328.32 698.453 333.614C708.503 338.908 716.543 349.495 719.558 361.141C721.568 368.552 721.568 375.963 720.563 383.374C720.563 390.785 717.548 398.196 714.533 405.607C708.503 419.37 699.458 431.016 689.409 440.544C668.304 461.719 643.18 476.541 616.046 488.187C601.976 480.776 587.907 473.365 574.842 462.778C559.768 452.19 546.703 439.486 535.648 423.605C527.609 413.018 522.584 400.313 519.569 386.55C518.564 380.198 518.564 372.787 518.564 366.434C522.584 353.73 529.619 342.084 538.663 334.673Z" fill="black"/>
</svg>
