<svg width="810" height="816" viewBox="0 0 810 816" fill="none" xmlns="http://www.w3.org/2000/svg">
<path fill-rule="evenodd" clip-rule="evenodd" d="M810 281.053H0V765.244C0 779.205 5.66994 791.904 14.8405 801.083C24.0114 810.301 36.6072 816 50.4969 816H759.466C773.356 816 785.99 810.301 795.123 801.083C804.293 791.865 809.963 779.205 809.963 765.244L810 281.053ZM0 263.344H810V157.016C810 143.055 804.33 130.356 795.16 121.176C785.989 111.958 773.393 106.26 759.503 106.26H719.319C717.987 128.903 711.518 149.366 701.738 164.781C689.98 183.331 673.35 194.844 654.666 194.844C649.795 194.844 645.876 190.866 645.876 186.009C645.876 181.113 649.833 177.173 654.666 177.173C666.957 177.173 678.412 168.835 686.935 155.333C695.003 142.596 700.368 125.499 701.662 106.298L598.615 106.26H552.875C551.543 128.903 545.074 149.366 535.294 164.781C523.536 183.331 506.906 194.844 488.222 194.844C483.351 194.844 479.432 190.867 479.432 186.009C479.432 181.113 483.389 177.173 488.222 177.173C500.513 177.173 511.967 168.835 520.491 155.333C528.559 142.596 533.924 125.499 535.218 106.298L432.171 106.26H386.43C385.099 128.903 378.63 149.366 368.85 164.781C357.091 183.331 340.461 194.845 321.778 194.845C316.907 194.845 312.988 190.867 312.988 186.009C312.988 181.113 316.945 177.174 321.778 177.174C334.069 177.174 345.523 168.835 354.047 155.333C362.114 142.596 367.48 125.499 368.774 106.298L265.726 106.26H219.986C218.654 128.903 212.185 149.366 202.406 164.781C190.647 183.332 174.017 194.845 155.334 194.845C150.463 194.845 146.543 190.867 146.543 186.009C146.543 181.113 150.501 177.174 155.334 177.174C167.625 177.174 179.079 168.836 187.603 155.333C195.67 142.596 201.036 125.499 202.33 106.298L99.2822 106.26H50.5359C36.6462 106.26 24.0122 111.959 14.8794 121.177C5.70852 130.395 0.0389731 143.055 0.0389731 157.016L0 263.344ZM226.299 354.568V503.588H78.0405V354.568H226.299ZM69.2145 336.896H235.086C239.957 336.896 243.876 340.874 243.876 345.732V512.455C243.876 517.351 239.919 521.291 235.086 521.291H69.2145C64.3437 521.291 60.4242 517.313 60.4242 512.455V345.732C60.4242 340.836 64.3818 336.896 69.2145 336.896ZM483.011 354.568V503.588H334.753V354.568H483.011ZM325.966 336.896H491.837C496.708 336.896 500.628 340.874 500.628 345.732V512.455C500.628 517.351 496.67 521.291 491.837 521.291H325.966C321.095 521.291 317.176 517.313 317.176 512.455V345.732C317.176 340.836 321.095 336.896 325.966 336.896ZM739.763 354.568V503.588H591.504V354.568H739.763ZM582.678 336.896H748.55C753.42 336.896 757.34 340.874 757.34 345.732V512.455C757.34 517.351 753.382 521.291 748.55 521.291H582.678C577.807 521.291 573.888 517.313 573.888 512.455V345.732C573.888 340.836 577.807 336.896 582.678 336.896ZM226.309 593.048V742.068H78.0502V593.048H226.309ZM69.2243 575.338H235.096C239.966 575.338 243.886 579.316 243.886 584.174V750.897C243.886 755.793 239.928 759.733 235.096 759.733H69.2243C64.3534 759.733 60.434 755.755 60.434 750.897V584.174C60.434 579.316 64.3915 575.338 69.2243 575.338ZM483.021 593.048V742.068H334.763V593.048H483.021ZM325.976 575.338H491.847C496.718 575.338 500.637 579.316 500.637 584.174V750.897C500.637 755.793 496.68 759.733 491.847 759.733H325.976C321.105 759.733 317.185 755.755 317.185 750.897V584.174C317.185 579.316 321.105 575.338 325.976 575.338ZM677.932 641.241C679.036 644.684 681.129 647.553 683.869 649.542C686.57 651.53 689.919 652.64 693.496 652.64L733.566 652.563L701.107 676.163C698.215 678.267 696.16 681.174 695.133 684.387C694.067 687.638 694.029 691.157 695.171 694.561L707.614 732.849L675.231 709.096C672.301 706.954 668.952 705.883 665.603 705.883C662.255 705.883 658.906 706.954 655.976 709.096L623.593 732.849L636.036 694.561C637.139 691.157 637.101 687.6 636.074 684.387C635.008 681.135 632.991 678.267 630.099 676.163L597.64 652.563L637.71 652.64C641.287 652.64 644.636 651.53 647.338 649.542C650.078 647.553 652.171 644.684 653.274 641.241L665.565 602.954L677.932 641.241ZM681.205 594.004L694.372 635.045L737.295 634.969C740.872 634.969 744.221 636.078 746.923 638.067C749.663 640.056 751.756 642.886 752.859 646.329C753.963 649.733 753.925 653.29 752.897 656.503C751.832 659.754 749.815 662.623 746.923 664.727L712.18 690.009L725.499 730.973C726.603 734.378 726.565 737.897 725.537 741.11C724.472 744.361 722.455 747.268 719.563 749.372C716.709 751.475 713.322 752.508 709.935 752.508C706.548 752.508 703.2 751.437 700.308 749.333L665.641 723.897L630.974 749.333C628.082 751.437 624.734 752.508 621.347 752.508C617.96 752.508 614.611 751.475 611.719 749.372C608.827 747.268 606.811 744.361 605.745 741.11C604.718 737.897 604.68 734.34 605.783 730.973L619.102 690.009L584.359 664.727C581.467 662.623 579.412 659.754 578.385 656.503C577.319 653.29 577.281 649.733 578.423 646.329C579.527 642.886 581.619 640.056 584.359 638.067C587.061 636.078 590.41 634.969 593.987 634.969L636.911 635.045L650.077 594.004C651.181 590.6 653.274 587.731 656.014 585.742C658.792 583.715 662.102 582.568 665.641 582.568C669.18 582.568 672.529 583.715 675.269 585.742C678.009 587.731 680.101 590.562 681.205 594.004ZM590.067 88.5464C591.399 65.9031 597.868 45.4786 607.648 30.0635C619.406 11.5131 636.036 0 654.719 0C673.404 0 690.033 11.4749 701.791 30.0635C712.826 47.4663 719.638 71.2954 719.638 97.4197C719.638 100.403 719.562 103.348 719.371 106.255H701.715C701.905 103.348 702.019 100.403 702.019 97.4197C702.019 74.6236 696.273 54.1981 686.988 39.5487C678.464 26.0851 667.009 17.7465 654.718 17.7465C642.427 17.7465 630.973 26.0847 622.449 39.5487C614.382 52.2858 609.016 69.3831 607.723 88.5836L590.067 88.5464ZM423.582 88.5464C424.914 65.9031 431.383 45.4786 441.162 30.0635C452.921 11.5131 469.551 0 488.234 0C506.918 0 523.548 11.4749 535.306 30.0635C546.341 47.4663 553.153 71.2954 553.153 97.4197C553.153 100.403 553.077 103.348 552.886 106.255H535.23C535.42 103.348 535.534 100.403 535.534 97.4197C535.534 74.6236 529.788 54.1981 520.503 39.5487C511.941 26.0851 500.524 17.7465 488.233 17.7465C475.942 17.7465 464.488 26.0847 455.964 39.5487C447.897 52.2858 442.531 69.3831 441.238 88.5836L423.582 88.5464ZM257.136 88.5464C258.467 65.9031 264.937 45.4786 274.716 30.0635C286.475 11.5131 303.105 0 321.788 0C340.472 0 357.102 11.4749 368.86 30.0635C379.895 47.4663 386.707 71.2954 386.707 97.4197C386.707 100.403 386.63 103.348 386.44 106.255H368.783C368.974 103.348 369.088 100.403 369.088 97.4197C369.088 74.6236 363.342 54.1981 354.056 39.5487C345.532 26.0851 334.078 17.7465 321.787 17.7465C309.496 17.7465 298.042 26.0847 289.518 39.5487C281.451 52.2858 276.085 69.3831 274.791 88.5836L257.136 88.5464ZM90.6895 88.5464C92.0213 65.9031 98.4904 45.4786 108.27 30.0635C120.028 11.5131 136.658 0 155.342 0C174.026 0 190.656 11.4749 202.414 30.0635C213.449 47.4663 220.26 71.2954 220.26 97.4197C220.26 100.403 220.177 103.353 219.986 106.26L202.337 106.255C202.528 103.348 202.642 100.403 202.642 97.4197C202.642 74.6236 196.896 54.1981 187.61 39.5487C179.086 26.0851 167.632 17.7465 155.341 17.7465C143.05 17.7465 131.596 26.0847 123.072 39.5487C115.005 52.2858 109.639 69.3831 108.345 88.5836L90.6895 88.5464Z" fill="black"/>
</svg>
