<svg width="681" height="834" viewBox="0 0 681 834" fill="none" xmlns="http://www.w3.org/2000/svg">
<path d="M170.598 623.004L235.253 487.908C272.512 409.44 352.109 356.393 439.733 349.341V241.101C439.661 226.666 427.961 214.527 405.425 204.614V141.936C405.425 130.98 396.497 122.632 382.529 116.163C335.011 -37.925 110.304 -38.9311 61.0547 114.424C44.7833 121.067 34.1989 129.971 34.1989 141.832V204.37C13.4634 213.517 0.0359416 225.448 0 240.996V753.862C0 779.044 19.0076 804.922 42.3355 811.739C77.0385 821.896 135.931 834 219.887 834C290.734 834 343.867 825.374 379.726 816.469C372.022 813.235 364.354 810.069 356.686 806.591C284.436 772.4 138.383 702.839 170.638 622.941L170.598 623.004ZM405.417 236.052C408.693 238.278 410.349 240.052 410.853 241.096C409.809 243.078 407.361 244.887 405.417 246.174V236.052ZM34.1583 246.174C30.8104 243.878 29.1905 242.139 28.8305 241.235C29.3345 239.704 31.1345 237.861 34.1583 235.843V246.209V246.174ZM221.571 27.1472C292.993 27.1472 351.781 79.4596 359.559 146.482C354.987 147.838 349.552 149.195 343.288 150.516C335.26 92.4653 283.781 47.4945 221.538 47.4945C213.582 47.4945 207.138 53.7205 207.138 61.4073C207.138 69.0942 213.582 75.3202 221.538 75.3202C269.596 75.3202 309.303 110.346 314.958 155.319C261.031 165.476 118.33 160.711 83.2269 147.424C90.5708 79.9466 149.79 27.181 221.574 27.181L221.571 27.1472ZM62.9577 170.14C108.245 187.392 188.274 188.784 219.774 188.888C251.129 188.888 332.096 187.149 376.59 170.14V258.591C291.092 283.217 148.425 283.252 62.9669 258.557L62.9577 170.14Z" fill="black"/>
<path d="M553.128 395.705C443.045 346.593 312.153 393.166 261.355 499.528L196.773 634.659C168.874 713.024 471.192 837.337 550.503 832.36C574.73 832.36 589.742 825.856 596.006 812.812C596.006 812.778 660.624 677.611 660.624 677.611C712.391 574.936 661.524 441.408 553.205 395.702L553.128 395.705ZM380.838 756.184C265.604 704.776 221.184 656.635 222.732 646.555C229.896 638.486 296.602 639.912 411.84 691.319C426.24 697.754 439.524 704.119 451.763 710.38C537.117 754.031 570.997 791.874 569.808 801.025C562.212 809.025 495.614 807.39 380.847 756.156L380.838 756.184Z" fill="black"/>
</svg>
