<svg width="473" height="470" viewBox="0 0 473 470" fill="none" xmlns="http://www.w3.org/2000/svg">
<path fill-rule="evenodd" clip-rule="evenodd" d="M355.097 109.812L361.879 116.549L80.7172 395.671C83.966 396.088 86.9485 396.996 89.6464 398.283C94.9662 400.781 99.2024 404.773 102.015 409.334C104.769 413.838 106.137 418.91 105.776 423.735C105.643 425.381 105.32 427.009 104.769 428.598L50.4134 446.992L48.0386 447.787L21.7448 421.654L22.5617 419.326L41.0475 365.301C42.6243 364.752 44.2772 364.43 45.9301 364.298C50.7937 363.938 55.9044 365.301 60.4261 368.045C65.0428 370.846 69.0323 375.047 71.5405 380.345C72.7754 382.9 73.6493 385.72 74.1053 388.748L355.097 109.812ZM455.73 93.9924C466.464 83.3196 471.974 69.1079 472.126 54.8585C472.373 24.3535 448.093 0 417.371 0C403.217 0 389.101 5.31775 378.367 15.9905L218.894 174.457L33.8079 358.299C33.181 358.923 32.763 359.661 32.554 360.437L13.4604 416.226L1.92821 449.967C0.997259 452.711 0.123361 456.173 0.00935691 459.05C-0.218626 465.73 3.73305 469.572 10.3825 469.363C12.8143 469.288 15.7972 468.663 19.4449 467.49L53.5094 456.003L107.617 437.723C109.935 436.834 111.227 436.663 112.253 435.263L196.909 351.149L455.73 93.9924ZM397.464 138.368L425.981 110.078L361.635 46.1748L333.156 74.4654L397.464 138.368Z" fill="black"/>
</svg>
