<svg width="613" height="810" viewBox="0 0 613 810" fill="none" xmlns="http://www.w3.org/2000/svg">
<path d="M19.619 0C17.0314 0 14.9434 1.68981 14.9434 3.72636V76.9102C14.9434 78.9901 17.0316 80.6366 19.619 80.6366H25.248C27.8356 80.6366 29.9237 78.9468 29.9237 76.9102V3.72636C29.9237 1.64655 27.8354 0 25.248 0H19.619ZM35.0983 0C32.5107 0 30.4227 1.68981 30.4227 3.72636V76.9102C30.4227 78.9901 32.5109 80.6366 35.0983 80.6366H40.7273C43.3149 80.6366 45.403 78.9468 45.403 76.9102V3.72636C45.403 1.64655 43.3148 0 40.7273 0H35.0983ZM50.5776 0C47.9901 0 45.902 1.68981 45.902 3.72636V76.9102C45.902 78.9901 47.9902 80.6366 50.5776 80.6366H56.2067C58.7942 80.6366 60.8823 78.9468 60.8823 76.9102V3.72636C60.8823 1.64655 58.7941 0 56.2067 0H50.5776ZM66.0569 0C63.4694 0 61.3813 1.68981 61.3813 3.72636V76.9102C61.3813 78.9901 63.4695 80.6366 66.0569 80.6366H71.686C74.2735 80.6366 76.3616 78.9468 76.3616 76.9102V3.72636C76.3616 1.64655 74.2734 0 71.686 0H66.0569ZM81.5362 0C78.9487 0 76.8606 1.68981 76.8606 3.72636V76.9102C76.8606 78.9901 78.9488 80.6366 81.5362 80.6366H87.1653C89.7528 80.6366 91.8409 78.9468 91.8409 76.9102L91.7955 3.72636C91.7955 1.64655 89.7073 0 87.1199 0H81.5362ZM97.0156 0C94.428 0 92.3399 1.68981 92.3399 3.72636V76.9102C92.3399 78.9901 94.4281 80.6366 97.0156 80.6366H102.599C105.187 80.6366 107.275 78.9468 107.275 76.9102V3.72636C107.275 1.64655 105.187 0 102.599 0H97.0156ZM112.495 0C109.907 0 107.819 1.68981 107.819 3.72636V76.9102C107.819 78.9901 109.907 80.6366 112.495 80.6366H118.124C120.711 80.6366 122.799 78.9468 122.799 76.9102L122.754 3.72636C122.754 1.64655 120.666 0 118.078 0H112.495ZM127.974 0C125.387 0 123.299 1.68981 123.299 3.72636V76.9102C123.299 78.9901 125.387 80.6366 127.974 80.6366H133.603C136.191 80.6366 138.279 78.9468 138.279 76.9102L138.233 3.72636C138.233 1.64655 136.145 0 133.558 0H127.974ZM143.453 0C140.866 0 138.778 1.68981 138.778 3.72636V76.9102C138.778 78.9901 140.866 80.6366 143.453 80.6366H149.083C151.67 80.6366 153.758 78.9468 153.758 76.9102L153.713 3.72636C153.713 1.64655 151.625 0 149.037 0H143.453ZM158.933 0C156.345 0 154.257 1.68981 154.257 3.72636V76.9102C154.257 78.9901 156.345 80.6366 158.933 80.6366H164.562C167.149 80.6366 169.237 78.9468 169.237 76.9102L169.192 3.72636C169.192 1.64655 167.104 0 164.516 0H158.933ZM174.412 0C171.825 0 169.736 1.68981 169.736 3.72636V76.9102C169.736 78.9901 171.825 80.6366 174.412 80.6366H180.041C182.629 80.6366 184.717 78.9468 184.717 76.9102L184.626 3.72636C184.626 1.64655 182.538 0 179.95 0H174.412ZM189.891 0C187.304 0 185.216 1.68981 185.216 3.72636V76.9102C185.216 78.9901 187.304 80.6366 189.891 80.6366H195.52C198.108 80.6366 200.196 78.9468 200.196 76.9102L200.105 3.72636C200.105 1.64655 198.017 0 195.43 0H189.891ZM205.371 0C202.783 0 200.695 1.68981 200.695 3.72636V76.9102C200.695 78.9901 202.783 80.6366 205.371 80.6366H211C213.587 80.6366 215.675 78.9468 215.675 76.9102L215.585 3.72636C215.585 1.64655 213.496 0 210.909 0H205.371ZM220.85 0C218.262 0 216.174 1.68981 216.174 3.72636V76.9102C216.174 78.9901 218.263 80.6366 220.85 80.6366H226.479C229.067 80.6366 231.155 78.9468 231.155 76.9102L231.064 3.72636C231.064 1.64655 228.976 0 226.388 0H220.85ZM236.329 0C233.742 0 231.654 1.68981 231.654 3.72636V76.9102C231.654 78.9901 233.742 80.6366 236.329 80.6366H241.958C244.546 80.6366 246.634 78.9468 246.634 76.9102L246.543 3.72636C246.543 1.64655 244.455 0 241.867 0H236.329ZM251.809 0C249.221 0 247.133 1.68981 247.133 3.72636V76.9102C247.133 78.9901 249.221 80.6366 251.809 80.6366H257.438C260.025 80.6366 262.113 78.9468 262.113 76.9102L261.977 3.72636C261.977 1.64655 259.889 0 257.302 0H251.809ZM267.288 0C264.7 0 262.612 1.68981 262.612 3.72636V76.9102C262.612 78.9901 264.701 80.6366 267.288 80.6366H272.917C275.505 80.6366 277.593 78.9468 277.593 76.9102L277.456 3.72636C277.456 1.64655 275.368 0 272.781 0H267.288ZM282.767 0C280.18 0 278.092 1.68981 278.092 3.72636V76.9102C278.092 78.9901 280.18 80.6366 282.767 80.6366H288.396C290.984 80.6366 293.072 78.9468 293.072 76.9102L292.936 3.72636C292.936 1.64655 290.848 0 288.26 0H282.767ZM298.247 0C295.659 0 293.571 1.68981 293.571 3.72636V76.9102C293.571 78.9901 295.659 80.6366 298.247 80.6366H303.876C306.463 80.6366 308.551 78.9468 308.551 76.9102L308.415 3.72636C308.415 1.64655 306.327 0 303.739 0H298.247ZM313.726 0C311.138 0 309.05 1.68981 309.05 3.72636V76.9102C309.05 78.9901 311.138 80.6366 313.726 80.6366H319.355C321.943 80.6366 324.031 78.9468 324.031 76.9102L323.894 3.72636C323.894 1.64655 321.806 0 319.219 0H313.726ZM329.205 0C326.618 0 324.53 1.68981 324.53 3.72636V76.9102C324.53 78.9901 326.618 80.6366 329.205 80.6366H334.834C337.422 80.6366 339.51 78.9468 339.51 76.9102L339.328 3.72636C339.328 1.64655 337.24 0 334.653 0H329.205ZM344.685 0C342.097 0 340.009 1.68981 340.009 3.72636V76.9102C340.009 78.9901 342.097 80.6366 344.685 80.6366H350.314C352.901 80.6366 354.989 78.9468 354.989 76.9102L354.808 3.72636C354.808 1.64655 352.719 0 350.132 0H344.685ZM360.164 0C357.576 0 355.488 1.68981 355.488 3.72636V76.9102C355.488 78.9901 357.576 80.6366 360.164 80.6366H365.793C368.38 80.6366 370.468 78.9468 370.468 76.9102L370.287 3.72636C370.287 1.64655 368.199 0 365.611 0H360.164ZM375.643 0C373.056 0 370.968 1.68981 370.968 3.72636V76.9102C370.968 78.9901 373.056 80.6366 375.643 80.6366H381.272C383.86 80.6366 385.948 78.9468 385.948 76.9102L385.766 3.72636C385.766 1.64655 383.678 0 381.091 0H375.643ZM391.122 0C388.535 0 386.447 1.68981 386.447 3.72636V76.9102C386.447 78.9901 388.535 80.6366 391.122 80.6366H396.752C399.339 80.6366 401.427 78.9468 401.427 76.9102L401.246 3.72636C401.246 1.64655 399.157 0 396.57 0H391.122ZM406.602 0C404.014 0 401.926 1.68981 401.926 3.72636V76.9102C401.926 78.9901 404.014 80.6366 406.602 80.6366H412.231C414.818 80.6366 416.906 78.9468 416.906 76.9102L416.68 3.72636C416.68 1.64655 414.591 0 412.004 0H406.602ZM422.081 0C419.494 0 417.405 1.68981 417.405 3.72636V76.9102C417.405 78.9901 419.494 80.6366 422.081 80.6366H427.71C430.298 80.6366 432.386 78.9468 432.386 76.9102L432.159 3.72636C432.159 1.64655 430.071 0 427.483 0H422.081ZM437.56 0C434.973 0 432.885 1.68981 432.885 3.72636V76.9102C432.885 78.9901 434.973 80.6366 437.56 80.6366H443.189C445.777 80.6366 447.865 78.9468 447.865 76.9102L447.638 3.72636C447.638 1.64655 445.55 0 442.962 0H437.56ZM453.04 0C450.452 0 448.364 1.68981 448.364 3.72636V76.9102C448.364 78.9901 450.452 80.6366 453.04 80.6366H458.669C461.256 80.6366 463.344 78.9468 463.344 76.9102L463.117 3.72636C463.117 1.64655 461.029 0 458.442 0H453.04ZM468.519 0C465.931 0 463.843 1.68981 463.843 3.72636V76.9102C463.843 78.9901 465.932 80.6366 468.519 80.6366H474.148C476.736 80.6366 478.824 78.9468 478.824 76.9102L478.597 3.72636C478.597 1.64655 476.509 0 473.921 0H468.519ZM483.998 0C481.411 0 479.323 1.68981 479.323 3.72636V76.9102C479.323 78.9901 481.411 80.6366 483.998 80.6366H489.627C492.215 80.6366 494.303 78.9468 494.303 76.9102L494.031 3.72636C494.031 1.64655 491.942 0 489.355 0H483.998ZM499.478 0C496.89 0 494.802 1.68981 494.802 3.72636V76.9102C494.802 78.9901 496.89 80.6366 499.478 80.6366H505.107C507.694 80.6366 509.782 78.9468 509.782 76.9102L509.51 3.72636C509.51 1.64655 507.422 0 504.834 0H499.478ZM514.957 0C512.369 0 510.281 1.68981 510.281 3.72636V76.9102C510.281 78.9901 512.37 80.6366 514.957 80.6366H520.586C523.174 80.6366 525.262 78.9468 525.262 76.9102L524.989 3.72636C524.989 1.64655 522.901 0 520.314 0H514.957ZM530.436 0C527.849 0 525.761 1.68981 525.761 3.72636V76.9102C525.761 78.9901 527.849 80.6366 530.436 80.6366H536.065C538.653 80.6366 540.741 78.9468 540.741 76.9102L540.469 3.72636C540.469 1.64655 538.38 0 535.793 0H530.436ZM545.916 0C543.328 0 541.24 1.68981 541.24 3.72636V76.9102C541.24 78.9901 543.328 80.6366 545.916 80.6366H551.545C554.132 80.6366 556.22 78.9468 556.22 76.9102L555.948 3.72636C555.948 1.64655 553.86 0 551.272 0H545.916ZM561.395 0C558.807 0 556.719 1.68981 556.719 3.72636V76.9102C556.719 78.9901 558.807 80.6366 561.395 80.6366H567.024C569.612 80.6366 571.7 78.9468 571.7 76.9102L571.427 3.72636C571.427 1.64655 569.339 0 566.752 0H561.395ZM576.874 0C574.287 0 572.199 1.68981 572.199 3.72636V76.9102C572.199 78.9901 574.287 80.6366 576.874 80.6366H582.503C585.091 80.6366 587.179 78.9468 587.179 76.9102L586.861 3.72636C586.861 1.64655 584.773 0 582.186 0H576.874ZM592.354 0C589.766 0 587.678 1.68981 587.678 3.72636V76.9102C587.678 78.9901 589.766 80.6366 592.354 80.6366H597.983C600.57 80.6366 602.658 78.9468 602.658 76.9102L602.34 3.72636C602.34 1.64655 600.252 0 597.665 0H592.354ZM8.12572 1.29991C3.58628 2.85972 0 6.0228 0 10.0958V70.6267C0 74.6996 3.58617 77.8626 7.808 79.4226C10.8948 80.5925 14.4356 78.7726 14.4356 76.0428V4.67919C14.4356 1.94947 10.8948 0.129562 7.808 1.29947L8.12572 1.29991ZM19.9281 3.72636H25.2393V76.9102H19.6103L19.9281 3.72636ZM35.4074 3.72636H40.7186V76.9102H35.0896L35.4074 3.72636ZM50.8867 3.72636H56.1979V76.9102H50.5689L50.8867 3.72636ZM66.3661 3.72636H71.6772V76.9102H66.0482L66.3661 3.72636ZM81.8454 3.72636H87.4744L87.1566 76.9102H81.5276L81.8454 3.72636ZM97.3247 3.72636H102.59V76.9102H97.0068L97.3247 3.72636ZM112.804 3.72636H118.07V76.9102H112.441L112.804 3.72636ZM128.283 3.72636H133.549V76.9102H127.92L128.283 3.72636ZM143.763 3.72636H149.392L149.028 76.9102H143.399L143.763 3.72636ZM159.242 3.72636H164.508V76.9102H158.879L159.242 3.72636ZM174.721 3.72636H180.35V76.9102H174.721V3.72636ZM190.201 3.72636H195.829V76.9102H190.201V3.72636ZM205.68 3.72636H211.309L210.9 76.9102H205.271L205.68 3.72636ZM221.159 3.72636H226.788V76.9102H221.159V3.72636ZM236.638 3.72636H242.268V76.9102H236.638V3.72636ZM252.118 3.72636H257.747L257.293 76.9102H251.664L252.118 3.72636ZM267.597 3.72636H273.226V76.9102H267.597V3.72636ZM283.076 3.72636H288.705V76.9102H283.076V3.72636ZM298.556 3.72636H304.185V76.9102H298.556V3.72636ZM314.035 3.72636H319.664V76.9102H314.035V3.72636ZM329.514 3.72636H335.143V76.9102H329.514V3.72636ZM344.994 3.72636H350.623V76.9102H344.994V3.72636ZM360.473 3.72636H366.102V76.9102H360.473V3.72636ZM375.952 3.72636H381.581V76.9102H375.952V3.72636ZM391.432 3.72636H397.061V76.9102H391.432V3.72636ZM406.911 3.72636H412.54V76.9102H406.911V3.72636ZM422.39 3.72636H428.019V76.9102H422.39V3.72636ZM437.87 3.72636H443.498V76.9102H437.87V3.72636ZM453.349 3.72636H458.978V76.9102H453.349V3.72636ZM468.828 3.72636H474.457V76.9102H468.828V3.72636ZM484.307 3.72636H489.937V76.9102H484.307V3.72636ZM499.787 3.72636H505.416V76.9102H499.787V3.72636ZM515.266 3.72636H520.895L520.305 76.9102H514.676L515.266 3.72636ZM530.745 3.72636H536.374V76.9102H530.745V3.72636ZM546.225 3.72636H551.854V76.9102H545.635L546.225 3.72636ZM561.704 3.72636H567.333V76.9102H561.704V3.72636ZM577.183 3.72636H582.812V76.9102H577.183V3.72636ZM592.663 3.72636H598.292V76.9102H592.663V3.72636ZM606.962 4.073C604.92 4.50629 603.467 5.97954 603.467 7.71261L602.832 73.0098C602.832 76.8662 609.232 78.2094 611.593 74.8297C612.455 73.6164 613 72.1432 613 70.6267V10.0958C613 8.53588 612.455 7.10608 611.593 5.8928C610.549 4.41963 608.415 3.68299 606.327 4.073H606.962ZM9.78871 4.6796V76C6.70191 74.8734 4.65903 72.8803 4.65903 70.5838V10.0962C4.65903 7.79977 6.70179 5.84951 9.78871 4.6796ZM607.555 7.66932C608.054 8.40592 608.372 9.22912 608.372 10.0524L608.327 70.5833C608.327 71.4499 608.009 72.2298 607.51 72.9663L607.555 7.66932ZM30.9507 77.5599V89.1292H582.047V77.5599H30.9507ZM30.9507 92.2916V702.237C30.9507 706.743 31.6317 711.076 32.7665 715.279C32.7211 715.496 32.6757 715.669 32.6303 715.886C39.8481 719.136 58.6419 726.718 92.1432 734.388C136.313 744.484 205.676 754.622 306.494 754.622C407.272 754.622 476.686 744.483 520.846 734.388C555.3 726.502 573.958 718.833 580.676 715.756C580.63 715.366 580.54 714.976 580.449 714.543C581.448 710.6 582.038 706.484 582.038 702.237V92.3361L30.9507 92.2916ZM168.184 127.778H444.825C471.199 127.778 492.535 148.143 492.535 173.318V657.221C492.535 682.395 471.2 702.76 444.825 702.76H168.184C141.81 702.76 120.474 682.396 120.474 657.221V173.362C120.474 148.188 141.809 127.823 168.184 127.823V127.778ZM168.184 133.324C144.942 133.324 126.284 151.09 126.284 173.318V657.221C126.284 679.405 144.897 697.214 168.184 697.214H444.825C468.067 697.214 486.725 679.449 486.725 657.221V173.362C486.725 151.177 468.112 133.369 444.825 133.369L168.184 133.324ZM191.381 156.982H421.619C440.276 156.982 455.392 171.411 455.392 189.219V289.57C455.392 307.379 440.275 321.806 421.619 321.806H191.381C172.724 321.806 157.608 307.378 157.608 289.57V189.219C157.608 171.41 172.725 156.982 191.381 156.982ZM191.381 163.395C176.355 163.395 164.326 174.833 164.326 189.219V289.57C164.326 303.912 176.31 315.394 191.381 315.394H421.619C436.645 315.394 448.674 303.956 448.674 289.57V189.219C448.674 174.876 436.69 163.395 421.619 163.395H191.381ZM295.517 170.631H297.333C322.844 171.107 332.105 191.559 332.105 205.208C332.105 219.376 323.571 243.554 294.791 242.688L323.889 268.425L345.996 247.324C346.223 247.108 346.541 247.108 346.768 247.324L356.845 256.943C357.072 257.16 357.072 257.463 356.845 257.68L335.146 278.392L356.755 297.544C357.118 297.847 357.073 298.367 356.755 298.714L347.086 307.943C346.768 308.246 346.223 308.246 345.86 307.943L324.07 288.965L304.096 308.03C303.869 308.247 303.551 308.247 303.324 308.03L293.247 298.411C293.02 298.195 293.02 297.891 293.247 297.675L312.721 279.086L271.366 243.079V287.319C271.366 287.752 271.003 288.142 270.504 288.142H256.84C256.386 288.142 255.977 287.795 255.977 287.319L256.023 175.83C256.023 175.396 256.386 175.006 256.885 175.006H270.549C271.003 175.006 271.412 175.353 271.412 175.83V176.87C274.272 175.006 277.631 173.577 281.444 172.623C286.574 171.367 291.295 170.76 295.516 170.674L295.517 170.631ZM288.708 183.76H285.848C280.809 183.846 276.042 185.103 272.274 186.489V229.299C286.891 235.279 318.35 228.823 318.35 207.201C318.35 186.923 303.053 183.889 288.708 183.76ZM255.252 398.929C268.688 398.929 282.125 403.825 292.384 413.66L342.772 461.756L268.507 532.642L218.119 484.547C197.555 464.919 197.555 433.288 218.119 413.66C228.423 403.825 241.815 398.929 255.252 398.929ZM344.998 464.573C345.361 464.573 345.724 464.703 345.997 464.963L394.887 511.629C415.405 531.213 415.405 562.801 394.887 582.342C374.368 601.927 341.275 601.927 320.802 582.342L271.912 535.677C271.367 535.157 271.367 534.29 271.912 533.77L343.999 464.963C344.271 464.703 344.635 464.573 344.998 464.573ZM344.998 467.823L274.909 534.723L322.8 580.436C342.23 598.981 373.461 598.981 392.89 580.436C412.318 561.89 412.319 532.08 392.89 513.535L344.998 467.823ZM581.046 720.395C573.465 723.775 554.444 731.358 521.352 738.941C477.001 749.08 407.455 759.218 306.501 759.218C205.588 759.218 135.996 749.079 91.6496 738.941C58.8293 731.445 39.945 723.948 32.2274 720.525C31.6827 722.345 31.3195 724.121 31.1379 725.941C31.1379 772.347 154.473 810 306.547 810C458.667 810 581.955 772.347 581.955 725.941C581.819 724.078 581.501 722.258 580.956 720.395L581.046 720.395Z" fill="black"/>
</svg>
