<svg width="832" height="837" viewBox="0 0 832 837" fill="none" xmlns="http://www.w3.org/2000/svg">
<path fill-rule="evenodd" clip-rule="evenodd" d="M517.189 24.9031C531.59 6.73352 557.124 4.34761 574.234 19.6065L808.526 228.385C825.669 243.643 827.883 270.758 813.514 288.963L546.091 627.417L507.775 515.665C517.948 525.942 532.053 531.695 547.148 530.292C575.027 527.696 595.639 501.599 593.194 471.994C590.783 442.388 566.207 420.465 538.295 423.061C513.852 425.341 494.991 445.721 492.349 470.661L472.827 413.695L667.147 167.732C669.492 164.786 669.129 160.366 666.354 157.875C663.547 155.385 659.385 155.771 657.039 158.752L467.607 398.465L425.227 274.752C435.137 290.607 452.743 300.394 471.868 298.604C499.746 296.008 520.358 269.911 517.913 240.306C515.502 210.701 490.927 188.778 463.015 191.374C435.136 193.969 414.525 220.066 416.969 249.672C417.002 250.128 417.035 250.619 417.101 251.075L393.319 181.692L517.189 24.9031ZM389.756 171.317L510.322 18.7699C527.895 -3.46923 559.077 -6.34543 580.019 12.2806L814.311 221.059C835.253 239.72 837.995 272.867 820.422 295.107L549.633 637.772L555.678 655.416C565.026 682.671 551.78 712.801 526.115 722.728L238.71 833.816C213.012 843.744 184.638 829.677 175.29 802.423L2.99785 299.738C-6.35033 272.448 6.89558 242.318 32.5611 232.39L319.966 121.302C345.664 111.375 374.038 125.442 383.386 152.696L389.756 171.317ZM502.264 152.27C500.381 129.505 515.047 109.301 535.691 104.987L542.925 192.644C521.884 192.223 504.147 175.001 502.264 152.27ZM551.877 191.837L544.643 104.145C565.685 104.601 583.422 121.788 585.305 144.553C587.188 167.283 572.489 187.523 551.877 191.837ZM539.358 94.7751C511.479 97.3708 490.868 123.468 493.312 153.073C495.724 182.713 520.332 204.601 548.211 202.005C576.089 199.409 596.701 173.313 594.256 143.707C591.812 114.102 567.237 92.2141 539.358 94.7751ZM425.928 248.867C424.046 226.102 438.744 205.862 459.356 201.583L466.59 289.241C445.549 288.82 427.812 271.597 425.928 248.867ZM475.542 288.433L468.308 200.741C489.349 201.162 507.087 218.384 508.97 241.15C510.853 263.879 496.186 284.12 475.542 288.433ZM699.036 327.579C720.439 325.58 736.658 306.744 737.055 284.4L654.509 292.082C658.539 313.97 677.599 329.579 699.036 327.579ZM691.769 239.396C670.331 241.395 654.113 260.232 653.716 282.576L736.295 274.894C732.232 252.971 713.173 237.396 691.769 239.396ZM699.795 337.086C727.674 334.491 748.319 308.393 745.874 278.788C743.429 249.183 718.854 227.295 690.976 229.891C663.097 232.452 642.452 258.584 644.897 288.189C647.341 317.794 671.916 339.682 699.795 337.086ZM622.7 424.182C644.104 422.183 660.322 403.312 660.752 381.003L578.173 388.684C582.236 410.572 601.263 426.182 622.7 424.182ZM577.38 379.144L659.959 371.497C655.896 349.574 636.836 333.999 615.433 335.999C593.995 337.964 577.81 356.835 577.38 379.144ZM669.534 375.39C671.979 404.996 651.367 431.093 623.489 433.689C595.61 436.284 571.002 414.397 568.59 384.791C566.146 355.151 586.757 329.054 614.636 326.458C642.515 323.898 667.09 345.785 669.534 375.39ZM546.363 520.781C567.801 518.782 583.986 499.91 584.416 477.601L501.837 485.283C505.9 507.171 524.959 522.746 546.363 520.781ZM501.044 475.742L583.623 468.096C579.56 446.172 560.533 430.598 539.096 432.598C517.692 434.562 501.474 453.433 501.044 475.742ZM652.957 109.433C650.15 106.943 645.988 107.328 643.675 110.275C641.33 113.256 641.693 117.676 644.468 120.132L705.114 174.185C707.921 176.676 712.083 176.29 714.396 173.308C716.741 170.362 716.378 165.942 713.603 163.451L652.957 109.433ZM280.823 318.032C264.803 324.24 247.065 315.471 241.251 298.459C235.404 281.411 243.662 262.61 259.716 256.401L292.681 243.668L301.137 240.406L334.102 227.638C350.122 221.464 367.827 230.233 373.674 247.246C379.52 264.293 371.262 283.094 355.209 289.303L322.244 302.036L313.788 305.298L280.823 318.032ZM262.788 265.381L295.753 252.648L310.716 296.319L277.751 309.052C266.388 313.472 253.836 307.228 249.707 295.161C245.545 283.094 251.425 269.766 262.788 265.381ZM346.127 240.862C346.688 242.546 345.895 244.405 344.31 245.001L339.884 246.72C338.298 247.316 336.547 246.474 335.986 244.791C335.391 243.107 336.217 241.248 337.803 240.651L342.229 238.933C343.814 238.336 345.532 239.178 346.127 240.862ZM325.977 248.649C326.539 250.333 325.746 252.192 324.161 252.788L313.525 256.892C311.939 257.523 310.189 256.646 309.627 254.963C309.065 253.279 309.858 251.455 311.444 250.824L322.08 246.72C323.665 246.123 325.383 246.965 325.977 248.649ZM270.583 384.009C276.397 401.056 294.135 409.826 310.155 403.617L343.12 390.884L351.576 387.622L384.542 374.854C400.562 368.68 408.853 349.843 403.006 332.831C397.16 315.819 379.454 307.05 363.434 313.223L330.469 325.956L322.013 329.254L289.048 341.987C272.995 348.16 264.737 366.997 270.583 384.009ZM325.085 338.198L292.12 350.966C280.757 355.351 274.877 368.681 279.04 380.747C283.168 392.814 295.721 399.022 307.083 394.637L340.048 381.904L325.085 338.198ZM373.642 330.586C375.227 329.99 376.02 328.131 375.458 326.447C374.864 324.764 373.146 323.887 371.561 324.518L367.134 326.237C365.549 326.833 364.723 328.692 365.318 330.376C365.879 332.025 367.63 332.902 369.215 332.305L373.642 330.586ZM353.493 338.374C355.078 337.742 355.871 335.918 355.309 334.234C354.715 332.551 352.997 331.674 351.412 332.305L340.776 336.409C339.19 337.006 338.397 338.865 338.959 340.548C339.52 342.232 341.271 343.074 342.857 342.478L353.493 338.374ZM339.488 489.206C323.468 495.379 305.729 486.61 299.916 469.598C294.069 452.586 302.327 433.749 318.381 427.575L351.346 414.807L359.802 411.545L392.767 398.812C408.787 392.603 426.492 401.372 432.339 418.42C438.185 435.432 429.894 454.269 413.874 460.442L380.909 473.175L372.453 476.473L339.488 489.206ZM321.453 436.52L354.418 423.787L369.381 467.493L336.416 480.226C325.052 484.611 312.501 478.402 308.372 466.335C304.21 454.268 310.089 440.94 321.453 436.52ZM404.791 412.036C405.353 413.685 404.56 415.544 402.975 416.175L398.548 417.859C396.963 418.49 395.212 417.613 394.651 415.93C394.056 414.281 394.882 412.422 396.467 411.79L400.894 410.107C402.479 409.475 404.197 410.352 404.791 412.036ZM384.642 419.823C385.204 421.472 384.411 423.331 382.825 423.962L372.189 428.066C370.604 428.662 368.853 427.786 368.292 426.137C367.73 424.453 368.523 422.594 370.108 421.998L380.744 417.894C382.33 417.262 384.048 418.139 384.642 419.823ZM329.248 555.183C335.062 572.195 352.8 580.965 368.82 574.791L401.785 562.023L410.241 558.761L443.206 546.028C459.226 539.819 467.517 521.017 461.671 503.97C455.824 486.958 438.119 478.189 422.099 484.397L389.134 497.13L347.713 513.125C331.66 519.334 323.402 538.136 329.248 555.183ZM383.75 509.372L350.785 522.106C339.422 526.49 333.542 539.855 337.704 551.921C341.833 563.988 354.386 570.196 365.748 565.812L398.713 553.043L383.75 509.372ZM432.306 501.726C433.859 501.129 434.685 499.27 434.123 497.586C433.529 495.938 431.811 495.061 430.225 495.657L425.799 497.376C424.214 497.972 423.388 499.831 423.982 501.515C424.544 503.199 426.295 504.076 427.88 503.444L432.306 501.726ZM412.157 509.513C413.743 508.916 414.536 507.057 413.974 505.374C413.379 503.725 411.662 502.848 410.076 503.444L399.44 507.548C397.855 508.18 397.062 510.039 397.624 511.687C398.185 513.371 399.936 514.248 401.521 513.617L412.157 509.513ZM398.152 660.345C382.132 666.554 364.394 657.784 358.581 640.772C352.734 623.725 360.992 604.923 377.045 598.714L410.01 585.981L418.466 582.719L451.432 569.951C467.452 563.777 485.157 572.546 491.003 589.559C496.85 606.571 488.559 625.408 472.539 631.616L439.574 644.35L431.118 647.612L398.152 660.345ZM380.117 607.694L413.082 594.961L428.045 638.632L395.08 651.365C383.717 655.785 371.166 649.541 367.037 637.474C362.875 625.408 368.754 612.079 380.117 607.694ZM463.456 583.175C464.018 584.859 463.192 586.718 461.639 587.314L457.213 589.033C455.628 589.629 453.877 588.787 453.315 587.104C452.721 585.42 453.547 583.561 455.132 582.965L459.558 581.246C461.144 580.65 462.861 581.491 463.456 583.175ZM443.307 590.962C443.868 592.646 443.076 594.505 441.49 595.101L430.854 599.205C429.269 599.837 427.518 598.96 426.956 597.276C426.395 595.592 427.188 593.768 428.773 593.137L439.409 589.033C440.995 588.437 442.712 589.279 443.307 590.962ZM317.422 656.661C323.268 673.673 315.01 692.51 298.957 698.684L265.992 711.452L257.536 714.714L224.571 727.447C208.551 733.656 190.812 724.852 184.999 707.839C179.152 690.827 187.41 671.99 203.464 665.817L236.429 653.049L244.885 649.786L277.85 637.053C293.87 630.845 311.608 639.649 317.422 656.661ZM247.957 658.766L280.922 646.033C292.285 641.648 304.836 647.857 308.966 659.923C313.094 671.99 307.248 685.319 295.885 689.704L262.92 702.472L247.957 658.766ZM206.139 686.056C204.553 686.688 202.803 685.811 202.241 684.127C201.68 682.478 202.472 680.619 204.058 679.988L208.484 678.269C210.07 677.673 211.82 678.55 212.382 680.233C212.943 681.882 212.151 683.741 210.565 684.372L206.139 686.056ZM226.288 678.269C224.703 678.9 222.952 678.023 222.39 676.34C221.796 674.691 222.622 672.832 224.207 672.201L234.843 668.097C236.396 667.5 238.146 668.342 238.741 670.026C239.302 671.71 238.477 673.569 236.924 674.165L226.288 678.269ZM269.625 613.131C285.678 606.922 293.937 588.086 288.09 571.074C282.277 554.062 264.538 545.292 248.518 551.466L215.553 564.199L207.097 567.496L174.132 580.229C158.079 586.438 149.821 605.24 155.667 622.252C161.514 639.299 179.219 648.068 195.239 641.86L228.204 629.127L236.66 625.864L269.625 613.131ZM251.59 560.445L218.625 573.179L233.588 616.885L266.553 604.151C277.917 599.732 283.796 586.402 279.634 574.336C275.505 562.269 262.953 556.061 251.59 560.445ZM172.909 598.574C173.471 600.223 175.221 601.1 176.807 600.503L181.233 598.785C182.819 598.153 183.611 596.329 183.05 594.645C182.488 592.962 180.738 592.085 179.152 592.716L174.726 594.435C173.14 595.031 172.348 596.89 172.909 598.574ZM193.058 590.787C193.62 592.436 195.371 593.313 196.956 592.716L207.592 588.612C209.145 587.981 209.97 586.122 209.409 584.438C208.814 582.789 207.064 581.912 205.511 582.509L194.875 586.648C193.29 587.244 192.464 589.103 193.058 590.787ZM258.758 485.482C264.604 502.529 256.346 521.331 240.293 527.539L207.328 540.273L198.872 543.535L165.907 556.268C149.887 562.477 132.181 553.707 126.335 536.695C120.488 519.648 128.746 500.846 144.8 494.637L177.765 481.904L186.221 478.642L219.186 465.909C235.206 459.7 252.944 468.469 258.758 485.482ZM189.293 487.622L222.258 474.853C233.621 470.469 246.173 476.712 250.302 488.744C254.464 500.811 248.584 514.175 237.221 518.559L204.256 531.293L189.293 487.622ZM147.475 514.912C145.89 515.508 144.139 514.666 143.577 512.983C143.016 511.299 143.809 509.44 145.394 508.844L149.82 507.125C151.406 506.528 153.156 507.37 153.718 509.054C154.28 510.738 153.487 512.597 151.901 513.193L147.475 514.912ZM167.624 507.125C166.039 507.721 164.288 506.879 163.726 505.196C163.132 503.512 163.958 501.653 165.543 501.056L176.179 496.952C177.732 496.321 179.482 497.198 180.077 498.882C180.638 500.565 179.813 502.389 178.26 503.021L167.624 507.125ZM210.962 441.952C227.014 435.743 235.273 416.941 229.426 399.929C223.613 382.882 205.874 374.113 189.854 380.321L156.889 393.055L148.433 396.317L115.468 409.05C99.4151 415.259 91.1569 434.095 97.0034 451.107C102.85 468.119 120.555 476.889 136.575 470.715L169.54 457.947L177.996 454.685L210.962 441.952ZM192.926 389.301L159.961 402.034L174.924 445.705L207.889 432.972C219.253 428.587 225.132 415.258 220.97 403.192C216.841 391.125 204.289 384.881 192.926 389.301ZM114.245 427.395C114.807 429.078 116.558 429.955 118.143 429.324L122.569 427.605C124.155 427.009 124.948 425.15 124.386 423.466C123.824 421.817 122.074 420.94 120.488 421.537L116.062 423.256C114.477 423.852 113.684 425.711 114.245 427.395ZM134.394 419.608C134.956 421.291 136.707 422.168 138.292 421.537L148.928 417.433C150.481 416.837 151.306 414.977 150.745 413.294C150.15 411.61 148.4 410.768 146.847 411.365L136.211 415.469C134.626 416.065 133.8 417.924 134.394 419.608ZM200.094 314.338C205.94 331.351 197.682 350.187 181.629 356.361L148.664 369.129L140.208 372.391L107.243 385.124C91.2229 391.333 73.5176 382.529 67.6711 365.516C61.8245 348.504 70.0824 329.668 86.1357 323.494L119.101 310.726L127.557 307.464L160.522 294.73C176.542 288.522 194.28 297.326 200.094 314.338ZM145.592 360.149L178.557 347.381C189.92 342.996 195.8 329.667 191.638 317.601C187.509 305.534 174.956 299.325 163.594 303.71L130.629 316.443L145.592 360.149ZM88.8112 343.734C87.2257 344.365 85.475 343.488 84.9135 341.804C84.3519 340.156 85.1447 338.297 86.7302 337.665L91.1564 335.982C92.7419 335.35 94.4926 336.227 95.0541 337.911C95.6157 339.559 94.8229 341.418 93.2374 342.05L88.8112 343.734ZM108.96 335.946C107.375 336.578 105.624 335.701 105.063 334.017C104.468 332.369 105.294 330.51 106.879 329.878L117.515 325.774C119.068 325.178 120.818 326.055 121.413 327.703C121.975 329.387 121.149 331.246 119.596 331.842L108.96 335.946ZM328.454 764.198C327.199 760.585 328.983 756.551 332.385 755.218L406.772 726.49C410.207 725.157 414.006 727.016 415.228 730.664C416.483 734.312 414.733 738.311 411.297 739.644L336.91 768.407C333.475 769.705 329.709 767.846 328.454 764.198ZM147.376 215.421C143.941 216.754 142.19 220.788 143.445 224.4C144.668 228.048 148.466 229.908 151.902 228.61L226.289 199.847C229.691 198.514 231.475 194.515 230.219 190.867C228.964 187.219 225.199 185.36 221.763 186.693L147.376 215.421ZM189.656 236.361C188.401 232.713 190.185 228.715 193.587 227.382C197.022 226.049 200.821 227.943 202.043 231.591L369.017 718.704C370.272 722.352 368.488 726.351 365.086 727.684C361.651 729.017 357.852 727.158 356.63 723.51L189.656 236.361ZM11.4535 296.448C3.79018 274.139 14.6245 249.445 35.6327 241.342L323.037 130.254C344.045 122.117 367.3 133.622 374.93 155.931L547.222 658.651C554.885 680.96 544.051 705.62 523.042 713.722L235.638 824.81C214.63 832.948 191.376 821.443 183.746 799.133L11.4535 296.448Z" fill="black"/>
</svg>
