<svg width="779" height="696" viewBox="0 0 779 696" fill="none" xmlns="http://www.w3.org/2000/svg">
<path d="M655.5 101.248H123.491C108.121 101.248 95.6107 114.067 95.6107 129.817V501.427C95.6107 517.176 108.121 529.995 123.491 529.995H655.5C670.87 529.995 683.381 517.176 683.381 501.427V129.826C683.381 114.067 670.879 101.248 655.5 101.248ZM356.646 331.42H209.163C200.663 331.42 193.75 324.336 193.75 315.617C193.75 306.899 200.663 299.823 209.163 299.823H356.646C365.146 299.823 372.06 306.907 372.06 315.617C372.06 324.327 365.146 331.42 356.646 331.42ZM204.769 395.694C161.615 395.694 126.629 359.845 126.629 315.626C126.629 271.407 161.615 235.558 204.769 235.558C236.172 235.558 263.171 254.586 275.595 281.957H209.172C191.03 281.957 176.322 297.027 176.322 315.617C176.322 334.207 191.03 349.286 209.172 349.286H275.595C263.171 376.666 236.172 395.694 204.769 395.694ZM466.554 415.588C466.554 421.484 461.89 426.272 456.128 426.272H424.054C418.3 426.272 413.627 421.493 413.627 415.588V382.723C413.627 376.827 418.291 372.039 424.054 372.039H456.128C461.881 372.039 466.554 376.818 466.554 382.723V415.588ZM466.554 332.063C466.554 337.959 461.89 342.747 456.128 342.747H424.054C418.3 342.747 413.627 337.968 413.627 332.063V299.198C413.627 293.302 418.291 288.514 424.054 288.514H456.128C461.881 288.514 466.554 293.293 466.554 299.198V332.063ZM466.554 248.529C466.554 254.425 461.89 259.213 456.128 259.213H424.054C418.3 259.213 413.627 254.434 413.627 248.529V215.664C413.627 209.768 418.291 204.98 424.054 204.98H456.128C461.881 204.98 466.554 209.759 466.554 215.664V248.529ZM548.12 415.588C548.12 421.484 543.456 426.272 537.693 426.272H505.62C499.866 426.272 495.193 421.493 495.193 415.588V382.723C495.193 376.827 499.857 372.039 505.62 372.039H537.693C543.447 372.039 548.12 376.818 548.12 382.723V415.588ZM548.12 332.063C548.12 337.959 543.456 342.747 537.693 342.747H505.62C499.866 342.747 495.193 337.968 495.193 332.063V299.198C495.193 293.302 499.857 288.514 505.62 288.514H537.693C543.447 288.514 548.12 293.293 548.12 299.198V332.063ZM548.12 248.529C548.12 254.425 543.456 259.213 537.693 259.213H505.62C499.866 259.213 495.193 254.434 495.193 248.529V215.664C495.193 209.768 499.857 204.98 505.62 204.98H537.693C543.447 204.98 548.12 209.759 548.12 215.664V248.529ZM629.678 415.588C629.678 421.484 625.013 426.272 619.251 426.272H587.177C581.423 426.272 576.75 421.493 576.75 415.588V382.723C576.75 376.827 581.414 372.039 587.177 372.039H619.251C625.005 372.039 629.678 376.818 629.678 382.723V415.588ZM629.678 332.063C629.678 337.959 625.013 342.747 619.251 342.747H587.177C581.423 342.747 576.75 337.968 576.75 332.063V299.198C576.75 293.302 581.414 288.514 587.177 288.514H619.251C625.005 288.514 629.678 293.293 629.678 299.198V332.063ZM629.678 248.529C629.678 254.425 625.013 259.213 619.251 259.213H587.177C581.423 259.213 576.75 254.434 576.75 248.529V215.664C576.75 209.768 581.414 204.98 587.177 204.98H619.251C625.005 204.98 629.678 209.759 629.678 215.664V248.529Z" fill="black"/>
<path d="M691.401 0H87.5988C39.2224 0 0 40.1903 0 89.7603V541.492C0 591.062 39.2224 631.252 87.5988 631.252H691.401C739.778 631.252 779 591.062 779 541.492V89.7603C778.991 40.1903 739.778 0 691.401 0ZM709.535 501.427C709.535 532.005 685.342 556.795 655.5 556.795H123.491C93.6491 556.795 69.4566 532.005 69.4566 501.427V129.826C69.4566 99.2474 93.6491 74.4578 123.491 74.4578H655.5C685.342 74.4578 709.535 99.2474 709.535 129.826V501.427Z" fill="black"/>
<path d="M91.8968 696H148.425L161.005 639.587H79.3167L91.8968 696Z" fill="black"/>
<path d="M630.567 696H687.094L699.675 639.587H617.987L630.567 696Z" fill="black"/>
</svg>
