<svg width="662" height="794" viewBox="0 0 662 794" fill="none" xmlns="http://www.w3.org/2000/svg">
<path d="M662 749.588C662 725.055 632.667 705.206 596.414 705.206H594.398C601.181 685.512 605.077 664.949 605.077 643.828C605.077 552.521 504.52 478.61 410.284 440.095C388.467 431.194 374.856 414.538 374.856 397.046C374.856 379.43 388.606 362.899 410.284 353.843C504.515 315.261 605.077 241.417 605.077 150.11C605.077 129.237 601.318 108.674 594.398 88.732H596.414C632.667 88.732 662 68.8826 662 44.3505C662 19.8493 632.667 0 596.414 0H65.5857C29.3327 0 0 19.8493 0 44.3815C0 68.9136 29.3327 88.7629 65.5857 88.7629H67.6023C60.8192 108.612 56.9234 129.175 56.9234 150.141C56.9234 241.448 157.479 315.359 251.716 353.874C273.533 362.93 287.144 379.431 287.144 397.077C287.144 414.538 273.394 431.225 251.716 440.126C157.485 478.708 56.9234 552.552 56.9234 643.859C56.9234 664.887 60.6816 685.45 67.6023 705.237H65.5857C29.3327 705.237 0 725.086 0 749.619C0 774.151 29.3327 794 65.5857 794H596.367C632.667 793.969 662 774.028 662 749.588ZM568.594 705.206H93.4036C86.0246 685.512 82.2664 664.949 82.2664 643.828C82.2664 559.651 176.727 490.988 264.822 454.64C294.154 442.638 312.442 420.493 312.442 397.077C312.442 373.413 294.246 351.331 264.822 339.36C176.823 303.135 82.2664 234.468 82.2664 150.14C82.2664 129.113 86.0246 108.549 93.4036 88.7621H568.453C575.832 108.457 579.59 129.019 579.59 150.14C579.59 234.468 485.13 303.139 397.035 339.328C367.703 351.33 349.415 373.475 349.415 397.046C349.415 420.554 367.611 442.606 397.035 454.609C485.171 490.958 579.59 559.651 579.59 643.796C579.728 664.949 575.881 685.512 568.594 705.206Z" fill="black"/>
<path d="M343.646 570.483V380.089C350.2 360.86 367.937 344.112 392.595 334.188C478.714 298.862 542.556 245.422 563.089 191.273C564.372 188.016 562.631 184.449 558.276 182.217C553.922 180.139 548.423 180.139 544.069 182.062C511.94 195.801 475.411 204.702 435.172 208.269C392.593 212.239 345.294 202.624 290.62 191.677C236.4 180.728 175.397 168.168 108.992 168.168H107.479C103.721 168.168 100.1 169.346 97.8543 171.269C95.2877 173.347 94.3252 175.704 95.0585 178.248C117.333 265.68 234.342 319.797 269.776 334.192C294.067 344.116 311.758 360.957 318.358 380.093V570.487C277.292 572.379 254.055 583.358 229.994 594.772C202.173 608.108 170.962 623.026 102.127 630.097C96.0308 630.81 91.8142 634.222 91.4475 638.347C91.2184 640.084 91.2184 641.914 91.2184 643.837C91.2184 660.12 93.4642 676.402 98.2765 692.344C99.3307 696.469 104.601 699.322 110.697 699.322H551.381C557.476 699.322 562.747 696.376 563.801 692.344C568.614 676.557 570.859 660.12 570.859 643.837C570.859 641.945 570.859 640.115 570.63 638.347C570.401 634.222 566.047 630.811 559.951 630.097C491.294 623.119 459.854 608.17 432.084 594.772C407.976 583.327 384.739 572.379 343.673 570.487L343.646 570.483Z" fill="black"/>
</svg>
