<svg width="754" height="803" viewBox="0 0 754 803" fill="none" xmlns="http://www.w3.org/2000/svg">
<path fill-rule="evenodd" clip-rule="evenodd" d="M183.002 0H578.069C633.582 0 678.603 47.9466 678.603 107.068V393.572C645.332 373.095 606.689 361.351 565.506 361.351C492.65 361.351 427.806 398.056 386.426 455.04H201.066C173.293 455.04 150.799 478.996 150.799 508.574V695.942H357.054C364.689 715.181 374.617 733.182 386.429 749.476H100.534C45.0208 749.476 0 701.529 0 642.408V203.936C0 177.37 9.299 151.707 26.0448 132.034L108.547 35.1422C127.586 12.7916 154.636 0.0102782 183.005 0.0102782L183.002 0ZM477.534 160.601V53.5338H201.066V160.601C201.066 190.179 223.56 214.135 251.333 214.135H427.267C455.04 214.135 477.534 190.179 477.534 160.601Z" fill="black"/>
<path d="M552.935 374.737C564.653 374.737 574.833 383.369 577.44 395.581L596.008 482.503C602.448 512.616 624.535 536.137 652.81 542.996L734.427 562.77C745.895 565.547 754 576.388 754 588.868C754 601.349 745.895 612.189 734.427 614.966L652.81 634.74C624.535 641.599 602.448 665.121 596.008 695.234L577.44 782.155C574.833 794.368 564.654 803 552.935 803C541.216 803 531.037 794.368 528.43 782.155L509.862 695.234C503.422 665.121 481.335 641.6 453.06 634.74L371.443 614.966C359.976 612.189 351.87 601.349 351.87 588.868C351.87 576.388 359.976 565.547 371.443 562.77L453.06 542.996C481.335 536.137 503.422 512.616 509.862 482.503L528.43 395.581C531.037 383.369 541.216 374.737 552.935 374.737Z" fill="black"/>
</svg>
