<svg width="768" height="829" viewBox="0 0 768 829" fill="none" xmlns="http://www.w3.org/2000/svg">
<path fill-rule="evenodd" clip-rule="evenodd" d="M153.442 0H539L539.454 0.0330323L539.713 0.0660647L539.94 0.0991051L540.199 0.132137L540.426 0.16517L540.685 0.231243L540.912 0.264275L541.398 0.33034L541.69 0.396412L541.885 0.462485L542.306 0.561582L542.792 0.660687L543.052 0.72676L543.278 0.792825L543.7 0.924962L545.061 1.42048L545.32 1.55262L545.547 1.65171L545.936 1.81689L546.779 2.2133L547.038 2.37847L547.233 2.51061L547.427 2.60972L547.622 2.74185L547.946 2.94006L548.724 3.46861L548.983 3.66682L549.145 3.79895L549.34 3.96412L549.826 4.45964L550.215 4.75695L551.511 6.07832L762.425 221.067C766.152 224.833 768 229.822 768 234.776V672.779C768 715.757 750.756 754.803 722.978 783.115C695.199 811.393 656.887 829 614.716 829H153.284C111.114 829 72.8016 811.426 45.0222 783.115C17.276 754.804 0 715.758 0 672.779V156.39C0 113.413 17.2437 74.3661 45.0222 46.0545C72.8008 17.7766 111.113 0.169559 153.284 0.169559L153.442 0ZM175.516 38.8488V97.0553C175.516 113.044 181.934 127.579 192.306 138.117C202.646 148.655 216.94 155.229 232.596 155.229H461.79C477.477 155.229 491.74 148.688 502.08 138.117C512.42 127.579 518.869 113.011 518.869 97.0553V38.8488H175.481H175.516ZM384.164 353.467C412.753 353.467 438.619 365.26 457.354 384.354C476.088 403.448 487.66 429.809 487.66 458.945C487.66 488.082 476.088 514.443 457.354 533.537C438.619 552.631 412.753 564.424 384.164 564.424C355.576 564.424 329.71 552.631 310.975 533.537C292.241 514.443 280.669 488.082 280.669 458.945C280.669 429.809 292.241 403.448 310.975 384.354C329.71 365.26 355.576 353.467 384.164 353.467ZM430.386 411.805C418.555 399.748 402.219 392.282 384.164 392.282C366.11 392.282 349.774 399.748 337.943 411.805C326.112 423.863 318.787 440.512 318.787 458.912C318.787 477.346 326.112 493.962 337.943 506.019C349.774 518.077 366.11 525.543 384.164 525.543C402.219 525.543 418.555 518.077 430.386 506.019C442.217 493.962 449.542 477.313 449.542 458.912C449.542 440.512 442.217 423.863 430.386 411.805Z" fill="black"/>
</svg>
