<svg width="820" height="795" viewBox="0 0 820 795" fill="none" xmlns="http://www.w3.org/2000/svg">
<path d="M285.966 86.8487C177.679 86.8487 89.5798 172.262 89.5798 277.248C89.5798 382.234 177.679 467.647 285.966 467.647C394.254 467.647 482.353 382.234 482.353 277.248C482.353 172.262 394.254 86.8487 285.966 86.8487ZM410 287.269C404.294 287.269 399.664 282.78 399.664 277.248C399.664 216.469 348.656 167.017 285.966 167.017C280.26 167.017 275.63 162.528 275.63 156.996C275.63 151.463 280.26 146.975 285.966 146.975C360.056 146.975 420.336 205.418 420.336 277.248C420.336 282.78 415.706 287.269 410 287.269Z" fill="black"/>
<path d="M571.933 277.248C571.933 124.375 443.646 0 285.966 0C128.286 0 0 124.375 0 277.248C0 430.12 128.286 554.496 285.966 554.496C443.646 554.496 571.933 430.12 571.933 277.248ZM285.966 487.689C166.28 487.689 68.9076 393.285 68.9076 277.248C68.9076 161.21 166.28 66.8067 285.966 66.8067C405.653 66.8067 503.025 161.21 503.025 277.248C503.025 393.285 405.653 487.689 285.966 487.689Z" fill="black"/>
<path d="M642.677 476.644C628.371 462.76 603.392 462.76 589.086 476.644L491.633 571.126C484.473 578.061 480.536 587.292 480.536 597.105C480.536 606.917 484.473 616.148 491.633 623.084L637.671 764.669C657.845 784.229 684.668 795 713.193 795C741.725 795 768.548 784.229 788.716 764.669C808.89 745.117 820 719.112 820 691.45C820 663.794 808.89 637.789 788.716 618.23L642.677 476.644Z" fill="black"/>
<path d="M644.286 100.158C684.21 100.158 716.693 131.65 716.693 170.357C716.693 175.89 721.322 180.378 727.029 180.378C732.735 180.378 737.365 175.89 737.365 170.357C737.365 131.65 769.8 100.158 809.664 100.158C815.37 100.158 820 95.6692 820 90.1368C820 84.6044 815.37 80.1158 809.664 80.1158C769.8 80.1158 737.365 48.6696 737.365 10.021C737.365 4.48861 732.735 0 727.029 0C721.322 0 716.693 4.48861 716.693 10.021C716.693 48.6698 684.21 80.1158 644.286 80.1158C638.579 80.1158 633.95 84.6044 633.95 90.1368C633.95 95.6692 638.579 100.158 644.286 100.158Z" fill="black"/>
<path d="M175.714 694.738C135.85 694.738 103.415 663.291 103.415 624.643C103.415 619.11 98.7855 614.622 93.0791 614.622C87.3727 614.622 82.743 619.11 82.743 624.643C82.743 663.292 50.2609 694.738 10.3361 694.738C4.62976 694.738 0 699.226 0 704.759C0 710.291 4.62976 714.78 10.3361 714.78C50.2608 714.78 82.743 746.271 82.743 784.979C82.743 790.511 87.3727 795 93.0791 795C98.7855 795 103.415 790.511 103.415 784.979C103.415 746.271 135.85 714.78 175.714 714.78C181.421 714.78 186.05 710.291 186.05 704.759C186.05 699.226 181.421 694.738 175.714 694.738Z" fill="black"/>
<path d="M543.958 437.616C520.091 473.579 488.472 504.234 451.377 527.374L479.453 554.594L572.034 464.835L543.958 437.616Z" fill="black"/>
</svg>
