<svg width="820" height="792" viewBox="0 0 820 792" fill="none" xmlns="http://www.w3.org/2000/svg">
<path d="M280.001 373.94C279.725 360.182 282.293 346.51 287.554 333.722C292.815 320.935 300.662 309.288 310.639 299.465C320.615 289.642 332.519 281.838 345.654 276.511C358.79 271.184 372.894 268.44 387.14 268.44C401.387 268.44 415.49 271.184 428.626 276.511C441.762 281.838 453.666 289.642 463.642 299.465C473.618 309.288 481.466 320.935 486.726 333.722C491.987 346.51 494.555 360.182 494.279 373.94C493.737 401.039 482.211 426.851 462.178 445.83C442.144 464.809 415.202 475.441 387.14 475.441C359.078 475.441 332.136 464.809 312.103 445.83C292.069 426.851 280.543 401.039 280.001 373.94Z" fill="black"/>
<path d="M352.6 12.5583C370.525 4.29082 390.137 0 410 0C429.863 0 449.475 4.29082 467.4 12.5583C483.16 19.8601 497.599 31.7593 517.799 48.4106L520.959 50.9604C540.159 66.8003 558.519 74.2953 584.159 76.2656L588.239 76.5747C614.719 78.6223 633.639 80.0517 650.119 85.6923C668.849 92.0834 685.861 102.44 699.911 116.003C713.961 129.567 724.692 145.993 731.318 164.081C737.118 179.998 738.598 198.272 740.718 223.847L741.038 227.788C743.078 252.552 750.878 270.285 767.238 288.829L769.878 291.843C787.118 311.392 799.478 325.339 806.998 340.56C815.557 357.873 820 376.815 820 396C820 415.185 815.557 434.127 806.998 451.44C799.438 466.661 787.118 480.608 769.878 500.118L767.238 503.17C750.518 522.101 743.038 539.911 741.038 564.212L740.718 568.153C738.598 593.728 737.118 612.002 731.278 627.919C724.661 646.01 713.939 662.442 699.896 676.012C685.853 689.582 668.845 699.946 650.119 706.346C633.639 711.948 614.719 713.378 588.239 715.425L584.159 715.734C558.519 717.705 540.159 725.238 520.959 741.04L517.799 743.589C497.599 760.241 483.16 772.178 467.4 779.442C449.475 787.709 429.863 792 410 792C390.137 792 370.525 787.709 352.6 779.442C336.84 772.14 322.401 760.241 302.201 743.589L299.041 741.04C281.601 725.856 259.288 716.922 235.841 715.734L231.761 715.425C205.281 713.378 186.361 711.948 169.881 706.308C151.151 699.916 134.139 689.56 120.089 675.997C106.039 662.433 95.3082 646.007 88.6818 627.919C82.8818 612.002 81.4019 593.728 79.2819 568.153L78.9619 564.212C77.7325 541.565 68.4827 520.015 52.762 503.17L50.122 500.118C32.8821 480.608 20.5222 466.661 13.0023 451.44C4.44252 434.127 0 415.185 0 396C0 376.815 4.44252 357.873 13.0023 340.56C20.5622 325.339 32.8821 311.392 50.122 291.882L52.762 288.829C68.4827 271.985 77.7325 250.434 78.9619 227.788L79.2819 223.847C81.4019 198.272 82.8819 179.998 88.7218 164.081C95.3389 145.99 106.062 129.558 120.104 115.988C134.147 102.418 151.155 92.0537 169.881 85.6537C186.361 80.0517 205.281 78.6223 231.761 76.5747L235.841 76.2656C259.288 75.0782 281.601 66.1442 299.041 50.9604L302.161 48.4106C322.4 31.7593 336.84 19.8215 352.6 12.5583ZM387.16 212.489C360.939 212.488 335.085 218.446 311.688 229.88C288.291 241.314 268.007 257.905 252.475 278.31C236.944 298.716 226.601 322.364 222.281 347.344C217.962 372.324 219.787 397.936 227.61 422.108C235.434 446.281 249.035 468.337 267.315 486.494C285.595 504.652 308.041 518.4 332.84 526.63C357.639 534.859 384.094 537.339 410.068 533.867C436.042 530.396 460.806 521.072 482.36 506.648L548.759 570.973C551.523 573.744 554.83 575.956 558.487 577.479C562.145 579.002 566.081 579.807 570.064 579.846C574.047 579.884 577.998 579.157 581.687 577.705C585.376 576.253 588.728 574.106 591.549 571.389C594.37 568.673 596.602 565.441 598.116 561.882C599.629 558.323 600.394 554.509 600.365 550.662C600.336 546.815 599.514 543.011 597.947 539.474C596.381 535.937 594.1 532.737 591.239 530.06L524.719 465.618C542.028 441.385 552.146 413.041 553.98 383.654C555.814 354.267 549.294 324.955 535.125 298.889C520.955 272.822 499.676 250.994 473.589 235.766C447.503 220.537 417.641 212.488 387.16 212.489Z" fill="black"/>
</svg>
