<svg width="820" height="832" viewBox="0 0 820 832" fill="none" xmlns="http://www.w3.org/2000/svg">
<path d="M349.651 498.668C360.741 507.05 371.851 515.461 382.97 523.863C371.361 535.483 359.733 547.112 348.164 558.722C347.087 559.844 346.079 561.016 345.022 562.158L345.579 554.471C346.911 535.88 348.252 517.259 349.651 498.668ZM440.886 334.762C384.477 370.862 328.069 407.062 271.63 443.142C270.485 443.867 269.232 444.433 267.96 445.019C275.35 468.993 282.74 492.977 290.11 516.971C295.376 533.854 300.838 550.697 305.82 567.65C307.876 574.681 311.439 578.445 318.956 577.115C321.041 548.423 323.037 519.752 325.171 491.05C325.416 487.704 325.807 484.307 326.209 480.96C323.018 479.103 324.418 475.548 325.524 474.376C327.471 472.34 329.419 470.264 331.367 468.199C332.062 467.543 332.786 466.878 333.462 466.222C334.441 465.189 335.39 464.157 336.359 463.134C341.028 458.724 345.677 454.235 350.346 449.806C353.009 447.254 355.7 444.691 358.373 442.149C365.616 435.267 372.849 428.394 380.22 421.621C398.954 404.341 418.07 387.458 436.844 370.247C460.776 348.279 484.649 326.231 508.356 304.015C510.098 301.562 511.224 298.404 512.751 295.703C508.503 296.279 503.521 295.564 500.144 297.58C480.186 309.646 460.551 322.189 440.886 334.762ZM820 416C820 645.749 636.434 832 409.995 832C183.547 832 0 645.749 0 416C0 186.241 183.547 0 409.995 0C636.434 0 820 186.241 820 416ZM593.082 250.267C592.867 248.678 592.71 247.05 592.397 245.49C588.785 227.833 579.251 222.5 562.181 228.429C559.675 229.283 557.111 229.839 554.566 230.544C545.042 234.536 535.616 238.807 525.955 242.471C509.942 248.599 493.772 254.329 477.621 260.238C467.774 264.4 457.996 268.749 448.061 272.692C423.17 282.564 398.23 292.247 373.299 302.019C321.99 322.09 270.671 342.151 219.322 362.222C207.792 366.741 196.164 371.021 184.751 375.838C174.718 380.039 164.48 384.111 155.24 389.752C151.148 392.244 146.646 398.799 147.115 402.96C147.566 407.161 153.899 410.756 157.775 414.51C158.479 415.196 159.683 415.414 160.701 415.732C187.903 424.273 215.104 432.814 242.325 441.335C242.178 444.215 242.501 447.154 243.391 450.064L253.287 482.271L266.296 524.529C267.823 529.435 269.359 534.251 270.867 539.068C274.567 550.836 278.413 562.992 281.908 574.89C289.523 600.701 310.058 602.697 316.176 602.697C317.086 602.697 318.055 602.638 319.015 602.598C319.954 602.638 320.894 602.668 321.824 602.668C337.534 602.668 347.625 593.888 353.635 588.635C354.741 587.652 355.798 586.748 356.562 586.152C357.805 585.209 358.97 584.186 359.968 583.044C360.751 582.219 361.466 581.365 362.239 580.551C363.502 579.121 364.686 577.78 365.733 576.727C374.866 567.551 383.978 558.404 393.13 549.247L403.975 538.393C405.502 539.465 407.029 540.528 408.566 541.591C433.242 560.281 457.879 579.061 482.643 597.652C501.123 611.516 514.043 607.921 522.989 586.738C526.797 568.872 530.585 550.966 534.363 533.139C537.828 515.312 541.254 497.535 544.68 479.749C546.882 469.976 549.055 460.174 551.228 450.412C557.003 422.882 562.768 395.323 568.514 367.784C570.383 358.995 572.214 350.215 574.073 341.426C574.524 339.341 575.062 337.245 575.473 335.14C581.366 306.846 587.219 278.571 593.082 250.267Z" fill="black"/>
</svg>
