<svg width="675" height="750" viewBox="0 0 675 750" fill="none" xmlns="http://www.w3.org/2000/svg">
<path d="M637.49 354.7H37.4957C16.7873 354.7 0 371.562 0 392.362V501.743C0 522.544 16.7873 539.405 37.4957 539.405H637.49C658.198 539.405 674.985 522.544 674.985 501.743V392.362C674.985 371.562 658.198 354.7 637.49 354.7ZM96.8732 475.799C81.0912 475.799 68.291 462.943 68.291 447.091C68.291 431.239 81.0912 418.382 96.8732 418.382C112.655 418.382 125.455 431.239 125.455 447.091C125.455 462.943 112.655 475.799 96.8732 475.799ZM587.737 460.015H216.966C209.863 460.015 204.099 454.226 204.099 447.091C204.099 439.955 209.863 434.166 216.966 434.166H587.737C594.841 434.166 600.604 439.955 600.604 447.091C600.604 454.226 594.841 460.015 587.737 460.015ZM637.497 565.295H37.5025C16.7942 565.295 0.00685543 582.157 0.00685543 602.957V712.338C0.00685543 733.138 16.7942 750 37.5025 750H637.497C658.205 750 674.992 733.138 674.992 712.338V602.957C674.992 582.157 658.205 565.295 637.497 565.295ZM96.88 686.394C81.0981 686.394 68.2978 673.537 68.2978 657.685C68.2978 641.833 81.0981 628.977 96.88 628.977C112.662 628.977 125.462 641.833 125.462 657.685C125.462 673.537 112.662 686.394 96.88 686.394ZM587.744 670.576H216.973C209.87 670.576 204.106 664.787 204.106 657.652C204.106 650.517 209.87 644.728 216.973 644.728H587.744C594.847 644.728 600.611 650.517 600.611 657.652C600.611 664.787 594.847 670.576 587.744 670.576ZM675 180.802V180.735C675 180.432 674.967 180.129 674.967 179.826V179.658C674.967 179.389 674.933 179.119 674.9 178.85V178.716C674.464 173.061 672.755 167.777 670.074 163.132C670.041 163.065 670.041 162.998 670.007 162.93L583.017 22.2468C574.372 8.31281 559.461 0 543.143 0L132.167 0.0336525C115.815 0.0336525 100.904 8.34682 92.2922 22.2804C92.2922 22.2804 6.07387 161.25 5.80795 161.689C5.80795 161.689 5.77445 161.79 5.70743 161.925C2.12205 167.68 0.0110603 174.478 0.0110603 181.782V291.164C0.0110603 311.964 16.7984 328.825 37.5067 328.825H637.501C658.209 328.825 674.996 311.964 674.996 291.164V181.782L675 180.802ZM96.88 265.213C81.0981 265.213 68.2978 252.356 68.2978 236.504C68.2978 220.653 81.0981 207.796 96.88 207.796C112.662 207.796 125.462 220.653 125.462 236.504C125.462 252.356 112.662 265.213 96.88 265.213ZM587.744 249.429H216.973C209.87 249.429 204.106 243.64 204.106 236.504C204.106 229.369 209.87 223.58 216.973 223.58H587.744C594.847 223.58 600.611 229.369 600.611 236.504C600.611 243.64 594.847 249.429 587.744 249.429ZM57.1721 144.114L121.407 40.4882C123.753 36.7186 127.774 34.4973 132.163 34.4973H543.139C547.562 34.4973 551.583 36.7523 553.895 40.4882L618.131 144.114H57.1721Z" fill="black"/>
</svg>
