<svg width="756" height="764" viewBox="0 0 756 764" fill="none" xmlns="http://www.w3.org/2000/svg">
<path d="M359.241 557.227L71.0935 557.404C31.9579 557.429 0.282675 589.966 0.307403 630.118C0.33213 670.27 32.0474 702.769 71.183 702.745L359.331 702.567C398.442 764.174 478.816 781.63 538.888 741.504C554.099 731.339 567.033 718.052 576.923 702.433L685.042 702.367C724.178 702.343 755.853 669.805 755.828 629.653C755.803 589.501 724.088 557.002 684.952 557.026L576.833 557.093C537.722 495.486 457.348 478.03 397.3 518.156C382.089 528.322 369.131 541.608 359.241 557.227ZM550.718 629.779C550.747 676.618 513.787 714.584 468.135 714.612C422.482 714.64 385.475 676.719 385.446 629.881C385.417 583.043 422.377 545.076 468.03 545.048C513.652 545.083 550.627 582.972 550.718 629.779ZM179.056 302.992L70.9369 303.059C31.8013 303.083 0.126039 335.621 0.150766 375.773C0.175493 415.925 31.8908 448.423 71.0264 448.399L179.146 448.333C218.257 509.939 298.631 527.395 358.679 487.269C373.89 477.104 386.824 463.818 396.714 448.199L684.893 448.021C724.029 447.997 755.704 415.459 755.679 375.308C755.655 335.156 723.939 302.657 684.804 302.681L396.656 302.858C357.544 241.252 277.17 223.796 217.123 263.922C201.911 274.087 188.946 287.374 179.056 302.992ZM370.533 375.545C370.562 422.383 333.602 460.349 287.949 460.377C242.297 460.406 205.29 422.485 205.261 375.646C205.232 328.808 242.192 290.842 287.845 290.814C333.467 290.849 370.441 328.738 370.533 375.545ZM358.934 60.6479L70.7861 60.8253C31.6505 60.8494 -0.0247129 93.3872 1.42812e-05 133.539C0.0247415 173.691 31.74 206.19 70.8756 206.166L359.023 205.988C398.135 267.595 478.509 285.051 538.557 244.925C553.768 234.759 566.702 221.473 576.591 205.854L684.742 205.788C723.878 205.763 755.553 173.226 755.529 133.074C755.504 92.9219 723.789 60.4232 684.653 60.4473L576.534 60.5139C537.422 -1.09278 457.048 -18.5487 397 21.5772C381.789 31.7426 368.823 45.029 358.934 60.6479ZM550.411 133.2C550.44 180.038 513.48 218.005 467.827 218.033C422.174 218.061 385.168 180.14 385.139 133.302C385.11 86.4636 422.07 48.4973 467.723 48.4692C513.345 48.5042 550.319 86.3933 550.411 133.2Z" fill="black"/>
</svg>
