<svg width="823" height="762" viewBox="0 0 823 762" fill="none" xmlns="http://www.w3.org/2000/svg">
<path d="M619.733 575.478C620.677 573.087 622.6 571.239 625.031 570.37C743.446 529.681 823 418.297 823 293.189C823 157.349 729.845 43.1481 604.1 10.0345C712.314 58.731 787.947 167.208 787.947 293.189C787.947 424.456 705.205 541.346 581.785 585.479C551.337 660.155 492.655 720.336 419.017 752.875C509.454 730.085 584.495 665.516 619.733 575.478Z" fill="black"/>
<path d="M0 468.847C0 630.482 131.7 762 293.622 762C455.516 762 587.245 630.51 587.245 468.847C587.245 307.211 455.544 175.693 293.622 175.693C131.7 175.693 0 307.183 0 468.847ZM293.622 235.873C422.275 235.873 526.931 340.371 526.931 468.81C526.931 597.294 422.266 701.783 293.622 701.783C164.932 701.783 60.2759 597.285 60.2759 468.847C60.2759 340.362 164.941 235.873 293.622 235.873Z" fill="black"/>
<path d="M293.622 684.28C412.623 684.28 509.41 587.648 509.41 468.837C509.41 350.027 412.623 253.395 293.622 253.395C174.622 253.358 77.8069 350.027 77.8069 468.837C77.8069 587.611 174.631 684.28 293.622 684.28ZM293.622 603.916C264.626 603.916 241.037 580.365 241.037 551.415C241.037 522.465 264.626 498.913 293.622 498.913C322.618 498.913 346.208 522.465 346.208 551.415C346.208 580.365 322.618 603.916 293.622 603.916ZM393.856 416.337C422.852 416.337 446.441 439.889 446.441 468.838C446.441 497.788 422.852 521.34 393.856 521.34C364.86 521.34 341.271 497.788 341.271 468.838C341.271 439.889 364.86 416.337 393.856 416.337ZM293.622 333.727C322.618 333.727 346.208 357.279 346.208 386.229C346.208 415.178 322.618 438.73 293.622 438.73C264.626 438.73 241.037 415.178 241.037 386.229C241.037 357.279 264.626 333.727 293.622 333.727ZM193.351 416.337C222.347 416.337 245.937 439.889 245.937 468.838C245.937 497.788 222.347 521.34 193.351 521.34C164.355 521.34 140.766 497.788 140.766 468.838C140.766 439.889 164.355 416.337 193.351 416.337Z" fill="black"/>
<path d="M692.569 293.187C692.569 174.376 595.782 77.7438 476.782 77.7438C410.951 77.7438 349.402 107.962 308.543 158.941C351.511 161.006 392.156 171.695 428.881 189.521C437.155 170.97 455.808 158.289 476.784 158.289C505.78 158.289 529.369 181.84 529.369 210.79C529.369 225.428 523.2 238.834 512.821 248.653C519.136 254.921 525.087 261.552 530.858 268.327C539.749 251.696 557.168 240.718 577.056 240.718C606.052 240.718 629.641 264.269 629.641 293.219C629.641 321.481 607.105 344.452 579.052 345.539C595.202 382.641 604.274 423.438 604.637 466.306C659.799 425.726 692.569 362.391 692.569 293.187Z" fill="black"/>
<path d="M210.594 169.748C234.909 163.009 260.349 159.132 286.659 158.516C330.535 96.9933 401.154 60.214 476.787 60.214C605.44 60.214 710.096 164.712 710.096 293.15C710.096 372.608 670.322 445.112 603.768 488.298C602.134 514.35 597.526 539.603 589.832 563.554C698.557 518.335 770.418 411.991 770.418 293.153C770.418 131.518 638.718 0 476.796 0C361.14 0.0724698 258.658 66.1243 210.608 169.752L210.594 169.748Z" fill="black"/>
<path d="M612.115 293.187C612.115 273.875 596.401 258.186 577.059 258.186C560.909 258.186 547.264 269.02 543.345 284.274C553.397 297.824 562.47 312.1 570.236 327.209C572.413 327.68 574.554 328.151 577.058 328.151C596.401 328.188 612.115 312.498 612.115 293.187Z" fill="black"/>
<path d="M228.413 468.847C228.413 515.514 158.3 515.514 158.3 468.847C158.3 422.18 228.413 422.18 228.413 468.847Z" fill="black"/>
<path d="M328.684 386.23C328.684 432.897 258.571 432.897 258.571 386.23C258.571 339.563 328.684 339.563 328.684 386.23Z" fill="black"/>
<path d="M476.782 175.758C462.483 175.758 449.745 184.563 444.447 197.353C464.406 208.44 482.842 221.81 499.79 236.846C507.302 230.216 511.838 220.977 511.838 210.795C511.838 191.483 496.125 175.758 476.782 175.758Z" fill="black"/>
<path d="M428.918 468.847C428.918 515.514 358.804 515.514 358.804 468.847C358.804 422.18 428.918 422.18 428.918 468.847Z" fill="black"/>
<path d="M328.684 551.418C328.684 598.085 258.571 598.085 258.571 551.418C258.571 504.751 328.684 504.751 328.684 551.418Z" fill="black"/>
</svg>
