<svg width="544" height="834" viewBox="0 0 544 834" fill="none" xmlns="http://www.w3.org/2000/svg">
<path d="M472.419 4.7516e-06H71.5874C32.1126 4.7516e-06 0.0103306 31.1938 0.0103306 69.5516C0.0461169 78.3498 -0.0254557 129.157 0.0103306 139.103V180.834C0.65452 227.051 40.9886 254.976 86.5112 250.386C91.2353 308.948 125.413 362.505 178.203 392.48C192.125 400.374 200.428 414.007 200.428 428.96V762.665C202.969 856.597 339.826 858.128 343.582 765.065V428.956C343.582 414.002 351.885 400.371 365.807 392.476C418.595 362.499 452.773 308.945 457.499 250.381C503.058 254.972 543.356 227.047 544 180.83V139.099V69.5474C544 31.1896 511.894 4.7516e-06 472.419 4.7516e-06ZM272.003 347.753C221.792 349.249 189.296 289.504 218.786 250.377H325.219C354.709 289.499 322.215 349.24 272.003 347.753ZM472.419 222.565H71.5874C52.9412 222.565 37.016 210.95 31.0746 194.744H512.897C506.992 210.95 491.066 222.565 472.384 222.565H472.419ZM515.366 166.924H28.6412V153.013H515.366V166.924ZM515.366 125.193H28.6412V97.3722H515.366V125.193Z" fill="black"/>
</svg>
