<svg width="738" height="828" viewBox="0 0 738 828" fill="none" xmlns="http://www.w3.org/2000/svg">
<path d="M735.601 11.4253C733.69 4.69753 728.102 0.0794912 721.72 0H16.2771C9.89544 0.0796135 4.30682 4.69753 2.39622 11.4253C0.665611 16.72 -0.127614 22.2932 0.0166499 27.9065C0.0166499 45.2631 6.18196 75.001 20.604 84.9934V677.56C20.64 705.585 41.1913 728.277 66.5376 728.277H110.019C106.233 753.477 102.844 775.531 100.068 793.365C97.5804 809.527 107.423 824.854 122.097 827.601C123.575 827.88 125.09 828 126.568 828H142.504C155.051 828.079 165.94 818.485 168.679 804.95L184.688 728.238H553.276L569.248 804.871C571.952 818.406 582.877 828.039 595.423 827.96H611.36C626.214 827.96 638.256 814.663 638.22 798.262C638.22 796.59 638.076 794.918 637.824 793.286C635.084 775.53 631.695 753.436 627.909 728.237H671.39C696.737 728.197 717.324 705.506 717.324 677.52L717.396 84.9943C731.782 75.0021 737.983 45.265 737.983 27.9074C738.128 22.2943 737.334 16.7205 735.64 11.4262L735.601 11.4253ZM699.006 677.511C699.006 694.31 686.676 707.965 671.424 707.965H66.5783C51.3637 707.965 38.9966 694.351 38.9966 677.511V88.4503H699.01V677.552L699.006 677.511ZM100.824 369.9H637.166C647.333 369.9 655.554 360.824 655.554 349.597V164.923C655.554 153.696 647.333 144.62 637.166 144.62L100.824 144.66C90.6924 144.66 82.4363 153.736 82.4363 164.963V349.637C82.4363 360.864 90.6566 369.94 100.824 369.94V369.9ZM340.765 247.127H397.19C402.274 247.127 406.384 251.665 406.384 257.278C406.384 262.891 402.274 267.43 397.19 267.43H340.765C335.682 267.43 331.571 262.891 331.571 257.278C331.571 251.665 335.682 247.127 340.765 247.127ZM100.824 657.088H637.166C647.333 657.088 655.554 648.011 655.554 636.785V452.11C655.554 440.884 647.333 431.808 637.166 431.808H100.824C90.6924 431.808 82.4363 440.884 82.4363 452.11V636.785C82.4363 648.011 90.6566 657.088 100.824 657.088ZM340.765 534.274H397.19C402.274 534.274 406.384 538.812 406.384 544.425C406.384 550.038 402.274 554.576 397.19 554.576H340.765C335.682 554.576 331.571 550.038 331.571 544.425C331.571 538.812 335.682 534.274 340.765 534.274Z" fill="black"/>
</svg>
