<svg width="689" height="832" viewBox="0 0 689 832" fill="none" xmlns="http://www.w3.org/2000/svg">
<path d="M481.914 138.882C467.495 133.265 452.822 128.537 437.958 124.717C423.667 120.773 409.183 117.802 394.582 115.82V165.575C409.199 167.891 423.684 171.193 437.958 175.463C448.085 178.464 458.053 181.885 467.89 185.681C472.016 187.33 475.558 190.467 477.979 194.616C480.4 198.765 481.568 203.701 481.306 208.674C481.044 213.648 479.367 218.389 476.527 222.178C473.688 225.968 469.842 228.599 465.572 229.674L461.384 230.664C420.421 240.689 378.645 245.769 336.747 245.819C294.944 245.788 253.262 240.708 212.399 230.664L208.199 229.674C203.885 228.672 199.982 226.081 197.09 222.299C194.198 218.517 192.48 213.756 192.199 208.751C191.919 203.745 193.093 198.774 195.54 194.604C197.986 190.434 201.57 187.298 205.736 185.681C215.573 181.885 225.489 178.434 235.523 175.463C249.797 171.193 264.281 167.891 278.899 165.575V115.82C264.298 117.802 249.814 120.773 235.523 124.717C220.659 128.537 205.985 133.265 191.567 138.882C178.676 143.926 167.555 153.572 159.855 166.388C152.155 179.204 148.286 194.507 148.823 210.026C149.359 225.546 154.273 240.454 162.834 252.54C171.395 264.626 183.147 273.245 196.347 277.118C197.136 277.491 197.957 277.767 198.797 277.943C212.544 281.409 226.45 284.365 240.303 286.841C304.748 298.205 370.349 298.119 434.771 286.586C448.229 284.275 461.529 281.319 474.684 278.018C476.019 277.715 477.337 277.329 478.635 276.863C491.632 272.663 503.113 263.845 511.406 251.693C519.699 239.542 524.372 224.691 524.744 209.304C525.115 193.916 521.167 178.795 513.473 166.142C505.779 153.489 494.741 143.965 481.966 138.957L481.914 138.882Z" fill="black"/>
<path d="M336.747 65.8998C392.644 65.8998 437.958 51.1476 437.958 32.9499C437.958 14.7522 392.644 0 336.747 0C280.85 0 235.536 14.7522 235.536 32.9499C235.536 51.1476 280.85 65.8998 336.747 65.8998Z" fill="black"/>
<path d="M394.529 33.0099V158.703C375.479 162.938 356.103 164.984 336.694 164.809C317.281 164.985 297.901 162.939 278.846 158.703V33.0099H235.523V181.284C235.523 199.41 280.782 214.294 336.747 214.294C392.712 214.294 437.958 199.455 437.958 181.284V33.0099H394.529Z" fill="black"/>
<path d="M315.059 148.274C327.037 148.274 336.747 137.21 336.747 123.562C336.747 109.914 327.037 98.8497 315.059 98.8497C303.081 98.8497 293.371 109.914 293.371 123.562C293.371 137.21 303.081 148.274 315.059 148.274Z" fill="black"/>
<path d="M361.74 106.997C369.558 106.997 375.896 99.7755 375.896 90.8672C375.896 81.959 369.558 74.7374 361.74 74.7374C353.922 74.7374 347.584 81.959 347.584 90.8672C347.584 99.7755 353.922 106.997 361.74 106.997Z" fill="black"/>
<path d="M675.829 594.478C672.484 594.487 669.262 593.045 666.816 590.445C664.371 587.845 662.885 584.282 662.661 580.479C662.384 575.813 661.976 571.116 661.463 566.39C661.248 564.43 661.375 562.442 661.835 560.538C662.295 558.634 663.079 556.852 664.144 555.293C665.208 553.735 666.532 552.431 668.038 551.455C669.545 550.479 671.206 549.852 672.926 549.607C674.645 549.363 676.391 549.507 678.061 550.031C679.732 550.555 681.296 551.449 682.664 552.662C684.032 553.875 685.176 555.383 686.033 557.1C686.889 558.817 687.44 560.709 687.654 562.669C688.234 567.98 688.673 573.242 688.971 578.453C689.202 582.423 688.041 586.334 685.742 589.328C683.443 592.321 680.195 594.152 676.711 594.418C676.422 594.463 676.132 594.478 675.829 594.478Z" fill="black"/>
<path d="M666.756 535.451C663.88 535.449 661.083 534.375 658.793 532.391C656.503 530.408 654.846 527.625 654.075 524.467C648.417 501.516 640.381 479.414 630.135 458.628C628.473 455.159 628.079 451.083 629.038 447.285C629.998 443.488 632.233 440.275 635.26 438.344C638.286 436.413 641.858 435.921 645.201 436.974C648.544 438.027 651.388 440.54 653.114 443.968C664.385 466.839 673.226 491.157 679.45 516.41C679.997 518.64 680.083 520.985 679.702 523.26C679.321 525.535 678.483 527.678 677.253 529.522C676.024 531.367 674.436 532.861 672.615 533.89C670.794 534.918 668.789 535.453 666.756 535.451Z" fill="black"/>
<path d="M13.1375 512.674C11.022 512.668 8.93884 512.082 7.06434 510.964C5.18983 509.847 3.57917 508.231 2.3687 506.255C1.15823 504.278 0.383579 501.998 0.11032 499.607C-0.162939 497.217 0.0732383 494.787 0.798861 492.523C8.72247 467.943 19.1061 444.486 31.7442 422.617C33.6651 419.29 36.6671 416.969 40.0898 416.164C43.5126 415.359 47.0757 416.137 49.9954 418.325C52.9151 420.514 54.9521 423.935 55.6584 427.835C56.3647 431.735 55.6824 435.795 53.7615 439.122C42.2366 459.067 32.7676 480.46 25.542 502.876C24.6052 505.761 22.9128 508.248 20.694 510.001C18.4752 511.753 15.8372 512.686 13.1375 512.674Z" fill="black"/>
<path d="M66.4689 409.908C63.9514 409.905 61.4874 409.079 59.3689 407.53C57.2505 405.98 55.5662 403.771 54.5158 401.164C53.4654 398.557 53.0929 395.662 53.4423 392.821C53.7917 389.98 54.8485 387.313 56.4873 385.135C59.4634 381.194 62.536 377.313 65.7051 373.492C66.8854 372.052 68.303 370.89 69.8772 370.074C71.4513 369.258 73.1511 368.803 74.8795 368.736C76.6079 368.668 78.3311 368.989 79.9506 369.68C81.5701 370.372 83.0543 371.419 84.3184 372.764C85.5825 374.109 86.6018 375.724 87.318 377.518C88.0342 379.312 88.4334 381.249 88.4927 383.218C88.552 385.187 88.2703 387.151 87.6636 388.996C87.057 390.842 86.1373 392.533 84.9571 393.973C82.0732 397.499 79.2684 401.055 76.5426 404.686C75.2966 406.337 73.7501 407.66 72.0105 408.561C70.2709 409.463 68.3799 409.923 66.4689 409.908Z" fill="black"/>
<path d="M629.833 537.266C618.653 489.883 596.937 446.586 566.783 411.558C554.207 396.554 539.024 378.278 524.131 359.043C505.232 334.553 489.859 306.806 478.582 276.833C472.802 261.88 468.034 246.446 464.321 230.664H461.437C420.474 240.689 378.697 245.769 336.8 245.819C294.997 245.788 253.315 240.708 212.452 230.664H210.424C207.25 244.743 203.237 258.559 198.415 272.017C197.835 273.652 197.098 275.468 196.4 277.118C186.427 303.601 172.914 328.165 156.342 349.935C139.223 372.517 121.209 394.423 106.461 411.723C76.4466 446.753 54.8357 489.983 43.701 537.266C12.6239 674.512 89.3948 750.63 172.105 792.342C223.976 818.492 280.072 832 336.793 832C393.515 832 449.61 818.492 501.482 792.342C584.152 750.63 660.923 674.512 629.833 537.266ZM484.666 744.028C438.097 767.602 387.705 779.783 336.747 779.783C285.789 779.783 235.397 767.602 188.828 744.028C70.551 684.4 73.1452 605.311 85.4443 551.1C94.7086 512.625 112.424 477.474 136.919 448.965C149.639 433.96 169.3 410.403 188.394 385.03C209.198 357.567 225.991 326.471 238.13 292.933C238.854 290.952 239.579 288.987 240.303 286.841L241.62 282.88H433.481C433.902 284.035 434.337 285.356 434.798 286.511C448.338 326.09 467.869 362.656 492.501 394.543C507.961 414.649 523.288 433.255 536.312 448.755C561 477.173 578.838 512.367 588.102 550.935C600.336 605.311 602.93 684.4 484.666 744.028Z" fill="black"/>
<path d="M336.747 560.163C480.49 560.163 597.017 534.347 597.017 502.501C597.017 470.655 480.49 444.838 336.747 444.838C193.004 444.838 76.4767 470.655 76.4767 502.501C76.4767 534.347 193.004 560.163 336.747 560.163Z" fill="black"/>
<path d="M629.872 537.311C626.484 522.546 621.99 508.138 616.44 494.248H608.803C609.707 496.876 610.154 499.679 610.12 502.501C610.12 574.372 347.94 575.122 336.747 575.122C332.27 575.122 286.181 574.972 233.113 570.021C239.17 652.396 284.732 749.775 437.352 817.445C459.35 811.256 480.814 802.819 501.482 792.237C584.152 750.675 660.949 674.452 629.872 537.311ZM372.986 663.994L364.506 688.481L356.038 663.994L334.535 654.331L356.038 644.668L364.506 620.181L372.986 644.668L394.477 654.331L372.986 663.994ZM502.785 684.34L490.368 720.216L477.95 684.34L446.465 670.191L477.95 656.042L490.368 620.181L502.785 656.042L534.271 670.191L502.785 684.34Z" fill="black"/>
</svg>
