<svg width="813" height="661" viewBox="0 0 813 661" fill="none" xmlns="http://www.w3.org/2000/svg">
<path d="M163.563 83.7923H75.0036V41.2149H169.984C166.284 55.0082 164.132 69.1383 163.563 83.3666V83.7923ZM207.352 41.2149C206.728 42.7477 206.193 44.4508 205.569 46.2391C201.876 58.4665 199.75 71.0763 199.237 83.7923H359.768V83.3666C360.342 69.1669 362.495 55.0657 366.189 41.3001H207.352V41.2149ZM403.111 41.2149C402.487 42.7477 401.952 44.4508 401.327 46.2391C397.635 58.4665 395.509 71.0763 394.995 83.7923H544.289C544.776 69.417 546.929 55.1373 550.71 41.2149H403.111ZM787.047 14.7318L746.915 41.2149V83.7923L787.047 110.276C789.523 111.928 792.425 112.9 795.439 113.085C798.453 113.271 801.463 112.663 804.14 111.328C806.817 109.993 809.059 107.982 810.621 105.514C812.183 103.046 813.006 100.216 813 97.332V27.7605C812.991 24.8816 812.161 22.0593 810.599 19.5971C809.036 17.135 806.8 15.126 804.131 13.7863C801.463 12.4465 798.462 11.8266 795.452 11.9932C792.442 12.1598 789.536 13.1066 787.047 14.7318ZM3.46405e-05 27.7605V97.332C-0.00615318 100.216 0.816765 103.046 2.37911 105.514C3.94145 107.982 6.18327 109.993 8.86026 111.328C11.5372 112.663 14.5467 113.271 17.5606 113.085C20.5745 112.9 23.4773 111.928 25.9525 110.276L66.0853 83.7923V41.2149L25.9525 14.7318C23.4638 13.1066 20.5582 12.1598 17.5481 11.9932C14.538 11.8266 11.5373 12.4465 8.86851 13.7863C6.19976 15.126 3.96391 17.135 2.40135 19.5971C0.838781 22.0593 0.00859354 24.8816 3.46405e-05 27.7605ZM255.69 133.182C258.571 119.732 260.006 106.036 259.971 92.3078H242.134C242.182 103.326 241.197 114.327 239.191 125.178C244.991 127.239 250.527 129.925 255.69 133.182ZM451.895 133.182C454.775 119.675 456.21 105.922 456.175 92.1375H438.339C438.387 103.184 437.402 114.213 435.396 125.092C441.084 127.259 446.498 130.03 451.538 133.352L451.895 133.182ZM641.054 92.1375H623.217C623.211 102.296 622.316 112.436 620.541 122.453C626.487 123.585 632.246 125.476 637.664 128.073C639.781 116.26 640.796 104.292 640.697 92.3078L641.054 92.1375ZM615.458 41.0446H588.703C588.078 42.5774 587.543 44.2805 586.919 46.0688C583.227 58.2962 581.1 70.906 580.587 83.622H737.996V41.0446H615.101H615.458ZM674.943 159.154C659.069 153.619 649.794 143.401 635.97 136.418C630.684 133.717 625.001 131.794 619.114 130.713C613.662 129.603 608.1 129.06 602.526 129.095C596.53 129.061 590.548 129.661 584.689 130.883C584.689 130.883 584.689 130.883 584.689 131.394C584.689 131.905 584.689 132.927 585.224 133.523C586.894 140.321 589.567 146.858 593.162 152.938V153.619C595.814 152.766 598.573 152.251 601.367 152.087H603.507C606.032 152.065 608.549 152.351 610.999 152.938C606.629 161.964 601.099 167.414 596.818 167.414C592.537 167.414 589.684 164.349 586.027 158.899C585.708 158.474 585.438 158.018 585.224 157.536C581.126 150.465 578.122 142.864 576.306 134.97C576.306 134.459 576.306 134.034 576.306 133.523C573.01 119.984 571.393 106.122 571.49 92.2227C571.49 89.668 571.49 87.1985 571.49 84.133V83.7072C571.49 79.9604 571.758 76.2987 572.293 72.7222C572.293 71.1043 572.293 69.5715 573.006 67.9536L573.809 61.8224C574.255 59.2678 574.79 56.7983 575.325 54.4139C575.325 53.7327 575.325 53.1366 575.771 52.5405C576.484 49.3898 577.376 46.4094 578.268 43.5993C578.511 42.7593 578.809 41.9345 579.16 41.1298L580.23 38.1494L581.746 34.3174L582.549 32.6143C587.632 21.9699 593.34 17.031 597.264 17.031C601.188 17.031 606.985 21.8848 612.069 32.6143H631.332C623.306 11.4959 611.355 0 597.264 0C583.173 0 569.171 13.7099 561.591 38.5751L560.788 41.1298L559.45 45.8133C559.45 46.75 559.45 47.857 558.737 48.7937C558.023 49.7304 558.202 51.4335 557.845 52.7108C557.488 53.9882 557.845 54.6694 557.221 55.6913C556.596 56.7131 557.221 58.3311 556.507 59.6935C555.794 61.056 556.507 61.8224 556.507 62.9294C556.507 64.0364 556.061 65.2286 555.972 66.4208V68.6348C555.972 68.6348 555.972 69.316 555.972 69.5715C555.972 72.041 555.972 74.5105 555.259 77.0651C555.259 77.5761 555.259 78.0018 555.259 78.4276C555.259 80.2158 555.259 81.919 555.259 83.7072V84.133C555.259 86.8579 555.259 89.4977 555.259 92.2227C555.13 108.056 557.047 123.843 560.966 139.228L561.769 141.868C563.398 151.157 566.527 160.149 571.044 168.521C571.834 169.76 572.697 170.954 573.63 172.098C576.119 175.865 579.53 178.997 583.57 181.222C587.61 183.448 592.157 184.7 596.818 184.871C605.023 184.871 616.706 180.869 626.517 161.879C628.906 164.121 630.868 166.743 632.313 169.628C634.423 173.756 635.528 178.285 635.547 182.877C635.566 187.47 634.498 192.007 632.423 196.15C630.347 200.293 627.319 203.935 623.562 206.804C619.806 209.673 615.42 211.694 610.731 212.717C606.036 213.738 601.161 213.739 596.466 212.718C591.772 211.697 587.378 209.681 583.609 206.819C579.841 203.957 576.795 200.322 574.697 196.184C572.6 192.046 571.503 187.51 571.49 182.913C569.67 181.201 568 179.35 566.496 177.378C565.373 175.986 564.331 174.536 563.374 173.035C558.227 165.104 554.322 156.497 551.781 147.488C538.539 157.976 521.804 163.594 504.602 163.327C475.885 163.327 464.024 151.576 449.219 141.868C444.355 138.405 439.051 135.543 433.434 133.352C424.9 130.234 415.813 128.73 406.678 128.924C404.003 128.924 401.595 128.924 399.187 128.924C400.515 136.734 402.976 144.329 406.5 151.49C406.675 151.849 406.884 152.191 407.124 152.512C408.608 152.383 410.1 152.383 411.583 152.512C413.097 152.386 414.619 152.386 416.132 152.512C419.222 152.884 422.231 153.717 425.05 154.982V155.493C420.769 162.986 416.132 167.5 412.029 167.5C407.927 167.5 403.111 162.986 399.009 155.493V154.897C394.984 147.404 391.987 139.447 390.09 131.224C390.09 131.224 390.09 131.224 390.09 130.713C387.307 118.085 385.932 105.212 385.988 92.3078C385.988 89.4977 385.988 86.7728 385.988 84.2181V83.7923C385.988 80.0455 386.255 76.3839 386.79 72.8074C386.79 71.1894 387.236 69.7418 387.504 68.1239C387.771 66.5059 387.504 63.8661 388.307 61.9076C389.109 59.949 389.288 56.8834 389.823 54.4991C389.823 53.903 389.823 53.2218 389.823 52.6257C390.536 49.475 391.428 46.4945 392.32 43.6844C392.563 42.8444 392.861 42.0197 393.212 41.2149L394.282 38.2345L395.798 34.4026L396.601 32.6995C401.684 22.0551 407.481 17.1161 411.405 17.1161C415.329 17.1161 421.126 22.0551 426.21 32.6995H445.473C437.536 11.9217 425.229 0.0851568 411.405 0.0851568C396.244 0.0851568 383.045 14.2209 375.197 38.6603C375.197 39.5118 374.661 40.3634 374.483 41.2149C373.77 43.5141 373.145 45.8985 372.521 48.3679C372.562 48.9918 372.562 49.6175 372.521 50.2413V51.6038V52.7108C372.521 53.5624 372.521 54.4139 372.521 55.2655C371.897 58.1607 371.451 61.056 371.005 63.781L370.47 67.6129C370.47 67.6129 370.47 68.209 370.47 68.4645C370.47 71.0191 369.935 73.5738 369.756 76.1284C369.712 76.6385 369.712 77.1511 369.756 77.6612C369.756 79.5346 369.756 81.408 369.756 83.3666C369.756 86.1767 369.756 88.9868 369.756 91.8821C369.712 106.192 371.266 120.465 374.394 134.459C374.353 134.998 374.353 135.539 374.394 136.077C376.57 145.439 379.955 154.507 384.472 163.072C384.983 164.009 385.549 164.919 386.166 165.796C395.53 180.784 405.965 184.02 412.921 184.02C419.878 184.02 430.758 180.784 439.676 165.796C441.667 168.707 443.087 171.939 443.868 175.334C444.5 177.899 444.77 180.534 444.671 183.168C444.6 191.389 441.111 199.246 434.973 205.011C428.835 210.776 420.55 213.977 411.94 213.909C403.331 213.841 395.102 210.511 389.064 204.65C383.026 198.789 379.674 190.878 379.745 182.657C379.732 180.364 380.002 178.078 380.548 175.845C378.593 173.107 376.806 170.264 375.197 167.329C370.721 158.887 367.309 149.969 365.03 140.761C349.601 150.639 338.274 162.986 308.398 162.986C278.521 162.986 267.908 151.49 253.015 141.783C248.117 138.369 242.819 135.511 237.229 133.267C228.684 130.199 219.601 128.724 210.474 128.924C207.949 128.791 205.418 128.791 202.893 128.924C204.521 136.761 207.251 144.352 211.009 151.49L211.633 152.512C214.589 152.076 217.596 152.076 220.552 152.512C223.642 152.884 226.651 153.717 229.47 154.982V155.493C225.1 163.157 220.552 167.5 216.449 167.5C212.347 167.5 207.531 163.157 203.428 155.493V154.897C199.403 147.434 196.405 139.506 194.51 131.309C194.51 131.309 194.51 131.309 194.51 130.798C191.731 118.141 190.356 105.24 190.408 92.3078C190.408 89.4977 190.408 86.7728 190.408 84.2181V83.7923C190.408 80.6416 190.408 77.4909 191.121 74.4253C191.121 73.8292 191.121 73.148 191.121 72.4668C191.121 69.4012 191.834 66.4208 192.37 63.4403L192.905 60.4599L193.975 54.8397C193.975 53.3069 194.688 51.8593 195.134 50.3265C195.58 48.7937 196.294 45.8133 197.007 43.6844L197.81 41.2149C198.702 38.7454 199.593 36.4463 200.485 34.4026L201.288 32.6995C206.371 21.9699 212.079 17.1161 216.092 17.1161C220.106 17.1161 225.724 22.0551 230.808 32.6995H250.072C242.045 11.5811 230.184 0.0851568 216.092 0.0851568C202.001 0.0851568 187.91 13.7951 179.884 38.6603C179.884 39.5118 179.349 40.3634 179.17 41.2149C175.13 55.0963 172.854 69.3916 172.392 83.7923C172.392 86.6025 172.392 89.4126 172.392 92.3078C172.359 106.617 173.914 120.889 177.03 134.885C176.99 135.395 176.99 135.908 177.03 136.418C179.176 145.788 182.562 154.859 187.108 163.412C187.62 164.35 188.185 165.259 188.802 166.137C198.167 181.124 208.601 184.36 215.557 184.36C222.514 184.36 233.394 181.124 242.313 166.137C244.303 169.048 245.723 172.279 246.504 175.674C247.136 178.24 247.406 180.875 247.307 183.509C247.165 191.616 243.656 199.338 237.551 204.976C231.446 210.613 223.246 213.704 214.755 213.568C206.263 213.433 198.176 210.082 192.272 204.253C186.368 198.424 183.131 190.595 183.273 182.487C183.26 180.194 183.53 177.907 184.075 175.674C182.121 172.937 180.334 170.094 178.724 167.159C174.244 158.779 170.831 149.916 168.557 140.761C159.961 147.222 150.767 152.922 141.089 157.792C132.778 161.427 125.792 167.348 121.025 174.797C116.259 182.245 113.929 190.883 114.334 199.603C121.112 369.231 48.2485 544.906 92.0378 632.956C94.5869 638.079 98.2382 642.631 102.754 646.316C107.269 650.002 112.547 652.737 118.244 654.344C123.94 655.951 129.928 656.393 135.816 655.642C141.704 654.892 147.36 652.965 152.415 649.987C156.429 647.517 160.085 644.878 163.831 642.323C177.887 632.701 189.775 620.48 198.791 606.388C205.863 595 212.293 583.26 218.055 571.219C231.221 543.28 241.323 514.115 248.199 484.19C244.182 514.832 236.86 544.995 226.349 574.199C219.806 592.394 211.662 610.028 202.001 626.91C204.677 626.91 207.62 626.91 210.92 626.91C259.793 626.91 259.793 660.972 309.022 660.972C338.185 660.972 365.475 637.895 366.456 636.788C378.55 622.046 388.26 605.656 395.263 588.164C402.447 570.727 408.231 552.793 412.565 534.517C411.043 553.463 408.062 572.276 403.646 590.804C400.422 603.682 395.974 616.252 390.358 628.357C395.643 627.351 401.022 626.865 406.411 626.91C455.373 626.91 455.373 660.972 504.513 660.972C518.635 661.369 532.537 657.56 544.289 650.072C563.305 638.485 578.368 621.854 587.632 602.215C592.362 592.042 596.53 581.639 600.118 571.048C608.591 546.353 614.833 520.722 620.809 495.09C618.134 521.324 614.086 547.414 608.68 573.262C604.728 591.915 598.751 610.123 590.843 627.591C594.569 627.133 598.323 626.905 602.08 626.91C633.473 626.91 644.71 640.96 661.744 651.009C665.725 653.275 670.238 654.55 674.869 654.716C679.501 654.882 684.101 653.933 688.248 651.958C692.395 649.982 695.956 647.043 698.602 643.41C701.249 639.777 702.896 635.567 703.393 631.168C721.765 474.483 746.469 307.579 725.421 216.378C722.627 203.566 716.509 191.628 707.627 181.659C698.745 171.691 687.385 164.011 674.587 159.325L674.943 159.154Z" fill="black"/>
</svg>
