<svg width="750" height="731" viewBox="0 0 750 731" fill="none" xmlns="http://www.w3.org/2000/svg">
<path fill-rule="evenodd" clip-rule="evenodd" d="M519.714 536.403C527.07 536.403 533.027 542.442 533.027 549.9C533.027 557.358 527.071 563.397 519.714 563.397C512.357 563.397 506.4 557.358 506.4 549.9C506.4 542.442 512.357 536.403 519.714 536.403ZM438.531 579.335C445.887 579.335 451.844 585.374 451.844 592.832C451.844 600.29 445.888 606.329 438.531 606.329C431.174 606.329 425.217 600.29 425.217 592.832C425.217 585.374 431.174 579.335 438.531 579.335ZM618.084 490.405C625.441 490.405 631.398 496.444 631.398 503.902C631.398 511.36 625.441 517.399 618.084 517.399C610.727 517.399 604.771 511.36 604.771 503.902C604.771 496.444 610.727 490.405 618.084 490.405ZM330.85 638.503C338.207 638.503 344.164 644.542 344.164 652C344.164 659.458 338.207 665.497 330.85 665.497C323.493 665.497 317.536 659.458 317.536 652C317.536 644.542 323.493 638.503 330.85 638.503ZM431.464 654.244C438.821 654.244 444.778 660.283 444.778 667.741C444.778 675.199 438.821 681.238 431.464 681.238C424.108 681.238 418.15 675.199 418.15 667.741C418.15 660.283 424.107 654.244 431.464 654.244ZM359.818 542.48C367.175 542.48 373.132 548.518 373.132 555.977C373.132 563.434 367.175 569.474 359.818 569.474C352.462 569.474 346.505 563.435 346.505 555.977C346.505 548.519 352.461 542.48 359.818 542.48ZM584.913 580.363C592.269 580.363 598.227 586.402 598.227 593.86C598.227 601.318 592.27 607.357 584.913 607.357C577.556 607.357 571.599 601.318 571.599 593.86C571.599 586.402 577.556 580.363 584.913 580.363ZM533.449 461.595C540.806 461.595 546.763 467.634 546.763 475.092C546.763 482.55 540.806 488.589 533.449 488.589C526.092 488.589 520.135 482.551 520.135 475.092C520.135 467.635 526.092 461.595 533.449 461.595ZM439.185 494C446.541 494 452.499 500.039 452.499 507.497C452.499 514.956 446.542 520.994 439.185 520.994C431.828 520.994 425.871 514.956 425.871 507.497C425.871 500.039 431.828 494 439.185 494ZM516.917 627.247C524.274 627.247 530.231 633.286 530.231 640.744C530.231 648.202 524.274 654.241 516.917 654.241C509.56 654.241 503.603 648.202 503.603 640.744C503.603 633.286 509.56 627.247 516.917 627.247ZM88.3444 179.151C82.8432 180.306 77.1139 177.402 74.8356 171.958C67.2186 153.907 62.9542 133.579 63.6709 113.78C64.3219 95.4983 69.2046 77.6794 79.523 62.3349C81.9969 58.672 86.0983 56.791 90.1994 57.022L142.607 56.857C136.455 41.4795 128.089 28.3786 118.161 18.6113C106.215 6.83088 92.0227 0 76.9514 0C56.5419 0 37.7924 12.5728 23.8927 32.8999C9.11477 54.5474 0 84.7085 0 118.239C0 151.77 9.14727 181.928 23.8927 203.579C37.7599 223.906 56.5419 236.479 76.9514 236.479C92.1202 236.479 106.377 229.549 118.39 217.636C128.35 207.769 136.748 194.536 142.868 179.027L88.3444 179.192V179.151ZM96.287 81.4105L158.688 81.2125C159.209 81.2455 159.73 81.2455 160.283 81.2125L271.905 80.8495C297.49 80.7505 321.481 89.0003 341.012 103.421C360.543 117.842 375.613 138.466 383.328 163.149L424.408 294.09C402.045 300.921 379.292 309.369 356.474 319.401L314.45 185.393C311.488 175.956 305.823 168.135 298.434 162.69C291.045 157.212 281.996 154.143 272.263 154.176L160.225 154.539C159.834 154.506 159.443 154.506 159.085 154.539L94.1778 154.737C89.7508 141.868 87.3745 128.074 87.8629 114.676C88.286 102.929 90.9552 91.5436 96.3585 81.446L96.287 81.4105ZM354.58 347.017C354.125 347.281 353.636 347.512 353.148 347.677C283.196 380.445 226.101 423.344 189.644 467.002C153.642 510.165 138.278 553.33 151.95 586.496C160.771 566.73 173.401 546.667 189.449 526.834C233.263 472.616 302.729 419.623 387.461 380.645C392.181 378.467 397.095 376.289 402.239 374.078C483.812 338.901 564.151 323.49 628.858 327.153C644.808 328.044 659.88 330.123 673.811 333.357C654.085 310.951 617.757 298.642 572.022 296.761C512.811 294.319 438.725 309.433 363.86 342.795C360.768 344.181 357.676 345.567 354.616 347.019L354.58 347.017ZM372.582 729.474C373.103 729.375 373.591 729.342 374.079 729.342C419 724.887 469.618 711.456 520.692 688.753C520.822 688.687 520.952 688.654 521.083 688.588C589.636 658.063 645.588 616.815 680.645 574.805C713.815 535.074 727.779 495.376 714.694 465.178C701.641 435.017 663.36 418.616 612.096 416.471C557.866 414.227 490.033 428.087 421.409 458.644C352.856 489.169 296.904 530.417 261.847 572.427C228.677 612.158 214.713 651.856 227.798 682.054C240.851 712.215 279.132 728.616 330.396 730.761C343.71 731.322 357.804 730.893 372.582 729.507L372.582 729.474ZM741.906 471.588C742.459 470.037 742.98 468.486 743.501 466.968C750.369 445.981 752.485 426.611 746.463 412.255C746.333 411.926 746.072 411.398 745.747 410.639C736.73 390.509 718.99 375.395 694.836 365.462C694.511 365.363 694.218 365.231 693.892 365.066C675.208 357.509 652.715 352.988 627.521 351.569C566.291 348.104 489.799 362.888 411.676 396.58C407.119 398.527 402.366 400.672 397.387 402.949C316.139 440.304 249.765 490.823 208.166 542.337C187.952 567.35 173.727 592.364 166.663 615.925C166.533 616.552 166.37 617.146 166.142 617.74C159.795 639.981 159.925 660.837 167.542 679.052C178.089 704.165 201.721 720.697 234.37 729.343C236.062 729.805 237.788 730.234 239.513 730.63C224.181 720.664 212.56 707.696 205.692 691.789C188.57 652.289 204.26 603.552 243.418 556.591C280.69 511.943 339.741 468.286 411.773 436.21C483.743 404.168 555.386 389.648 613.034 392.024C673.644 394.532 719.706 415.849 736.798 455.382C739.076 460.629 740.769 466.041 741.876 471.585L741.906 471.588Z" fill="black"/>
</svg>
