<svg width="808" height="792" viewBox="0 0 808 792" fill="none" xmlns="http://www.w3.org/2000/svg">
<path d="M142.486 0C138.423 0 134.806 2.26132 133.353 5.70394L69.7158 159.336H69.7531C68.5975 162.036 69.0075 165.108 70.8342 167.47C72.6609 169.867 75.6433 171.318 78.8493 171.318H203.661V310.072H0V324.213H808V310.072H219.312V171.318H279.668V224.544V224.51C279.668 228.425 283.172 231.597 287.459 231.597C291.784 231.597 295.288 228.425 295.288 224.51V171.319H344.087C347.293 171.319 350.313 169.901 352.14 167.505C353.967 165.108 354.377 162.071 353.258 159.337L289.584 5.70476C288.168 2.26214 284.514 0.000811639 280.488 0.000811639L142.486 0ZM79.2597 338.421V792H176.08V736.716H631.94V792H728.76V338.421H631.682V645.824H176.385L176.348 338.421H79.2597ZM191.989 338.421V427.286H616.011V338.421H191.989ZM341.746 375.75H342.492H466.11H466.073C470.397 375.784 473.902 378.922 473.902 382.837C473.902 386.753 470.397 389.891 466.073 389.925H342.455H342.492C338.167 390.094 334.514 387.09 334.29 383.175C334.104 379.26 337.422 375.952 341.746 375.75ZM191.989 441.463V631.722H616.011V441.437L191.989 441.463ZM342.186 523.174H465.805V523.14C469.905 523.41 473.074 526.482 473.074 530.194C473.074 533.941 469.905 537.012 465.805 537.248H342.186C338.085 537.012 334.917 533.941 334.917 530.194C334.917 526.482 338.085 523.41 342.186 523.14V523.174Z" fill="black"/>
</svg>
