<svg width="799" height="773" viewBox="0 0 799 773" fill="none" xmlns="http://www.w3.org/2000/svg">
<path fill-rule="evenodd" clip-rule="evenodd" d="M779.025 328.525H19.975V425.15C19.975 432.494 24.3695 439.064 30.5618 442.156C23.7703 453.944 19.975 467.858 19.975 483.125C19.975 498.392 23.97 512.306 30.5618 524.094C28.5643 525.06 26.7665 526.413 25.1685 528.152C21.3733 532.211 19.5755 537.428 19.975 542.839L39.95 755.414C40.9488 765.463 49.538 773 59.925 773H119.85C130.237 773 138.826 765.463 139.825 755.414L159.8 542.839C160.399 537.428 158.402 532.017 154.606 528.152C153.008 526.413 151.211 525.06 149.213 524.094C156.005 512.306 159.8 498.392 159.8 483.125C159.8 467.858 155.805 453.944 149.213 442.156C155.605 438.871 159.8 432.494 159.8 425.15V405.825H639.2V425.15C639.2 432.494 643.594 439.064 649.787 442.156C642.995 453.944 639.2 467.858 639.2 483.125C639.2 498.392 643.195 512.306 649.787 524.094C647.789 525.06 645.991 526.413 644.393 528.152C640.598 532.211 638.801 537.428 639.2 542.839L659.175 755.414C660.174 765.463 668.763 773 679.15 773H739.075C749.462 773 758.051 765.463 759.05 755.414L779.025 542.839C779.624 537.428 777.627 532.017 773.832 528.152C772.234 526.413 770.436 525.06 768.438 524.094C775.23 512.306 779.025 498.392 779.025 483.125C779.025 467.858 775.03 453.944 768.438 442.156C774.83 438.871 779.025 432.494 779.025 425.15V328.525ZM313.008 444.475H186.367L199.95 562.551C201.148 572.407 209.538 579.75 219.725 579.75H279.65C289.837 579.75 298.427 572.407 299.425 562.551L313.008 444.475ZM612.633 444.475H485.992L499.575 562.551C500.773 572.407 509.163 579.75 519.35 579.75H579.275C589.462 579.75 598.051 572.407 599.05 562.551L612.633 444.475ZM1.1985 206.584C0.19975 209.29 0 216.44 0 217.406V265.719C0 279.053 8.98875 289.875 19.975 289.875H779.025C790.011 289.875 799 279.053 799 265.719V217.406C799 217.406 799 209.29 797.802 206.584L717.901 11.595C715.105 4.638 707.514 0 699.125 0H99.875C91.4855 0 83.895 4.638 81.0985 11.595L1.1985 206.584Z" fill="black"/>
</svg>
