<svg width="762" height="815" viewBox="0 0 762 815" fill="none" xmlns="http://www.w3.org/2000/svg">
<path d="M289.61 356.002C329.767 307.582 328.912 226.956 274.885 149.251C212.269 59.1876 102.134 7.32181 40.8564 50.4996C-20.4952 93.7149 -9.71222 215.721 52.9037 305.822C106.967 383.527 181.854 411.875 240.826 390.455C296.116 484.787 413.577 685.06 436.779 724.044C467.306 775.423 520.403 836.95 565.506 805.119C610.646 773.288 571.381 702.061 533.938 655.588C505.493 620.312 358.695 440.56 289.61 356.002ZM542.787 703.11C555.392 721.123 551.005 745.951 533.12 758.533C515.235 771.153 490.583 766.772 478.089 748.759C465.596 730.747 469.872 705.881 487.757 693.336C505.679 680.753 530.294 685.06 542.787 703.11Z" fill="black"/>
<path d="M193.392 656.726C155.949 703.2 116.684 774.464 161.824 806.257C206.889 838.088 259.949 776.561 290.514 725.182C298.731 711.401 318.847 677.21 343.722 634.857C326.209 605.01 307.023 572.281 288.208 540.262C244.333 593.963 206.406 640.549 193.392 656.726ZM249.241 749.897C236.747 767.873 212.058 772.292 194.21 759.671C176.362 747.051 171.975 722.261 184.468 704.248C196.999 686.236 221.651 681.891 239.499 694.474C257.421 707.057 261.734 731.922 249.241 749.897Z" fill="black"/>
<path d="M753.205 97.2724C743.798 90.6441 730.895 92.9284 724.388 102.403L622.879 248.339L612.654 241.111L714.126 95.1379C720.67 85.7758 718.365 72.7439 708.995 66.1155C699.625 59.5246 686.685 61.8839 680.178 71.2459L578.706 217.219L573.575 213.549L568.406 209.954L669.916 63.981C676.46 54.5815 674.117 41.5869 664.821 34.996C655.377 28.3677 642.475 30.652 635.968 40.089L534.496 186.062L524.233 178.835L625.668 32.824C632.249 23.3496 629.907 10.3551 620.574 3.76421C611.204 -2.82668 598.264 -0.542356 591.757 8.8946C591.757 8.8946 442.58 223.473 431.165 239.875C417.965 258.899 401.195 312.562 437.932 356.227C423.356 374.015 405.36 396.147 385.802 420.076C401.232 438.988 417.853 459.285 434.585 479.769C454.292 446.178 472.623 414.946 486.864 390.679C540.185 410.527 584.507 376.299 597.744 357.276C609.122 340.873 758.299 126.332 758.299 126.332C764.806 116.82 762.501 103.901 753.205 97.2724Z" fill="black"/>
</svg>
