<svg width="818" height="637" viewBox="0 0 818 637" fill="none" xmlns="http://www.w3.org/2000/svg">
<path fill-rule="evenodd" clip-rule="evenodd" d="M126.467 227.919C135.904 231.757 143.638 239.513 148.996 248.804C155.169 238.14 164.428 229.655 175.888 226.667C178.974 225.859 181.422 227.394 182.877 229.979C188.979 241.371 190.15 254.702 187.879 267.226C198.877 264.761 210.692 266.175 220.591 273.204C223.394 275.184 224.032 278.254 223.5 281.162C220.768 294.211 213.247 304.633 203.88 311.581C213.246 318.61 220.697 329.154 223.322 342.202C224.032 345.716 222.683 348.504 220.413 350.16C210.408 357.108 198.629 358.441 187.701 355.856C189.688 367.126 188.872 379.004 184.154 389.587C203.88 415.643 228.395 439.518 257.345 461.453C297.684 484.52 382.229 496.598 468.867 496.598C552.773 496.598 638.236 485.206 686.954 461.331C716.011 439.315 740.633 415.319 760.323 389.061C755.782 378.598 755.072 366.843 757.059 355.855C746.061 358.562 734.247 357.107 724.348 350.159C721.971 348.503 720.729 345.715 721.439 342.201C724.064 329.153 731.515 318.61 740.88 311.58C731.515 304.632 723.993 294.209 721.261 281.161C720.622 278.253 721.261 275.183 724.17 273.203C734.068 266.174 745.882 264.72 756.881 267.224C754.504 254.702 755.781 241.249 761.883 229.978C763.338 227.272 765.786 225.858 768.873 226.666C780.332 229.655 789.592 238.139 795.765 248.803C801.016 239.592 808.466 232.038 817.762 228.12C818.4 211.355 817.762 194.105 815.775 176.089C799.171 184.37 765.289 191.076 719.31 195.641C583.183 209.093 361.653 209.093 225.416 195.641C179.471 191.076 145.589 184.491 128.951 176.089C126.468 194.025 125.828 211.275 126.467 227.919ZM428.994 281.405C430.165 278.294 432.613 276.638 435.912 277.163C447.442 278.617 457.447 285.646 464.614 295.14C469.439 283.748 477.529 274.052 488.136 269.286C491.116 267.832 493.955 268.559 495.87 271.265C503.321 281.607 506.053 294.736 505.236 307.461C515.774 303.219 527.659 302.896 538.373 308.39C541.104 309.844 542.559 312.632 542.098 316.348C540.821 329.477 534.647 340.748 526.31 349.03C536.315 354.524 544.83 363.735 549.016 375.813C550.293 379.206 549.548 382.438 547.277 384.619C538.195 393.103 526.665 396.213 515.489 395.283C519.214 407.282 519.498 420.815 514.673 433.014C513.396 436.124 510.948 437.781 507.684 437.256C496.154 435.801 486.255 428.772 478.981 419.279C474.156 430.671 466.067 440.366 455.46 445.133C452.479 446.587 449.641 445.86 447.725 443.153C440.275 432.812 437.543 419.683 438.36 406.958C427.822 411.199 415.937 411.522 405.223 406.028C402.491 404.574 401.037 401.787 401.498 398.07C402.775 384.942 408.948 373.67 417.286 365.389C407.281 359.895 398.766 350.684 394.58 338.606C393.303 335.213 394.048 331.981 396.318 329.799C405.401 321.316 416.931 318.205 428.107 319.135C424.524 307.056 424.169 293.604 428.994 281.405Z" fill="black"/>
<path fill-rule="evenodd" clip-rule="evenodd" d="M717.643 146.965C582.224 133.633 361.439 133.633 226.019 146.965C166.628 152.863 129.945 158.963 129.945 163.931C129.945 168.899 166.63 175 226.019 180.898C361.439 194.229 582.224 194.229 717.643 180.898C777.034 175 813.717 168.899 813.717 163.931C813.717 158.963 777.032 152.863 717.643 146.965Z" fill="black"/>
<path fill-rule="evenodd" clip-rule="evenodd" d="M487.031 337.685C473.513 322.293 450.346 333.241 450.346 355.056C450.346 376.79 473.584 387.737 487.031 372.426C495.474 362.691 495.474 347.178 487.031 337.685Z" fill="black"/>
<path fill-rule="evenodd" clip-rule="evenodd" d="M135.268 289.772C139.17 304.962 144.244 319.545 150.523 333.603C169.398 331.624 177.238 303.507 161.593 289.772C153.788 282.864 142.895 283.066 135.268 289.772Z" fill="black"/>
<path fill-rule="evenodd" clip-rule="evenodd" d="M504.632 343.052C506.619 343.052 508.642 343.254 510.628 343.577C518.717 338.609 525.813 330.246 528.438 319.986C519.356 317.401 509.458 320.188 501.652 325.682C501.014 327.54 500.198 329.399 499.382 331.176C501.652 334.852 503.391 338.892 504.632 343.052Z" fill="black"/>
<path fill-rule="evenodd" clip-rule="evenodd" d="M502.752 372.422C504.491 374.402 506.194 376.543 507.648 378.845C516.447 381.835 526.629 381.633 534.789 376.462C529.964 367.373 521.272 361.354 512.26 358.97C510.096 360.02 507.896 360.828 505.732 361.556C505.378 365.272 504.278 368.908 502.752 372.422Z" fill="black"/>
<path fill-rule="evenodd" clip-rule="evenodd" d="M484.197 391.647C484.303 394.839 484.09 398.071 483.736 401.383C488.099 410.594 495.444 418.673 504.455 421.662C506.725 411.32 504.277 400.05 499.452 391.163C496.827 389.91 494.379 388.577 492.002 386.921C489.483 388.86 486.929 390.516 484.197 391.647Z" fill="black"/>
<path fill-rule="evenodd" clip-rule="evenodd" d="M459.32 391.451C457.404 393.834 455.24 396.097 452.863 398.076C450.238 408.094 450.415 419.688 454.956 428.98C462.939 423.486 468.225 413.588 470.318 403.328C469.147 400.217 468.225 397.026 467.586 393.794C464.784 393.511 461.946 392.703 459.32 391.451Z" fill="black"/>
<path fill-rule="evenodd" clip-rule="evenodd" d="M440.41 371.368C437.962 371.368 435.514 371.166 433.066 370.842C424.977 375.811 417.882 384.174 415.257 394.434C424.339 397.019 434.237 394.232 442.043 388.738C443.036 385.95 444.207 383.163 445.59 380.658C443.497 377.871 441.794 374.801 440.41 371.368Z" fill="black"/>
<path fill-rule="evenodd" clip-rule="evenodd" d="M473.298 310.983C473.937 312.518 474.398 314.174 474.859 315.831C479.294 316.234 483.48 317.608 487.135 319.668C488.306 318.537 489.512 317.406 490.683 316.275C493.308 306.256 493.131 294.663 488.59 285.371C480.749 290.905 475.498 300.843 473.298 310.983Z" fill="black"/>
<path fill-rule="evenodd" clip-rule="evenodd" d="M439.702 340.674C438.354 339.138 437.077 337.361 435.87 335.624C427.072 332.635 416.89 332.837 408.729 338.007C413.554 347.097 422.247 353.115 431.258 355.499C433.245 354.57 435.338 353.722 437.431 353.035C437.538 348.753 438.354 344.592 439.702 340.674Z" fill="black"/>
<path fill-rule="evenodd" clip-rule="evenodd" d="M439.175 292.885C436.905 303.227 439.353 314.497 444.178 323.385C445.739 324.112 447.264 324.92 448.719 325.768C451.805 322.577 455.424 320.072 459.363 318.335C459.469 316.557 459.54 314.82 459.824 313.043C455.495 303.832 448.15 295.793 439.175 292.885Z" fill="black"/>
<path fill-rule="evenodd" clip-rule="evenodd" d="M762.765 320.994C760.317 320.67 757.869 320.186 755.421 319.337C746.87 323.054 738.994 330.285 735.162 340.141C743.89 343.979 754.036 342.606 762.409 338.283C763.758 335.577 765.212 332.991 766.844 330.648C765.106 327.618 763.758 324.306 762.765 320.994Z" fill="black"/>
<path fill-rule="evenodd" clip-rule="evenodd" d="M765.498 290.496C764.328 288.719 763.228 286.78 762.234 284.8C753.791 280.558 743.714 279.306 734.987 283.265C738.819 293.001 746.801 300.232 755.316 303.827C757.409 303.1 759.574 302.575 761.667 302.292C762.483 298.172 763.76 294.132 765.498 290.496Z" fill="black"/>
<path fill-rule="evenodd" clip-rule="evenodd" d="M770.221 242.832C766.851 252.769 768.057 264.323 771.853 273.735C773.308 274.665 774.762 275.715 776.111 276.846C779.481 274.139 783.277 272.079 787.464 270.948C787.748 269.171 788.102 267.555 788.457 265.777C785.193 256.163 778.842 247.074 770.221 242.832Z" fill="black"/>
<path fill-rule="evenodd" clip-rule="evenodd" d="M172.051 349.237C169.497 347.58 167.155 345.722 164.956 343.662C162.508 345.197 159.882 346.368 157.15 347.176C162.33 357.195 168.148 366.931 174.606 376.423C176.486 367.455 175.315 357.639 172.051 349.237Z" fill="black"/>
<path fill-rule="evenodd" clip-rule="evenodd" d="M188.663 319.339C186.215 320.066 183.767 320.672 181.319 320.995C180.397 324.388 179.049 327.62 177.239 330.731C178.871 333.114 180.432 335.579 181.674 338.366C190.047 342.729 200.122 344.062 208.921 340.224C205.196 330.408 197.213 323.096 188.663 319.339Z" fill="black"/>
<path fill-rule="evenodd" clip-rule="evenodd" d="M181.851 284.798C180.858 286.777 179.758 288.636 178.658 290.373C180.468 294.089 181.638 298.129 182.277 302.249C184.37 302.572 186.535 303.057 188.628 303.784C197.249 300.148 205.161 292.917 208.957 283.222C200.371 279.344 190.295 280.556 181.851 284.798Z" fill="black"/>
<path fill-rule="evenodd" clip-rule="evenodd" d="M811.801 274.456C813.717 264.923 815.065 255.106 816.058 245.209C809.601 250.057 804.811 257.732 802.079 265.892C802.541 267.549 802.789 269.286 803.073 270.942C806.195 271.588 809.175 272.8 811.801 274.456Z" fill="black"/>
<path fill-rule="evenodd" clip-rule="evenodd" d="M793.1 333.517C799.451 319.338 804.559 304.673 808.462 289.364C795.938 278.82 776.78 286.576 774.297 306.007C772.665 319.339 781.286 331.861 793.1 333.517Z" fill="black"/>
<path fill-rule="evenodd" clip-rule="evenodd" d="M769.576 375.814C775.856 366.523 781.568 356.909 786.641 346.971C784.087 346.163 781.568 344.991 779.297 343.577C777.133 345.638 774.756 347.496 772.202 349.152C768.938 357.433 767.661 367.049 769.576 375.814Z" fill="black"/>
<path fill-rule="evenodd" clip-rule="evenodd" d="M232.904 491.63C343.237 555.337 597.764 547.984 709.378 490.297C704.482 483.995 698.131 478.905 690.113 475.713C639.521 499.911 553.168 511.384 468.583 511.384C381.662 511.384 296.198 499.063 253.338 475.713C244.895 479.228 238.084 484.722 232.904 491.63Z" fill="black"/>
<path fill-rule="evenodd" clip-rule="evenodd" d="M716.608 502.706C602.087 563.302 339.577 570.977 225.62 503.958C213.344 531.872 218.453 575.824 243.962 592.064C331.238 648.417 610.629 655.366 699.255 592.266C723.168 575.219 728.528 530.015 716.608 502.706Z" fill="black"/>
<path fill-rule="evenodd" clip-rule="evenodd" d="M142.079 265.769C139.348 257.407 134.274 249.53 127.533 244.763C128.455 254.984 129.91 265.042 131.897 274.738C134.806 272.879 137.893 271.627 141.085 270.819C141.263 269.203 141.618 267.426 142.079 265.769Z" fill="black"/>
<path fill-rule="evenodd" clip-rule="evenodd" d="M155.703 265.893C156.164 267.671 156.413 269.408 156.696 271.064C160.706 272.195 164.502 274.054 168.049 276.841C169.398 275.71 170.852 274.659 172.307 273.73C176.139 264.197 177.309 252.724 173.939 242.827C165.318 247.068 158.967 256.076 155.703 265.893Z" fill="black"/>
<path fill-rule="evenodd" clip-rule="evenodd" d="M0.730141 369.113V605.109C26.8067 623.732 71.8284 623.732 97.9032 605.109V369.113C65.5824 377.192 33.0845 377.192 0.730141 369.113Z" fill="black"/>
<path fill-rule="evenodd" clip-rule="evenodd" d="M49.3385 0C10.9152 0 -9.34227 14.0584 4.20964 60.7167C29.2926 131.129 36.1753 204.889 28.1927 280.073C24.645 307.058 10.1341 340.466 3.67741 354.727C34.1181 362.281 64.3454 362.281 94.7834 354.727C88.4328 340.467 73.8865 307.058 70.2681 280.154C61.6468 198.553 70.3745 137.75 94.2512 60.9225C109.294 15.2332 86.2003 0 49.3385 0Z" fill="black"/>
</svg>
