<svg width="785" height="799" viewBox="0 0 785 799" fill="none" xmlns="http://www.w3.org/2000/svg">
<path d="M762.891 342.447C709.563 275.592 548.333 257.507 429.262 254.596V195.524C429.262 174.528 420.921 155.434 407.976 146.924V55.8807H447.227C457.643 55.6007 465.909 42.8346 465.721 27.4365C465.532 12.3745 457.38 0.280944 447.227 0H337.779C327.363 0.27997 319.097 13.0462 319.285 28.4442C319.474 43.5063 327.626 55.5998 337.779 55.8807H376.954V148.211C365.028 157.338 357.518 175.534 357.518 195.469V254.54C238.292 257.284 75.7044 275.257 22.1108 342.447C3.24047 366.075 -3.02517 398.551 1.31585 437.8C19.6954 604.604 135.904 799 392.5 799C649.097 799 765.308 604.604 783.684 437.8C788.025 398.55 781.762 366.075 762.891 342.447ZM713.375 409.749H713.337C628.835 445.584 496.934 470.612 392.461 470.612C288.028 470.612 156.087 445.584 71.5856 409.749C66.5282 407.621 63.5845 399.726 65.0186 392.223C66.4528 384.664 71.661 384.216 76.832 382.48C102.458 374.025 186.512 348.549 358.452 345.414C360.49 353.477 365.661 359.244 371.812 359.244H414.875C421.027 359.244 426.16 353.421 428.235 345.358C599.953 348.438 682.455 373.97 708.087 382.424C713.258 384.16 718.466 384.608 719.901 392.167C721.335 399.725 718.391 407.564 713.334 409.693L713.375 409.749Z" fill="black"/>
</svg>
