<svg width="703" height="833" viewBox="0 0 703 833" fill="none" xmlns="http://www.w3.org/2000/svg">
<path d="M703 142.271H0V323.762H703V142.271Z" fill="black"/>
<path d="M28.0191 342.192V833H82.0937V750.494H620.906V833H674.981V342.192H28.0191ZM620.906 686.131H82.0937V449.936H620.906V686.131Z" fill="black"/>
<path d="M162.692 568.886H172.706C174.481 568.886 176.183 569.494 177.438 570.575C178.693 571.656 179.398 573.123 179.398 574.652C179.398 575.263 179.116 575.849 178.615 576.281C178.113 576.713 177.433 576.956 176.724 576.956H158.72C158.01 576.956 157.33 576.713 156.829 576.281C156.328 575.849 156.046 575.263 156.046 574.652C156.046 573.123 156.751 571.656 158.006 570.575C159.261 569.494 160.963 568.886 162.737 568.886H162.692Z" fill="black"/>
<path d="M170.728 554.113C170.728 552.697 169.395 551.549 167.752 551.549C166.109 551.549 164.776 552.697 164.776 554.113V563.393C164.776 564.81 166.109 565.958 167.752 565.958C169.395 565.958 170.728 564.81 170.728 563.393V554.113Z" fill="black"/>
<path d="M203.475 674.495L197.674 589.893C197.505 587.383 196.228 585.023 194.105 583.298C191.982 581.573 189.174 580.612 186.255 580.613H150.291C147.406 580.612 144.626 581.551 142.509 583.24C140.392 584.929 139.093 587.245 138.872 589.724L132.06 674.326C131.944 675.826 132.187 677.331 132.774 678.748C133.36 680.164 134.278 681.462 135.471 682.56C136.663 683.658 138.104 684.533 139.705 685.132C141.306 685.731 143.033 686.04 144.778 686.04H190.726C192.456 686.042 194.169 685.74 195.76 685.154C197.35 684.567 198.786 683.707 199.978 682.627C201.171 681.547 202.096 680.269 202.697 678.871C203.298 677.473 203.563 675.984 203.475 674.495ZM138.676 639.509L140.972 606.631H195.273L197.659 639.509H138.676Z" fill="black"/>
<path d="M164.776 544.221H173.416C174.658 544.221 175.849 544.646 176.727 545.403C177.605 546.16 178.099 547.186 178.099 548.256H164.776V544.221Z" fill="black"/>
<path d="M242.58 590.271H239.016V598.419H242.58V590.271Z" fill="black"/>
<path d="M237.143 590.271H233.533V598.419H237.143V590.271Z" fill="black"/>
<path d="M231.645 590.271H230.134C229.654 590.271 229.193 590.435 228.853 590.728C228.513 591.021 228.322 591.418 228.322 591.833V596.857C228.322 597.271 228.513 597.668 228.853 597.961C229.193 598.254 229.654 598.419 230.134 598.419H231.645V590.271Z" fill="black"/>
<path d="M246.055 590.271H244.453V598.419H246.055C246.537 598.419 246.999 598.254 247.342 597.962C247.684 597.669 247.878 597.272 247.882 596.857V591.833C247.878 591.417 247.684 591.02 247.342 590.727C246.999 590.435 246.537 590.271 246.055 590.271Z" fill="black"/>
<path d="M249.906 601.321H226.252C224.725 601.321 223.213 601.58 221.802 602.084C220.39 602.588 219.108 603.326 218.028 604.257C216.948 605.187 216.092 606.292 215.507 607.508C214.923 608.724 214.622 610.027 214.622 611.343V680.717C214.622 682.153 215.284 683.53 216.462 684.545C217.641 685.561 219.239 686.131 220.905 686.131H255.253C256.92 686.131 258.518 685.561 259.696 684.545C260.875 683.53 261.537 682.153 261.537 680.717V611.382C261.543 610.063 261.246 608.755 260.665 607.535C260.083 606.315 259.227 605.205 258.146 604.27C257.066 603.335 255.782 602.594 254.368 602.088C252.954 601.582 251.437 601.321 249.906 601.321ZM259.362 660.672H217.522V624.906H259.362V660.672Z" fill="black"/>
<path d="M503.271 617.343H341.939C337.906 617.343 334.628 618.775 334.628 620.558C334.628 622.341 337.906 623.773 341.939 623.773H347.573C352.789 645.587 357.995 667.397 363.191 689.203C363.448 690.27 365.049 691.181 367.722 691.181H477.578C480.192 691.181 481.823 690.27 482.11 689.203L487.698 665.775V665.645L497.698 623.76H503.317C507.365 623.76 510.642 622.328 510.642 620.545C510.642 618.762 507.319 617.343 503.271 617.343ZM444.756 623.773V641.214H403.46V623.773H444.756ZM479.21 663.432H453.728V645.21H483.56L479.21 663.432ZM453.728 667.337H478.258L473.515 687.224H453.728V667.337ZM444.756 687.224H403.46V667.376H444.756V687.224ZM444.756 663.432H403.46V645.21H444.756V663.432ZM361.681 645.21H394.503V663.432H366.016L361.681 645.21ZM394.503 623.825V641.266H360.714L356.545 623.825H394.503ZM366.982 667.428H394.503V687.224H371.695L366.982 667.428ZM484.542 641.266H453.728V623.825H488.665L484.542 641.266Z" fill="black"/>
<path d="M517.651 58.1382H486.777C485.268 58.1742 483.798 58.556 482.518 59.2446C481.009 56.483 478.449 54.2491 475.264 52.9135C472.079 51.5778 468.459 51.2208 465.006 51.9016C461.553 52.5824 458.474 54.2601 456.28 56.6564C454.086 59.0526 452.908 62.0233 452.943 65.0756C452.959 67.0937 453.512 69.0818 454.559 70.8869C455.607 72.692 457.121 74.2661 458.985 75.4881V87.0721C450.327 88.9008 442.628 93.1709 437.11 99.2036C431.593 105.236 428.574 112.685 428.534 120.366V130.024H508.588V120.366C508.579 112.669 505.575 105.196 500.058 99.1416C494.541 93.0875 486.828 88.8014 478.152 86.9679V75.384C479.694 74.3253 480.986 73.0219 481.959 71.5444C483.349 72.4384 485.028 72.9387 486.762 72.9761H517.651C519.934 72.9761 522.124 72.1945 523.739 70.8031C525.354 69.4118 526.261 67.5248 526.261 65.5572C526.261 63.5895 525.354 61.7025 523.739 60.3112C522.124 58.9199 519.934 58.1382 517.651 58.1382Z" fill="black"/>
<path d="M185.349 58.1382H216.208C217.716 58.1742 219.187 58.556 220.467 59.2446C221.971 56.4753 224.531 54.2335 227.719 52.8923C230.908 51.551 234.533 51.1913 237.992 51.8729C241.451 52.5545 244.535 54.2364 246.73 56.6386C248.925 59.0407 250.1 62.0183 250.057 65.0756C250.041 67.0937 249.488 69.0818 248.441 70.8869C247.393 72.692 245.879 74.2661 244.015 75.4881V87.0721C252.673 88.9008 260.372 93.1709 265.89 99.2036C271.407 105.236 274.426 112.685 274.466 120.366V130.024H194.412V120.366C194.423 112.671 197.425 105.201 202.939 99.1471C208.453 93.0937 216.161 88.806 224.833 86.9679V75.384C223.299 74.3213 222.013 73.0186 221.041 71.5444C219.651 72.4384 217.972 72.9387 216.238 72.9761H185.349C183.066 72.9761 180.876 72.1945 179.261 70.8031C177.646 69.4118 176.739 67.5248 176.739 65.5572C176.739 63.5895 177.646 61.7025 179.261 60.3112C180.876 58.9199 183.066 58.1382 185.349 58.1382Z" fill="black"/>
<path d="M391.784 117.62H311.216V129.308H391.784V117.62Z" fill="black"/>
<path d="M360.729 86.9289V62.3944C363.502 60.4572 365.721 57.9965 367.213 55.2024C368.706 52.4084 369.433 49.3559 369.339 46.281C369.887 43.9982 369.838 41.6389 369.195 39.3745C368.553 37.11 367.333 34.9973 365.625 33.1897C363.917 31.3821 361.763 29.9251 359.32 28.9244C356.877 27.9237 354.205 27.4045 351.5 27.4045C348.795 27.4045 346.123 27.9237 343.68 28.9244C341.237 29.9251 339.083 31.3821 337.375 33.1897C335.667 34.9973 334.447 37.11 333.805 39.3745C333.162 41.6389 333.113 43.9982 333.661 46.281C333.567 49.3559 334.294 52.4084 335.787 55.2024C337.28 57.9965 339.498 60.4572 342.271 62.3944V86.9289C334.026 86.9496 326.128 89.7863 320.306 94.8172C314.485 99.8481 311.216 106.663 311.216 113.767H391.784C391.784 106.663 388.515 99.8481 382.694 94.8172C376.872 89.7863 368.974 86.9496 360.729 86.9289Z" fill="black"/>
<path d="M372.344 6.88253H363.825C362.761 4.83279 361.031 3.09231 358.844 1.87106C356.656 0.649822 354.106 0 351.5 0C348.894 0 346.343 0.649822 344.156 1.87106C341.969 3.09231 340.239 4.83279 339.175 6.88253H330.656V16.423H339.175C340.234 18.4773 341.963 20.2226 344.151 21.4476C346.338 22.6725 348.891 23.3245 351.5 23.3245C354.109 23.3245 356.662 22.6725 358.849 21.4476C361.037 20.2226 362.766 18.4773 363.825 16.423H372.344V6.88253Z" fill="black"/>
</svg>
