<svg width="821" height="755" viewBox="0 0 821 755" fill="none" xmlns="http://www.w3.org/2000/svg">
<path d="M411.11 0.0010597C355.693 -0.176666 302.479 22.0751 263.224 61.8153C223.971 101.591 201.895 155.551 201.895 211.851V476.097H618.986V211.851C618.986 155.795 597.086 102.018 558.112 62.3067C519.173 22.5665 466.28 0.179414 411.11 0.0010597ZM407.996 113.465C423.495 113.11 438.888 116.06 453.232 122.067C479.401 133.086 497.033 158.395 498.538 187.151C499.867 212.388 497.908 237.733 492.695 262.472C489.547 277.365 477.862 288.882 463.098 291.584C455.331 293.005 449.419 299.475 448.544 307.437L445.85 332.035H445.885C445.5 335.376 443.856 338.433 441.267 340.565L437.733 330.541L437.768 330.506C436.614 327.662 433.43 326.24 430.597 327.307C427.728 328.337 426.188 331.501 427.133 334.451L430.946 345.009H430.911C426.118 346.36 421.186 347.248 416.183 347.639V336.442C416.183 333.243 413.664 330.684 410.515 330.684C407.402 330.684 404.848 333.243 404.848 336.442V347.639C399.88 347.248 394.947 346.36 390.119 345.009L393.933 334.451C394.912 331.466 393.373 328.266 390.504 327.2C387.6 326.134 384.382 327.591 383.297 330.506L379.623 340.565C377.035 338.433 375.39 335.376 375.04 332.034L372.347 307.437C371.472 299.475 365.559 293.006 357.793 291.584C343.029 288.882 331.344 277.365 328.195 262.472C322.982 237.732 321.023 212.388 322.353 187.151C323.857 158.394 341.489 133.086 367.659 122.067C380.463 116.7 394.107 113.785 407.927 113.465L407.996 113.465ZM364.789 214.099C352.265 214.419 342.259 224.798 342.259 237.559C342.049 243.886 344.393 250.071 348.766 254.656C353.104 259.206 359.121 261.801 365.384 261.801C371.647 261.801 377.629 259.206 381.968 254.656C386.341 250.071 388.685 243.886 388.475 237.559C388.475 231.232 385.956 225.153 381.513 220.745C377.035 216.337 371.016 213.921 364.789 214.099ZM455.014 214.099C442.49 214.383 432.449 224.798 432.449 237.559C432.414 243.815 434.828 249.822 439.166 254.265C443.504 258.707 449.417 261.232 455.574 261.232C461.731 261.232 467.644 258.708 471.982 254.265C476.32 249.822 478.734 243.815 478.699 237.559C478.699 231.232 476.18 225.153 471.737 220.745C467.259 216.337 461.242 213.921 455.014 214.099ZM410.653 265.605C409.219 265.569 407.819 265.96 406.63 266.778C399.528 271.399 395.924 279.965 397.464 288.39C397.919 290.025 399.073 291.375 400.613 292.051C402.152 292.726 403.901 292.691 405.406 291.909C408.659 290.593 412.298 290.593 415.551 291.909C417.021 292.655 418.77 292.726 420.309 292.051C421.849 291.34 423.003 290.025 423.458 288.39C424.997 279.965 421.394 271.399 414.292 266.778C413.208 266.031 411.913 265.64 410.619 265.605H410.653ZM323.609 403.556H497.28V418.947H323.609V403.556ZM266.443 434.268H554.44V449.623H266.479L266.443 434.268ZM175.905 491.461V552.6H645.059V491.461H175.905ZM79.3119 567.955V567.919C58.2854 567.919 38.0989 576.415 23.2307 591.558C8.36154 606.665 0 627.175 0 648.537V754.995H821V648.537H820.965C820.965 627.174 812.604 606.664 797.734 591.558C782.865 576.415 762.679 567.919 741.653 567.919L79.3119 567.955Z" fill="black"/>
</svg>
