<svg width="815" height="818" viewBox="0 0 815 818" fill="none" xmlns="http://www.w3.org/2000/svg">
<path d="M25.0036 295.502C82.1981 259.101 171.039 256.306 196.92 256.306C253.104 254.49 308.896 266.025 359.462 289.912C360.799 290.631 362.306 290.998 363.834 290.976C365.362 290.953 366.857 290.543 368.171 289.785C369.486 289.027 370.573 287.948 371.326 286.655C372.079 285.362 372.471 283.9 372.464 282.414V161.895C372.247 119.023 354.639 77.9664 323.468 47.6507C292.296 17.3349 250.08 0.210547 205.997 0C178.127 0.283493 150.613 6.12186 125.155 17.1544C99.6965 28.1869 76.8347 44.1792 57.982 64.1432C39.1293 84.1072 24.6862 107.619 15.545 133.225C6.40374 158.832 2.75861 185.99 4.8348 213.02L11.4935 289.094C11.6236 290.561 12.1424 291.97 12.9991 293.184C13.8559 294.397 15.0214 295.375 16.382 296.02C17.7427 296.665 19.2521 296.957 20.7631 296.866C22.274 296.775 23.735 296.305 25.0036 295.502Z" fill="black"/>
<path d="M161.506 274.643C88.4187 280.164 32.5209 301.449 8.2167 333.061C1.34903 342.883 -1.36216 354.901 0.646841 366.616L4.29159 408.027C4.72904 412.412 6.31938 416.613 8.90958 420.226C11.4998 423.839 15.0026 426.744 19.0811 428.659C23.1596 430.575 27.6764 431.437 32.1968 431.164C36.7173 430.89 41.0892 429.49 44.892 427.097C120.959 379.142 274.774 379.21 349.667 427.216C353.663 429.619 358.247 430.943 362.945 431.049C367.643 431.156 372.285 430.043 376.393 427.824C380.501 425.605 383.926 422.361 386.315 418.426C388.705 414.491 389.972 410.007 389.987 405.437V353.205C390.032 347.61 388.934 342.063 386.756 336.885C384.578 331.706 381.364 327.001 377.3 323.041C333.686 281.647 237.538 268.985 161.506 274.643Z" fill="black"/>
<path d="M455.557 289.878C506.124 265.993 561.915 254.458 618.099 256.272C643.963 256.272 732.821 259.101 790.015 295.468C791.284 296.275 792.747 296.749 794.26 296.842C795.774 296.935 797.286 296.644 798.649 295.998C800.013 295.353 801.18 294.374 802.038 293.157C802.896 291.941 803.414 290.529 803.543 289.06L810.184 213.02C812.26 185.99 808.615 158.832 799.474 133.225C790.333 107.619 775.89 84.1072 757.037 64.1432C738.184 44.1792 715.322 28.1869 689.864 17.1544C664.406 6.12186 636.892 0.283493 609.022 0C564.939 0.210547 522.723 17.3349 491.551 47.6507C460.38 77.9664 442.772 119.023 442.555 161.895V282.414C442.554 283.897 442.95 285.355 443.706 286.643C444.461 287.931 445.55 289.005 446.863 289.759C448.176 290.513 449.669 290.921 451.194 290.942C452.719 290.962 454.223 290.596 455.557 289.878Z" fill="black"/>
<path d="M653.512 274.643C577.533 268.917 481.333 281.647 437.719 323.041C433.655 327.001 430.441 331.706 428.263 336.885C426.085 342.063 424.987 347.61 425.032 353.204V405.437C425.049 410.004 426.316 414.485 428.705 418.418C431.094 422.35 434.517 425.593 438.622 427.811C442.727 430.029 447.366 431.144 452.061 431.039C456.757 430.935 461.338 429.615 465.335 427.216C540.21 379.227 694.025 379.142 770.109 427.097C773.911 429.495 778.284 430.899 782.806 431.175C787.328 431.451 791.847 430.59 795.927 428.673C800.008 426.757 803.511 423.851 806.1 420.234C808.69 416.618 810.277 412.414 810.71 408.027L814.355 366.599C816.361 354.889 813.65 342.878 806.785 333.061C782.498 301.449 726.6 280.164 653.512 274.643Z" fill="black"/>
<path d="M363.562 448.586V448.365C355.178 448.357 346.982 445.951 339.994 441.446C330.9 435.755 321.229 430.986 311.134 427.216V656.102C311.106 683.212 300.02 709.204 280.309 728.374C260.598 747.543 233.872 758.325 205.997 758.352C180.892 758.489 156.663 749.386 138.173 732.87C119.682 716.355 108.3 693.648 106.31 669.309L85.0894 426.705C74.3739 430.552 64.0974 435.47 54.4244 441.378C48.3436 445.198 41.384 447.493 34.168 448.058C31.8572 448.253 29.7203 449.332 28.2257 451.057C26.7311 452.782 26.0009 455.013 26.1951 457.261L45.2074 674.354C48.4101 713.616 66.7665 750.246 96.5909 776.891C126.415 803.535 165.5 818.22 205.997 817.998C250.131 817.948 292.443 800.875 323.65 770.525C354.858 740.174 372.413 699.024 372.464 656.102V456.869C372.157 454.714 371.111 452.724 369.496 451.22C367.88 449.717 365.789 448.789 363.562 448.586Z" fill="black"/>
<path d="M780.851 448.058C773.635 447.493 766.675 445.198 760.595 441.378C750.927 435.471 740.657 430.554 729.947 426.705L708.709 669.309C706.719 693.648 695.336 716.355 676.846 732.87C658.356 749.386 634.127 758.489 609.022 758.352C581.147 758.325 554.421 747.543 534.71 728.374C514.999 709.204 503.913 683.212 503.885 656.102V427.216C493.779 430.996 484.097 435.769 474.99 441.463C468.488 445.699 460.921 448.133 453.104 448.501C451.833 448.282 450.529 448.333 449.281 448.65C448.033 448.967 446.87 449.542 445.871 450.337C444.873 451.131 444.062 452.126 443.496 453.254C442.93 454.381 442.621 455.614 442.59 456.869V656.102C442.641 699.018 460.191 740.163 491.391 770.513C522.591 800.862 564.894 817.939 609.022 817.998C649.519 818.22 688.604 803.535 718.428 776.891C748.252 750.246 766.609 713.616 769.811 674.354L788.824 457.261C789.018 455.013 788.288 452.782 786.793 451.057C785.299 449.332 783.162 448.253 780.851 448.058Z" fill="black"/>
</svg>
