<svg width="736" height="804" viewBox="0 0 736 804" fill="none" xmlns="http://www.w3.org/2000/svg">
<path d="M422.663 610.795C490.777 610.813 557.195 586.599 612.643 541.531L601.833 611.406C597.224 613.714 592.292 615.074 587.267 615.424C585.963 615.424 584.583 615.424 583.203 615.424C572.992 615.464 563.072 611.553 555.067 604.332V594.724H544.333C541.243 593.052 537.864 592.187 534.443 592.191C528.356 592.174 522.512 594.906 518.19 599.79C514.812 603.621 512.562 608.553 511.752 613.905C510.942 619.256 511.611 624.762 513.667 629.661V642.064H522.1C528.942 652.318 532.286 665.053 531.511 677.904C530.735 690.754 525.893 702.848 517.883 711.939C513.597 716.863 511.198 723.521 511.213 730.456C511.219 737.403 513.645 744.063 517.96 748.973C520.096 751.433 522.64 753.386 525.442 754.721C528.245 756.055 531.252 756.743 534.29 756.746C540.361 756.717 546.176 753.954 550.467 749.06C558.676 739.793 569.592 734.29 581.133 733.6H582.667L580.673 746.265C578.444 762.366 571.241 777.03 560.361 787.615C549.481 798.201 535.641 804.011 521.333 803.999H212.52C198.13 804.067 184.197 798.251 173.252 787.609C162.307 776.966 155.076 762.204 152.873 746.003L120.75 539.61C176.68 585.974 244.091 610.901 313.26 610.795H422.663Z" fill="black"/>
<path d="M711.543 211.11C711.543 216.765 710.566 222.364 708.666 227.588C706.767 232.813 703.983 237.56 700.473 241.558C696.963 245.557 692.797 248.729 688.211 250.893C683.625 253.057 678.71 254.17 673.747 254.17H59.8767C54.7852 254.432 49.7001 253.516 44.9282 251.476C40.1563 249.437 35.7967 246.317 32.1125 242.305C28.4283 238.293 25.4961 233.471 23.4927 228.132C21.4894 222.793 20.4565 217.047 20.4565 211.241C20.4565 205.435 21.4894 199.688 23.4927 194.349C25.4961 189.01 28.4283 184.189 32.1125 180.177C35.7967 176.165 40.1563 173.045 44.9282 171.006C49.7001 168.966 54.7852 168.05 59.8767 168.311H673.747C678.715 168.288 683.638 169.388 688.231 171.546C692.824 173.705 696.995 176.881 700.503 180.889C704.011 184.84 706.794 189.547 708.689 194.735C710.584 199.924 711.555 205.49 711.543 211.11Z" fill="black"/>
<path d="M422.663 593.414H313.337C230.266 593.298 150.626 555.651 91.8862 488.731C33.1462 421.81 0.101442 331.079 0 236.44C0 227.428 3.14209 218.786 8.73505 212.414C14.328 206.043 21.9137 202.463 29.8233 202.463C31.8567 202.463 33.8067 203.383 35.2445 205.021C36.6823 206.659 37.49 208.881 37.49 211.197C37.49 213.514 36.6823 215.735 35.2445 217.373C33.8067 219.011 31.8567 219.932 29.8233 219.932C25.9803 219.932 22.2948 221.671 19.5774 224.767C16.86 227.863 15.3333 232.061 15.3333 236.44C15.4348 326.446 46.864 412.734 102.729 476.378C158.593 540.023 234.332 575.829 313.337 575.945H422.663C501.668 575.829 577.407 540.023 633.272 476.378C689.136 412.734 720.565 326.446 720.667 236.44C720.667 232.061 719.14 227.863 716.423 224.767C713.705 221.671 710.02 219.932 706.177 219.932H703.877C701.843 219.932 699.893 219.011 698.456 217.373C697.018 215.735 696.21 213.514 696.21 211.197C696.21 208.881 697.018 206.659 698.456 205.021C699.893 203.383 701.843 202.463 703.877 202.463H706.177C714.086 202.463 721.672 206.043 727.265 212.414C732.858 218.786 736 227.428 736 236.44C735.899 331.079 702.854 421.81 644.114 488.731C585.374 555.651 505.734 593.298 422.663 593.414Z" fill="black"/>
<path d="M491.74 150.843H415.073C417.453 141.352 422.482 133.003 429.398 127.059C436.315 121.115 444.743 117.899 453.407 117.899C462.07 117.899 470.498 121.115 477.415 127.059C484.332 133.003 489.36 141.352 491.74 150.843Z" fill="black"/>
<path d="M219.037 47.7771C219.037 56.76 216.699 65.5413 212.318 73.0104C207.937 80.4794 201.711 86.3009 194.426 89.7385C187.142 93.1762 179.126 94.0756 171.392 92.3231C163.659 90.5706 156.555 86.2449 150.98 79.893C145.405 73.541 141.608 65.4482 140.069 56.6378C138.531 47.8274 139.321 38.6952 142.338 30.3961C145.355 22.0969 150.465 15.0034 157.021 10.0127C163.577 5.02207 171.285 2.35831 179.17 2.35831C189.743 2.35831 199.884 7.14348 207.36 15.6612C214.836 24.1788 219.037 35.7313 219.037 47.7771Z" fill="black"/>
<path d="M369.533 91.3615C369.533 100.345 367.195 109.126 362.815 116.595C358.434 124.064 352.208 129.885 344.923 133.323C337.638 136.761 329.622 137.66 321.889 135.908C314.156 134.155 307.052 129.829 301.477 123.477C295.901 117.126 292.104 109.033 290.566 100.222C289.028 91.4119 289.817 82.2798 292.835 73.9806C295.852 65.6814 300.962 58.5879 307.518 53.5972C314.074 48.6066 321.782 45.9428 329.667 45.9428C340.24 45.9428 350.38 50.728 357.857 59.2456C365.333 67.7633 369.533 79.3157 369.533 91.3615Z" fill="black"/>
<path d="M550.39 44.982C550.466 53.9831 548.193 62.8069 543.858 70.3332C539.524 77.8595 533.325 83.7489 526.047 87.2536C518.77 90.7583 510.742 91.7203 502.983 90.0174C495.225 88.3145 488.086 84.0236 482.472 77.6894C476.858 71.3552 473.023 63.2635 471.453 54.4414C469.884 45.6193 470.65 36.4648 473.656 28.1401C476.662 19.8155 481.771 12.6961 488.335 7.68582C494.899 2.67556 502.622 0.000416177 510.523 4.86012e-08C521.031 -0.000553335 531.113 4.72462 538.579 13.1481C546.044 21.5715 550.289 33.0121 550.39 44.982Z" fill="black"/>
<path d="M268.333 340.641C262.344 353.259 253.224 363.588 242.113 370.338C247.762 373.678 252.932 377.978 257.447 383.09C261.895 388.249 265.642 394.137 268.563 400.559C274.547 387.965 283.635 377.642 294.707 370.862C289.067 367.504 283.899 363.206 279.373 358.109C274.923 352.971 271.199 347.078 268.333 340.641Z" fill="black"/>
<path d="M78.9667 271.639L107.947 457.332C134.296 489.259 166.108 514.698 201.419 532.078C236.731 549.459 274.794 558.413 313.26 558.389H422.663C460.468 558.427 497.892 549.793 532.705 533.002C567.518 516.21 599.006 491.604 625.293 460.651L654.733 271.639H78.9667ZM331.967 370.774C331.967 373.091 331.159 375.312 329.721 376.95C328.283 378.588 326.333 379.509 324.3 379.509C311.455 379.624 299.17 385.518 290.123 395.907C281.076 406.296 276 420.337 276 434.972C276 437.288 275.192 439.51 273.754 441.148C272.317 442.786 270.367 443.706 268.333 443.706C266.3 443.706 264.35 442.786 262.912 441.148C261.474 439.51 260.667 437.288 260.667 434.972C260.667 427.666 259.4 420.433 256.939 413.686C254.478 406.94 250.871 400.814 246.326 395.661C241.781 390.507 236.387 386.427 230.454 383.655C224.521 380.883 218.166 379.474 211.753 379.509C209.72 379.509 207.77 378.588 206.332 376.95C204.894 375.312 204.087 373.091 204.087 370.774C204.087 368.458 204.894 366.236 206.332 364.598C207.77 362.96 209.72 362.04 211.753 362.04C218.18 362.051 224.545 360.618 230.484 357.821C236.423 355.025 241.819 350.921 246.363 345.744C250.907 340.567 254.509 334.419 256.964 327.653C259.418 320.887 260.677 313.636 260.667 306.315C260.667 303.998 261.474 301.776 262.912 300.138C264.35 298.5 266.3 297.58 268.333 297.58C270.367 297.58 272.317 298.5 273.754 300.138C275.192 301.776 276 303.998 276 306.315C275.98 313.612 277.228 320.842 279.672 327.587C282.116 334.332 285.708 340.46 290.241 345.616C294.774 350.772 300.158 354.854 306.082 357.628C312.007 360.402 318.355 361.812 324.76 361.778C326.793 361.778 328.743 362.698 330.181 364.336C331.619 365.974 332.427 368.196 332.427 370.512L331.967 370.774Z" fill="black"/>
<path d="M638.327 736.745C637.614 737.563 636.766 738.213 635.832 738.657C634.898 739.1 633.895 739.328 632.883 739.328C631.871 739.328 630.869 739.1 629.935 738.657C629.001 738.213 628.153 737.563 627.44 736.745C621.674 730.207 614.832 725.028 607.308 721.506C599.783 717.984 591.722 716.188 583.587 716.219C582.388 716.089 581.182 716.089 579.983 716.219C564.816 717.263 550.493 724.522 539.657 736.657C538.962 737.488 538.131 738.155 537.21 738.619C536.289 739.084 535.297 739.337 534.29 739.365C533.27 739.349 532.263 739.101 531.329 738.636C530.394 738.171 529.55 737.498 528.847 736.657C527.402 735.045 526.575 732.847 526.547 730.543C526.531 729.379 526.719 728.223 527.101 727.143C527.483 726.063 528.05 725.081 528.77 724.255C540.371 711.022 546.888 693.084 546.888 674.381C546.888 655.679 540.371 637.741 528.77 624.508C527.605 622.824 527.024 620.711 527.138 618.571C527.252 616.43 528.053 614.413 529.388 612.902C530.724 611.391 532.501 610.493 534.38 610.378C536.26 610.263 538.11 610.94 539.58 612.28C551.234 625.412 566.965 632.777 583.357 632.777C599.748 632.777 615.479 625.412 627.133 612.28C628.559 610.731 630.453 609.867 632.423 609.867C634.393 609.867 636.288 610.731 637.713 612.28C638.498 613.086 639.128 614.069 639.563 615.167C639.999 616.264 640.23 617.452 640.243 618.656C640.269 619.814 640.093 620.966 639.725 622.046C639.356 623.126 638.803 624.111 638.097 624.945C626.505 638.218 619.997 656.181 619.997 674.905C619.997 693.63 626.505 711.592 638.097 724.866C639.443 726.448 640.215 728.551 640.258 730.754C640.3 732.957 639.611 735.097 638.327 736.745Z" fill="black"/>
</svg>
