<svg width="788" height="783" viewBox="0 0 788 783" fill="none" xmlns="http://www.w3.org/2000/svg">
<path d="M395.474 480.374H457.035C442.987 458.998 434.505 432.331 434.505 403.497C434.505 333.287 483.808 276.202 544.284 276.202C604.755 276.202 654.063 333.285 654.063 403.497C654.063 432.434 645.58 458.998 631.533 480.374H707.141V307.411C707.141 301.947 705.545 173.421 583.315 172.972H505.217C382.796 173.419 381.282 301.947 381.282 307.411V382.089C387.274 413.946 391.827 447.385 395.33 480.377L395.474 480.374Z" fill="black"/>
<path d="M66.276 480.374H385.254C373.307 366.69 348.791 248.299 298.594 212.219H197.073C199.446 235.966 203.766 336.795 107.922 375.936C84.0299 385.697 71.763 427.76 66.276 480.374Z" fill="black"/>
<path d="M629.577 164.166L612.65 0H476.293L459.249 164.166H629.577Z" fill="black"/>
<path d="M196.357 203.307H295.275C296.17 174.199 306.521 151.036 326.055 134.437C353.334 111.206 390.301 107.7 403.843 107.254C402.248 71.2731 384.814 45.67 352.05 31.2364C326.251 19.8952 300.256 19.9647 300.14 19.9647H87.4349V79.3495C107.475 83.8515 193.628 108.389 196.238 203.415L196.357 203.307Z" fill="black"/>
<path d="M21.5175 19.9665H77.5916V78.4574H21.5175V19.9665Z" fill="black"/>
<path d="M544.443 284.862C489.343 284.862 444.626 337.993 444.626 403.359C444.626 432.742 453.693 459.582 468.636 480.236H620.355C635.297 459.479 644.365 432.639 644.365 403.359C644.365 337.994 599.536 284.862 544.547 284.862H544.443Z" fill="black"/>
<path d="M788 489.172H0L50.8212 758.119C53.5062 772.553 67.5541 783 84.0917 783H703.906C720.445 783 734.492 772.518 737.177 758.119L788 489.172ZM229.52 577.047C229.52 560.517 244.774 547.045 263.492 547.045C282.209 547.045 297.464 560.516 297.464 577.047V695.13C297.464 711.66 282.21 725.132 263.492 725.132C244.775 725.132 229.52 711.661 229.52 695.13V577.047ZM99.0404 577.047C99.0404 560.517 114.294 547.045 133.012 547.045C151.729 547.045 166.984 560.516 166.984 577.047V695.13C166.984 711.66 151.73 725.132 133.012 725.132C114.295 725.132 99.0404 711.661 99.0404 695.13V577.047ZM394 725.13C375.283 725.13 360.028 711.659 360.028 695.128V577.045C360.028 560.515 375.282 547.043 394 547.043C412.718 547.043 427.972 560.514 427.972 577.045V695.128C427.972 711.658 412.718 725.13 394 725.13ZM524.52 725.13C505.802 725.13 490.548 711.659 490.548 695.128V577.045C490.548 560.515 505.801 547.043 524.52 547.043C543.237 547.043 558.492 560.514 558.492 577.045V695.128C558.492 711.658 543.238 725.13 524.52 725.13ZM655 725.13C636.282 725.13 621.028 711.659 621.028 695.128V577.045C621.028 560.515 636.281 547.043 655 547.043C673.717 547.043 688.971 560.514 688.971 577.045V695.128C688.971 711.658 673.718 725.13 655 725.13Z" fill="black"/>
<path d="M678.998 695.127V577.044C678.998 565.36 668.258 555.84 654.988 555.84C641.757 555.84 630.978 565.324 630.978 577.044V695.127C630.978 706.812 641.718 716.332 654.988 716.332C668.218 716.332 678.998 706.847 678.998 695.127Z" fill="black"/>
<path d="M548.528 695.127V577.044C548.528 565.36 537.788 555.84 524.518 555.84C511.288 555.84 500.508 565.324 500.508 577.044V695.127C500.508 706.812 511.248 716.332 524.518 716.332C537.748 716.332 548.528 706.847 548.528 695.127Z" fill="black"/>
<path d="M418.008 695.127V577.044C418.008 565.36 407.268 555.84 393.998 555.84C380.768 555.84 369.988 565.324 369.988 577.044V695.127C369.988 706.812 380.728 716.332 393.998 716.332C407.228 716.332 418.008 706.847 418.008 695.127Z" fill="black"/>
<path d="M263.48 716.33C276.71 716.33 287.49 706.845 287.49 695.126V577.042C287.49 565.358 276.75 555.838 263.48 555.838C250.25 555.838 239.47 565.323 239.47 577.042V695.126C239.47 706.81 250.21 716.33 263.48 716.33Z" fill="black"/>
<path d="M133.01 716.33C146.241 716.33 157.02 706.845 157.02 695.126V577.042C157.02 565.358 146.28 555.838 133.01 555.838C119.78 555.838 109 565.323 109 577.042V695.126C109 706.81 119.74 716.33 133.01 716.33Z" fill="black"/>
</svg>
