<svg width="776" height="787" viewBox="0 0 776 787" fill="none" xmlns="http://www.w3.org/2000/svg">
<path d="M401.195 165.49C408.518 165.001 415.538 164.546 422.407 164.127V194.52C417.312 194.45 412.216 194.415 407.084 194.415H401.196L401.158 165.489L401.195 165.49ZM615.581 341.589C614.146 332.961 612.976 323.633 612.07 313.433H539.038C539.189 323.354 539.264 332.681 539.151 341.589H615.581ZM538.849 256.105V256.699C538.547 270.743 538.585 283.668 538.736 295.546H610.787C610.296 286.673 609.881 277.381 609.692 267.145C609.239 246.044 626.601 228.088 649.247 226.237L670.308 224.525C673.403 224.281 674.573 222.115 674.913 221.206C675.252 220.298 675.856 217.923 673.592 215.896C616.298 164.543 584.896 155.041 441.699 163.006V195.075C445.926 195.285 450.116 195.529 454.23 195.844H454.343C500.201 199.477 536.735 212.227 538.849 256.105ZM397.278 702.11C403.431 750.494 447.476 787 499.717 787H671.299C722.176 787 765.921 752.52 773.013 706.791C787.166 615.544 750.782 553.049 669.144 455.506C643.517 420.362 628.004 395.733 619.21 359.51H538.439C535.043 411.387 517.643 453.69 441.18 533.061C393.888 587.034 389.39 639.722 397.278 702.11ZM439.287 327.928L446.835 332.19C468.084 307.805 485.371 274.374 501.94 225.99C492.617 220.226 479.747 216.802 463.669 214.881C462.461 261.238 454.686 297.706 439.287 327.928ZM89.2251 223.302C77.6758 229.555 64.4657 232.629 51.0294 232.769C57.8231 243.459 61.3709 255.721 61.2955 268.122C66.9946 265.048 73.1848 262.638 79.7136 260.996C86.2431 259.389 92.659 258.69 99.4535 258.62C96.1321 253.38 93.5655 247.65 91.7916 241.608C90.0177 235.529 89.1873 229.38 89.2251 223.302ZM318.442 44.7158C318.442 20.0524 296.777 0 270.131 0C243.484 0 221.82 20.0524 221.82 44.7158V354.024H318.442V44.7158ZM450.727 494.637C450.916 494.637 451.067 494.707 451.217 494.742C458.653 486.358 465.258 478.463 471.183 470.987C474.618 446.254 469.259 425.852 455.067 410.377C432.949 386.237 390.149 373.312 327.874 371.949L212.42 371.914C144.294 373.696 99.9036 387.774 80.4342 413.8C66.0163 433.049 64.6201 460.228 76.207 494.638L450.727 494.637ZM139.159 627.703C140.48 622.917 145.727 620.052 150.897 621.24C156.068 622.462 159.201 627.318 157.879 632.104C143.802 683.457 123.571 723.977 96.396 755.493H167.277C203.322 719.405 228.194 667.318 243.141 596.224C244.16 591.368 249.18 588.189 254.464 589.167C259.71 590.11 263.107 594.792 262.088 599.648C248.01 666.582 225.288 717.796 192.867 755.527H256.313C281.298 730.514 300.585 698.549 315.078 657.814C316.739 653.133 322.174 650.548 327.269 652.12C332.327 653.657 335.082 658.722 333.421 663.403C320.249 700.364 303.189 730.651 281.713 755.491H320.702C345.725 755.491 369.239 743.788 382.789 724.923C380.562 718.251 378.94 711.334 378.034 704.173C370.712 646.321 371.466 584.102 426.382 521.428C429.326 518.389 432.157 515.419 434.875 512.485L78.204 512.52C70.0137 620.392 45.1032 697.947 0 755.523H70.9186C101.642 724.746 124.024 682.969 139.159 627.703ZM724.36 92.5796C729.192 81.2263 736.098 70.9899 744.667 62.1872C718.624 61.733 693.449 52.5455 674.087 36.4058C673.861 48.2484 671.332 60.0909 666.501 71.4451C661.67 82.7994 654.763 93.0348 646.195 101.838C672.237 102.292 697.45 111.479 716.774 127.619C716.963 115.776 719.529 103.899 724.36 92.5796Z" fill="black"/>
</svg>
