<svg width="787" height="778" viewBox="0 0 787 778" fill="none" xmlns="http://www.w3.org/2000/svg">
<path d="M651.273 287.675C654.214 274.916 658.331 251.742 665.389 244.243C672.888 236.282 682.998 233.119 695.643 228.498C677.704 227.539 669.395 220.466 669.395 220.466C654.434 211.794 651.272 178.527 651.272 178.527C651.272 178.527 648.11 211.793 633.148 220.466C633.148 220.466 624.84 227.539 606.9 228.498C619.547 233.119 629.656 236.282 637.154 244.243C644.213 251.778 648.332 274.916 651.273 287.675Z" fill="black"/>
<path d="M743.33 479.163C746.161 466.937 750.094 444.688 756.895 437.474C764.064 429.832 773.806 426.811 785.936 422.368C768.696 421.444 760.718 414.656 760.718 414.656C746.345 406.339 743.329 374.387 743.329 374.387C743.329 374.387 740.315 406.303 725.941 414.656C725.941 414.656 717.964 421.444 700.722 422.368C712.854 426.811 722.595 429.832 729.764 437.474C736.564 444.689 740.5 466.938 743.33 479.163Z" fill="black"/>
<path d="M407.473 339.455C407.473 339.455 410.671 302.918 425.854 293.393C425.854 293.393 434.272 285.609 452.469 284.579C439.639 279.496 429.383 276.013 421.81 267.27C414.641 258.989 410.488 233.577 407.473 219.574C404.496 233.577 400.305 259.024 393.137 267.27C385.564 276.014 375.308 279.461 362.478 284.579C380.675 285.645 389.093 293.393 389.093 293.393C404.239 302.918 407.473 339.455 407.473 339.455Z" fill="black"/>
<path d="M238.265 756.643H96.6962C79.4186 756.643 64.1259 746.834 57.7293 731.657C41.7015 693.734 15.9683 618.598 23.5046 541.688C31.0775 464.527 44.091 431.795 59.1635 393.872C66.5893 375.177 74.2728 355.843 82.1761 329.614C95.8511 284.085 68.1698 236.317 51.664 213.179C66.1483 206.035 104.122 200.704 135.848 200.029H208.635C240.581 200.74 278.592 206.035 293.077 213.179C276.571 236.281 248.89 284.049 262.565 329.614C270.432 355.843 278.151 375.177 285.577 393.872C300.65 431.795 313.663 464.528 321.236 541.688C322.229 551.959 322.633 562.231 322.56 572.36H344.617C344.69 561.556 344.286 550.645 343.183 539.662C335.353 459.587 321.825 425.575 306.164 386.196C298.886 367.928 291.386 349.02 283.74 323.643C271.241 282.06 304.437 233.972 314.914 220.256C319.656 214.001 321.531 206.075 319.987 198.505C304.914 124.117 242.678 103.898 219.478 98.8844V71.7305L205.215 56.1283H139.449L125.185 71.7305V98.8844C101.952 103.896 39.7153 124.118 24.639 198.541C23.095 206.111 24.9698 214.037 29.712 220.292C40.1892 234.047 73.3844 282.099 60.8857 323.679C53.2761 349.056 45.7398 367.929 38.4614 386.232C22.8006 425.612 9.27243 459.625 1.44254 539.698C-6.53473 621.159 20.4112 699.988 37.2116 739.758C47.0272 763.002 70.3334 778 96.6181 778H247.965C251.347 778 254.655 777.751 257.927 777.254C250.097 771.638 243.369 764.672 238.186 756.675L238.265 756.643ZM135.704 118.641H209.007C215.624 119.423 276.391 128.344 295.507 191.323C267.936 180.945 224.925 179.061 208.897 178.706H135.594C119.75 179.062 76.7761 180.945 49.2416 191.323C68.357 128.273 129.234 119.388 135.741 118.641H135.704Z" fill="black"/>
<path d="M147.534 41.9035H197.162V21.3253H208.521V0H136.211V21.3253H147.533L147.534 41.9035Z" fill="black"/>
<path d="M172.012 335.051C172.122 335.051 172.232 335.086 172.343 335.086C172.453 335.086 172.563 335.051 172.674 335.051H171.975H172.012Z" fill="black"/>
<path d="M233.663 641.054H259.616C239.508 627.442 226.31 604.944 226.31 579.462C226.31 575.552 229.619 572.353 233.662 572.353H287.775C287.849 563.148 287.481 553.872 286.599 544.595C279.467 471.665 267.74 442.236 252.926 404.987C238.809 369.481 216.311 335.716 172.345 335.041C128.378 335.681 105.88 369.481 91.7635 404.987C76.9488 442.234 65.2585 471.662 58.0902 544.595C54.267 583.513 59.9283 622.217 68.2361 655.061C74.9634 681.54 104.41 720.209 124.592 720.28H220.094C222.116 720.28 224.248 719.853 226.417 719.143C226.38 718.396 226.306 717.65 226.306 716.868C226.306 712.958 229.615 709.76 233.659 709.76H241.562C244.283 707.378 247.003 704.713 249.65 701.798C235.24 688.151 226.269 669.172 226.269 648.167C226.269 644.257 229.578 641.059 233.622 641.059L233.663 641.054Z" fill="black"/>
<path d="M724.358 640.418C756.635 640.418 783.323 616.854 786.962 586.608L241.458 586.572C245.097 616.853 271.786 640.382 304.062 640.382H724.392L724.358 640.418Z" fill="black"/>
<path d="M304.066 709.085H724.396C756.672 709.085 783.361 685.521 787 655.275H241.458C245.097 685.556 271.79 709.085 304.066 709.085Z" fill="black"/>
<path d="M304.066 777.788H724.396C756.672 777.788 783.361 754.224 787 723.978L241.458 723.942C245.097 754.188 271.786 777.752 304.062 777.752L304.066 777.788Z" fill="black"/>
<path d="M659.507 378.233H368.907C369.679 395.364 373.355 411.819 379.421 427.067H648.997C655.063 411.784 658.736 395.364 659.507 378.233Z" fill="black"/>
<path d="M459.93 571.787H568.447C621.752 549.965 656.821 499.389 659.505 441.313H368.905C371.552 499.388 406.659 549.959 459.964 571.787H459.93Z" fill="black"/>
</svg>
