<svg width="818" height="809" viewBox="0 0 818 809" fill="none" xmlns="http://www.w3.org/2000/svg">
<path d="M126.937 397.15H100.353C92.0947 397.15 85.3998 403.749 85.3998 411.889V510.148C85.3998 518.288 92.0947 524.887 100.353 524.887H126.937C135.195 524.887 141.89 518.288 141.89 510.148V411.889C141.89 403.749 135.195 397.15 126.937 397.15Z" fill="black"/>
<path d="M346.918 62.2308H471.861C480.391 61.9969 488.696 59.4879 495.893 54.9707C503.091 50.4535 508.911 44.0973 512.734 36.5786L532.672 0H286.107L306.045 36.5786C309.868 44.0973 315.688 50.4535 322.886 54.9707C330.083 59.4879 338.388 61.9969 346.918 62.2308Z" fill="black"/>
<path d="M226.626 524.887C241.163 524.871 255.1 519.173 265.379 509.041C275.658 498.91 281.439 485.173 281.455 470.845V451.193C281.439 436.865 275.658 423.128 265.379 412.996C255.1 402.865 241.163 397.166 226.626 397.15C225.879 397.149 225.142 396.983 224.469 396.664C223.796 396.344 223.204 395.88 222.738 395.306C222.271 394.731 221.941 394.061 221.772 393.344C221.603 392.627 221.599 391.882 221.761 391.163C221.981 390.2 227.158 367.581 229.736 359.884C233.724 347.831 223.383 327.93 213.6 324.045C211.719 323.305 206.748 321.327 201.823 331.421C200.022 335.103 198.029 339.688 195.842 344.798C185.933 367.607 172.508 398.401 151.793 410.638C151.793 411.064 151.919 411.463 151.919 411.889V510.148C151.919 510.227 151.919 510.292 151.919 510.371L173.997 521.251C178.842 523.64 184.184 524.884 189.602 524.887H226.626Z" fill="black"/>
<path d="M590.897 714.468C581.114 699.495 574.617 682.671 571.823 665.077C571.655 664.072 571.288 663.111 570.743 662.246C570.198 661.382 569.485 660.632 568.646 660.039C551.397 647.11 537.153 630.694 526.87 611.892C525.014 608.78 524.105 605.208 524.251 601.601C524.396 597.994 525.591 594.504 527.692 591.547C529.792 588.59 532.711 586.291 536.1 584.923C539.489 583.554 543.206 583.175 546.807 583.829C559.064 585.906 571.604 585.722 583.792 583.286C584.881 583.087 585.917 582.667 586.832 582.052C587.747 581.438 588.523 580.642 589.109 579.716C603.974 555.698 626.769 537.452 653.667 528.038V383.276C632.758 378.913 613.117 369.957 596.207 357.074C595.224 356.341 594.104 355.808 592.91 355.505C591.717 355.203 590.474 355.137 589.255 355.311C565.168 358.105 540.753 355.73 517.685 348.348C513.87 347.194 510.462 345.003 507.852 342.027C505.243 339.051 503.537 335.41 502.932 331.522C502.326 327.634 502.844 323.656 504.428 320.046C506.011 316.435 508.595 313.337 511.883 311.108C523.553 303.239 533.637 293.301 541.624 281.801C542.403 280.708 542.948 279.469 543.223 278.161C543.499 276.853 543.499 275.504 543.225 274.195C535.269 237.446 542.423 199.087 563.119 167.53C583.816 135.973 616.364 113.794 653.628 105.858V73.6943C653.605 54.1563 645.72 35.4249 631.704 21.6095C617.687 7.79398 598.683 0.0225382 578.861 0H543.976L521.533 41.223C516.856 50.3095 509.767 57.9757 501.02 63.4054C492.273 68.8351 482.196 71.825 471.861 72.0567H346.918C336.585 71.8227 326.511 68.8317 317.766 63.4021C309.022 57.9725 301.935 50.3075 297.259 41.223L274.809 0H239.918C220.096 0.0225382 201.092 7.79398 187.075 21.6095C173.059 35.4249 165.174 54.1563 165.151 73.6943V253.993C206.744 249.873 248.572 259.153 284.364 280.44C320.155 301.728 347.982 333.877 363.672 372.068C364.466 373.968 365.648 375.687 367.143 377.119C368.638 378.551 370.415 379.666 372.365 380.394C390.43 387.406 409.659 391.051 429.075 391.143C434.154 391.178 439.121 392.624 443.405 395.315C447.689 398.006 451.116 401.833 453.294 406.357C455.471 410.88 456.31 415.917 455.715 420.89C455.12 425.862 453.115 430.569 449.93 434.469C429.882 459.887 404.489 480.726 375.495 495.553C373.777 496.38 372.242 497.533 370.979 498.948C369.717 500.362 368.751 502.009 368.138 503.794C355.334 541.925 330.682 575.117 297.673 598.669C264.665 622.22 224.974 634.937 184.225 635.016C177.865 635.016 171.505 634.597 165.151 633.974V735.306C165.174 754.844 173.059 773.575 187.075 787.39C201.092 801.206 220.096 808.977 239.918 809H578.861C593.79 809.017 608.381 804.615 620.743 796.363C633.104 788.111 642.667 776.391 648.191 762.72C624.661 752.592 604.718 735.796 590.897 714.468ZM479.172 733.668H339.607C338.285 733.668 337.017 733.15 336.082 732.229C335.148 731.308 334.623 730.058 334.623 728.755C334.623 727.452 335.148 726.202 336.082 725.281C337.017 724.36 338.285 723.842 339.607 723.842H479.172C480.494 723.842 481.761 724.36 482.696 725.281C483.631 726.202 484.156 727.452 484.156 728.755C484.156 730.058 483.631 731.308 482.696 732.229C481.761 733.15 480.494 733.668 479.172 733.668Z" fill="black"/>
<path d="M715.574 193.243C710.477 193.236 705.444 194.372 700.858 196.566C696.272 198.76 692.252 201.953 689.104 205.905C688.619 206.458 688.019 206.902 687.345 207.206C686.67 207.51 685.937 207.668 685.196 207.668C684.454 207.668 683.721 207.51 683.047 207.206C682.373 206.902 681.773 206.458 681.288 205.905C678.14 201.953 674.12 198.76 669.534 196.566C664.948 194.372 659.915 193.236 654.817 193.243C645.767 193.298 637.108 196.89 630.741 203.231C624.374 209.572 620.819 218.143 620.856 227.064C619.979 258.081 638.84 283.91 678.537 306.143C680.563 307.274 682.853 307.869 685.183 307.869C687.512 307.869 689.802 307.274 691.829 306.143C731.525 283.91 750.386 258.081 749.509 227.208C749.576 218.269 746.039 209.67 739.676 203.301C733.312 196.932 724.643 193.314 715.574 193.243Z" fill="black"/>
<path d="M678.59 664.887H715.242L725.032 628.858H688.379L678.59 664.887Z" fill="black"/>
<path d="M653.063 538.656C630.008 547.775 610.549 563.974 597.569 584.851C596.261 586.94 594.526 588.737 592.474 590.129C590.422 591.521 588.1 592.476 585.653 592.935C572.271 595.609 558.5 595.802 545.046 593.505C543.318 593.204 541.539 593.396 539.918 594.06C538.298 594.724 536.904 595.832 535.902 597.252C534.899 598.672 534.33 600.344 534.262 602.073C534.194 603.801 534.629 605.513 535.516 607.005C545.104 624.602 558.399 639.975 574.508 652.093C578.338 654.833 580.916 658.953 581.679 663.557C584.261 679.806 590.26 695.344 599.29 709.175C614.1 732.23 636.633 749.445 662.977 757.833C689.32 766.221 717.812 765.252 743.507 755.095C759.671 748.669 774.158 738.736 785.894 726.035C797.629 713.334 806.312 698.19 811.296 681.728C817.651 660.584 817.855 638.106 811.885 616.853C805.915 595.6 794.011 576.426 777.527 561.515C761.044 546.603 740.644 536.553 718.65 532.508C696.656 528.463 673.952 530.587 653.122 538.637L653.063 538.656ZM758.301 628.858H735.359L725.563 664.887H751.655C752.977 664.887 754.245 665.404 755.18 666.326C756.114 667.247 756.64 668.497 756.64 669.8C756.64 671.102 756.114 672.352 755.18 673.274C754.245 674.195 752.977 674.713 751.655 674.713H722.891L715.528 701.786C715.185 703.045 714.349 704.118 713.204 704.769C712.058 705.42 710.697 705.596 709.42 705.258C708.143 704.92 707.055 704.096 706.394 702.967C705.734 701.838 705.555 700.497 705.898 699.238L712.544 674.713H675.891L668.448 702.074C668.105 703.333 667.269 704.406 666.124 705.057C664.978 705.708 663.617 705.884 662.34 705.546C661.063 705.208 659.975 704.384 659.314 703.255C658.654 702.126 658.475 700.785 658.818 699.526L665.564 674.713H645.32C643.998 674.713 642.73 674.195 641.796 673.274C640.861 672.352 640.336 671.102 640.336 669.8C640.336 668.497 640.861 667.247 641.796 666.326C642.73 665.404 643.998 664.887 645.32 664.887H668.262L678.058 628.858H651.966C650.644 628.858 649.376 628.341 648.442 627.419C647.507 626.498 646.982 625.248 646.982 623.945C646.982 622.642 647.507 621.393 648.442 620.471C649.376 619.55 650.644 619.032 651.966 619.032H680.73L688.093 591.959C688.436 590.7 689.272 589.627 690.418 588.976C691.563 588.325 692.924 588.149 694.201 588.487C695.478 588.825 696.567 589.649 697.227 590.778C697.888 591.907 698.066 593.248 697.723 594.507L691.077 619.032H727.73L735.173 591.67C735.343 591.047 735.636 590.463 736.034 589.951C736.433 589.44 736.93 589.01 737.498 588.688C738.065 588.365 738.691 588.156 739.34 588.072C739.989 587.988 740.649 588.031 741.281 588.199C741.913 588.366 742.506 588.654 743.025 589.047C743.544 589.441 743.98 589.931 744.307 590.49C744.634 591.049 744.846 591.666 744.931 592.305C745.016 592.945 744.973 593.595 744.803 594.219L738.031 619.032H758.301C759.623 619.032 760.891 619.55 761.826 620.471C762.76 621.393 763.286 622.642 763.286 623.945C763.286 625.248 762.76 626.498 761.826 627.419C760.891 628.341 759.623 628.858 758.301 628.858Z" fill="black"/>
<path d="M710.809 115.14C689.008 110.756 666.443 111.792 645.15 118.152C623.857 124.513 604.505 135.999 588.84 151.573C573.176 167.148 561.692 186.322 555.425 207.364C549.158 228.407 548.304 250.657 552.942 272.106C553.502 274.735 553.508 277.449 552.959 280.08C552.41 282.711 551.318 285.203 549.752 287.401C541.078 299.89 530.123 310.679 517.446 319.218C515.7 320.385 514.325 322.017 513.48 323.923C512.636 325.829 512.356 327.932 512.674 329.988C512.992 332.044 513.894 333.97 515.276 335.541C516.658 337.113 518.463 338.267 520.483 338.869C542.178 345.862 565.153 348.139 587.826 345.545C590.359 345.196 592.937 345.344 595.412 345.98C597.887 346.617 600.21 347.728 602.248 349.252C618.229 361.373 636.78 369.783 656.517 373.855C676.255 377.928 696.67 377.558 716.242 372.773C735.814 367.988 754.039 358.912 769.558 346.22C785.076 333.528 797.489 317.548 805.872 299.471C814.254 281.394 818.39 261.685 817.971 241.814C817.552 221.942 812.589 202.42 803.452 184.701C794.314 166.983 781.238 151.525 765.198 139.48C749.158 127.435 730.566 119.119 710.809 115.14ZM696.786 314.691C693.251 316.662 689.258 317.698 685.196 317.698C681.134 317.698 677.141 316.662 673.605 314.691C631.018 290.821 609.911 261.297 610.888 226.913C610.882 215.408 615.502 204.37 623.735 196.216C631.969 188.061 643.145 183.454 654.817 183.404C666.162 183.385 677.064 187.738 685.196 195.536C693.328 187.741 704.231 183.389 715.574 183.41C727.268 183.469 738.46 188.098 746.696 196.28C754.931 204.463 759.538 215.531 759.504 227.057C760.481 261.297 739.374 290.821 696.786 314.691Z" fill="black"/>
<path d="M319.968 565.894C337.37 547.091 350.549 524.878 358.641 500.709C359.672 497.685 361.301 494.894 363.435 492.495C365.568 490.097 368.163 488.139 371.069 486.736C398.79 472.517 423.066 452.561 442.234 428.233C444.254 425.78 445.527 422.814 445.908 419.677C446.288 416.54 445.759 413.361 444.382 410.508C443.005 407.656 440.837 405.246 438.127 403.557C435.418 401.869 432.28 400.972 429.075 400.969C408.444 400.881 388.009 397.018 368.809 389.578C365.58 388.366 362.638 386.514 360.164 384.137C357.69 381.759 355.738 378.907 354.427 375.756C340.572 342.457 317.016 313.951 286.735 293.838C256.454 273.725 220.806 262.908 184.291 262.751C78.4216 259.411 -14.163 361.803 1.80059 465.742C6.04516 500.153 20.2205 532.641 42.643 559.346C65.0655 586.052 94.7932 605.853 128.295 616.399C161.798 626.945 197.667 627.792 231.643 618.839C265.619 609.886 296.274 591.511 319.968 565.894ZM149.593 520.256C147.625 524.556 144.442 528.207 140.424 530.771C136.406 533.335 131.723 534.703 126.937 534.713H100.353C93.7461 534.704 87.4121 532.113 82.7402 527.509C78.0683 522.904 75.4397 516.66 75.4309 510.148V411.889C75.4397 405.377 78.0683 399.134 82.7402 394.529C87.4121 389.924 93.7461 387.333 100.353 387.324H126.937C131.499 387.339 135.97 388.591 139.857 390.945C143.745 393.299 146.899 396.663 148.975 400.668C165.736 388.877 178.164 360.382 186.617 340.933C188.904 335.692 190.951 330.95 192.805 327.177C198.421 315.674 207.566 311.101 217.289 314.947C232.913 321.143 244.577 346.724 239.18 362.963C237.525 367.941 234.528 380.309 232.813 387.632C248.847 389.169 263.727 396.529 274.56 408.28C285.393 420.032 291.404 435.334 291.424 451.212V470.864C291.405 487.797 284.571 504.031 272.424 516.005C260.276 527.978 243.806 534.713 226.626 534.733H189.522C182.556 534.723 175.686 533.124 169.451 530.062L149.593 520.256Z" fill="black"/>
</svg>
