<svg width="809" height="766" viewBox="0 0 809 766" fill="none" xmlns="http://www.w3.org/2000/svg">
<path d="M711.645 68.7868C704.74 68.9538 697.966 70.6062 691.835 73.6187C685.704 76.6313 680.378 80.9251 676.259 86.175C672.082 80.8506 666.663 76.5113 660.424 73.4953C654.186 70.4792 647.296 68.8679 640.291 68.7868C621.069 68.7868 605.116 84.8728 599.793 100.162C592.334 121.61 597.786 142.353 615.552 160.155C633.091 177.727 657.361 187.103 666.988 190.32C672.982 192.327 679.521 192.327 685.514 190.32C695.141 187.103 719.411 177.727 736.967 160.155C754.716 142.353 760.169 121.61 752.71 100.162C747.338 84.7196 731.045 68.4805 711.645 68.7868Z" fill="black"/>
<path d="M199.775 125.823C199.808 120.976 198.477 116.208 195.917 112.01C193.358 107.812 189.663 104.336 185.213 101.939L124.991 69.0166C120.563 66.5962 115.54 65.3221 110.428 65.3222C105.315 65.3223 100.293 66.5967 95.8655 69.0172C91.438 71.4378 87.7615 74.9193 85.2055 79.1117C82.6495 83.3041 81.3041 88.0597 81.3046 92.9005V158.746C81.3085 163.585 82.6567 168.338 85.2137 172.528C87.7708 176.718 91.4468 180.197 95.8728 182.617C100.299 185.037 105.319 186.312 110.43 186.314C115.541 186.316 120.562 185.046 124.991 182.63L185.213 149.707C189.66 147.308 193.352 143.831 195.911 139.633C198.471 135.436 199.804 130.67 199.775 125.823Z" fill="black"/>
<path d="M185.161 609.376H171.542L176.537 591.721C177.154 589.381 176.776 586.905 175.484 584.827C174.191 582.749 172.087 581.235 169.627 580.612C167.166 579.989 164.545 580.307 162.33 581.496C160.114 582.686 158.481 584.653 157.783 586.972L151.445 609.376H125.445L130.362 591.997C130.697 590.83 130.785 589.611 130.621 588.411C130.458 587.212 130.045 586.055 129.408 585.006C128.772 583.958 127.922 583.038 126.909 582.301C125.897 581.564 124.74 581.024 123.506 580.71C122.272 580.397 120.985 580.318 119.719 580.477C118.452 580.636 117.231 581.03 116.126 581.636C115.021 582.243 114.053 583.05 113.277 584.011C112.502 584.972 111.935 586.069 111.608 587.239L105.343 609.376H80.8111C78.2363 609.376 75.7671 610.344 73.9465 612.068C72.1259 613.792 71.1031 616.13 71.1031 618.568C71.1031 621.006 72.1259 623.344 73.9465 625.068C75.7671 626.791 78.2363 627.76 80.8111 627.76H100.14L93.1095 652.6H74.2905C71.7158 652.6 69.2465 653.568 67.4259 655.292C65.6053 657.016 64.5825 659.354 64.5825 661.792C64.5825 664.23 65.6053 666.568 67.4259 668.292C69.2465 670.015 71.7158 670.984 74.2905 670.984H87.9076L82.9112 688.634C82.5814 689.8 82.4973 691.016 82.6638 692.213C82.8303 693.41 83.2442 694.564 83.8818 695.609C85.1694 697.721 87.29 699.261 89.7772 699.892C92.2644 700.523 94.9144 700.192 97.1441 698.973C99.3739 697.754 101.001 695.746 101.667 693.391L108.01 670.979H134.006L129.087 688.358C128.421 690.713 128.77 693.222 130.057 695.334C131.345 697.445 133.465 698.986 135.952 699.617C138.44 700.248 141.09 699.917 143.32 698.698C145.55 697.479 147.177 695.472 147.843 693.117L154.108 670.979H178.637C181.212 670.979 183.681 670.011 185.502 668.287C187.322 666.563 188.345 664.225 188.345 661.787C188.345 659.349 187.322 657.011 185.502 655.287C183.681 653.564 181.212 652.595 178.637 652.595H159.31L166.339 627.755H185.161C187.735 627.755 190.205 626.787 192.025 625.063C193.846 623.339 194.869 621.001 194.869 618.563C194.869 616.125 193.846 613.787 192.025 612.064C190.205 610.34 187.735 609.371 185.161 609.371V609.376ZM139.21 652.6H113.212L120.242 627.76H146.238L139.21 652.6Z" fill="black"/>
<path d="M641.925 599.655H625.147C619.021 599.664 613.15 601.971 608.818 606.072C604.487 610.173 602.05 615.733 602.042 621.532V682.797C602.051 688.595 604.489 694.152 608.821 698.251C613.152 702.349 619.023 704.653 625.147 704.659H641.925C645.191 704.658 648.42 703.999 651.397 702.726C654.373 701.453 657.03 699.594 659.189 697.274L667.231 701.089C672.213 703.434 677.701 704.655 683.265 704.659H707.584C720.553 704.646 732.988 699.763 742.161 691.081C751.333 682.399 756.495 670.627 756.512 658.346V645.983C756.5 635.661 752.853 625.638 746.148 617.499C739.443 609.361 730.063 603.572 719.492 601.049C720.415 597.48 721.353 594.033 721.935 592.317C726.531 579.035 717.243 559.609 703.879 554.523C696.598 551.75 685.886 552.899 679.625 565.231C673.444 577.641 667.506 594.324 657.458 605.385C653.218 601.705 647.677 599.661 641.925 599.655ZM665.03 623.692C678.492 614.117 686.922 595.504 693.281 581.44C695.012 577.671 696.128 574.914 697.698 572.171C700.837 574.577 704.898 582.497 703.49 586.587C701.743 591.612 698.491 605.293 698.118 606.84C697.81 608.183 697.821 609.575 698.153 610.913C698.484 612.251 699.127 613.502 700.034 614.575C700.94 615.648 702.089 616.516 703.395 617.115C704.701 617.715 706.132 618.03 707.584 618.039C715.409 618.047 722.911 620.993 728.444 626.232C733.977 631.471 737.088 638.574 737.096 645.983V658.346C737.088 665.754 733.975 672.855 728.442 678.092C722.909 683.328 715.407 686.271 707.584 686.275H683.265C680.716 686.273 678.201 685.712 675.919 684.635L665.03 679.488V623.692Z" fill="black"/>
<path d="M753.583 538.054C777.602 489.527 790.053 436.592 790.053 383C790.053 329.408 777.602 276.473 753.583 227.946C769.242 217.315 782.269 203.585 791.762 187.709C801.255 171.833 806.986 154.192 808.557 136.009C810.129 117.826 807.503 99.5369 800.862 82.411C794.222 65.2851 783.725 49.7324 770.1 36.8321C756.476 23.9319 740.05 13.993 721.963 7.70511C703.876 1.41726 684.56 -1.06897 665.356 0.418944C646.153 1.90686 627.521 7.33329 610.754 16.3217C593.987 25.3101 579.486 37.6452 568.258 52.4711C517.007 29.7289 461.1 17.94 404.5 17.94C347.9 17.94 291.993 29.7289 240.742 52.4711C229.514 37.6452 215.013 25.3101 198.246 16.3217C181.479 7.33329 162.847 1.90686 143.644 0.418944C124.44 -1.06897 105.124 1.41726 87.0372 7.70511C68.9499 13.993 52.5241 23.9319 38.8997 36.8321C25.2753 49.7324 14.7785 65.2851 8.13764 82.411C1.49682 99.5369 -1.12898 117.826 0.442462 136.009C2.0139 154.192 7.74495 171.833 17.2379 187.709C26.7309 203.585 39.7584 217.315 55.4166 227.946C31.3978 276.473 18.9471 329.408 18.9471 383C18.9471 436.592 31.3978 489.527 55.4166 538.054C39.7584 548.685 26.7309 562.415 17.2379 578.291C7.74495 594.167 2.0139 611.808 0.442462 629.991C-1.12898 648.174 1.49682 666.463 8.13764 683.589C14.7785 700.715 25.2753 716.268 38.8997 729.168C52.5241 742.068 68.9499 752.007 87.0372 758.295C105.124 764.583 124.44 767.069 143.644 765.581C162.847 764.093 181.479 758.667 198.246 749.678C215.013 740.69 229.514 728.355 240.742 713.529C291.993 736.271 347.9 748.06 404.5 748.06C461.1 748.06 517.007 736.271 568.258 713.529C579.486 728.355 593.987 740.69 610.754 749.678C627.521 758.667 646.153 764.093 665.356 765.581C684.56 767.069 703.876 764.583 721.963 758.295C740.05 752.007 756.476 742.068 770.1 729.168C783.725 716.268 794.222 700.715 800.862 683.589C807.503 666.463 810.129 648.174 808.557 629.991C806.986 611.808 801.255 594.167 791.762 578.291C782.269 562.415 769.242 548.685 753.583 538.054ZM676.114 18.3841C698.556 18.3841 720.494 24.6853 739.154 36.4908C757.814 48.2964 772.358 65.0761 780.947 84.708C789.535 104.34 791.782 125.942 787.404 146.784C783.025 167.625 772.218 186.769 756.349 201.794C740.48 216.82 720.262 227.052 698.251 231.198C676.24 235.344 653.424 233.216 632.69 225.084C611.956 216.952 594.235 203.181 581.766 185.513C569.298 167.845 562.643 147.073 562.643 125.823C562.677 97.3384 574.643 70.0294 595.915 49.8876C617.188 29.7458 646.03 18.4161 676.114 18.3841ZM234.189 383C234.168 357.038 240.766 331.455 253.425 308.425C266.083 285.395 284.427 265.6 306.897 250.721C329.367 235.843 355.299 226.321 382.488 222.966C409.677 219.61 437.321 222.52 463.068 231.448C488.815 240.376 511.905 255.058 530.375 274.247C548.844 293.435 562.148 316.562 569.155 341.662C576.163 366.761 576.666 393.092 570.622 418.416C564.578 443.739 552.166 467.307 534.442 487.115C522.899 463.703 504.542 443.895 481.525 430.017C458.508 416.14 431.787 408.768 404.5 408.768C377.213 408.768 350.492 416.14 327.475 430.017C304.458 443.895 286.101 463.703 274.558 487.115C248.46 458.056 234.148 421.145 234.189 383ZM249.528 486.517L201.166 532.293C180.556 520.538 156.947 514.335 132.886 514.354C128.173 514.361 123.464 514.601 118.777 515.074C97.5282 473.953 86.4821 428.779 86.4821 383C86.4821 337.221 97.5282 292.047 118.777 250.926C123.464 251.399 128.173 251.639 132.886 251.646C155.773 251.663 178.271 246.046 198.173 235.346L247.586 282.133C225.88 312.331 214.434 348.086 214.781 384.613C215.128 421.14 227.251 456.694 249.528 486.517ZM594.227 383C594.274 346.647 582.6 311.147 560.766 281.245L609.824 234.794C629.965 245.847 652.834 251.661 676.114 251.646C680.827 251.639 685.536 251.399 690.223 250.926C711.472 292.047 722.518 337.221 722.518 383C722.518 428.779 711.472 473.953 690.223 515.074C685.536 514.601 680.827 514.361 676.114 514.354C651.66 514.331 627.681 520.738 606.847 532.86L558.825 487.391C581.889 456.967 594.273 420.45 594.227 383ZM513.828 236.265C481.699 214.75 443.288 203.248 403.935 203.358C364.583 203.468 326.245 215.184 294.249 236.878L246.227 191.408C259.03 171.682 265.796 148.977 265.773 125.823C265.765 121.361 265.511 116.902 265.012 112.464C308.441 92.3444 356.151 81.8854 404.5 81.8854C452.849 81.8854 500.559 92.3444 543.988 112.464C543.488 116.902 543.235 121.361 543.227 125.823C543.208 148.605 549.759 170.959 562.174 190.474L513.828 236.265ZM19.4161 125.823C19.4161 104.574 26.071 83.8015 38.5393 66.1332C51.0075 48.4649 68.7292 34.6942 89.4632 26.5624C110.197 18.4306 133.012 16.3029 155.023 20.4485C177.034 24.594 197.253 34.8266 213.122 49.8523C228.991 64.8779 239.798 84.0217 244.176 104.863C248.555 125.704 246.308 147.306 237.719 166.938C229.131 186.57 214.587 203.35 195.927 215.156C177.267 226.961 155.329 233.262 132.886 233.262C102.803 233.23 73.9606 221.901 52.6881 201.759C31.4156 181.617 19.4499 154.308 19.4161 125.823ZM132.886 747.616C110.444 747.616 88.5057 741.315 69.8456 729.509C51.1856 717.704 36.6418 700.924 28.0535 681.292C19.4652 661.66 17.2181 640.058 21.5964 619.216C25.9746 598.375 36.7816 579.232 52.6507 564.206C68.5199 549.18 88.7383 538.948 110.749 534.802C132.761 530.656 155.576 532.784 176.31 540.916C197.044 549.048 214.765 562.819 227.234 580.487C239.702 598.155 246.357 618.927 246.357 640.177C246.323 668.662 234.357 695.971 213.085 716.112C191.812 736.254 162.97 747.584 132.886 747.616ZM543.988 653.536C500.559 673.656 452.849 684.115 404.5 684.115C356.151 684.115 308.441 673.656 265.012 653.536C265.511 649.098 265.765 644.639 265.773 640.177C265.788 618.135 259.648 596.481 247.975 577.411L297.032 530.961C328.475 551.488 365.739 562.532 403.931 562.642C442.122 562.751 479.456 551.921 511.029 531.573L560.443 578.361C549.142 597.205 543.209 618.507 543.227 640.177C543.235 644.639 543.488 649.098 543.988 653.536ZM676.114 747.616C653.671 747.616 631.733 741.315 613.073 729.509C594.413 717.704 579.869 700.924 571.281 681.292C562.692 661.66 560.445 640.058 564.824 619.216C569.202 598.375 580.009 579.232 595.878 564.206C611.747 549.18 631.966 538.948 653.977 534.802C675.988 530.656 698.803 532.784 719.537 540.916C740.271 549.048 757.992 562.819 770.461 580.487C782.929 598.155 789.584 618.927 789.584 640.177C789.55 668.662 777.584 695.971 756.312 716.112C735.039 736.254 706.197 747.584 676.114 747.616Z" fill="black"/>
<path d="M472.181 330.989C472.181 343.663 468.212 356.053 460.775 366.592C453.338 377.13 442.767 385.344 430.4 390.194C418.033 395.044 404.425 396.314 391.296 393.841C378.167 391.368 366.108 385.265 356.642 376.303C347.177 367.34 340.731 355.922 338.12 343.491C335.508 331.06 336.848 318.175 341.971 306.465C347.094 294.755 355.768 284.747 366.898 277.705C378.029 270.663 391.114 266.905 404.5 266.905C422.444 266.925 439.646 273.683 452.334 285.697C465.022 297.711 472.16 313.999 472.181 330.989Z" fill="black"/>
</svg>
