<svg width="843" height="817" viewBox="0 0 843 817" fill="none" xmlns="http://www.w3.org/2000/svg">
<path d="M356.921 131.888L329.223 140.204C318.685 134.368 306.793 131.304 294.599 131.304C258.471 131.304 228.514 158.149 222.643 193.309C212.556 194.038 196.75 193.6 182.901 185.43C169.052 177.26 159.568 162.963 154.6 142.537C153.095 136.264 147.525 131.742 140.901 131.304C134.428 131.012 128.106 134.659 125.848 140.787C110.794 179.594 101.16 262.459 171.46 298.94C178.837 302.733 187.869 300.107 191.783 292.958C195.697 285.809 192.987 277.056 185.611 273.262C149.482 254.588 143.461 219.574 145.418 191.853C151.59 199.44 158.966 205.713 167.547 210.673C200.966 230.077 238.9 220.594 240.556 220.156C247.18 218.405 251.696 212.716 251.696 206.005C251.696 180.911 270.964 160.486 294.598 160.486C303.028 160.486 311.157 163.112 318.232 167.927C321.995 170.553 326.963 171.428 331.479 170.115L337.199 168.364L333.888 177.41C332.683 180.765 332.683 184.413 334.038 187.768C336.447 193.458 337.651 199.585 337.651 205.859C337.651 235.184 320.941 292.082 275.932 319.511C237.847 342.854 187.718 340.52 127.198 312.654C119.671 309.153 110.638 312.217 107.177 319.511C103.564 326.806 106.876 335.56 114.252 338.915C154.595 357.444 188.466 364.301 216.462 364.301C249.43 364.301 274.418 354.818 292.031 344.021C347.579 310.028 367.751 242.629 367.751 205.57C367.751 197.546 366.547 189.668 363.988 182.081L375.579 150.422C377.536 145.17 376.181 139.48 372.267 135.395C368.353 131.456 362.482 129.997 356.912 131.602L356.921 131.888Z" fill="black"/>
<path d="M737.023 390.266C783.388 352.772 812.893 296.456 812.893 233.43C812.893 120.804 718.356 29.1787 602.143 29.1787C537.111 29.1787 479.007 57.7738 440.316 102.709C395.757 38.9538 321.246 0 240.857 0C108.087 0 0 104.754 0 233.43C0 307.544 37.1826 377.577 98.1541 421.191C46.5201 459.416 15.0584 519.67 15.0584 583.574C15.0584 696.199 109.595 787.825 225.808 787.825C293.7 787.825 356.623 756.166 395.911 703.936C439.115 773.236 517.39 817 602.143 817C734.913 817 843 712.246 843 583.57C843 505.663 802.807 433.451 737.023 390.266ZM541.929 218.845H572.036V160.488C572.036 136.415 592.358 116.719 617.196 116.719H662.357C670.637 116.719 677.411 123.285 677.411 131.309C677.411 139.333 670.637 145.898 662.357 145.898H617.196C608.917 145.898 602.143 152.463 602.143 160.488V218.845H647.304C655.583 218.845 662.357 225.41 662.357 233.434C662.357 241.458 655.583 248.024 647.304 248.024H602.143V350.154C602.143 358.178 595.369 364.743 587.089 364.743C578.81 364.743 572.036 358.178 572.036 350.154V248.024H541.929C533.649 248.024 526.875 241.458 526.875 233.434C526.875 225.41 533.649 218.845 541.929 218.845ZM285.262 585.768L181.394 641.937C181.394 641.937 180.642 641.499 180.642 639.895V527.269C180.642 526.248 180.943 525.665 180.943 525.373L285.263 581.396C285.263 581.396 286.015 582.563 286.015 583.584C286.015 584.606 285.713 585.476 285.262 585.768ZM240.853 437.69C202.768 437.69 165.284 427.623 132.622 408.657C69.3967 371.892 30.1033 304.781 30.1033 233.435C30.1033 120.81 124.64 29.1843 240.853 29.1843C315.067 29.1843 383.556 67.1166 421.65 128.541C402.532 159.325 391.393 195.069 391.393 233.435C391.393 271.802 402.532 307.549 421.65 338.329C400.575 372.176 370.468 399.312 333.737 416.819C305.135 430.534 273.067 437.69 240.853 437.69ZM367.149 432.146C396.202 414.784 421.041 391.587 440.31 364.16C448.439 373.643 457.471 382.397 467.256 390.275C438.504 409.241 413.967 434.335 395.903 463.368C387.473 451.987 377.837 441.483 367.149 432.146ZM602.139 787.837C522.356 787.837 449.349 743.776 413.818 674.913C428.57 646.756 436.549 615.388 436.549 583.584C436.549 551.78 428.57 520.412 413.818 492.255C431.732 457.678 459.731 428.353 494.053 408.366C525.665 426.895 562.547 437.69 602.14 437.69C641.733 437.69 678.612 426.895 710.372 408.366C773.747 445.277 812.89 511.654 812.89 583.588C812.89 696.213 718.353 787.837 602.139 787.837Z" fill="black"/>
<path d="M662.357 466.859H541.929C508.66 466.859 481.714 492.974 481.714 525.217V641.931C481.714 674.174 508.66 700.289 541.929 700.289H662.357C695.625 700.289 722.571 674.174 722.571 641.931V525.217C722.571 492.974 695.625 466.859 662.357 466.859ZM692.464 641.931C692.464 657.98 678.917 671.11 662.357 671.11H541.929C525.369 671.11 511.821 657.98 511.821 641.931V525.217C511.821 509.168 525.369 496.038 541.929 496.038H662.357C678.917 496.038 692.464 509.168 692.464 525.217V641.931Z" fill="black"/>
<path d="M602.143 525.217C568.875 525.217 541.929 551.332 541.929 583.574C541.929 615.816 568.875 641.932 602.143 641.932C635.411 641.932 662.357 615.816 662.357 583.574C662.357 551.332 635.411 525.217 602.143 525.217ZM602.143 612.753C585.584 612.753 572.036 599.623 572.036 583.574C572.036 567.525 585.584 554.395 602.143 554.395C618.702 554.395 632.25 567.525 632.25 583.574C632.25 599.623 618.702 612.753 602.143 612.753Z" fill="black"/>
</svg>
