<svg width="823" height="807" viewBox="0 0 823 807" fill="none" xmlns="http://www.w3.org/2000/svg">
<path d="M632.519 768.983C611.242 759.724 592.471 745.744 577.699 728.155C562.927 710.567 552.562 689.855 547.427 667.666C546.946 665.65 545.814 663.838 544.199 662.497C528.265 649.038 514.909 632.92 504.752 614.896C500.741 607.986 498.82 600.108 499.21 592.174C499.601 584.241 502.288 576.578 506.959 570.076C511.63 563.574 518.093 558.499 525.599 555.44C533.105 552.381 541.346 551.464 549.364 552.795C554.559 553.716 559.846 554.033 565.117 553.741C566.538 553.658 567.922 553.27 569.172 552.606C570.422 551.941 571.506 551.015 572.348 549.895C592.745 522.647 622.444 503.417 656.084 495.675C658.185 495.181 660.054 494.01 661.39 492.352C662.725 490.693 663.449 488.643 663.444 486.533V417.56C663.442 415.278 662.6 413.074 661.071 411.349C659.542 409.624 657.428 408.494 655.116 408.165C649.499 407.346 644.528 406.463 639.944 405.391C620.76 400.864 602.565 393.005 586.229 382.19C584.45 380.947 582.275 380.365 580.095 380.551C556.394 381.887 532.64 379.025 509.982 372.103C474.35 363.106 466.422 313.129 497.586 293.988C503.571 290.033 508.998 285.328 513.726 279.991C514.651 278.971 515.334 277.764 515.724 276.456C516.115 275.148 516.204 273.771 515.986 272.426C511.612 242.521 515.953 212.019 528.511 184.412C539.676 159.587 557.158 137.964 579.296 121.599C601.433 105.233 627.489 94.6701 654.987 90.9136C657.37 90.5716 659.537 89.3745 661.066 87.5558C662.594 85.7372 663.373 83.4278 663.251 81.0783C662.238 59.2277 652.63 38.6014 636.43 23.4972C620.229 8.39306 598.685 -0.0239421 576.286 5.11551e-05H247.022C223.917 0.0334041 201.768 9.01138 185.43 24.966C169.092 40.9206 159.898 62.5501 159.864 85.1133V225.708C159.878 227.03 160.174 228.335 160.732 229.54C161.29 230.745 162.099 231.823 163.107 232.707C164.115 233.59 165.299 234.259 166.586 234.672C167.873 235.084 169.233 235.23 170.581 235.102C177.98 234.334 185.414 233.934 192.855 233.904C233.682 233.941 273.636 245.452 307.946 267.062C342.256 288.672 369.473 319.468 386.346 355.774C386.9 356.989 387.709 358.078 388.721 358.968C389.733 359.859 390.926 360.532 392.221 360.943C404.663 364.927 417.671 366.969 430.764 366.996C440.286 367.039 449.602 369.71 457.636 374.701C465.671 379.691 472.097 386.798 476.173 395.202C480.25 403.605 481.811 412.962 480.676 422.195C479.541 431.427 475.757 440.158 469.76 447.381C449.623 472.343 424.688 493.225 396.353 508.851C394.282 509.909 392.693 511.686 391.898 513.832C376.761 553.517 349.539 587.721 313.895 611.842C278.252 635.964 235.898 648.845 192.532 648.752C185.198 648.696 177.872 648.275 170.581 647.491C169.234 647.365 167.874 647.513 166.588 647.926C165.302 648.339 164.118 649.008 163.111 649.891C162.104 650.774 161.295 651.851 160.736 653.055C160.177 654.259 159.88 655.564 159.864 656.885V721.887C159.898 744.45 169.092 766.079 185.43 782.034C201.768 797.989 223.917 806.967 247.022 807H576.286C598.084 807.004 619.083 798.99 635.102 784.555C636.278 783.496 637.168 782.168 637.69 780.691C638.213 779.214 638.352 777.634 638.097 776.091C637.841 774.549 637.197 773.092 636.224 771.852C635.251 770.611 633.978 769.625 632.519 768.983ZM350.966 69.3516C343.556 69.1254 336.347 66.9424 330.106 63.0347C323.865 59.127 318.825 53.6407 315.522 47.1591L300.027 18.9141H523.346L507.786 47.1591C504.483 53.6407 499.443 59.127 493.202 63.0347C486.961 66.9424 479.752 69.1254 472.342 69.3516H350.966ZM479.444 725.039H343.865C341.296 725.039 338.833 724.043 337.017 722.269C335.201 720.496 334.18 718.09 334.18 715.582C334.18 713.074 335.201 710.668 337.017 708.895C338.833 707.121 341.296 706.125 343.865 706.125H479.444C482.012 706.125 484.476 707.121 486.292 708.895C488.108 710.668 489.128 713.074 489.128 715.582C489.128 718.09 488.108 720.496 486.292 722.269C484.476 724.043 482.012 725.039 479.444 725.039Z" fill="black"/>
<path d="M679.475 649.383H705.054L711.975 624.164H686.396L679.475 649.383Z" fill="black"/>
<path d="M642.901 519.506C617.631 529.42 596.301 547.017 582.071 569.692C581.856 570.022 581.573 570.305 581.239 570.522C580.906 570.739 580.529 570.886 580.134 570.952C568.873 573.183 557.287 573.356 545.962 571.463C541.571 570.735 537.059 571.239 532.949 572.915C528.84 574.592 525.302 577.373 522.747 580.935C520.192 584.497 518.724 588.694 518.515 593.039C518.306 597.383 519.363 601.696 521.564 605.477C531.898 624.155 546.207 640.457 563.529 653.285C563.83 653.49 564.087 653.75 564.284 654.052C564.481 654.354 564.615 654.692 564.678 655.044C573.762 715.847 632.371 763.958 693.549 763.302C716.972 763.042 739.879 756.56 759.816 744.552C779.752 732.544 795.965 715.462 806.714 695.139C817.464 674.816 822.345 652.018 820.835 629.192C819.324 606.365 811.478 584.371 798.139 565.568C781.396 541.896 756.937 524.457 728.748 516.093C700.559 507.729 670.3 508.932 642.901 519.506ZM750.603 624.164H732.028L725.114 649.383H744.146C746.715 649.383 749.178 650.379 750.994 652.153C752.81 653.926 753.831 656.332 753.831 658.84C753.831 661.348 752.81 663.753 750.994 665.527C749.178 667.301 746.715 668.297 744.146 668.297H719.923L713.731 690.849C713.402 692.049 712.834 693.175 712.059 694.161C711.284 695.147 710.318 695.974 709.216 696.596C708.114 697.217 706.897 697.62 705.635 697.783C704.373 697.945 703.091 697.863 701.862 697.541C700.632 697.219 699.48 696.665 698.47 695.908C697.461 695.151 696.613 694.208 695.977 693.132C695.341 692.055 694.927 690.867 694.761 689.635C694.595 688.403 694.679 687.151 695.009 685.95L699.851 668.297H674.271L668.009 691.126C667.68 692.327 667.111 693.452 666.336 694.438C665.562 695.424 664.596 696.252 663.493 696.873C662.391 697.494 661.174 697.898 659.913 698.06C658.651 698.222 657.369 698.14 656.139 697.819C654.91 697.497 653.757 696.942 652.748 696.185C651.738 695.429 650.891 694.485 650.254 693.409C649.618 692.333 649.205 691.145 649.039 689.912C648.873 688.68 648.957 687.428 649.286 686.227L654.206 668.297H640.848C638.279 668.297 635.816 667.301 634 665.527C632.184 663.753 631.164 661.348 631.164 658.84C631.164 656.332 632.184 653.926 634 652.153C635.816 650.379 638.279 649.383 640.848 649.383H659.422L666.337 624.164H647.304C644.736 624.164 642.272 623.168 640.456 621.394C638.64 619.621 637.62 617.215 637.62 614.707C637.62 612.199 638.64 609.793 640.456 608.02C642.272 606.246 644.736 605.25 647.304 605.25H671.527L677.719 582.698C678.384 580.274 680.008 578.206 682.234 576.951C684.46 575.696 687.106 575.356 689.589 576.006C692.071 576.655 694.188 578.241 695.474 580.415C696.759 582.589 697.107 585.172 696.442 587.597L691.6 605.25H717.179L723.441 582.421C723.771 581.22 724.339 580.095 725.114 579.109C725.889 578.123 726.855 577.295 727.957 576.674C729.059 576.052 730.276 575.649 731.538 575.487C732.8 575.325 734.082 575.407 735.311 575.728C736.541 576.05 737.693 576.605 738.703 577.362C739.712 578.118 740.56 579.061 741.196 580.138C741.832 581.214 742.246 582.402 742.412 583.635C742.578 584.867 742.494 586.119 742.164 587.319L737.219 605.25H750.603C753.171 605.25 755.634 606.246 757.45 608.02C759.267 609.793 760.287 612.199 760.287 614.707C760.287 617.215 759.267 619.621 757.45 621.394C755.634 623.168 753.171 624.164 750.603 624.164Z" fill="black"/>
<path d="M546.252 192.053C533.763 219.352 530.485 249.821 536.891 279.058C537.022 279.681 537.019 280.323 536.884 280.945C536.748 281.567 536.482 282.154 536.103 282.671C528.691 293.262 519.33 302.418 508.497 309.674C504.552 312.328 501.454 316.013 499.556 320.308C497.658 324.603 497.038 329.333 497.766 333.956C498.495 338.579 500.543 342.908 503.675 346.447C506.807 349.985 510.897 352.591 515.476 353.964C538.546 361.261 562.96 363.597 587.042 360.811C587.589 360.732 588.147 360.759 588.683 360.891C589.219 361.023 589.724 361.258 590.167 361.58C615.653 380.536 646.767 390.871 678.804 391.023C784.924 391.496 856.238 278.106 807.197 185.062C752.107 80.5803 595.08 84.1172 546.252 192.053ZM688.449 312.952C685.746 314.449 682.692 315.236 679.585 315.236C676.478 315.236 673.423 314.449 670.72 312.952C632.842 291.926 611.324 265.818 612.241 232.725C612.218 227.852 613.178 223.022 615.066 218.511C616.955 214 619.735 209.896 623.247 206.435C626.76 202.973 630.936 200.221 635.538 198.335C640.14 196.45 645.077 195.468 650.067 195.445C655.75 195.443 661.359 196.699 666.471 199.12C671.584 201.541 676.068 205.064 679.585 209.423C683.101 205.064 687.585 201.541 692.698 199.12C697.811 196.699 703.42 195.443 709.102 195.445C714.093 195.468 719.03 196.45 723.632 198.335C728.233 200.221 732.41 202.973 735.922 206.435C739.435 209.896 742.215 214 744.103 218.511C745.992 223.022 746.952 227.852 746.929 232.725C747.878 265.818 726.327 291.907 688.449 312.952Z" fill="black"/>
<path d="M376.145 500.542C376.539 499.421 377.155 498.388 377.96 497.502C378.764 496.616 379.741 495.894 380.833 495.378C409.631 480.814 434.86 460.337 454.788 435.351C458.454 430.901 460.761 425.532 461.445 419.86C462.13 414.187 461.163 408.442 458.657 403.281C456.151 398.121 452.206 393.754 447.275 390.683C442.343 387.612 436.626 385.96 430.777 385.916C412.514 385.823 394.428 382.42 377.437 375.879C376.164 375.411 375.003 374.694 374.025 373.771C373.046 372.848 372.272 371.74 371.749 370.514C356.419 333.55 329.458 302.299 294.759 281.271C158.282 197.734 -16.7442 308.621 1.28781 464.151C11.9469 556.073 99.0276 632.007 192.92 630.091C272.137 631.78 352.07 576.444 376.145 500.542ZM146.952 521.53C144.014 523.21 140.672 524.096 137.267 524.096H111.443C106.306 524.096 101.38 522.103 97.7472 518.556C94.1149 515.009 92.0743 510.198 92.0743 505.182V410.612C92.0743 405.595 94.1149 400.785 97.7472 397.237C101.38 393.69 106.306 391.698 111.443 391.698H137.267C140.667 391.692 144.007 392.561 146.952 394.22V521.53ZM166.32 513.057V399.787C185.288 382.6 197.491 347.609 205.619 331.116C219.926 302.064 248.746 341.033 241.702 362.009C239.268 369.272 234.11 391.641 234.11 391.641C249.52 391.641 264.3 397.619 275.197 408.26C286.093 418.902 292.215 433.334 292.215 448.383V467.297C292.215 482.346 286.093 496.779 275.197 507.42C264.3 518.061 249.52 524.039 234.11 524.039H198.059C192.045 524.038 186.115 522.669 180.737 520.042L166.32 513.057Z" fill="black"/>
</svg>
