<svg width="824" height="792" viewBox="0 0 824 792" fill="none" xmlns="http://www.w3.org/2000/svg">
<path d="M72.46 631.091L201.313 724.401C262.334 768.292 336.506 792 412.74 792C489.006 792 563.187 768.292 624.167 724.401L753.019 631.091C768.536 619.887 777.629 602.338 777.629 583.75C777.629 565.125 768.536 547.576 753.019 536.371L624.167 443.062C563.185 399.171 489.004 375.463 412.74 375.463C336.513 375.463 262.332 399.171 201.313 443.062L72.46 536.371C56.9824 547.576 47.8504 565.124 47.8504 583.75C47.8504 602.337 56.9822 619.887 72.46 631.091ZM412.74 465.029C425.122 464.955 437.465 466.773 449.267 470.372C430.732 478.349 417.422 494.562 413.746 513.743C410.07 532.887 416.455 552.588 430.849 566.39C445.243 580.155 465.751 586.277 485.756 582.753C505.761 579.228 522.671 566.503 530.99 548.731C534.743 560.047 536.639 571.845 536.562 583.755C536.562 631.764 506.38 675.061 460.141 693.427C413.863 711.793 360.579 701.664 325.177 667.68C289.772 633.732 279.17 582.68 298.362 538.308C317.516 493.934 362.669 465.029 412.74 465.029Z" fill="black"/>
<path d="M807.342 200.274C796.663 190.071 782.191 184.32 767.1 184.32C752.01 184.32 737.538 190.071 726.859 200.274L710.762 215.708L694.665 200.274C683.986 190.071 669.514 184.32 654.423 184.32C639.333 184.32 624.861 190.071 614.22 200.274C608.648 205.765 604.431 212.369 601.877 219.604C592.784 242.978 597.504 269.246 614.22 288.353C638.365 316.105 665.141 341.705 694.162 364.782C698.921 368.567 704.648 371.052 710.762 371.98C733.514 371.98 807.342 288.353 807.342 288.353C829.553 262.865 829.553 225.8 807.342 200.274Z" fill="black"/>
<path d="M547.506 116.35C552.459 112.529 554.394 106.11 552.266 100.359C550.176 94.6088 544.488 90.7504 538.104 90.7504H473.059C467.061 90.7504 461.645 87.3 459.284 82.0316L426.51 8.71884C424.15 3.45042 418.733 0 412.735 0C406.738 0 401.321 3.45042 398.961 8.71884L366.187 82.0316C363.826 87.3 358.409 90.7504 352.412 90.7504H287.367C280.983 90.7504 275.294 94.609 273.205 100.359C271.077 106.11 273.012 112.528 278.003 116.35L334.806 159.907H334.768C339.566 163.58 341.539 169.664 339.759 175.267L313.718 258.448H313.757C311.9 264.421 314.221 270.84 319.522 274.402C324.823 277.926 331.904 277.815 337.089 274.105L403.72 226.17C409.06 222.348 416.412 222.348 421.752 226.17L488.383 274.105C493.568 277.815 500.65 277.926 505.95 274.402C511.251 270.84 513.573 264.421 511.715 258.448L485.674 175.267H485.713C483.933 169.665 485.907 163.58 490.705 159.907L547.506 116.35Z" fill="black"/>
<path d="M246.394 240.014C236.759 177.09 177.131 132.601 111.122 139.136C45.1481 145.666 -3.76411 200.909 0.22788 264.395C5.37417 327.875 60.9774 376.66 127.377 375.996H229.069C231.739 375.996 234.099 374.363 234.95 371.914C235.802 369.503 234.912 366.831 232.783 365.31L205.891 345.98H205.93C237.234 319.489 252.44 279.643 246.404 240.021L246.394 240.014ZM72.2322 272.106C65.9638 272.106 60.3147 268.47 57.9156 262.942C55.5552 257.377 56.8708 250.996 61.2819 246.766C65.7317 242.5 72.3871 241.238 78.1522 243.538C83.9564 245.839 87.7096 251.255 87.7096 257.266C87.7096 265.465 80.7836 272.106 72.2322 272.106ZM123.811 272.106C117.581 272.106 111.932 268.47 109.533 262.942C107.134 257.377 108.45 250.996 112.861 246.766C117.311 242.5 123.966 241.238 129.731 243.538C135.535 245.839 139.288 251.255 139.288 257.266C139.288 265.465 132.362 272.106 123.811 272.106ZM175.429 272.106C169.16 272.106 163.511 268.47 161.112 262.942C158.713 257.377 160.028 250.996 164.478 246.766C168.889 242.5 175.545 241.238 181.349 243.538C187.114 245.839 190.906 251.255 190.906 257.266C190.906 265.465 183.98 272.106 175.429 272.106Z" fill="black"/>
</svg>
