<svg width="806" height="812" viewBox="0 0 806 812" fill="none" xmlns="http://www.w3.org/2000/svg">
<path d="M758.878 553.132C741.683 535.352 721.399 522.052 699.234 513.793C723.145 496.153 738.862 466.893 738.862 433.994C738.862 379.955 696.682 335.99 644.824 335.99C592.967 335.99 550.787 379.949 550.787 433.994C550.787 466.894 566.503 496.153 590.415 513.934C545.279 530.873 508.74 568.393 492.62 616.417C481.74 608.717 469.918 602.557 457.424 597.937H457.29C481.336 580.157 497.053 551.038 497.053 517.998C497.053 463.959 454.873 419.994 403.015 419.994C351.157 419.994 308.977 463.953 308.977 517.998C308.977 551.038 324.694 580.157 348.74 597.937H348.606C336.113 602.557 324.291 608.717 313.41 616.417C305.484 592.758 292.454 571.197 275.259 553.138C258.064 535.358 237.78 522.058 215.615 513.798C239.526 496.158 255.243 466.898 255.243 433.999C255.243 379.96 213.063 335.996 161.206 335.996C109.348 335.996 67.1677 379.955 67.1677 433.999C67.1677 466.899 82.8845 496.159 106.796 513.939C44.5996 537.179 0 599.198 0 672.001V686.001C0 709.101 18.1353 728.001 40.3001 728.001H244.083C242.606 737.1 241.8 746.481 241.8 756V770C241.8 793.1 259.935 812 282.1 812H523.9C546.065 812 564.2 793.1 564.2 770V756C564.2 746.481 563.394 737.1 561.917 728.001H765.7C787.865 728.001 806 709.101 806 686.001V672.001C806 627.062 789.209 584.921 758.849 553.139L758.878 553.132ZM335.862 517.992C335.862 479.353 365.953 447.993 403.029 447.993C440.105 447.993 470.196 479.353 470.196 517.992C470.196 556.632 440.105 587.992 403.029 587.992C365.953 587.992 335.862 556.632 335.862 517.992ZM537.367 769.99C537.367 777.69 531.322 783.99 523.934 783.99H282.133C274.745 783.99 268.7 777.69 268.7 769.99V755.991C268.7 742.411 270.58 729.251 274.073 716.791C281.327 690.891 295.7 668.071 314.642 650.572C338.285 629.012 369.182 615.992 403.032 615.992C436.881 615.992 467.78 629.011 491.421 650.572C510.362 668.071 524.736 690.891 531.99 716.791C535.483 729.251 537.364 742.411 537.364 755.991L537.367 769.99Z" fill="black"/>
<path d="M67.1948 279.998H223.692L287.232 332.917C289.65 335.017 292.605 335.997 295.561 335.997C297.576 335.997 299.591 335.577 301.337 334.597C306.039 332.217 308.994 327.317 308.994 321.998V279.998H335.861C358.026 279.998 376.161 261.098 376.161 237.998V41.9997C376.161 18.9001 358.026 0 335.861 0H67.1935C45.0287 0 26.8934 18.9001 26.8934 41.9997V237.998C26.8934 261.098 45.0299 279.998 67.1948 279.998ZM53.7614 42.0042C53.7614 34.3042 59.8064 28.0043 67.1948 28.0043H335.862C343.251 28.0043 349.296 34.3042 349.296 42.0042V238.003C349.296 245.703 343.251 252.003 335.862 252.003H295.562C288.174 252.003 282.129 258.302 282.129 266.002V292.882L236.724 255.082C234.441 253.122 231.485 252.002 228.396 252.002H67.1952C59.8068 252.002 53.7619 245.702 53.7619 238.002L53.7614 42.0042Z" fill="black"/>
<path d="M470.187 279.998H497.054V321.998C497.054 327.317 500.009 332.217 504.711 334.597C506.592 335.577 508.472 335.997 510.487 335.997C513.443 335.997 516.398 335.017 518.816 332.917L582.356 279.998H738.853C761.018 279.998 779.153 261.098 779.153 237.998V41.9997C779.153 18.9001 761.018 0 738.853 0H470.186C448.021 0 429.886 18.9001 429.886 41.9997V237.998C429.886 261.098 448.022 279.998 470.187 279.998ZM456.754 42.0042C456.754 34.3042 462.799 28.0043 470.187 28.0043H738.855C746.243 28.0043 752.288 34.3042 752.288 42.0042V238.003C752.288 245.703 746.243 252.003 738.855 252.003H577.654C574.564 252.003 571.609 253.123 569.326 255.083L523.921 292.883V266.003C523.921 258.303 517.876 252.003 510.488 252.003H470.188C462.799 252.003 456.754 245.703 456.754 238.003L456.754 42.0042Z" fill="black"/>
<path d="M555.224 162.954L551.194 191.934C550.119 200.194 553.343 208.314 559.791 213.074C563.284 215.734 567.448 216.994 571.612 216.994C574.836 216.994 578.06 216.154 581.016 214.614L604.525 201.734L628.033 214.614C634.885 218.254 642.945 217.694 649.259 213.074C655.707 208.314 658.931 200.194 657.856 191.934L653.826 162.954L672.633 142.095C678.006 136.215 679.752 127.675 677.334 119.974C674.916 112.414 668.737 106.814 661.214 105.414L635.288 100.795L622.929 75.0348C619.437 67.6149 612.317 62.9944 604.526 62.9944C596.735 62.9944 589.615 67.6143 586.122 75.0348L573.764 100.795L547.838 105.414C540.315 106.814 534.135 112.414 531.718 119.974C529.3 127.674 531.046 136.214 536.419 142.095L555.224 162.954Z" fill="black"/>
<path d="M194.272 214.752C196.556 216.292 198.974 216.992 201.526 216.992C204.079 216.992 206.497 216.292 208.78 214.752C284.679 164.772 284.545 118.853 280.917 101.489C276.753 81.1895 261.841 66.2094 243.036 63.4094C227.856 61.1694 213.079 67.0494 201.527 79.3689C189.974 67.049 175.331 61.3092 160.018 63.4094C141.211 66.2094 126.3 81.1895 122.136 101.489C118.509 118.849 118.374 164.769 194.272 214.752Z" fill="black"/>
</svg>
