<svg width="826" height="760" viewBox="0 0 826 760" fill="none" xmlns="http://www.w3.org/2000/svg">
<path d="M825.999 492.306C825.71 367.401 734.312 261.959 613.4 247.041C611.922 246.871 610.426 247.041 609.021 247.54C607.615 248.038 606.336 248.851 605.278 249.921C604.219 250.99 603.407 252.288 602.901 253.72C602.396 255.151 602.209 256.681 602.355 258.196C608.256 314.836 598.923 372.05 575.365 423.653C574.522 425.497 574.24 427.557 574.557 429.567C574.874 431.576 575.775 433.442 577.141 434.92C580.921 439.052 584.154 443.674 586.757 448.669C587.426 450.073 588.467 451.256 589.761 452.084C591.055 452.912 592.551 453.351 594.077 453.351C595.603 453.351 597.098 452.912 598.392 452.084C599.686 451.256 600.727 450.073 601.397 448.669C611.124 430.008 629.717 416.312 652.1 415.913C675.248 415.501 696.541 437.586 703.793 460.142C727.078 532.557 654.683 580.503 603.91 598.846C597.572 601.146 590.655 601.155 584.311 598.871C555.744 588.562 520.33 568.87 498.949 540.726C498.149 539.662 497.152 538.769 496.015 538.1C494.878 537.43 493.623 536.997 492.323 536.824C491.022 536.651 489.701 536.742 488.435 537.093C487.169 537.443 485.982 538.045 484.944 538.865C452.985 564.039 416.449 582.444 377.467 593.007C376.008 593.416 374.659 594.16 373.522 595.181C372.385 596.203 371.49 597.475 370.903 598.903C370.317 600.33 370.056 601.876 370.138 603.422C370.221 604.968 370.646 606.475 371.381 607.828C410.478 678.396 486.74 727.941 575.393 740.364C620.31 746.658 749.393 759.538 750.603 759.652C779.444 763.866 802.167 728.934 787.078 703.271L766.072 664.563C765.255 663.044 764.911 661.307 765.087 659.583C765.263 657.859 765.95 656.231 767.055 654.919C805.217 609.766 826.151 552.013 825.999 492.306Z" fill="black"/>
<path d="M333.082 253.855H275.414L259.815 313.452H317.482L333.082 253.855Z" fill="black"/>
<path d="M48.0807 431.895L20.1037 450.452C-15.3353 472.051 -0.976585 532.144 40.2088 534.504C41.1641 534.548 135.96 538.98 164.9 548.294C175.043 551.558 185.402 555.324 195.419 558.968C227.993 570.812 261.671 583.065 299.489 583.065C456.515 583.065 584.263 452.278 584.263 291.529C584.262 253.078 576.831 215.007 562.398 179.508C547.965 144.009 526.816 111.783 500.167 84.6872C473.518 57.591 441.896 36.1592 407.123 21.6261C372.35 7.09289 335.112 -0.25458 297.553 0.00673297C142.606 1.05405 15.724 130.968 14.7208 289.6C14.4093 338.412 26.058 386.524 48.6013 429.536C48.8221 429.924 48.8912 430.383 48.7946 430.82C48.698 431.258 48.4429 431.642 48.0807 431.895ZM172.741 313.458H214.612L230.212 253.861H187.295C181.505 253.861 175.952 251.507 171.858 247.315C167.764 243.124 165.464 237.44 165.464 231.512C165.464 225.585 167.764 219.901 171.858 215.709C175.952 211.518 181.505 209.163 187.295 209.163H241.91L255.855 155.879C257.394 150.199 261.061 145.371 266.06 142.446C271.058 139.521 276.983 138.736 282.544 140.261C288.106 141.786 292.853 145.499 295.754 150.59C298.654 155.682 299.473 161.74 298.031 167.447L287.111 209.163H344.779L358.9 155.212C359.642 152.377 360.922 149.72 362.668 147.391C364.413 145.063 366.589 143.109 369.072 141.642C371.555 140.175 374.295 139.222 377.138 138.839C379.98 138.456 382.868 138.65 385.637 139.41C388.407 140.169 391.003 141.48 393.277 143.267C395.551 145.053 397.46 147.281 398.893 149.823C400.327 152.365 401.257 155.171 401.631 158.08C402.005 160.99 401.816 163.947 401.074 166.782L389.981 209.163H420.156C425.946 209.163 431.498 211.518 435.592 215.709C439.686 219.901 441.986 225.585 441.986 231.512C441.986 237.44 439.686 243.124 435.592 247.315C431.498 251.507 425.946 253.861 420.156 253.861H378.281L362.683 313.458H405.601C411.39 313.458 416.943 315.813 421.037 320.004C425.131 324.195 427.431 329.88 427.431 335.807C427.431 341.735 425.131 347.419 421.037 351.61C416.943 355.802 411.39 358.156 405.601 358.156H350.985L337.04 411.441C335.541 417.166 331.882 422.047 326.868 425.011C321.854 427.975 315.895 428.778 310.302 427.243C304.71 425.709 299.941 421.963 297.047 416.83C294.152 411.697 293.367 405.597 294.866 399.871L305.784 358.156H248.116L234 412.099C232.502 417.824 228.843 422.706 223.829 425.669C218.815 428.633 212.856 429.436 207.263 427.902C201.671 426.369 196.903 422.623 194.008 417.49C191.113 412.357 190.328 406.256 191.826 400.531L202.919 358.149H172.741C166.951 358.149 161.398 355.795 157.304 351.604C153.21 347.412 150.91 341.728 150.91 335.801C150.91 329.873 153.21 324.189 157.304 319.997C161.398 315.806 166.951 313.452 172.741 313.452V313.458Z" fill="black"/>
</svg>
