<svg width="872" height="576" viewBox="0 0 872 576" fill="none" xmlns="http://www.w3.org/2000/svg">
<path fill-rule="evenodd" clip-rule="evenodd" d="M440.788 279.173C449.459 273.735 463.169 269.837 480.126 267.19C512.715 262.088 558.373 260.597 602.064 261.03C603.046 256.747 604.456 251.982 606.249 246.688C609.538 237.063 614.279 226.956 619.106 216.706C626.239 201.595 633.5 186.195 635.08 174.838C635.806 169.641 636.318 163.769 636.788 157.754C637.941 144.038 639.137 129.746 643.494 117.906C651.737 95.3843 669.035 83.2086 710.551 102.458C720.93 107.271 735.964 106.79 750.785 106.26C760.31 105.923 769.75 105.635 778.419 106.645V76.6154C778.419 62.1296 760.523 45.6234 732.718 31.4739C703.973 16.844 665.063 5.3901 624.059 1.58817C612.655 0.529414 601.037 0 589.505 0C551.108 0 513.649 5.6306 485.631 14.9182C459.234 23.677 441.681 35.1784 440.783 47.4983C440.783 47.7871 440.74 48.0758 440.74 48.4127V279.128L440.788 279.173ZM430.58 338.077H78.4232C78.4232 338.703 78.4233 339.328 78.5087 339.954C78.5514 340.291 78.5941 340.627 78.5941 340.964V414.98H430.62V338.077L430.58 338.077ZM441.429 322.195V294.091C441.813 287.883 457.745 282.974 481.621 279.269C513.27 274.312 557.562 272.82 600.191 273.205C599.465 285.717 603.821 292.311 611.979 295.871C619.368 299.048 629.191 298.374 641.066 297.508C657.211 296.353 677.628 294.909 696.933 303.331C739.986 322.051 753.569 318.105 760.275 298.518L760.317 298.422C769.543 304.293 777.658 310.501 783.595 316.998C785.175 318.731 786.585 320.463 787.824 322.196L441.429 322.195ZM793.247 334.371H441.429V414.98H793.454V340.965C793.454 340.628 793.497 340.291 793.54 339.954C793.711 338.077 793.582 336.2 793.283 334.323L793.247 334.371ZM254.181 280.135C258.153 278.402 258.239 271.28 251.618 251.885C248.842 243.752 244.144 233.839 239.403 223.781C231.757 207.563 223.941 191.007 221.976 176.811C221.164 171.036 220.652 164.972 220.139 158.813C219.071 146.301 217.961 133.211 214.459 123.585C209.333 109.533 197.161 102.555 166.151 116.992C152.954 123.104 136.381 122.574 120.066 121.997C104.263 121.468 88.7157 120.938 79.5332 126.858C74.4505 130.13 74.0661 136.675 76.8424 146.396C80.5583 159.342 89.3565 176.907 100.59 198.708C115.369 227.39 118.486 252.848 120.879 271.905C121.904 280.375 122.801 287.401 124.424 292.117C127.542 301.213 136.895 301.742 169.186 287.69C191.482 277.969 213.606 279.557 231.118 280.808C241.326 281.53 249.783 282.107 254.183 280.231L254.181 280.135ZM108.319 286.584C97.5133 293.321 87.8178 300.588 80.7281 308.48C71.844 318.297 66.7619 329.126 67.829 341.156V421.043C67.829 424.412 70.2636 427.155 73.2534 427.155H798.878C801.867 427.155 804.302 424.412 804.302 421.043V341.156C805.37 329.028 800.202 318.104 791.19 308.238C783.929 300.25 774.148 292.934 763.171 286.149C763.726 282.587 764.196 278.737 764.708 274.599C766.887 256.889 769.834 233.259 783.16 207.321C790.122 193.797 796.187 181.815 800.843 171.275C817.585 177.002 836.507 188.937 850.73 205.011C863.244 219.159 872 236.436 872 255.349V576L0 575.952V255.301C0 236.195 8.75586 219.015 21.2276 205.155C35.4934 189.321 54.5429 177.869 71.2853 172.575C75.8127 182.633 81.5789 193.99 88.1141 206.695C101.483 232.634 104.387 256.311 106.566 273.973C107.121 278.496 107.633 282.635 108.274 286.485L108.319 286.584ZM271.14 273.157C313.895 272.772 358.443 274.264 390.224 279.221C414.228 282.975 430.245 287.835 430.586 294.091V325.949H81.8412C83.4642 322.966 85.6425 320.078 88.2052 317.191C94.0993 310.694 102.086 304.534 111.184 298.711C117.976 317.672 131.771 321.329 174.269 302.801C193.617 294.379 213.991 295.823 230.136 296.978C242.01 297.796 251.834 298.518 259.223 295.342C267.253 291.877 271.652 285.38 271.054 273.252L271.14 273.157ZM265.032 246.159C261.744 236.534 257.003 226.428 252.176 216.177C245.043 201.066 237.782 185.666 236.202 174.309C235.476 169.112 234.964 163.241 234.494 157.225C233.341 143.51 232.145 129.217 227.788 117.378C219.545 94.8556 202.247 82.6798 160.731 101.93C150.352 106.742 135.318 106.261 120.497 105.732C110.801 105.395 101.148 105.058 92.3498 106.165V72.9106C92.3498 58.8585 111.997 43.3625 141.596 30.1752C173.587 15.9789 216.598 5.29506 259.816 2.35922C268.231 1.78172 276.816 1.493 285.444 1.493C323.628 1.493 360.104 7.17174 387.183 16.6527C412.639 25.5558 429.297 37.2984 429.981 50.0989V278.301C421.267 273.248 407.984 269.591 391.711 267.04C358.994 261.939 313.122 260.447 269.347 260.928C268.322 256.501 266.912 251.544 265.033 246.058L265.032 246.159ZM619.671 252.464C622.447 244.331 627.146 234.417 631.887 224.359C639.532 208.141 647.349 191.586 649.314 177.342C650.125 171.567 650.638 165.503 651.15 159.343C652.218 146.831 653.329 133.741 656.831 124.116C661.956 110.064 674.129 103.086 705.138 117.523C718.336 123.634 734.909 123.105 751.223 122.528C767.027 121.998 782.574 121.469 791.756 127.388C796.839 130.661 797.224 137.206 794.447 146.926C790.731 159.872 781.933 177.438 770.699 199.238C755.921 227.92 752.803 253.378 750.411 272.436C749.386 280.906 748.489 287.932 746.866 292.648C743.748 301.743 734.394 302.273 702.104 288.22C679.808 278.499 657.684 280.087 640.171 281.339C629.963 282.06 621.507 282.638 617.107 280.761C613.135 279.029 613.049 271.906 619.67 252.511L619.671 252.464Z" fill="black"/>
</svg>
