<svg width="723" height="831" viewBox="0 0 723 831" fill="none" xmlns="http://www.w3.org/2000/svg">
<path d="M488.515 666.392C484.687 666.392 481.491 667.907 478.629 670.936C476.585 673.173 474.839 676.202 473.352 679.917C478.778 681.468 495.872 685.616 514.044 683.56C506.76 672.993 497.211 666.392 488.515 666.392Z" fill="black"/>
<path d="M616.013 560.023C614.675 562.62 612.892 566.119 610.922 569.978C605.608 580.473 601.372 588.769 598.362 593.53C605.459 598.652 610.848 606.01 613.747 610.482C624.709 594.9 631.844 581.194 634.409 575.965C630.321 570.518 622.554 564.099 616.013 560.023Z" fill="black"/>
<path d="M528.642 517.864C520.021 518.369 511.771 518.585 503.892 518.585C494.453 518.585 485.758 518.188 477.358 517.611C477.135 521.074 476.764 527.278 476.318 535.429H517.456C527.638 535.429 535.888 543.724 535.888 553.896V570.523C545.773 549.712 551.495 530.74 551.57 530.415C552.127 528.54 554.097 527.458 555.992 527.998C557.887 528.576 558.965 530.559 558.407 532.435C558.184 533.192 556.401 539.107 553.242 547.727C557.144 547.439 562.347 547.475 566.397 548.881C568.255 549.531 569.221 551.55 568.59 553.426C568.069 554.905 566.732 555.806 565.245 555.806C564.873 555.806 564.465 555.734 564.093 555.626C560.191 554.255 553.8 554.724 550.418 555.193C550.009 556.167 549.637 557.177 549.191 558.187C555.137 558.548 566.62 559.954 573.904 565.112C575.502 566.23 575.911 568.466 574.759 570.053C574.053 571.027 572.975 571.568 571.86 571.568C571.154 571.568 570.448 571.352 569.816 570.919C563.462 566.446 551.384 565.292 546.256 565.148C541.313 576.474 534.958 589.134 527.377 600.314C538.339 603.849 567.289 616.545 575.316 651.531C588.62 641.504 599.992 628.916 609.245 616.654C607.275 613.371 600.475 602.696 591.593 597.61C590.664 597.069 590.032 596.167 589.846 595.085C589.66 594.039 589.995 592.957 590.664 592.163C592.447 590.108 596.461 582.642 600.325 575.067C597.427 573.011 593.673 571.532 592.67 571.244C590.701 571.244 589.511 569.693 589.511 567.745C589.511 565.761 591.481 564.21 593.45 564.21C594.64 564.21 599.471 565.942 603.633 568.611C603.967 567.962 604.302 567.312 604.599 566.735C607.609 560.748 610.247 555.591 611.622 553.282C612.589 551.659 614.67 551.082 616.342 551.984C621.916 554.978 629.311 560.388 635.034 565.942C631.28 529.585 623.477 505.348 618.013 492.255C593.487 506.502 560.23 517.864 528.642 517.864Z" fill="black"/>
<path d="M623.966 646.623C630.061 646.623 635.486 644.712 639.761 642.584C639.723 639.121 639.686 635.658 639.5 632.196C638.98 617.661 637.903 602.115 636.788 587.003C630.322 599.05 618.207 619.32 601.298 637.643C605.014 640.6 613.97 646.623 623.966 646.623Z" fill="black"/>
<path d="M575.134 683.16C570.155 677.245 563.502 670.536 560.195 669.743C559.972 669.67 559.824 669.562 559.601 669.454C554.026 672.015 548.304 674.143 542.283 675.513C546.185 679.409 552.763 685.973 558.04 691.42C562.164 689.4 570.08 685.576 575.134 683.16Z" fill="black"/>
<path d="M469.041 699.281C476.436 701.229 504.307 707.937 523.446 704.078C522.108 699.101 520.287 694.484 518.095 690.228C513.375 690.949 508.656 691.31 504.159 691.31C488.923 691.31 475.991 688.064 471.235 686.693C470.268 690.517 469.524 694.7 469.041 699.281Z" fill="black"/>
<path d="M413.188 480.967C423.481 483.311 433.292 485.367 442.694 487.099C449.012 487.892 455.144 488.469 460.755 488.613C553.584 490.85 609.211 461.346 625.898 400.896C618.019 387.479 613.263 370.239 613.263 351.375C613.263 333.774 617.425 317.616 624.412 304.595C604.418 232.207 540.389 196.97 428.683 196.97C393.677 196.97 365.434 207.899 344.735 229.467C303.002 272.893 305.344 345.753 305.344 346.473C309.06 428.131 363.019 466.323 413.188 480.967ZM338.79 288.432C348.6 264.52 360.827 260.948 367.256 260.948C370.823 260.948 374.317 262.066 376.769 264.014C379.148 265.89 383.235 270.001 383.904 276.422C384.462 281.796 382.455 287.279 377.959 292.688C362.834 310.867 358.672 318.116 358.115 334.636C357.52 351.84 348.378 356.421 343.101 356.421C342.433 356.421 341.764 356.349 341.169 356.205C336.524 355.159 332.845 352.309 330.615 347.981C322.142 331.859 334.739 298.351 338.79 288.432ZM329.834 387.765C329.834 378.099 335.297 370.525 342.283 370.525C349.27 370.525 354.732 378.099 354.732 387.765C354.732 397.432 349.27 405.006 342.283 405.006C335.334 405.006 329.834 397.432 329.834 387.765Z" fill="black"/>
<path d="M448.34 573.264C448.34 583.038 433.735 583.038 433.735 573.264C433.735 563.489 448.34 563.489 448.34 573.264Z" fill="black"/>
<path d="M527.529 670.427C537.86 669.994 547.597 667.108 556.738 662.816C553.133 632.556 522.252 618.381 515.08 615.531C514.3 616.325 513.556 617.154 512.776 617.912C512.701 617.984 512.59 617.984 512.479 618.02C512.07 618.309 511.587 618.453 511.066 618.561C510.806 618.633 510.583 618.85 510.286 618.85C509.989 618.85 509.766 618.597 509.506 618.525C496.871 615.928 487.283 617.768 483.381 620.761C482.675 621.338 481.783 622.204 481.746 623.142C481.671 624.584 484.867 628.913 489.327 629.886C490.739 630.175 491.854 631.329 492.077 632.772C492.3 634.215 491.631 635.657 490.404 636.379C480.334 642.438 481.857 653.979 483.344 659.714C496.573 655.638 508.428 656.612 518.461 662.816C521.88 664.944 524.854 667.577 527.529 670.427Z" fill="black"/>
<path d="M481.817 634.186C477.878 631.517 475.054 627.477 474.794 623.726H472.824C472.638 633.753 472.564 643.635 472.601 653.086C473.493 653.05 474.385 653.013 475.277 652.977C475.091 646.557 476.577 639.561 481.817 634.186Z" fill="black"/>
<path d="M561.054 207.714C481.752 169.049 423.443 179.257 387.511 195.595C400.072 191.808 413.784 189.825 428.686 189.825C540.839 189.825 606.472 224.811 629.324 296.516C631.776 293.054 634.452 289.916 637.35 287.175C616.614 237.906 573.838 213.918 561.054 207.714Z" fill="black"/>
<path d="M462.163 516.239C461.977 519.34 461.531 526.157 461.011 535.426H469.186C469.632 526.987 470.041 520.638 470.264 517.068C467.477 516.851 464.801 516.563 462.163 516.239Z" fill="black"/>
<path d="M528.794 584.298V553.892C528.794 547.616 523.703 542.531 517.46 542.531H514.71C517.163 545.668 518.724 549.6 518.724 553.892V600.095C522.366 595.154 525.71 589.816 528.794 584.298Z" fill="black"/>
<path d="M493.566 595.913C494.867 595.913 495.907 594.867 495.907 593.569C495.907 592.27 494.867 591.224 493.566 591.224H482.604C481.303 591.224 480.263 592.27 480.263 593.569C480.263 594.867 481.303 595.913 482.604 595.913H493.566Z" fill="black"/>
<path d="M465.511 653.05C465.474 643.636 465.548 633.754 465.734 623.762H457.559C457.336 633.573 457.261 643.275 457.298 652.545C459.974 652.761 462.724 652.941 465.511 653.05Z" fill="black"/>
<path d="M482.635 571.029H493.598C494.898 571.029 495.939 569.983 495.939 568.685C495.939 567.386 494.898 566.305 493.598 566.305H482.635C481.335 566.305 480.294 567.387 480.294 568.685C480.257 570.019 481.335 571.029 482.635 571.029Z" fill="black"/>
<path d="M479.106 615.1C485.238 610.412 496.684 609.077 509.244 611.277C509.653 610.844 510.099 610.412 510.508 609.979C511.214 608.464 511.623 606.877 511.623 605.218V553.857C511.623 547.581 506.532 542.496 500.288 542.496H426.448C420.205 542.496 415.113 547.617 415.113 553.857V605.218C415.113 611.494 420.205 616.544 426.448 616.544H477.47C477.99 616.111 478.474 615.605 479.106 615.1ZM441.052 587.688C433.1 587.688 426.634 581.196 426.634 573.261C426.634 565.29 433.1 558.834 441.052 558.834C449.005 558.834 455.471 565.29 455.471 573.261C455.471 581.196 448.968 587.688 441.052 587.688ZM482.636 559.231H493.599C498.801 559.231 503.038 563.487 503.038 568.68C503.038 573.91 498.801 578.13 493.599 578.13H482.636C477.434 578.13 473.197 573.874 473.197 568.68C473.197 563.487 477.397 559.231 482.636 559.231ZM473.197 593.568C473.197 588.338 477.434 584.119 482.636 584.119H493.599C498.801 584.119 503.038 588.375 503.038 593.568C503.038 598.798 498.801 603.018 493.599 603.018H482.636C477.397 603.018 473.197 598.798 473.197 593.568Z" fill="black"/>
<path d="M637.266 415.465C635.036 413.337 632.993 410.921 631.023 408.36C619.726 443.057 595.051 467.8 558.037 481.866C599.695 469.603 624.966 447.998 637.266 415.465Z" fill="black"/>
<path d="M149.971 189.931C149.971 144.341 124.776 98.21 76.6141 98.21C52.5709 98.21 32.8743 105.712 19.5708 119.887C4.92872 135.541 -1.57465 158.48 0.321372 188.019C3.29431 234.547 44.6557 276.891 87.1311 276.891C90.8845 276.891 94.6378 276.53 98.317 275.881C123.141 271.336 149.971 237.18 149.971 189.931ZM28.5609 228.451C28.0778 228.668 27.5204 228.812 27.0373 228.812C25.6995 228.812 24.4359 228.055 23.8414 226.792C22.7637 224.556 21.7975 222.32 20.9056 220.084C20.1624 218.244 21.0543 216.188 22.8752 215.467C24.6961 214.782 26.74 215.611 27.4833 217.451C28.3008 219.507 29.2298 221.599 30.2332 223.69C31.0508 225.494 30.3075 227.622 28.5609 228.451ZM30.0474 138.138C29.8616 138.354 12.9157 159.201 21.5002 200.175C21.909 202.087 20.6826 203.998 18.7503 204.395C18.4901 204.431 18.2672 204.467 18.007 204.467C16.3719 204.467 14.8855 203.313 14.5138 201.618C5.149 156.966 23.8042 134.424 24.6218 133.486C25.8853 132.007 28.115 131.827 29.6015 133.089C31.1251 134.387 31.3109 136.659 30.0474 138.138Z" fill="black"/>
<path d="M564.175 201.334C598.921 218.214 627.981 248.403 642.957 282.559C650.278 277.257 658.528 274.227 667.261 274.227C676.997 274.227 686.473 278.015 694.723 284.94C688.592 241.695 670.16 192.967 604.718 164.112C605.275 167.538 605.759 170.604 606.167 173.309C606.427 175.257 605.127 177.024 603.194 177.349C586.881 179.91 571.161 181.208 556.52 181.208C497.135 181.208 467.109 160.397 455.221 149.179C420.215 157.475 392.938 176.482 373.614 194.48C409.661 174.787 474.026 157.403 564.175 201.334Z" fill="black"/>
<path d="M98.6081 272.2C98.3851 272.092 98.1621 271.984 97.9392 271.839C95.4122 276.564 92.3278 283.597 91.0642 289.08C94.7803 286.627 98.7195 284.319 99.3884 283.922C100.02 283.562 100.726 283.345 101.507 283.453L112.693 284.427C109.497 280.135 104.554 274.617 98.6081 272.2Z" fill="black"/>
<path d="M576.809 57.3116C547.822 79.349 502.263 84.1457 500.255 84.3627H499.921C499.846 84.3627 499.772 84.2906 499.698 84.2906L477.066 113.578C495.127 111.883 544.292 104.994 581.419 79.7459C579.858 72.0995 578.332 64.5617 576.809 57.3116Z" fill="black"/>
<path d="M570.939 28.9264C550.871 42.0193 534.743 43.4616 531.176 43.5696L505.831 76.3915C519.729 74.2274 553.993 67.3023 575.249 49.5205C573.689 42.1987 572.277 35.3103 570.939 28.9264Z" fill="black"/>
<path d="M564.841 0L537.304 35.6353C544.365 34.2647 556.108 30.6219 569.375 21.4602C567.48 12.5154 565.881 5.04974 564.841 0Z" fill="black"/>
<path d="M470.078 151.704C476.47 151.019 542.171 143.156 587.882 112.211C586.247 104.023 584.612 95.619 582.902 87.2517C537.602 116.791 478.816 120.831 471.158 121.228L456.479 140.236C458.634 142.58 463.017 146.943 470.078 151.704Z" fill="black"/>
<path d="M556.593 174.068C569.822 174.068 583.944 172.986 598.66 170.822C597.805 165.375 596.653 158.667 595.315 151.201C582.606 161.3 566.218 169.09 554.14 173.996C554.958 173.996 555.738 174.068 556.593 174.068Z" fill="black"/>
<path d="M536.082 173.089C539.612 171.935 573.987 160.537 593.831 143.153C592.493 135.867 590.969 127.968 589.371 119.744C550.649 144.956 500.926 154.549 480.005 157.616C492.827 164.324 511.072 170.745 536.082 173.089Z" fill="black"/>
<path d="M559.114 698.856C558.556 699.181 557.924 699.325 557.33 699.325C556.401 699.325 555.472 698.965 554.766 698.243C546.702 689.875 533.881 677.18 533.881 677.18L534.29 676.747C533.769 676.819 533.249 676.891 532.729 676.964C543.617 692.978 546.479 712.995 546.664 714.113C546.924 716.061 545.549 717.864 543.617 718.153C543.431 718.189 543.282 718.189 543.097 718.189C541.35 718.189 539.826 716.89 539.566 715.123C539.529 714.798 534.661 681.255 514.705 668.884C511.955 667.153 508.982 666.143 505.935 665.386C520.577 675.412 533.026 696.836 533.026 722.517C533.026 744.085 528.084 766.737 517.567 778.856C539.678 775.898 559.262 769.839 578.141 760.173V760.137C584.569 720.029 571.005 699.399 567.364 694.782C563.127 696.838 559.708 698.496 559.114 698.856Z" fill="black"/>
<path d="M483.311 770.988C487.993 777.119 493.456 780.582 499.365 780.618L500.182 780.546C505.088 780.257 509.547 777.372 513.337 772.394C510.662 772.791 507.838 773.008 504.939 773.008C497.061 773.08 488.922 771.961 483.311 770.988Z" fill="black"/>
<path d="M521.992 753.712C517.384 753.964 511.736 754.145 505.641 754.145C494.901 754.145 483.158 753.423 473.868 751.151C475.206 755.443 476.692 759.375 478.402 762.837C481.858 763.558 504.601 768.175 516.455 764.64C517.013 764.496 517.57 764.496 518.09 764.568C519.577 761.358 520.915 757.716 521.992 753.712Z" fill="black"/>
<path d="M578.892 657.953C575.139 660.73 571.237 663.291 567.186 665.563C574.172 670.468 581.753 679.99 583.537 682.262C584.206 683.128 584.429 684.21 584.206 685.256C583.946 686.338 583.24 687.204 582.274 687.636C579.821 688.827 576.885 690.197 573.95 691.604C579.078 698.673 590.45 719.16 585.841 756.022C595.243 750.684 604.533 744.444 613.935 737.122C628.874 725.4 636.865 704.697 639.057 672.56C633.965 673.714 628.28 674.58 622.111 674.58C608.621 674.58 593.236 670.613 578.892 657.953Z" fill="black"/>
<path d="M596.359 642.874C592.68 646.553 588.852 650.16 584.764 653.55C604.087 669.924 625.307 668.915 639.466 665.308C639.689 660.655 639.763 655.713 639.763 650.52C635.415 652.323 630.027 653.802 623.932 653.802C611.073 653.766 600.297 646.048 596.359 642.874Z" fill="black"/>
<path d="M668.86 535.028C673.84 535.028 679.377 527.094 679.377 515.769C679.377 504.444 673.84 496.545 668.86 496.545C663.88 496.545 658.38 504.444 658.38 515.769C658.343 527.094 663.88 535.028 668.86 535.028Z" fill="black"/>
<path d="M417.164 774.376C417.127 775.242 416.718 775.963 416.124 776.612C415.938 776.793 415.715 776.865 415.455 777.009C415.12 777.226 414.86 777.55 414.414 777.658C376.138 786.856 336.412 791.509 296.391 791.509C257.965 791.509 219.801 787.216 183.01 778.741C182.602 778.632 182.304 778.308 181.97 778.091C181.747 777.947 181.487 777.875 181.301 777.659C180.743 777.045 180.335 776.324 180.297 775.422L179.294 755.296C146.74 763.123 134.774 772.501 134.774 778.849C134.774 795.584 202.111 814.231 298.728 814.231C395.345 814.231 462.682 795.584 462.682 778.849C462.682 772.465 450.716 763.087 418.125 755.296L417.164 774.376Z" fill="black"/>
<path d="M476.918 663.003C476.621 662.065 476.36 661.055 476.137 659.973C473.908 660.118 471.715 660.262 469.523 660.262C450.459 660.262 433.327 656.006 424.408 653.373C424.854 654.599 425.3 655.79 425.597 657.052C431.209 679.594 430.949 698.746 424.966 707.258C423.479 709.386 421.807 710.541 420.283 711.19L418.797 741.631V741.667L418.574 746.248C427.195 744.445 446.445 741.018 464.209 742.1C463.131 736.69 462.276 730.956 461.83 724.86C459.712 697.773 463.949 676.348 473.425 666.105C474.54 664.915 475.691 663.905 476.918 663.003Z" fill="black"/>
<path d="M523.705 746.501C524.522 742.317 525.117 737.88 525.489 733.228C521.141 733.985 516.495 734.418 511.665 734.418C495.425 734.418 477.884 731.064 469.486 729.224C470.043 734.166 470.787 738.855 471.79 743.254C486.209 748.123 512.78 747.15 523.705 746.501Z" fill="black"/>
<path d="M525.817 726.012C525.854 724.858 525.891 723.667 525.891 722.513C525.891 718.546 525.557 714.686 524.925 710.935C520.242 711.909 515.189 712.45 509.986 712.45C493.115 712.45 475.611 708.374 468.513 706.535C468.29 711.332 468.402 716.454 468.736 721.719C477.432 723.667 507.05 729.763 525.817 726.012Z" fill="black"/>
<path d="M689.257 300.593C670.676 300.593 655.551 323.388 655.551 351.376C655.551 379.365 670.675 402.16 689.257 402.16C707.875 402.16 723 379.365 723 351.376C723 323.388 707.876 300.593 689.257 300.593Z" fill="black"/>
<path d="M648.454 351.376C648.454 319.421 666.775 293.452 689.258 293.452C690.819 293.452 692.379 293.596 693.903 293.848C691.153 290.999 688.18 288.619 685.096 286.707C664.322 286.707 638.941 316.535 638.941 351.377C638.941 373.594 649.197 397.832 663.839 410.312C668.336 414.135 675.285 418.319 682.829 417.309C686.768 415.217 690.484 412.403 693.94 408.869C692.417 409.121 690.856 409.266 689.258 409.266C666.775 409.266 648.454 383.296 648.454 351.376Z" fill="black"/>
<path d="M462.648 791.578C440.276 810.983 367.774 821.298 298.732 821.298C229.611 821.298 157.068 810.947 134.778 791.506V795.546C134.741 812.353 202.078 831 298.694 831C395.017 831 462.239 812.461 462.648 795.726V791.578Z" fill="black"/>
<path d="M646.076 673.825C657.447 673.933 666.292 669.713 671.122 661.417C676.325 652.4 675.359 641.904 671.791 636.602C668.261 632.526 664.062 630.11 659.528 629.785C653.805 629.353 648.825 632.31 646.632 633.861C646.707 635.34 646.707 636.819 646.744 638.261C651.575 634.366 655.848 633.897 658.635 634.33C662.426 634.871 665.845 637.179 668.26 640.822C670.044 643.527 670.601 647.098 669.821 650.922C668.632 656.476 664.841 661.742 659.565 665.097C659.416 665.169 654.288 668.054 646.298 670.651C646.261 671.697 646.15 672.707 646.076 673.825Z" fill="black"/>
<path d="M631.844 351.376C631.844 320.575 650.945 290.349 673.168 281.946C671.236 281.585 669.266 281.297 667.296 281.297C652.841 281.297 639.908 291.107 631.324 306.473C631.324 306.509 631.287 306.545 631.287 306.545C624.487 318.699 620.399 334.317 620.399 351.341C620.399 389.97 641.432 421.385 667.297 421.385C667.483 421.385 667.669 421.349 667.892 421.313C664.993 419.87 662.095 418.067 659.27 415.65C643.105 402.016 631.844 375.541 631.844 351.376Z" fill="black"/>
<path d="M662.876 649.402C663.285 647.527 663.099 645.832 662.356 644.714C661.613 643.632 660.015 641.684 657.636 641.359C655.109 640.962 652.545 642.586 650.873 644.028C650.501 644.353 649.052 645.471 646.934 646.842C646.971 652.612 646.897 657.95 646.711 663.072C652.248 661.052 655.704 659.105 655.778 659.032C659.383 656.724 662.133 653.045 662.876 649.402Z" fill="black"/>
<path d="M639.977 460.303C641.613 474.802 641.687 475.956 639.829 476.93C635.407 480.826 629.981 484.649 624.11 488.4C630.353 503.079 640.015 532.186 643.248 577.487L643.768 584.484C644.772 598.226 645.701 612.257 646.295 625.71C649.714 623.906 654.508 622.211 659.971 622.608C666.474 623.041 672.346 626.287 677.436 632.238C683.382 641.039 683.196 654.673 677.25 664.952C673.646 671.156 665.024 681.147 646.778 681.147C646.369 681.147 645.923 681.11 645.515 681.074C645.069 685.439 644.511 689.622 643.805 693.554C655.623 695.79 665.062 693.951 672.494 687.783C696.574 667.693 695.868 605.765 695.237 551.194C695.162 544.197 695.088 537.272 695.051 530.527C694.902 491.61 679.443 467.227 646.591 453.738C644.51 455.938 642.282 458.139 639.977 460.303ZM668.853 489.445C678.738 489.445 686.468 501.023 686.468 515.775C686.468 530.563 678.738 542.105 668.853 542.105C658.967 542.105 651.238 530.527 651.238 515.775C651.238 500.987 658.967 489.445 668.853 489.445Z" fill="black"/>
<path d="M537.452 494.198C604.008 489.51 634.926 459.861 659.309 427.581C653.549 426.355 648.049 423.83 643.032 420.187C627.35 459.321 593.978 483.054 537.452 494.198Z" fill="black"/>
<path d="M303.413 594.002H293.788V656.796H303.413V594.002Z" fill="black"/>
<path d="M347.146 581.158H354.318V633.601H347.146V581.158Z" fill="black"/>
<path d="M353.092 549.894C354.95 550.507 355.953 552.563 355.321 554.403C355.284 554.475 354.355 557.288 353.76 561.292C357.179 560.642 358.145 559.128 358.48 558.514C361.304 553.357 356.77 541.779 352.088 533.231C341.348 550.038 341.682 556.458 342.909 558.802C343.504 559.921 344.767 560.678 346.588 561.111C347.294 555.989 348.483 552.382 348.595 552.094C349.227 550.254 351.233 549.245 353.092 549.894Z" fill="black"/>
<path d="M382.45 621.019C382.561 601.326 384.605 577.809 386.723 558.838C386.538 558.802 386.389 558.802 386.203 558.766C385.831 558.657 378.511 556.601 366.21 551.48C366.656 555.303 366.358 558.982 364.723 561.939C363.237 564.681 359.892 567.746 353.204 568.468C353.241 570.307 353.464 572.219 353.835 574.094H357.849C359.818 574.094 361.416 575.681 361.416 577.629V615.789C368.291 617.051 375.464 618.747 382.45 621.019Z" fill="black"/>
<path d="M523.001 606.375C522.072 607.601 521.068 608.719 520.102 609.909C530.916 614.598 558.491 629.386 563.433 659.431C565.365 658.349 567.223 657.195 569.044 656.004C562.058 618.386 529.838 608.106 523.001 606.375Z" fill="black"/>
<path d="M296.496 562.332C296.236 560.384 297.611 558.581 299.581 558.364C301.588 558.148 303.297 559.482 303.557 561.43C303.594 561.754 304.077 565.794 304.152 571.456C306.902 570.483 307.905 569.004 308.239 568.354C311.733 561.898 305.935 547.399 300.213 537.192C287.541 556.741 286.983 565.108 288.841 568.715C289.956 570.88 292.743 571.998 297.017 572.25C296.98 566.515 296.496 562.368 296.496 562.332Z" fill="black"/>
<path d="M633.518 466.074C608.62 486.993 574.505 502.069 519.281 502.069C497.022 502.069 471.268 499.544 441.39 494.098C431.728 492.836 421.546 490.852 411.14 487.822C409.059 487.317 407.053 486.92 404.971 486.416C404.154 486.235 403.559 485.766 403.076 485.153C389.884 480.681 376.692 474.55 364.205 466.506L364.8 472.313C370.857 478.301 414.745 516.929 528.421 510.762C568.258 510.762 612.109 491.213 634.143 472.386C633.995 470.871 633.741 468.418 633.518 466.074Z" fill="black"/>
<path d="M276.87 420.045C275.681 415.32 273.488 405.402 273.86 397.864C274.157 391.913 270.478 386.971 266.985 386.286C263.752 385.673 261.82 389.46 261.002 391.804C257.806 400.785 257.249 402.697 257.211 402.877C256.877 404.031 255.948 404.933 254.796 405.294C253.644 405.654 252.38 405.366 251.451 404.572C246.843 400.641 233.019 388.739 219.679 390.073C213.77 390.686 208.753 393.824 204.256 399.704C200.763 404.248 199.425 414.6 203.55 425.492C207.304 435.339 218.526 452.615 250.634 459.649C254.276 447.025 262.452 428.629 276.87 420.045Z" fill="black"/>
<path d="M293.148 426.896C290.769 425.85 288.391 424.804 285.79 423.65C265.611 430.287 256.655 461.45 255.54 469.997C258.141 472.414 260.668 474.614 263.232 476.886C266.131 466.463 274.604 441.72 293.148 426.896Z" fill="black"/>
<path d="M348.192 526.192C348.675 525.471 349.01 524.966 349.195 524.677C349.827 523.631 350.942 522.982 352.168 522.946C353.32 522.874 354.547 523.559 355.216 524.569C356.145 526.012 361.087 534.018 364.097 542.82C376.806 548.374 385.354 551.079 387.546 551.728C389.404 535.858 391.076 524.641 391.113 524.389C391.411 522.442 393.194 520.999 395.164 521.36C397.096 521.648 398.434 523.452 398.137 525.399C398.025 526.012 389.441 584.046 389.553 623.467C401.853 628.264 412.927 635.009 419.728 644.458C419.951 644.494 420.137 644.458 420.36 644.566C420.583 644.639 433.218 649.183 450.238 651.6C450.201 642.619 450.312 633.205 450.461 623.683H426.455C416.272 623.683 408.022 615.388 408.022 605.217V553.856C408.022 543.685 416.309 535.389 426.455 535.389H453.88C454.437 525.363 454.883 518.185 455.069 515.299C385.614 505.741 360.083 477.753 358.746 476.237C358.263 475.696 357.965 475.011 357.891 474.29L356.665 462.46C356.628 462.099 356.702 461.739 356.776 461.378C355.884 460.729 355.03 460.007 354.175 459.358C349.641 465.958 346.594 475.3 346.557 475.408C346.074 476.923 344.699 477.861 343.175 477.861C342.803 477.861 342.432 477.825 342.06 477.717C340.202 477.104 339.161 475.12 339.756 473.244C339.905 472.739 343.249 462.569 348.526 455.03C347.003 453.731 345.553 452.252 344.067 450.918C338.753 458.925 334.702 469.097 334.665 469.205C334.108 470.611 332.77 471.441 331.358 471.441C330.912 471.441 330.466 471.369 330.057 471.224C328.236 470.503 327.307 468.447 328.05 466.608C328.236 466.103 332.324 455.859 337.935 447.275C332.25 444.858 326.303 442.117 319.131 438.763C313.817 436.31 307.723 433.461 300.662 430.251C278.96 445.111 270.598 476.562 269.26 482.189C285.054 495.678 300.216 506.606 313.891 515.443C315.675 510.61 319.057 501.881 321.695 497.698C322.736 496.039 324.928 495.534 326.601 496.616C328.273 497.662 328.756 499.862 327.715 501.521C325.337 505.272 321.807 514.433 320.023 519.375C328.83 524.857 336.82 529.365 343.844 533.009C345.293 530.628 346.78 528.32 348.192 526.192Z" fill="black"/>
<path d="M244.173 552.812C244.396 550.864 246.254 549.458 248.149 549.71C250.081 549.963 251.493 551.766 251.233 553.678C251.01 555.337 250.713 558.078 250.453 561.108C253.129 560.386 253.946 559.016 254.243 558.475C257.068 553.317 252.534 541.739 247.852 533.191C237.112 549.998 237.446 556.418 238.673 558.763C239.379 560.061 240.94 560.927 243.318 561.323C243.652 557.14 244.061 553.605 244.173 552.812Z" fill="black"/>
<path d="M186.236 680.316L182.743 679.666C183.672 674.725 185.827 663.075 199.986 663.977C211.581 664.662 213.736 676.853 215.185 684.932L216.003 689.333C217.452 696.943 218.381 700.297 225.219 700.297C230.162 700.225 233.172 696.582 237.594 690.631C242.239 684.427 248 676.745 258.814 676.06C272.489 674.978 280.404 693.3 283.155 701.126C286.053 709.278 289.621 709.278 293.448 709.278C298.168 709.278 299.766 706.573 302.887 700.441C304.002 698.277 305.154 696.041 306.603 693.805C312.289 685.004 316.711 679.233 325.556 678.836C336.779 678.403 340.83 684.066 345.661 690.666C346.404 691.676 347.184 692.758 348.039 693.876C352.238 699.322 355.583 703.687 357.032 703.687C360.748 703.687 363.089 697.844 364.167 694.381C366.062 688.214 368.404 680.567 374.015 679.233C376.988 678.512 380.11 679.774 383.157 683.02C387.319 687.42 390.292 688.502 390.961 688.322C391.035 688.322 391.444 687.889 391.779 686.807C394.937 676.204 398.951 672.524 405.677 673.606C413.109 674.833 413.852 684.607 414.484 693.227C414.781 696.942 415.302 703.903 416.639 704.949C417.123 704.805 418.014 704.733 419.129 703.146C422.92 697.808 424.369 681.649 418.721 658.999C413.444 637.611 385.535 627.656 361.38 622.932V637.107C361.38 639.054 359.783 640.641 357.813 640.641H343.543C341.573 640.641 339.975 639.054 339.975 637.107V619.902C330.908 618.928 321.023 618.315 310.469 618.099V660.334C310.469 662.282 308.871 663.869 306.901 663.869H290.141C288.172 663.869 286.574 662.282 286.574 660.334V617.991C278.696 617.991 268.364 618.099 257.104 618.784V637.107C257.104 639.055 255.506 640.642 253.537 640.642H239.266C237.297 640.642 235.699 639.055 235.699 637.107V620.949C212.919 624.159 195.899 630.182 185.159 638.838C185.122 638.874 173.713 648.901 173.453 664.086C173.378 667.332 173.23 670.542 173.118 673.607C172.747 681.47 172.338 690.415 174.493 692.651C174.642 692.796 174.902 693.084 175.831 693.084C179.882 692.579 181.368 686.448 182.446 680.749L186.236 680.316Z" fill="black"/>
<path d="M186.017 746.962L187.281 772.39C259.672 788.657 337.821 788.333 410.218 771.308L411.481 745.916C374.171 754.645 335.522 759.189 296.426 759.189C259.041 759.225 221.948 755.005 186.017 746.962Z" fill="black"/>
<path d="M407.461 693.806C407.163 689.946 406.494 680.966 404.562 680.641C403.038 680.352 401.217 680.136 398.616 688.864C397.278 693.301 394.64 694.779 392.67 695.284C387.467 696.583 381.856 691.966 378.065 687.963C376.43 686.231 375.687 686.195 375.65 686.195C374.015 686.736 371.748 694.094 371.004 696.511C367.363 708.377 361.417 710.83 357.069 710.83C352.127 710.83 349.08 706.898 342.427 698.278C341.535 697.124 340.718 695.97 339.937 694.924C335.441 688.756 333.248 685.51 325.89 685.979C320.873 686.195 318.16 689.081 312.586 697.737C311.286 699.756 310.245 701.776 309.242 703.724C306.195 709.711 302.739 716.456 293.448 716.456C289.1 716.456 280.998 716.456 276.427 703.544C272.86 693.408 266.319 682.769 259.221 683.202C251.677 683.671 247.589 689.153 243.242 694.96C238.894 700.767 233.951 707.367 225.181 707.439C212.138 707.439 210.28 697.737 208.942 690.668L208.124 686.159C206.638 677.828 205.077 671.407 199.503 671.083C192.294 670.65 190.881 674.906 189.73 680.966L189.507 682.12C188.801 685.943 187.463 692.543 183.412 696.691L183.933 706.935C257.215 723.922 336.299 723.778 409.619 706.682C408.281 703.328 407.832 698.855 407.461 693.806Z" fill="black"/>
<path d="M242.907 581.158H250.08V633.601H242.907V581.158Z" fill="black"/>
<path d="M412.369 727.526L413.076 713.315C338.9 730.953 258.702 731.277 184.383 714.397L185.646 739.681C259.338 756.488 338.717 756.091 411.808 738.599L412.369 727.526Z" fill="black"/>
<path d="M174.382 452.944C139.079 432.566 118.528 399.564 119.383 364.685C120.09 336.877 100.579 292.514 100.394 292.045L102.921 289.376L107.826 291.107C108.681 293.055 127.188 335.506 126.481 364.866C125.663 397.111 144.913 427.804 177.95 446.848L174.382 452.944Z" fill="black"/>
</svg>
