<svg width="826" height="761" viewBox="0 0 826 761" fill="none" xmlns="http://www.w3.org/2000/svg">
<path d="M688.255 217.412C688.255 217.412 688.255 284.019 619.383 312.54C688.255 341.06 688.255 407.668 688.255 407.668C688.255 407.668 688.255 341.06 757.127 312.54C688.255 284.019 688.255 217.412 688.255 217.412Z" fill="black"/>
<path d="M564.286 570.744C564.286 570.744 564.286 637.352 495.414 665.872C564.286 694.392 564.286 761 564.286 761C564.286 761 564.286 694.392 633.158 665.872C564.286 637.352 564.286 570.744 564.286 570.744Z" fill="black"/>
<path d="M109.731 421.258C109.731 421.258 109.731 487.865 40.8589 516.385C109.731 544.905 109.731 611.513 109.731 611.513C109.731 611.513 109.731 544.905 178.603 516.385C109.731 487.865 109.731 421.258 109.731 421.258Z" fill="black"/>
<path d="M757.127 0C734.675 0 714.978 10.7356 702.443 27.1794H40.8589C-13.6804 28.5264 -13.5593 107.296 40.8605 108.718H95.9565V398.042C113.33 387.264 137.823 400.764 137.28 421.281C137.28 423.047 138.795 470.475 189.209 491.267C199.54 495.616 206.152 505.4 206.152 516.409C206.152 527.28 199.54 537.2 189.209 541.413C168.548 550.111 156.151 563.156 148.575 575.796L376.955 744.715C379.434 746.482 382.327 747.433 385.219 747.433C388.112 747.433 391.005 746.482 393.484 744.715L475.304 684.105C462.253 671.148 467.427 647.425 484.809 640.754C535.222 619.962 536.737 572.533 536.737 570.495C538.182 535.091 590.878 535.197 591.835 570.768C591.835 571.447 592.248 581.503 597.069 594.005L668.972 540.87C672.415 538.288 674.481 534.211 674.481 529.998V430.929C666.355 426.309 660.845 417.883 660.707 407.826C660.707 405.516 658.916 358.36 608.778 337.568C598.447 333.355 591.835 323.435 591.835 312.563C591.835 301.555 598.447 291.771 608.778 287.422C659.192 266.63 660.707 219.201 660.707 217.163C660.845 207.378 666.492 198.817 674.481 194.197V108.718H702.443C740.923 160.457 826.262 132.773 825.999 67.947C825.999 30.4409 795.145 0 757.127 0ZM465.386 416.388L467.865 502.819L385.219 473.873L302.572 502.819L305.052 416.388L251.607 347.896L335.631 323.435L385.219 252.089L434.807 323.435L518.831 347.896L465.386 416.388ZM536.737 163.076H137.28C119.321 162.774 119.076 136.25 137.28 135.897H536.737C554.696 136.198 554.942 162.723 536.737 163.076ZM633.158 163.076H591.835C573.752 162.737 573.732 136.238 591.835 135.897H633.158C651.241 136.235 651.261 162.735 633.158 163.076ZM689.633 81.5382H40.8589C33.2831 81.5382 27.0845 75.4227 27.0845 67.9485C27.0845 64.279 28.4625 61.0176 31.3545 58.2995C33.8338 55.7175 37.1403 54.3588 40.8589 54.3588H689.633C687.839 63.0638 687.839 72.8314 689.633 81.5382Z" fill="black"/>
</svg>
