<svg width="653" height="826" viewBox="0 0 653 826" fill="none" xmlns="http://www.w3.org/2000/svg">
<path d="M30.8112 2.97299C40.311 -0.616475 50.8544 0.0815425 60.9505 0.0150079C241.632 0.114716 422.361 0.0482496 603.043 0.0150079C615.374 -0.284109 627.593 3.90354 636.758 11.1821C646.221 18.8594 651.883 29.9267 652.927 41.2265C654.007 58.1435 643.054 75.0604 626.103 82.7043C617.237 86.9251 606.992 87.7228 597.119 87.2907C597.156 106.567 597.119 125.81 597.119 145.087C597.305 180.683 587.246 215.879 571.302 248.352C547.645 294.749 507.708 334.03 459.317 360.95C445.011 369.259 429.587 375.84 414.052 382.155C400.939 387.14 391.699 398.805 389.762 411.269C389.799 425.793 400.566 440.018 415.989 445.003C475.336 467.105 526.859 506.289 558.894 556.206C575.92 581.431 587.17 609.581 592.833 638.563C599.651 671.4 596.111 704.901 597.006 738.101C609.635 737.403 622.785 739.597 632.919 746.643C646.293 755.085 653.632 770.04 652.701 784.498C651.322 800.85 639.401 816.703 622.041 822.719C612.019 826.574 600.955 825.942 590.337 825.909C412.04 825.909 233.695 825.876 55.3979 825.942C45.2647 826.275 34.8339 825.244 25.7803 820.857C6.78037 812.183 -3.42726 791.544 1.04281 773.098C4.47027 758.707 16.2431 745.978 31.6657 740.66C39.3773 737.935 47.7596 738.3 55.8815 738.234C55.8442 718.492 55.7325 698.784 55.7325 679.042C56.4776 645.74 64.3755 612.472 79.6497 582.031C108.746 523.902 161.535 474.912 227.066 449.157C237.162 445.136 248.264 441.48 255.044 433.204C260.483 426.358 264.432 417.916 263.128 409.407C261.675 402.993 257.875 397.21 253.405 392.091C246.811 384.946 236.864 381.522 227.774 377.634C169.769 354.004 120.738 313.257 90.2671 263.275C69.6649 229.507 57.7063 191.519 55.918 153.101C55.5455 131.166 55.9553 109.231 55.6573 87.2617C44.5179 87.8599 32.8949 86.7299 23.3206 81.2793C7.63671 72.771 -1.41691 55.8208 0.259726 39.6024C2.30869 23.8153 13.895 8.69357 30.771 2.91051M86.3545 87.2291C86.0565 105.409 86.28 123.588 86.0937 141.802C86.9506 174.273 93.3211 207.143 109.378 236.558C124.95 266.603 147.489 293.79 175.579 315.492C197.634 333.24 223.488 346.667 250.348 357.801C265.436 363.75 278.997 373.621 286.82 386.716C297.028 404.796 295.314 427.362 283.803 444.612C275.681 456.41 262.27 464.287 248.262 469.605C222.779 479.509 199.16 493.036 177.888 508.989C134.673 542.058 102.522 587.491 91.6433 637.642C83.4473 670.612 86.8374 704.512 86.2414 738.014C246.475 738.047 406.709 738.114 566.933 737.948C566.933 719.369 567.008 700.824 566.97 682.245C566.747 626.709 542.643 571.408 500.024 530.789C477.858 507.824 449.694 490.076 419.853 475.885C404.691 468.473 386.995 464.053 375.222 452.121C354.285 430.685 354.732 395.255 376.228 374.218C390.348 359.395 412.551 354.941 430.359 344.871C467.726 325.495 501.813 299.804 525.209 267.1C541.936 244.268 554.044 218.776 560.638 192.155C569.988 158.022 566.263 122.659 566.859 87.8943C562.5 86.3987 556.986 87.6284 552.218 87.2296C396.905 87.1964 241.592 87.2296 86.3083 87.1964L86.3545 87.2291Z" fill="black"/>
<path d="M465.276 116.272C467.996 116.006 471.572 115.374 473.659 117.435C479.023 123.65 480.178 131.958 485.543 138.107C492.584 143.292 502.419 144.023 509.683 148.942C512.962 151.268 512.254 156.32 509.05 158.48C501.562 163.565 491.615 165.061 484.76 170.91C480.364 176.76 478.836 183.938 474.515 189.821C472.392 192.846 466.878 192.713 463.897 191.051C458.197 184.869 456.893 176.394 451.417 170.113C444.115 165.527 435.174 163.366 428.133 158.414C424.333 156.121 425.488 150.803 429.102 148.909C436.18 144.655 444.785 142.827 451.752 138.34C457.862 131.892 458.16 122.155 465.239 116.305L465.276 116.272Z" fill="black"/>
<path d="M174.279 121.291C176.216 119.297 179.979 120.062 182.139 121.391C186.573 126.077 187.951 132.292 191.378 137.477C196.594 142.063 204.455 142.894 210.378 146.517C213.843 148.71 212.725 153.862 209.112 155.391C203.896 157.917 198.085 159.512 193.167 162.537C187.578 167.356 187.914 176.429 180.985 180.052C172.267 182.212 170.293 172.607 167.275 167.589C164.407 160.576 155.168 159.546 148.797 156.122C145.22 154.793 142.352 150.24 145.332 147.382C150.622 142.828 158.557 142.164 164.369 138.342C169.063 133.39 169.436 126.177 174.279 121.259L174.279 121.291Z" fill="black"/>
<path d="M181.317 208.765C207.358 205.275 233.623 210.826 258.509 217.505C293.081 227.077 325.232 242.465 360.099 251.273C388.636 258.784 418.625 262.074 448.317 260.18C465.045 259.084 481.735 256.126 497.121 250.077C500.996 248.116 507.44 248.88 507.031 253.899C504.721 259.981 500.139 265.033 496.004 270.218C472.869 297.106 441.166 316.98 407.786 332.633C391.543 340.477 373.884 347.024 360.994 359.189C347.881 371.686 337.3 387.505 335.81 404.854C334.395 410.67 326.125 413.795 320.648 410.205C314.837 407.114 316.699 400.334 315.135 395.382C309.211 373.38 291.589 354.469 269.349 343.9C256.868 337.619 243.606 332.567 231.274 326.052C206.873 313.522 184.333 297.836 165.558 279.025C154.754 267.492 144.099 254.563 142.012 239.209C140.82 231.664 144.359 223.721 151.251 219.134C159.894 213.218 170.699 210.293 181.353 208.798L181.317 208.765Z" fill="black"/>
<path d="M319.949 436.395C328.518 432.573 340.364 438.256 340.775 446.964C341.669 457.334 325.537 465.077 317.043 457.167C308.959 451.75 310.747 439.885 319.949 436.395Z" fill="black"/>
<path d="M319.949 484.883C329.077 480.264 341.445 488.008 340.513 497.114C340.103 504.094 332.243 509.212 324.829 509.146C318.273 508.381 312.61 503.263 311.753 497.414C311.38 492.295 314.92 487.31 319.949 484.883Z" fill="black"/>
<path d="M319.949 533.576C329.859 528.259 343.27 537.731 340.626 547.502C338.912 556.741 324.457 561.627 316.857 554.681C308.81 549.13 311.045 537.299 319.949 533.576Z" fill="black"/>
<path d="M212.542 535.303C215.075 533.476 219.397 533.708 221.855 535.669C227.294 542.117 228.971 550.393 234.15 557.006C240.93 562.457 250.691 563.454 257.844 568.439C260.303 570.733 260.377 574.821 257.62 576.981C250.058 581.867 240.557 583.927 233.218 589.046C228.711 594.762 227.295 601.941 222.899 607.757C220.366 610.815 214.182 611.38 211.425 608.289C206.135 602.572 205.39 594.629 200.36 588.812C193.692 584.06 185.272 581.999 178.268 577.811C174.543 575.518 173.798 569.802 177.784 567.408C184.788 563.121 193.505 561.459 200.099 556.541C205.613 550.159 206.917 541.585 212.579 535.336L212.542 535.303Z" fill="black"/>
<path d="M436.407 561.058C438.307 558.997 442.107 559.828 444.268 561.191C450.564 567.173 449.968 578.54 460.026 581.232C465.279 583.791 474.555 584.589 474.295 591.535C470.197 598.581 458.834 598.115 453.246 603.832C449.894 608.618 448.515 614.368 444.529 618.788C442.592 620.915 438.084 621.247 436.072 619.02C432.16 614.5 430.782 608.684 427.317 603.932C421.99 597.75 410.627 598.78 406.232 591.801C405.524 584.755 415.135 583.924 420.277 581.232C430.522 578.506 430.335 567.373 436.407 561.058Z" fill="black"/>
<path d="M321.809 580.738C328.254 578.91 335.63 581.535 338.983 586.787C353.55 608.688 377.02 624.31 401.311 636.905C445.197 659.804 490.982 679.746 534.793 702.844C539.151 705.204 545.149 708.96 542.542 714.278C540.865 718.864 534.718 718.299 530.434 718.432C393.376 718.432 256.355 718.366 119.297 718.432C114.491 718.997 109.648 715.873 109.648 711.419C110.989 706.899 115.87 704.44 119.967 702.147C161.767 680.112 205.354 660.868 247.231 638.933C269.286 627.035 292.048 614.505 307.136 595.328C311.607 590.243 314.55 583.164 321.852 580.772L321.809 580.738Z" fill="black"/>
</svg>
