<svg width="743" height="689" viewBox="0 0 743 689" fill="none" xmlns="http://www.w3.org/2000/svg">
<path fill-rule="evenodd" clip-rule="evenodd" d="M448.498 17.5888C481.069 20.3761 510.527 38.4994 526.782 65.7511L729.652 405.87C756.174 450.335 740.267 505.416 694.121 528.894L401.236 677.909C355.09 701.389 296.181 684.375 269.658 639.908L225.826 566.423C230.183 565.058 234.881 564.488 239.688 564.832L299.485 569.125C327.454 571.134 352.48 554.63 359.777 529.363C367.074 504.096 354.702 476.79 329.969 463.578L277.09 435.329C264.862 428.796 257.436 416.345 257.991 403.308L260.393 346.933C261.518 320.565 243.14 296.315 216.116 288.51C189.092 280.705 160.615 291.422 147.508 314.33L119.484 363.306C117.23 367.242 114.198 370.606 110.621 373.277L66.7881 299.791C50.5333 272.539 49.6881 239.859 64.5412 212.941L156.274 46.711C173.619 15.2798 209.312 -2.88028 247.347 0.374709L448.498 17.5888ZM265.258 129.915C294.073 115.255 330.857 125.878 347.418 153.644C363.98 181.409 354.047 215.803 325.232 230.464C296.417 245.125 259.633 234.501 243.071 206.735C226.51 178.969 236.443 144.575 265.258 129.915Z" fill="black"/>
<path d="M206.416 321.374C195.619 318.256 184.242 322.535 179.007 331.684L151.02 380.586C138.076 403.205 112.266 416.332 84.6411 414.346L24.916 410.055C13.7428 409.252 3.74499 415.844 0.830396 425.935C-2.0842 436.027 2.85982 446.934 12.7407 452.212L65.5572 480.424C89.987 493.473 104.824 518.339 103.716 544.376L101.321 600.669C100.872 611.2 108.216 620.887 119.012 624.005C129.809 627.123 141.186 622.843 146.421 613.695L174.408 564.793C187.352 542.174 213.162 529.047 240.787 531.032L300.512 535.324C311.685 536.127 321.683 529.535 324.598 519.443C327.512 509.352 322.568 498.445 312.687 493.167L259.871 464.955C235.441 451.906 220.604 427.04 221.713 401.003L224.108 344.71C224.556 334.179 217.212 324.492 206.416 321.374Z" fill="black"/>
</svg>
