<svg width="565" height="819" viewBox="0 0 565 819" fill="none" xmlns="http://www.w3.org/2000/svg">
<path d="M565 257.194V175.5H0V687.375H565V400.931L365.608 566.09C362.287 568.791 357.813 570.297 353.158 570.28C348.504 570.262 344.046 568.723 340.755 565.997C337.463 563.27 335.605 559.578 335.584 555.723C335.563 551.867 337.381 548.161 340.642 545.41L565 359.569V298.556L383.264 449.09C379.943 451.791 375.469 453.297 370.814 453.28C366.16 453.262 361.702 451.723 358.411 448.997C355.12 446.27 353.261 442.578 353.24 438.723C353.219 434.867 355.037 431.161 358.298 428.41L565 257.194ZM194.219 292.5C180.175 292.513 166.711 297.139 156.781 305.365C146.851 313.59 141.265 324.743 141.25 336.375C141.25 340.254 139.39 343.974 136.079 346.716C132.767 349.459 128.276 351 123.594 351C118.911 351 114.42 349.459 111.109 346.716C107.798 343.974 105.938 340.254 105.938 336.375C105.922 324.743 100.337 313.59 90.4064 305.365C80.4761 297.139 67.0122 292.513 52.9688 292.5C48.286 292.5 43.7951 290.959 40.4839 288.216C37.1727 285.474 35.3125 281.754 35.3125 277.875C35.3125 273.996 37.1727 270.276 40.4839 267.534C43.7951 264.791 48.286 263.25 52.9688 263.25C67.0122 263.237 80.4761 258.611 90.4064 250.385C100.337 242.16 105.922 231.007 105.938 219.375C105.938 215.496 107.798 211.776 111.109 209.034C114.42 206.291 118.911 204.75 123.594 204.75C128.276 204.75 132.767 206.291 136.079 209.034C139.39 211.776 141.25 215.496 141.25 219.375C141.265 231.007 146.851 242.16 156.781 250.385C166.711 258.611 180.175 263.237 194.219 263.25C198.901 263.25 203.392 264.791 206.704 267.534C210.015 270.276 211.875 273.996 211.875 277.875C211.875 281.754 210.015 285.474 206.704 288.216C203.392 290.959 198.901 292.5 194.219 292.5ZM312.639 609.965L277.327 639.215C274.006 641.916 269.531 643.422 264.877 643.405C260.222 643.387 255.765 641.848 252.473 639.122C249.182 636.395 247.324 632.703 247.303 628.848C247.282 624.992 249.099 621.286 252.361 618.535L287.673 589.285C290.994 586.584 295.469 585.078 300.123 585.095C304.778 585.113 309.235 586.652 312.527 589.378C315.818 592.104 317.676 595.797 317.697 599.652C317.718 603.508 315.901 607.214 312.639 609.965ZM330.295 492.965L294.983 522.215C293.349 523.593 291.402 524.689 289.254 525.441C287.105 526.192 284.799 526.583 282.467 526.592C280.135 526.601 277.824 526.227 275.668 525.492C273.512 524.756 271.552 523.675 269.903 522.309C268.255 520.943 266.949 519.32 266.061 517.534C265.174 515.748 264.722 513.834 264.733 511.902C264.743 509.971 265.216 508.06 266.123 506.281C267.03 504.501 268.353 502.888 270.017 501.535L305.33 472.285C308.65 469.584 313.125 468.078 317.779 468.095C322.434 468.113 326.892 469.652 330.183 472.378C333.474 475.105 335.332 478.797 335.354 482.652C335.375 486.508 333.557 490.214 330.295 492.965Z" fill="black"/>
<path d="M123.594 292.543C133.374 292.543 141.302 285.976 141.302 277.875C141.302 269.774 133.374 263.207 123.594 263.207C113.814 263.207 105.886 269.774 105.886 277.875C105.886 285.976 113.814 292.543 123.594 292.543Z" fill="black"/>
<path d="M52.9688 819H512.031C526.075 818.987 539.539 814.361 549.469 806.135C559.399 797.91 564.985 786.757 565 775.125V716.625H0V775.125C0.0153291 786.757 5.60087 797.91 15.5311 806.135C25.4614 814.361 38.9253 818.987 52.9688 819ZM247.188 745.875H317.813C322.495 745.875 326.986 747.416 330.297 750.159C333.609 752.901 335.469 756.621 335.469 760.5C335.469 764.379 333.609 768.099 330.297 770.841C326.986 773.584 322.495 775.125 317.813 775.125H247.188C242.505 775.125 238.014 773.584 234.703 770.841C231.391 768.099 229.531 764.379 229.531 760.5C229.531 756.621 231.391 752.901 234.703 750.159C238.014 747.416 242.505 745.875 247.188 745.875Z" fill="black"/>
<path d="M565 43.875C564.985 32.2425 559.399 21.0901 549.469 12.8647C539.539 4.63931 526.075 0.0126974 512.031 0H52.9688C38.9253 0.0126974 25.4614 4.63931 15.5311 12.8647C5.60087 21.0901 0.0153291 32.2425 0 43.875V146.25H565V43.875ZM353.125 117H211.875C197.827 117 184.354 112.377 174.42 104.149C164.487 95.9212 158.906 84.7614 158.906 73.125C158.906 61.4886 164.487 50.3288 174.42 42.1007C184.354 33.8725 197.827 29.25 211.875 29.25H353.125C367.173 29.25 380.646 33.8725 390.58 42.1007C400.513 50.3288 406.094 61.4886 406.094 73.125C406.094 84.7614 400.513 95.9212 390.58 104.149C380.646 112.377 367.173 117 353.125 117Z" fill="black"/>
<path d="M353.125 58.5H211.875C207.192 58.5 202.701 60.0408 199.39 62.7836C196.079 65.5263 194.219 69.2462 194.219 73.125C194.219 77.0038 196.079 80.7237 199.39 83.4664C202.701 86.2092 207.192 87.75 211.875 87.75H353.125C357.808 87.75 362.299 86.2092 365.61 83.4664C368.921 80.7237 370.781 77.0038 370.781 73.125C370.781 69.2462 368.921 65.5263 365.61 62.7836C362.299 60.0408 357.808 58.5 353.125 58.5Z" fill="black"/>
</svg>
