<svg width="651" height="819" viewBox="0 0 651 819" fill="none" xmlns="http://www.w3.org/2000/svg">
<path d="M481.994 403.779C478.573 400.784 472.701 398.819 466.994 398.819C457.592 398.819 452.049 403.225 450.476 411.94C449.195 419.04 447.348 425.965 445.189 432.795C444.622 434.586 442.884 439.783 442.774 439.989C411.274 529.525 311.78 594.101 198.402 594.101C169.043 594.101 141.787 590.266 117.421 582.675C117 582.881 116.067 583.784 115.226 584.814C114.787 586.732 114.567 588.221 114.439 589.315C140.835 670.324 227.287 727.246 325.482 727.246C446.561 727.246 545.067 641.911 545.067 537.02C545.067 486.865 522.659 439.546 481.994 403.779ZM426.841 630.866L425.835 631.737L424.793 631.896C404.36 635.16 400.829 650.056 400.317 653.004L400.152 653.97L399.348 654.652C397.866 655.919 396.201 656.522 394.409 656.522C392.634 656.522 390.951 655.919 389.689 654.826L388.902 654.145L388.518 652.988C388.006 650.04 384.457 635.144 364.043 631.88L363 631.721L361.994 630.85C359.396 628.599 359.396 624.923 361.994 622.673L362.744 622.023L363.841 621.817C385.207 618.505 388.262 602.373 388.537 600.535L388.683 599.552L389.488 598.855C392.396 596.335 396.604 596.509 399.128 598.68L399.933 599.378L400.281 600.535C400.555 602.357 403.61 618.489 424.976 621.817L426.055 621.991L426.823 622.673C429.439 624.955 429.439 628.615 426.841 630.866ZM504.11 569.253L502.811 569.459C477.146 573.563 472.701 592.262 472.079 595.971L471.878 597.175L470.872 598.047C469.024 599.647 466.921 600.408 464.671 600.408C462.439 600.408 460.317 599.647 458.744 598.284L457.756 597.429L457.262 595.986C456.622 592.278 452.159 573.563 426.53 569.459L425.232 569.253L423.97 568.159C420.695 565.323 420.695 560.711 423.97 557.89L424.902 557.066L426.274 556.813C453.11 552.645 456.933 532.377 457.281 530.095L457.463 528.859L458.488 527.972C462.146 524.802 467.433 525.024 470.598 527.766L471.622 528.653L472.061 530.111C472.409 532.409 476.232 552.677 503.085 556.829L504.439 557.035L505.39 557.89C508.665 560.727 508.665 565.339 505.409 568.175L504.11 569.253Z" fill="black"/>
<path d="M363.896 498.195C327.97 511.285 282.037 519.874 228.037 523.027C177.805 525.959 149.89 539.667 134.213 554.04C153.512 559.523 175.006 562.423 198.384 562.423C263.598 562.407 323.396 537.559 363.896 498.195Z" fill="black"/>
<path d="M437.122 92.4033V44.2287C437.122 19.8403 417.439 0 393.238 0H257.762C233.561 0 213.878 19.8403 213.878 44.2287V92.4033H437.122Z" fill="black"/>
<path d="M497.47 297.621C453.293 265.515 441.439 215.629 438.274 192.984C452.689 186.74 462.713 173.967 462.713 159.071V130.436C462.713 128.233 462.055 126.205 461.634 124.113H189.329C188.909 126.205 188.25 128.233 188.25 130.436V159.087C188.25 173.999 198.293 186.788 212.744 193.015C209.652 215.629 197.927 265.357 153.512 297.621C57.3659 349.551 0 438.896 0 537.02C0 692.51 146.012 819 325.5 819C504.988 819 651 692.51 651 537.02C650.982 438.896 593.616 349.551 497.47 297.621ZM317.25 362.736L318.091 362.007L319.317 361.769C343.171 358.061 346.573 340.059 346.884 338.015L347.049 336.905L347.963 336.113C351.22 333.292 355.921 333.498 358.72 335.923L359.634 336.715L360.018 337.999C360.329 340.043 363.732 358.045 387.585 361.753L388.774 361.943L389.616 362.704C392.524 365.224 392.524 369.328 389.634 371.848L388.5 372.83L387.348 373.02C364.537 376.665 360.585 393.289 360.037 396.585L359.854 397.662L358.957 398.423C357.311 399.849 355.445 400.515 353.451 400.515C351.457 400.515 349.591 399.849 348.183 398.629L347.305 397.868L346.866 396.585C346.299 393.289 342.329 376.649 319.537 373.005L318.384 372.814L317.25 371.832C314.341 369.344 314.341 365.255 317.25 362.736ZM244.628 314.989L245.341 314.371L246.384 314.181C266.762 311.011 269.671 295.64 269.927 293.897L270.073 292.962L270.841 292.296C273.622 289.888 277.628 290.062 280.024 292.138L280.793 292.803L281.122 293.913C281.378 295.656 284.287 311.043 304.665 314.197L305.689 314.355L306.421 315.005C308.909 317.16 308.909 320.662 306.439 322.817L305.47 323.657L304.482 323.816C285 326.922 281.634 341.136 281.159 343.941L280.994 344.86L280.226 345.51C278.817 346.73 277.226 347.301 275.524 347.301C273.823 347.301 272.232 346.73 271.024 345.685L270.274 345.035L269.909 343.941C269.433 341.121 266.031 326.922 246.567 323.816L245.579 323.657L244.61 322.817C242.159 320.646 242.159 317.144 244.628 314.989ZM219.329 405.443L220.335 404.572L221.799 404.302C250.262 399.881 254.323 378.393 254.689 375.952L254.872 374.637L255.951 373.702C259.829 370.342 265.445 370.58 268.793 373.48L269.872 374.415L270.329 375.952C270.695 378.393 274.756 399.881 303.238 404.302L304.665 404.524L305.671 405.427C309.146 408.438 309.146 413.335 305.689 416.33L304.335 417.503L302.963 417.725C275.744 422.082 271.024 441.923 270.366 445.853L270.146 447.136L269.085 448.056C267.128 449.751 264.896 450.559 262.518 450.559C260.14 450.559 257.909 449.767 256.226 448.309L255.183 447.406L254.671 445.869C253.994 441.939 249.256 422.082 222.055 417.74L220.683 417.519L219.329 416.346C215.854 413.335 215.854 408.438 219.329 405.443ZM325.482 758.94C210.055 758.94 108.439 691.559 78.3293 595.067C76.0427 587.762 77.3232 579.585 81.5854 572.137C90.622 545.039 121.226 497.482 225.585 491.397C320.854 485.866 390.659 461.668 408.732 428.168C411.018 421.274 413.012 414.254 414.311 407.044C418.701 382.798 439.372 367.125 466.994 367.125C482.47 367.125 497.835 372.513 508.079 381.514C555.53 423.255 581.653 478.482 581.653 537.02C581.653 659.39 466.738 758.94 325.482 758.94Z" fill="black"/>
</svg>
