<svg width="749" height="828" viewBox="0 0 749 828" fill="none" xmlns="http://www.w3.org/2000/svg">
<path d="M367.529 454.045C367.881 456.201 368.128 461.48 362.556 464.416L320.836 486.386C316.746 488.542 313.959 492.743 313.43 497.539L308.141 546.275C307.435 552.781 302.639 554.379 300.594 554.751C298.583 555.123 293.505 555.383 290.719 549.509L269.911 505.569C267.866 501.256 263.881 498.32 259.331 497.762L213.062 492.186C206.891 491.442 205.374 486.349 205.021 484.23C204.669 482.074 204.422 476.758 209.994 473.821L251.643 451.925C255.734 449.769 258.52 445.568 259.049 440.772L264.339 391.925C265.045 385.419 269.876 383.821 271.886 383.449C272.345 383.375 272.98 383.3 273.72 383.3C276.153 383.3 279.61 384.192 281.761 388.691L302.568 432.631C304.613 436.943 308.598 439.88 313.148 440.438L359.452 446.014C365.624 446.758 367.14 451.851 367.493 453.97L367.529 454.045ZM742.088 91.8858C736.305 83.1497 727.629 77.3138 717.684 75.4913L314.912 0.621329C304.967 -1.23738 294.916 1.1046 286.629 7.2384C278.341 13.3351 272.84 22.4804 271.076 32.9631L257.428 114.636L429.315 82.7022C446.383 79.5424 463.629 83.5572 477.841 94.0405C492.053 104.524 501.54 120.211 504.537 138.204L598.737 701.327C599.513 705.937 599.795 710.584 599.689 715.156L610.375 717.126C620.285 718.985 630.335 716.606 638.658 710.509C646.946 704.413 652.482 695.267 654.211 684.785L748.411 121.661C750.174 111.177 747.952 100.583 742.133 91.847L742.088 91.8858ZM572.034 706.305C573.798 716.788 571.576 727.382 565.757 736.119C559.973 744.855 551.298 750.691 541.353 752.513L138.617 827.383C128.601 829.242 118.621 826.862 110.333 820.766C102.046 814.669 96.5093 805.524 94.7804 795.041L0.580744 231.88C-3.05164 210.244 10.7374 189.501 31.262 185.671L434.035 110.801C436.256 110.392 438.478 110.169 440.665 110.169C448.353 110.169 455.829 112.66 462.283 117.381C470.535 123.478 476.071 132.623 477.835 143.106L572.035 706.229L572.034 706.305ZM164.847 265.3C149.013 260.467 132.614 258.905 116.462 260.244C112.124 243.775 105.106 228.088 95.408 214.072C90.8234 230.727 89.3421 248.013 90.6117 265.039C74.9885 269.575 60.0713 276.972 46.8108 287.269C62.6453 292.139 79.0088 293.701 95.161 292.362C99.4635 308.831 106.481 324.518 116.25 338.534C120.87 321.842 122.351 304.556 121.081 287.53C136.669 282.957 151.587 275.56 164.882 265.337L164.847 265.3ZM394.216 449.087C391.395 432.247 378.698 419.644 362.582 417.711L323.578 413.027L306.051 376.001C298.821 360.722 283.269 352.506 267.258 355.406C251.318 358.38 239.326 371.763 237.493 388.752L233.049 429.904L197.995 448.342C183.5 455.963 175.636 472.394 178.457 489.235C181.278 506.038 193.975 518.678 210.091 520.611L249.06 525.295L266.552 562.283C272.829 575.517 285.313 583.473 298.926 583.473C301.042 583.473 303.193 583.287 305.38 582.878C321.32 579.904 333.311 566.521 335.144 549.533L339.588 508.492L374.748 489.979C389.243 482.358 397.107 465.927 394.286 449.087H394.216Z" fill="black"/>
</svg>
