<svg width="797" height="827" viewBox="0 0 797 827" fill="none" xmlns="http://www.w3.org/2000/svg">
<path d="M671.605 282.415C677.061 292.01 682.214 302.205 686.306 312.55L621.743 376.419C618.712 365.024 615.226 353.779 610.225 343.285C610.68 342.835 671.15 282.865 671.605 282.415ZM517.925 236.836C527.17 242.234 536.111 248.531 544.296 255.428C544.447 255.278 602.493 198.005 602.645 197.855C594.764 190.809 586.277 184.211 577.183 178.214L517.925 236.836ZM523.381 605.511C524.442 604.911 525.351 604.162 526.26 603.412C525.048 604.611 523.532 605.361 522.32 606.56C402.443 692.019 227.695 631.298 188.741 490.216C147.973 355.132 258.306 213.149 401.075 217.793C524.745 218.243 626.746 332.036 612.342 453.782C608.25 490.665 594.913 527.097 572.331 556.933C572.331 557.383 523.684 605.061 523.381 605.511ZM514.742 419.6C514.742 415.402 511.408 412.104 507.164 412.104C457.454 412.104 416.988 372.073 416.988 322.746C416.988 318.698 413.654 315.25 409.41 315.25H384.404C380.16 315.25 376.826 318.698 376.826 322.746C376.826 372.073 336.36 412.104 286.65 412.104C282.406 412.104 279.072 415.402 279.072 419.6V444.338C279.072 448.536 282.406 451.834 286.65 451.834C336.36 451.834 376.826 491.865 376.826 541.042C376.826 545.24 380.16 548.538 384.404 548.538H409.41C413.654 548.538 416.988 545.24 416.988 541.042C416.988 491.865 457.454 451.834 507.164 451.834C511.408 451.834 514.742 448.536 514.742 444.338V419.6ZM85.9912 391.414C107.967 369.374 149.039 372.073 168.135 397.111C183.291 298.604 262.251 220.498 361.826 205.5C336.667 186.909 333.789 145.828 355.915 124.389C215.727 142.531 104.323 252.731 85.9912 391.414ZM388.502 757.085H387.896H386.683H388.502ZM292.567 636.24C282.565 631.442 273.319 625.745 264.226 619.598L205.574 677.47C214.818 684.816 224.67 691.113 234.521 697.26C233.763 696.81 233.157 696.361 232.399 695.761L292.567 636.24ZM158.141 632.792C158.747 633.691 159.505 634.441 160.414 635.34L218.46 577.918C211.792 569.522 205.275 560.826 199.667 551.68L140.56 610.153C146.016 617.949 151.775 625.595 158.141 632.792ZM91.9109 504.002C91.9109 504.002 92.0625 504.752 92.214 505.202L165.416 432.786C165.719 420.942 160.566 409.248 151.776 401.601L85.3942 467.27C86.7582 479.714 89.0313 492.008 91.9109 504.002ZM83.8785 447.48L138.287 393.655C102.52 382.111 77.5136 413.896 83.8785 447.48ZM99.489 530.24C102.52 538.486 105.248 546.432 108.885 554.528L173.145 490.958C169.963 478.514 167.689 465.77 166.477 453.027L96.9123 521.844C97.9733 524.843 98.731 527.541 99.6403 530.24H99.489ZM123.435 583.614C126.163 588.412 129.043 592.91 131.771 597.557C131.771 597.557 191.787 538.336 191.938 538.186C186.634 528.14 181.936 517.646 178.299 507.001L115.554 569.072C118.131 573.869 120.707 578.817 123.435 583.614ZM190.423 665.175C191.635 666.225 192.848 667.124 193.908 668.024L251.955 610.451C243.619 603.855 235.89 596.658 228.616 589.012L170.569 646.434C176.935 652.881 183.451 659.329 190.423 665.175ZM271.202 716.151C272.869 716.9 274.536 717.65 276.203 718.25L340.918 654.23C329.399 651.382 318.184 647.633 307.12 643.136L245.892 703.707C254.076 708.205 262.715 712.402 271.202 716.151ZM326.672 734.142L400.782 660.828C386.839 661.277 372.593 660.078 358.802 657.829C358.802 657.829 291.814 723.947 291.662 724.097C303.18 728.295 314.699 731.743 326.672 734.142ZM476.259 647.184C459.284 653.331 441.704 657.529 423.669 659.328L344.405 737.74C357.893 740.139 371.836 741.489 385.476 741.938L484.296 644.037C481.568 645.236 478.987 646.284 476.259 647.184ZM504.6 723.497C597.656 690.662 669.794 613.303 697.534 520.343L486.268 729.341C492.482 727.691 498.386 725.596 504.6 723.497ZM704.499 492.305C707.985 475.364 709.803 458.422 710.258 441.63L584.464 566.073C575.371 578.367 565.52 589.762 554.001 600.107C540.058 608.203 421.233 727.994 406.839 741.936C423.965 741.787 441.394 739.687 457.913 736.239L704.499 492.305ZM627.053 458.122H626.902C624.78 478.811 619.324 499.202 611.443 518.243L710.262 420.485C709.959 406.542 708.292 392.298 705.867 378.505C706.018 379.105 706.018 379.555 706.018 380.004L627.053 458.122ZM625.841 397.101C627.811 409.695 628.872 422.889 628.417 435.632L702.528 362.318C700.255 350.473 696.314 339.078 692.373 327.684L625.386 394.102C625.538 395.152 625.689 396.051 625.841 397.101ZM588.861 303.845C594.317 311.791 599.167 320.037 603.562 328.583L663.729 269.212C658.122 260.066 651.908 251.22 645.24 242.824L586.74 300.696C587.498 301.746 588.255 302.796 588.861 303.845ZM567.188 276.708C570.674 280.457 574.16 284.505 577.494 288.553L635.692 231.13C628.872 222.884 621.445 215.538 613.868 207.891C613.868 207.891 555.822 265.164 555.67 265.314C559.611 268.912 563.4 272.81 567.188 276.708ZM498.23 225.883C500.655 227.082 503.08 228.581 505.656 229.781C505.202 229.481 504.899 229.181 504.444 229.031L564.46 169.66C555.367 163.812 545.364 158.415 535.513 153.768L472.92 215.538C481.559 218.387 490.046 221.985 498.23 225.883ZM419.724 203.994C432.151 205.043 444.579 207.292 456.552 210.59C456.704 210.59 520.812 147.021 520.963 146.871C510.202 142.223 499.139 138.325 487.924 135.027L418.36 203.693C418.36 203.693 419.269 203.844 419.724 203.994ZM396.99 202.794H398.051L470.949 130.529C458.218 127.381 445.488 125.132 432.606 123.783L366.376 189.151C374.105 197.697 385.32 202.794 396.99 202.794ZM392.898 121.833C367.134 123.932 348.795 151.819 358.494 175.957L412.752 122.132C406.235 121.833 399.566 121.383 392.898 121.833ZM402.143 330.235H391.686C388.048 381.811 346.219 423.041 294.234 426.784V437.129C346.218 440.727 388.047 482.108 391.686 533.534H402.143C405.78 482.108 447.609 440.728 499.594 437.129V426.784C447.61 423.036 405.933 381.806 402.143 330.235ZM777.546 312.094C774.363 302.799 760.269 307.297 763.148 316.592C843.927 555.575 652.359 816.148 397.143 811.955C-100.872 793.214 -117.39 94.9961 377.744 52.2678L348.494 80.3046C341.371 87.2013 351.828 97.8459 359.104 91.0994L402.297 49.7192C403.812 48.22 404.57 45.9711 404.57 43.872C404.267 41.773 403.206 39.8239 401.691 38.3247L353.799 1.59258C345.918 -4.25466 336.673 7.43982 344.554 13.4371L375.775 37.2759C-137.847 82.8541 -119.36 808.208 396.993 826.948C662.364 831.296 861.516 560.379 777.547 311.944L777.546 312.094Z" fill="black"/>
</svg>
