<svg width="566" height="526" viewBox="0 0 566 526" fill="none" xmlns="http://www.w3.org/2000/svg">
<path d="M448.82 217.319H326.998L350.511 17.1394C350.926 13.7556 350.121 10.3396 348.222 7.4259C346.323 4.51224 343.437 2.26533 340.017 1.03679C336.596 -0.191748 332.834 -0.332605 329.318 0.636263C325.802 1.60513 322.731 3.62905 320.586 6.39133L103.759 283.912C101.964 286.21 100.887 288.924 100.648 291.755C100.41 294.585 101.019 297.421 102.407 299.951C103.796 302.48 105.911 304.604 108.518 306.087C111.125 307.57 114.122 308.355 117.18 308.355H239.002L215.489 508.534C215.074 511.918 215.879 515.334 217.778 518.248C219.677 521.162 222.563 523.408 225.983 524.637C229.404 525.866 233.166 526.006 236.682 525.038C240.198 524.069 243.269 522.045 245.414 519.283L462.241 241.762C464.036 239.464 465.113 236.75 465.352 233.919C465.59 231.089 464.981 228.252 463.593 225.723C462.204 223.194 460.089 221.07 457.482 219.587C454.875 218.104 451.878 217.319 448.82 217.319Z" fill="black"/>
<path d="M549.418 247.438H516.254C511.856 247.438 507.638 249.061 504.529 251.949C501.419 254.836 499.672 258.753 499.672 262.837C499.672 266.921 501.419 270.837 504.529 273.725C507.638 276.613 511.856 278.235 516.254 278.235H549.418C553.816 278.235 558.034 276.613 561.143 273.725C564.253 270.837 566 266.921 566 262.837C566 258.753 564.253 254.836 561.143 251.949C558.034 249.061 553.816 247.438 549.418 247.438Z" fill="black"/>
<path d="M507.41 234.606C510.316 234.608 513.172 233.9 515.69 232.553L544.432 217.155C546.32 216.144 547.974 214.797 549.301 213.193C550.628 211.588 551.601 209.756 552.166 207.802C552.73 205.848 552.875 203.809 552.591 201.803C552.308 199.797 551.601 197.863 550.512 196.11C549.424 194.358 547.974 192.822 546.246 191.589C544.517 190.357 542.545 189.453 540.441 188.929C538.336 188.404 536.141 188.27 533.981 188.534C531.821 188.797 529.738 189.453 527.85 190.464L499.108 205.863C495.941 207.556 493.464 210.173 492.064 213.308C490.664 216.443 490.418 219.919 491.365 223.197C492.311 226.475 494.398 229.371 497.299 231.434C500.201 233.497 503.756 234.612 507.41 234.606Z" fill="black"/>
<path d="M544.432 308.529L515.69 293.131C511.879 291.089 507.35 290.536 503.1 291.595C498.85 292.654 495.227 295.237 493.028 298.777C490.829 302.316 490.234 306.522 491.375 310.468C492.515 314.415 495.297 317.779 499.108 319.821L527.85 335.22C529.738 336.231 531.821 336.887 533.981 337.15C536.141 337.414 538.336 337.279 540.441 336.755C542.545 336.231 544.517 335.327 546.246 334.095C547.974 332.862 549.424 331.326 550.512 329.574C551.601 327.821 552.308 325.887 552.591 323.881C552.875 321.875 552.73 319.836 552.166 317.882C551.601 315.928 550.628 314.096 549.301 312.491C547.974 310.887 546.32 309.54 544.432 308.529Z" fill="black"/>
<path d="M49.7461 278.235C54.1439 278.235 58.3616 276.613 61.4714 273.725C64.5811 270.837 66.3281 266.921 66.3281 262.837C66.3281 258.753 64.5811 254.836 61.4714 251.949C58.3616 249.061 54.1439 247.438 49.7461 247.438H16.582C12.1842 247.438 7.9665 249.061 4.85676 251.949C1.74703 254.836 0 258.753 0 262.837C0 266.921 1.74703 270.837 4.85676 273.725C7.9665 276.613 12.1842 278.235 16.582 278.235H49.7461Z" fill="black"/>
<path d="M66.8698 205.873L38.1276 190.474C36.2404 189.463 34.1572 188.807 31.9969 188.544C29.8367 188.28 27.6417 188.415 25.5373 188.939C23.433 189.463 21.4604 190.367 19.7323 191.6C18.0041 192.832 16.5543 194.368 15.4655 196.121C14.3767 197.873 13.6703 199.808 13.3866 201.814C13.1029 203.82 13.2475 205.858 13.8121 207.812C14.3767 209.766 15.3502 211.598 16.6771 213.203C18.004 214.808 19.6583 216.154 21.5456 217.165L50.2878 232.564C54.0992 234.605 58.6281 235.158 62.8781 234.099C67.128 233.04 70.751 230.457 72.9499 226.917C75.1488 223.378 75.7436 219.172 74.6033 215.226C73.4631 211.279 70.6813 207.915 66.8698 205.873Z" fill="black"/>
<path d="M50.2878 293.131L21.5456 308.529C19.6583 309.54 18.004 310.887 16.6771 312.491C15.3502 314.096 14.3767 315.928 13.8121 317.882C13.2475 319.836 13.1029 321.875 13.3866 323.881C13.6703 325.887 14.3767 327.821 15.4655 329.574C16.5543 331.326 18.0041 332.862 19.7323 334.095C21.4604 335.327 23.433 336.231 25.5373 336.755C27.6417 337.279 29.8367 337.414 31.9969 337.15C34.1572 336.887 36.2404 336.231 38.1276 335.22L66.8698 319.821C68.757 318.81 70.4114 317.464 71.7383 315.859C73.0652 314.254 74.0387 312.423 74.6033 310.468C75.1679 308.514 75.3125 306.476 75.0288 304.47C74.7451 302.464 74.0387 300.529 72.9499 298.777C71.8611 297.024 70.4112 295.488 68.6831 294.256C66.955 293.024 64.9824 292.12 62.8781 291.595C60.7737 291.071 58.5787 290.937 56.4185 291.2C54.2582 291.464 52.175 292.12 50.2878 293.131Z" fill="black"/>
</svg>
