<svg width="673" height="642" viewBox="0 0 673 642" fill="none" xmlns="http://www.w3.org/2000/svg">
<path d="M664.33 277.75C658.186 272.708 650.077 270.438 641.723 271.362C631.341 272.497 622.832 279.255 618.962 287.596L585.85 358.132C587.571 359.161 589.321 360.428 590.919 361.774C609.133 375.95 613.526 399.285 602.222 418.132L600.625 420.771C585.451 446.165 567.759 470.398 547.547 493.125L531.575 511.286C529.057 514.137 525.309 516.091 521.193 516.539C516.955 516.988 512.808 516.091 509.49 513.9C506.019 511.735 503.9 508.515 503.378 504.978C502.856 501.308 503.9 497.771 506.45 494.92L523.343 475.835C541.558 455.14 557.807 433.072 571.629 409.975L574.301 405.646C579.216 397.41 577.096 387.458 569.11 381.281C564.441 377.638 558.329 375.791 551.94 376.028C545.551 376.477 539.837 378.879 535.599 382.891L443.637 472.903C433.655 482.722 427.266 493.255 426.62 508.328C425.914 526.621 424.347 592.453 423.548 630.384C423.426 636.772 429.415 641.972 436.849 641.972H550.655C558.088 641.972 564.077 636.745 563.955 630.357L563.371 598.971L644.922 528.435C659.174 516.108 667.406 499.531 667.928 482.134L672.996 295.455C673.119 288.724 670.048 282.441 664.334 277.742L664.33 277.75Z" fill="black"/>
<path d="M229.298 472.897L137.368 382.912C133.099 378.9 127.386 376.524 121.027 376.049C114.638 375.838 108.526 377.659 103.857 381.302C95.8709 387.479 93.7509 397.43 98.6658 405.667L101.338 409.996C115.16 433.093 131.409 455.161 149.624 475.856L166.517 494.941C169.036 497.792 170.111 501.356 169.589 504.998C169.067 508.536 166.917 511.73 163.476 513.921C160.159 516.085 156.012 517.009 151.773 516.56C147.657 516.112 143.941 514.158 141.422 511.307L125.45 493.146C105.239 470.392 87.5464 446.16 72.3726 420.792L70.7754 418.152C59.4718 399.278 63.8335 375.97 82.0789 361.795C83.6761 360.423 85.3962 359.156 87.1163 358.152L53.9739 287.616C50.1037 279.275 41.5955 272.517 31.2442 271.382C22.8894 270.459 14.7492 272.729 8.63706 277.77C2.92387 282.469 -0.14786 288.752 0.00547557 295.483L5.01222 482.162C5.53439 499.532 13.7971 516.109 28.0188 528.463L109.569 598.999L108.986 630.385C108.863 636.773 114.853 642 122.286 642H236.092C243.525 642 249.515 636.8 249.392 630.412C248.593 592.479 247.027 526.649 246.32 508.356C245.675 493.23 239.286 482.724 229.303 472.905L229.298 472.897Z" fill="black"/>
<path d="M504.209 266.715C504.209 214.343 422.807 87.5022 372.466 17.2634C355.941 -5.75446 316.993 -5.75446 300.468 17.2634C250.124 87.509 168.725 214.343 168.725 266.715C168.725 368.106 250.984 413.484 336.498 413.484C421.949 413.484 504.209 368.107 504.209 266.715ZM336.468 360.612C269.813 360.612 230.006 325.53 230.006 266.742C230.006 258.136 238.115 251.167 248.129 251.167C258.143 251.167 266.251 258.136 266.251 266.742C266.251 282.263 266.251 329.46 336.469 329.46C346.482 329.46 354.591 336.429 354.591 345.035C354.591 353.64 346.482 360.612 336.468 360.612Z" fill="black"/>
<path d="M32.1645 96.1587C32.1952 96.1587 32.1952 96.1851 32.1952 96.1851C64.4475 102.864 90.31 125.116 98.0813 152.807C99.1871 156.793 103.334 159.591 108.156 159.591H108.187C113.009 159.591 117.155 156.819 118.261 152.807C126.063 125.09 151.926 102.864 184.178 96.1588C188.847 95.1821 192.072 91.5921 192.072 87.4475C192.072 83.3295 188.816 79.7397 184.178 78.816C151.465 72.0056 126.186 50.2278 118.292 22.01C117.186 18.0241 113.039 15.226 108.217 15.226C103.395 15.226 99.2483 17.9977 98.1112 22.01C90.2172 50.2285 64.9374 72.0056 32.2251 78.816C27.587 79.7663 24.3618 83.3299 24.3311 87.4475C24.2697 91.6182 27.4956 95.1816 32.1645 96.1587Z" fill="black"/>
<path d="M502.486 141.219C502.486 141.219 502.486 141.245 502.517 141.245C531.299 147.211 554.428 167.088 561.37 191.822C562.353 195.385 566.069 197.867 570.369 197.867H570.4C574.7 197.867 578.417 195.385 579.399 191.822C586.372 167.061 609.47 147.211 638.283 141.245C642.429 140.347 645.347 137.18 645.317 133.458C645.317 129.763 642.429 126.595 638.252 125.75C609.01 119.679 586.465 100.225 579.399 75.0155C578.417 71.4519 574.7 68.9442 570.4 68.9442H570.369C566.069 68.9442 562.352 71.4255 561.339 75.0155C554.274 100.225 531.729 119.679 502.486 125.75C498.34 126.595 495.452 129.789 495.422 133.458C495.452 137.154 498.34 140.348 502.486 141.219Z" fill="black"/>
</svg>
