<svg width="803" height="599" viewBox="0 0 803 599" fill="none" xmlns="http://www.w3.org/2000/svg">
<path d="M789.616 116.85H749.466V102.243C749.466 95.6705 745.451 89.974 739.83 88.2212C671.04 66.7497 567.315 51.9975 462.93 103.558C441.516 114.22 420.906 127.219 401.5 142.41L401.366 142.556C393.604 136.421 385.708 130.579 377.544 125.32C371.254 121.084 362.956 123.275 359.209 130.286C355.328 137.151 357.335 146.207 363.759 150.297C372.057 155.847 380.221 161.836 388.251 168.263V556.357C372.86 545.402 356.8 535.615 340.205 527.29C244.247 479.82 148.692 488.583 80.4353 506.987V371.15C80.4353 363.117 74.4129 356.544 67.052 356.544C59.6911 356.544 53.6687 363.117 53.6687 371.15V525.973C53.6687 530.501 55.6762 534.883 59.022 537.658C62.3678 540.433 66.7843 541.309 70.7993 539.995C135.307 519.985 232.47 505.962 329.233 553.871C338.735 558.691 348.103 564.096 357.337 569.792H26.7667V191.485C26.7667 183.452 20.7442 176.879 13.3833 176.879C6.02246 176.879 0 183.452 0 191.485V584.394C0 592.427 6.02246 599 13.3833 599H789.617C796.978 599 803 592.427 803 584.394V131.592C803 123.559 796.978 116.986 789.617 116.986L789.616 116.85ZM495.987 212.518C544.034 188.856 599.439 180.676 657.393 188.271C664.753 189.147 669.973 196.45 669.036 204.484C668.233 212.518 661.542 218.068 654.181 217.192C601.049 210.327 550.591 217.63 507.097 239.248C500.806 242.315 494.516 245.82 488.36 249.472C486.219 250.787 484.077 251.371 481.802 251.371C477.118 251.371 472.568 248.742 470.158 243.922C466.545 236.911 468.82 228.001 475.244 224.057C482.07 219.968 489.028 216.023 495.987 212.518ZM654.181 306.148C641.199 304.395 628.217 303.665 615.503 303.665C576.424 303.665 540.021 311.844 507.1 328.058C500.81 331.271 494.519 334.777 488.363 338.428C486.222 339.743 484.081 340.327 481.806 340.327C477.121 340.327 472.571 337.698 470.162 332.878C466.548 325.867 468.824 316.957 475.248 313.013C482.073 308.777 489.033 304.98 495.992 301.474C532.395 283.508 572.678 274.453 615.504 274.453C629.289 274.453 643.341 275.329 657.394 277.228C664.755 278.104 669.974 285.407 669.037 293.441C668.234 301.475 661.542 307.024 654.181 306.148ZM669.036 387.067C668.233 394.954 661.542 400.65 654.181 399.774C601.049 392.763 550.591 400.212 507.097 421.684C500.806 424.898 494.516 428.257 488.36 432.055C486.219 433.37 484.077 433.954 481.802 433.954C477.118 433.954 472.568 431.179 470.158 426.505C466.545 419.494 468.82 410.584 475.244 406.64C482.07 402.404 489.029 398.606 495.989 395.101C544.035 371.292 599.441 363.113 657.394 370.708C664.755 371.73 669.973 379.033 669.036 387.067ZM776.24 569.644H445.807C454.907 563.801 464.275 558.543 473.911 553.723C570.939 505.814 668.104 519.69 732.344 539.847C736.493 541.161 740.776 540.285 744.122 537.51C747.468 534.734 749.475 530.352 749.475 525.824V146.06H776.242L776.24 569.644Z" fill="black"/>
<path d="M9.90645 131.451C9.90645 137.002 12.7169 141.968 17.1335 144.451L80.9717 179.798L113.359 249.324C115.634 254.29 120.185 257.357 125.27 257.357C130.355 257.357 134.906 254.29 137.181 249.324L169.568 179.798L233.273 144.451C237.823 141.968 240.634 137.001 240.634 131.451C240.634 125.901 237.823 120.935 233.273 118.452L169.568 83.105L137.181 13.5787C132.631 3.64644 117.909 3.64644 113.359 13.5787L80.9717 83.105L17.1335 118.452C12.717 120.935 9.90645 125.901 9.90645 131.451Z" fill="black"/>
<path d="M194.865 283.507C190.314 285.99 187.504 291.102 187.504 296.652C187.504 302.202 190.314 307.169 194.865 309.652L232.471 330.393L251.476 371.437C253.751 376.403 258.436 379.47 263.387 379.47C268.339 379.47 273.023 376.403 275.298 371.437L294.437 330.393L332.043 309.652C336.46 307.168 339.27 302.056 339.27 296.652C339.27 291.248 336.46 285.99 332.043 283.507L294.437 262.765L275.298 221.722C270.748 211.935 256.026 211.935 251.476 221.722L232.471 262.765L194.865 283.507Z" fill="black"/>
<path d="M289.751 178.051H292.83V181.411C292.83 189.444 298.852 196.017 306.213 196.017C313.574 196.017 319.596 189.444 319.596 181.411V178.051H322.674C330.035 178.051 336.058 171.479 336.058 163.445C336.058 155.412 330.035 148.839 322.674 148.839H319.596V145.479C319.596 137.446 313.574 130.873 306.213 130.873C298.852 130.873 292.83 137.446 292.83 145.479V148.839H289.751C282.39 148.839 276.368 155.412 276.368 163.445C276.368 171.479 282.39 178.051 289.751 178.051Z" fill="black"/>
<path d="M122.727 364.283C130.088 364.283 136.111 357.711 136.111 349.677V346.318H139.189C146.55 346.318 152.572 339.745 152.572 331.711C152.572 323.678 146.55 317.105 139.189 317.105H136.111V313.745C136.111 305.712 130.088 299.139 122.727 299.139C115.366 299.139 109.344 305.712 109.344 313.745V317.105H106.266C98.9049 317.105 92.8824 323.678 92.8824 331.711C92.8824 339.745 98.9049 346.318 106.266 346.318H109.344V349.677C109.344 357.711 115.366 364.283 122.727 364.283Z" fill="black"/>
<path d="M13.3865 47.1785H16.4648V50.538C16.4648 58.5716 22.4872 65.1444 29.8481 65.1444C37.209 65.1444 43.2314 58.5716 43.2314 50.538V47.1785H46.3096C53.6705 47.1785 59.693 40.6057 59.693 32.5722C59.693 24.5387 53.6705 17.9659 46.3096 17.9659H43.2314V14.6063C43.2314 6.57281 37.209 0 29.8481 0C22.4872 0 16.4648 6.57281 16.4648 14.6063V17.9659H13.3865C6.02567 17.9659 0.00321054 24.5387 0.00321054 32.5722C0.00321054 40.6057 6.02567 47.1785 13.3865 47.1785Z" fill="black"/>
</svg>
