<svg width="799" height="760" viewBox="0 0 799 760" fill="none" xmlns="http://www.w3.org/2000/svg">
<path d="M23.6147 357.219H50.1584V399.611C50.1584 409.526 58.4173 417.57 68.5969 417.57C78.777 417.57 87.0355 409.526 87.0355 399.611V357.219H711.99V399.611C711.99 409.526 720.249 417.57 730.428 417.57C740.608 417.57 748.867 409.526 748.867 399.611V357.219H775.372C786.897 357.219 796.73 349.138 798.651 338.063C798.881 336.791 798.997 335.481 798.997 334.209C798.997 321.525 788.433 311.236 775.373 311.236H557.414C565.481 308.43 572.78 303.604 578.119 296.794C595.867 273.073 606.392 244.936 608.466 215.64C613.536 210.29 619.222 205.202 624.792 200.3C642.808 184.436 661.477 168.01 661.477 139.425C661.477 116.415 644.076 90.6352 615.957 89.139C603.319 88.3907 590.796 92.1323 580.732 99.6158C574.97 86.6324 572.012 72.6395 572.012 58.4962V52.5098C572.012 42.1087 564.867 32.9787 554.573 30.2106L444.974 0.839772C432.336 -2.56502 419.237 4.6935 415.779 17.0031C415.203 19.0236 414.934 21.0814 414.934 23.1392V59.0951C414.973 75.109 411.093 90.8605 403.603 105.116C387.661 134.037 378.826 166.177 377.75 198.991C376.828 234.049 387.776 268.396 408.827 296.833C414.128 303.68 421.426 308.468 429.533 311.275H338.953C341.066 310.04 343.179 308.731 344.792 306.823C349.671 301.098 351.707 293.54 350.324 286.245L340.836 233.303C340.644 232.143 341.105 231.02 342.065 230.309C348.787 224.996 352.36 216.765 351.592 208.346C349.978 194.952 338.185 184.925 324.357 185.186H269.041C249.796 185.186 237.504 195.026 236.274 208.346C235.506 216.765 239.079 224.996 245.801 230.309C246.723 231.02 247.184 232.18 247.03 233.303L237.542 286.245C236.159 293.578 238.195 301.099 243.074 306.823C244.687 308.731 246.8 310.04 248.951 311.275H202.317C204.429 310.04 206.542 308.731 208.156 306.823C213.034 301.098 215.07 293.54 213.687 286.245L204.199 233.303C204.007 232.143 204.468 231.02 205.428 230.309C212.151 224.996 215.723 216.765 214.955 208.346C213.341 194.952 201.548 184.925 187.72 185.186H132.366C113.121 185.186 100.828 195.026 99.5992 208.346C98.8309 216.765 102.403 224.996 109.126 230.309C110.048 231.02 110.509 232.18 110.317 233.303L100.828 286.245C99.4456 293.578 101.481 301.099 106.36 306.823C107.973 308.731 110.086 310.04 112.237 311.275H23.6555C22.311 311.275 21.005 311.387 19.6989 311.612C6.83029 313.744 -1.81272 325.605 0.377286 338.139C2.29795 349.176 12.1317 357.295 23.6561 357.295L23.6147 357.219ZM614.917 108.146C632.549 109.081 641.961 126.928 641.961 139.424C641.961 159.479 627.939 171.826 611.729 186.156C610.73 187.016 609.77 187.952 608.771 188.85C606.697 164.156 600.167 140.06 589.488 117.574C596.057 110.839 605.43 107.36 614.956 108.145L614.917 108.146ZM266.315 235.997H321.516L331.158 289.425C331.504 291.221 331.043 293.054 329.89 294.514C329.429 295.112 328.738 295.486 327.97 295.561H259.9C259.132 295.486 258.44 295.112 257.98 294.514C256.827 293.092 256.366 291.221 256.75 289.425L266.354 235.959L266.315 235.997ZM129.565 235.997H184.766L194.369 289.462C194.753 291.258 194.292 293.092 193.178 294.551C192.717 295.15 192.026 295.524 191.258 295.599H123.188C122.42 295.524 121.69 295.15 121.229 294.551C120.077 293.129 119.616 291.258 120 289.462L129.604 235.997H129.565ZM775.377 653.629H654.105C660.252 649.962 664.631 643.789 664.9 636.268V517.066C665.745 504.271 660.598 491.811 650.917 483.13C649.534 482.083 649.266 480.1 650.341 478.753C650.572 478.454 650.84 478.229 651.186 478.005C660.598 472.018 665.822 461.467 664.784 450.579C662.864 435.089 649.189 423.528 633.17 423.79H514.583C498.565 423.49 484.928 435.052 483.008 450.542C481.971 461.429 487.195 472.018 496.606 477.967C498.104 478.903 498.565 480.811 497.605 482.27C497.413 482.569 497.144 482.869 496.837 483.093C487.156 491.773 482.009 504.27 482.854 517.066V636.268C483.123 643.788 487.54 649.962 493.687 653.629H411.827C417.167 650.112 420.739 644.312 420.432 637.615V490.387C420.432 483.764 419.395 468.312 410.445 459.856C409.216 458.696 409.177 456.751 410.368 455.553C410.445 455.479 410.56 455.404 410.637 455.329C418.281 449.081 421.853 439.278 419.971 429.699C417.167 416.753 405.336 407.55 391.776 407.774H333.002C313.681 407.774 301.427 416.753 298.968 429.699C297.086 439.24 300.658 449.043 308.303 455.292C309.647 456.377 309.839 458.285 308.725 459.594C308.648 459.669 308.572 459.781 308.495 459.856C299.506 468.312 298.469 483.765 298.469 490.387V637.615C298.162 644.312 301.734 650.112 307.074 653.629H268.661C274 650.112 277.573 644.312 277.227 637.615V490.387C277.227 483.765 276.19 468.312 267.239 459.856C266.01 458.696 265.933 456.751 267.163 455.554C267.239 455.479 267.355 455.404 267.432 455.329C275.076 449.081 278.648 439.278 276.766 429.699C273.962 416.753 262.13 407.55 248.57 407.774H189.797C170.475 407.774 158.221 416.753 155.763 429.699C153.881 439.24 157.453 449.043 165.097 455.292C166.442 456.377 166.634 458.285 165.52 459.594C165.443 459.669 165.366 459.782 165.29 459.856C156.301 468.312 155.264 483.765 155.264 490.387V637.615C154.957 644.312 158.529 650.112 163.869 653.629H23.6174C22.2729 653.629 20.9669 653.741 19.6609 653.966C6.79222 656.098 -1.8508 667.958 0.33921 680.493C2.25987 691.53 12.0937 699.649 23.618 699.649H50.1617V742.041C50.1617 751.956 58.4206 760 68.6002 760C78.7803 760 87.0388 751.956 87.0388 742.041V699.649H711.993V742.041C711.993 751.956 720.252 760 730.432 760C740.611 760 748.87 751.956 748.87 742.041V699.649H775.376C786.9 699.649 796.734 691.567 798.654 680.493C798.885 679.22 799 677.911 799 676.639C799 663.955 788.436 653.666 775.376 653.666L775.377 653.629ZM502.408 517.1C502.408 507.41 505.519 499.59 510.321 497.195C516.352 494.239 520.961 489.114 523.19 482.94H624.754C626.944 489.151 631.553 494.277 637.584 497.233C642.386 499.665 645.498 507.484 645.498 517.137V523.124C632.667 519.494 619.184 518.596 605.932 520.542C591.373 522.787 577.16 526.79 563.6 532.477C536.71 542.505 518.848 548.08 502.445 534.535V517.137L502.408 517.1ZM317.983 490.385C317.291 484.399 318.789 478.375 322.208 473.362C326.203 470.481 329.123 466.402 330.506 461.726H388.356C389.739 466.403 392.659 470.481 396.654 473.4C400.073 478.414 401.571 484.437 400.879 490.423V492.893C393.619 491.172 386.052 490.947 378.715 492.257C369.726 494.015 361.121 497.233 353.208 501.76C340.723 508.196 332.733 512.237 317.983 503.968L317.983 490.385ZM174.781 490.385C174.09 484.399 175.588 478.375 179.007 473.362C183.002 470.481 185.921 466.402 187.304 461.726H245.155C246.538 466.403 249.458 470.481 253.453 473.4C256.871 478.414 258.369 484.437 257.678 490.423V492.893C250.418 491.172 242.85 490.947 235.513 492.257C226.525 494.015 217.92 497.233 210.006 501.76C197.522 508.196 189.532 512.237 174.743 503.968V490.386L174.781 490.385Z" fill="black"/>
</svg>
