<svg width="719" height="792" viewBox="0 0 719 792" fill="none" xmlns="http://www.w3.org/2000/svg">
<path fill-rule="evenodd" clip-rule="evenodd" d="M179.75 0C105.295 0 44.9375 53.1887 44.9375 118.8C20.1194 118.8 0 136.53 0 158.4C0 180.27 20.1194 198 44.9375 198V237.6C20.1194 237.6 0 255.33 0 277.2C0 299.07 20.1194 316.8 44.9375 316.8V356.4C20.1194 356.4 0 374.129 0 396C0 417.871 20.1194 435.6 44.9375 435.6V475.2C20.1194 475.2 0 492.929 0 514.8C0 536.671 20.1194 554.4 44.9375 554.4V594C20.1194 594 0 611.729 0 633.6C0 655.471 20.1194 673.2 44.9375 673.2C44.9375 738.813 105.295 792 179.75 792H584.188C658.644 792 719 738.813 719 673.2V118.8C719 53.1887 658.644 0 584.188 0H179.75ZM179.75 158.4V277.2C179.75 299.07 199.869 316.8 224.688 316.8H539.25C564.069 316.8 584.188 299.07 584.188 277.2V158.4C584.188 136.53 564.069 118.8 539.25 118.8H224.688C199.869 118.8 179.75 136.53 179.75 158.4Z" fill="black"/>
</svg>
