<svg width="638" height="816" viewBox="0 0 638 816" fill="none" xmlns="http://www.w3.org/2000/svg">
<path d="M275.142 0.000565542C143.376 -0.281833 0.137133 105.206 7.66619e-05 292.997C-0.0768769 397.885 57.795 476.527 110.146 551.088C161.294 623.936 164.09 634.364 136.198 751.111C217.879 814.938 301.17 783.819 428.758 816C426.201 756.43 424.208 728.502 445.054 706.695C468.183 682.498 528.185 724.46 552.131 683.826C575.803 643.653 528.728 637.043 571.591 593.395C584.026 580.733 548.911 575.202 548.534 562.969C548.206 552.339 574.393 566.907 580.575 553.965C587.05 540.407 566.29 528.584 577.552 513.928C591.394 495.915 626.243 520.195 636.253 494.931C644.538 474.018 622.809 444.145 582.724 384.227C561.891 353.087 561.435 334.896 562.791 315.869C572.145 184.605 487.441 0.455564 275.142 0.000565542ZM278.436 25.1488C418.028 25.1488 531.169 142.456 531.169 287.187C531.169 431.919 418.028 549.225 278.436 549.225C138.843 549.225 25.7018 431.919 25.7018 287.187C25.7018 142.456 138.843 25.1488 278.436 25.1488Z" fill="black"/>
<path d="M278.436 53.7122C154.07 53.7122 53.251 158.242 53.251 287.187C53.251 416.132 154.07 520.662 278.436 520.662C402.801 520.662 503.62 416.132 503.62 287.187C503.62 158.242 402.801 53.7122 278.436 53.7122ZM278.436 82.2756C387.586 82.2756 476.071 174.018 476.071 287.187C476.071 400.357 387.586 492.099 278.436 492.099C169.285 492.099 80.8002 400.357 80.8002 287.187C80.8002 174.018 169.285 82.2756 278.436 82.2756Z" fill="black"/>
<path d="M278.436 110.839C184.5 110.839 108.349 189.793 108.349 287.187C108.349 384.581 184.5 463.535 278.436 463.535C372.371 463.535 448.522 384.581 448.522 287.187C448.522 189.793 372.371 110.839 278.436 110.839ZM278.436 141.886C355.833 141.886 418.577 206.94 418.577 287.187C418.577 367.435 355.833 432.488 278.436 432.488C201.038 432.488 138.294 367.435 138.294 287.187C138.294 206.94 201.038 141.886 278.436 141.886Z" fill="black"/>
<path d="M278.436 170.45C216.253 170.45 165.843 222.715 165.843 287.187C165.843 351.659 216.253 403.925 278.436 403.925C340.619 403.925 391.028 351.659 391.028 287.187C391.028 222.715 340.619 170.45 278.436 170.45ZM278.436 199.013C325.404 199.013 363.479 238.49 363.479 287.187C363.479 335.884 325.404 375.361 278.436 375.361C231.468 375.361 193.392 335.884 193.392 287.187C193.392 238.49 231.468 199.013 278.436 199.013Z" fill="black"/>
<path d="M278.436 227.576C246.683 227.576 220.942 254.265 220.942 287.187C220.942 320.109 246.683 346.798 278.436 346.798C310.189 346.798 335.929 320.109 335.929 287.187C335.929 254.265 310.189 227.576 278.436 227.576ZM278.436 256.14C294.974 256.14 308.38 270.04 308.38 287.187C308.38 304.334 294.974 318.234 278.436 318.234C261.898 318.234 248.491 304.334 248.491 287.187C248.491 270.04 261.898 256.14 278.436 256.14Z" fill="black"/>
</svg>
