<svg width="696" height="708" viewBox="0 0 696 708" fill="none" xmlns="http://www.w3.org/2000/svg">
<path fill-rule="evenodd" clip-rule="evenodd" d="M463.417 636.796C422.112 680.658 363.963 707.982 299.582 707.982C236.949 707.982 180.215 682.127 139.123 640.329L132.116 633.201C161.311 645.675 193.335 652.584 226.959 652.584C339.198 652.584 433.916 575.677 462.924 470.885C565.942 441.373 641.542 345.017 641.542 230.85C641.542 196.648 634.75 164.072 622.487 134.37L629.494 141.498C670.585 183.265 696 241.011 696 304.725C696 393.762 646.336 471.106 573.651 509.626C571.285 502.998 568.488 495.276 567.197 492.119C566.152 489.493 564.8 486.898 563.141 484.709C561.481 482.521 559.422 480.583 557.209 478.988C555.027 477.425 552.476 476.143 549.895 475.331C547.313 474.518 544.424 474.049 541.658 474.049C538.892 474.049 536.003 474.518 533.422 475.331C530.84 476.143 528.32 477.425 526.107 478.988C523.894 480.551 521.866 482.521 520.176 484.709C518.516 486.898 517.164 489.524 516.119 492.119C513.722 498.121 505.731 520.693 505.731 520.693C498.478 540.639 483.051 556.332 463.474 563.679C463.474 563.679 441.285 571.808 435.384 574.246C432.803 575.309 430.221 576.685 428.07 578.373C425.918 580.061 424.013 582.156 422.476 584.407C420.94 586.658 419.68 589.221 418.881 591.847C418.051 594.473 417.59 597.443 417.59 600.226C417.59 603.04 418.051 605.978 418.881 608.605C419.68 611.231 420.94 613.794 422.476 616.045C424.013 618.296 425.918 620.391 428.07 622.079C430.221 623.767 432.803 625.143 435.353 626.206C441.131 628.582 462.521 636.428 463.412 636.772L463.417 636.796ZM287.198 28.4806C319.591 10.3483 356.839 0 396.424 0C521.692 0 623.357 103.451 623.388 230.879C623.388 340.237 548.462 431.963 448.028 455.756C424.64 557.927 334.467 634.142 226.964 634.142C101.696 634.142 0.0314704 530.691 0 403.263C0 293.906 74.9262 202.18 175.361 178.386C177.604 168.538 180.524 158.909 183.966 149.561C198.288 157.971 209.413 171.288 215.222 187.295C215.222 187.295 223.212 209.867 225.609 215.869C226.654 218.495 228.007 221.09 229.666 223.279C231.326 225.467 233.385 227.437 235.567 228.968C237.78 230.532 240.3 231.845 242.881 232.657C245.463 233.47 248.382 233.939 251.118 233.971C253.884 233.971 256.773 233.47 259.354 232.657C261.936 231.845 264.456 230.563 266.669 229C268.882 227.437 270.941 225.467 272.6 223.279C274.26 221.09 275.612 218.495 276.657 215.869C279.054 209.867 287.045 187.295 287.045 187.295C294.298 167.38 309.725 151.656 329.302 144.309C329.302 144.309 351.491 136.18 357.392 133.742C359.973 132.679 362.524 131.303 364.675 129.615C366.827 127.927 368.732 125.832 370.3 123.581C371.836 121.33 373.096 118.767 373.895 116.141C374.694 113.515 375.186 110.545 375.186 107.762C375.186 104.948 374.725 102.01 373.895 99.3834C373.096 96.7574 371.805 94.1625 370.269 91.9428C368.732 89.6919 366.827 87.6286 364.675 85.9403C362.524 84.2521 359.943 82.8766 357.392 81.8137C351.491 79.3439 329.302 71.2469 329.302 71.2469C309.817 63.9001 294.42 48.331 287.137 28.542L287.198 28.4806ZM130.122 480.195C111.744 480.195 96.8382 495.358 96.8382 514.053C96.8382 532.749 111.774 547.911 130.122 547.911C148.5 547.911 163.406 532.749 163.406 514.053C163.406 495.358 148.47 480.195 130.122 480.195ZM130.122 498.672C138.451 498.672 145.243 505.581 145.243 514.053C145.243 522.557 138.482 529.435 130.122 529.435C121.763 529.435 115.001 522.526 115.001 514.053C115.001 505.55 121.763 498.672 130.122 498.672ZM444.826 73.8721C426.448 73.8721 411.542 89.0344 411.542 107.73C411.542 126.425 426.447 141.588 444.826 141.588C463.203 141.588 478.109 126.395 478.109 107.699C478.109 89.004 463.174 73.8409 444.826 73.8409V73.8721ZM444.826 92.3486C453.185 92.3486 459.946 99.2577 459.946 107.73C459.946 116.234 453.154 123.112 444.826 123.112C436.466 123.112 429.705 116.234 429.705 107.73C429.705 99.2265 436.497 92.3486 444.826 92.3486ZM130.122 332.448C98.3748 332.448 72.621 358.646 72.621 390.941C72.621 423.204 98.3748 449.434 130.122 449.434C161.869 449.434 187.623 423.236 187.623 390.941C187.623 358.678 161.869 332.448 130.153 332.448H130.122ZM130.122 350.924C151.819 350.924 169.46 368.869 169.46 390.941C169.46 413.012 151.819 430.957 130.122 430.957C108.425 430.957 90.7841 413.044 90.7841 390.941C90.7841 368.869 108.425 350.924 130.122 350.924ZM493.227 160.061C461.511 160.061 435.757 186.259 435.757 218.523C435.757 250.818 461.51 277.016 493.258 277.016C524.974 277.016 550.728 250.818 550.728 218.554C550.728 186.259 524.974 160.061 493.227 160.061ZM493.227 178.538C514.924 178.538 532.565 196.483 532.565 218.554C532.565 240.657 514.924 258.571 493.227 258.571C471.53 258.571 453.889 240.626 453.889 218.554C453.889 196.452 471.53 178.538 493.227 178.538ZM251.173 332.441C232.795 332.441 217.858 347.604 217.858 366.299C217.858 384.994 232.794 400.157 251.142 400.157C269.52 400.157 284.426 384.995 284.426 366.299C284.426 347.605 269.521 332.441 251.142 332.441H251.173ZM251.142 350.918C259.501 350.918 266.263 357.796 266.263 366.299C266.263 374.803 259.502 381.681 251.142 381.681C242.783 381.681 236.021 374.772 236.021 366.299C236.021 357.796 242.813 350.918 251.142 350.918ZM550.173 498.539L560.561 527.113C569.657 552.061 588.989 571.756 613.544 581.011L641.634 591.609C645.199 592.953 647.535 596.392 647.535 600.237C647.535 604.114 645.199 607.552 641.634 608.928L613.544 619.495C588.989 628.748 569.628 648.444 560.561 673.392L550.173 701.966C548.883 705.593 545.471 708 541.661 708C537.85 708 534.469 705.593 533.148 701.966L522.76 673.392C513.664 648.444 494.332 628.718 469.777 619.495L441.687 608.928C438.122 607.583 435.756 604.113 435.756 600.237C435.756 596.392 438.122 592.921 441.687 591.609L469.777 581.011C494.332 571.757 513.694 552.092 522.76 527.113L533.148 498.539C534.469 494.912 537.881 492.536 541.661 492.536C545.472 492.536 548.852 494.944 550.173 498.539ZM259.686 6.02329L270.074 34.5975C279.17 59.5766 298.502 79.2408 323.057 88.495L351.147 99.0618C354.712 100.406 357.048 103.876 357.048 107.721C357.048 111.598 354.681 115.037 351.147 116.381L323.057 126.948C298.502 136.201 279.14 155.897 270.074 180.845L259.686 209.419C258.396 213.046 254.984 215.453 251.174 215.453C247.363 215.453 243.982 213.046 242.661 209.419L232.273 180.845C223.177 155.866 203.845 136.171 179.29 126.948L151.2 116.381C147.635 115.037 145.269 111.566 145.269 107.721C145.269 103.876 147.666 100.406 151.2 99.0618L179.29 88.495C203.845 79.2416 223.207 59.5766 232.273 34.5975L242.661 6.02329C243.982 2.39675 247.394 0.0208063 251.174 0.0208063C254.984 0.0208063 258.365 2.42804 259.686 6.02329ZM78.118 6.02329L84.6333 23.8747C89.9809 38.5367 101.321 50.1039 115.735 55.5126L133.283 62.109C136.848 63.4534 139.215 66.9235 139.215 70.7998C139.215 74.6764 136.848 78.1153 133.283 79.4282L115.735 86.056C101.321 91.4958 89.9503 103.063 84.6333 117.694L78.118 135.545C76.7965 139.172 73.4159 141.579 69.6053 141.579C65.8252 141.579 62.4138 139.172 61.1233 135.545L54.6079 117.694C49.2604 103.063 37.8893 91.4958 23.5066 86.056L5.95792 79.4282C2.39296 78.1152 0.0264672 74.6449 0.0264672 70.7998C0.0264672 66.9232 2.39288 63.4843 5.95792 62.109L23.5066 55.5126C37.92 50.0728 49.291 38.5367 54.6079 23.8747L61.1233 6.02329C62.4448 2.39675 65.8254 0.0208063 69.6053 0.0208063C73.4161 0.0208063 76.7968 2.42804 78.118 6.02329Z" fill="black"/>
</svg>
