<svg width="660" height="821" viewBox="0 0 660 821" fill="none" xmlns="http://www.w3.org/2000/svg">
<path d="M165 0C127.255 0 93.7807 21.7739 69.4577 51.5913C45.1348 81.4106 29.1176 120.473 29.1176 160.63C29.6719 170.942 38.9666 178.261 46.1029 183.498C65.5947 190.877 86.9495 183.659 103.428 177.084C125.742 168.141 147.848 156.496 158.327 152.264C172.533 152.925 190.336 157.727 203.824 164.814C211.343 168.193 218.899 175.171 223.235 179.873V249.869C213.017 249.869 202.367 249.869 192.298 249.869C182.755 250.699 174.665 258.905 174.706 267.717V302.019C69.6009 352.934 0 454.792 0 571.131C0 671.815 51.2267 762.102 134.062 817.376C137.354 819.67 141.458 820.96 145.588 821H514.412C518.407 821 522.388 819.795 525.634 817.654C609.532 762.492 660 672.378 660 571.131C660 452.562 583.286 351.28 475.588 301.461V267.717C475.587 258.372 466.34 249.87 456.177 249.869H427.059V180.431L436.461 146.129C470.207 246.088 563.974 266.767 572.647 258.793C572.647 241.563 491.294 207.55 494.393 124.935H572.647C582.811 124.934 592.058 116.432 592.059 107.087V17.8478C592.058 8.5027 582.811 0.000892391 572.647 0H165ZM514.412 35.6956H553.235V89.2391H514.412V35.6956ZM262.059 196.326H388.235V249.869H262.059V196.326ZM198.667 330.185H308.162C300.283 391.016 301.172 441.39 309.071 486.632C217.661 471.287 123.402 474.782 46.4058 509.221C65.971 430.487 122.26 365.079 198.667 330.185ZM346.985 330.185H451.627C539.497 368.412 605.03 444.936 618.447 536.55C532.746 539.185 442.193 513.074 348.805 494.162C339.164 448.088 337.932 396.359 346.985 330.185Z" fill="black"/>
</svg>
