<svg width="688" height="762" viewBox="0 0 688 762" fill="none" xmlns="http://www.w3.org/2000/svg">
<path d="M664.326 411.366L570.358 232.941C567.976 228.423 564.317 224.623 559.79 221.967C555.263 219.312 550.047 217.905 544.725 217.904H372.795C369.031 217.902 365.304 218.604 361.826 219.971C358.349 221.337 355.189 223.341 352.528 225.867C349.867 228.394 347.756 231.394 346.317 234.695C344.877 237.997 344.138 241.536 344.14 245.109V276.989C344.015 319.017 326.439 359.302 295.226 389.104C253.302 429.131 229.693 483.238 229.52 539.686V679.748C229.547 701.555 238.683 722.461 254.925 737.881C271.167 753.3 293.187 761.974 316.157 762H601.364C624.333 761.974 646.353 753.3 662.595 737.881C678.837 722.461 687.973 701.555 688 679.748V506.609C687.947 473.554 679.845 440.957 664.326 411.366Z" fill="black"/>
<path d="M114.76 109.085C109.065 109.085 103.498 107.481 98.7623 104.478C94.027 101.474 90.3363 97.2041 88.1569 92.2088C85.9775 87.2135 85.4073 81.7169 86.5183 76.4139C87.6294 71.1109 90.3718 66.2398 94.3989 62.4166C98.4259 58.5934 103.557 55.9897 109.142 54.9349C114.728 53.8801 120.518 54.4214 125.779 56.4906C131.041 58.5597 135.538 62.0636 138.702 66.5592C141.866 71.0549 143.555 76.3403 143.555 81.7472C143.533 88.9912 140.492 95.9325 135.097 101.055C129.701 106.177 122.39 109.064 114.76 109.085Z" fill="black"/>
<path d="M28.7949 54.6751C23.0998 54.6751 17.5326 53.0718 12.7973 50.0679C8.06201 47.064 4.3713 42.7945 2.19189 37.7992C0.0124725 32.8039 -0.557756 27.3073 0.553299 22.0043C1.66435 16.7013 4.40679 11.8302 8.43383 8.007C12.4609 4.18377 17.5916 1.58012 23.1773 0.525295C28.7629 -0.52953 34.5526 0.0118461 39.8142 2.08096C45.0757 4.15008 49.5729 7.654 52.7369 12.1496C55.9009 16.6453 57.5897 21.9307 57.5897 27.3376C57.5679 34.5816 54.5271 41.5229 49.1318 46.6452C43.7364 51.7675 36.425 54.6544 28.7949 54.6751Z" fill="black"/>
<path d="M28.7949 163.494C23.0998 163.494 17.5326 161.891 12.7973 158.887C8.06201 155.883 4.3713 151.614 2.19189 146.618C0.0124725 141.623 -0.557756 136.126 0.553299 130.823C1.66435 125.521 4.40679 120.649 8.43383 116.826C12.4609 113.003 17.5916 110.399 23.1773 109.345C28.7629 108.29 34.5526 108.831 39.8142 110.9C45.0757 112.969 49.5729 116.473 52.7369 120.969C55.9009 125.464 57.5897 130.75 57.5897 136.157C57.5679 143.401 54.5271 150.342 49.1318 155.464C43.7364 160.587 36.425 163.474 28.7949 163.494Z" fill="black"/>
<path d="M313.657 163.494H372.795V190.699H544.725V160.678C570.196 155.595 593.643 143.802 612.381 126.652C631.118 109.501 644.388 87.6868 650.67 63.7071L658.478 34.0582C659.533 30.0489 659.613 25.8638 658.71 21.821C657.807 17.7781 655.946 13.9838 653.267 10.7262C650.588 7.46857 647.163 4.8334 643.251 3.02082C639.339 1.20825 635.043 0.265947 630.69 0.265495H288.789C284.467 0.26826 280.201 1.19444 276.308 2.97537L217.039 30.1802C212.192 32.4092 208.105 35.889 205.244 40.221C202.384 44.553 200.866 49.5622 200.865 54.6751V109.085C200.865 114.137 202.347 119.089 205.145 123.387C207.942 127.685 211.944 131.159 216.703 133.42L257.336 152.708C255.387 169.961 249.466 186.595 239.992 201.434C230.519 216.272 217.725 228.951 202.516 238.574L184.971 249.679C181.8 251.643 179.071 254.185 176.941 257.158C174.811 260.13 173.323 263.474 172.562 266.995C171.801 270.517 171.783 274.147 172.509 277.675C173.235 281.203 174.69 284.56 176.79 287.551C178.891 290.542 181.595 293.108 184.746 295.101C187.897 297.094 191.434 298.475 195.15 299.163C198.867 299.85 202.69 299.832 206.399 299.109C210.108 298.385 213.629 296.971 216.759 294.948L234.305 283.843C255.766 270.273 273.94 252.525 287.621 231.775C301.302 211.025 310.178 187.75 313.657 163.494Z" fill="black"/>
</svg>
