<svg width="774" height="826" viewBox="0 0 774 826" fill="none" xmlns="http://www.w3.org/2000/svg">
<path d="M750.419 281.191C750.419 280.545 750.457 279.94 750.57 279.335V205.931L26.9093 205.891V281.191C26.9093 319.023 55.7079 349.795 91.1194 349.795C126.532 349.795 155.329 319.021 155.329 281.191C155.329 275.141 159.902 270.261 165.496 270.261C171.127 270.261 175.662 275.141 175.662 281.191C175.662 319.023 204.461 349.795 239.872 349.795C275.285 349.795 304.083 319.021 304.083 281.191C304.083 275.141 308.656 270.261 314.249 270.261C319.88 270.261 324.416 275.141 324.416 281.191C324.416 319.023 353.214 349.795 388.626 349.795C424.038 349.795 452.836 319.021 452.836 281.191C452.836 275.141 457.409 270.261 463.002 270.261C468.633 270.261 473.169 275.141 473.169 281.191C473.169 319.023 501.967 349.795 537.379 349.795C572.791 349.795 601.589 319.021 601.589 281.191C601.589 275.141 606.162 270.261 611.755 270.261C617.386 270.261 621.922 275.141 621.922 281.191C621.922 319.023 650.72 349.795 686.132 349.795C721.62 349.795 750.419 319.021 750.419 281.191Z" fill="black"/>
<path d="M611.834 324.184C597.511 352.417 569.544 371.615 537.458 371.615C505.372 371.615 477.405 352.417 463.081 324.184C448.757 352.417 420.791 371.615 388.705 371.615C356.619 371.615 328.652 352.417 314.328 324.184C300.004 352.417 272.038 371.615 239.952 371.615C207.865 371.615 179.899 352.417 165.575 324.184C151.251 352.417 123.285 371.615 91.1985 371.615C82.9218 371.615 74.9097 370.284 67.3128 367.904V645.874H710.284L710.209 367.863C702.575 370.283 694.525 371.614 686.21 371.614C654.124 371.614 626.158 352.417 611.834 324.184ZM309.907 394.079C314.139 390.126 320.602 390.61 324.268 395.208L332.696 405.654C336.362 410.212 335.908 417.109 331.638 421.061C329.71 422.836 327.329 423.723 324.986 423.723C322.114 423.723 319.28 422.432 317.276 419.932L308.849 409.486C305.145 404.928 305.636 398.031 309.907 394.079ZM237.193 428.966C242.938 428.159 247.814 432.596 248.456 438.565L249.93 452.52C250.572 458.489 246.566 463.935 240.973 464.58C240.557 464.62 240.179 464.661 239.801 464.661C234.699 464.661 230.277 460.547 229.71 454.981L228.236 441.026C227.594 435.057 231.6 429.611 237.193 428.966ZM160.057 416.382L168.296 405.775C171.887 401.137 178.312 400.492 182.62 404.404C186.928 408.276 187.533 415.133 183.905 419.771L175.666 430.377C173.663 432.959 170.753 434.29 167.843 434.29C165.538 434.29 163.232 433.443 161.343 431.749C157.034 427.917 156.429 421.02 160.057 416.382ZM97.019 418.318L105.258 407.711C108.848 403.073 115.273 402.468 119.582 406.34C123.89 410.212 124.457 417.068 120.867 421.706L112.628 432.313C110.625 434.895 107.715 436.226 104.805 436.226C102.499 436.226 100.194 435.379 98.3042 433.685C93.9958 429.853 93.3908 422.956 97.019 418.318ZM88.5533 506C87.6841 500.031 91.5012 494.465 97.0945 493.578L109.529 491.521C115.084 490.634 120.262 494.707 121.131 500.636C122 506.605 118.183 512.171 112.59 513.058L100.156 515.115C99.6265 515.195 99.0974 515.236 98.606 515.236C93.6552 515.276 89.3095 511.404 88.5533 506ZM120.905 599.207L112.666 609.813C110.663 612.395 107.753 613.726 104.843 613.726C102.537 613.726 100.232 612.879 98.3422 611.185C94.0338 607.313 93.4291 600.456 97.0573 595.818L105.296 585.211C108.886 580.573 115.312 579.928 119.62 583.84C123.928 587.712 124.495 594.569 120.905 599.207ZM181.449 579.041C179.862 583.316 176.044 585.897 172.001 585.897C170.753 585.897 169.468 585.655 168.221 585.091L156.468 580.049C151.253 577.831 148.721 571.458 150.799 565.852C152.878 560.246 158.811 557.504 164.027 559.802L175.78 564.844C180.995 567.103 183.565 573.435 181.449 579.041ZM189.574 514.63C189.196 514.671 188.781 514.711 188.403 514.711C183.301 514.711 178.879 510.597 178.312 505.031L176.838 491.076C176.195 485.107 180.201 479.702 185.795 479.017C191.312 478.21 196.415 482.606 197.057 488.616L198.531 502.571C199.174 508.54 195.168 513.945 189.574 514.63ZM253.671 604.087C252.084 608.362 248.267 610.944 244.223 610.944C242.976 610.944 241.691 610.702 240.444 610.177L228.69 605.136C223.475 602.918 220.905 596.545 223.021 590.939C225.1 585.333 231.071 582.59 236.249 584.849L248.002 589.89C253.218 592.149 255.75 598.481 253.671 604.087ZM256.997 529.594L244.11 532.135C243.467 532.256 242.863 532.297 242.258 532.297C237.42 532.297 233.15 528.626 232.242 523.383C231.222 517.455 234.888 511.768 240.406 510.678L253.293 508.138C258.924 507.008 264.139 510.961 265.16 516.89C266.181 522.818 262.553 528.505 256.997 529.594ZM315.16 581.542C313.573 585.817 309.756 588.398 305.712 588.398C304.465 588.398 303.18 588.156 301.933 587.632L290.179 582.59C284.964 580.372 282.394 573.999 284.51 568.393C286.589 562.787 292.56 560.085 297.738 562.303L309.491 567.345C314.707 569.603 317.239 575.935 315.16 581.542ZM336.816 487.084L328.577 497.691C326.574 500.273 323.664 501.644 320.716 501.644C318.411 501.644 316.105 500.837 314.215 499.143C309.907 495.271 309.302 488.414 312.893 483.776L321.132 473.17C324.722 468.531 331.147 467.886 335.455 471.758C339.839 475.589 340.406 482.446 336.816 487.084ZM370.867 563.473L358.433 565.53C357.903 565.61 357.374 565.651 356.883 565.651C351.932 565.651 347.586 561.779 346.83 556.374C345.96 550.405 349.778 544.839 355.371 543.952L367.805 541.895C373.361 540.968 378.539 545.082 379.407 551.01C380.277 557.02 376.46 562.586 370.867 563.473ZM380.58 471.637C379.71 465.668 383.527 460.102 389.121 459.215L401.555 457.158C407.073 456.19 412.289 460.344 413.157 466.273C414.027 472.242 410.209 477.808 404.616 478.695L392.182 480.752C391.653 480.833 391.124 480.873 390.632 480.873C385.681 480.914 381.374 477.042 380.58 471.637ZM412.931 604.489L404.692 615.096C402.689 617.677 399.779 619.048 396.831 619.048C394.526 619.048 392.22 618.242 390.331 616.548C386.022 612.676 385.418 605.819 389.008 601.181L397.247 590.574C400.837 585.936 407.262 585.29 411.571 589.162C415.955 592.954 416.521 599.851 412.931 604.489ZM431.865 538.828C429.937 540.603 427.556 541.49 425.213 541.49C422.341 541.49 419.507 540.199 417.503 537.699L409.076 527.253C405.41 522.695 405.863 515.798 410.134 511.846C414.405 507.893 420.83 508.377 424.495 512.975L432.923 523.421C436.589 528.019 436.098 534.916 431.865 538.828ZM434.85 412.626L426.612 423.233C424.609 425.814 421.699 427.185 418.751 427.185C416.445 427.185 414.14 426.378 412.25 424.685C407.942 420.813 407.337 413.956 410.927 409.318L419.166 398.711C422.757 394.073 429.182 393.427 433.49 397.299C437.836 401.131 438.441 407.988 434.85 412.626ZM475.743 401.494L486.929 394.638C491.842 391.613 498.04 393.468 500.837 398.711C503.633 403.955 501.933 410.609 497.058 413.594L485.871 420.45C484.284 421.418 482.546 421.902 480.845 421.902C477.292 421.902 473.891 419.926 472.001 416.417C469.167 411.134 470.867 404.479 475.743 401.494ZM482.734 590.287C481.223 591.134 479.598 591.537 477.973 591.537C474.307 591.537 470.792 589.44 468.978 585.729L462.969 573.509C460.323 568.185 462.251 561.571 467.202 558.747C472.19 555.924 478.35 557.981 480.958 563.305L486.968 575.525C489.575 580.849 487.685 587.463 482.734 590.287ZM507.338 486.676C505.751 490.951 501.934 493.532 497.89 493.532C496.643 493.532 495.358 493.29 494.11 492.766L482.357 487.724C477.142 485.506 474.572 479.133 476.688 473.527C478.767 467.921 484.738 465.179 489.916 467.437L501.669 472.479C506.885 474.737 509.417 481.069 507.338 486.676ZM537.648 609.77L525.214 611.827C524.684 611.908 524.155 611.948 523.664 611.948C518.713 611.948 514.367 608.076 513.611 602.672C512.741 596.703 516.559 591.137 522.152 590.25L534.586 588.193C540.142 587.265 545.32 591.379 546.188 597.308C547.02 603.317 543.203 608.883 537.648 609.77ZM543.846 541.166L531.412 543.223C530.883 543.303 530.353 543.344 529.862 543.344C524.911 543.344 520.565 539.472 519.809 534.067C518.94 528.098 522.757 522.532 528.35 521.645L540.784 519.588C546.34 518.661 551.518 522.774 552.387 528.703C553.218 534.672 549.402 540.238 543.846 541.166ZM557.3 446.426C552.349 446.426 548.003 442.554 547.247 437.149C546.377 431.18 550.195 425.614 555.788 424.727L568.222 422.67C573.74 421.783 578.956 425.857 579.824 431.785C580.694 437.755 576.877 443.32 571.283 444.207L558.849 446.264C558.32 446.385 557.791 446.426 557.3 446.426ZM595.433 559.722L588.593 571.701C586.665 575.048 583.339 576.944 579.9 576.944C578.086 576.944 576.272 576.42 574.609 575.331C569.809 572.185 568.298 565.49 571.208 560.327L578.048 548.348C580.996 543.226 587.27 541.573 592.032 544.719C596.869 547.864 598.381 554.6 595.433 559.722ZM612.894 367.181C618.638 366.375 623.552 370.811 624.156 376.78L625.63 390.736C626.273 396.705 622.266 402.15 616.673 402.795C616.257 402.836 615.88 402.876 615.502 402.876C610.4 402.876 605.978 398.762 605.411 393.196L603.937 379.241C603.294 373.272 607.3 367.867 612.894 367.181ZM614.783 502.738C609.379 502.738 604.844 498.181 604.617 492.292C604.352 486.283 608.736 481.161 614.329 480.918L627.217 480.313C632.772 479.95 637.609 484.71 637.837 490.719C638.101 496.728 633.717 501.85 628.124 502.093L615.237 502.698C615.086 502.738 614.934 502.738 614.783 502.738ZM630.354 613.412C629.938 613.452 629.56 613.492 629.183 613.492C624.081 613.492 619.659 609.378 619.092 603.813L617.618 589.857C616.975 583.888 620.981 578.443 626.575 577.798C632.357 577.032 637.195 581.428 637.837 587.397L639.311 601.352C639.954 607.321 635.947 612.726 630.354 613.412ZM680.165 568.805L667.731 570.862C667.201 570.942 666.672 570.983 666.181 570.983C661.23 570.983 656.884 567.111 656.128 561.706C655.258 555.737 659.076 550.171 664.669 549.284L677.103 547.227C682.621 546.259 687.837 550.413 688.705 556.342C689.537 562.311 685.72 567.877 680.165 568.805ZM688.479 457.605L680.241 468.211C678.238 470.793 675.327 472.164 672.417 472.164C670.112 472.164 667.807 471.317 665.917 469.623C661.609 465.751 661.004 458.894 664.594 454.256L672.833 443.649C676.423 439.011 682.849 438.366 687.157 442.238C691.503 446.11 692.07 453.007 688.479 457.605Z" fill="black"/>
<path d="M71.7372 764.09H702.315V826H71.7372V764.09Z" fill="black"/>
<path d="M65.1582 742.274H708.807C744.748 742.274 774 710.935 774 672.419V667.7H0V672.419C0 710.936 29.2543 742.274 65.1582 742.274Z" fill="black"/>
<path d="M669.014 110.467C669.014 70.9017 626.799 22.906 602.46 0C578.122 22.9091 535.907 70.9037 535.907 110.467C535.907 149.791 565.763 181.773 602.46 181.773C639.158 181.773 669.014 149.79 669.014 110.467Z" fill="black"/>
<path d="M453.445 110.467C453.445 70.9017 411.23 22.906 386.892 0C362.553 22.9091 320.338 70.9037 320.338 110.467C320.338 149.791 350.194 181.773 386.892 181.773C423.589 181.773 453.445 149.79 453.445 110.467Z" fill="black"/>
<path d="M237.876 110.467C237.876 70.9017 195.661 22.906 171.323 0C146.985 22.9091 104.77 70.9037 104.77 110.467C104.77 149.791 134.626 181.773 171.323 181.773C208.02 181.773 237.876 149.79 237.876 110.467Z" fill="black"/>
</svg>
