<svg width="753" height="838" viewBox="0 0 753 838" fill="none" xmlns="http://www.w3.org/2000/svg">
<path d="M368.929 36.0699C361.017 24.1969 370.451 8.24163 379.137 0C377.382 10.7081 384.958 23.5918 391.285 28.0643C392.955 29.5118 394.627 31.0546 394.715 31.8263C395.166 35.3941 389.679 41.997 386.002 43.3032V38.8665C386.128 27.9324 371.538 25.6497 368.929 36.0699ZM391.636 90.7533H362.769V169.741H391.636V90.7533ZM453.944 260.977C451.129 254.708 447.784 246.992 444.792 246.992C441.8 246.992 438.368 254.708 435.64 260.977C430.975 271.489 424.726 285.859 410.645 285.859C396.476 285.859 390.138 271.489 385.563 260.977C382.835 254.708 379.402 246.992 376.41 246.992C373.418 246.992 369.985 254.708 367.258 260.977C362.593 271.489 356.345 285.859 342.263 285.859C328.093 285.859 321.757 271.489 317.18 260.977C314.365 254.708 311.019 246.992 308.028 246.992C305.035 246.992 301.603 254.708 298.874 260.976C291.761 281.421 273.256 297.486 256.455 275.443V324.533H496.629V275.25C479.798 297.306 461.022 281.744 453.944 260.977ZM256.455 236.962C253.907 212.087 268.337 189.237 292.186 189.03H460.897C484.516 189.111 499.227 212.117 496.629 236.769C490.267 243.721 486.043 263.666 478.939 266.571C475.946 266.571 472.515 258.855 469.786 252.587C457.573 219.305 431.929 219.319 419.798 252.586C412.269 270.748 409.053 270.999 401.404 252.586C396.739 242.074 390.403 227.704 376.41 227.704C362.329 227.704 355.992 242.074 351.416 252.586C348.687 258.855 345.256 266.571 342.263 266.571C339.183 266.571 335.75 258.759 333.021 252.586C328.358 242.074 322.02 227.704 308.028 227.704C293.946 227.704 287.61 242.074 283.033 252.586C280.305 258.855 276.873 266.571 273.879 266.571C266.94 263.837 262.604 243.835 256.455 236.962ZM397.708 220.663C414.954 215.319 416.031 234.131 427.367 222.978C430.535 218.927 430.006 212.755 426.311 209.379C425.694 208.8 410.645 195.299 391.988 202.435C381.107 206.536 386.774 224.79 397.708 220.663ZM322.989 220.663C340.256 215.335 341.268 234.113 352.647 222.978C355.728 218.927 355.288 212.851 351.592 209.379C350.887 208.8 335.926 195.299 317.182 202.435C306.361 206.567 312.083 224.783 322.989 220.663ZM180.24 405.739V385.582C180.24 362.532 197.313 343.822 218.348 343.822H534.736C555.682 343.822 572.843 362.532 572.843 385.582V405.932C551.69 386.057 533.162 407.302 525.496 429.271C520.127 441.423 516.255 449.331 510.975 449.331C505.694 449.331 501.733 441.327 496.453 429.175C481.159 387.635 450.945 387.796 435.815 429.27C425.211 455.806 417.314 455.693 406.773 429.272C391.546 387.707 361.237 387.665 346.046 429.27C335.448 455.759 327.549 455.773 317.004 429.272C301.77 387.741 271.521 387.612 256.278 429.271C250.91 441.423 247.037 449.331 241.758 449.331C236.477 449.331 232.605 441.423 227.322 429.272C219.498 407.616 201.441 386.058 180.24 405.739ZM487.212 375.166C504.457 369.913 505.589 388.628 516.871 377.481C520.039 373.43 519.511 367.354 515.814 363.882C515.199 363.304 500.149 349.801 481.492 357.034C470.569 361.136 476.372 379.392 487.212 375.166ZM355.816 382.882C356.696 387.414 360.305 390.501 364.353 390.5C383.293 388.706 392.688 365.333 392.339 364.847C396.052 352.891 379.363 346.642 375.706 358.674C375.618 358.771 372.186 369.186 362.593 371.405C357.84 372.562 354.76 377.674 355.816 382.882ZM247.125 371.791C264.383 366.442 265.443 385.284 276.785 374.105C279.865 370.055 279.426 363.979 275.64 360.507C275.025 359.928 260.063 346.426 241.318 353.659C230.385 357.857 236.281 375.998 247.125 371.791ZM572.843 442.966C544.965 372.5 546.608 471.048 510.975 468.62C494.165 468.62 486.596 451.357 480.523 437.565C456.039 377.362 454.75 472.326 421.294 468.62C404.485 468.62 396.915 451.453 390.931 437.565C385.563 425.413 381.69 417.505 376.41 417.505C371.129 417.505 367.17 425.413 361.888 437.565C355.816 451.453 348.247 468.62 331.526 468.62C314.716 468.62 307.236 451.453 301.163 437.565C295.794 425.51 291.922 417.505 286.641 417.505C281.362 417.505 277.401 425.413 272.12 437.565C256.936 478.998 226.705 479.277 211.483 437.662C206.114 425.51 202.242 417.505 196.961 417.505C191.155 416.421 184.785 432.389 180.24 442.581V528.897H572.843V442.966ZM79.998 611.164C78.5391 577.136 103.386 548.092 134.652 548.186H618.344C649.522 548.091 674.462 577.137 672.998 611.164C644.745 620.763 640.261 708.831 613.328 643.955C596.117 597.79 563.557 597.833 546.529 643.955C516.933 713.913 515.512 606.1 478.147 609.525C459.842 609.525 451.481 628.62 444.792 643.953C432.361 675.054 422.192 675.046 409.765 643.955C392.711 597.896 360.006 597.839 343.055 643.953C330.585 675.18 320.365 674.956 307.94 643.859C301.163 628.524 292.802 609.525 274.585 609.525C237.13 606.18 235.928 713.908 206.29 643.955C199.514 628.62 191.153 609.525 172.935 609.525C154.629 609.525 146.268 628.62 139.58 643.955C133.331 658.132 128.755 667.391 122.066 667.391C115.377 667.391 110.801 658.132 104.553 643.955C98.8448 631.155 92.6578 616.871 79.998 611.164ZM551.899 583.774C553.482 588.789 558.587 591.49 563.076 589.753C580.365 584.417 581.387 603.02 592.821 592.068C595.903 587.921 595.462 581.845 591.678 578.47C591.062 577.891 576.013 564.389 557.354 571.526C552.778 573.262 550.314 578.759 551.899 583.774ZM440.215 604.991C459.127 603.219 468.562 579.906 468.203 579.434C471.847 567.528 455.487 561.433 451.569 573.069C451.481 573.551 447.96 583.774 438.455 585.992C428.234 588.185 429.983 605.1 440.215 604.991ZM311.812 580.399C313.396 585.414 318.413 588.114 322.989 586.378C340.118 581.032 341.291 599.627 352.647 588.693C355.728 584.546 355.288 578.47 351.592 575.094C350.975 574.516 335.926 561.013 317.18 568.15C312.604 569.886 310.14 575.383 311.812 580.399ZM215.971 606.921C216.851 611.453 220.46 614.539 224.507 614.539C243.419 612.768 252.854 589.453 252.495 588.982C256.139 577.076 239.779 570.981 235.861 582.617C235.685 583.099 232.252 593.322 222.748 595.54C217.995 596.601 214.915 601.713 215.971 606.921ZM138.084 589.85C138.084 589.753 146.004 582.81 155.333 586.378C159.91 588.114 164.927 585.51 166.511 580.399C168.094 575.383 165.718 569.886 161.054 568.15C142.308 561.013 127.347 574.516 126.731 575.094C117.947 583.213 129.206 597.859 138.084 589.85ZM672.998 635.082C672.91 635.082 672.91 635.082 672.91 635.179C669.334 640.616 667.141 645.9 664.285 652.249C647.117 698.366 614.547 698.364 597.486 652.346C591.238 638.168 586.573 628.813 579.885 628.813C573.196 628.813 568.619 638.072 562.371 652.249C545.135 698.459 512.705 698.331 495.66 652.249C489.412 638.072 484.835 628.813 478.147 628.813C471.458 628.813 466.882 638.072 460.633 652.249C443.393 698.416 411.023 698.394 393.923 652.25C381.488 621.152 371.334 621.151 358.896 652.248C341.829 698.35 309.111 698.323 292.098 652.249C285.85 638.072 281.274 628.813 274.585 628.813C267.896 628.813 263.32 638.072 257.159 652.249C240.093 698.263 207.477 698.441 190.449 652.249C184.2 638.072 179.624 628.813 172.935 628.813C166.246 628.813 161.67 638.072 155.422 652.249C148.645 667.583 140.284 686.68 122.066 686.68C96.5468 685.878 91.9509 653.574 80.0861 635.179C79.998 635.179 79.998 635.082 79.998 635.082V780.134H672.998V635.082ZM0 799.423C4.04803 821.411 21.9139 838 43.2112 838H709.873C731.17 838 748.948 821.411 752.997 799.423C754.764 799.423 27.1126 799.423 0 799.423Z" fill="black"/>
</svg>
