<svg width="503" height="826" viewBox="0 0 503 826" fill="none" xmlns="http://www.w3.org/2000/svg">
<path d="M502.869 27.5334C502.869 12.3552 486.755 0 466.958 0H36.0308C16.2346 0 0.120198 12.3552 0.120198 27.5334C0.658858 30.4933 -1.18155 87.935 1.51169 87.832C36.3904 151.056 53.8516 215.481 53.986 283.87V578.199C53.986 616.161 94.2507 647.033 143.763 647.033V702.1C143.763 709.706 151.798 715.866 161.718 715.866H179.673V798.467C179.673 813.645 195.788 826 215.584 826H287.405C307.201 826 323.316 813.645 323.316 798.467V715.866H341.271C351.191 715.866 359.226 709.706 359.226 702.1V647.033C408.738 647.033 449.003 616.161 449.003 578.199V283.87C449.362 216.034 466.464 150.987 501.432 88.0082C504.216 85.9776 502.33 30.4938 502.869 27.5334ZM323.316 688.335H179.673V647.035H323.316V688.335ZM413.092 578.201C413.092 600.985 388.942 619.501 359.226 619.501H143.763C114.047 619.501 89.8968 600.985 89.8968 578.201V523.134H413.092V578.201ZM143.757 399.239C120.235 398.963 120.101 372.015 143.757 371.705H359.221C369.141 371.705 377.176 377.866 377.176 385.472C377.176 393.078 369.141 399.239 359.221 399.239H143.757ZM323.31 440.539C323.31 448.145 315.275 454.305 305.355 454.305H197.623C187.703 454.305 179.668 448.145 179.668 440.539C179.668 432.933 187.703 426.772 197.623 426.772H305.355C315.275 426.772 323.31 432.933 323.31 440.539ZM435.62 151.442H67.3093C61.1147 133.133 53.7977 114.72 44.6402 96.3757H458.239C449.081 114.754 441.72 133.167 435.57 151.442H435.62Z" fill="black"/>
</svg>
