<svg width="819" height="700" viewBox="0 0 819 700" fill="none" xmlns="http://www.w3.org/2000/svg">
<path d="M685.124 433.333H559.126C551.251 433.333 543.376 441.667 543.376 450C543.376 458.333 551.251 466.667 559.126 466.667H685.124C692.999 466.667 700.874 458.333 700.874 450C700.874 441.667 692.999 433.333 685.124 433.333ZM685.124 433.333H559.126C551.251 433.333 543.376 441.667 543.376 450C543.376 458.333 551.251 466.667 559.126 466.667H685.124C692.999 466.667 700.874 458.333 700.874 450C700.874 441.667 692.999 433.333 685.124 433.333ZM803.25 366.667H441C433.125 366.667 425.25 375 425.25 383.333V683.333C425.25 691.667 433.125 700 441 700H803.25C811.125 700 819 691.667 819 683.333V383.333C819 375 811.125 366.667 803.25 366.667ZM685.124 500H559.126C532.351 500 511.876 476.667 511.876 450C511.876 421.667 532.35 400 559.126 400H685.124C711.898 400 732.373 421.666 732.373 450C732.373 476.667 711.899 500 685.124 500ZM685.124 433.333H559.126C551.251 433.333 543.376 441.667 543.376 450C543.376 458.333 551.251 466.667 559.126 466.667H685.124C692.999 466.667 700.874 458.333 700.874 450C700.874 441.667 692.999 433.333 685.124 433.333ZM259.874 433.333H133.876C126.001 433.333 118.126 441.667 118.126 450C118.126 458.333 126.001 466.667 133.876 466.667H259.874C267.749 466.667 275.624 458.333 275.624 450C275.624 441.667 267.749 433.333 259.874 433.333ZM259.874 433.333H133.876C126.001 433.333 118.126 441.667 118.126 450C118.126 458.333 126.001 466.667 133.876 466.667H259.874C267.749 466.667 275.624 458.333 275.624 450C275.624 441.667 267.749 433.333 259.874 433.333ZM378 366.667H15.7498C7.8749 366.667 0 375 0 383.333V683.333C0 691.667 7.8749 700 15.7498 700H378C385.875 700 393.75 691.667 393.75 683.333V383.333C393.75 375 385.875 366.667 378 366.667ZM259.874 500H133.876C107.102 500 86.6264 476.667 86.6264 450C86.6264 421.667 107.101 400 133.876 400H259.874C286.648 400 307.124 421.666 307.124 450C307.124 476.667 286.649 500 259.874 500ZM259.874 433.333H133.876C126.001 433.333 118.126 441.667 118.126 450C118.126 458.333 126.001 466.667 133.876 466.667H259.874C267.749 466.667 275.624 458.333 275.624 450C275.624 441.667 267.749 433.333 259.874 433.333ZM259.874 433.333H133.876C126.001 433.333 118.126 441.667 118.126 450C118.126 458.333 126.001 466.667 133.876 466.667H259.874C267.749 466.667 275.624 458.333 275.624 450C275.624 441.667 267.749 433.333 259.874 433.333ZM259.874 433.333H133.876C126.001 433.333 118.126 441.667 118.126 450C118.126 458.333 126.001 466.667 133.876 466.667H259.874C267.749 466.667 275.624 458.333 275.624 450C275.624 441.667 267.749 433.333 259.874 433.333ZM614.242 0H204.747C196.873 0 188.998 8.33333 188.998 16.6667V316.667C188.998 325 196.873 333.333 204.747 333.333H614.242C622.117 333.333 629.992 325 629.992 316.667V16.6667C629.992 8.33333 622.117 0 614.242 0ZM472.499 133.333H346.501C319.727 133.333 299.251 110 299.251 83.3333C299.251 55.0005 319.726 33.3333 346.501 33.3333H472.499C499.273 33.3333 519.749 54.9995 519.749 83.3333C519.749 110 499.274 133.333 472.499 133.333ZM472.499 66.6667H346.501C338.626 66.6667 330.751 75 330.751 83.3333C330.751 91.6667 338.626 100 346.501 100H472.499C480.374 100 488.249 91.6667 488.249 83.3333C488.249 75 480.374 66.6667 472.499 66.6667Z" fill="black"/>
</svg>
