<svg width="530" height="550" viewBox="0 0 530 550" fill="none" xmlns="http://www.w3.org/2000/svg">
<path d="M494.43 211.375L503.742 194.497C508.423 185.971 509.69 175.862 507.268 166.367C504.847 156.872 498.933 148.756 490.81 143.784L433.464 109.26V80.1177C433.465 75.2453 432.546 70.4203 430.759 65.9185C428.973 61.4167 426.353 57.3263 423.051 53.881C419.748 50.4357 415.827 47.7029 411.512 45.839C407.197 43.975 402.572 43.0163 397.901 43.0177H377.636C355.406 5.49106 334.141 1.18746 301.538 29.7675L260.27 4.93011C252.09 0.0368319 242.386 -1.27801 233.279 1.27315C224.173 3.82432 216.405 10.0339 211.676 18.5437L198.151 43.0174H131.182C126.512 43.0161 121.887 43.9748 117.572 45.8388C113.257 47.7027 109.336 50.4355 106.033 53.8808C102.731 57.3261 100.111 61.4165 98.3244 65.9183C96.5377 70.4201 95.6187 75.245 95.62 80.1174V185.19L14.6579 246.325C7.04464 252.116 1.93641 260.815 0.448073 270.521C-1.04026 280.227 1.21214 290.154 6.71372 298.134L34.6538 338.41L25.3414 355.288C20.661 363.814 19.3939 373.923 21.8154 383.418C24.2368 392.913 30.1512 401.028 38.2741 406.001L95.62 440.525V469.667C95.6188 474.54 96.5379 479.364 98.3246 483.866C100.111 488.368 102.731 492.458 106.033 495.903C109.336 499.349 113.257 502.082 117.572 503.946C121.887 505.81 126.512 506.768 131.182 506.767H151.448C173.673 544.28 194.933 548.61 227.546 520.017L268.814 544.854C276.996 549.738 286.697 551.047 295.8 548.496C304.904 545.946 312.672 539.743 317.408 531.241L330.933 506.767H397.901C402.572 506.769 407.197 505.81 411.512 503.946C415.827 502.082 419.748 499.349 423.051 495.904C426.353 492.459 428.973 488.368 430.759 483.866C432.546 479.365 433.465 474.54 433.464 469.667V364.595L514.426 303.46C522.039 297.669 527.147 288.971 528.636 279.264C530.124 269.557 527.872 259.631 522.37 251.651L494.43 211.375ZM47.1774 389.942C43.1198 387.448 40.168 383.386 38.9621 378.637C37.7561 373.888 38.3933 368.834 40.7353 364.572L46.0814 354.883L87.0573 413.95L47.1774 389.942ZM95.62 394.659L21.1349 287.283C18.3784 283.294 17.2467 278.329 17.9868 273.472C18.727 268.615 21.2789 264.261 25.0854 261.36L95.62 208.1V394.659ZM327.106 33.3711C330.94 30.5083 335.705 29.3461 340.359 30.1388C345.012 30.9316 349.175 33.6146 351.938 37.6011L355.694 43.0177H314.321L327.106 33.3711ZM227.065 27.8278C229.43 23.5663 233.317 20.4556 237.875 19.1757C242.434 17.8959 247.292 18.5512 251.388 20.9983L285.75 41.6786L283.975 43.0174H218.67L227.065 27.8278ZM140.073 469.667C137.738 469.631 135.51 468.638 133.871 466.903C132.232 465.167 131.313 462.829 131.313 460.392C131.313 457.956 132.232 455.618 133.871 453.882C135.51 452.147 137.738 451.154 140.073 451.117H175.636C177.971 451.154 180.198 452.147 181.837 453.882C183.477 455.618 184.395 457.956 184.395 460.392C184.395 462.829 183.477 465.167 181.837 466.903C180.198 468.638 177.971 469.631 175.636 469.667H140.073ZM201.978 516.413C198.143 519.274 193.378 520.435 188.725 519.642C184.073 518.85 179.91 516.168 177.146 512.183L173.39 506.767H214.762L201.978 516.413ZM302.019 521.957C299.653 526.217 295.766 529.328 291.208 530.607C286.65 531.887 281.792 531.232 277.695 528.786L243.334 508.106L245.109 506.767H310.414L302.019 521.957ZM352.381 288.526C327.174 337.797 267.334 339.703 264.542 339.817C261.765 339.735 201.899 337.773 176.702 288.526C174.035 283.332 151.542 236.865 177.68 204.031C197.703 177.145 242.645 175.565 264.542 197.26C286.488 175.591 331.305 177.053 351.403 204.033C377.542 236.865 355.048 283.332 352.381 288.526ZM389.011 98.6671H353.448C351.113 98.631 348.885 97.6379 347.246 95.9025C345.607 94.167 344.688 91.8285 344.688 89.3922C344.688 86.9558 345.607 84.6173 347.246 82.8818C348.885 81.1464 351.113 80.1533 353.448 80.1172H389.011C391.347 80.1508 393.577 81.1427 395.219 82.8785C396.86 84.6143 397.78 86.9543 397.78 89.3923C397.78 91.8303 396.86 94.1703 395.219 95.9061C393.577 97.6418 391.347 98.6335 389.011 98.6671ZM481.906 159.842C485.964 162.336 488.916 166.398 490.122 171.147C491.328 175.897 490.69 180.95 488.348 185.213L483.002 194.902L442.026 135.835L481.906 159.842ZM503.998 288.424L433.464 341.685V155.126L507.949 262.502C510.705 266.491 511.837 271.456 511.097 276.313C510.357 281.17 507.805 285.523 503.998 288.424Z" fill="black"/>
</svg>
