<svg width="566" height="679" viewBox="0 0 566 679" fill="none" xmlns="http://www.w3.org/2000/svg">
<path d="M436.059 0H129.917C58.1813 0 0 50.7481 0 113.256V632.431C0 670.83 50.4375 692.668 85.4939 669.416L282.983 538.596L480.506 669.446C515.562 692.698 566 670.861 566 632.461V113.287C566 50.7504 507.787 0 436.049 0H436.059ZM437.952 264.733L395.527 305.313C391.267 309.351 389.273 314.685 390.016 320.166L397.014 374.716C399.888 397.408 373.249 414.324 349.315 404.835L291.981 382.261C286.234 379.962 279.709 379.962 273.963 382.261L216.662 404.835C192.762 414.324 166.089 397.408 168.963 374.716L175.961 320.166C176.704 314.714 174.71 309.351 170.45 305.313L128.025 264.733C110.243 247.817 120.52 220.527 146.314 215.841L207.907 204.82C214.026 203.729 219.3 200.34 222.444 195.655L253.613 147.972C266.493 127.991 299.555 127.991 312.435 147.972L343.604 195.655C346.747 200.34 351.987 203.729 358.14 204.82L419.734 215.841C445.46 220.527 455.734 247.817 437.952 264.733Z" fill="black"/>
</svg>
