<svg width="813" height="822" viewBox="0 0 813 822" fill="none" xmlns="http://www.w3.org/2000/svg">
<path fill-rule="evenodd" clip-rule="evenodd" d="M813 712.4C813 690.582 804.43 669.69 789.186 654.278C773.942 638.865 753.279 630.2 731.7 630.2H81.3C59.7215 630.2 39.0578 638.865 23.8142 654.278C8.57054 669.69 0 690.582 0 712.4V794.6C0 809.739 12.1269 822 27.1 822H785.9C800.873 822 813 809.739 813 794.6V712.4ZM108.4 602.8H704.6V575.4C704.6 553.582 696.03 532.69 680.786 517.277C665.542 501.865 644.879 493.2 623.3 493.2H189.7C168.121 493.2 147.458 501.865 132.214 517.277C116.971 532.69 108.4 553.582 108.4 575.4V602.8ZM216.8 465.8H596.2V438.4C596.2 392.984 559.818 356.2 514.9 356.2H298.1C253.182 356.2 216.8 392.984 216.8 438.4V465.8ZM384.889 10.6172C390.106 3.90413 398.066 0 406.502 0C414.937 0 422.897 3.90448 428.114 10.6172C442.68 29.4202 460.634 52.6423 469.103 63.5681C472.254 67.6438 476.488 70.7606 481.298 72.5412C494.204 77.302 521.609 87.4056 543.797 95.6257C551.724 98.5369 557.855 105.01 560.464 113.093C563.106 121.211 561.852 130.081 557.144 137.137C543.967 156.933 527.673 181.388 520.017 192.93C517.138 197.246 515.512 202.246 515.343 207.418C514.868 221.323 513.784 250.778 512.971 274.617C512.666 283.145 508.5 291.057 501.657 296.057C494.814 301.058 486.108 302.633 478.012 300.27C455.315 293.728 427.267 285.611 414.056 281.809C409.11 280.37 403.927 280.37 398.981 281.809C385.77 285.611 357.722 293.728 335.025 300.27C326.929 302.633 318.189 301.058 311.38 296.057C304.537 291.057 300.371 283.11 300.066 274.617C299.219 250.778 298.169 221.29 297.695 207.418C297.525 202.246 295.899 197.211 293.02 192.93C285.364 181.388 269.07 156.933 255.893 137.137C251.185 130.081 249.931 121.177 252.574 113.093C255.182 104.976 261.313 98.5024 269.24 95.6257C291.395 87.4399 318.834 77.3365 331.739 72.5412C336.55 70.7602 340.784 67.6777 343.934 63.5681C352.403 52.6423 370.39 29.3869 384.923 10.6172H384.889Z" fill="black"/>
</svg>
