<svg width="818" height="694" viewBox="0 0 818 694" fill="none" xmlns="http://www.w3.org/2000/svg">
<path d="M308.831 0.0108425H41.0443C18.3692 0.0108425 0 19.7776 0 44.0224V170.5C0 194.9 18.3692 214.666 41.0443 214.666H308.831C308.831 214.666 308.867 49.5067 308.831 0.0108425Z" fill="black"/>
<path d="M776.953 0.0108582H509.166C509.166 31.3599 509.13 204.932 509.166 214.667H772.076C796.329 217.022 818.143 197.14 817.999 170.501V44.0234C817.999 19.7786 799.628 0.0108582 776.953 0.0108582Z" fill="black"/>
<path d="M398.519 161.999C403.972 155.822 414.018 155.822 419.471 161.999C433.212 177.596 467.08 216.473 480.462 231.646V0H337.531C337.567 28.8396 337.531 231.646 337.531 231.646C350.734 216.59 384.885 177.557 398.519 161.999Z" fill="black"/>
<path d="M375.558 353.341L370.822 337.589L366.086 353.341C363.216 362.915 354.748 369.555 345.277 369.555H329.921L342.407 379.284C350.013 385.152 353.314 395.808 350.3 405.536L345.564 421.133L358.05 411.404C365.584 405.459 376.06 405.459 383.594 411.404L396.08 421.133L391.344 405.536C388.33 395.807 391.631 385.152 399.237 379.284L411.723 369.555H396.367C386.896 369.555 378.571 362.915 375.558 353.341Z" fill="black"/>
<path d="M94.9947 409.547L140.056 381.75H80.3563C70.9926 381.789 62.7402 375.689 60.1216 366.925L45.9139 329.709V449.544C48.82 450.239 105.327 485.68 105.327 485.68L86.2409 435.491C82.5096 425.917 86.0972 414.952 94.9947 409.547Z" fill="black"/>
<path d="M509.166 245.543V270.56C509.561 284.111 492.878 291.292 484.483 281.215L408.996 195.044L333.509 281.215C325.186 291.291 308.395 284.072 308.826 270.56V245.543H45.9158V269.324C53.5218 271.641 57.9706 278.474 60.2668 286.157L85.0937 350.862H172.491C192.833 350.051 201.803 379.045 183.972 390.241L115.949 432.245L141.206 498.494C144.363 506.216 142.498 515.327 136.327 521.35C129.295 528.144 118.532 529.612 110.352 524.438L45.9162 484.596V644.272C45.9162 671.759 66.7249 693.997 92.1259 693.997H237.068L238.217 689.519C230.503 682.376 191.324 645.584 182.822 637.631C176.221 631.763 173.781 621.416 176.938 612.151C179.952 603.348 187.128 597.634 195.451 597.634H261.322L282.274 514.707C287.046 493.087 315.999 493.126 320.447 515.17L341.399 597.635H407.126C415.306 597.635 422.625 603.194 425.639 611.842C428.796 620.953 426.5 631.455 419.898 637.632L375.985 678.555L364.361 689.365L365.509 693.998H725.859C751.403 693.998 772.068 671.76 772.068 644.273V545.281L737.626 522.735L670.751 566.593C655.359 577.557 632.685 560.802 639.466 541.421L663.719 474.554L599.713 432.704C591.82 427.608 588.376 418.033 590.672 409.077C593.255 399.657 601.291 393.325 611.051 393.325H692.995L718.11 324.45C723.563 305.61 753.09 306.498 757.718 325.839L772.069 365.527V245.533L509.166 245.543ZM422.056 459.577C414.306 465.599 403.973 465.599 396.367 459.577L370.823 439.656L345.279 459.577C337.744 465.522 327.268 465.522 319.734 459.577C311.985 453.554 308.828 443.053 311.698 433.325L321.456 401.05L295.912 381.129C288.306 375.106 285.149 364.45 288.019 354.876C291.033 345.148 299.357 338.662 308.828 338.662H340.4L350.015 306.387C353.029 296.658 361.353 290.172 370.824 290.172C380.295 290.172 388.619 296.658 391.633 306.387L401.391 338.662H432.82C442.291 338.662 450.615 345.148 453.629 354.876C456.499 364.451 453.342 375.107 445.736 381.129L420.191 401.05L429.95 433.325C432.82 443.054 429.662 453.555 422.056 459.577ZM608.191 532.003C611.061 541.577 607.904 552.233 600.298 558.255L574.754 578.176L584.512 610.451C587.383 620.026 584.225 630.681 576.619 636.703C568.798 642.61 558.717 642.687 550.931 636.703L525.387 616.782L499.842 636.703C492.093 642.726 481.904 642.571 474.154 636.703C466.548 630.68 463.39 620.025 466.261 610.451L476.019 578.176L450.475 558.255C442.869 552.232 439.712 541.577 442.582 532.003C445.596 522.274 453.92 515.634 463.391 515.634H494.82L504.578 483.513C507.592 473.784 515.916 467.144 525.387 467.144C534.858 467.144 543.361 473.862 546.196 483.513L555.954 515.634H587.383C596.854 515.634 605.178 522.275 608.191 532.003Z" fill="black"/>
<path d="M530.126 530.312L525.39 514.715L520.654 530.312C517.64 540.041 509.316 546.527 499.845 546.527H484.49L496.975 556.256C504.581 562.278 507.882 572.934 504.868 582.663L500.132 598.26L512.618 588.531C520.152 582.585 530.628 582.585 538.162 588.531L550.648 598.26L545.912 582.508C542.898 572.779 546.199 562.277 553.805 556.256L566.291 546.527H550.935C541.32 546.527 532.996 540.041 530.126 530.312Z" fill="black"/>
<path d="M334.374 628.523C325.476 628.523 317.87 622.037 315.287 612.308L301.367 557.178L287.447 612.154C284.863 622.037 277.257 628.523 268.36 628.523H216.84L260.61 669.446C266.673 675.816 269.508 685.352 266.781 694H335.952L335.665 693.073C333.405 685.198 335.701 675.7 341.406 670.064L385.75 628.523L334.374 628.523Z" fill="black"/>
<path d="M757.73 410.783C757.73 410.397 737.674 355.845 737.638 355.343L717.69 410.319C714.677 418.658 706.783 424.217 698.173 424.217H642.06L684.97 452.323C693.294 457.111 697.025 467.92 693.294 477.959L675.498 527.376L726.3 494.019C742.553 483.093 758.375 501.625 772.08 509.153V423.6C765.622 421.902 760.169 417.114 757.73 410.783Z" fill="black"/>
</svg>
