<svg width="824" height="826" viewBox="0 0 824 826" fill="none" xmlns="http://www.w3.org/2000/svg">
<path d="M793.543 330.744H605.998C571.766 330.822 544.007 357.565 543.967 390.631V818.191C543.926 820.26 544.776 822.251 546.314 823.735C547.811 825.218 549.915 825.999 552.06 825.999H793.542C795.687 825.999 797.791 825.218 799.288 823.735C800.826 822.251 801.675 820.26 801.635 818.191V338.552C801.635 334.257 797.994 330.744 793.543 330.744ZM676.562 386.454H605.912V518.756C605.912 523.09 602.27 526.564 597.819 526.564C593.328 526.564 589.726 523.09 589.726 518.756V378.638C589.767 374.344 593.368 370.869 597.819 370.83H676.603H676.562C681.053 370.83 684.655 374.344 684.655 378.638C684.655 382.933 681.053 386.454 676.562 386.454ZM527.572 192.387C533.561 197.853 537.041 205.349 537.283 213.313C537.486 221.238 534.41 228.929 528.745 234.668L436.366 328.363C430.54 334.297 422.446 337.693 413.949 337.732H249.059L198.439 437.479C193.421 447.707 182.82 454.383 171.045 454.657H29.2551C12.8272 453.72 0 440.603 0 424.713C0 408.824 12.8272 395.707 29.2551 394.77H151.944L202.443 295.023V295.062C207.46 284.638 218.183 277.884 230.08 277.65H400.108L483.301 193.208V193.247C489.006 187.391 496.937 183.995 505.273 183.838C513.568 183.682 521.624 186.766 527.572 192.387ZM774.679 174.586H774.639C770.35 178.568 768.408 184.346 769.46 190.007L778.523 241.227C780.749 253.602 775.448 266.095 764.928 273.513C754.367 280.891 740.406 281.828 728.914 276.011L681.207 251.846C675.947 249.152 669.635 249.152 664.374 251.846L616.667 276.011C605.175 281.945 591.135 280.969 580.654 273.513C570.094 266.134 564.833 253.602 567.058 241.227L576.244 190.007H576.203C577.174 184.346 575.273 178.607 571.024 174.586L532.381 138.24L532.421 138.279C523.034 129.534 519.634 116.456 523.64 104.51C527.646 92.5638 538.329 83.8579 551.197 82.0619L605.135 74.5663C611.002 73.7075 616.1 70.1158 618.73 64.9625L642.564 18.3099V18.3489C648.31 7.0665 660.206 -0.0383403 673.235 0.000636917C686.224 -0.0774374 698.16 7.02772 703.866 18.3489L727.82 65.0016V64.9625C730.369 70.1548 735.427 73.7465 741.295 74.5663L766.342 78.0018L794.708 82.0619C807.616 83.8187 818.338 92.5248 822.345 104.471C826.351 116.417 822.952 129.534 813.604 138.279L774.679 174.586ZM527.769 818.189V427.867H364.412C330.139 427.946 302.421 454.688 302.34 487.754V818.181C302.34 822.475 305.982 825.989 310.433 825.989H529.582C528.449 823.53 527.842 820.875 527.761 818.181L527.769 818.189ZM434.986 484.125L364.417 484.086V588.205C364.417 592.499 360.775 596.012 356.324 596.012C351.833 596.012 348.232 592.499 348.232 588.205V476.28C348.232 471.986 351.833 468.472 356.324 468.472H434.986C439.437 468.472 443.079 471.986 443.079 476.28C443.079 480.613 439.437 484.088 434.986 484.088L434.986 484.125ZM286.162 818.189V610.81H122.929C88.6564 610.849 60.9385 637.631 60.8577 670.658V818.192C60.8577 820.261 61.667 822.252 63.2046 823.736C64.7422 825.219 66.8059 826 68.9505 826H287.696C286.724 823.501 286.203 820.844 286.162 818.189ZM193.379 670.975H122.81V721.376C122.81 725.67 119.168 729.184 114.717 729.184C110.266 729.184 106.625 725.67 106.625 721.376V662.855C106.625 658.561 110.266 655.047 114.717 655.047H193.379C197.83 655.047 201.472 658.561 201.472 662.855C201.472 667.149 197.83 670.663 193.379 670.663L193.379 670.975Z" fill="black"/>
</svg>
