<svg width="832" height="734" viewBox="0 0 832 734" fill="none" xmlns="http://www.w3.org/2000/svg">
<path d="M219.506 315.061H361.9V733.996H116.523C77.1599 733.914 45.2695 700.561 45.2302 659.396V315.062H203.781V403.356C200.4 404.919 197.647 407.592 195.799 410.923L183.529 437.037V436.996C183.333 437.49 182.861 437.778 182.389 437.778L154.902 442.055C148.453 443.042 143.105 447.771 141.099 454.269C139.055 460.767 140.706 467.882 145.346 472.652L165.283 492.926C165.48 493.337 165.48 493.831 165.283 494.242L160.565 522.865C159.464 529.651 162.177 536.519 167.486 540.549C172.794 545.155 180.265 545.936 186.361 542.523L211.016 529.035C211.37 528.747 211.881 528.747 212.274 529.035L236.891 542.523C239.368 543.88 242.081 544.62 244.873 544.579C248.609 544.62 252.305 543.428 255.373 541.207C260.603 537.094 263.238 530.308 262.176 523.523L257.457 494.9C257.221 494.53 257.221 493.995 257.457 493.584L277.394 473.31C282.152 468.539 283.843 461.343 281.798 454.763C279.832 448.265 274.406 443.536 267.957 442.59L240.391 438.314H240.352C239.919 438.272 239.486 437.985 239.329 437.573L227.257 410.925C225.606 407.512 222.932 404.757 219.707 403.029L219.506 315.061ZM569.637 77.5322C573.137 75.147 577.855 76.0928 580.293 79.6706C582.732 83.2483 582.063 88.1833 578.76 90.8975L536.802 121.946H669.129L643.962 53.7205C634.761 28.5526 614.47 9.55303 589.499 2.72572C564.568 -4.10095 537.986 2.06774 518.128 19.2987L465.71 64.2473V121.945H510.382L569.637 77.5322ZM203.771 139.178V138.397H71.3333C52.3404 138.438 34.1337 146.375 20.764 160.481C7.35512 174.545 -0.116409 193.668 0.00137168 213.532V290.27C0.00137168 292.491 0.787832 294.588 2.28209 296.151C3.77639 297.673 5.78189 298.536 7.86601 298.495H203.775L203.771 139.178ZM450.406 73.3789H381.591V121.865H450.367L450.406 73.3789ZM253.279 90.8151H253.24C249.937 88.1009 249.269 83.1249 251.707 79.5472C254.145 75.9694 258.863 75.0235 262.363 77.4088L321.938 121.289H365.862V64.249L313.445 19.3003C293.586 2.06942 267.043 -4.0999 242.074 2.72741C217.103 9.55408 196.852 28.5533 187.611 53.7222L162.444 121.948H294.882L253.279 90.8151ZM760.703 138.314L219.385 138.272V139.054V298.614H824.134C826.218 298.655 828.224 297.791 829.718 296.229C831.212 294.707 831.999 292.569 831.999 290.389V213.527C832.117 193.664 824.645 174.542 811.236 160.476C797.866 146.371 779.66 138.433 760.667 138.392L760.703 138.314ZM470.107 734H715.484C754.847 733.918 786.737 700.566 786.776 659.401V315.067H470.107V734ZM377.619 734H454.378V315.066H377.619V734ZM266.452 461.139C266.766 460.687 266.766 460.07 266.452 459.618C266.373 459.042 265.862 458.59 265.311 458.631L237.746 454.765C232.162 453.901 227.325 450.2 224.848 444.895L212.461 418.781V418.822C211.871 417.835 210.534 417.835 209.944 418.822L197.557 444.936V444.895C195.237 450.077 190.676 453.737 185.288 454.765L157.801 458.919L157.84 458.96C157.25 458.919 156.778 459.371 156.66 459.947C156.306 460.399 156.306 461.016 156.66 461.468L176.597 481.866C180.608 485.978 182.457 491.859 181.513 497.658L176.912 526.075C176.833 526.609 177.069 527.185 177.541 527.473C177.974 527.802 178.564 527.802 178.996 527.473L203.652 513.984C208.646 511.229 214.622 511.229 219.577 513.984L244.233 527.473C244.665 527.802 245.255 527.802 245.688 527.473C246.16 527.185 246.395 526.609 246.317 526.075L241.598 497.328C240.654 491.53 242.502 485.608 246.553 481.537L266.452 461.139Z" fill="black"/>
</svg>
