<svg width="842" height="814" viewBox="0 0 842 814" fill="none" xmlns="http://www.w3.org/2000/svg">
<path d="M551.248 809.45C584.912 798.375 605.15 769.981 621.381 747.024C629.797 735.344 638.413 723.463 645.827 717.824C653.642 712.186 667.869 707.755 681.495 703.325C708.146 694.666 741.008 684.194 761.647 655.8C782.086 627.406 781.886 592.77 781.886 564.98C781.886 550.279 781.886 535.176 784.891 525.711C787.496 517.254 796.113 505.574 804.529 494.297C821.16 471.541 842 443.147 842 406.899C842 370.853 821.16 342.459 804.529 319.703C796.113 308.426 787.496 296.747 784.891 288.289C781.886 278.824 781.886 263.721 781.886 249.02C781.886 221.029 782.086 186.594 761.647 158.2C741.008 129.806 708.146 119.133 681.495 110.675C667.869 106.245 653.642 101.613 645.827 95.9744C638.413 90.5373 629.797 78.4547 621.381 66.7749C605.15 44.0194 584.912 15.6253 551.248 4.54962C518.585 -6.12332 487.526 4.14687 460.074 13.2088C445.847 17.8404 431.42 22.6735 421 22.6735C410.781 22.6735 396.153 17.8404 382.126 13.2088C354.674 4.14687 323.615 -6.12332 290.953 4.54962C257.289 15.6253 237.05 44.0194 220.619 66.7749C212.404 78.4547 203.787 90.5373 196.373 95.9744C188.558 101.613 174.331 106.245 160.505 110.675C134.055 119.133 101.192 129.806 80.5531 158.2C60.1142 186.594 60.1142 221.029 60.3146 249.02C60.3146 263.721 60.3146 278.824 57.3089 288.289C54.5036 296.747 45.8872 308.426 37.6716 319.703C20.8396 342.459 0 370.853 0 406.899C0 443.147 20.8396 471.541 37.6716 494.297C45.8872 505.574 54.5036 517.254 57.3089 525.711C60.3146 535.176 60.3146 550.279 60.3146 564.98C60.1142 592.77 60.1142 627.406 80.5531 655.599C101.192 684.194 134.055 694.666 160.505 703.325C174.331 707.755 188.558 712.186 196.373 717.824C203.787 723.463 212.404 735.344 220.619 747.024C237.05 769.981 257.289 798.375 290.953 809.45C323.615 820.123 354.674 809.853 382.126 800.791C396.153 796.16 410.781 791.327 421 791.327C431.42 791.327 445.847 796.16 460.074 800.791C479.11 807.034 500.15 813.881 521.992 813.881C531.61 813.881 541.228 812.672 551.248 809.45ZM272.919 568.202L290.151 467.514L217.413 396.226C206.392 385.553 202.585 369.443 207.194 354.944C212.003 340.244 224.426 329.772 239.655 327.557L340.046 312.857L385.132 221.23C391.945 207.537 405.771 198.676 421 198.676C436.229 198.676 450.256 207.537 457.069 221.23L501.954 312.857L602.545 327.557C617.574 329.772 630.198 340.244 634.806 354.944C639.615 369.443 635.608 385.553 624.787 396.226L552.049 467.514L569.081 568.202C571.686 583.305 565.475 598.609 553.251 607.47C540.828 616.532 524.597 617.74 510.971 610.692L421 563.167L331.029 610.692C325.218 613.713 318.806 615.122 312.394 615.122C304.178 615.122 295.962 612.706 288.949 607.47C276.525 598.609 270.314 583.305 272.919 568.202Z" fill="black"/>
</svg>
