<svg width="825" height="822" viewBox="0 0 825 822" fill="none" xmlns="http://www.w3.org/2000/svg">
<path d="M395.543 5.41483L240.449 89.6544H311.423C346.862 89.6544 375.926 116.979 375.926 150.298V200.226L480.398 143.532L480.408 143.522C500.953 132.326 508.043 107.487 496.124 88.0506L454.554 20.3101L454.544 20.2901C446.356 6.99859 431.301 -0.338804 415.981 0.0120276C409.019 0.162384 402.004 1.90652 395.543 5.41483Z" fill="black"/>
<path d="M311.519 269.21C335.326 269.21 354.496 250.776 354.496 228.483V150.178C354.496 127.765 335.348 109.772 311.519 109.772H43.3178C19.4786 109.772 0 127.795 0 150.178V228.493C0 250.756 19.4999 269.22 43.3178 269.22L311.519 269.21ZM208.124 178.164C210.149 175.508 213.422 173.954 216.898 173.984H227.89L231.227 163.96C232.464 160.292 235.833 157.615 239.895 157.064C240.343 157.034 240.78 157.034 241.228 157.064C245.908 156.984 250.098 159.781 251.559 163.96L254.896 173.984H266.229C272.114 173.924 276.944 178.365 277.008 183.908C277.04 187.175 275.387 190.253 272.562 192.157L263.564 198.111L266.901 208.135C268.734 213.398 265.675 219.061 260.077 220.775C256.858 221.767 253.329 221.256 250.578 219.412L241.58 213.147L232.581 219.412C227.784 222.629 221.131 221.577 217.708 217.066C215.747 214.47 215.203 211.162 216.258 208.135L219.596 198.111L210.597 192.157C205.789 188.92 204.691 182.655 208.124 178.164ZM60.8667 178.164C62.8924 175.508 66.1654 173.954 69.6411 173.984H80.9743L84.3114 163.96C85.5481 160.292 88.9172 157.615 92.9792 157.064C93.3097 157.054 93.6509 157.054 93.9814 157.064C98.7791 156.844 103.15 159.66 104.643 163.96L107.98 173.984H118.972C124.857 173.924 129.687 178.365 129.751 183.908C129.783 187.175 128.13 190.253 125.305 192.157L116.307 198.111L119.644 208.135C121.477 213.398 118.418 219.061 112.82 220.775C109.601 221.767 106.072 221.256 103.321 219.412L94.3225 213.147L85.3242 219.412C80.5265 222.629 73.8737 221.577 70.4514 217.066C68.4897 214.47 67.9459 211.162 69.0014 208.135L72.3385 198.111L63.3401 192.157C58.5211 188.92 57.423 182.655 60.8667 178.164Z" fill="black"/>
<path d="M491.091 160.873L491.081 160.883L375.936 223.361V228.584C375.936 253.483 359.645 275.104 336.574 284.386C336.424 349.089 333.61 389.685 334.207 420.599C401.748 388.783 485.036 411.748 523.342 474.065C546.211 511.334 548.141 554.796 532.309 592.045C552.033 601.627 574.646 612.293 600.031 624.151L738.108 399.198C653.221 359.514 615.394 338.755 587.088 307.46C558.771 276.146 541.403 236.673 494.279 159.009C493.234 159.66 492.179 160.282 491.091 160.873Z" fill="black"/>
<path d="M311.423 289.227H43.3924C42.0917 289.227 40.8017 289.177 39.5223 289.107C39.3624 354.362 37.6992 402.436 37.1981 440.395C112.735 444.505 172.93 503.475 172.93 575.516C172.93 618.718 151.319 657.179 117.874 682.018C129.921 699.63 143.653 719.236 159.475 741.619L398.752 611.792C346.297 537.455 324.558 501.831 316.679 461.556C308.779 421.18 314.782 378.89 315.219 289.117C313.961 289.187 312.703 289.227 311.423 289.227Z" fill="black"/>
<path d="M626.088 636.3C694.119 667.965 777.183 641.552 810.745 577.601L810.756 577.591C842.943 516.446 818.688 442.39 757.064 408.41L619.168 633.072C621.556 634.185 623.657 635.167 626.088 636.3Z" fill="black"/>
<path d="M397.174 426.302C379.327 426.483 361.309 430.362 344.389 438.22C372.205 483.277 392.771 509.018 429.169 534.749C450.226 549.624 476.911 564.54 513.289 582.693C525.923 551.418 524.014 515.323 504.855 484.099C481.826 446.62 440.012 425.861 397.174 426.302Z" fill="black"/>
<path d="M106.349 665.018C133.93 643.818 151.607 611.721 151.607 575.516C151.607 514.291 101.071 464.463 37.0488 460.473C37.0808 493.251 38.648 518.2 44.0961 541.535C52.4547 577.27 70.1635 610.869 106.349 665.018Z" fill="black"/>
<path d="M366.703 800.338C366.714 800.338 366.714 800.338 366.703 800.338C427.09 762.519 445.481 687.07 410.266 628.692L171.309 758.339C172.77 760.394 174.124 762.318 175.617 764.423C217.698 823.724 303.63 839.902 366.703 800.338Z" fill="black"/>
</svg>
