<svg width="829" height="832" viewBox="0 0 829 832" fill="none" xmlns="http://www.w3.org/2000/svg">
<path d="M822.18 755.598C831.574 775.646 827.395 799.442 811.749 815.072C796.104 830.701 772.358 834.784 752.422 825.243L676.6 789.604H676.637C672.42 787.488 667.464 787.488 663.284 789.604C614.387 817.447 559.129 832.075 502.942 832C490.736 832 478.531 831.332 466.399 829.995C379.184 819.526 299.846 774.308 246.216 704.516C272.365 710.159 299.033 713.092 325.774 713.203C340.31 713.24 354.845 712.423 369.271 710.753C454.673 700.692 534.271 662.38 595.523 601.829C656.776 541.278 696.166 461.942 707.481 376.408C712.844 333.492 711.105 289.945 702.302 247.583C764.292 295.288 807.016 363.929 822.544 440.777C838.079 517.587 825.355 597.477 786.779 665.676C784.596 669.982 784.596 675.106 786.779 679.412L822.18 755.598ZM353.89 259.099L325.779 205.343L297.669 259.099C290.05 273.8 276.254 284.269 260.09 287.61L200.911 299.49L243.52 347.901C254.061 359.595 259.017 375.299 257.131 390.965L249.438 455.116L301.515 429.277C316.828 421.74 334.729 421.74 350.042 429.277L402.119 455.116L394.426 390.965C392.577 375.373 397.422 359.706 407.741 347.901L450.645 299.49L391.466 287.61C375.303 284.269 361.509 273.8 353.89 259.099ZM555.988 96.0512C481.201 20.7256 374.532 -13.319 270.149 4.76205C165.739 22.8412 76.6297 90.7794 31.2844 186.894C-14.0248 283.006 -9.91921 395.275 42.3069 487.785C44.3781 491.98 44.3781 496.955 42.3069 501.149L6.79953 577.477C-2.55812 597.487 1.5844 621.246 17.1563 636.876C32.7282 652.505 56.399 656.662 76.3352 647.271L152.38 611.631C156.559 609.552 161.515 609.552 165.694 611.631C214.516 639.401 269.66 653.916 325.771 653.805C338.125 653.842 350.478 653.136 362.757 651.726C444.313 642.407 519.321 602.499 572.809 539.98C626.292 477.5 654.291 397.013 651.147 314.71C648.04 232.368 614.049 154.295 555.978 96.0459L555.988 96.0512ZM459.522 474.123C461.297 489.121 454.751 503.897 442.471 512.621C430.191 521.383 414.139 522.645 400.638 516L325.778 478.578L250.917 516C245.295 518.71 239.118 520.121 232.868 520.158C224.435 520.083 216.187 517.485 209.196 512.733C196.879 503.971 190.333 489.159 192.034 474.123L202.391 384.431L143.804 318.201C134.002 307.174 130.821 291.694 135.445 277.661C140.105 263.628 151.867 253.159 166.292 250.189L249.142 233.558L289.384 156.339C296.411 142.677 310.467 134.064 325.779 134.064C341.092 134.064 355.147 142.677 362.175 156.339L402.416 233.558L485.267 250.189C499.691 253.159 511.453 263.629 516.114 277.661C520.737 291.694 517.556 307.175 507.755 318.201L448.871 384.431L459.522 474.123Z" fill="black"/>
</svg>
