<svg width="820" height="442" viewBox="0 0 820 442" fill="none" xmlns="http://www.w3.org/2000/svg">
<path fill-rule="evenodd" clip-rule="evenodd" d="M262.171 120.403C244.194 78.4718 186.299 78.4718 168.321 120.403L161.595 136.148C160.113 139.601 156.91 141.985 153.227 142.396L136.571 144.082C92.1682 148.686 74.2709 205.251 107.583 235.712L120.076 247.181C122.838 249.689 124.039 253.553 123.279 257.253L119.715 274.067C110.226 318.793 157.111 353.776 195.628 330.673L210.082 322.04C213.285 320.108 217.209 320.108 220.412 322.04L234.866 330.673C273.383 353.776 320.268 318.793 310.779 274.067L307.215 257.253C306.455 253.553 307.656 249.689 310.418 247.181L322.911 235.712C356.223 205.251 338.326 148.686 293.923 144.082L277.267 142.396C273.584 141.985 270.381 139.601 268.899 136.148L262.171 120.403Z" fill="black"/>
<path fill-rule="evenodd" clip-rule="evenodd" d="M0 221C0 98.9449 96.8131 0 216.211 0C249.203 0 280.432 7.56399 308.42 21.0476H487.792C507.651 21.0476 525.709 32.7227 534.236 51.0573L559.5 105.238H680.9C713.13 105.238 742.359 124.436 755.772 154.363L812.426 280.649C837.41 336.392 797.532 399.905 737.514 399.905H343.171C307.536 426.378 263.654 442 216.206 442C96.8151 442 0 343.052 0 221ZM216.211 42.0952C119.558 42.0952 41.2045 122.175 41.2045 221C41.2045 319.825 119.56 399.905 216.211 399.905C312.862 399.905 391.217 319.825 391.217 221C391.217 122.175 312.862 42.0952 216.211 42.0952ZM426.251 168.381C424.529 161.228 422.487 154.198 420.125 147.333H680.892C696.987 147.333 711.642 156.912 718.327 171.875L774.942 298.161C787.474 326.073 767.535 357.809 737.506 357.809H386.007C391.212 351.109 396.017 344.079 400.421 336.762H714.159C737.141 336.762 752.075 312.055 741.785 291.091L696.022 197.487C687.293 179.646 669.477 168.382 649.977 168.382L426.251 168.381Z" fill="black"/>
</svg>
