<svg width="804" height="782" viewBox="0 0 804 782" fill="none" xmlns="http://www.w3.org/2000/svg">
<path fill-rule="evenodd" clip-rule="evenodd" d="M451.047 373.228L372.616 392.71C366.797 394.132 364.75 401.214 368.961 405.395L425.518 461.709C429.729 465.918 437.04 464.098 438.648 458.466L460.522 382.67C462.16 377.01 456.896 371.777 451.047 373.228Z" fill="black"/>
<path fill-rule="evenodd" clip-rule="evenodd" d="M119.175 214.719C123.444 215.999 128.035 220.436 129.38 224.588L131.778 232.068C133.124 236.22 136.311 236.704 138.885 233.149L143.534 226.721C146.108 223.166 151.839 220.322 156.314 220.35L164.414 220.436C168.859 220.492 170.321 217.677 167.631 214.207L162.777 207.921C160.115 204.452 159.092 198.223 160.525 194.127L163.098 186.676C164.531 182.552 162.25 180.333 158.01 181.727L150.348 184.287C146.137 185.68 139.733 184.713 136.165 182.125L129.644 177.432C126.076 174.844 123.21 176.266 123.298 180.618L123.415 188.496C123.444 192.819 120.549 198.422 116.894 200.953L110.314 205.504C106.658 208.007 107.185 211.135 111.454 212.387L119.175 214.719Z" fill="black"/>
<path fill-rule="evenodd" clip-rule="evenodd" d="M263.819 39.6827C266.684 42.4699 270.428 43.8351 274.171 43.8351C277.885 43.8351 281.628 42.4699 284.494 39.6827C290.196 34.1366 290.196 25.1207 284.494 19.5747L275.165 10.5019C269.433 4.92744 260.192 4.92744 254.49 10.5019C248.758 16.048 248.758 25.0354 254.49 30.6099L263.819 39.6827Z" fill="black"/>
<path fill-rule="evenodd" clip-rule="evenodd" d="M245.541 116.062C248.407 118.849 252.15 120.214 255.894 120.214C259.608 120.214 263.351 118.849 266.217 116.062C271.919 110.516 271.919 101.5 266.217 95.9538L256.888 86.881C251.156 81.3065 241.915 81.3065 236.213 86.881C230.481 92.4271 230.481 101.414 236.213 106.989L245.541 116.062Z" fill="black"/>
<path fill-rule="evenodd" clip-rule="evenodd" d="M709.068 432.514L672.455 396.905L704.916 365.335L741.529 400.944L709.068 432.514ZM418.417 86.6677L455.03 122.305L422.57 153.874L385.957 118.238L418.417 86.6677ZM615.167 341.189L647.598 309.59L684.241 345.227L651.78 376.797L615.167 341.189ZM626.923 289.482L594.492 321.081L557.85 285.444L590.31 253.874L626.923 289.482ZM569.635 233.766L537.175 265.336L500.562 229.727L532.993 198.129L569.635 233.766ZM512.318 178.021L479.887 209.619L443.245 173.982L475.734 142.413L512.318 178.021ZM637.597 466.615H628.239C623.268 466.302 616.542 469.743 613.618 473.725L608.354 481.12C605.429 485.386 601.628 484.817 600.166 479.982L597.241 471.45C595.779 466.615 590.515 461.495 585.544 460.073L576.8 457.229C571.799 455.807 571.214 452.394 575.309 449.266L582.941 444.146C587.298 441.302 590.515 434.76 590.515 429.925L590.252 420.824C590.252 415.705 593.44 413.998 597.563 417.127L605.137 422.531C609.231 425.375 616.542 426.513 621.513 425.09L630.286 421.962C635.287 420.54 637.89 423.1 636.135 427.65L633.211 436.183C631.456 441.018 632.626 448.128 635.843 452.081L641.428 459.504C644.323 463.486 642.861 466.615 637.597 466.615ZM463.014 495.056C414.177 517.809 355.69 497.9 332.003 450.403C308.608 402.906 329.078 346.024 377.915 322.986C426.752 300.233 485.239 320.142 508.926 367.639C532.321 415.136 511.85 472.019 463.014 495.056ZM412.188 721.25L375.576 685.641L408.007 654.1L444.619 689.708L412.188 721.25ZM121.508 375.432L158.121 411.069L125.69 442.61L89.0479 407.03L121.508 375.432ZM146.365 462.718L178.796 431.148L215.438 466.785L182.978 498.355L146.365 462.718ZM203.653 518.463L236.113 486.893L272.726 522.53L240.295 554.072L203.653 518.463ZM260.97 574.18L293.401 542.638L330.043 578.247L297.583 609.788L260.97 574.18ZM318.258 629.896L350.719 598.355L387.331 633.992L354.9 665.533L318.258 629.896ZM799.723 417.298L374.932 4.15954C369.23 -1.38651 359.96 -1.38651 354.257 4.15954C348.555 9.73403 348.555 18.7215 354.257 24.2675L397.742 66.5597L365.282 98.1295L324.633 58.6246C318.931 53.0785 309.69 53.0785 303.958 58.6246C298.256 64.1706 298.256 73.1865 303.958 78.7326L354.959 128.306L327.207 155.268L305.654 134.307C299.952 128.732 290.682 128.732 284.979 134.307C279.277 139.853 279.277 148.84 284.979 154.415L312.468 181.178L357.474 225.148C363.293 230.552 363.293 239.653 357.474 245.057C354.813 247.901 351.011 249.323 347.209 249.323C343.408 249.323 339.606 247.901 336.974 245.057L285.798 195.569L131.86 345.284C131.86 345.256 131.831 345.256 131.802 345.256L70.8584 285.956C65.1267 280.41 55.8858 280.41 50.1833 285.956C44.4516 291.502 44.4516 300.518 50.1833 306.064L100.833 355.324L68.3727 386.894L51.5577 370.54C45.826 364.994 36.5851 364.994 30.8826 370.54C25.1509 376.115 25.1509 385.102 30.8826 390.648L429.003 777.848C431.869 780.606 435.583 782 439.326 782C443.07 782 446.813 780.606 449.679 777.848C455.381 772.273 455.381 763.286 449.679 757.74L432.864 741.357L465.295 709.816L482.11 726.17C484.975 728.957 488.719 730.351 492.462 730.351C496.205 730.351 499.948 728.957 502.785 726.17C508.516 720.624 508.516 711.608 502.785 706.062L475.734 679.725C475.705 679.697 475.705 679.668 475.676 679.64C475.647 679.611 475.647 679.611 475.618 679.611L698.716 462.661L725.883 489.083C728.749 491.871 732.492 493.264 736.235 493.264C739.979 493.264 743.722 491.871 746.558 489.083C752.29 483.537 752.29 474.55 746.558 468.975L729.743 452.622L762.204 421.052L779.048 437.406C781.885 440.193 785.628 441.558 789.371 441.558C793.114 441.558 796.857 440.193 799.723 437.406C805.426 431.859 805.426 422.844 799.723 417.298Z" fill="black"/>
<path fill-rule="evenodd" clip-rule="evenodd" d="M31.3856 247.588L24.952 241.331C19.2495 235.728 10.0086 235.757 4.27686 241.303C-1.42562 246.849 -1.42562 255.865 4.27686 261.411L10.7104 267.668C13.5763 270.455 17.3195 271.849 21.0334 271.849C24.7765 271.849 28.5197 270.455 31.3856 267.696C37.0881 262.15 37.0881 253.134 31.3856 247.588Z" fill="black"/>
</svg>
