<svg width="829" height="747" viewBox="0 0 829 747" fill="none" xmlns="http://www.w3.org/2000/svg">
<path d="M118.968 2.70633C115.041 6.44947 114.858 12.6759 118.564 16.6417L155.15 55.3701C155.554 55.7777 155.921 56.0742 156.324 56.3707L167.663 45.5122L170.305 42.955C170.012 42.5473 169.718 42.1767 169.315 41.769L132.729 3.04067C129.022 -0.924865 122.857 -0.998963 118.93 2.74418L118.968 2.70633Z" fill="black"/>
<path d="M466.95 253.127L410.107 307.865L362.953 257.759L348.751 271.398L395.906 321.504L276.711 436.247L243.832 466.489C251.171 465.191 258.51 464.005 265.96 463.042C270.18 462.449 274.363 461.856 278.584 461.374L290.143 450.701L409.516 335.853L528.231 461.678C531.938 462.16 535.681 462.753 539.387 463.271H539.497C546.653 464.272 553.698 465.347 560.744 466.644L544.414 450.152L423.651 322.259L480.604 267.52L466.989 253.178L466.95 253.127Z" fill="black"/>
<path d="M710.909 16.5297L673.625 52.2192L687.129 66.5616L724.413 30.7981C728.34 27.055 728.413 20.8286 724.707 16.8628C721.001 12.8972 714.726 12.8231 710.909 16.5663L710.909 16.5297Z" fill="black"/>
<path d="M24.6543 281.476L101.387 299.969C106.267 301.155 109.79 304.898 110.671 309.938L125.349 388.211C127.514 400.071 135.514 409.262 146.89 413.005C150.23 414.08 153.752 414.599 157.276 414.599C166.376 414.599 175.367 411.041 182.413 404.221L374.225 219.621C380.977 213.098 385.086 204.5 385.674 195.309C386.261 185.933 383.216 177.038 376.977 170.404L252.212 38.166C239.478 24.7126 217.571 24.8245 203.37 38.4625L11.4451 223.177C1.7577 232.479 -2.1691 246.118 1.16962 258.57C4.21542 270.133 13.0224 278.731 24.6553 281.511L24.6543 281.476ZM140.392 219.621L157.309 199.942L148.391 175.445C144.869 165.773 147.327 155.395 154.667 148.279C162.116 141.164 172.464 139.274 181.858 143.239L205.637 153.431L226.004 137.309C234.04 130.972 244.499 130.008 253.489 134.937C262.48 139.792 267.471 149.28 266.59 159.546L264.351 185.452L285.892 199.98C294.296 205.724 298.405 215.582 296.644 225.774C294.772 235.855 287.433 243.564 277.562 245.936L252.315 251.865L245.38 276.955C242.554 286.851 234.518 293.855 224.426 295.153C223.252 295.338 222.077 295.449 220.903 295.449C212.206 295.449 204.17 290.891 199.473 283.108L186.152 260.76L160.318 261.76C150.226 262.057 141.125 256.609 136.722 247.344C132.318 238.041 133.676 227.479 140.355 219.659L140.392 219.621Z" fill="black"/>
<path d="M159.692 241.969L191.288 240.783H191.581C194.994 240.783 198.223 242.562 199.985 245.527L216.315 272.915C217.966 275.769 220.718 275.769 221.782 275.583C222.957 275.472 225.599 274.805 226.48 271.544L235.103 240.82C236.094 237.373 238.81 234.705 242.332 233.89L273.047 226.663C276.276 225.884 277.157 223.29 277.34 222.215C277.524 221.029 277.744 218.25 274.882 216.471L248.644 198.682C245.708 196.606 244.057 193.16 244.35 189.602L247.102 157.766C247.396 154.394 245.157 152.837 244.167 152.318C243.176 151.725 240.644 150.725 238.002 152.8L213.159 172.553C210.406 174.74 206.59 175.222 203.287 173.85L174.223 161.398C171.177 160.101 168.939 161.806 168.168 162.584C167.398 163.362 165.636 165.437 166.81 168.625L177.672 198.57C178.956 202.016 178.259 205.796 175.911 208.465L155.178 232.592C153.013 235.149 153.893 237.818 154.407 238.818C154.884 239.819 156.573 242.266 159.692 241.969Z" fill="black"/>
<path d="M635.868 40.8417C622.364 26.4993 600.456 25.2393 587.135 38.0621L456.198 164.067C442.877 176.927 442.988 199.052 456.602 213.395L639.386 407.189C646.431 414.712 656.009 418.752 665.624 418.752C668.56 418.752 671.605 418.344 674.431 417.566C685.881 414.49 694.394 405.596 697.146 393.847L715.531 316.352C716.705 311.423 720.338 307.865 725.329 306.976L802.832 292.152C814.574 289.965 823.785 281.886 827.382 270.396C831.308 258.129 827.969 244.306 818.684 234.522L635.901 40.8042L635.868 40.8417ZM692.416 252.643C687.536 261.649 678.215 266.689 668.05 265.873L642.325 263.613L628.051 285.256C623.244 292.483 615.538 296.633 607.207 296.633C605.629 296.633 604.088 296.448 602.51 296.151C592.528 294.372 584.786 286.96 582.547 276.88L576.676 251.493L551.832 244.378C542.034 241.598 535.099 233.519 533.741 223.326C532.457 213.135 536.97 203.461 545.777 198.126L567.905 184.672L566.914 158.581C566.511 148.316 572.015 139.124 581.189 134.677C590.4 130.23 600.859 131.712 608.601 138.42L628.087 155.506L652.343 146.5C661.847 142.942 672.196 145.314 679.241 152.837C686.287 160.249 688.159 170.811 684.232 180.299L674.141 204.314L690.103 224.771C696.378 232.888 697.259 243.561 692.452 252.641L692.416 252.643Z" fill="black"/>
<path d="M655.135 211.913C652.897 209.059 652.383 205.279 653.851 201.943L666.071 172.59C667.429 169.514 665.778 167.254 665.007 166.475C664.236 165.697 662.071 163.918 659.025 165.104L629.375 176.074C625.963 177.371 622.22 176.667 619.577 174.295L595.687 153.356C594.403 152.281 593.155 151.984 592.054 151.984C590.99 151.984 590 152.281 589.522 152.577C588.532 153.059 586.183 154.541 586.403 157.914L587.578 189.75C587.688 193.419 585.926 196.754 582.881 198.644L555.762 215.063C552.936 216.841 552.936 219.621 553.12 220.696C553.23 221.882 553.891 224.55 557.12 225.44L587.541 234.149C590.954 235.15 593.523 237.892 594.404 241.45L601.559 272.47C602.257 275.731 604.899 276.62 605.963 276.806C607.137 276.991 609.779 277.102 611.651 274.323L629.265 247.824C631.21 244.859 634.659 243.08 638.256 243.488L669.778 246.267C673.007 246.453 674.659 244.303 675.172 243.302C675.649 242.302 676.75 239.745 674.695 237.076L655.136 211.986L655.135 211.913Z" fill="black"/>
<path d="M188.175 716.349L149.718 673.062C147.553 673.47 145.425 673.655 143.149 673.655C123.187 673.655 105.463 660.128 99.8842 640.744L90.49 607.723L85.0223 588.637L20.3269 602.164C13.7582 603.461 8.69395 608.576 7.29984 615.21C5.94209 621.843 8.58423 628.551 13.9419 632.517L60.326 665.908L20.8776 719.98C16.6575 725.799 16.4741 733.434 20.4006 739.363C23.5198 744.218 28.7307 746.961 34.3088 746.961C35.5932 746.961 36.8408 746.849 38.2353 746.553L101.169 731.729C122.123 726.874 156.948 719.461 188.176 716.311L188.175 716.349Z" fill="black"/>
<path d="M196.762 662.279L171.625 668.209L213.018 714.684H215.77C218.705 714.684 221.531 713.387 223.403 711.015C225.274 708.754 225.935 705.678 225.347 702.825L215.953 658.055C209.495 659.426 203.146 660.834 196.761 662.317L196.762 662.279Z" fill="black"/>
<path d="M783.423 602.204L719.021 588.751L713.553 607.837L704.159 640.858C698.581 660.129 680.857 673.657 660.894 673.657C658.068 673.657 655.206 673.36 652.38 672.767L628.491 697.968L611.574 715.869C643.683 718.945 680.746 726.727 702.69 731.768L765.624 746.592C766.909 746.889 768.156 747 769.551 747C775.019 747 780.229 744.22 783.459 739.403C787.385 733.473 787.165 725.875 782.982 720.019L743.533 665.948L789.808 632.556C795.276 628.591 797.844 621.882 796.45 615.249C795.092 608.615 789.992 603.501 783.423 602.204Z" fill="black"/>
<path d="M607.281 662.279C607.171 662.279 607.098 662.279 606.988 662.168C600.639 660.686 594.254 659.315 587.906 658.017L578.512 702.787C577.925 705.641 578.622 708.717 580.457 710.978C581.814 712.757 583.796 713.943 585.851 714.425L630.07 667.58L607.281 662.243V662.279Z" fill="black"/>
<path d="M655.135 653.2H655.245C657.117 653.681 659.062 653.904 660.933 653.904C665.52 653.904 669.924 652.607 673.741 650.346L673.851 650.235C679.245 647.085 683.428 641.822 685.3 635.3L694.291 603.761L711.024 545.427C712.969 538.497 712.015 531.085 708.382 524.97C704.676 518.929 698.584 514.593 691.759 513.111L592.932 492.653C581.006 490.17 568.969 487.91 556.933 485.945C555.465 485.649 553.887 485.352 552.419 485.241C452.417 468.823 351.617 468.823 251.615 485.241C250.147 485.427 248.679 485.649 247.212 485.945C235.176 487.91 223.139 490.207 211.213 492.653L112.385 513.111C105.523 514.593 99.4682 518.929 95.7622 524.97C92.1292 531.085 91.1752 538.498 93.1201 545.427L109.853 603.761L118.844 635.3C120.422 641.044 123.835 645.677 128.238 648.938C134 653.2 141.448 654.979 148.971 653.2L156.714 651.421L192.42 643.008C192.53 643.008 192.714 642.897 192.824 642.897C199.172 641.415 205.557 640.043 212.016 638.746C336.781 612.47 467.239 612.47 592.004 638.746H592.114C598.463 639.932 604.848 641.415 611.086 642.897C611.269 642.897 611.563 642.897 611.783 643.008L645.947 651.013L655.231 653.2L655.135 653.2Z" fill="black"/>
</svg>
