<svg width="829" height="808" viewBox="0 0 829 808" fill="none" xmlns="http://www.w3.org/2000/svg">
<path d="M566.089 107.349C560.167 89.1686 542.995 77.0486 523.158 77.0486H472.826L457.43 30.3C451.509 12.12 434.041 0 414.5 0C394.959 0 377.491 12.12 371.57 30.3L356.174 77.0486H305.842C286.005 77.0486 268.833 89.1686 262.911 107.349C256.694 125.529 263.504 145.44 279.195 156.694L320.053 185.263L304.361 232.011C298.44 250.191 304.954 270.103 320.645 281.069C328.639 286.84 338.114 289.726 347.292 289.726C356.47 289.726 365.944 286.84 373.938 281.069L414.5 252.5L455.062 281.069C471.05 292.323 492.367 292.323 508.355 281.069C524.046 270.103 530.56 250.191 524.639 232.011L508.947 185.263L549.805 156.694C565.496 145.44 572.306 125.529 566.089 107.349Z" fill="black"/>
<path d="M799.393 750.286H769.786V524.623C769.786 476.72 729.816 438.051 680.964 438.051H611.98V750.286H552.765V432.857C552.765 385.243 512.796 346.286 463.944 346.286H365.056C316.204 346.286 276.235 385.243 276.235 432.857V750.286H217.02V498.94H148.036C99.1839 498.94 59.2143 537.897 59.2143 585.511V750.286H29.6071C13.3232 750.286 0 763.271 0 779.143C0 795.014 13.3232 808 29.6071 808H799.393C815.677 808 829 795.014 829 779.143C829 763.271 815.677 750.286 799.393 750.286Z" fill="black"/>
</svg>
