<svg width="819" height="765" viewBox="0 0 819 765" fill="none" xmlns="http://www.w3.org/2000/svg">
<path fill-rule="evenodd" clip-rule="evenodd" d="M303.333 122.4H525.778V81.6C525.778 64.6996 512.198 51 495.444 51H333.667C316.914 51 303.333 64.6996 303.333 81.6V122.4ZM576.333 122.4V40.8C576.333 18.2672 558.225 0 535.889 0H283.111C260.775 0 242.667 18.2672 242.667 40.8V122.4H171.889V714H647.111V122.4H576.333ZM60.6667 765C49.4979 765 40.4444 755.867 40.4444 744.6V714C18.108 714 0 695.733 0 673.2V163.2C0 140.667 18.108 122.4 40.4444 122.4H131.444V714H111.222V744.6C111.222 755.867 102.169 765 91 765H60.6667ZM728 765C716.831 765 707.778 755.867 707.778 744.6V714H687.556V122.4H778.556C800.892 122.4 819 140.667 819 163.2V673.2C819 695.733 800.892 714 778.556 714V744.6C778.556 755.867 769.502 765 758.333 765H728ZM263.42 238.01C253.108 242.339 248.229 254.281 252.521 264.682L274.003 316.753C278.295 327.154 290.132 332.076 300.444 327.747L352.06 306.075C362.371 301.747 367.251 289.804 362.96 279.404L341.476 227.334C337.184 216.932 325.347 212.009 315.036 216.338L263.42 238.01ZM730.419 245.463C726.127 235.061 731.007 223.119 741.318 218.79L751.798 214.39C762.11 210.061 773.948 214.983 778.239 225.384L782.601 235.958C786.892 246.36 782.012 258.301 771.701 262.631L761.221 267.031C750.91 271.36 739.073 266.437 734.78 256.035L730.419 245.463ZM364 520.2C391.921 520.2 414.556 499.65 414.556 474.3C414.556 448.95 391.921 428.4 364 428.4C336.079 428.4 313.444 448.95 313.444 474.3C313.444 499.65 336.079 520.2 364 520.2ZM530.833 387.6L578.994 471.75H482.673L530.833 387.6ZM113.882 318.75L65.7222 234.6L17.562 318.75H113.882ZM763.389 510L802.793 571.2H723.985L763.389 510ZM530.329 223.316C527.283 213.958 514.161 213.958 511.116 223.316L502.717 249.119C501.354 253.306 497.48 256.137 493.111 256.137H466.161C456.341 256.137 452.285 268.835 460.259 274.619L481.879 290.3C485.46 292.898 486.959 297.537 485.583 301.764L477.282 327.269C474.229 336.648 484.846 344.495 492.791 338.733L514.819 322.755C518.346 320.197 523.098 320.197 526.625 322.755L548.653 338.733C556.598 344.495 567.215 336.648 564.163 327.269L555.861 301.764C554.485 297.537 555.985 292.898 559.565 290.3L581.186 274.619C589.159 268.835 585.104 256.137 575.284 256.137H548.334C543.965 256.137 540.09 253.306 538.727 249.119L530.329 223.316ZM268.467 579.693C271.548 570.411 284.563 570.411 287.644 579.693L291.26 590.59C292.64 594.75 296.501 597.553 300.848 597.553H311.894C321.762 597.553 325.785 610.352 317.721 616.088L309.309 622.073C305.659 624.669 304.13 629.374 305.549 633.646L308.883 643.695C311.983 653.04 301.451 660.948 293.468 655.269L283.883 648.451C280.388 645.965 275.723 645.965 272.228 648.451L262.643 655.269C254.66 660.948 244.128 653.04 247.228 643.695L250.563 633.646C251.981 629.374 250.452 624.669 246.802 622.073L238.39 616.088C230.326 610.352 234.349 597.553 244.217 597.553H255.263C259.61 597.553 263.471 594.75 264.851 590.59L268.467 579.693ZM101.111 609.218V550.8L30.3333 621.736L58.6444 642.6L101.111 609.218ZM586.444 571.664L505.556 642.6V584.182L554.089 550.8L586.444 571.664Z" fill="black"/>
</svg>
