<svg width="813" height="741" viewBox="0 0 813 741" fill="none" xmlns="http://www.w3.org/2000/svg">
<path d="M714.379 632.06L704.569 617.795L709.781 601.226L694.874 606.722L682.305 596.377V614.077L669.353 624.422L684.374 629.797L686.712 638.808L688.858 646.688L697.978 632.423L714.379 632.06ZM743.81 668.47L749.903 656.347L761.667 654.811L753.62 645.072L756.379 631.736L745.572 637.636L735.762 631.13L736.95 644.587L728.021 653.801L739.709 656.064L743.81 668.47ZM638.733 717.61C632.256 718.742 625.78 719.792 619.112 720.722V699.183L628.922 669.198L656.092 660.51L634.9 641.153L637.161 610.118L635.589 611.37L613.708 628.423L587.918 618.078L584.201 597.388C588.914 596.579 594.011 595.529 598.341 594.478C599.759 594.195 601.177 593.71 602.556 593.144C613.209 588.699 622.062 580.495 627.542 569.868C629.688 564.937 631.144 559.644 631.796 554.269C657.547 555.845 683.108 559.846 708.208 566.272C714.301 567.524 720.28 568.858 726.142 570.394C749.02 575.162 770.634 585.184 789.41 599.772C802.133 609.592 808.034 626.443 804.432 642.607C802.937 647.659 800.6 652.387 797.572 656.55C777.186 684.999 722.999 700.396 674.179 711.185C662.491 713.569 650.727 715.63 638.733 717.61Z" fill="black"/>
<path d="M720.736 628.098L710.926 613.833L711.616 619.814L716.827 603.245V603.285C717.517 600.618 716.789 597.749 714.949 595.769C713.072 593.789 710.351 593.061 707.822 593.789L692.992 599.77L700.158 601.75L687.589 591.404C685.443 589.263 682.301 588.616 679.541 589.748C676.859 591 675.096 593.789 675.058 596.86V614.56L678.698 607.851L665.746 618.197H665.708C663.255 619.853 661.876 622.844 662.182 625.955C662.604 628.986 664.673 631.532 667.47 632.341L682.492 637.715L677.893 630.805C679.349 636.381 680.844 642.079 682.415 647.656C683.258 650.606 685.672 652.748 688.547 653.152C691.459 653.556 694.295 652.142 695.828 649.515L704.948 635.25L698.587 639.089H714.375C718.437 639.008 721.695 635.573 721.733 631.33C721.618 627.087 718.399 623.652 714.375 623.571H705.753C702.112 623.571 697.207 622.521 694.18 625.026C691.689 627.653 689.543 630.643 687.895 633.916L683.105 641.473L696.556 643.332C695.866 640.625 695.1 638.038 694.41 635.371C693.72 632.664 692.954 628.663 691.766 625.551C690.578 622.44 684.216 620.055 680.269 618.722L671.915 615.732L673.371 630.804L680.422 625.309C683.756 622.722 689.236 619.611 690.233 614.963C690.424 611.771 690.424 608.578 690.233 605.346V596.253L677.664 601.749L684.332 607.447L684.37 607.406C686.669 609.71 689.122 611.852 691.728 613.751C695.637 616.135 700.158 613.751 703.991 612.094L712.344 608.982L702.802 599.163L700.043 607.649C698.511 611.165 697.629 614.923 697.399 618.802C698.472 622.358 700.312 625.672 702.688 628.42L707.593 635.977C709.739 639.412 713.954 640.584 717.403 638.765C719.204 637.836 720.584 636.179 721.197 634.199C721.848 632.178 721.656 629.997 720.736 628.098Z" fill="black"/>
<path d="M750.402 672.19L756.495 660.066L750.134 663.905L761.898 662.369H761.86C764.811 662.289 767.416 660.43 768.643 657.601C769.716 654.691 769.103 651.378 767.072 649.114L759.024 639.375L760.902 646.932L763.661 633.596H763.623C764.351 630.565 763.278 627.413 760.94 625.514C758.603 623.615 755.422 623.332 752.854 624.827L742.048 630.808H749.52L739.71 624.302C737.411 622.928 734.613 622.968 732.352 624.342C730.091 625.716 728.674 628.262 728.597 631.01L729.785 644.467L731.931 638.971L723.002 648.185C721.162 650.124 720.473 652.953 721.124 655.62C721.776 658.287 723.73 660.389 726.259 661.116L737.947 663.379L732.237 658.126L736.759 670.532C737.909 674.613 741.894 676.998 745.765 675.907C749.673 674.775 751.934 670.491 750.861 666.41C749.29 661.965 747.719 657.519 746.071 653.074C744.385 648.629 739.978 648.305 736.261 647.578L729.785 646.325L733.004 659.257L737.794 654.286C740.246 651.821 743.465 649.316 743.964 645.598H744.002C744.27 643.092 744.27 640.547 744.002 638.041L742.929 630.807L732.238 637.839L737.833 641.355C740.553 643.86 744.041 645.234 747.643 645.275C750.402 644.466 753.046 643.214 755.498 641.557L761.17 638.445L750.363 629.636C749.367 634.404 748.102 639.173 747.412 644.022C746.723 648.871 750.44 651.781 753.007 654.367L757.529 659.741L761.668 647.052L754.885 647.981H750.861C747.949 647.941 745.228 649.396 743.504 651.901C741.358 655.821 739.48 659.984 737.411 664.025H737.449C735.379 667.743 736.567 672.511 740.093 674.653C743.619 676.835 748.14 675.582 750.171 671.864L750.402 672.19Z" fill="black"/>
<path d="M636.78 710.177C630.304 711.309 623.828 712.359 617.16 713.289L626.97 720.724V706.54C626.817 704.318 626.817 702.135 626.97 699.913C626.97 700.963 626.97 700.842 627.66 698.377C630.994 689.487 633.753 680.273 636.78 671.261L631.684 676.636L658.853 667.948C661.382 667.22 663.298 665.119 663.988 662.452C664.639 659.785 663.911 656.956 662.11 655.016L651.303 645.479C648.851 643.418 646.513 641.034 643.831 639.054C636.588 633.356 645.785 641.236 642.643 641.317C642.643 641.317 644.712 612.746 644.904 610.281L644.942 610.321C644.865 607.573 643.448 605.028 641.187 603.654C638.926 602.28 636.128 602.239 633.829 603.613C626.088 609.836 618.233 615.817 610.377 621.919L616.048 621.192L590.258 610.846L595.355 616.221L591.638 595.531L586.541 605.068C613.135 600.218 634.327 586.438 639.233 556.534L632.181 562.232C657.32 563.566 682.306 567.485 706.716 573.911C723.961 577.224 740.861 582.276 757.147 589.024C772.437 595.651 790.716 605.674 796.963 622.969C809.417 657.197 761.171 677.604 738.101 685.848H738.14C705.107 697.285 671.193 705.65 636.781 710.863C626.97 712.399 631.377 727.31 640.689 725.775H640.728C672.802 720.844 704.494 713.328 735.457 703.225C758.718 695.264 784.508 684.798 801.292 664.43C820.032 640.952 814.13 611.452 792.363 592.741C769.026 572.657 737.143 564.614 708.21 558.594C683.148 552.007 657.55 548.047 631.798 546.713C628.502 546.713 625.59 549.057 624.708 552.411C620.493 577.466 604.015 586.154 582.249 590.155C578.378 591.367 576.117 595.57 577.152 599.651C577.42 607.289 578.915 614.805 581.559 621.917C585.583 628.221 598.536 630.808 604.82 633.394C611.104 635.981 615.32 637.233 621.873 632.061L640.919 617.27L629.806 610.117L628.618 627.09H628.656C627.468 632.626 627.2 638.324 627.851 643.941C629.231 648.79 635.401 652.427 638.926 655.418L651.304 666.289L654.522 653.357L631.569 660.712C624.402 662.975 622.64 666.208 620.187 673.442C617.006 681.241 614.324 689.242 612.178 697.446C611.488 705.286 611.488 713.166 612.178 721.005C612.178 723.551 613.327 725.895 615.243 727.39C617.198 728.845 619.689 729.249 621.988 728.481C628.464 727.552 635.017 726.501 641.608 725.37C650.039 723.915 646.092 708.521 636.78 710.177Z" fill="black"/>
<path d="M248.011 647.661L227.394 653.359L211.682 637.235L210.149 661.845L191.794 673.969L211.414 683.263L215.821 707.066L229.539 688.557L250.539 691.022L239.464 670.332L248.011 647.661ZM294.725 616.625L284.914 628.506L271.158 626.041L278.017 639.901L271.847 654.368L285.566 651.256L295.376 662.329L296.947 646.488L309.325 638.851L296.564 632.142L294.725 616.625ZM142.549 694.215L143.622 654.208L173.052 632.991L159.41 627.092L140.365 619.009L131.934 580.215L110.245 611.25L75.5253 608.543L95.1458 641.76L82.1933 678.898L115.763 668.552L142.549 694.215ZM270.081 727.716C242.912 725.857 216.125 723.472 189.913 720.361C132.431 713.572 74.9475 701.691 33.8329 678.414L28.6212 675.221L28.6596 675.181C19.7691 670.412 12.6415 662.614 8.42601 653.036C6.24167 646.166 7.0465 638.61 10.6104 632.345C22.26 610.12 61.9992 590.237 94.572 579.084C126.57 568.334 159.412 560.495 192.674 555.686C195.012 571.204 201.603 584.54 216.625 586.722C243.986 591.693 271.731 593.996 299.513 593.673H303.537C316.681 592.945 353.585 590.561 354.657 587.167H357.301C357.301 589.753 357.301 592.218 357.799 594.723H357.761C357.914 605.877 363.126 616.262 371.825 622.647L364.659 639.62L352.78 661.845L330.017 664.553L345.997 683.263L340.977 708.52L362.169 697.649L382.288 710.702V732.321H358.835C328.446 731.069 298.901 729.695 269.701 727.755L270.081 727.716Z" fill="black"/>
<path d="M246.049 640.223L225.432 645.921L232.598 647.901L216.886 631.777V631.736C214.779 629.635 211.636 629.029 208.954 630.201C206.233 631.373 204.432 634.121 204.355 637.232L202.478 661.843L206.118 655.134L187.762 667.258V667.217C185.54 668.632 184.16 671.178 184.16 673.966C184.16 676.714 185.54 679.26 187.762 680.674L207.383 689.969L204.049 685.322L208.456 709.124C209.184 711.751 211.138 713.812 213.667 714.539C216.196 715.226 218.879 714.458 220.718 712.519L234.437 694.01L229.225 696.273L250.225 698.738C256.011 699.465 259.039 691.706 256.586 687.059L245.512 666.369L246.201 672.35L254.824 650.124L254.862 650.164C255.398 648.184 255.169 646.042 254.211 644.264C253.253 642.486 251.643 641.153 249.765 640.627C245.856 639.577 241.871 641.961 240.722 646.002L236.123 657.802C233.824 661.802 232.406 666.288 231.908 670.935C233.249 675.461 235.318 679.745 238.001 683.584L243.902 694.536L250.455 682.533L238.958 681.2C234.82 680.674 228.573 678.734 225.009 681.2H225.048C222.212 684.069 219.721 687.301 217.575 690.817L210.524 700.354L222.787 703.749C221.714 695.747 220.219 687.786 218.38 679.947C217 674.895 210.524 673.238 206.5 671.258L195.502 665.964V679.421L205.811 672.592C209.835 670.006 216.502 667.015 217.384 661.64C218.649 653.356 218.457 644.668 219.07 636.384L206.501 641.88L214.855 650.447C217.576 654.124 220.872 657.236 224.665 659.66C228.689 661.439 234.476 658.529 238.806 657.397L250.072 654.286C252.64 652.346 253.751 648.911 252.831 645.719C251.911 642.567 249.192 640.344 246.049 640.223Z" fill="black"/>
<path d="M289.509 610.842L279.698 622.723L286.865 620.743L273.03 618.56V618.601C270.118 617.793 267.09 618.884 265.251 621.389C263.488 623.895 263.22 627.249 264.676 629.997L271.536 643.857V635.977L265.366 650.444C263.91 653.192 264.14 656.546 265.941 659.051C267.742 661.557 270.807 662.648 273.72 661.84L287.439 658.728L280.962 656.788L290.772 667.861V667.82C292.918 670.043 296.061 670.69 298.82 669.477C301.502 668.225 303.265 665.436 303.342 662.365L304.913 646.524L301.272 653.233L313.65 645.595H313.612C315.873 644.181 317.214 641.635 317.214 638.887C317.214 636.139 315.873 633.593 313.612 632.138L300.583 625.43L303.917 630.077L301.579 614.236C301.043 612.256 299.816 610.559 298.13 609.549C296.406 608.538 294.413 608.296 292.535 608.862C288.665 610.074 286.442 614.277 287.439 618.399C288.205 623.571 288.627 628.744 289.776 634.239C290.964 639.735 295.371 640.018 298.705 641.796L305.871 645.635V632.178L299.012 636.543C295.793 638.523 291.271 640.382 290.198 644.504V644.463C289.623 647.615 289.278 650.767 289.086 653.96L288.32 662.325L300.889 656.829L295.869 651.495C294.029 649.03 291.883 646.767 289.507 644.868C286.059 642.807 281.154 644.867 277.551 645.474L270.078 647.252L278.432 658.648L281.651 651.01V650.97C283.299 647.899 284.602 644.666 285.483 641.271C285.483 637.432 283.031 633.31 281.459 629.997L277.742 622.44L269.388 633.837L276.938 635.089C280.463 635.615 285.675 637.271 288.894 635.089V635.049C291.27 633.069 293.339 630.684 294.987 628.017L299.892 621.915C302.728 618.844 302.728 613.995 299.892 610.923C297.057 607.893 292.383 607.852 289.509 610.842Z" fill="black"/>
<path d="M149.909 694.215L151.289 654.167L147.648 660.875L177.079 640.185V640.225C179.532 638.609 180.873 635.578 180.49 632.547C180.145 629.476 178.114 626.971 175.316 626.041C164.471 621.272 153.589 616.625 142.667 612.058L147.764 617.433L139.333 578.638L139.295 578.679C138.452 575.729 136.037 573.587 133.163 573.183C130.251 572.779 127.415 574.193 125.882 576.82L104.193 607.856L110.554 604.017L75.8348 601.309C73.229 601.39 70.8147 602.885 69.5118 605.269C68.2089 607.654 68.1706 610.604 69.4735 613.028L89.0939 646.246L88.4042 640.265L74.9534 677.241C74.2636 679.948 74.9917 682.817 76.8694 684.757C78.7088 686.737 81.4296 687.505 83.9971 686.778L117.567 676.432L110.401 674.452L137.073 700.114C144.047 706.822 154.547 695.87 147.458 689.162L133.816 675.503C129.485 670.492 124.734 665.885 119.599 661.845C114.195 658.652 103.887 664.31 98.7137 665.966L80.3578 672.19L89.4017 681.727L96.0312 661.844L100.553 649.034C101.626 646.73 102.354 644.306 102.622 641.76C102.239 638.931 101.09 636.264 99.3652 634.001L92.5057 622.201L82.6955 604.623L76.3342 616.301L95.2649 617.756C101.358 617.756 112.242 621.393 116.84 615.897C125.079 606.158 131.746 594.278 139.104 583.73L125.653 581.871L129.983 601.834C130.711 608.663 131.976 615.412 133.815 621.999C135.578 626.04 140.292 627.171 143.626 628.707L155.39 633.678L171.102 640.386L169.339 626.202L153.436 638.163C148.646 641.557 138.031 646.649 136.843 653.155C136.192 660.025 135.923 666.935 136.077 673.846L135.387 694.536C134.889 704.275 149.602 704.156 149.909 694.215Z" fill="black"/>
<path d="M269.702 719.995C222.567 717.57 175.662 711.953 129.22 703.224C108.296 699.062 87.7557 693.202 67.7145 685.726C52.4243 679.948 22.9936 669.804 16.0196 652.225C7.97214 631.535 38.7822 613.956 51.8111 606.48C69.9757 596.337 89.0595 588.214 108.795 582.192C136.77 573.665 165.28 567.321 194.136 563.24L185.092 557.865C187.851 573.585 194.902 588.901 210.805 593.669H210.844C234.449 599.367 258.63 602.074 282.849 601.751C298.599 601.994 314.348 601.347 330.022 599.771C336.613 599.326 343.166 598.478 349.642 597.185C351.674 596.821 353.705 596.215 355.621 595.406C356.387 595.406 357.192 594.275 357.958 593.952C361.177 592.699 351.789 595.285 356.502 595.083L349.642 586.961C348.799 603.286 355.544 619.047 367.807 629.15L365.163 618.804C359.491 632.342 353.206 645.274 346.616 658.326L352.977 654.487L330.023 656.791C327.111 656.871 324.505 658.771 323.355 661.64C322.244 664.469 322.819 667.782 324.811 670.005L340.791 688.715L338.914 681.158L333.893 706.415H333.932C333.242 709.446 334.277 712.639 336.614 714.538C338.952 716.437 342.133 716.72 344.738 715.225L365.93 704.88H358.458L378.078 717.932L374.438 711.224V732.844L381.795 725.085C344.509 724.479 307.222 723.024 270.047 720.518C260.237 719.912 260.237 735.43 270.047 736.036C307.219 738.501 344.505 739.956 381.795 740.602L381.834 740.562C385.857 740.522 389.115 737.087 389.191 732.803C389.881 725.61 389.881 718.377 389.191 711.184C387.735 703.546 379.381 700.838 373.479 696.717C367.578 692.595 363.669 689.079 357.001 691.948C350.333 694.858 343.474 698.899 336.806 702.294L347.613 711.103C349.184 703.223 354.779 689.806 352.633 681.725C350.487 673.643 339.872 665.601 334.775 659.58L330.023 672.189C341.213 670.936 355.622 673.239 361.601 661.843C367.579 650.447 372.982 638.365 378.194 626.241C379.88 622.604 378.73 618.199 375.549 615.896C367.808 608.662 363.747 598.034 364.666 587.164C364.589 582.881 361.332 579.446 357.308 579.405C348.878 579.405 345.812 582.517 335.044 583.648C324.237 584.78 311.898 585.709 300.325 586.235H300.286C280.628 586.801 260.931 585.669 241.425 582.8C231.002 582.881 220.617 580.981 210.845 577.102C203.985 571.444 199.808 562.998 199.348 553.825C198.198 549.784 194.213 547.4 190.343 548.45C132.937 557.018 66.3317 570.273 20.2336 610.522C9.08229 618.645 1.76289 631.333 0 645.518C0 662.369 12.5688 674.29 25.0239 682.534C55.3355 702.497 92.8144 712.035 127.531 719.147C174.589 727.916 222.069 733.573 269.779 736.119C279.091 736.119 279.09 720.601 269.702 719.995Z" fill="black"/>
<path d="M443.215 493.61C449.653 505.289 452.604 518.746 451.646 532.203C451.186 542.104 448.695 551.762 444.403 560.572C440.686 567.563 435.321 573.382 428.807 577.544C414.398 586.637 396.157 586.111 388.11 565.744C384.47 555.844 382.898 545.256 383.588 534.709C383.895 522.182 386.539 509.856 391.329 498.379C395.544 487.752 405.009 480.477 415.931 479.467C426.814 478.497 437.314 483.952 443.215 493.61Z" fill="black"/>
<path d="M200.334 483.71L201.522 479.992H201.483C253.025 494.257 306.139 501.208 359.447 500.682C360.214 506.784 360.597 512.927 360.635 519.069V534.385C360.635 544.73 358.949 555.075 357.991 565.421C355.232 575.766 273.34 566.471 263.606 565.421C251.842 564.168 240.077 562.511 228.274 560.652C219.345 559.197 198.843 557.339 192.06 552.085H192.099C190.911 538.911 191.447 525.656 193.67 512.644C195.164 502.824 197.383 493.166 200.334 483.71Z" fill="black"/>
<path d="M632.68 545.864C619.152 566.554 571.366 572.656 560.291 573.909C533.504 576.697 526.147 573.909 475.218 571.525C475.218 563.968 475.716 556.329 476.406 549.056C476.406 544.489 477.287 539.761 477.785 534.992C478.782 524.647 479.663 514.302 479.855 503.957H479.816C505.568 502.744 531.167 499.309 556.344 493.612C577.918 488.116 597.348 477.568 618.539 470.941C619.305 472.921 620.11 474.861 620.8 476.922C623.061 483.347 625.207 489.853 627.084 496.359V496.44C630.226 507.351 632.143 518.626 632.871 530.062C633.139 535.316 633.063 540.611 632.68 545.864Z" fill="black"/>
<path d="M666.132 162.48L653.065 154.923L650.919 138.678L641.109 150.558L626.969 147.972L633.751 162.439L627.275 177.149L641.416 174.239L651.226 185.918L653.755 169.915L666.132 162.48ZM598.84 153.67L583.359 148.821L577.879 131.444L569.065 146.962L552.894 147.568L562.704 161.954L558.604 179.736L573.625 173.108L586.885 183.453L586.08 165.269L598.84 153.67ZM497.481 216.995L505.912 197.355L524.766 194.163L511.124 178.968L514.343 157.348L497.481 167.693L480.619 157.348L483.762 178.968L470.12 194.163L489.05 197.355L497.481 216.995ZM533.503 290.017L513.385 282.137L507.598 258.375L494.837 278.015L473.53 276.964L485.793 296.927L478.435 320.446L498.745 313.212L515.53 328.326V303.917L533.503 290.017ZM518.558 446.251L543.199 455.142L534.385 427.299L549.368 403.214L523.578 404.264L508.173 380.381L501.122 408.952L476.596 418.368L497.98 434.937V464.639L518.558 446.251ZM412.137 414.609L426.967 397.839L447.469 402.405L437.927 380.866L447.737 360.176L427.12 363.813L412.788 346.234L409.339 369.915L390.485 380.261L409.032 391.212L412.137 414.609ZM454.827 97.952L438.924 95.689L431.451 79.3632L424.669 96.0128L408.497 98.9628L420.262 111.693L418.307 129.877L432.448 120.987L446.78 129.271L443.752 111.167L454.827 97.952ZM364.083 122.037L358.565 144.586L339.825 152.143L356.418 165.276V188.553L372.322 174.086L391.942 180.795L384.776 158.972L396.349 139.939L376.154 140.99L364.083 122.037ZM346.609 218.053L373.778 258.383L360.328 306.916L401.906 289.418L437.928 319.201L436.472 268.728L472.187 238.621L429.728 224.437L415.74 175.62L391.1 217.001L346.609 218.053ZM294.416 236.562C304.341 208.961 315.339 182.209 327.372 156.265C331.089 148.183 334.73 139.939 338.447 131.735V131.776C347.261 111.085 357.569 91.1625 369.257 72.1697C372.897 65.6231 377.688 59.9251 383.397 55.3183C396.158 46.2258 412.828 50.6711 426.968 56.9752C453.257 68.8557 478.357 83.0401 504.453 95.5681C512.807 99.4881 521.238 103.933 530.052 107.045C538.866 110.157 548.792 112.218 558.218 114.602L587.649 122.038L602.555 125.958C607.269 127.655 612.289 128.301 617.271 127.938C621.678 127.008 626.008 125.634 630.223 123.897C638.271 121.189 646.012 117.795 653.752 114.602C669.732 107.732 684.6 98.1956 697.707 86.3545C710.161 179.462 629.035 220.842 558.98 228.922V228.882C546.258 230.296 533.458 230.579 520.736 229.73C528.286 248.562 535.26 267.798 541.813 287.155C546.526 301.137 550.933 315.2 555.149 329.344C559.364 343.528 565.534 369.472 571.052 395.133C571.55 397.194 571.933 399.255 572.432 401.356C576.762 422.047 580.364 440.878 582.242 453.082C571.742 455.79 561.165 460.437 554.267 462.902C550.243 464.357 546.219 465.691 539.858 467.348C529.473 470.257 512.765 474.056 479.808 481.006C479.272 475.834 478.352 470.742 477.049 465.69C470.381 439.504 443.787 431.867 422.902 431.462C406.04 431.462 384.734 432.715 370.517 444.273C361.014 453.648 356.568 467.348 358.561 480.926C332.77 475.349 306.942 469.328 281.076 464.074L275.979 463.024C269.618 461.69 250.878 455.467 234.86 453.285C238.501 435.706 242.333 418.127 246.433 400.75C252.335 375.776 258.849 351.125 266.054 326.799C273.258 302.471 281.115 277.739 289.583 252.604C290.771 248.037 292.346 242.058 294.416 236.562ZM328.751 230.783L316.756 244.927L299.895 241.613L308.019 259.192L300.584 276.69L317.561 273.174L329.518 287.157L331.855 267.719L346.609 258.384L331.319 249.898L328.751 230.783ZM314.036 451.674L323.846 438.015L338.945 438.945L330.016 424.518L335.496 408.193L320.896 413.567L309.131 402.616V419.993L296.485 429.287L310.702 435.268L314.036 451.674ZM326.605 303.448L314.648 327.129L290.774 329.271L306.945 349.961L301.465 376.632L323.424 365.479L344.041 379.663L341.397 352.548L359.445 334.201L349.635 331.938L335.418 328.625L326.605 303.448Z" fill="black"/>
<path d="M450.19 717.284L452.643 699.988L466.592 692.876L452.95 684.915L450.88 667.417L440.073 679.823L425.052 676.631L431.911 692.35L424.669 707.747L439.69 705.161L450.19 717.284ZM506.599 625.632L502.192 650.889L481.575 661.234L501.195 673.761L503.149 699.422L519.628 682.045L541.395 687.743L532.083 664.346L543.579 642.322L521.391 645.231L506.599 625.632ZM370.943 622.439C379.872 627.167 389.683 629.754 399.684 629.996C415.779 632.381 432.219 631.289 447.931 626.763C452.108 625.389 456.017 623.248 459.504 620.459C468.624 611.892 473.913 599.688 474.143 586.837C508.9 602.234 547.297 605.83 584.086 597.182L587.611 617.873L594.892 647.575L576.843 672.185H604.702L619.226 698.453V719.992C572.743 726.538 525.915 730.256 479.048 731.145C447.165 731.872 414.401 732.074 381.636 731.145V709.526L379.068 685.117L396.542 667.942L373.588 663.092L363.778 639.411L370.943 622.439Z" fill="black"/>
<path d="M241.144 455.995C262.029 351.084 294.373 249.09 337.483 152.021C347.37 128.38 358.636 105.427 371.206 83.2417C377.299 72.8965 383.775 60.4905 395.846 57.9042C407.918 55.3179 422.633 62.6727 433.823 68.2494C456.471 78.5946 478.467 91.1217 501.038 102.073H501C522.345 111.651 544.533 118.965 567.219 123.895C579.788 127.007 592.319 130.725 604.888 133.513C615.426 135.574 626.31 134.362 636.197 129.998C660.377 121.794 682.986 109.025 702.799 92.254L690.23 86.7581C696.591 129.028 677.738 171.095 642.751 192.797C605.848 215.548 563.234 225.853 520.623 222.378C518.324 222.378 516.178 223.509 514.799 225.449C513.419 227.389 512.959 229.894 513.572 232.198C528.671 269.214 541.509 307.241 551.932 345.995C556.722 364.504 560.861 383.255 564.885 401.965C568.908 420.675 570.863 438.052 574.695 455.752C575.998 459.551 579.868 461.612 583.547 460.52C587.226 459.47 589.525 455.59 588.797 451.63C584.773 434.577 582.704 416.675 578.987 399.378C574.848 380.143 570.633 360.907 565.727 341.873H565.766C555.342 303.079 542.505 265.052 527.291 228.076L520.24 238.421C606.385 243.472 717.827 196.232 704.564 87.2876C704.372 84.4993 702.801 81.9938 700.425 80.7814C698.049 79.5287 695.214 79.7307 692.991 81.2663C672.91 98.6836 649.496 111.251 624.319 118.121C612.861 119.818 601.212 118.485 590.367 114.161C577.721 110.847 565.076 107.857 552.506 104.624V104.664C527.329 97.3904 502.995 87.1664 480.002 74.1542C459.194 63.8089 437.312 49.4228 414.55 43.8457H414.588C396.769 38.3903 377.685 45.6642 367.3 61.8288C353.62 82.6807 341.816 104.867 332.083 128.022C310.316 174.817 291.041 222.827 274.295 271.841C255.058 330.76 239.27 390.894 227.007 451.828C224.938 461.567 239.155 465.688 241.147 455.949L241.144 455.995Z" fill="black"/>
<path d="M360.132 474.171C336.604 467.948 312.461 463.826 288.702 458.532C270.845 454.815 253.37 449.44 235.436 446.328L240.839 453.764V453.804C240.724 449.561 237.505 446.167 233.481 446.045C224.552 444.995 212.405 443.863 205.315 451.218C202.173 455.501 199.912 460.432 198.647 465.685C196.693 470.979 194.93 476.03 193.244 481.728C184.277 507.187 181.671 534.667 185.695 561.499C187.381 571.723 192.363 581.058 199.835 587.888C209.645 595.647 222.214 595.647 233.596 597.182C259.577 601.102 285.828 602.355 312.078 600.9C321.888 600.294 331.698 599.567 341.508 598.193C347.793 597.384 356.722 597.263 361.129 591.04C366.341 582.675 353.58 574.916 348.368 583.16C350.705 579.442 351.893 581.301 349.134 581.301V581.341C347.64 581.584 346.183 581.867 344.727 582.271C340.818 582.877 336.795 583.321 332.771 583.725C323.957 584.655 315.028 585.261 306.176 585.786C277.933 586.877 249.653 584.897 221.793 579.886C210.565 579.28 201.406 570.188 200.141 558.388C197.765 544.931 197.765 531.111 200.141 517.613C202.096 504.803 205.2 492.195 209.338 479.991C210.526 476.475 211.676 473.04 212.979 469.646C213.477 466.898 214.435 464.311 215.815 461.967C219.34 458.654 229.342 460.836 233.557 461.361L226.2 453.602H226.238C226.238 457.078 228.422 460.108 231.603 461.038C249.537 464.23 267.012 469.524 284.87 473.242C308.629 478.213 332.733 482.658 356.3 488.881C360.055 489.608 363.734 487.184 364.73 483.304C365.765 479.425 363.811 475.384 360.208 473.969L360.132 474.171Z" fill="black"/>
<path d="M376.231 534.991C375.656 555.682 380.753 583.808 402.825 589.829C422.331 593.264 441.721 583.04 450.765 564.492C462.031 541.821 462.031 514.745 450.765 492.075C442.219 475.628 423.596 468.111 406.81 474.375C383.358 483.266 377.38 511.392 376.115 534.992C376.115 545.337 390.447 545.337 390.83 534.992C391.175 524.808 393.091 514.746 396.54 505.209C398.533 499.309 402.403 494.298 407.5 491.025C416.697 485.044 428.653 487.065 435.59 495.793C445.285 511.716 447.278 531.557 440.955 549.298C436.931 563.684 425.013 574.029 410.835 575.443C404.818 575.403 399.261 571.887 396.425 566.27C391.942 556.652 389.987 545.902 390.83 535.234C391.214 524.97 376.5 525.09 376.231 534.991Z" fill="black"/>
<path d="M199.529 487.434C251.684 502.104 305.489 509.054 359.446 508.125C363.508 508.125 366.803 504.649 366.803 500.366C366.803 496.082 363.508 492.607 359.446 492.607C306.792 493.334 254.29 486.383 203.483 471.916C199.727 471.148 196.049 473.573 195.014 477.453C194.018 481.332 195.972 485.414 199.536 486.787L199.529 487.434Z" fill="black"/>
<path d="M479.925 511.518C502.956 510.467 525.91 507.598 548.596 503.031C560.399 500.607 572.01 497.131 583.316 492.686C589.294 490.302 595.08 487.837 601.058 485.533C604.201 484.2 607.343 483.068 610.869 481.816V481.856C613.398 480.522 616.004 479.552 618.724 478.825C622.786 478.825 626.082 475.35 626.082 471.066C626.082 466.783 622.786 463.307 618.724 463.307C613.015 464.196 607.458 466.015 602.246 468.682L585.768 475.309C573.965 480.361 561.779 484.402 549.363 487.433C526.486 492.282 503.263 495.273 479.926 496.323C470.115 496.849 470.115 512.367 479.926 511.841L479.925 511.518Z" fill="black"/>
<path d="M188.071 559.323C196.425 563.809 205.584 566.476 214.934 567.082C226.814 568.86 238.579 570.719 250.458 572.133C262.337 573.588 276.747 575.124 289.699 576.255V576.296C305.411 577.993 321.199 578.72 336.987 578.559C346.108 578.559 360.632 578.559 364.54 568.213C368.449 557.868 353.733 554.877 350.4 564.092C351.664 560.697 353.159 561.505 350.4 561.909C347.641 562.313 346.491 562.718 344.422 562.96H326.564C312.615 562.96 298.705 561.626 284.756 560.252C274.256 559.323 263.756 558.272 253.371 556.939C242.986 555.605 231.604 553.827 220.722 552.291C211.908 551.968 203.208 549.746 195.238 545.785C187.19 540.411 179.833 553.867 187.765 559.242L188.071 559.323Z" fill="black"/>
<path d="M475.098 579.082C504.529 579.082 532.695 584.659 561.704 581.265C587.494 578.274 620.565 573.384 638.231 550.229C644.133 542.47 633.709 531.519 627.846 539.278C612.556 559.362 581.631 563.362 559.175 565.747C531.123 568.535 503.532 563.16 475.597 563.16C471.535 563.16 468.239 566.636 468.239 570.919C468.239 575.203 471.535 578.678 475.597 578.678L475.098 579.082Z" fill="black"/>
<path d="M391.211 162.563L402.784 143.53H402.823C404.087 141.145 404.049 138.195 402.746 135.811C401.443 133.386 399.029 131.891 396.423 131.851L376.228 132.902L382.589 136.741L370.441 118.111C368.87 115.484 366.034 114.07 363.16 114.474C360.247 114.878 357.833 117.02 356.99 119.97L351.51 142.439L356.607 137.064L336.987 144.702C334.189 145.591 332.158 148.137 331.775 151.167C331.392 154.239 332.733 157.229 335.224 158.846L352.2 171.656L349.058 165.271V188.548C349.135 191.619 350.936 194.367 353.657 195.579C356.339 196.751 359.481 196.145 361.589 194.044L377.492 179.577L370.326 181.557L389.947 188.265V188.225C392.514 188.952 395.197 188.185 397.074 186.245C398.952 184.265 399.68 181.395 398.99 178.728L391.824 156.906C390.675 152.825 386.689 150.44 382.781 151.531C380.903 152.057 379.293 153.35 378.335 155.128C377.377 156.947 377.147 159.048 377.684 161.028L384.85 182.85L393.894 173.313L383.317 169.595C379.102 168.141 373.507 164.746 368.793 167.332H368.755C365.421 169.797 362.317 172.586 359.443 175.617L351.319 183.052L363.888 188.548V176.546H363.849C364.156 172.464 364.156 168.342 363.849 164.22C363.083 159.169 356.492 155.734 352.851 152.946L343.041 145.712L341.278 159.897L352.391 154.926C356.99 153.067 363.964 151.613 365.651 146.238C367.912 138.883 369.368 131.246 371.131 123.769L357.68 125.628C361.895 132.053 365.727 138.964 370.441 144.985C373.89 149.43 380.251 147.895 385.041 147.693L396.423 147.086L390.062 135.408L378.489 154.926C376.649 158.563 377.799 163.089 381.133 165.271C384.62 167.373 389.065 166.159 391.211 162.563Z" fill="black"/>
<path d="M301.654 255.266L293.721 272.764C292.303 275.512 292.572 278.866 294.373 281.291C296.174 283.756 299.201 284.888 302.037 284.12L319.013 280.604L311.847 279.068L323.804 293.051H323.842C325.95 295.233 329.131 295.88 331.89 294.708C334.534 293.374 336.258 290.626 336.373 287.555L338.711 268.118L335.07 274.826L350.284 265.814H350.322C352.545 264.4 353.925 261.854 353.925 259.106C353.925 256.358 352.545 253.812 350.322 252.398L335.032 243.911L338.366 248.559L335.799 229.121C335.109 226.454 333.116 224.393 330.587 223.706C328.058 222.978 325.375 223.746 323.536 225.686L311.579 239.87L318.745 237.89L301.883 234.577H301.845C298.971 233.849 295.982 234.94 294.181 237.405C292.38 239.87 292.112 243.225 293.529 245.972L301.654 263.551C303.723 267.269 308.245 268.522 311.77 266.339C315.295 264.157 316.483 259.389 314.414 255.671L306.252 237.688L297.898 249.085L307.133 250.944C310.965 251.671 316.943 253.853 320.469 251.671H320.507C323.266 249.327 325.681 246.62 327.75 243.589L333.92 236.234L321.657 232.839L322.845 242.255C322.845 245.569 323.42 249.085 324.224 252.6C324.991 256.116 330.816 259.026 334.035 260.966L342.58 265.734V252.277L333.843 257.45L328.746 260.561C325.911 261.895 323.994 264.724 323.726 267.997L321.389 287.434L333.958 281.939L327.788 274.705H327.749C325.68 271.715 323.266 269.047 320.507 266.744C316.866 264.562 310.697 266.744 307.056 267.552L297.821 269.532L306.175 280.929L314.107 263.431C315.831 259.794 314.72 255.349 311.463 253.086C308.167 251.065 303.915 251.993 301.654 255.266Z" fill="black"/>
<path d="M441.645 273.774L477.169 243.667C479.009 241.728 479.737 238.899 479.047 236.232C478.395 233.605 476.441 231.504 473.95 230.736L431.644 216.996L436.74 222.371L422.791 174.039L422.83 174.079C421.948 171.129 419.572 168.988 416.66 168.583C413.786 168.179 410.912 169.594 409.379 172.22C399.569 185.354 392.709 200.468 384.47 214.329L390.831 210.49H346.57H346.609C343.964 210.409 341.512 211.823 340.094 214.208C338.714 216.551 338.599 219.501 339.826 221.966L366.995 262.216L366.305 256.235L352.855 304.768C351.398 310.062 356.572 316.568 361.898 314.305L403.477 297.009L396.311 295.029L432.218 324.731L432.257 324.691C434.364 326.792 437.507 327.398 440.189 326.227C442.91 325.055 444.711 322.307 444.788 319.195L443.83 268.722C443.83 258.376 428.808 258.376 429.114 268.722L430.494 319.64L443.063 314.144L412.176 288.483H412.138C409.877 286.3 407.386 284.361 404.78 282.704C401.408 281.734 397.844 282.34 394.97 284.361L380.753 290.261L358.374 299.757L367.418 309.294L374.392 284.36L379.067 267.185C380.179 264.316 380.907 261.326 381.213 258.254C380.754 255.021 379.297 252.031 377.113 249.687L367.303 235.422L352.971 214.125L346.61 225.804H372.132C379.107 225.804 392.442 228.512 397.232 221.884C407.043 208.832 412.714 192.909 422.142 179.776L408.499 177.796L415.666 202.608C417.467 211.054 419.881 219.298 422.908 227.339C424.863 231.38 428.503 232.108 432.144 233.32L470.235 245.969L467.361 232.714L431.646 262.821C423.905 268.721 434.288 279.998 441.645 273.774Z" fill="black"/>
<path d="M352.088 324.497L337.871 321.183L342.968 326.558L333.158 301.301C332.123 298.674 329.785 296.856 327.103 296.532C324.42 296.209 321.776 297.462 320.205 299.765L308.248 323.446L314.61 319.607L290.774 321.507C287.861 321.587 285.256 323.487 284.106 326.356C282.995 329.185 283.569 332.498 285.562 334.721L301.733 355.411L299.855 347.855L294.376 374.526L294.414 374.566C293.686 377.597 294.759 380.749 297.096 382.648C299.434 384.548 302.615 384.831 305.182 383.335L326.987 372.182H319.515L339.825 385.922C342.124 387.295 344.921 387.255 347.182 385.881C349.443 384.507 350.861 381.961 350.9 379.213L348.255 352.097L346.11 357.593L364.351 339.691C366.19 337.751 366.918 334.922 366.228 332.255C365.577 329.588 363.623 327.527 361.132 326.759L351.321 324.496C342.086 322.233 338.178 337.226 347.413 339.408L356.725 341.671L353.506 328.739L343.696 338.155C340.362 341.469 333.885 346.035 333.004 351.087H332.966C332.928 355.815 333.311 360.583 334.154 365.231L335.534 379.213L347.567 372.182L336.683 364.746C333.043 361.311 328.827 358.725 324.229 357.068C319.707 356.462 313.422 361.109 309.514 363.049L297.557 369.151L308.364 377.961L311.2 364.221H311.162C312.656 359.331 313.652 354.32 314.112 349.229C314.112 344.177 307.444 338.076 304.302 334.438L295.488 323.487L290.775 337.025L303.804 335.893C308.594 335.368 317.331 335.893 320.588 331.771V331.731C323.04 327.851 325.148 323.77 326.988 319.526L333.157 307.322L319.706 305.463L328.252 328.619C328.75 330.276 329.44 331.852 330.321 333.266C331.969 335.246 334.307 336.459 336.798 336.701L348.371 339.409C357.376 341.146 361.323 326.678 352.088 324.497Z" fill="black"/>
<path d="M304.911 412.835L292.264 422.129H292.226C289.735 423.786 288.356 426.817 288.7 429.888C289.16 432.959 291.23 435.424 293.989 436.313L308.206 442.294L303.109 436.92L306.941 453.69C307.746 456.681 310.122 458.863 313.034 459.307C315.985 459.631 318.821 458.176 320.392 455.549L330.01 441.89L323.649 445.729L338.748 446.659C341.354 446.618 343.768 445.123 345.071 442.739C346.374 440.314 346.412 437.405 345.109 434.98L336.564 420.594L337.253 426.575L342.733 410.249H342.772C343.461 407.582 342.733 404.713 340.856 402.732C339.016 400.752 336.295 400.025 333.728 400.752L319.204 405.723L326.37 407.703L314.606 396.752V396.711C312.46 394.569 309.356 394.004 306.635 395.175C303.952 396.347 302.151 399.095 302.036 402.167V419.543C302.036 423.867 305.332 427.302 309.394 427.302C313.456 427.302 316.752 423.867 316.752 419.543V402.167L304.183 407.662L310.391 413.562C312.575 415.947 314.989 418.129 317.557 420.069C321.389 422.453 326.102 420.069 329.82 418.614L337.752 415.826L328.708 406.289L325.873 414.654V414.694C324.378 417.967 323.382 421.443 322.96 425.039C322.96 428.757 326.179 432.677 327.98 435.384L332.502 443.022L338.863 431.343L330.011 430.616C325.681 430.616 320.201 429.08 317.365 433.324C314.529 437.567 310.774 442.941 307.555 447.71L321.005 449.569L319.051 441.001L319.013 440.961C318.515 437.89 317.786 434.859 316.867 431.869C315.181 427.747 309.509 426.292 305.792 424.716L297.86 421.402L299.622 435.586L312.269 426.292C315.526 424.069 316.676 419.584 314.913 415.947C312.92 412.229 308.474 410.814 304.911 412.835Z" fill="black"/>
<path d="M432.826 357.995L418.302 340.416C416.463 338.476 413.78 337.708 411.251 338.436C408.722 339.123 406.729 341.184 406.039 343.851L402.59 367.532L405.924 362.885L387.07 373.23H387.108C384.886 374.644 383.506 377.19 383.506 379.938C383.506 382.686 384.886 385.232 387.108 386.647L405.655 397.598L402.015 390.89L404.583 414.692C404.583 417.844 406.345 420.673 409.104 421.845C411.864 423.057 415.006 422.411 417.114 420.188L432.135 403.216L424.969 405.196L445.47 409.762V409.722C448.344 410.49 451.372 409.358 453.173 406.893C454.974 404.428 455.204 401.074 453.824 398.366L444.512 376.868V384.748L454.322 364.058V364.017C455.702 361.269 455.472 357.915 453.633 355.45C451.832 352.985 448.843 351.894 445.969 352.621L425.351 356.258C421.481 357.39 419.182 361.673 420.255 365.755C421.404 369.836 425.39 372.221 429.299 371.129L449.916 367.492L441.562 356.096L436.273 367.169L432.748 374.523L432.709 374.564C431.483 376.504 430.717 378.726 430.448 381.07C430.717 383.333 431.407 385.515 432.518 387.495L435.852 395.133L440.757 406.529L449.111 395.133L437.921 392.87C433.783 391.941 426.847 389.152 422.9 391.536C419.643 394.204 416.73 397.396 414.278 400.952L406.613 409.519L419.182 415.015C418.301 407.054 417.496 399.175 416.615 391.213C415.848 384.788 409.832 382.646 405.118 379.817L394.427 373.513V386.97L404.237 381.393C408.069 379.211 414.928 377.028 416.116 372.098L416.155 372.058C417.074 368.017 417.803 363.895 418.301 359.773L419.987 347.973L408.49 351.489L422.822 369.068C425.696 371.937 430.218 371.856 433.016 368.865C435.852 365.915 435.928 361.147 433.207 358.116L432.826 357.995Z" fill="black"/>
<path d="M499.123 401.351L474.598 410.767C471.839 411.656 469.808 414.202 469.425 417.233C469.041 420.304 470.383 423.295 472.835 424.951L494.219 441.52L490.578 434.812V464.514L490.616 464.474C490.693 467.545 492.494 470.293 495.215 471.465C497.897 472.637 501.04 472.071 503.147 469.929L523.534 451.704L516.368 453.684L541.008 462.575H541.046C543.576 463.302 546.297 462.575 548.174 460.595C550.014 458.614 550.742 455.745 550.052 453.078L541.238 425.235L540.548 431.216L555.647 407.05C556.912 404.626 556.912 401.676 555.609 399.291C554.306 396.907 551.892 395.412 549.286 395.331L523.496 396.382L529.857 400.221L514.529 376.297C512.996 373.711 510.16 372.297 507.248 372.701C504.374 373.105 501.959 375.247 501.116 378.156L494.065 406.727H494.027C493.337 410.687 495.636 414.566 499.315 415.617C502.994 416.708 506.826 414.647 508.167 410.849L515.218 382.52L501.768 384.379C507.056 392.462 511.578 401.554 517.748 408.99C521.58 413.758 529.627 411.899 534.801 411.697L549.325 411.091L542.963 399.412L535.031 412.223L529.819 420.588H529.857C528.286 422.568 527.29 424.952 526.983 427.538C527.213 429.478 527.673 431.377 528.363 433.196L531.505 443.541L536.027 457.2L545.071 447.663L531.62 442.814C527.098 441.157 519.472 436.59 514.758 439.5L514.72 439.54C510.696 442.652 506.902 446.127 503.377 449.886L492.878 459.301L505.446 464.797L505.408 449.158C505.753 444.026 505.753 438.854 505.408 433.721C504.527 428.225 496.364 423.376 492.456 420.79L480.499 411.495L478.736 425.68L503.262 416.264C507.132 415.051 509.355 410.849 508.358 406.727C507.822 404.706 506.557 403.009 504.833 401.999C503.108 400.988 501.039 400.745 499.123 401.351Z" fill="black"/>
<path d="M520.431 280.322L514.645 256.723C513.802 253.773 511.387 251.631 508.475 251.227C505.601 250.863 502.765 252.278 501.194 254.864L488.433 274.503L494.794 270.664L473.487 269.614L473.526 269.654C470.958 269.775 468.621 271.311 467.356 273.695C466.091 276.079 466.091 278.949 467.356 281.333L479.619 301.296L478.929 295.315L471.571 318.269C470.881 320.977 471.61 323.846 473.487 325.786C475.327 327.766 478.047 328.533 480.615 327.806L500.695 320.451L493.529 318.471L510.314 333.584C512.46 335.686 515.564 336.292 518.285 335.12C521.005 333.948 522.806 331.2 522.883 328.089V303.68L519.243 310.388L536.909 296.85C539.361 295.234 540.703 292.244 540.358 289.172C539.974 286.142 537.943 283.596 535.146 282.707L515.526 274.826C511.617 273.695 507.593 276.12 506.482 280.201C505.485 284.323 507.746 288.526 511.617 289.738L531.237 297.618L529.474 283.434L519.664 291.072C516.024 293.86 509.164 297.578 508.398 302.67H508.36C508.053 306.953 508.053 311.277 508.36 315.601V328.128L520.929 322.632L512.306 314.873H512.268C509.241 311.721 505.984 308.852 502.458 306.266C498.128 303.558 491.767 307.317 487.551 308.731L476.476 312.772L485.52 322.309L489.352 310.509L491.92 302.548H491.882C492.571 300.891 492.993 299.113 493.146 297.295C493.146 292.728 488.548 287.556 486.363 283.959L479.887 273.614L473.526 285.292H485.099C490.119 285.292 497.056 287.273 500.58 282.706C505.485 276.402 509.509 269.047 513.916 262.016L500.466 260.157L506.597 284.444C508.245 287.677 511.77 289.253 515.104 288.243C518.438 287.273 520.661 283.959 520.431 280.322Z" fill="black"/>
<path d="M448.738 116.661L460.004 103.204C461.882 101.224 462.572 98.3546 461.882 95.647C461.231 92.9799 459.276 90.9189 456.785 90.2724L440.882 88.0093L445.289 91.5251L437.931 75.3606C436.59 73.0168 434.176 71.6024 431.57 71.6024C428.964 71.6024 426.512 73.0168 425.17 75.3606L418.311 92.0506L422.718 88.5349L406.814 91.5253C404.324 92.2527 402.369 94.3541 401.718 97.0212C401.028 99.6479 401.756 102.477 403.596 104.457L415.36 117.187L413.482 109.63L411.03 127.855L411.068 127.815C410.263 130.845 411.336 134.078 413.712 136.018C416.05 137.958 419.269 138.2 421.836 136.624L435.977 127.734H428.121L442.452 136.018C445.02 137.513 448.239 137.271 450.576 135.371C452.914 133.432 453.949 130.239 453.221 127.208L450.193 109.104C449.082 104.982 445.058 102.598 441.149 103.73C437.317 104.942 435.056 109.145 436.053 113.226L439.08 131.33L449.887 122.521L442.338 118.156V118.197C439.31 115.934 435.861 114.358 432.26 113.549C428.428 114.398 424.864 116.217 421.836 118.843L414.364 123.491L425.171 132.3L426.435 123.006V122.965C427.278 119.247 427.815 115.489 428.121 111.691C428.121 107.124 423.331 103.407 420.572 100.417L414.211 93.4659L410.992 106.397L419.614 104.862C423.523 104.054 429.425 104.054 431.302 99.8912H431.264C432.528 97.1837 433.64 94.3953 434.598 91.5262L438.047 83.2419H425.286C427.738 88.6166 429.884 94.3951 432.758 99.5678C435.594 104.74 440.307 103.609 444.446 104.134L453.068 105.387L449.619 92.8599L437.932 105.67C435.134 108.742 435.134 113.591 437.932 116.662C439.311 118.238 441.265 119.127 443.335 119.127C445.366 119.127 447.32 118.237 448.738 116.661Z" fill="black"/>
<path d="M507.864 204.999L526.719 201.806C532.505 200.877 533.386 192.714 529.937 188.875L516.41 173.639L518.288 181.196L521.507 159.577C522.235 156.546 521.162 153.394 518.824 151.495C516.487 149.595 513.306 149.312 510.739 150.808L493.877 161.153H501.349L484.488 150.808H484.411C481.843 149.232 478.625 149.474 476.287 151.414C473.949 153.354 472.915 156.546 473.643 159.577L477.168 181.196L479.046 173.639L465.404 188.835C461.955 192.674 462.837 200.837 468.623 201.766L487.554 204.959L483.147 201.443L491.578 221.082V221.123C492.957 223.507 495.371 224.921 497.977 224.921C500.583 224.921 502.997 223.507 504.338 221.123L512.769 201.483C514.455 197.806 513.344 193.401 510.125 191.138C506.676 189.198 502.384 190.411 500.315 193.926L491.884 213.566H504.645L500.507 204.029C499.05 200.715 497.862 197.078 496.176 193.683C494.49 190.289 487.554 189.44 483.415 188.713L472.839 186.935L476.058 199.866L483.415 191.582C486.366 188.39 491.846 183.944 491.846 179.176L491.884 179.257C491.578 174.973 491.003 170.77 490.121 166.608L488.435 155.535L477.169 164.224L486.098 169.598C489.317 171.457 493.839 175.377 497.786 175.377C501.695 175.377 506.217 171.457 509.474 169.598L518.403 164.224L507.596 155.414C506.408 162.971 504.952 170.527 504.147 178.084C504.147 183.459 509.052 187.824 512.271 191.339L519.82 199.825L523.039 186.894L504.185 190.086H504.262C500.659 191.5 498.705 195.582 499.74 199.461C500.736 203.341 504.415 205.725 508.17 204.998L507.864 204.999Z" fill="black"/>
<path d="M591.251 170.446L604.012 159.172C605.852 157.232 606.58 154.403 605.89 151.736C605.239 149.069 603.284 146.967 600.793 146.24L585.081 141.391L590.178 146.765L585.081 129.388C584.238 126.438 581.824 124.297 578.912 123.893C576.037 123.488 573.202 124.903 571.63 127.53L562.817 143.047L569.178 139.208L553.007 139.815C547.987 139.815 543.197 146.523 546.645 151.493L556.456 165.879L555.651 159.899L551.244 177.68C549.979 182.853 554.884 189.56 560.288 187.217L575.271 180.59L569.599 179.862L582.859 190.207H582.821C585.12 191.541 587.917 191.541 590.178 190.167C592.439 188.793 593.857 186.247 593.895 183.499L593.436 165.274C593.321 161.031 590.102 157.636 586.078 157.515C582.016 157.556 578.759 161.031 578.72 165.274L579.487 183.904L590.561 177.196L583.702 171.821V171.78C581.326 169.073 578.452 166.85 575.271 165.274C571.631 164.143 567.53 166.931 564.273 168.386L556.341 171.902L565.384 181.439L567.645 172.346L567.607 172.306C568.833 168.992 569.638 165.517 570.06 161.96C570.06 157.919 566.419 154.323 564.273 151.615L558.87 143.978L552.815 154.929H561.859C566.189 154.929 571.669 154.929 574.811 151.535H574.773C576.574 148.908 578.184 146.119 579.601 143.25L584.2 135.289L570.749 133.43C572.627 139.411 574.198 145.957 576.536 151.736C578.873 157.515 584.085 157.111 588.224 158.364L596.846 161.071L593.627 148.14L580.866 159.414V159.373C577.992 162.404 577.992 167.294 580.866 170.325C583.74 173.356 588.339 173.396 591.251 170.446Z" fill="black"/>
<path d="M656.97 176.674L669.807 169.238L669.846 169.198C672.068 167.783 673.448 165.237 673.448 162.489C673.448 159.741 672.068 157.195 669.846 155.741L656.817 148.588L660.151 153.235L658.005 136.99L657.966 137.03C657.277 134.404 655.284 132.343 652.755 131.615C650.225 130.928 647.543 131.696 645.704 133.636L635.893 145.516L643.059 143.536L628.919 140.95C626.083 140.222 623.056 141.314 621.255 143.779C619.454 146.244 619.185 149.598 620.603 152.346L627.386 166.813V158.932L620.91 173.642H620.872C619.492 176.39 619.722 179.744 621.561 182.209C623.362 184.674 626.351 185.766 629.226 185.038L643.366 182.129L636.2 180.148L646.01 191.827V191.868C648.118 194.05 651.298 194.696 654.058 193.524C656.74 192.231 658.465 189.483 658.541 186.372L660.419 169.925C660.457 165.924 657.545 162.53 653.751 162.166C649.727 162.287 646.508 165.682 646.393 169.925L643.941 185.968L656.51 180.472L651.298 174.491C649.497 171.865 647.351 169.561 644.937 167.541C641.488 165.48 636.506 167.541 632.865 167.541L625.124 169.198L633.478 180.594L636.927 172.835H636.889C638.805 169.481 640.185 165.803 640.913 161.964C640.146 158.246 638.728 154.731 636.697 151.619L633.248 144.587L624.894 155.984L632.827 157.439C636.736 158.166 642.062 160.025 645.396 157.439V157.398C647.465 155.499 649.343 153.317 650.991 151.013L656.087 144.911L643.939 141.193C644.629 146.568 644.936 152.145 646.085 157.438C647.273 162.732 651.872 163.419 655.206 165.197L662.448 169.238V155.781L649.611 163.217C646.124 165.399 644.936 170.168 646.967 173.845C649.036 177.562 653.558 178.815 657.083 176.673L656.97 176.674Z" fill="black"/>
<path d="M715.645 81.901L737.411 100.126L737.45 100.086C739.557 102.228 742.7 102.793 745.382 101.621C748.103 100.45 749.904 97.7015 749.981 94.6303L749.406 63.5946L747.26 69.0905L769.027 51.4715C773.625 47.6325 770.483 40.0752 765.808 38.54L740.018 29.6495L745.115 35.0242L736.876 5.52372H736.837C735.994 2.61412 733.58 0.472349 730.706 0.0682647C727.793 -0.335841 724.958 1.07854 723.425 3.66489L708.02 29.1235L714.381 25.2845H687.518C684.874 25.3653 682.498 26.8605 681.195 29.2447C679.854 31.629 679.854 34.579 681.118 37.0036L697.405 61.6139L696.715 55.6331L688.361 85.1336L688.4 85.0932C687.71 87.7603 688.438 90.6295 690.277 92.6096C692.155 94.5898 694.876 95.3576 697.405 94.6301L722.812 84.2849C726.682 83.0725 728.943 78.8698 727.908 74.7478C726.835 70.6259 722.812 68.2416 718.903 69.3732L693.496 79.7184L702.54 89.2555L706.871 74.0604L709.706 63.7152L709.668 63.6748C710.434 61.6946 710.933 59.5933 711.162 57.4515C710.933 54.946 709.936 52.6021 708.288 50.7432L702.808 41.6507L694.186 28.5981L687.825 40.2768H702.54C707.752 40.2768 716.757 42.055 720.474 37.1652V37.2056C723.387 32.9624 726.069 28.5981 728.522 24.0723L736.454 11.0198L722.428 9.16083L726.644 24.2742C727.755 29.4468 729.211 34.579 730.974 39.5903C733.312 44.965 742.356 46.2986 747.145 47.9553L761.554 52.9259L758.336 39.9944L746.456 50.3396C742.318 53.7341 734.692 57.8965 734.385 64.0791C734.385 74.4243 734.385 84.7696 734.96 95.1148L747.529 89.6189L725.762 71.3937V71.4341C722.849 68.5245 718.289 68.5245 715.377 71.4341C712.886 74.465 713 78.9916 715.645 81.901Z" fill="black"/>
<path d="M147.839 616.946L139.409 578.151C138.566 575.201 136.151 573.06 133.239 572.656C130.365 572.251 127.529 573.666 125.958 576.292L104.268 607.328L110.63 603.489L75.9105 600.782L75.9488 600.822C73.3047 600.862 70.9287 602.358 69.5875 604.742C68.2846 607.126 68.2846 610.076 69.5492 612.501L89.1696 645.718L88.4798 639.738L74.9525 677.239C74.2627 679.947 74.9908 682.816 76.8685 684.755C78.708 686.736 81.4287 687.503 83.9962 686.776L117.566 676.431L110.4 674.451L137.072 700.112H137.033C139.179 702.254 142.283 702.819 145.004 701.648C147.725 700.476 149.526 697.728 149.603 694.656L150.982 654.609L147.342 661.317L176.772 640.627C179.263 639.01 180.604 635.98 180.221 632.949C179.838 629.918 177.807 627.372 175.01 626.442C164.164 621.674 153.282 617.027 142.36 612.46V612.5C140.482 611.935 138.451 612.177 136.765 613.187C135.079 614.198 133.815 615.895 133.317 617.875C132.32 621.997 134.581 626.2 138.413 627.412L171.063 641.395L169.3 627.21L153.435 638.162C148.645 641.556 138.03 646.648 136.842 653.154C136.19 660.024 135.922 666.934 136.075 673.844L135.386 694.535L147.954 689.039L133.814 675.501C129.484 670.49 124.732 665.883 119.597 661.842C114.194 658.65 103.885 664.308 98.712 665.964L80.3561 672.188L89.4 681.725L96.0295 661.842L100.551 649.032C101.624 646.728 102.352 644.304 102.621 641.758C102.238 638.929 101.088 636.262 99.3635 633.999L92.504 622.199L82.6938 604.621L76.3325 616.299L95.2632 617.754C101.356 617.754 112.24 621.391 116.838 615.895C125.077 606.156 131.744 594.276 139.102 583.728L125.651 581.869L133.814 621.068C135.768 630.807 149.985 626.685 147.839 616.946Z" fill="black"/>
<path d="M301.163 653.278L313.541 645.641V645.6C315.763 644.186 317.143 641.64 317.143 638.892C317.143 636.144 315.763 633.598 313.541 632.144L300.588 625.435L303.922 630.083L301.585 614.242C300.857 611.615 298.902 609.554 296.373 608.867C293.844 608.14 291.161 608.908 289.322 610.847L279.512 622.728L286.678 620.748L272.843 618.565V618.606C269.931 617.798 266.865 618.889 265.064 621.394C263.263 623.9 263.033 627.254 264.489 630.002L271.349 643.862V635.982L265.179 650.449C263.723 653.197 263.953 656.551 265.754 659.057C267.555 661.562 270.621 662.653 273.495 661.845L287.213 658.733L280.967 656.793L290.777 667.866V667.826C292.923 670.048 296.066 670.695 298.825 669.482C301.507 668.23 303.27 665.441 303.347 662.37L304.918 646.529C304.918 642.246 301.622 638.771 297.56 638.771C293.536 638.892 290.279 642.286 290.202 646.529L288.631 662.37L301.2 656.874L295.873 651.5C294.034 649.034 291.888 646.771 289.512 644.872C286.063 642.811 281.158 644.872 277.555 645.478L270.083 647.256L278.437 658.653L281.656 651.015V650.975C283.304 647.903 284.606 644.671 285.488 641.276C285.488 637.437 283.035 633.315 281.464 630.002L277.747 622.445L269.393 633.841L276.942 635.094C280.468 635.619 285.679 637.276 288.899 635.094V635.054C291.275 633.073 293.344 630.689 294.992 628.022L299.897 621.92L287.634 618.525C288.401 623.698 288.822 628.871 289.972 634.366C291.16 639.862 295.567 640.145 298.901 641.923L306.067 645.762V632.305L293.689 639.943L293.727 639.902C290.394 642.084 289.244 646.61 291.083 650.247C293.114 653.965 297.6 655.299 301.163 653.278Z" fill="black"/>
<path d="M206.387 654.696L188.031 666.819H188.069C185.808 668.234 184.467 670.78 184.467 673.528C184.467 676.276 185.808 678.821 188.069 680.276L207.69 689.571L204.356 684.923L208.763 708.726C209.452 711.353 211.445 713.413 213.974 714.1C216.465 714.828 219.186 714.06 221.025 712.12L234.744 693.612L229.532 695.875L250.532 698.34C256.319 699.067 259.346 691.308 256.893 686.661L245.819 665.97L246.508 671.951L255.131 649.725C257.392 644.028 250.992 639.38 246.087 640.188L225.47 645.886L232.636 647.867L216.924 631.743H217C214.854 629.641 211.75 629.035 209.03 630.207C206.347 631.379 204.546 634.127 204.431 637.238L202.477 661.849C202.477 666.132 205.772 669.608 209.834 669.608C213.896 669.608 217.192 666.132 217.192 661.849L218.763 637.643L206.194 643.139L214.548 651.706C217.269 655.383 220.603 658.495 224.359 660.92C228.382 662.698 234.169 659.788 238.499 658.657L249.765 655.545L240.721 646.008L236.123 657.808C233.823 661.808 232.406 666.294 231.907 670.941C233.249 675.467 235.318 679.751 238 683.59L243.902 694.541L250.455 682.539L238.958 681.205C234.819 680.68 228.573 678.74 225.009 681.205H225.047C222.212 684.074 219.721 687.307 217.575 690.823L210.524 700.36L222.786 703.755C221.713 695.753 220.219 687.792 218.379 679.952C217 674.901 210.524 673.244 206.5 671.264L195.502 665.97V679.427L213.858 667.304C222.097 662.899 214.434 649.442 206.387 654.696Z" fill="black"/>
<path d="M750.088 664.11L761.853 662.574C764.803 662.493 767.409 660.635 768.635 657.806C769.708 654.896 769.095 651.582 767.064 649.319L759.017 639.58L760.895 647.137L763.654 633.801H763.615C764.344 630.77 763.271 627.618 760.933 625.719C758.595 623.82 755.415 623.537 752.847 625.032L742.04 630.811H749.513L739.703 624.304C737.403 622.931 734.606 622.971 732.345 624.345C730.084 625.719 728.666 628.265 728.59 631.013L729.777 644.47L731.923 638.974L722.995 648.188C721.155 650.127 720.465 652.956 721.117 655.623C721.768 658.29 723.723 660.392 726.252 661.119L737.94 663.382L732.23 658.129L736.752 670.535C737.595 673.485 739.933 675.667 742.807 676.112C745.757 676.475 748.631 675.02 750.164 672.394L756.257 660.27V660.31C758.327 656.593 757.139 651.824 753.613 649.642C750.088 647.46 745.566 648.713 743.497 652.431L737.404 664.554L750.855 666.413C749.283 661.968 747.712 657.523 746.064 653.077C744.378 648.632 739.971 648.309 736.254 647.581L729.778 646.329L732.997 659.26L737.787 654.29C740.24 651.825 743.459 649.319 743.957 645.601H743.995C744.263 643.096 744.263 640.55 743.995 638.044L742.922 630.811L732.231 637.842L737.826 641.358C740.546 643.864 744.034 645.238 747.636 645.278C750.395 644.47 753.039 643.217 755.492 641.56L761.163 638.449L750.356 629.639C749.36 634.407 748.095 639.176 747.406 644.025C746.716 648.874 750.433 651.784 753 654.37L757.522 659.745L761.661 647.055L749.897 648.591C745.873 648.712 742.616 652.107 742.539 656.35C742.922 660.068 745.95 664.635 750.088 664.11Z" fill="black"/>
<path d="M700.547 601.232L687.978 590.886C685.832 588.745 682.728 588.098 679.969 589.229C677.248 590.482 675.485 593.271 675.447 596.382V614.082L679.087 607.374L666.135 617.719V617.678C663.644 619.335 662.264 622.366 662.571 625.437C662.992 628.509 665.062 631.014 667.898 631.863L682.919 637.237L677.899 630.812C679.355 636.389 680.85 642.086 682.421 647.663C683.264 650.613 685.678 652.755 688.552 653.159C691.465 653.563 694.3 652.149 695.833 649.522L704.954 635.257L698.592 639.096H714.381C716.987 639.056 719.401 637.561 720.704 635.136C722.007 632.752 722.045 629.802 720.742 627.418L710.932 613.153L711.622 619.133L716.834 602.564C717.523 599.897 716.795 597.028 714.956 595.048C713.078 593.108 710.357 592.34 707.828 593.068L692.998 599.776C689.434 601.19 687.441 605.231 688.476 609.111C689.511 612.99 693.151 615.415 696.907 614.688L712.619 608.666L702.808 599.17L700.049 607.656C698.517 611.172 697.635 614.93 697.405 618.809C698.478 622.365 700.318 625.679 702.694 628.427L707.599 635.984L713.96 624.305H705.338C701.697 624.305 696.792 623.255 693.765 625.76C691.274 628.346 689.166 631.377 687.518 634.651L682.728 642.207L696.179 644.066C695.489 641.359 694.723 638.772 694.033 636.105C693.343 633.398 692.577 629.397 691.389 626.285C690.201 623.174 683.84 620.79 679.892 619.456L671.538 616.466L673.378 630.811L680.429 625.315C683.763 622.729 689.243 619.618 690.239 614.97C690.431 611.778 690.431 608.585 690.239 605.352V596.26L677.67 601.756L690.239 612.101C693.151 615.051 697.75 615.051 700.662 612.101C703.421 609.03 703.382 604.222 700.547 601.232Z" fill="black"/>
<path d="M486.4 481.61C485.901 463.748 477.701 447.099 464.135 436.43C451.527 428.186 436.966 423.821 422.136 423.903C404.355 422.287 386.497 425.883 370.517 434.248C353.235 444.593 349.441 464.152 350.897 483.994C351.587 494.339 353.35 504.685 353.656 515.03C353.809 528.326 353.196 541.58 351.778 554.754C349.824 574.515 346.298 598.398 356.683 616.825C367.068 635.252 386.114 636.384 403.857 637.515C423.477 639.293 448.692 639.698 465.056 625.635C481.458 611.572 482.339 584.981 483.22 563.564C484.408 536.043 489.39 508.847 486.746 480.802C485.75 470.982 471.034 470.456 472.031 480.802H472.069C473.372 499.795 472.835 518.829 470.383 537.701C468.62 555.603 469.616 574.111 466.244 591.811C461.952 613.956 447.735 621.513 428.115 623.049C419.454 623.534 410.756 623.291 402.133 622.442C392.821 622.402 383.663 620.099 375.347 615.694C362.203 606.803 363.85 585.264 364.847 571.12C366.916 552.694 368.066 534.185 368.257 515.676C368.257 498.704 362.088 479.872 366.993 463.142C371.898 446.371 390.445 441.845 404.969 440.472C418.956 438.451 433.212 439.744 446.662 444.27C461.569 450.049 471.648 464.88 471.954 481.61C472.835 491.349 487.548 491.551 486.4 481.61Z" fill="black"/>
<path d="M472.263 594.476C502.307 607.408 535.033 611.893 567.223 607.408C581.287 606.559 595.198 603.528 608.418 598.436C621.447 592.213 631.564 580.777 636.469 566.673C646.778 534.709 637.236 497.57 625.395 467.787V467.747C621.831 454.209 610.373 444.632 597.037 443.985C582.054 444.713 567.377 448.43 553.696 454.937C528.633 463.261 503.073 469.687 477.168 474.172C467.856 476.153 471.88 491.024 481.077 489.084C500.697 485.043 520.318 481.123 539.057 476.032C549.442 473.243 559.367 469.404 569.485 465.686C579.601 461.969 596.577 454.533 605.507 462.373H605.468C609.914 467.949 613.018 474.537 614.512 481.609C617.233 489.044 619.532 496.601 621.487 504.279C625.127 518.544 626.353 533.335 625.089 548.045C624.437 562.229 617.08 575.08 605.468 582.273C594.087 587.526 581.901 590.557 569.485 591.204C538.023 596.013 505.91 591.85 476.479 579.201C467.742 575.362 463.91 590.354 472.57 594.113L472.263 594.476Z" fill="black"/>
<path d="M192.672 548.047C182.402 548.815 172.247 550.512 162.245 553.098C140.248 557.18 118.521 562.797 97.2138 569.869C76.6732 576.537 56.9379 585.669 38.3525 597.065C24.4034 605.875 7.92515 617.756 2.33039 634.809C-11.8101 678.17 56.2866 698.86 83.8395 707.225L83.8778 707.266C132.277 720.925 181.903 729.371 231.914 732.482C336.108 742.262 440.881 743.636 545.262 736.523C593.968 733.291 642.367 726.138 690.041 715.227C726.254 706.74 771.665 696.597 798.532 667.219H798.57C812.787 653.399 817.003 631.496 808.956 612.906C799.145 592.216 778.146 580.416 758.717 572.333V572.374C717.982 557.138 675.33 548.249 632.184 545.985C622.374 545.258 622.374 560.776 632.184 561.503C664.106 564.089 695.721 569.585 726.761 577.95C756.191 585.83 826.128 614.36 788.189 656.266C763.855 683.18 721.089 691.949 688.135 699.829H688.097C645.714 709.689 602.679 716.398 559.377 719.873C469.973 726.743 380.223 727.187 290.783 721.206C244.146 719.145 197.663 714.498 151.488 707.264C112.247 700.556 70.0553 691.424 35.2172 670.127C23.9512 663.176 10.1168 652.346 17.2832 636.828V636.787C22.3033 627.978 29.3546 620.663 37.7846 615.491C56.0639 602.964 75.8756 593.102 96.6458 586.112C117.032 579.04 137.879 573.423 159.033 569.342C167.08 567.685 175.204 566.149 183.252 564.775L190.418 563.724H192.181V563.765C196.32 563.926 199.769 560.491 199.884 556.167C200.037 551.843 196.772 548.208 192.672 548.047Z" fill="black"/>
<path d="M388.876 710.663L386.04 685.123L383.895 690.619L401.368 673.444H401.33C403.17 671.585 403.974 668.837 403.438 666.17C402.901 663.543 401.1 661.401 398.686 660.512L375.732 655.663L380.829 661.038L371.517 637.356V637.316C370.635 634.406 368.259 632.265 365.347 631.861C362.473 631.456 359.637 632.871 358.066 635.457C355.996 638.852 354.425 642.691 352.586 645.802L346.684 657.481L353.046 653.642L330.014 656.794C327.102 656.875 324.496 658.774 323.346 661.643C322.235 664.472 322.81 667.786 324.803 670.009L340.783 688.719L338.905 681.162L333.885 706.419H333.923C333.233 709.45 334.268 712.642 336.606 714.542C338.943 716.441 342.124 716.724 344.73 715.229L365.922 704.883H358.449L378.069 717.936C381.595 720.078 386.117 718.825 388.186 715.107C390.255 711.389 389.067 706.621 385.542 704.479L374.658 697.448C371.132 695.185 366.036 690.416 361.706 690.416C359.483 690.699 357.337 691.507 355.421 692.76L348.255 696.397L336.758 702.297L347.565 711.107L350.209 698.175L351.896 689.366C352.47 687.224 352.777 685.001 352.777 682.738C352.087 677.97 346.301 672.999 342.967 669.686L334.345 659.34L330.014 672.191L342.967 670.737C347.565 670.211 355.996 670.736 359.061 666.493C361.514 662.654 363.621 658.573 365.346 654.289C367.224 650.652 368.871 646.651 371.017 643.217L357.107 641.156L362.012 653.683C363.468 658.128 365.154 662.492 367.108 666.695C369.676 671.342 376.919 671.463 381.709 672.393L394.47 675.1L391.251 662.169L381.441 671.463C378.299 674.575 371.631 678.899 371.631 683.789H371.592C371.554 688.315 371.976 692.8 372.895 697.246L374.351 710.379C374.505 714.582 377.724 717.976 381.709 718.138C385.58 717.976 388.685 714.745 388.876 710.663Z" fill="black"/>
<path d="M456.361 706.743L470.31 699.105C472.532 697.65 473.912 695.104 473.912 692.356C473.912 689.608 472.533 687.062 470.31 685.648L456.668 677.687L460.308 684.395L458.239 666.897C458.124 663.826 456.361 661.078 453.717 659.785C450.958 658.654 447.816 659.3 445.67 661.442L434.863 673.848L442.029 671.868L427.007 668.675H427.046C424.171 667.948 421.144 669.039 419.343 671.504C417.542 673.969 417.312 677.323 418.691 680.071L425.551 695.791V687.911L418.308 703.227C416.852 705.975 417.082 709.329 418.883 711.794C420.723 714.259 423.75 715.35 426.662 714.623L441.684 712.036L434.518 710.056L445.018 722.665H444.979C446.819 724.766 449.578 725.655 452.222 724.968C454.828 724.281 456.897 722.14 457.549 719.351L460.001 702.055V702.095C460.729 700.034 460.614 697.771 459.656 695.872C458.737 693.932 457.05 692.478 455.058 691.912C453.103 691.306 450.957 691.629 449.233 692.801C447.47 693.932 446.244 695.832 445.861 697.933L443.408 715.229L455.671 711.835L450.268 705.329L450.306 705.288C448.466 702.5 446.244 700.035 443.715 697.933C440.381 695.953 435.092 697.933 431.452 697.933L423.021 699.388L431.375 710.784L435.207 702.621H435.169C437.353 699.227 438.848 695.428 439.614 691.428C438.848 687.427 437.43 683.629 435.36 680.154L431.452 672.193L423.098 683.589L431.337 685.367C434.977 686.175 440.381 688.156 443.791 686.095L443.829 686.054C446.358 683.993 448.581 681.528 450.497 678.821L456.092 672.395L443.523 666.899L445.592 684.397C445.861 687.59 447.662 690.418 450.383 691.833L454.981 694.419L462.837 699.067V685.65L448.926 692.883C445.4 695.066 444.213 699.834 446.282 703.551C448.313 707.269 452.835 708.522 456.36 706.34L456.361 706.743Z" fill="black"/>
<path d="M626.274 701.249L636.084 671.265L630.987 676.639L658.156 667.951C660.686 667.224 662.64 665.122 663.292 662.455C663.943 659.788 663.253 656.959 661.414 655.019L639.839 636.107L641.985 641.603L644.514 610.123C644.476 607.375 643.058 604.829 640.797 603.455C638.536 602.081 635.739 602.041 633.439 603.414C625.699 609.638 617.843 615.619 609.987 621.72L615.659 620.993L589.869 610.648C584.389 608.263 580.058 615.012 580.825 620.185L587.991 650.493L589.869 642.936L571.628 667.748C569.635 670.011 569.06 673.285 570.171 676.154C571.321 678.983 573.927 680.882 576.839 681.003H604.698L598.337 677.164L612.823 703.229C614.892 706.947 619.414 708.2 622.939 706.017C626.465 703.835 627.652 699.067 625.583 695.349L617.842 681.489C615.773 676.518 613.09 671.831 609.91 667.547C606.193 663.627 597.149 665.162 592.436 665.081H576.84L582.051 678.336L591.862 664.879L597.84 656.716V656.675C599.602 654.735 601.02 652.513 602.055 650.048C602.4 647.421 602.093 644.754 601.174 642.289L598.836 631.944L594.889 615.173L585.845 624.71L600.254 630.812C604.853 632.792 612.326 637.844 617.307 634.853C622.328 631.863 625.355 628.549 629.264 625.559L640.761 616.547L629.801 610.122L628.613 626.044C628.613 631.217 627.425 636.389 627.54 641.885C627.655 647.38 635.281 652.23 639.228 655.745L651.299 666.09L654.518 653.159L639.688 657.806C634.591 659.463 625.164 660.716 622.52 666.292H622.558C620.566 671.384 618.841 676.557 617.347 681.81L612.135 697.207C608.916 706.542 623.131 710.585 626.274 701.249Z" fill="black"/>
<path d="M538.786 668.072L550.283 646.048C552.62 641.401 550.283 633.642 543.921 634.369L521.734 637.279L526.945 639.542L512.192 620.467C510.352 618.528 507.67 617.76 505.141 618.487C502.611 619.174 500.619 621.235 499.929 623.862L495.522 649.119L498.856 644.472L478.239 654.817C476.016 656.231 474.637 658.777 474.637 661.525C474.637 664.273 476.016 666.819 478.239 668.274L497.859 680.801L494.219 674.092L496.173 699.754L496.211 699.713C496.288 702.785 498.089 705.533 500.81 706.745C503.492 707.917 506.635 707.311 508.742 705.209L525.221 687.832L518.055 689.813L539.821 695.51C544.726 696.844 551.203 691.793 548.865 685.974L539.477 661.848C538.289 657.807 534.303 655.463 530.433 656.474C528.555 656.999 526.946 658.292 525.988 660.111C525.03 661.889 524.8 664.031 525.336 665.97L535.146 689.368L544.19 679.831L532.311 676.719C527.981 675.588 520.929 672.274 516.715 674.861V674.901C513.112 677.689 509.817 680.922 506.904 684.519L498.474 693.53L511.043 699.026C510.353 690.217 510.353 681.043 508.973 672.355C507.977 666.779 501.041 663.869 496.825 661.202L485.942 654.171V667.628L496.787 661.849C501.002 659.788 508.169 657.929 509.548 652.635C510.927 647.341 511.004 644.149 511.809 640.026L513.955 627.418L501.807 630.812L509.356 641.157C511.579 644.916 514.261 648.391 517.289 651.503C521.006 654.614 527.099 652.432 531.813 651.503L543.884 649.967L537.523 638.288L526.219 660.191C521.505 669.001 534.15 676.842 538.786 668.072Z" fill="black"/>
</svg>
