<svg width="700" height="826" viewBox="0 0 700 826" fill="none" xmlns="http://www.w3.org/2000/svg">
<path d="M356.705 427.248L446.691 473.285L431.916 374.086C431.166 369.632 432.665 365.097 435.995 361.898L508.624 293.066L407.276 275.899C402.697 275.251 398.702 272.417 396.662 268.368L351.627 179.696C351.502 179.453 351.169 178.805 350.17 178.805L303.679 268.408C301.598 272.457 297.644 275.291 293.024 275.939L192.383 290.151L264.263 361.98C267.635 365.138 269.133 369.673 268.342 374.167L251.111 471.666L343.511 427.37C345.592 426.318 347.84 425.791 350.087 425.791C352.418 425.71 354.624 426.196 356.705 427.248Z" fill="black"/>
<path d="M599.323 340.314C599.323 206.622 487.529 97.8176 350.046 97.8176C212.616 97.8176 100.769 206.571 100.769 340.314C100.769 474.006 212.563 582.811 350.046 582.811C487.476 582.811 599.323 473.975 599.323 340.314ZM252.743 501.018C246.541 501.018 240.424 499.156 235.179 495.431C225.898 488.872 221.277 477.939 223.275 466.926L239.216 376.553L171.707 312.539C163.465 304.724 160.593 293.306 164.131 282.658C167.711 272.05 176.951 264.438 188.355 262.817L281.629 249.618L323.334 167.424C328.412 157.423 338.692 151.188 350.18 151.148C361.667 151.148 371.948 157.383 377.067 167.424L418.772 249.618L511.755 262.777C523.159 264.397 532.483 272.009 536.02 282.698C539.6 293.346 536.686 304.886 528.403 312.741L461.101 376.552L477.042 466.925C478.999 477.938 474.42 488.871 465.139 495.43C455.899 501.989 443.787 502.88 433.59 497.657L350.18 454.981L266.771 497.657C262.276 499.884 257.529 501.018 252.743 501.018Z" fill="black"/>
<path d="M319.998 815.948C337.73 829.351 362.37 829.351 380.058 815.948C464.883 751.813 700 554.949 700 344.968C700.083 154.423 543.337 0 350.043 0C156.748 0 0 154.423 0 344.927C0 554.949 235.202 751.766 319.984 815.938L319.998 815.948ZM72.5114 340.314C72.5114 191.437 197.006 70.2873 350.046 70.2873C503.128 70.2873 627.623 191.396 627.623 340.273C627.623 489.15 503.128 610.3 350.046 610.3C197.006 610.3 72.5114 489.192 72.5114 340.314Z" fill="black"/>
</svg>
