<svg width="816" height="823" viewBox="0 0 816 823" fill="none" xmlns="http://www.w3.org/2000/svg">
<path d="M439.62 66.0489C437.849 64.1967 436.616 61.8896 436.055 59.3791C435.495 56.8686 435.629 54.2512 436.442 51.812C437.255 49.3729 438.717 47.2058 440.668 45.547C442.618 43.8882 444.983 42.8014 447.504 42.405L478.555 37.5926L492.248 8.09012C493.365 5.673 495.142 3.62762 497.372 2.19448C499.602 0.76133 502.191 0 504.834 0C507.478 0 510.068 0.76133 512.297 2.19448C514.527 3.62762 516.304 5.673 517.421 8.09012L531.045 37.5228L562.165 42.405C564.686 42.8014 567.051 43.8882 569.001 45.547C570.952 47.2058 572.414 49.3729 573.227 51.812C574.04 54.2512 574.174 56.8686 573.614 59.3791C573.053 61.8896 571.82 64.1967 570.049 66.0489L547.089 89.9019L552.414 123.171C552.832 125.764 552.52 128.423 551.513 130.846C550.507 133.268 548.847 135.358 546.722 136.877C544.596 138.395 542.091 139.282 539.491 139.436C536.891 139.59 534.3 139.005 532.013 137.748L504.834 122.543L477.656 137.748C475.603 138.892 473.294 139.492 470.948 139.491C468.091 139.515 465.303 138.61 462.995 136.911C460.835 135.411 459.143 133.323 458.114 130.891C457.086 128.458 456.764 125.781 457.186 123.171L462.58 89.9717L439.62 66.0489ZM804.211 286.515L773.091 281.633L759.467 252.2C758.35 249.783 756.573 247.738 754.343 246.305C752.113 244.872 749.524 244.11 746.88 244.11C744.236 244.11 741.647 244.872 739.418 246.305C737.188 247.738 735.411 249.783 734.294 252.2L720.601 281.703L689.55 286.515C687.029 286.912 684.664 287.998 682.713 289.657C680.763 291.316 679.301 293.483 678.488 295.922C677.675 298.361 677.541 300.979 678.101 303.489C678.662 306 679.895 308.307 681.666 310.159L704.626 334.082L699.301 367.281C698.869 369.877 699.171 372.544 700.173 374.975C701.175 377.406 702.837 379.503 704.967 381.025C707.097 382.547 709.609 383.432 712.216 383.58C714.822 383.727 717.417 383.13 719.702 381.858L746.88 366.653L774.059 381.858C776.328 383.128 778.906 383.73 781.498 383.594C784.091 383.458 786.593 382.591 788.72 381.091C790.877 379.572 792.566 377.471 793.593 375.028C794.621 372.586 794.945 369.901 794.529 367.281L789.135 334.012L812.095 310.159C813.866 308.307 815.099 306 815.66 303.489C816.22 300.979 816.086 298.361 815.273 295.922C814.46 293.483 812.998 291.316 811.047 289.657C809.097 287.998 806.732 286.912 804.211 286.515ZM681.666 66.0489C679.895 64.1967 678.662 61.8896 678.101 59.3791C677.541 56.8686 677.675 54.2512 678.488 51.812C679.301 49.3729 680.763 47.2058 682.713 45.547C684.664 43.8882 687.029 42.8014 689.55 42.405L720.601 37.5926L734.294 8.09012C735.411 5.673 737.188 3.62762 739.418 2.19448C741.647 0.76133 744.236 0 746.88 0C749.524 0 752.113 0.76133 754.343 2.19448C756.573 3.62762 758.35 5.673 759.467 8.09012L773.091 37.5228L804.211 42.405C806.732 42.8014 809.097 43.8882 811.047 45.547C812.998 47.2058 814.46 49.3729 815.273 51.812C816.086 54.2512 816.22 56.8686 815.66 59.3791C815.099 61.8896 813.866 64.1967 812.095 66.0489L789.135 89.9019L794.529 123.171C794.931 125.767 794.607 128.425 793.591 130.845C792.575 133.266 790.909 135.351 788.78 136.867C786.651 138.383 784.145 139.268 781.544 139.424C778.943 139.58 776.35 138.999 774.059 137.748L746.88 122.543L719.702 137.748C717.649 138.892 715.34 139.492 712.994 139.491C710.137 139.515 707.349 138.61 705.041 136.911C702.878 135.417 701.187 133.328 700.169 130.891C699.151 128.455 698.85 125.775 699.301 123.171L704.626 89.9717L681.666 66.0489ZM691.625 56.2147L714.515 80.1375C716.031 81.7133 717.159 83.6262 717.808 85.722C718.456 87.8178 718.608 90.0379 718.25 92.2035L712.925 125.403L740.172 110.337C742.212 109.149 744.525 108.524 746.88 108.524C749.236 108.524 751.549 109.149 753.589 110.337L780.767 125.542L775.511 92.2035C775.153 90.0379 775.305 87.8178 775.953 85.722C776.602 83.6262 777.73 81.7133 779.245 80.1375L802.205 56.3542L771.085 51.4022C768.824 51.04 766.684 50.1264 764.852 48.7407C763.02 47.3551 761.551 45.5394 760.573 43.4512L746.947 13.9488H746.878L733.185 43.4512C732.207 45.5393 730.738 47.3549 728.906 48.7405C727.074 50.1261 724.935 51.0398 722.673 51.4022L691.625 56.2147ZM288.035 491.638C283.606 488.005 278.479 485.336 272.977 483.799C267.474 482.263 261.717 481.892 256.065 482.71C250.414 483.528 244.992 485.517 240.141 488.552C235.289 491.587 231.113 495.603 227.876 500.345C224.639 505.088 222.411 510.455 221.331 516.109C220.252 521.763 220.345 527.581 221.604 533.197C222.864 538.813 225.263 544.105 228.65 548.74C232.037 553.375 236.339 557.252 241.285 560.128V614.39C241.285 619.921 243.464 625.225 247.342 629.136C251.219 633.047 256.479 635.244 261.963 635.244C267.447 635.244 272.706 633.047 276.584 629.136C280.462 625.225 282.64 619.921 282.64 614.39V560.128C288.446 556.748 293.351 551.995 296.93 546.278C300.51 540.561 302.657 534.053 303.188 527.313C303.719 520.573 302.617 513.804 299.977 507.589C297.337 501.374 293.239 495.9 288.035 491.638ZM218.325 142.769C216.539 140.928 215.29 138.626 214.717 136.116C214.143 133.606 214.267 130.985 215.075 128.541C215.883 126.097 217.343 123.926 219.295 122.264C221.247 120.603 223.616 119.517 226.14 119.125L257.26 114.313L270.953 84.8105C272.07 82.3934 273.847 80.348 276.077 78.9148C278.307 77.4817 280.896 76.7204 283.54 76.7204C286.184 76.7204 288.773 77.4817 291.002 78.9148C293.232 80.348 295.009 82.3934 296.126 84.8105L309.75 114.243L340.87 119.125C343.391 119.522 345.756 120.609 347.707 122.267C349.657 123.926 351.119 126.093 351.932 128.532C352.745 130.972 352.879 133.589 352.319 136.099C351.758 138.61 350.525 140.917 348.754 142.769L325.794 166.622L331.119 199.891C331.537 202.484 331.225 205.143 330.218 207.566C329.212 209.989 327.552 212.078 325.427 213.597C323.301 215.116 320.796 216.002 318.196 216.156C315.596 216.31 313.005 215.725 310.718 214.468L283.54 199.263L256.361 214.468C254.286 215.621 251.953 216.222 249.584 216.212C246.73 216.214 243.948 215.311 241.631 213.631C239.491 212.116 237.818 210.023 236.803 207.593C235.788 205.163 235.472 202.494 235.891 199.891L241.285 166.692L218.325 142.769ZM228.284 132.935L251.175 156.858C252.677 158.443 253.795 160.357 254.443 162.45C255.091 164.543 255.25 166.758 254.909 168.924L249.584 202.123L276.831 187.058C278.878 185.897 281.191 185.296 283.54 185.314C285.887 185.304 288.197 185.905 290.248 187.058L317.426 202.262L312.101 168.924C311.772 166.753 311.944 164.535 312.604 162.442C313.263 160.35 314.393 158.438 315.905 156.858L338.795 133.075L307.675 128.123C305.423 127.759 303.293 126.844 301.472 125.458C299.652 124.072 298.196 122.257 297.232 120.172L283.609 90.7389L283.54 90.6691L269.847 120.172C268.868 122.26 267.4 124.075 265.568 125.461C263.736 126.847 261.596 127.76 259.335 128.123L228.284 132.935ZM711.542 491.219C712.371 493.655 712.513 496.276 711.952 498.788C711.39 501.301 710.146 503.606 708.361 505.447L685.401 529.3L690.726 562.569C691.162 565.166 690.862 567.835 689.861 570.268C688.859 572.701 687.198 574.799 685.066 576.322C682.935 577.845 680.421 578.73 677.813 578.876C675.205 579.022 672.61 578.422 670.325 577.146L643.146 561.941L615.968 577.146C613.685 578.414 611.094 579.011 608.491 578.867C605.888 578.724 603.377 577.847 601.244 576.335C599.111 574.823 597.442 572.738 596.426 570.317C595.41 567.896 595.089 565.235 595.498 562.639L600.892 529.37L577.932 505.447C576.132 503.616 574.879 501.31 574.317 498.794C573.754 496.278 573.905 493.653 574.751 491.219C575.555 488.773 577.014 486.599 578.967 484.937C580.92 483.276 583.29 482.191 585.816 481.804L616.867 476.991L630.56 447.489C631.676 445.071 633.454 443.026 635.684 441.592C637.913 440.159 640.502 439.398 643.146 439.398C645.791 439.398 648.38 440.159 650.609 441.592C652.839 443.026 654.617 445.071 655.733 447.489L669.357 476.991L700.477 481.804C703.002 482.191 705.372 483.276 707.325 484.938C709.277 486.6 710.738 488.774 711.542 491.219ZM698.471 495.753L667.351 490.801C665.085 490.452 662.94 489.543 661.106 488.156C659.272 486.769 657.806 484.946 656.839 482.85L643.216 453.417L643.146 453.347L629.454 482.85C628.487 484.946 627.021 486.769 625.187 488.156C623.353 489.543 621.208 490.452 618.942 490.801L587.891 495.613L610.781 519.536C612.297 521.112 613.425 523.025 614.074 525.12C614.722 527.216 614.874 529.436 614.516 531.602L609.191 564.801L636.438 549.736C638.492 548.592 640.8 547.992 643.146 547.992C645.493 547.992 647.801 548.592 649.855 549.736L677.033 564.941L671.777 531.602C671.419 529.436 671.571 527.216 672.219 525.12C672.868 523.025 673.996 521.112 675.511 519.536L698.471 495.753ZM559.329 337.569C555.994 340.953 553.907 345.386 553.417 350.132C552.926 354.877 554.061 359.649 556.632 363.654C558.416 366.337 559.225 369.56 558.923 372.776C558.62 375.992 557.224 379.003 554.972 381.3L544.184 392.18C541.904 394.427 538.927 395.813 535.752 396.105C532.578 396.397 529.401 395.578 526.756 393.784C522.779 391.183 518.037 390.037 513.323 390.538C508.609 391.039 504.208 393.157 500.856 396.538C497.504 399.918 495.404 404.357 494.907 409.111C494.41 413.866 495.546 418.648 498.126 422.659C499.908 425.343 500.717 428.565 500.414 431.78C500.112 434.996 498.717 438.007 496.466 440.305L461.611 475.387C459.54 477.499 458.093 480.151 457.433 483.046C456.773 485.942 456.927 488.965 457.877 491.777C458.922 495.075 460.979 497.953 463.75 499.997C466.522 502.04 469.866 503.143 473.299 503.146H489.481C498.622 503.162 507.383 506.836 513.84 513.362C520.297 519.887 523.923 528.73 523.921 537.949V579.657C523.921 584.218 523.03 588.735 521.299 592.949C519.569 597.163 517.032 600.992 513.834 604.217C510.636 607.442 506.839 610.001 502.661 611.746C498.482 613.492 494.004 614.39 489.481 614.39H476.342C471.999 614.426 467.778 615.84 464.278 618.431C460.777 621.023 458.175 624.66 456.84 628.828C454.488 635.314 451.86 641.8 448.887 648.147C446.925 652.086 446.237 656.546 446.919 660.9C447.601 665.254 449.62 669.282 452.69 672.419L461.819 681.695C465.025 684.921 467.569 688.753 469.304 692.972C471.04 697.19 471.933 701.713 471.933 706.28C471.933 710.848 471.04 715.37 469.304 719.589C467.569 723.808 465.025 727.64 461.819 730.866L432.566 760.368C429.371 763.596 425.577 766.157 421.4 767.905C417.223 769.652 412.745 770.551 408.223 770.551C403.701 770.551 399.223 769.652 395.046 767.905C390.869 766.157 387.075 763.596 383.88 760.368L374.682 751.092C371.55 748.006 367.54 745.984 363.213 745.309C358.886 744.634 354.457 745.339 350.547 747.326C344.323 750.255 337.891 752.975 331.391 755.277C327.275 756.663 323.69 759.309 321.136 762.847C318.583 766.385 317.187 770.639 317.144 775.015V788.267C317.116 797.481 313.47 806.309 307.003 812.818C300.537 819.328 291.777 822.989 282.64 823H241.285C232.155 822.987 223.403 819.324 216.947 812.813C210.491 806.302 206.858 797.475 206.846 788.267V775.015C206.802 770.629 205.398 766.367 202.831 762.827C200.263 759.287 196.661 756.647 192.53 755.277C186.099 752.975 179.598 750.255 173.374 747.326C169.48 745.32 165.057 744.603 160.736 745.28C156.415 745.956 152.416 747.99 149.308 751.092L140.11 760.368C133.645 766.889 124.876 770.552 115.733 770.552C106.589 770.552 97.8204 766.889 91.355 760.368L62.1021 730.866C55.6376 724.345 52.006 715.501 52.006 706.28C52.006 697.059 55.6376 688.216 62.1021 681.695L71.2998 672.419C74.3757 669.284 76.3925 665.251 77.063 660.893C77.7335 656.535 77.0236 652.075 75.0342 648.147C72.1297 641.87 69.4326 635.314 67.1505 628.828C65.792 624.661 63.174 621.028 59.6639 618.439C56.1538 615.85 51.9279 614.434 47.5793 614.39H34.4397C25.3096 614.378 16.557 610.714 10.1011 604.203C3.64513 597.692 0.0126239 588.865 0 579.657V537.949C0.009834 528.734 3.63925 519.898 10.0938 513.375C16.5484 506.852 25.3024 503.174 34.4397 503.146H47.5793C51.9184 503.103 56.1362 501.696 59.6444 499.12C63.1527 496.545 65.7767 492.929 67.1505 488.778C69.4326 482.222 72.1297 475.736 75.0342 469.459C77.0209 465.519 77.7293 461.049 77.0591 456.681C76.389 452.312 74.3742 448.267 71.2998 445.117L62.1021 435.911C55.6577 429.379 52.0399 420.54 52.0399 411.325C52.0399 402.111 55.6577 393.272 62.1021 386.74L91.355 357.238C94.5536 354.004 98.3532 351.439 102.536 349.688C106.719 347.938 111.204 347.037 115.733 347.037C120.261 347.037 124.746 347.938 128.929 349.688C133.112 351.439 136.911 354.004 140.11 357.238L149.308 366.514C152.433 369.586 156.431 371.6 160.744 372.275C165.057 372.95 169.472 372.253 173.374 370.28C179.598 367.281 186.099 364.631 192.53 362.259C196.662 360.913 200.269 358.288 202.839 354.758C205.408 351.227 206.81 346.97 206.846 342.591V329.339C206.846 324.778 207.736 320.261 209.467 316.047C211.198 311.833 213.735 308.004 216.933 304.779C220.131 301.554 223.927 298.995 228.106 297.25C232.284 295.504 236.763 294.606 241.285 294.606H282.64C291.781 294.604 300.549 298.261 307.02 304.773C313.49 311.285 317.133 320.12 317.149 329.339V345.66C317.149 348.875 318.089 352.02 319.851 354.699C321.614 357.379 324.12 359.475 327.058 360.726C329.995 361.976 333.233 362.326 336.366 361.73C339.499 361.134 342.389 359.62 344.673 357.377L513.621 187.058C519.071 181.529 526.21 178.015 533.884 177.084L611.408 167.668C616.596 167.053 621.854 167.63 626.789 169.358C631.724 171.085 636.206 173.917 639.9 177.642C643.611 181.353 646.426 185.874 648.129 190.856C649.831 195.839 650.376 201.149 649.72 206.377L640.454 284.562C639.54 292.291 636.082 299.486 630.633 304.998L602.694 333.175C600.431 335.451 597.45 336.856 594.268 337.149C591.085 337.442 587.901 336.604 585.267 334.779C581.275 332.194 576.528 331.061 571.811 331.568C567.094 332.076 562.69 334.193 559.329 337.569ZM375.586 558.803C375.592 532.298 366.484 506.612 349.815 486.12C333.147 465.629 309.948 451.601 284.174 446.427C258.399 441.252 231.642 445.252 208.464 457.743C185.285 470.235 167.118 490.446 157.06 514.932C147.001 539.419 145.672 566.665 153.3 592.029C160.928 617.393 177.04 639.304 198.892 654.029C220.743 668.755 246.981 675.383 273.135 672.784C299.289 670.185 323.74 658.521 342.322 639.778C352.894 629.165 361.277 616.545 366.986 602.646C372.696 588.748 375.619 573.847 375.586 558.803ZM383.885 416.242L559.334 239.228C560.6 237.918 561.303 236.158 561.292 234.329C561.28 232.5 560.555 230.749 559.272 229.455C557.99 228.162 556.254 227.43 554.44 227.418C552.626 227.407 550.881 228.116 549.583 229.393L374.134 406.408C373.17 407.377 372.512 408.612 372.244 409.957C371.975 411.303 372.109 412.699 372.627 413.968C373.145 415.237 374.025 416.322 375.155 417.087C376.284 417.852 377.614 418.262 378.975 418.265C380.809 418.258 382.57 417.533 383.885 416.242ZM588.587 268.73C589.88 267.426 590.606 265.657 590.606 263.813C590.606 261.969 589.88 260.2 588.587 258.896C587.293 257.592 585.54 256.859 583.711 256.859C581.882 256.859 580.129 257.592 578.836 258.896L403.318 435.841C402.053 437.16 401.347 438.923 401.347 440.758C401.347 442.593 402.053 444.356 403.318 445.675C403.956 446.337 404.72 446.862 405.563 447.222C406.406 447.581 407.312 447.767 408.228 447.768C409.133 447.766 410.028 447.58 410.86 447.221C411.692 446.861 412.444 446.335 413.069 445.675L588.587 268.73Z" fill="black"/>
</svg>
