<svg width="531" height="488" viewBox="0 0 531 488" fill="none" xmlns="http://www.w3.org/2000/svg">
<path d="M373.883 337.993C367.938 348.27 355.665 353.11 344.256 349.7L239.459 320.231V320.255C229.463 317.632 219.204 323.473 216.4 333.368C213.619 343.263 219.324 353.563 229.223 356.519L333.64 385.989V385.965C360.367 393.833 389.131 383.509 404.637 360.477C428.368 348.484 465.761 329.314 484.005 320.255C499.49 312.291 518.522 318.18 526.744 333.464C534.941 348.771 529.261 367.797 513.992 376.142C507.903 379.17 488.176 389.542 405.022 434.485C327.238 473.659 300.078 507.754 228.074 474.135V474.159C183.993 450.65 130.733 451.867 87.7783 477.378C85.9326 478.475 83.7034 478.761 81.618 478.188C79.5566 477.616 77.8068 476.233 76.7761 474.35L1.22517 345.745C0.0506053 343.909 -0.284931 341.668 0.242366 339.57C0.793682 337.471 2.15998 335.683 4.0536 334.61L132.027 263.032C157.604 248.989 187.806 245.842 215.734 254.353L359.65 299.678C367.177 302.229 373.169 308.047 375.925 315.462C378.682 322.901 377.934 331.174 373.883 337.993ZM390.901 10.3709L363.048 66.5201L300.751 75.5328H300.727C293.68 76.5581 287.831 81.4697 285.626 88.2169C283.421 94.9646 285.243 102.356 290.348 107.315L335.437 151.019L324.794 212.745V212.721C323.595 219.731 326.472 226.789 332.248 230.961C338.025 235.11 345.648 235.658 351.975 232.368L407.682 203.232L463.412 232.368C469.716 235.658 477.363 235.11 483.14 230.937C488.892 226.789 491.793 219.708 490.594 212.721L479.951 150.995L525.015 107.315C530.121 102.356 531.967 94.9651 529.761 88.2174C527.556 81.4698 521.707 76.5581 514.636 75.5333L452.34 66.5206L424.487 10.3714C421.323 4.00525 414.827 0 407.683 0C400.564 0 394.041 4.00505 390.901 10.3709Z" fill="black"/>
</svg>
