<svg width="796" height="796" viewBox="0 0 796 796" fill="none" xmlns="http://www.w3.org/2000/svg">
<path fill-rule="evenodd" clip-rule="evenodd" d="M0 185.733C0 83.1556 83.1556 0 185.733 0H610.267C712.845 0 796 83.1556 796 185.733V199H0V185.733ZM145.933 106.133C145.933 91.4794 157.812 79.6 172.467 79.6H199C213.654 79.6 225.533 91.4794 225.533 106.133C225.533 120.788 213.654 132.667 199 132.667H172.467C157.812 132.667 145.933 120.788 145.933 106.133Z" fill="black"/>
<path fill-rule="evenodd" clip-rule="evenodd" d="M0 252.067V610.267C0 712.845 83.1556 796 185.733 796H610.267C712.845 796 796 712.845 796 610.267V252.067H0ZM398 331.667C407.325 331.667 415.967 336.562 420.76 344.562L470.189 427.055L563.268 448.92C572.291 451.04 579.553 457.713 582.427 466.525C585.299 475.337 583.366 485.008 577.327 492.039L514.688 564.962L522.83 661.094C523.615 670.365 519.487 679.37 511.95 684.825C504.415 690.282 494.571 691.391 486.008 687.751L398 650.332L309.992 687.751C301.429 691.391 291.585 690.282 284.05 684.825C276.513 679.37 272.385 670.365 273.17 661.094L281.312 564.962L218.673 492.039C212.634 485.008 210.701 475.337 213.573 466.525C216.447 457.713 223.709 451.04 232.732 448.92L325.811 427.055L375.24 344.562C380.033 336.562 388.675 331.667 398 331.667Z" fill="black"/>
</svg>
