<svg width="815" height="810" viewBox="0 0 815 810" fill="none" xmlns="http://www.w3.org/2000/svg">
<path fill-rule="evenodd" clip-rule="evenodd" d="M-1.79618e-06 382.453H68.1272C73.2208 306.082 103.783 236.636 151.535 182.448L103.345 134.553C43.3753 201.076 5.25764 287.422 -1.79618e-06 382.453ZM135.378 102.675L183.569 150.57C238.087 103.15 307.966 72.7758 384.808 67.7134V0.00405757C289.183 5.22459 202.349 43.1092 135.378 102.675ZM430.177 2.16856e-06V67.7093C507.019 72.7717 576.894 103.146 631.416 150.566L679.606 102.671C612.633 43.1092 525.794 5.22438 430.177 2.16856e-06ZM711.681 134.548L663.49 182.443C711.203 236.627 741.765 306.077 746.859 382.448H814.986C809.733 287.41 771.615 201.108 711.681 134.548ZM814.99 427.538H746.863C741.769 503.909 711.207 573.355 663.494 627.543L711.645 675.438C771.615 608.876 809.732 522.569 814.99 427.538ZM679.611 707.316L631.421 659.42C576.903 706.841 507.024 737.215 430.182 742.278V809.987C525.807 804.766 612.641 766.882 679.611 707.316ZM384.813 809.991V742.282C307.971 737.219 238.096 706.845 183.574 659.424L135.383 707.28C202.356 766.882 289.196 804.765 384.813 809.991ZM103.309 675.443L151.5 627.548C103.787 573.364 73.2249 503.914 68.1313 427.543H0.00406892C5.25682 522.581 43.3753 608.883 103.309 675.443ZM616.288 611.767C616.168 611.886 616.009 612.005 615.89 612.123C615.77 612.242 615.651 612.4 615.532 612.519C562.207 665.317 488.711 697.946 407.488 697.946C244.695 697.946 112.73 566.8 112.73 404.997C112.73 243.193 244.685 112.047 407.488 112.047C488.747 112.047 562.364 144.755 615.654 197.632C615.733 197.712 615.813 197.791 615.892 197.87C615.972 197.949 616.052 198.028 616.131 198.107C669.336 251.065 702.245 324.231 702.245 404.996C702.245 485.718 669.412 558.774 616.288 611.767ZM348.995 210.847C375.378 166.749 439.605 166.749 465.985 210.847L498.536 265.307C501.72 270.646 506.933 274.443 513.022 275.788L575.22 289.71C625.559 301.021 645.416 361.73 611.353 400.292L569.291 447.871C565.192 452.538 563.163 458.668 563.759 464.838L569.609 527.92C574.384 578.979 522.414 616.512 474.979 596.223L416.442 571.187C410.712 568.735 404.265 568.735 398.535 571.187L339.998 596.223C292.564 616.512 240.593 578.979 245.367 527.92L251.217 464.838C251.814 458.668 249.785 452.538 245.686 447.871L203.624 400.292C169.56 361.731 189.418 301.022 239.757 289.71L301.955 275.788C308.044 274.444 313.257 270.647 316.44 265.307L348.995 210.847Z" fill="black"/>
</svg>
