<svg width="814" height="683" viewBox="0 0 814 683" fill="none" xmlns="http://www.w3.org/2000/svg">
<path d="M790.722 398.587C804.432 395.678 814 384.595 814 371.572V283.462C814 268.362 801.29 256.031 785.581 256.031H28.4187C12.7096 256.031 0 268.361 0 283.462V371.572C0 384.595 9.56827 395.816 23.2777 398.587C34.7022 400.942 45.5555 406.068 54.5526 413.271C85.7918 436.961 91.2536 484.064 66.4057 513.985C55.695 527.422 40.4145 536.843 23.2777 540.584C9.56827 543.354 0 554.437 0 567.599V655.708C0 670.67 12.7096 683 28.4187 683H785.581C801.29 683 814 670.67 814 655.708V567.599C814 554.437 804.432 543.354 790.722 540.584C712.964 523.405 713.143 415.593 790.722 398.587ZM128.53 594.614V347.188C128.53 326.685 145.809 310.06 166.944 310.06H644.06C665.338 310.06 682.474 326.685 682.474 347.188V594.614C682.474 615.117 665.338 631.88 644.06 631.88H166.944C145.809 631.88 128.53 615.117 128.53 594.614Z" fill="black"/>
<path d="M17.2858 229.425C21.7485 228.49 671.198 228.317 671.198 228.317C667.485 193.96 683.051 161.819 709.613 150.32C721.037 145.056 727.463 132.171 725.178 118.872L708.613 24.9414C705.9 9.14864 692.333 -1.93434 678.338 0.282258L21.1445 103.079C14.861 104.049 9.43483 107.374 5.57883 112.5C0.866255 118.734 -0.847421 127.323 0.580553 135.912L17.2858 229.425Z" fill="black"/>
<path d="M644.068 604.172C649.495 604.172 653.921 599.877 653.921 594.613V347.187C653.921 341.923 649.494 337.767 644.068 337.767H166.953C161.526 337.767 157.099 341.923 157.099 347.187V594.613C157.099 599.877 161.526 604.172 166.953 604.172H644.068ZM326.466 444.027C329.608 434.329 338.891 427.818 349.315 427.818H393.871L407.438 386.95C410.58 377.391 419.862 370.741 430.429 370.741C440.997 370.741 450.136 377.391 453.421 387.089L466.988 427.819H511.401C521.968 427.819 531.108 434.331 534.393 444.028C538.855 456.67 530.573 468.514 519.398 474.368L489.552 495.564L503.404 536.432C506.688 546.131 503.118 556.658 494.55 562.616C485.981 568.573 474.557 568.434 466.131 562.339L430.43 537.264L394.443 562.478C386.124 568.573 374.843 568.504 366.31 562.616C357.742 556.659 354.172 546.13 357.313 536.571L371.308 495.564L335.178 470.074C326.752 464.255 323.182 453.724 326.466 444.027ZM231.067 417.844C231.424 399.695 259.271 399.626 259.628 417.844V552.781C259.343 570.964 231.352 571.034 231.067 552.781V417.844Z" fill="black"/>
<path d="M399.583 500.683L388.872 532.131L416.291 513.014C424.431 506.78 436.427 506.78 444.995 513.429L471.843 532.132L461.418 501.1C453.6 477.86 483.482 467.366 497.548 455.521C493.585 455.556 468.273 455.521 463.703 455.521C453.564 455.521 444.281 449.287 440.854 439.867L430.429 408.28L420.005 439.451C416.435 449.287 407.295 455.521 397.156 455.521H363.167L390.586 474.916C398.869 480.596 402.44 490.986 399.583 500.683Z" fill="black"/>
</svg>
