<svg width="802" height="775" viewBox="0 0 802 775" fill="none" xmlns="http://www.w3.org/2000/svg">
<path d="M796.806 554.426C791.205 528.848 770.152 509.448 743.272 505.196L556.543 474.968C515.866 470.1 503.234 507.013 493.986 541.637C382.673 491.609 293.274 405.212 241.505 297.638C277.296 288.665 315.566 276.458 310.491 237.183L279.213 56.7277C274.814 30.7504 254.739 10.4048 228.272 4.99172C182.745 -4.4905 70.0409 -13.4286 6.65598 108.864C1.43034 118.746 -0.750111 130.372 0.227321 141.998C1.8439 162.344 7.2575 205.179 24.7016 263.523C94.2893 496.881 287.827 683.912 529.298 751.167C594.561 768.823 632.912 773.583 660.466 775C670.691 775 680.503 772.856 689.338 768.606C815.877 707.351 806.667 598.428 796.821 554.435L796.806 554.426Z" fill="black"/>
<path d="M471.386 251.98C474.393 254.887 475.784 259.138 474.995 263.206L465.972 314.761C457.025 355.089 506.198 389.531 543.003 368.822L590.936 344.407C594.733 342.664 599.17 342.482 602.967 344.407L650.9 368.822C688.044 389.313 736.653 355.125 728.119 314.761L718.908 263.206C718.118 259.137 719.509 254.886 722.705 251.98L761.427 215.54C792.931 187.746 774.66 132.558 731.953 127.944L678.418 120.387C674.208 119.806 670.599 117.299 668.606 113.593L644.734 66.689C635.711 49.0685 617.44 37.9875 596.989 37.9875C576.725 37.9875 558.492 49.0322 549.47 66.689L525.409 113.593C523.605 117.263 519.808 119.806 515.597 120.387L462.063 127.944C442.025 130.851 425.558 144.221 419.13 162.822C412.927 181.605 417.927 201.77 432.551 215.54L471.462 251.98H471.386Z" fill="black"/>
</svg>
