<svg width="817" height="703" viewBox="0 0 817 703" fill="none" xmlns="http://www.w3.org/2000/svg">
<path d="M803.997 13.3698C799.509 8.67373 794.064 5.05465 788.053 2.77188C782.042 0.489113 775.614 -0.400839 769.228 0.165793C721.939 3.7315 675.512 15.0571 631.717 33.7112C484.836 -1.08046 332.164 -1.08046 185.283 33.7112C141.488 15.0571 95.0612 3.7315 47.7718 0.165793C41.3914 -0.337361 34.9805 0.582125 28.9789 2.86117C22.9773 5.14021 17.5271 8.72487 13.0022 13.3692C8.47729 18.0135 4.9848 23.6076 2.76436 29.7675C0.543918 35.9275 -0.351927 42.5076 0.13829 49.0564C3.54176 96.4769 14.0982 143.068 31.4304 187.163C16.8881 240.679 9.34661 295.943 9.00438 351.5C9.34661 407.057 16.8881 462.321 31.4304 515.837C14.0982 559.932 3.54176 606.523 0.13829 653.944C-0.368159 660.494 0.520182 667.079 2.74166 673.241C4.96313 679.403 8.46452 684.996 13.0028 689.63C17.4911 694.326 22.9358 697.945 28.9468 700.228C34.9578 702.511 41.3863 703.401 47.7718 702.834C95.0612 699.268 141.488 687.943 185.283 669.289C332.164 704.08 484.836 704.08 631.717 669.289C675.512 687.943 721.939 699.268 769.228 702.834C775.609 703.337 782.019 702.418 788.021 700.139C794.023 697.86 799.473 694.275 803.998 689.631C808.523 684.987 812.015 679.392 814.236 673.232C816.456 667.072 817.352 660.492 816.862 653.944C813.484 606.501 802.866 559.897 785.396 515.837C800.163 462.365 807.766 407.078 807.996 351.5C807.766 295.922 800.163 240.635 785.396 187.163C802.866 143.103 813.484 96.4992 816.862 49.0564C817.368 42.5063 816.48 35.9215 814.258 29.759C812.037 23.5966 808.535 18.0041 803.997 13.3698ZM546.011 35.8524L541.318 45.1309C536.585 54.3894 535.111 65.0411 537.145 75.286L544.794 113.292C545.671 117.709 545.48 122.28 544.237 126.604C542.995 130.927 540.739 134.873 537.667 138.094C534.674 141.379 530.923 143.836 526.76 145.239C522.597 146.643 518.157 146.947 513.85 146.124L476.647 139.7C466.546 138.04 456.194 139.926 447.267 145.053L414.411 164.146C410.613 166.434 406.319 167.715 401.917 167.87C397.516 168.026 393.146 167.053 389.203 165.038C385.265 163.063 381.859 160.127 379.283 156.488C376.706 152.848 375.039 148.616 374.426 144.161L368.863 105.798C367.353 95.453 362.447 85.9473 354.956 78.8547L326.967 52.8035C323.993 49.9298 321.708 46.3885 320.291 42.4571C318.873 38.5256 318.362 34.3107 318.796 30.1425C394.489 22.8554 470.756 24.7719 546.011 35.8524ZM198.495 364.347L170.68 390.398C163.111 397.454 158.139 406.967 156.599 417.342L151.036 455.705C150.421 460.167 148.749 464.407 146.166 468.051C143.582 471.695 140.167 474.633 136.219 476.606C132.271 478.579 127.912 479.527 123.524 479.368C119.136 479.208 114.853 477.945 111.051 475.689L78.1947 456.597C69.3234 451.491 59.0335 449.605 48.9887 451.244L35.7765 453.564C29.8179 419.879 26.6773 385.734 26.3889 351.5C26.4821 326.368 28.2245 301.271 31.6042 276.38C39.3188 274.274 46.3425 270.084 51.9441 264.246L78.3685 236.589C81.437 233.391 85.2156 231.005 89.3801 229.636C93.5445 228.266 97.9706 227.954 102.278 228.726C106.586 229.498 110.647 231.331 114.113 234.068C117.579 236.805 120.346 240.364 122.177 244.44L137.823 279.77C142.037 289.323 149.348 297.079 158.511 301.717L192.237 319.025C196.196 320.972 199.619 323.899 202.199 327.544C204.779 331.189 206.434 335.436 207.014 339.902C207.641 344.38 207.192 348.948 205.708 353.209C204.223 357.469 201.747 361.292 198.495 364.347ZM472.649 655.014L456.829 676.248C385.354 679.866 313.709 675.438 243.173 663.044L237.263 655.014C234.559 651.468 232.745 647.294 231.982 642.859C231.218 638.424 231.528 633.865 232.885 629.582C234.241 625.3 236.603 621.425 239.761 618.299C242.919 615.173 246.777 612.891 250.996 611.655L287.33 600.592C297.096 597.67 305.574 591.364 311.321 582.749L332.704 550.809C335.279 547.241 338.634 544.342 342.498 542.344C346.362 540.346 350.629 539.306 354.956 539.306C359.283 539.306 363.549 540.346 367.413 542.344C371.278 544.342 374.632 547.241 377.208 550.809L398.591 582.749C404.338 591.364 412.815 597.67 422.581 600.592L458.741 611.655C462.987 612.858 466.87 615.14 470.029 618.29C473.189 621.439 475.525 625.356 476.821 629.677C478.192 633.929 478.528 638.461 477.801 642.877C477.073 647.294 475.305 651.46 472.649 655.014ZM702.993 410.918L673.092 434.471C664.957 440.88 659.193 449.943 656.751 460.166L648.058 497.815C647.049 502.196 645.014 506.259 642.13 509.65C639.245 513.041 635.598 515.659 631.504 517.276C627.411 518.894 622.995 519.461 618.639 518.931C614.284 518.4 610.12 516.787 606.509 514.231L575.391 492.105C567.948 486.926 559.175 484.131 550.184 484.076C549.836 483.897 510.547 487.287 508.982 487.466C504.601 487.783 500.21 487.008 496.183 485.206C492.157 483.403 488.616 480.628 485.861 477.117C483.056 473.645 481.141 469.508 480.291 465.083C479.441 460.657 479.682 456.084 480.993 451.779L491.772 414.665C494.655 404.609 494.103 393.843 490.207 384.153L475.778 348.467C474.096 344.316 473.423 339.808 473.817 335.33C474.21 330.853 475.658 326.541 478.036 322.766C480.414 318.991 483.65 315.866 487.467 313.66C491.283 311.454 495.564 310.233 499.942 310.104L537.667 309.033C547.885 308.811 557.713 304.965 565.482 298.149L594.166 272.99C597.463 270.014 601.433 267.932 605.715 266.935C609.996 265.938 614.453 266.056 618.678 267.28C622.936 268.411 626.857 270.597 630.1 273.646C633.343 276.694 635.809 280.513 637.28 284.766L649.797 321.345C653.218 331.179 659.772 339.54 668.398 345.076L700.733 365.239C704.484 367.601 707.617 370.868 709.859 374.755C712.101 378.642 713.384 383.032 713.598 387.543C713.86 392.037 713.029 396.527 711.177 400.608C709.326 404.689 706.513 408.232 702.993 410.918Z" fill="black"/>
</svg>
