<svg width="834" height="818" viewBox="0 0 834 818" fill="none" xmlns="http://www.w3.org/2000/svg">
<path d="M301.762 265.995C303.177 265.255 304.58 264.477 306.06 263.877C305.969 263.89 305.877 263.915 305.785 263.928C304.383 264.477 303.099 265.293 301.762 265.995Z" fill="black"/>
<path d="M275.505 305.513C275.963 296.724 279.095 288.343 284.14 281.238C283.774 281.773 283.315 282.258 282.974 282.807C235.536 276.939 198.712 238.798 198.712 192.62V111.235C198.712 105.877 203.037 101.668 208.54 101.668C213.913 101.668 218.369 105.877 218.369 111.235V192.62C218.369 232.292 253.096 264.565 295.817 264.565C299.224 264.565 302.5 264.31 305.776 263.927C305.946 263.864 306.13 263.825 306.3 263.762C307.506 263.289 308.764 262.971 310.022 262.588C311.476 262.141 312.918 261.67 314.425 261.351C315.932 261.044 317.465 260.904 319.011 260.726C319.929 260.636 320.846 260.394 321.763 260.356C351.773 250.533 373.395 223.873 373.395 192.62V111.235C373.395 105.877 377.72 101.668 383.224 101.668C388.596 101.668 393.052 105.877 393.052 111.235V192.62C393.052 219.408 380.603 243.645 360.815 260.228H560.79L548.603 36.2278C547.423 15.8177 530.125 0 509.289 0H65.0462C44.2099 0 27.0431 15.8177 25.8637 36.2278L4.89641 408.711L0.0478015 508.083C-0.476391 518.67 3.32393 528.748 10.7935 536.401C18.2631 544.055 28.3535 548.265 39.2303 548.265H261.876L275.505 305.513ZM382.437 76.0273C401.177 76.0273 416.378 90.8247 416.378 109.066C416.378 119.654 411.267 129.348 402.88 135.344V111.235C402.88 100.647 394.1 92.1004 383.224 92.1004C372.216 92.1004 363.567 100.52 363.567 111.235V136.492C354.263 130.497 348.497 120.292 348.497 109.066C348.497 90.8247 363.698 76.0273 382.437 76.0273ZM189.12 413.533L169.555 432.068C167.366 434.122 166.37 437.107 166.894 440.002L171.494 466.204C172.818 473.564 164.902 479.177 158.101 475.694L133.963 463.308C131.263 461.956 128.04 461.956 125.379 463.308L101.201 475.694C94.4002 479.177 86.4851 473.564 87.8087 466.204L92.4214 440.002C92.9325 437.107 91.9366 434.122 89.7482 432.068L70.1831 413.533C64.7316 408.303 67.7588 399.246 75.3069 398.2L102.355 394.373C105.329 393.939 107.963 392.09 109.274 389.449L121.356 365.62C124.776 358.923 134.566 358.923 137.946 365.62L150.029 389.449C151.339 392.09 153.96 393.939 156.948 394.373L183.983 398.2C191.544 399.246 194.597 408.303 189.12 413.533ZM188.884 111.235V135.727C180.235 129.731 174.731 119.909 174.731 109.066C174.731 90.8247 189.932 76.0273 208.672 76.0273C227.411 76.0273 242.743 90.8247 242.743 109.066C242.743 119.909 237.108 129.859 228.197 135.854V111.235C228.197 100.647 219.417 92.1004 208.54 92.1004C197.533 92.1004 188.884 100.52 188.884 111.235ZM245.364 430.269L249.951 404.119C250.475 401.185 249.427 398.251 247.33 396.21L227.673 377.586C222.3 372.356 225.314 363.299 232.915 362.278L259.91 358.452C262.924 358.069 265.545 356.155 266.856 353.476L273.539 340.337L268.166 434.989L258.731 439.836C251.916 443.281 244.054 437.668 245.364 430.269Z" fill="black"/>
<path d="M298.639 267.596C296.215 269.114 293.922 270.823 291.759 272.724C293.895 270.798 296.215 269.101 298.639 267.596Z" fill="black"/>
<path d="M291.754 272.727C289.605 274.513 287.757 276.529 286.067 278.634C287.797 276.529 289.644 274.501 291.754 272.727Z" fill="black"/>
<path d="M324.515 260.226C323.598 260.226 322.681 260.226 321.763 260.354C321.554 260.431 321.331 260.469 321.121 260.533C322.261 260.456 323.375 260.226 324.515 260.226Z" fill="black"/>
<path d="M314.425 261.354C312.918 261.66 311.476 262.145 310.022 262.591C308.764 262.974 307.493 263.28 306.3 263.752C306.221 263.79 306.143 263.841 306.064 263.88C311.358 263.255 316.299 262.171 321.121 260.538C320.414 260.589 319.706 260.652 319.011 260.729C317.465 260.895 315.932 261.048 314.425 261.354Z" fill="black"/>
<path d="M808.14 306.001C806.934 285.732 789.636 269.863 768.761 269.863H324.518C314.794 269.863 305.425 273.422 298.204 279.851C290.577 286.395 285.86 295.924 285.283 306.014L264.316 678.663L259.454 777.907C258.956 788.495 262.796 798.534 270.292 806.175C277.761 813.803 287.852 818 298.702 818H794.577C805.545 818 815.727 813.74 823.249 806.022C830.732 798.343 834.519 788.303 833.943 777.754L808.14 306.001ZM641.909 345.954C660.649 345.954 675.981 360.751 675.981 378.993C675.981 389.58 670.739 399.275 662.352 405.271V381.034C662.352 370.446 653.572 361.899 642.695 361.899C631.819 361.899 623.039 370.446 623.039 381.034V406.419C613.735 400.423 607.969 390.218 607.969 378.993C607.969 360.751 623.17 345.954 641.909 345.954ZM448.591 683.383L429.013 701.918C426.838 703.972 425.842 706.957 426.353 709.852L430.966 736.054C432.276 743.414 424.361 749.027 417.573 745.544L393.435 733.158C390.735 731.806 387.511 731.806 384.838 733.158L360.673 745.544C353.872 749.027 345.957 743.414 347.267 736.054L351.88 709.852C352.404 706.957 351.409 703.972 349.22 701.918L329.655 683.383C324.204 678.153 327.231 669.096 334.779 668.05L361.813 664.223C364.814 663.802 367.435 661.94 368.746 659.312L380.828 635.471C384.248 628.774 394.024 628.774 397.405 635.471L409.501 659.312C410.811 661.94 413.432 663.802 416.42 664.223L443.454 668.05C451.016 669.096 454.069 678.153 448.591 683.383ZM448.356 381.034V405.653C439.707 399.658 434.203 389.835 434.203 378.993C434.203 360.751 449.404 345.954 468.143 345.954C486.883 345.954 502.084 360.751 502.084 378.993C502.084 389.835 496.58 399.785 487.669 405.781V381.034C487.669 370.446 478.889 361.899 468.012 361.899C457.136 361.899 448.356 370.446 448.356 381.034ZM606.134 647.461L586.569 666.009C584.38 668.05 583.384 671.035 583.896 673.931L588.508 700.132C589.819 707.492 581.917 713.105 575.116 709.623L550.977 697.237C548.277 695.884 545.054 695.884 542.394 697.237L518.216 709.623C511.415 713.105 503.499 707.492 504.81 700.132L509.423 673.931C509.947 671.035 508.951 668.05 506.762 666.009L487.197 647.461C481.746 642.231 484.773 633.174 492.321 632.128L519.369 628.301C522.344 627.881 524.978 626.018 526.288 623.39L538.37 599.549C541.791 592.852 551.567 592.852 554.961 599.549L567.043 623.39C568.354 626.018 570.975 627.881 573.962 628.301L600.997 632.128C608.558 633.174 611.612 642.231 606.134 647.461ZM555.288 553.499C501.822 553.499 458.184 512.678 458.184 462.546V381.034C458.184 375.803 462.508 371.466 468.012 371.466C473.385 371.466 477.841 375.803 477.841 381.034V462.546C477.841 502.091 512.568 534.364 555.288 534.364C598.009 534.364 632.867 502.091 632.867 462.546V381.034C632.867 375.803 637.192 371.466 642.695 371.466C648.068 371.466 652.524 375.803 652.524 381.034V462.546C652.524 512.678 608.886 553.499 555.288 553.499ZM763.676 683.383L744.111 701.918C741.923 703.972 740.927 706.957 741.451 709.852L746.064 736.054C747.374 743.414 739.459 749.027 732.658 745.544L708.519 733.158C705.82 731.806 702.596 731.806 699.936 733.158L675.758 745.544C668.957 749.027 661.042 743.414 662.365 736.054L666.978 709.852C667.489 706.957 666.493 703.972 664.305 701.918L644.74 683.383C639.301 678.153 642.315 669.096 649.877 668.05L676.911 664.223C679.886 663.802 682.52 661.94 683.831 659.312L695.926 635.471C699.333 628.774 709.122 628.774 712.503 635.471L724.586 659.312C725.896 661.94 728.517 663.802 731.505 664.223L758.539 668.05C766.101 669.096 769.154 678.153 763.676 683.383Z" fill="black"/>
</svg>
