<svg width="821" height="787" viewBox="0 0 821 787" fill="none" xmlns="http://www.w3.org/2000/svg">
<path d="M174.827 528.532C171.277 516.97 172.291 504.877 177.49 494.512L337.242 166.012L309.982 168.537C302.629 169.467 295.656 173.055 290.457 178.636L9.24247 479.097C-3.30937 492.519 -3.05594 514.313 9.87664 527.734L252.421 777.166C258.761 783.678 267.129 787 275.496 787C283.991 787 292.486 783.545 298.952 776.635L403.425 665.008L196.001 554.179C185.984 548.864 178.504 539.827 174.827 528.532Z" fill="black"/>
<path d="M732.571 294.523L703.917 169.063C685.025 160.824 665.106 156.704 644.707 156.704C639.749 156.704 634.805 156.97 629.872 157.501V157.634C629.733 165.222 627.971 172.664 624.547 179.84C615.787 197.913 598.429 208.265 580.299 208.265C572.679 208.265 564.957 206.418 557.73 202.564C533.26 189.528 523.497 158.046 535.923 132.518C542.009 120.16 552.278 110.857 564.957 106.605C577.636 102.366 591.075 103.429 602.854 109.794C611.108 114.18 617.701 120.691 622.126 128.266C629.619 127.336 637.226 126.804 644.707 126.804C662.203 126.804 679.433 129.329 696.043 134.511L671.712 27.6693C669.177 14.7791 660.048 4.67945 647.99 1.22422C640.89 -0.888663 632.903 -0.23736 625.803 2.95184L383.778 108.479C377.058 111.655 371.721 117.103 368.297 124.146L185.863 499.158C181.793 507.264 181.171 516.566 183.834 525.35C186.624 533.988 192.456 541.151 200.304 545.284L503.085 707.009C507.763 709.654 512.848 710.863 518.033 710.863C521.457 710.863 524.879 710.331 528.189 709.255C536.544 706.331 543.391 700.365 547.321 692.112L729.642 317.101C732.951 310.456 733.965 302.483 732.571 294.523ZM576.888 458.427L511.352 479.836C507.13 481.178 503.757 484.66 502.476 489.138L482.152 557.695C478.843 568.885 464.744 571.25 458.341 561.669L418.67 503.025C416.109 499.224 411.924 497.045 407.474 497.045L338.882 497.829C327.725 498.042 321.272 484.7 327.966 475.318L369.02 417.764C371.657 414.096 372.392 409.259 370.921 404.807L348.949 336.635C345.336 325.566 355.454 315.028 366.053 318.788L430.994 341.964C435.241 343.479 439.805 342.735 443.393 339.904L498.318 296.955C507.281 289.938 519.948 296.769 519.783 308.41L518.883 380.236C518.794 384.94 520.937 389.339 524.575 391.957L580.628 433.431C589.757 440.209 587.564 454.973 576.888 458.427Z" fill="black"/>
<path d="M812.293 264.623C797.75 217.674 766.624 179.468 724.657 157.05C682.691 134.632 634.905 130.671 590.123 145.927C587.625 146.778 586.257 149.581 587.068 152.199C587.879 154.817 590.554 156.279 593.052 155.402C635.437 140.984 680.637 144.718 720.347 165.927C760.044 187.136 789.497 223.281 803.253 267.693C817.009 312.117 813.446 359.492 793.212 401.113C772.963 442.72 738.49 473.59 696.105 488.009C693.607 488.859 692.251 491.663 693.062 494.281C693.709 496.394 695.572 497.736 697.576 497.736C698.058 497.736 698.552 497.656 699.047 497.484C743.84 482.241 780.292 449.617 801.681 405.631C823.07 361.645 826.836 311.573 812.293 264.623Z" fill="black"/>
</svg>
