<svg width="661" height="686" viewBox="0 0 661 686" fill="none" xmlns="http://www.w3.org/2000/svg">
<path fill-rule="evenodd" clip-rule="evenodd" d="M330.114 0C147.929 0 0 153.645 0 342.87C0 532.096 147.929 685.741 330.114 685.741C512.299 685.741 660.227 532.096 660.227 342.87C660.227 153.645 512.299 0 330.114 0ZM212.895 150.683C217.64 150.713 221.914 153.652 223.742 158.183L241.486 201.624L286.817 205.787H286.788C291.504 206.185 295.571 209.522 297.015 214.206C298.489 218.89 297.104 224.032 293.508 227.247L259.111 258.136L269.339 304.118C270.4 308.924 268.573 313.914 264.741 316.822C260.88 319.7 255.752 319.884 251.684 317.343L212.778 293.005L173.724 317.251V317.22C169.657 319.761 164.558 319.516 160.726 316.608C156.894 313.73 155.125 308.771 156.157 303.995L166.473 258.014L132.165 227.003V227.033C128.598 223.788 127.243 218.676 128.687 213.992C130.16 209.338 134.169 206.002 138.885 205.604L184.217 201.593L202.049 158.153C203.876 153.622 208.179 150.683 212.895 150.683ZM449.542 150.683C454.288 150.683 458.561 153.652 460.389 158.183L478.133 201.624L523.464 205.787H523.435C528.18 206.216 532.189 209.522 533.663 214.236C535.107 218.92 533.722 224.063 530.126 227.247L495.729 258.136L505.957 304.118C506.989 308.924 505.191 313.883 501.359 316.761C497.527 319.639 492.399 319.853 488.361 317.343L449.395 293.005L410.4 317.251L410.371 317.22C406.333 319.761 401.204 319.516 397.401 316.608C393.57 313.731 391.772 308.771 392.833 303.995L403.09 258.014L368.782 227.003V227.033C365.215 223.788 363.86 218.645 365.333 213.961C366.807 209.308 370.845 206.002 375.561 205.604L420.834 201.593L438.696 158.153C440.552 153.622 444.797 150.683 449.542 150.683ZM176.843 374.861C179.967 374.861 182.974 376.147 185.184 378.443C187.395 380.739 188.633 383.862 188.633 387.107C188.633 453.691 250.853 509.56 330.11 509.56C409.367 509.56 471.587 453.691 471.587 387.107C471.587 380.341 476.863 374.861 483.377 374.861C486.501 374.861 489.508 376.147 491.719 378.443C493.929 380.739 495.167 383.862 495.167 387.107C495.167 469.333 420.155 534.051 330.11 534.051C240.066 534.051 165.054 469.335 165.054 387.107C165.054 380.341 170.329 374.861 176.843 374.861Z" fill="black"/>
</svg>
