<svg width="481" height="589" viewBox="0 0 481 589" fill="none" xmlns="http://www.w3.org/2000/svg">
<path fill-rule="evenodd" clip-rule="evenodd" d="M481 509.165V135.902L352.237 137.91H352.092H352.116C349.725 137.91 347.406 136.988 345.715 135.312C344.024 133.658 343.058 131.414 343.058 129.077L343.01 0H93.5219C81.2757 0.0236169 71.3488 9.70735 71.3488 21.6815V509.165C71.3488 521.14 81.2763 530.846 93.5219 530.846H458.85C471.072 530.846 481 521.139 481 509.165ZM418.634 279.949H234.437C229.461 279.949 225.404 275.981 225.404 271.093C225.404 266.204 229.461 262.236 234.437 262.236H418.634C423.634 262.236 427.692 266.204 427.692 271.093C427.692 275.981 423.634 279.949 418.634 279.949ZM196.996 145.727C198.977 151.608 196.827 158.056 191.707 161.693C186.61 165.354 179.678 165.354 174.534 161.717L154.003 147.073L133.472 161.717C128.351 165.378 121.395 165.378 116.275 161.74C111.13 158.103 108.98 151.608 110.961 145.727L118.859 122.109L98.2558 107.536C93.1352 103.899 90.9612 97.4512 92.9178 91.5706C94.8743 85.666 100.478 81.6746 106.83 81.6746H106.879L132.289 81.7218L140.09 58.0795H140.066C142.023 52.1749 147.651 48.1835 154.003 48.1835C160.331 48.1835 165.959 52.1751 167.916 58.0795L175.717 81.7218L201.127 81.6746C207.48 81.6509 213.084 85.6661 215.04 91.547C216.997 97.4515 214.847 103.9 209.702 107.536L189.099 122.109L196.996 145.727ZM212.503 406.474C214.484 412.379 212.334 418.85 207.189 422.464L186.586 437.012L194.484 460.63V460.654C196.441 466.535 194.315 473.007 189.17 476.643C184.05 480.304 177.094 480.304 171.973 476.643L151.442 462L130.912 476.643C128.424 478.439 125.404 479.407 122.313 479.407C117.627 479.407 113.231 477.187 110.477 473.479C107.724 469.771 106.951 465 108.424 460.654L116.322 437.036L95.7191 422.487L95.695 422.463C90.5985 418.826 88.4486 412.378 90.4052 406.498C92.3617 400.617 97.9657 396.625 104.294 396.625H104.342L129.752 396.672L137.554 373.03V373.007C139.51 367.102 145.138 363.111 151.466 363.111C157.819 363.111 163.447 367.102 165.379 373.007L173.157 396.625L198.567 396.577H198.591C204.919 396.554 210.547 400.545 212.479 406.45L212.503 406.474ZM186.586 279.574L194.484 303.192C196.465 309.073 194.339 315.569 189.194 319.205C184.074 322.866 177.118 322.843 171.997 319.182L151.466 304.538L130.936 319.182H130.911C125.791 322.843 118.835 322.843 113.714 319.205C108.569 315.545 106.444 309.073 108.424 303.192L116.322 279.574L95.7194 265.026H95.6952C90.5746 261.389 88.4248 254.917 90.3813 249.036C92.3137 243.132 97.9418 239.14 104.27 239.14H104.318L129.728 239.188L137.53 215.545L137.554 215.522C139.486 209.641 145.114 205.626 151.467 205.626C157.795 205.626 163.423 209.641 165.379 215.522L173.181 239.164L198.591 239.117V239.14C204.943 239.14 210.547 243.132 212.504 249.013C214.46 254.917 212.31 261.365 207.166 265.002L186.563 279.575L186.586 279.574ZM232.889 426.034H417.062C422.062 426.034 426.119 430.002 426.119 434.867C426.119 439.756 422.061 443.724 417.062 443.724H232.889C227.889 443.724 223.856 439.756 223.856 434.867C223.856 430.002 227.89 426.034 232.889 426.034ZM239.628 129.009C234.628 129.009 230.57 125.041 230.57 120.153C230.57 115.264 234.628 111.32 239.628 111.32H309.89C314.89 111.32 318.947 115.264 318.947 120.153C318.947 125.042 314.889 129.009 309.89 129.009H239.628ZM361.144 120.058L361.096 12.5241L469.355 118.383L361.144 120.058ZM171.103 125.254L176.441 141.22L162.577 131.324C157.456 127.639 150.476 127.639 145.355 131.324L131.491 141.243L136.829 125.277V125.254C138.809 119.349 136.659 112.877 131.491 109.241L117.578 99.3918H134.751C141.103 99.3918 146.731 95.4002 148.664 89.4958L153.929 73.5063L159.195 89.4722H159.219C161.151 95.424 166.803 99.4389 173.156 99.4153H190.329L176.416 109.264H176.44C171.271 112.901 169.122 119.373 171.102 125.277L171.103 125.254ZM156.732 246.984C158.664 252.889 164.292 256.904 170.645 256.88H187.818L173.905 266.729C168.736 270.366 166.586 276.861 168.567 282.765L173.929 298.731L160.041 288.835V288.812C154.92 285.151 147.94 285.151 142.795 288.812L128.906 298.708L134.244 282.742L134.268 282.765C136.273 276.861 134.099 270.366 128.93 266.729L115.066 256.88H132.239C138.567 256.904 144.219 252.888 146.127 246.984L151.393 230.995L156.683 246.984H156.732ZM156.732 404.448C158.664 410.353 164.292 414.368 170.645 414.344H187.818L173.929 424.169C168.76 427.806 166.611 434.278 168.591 440.182L173.953 456.148L160.065 446.252C154.944 442.568 147.964 442.568 142.843 446.252L128.954 456.148L134.292 440.182C136.297 434.278 134.123 427.782 128.954 424.169L115.042 414.32H132.239C138.591 414.344 144.219 410.329 146.127 404.424L151.393 388.435L156.683 404.424L156.732 404.448ZM53.2341 509.17C53.2583 530.923 71.2773 548.542 93.5227 548.565H409.649V567.319C409.649 579.293 399.722 588.976 387.476 589H22.1731C9.92684 588.976 0 579.293 0 567.319V79.835C0 67.8603 9.92745 58.1536 22.1489 58.1536H53.2348L53.2341 509.17Z" fill="black"/>
</svg>
