<svg width="830" height="773" viewBox="0 0 830 773" fill="none" xmlns="http://www.w3.org/2000/svg">
<path d="M759.035 294.9C746.234 287.143 734.643 277.779 724.59 267.071C723.051 252.077 724.031 236.951 727.495 222.237C733.864 203.967 735.455 184.545 732.134 165.586C728.814 146.628 720.678 128.683 708.405 113.244C691.829 101.814 672.56 94.2375 652.204 91.145C631.847 88.0525 610.992 89.5338 591.375 95.4655C575.577 98.6916 559.335 99.6044 543.235 98.171C531.738 88.8088 521.683 78.0138 513.355 66.0915C490.115 38.65 461.48 0 415 0C368.52 0 339.885 38.65 316.645 66.0915C308.317 78.0138 298.262 88.8088 286.765 98.171C270.665 99.6107 254.422 98.6978 238.625 95.4655C200.445 90.0545 153.135 83.484 121.595 113.244C109.322 128.683 101.186 146.628 97.8659 165.586C94.5454 184.545 96.1359 203.967 102.505 222.237C105.969 236.951 106.949 252.077 105.41 267.071C95.3575 277.779 83.7665 287.143 70.965 294.9C41.5 316.544 0 343.212 0 386.5C0 429.788 41.5 456.456 70.965 478.1C83.7665 485.857 95.3575 495.221 105.41 505.928C106.949 520.923 105.969 536.049 102.505 550.762C96.1359 569.033 94.5454 588.455 97.8659 607.414C101.186 626.372 109.322 644.317 121.595 659.755C138.171 671.186 157.44 678.762 177.796 681.855C198.153 684.947 219.008 683.466 238.625 677.535C254.423 674.308 270.665 673.396 286.765 674.829C298.262 684.191 308.317 694.986 316.645 706.909C339.885 736.283 368.52 773 415 773C461.48 773 490.115 736.283 513.355 706.909C521.683 694.986 531.738 684.191 543.235 674.829C559.335 673.396 575.577 674.308 591.375 677.535C629.555 682.946 676.865 689.516 708.405 659.755C720.678 644.317 728.814 626.372 732.134 607.414C735.455 588.455 733.864 569.033 727.495 550.762C724.031 536.049 723.051 520.923 724.59 505.928C734.643 495.221 746.234 485.857 759.035 478.1C790.575 456.456 830 429.788 830 386.5C830 343.212 790.575 316.544 759.035 294.9ZM569.795 342.439L504.64 391.138C501.95 393.101 499.956 395.774 498.92 398.807C497.884 401.84 497.852 405.094 498.83 408.144L528.71 500.904C529.761 504.161 529.687 507.643 528.498 510.859C527.31 514.075 525.067 516.861 522.086 518.826C519.105 520.791 515.537 521.834 511.886 521.808C508.234 521.782 504.684 520.689 501.735 518.683L425.375 463.8C422.373 461.729 418.736 460.611 415 460.611C411.264 460.611 407.627 461.729 404.625 463.8L328.265 518.683C325.432 520.479 322.093 521.458 318.666 521.496C315.239 521.535 311.875 520.631 308.996 518.899C306.118 517.167 303.851 514.682 302.481 511.756C301.11 508.831 300.696 505.594 301.29 502.45L331.17 409.69C332.148 406.64 332.116 403.386 331.08 400.353C330.044 397.32 328.05 394.647 325.36 392.684L260.205 342.439C257.517 340.313 255.584 337.478 254.662 334.308C253.74 331.138 253.873 327.782 255.042 324.684C256.211 321.585 258.361 318.889 261.21 316.953C264.058 315.017 267.47 313.931 270.995 313.838H345.695C349.054 313.857 352.344 312.95 355.151 311.23C357.957 309.511 360.154 307.056 361.465 304.175L399.23 222.237C400.639 219.451 402.869 217.095 405.662 215.445C408.454 213.795 411.693 212.918 415 212.918C418.307 212.918 421.546 213.795 424.338 215.445C427.131 217.095 429.361 219.451 430.77 222.237L468.535 304.175C469.846 307.056 472.043 309.511 474.849 311.23C477.656 312.95 480.946 313.857 484.305 313.838H559.005C562.53 313.931 565.942 315.017 568.79 316.953C571.639 318.889 573.789 321.585 574.958 324.684C576.127 327.782 576.26 331.138 575.338 334.308C574.416 337.478 572.483 340.313 569.795 342.439Z" fill="black"/>
</svg>
