<svg width="794" height="817" viewBox="0 0 794 817" fill="none" xmlns="http://www.w3.org/2000/svg">
<path d="M793.746 371.308L771.125 91.73C768.143 55.4157 740.174 26.6376 704.88 23.5695L433.229 0.226677V0.260022C411.968 -1.57401 391 6.36241 375.896 21.9023L21.2444 386.745C-7.08147 415.923 -7.08147 463.175 21.2444 492.352L315.521 795.141C343.879 824.286 389.835 824.286 418.193 795.141L772.746 430.333C787.848 414.794 795.529 393.216 793.746 371.308ZM458.052 540.838L398.97 540.071L399.003 540.105C391.614 539.971 384.645 543.639 380.368 549.842L346.273 599.461L346.241 599.495C341.314 606.697 332.823 610.365 324.397 608.965C315.938 607.598 308.97 601.396 306.442 592.992L288.909 534.969C286.705 527.699 281.163 521.997 274.097 519.729L217.705 501.689C209.538 499.088 203.51 491.918 202.181 483.214C200.82 474.544 204.385 465.807 211.386 460.739L259.61 425.658L259.643 425.625C265.671 421.223 269.235 414.053 269.106 406.45L268.361 345.66L268.393 345.693C268.263 336.856 272.995 328.753 280.644 324.751C288.26 320.75 297.432 321.55 304.303 326.819L351.62 363.2C357.551 367.735 365.264 368.969 372.297 366.534L428.235 346.993V347.026C436.305 344.192 445.283 346.326 451.343 352.562C457.371 358.798 459.478 368.001 456.723 376.338L437.731 433.895C435.365 441.098 436.565 449.034 440.972 455.137L476.395 503.889C481.516 510.958 482.293 520.396 478.404 528.232C474.515 536.102 466.64 540.971 458.052 540.838ZM663.363 198.439C649.363 212.845 628.329 217.146 610.05 209.343C591.772 201.54 579.845 183.199 579.845 162.825C579.845 142.483 591.772 124.143 610.05 116.34C628.329 108.537 649.363 112.838 663.363 127.244C682.452 146.918 682.452 178.765 663.363 198.439Z" fill="black"/>
</svg>
