<svg width="753" height="790" viewBox="0 0 753 790" fill="none" xmlns="http://www.w3.org/2000/svg">
<path d="M750.754 445.229L670.075 317.803C667.587 313.873 663.385 311.537 658.914 311.573H94.1587C89.6877 311.537 85.4858 313.873 82.9979 317.803L2.31855 445.229C-0.505182 449.547 -0.774199 455.211 1.64622 459.813C3.96574 464.414 8.53757 467.282 13.4792 467.317H295.852C300.357 467.282 304.525 464.91 307.013 460.946L376.532 351.217L446.05 460.946C448.504 464.91 452.706 467.282 457.211 467.317H739.584C744.526 467.282 749.098 464.379 751.417 459.777C753.737 455.176 753.502 449.583 750.745 445.229L750.754 445.229Z" fill="black"/>
<path d="M295.86 495.63H67.2734V708.019C67.2734 714.603 71.6435 720.338 77.7621 721.753L363.096 789.999V423.424L329.345 476.662C321.949 488.52 309.341 495.666 295.86 495.63Z" fill="black"/>
<path d="M423.467 476.238L389.985 423.425V790L675.319 721.754C681.437 720.303 685.808 714.604 685.808 708.02V495.631H457.221C443.573 495.56 430.896 488.273 423.467 476.238Z" fill="black"/>
<path d="M330.817 104.281L321.808 145.625C320.967 149.837 321.942 154.227 324.497 157.589C327.052 160.952 330.884 162.97 334.986 163.04C339.827 164.456 372.098 141.236 376.535 139.253L411.227 161.058C415.866 163.889 421.648 163.571 425.984 160.208C430.321 156.881 432.338 151.146 431.128 145.624L422.253 104.28L452.642 76.2447C456.676 72.4926 458.189 66.5813 456.542 61.2004C454.861 55.82 450.323 51.9973 444.977 51.4663L404.772 47.6433L388.904 8.56456C386.753 3.39656 381.879 0.0691808 376.534 0.0691808C371.155 0.0691808 366.314 3.39656 364.163 8.56456L348.295 47.6433L308.09 51.4663C302.779 52.0681 298.308 55.891 296.627 61.2358C294.98 66.5807 296.459 72.4569 300.426 76.2438L330.817 104.281Z" fill="black"/>
<path d="M156.352 69.7646C157.293 70.154 250.207 111.463 255.25 269.476V269.512C255.485 277.122 261.401 283.175 268.663 283.175H269.133C272.697 283.033 276.058 281.441 278.478 278.715C280.932 275.954 282.243 272.308 282.109 268.556C276.529 92.314 170.905 45.4466 166.404 43.4983C163.11 42.0824 159.378 42.1179 156.084 43.5691C152.79 45.0558 150.201 47.8168 148.857 51.3212C147.512 54.8255 147.546 58.7193 148.957 62.188C150.369 65.657 153.024 68.384 156.352 69.7646Z" fill="black"/>
<path d="M26.2229 141.588C31.9041 141.907 165.43 150.791 174.337 270.156C174.875 277.519 180.724 283.182 187.717 283.182C188.086 283.182 188.423 283.182 188.792 283.147C192.356 282.864 195.65 281.094 197.97 278.227C200.289 275.395 201.432 271.678 201.129 267.926C190.372 123.681 29.2116 113.378 27.6023 113.315C24.039 113.067 20.5092 114.341 17.8536 116.854C15.198 119.403 13.618 122.943 13.4835 126.73C13.1138 134.517 18.827 141.164 26.2229 141.588Z" fill="black"/>
<path d="M483.906 283.178H484.376C491.604 283.178 497.553 277.125 497.789 269.514C502.798 112.565 592.926 71.4337 596.687 69.8026V69.7672C603.545 66.8292 606.839 58.6168 604.083 51.361C601.292 44.1399 593.493 40.6355 586.636 43.5028C582.131 45.4143 476.542 92.2803 470.931 268.56C470.797 272.312 472.108 275.958 474.528 278.719C476.982 281.445 480.343 283.036 483.906 283.178Z" fill="black"/>
<path d="M551.917 267.927C551.615 271.679 552.758 275.396 555.077 278.227C557.397 281.094 560.691 282.864 564.254 283.147C564.624 283.183 564.96 283.183 565.33 283.183C572.322 283.183 578.172 277.519 578.71 270.157C587.584 150.795 721.144 141.915 726.824 141.589C734.219 141.164 739.934 134.509 739.565 126.722C739.397 122.934 737.817 119.395 735.161 116.882C732.505 114.369 729.009 113.059 725.446 113.307C723.832 113.377 562.64 123.686 551.917 267.927Z" fill="black"/>
<path d="M100.888 56.7066C100.888 85.0245 60.5479 85.0245 60.5479 56.7066C60.5479 28.3886 100.888 28.3886 100.888 56.7066Z" fill="black"/>
<path d="M692.536 56.7066C692.536 85.0245 652.196 85.0245 652.196 56.7066C652.196 28.3886 692.536 28.3886 692.536 56.7066Z" fill="black"/>
<path d="M396.712 212.451C396.712 240.769 356.372 240.769 356.372 212.451C356.372 184.133 396.712 184.133 396.712 212.451Z" fill="black"/>
<path d="M255.757 28.3179C263.187 28.3179 269.204 21.9818 269.204 14.159C269.204 6.33615 263.187 0 255.757 0H255.623C248.227 0.0353952 242.21 6.40692 242.244 14.2297C242.311 22.0525 248.328 28.3533 255.757 28.3179Z" fill="black"/>
<path d="M497.795 28.3179C505.225 28.3179 511.242 21.9818 511.242 14.159C511.242 6.33615 505.225 0 497.795 0H497.661C494.098 0.0353952 490.702 1.55753 488.181 4.21226C485.66 6.86708 484.281 10.4776 484.281 14.23C484.315 22.0528 490.366 28.3533 497.795 28.3179Z" fill="black"/>
</svg>
