<svg width="813" height="796" viewBox="0 0 813 796" fill="none" xmlns="http://www.w3.org/2000/svg">
<path d="M123.874 193.526C109.333 191.753 95.0856 187.151 81.9801 179.568C95.0489 171.985 109.333 167.383 123.874 165.61C125.641 150.708 130.133 136.108 137.459 122.678C144.785 136.108 149.276 150.708 151.043 165.61C165.585 167.421 179.869 172.023 192.937 179.53C179.869 187.038 165.585 191.64 151.043 193.451C149.313 208.353 144.821 222.99 137.422 236.382C130.059 222.99 125.531 208.353 123.801 193.451L123.874 193.526ZM303.899 183.643C303.605 184.623 303.458 186.057 304.709 187.453L344.763 232.007C347.561 235.1 348.886 239.325 348.408 243.475L341.56 303.609C341.339 305.458 342.296 306.59 343.106 307.193C343.916 307.797 345.242 308.401 346.898 307.571L400.61 282.37C404.365 280.597 408.635 280.597 412.39 282.37L466.102 307.571C467.795 308.325 469.121 307.797 469.894 307.193C470.704 306.59 471.661 305.458 471.44 303.572L464.592 243.437C464.114 239.25 465.476 235.062 468.237 231.969L508.254 187.415C509.506 186.057 509.358 184.548 509.064 183.567C508.769 182.586 508.033 181.341 506.229 181.002L448.284 169.08C444.235 168.25 440.774 165.685 438.75 161.988L409.74 109.211C408.857 107.551 407.458 107.249 406.427 107.249C405.396 107.249 404.034 107.589 403.114 109.211L374.105 161.988C372.117 165.685 368.619 168.25 364.57 169.08L306.625 181.002C304.858 181.379 304.085 182.624 303.753 183.605L303.899 183.643ZM385.994 412.336L65.2348 332.132L0 466.847L320.722 547.051L385.994 412.336ZM427.006 412.336L747.765 332.132L813 466.847L492.278 547.051L427.006 412.336ZM556.148 439.611C569.217 447.156 583.501 451.796 598.043 453.57C599.773 468.471 604.264 483.071 611.664 496.501C619.063 483.109 623.554 468.471 625.285 453.57C639.827 451.759 654.073 447.156 667.179 439.649C654.073 432.142 639.827 427.539 625.285 425.729C623.518 410.827 619.026 396.19 611.7 382.797C604.375 396.19 599.883 410.827 598.116 425.729C583.574 427.502 569.291 432.104 556.222 439.687L556.148 439.611ZM495.552 265.242L499.528 300.289C500.853 312.286 495.994 323.603 486.496 330.695C476.998 337.787 464.997 338.919 454.32 333.939L406.536 311.493L358.714 333.939C354.37 335.977 349.805 336.995 345.24 336.995C338.651 336.995 332.135 334.883 326.465 330.657C316.967 323.603 312.108 312.248 313.47 300.289L317.446 265.242L117.215 315.304L406.497 387.623L695.779 315.304L495.552 265.242ZM328.382 578.363C327.278 578.363 326.173 578.212 325.032 577.948L71.7511 514.607V715.796L392.369 796V464.317L341.051 570.291C338.621 575.308 333.684 578.363 328.382 578.363ZM484.62 578.363C479.319 578.363 474.386 575.345 471.955 570.29L420.637 464.316V795.999L741.255 715.795V514.607L487.974 577.947C486.87 578.249 485.724 578.363 484.62 578.363ZM611.633 113.704C619.032 100.311 623.523 85.6742 625.254 70.7724C639.796 68.9616 654.042 64.3591 667.148 56.8518C654.042 49.3445 639.796 44.7421 625.254 42.9312C623.487 28.0295 618.995 13.3923 611.669 0C604.343 13.3923 599.852 28.0295 598.085 42.9312C583.543 44.7043 569.26 49.3069 556.191 56.8895C569.26 64.4345 583.543 69.0746 598.085 70.8477C599.815 85.7495 604.307 100.349 611.706 113.779L611.633 113.704ZM636.666 206.922C636.666 214.845 642.887 221.409 650.802 221.409C658.533 221.409 664.939 214.845 664.939 206.922C664.939 198.811 658.533 192.436 650.802 192.436C642.887 192.436 636.666 198.811 636.666 206.922ZM309.243 93.184C317.158 93.184 323.38 86.6198 323.38 78.6975C323.38 70.5488 317.158 64.211 309.243 64.211C301.512 64.211 295.106 70.5488 295.106 78.6975C295.106 86.6198 301.512 93.184 309.243 93.184ZM53.6814 112.273C61.4123 112.273 67.818 105.709 67.818 97.7868C67.818 89.6759 61.4123 83.3003 53.6814 83.3003C45.7296 83.3003 39.5448 89.6759 39.5448 97.7868C39.5448 105.709 45.7296 112.273 53.6814 112.273Z" fill="black"/>
</svg>
