<svg width="800" height="794" viewBox="0 0 800 794" fill="none" xmlns="http://www.w3.org/2000/svg">
<path d="M219.598 105.859H580.366V141.145H674.479L674.511 70.5725C674.511 31.6452 646.377 0 611.771 0H188.225C153.619 0 125.486 31.6462 125.486 70.5725V141.145H219.599L219.598 105.859Z" fill="black"/>
<path d="M136.764 469.794L132.566 497.331L155.797 484.103C158.04 482.842 160.443 482.193 162.879 482.193C165.314 482.193 167.781 482.842 170.024 484.139L193.352 497.547L189.026 469.902C188.097 463.991 189.923 457.935 193.833 453.863L212.642 434.327L186.784 430.939C181.368 430.218 176.69 426.433 174.383 420.846L163.2 393.814L151.312 421.134C149.005 426.468 144.455 430.109 139.232 430.866L113.597 434.614L132.022 453.861C135.867 457.934 137.661 463.918 136.764 469.794Z" fill="black"/>
<path d="M470.585 617.529V494.006H345.104V617.529C345.104 656.456 373.238 688.102 407.844 688.102C442.418 688.102 470.585 656.455 470.585 617.529ZM392.144 617.529V564.581C392.144 554.849 399.161 546.92 407.845 546.92C416.497 546.92 423.547 554.813 423.547 564.581V617.529C423.547 627.261 416.529 635.191 407.845 635.191C399.162 635.191 392.144 627.261 392.144 617.529Z" fill="black"/>
<path d="M0.00574607 599.905H313.738V476.382C313.738 466.65 320.755 458.72 329.439 458.72H486.289C494.941 458.72 501.99 466.614 501.99 476.382V599.905H799.989V282.29H0.00738695L0.00574607 599.905ZM536.696 416.554C538.554 410.03 543.585 405.308 549.609 404.443L599.98 397.09L622.603 345.116C625.23 339.06 630.709 335.24 636.702 335.24H636.862C642.918 335.312 648.365 339.277 650.929 345.441L672.302 397.018L723.41 403.686C729.499 404.479 734.626 409.201 736.516 415.761C738.407 422.321 736.741 429.529 732.255 434.179L694.637 473.25L702.967 526.306C703.993 532.902 701.622 539.57 696.847 543.571C694.092 545.842 690.823 547.031 687.523 547.031C685.088 547.031 682.652 546.382 680.377 545.085L636.03 519.602L592.099 544.652C586.812 547.679 580.467 547.067 575.693 543.102C570.919 539.137 568.547 532.506 569.541 525.909L577.584 473.178L540.926 434.828C536.504 430.215 534.837 423.078 536.696 416.554ZM63.4806 416.554C65.3391 410.03 70.3698 405.308 76.3938 404.443L126.765 397.09L149.387 345.116C152.047 339.024 157.622 335.132 163.615 335.24C169.671 335.312 175.118 339.277 177.681 345.441L199.054 397.018L250.163 403.686C256.251 404.479 261.378 409.201 263.269 415.761C265.16 422.321 263.493 429.529 259.007 434.179L221.389 473.25L229.72 526.306C230.745 532.902 228.374 539.57 223.6 543.571C220.844 545.842 217.576 547.031 214.276 547.031C211.84 547.031 209.405 546.382 207.13 545.085L162.847 519.638L118.916 544.688C113.629 547.715 107.284 547.103 102.51 543.138C97.7352 539.173 95.3641 532.542 96.3574 525.945L104.4 473.214L67.7426 434.864C63.2886 430.215 61.6541 423.078 63.4806 416.554Z" fill="black"/>
<path d="M609.946 469.757L605.749 497.294L628.979 484.066C631.223 482.805 633.626 482.156 636.061 482.156C638.496 482.156 640.964 482.805 643.207 484.102L666.534 497.51L662.208 469.865C661.279 463.954 663.106 457.898 667.015 453.826L685.824 434.29L659.966 430.902C654.551 430.181 649.872 426.396 647.566 420.809L636.382 393.777L624.495 421.097C622.188 426.432 617.637 430.072 612.414 430.829L586.78 434.578L605.172 453.824C609.05 457.933 610.843 463.918 609.946 469.757Z" fill="black"/>
<path d="M407.849 723.391C361.29 723.391 322.554 685.186 315.056 635.157L0.0114866 635.193V723.428C0.0114866 762.355 28.1453 794 62.7514 794H737.26C771.867 794 800 762.354 800 723.428V635.193H500.623C493.157 685.186 454.379 723.391 407.849 723.391Z" fill="black"/>
<path d="M737.249 176.437H62.7399C28.133 176.437 0 208.083 0 247.009H799.982C799.982 208.082 771.855 176.437 737.249 176.437Z" fill="black"/>
</svg>
