<svg width="720" height="769" viewBox="0 0 720 769" fill="none" xmlns="http://www.w3.org/2000/svg">
<path d="M250.08 159.729C257.352 161.321 263.973 165.103 269.107 170.597C274.241 176.091 277.657 183.049 278.924 190.594C280.191 198.139 279.252 205.93 276.226 212.985C273.199 220.039 268.221 226.039 261.92 230.227C253.399 235.599 243.24 237.414 233.551 235.294C223.862 233.175 215.388 227.284 209.888 218.846C205.911 212.41 203.893 204.879 204.088 197.205C204.283 189.532 206.683 182.059 210.984 175.733C215.286 169.406 221.295 164.509 228.254 161.661C235.213 158.812 242.808 158.14 250.08 159.729Z" fill="black"/>
<path d="M160.583 264.536C167.144 264.713 173.715 264.195 180.191 262.989C191.74 274.781 206.382 282.864 222.374 286.276C239.333 289.987 257.048 288.427 273.281 281.792C289.514 275.158 303.537 263.747 313.581 249C323.624 234.253 329.237 216.831 329.711 198.935C330.185 181.038 325.498 163.468 316.243 148.444C303.482 128.675 283.711 114.865 261.08 109.915C238.449 104.964 214.717 109.258 194.868 121.894C185.081 128.333 176.602 136.685 169.92 146.468C163.238 156.251 158.485 167.273 155.934 178.899C153.481 189.811 153.11 201.083 154.842 212.084C102.946 207.363 71.9487 149.386 71.8142 148.826C69.4382 144.278 65.7596 140.605 61.2708 138.297L90.9346 64.9401C98.9452 45.2743 112.572 28.519 129.988 16.9199C147.404 5.32079 167.777 -0.567852 188.377 0.043167L402.788 7.68451C418.96 8.25758 434.708 12.8303 448.703 21.0165C462.699 29.2026 474.53 40.7619 483.198 54.7183L703.776 411.209C717.985 434.247 722.665 462.267 716.79 489.126C710.915 515.985 694.964 539.493 672.434 554.494L374.861 752.017C352.291 766.952 325.007 772.144 298.991 766.453C272.975 760.762 250.351 744.654 236.077 721.659L15.4983 365.168C6.87641 351.181 1.67853 335.219 0.343606 318.629C-0.991322 302.039 1.57587 285.309 7.8284 269.851L39.1139 192.605C61.6653 226.787 95.5082 251.324 134.473 261.742C143.057 263.541 151.801 264.476 160.583 264.536ZM300.92 482.778L343.111 487.232L358.573 543.402C360.038 548.813 363.137 553.585 367.424 557.032C371.712 560.479 376.968 562.426 382.439 562.591C387.91 562.757 393.314 561.133 397.877 557.954C402.439 554.775 405.926 550.203 407.835 544.894L426.077 495.565L476.968 499.005C482.423 499.425 487.89 498.054 492.585 495.089C497.28 492.123 500.961 487.715 503.101 482.498C505.241 477.28 505.73 471.521 504.497 466.046C503.264 460.571 500.373 455.662 496.238 452.023L453.423 414.009L467.14 372.444C468.906 367.176 469.042 361.494 467.526 356.188C466.011 350.882 462.922 346.216 458.686 342.839C454.451 339.462 449.282 337.541 443.896 337.344C438.51 337.147 433.176 338.683 428.636 341.739L398.934 361.239L350.978 327.935C346.754 325.092 341.804 323.581 336.727 323.585C331.649 323.588 326.662 325.107 322.369 327.957C318.076 330.807 314.66 334.865 312.536 339.642C310.412 344.418 309.67 349.708 310.4 354.87L319.581 413.911L290.069 433.717C285.492 436.713 281.916 441.091 279.839 446.242C277.762 451.392 277.288 457.06 278.481 462.456C279.675 467.852 282.477 472.709 286.499 476.351C290.52 479.993 295.561 482.239 300.92 482.778Z" fill="black"/>
<path d="M27.3446 173.584C24.2511 167.571 23.5929 160.515 25.5121 153.939C27.4314 147.362 31.7743 141.791 37.6046 138.425C41.244 136.346 45.3235 135.244 49.4622 135.222C53.6009 135.199 57.6636 136.257 61.2708 138.297L39.1139 192.605C34.7833 186.545 30.8516 180.19 27.3446 173.584Z" fill="black"/>
</svg>
