<svg width="760" height="754" viewBox="0 0 760 754" fill="none" xmlns="http://www.w3.org/2000/svg">
<path d="M174.163 244.996H171.186L169.408 244.902C133.363 243.367 106.32 222.533 98.5157 190.359H27.8776C12.5598 190.359 0 201.104 0 214.325V303.678C0 316.993 12.5598 327.833 27.8776 327.833H280.086V222.696C233.079 237.546 197.47 245.002 174.17 245.002L174.163 244.996ZM81.3461 292.146L70.9282 296.783L69.5488 306.902C69.4399 307.529 68.5324 307.779 67.9516 307.309L59.6029 300.26L48.0959 302.265C47.3699 302.359 46.7892 301.701 47.1522 301.075L52.3429 292.021L46.5714 283.186C46.2084 282.622 46.7529 281.901 47.5151 282.058L59.1308 283.499L67.1166 276.105C67.5885 275.635 68.496 275.855 68.7138 276.513L70.674 286.444L81.2731 290.705C81.999 291.018 81.999 291.833 81.382 292.146L81.3461 292.146ZM90.9285 231.901L80.5107 236.538L79.1313 246.563C79.0224 247.189 78.1149 247.534 77.5341 247.033L69.1853 239.984L57.6784 241.895C56.9524 242.051 56.3717 241.425 56.7346 240.767L61.9253 231.713L56.1538 222.878C55.7909 222.314 56.3353 221.593 57.0976 221.687L68.7133 223.223L76.6991 215.766C77.171 215.296 78.0785 215.516 78.2963 216.174L80.2565 226.199L90.8555 230.46C91.5815 230.71 91.5815 231.587 90.9644 231.901L90.9285 231.901ZM165.813 294.778L155.395 299.508L154.016 309.534C153.907 310.16 153 310.505 152.419 310.003L144.07 302.954L132.636 304.865C131.91 305.022 131.256 304.396 131.619 303.738L136.81 294.684L131.147 285.849C130.784 285.285 131.256 284.564 132.091 284.658L143.598 286.193L151.584 278.737C152.128 278.267 153.072 278.486 153.181 279.144L155.141 289.17L165.74 293.43C166.466 293.681 166.466 294.558 165.849 294.809L165.813 294.778ZM250.39 276.262L239.972 280.899L238.593 291.018C238.484 291.645 237.577 291.895 236.996 291.425L228.647 284.376L217.213 286.381C216.487 286.475 215.833 285.817 216.196 285.253L221.387 276.199L215.724 267.302C215.361 266.738 215.906 266.111 216.668 266.174L228.175 267.615L236.161 260.222C236.705 259.752 237.649 259.971 237.758 260.629L239.718 270.56L250.39 274.821C251.043 275.134 251.044 275.949 250.39 276.262ZM732.115 190.358H661.477C653.564 223.003 626.993 243.209 590.004 244.902L589.17 244.996H585.83C562.49 244.996 526.917 237.539 479.914 222.69V327.827H732.122C747.44 327.827 760 316.987 760 303.672V214.319C760 201.099 747.44 190.353 732.122 190.353L732.115 190.358ZM545.902 285.221C546.265 285.785 545.612 286.411 544.886 286.349L533.451 284.344L525.102 291.393C524.558 291.863 523.614 291.643 523.505 290.985L522.126 280.866L511.708 276.23C511.055 275.916 511.055 275.102 511.817 274.788L522.416 270.528L524.376 260.596C524.485 259.97 525.393 259.719 525.973 260.189L533.959 267.583L545.466 266.142C546.301 266.048 546.773 266.705 546.482 267.269L540.711 276.167L545.902 285.221ZM630.479 303.736C630.842 304.363 630.189 305.021 629.463 304.864L618.028 302.953L609.679 310.002C609.135 310.472 608.191 310.159 608.082 309.532L606.703 299.507L596.285 294.776C595.632 294.526 595.632 293.648 596.394 293.398L606.993 289.137L608.953 279.112C609.062 278.485 609.969 278.234 610.55 278.704L618.536 286.161L630.043 284.626C630.878 284.532 631.422 285.252 631.059 285.816L625.288 294.651L630.479 303.705L630.479 303.736ZM671.279 230.427L681.878 226.166L683.838 216.141C684.02 215.514 684.963 215.264 685.435 215.734L693.421 223.19L705.037 221.655C705.763 221.561 706.343 222.281 705.98 222.845L700.209 231.68L705.4 240.734C705.763 241.361 705.218 242.019 704.456 241.862L692.949 239.951L684.6 247C684.056 247.47 683.112 247.157 683.003 246.53L681.624 236.505L671.206 231.868C670.552 231.555 670.552 230.678 671.315 230.427L671.279 230.427ZM714.946 301.011C715.309 301.638 714.765 302.295 714.003 302.201L702.496 300.196L694.147 307.245C693.602 307.715 692.659 307.496 692.55 306.838L691.17 296.719L680.752 292.082C680.099 291.769 680.099 290.955 680.861 290.641L691.46 286.381L693.421 276.449C693.602 275.823 694.546 275.572 695.018 276.042L703.004 283.436L714.619 281.994C715.345 281.838 715.926 282.558 715.563 283.122L709.9 291.957L715.018 301.011L714.946 301.011ZM423.607 203.389C413.589 218.239 397.508 227.2 380.012 227.2C362.552 227.2 346.471 218.208 336.417 203.389C327.959 206.522 319.61 209.498 311.226 212.287V327.762H448.764V212.287C440.416 209.467 432.03 206.522 423.573 203.389H423.607ZM616.613 126.226C606.776 123.595 596.721 121.903 586.303 121.026C581.185 120.462 575.994 120.148 570.767 120.054C569.097 120.054 567.319 119.96 565.576 119.96C506.954 119.96 445.61 140.888 410.475 155.174C409.531 151.634 408.152 148.188 406.373 145.055C442.998 130.205 505.255 109.214 565.545 109.214C567.396 109.214 569.247 109.371 571.026 109.371C574.293 109.465 577.451 109.527 580.682 109.778C586.998 102.948 593.967 94.0513 599.158 84.1199C606.599 69.771 588.196 40.2591 557.632 20.3658C541.006 9.30678 520.643 1.2866 499.081 0.00176493H497.23C454.869 0.00176493 414.541 83.2433 394.464 132.583C389.999 129.952 385.171 128.166 379.98 128.166C374.79 128.166 369.962 129.921 365.497 132.583C365.207 131.957 365.025 131.299 364.771 130.578C356.313 110.058 344.407 84.1488 330.577 60.8092C329.271 58.7102 328.073 56.7051 326.875 54.7001C308 24.3742 285.712 0 262.771 0H260.92C199.684 3.54019 149.298 62.0001 160.839 84.1157C166.03 94.0471 173 102.976 179.316 109.774C182.583 109.523 185.741 109.461 188.972 109.367C190.75 109.367 192.602 109.21 194.453 109.21C204.217 109.21 214.163 109.774 224.109 110.808C230.534 111.434 236.85 112.343 243.166 113.283C245.126 113.596 247.159 113.909 249.119 114.254C252.096 114.818 255.072 115.288 258.049 115.852C259.646 116.165 261.098 116.478 262.804 116.823C266.071 117.449 269.229 118.201 272.46 118.985C278.885 120.426 285.092 122.023 291.335 123.621C294.311 124.498 297.288 125.376 300.264 126.19C312.533 129.887 323.968 133.74 334.167 137.406C336.781 138.377 339.539 139.317 341.971 140.444C344.004 141.071 345.892 141.823 347.743 142.606C349.05 143.076 350.429 143.64 351.663 144.204C352.317 144.517 353.043 144.83 353.696 145.018C351.917 148.151 350.538 151.597 349.594 155.138C314.457 140.852 253.147 119.924 194.492 119.924C192.714 119.924 190.971 120.018 189.302 120.018C184.111 120.112 178.884 120.425 173.765 120.989C163.348 121.866 153.329 123.558 143.456 126.19C124.762 133.176 115.106 158.741 119.027 182.175C122.729 204.324 138.81 224.688 170.789 226.036C171.914 226.036 173.112 226.192 174.237 226.192C200.917 226.192 245.129 214.162 289.558 199.406C293.66 198.028 297.834 196.587 301.899 195.24C314.459 190.979 326.728 186.593 338.597 182.176C342.118 180.891 345.458 179.607 348.834 178.322C349.015 179.607 349.378 180.891 349.959 182.176C354.424 197.496 366.04 208.398 380.051 208.398C394.099 208.398 405.714 197.495 410.143 182.176C410.688 180.891 411.087 179.607 411.268 178.322C414.608 179.607 417.947 180.891 421.505 182.176C433.411 186.593 445.753 191.011 458.203 195.24C462.305 196.618 466.479 198.059 470.545 199.406C514.974 214.162 559.187 226.192 585.865 226.192C586.99 226.192 588.188 226.036 589.313 226.036C621.293 224.657 637.373 204.294 641.075 182.175C644.996 158.741 635.304 133.176 616.646 126.19L616.613 126.226ZM55.7619 354.641V724.949C55.9434 740.99 71.0797 753.991 89.6648 753.991H280.05V354.674L55.7619 354.641ZM219.106 400.131L230.722 401.572L238.708 394.116C239.179 393.708 240.087 393.865 240.305 394.586L242.265 404.517L252.864 408.778C253.59 409.028 253.59 409.906 252.973 410.219L242.555 414.856L241.176 424.881C241.067 425.601 240.159 425.852 239.578 425.351L231.23 418.302L219.723 420.213C218.997 420.369 218.416 419.743 218.779 419.085L223.897 410.031L218.234 401.196C217.871 400.632 218.416 399.911 219.178 400.068L219.106 400.131ZM201.465 477.701L213.081 479.142L221.067 471.749C221.538 471.279 222.446 471.498 222.664 472.156L224.624 482.087L235.223 486.348C235.949 486.662 235.949 487.476 235.332 487.789L224.914 492.426L223.535 502.545C223.426 503.172 222.518 503.422 221.937 503.015L213.589 495.872L202.082 497.877C201.356 497.971 200.775 497.313 201.138 496.749L206.329 487.695L200.557 478.798C200.194 478.234 200.739 477.607 201.501 477.67L201.465 477.701ZM100.734 396.625L128.14 400.071L147.088 382.496C148.286 381.368 150.536 381.932 150.79 383.467L155.437 407.12L180.628 417.239C182.298 417.866 182.298 419.871 180.737 420.623L156.126 431.776L152.86 455.523C152.569 457.121 150.427 457.778 149.157 456.651L129.265 439.89L102.041 444.527C100.262 444.84 98.8831 443.242 99.718 441.895L111.987 420.403L98.5202 399.382C97.5764 398.097 98.992 396.405 100.734 396.656L100.734 396.625ZM133.077 696.973L122.659 701.61L121.279 711.729C121.171 712.356 120.263 712.606 119.682 712.199L111.333 705.056L99.8265 707.061C99.1005 707.155 98.5198 706.497 98.8828 705.933L104.073 696.879L98.302 687.982C97.939 687.418 98.4835 686.791 99.2457 686.854L110.861 688.295L118.847 680.901C119.319 680.431 120.227 680.651 120.444 681.308L122.404 691.24L133.004 695.501C133.73 695.814 133.73 696.628 133.112 696.942L133.077 696.973ZM135.291 608.19L124.873 612.92L123.494 622.946C123.385 623.572 122.477 623.917 121.896 623.416L113.548 616.367L102.041 618.278C101.315 618.434 100.734 617.714 101.097 617.15L106.288 608.096L100.516 599.261C100.153 598.697 100.698 597.976 101.46 598.07L113.076 599.511L121.061 592.118C121.533 591.648 122.441 591.867 122.659 592.525L124.619 602.456L135.218 606.78C135.944 607.03 135.944 607.814 135.327 608.158L135.291 608.19ZM135.291 494.063L124.873 498.699L123.494 508.818C123.385 509.445 122.477 509.695 121.896 509.288L113.548 502.145L102.041 504.15C101.315 504.244 100.734 503.586 101.097 503.022L106.288 493.968L100.516 485.071C100.153 484.507 100.698 483.88 101.46 483.943L113.076 485.384L121.061 477.99C121.533 477.521 122.441 477.74 122.659 478.398L124.619 488.329L135.218 492.59C135.944 492.903 135.944 493.718 135.327 494.031L135.291 494.063ZM174.893 536.075L164.475 540.711L163.096 550.736C162.987 551.363 162.079 551.708 161.498 551.206L153.15 544.157L141.715 546.068C140.989 546.225 140.336 545.598 140.699 544.941L145.89 535.887L140.227 527.052C139.864 526.488 140.336 525.767 141.171 525.861L152.678 527.396L160.663 519.94C161.208 519.47 162.152 519.689 162.26 520.347L164.221 530.372L174.82 534.633C175.546 534.884 175.546 535.761 174.929 536.074L174.893 536.075ZM217.653 723.675L207.236 728.405L205.856 738.431C205.747 739.057 204.84 739.402 204.259 738.901L195.91 731.852L184.403 733.763C183.677 733.919 183.097 733.199 183.46 732.635L188.65 723.581L182.879 714.746C182.516 714.182 183.06 713.461 183.822 713.555L195.438 714.996L203.424 707.603C203.896 707.133 204.803 707.352 205.021 708.01L206.981 717.941L217.58 722.265C218.306 722.515 218.306 723.299 217.689 723.643L217.653 723.675ZM258.817 646.449L234.206 657.602L230.867 681.349C230.685 682.947 228.435 683.605 227.237 682.477L207.345 665.716L180.121 670.353C178.342 670.666 176.963 669.069 177.689 667.721L190.03 646.23L176.564 625.208C175.62 623.924 176.926 622.232 178.705 622.482L206.219 625.929L225.094 608.353C226.401 607.225 228.543 607.789 228.906 609.324L233.552 632.978L258.743 643.097C260.34 643.723 260.413 645.728 258.852 646.48L258.817 646.449ZM311.232 354.683V754H448.771V354.683H311.232ZM479.873 354.683V754H670.258C688.843 754 703.98 740.998 704.161 724.958V354.65H479.83L479.873 354.683ZM569.641 468.658C570.367 468.564 570.947 469.284 570.584 469.848L564.922 478.683L570.112 487.737C570.403 488.301 569.822 489.022 569.096 488.865L557.589 486.954L549.24 494.003C548.696 494.473 547.752 494.16 547.643 493.533L546.264 483.508L535.955 478.777C535.229 478.464 535.301 477.649 535.955 477.399L546.554 473.138L548.514 463.113C548.695 462.486 549.639 462.236 550.111 462.706L558.097 470.162L569.712 468.627L569.641 468.658ZM518.242 399.766L528.841 395.505L530.801 385.574C530.982 384.947 531.926 384.697 532.398 385.167L540.384 392.56L552 391.119C552.726 391.025 553.306 391.683 552.943 392.247L547.281 401.145L552.471 410.199C552.762 410.762 552.181 411.389 551.455 411.326L539.948 409.321L531.599 416.464C531.055 416.871 530.111 416.621 530.002 415.994L528.623 405.969L518.314 401.238C517.588 400.925 517.66 400.111 518.314 399.797L518.242 399.766ZM587.646 723.613C588.009 724.24 587.464 724.898 586.702 724.741L575.195 722.83L566.846 729.879C566.302 730.349 565.358 730.036 565.249 729.409L563.87 719.384L553.452 714.747C552.799 714.434 552.799 713.557 553.561 713.306L564.16 709.045L566.12 699.02C566.302 698.393 567.245 698.143 567.717 698.613L575.703 706.069L587.319 704.534C588.045 704.44 588.625 705.16 588.263 705.724L582.6 714.559L587.718 723.613L587.646 723.613ZM594.615 616.215L581.04 637.143L593.381 658.634C594.107 660.013 592.728 661.611 590.949 661.266L563.725 656.692L543.833 673.453C542.635 674.486 540.385 673.86 540.203 672.325L536.864 648.514L512.254 637.361C510.656 636.641 510.765 634.636 512.362 633.978L537.554 623.859L542.309 600.268C542.599 598.67 544.813 598.107 546.011 599.297L564.886 616.872L592.4 613.332C594.179 613.082 595.45 614.773 594.615 616.152L594.615 616.215ZM630.406 536.013C630.769 536.577 630.116 537.203 629.39 537.141L617.955 535.136L609.607 542.279C609.062 542.686 608.118 542.435 608.01 541.809L606.63 531.69L596.212 527.053C595.559 526.74 595.559 525.925 596.321 525.612L606.92 521.351L608.88 511.42C608.989 510.793 609.897 510.543 610.478 511.012L618.463 518.406L629.97 516.965C630.805 516.871 631.35 517.529 630.987 518.093L625.215 526.99L630.406 536.044L630.406 536.013ZM635.887 597.762L646.487 593.501L648.447 583.476C648.628 582.849 649.572 582.599 650.044 583.069L658.03 590.525L669.645 588.99C670.371 588.896 670.952 589.616 670.589 590.18L664.818 599.015L670.008 608.069C670.371 608.696 669.827 609.354 669.065 609.197L657.558 607.286L649.209 614.335C648.664 614.805 647.721 614.492 647.612 613.865L646.232 603.84L635.814 599.203C635.161 598.89 635.161 598.013 635.923 597.762L635.887 597.762ZM670.009 493.973C670.372 494.537 669.827 495.257 669.065 495.1L657.558 493.189L649.209 500.238C648.665 500.708 647.721 500.395 647.612 499.769L646.233 489.743L635.815 485.013C635.161 484.699 635.161 483.885 635.924 483.634L646.523 479.311L648.483 469.379C648.664 468.753 649.608 468.502 650.08 468.972L658.066 476.428L669.682 474.893C670.408 474.799 670.988 475.52 670.625 476.084L664.854 484.919L670.045 493.973L670.009 493.973ZM672.332 696.891C672.622 697.455 672.041 698.176 671.315 698.019L659.808 696.108L651.46 703.157C650.915 703.627 649.971 703.314 649.862 702.687L648.483 692.662L638.174 687.931C637.448 687.618 637.521 686.804 638.174 686.553L648.773 682.23L650.733 672.298C650.915 671.672 651.858 671.421 652.33 671.891L660.316 679.285L671.932 677.843C672.658 677.749 673.239 678.47 672.876 679.034L667.213 687.869L672.404 696.923L672.332 696.891ZM672.622 390.368L659.156 411.296L671.424 432.787C672.259 434.166 670.88 435.764 669.101 435.419L641.877 430.845L621.985 447.606C620.679 448.64 618.537 448.013 618.356 446.478L615.016 422.668L590.406 411.515C588.808 410.794 588.808 408.789 590.515 408.131L615.706 398.012L620.352 374.421C620.642 372.824 622.857 372.26 624.054 373.45L643.003 391.026L670.408 387.486C672.26 387.235 673.566 388.927 672.623 390.305L672.622 390.368Z" fill="black"/>
</svg>
