<svg width="699" height="819" viewBox="0 0 699 819" fill="none" xmlns="http://www.w3.org/2000/svg">
<path d="M231.175 731.296V748.682V761.091V799.966V819C203.327 795.022 207.968 795.83 180.12 819V730.49C206.119 731.298 221.892 731.296 231.175 731.296ZM253.439 790.045H698.061V770.204H253.439V790.045ZM84.5031 750.33H157.821V729.648H130.917C124.426 729.648 119.785 725.512 119.785 719.727C119.785 713.943 124.426 709.807 130.917 709.807H281.287C296.154 709.807 296.154 729.648 281.287 729.648H254.382V750.33H699.004V684.989H84.4994C32.5015 685.797 30.6561 749.522 84.5031 750.33ZM0.0158618 718.08C0.0158618 757.795 36.2035 790.045 80.7678 790.045H156.878V770.204H83.56C29.713 771.044 0.0158677 712.295 39.9388 680.048C52.0137 670.128 66.8438 665.151 83.56 665.151H697.164V645.309H79.8655C37.1503 644.437 -0.890128 679.204 0.0158618 718.08ZM69.636 626.236V504.635C29.713 509.612 0.0158618 539.374 0.0158618 575.794V660.167C17.6743 641.974 42.7311 628.724 69.636 626.236ZM69.636 484.789V416.119C29.713 421.095 0.0158618 450.858 0.0158618 487.277V518.72C16.7321 500.495 41.7879 488.086 69.636 484.789ZM69.636 396.246V249.017C29.713 253.993 0.0158618 283.756 0.0158618 320.983V431.018C16.7321 411.984 41.7879 399.574 69.636 396.246ZM69.636 229.146V160.476C29.713 165.452 0.0158618 195.214 0.0158618 232.442V263.885C16.7321 244.883 41.7879 232.474 69.636 229.146ZM698.101 0V626.236H91.933V0H698.101ZM632.18 150.555C632.18 144.771 627.538 140.634 621.048 140.634C576.483 140.634 540.296 108.384 540.296 68.6685C540.296 62.884 535.655 58.7478 529.164 58.7478H260.876C254.385 58.7478 249.744 62.8842 249.744 68.6685C249.744 108.384 213.557 140.634 168.992 140.634C162.502 140.634 157.86 144.771 157.86 150.555V474.837C157.86 480.621 162.502 484.758 168.992 484.758C213.557 484.758 249.744 517.008 249.744 556.724C249.744 562.508 254.385 566.644 260.876 566.644H529.127C535.618 566.644 540.259 562.508 540.259 556.724C540.259 517.008 576.446 484.758 621.011 484.758C627.501 484.758 632.142 480.621 632.142 474.837L632.18 150.555ZM609.916 159.668V465.759C562.559 469.895 524.523 504.634 518.938 546.838H272C267.359 504.634 229.285 469.895 181.023 465.759V159.668C229.285 154.692 267.359 120.793 272 78.5891H518.938C523.58 121.601 561.617 155.532 609.916 159.668ZM509.654 280.433L437.241 271.32L404.752 212.603C401.053 205.978 388.979 205.978 385.243 212.603L352.754 271.352L280.342 280.466C276.643 281.306 272.908 283.762 271.059 287.09C270.116 290.386 271.059 294.523 273.851 297.011L325.849 342.511L313.774 407.044C312.831 411.181 314.717 414.477 318.415 416.965C322.114 419.453 326.755 419.453 330.49 417.805L395.469 387.203L460.448 417.805C464.146 419.453 468.788 419.453 472.523 416.965C476.221 414.477 477.164 411.181 477.164 407.044L465.089 342.511L517.087 297.011C522.635 292.034 518.936 281.274 509.654 280.433ZM420.525 284.57L395.469 239.07L370.413 284.57C368.564 287.058 365.772 289.546 362.074 290.354L306.377 297.787L347.206 333.366C349.998 335.854 350.905 339.15 349.998 341.639L340.716 391.275C343.508 390.435 394.563 364.809 396.412 366.457C398.261 364.809 449.316 390.434 452.108 391.275L442.825 341.639C441.882 338.342 443.768 335.014 445.617 333.366L486.446 297.787L430.75 290.354C425.166 289.546 421.468 287.058 420.525 284.57ZM69.6304 140.641V0.00496371C29.7074 4.9815 0.0102935 34.7437 0.0102935 71.1635V174.572C16.7265 156.347 41.7824 143.938 69.6304 140.641Z" fill="black"/>
</svg>
