<svg width="723" height="675" viewBox="0 0 723 675" fill="none" xmlns="http://www.w3.org/2000/svg">
<path d="M610.629 92.7286H396.51C389.047 92.7373 381.656 91.2392 374.764 88.3207C367.872 85.4021 361.615 81.1211 356.356 75.7247L314.922 33.5266C304.513 22.8614 292.132 14.4065 278.495 8.65172C264.857 2.89689 250.236 -0.0436089 235.476 0.000488727H112.371C82.5773 0.0304999 54.0124 12.1058 32.9452 33.5762C11.8779 55.0466 0.0294476 84.1582 0 114.522V560.478C0.0294476 590.842 11.8779 619.954 32.9452 641.424C54.0124 662.895 82.5773 674.97 112.371 675H610.629C640.423 674.97 668.988 662.895 690.055 641.424C711.122 619.954 722.971 590.842 723 560.478V207.137C722.941 176.793 711.08 147.71 690.016 126.264C668.952 104.818 640.403 92.7585 610.629 92.7286ZM518.363 374.54L459.967 432.411L473.732 514.086C474.604 519.294 474.031 524.647 472.077 529.54C470.122 534.434 466.864 538.673 462.671 541.779C458.478 544.886 453.516 546.736 448.345 547.12C443.175 547.505 438.002 546.409 433.411 543.956L361.5 505.414L289.478 543.956C284.893 546.443 279.713 547.56 274.533 547.179C269.353 546.798 264.383 544.934 260.197 541.802C255.988 538.702 252.716 534.462 250.75 529.564C248.784 524.665 248.203 519.304 249.073 514.086L262.838 432.411L204.442 374.54C200.772 370.842 198.185 366.175 196.97 361.063C195.754 355.951 195.959 350.595 197.561 345.595C199.162 340.594 202.098 336.147 206.039 332.75C209.98 329.354 214.771 327.142 219.875 326.363L300.379 314.432L336.529 240.096C339.078 235.67 342.719 232 347.089 229.45C351.46 226.9 356.408 225.558 361.444 225.558C366.48 225.558 371.429 226.9 375.799 229.45C380.17 232 383.81 235.67 386.36 240.096L422.371 314.432L502.874 326.363C508.007 327.122 512.829 329.33 516.795 332.736C520.761 336.142 523.714 340.61 525.32 345.636C526.925 350.663 527.119 356.046 525.88 361.179C524.641 366.312 522.018 370.989 518.308 374.682L518.363 374.54Z" fill="black"/>
</svg>
