<svg width="823" height="833" viewBox="0 0 823 833" fill="none" xmlns="http://www.w3.org/2000/svg">
<path d="M411.521 573.85C499.197 573.85 570.496 503.247 570.496 416.504C570.496 329.726 499.162 259.158 411.521 259.158C323.844 259.158 252.545 329.76 252.545 416.504C252.545 503.282 323.879 573.85 411.521 573.85ZM312.411 383.003C315.357 374.048 323.389 367.8 332.892 367.07L374.171 364.016L389.848 326.111C393.46 317.364 401.947 311.741 411.487 311.741C421.026 311.741 429.513 317.399 433.126 326.111L448.802 364.016L490.081 367.07C499.585 367.765 507.651 374.013 510.598 383.003C513.544 391.958 510.738 401.713 503.478 407.822L471.88 434.307L481.7 474.121C483.945 483.284 480.438 492.796 472.722 498.35C465.006 503.904 454.801 504.251 446.7 499.322L411.489 477.766L376.277 499.322C372.49 501.647 368.211 502.793 363.968 502.793C359.128 502.793 354.323 501.3 350.22 498.35C342.505 492.796 338.998 483.285 341.242 474.121L351.062 434.307L319.464 407.822C312.204 401.713 309.399 391.994 312.345 383.003H312.411ZM331.63 393.659C329.456 391.854 329.912 389.598 330.192 388.696C330.473 387.793 331.455 385.71 334.295 385.502L381.36 382.031C384.902 381.788 387.989 379.567 389.321 376.304L407.208 333.088C408.295 330.485 410.574 330.207 411.521 330.207C412.468 330.207 414.783 330.485 415.835 333.088L433.721 376.304C435.054 379.532 438.14 381.753 441.682 382.031L488.712 385.502C491.553 385.71 492.535 387.793 492.815 388.696C493.096 389.598 493.552 391.854 491.378 393.659L455.36 423.858C452.66 426.114 451.467 429.724 452.309 433.126L463.532 478.494C464.198 481.236 462.515 482.798 461.743 483.353C460.971 483.909 458.937 485.02 456.553 483.527L416.431 458.952C413.415 457.112 409.592 457.112 406.611 458.952L366.49 483.527C364.07 484.985 362.036 483.909 361.264 483.353C360.493 482.798 358.809 481.236 359.475 478.494L370.663 433.126C371.505 429.724 370.347 426.149 367.612 423.858L331.595 393.694L331.63 393.659ZM411.521 111.037C241.359 111.037 102.898 248.078 102.898 416.496C102.898 584.914 241.359 721.956 411.521 721.956C581.683 721.956 720.143 584.914 720.143 416.496C720.143 248.078 581.683 111.037 411.521 111.037ZM159.012 434.828C154.032 434.828 149.332 432.919 145.79 429.413L129.762 413.55C126.114 409.94 126.114 404.074 129.762 400.463C133.409 396.853 139.336 396.854 142.984 400.463L159.012 416.327L189.558 386.094C193.205 382.484 199.132 382.484 202.78 386.094C206.428 389.704 206.427 395.57 202.78 399.18L172.234 429.413C168.692 432.919 163.992 434.828 159.012 434.828ZM648.498 503.002C612.059 600.749 516.843 666.426 411.521 666.426C306.199 666.426 210.986 600.752 174.544 503.002C172.755 498.211 175.245 492.866 180.085 491.131C184.925 489.36 190.325 491.825 192.079 496.615C225.817 587.111 313.983 647.918 411.513 647.918C509.006 647.918 597.216 587.104 630.946 496.615C632.735 491.825 638.171 489.36 642.94 491.131C647.78 492.901 650.27 498.212 648.481 503.002H648.498ZM233.817 416.501C233.817 319.518 313.533 240.619 411.521 240.619C509.509 240.619 589.224 319.517 589.224 416.501C589.224 513.485 509.509 592.383 411.521 592.383C313.533 592.383 233.817 513.485 233.817 416.501ZM680.056 386.059C683.703 382.449 689.63 382.449 693.278 386.059C696.926 389.669 696.925 395.535 693.278 399.145L662.697 429.379C659.19 432.884 654.49 434.794 649.475 434.794H649.439C644.459 434.794 639.76 432.885 636.217 429.379L620.19 413.515C616.542 409.905 616.542 404.039 620.19 400.429C623.837 396.818 629.764 396.819 633.412 400.429L649.439 416.292L680.021 386.059H680.056ZM642.951 341.871C638.146 343.641 632.746 341.177 630.957 336.387C597.219 245.891 509.053 185.083 411.523 185.083C314.03 185.083 225.82 245.898 192.09 336.387C190.687 340.136 187.11 342.426 183.322 342.426C182.235 342.426 181.148 342.253 180.095 341.836C175.256 340.066 172.766 334.755 174.554 329.965C210.993 232.219 306.209 166.541 411.531 166.541C516.853 166.541 612.066 232.215 648.508 329.965C650.297 334.756 647.807 340.101 642.967 341.836L642.951 341.871ZM796.593 416.5C796.593 404.872 802.941 391.3 809.113 378.213C817.46 360.407 826.087 342.01 821.914 323.821C817.565 304.903 801.363 291.747 785.686 279.078C774.218 269.775 763.346 260.993 758.541 251.135C753.596 240.965 753.386 226.872 753.141 211.981C752.825 192.161 752.544 171.647 740.551 156.825C728.522 141.9 708.321 137.04 688.786 132.354C674.197 128.848 660.414 125.551 651.612 118.539C642.879 111.631 636.566 99.1352 629.938 85.8754C620.96 67.9993 611.665 49.5331 594.165 41.1677C577.015 32.9758 556.815 37.2107 537.281 41.3413C523.113 44.3265 508.523 47.4157 497.231 44.8818C486.604 42.4868 475.627 34.0515 463.984 25.0961C447.921 12.7391 431.298 0 411.518 0C391.703 0 375.114 12.7738 359.051 25.0961C347.408 34.0515 336.431 42.4862 325.804 44.8818C314.547 47.4158 299.922 44.3265 285.754 41.3413C266.219 37.2107 246.019 32.9758 228.87 41.1677C211.37 49.5332 202.075 67.9993 193.097 85.8754C186.434 99.1352 180.156 111.631 171.423 118.539C162.586 125.516 148.803 128.813 134.214 132.319C114.679 137.005 94.5133 141.865 82.4494 156.791C70.4555 171.647 70.1745 192.127 69.8594 211.947C69.6139 226.873 69.4035 240.93 64.4585 251.101C59.6538 260.959 48.8169 269.741 37.3141 279.043C21.6375 291.747 5.43469 304.868 1.08569 323.786C-3.08769 341.975 5.53964 360.372 13.8867 378.179C20.024 391.3 26.4066 404.837 26.4066 416.465C26.4066 428.094 20.0588 441.665 13.8867 454.752C5.53982 472.559 -3.08733 490.956 1.08569 509.145C5.43451 528.062 21.6375 541.218 37.3141 553.922C48.7819 563.225 59.6543 572.007 64.4585 581.865C69.4035 592.035 69.6139 606.128 69.8594 621.019C70.175 640.839 70.4556 661.353 82.4494 676.209C94.4783 691.135 114.679 695.995 134.214 700.681C148.803 704.186 162.586 707.484 171.423 714.461C180.156 721.369 186.469 733.865 193.097 747.125C202.075 765.001 211.37 783.467 228.87 791.832C246.02 800.024 266.22 795.789 285.754 791.659C299.922 788.674 314.547 785.584 325.804 788.118C336.431 790.513 347.408 798.949 359.051 807.904C375.114 820.261 391.737 833 411.518 833C431.332 833 447.956 820.226 463.984 807.904C475.627 798.949 486.604 790.514 497.231 788.118C508.523 785.584 523.148 788.674 537.281 791.659C556.781 795.755 576.981 800.024 594.165 791.832C611.665 783.467 620.96 765.001 629.938 747.125C636.601 733.865 642.879 721.369 651.612 714.461C660.449 707.484 674.232 704.187 688.786 700.681C708.321 695.995 728.522 691.135 740.551 676.209C752.544 661.353 752.86 640.873 753.141 621.019C753.386 606.127 753.597 592.035 758.541 581.865C763.346 572.007 774.183 563.224 785.686 553.922C801.363 541.218 817.565 528.098 821.914 509.179C826.088 490.99 817.46 472.593 809.113 454.787C802.941 441.665 796.593 428.128 796.593 416.5ZM411.514 740.46C231.036 740.46 84.1989 595.128 84.1989 416.5C84.1989 237.872 231.036 92.54 411.514 92.54C591.991 92.54 738.828 237.872 738.828 416.5C738.828 595.128 591.991 740.46 411.514 740.46Z" fill="black"/>
</svg>
