<svg width="810" height="784" viewBox="0 0 810 784" fill="none" xmlns="http://www.w3.org/2000/svg">
<path d="M553.951 484.937L753.274 361.111V133.116L553.951 256.873V484.937ZM590.68 300.569L623.559 278.57C626.475 276.624 629.02 273.019 630.286 269.072L644.392 224.607C647.589 214.547 657.142 209.914 660.646 216.712L676.108 246.839C677.489 249.498 680.111 250.595 683.052 249.704L716.149 239.685C723.63 237.368 726.827 247.306 721.584 256.516L698.194 297.156C696.071 300.816 695.163 305.024 695.789 308.409L702.107 346.733C703.603 355.3 695.917 366.142 689.216 365.004L659.304 359.96C656.618 359.521 653.485 361.043 650.863 364.058L621.641 397.804C615.093 405.37 607.151 402.108 608.315 392.253L613.149 348.515C613.635 344.581 612.599 341.333 610.387 339.77L585.935 322.335C580.449 318.333 583.237 305.49 590.68 300.569Z" fill="black"/>
<path d="M113.998 389.415H21.5999C9.69372 389.415 0 399.791 0 412.566V736.823C0 749.598 9.69372 759.987 21.5999 759.987H113.998C125.917 759.987 135.611 749.598 135.611 736.823V695.69C135.611 695.635 135.572 695.58 135.572 695.525L135.611 412.566C135.611 399.791 125.917 389.415 113.998 389.415ZM64.6722 718.374C52.7786 718.374 43.2512 708.067 43.2512 695.32C43.2512 682.572 52.7786 672.361 64.6722 672.361C76.5655 672.361 86.1825 682.572 86.1825 695.32C86.1825 708.067 76.5655 718.374 64.6722 718.374Z" fill="black"/>
<path d="M806.937 539.619C803.177 530.998 796.54 524.487 788.24 521.252C779.94 518.031 770.962 518.456 762.944 522.472L541.982 596.639C536.598 599.161 530.779 600.49 524.794 600.49H393.084C390.437 600.49 388.288 598.188 388.288 595.35C388.288 592.513 390.437 590.21 393.084 590.21H524.794C526.827 590.21 528.835 590.018 530.805 589.621C530.881 589.594 530.945 589.58 531.022 589.552L538.58 587.017C542.148 585.276 545.46 582.836 548.363 579.793C554.016 573.625 557.43 565.47 557.942 556.89C558.492 547.624 555.359 538.619 549.131 531.505C542.25 523.638 532.557 519.142 522.53 519.142H399.913C399.35 519.142 398.8 519.032 398.263 518.826L291.811 477.104C267.589 467.619 242.216 462.808 216.396 462.808H145.202V690.392H187.187C196.983 690.392 206.485 692.16 215.45 695.669L225.655 699.603L439.225 781.075C452.474 786.05 467.053 784.625 479.177 777.209L790.606 587.058C798.65 583.001 804.417 576.449 807.64 567.937C811.093 557.904 810.671 547.98 806.937 539.619Z" fill="black"/>
<path d="M549.236 247.911L550.31 247.253L748.368 124.017L549.312 0L349.81 124.017L549.236 247.911Z" fill="black"/>
<path d="M544.37 256.769L345.903 133.738L344.88 133.108V361.103L544.37 484.942V256.769ZM502.039 322.341L477.587 339.762C475.388 341.325 474.339 344.587 474.838 348.507L479.659 392.258C480.823 402.113 472.894 405.362 466.333 397.796L437.124 364.064C434.502 361.035 431.369 359.513 428.684 359.966L398.758 365.01C392.057 366.134 384.371 355.305 385.867 346.739L392.185 308.401C392.812 305.03 391.903 300.822 389.793 297.162L366.403 256.508C361.147 247.297 364.344 237.374 371.838 239.69L404.935 249.696C407.877 250.601 410.498 249.504 411.879 246.845L427.341 216.718C430.845 209.906 440.398 214.552 443.595 224.613L457.701 269.077C458.967 273.025 461.499 276.629 464.428 278.562L497.295 300.575C504.738 305.496 507.525 318.339 502.039 322.341Z" fill="black"/>
</svg>
