<svg width="815" height="804" viewBox="0 0 815 804" fill="none" xmlns="http://www.w3.org/2000/svg">
<path d="M476.132 710.059V759.992C625.405 732.063 742.079 616.964 770.39 469.705H719.774C693.179 589.882 597.953 683.823 476.132 710.059Z" fill="black"/>
<path d="M719.774 334.295H770.39C742.079 187.036 625.405 71.9368 476.132 44.0084V93.941C597.953 120.177 693.179 214.118 719.774 334.295Z" fill="black"/>
<path d="M338.868 93.941V44.0084C189.595 71.9368 72.9211 187.036 44.6105 334.295H95.2263C121.821 214.118 217.047 120.177 338.868 93.941Z" fill="black"/>
<path d="M95.2263 469.705H44.6105C72.9211 616.964 189.595 732.063 338.868 759.992V710.059C217.047 683.823 121.821 589.882 95.2263 469.705Z" fill="black"/>
<path d="M790.121 377.457H673.447C662.295 251.356 560.205 150.644 432.379 139.642V24.5432C432.379 11.0021 421.226 0 407.5 0C393.774 0 382.621 11.0021 382.621 24.5432V139.642C254.795 150.644 152.705 251.356 141.553 377.457H24.8789C11.1526 377.457 0 388.459 0 402C0 415.541 11.1526 426.543 24.8789 426.543H141.553C152.705 552.644 254.795 653.356 382.621 664.358V779.457C382.621 792.998 393.774 804 407.5 804C421.226 804 432.379 792.998 432.379 779.457V664.358C560.205 653.356 662.295 552.644 673.447 426.543H790.121C803.847 426.543 815 415.541 815 402C815 388.459 803.847 377.457 790.121 377.457ZM519.026 385.92L476.132 421.465C473.558 424.004 471.842 427.389 472.7 430.775L486.426 484.939C489.858 500.173 473.558 512.021 459.832 503.558L411.789 473.937C408.358 472.244 404.926 472.244 401.495 473.937L354.311 503.558C340.584 512.021 324.284 500.173 327.716 484.939L341.442 430.775C342.3 427.389 341.442 424.004 338.011 421.465L295.974 385.074C283.963 374.918 289.968 355.453 306.268 354.606L362.889 350.375C366.321 350.375 369.753 347.836 370.611 344.451L392.058 292.825C398.063 278.438 418.653 278.438 424.658 292.825L446.105 344.451C447.821 347.836 450.395 349.528 453.826 350.375L510.447 354.606C525.032 356.299 531.037 375.764 519.026 385.92Z" fill="black"/>
</svg>
