<svg width="707" height="684" viewBox="0 0 707 684" fill="none" xmlns="http://www.w3.org/2000/svg">
<path fill-rule="evenodd" clip-rule="evenodd" d="M219.61 684C36.5919 684 0 607.852 0 455.518V227.378C0 53.6346 61.1183 7.02556 183.018 0H475.783C597.678 6.64145 658.801 53.6278 658.801 227.378V406.31L640.446 370.507C611.533 314.208 531.678 314.208 502.769 370.507L483.393 408.256L442.143 415.623C381.213 426.425 356.804 501.388 399.531 546.539L429.504 578.257L423.411 621.808C420.118 645.435 427.271 666.809 440.478 682.688L439.191 683.986L219.61 684ZM630.86 462.661L654.172 466.821L690.956 473.348C706.207 476.058 712.3 494.799 701.629 506.098L658.676 551.48C654.588 555.832 652.696 561.786 653.529 567.703L662.233 630.033C664.428 645.606 648.344 657.286 634.38 650.224L580.263 622.895C574.813 620.147 568.38 620.147 562.93 622.895L508.813 650.224C498.255 655.568 486.447 650.186 482.284 640.453C480.96 637.361 480.43 633.811 480.96 630.033L489.664 567.703C490.496 561.786 488.604 555.832 484.517 551.48L441.564 506.098C432.216 496.212 435.736 480.638 446.938 475.066C448.565 474.303 450.306 473.692 452.236 473.348L512.332 462.66C514.906 462.202 517.328 461.248 519.447 459.874C522.285 458.042 524.594 455.485 526.183 452.431L554.378 397.506C556.194 393.994 558.805 391.322 561.795 389.567C568.115 385.864 576.176 386.055 582.307 390.177C584.918 391.895 587.189 394.338 588.816 397.506L617.01 452.431C618.032 454.454 619.432 456.248 621.022 457.775C623.746 460.294 627.114 462.012 630.86 462.661ZM135.633 197.878C135.633 181.695 148.652 168.564 164.698 168.564H329.395C345.441 168.564 358.46 181.695 358.46 197.878C358.46 214.062 345.441 227.192 329.395 227.192H164.698C148.652 227.192 135.633 214.062 135.633 197.878ZM164.698 315.134C148.652 315.134 135.633 328.264 135.633 344.448C135.633 360.631 148.652 373.762 164.698 373.762H271.267C287.312 373.762 300.331 360.631 300.331 344.448C300.331 328.264 287.312 315.134 271.267 315.134H164.698Z" fill="black"/>
</svg>
