<svg width="585" height="695" viewBox="0 0 585 695" fill="none" xmlns="http://www.w3.org/2000/svg">
<path d="M549.087 -1.38087e-05H99.0623C70.5072 -1.38087e-05 47.2588 24.0261 47.2588 53.5365V65.346C20.2013 67.9522 0 83.7523 0 103.463C0 123.172 20.2013 139 47.2588 141.606V196.337C20.2013 198.944 0 214.744 0 234.481C0 254.191 20.2013 270.019 47.2588 272.625V327.356C20.2013 329.962 0 345.762 0 365.5C0 385.209 20.2013 401.037 47.2588 403.616V458.348C20.2013 460.954 0 476.754 0 496.464C0 516.174 20.2013 532.002 47.2588 534.608V639.344C47.2588 670.022 71.4271 694.999 101.138 694.999H555.998C562.749 694.999 566.375 686.773 561.935 681.506C540.315 655.824 540.236 628.349 561.646 597.592C575.28 592.298 585 578.696 585 562.787V37.138C585.026 16.6411 568.895 -1.38087e-05 549.087 -1.38087e-05ZM205.587 464.427C205.587 456.336 211.944 449.739 219.772 449.739H359.787C367.616 449.739 373.999 456.336 373.999 464.427V510.769C373.999 518.86 367.616 525.43 359.787 525.43H219.799C211.971 525.43 205.614 518.86 205.614 510.769L205.587 464.427ZM284.451 255.169L204.195 172.228C179.002 146.193 179.002 103.814 204.195 77.7774C227.627 53.5609 264.694 51.8505 290.019 72.6464C315.369 51.8777 352.436 53.5881 375.844 77.7774C401.037 103.813 401.037 146.192 375.844 172.228L295.588 255.169C292.514 258.346 287.498 258.318 284.451 255.169ZM366.227 384.557C348.889 388.032 335.15 369.436 343.058 353.038L359.424 319.129C360.264 317.446 360.212 315.41 359.318 313.754L341.56 280.579C333.023 264.615 345.869 245.367 363.39 248.055L399.695 253.675C401.507 253.946 403.346 253.295 404.607 251.91L429.643 224.191C441.727 210.834 463.399 217.567 466.315 235.621L472.357 273.004C472.672 274.877 473.854 276.479 475.509 277.293L508.74 293.338C524.738 301.048 525.29 324.45 509.581 332.92L477.033 350.431C475.404 351.3 474.301 352.956 474.065 354.856L469.572 392.484C467.418 410.647 446.009 418.33 433.399 405.515L407.261 378.937C405.948 377.607 404.082 377.037 402.27 377.39L366.227 384.557ZM15.7661 103.492C15.7661 94.2079 28.3493 84.0269 47.2635 81.7466V125.238C28.3756 122.958 15.7661 112.75 15.7661 103.492ZM15.7661 234.486C15.7661 225.202 28.3493 215.02 47.2635 212.74V256.232C28.3756 253.951 15.7661 243.743 15.7661 234.486ZM15.7661 365.48C15.7661 356.195 28.3493 346.014 47.2635 343.734V387.225C28.3756 384.945 15.7661 374.737 15.7661 365.48ZM15.7661 496.473C15.7661 487.189 28.3493 477.008 47.2635 474.727V518.219C28.3756 515.939 15.7661 505.731 15.7661 496.473ZM63.0249 534.59C90.0824 531.984 110.284 516.183 110.284 496.446C110.284 491.939 106.764 488.301 102.403 488.301C98.0418 488.301 94.5215 491.939 94.5215 496.446C94.5215 505.731 81.9384 515.939 63.0242 518.192V403.573C90.0817 400.966 110.283 385.166 110.283 365.429C110.283 360.922 106.763 357.284 102.402 357.284C98.0412 357.284 94.5209 360.922 94.5209 365.429C94.5209 374.713 81.9377 384.922 63.0236 387.175V272.555C90.081 269.949 110.282 254.149 110.282 234.412C110.282 229.905 106.762 226.267 102.401 226.267C98.0405 226.267 94.5202 229.905 94.5202 234.412C94.5202 243.696 81.937 253.904 63.0229 256.158V141.538C90.0803 138.932 110.282 123.132 110.282 103.394C110.282 98.8878 106.761 95.2497 102.401 95.2497C98.0398 95.2497 94.5195 98.8876 94.5195 103.394C94.5195 112.679 81.9363 122.887 63.0222 125.14V53.4441C63.0222 33.0014 79.204 16.3047 99.0643 16.3047H121.315V583.654H101.14C86.2451 583.654 72.7681 589.898 63.0222 600.025L63.0249 534.59ZM540.448 678.719H101.142C80.1266 678.719 63.0249 661.045 63.0249 639.326C63.0249 617.608 80.1266 599.934 101.142 599.934H541.477C527.029 626.268 525.264 652.982 540.448 678.719ZM364.703 160.728L290.021 237.887L215.36 160.708C196.289 141.025 196.289 108.99 215.36 89.3103C234.405 69.6008 265.43 69.6279 284.446 89.3103C287.52 92.4866 292.511 92.4866 295.584 89.3103C314.63 69.6008 345.628 69.6008 364.67 89.3103C383.742 108.993 383.742 141.055 364.697 160.735L364.703 160.728ZM399.247 361.382L363.231 368.577C358.66 369.5 355.088 364.613 357.163 360.323L373.529 326.388C376.681 319.872 376.524 312.216 373.109 305.837L355.351 272.662C353.118 268.454 356.48 263.431 361.077 264.137L397.356 269.756C404.29 270.815 411.331 268.29 416.112 262.997L441.148 235.278C444.274 231.803 449.974 233.459 450.762 238.264L456.804 275.648C457.96 282.814 462.452 288.923 468.836 291.991L502.067 308.036C506.27 310.045 506.428 316.181 502.277 318.407L469.756 335.971C463.504 339.311 459.3 345.636 458.433 352.831L453.941 390.459C453.363 395.237 447.768 397.219 444.458 393.879L418.293 367.301C413.302 362.252 406.234 359.97 399.247 361.382Z" fill="black"/>
</svg>
