<svg width="824" height="826" viewBox="0 0 824 826" fill="none" xmlns="http://www.w3.org/2000/svg">
<path fill-rule="evenodd" clip-rule="evenodd" d="M414.981 826C329.186 826 249.582 799.265 183.803 753.679L33.3837 772.356C8.39714 775.55 -5.60041 758.488 2.12551 734.296L46.7359 592.93C20.6223 538.534 5.96121 477.501 5.96121 413C5.96121 184.896 189.084 0 414.981 0C640.877 0 824 184.905 824 413C824 641.095 640.877 826 414.981 826ZM672.308 343.818L538.577 295.589L487.168 159.335C477.433 133.298 453.946 128.351 434.713 148.267L332.831 253.096L197.591 243.67C170.105 241.669 155.799 261.117 165.642 287.108L222.914 439.836L179.613 577.016C171.16 603.503 186.475 622.162 213.816 618.665L371.77 599.043L508.728 680.89C532.405 695.134 553.838 684.24 556.601 656.56L571.326 513.331L684.361 396.535C703.694 376.702 698.286 353.097 672.308 343.818Z" fill="black"/>
</svg>
