<svg width="827" height="825" viewBox="0 0 827 825" fill="none" xmlns="http://www.w3.org/2000/svg">
<path d="M413.502 682.522C559.535 682.522 678.336 561.394 678.336 412.5C678.336 263.606 559.535 142.479 413.502 142.479C267.469 142.479 148.668 263.606 148.668 412.5C148.668 561.394 267.469 682.522 413.502 682.522ZM252.286 359.981C254.24 353.871 259.409 349.425 265.643 348.503L357.566 334.867L398.674 249.937C404.231 238.409 422.774 238.409 428.33 249.937L469.454 334.867L561.377 348.503C567.612 349.425 572.78 353.871 574.735 359.981C576.673 366.075 575.058 372.778 570.551 377.257L504.02 443.379L519.72 536.707C520.786 543.031 518.234 549.421 513.146 553.193C510.271 555.334 506.846 556.421 503.422 556.421C500.789 556.421 498.14 555.778 495.734 554.477L413.502 510.423L331.27 554.477C325.746 557.475 318.946 556.981 313.858 553.193C308.77 549.421 306.218 543.031 307.284 536.707L323 443.363L256.469 377.257C251.962 372.778 250.347 366.075 252.286 359.981Z" fill="black"/>
<path d="M40.0265 499.349C42.1768 509.131 40.3576 521.947 38.2074 535.438C35.2303 554.664 31.9221 576.418 40.8543 595.474C50.1167 614.868 68.9715 625.829 85.8426 635.442C97.2553 642.188 108.171 648.427 114.126 656.016C120.081 663.605 123.719 675.747 127.524 688.733C132.981 707.451 139.267 728.7 155.642 742.022C172.016 755.345 193.684 756.863 212.704 758.212C226.102 759.224 238.507 760.067 247.273 764.452C255.709 768.499 263.979 777.774 272.91 787.724C285.976 802.227 300.697 818.753 321.538 823.644C325.673 824.656 329.808 824.993 333.943 824.993C349.49 824.993 364.377 818.922 379.097 812.851C391.667 807.792 403.411 802.901 413.5 802.901C423.589 802.901 435.333 807.792 447.903 812.851C466.428 820.44 485.449 828.197 505.462 823.644C526.303 818.753 541.024 802.227 554.09 787.724C563.021 777.774 571.291 768.499 579.727 764.452C588.493 760.067 600.898 759.224 614.296 758.212C633.316 756.863 654.984 755.344 671.359 742.191C687.733 728.869 694.019 707.62 699.476 688.733C703.281 675.916 706.919 663.605 712.874 656.016C718.829 648.427 729.745 642.188 741.157 635.442C758.028 625.829 776.884 614.868 786.147 595.474C795.078 576.418 791.77 554.664 788.793 535.438C786.808 521.947 784.823 509.131 786.973 499.349C788.958 490.243 796.07 479.956 803.348 469.163C814.429 452.805 827 434.423 827 412.5C827 390.577 814.429 372.195 803.348 355.837C795.905 345.044 788.958 334.757 786.973 325.65C784.823 315.869 786.808 303.053 788.793 289.561C791.77 270.337 795.078 248.582 786.147 229.525C777.049 210.132 758.028 199.17 741.157 189.558C729.745 182.813 718.829 176.573 712.874 168.984C706.919 161.395 703.281 149.253 699.476 136.268C694.019 117.549 687.733 96.3003 671.359 82.9771C654.984 69.6549 633.482 68.1367 614.296 66.7883C601.064 65.7765 588.493 64.9335 579.727 60.5487C571.291 56.5015 563.021 47.2255 554.09 37.2763C541.024 22.7735 526.303 6.24609 505.462 1.3559C485.449 -3.19771 466.428 4.5601 447.903 12.1491C435.333 17.2081 423.589 22.0983 413.5 22.0983C403.411 22.0983 391.667 17.2081 379.097 12.1491C360.572 4.5601 341.551 -3.19771 321.538 1.3559C300.697 6.24608 285.976 22.7735 272.91 37.2763C263.979 47.2255 255.709 56.5015 247.273 60.5487C238.507 64.9335 226.102 65.7765 212.704 66.7883C193.684 68.1367 172.016 69.6549 155.642 82.8093C139.267 96.1315 132.981 117.38 127.524 136.268C123.719 149.085 120.081 161.395 114.126 168.984C108.171 176.573 97.2553 182.813 85.8426 189.558C69.1371 199.17 50.1167 210.132 40.8543 229.525C31.9221 248.582 35.2303 270.337 38.2074 289.561C40.3576 303.053 42.1768 315.869 40.0265 325.65C38.0418 334.757 31.0953 345.044 23.6521 355.837C12.5706 372.195 0 390.577 0 412.5C0 434.423 12.5706 452.805 23.6521 469.163C31.0953 479.956 38.0418 490.243 40.0265 499.349ZM413.5 108.779C577.742 108.779 711.386 245.041 711.386 412.5C711.386 579.96 577.742 716.221 413.5 716.221C249.258 716.221 115.614 579.96 115.614 412.5C115.614 245.041 249.258 108.779 413.5 108.779Z" fill="black"/>
</svg>
