<svg width="814" height="796" viewBox="0 0 814 796" fill="none" xmlns="http://www.w3.org/2000/svg">
<path d="M766.541 265.689L712.281 236.988V340.772L791.915 286.126C784.818 277.899 776.423 270.896 766.54 265.73L766.541 265.689Z" fill="black"/>
<path d="M2.93809 322.361C1.03026 329.556 0 337.018 0 344.748V706.609C0 719.314 2.70912 731.329 7.51694 742.274L311.172 533.904L2.93809 322.361Z" fill="black"/>
<path d="M383.94 533.445L32.2056 774.8C47.697 787.81 67.3868 796 89.1357 796H724.871C746.621 796 766.309 787.849 781.801 774.8L430.106 533.484C416.026 523.764 397.901 523.803 383.859 533.446L383.94 533.445Z" fill="black"/>
<path d="M811.103 322.361L502.828 533.905L806.483 742.275C811.253 731.331 814 719.276 814 706.611V344.75C814 337.02 812.935 329.518 811.103 322.361Z" fill="black"/>
<path d="M101.765 236.986L47.5437 265.648C37.585 270.852 29.114 277.893 22.0926 286.044L101.764 340.728L101.765 236.986Z" fill="black"/>
<path d="M630.89 0.0392296H183.154C160.679 0.0392296 142.44 18.2929 142.44 40.8707V368.669L347.191 509.189L360.889 499.775C388.897 480.527 425.108 480.527 453.153 499.814L466.813 509.189L671.565 368.669V40.8315C671.565 18.2919 653.363 0 630.851 0L630.89 0.0392296ZM157.854 178.824C159.571 167.688 169.95 159.996 181.054 161.757L211.236 166.425C222.339 168.109 229.971 178.556 228.254 189.692C226.689 199.756 218.027 206.988 208.183 206.988C207.153 206.988 206.122 206.912 205.092 206.759L174.91 202.09C163.807 200.406 156.175 189.959 157.892 178.824L157.854 178.824ZM233.138 283.029L200.743 292.863C198.758 293.437 196.812 293.743 194.866 293.743C186.128 293.743 178.039 288.042 175.406 279.24C172.163 268.448 178.23 257.083 188.99 253.792L221.385 243.957C232.184 240.666 243.478 246.789 246.76 257.58C250.003 268.372 243.936 279.736 233.176 283.028L233.138 283.029ZM266.22 130.459C262.29 136.237 255.879 139.375 249.392 139.375C245.462 139.375 241.455 138.227 237.945 135.855L209.975 116.76C200.665 110.407 198.261 97.7026 204.595 88.4038C210.891 79.0666 223.597 76.6559 232.869 83.0081L260.839 102.103C270.149 108.456 272.554 121.16 266.22 130.459ZM524.96 182.158L482.797 230.221L488.749 293.974C489.932 306.565 477.226 315.825 465.626 310.812L407.017 285.442L348.369 310.812C336.808 315.825 324.101 306.565 325.284 293.974L331.237 230.221L289.073 182.158C280.755 172.667 285.601 157.705 297.887 154.912L360.198 140.906L392.746 85.8393C399.194 74.9711 414.876 74.9711 421.325 85.8393L453.873 140.906L516.184 154.912C528.508 157.705 533.354 172.668 524.998 182.158H524.96ZM547.816 130.459C541.482 121.122 543.886 108.455 553.196 102.103L581.165 83.0081C590.476 76.6557 603.106 79.1048 609.439 88.4038C615.774 97.741 613.37 110.408 604.059 116.76L576.09 135.855C572.58 138.227 568.611 139.375 564.643 139.375C558.118 139.375 551.747 136.238 547.816 130.459ZM638.63 279.208C635.997 288.048 627.907 293.712 619.17 293.712C617.224 293.712 615.278 293.444 613.294 292.832L580.898 282.997C570.138 279.744 564.033 268.34 567.315 257.549C570.558 246.757 581.891 240.634 592.69 243.926L625.085 253.76C635.845 257.013 641.951 268.417 638.669 279.209L638.63 279.208ZM639.126 202.099L608.944 206.768C607.914 206.921 606.846 206.998 605.853 206.998C595.971 206.998 587.31 199.765 585.783 189.701C584.066 178.565 591.697 168.118 602.801 166.434L632.983 161.766C644.01 160.006 654.465 167.736 656.182 178.833C657.899 189.969 650.268 200.416 639.164 202.1L639.126 202.099Z" fill="black"/>
</svg>
