<svg width="751" height="822" viewBox="0 0 751 822" fill="none" xmlns="http://www.w3.org/2000/svg">
<path fill-rule="evenodd" clip-rule="evenodd" d="M163.767 238.572C163.767 238.572 178.306 217.918 194.113 195.454C205.836 178.847 207.771 156.305 199.076 137.578C190.416 118.852 172.638 107.253 153.488 107.793H153.382C146.13 107.985 139.406 103.708 135.991 96.6954C132.541 89.721 132.999 81.1669 137.188 74.6929L164.295 32.3452C170.244 23.0588 168.167 10.2274 159.683 3.7159C151.199 -2.79616 139.476 -0.522723 133.562 8.76368C133.562 8.76368 120.995 28.4155 106.456 51.1114C94.1694 70.339 92.7968 95.4625 102.935 116.116C113.074 136.769 132.964 149.446 154.368 148.868H154.473C159.155 148.753 163.52 151.565 165.633 156.189C167.78 160.775 167.287 166.285 164.401 170.408L134.055 213.526C127.718 222.543 129.232 235.451 137.47 242.349C145.672 249.284 157.501 247.628 163.802 238.611L163.767 238.572Z" fill="black"/>
<path fill-rule="evenodd" clip-rule="evenodd" d="M398.434 238.572C398.434 238.572 412.973 217.919 428.78 195.454C440.503 178.847 442.439 156.305 433.744 137.578C425.083 118.852 407.306 107.253 388.155 107.793H388.049C380.797 107.985 374.073 103.708 370.658 96.6954C367.208 89.721 367.666 81.1669 371.855 74.693L398.962 32.3453C404.911 23.0589 402.834 10.2274 394.35 3.71594C385.866 -2.79552 374.143 -0.522679 368.23 8.76373C368.23 8.76373 355.662 28.4155 341.123 51.1114C328.837 70.339 327.464 95.4625 337.602 116.116C347.741 136.769 367.631 149.446 389.035 148.868H389.14C393.822 148.753 398.188 151.565 400.3 156.189C402.448 160.775 401.955 166.285 399.068 170.408L368.722 213.526C362.386 222.543 363.899 235.452 372.137 242.349C380.34 249.285 392.168 247.628 398.47 238.611L398.434 238.572Z" fill="black"/>
<path fill-rule="evenodd" clip-rule="evenodd" d="M633.137 238.572C633.137 238.572 647.677 217.918 663.483 195.454C675.206 178.847 677.142 156.305 668.447 137.578C659.787 118.852 642.009 107.253 622.858 107.793H622.752C615.5 107.985 608.776 103.708 605.362 96.6954C601.912 89.721 602.369 81.1669 606.558 74.6929L633.665 32.3452C639.615 23.0588 637.538 10.2274 629.053 3.7159C620.569 -2.79616 608.846 -0.522723 602.933 8.76368C602.933 8.76368 590.365 28.4155 575.826 51.1114C563.54 70.339 562.167 95.4625 572.306 116.116C582.444 136.769 602.334 149.446 623.738 148.868H623.844C628.526 148.753 632.891 151.565 635.003 156.189C637.151 160.775 636.658 166.285 633.771 170.408L603.425 213.526C597.089 222.543 598.603 235.451 606.84 242.349C615.043 249.284 626.872 247.628 633.173 238.611L633.137 238.572Z" fill="black"/>
<path fill-rule="evenodd" clip-rule="evenodd" d="M582.021 822C582.021 822 600.573 822 600.362 801.462C600.151 780.925 582.021 780.925 582.021 780.925H187.739C177.39 780.925 168.976 790.134 168.976 801.462C168.976 812.791 177.39 822 187.739 822H582.021Z" fill="black"/>
<path fill-rule="evenodd" clip-rule="evenodd" d="M750.998 420.955L705.727 458.177C676.825 481.952 637.044 481.874 608.179 458.023L608.144 457.984C592.831 445.306 571.708 445.23 556.324 457.753L552.522 460.874C525.345 482.915 488.733 484.842 459.724 465.768L455.288 462.839C429.273 445.692 396.745 445.654 370.694 462.762L365.836 465.96C336.899 484.957 300.357 482.954 273.317 460.836C272.156 459.872 270.994 458.947 269.867 458.023C254.413 445.345 233.15 445.423 217.695 458.1L217.554 458.215C188.652 481.99 148.872 481.912 120.007 458.061C119.972 458.023 119.972 458.023 119.972 458.023C104.658 445.345 83.5356 445.268 68.1519 457.791L5.03176 509.078C15.1001 564.218 39.8484 615.386 76.7414 655.732C125.921 709.561 192.593 739.809 262.157 739.809H488.732C558.258 739.809 624.968 709.561 674.147 655.732C723.327 601.902 750.962 528.925 750.962 452.782V420.954L750.998 420.955ZM0.106428 461.876L45.8007 424.769C74.5972 401.38 114.025 401.572 142.645 425.232L142.68 425.27C158.134 438.063 179.503 438.102 195.028 425.347L195.169 425.232C223.931 401.573 263.499 401.496 292.329 425.077C293.491 426.041 294.653 426.966 295.814 427.929C310.635 440.028 330.666 441.145 346.543 430.742L351.401 427.544C389.35 402.613 436.77 402.69 474.687 427.659L479.123 430.588C495.07 441.107 515.242 440.028 530.168 427.89L533.97 424.769C562.767 401.38 602.195 401.572 630.815 425.232L630.85 425.27C646.304 438.063 667.673 438.102 683.198 425.347L751 369.552V349.323C751 332.946 745.05 317.302 734.49 305.742C723.928 294.182 709.601 287.67 694.674 287.67H56.3259C41.3639 287.67 27.0716 294.182 16.5102 305.742C5.94891 317.301 0 332.984 0 349.323V452.78C0 455.824 0.0352019 458.83 0.140806 461.874L0.106428 461.876Z" fill="black"/>
</svg>
