<svg width="685" height="816" viewBox="0 0 685 816" fill="none" xmlns="http://www.w3.org/2000/svg">
<path d="M645.697 712.485L203.814 814.836C176.991 820.892 150.4 802.724 144.505 774.037L130.763 706.429H336.534C355.509 706.429 374.02 698.283 387.332 684.045L552.344 507.322C565.856 492.872 573.505 473.748 573.505 453.243L573.538 149.2C580.724 156.212 585.956 165.527 588.142 176.47L683.843 649.058C689.737 677.745 672.52 706.181 645.697 712.485ZM368.199 515.471V670.979C369.49 669.81 370.815 668.642 371.908 667.473L537.149 490.75C538.241 489.581 539.334 488.412 540.195 487.031H394.791C380.187 487.031 368.199 499.605 368.199 515.471ZM336.574 683.128H49.9368C22.2531 683.128 0 659.364 0 629.721V146.398C0 117.038 22.2201 92.9915 49.9368 92.9915H130.803C134.512 106.733 141.699 119.34 151.5 129.824C167.197 146.859 188.357 156.173 210.809 156.173C218.657 156.173 226.273 155.004 233.492 152.667L247.235 167.576C255.083 175.722 265.316 180.397 276.244 180.397C287.139 180.397 297.603 175.722 305.253 167.576C321.379 150.329 321.379 122.563 305.253 105.315L293.695 92.9551H501.891C529.344 92.9551 551.828 116.967 551.828 146.362V453.17C551.828 456.676 551.398 460.147 550.967 463.653H394.899C368.308 463.653 346.518 486.744 346.518 515.395V682.1C343.24 682.56 339.995 683.02 336.717 683.02L336.574 683.128ZM79.5738 259.943C79.5738 266.459 84.3754 271.595 90.4689 271.595H461.286C467.181 271.595 472.181 266.46 472.181 259.943C472.181 253.639 467.181 248.291 461.286 248.291H90.4689C84.3758 248.291 79.5738 253.638 79.5738 259.943ZM79.5738 388.188C79.5738 394.492 84.3754 399.84 90.4689 399.84H461.286C467.181 399.84 472.181 394.492 472.181 388.188C472.181 381.671 467.181 376.535 461.286 376.535H90.4689C84.3758 376.535 79.5738 381.671 79.5738 388.188ZM265.084 516.179C265.084 509.875 260.283 504.526 254.189 504.526H90.474C84.3808 504.526 79.5788 509.874 79.5788 516.179C79.5788 522.695 84.3805 527.831 90.474 527.831H254.189C260.282 527.831 265.084 522.695 265.084 516.179ZM238.725 125.469L262.633 151.039C270.15 159.079 282.336 159.079 289.853 151.039C297.37 143 297.37 129.967 289.853 121.928L265.945 96.3579C277.733 71.4252 274.19 40.33 254.719 19.47C230.446 -6.48999 191.139 -6.48999 166.868 19.47C142.597 45.4299 142.595 87.4683 166.868 113.425C186.34 134.25 215.447 138.075 238.76 125.431L238.725 125.469Z" fill="black"/>
</svg>
