<svg width="715" height="740" viewBox="0 0 715 740" fill="none" xmlns="http://www.w3.org/2000/svg">
<path d="M618.013 642.001C610.793 682.995 588.821 718.392 559 740C619.546 739.629 673.75 702.045 699 644.743C662.832 651.118 653.169 650.081 618.013 642.001Z" fill="black"/>
<path d="M468.448 61C482.606 61 494 49.7536 494 36C494 22.2096 482.605 11 468.448 11C454.395 11 443 22.2464 443 36C443 49.7904 454.395 61 468.448 61Z" fill="black"/>
<path d="M677.238 108.002H542.167C533.922 133.325 504.609 151.56 468.379 151.56C432.254 151.56 402.733 133.325 394.697 108.002H259.733C238.91 108.002 222 125.868 222 147.869V700.133C222 722.133 238.909 740 259.733 740H513.374C559.351 729.701 595.651 684.334 601.834 629.256C602.184 626.525 603.616 623.867 605.782 622.28C607.914 620.581 610.604 620.102 613.189 620.655C658.992 631.139 662.66 631.914 708.013 623.313C712.589 607.81 715 591.567 715 574.919L714.965 147.867C714.965 125.867 698.061 108.002 677.238 108.002ZM394.422 202.317H542.525C547.695 202.317 551.923 206.747 551.923 212.247C551.923 217.71 547.73 222.177 542.525 222.177L394.422 222.14C389.251 222.14 385.024 217.71 385.024 212.21C385.024 206.747 389.216 202.317 394.422 202.317ZM542.525 645.689H394.422C389.251 645.689 385.024 641.333 385.024 635.759C385.024 630.296 389.216 625.829 394.422 625.829H542.525C547.695 625.829 551.923 630.258 551.923 635.759C551.923 641.333 547.73 645.689 542.525 645.689ZM627.771 539.859H309.108C303.937 539.859 299.709 535.429 299.709 529.929C299.709 524.355 303.902 519.999 309.108 519.999H627.771C632.942 519.999 637.169 524.355 637.169 529.929C637.239 535.429 632.942 539.859 627.771 539.859ZM627.771 433.916H309.108C303.937 433.916 299.709 429.486 299.709 423.986C299.709 418.523 303.902 414.056 309.108 414.056H627.771C632.942 414.056 637.169 418.486 637.169 423.986C637.169 429.486 632.942 433.916 627.771 433.916ZM627.771 328.086H309.108C303.937 328.086 299.709 323.656 299.709 318.156C299.709 312.582 303.902 308.226 309.108 308.226H627.771C632.942 308.226 637.169 312.582 637.169 318.156C637.239 323.656 632.942 328.086 627.771 328.086Z" fill="black"/>
<path d="M203.367 147.852C203.367 114.968 228.621 88.063 259.873 88.063H392.734C393.99 78.9101 397.826 70.3108 404 62.7447L193.356 1.44209C173.369 -4.42607 152.476 8.15919 147 29.3067L1.4418 586.56C-1.48811 597.41 0.116324 608.667 5.62745 618.227C11.2432 627.859 20.1029 634.207 30.5324 636.459L203.334 672L203.367 147.852Z" fill="black"/>
<path d="M411.49 97.9448C414.538 116.807 439.478 132 468.518 132C497.662 132 522.497 116.806 525.65 97.9448V97.7596C525.93 96.4255 526 95.2767 526 93.9797C526 82.3064 517.488 71.2269 503.477 64C495.21 74.3385 482.67 81.2685 468.412 81.2685C454.261 81.2685 441.685 74.3388 433.524 64C431.737 64.8523 430.126 65.8158 428.585 66.7422C428.48 66.8534 428.41 66.9275 428.304 66.9275C417.446 74.1537 411 83.8251 411 93.8677C411 95.2017 411.105 96.3505 411.28 97.6475C411.385 97.7587 411.49 97.8337 411.49 97.9448Z" fill="black"/>
</svg>
