<svg width="793" height="822" viewBox="0 0 793 822" fill="none" xmlns="http://www.w3.org/2000/svg">
<path fill-rule="evenodd" clip-rule="evenodd" d="M564.958 729.484V606.68C564.958 580.634 576.111 557.015 594.076 539.854C612.041 522.692 636.854 512.095 664.176 512.095H792.995V68.075C792.995 49.379 784.948 32.3601 771.999 20.0158C759.049 7.67055 741.197 0 721.586 0H71.4156C51.8039 0 33.9512 7.67091 21.0023 20.0158C8.05232 32.361 0.00604213 49.379 0.00604213 68.075V661.414C0.00604213 680.11 8.0527 697.129 21.0023 709.474C33.9522 721.819 51.8039 729.489 71.4156 729.489L564.958 729.484ZM396.502 42.8795C422.4 42.8795 443.359 62.8952 443.359 87.5491C443.359 112.239 422.363 132.219 396.502 132.219C370.603 132.219 349.644 112.203 349.644 87.5491C349.644 62.8596 370.64 42.8795 396.502 42.8795ZM101.621 240.681C93.9488 240.681 87.6988 234.758 87.6988 227.408C87.6988 220.094 93.9117 214.136 101.621 214.136H691.391C699.064 214.136 705.314 220.059 705.314 227.408C705.314 234.722 699.101 240.681 691.391 240.681H101.621ZM101.621 370.8C93.9488 370.8 87.6988 364.878 87.6988 357.528C87.6988 350.214 93.9117 344.256 101.621 344.256H691.391C699.064 344.256 705.314 350.179 705.314 357.528C705.314 364.842 699.101 370.8 691.391 370.8H101.621ZM101.621 500.884C93.9488 500.884 87.6988 494.961 87.6988 487.611C87.6988 480.297 93.9117 474.339 101.621 474.339H540.258C547.93 474.339 554.18 480.262 554.18 487.611C554.18 494.926 547.967 500.884 540.258 500.884H101.621Z" fill="black"/>
<path fill-rule="evenodd" clip-rule="evenodd" d="M793 571.287C770.731 602.435 745.805 631.156 718.259 657.451C679.71 694.2 635.845 726.276 586.738 753.676C584.492 755.139 581.798 755.995 578.916 755.995H71.4098C44.088 755.995 19.312 745.362 1.30995 728.236C0.860828 727.808 0.411704 727.38 0 726.952V753.925C0 772.621 8.04667 789.64 20.9962 801.984C33.9462 814.329 51.7978 822 71.4096 822H721.541C741.153 822 759.006 814.329 771.955 801.984C784.904 789.639 792.951 772.621 792.951 753.925V571.322L793 571.287Z" fill="black"/>
<path fill-rule="evenodd" clip-rule="evenodd" d="M592.763 719.208C631.649 695.732 666.905 668.901 698.568 638.717C730.156 608.604 758.075 575.245 782.291 538.602H664.174C644.562 538.602 626.71 546.273 613.761 558.617C600.811 570.963 592.764 587.981 592.764 606.677L592.763 719.208Z" fill="black"/>
</svg>
