<svg width="782" height="783" viewBox="0 0 782 783" fill="none" xmlns="http://www.w3.org/2000/svg">
<path fill-rule="evenodd" clip-rule="evenodd" d="M0 118.057C0 52.8322 52.3871 0 116.995 0H497.186C561.791 0 614.141 52.8371 614.141 118.057V158.202L693.027 177.854C755.761 193.491 794.059 257.454 778.556 320.771L687.414 693.237C671.95 756.511 608.528 795.164 545.836 779.528L176.72 687.579C139.109 678.212 110.281 651.449 96.5741 617.957C41.7052 608.208 0.00977875 559.843 0.00977875 501.691L0 118.057ZM443.307 619.748H142.008C152.432 634.008 167.667 644.79 186.033 649.378L555.149 741.327C596.959 751.765 639.228 725.996 649.576 683.787L740.718 311.322C751.027 269.151 725.483 226.483 683.673 216.046L614.142 198.727V447.311C614.142 452.549 612.118 457.519 608.453 461.228L457.1 613.963C453.434 617.633 448.47 619.736 443.315 619.736L443.307 619.748ZM547.584 462.345H536.167C493.098 462.345 458.198 497.557 458.198 541.028V552.574L547.584 462.345ZM302.217 88.548C269.915 88.548 243.721 114.967 243.721 147.579C243.721 180.153 269.915 206.571 302.217 206.571C334.52 206.571 360.676 180.153 360.676 147.579C360.676 114.967 334.52 88.548 302.217 88.548Z" fill="black"/>
</svg>
