<svg width="690" height="829" viewBox="0 0 690 829" fill="none" xmlns="http://www.w3.org/2000/svg">
<path d="M9.19703 158.895C113.839 292.835 519.155 277.994 644.481 193.904C675.778 173.699 702.559 141.603 683.36 103.407C652.649 43.8391 514.983 0.00427128 345.018 0.00427128C179.394 -0.539717 -43.2609 50.8698 9.19703 158.895Z" fill="black"/>
<path d="M644.481 240.801C497.607 318.747 192.363 318.747 45.4896 240.801C28.014 231.164 13.5719 221.644 0.0952085 208.433V256.732C6.71311 427.08 683.495 426.921 689.875 256.732V208.433C676.398 221.605 661.955 231.165 644.481 240.801Z" fill="black"/>
<path d="M344.99 426.696C325.377 426.735 305.937 425.997 286.497 425.064L305.385 716.222C308.315 769.844 381.698 769.805 384.559 716.416L403.276 425.069C383.905 426.041 364.361 426.735 344.99 426.696Z" fill="black"/>
<path d="M578.752 395.571C543.663 406.568 505.748 413.756 466.521 419.312L616.906 802.592C635.208 851.513 701.422 826.333 688.289 774.731L578.785 395.57L578.752 395.571Z" fill="black"/>
<path d="M119.981 398.058C117.085 397.242 114.156 396.426 111.26 395.61L1.54426 775.01C-10.8639 826.418 55.039 851.674 72.9276 802.637L223.657 419.357C187.948 414.344 151.515 407.583 119.941 398.064L119.981 398.058Z" fill="black"/>
</svg>
