<svg width="781" height="840" viewBox="0 0 781 840" fill="none" xmlns="http://www.w3.org/2000/svg">
<path d="M776.964 288.59L679.86 170.705C672.554 161.775 663.606 154.634 653.601 149.752C643.596 144.869 632.761 142.354 621.805 142.373H533.683V113.898H546.699C557.047 113.865 566.962 109.354 574.278 101.352C581.595 93.3488 585.719 82.5041 585.749 71.1864V42.7119C585.719 31.3941 581.595 20.5494 574.279 12.5465C566.962 4.5436 557.047 0.0330161 546.699 0H234.3C223.953 0.0330161 214.038 4.5436 206.721 12.5465C199.404 20.5494 195.28 31.3941 195.25 42.7119V71.1864C195.281 82.5041 199.405 93.3488 206.721 101.352C214.038 109.354 223.953 113.865 234.3 113.898H247.317V142.373H159.194C148.239 142.354 137.403 144.869 127.398 149.752C117.394 154.634 108.445 161.775 101.14 170.705L4.03594 288.59C1.49319 291.339 0.0431424 295.073 0 298.983V387.397C0.0352498 404.834 5.08144 421.818 14.4249 435.947C23.7684 450.075 36.9364 460.634 52.0665 466.129V726.102C38.3383 726.236 25.2142 732.296 15.5501 742.961C5.88605 753.627 0.464193 768.036 0.464399 783.052C0.464604 798.068 5.88686 812.476 15.5512 823.142C25.2156 833.807 38.3399 839.866 52.0681 840H728.933C742.662 839.866 755.786 833.807 765.45 823.141C775.114 812.476 780.536 798.067 780.536 783.051C780.536 768.035 775.114 753.626 765.45 742.961C755.786 732.295 742.662 726.236 728.933 726.102V466.129C744.064 460.634 757.232 450.075 766.575 435.947C775.919 421.818 780.965 404.834 781 387.397V298.983C780.902 295.086 779.46 291.373 776.964 288.59ZM529.387 313.22H629.097V387.397C628.978 401.774 623.673 415.518 614.336 425.639C604.999 435.759 592.386 441.437 579.241 441.437C566.096 441.437 553.483 435.758 544.146 425.637C534.81 415.516 529.505 401.772 529.387 387.394V313.22ZM273.351 113.898H507.651V142.373H273.351V113.898ZM377.484 313.22V387.397C377.348 401.779 372.029 415.523 362.682 425.641C353.335 435.759 340.716 441.434 327.565 441.434C314.415 441.433 301.795 435.758 292.449 425.639C283.102 415.521 277.783 401.778 277.648 387.395V313.22H377.484ZM26.0351 387.397V313.22H125.872V387.397C125.732 401.777 120.412 415.517 111.066 425.632C101.719 435.747 89.1017 441.421 75.9534 441.421C62.8051 441.421 50.1877 435.747 40.8413 425.632C31.495 415.517 26.1743 401.777 26.0351 387.397ZM702.9 726.102H273.351V541.017C273.321 529.699 269.197 518.854 261.88 510.852C254.564 502.849 244.649 498.338 234.301 498.305H156.201C145.854 498.338 135.939 502.849 128.622 510.852C121.306 518.854 117.182 529.699 117.152 541.017V726.102H78.1016V470.258C90.1507 469.892 101.947 466.396 112.517 460.059C123.087 453.721 132.126 444.724 138.888 433.81C145.922 444.931 155.317 454.019 166.268 460.297C177.218 466.574 189.396 469.854 201.76 469.854C214.123 469.854 226.301 466.574 237.252 460.297C248.202 454.019 257.597 444.931 264.631 433.81C271.679 444.932 281.085 454.021 292.046 460.298C303.006 466.575 315.194 469.854 327.566 469.854C339.938 469.854 352.126 466.575 363.086 460.298C374.047 454.021 383.453 444.932 390.501 433.81C397.548 444.932 406.955 454.021 417.915 460.298C428.876 466.575 441.064 469.854 453.436 469.854C465.808 469.854 477.996 466.575 488.956 460.298C499.916 454.021 509.323 444.932 516.371 433.81C523.405 444.931 532.8 454.019 543.75 460.297C554.7 466.574 566.879 469.854 579.242 469.854C591.605 469.854 603.784 466.574 614.734 460.297C625.684 454.019 635.079 444.931 642.113 433.81C648.876 444.724 657.915 453.721 668.485 460.059C679.054 466.396 690.851 469.892 702.9 470.258V726.102Z" fill="black"/>
<path d="M624.8 498.305H351.451C341.104 498.338 331.189 502.849 323.872 510.852C316.555 518.854 312.431 529.699 312.401 541.017V640.678C312.432 651.996 316.555 662.84 323.872 670.843C331.189 678.846 341.104 683.357 351.451 683.39H624.8C635.148 683.357 645.063 678.846 652.379 670.843C659.696 662.84 663.82 651.996 663.85 640.678V541.017C663.82 529.699 659.696 518.854 652.38 510.852C645.063 502.849 635.148 498.338 624.8 498.305ZM442.568 654.915H416.534V526.78H442.568V654.915ZM559.717 654.915H533.684V526.78H559.717V654.915Z" fill="black"/>
</svg>
