<svg width="721" height="841" viewBox="0 0 721 841" fill="none" xmlns="http://www.w3.org/2000/svg">
<path d="M327.313 194.289C328.932 200.268 330.445 205.392 331.712 209.465C334.069 208.808 336.603 208.25 339.171 207.757C343.323 206.969 347.757 206.377 352.472 206.016C356.659 205.688 360.671 205.523 364.506 205.523C368.13 205.523 371.578 205.655 374.886 205.95C376.223 206.049 377.489 206.18 378.756 206.344C379.354 206.41 379.917 206.476 380.515 206.607C379.636 204.012 378.897 201.417 378.228 198.79C377.841 197.279 377.454 195.735 377.102 194.224V194.191C376.962 193.764 376.786 193.403 376.61 193.008C376.645 192.877 376.715 192.713 376.75 192.581C362.57 126.23 398.425 59.1568 409.65 40.304L348.952 0C305.532 48.5809 312.112 125.15 322.492 173.989C324.075 181.446 325.729 188.245 327.312 194.223L327.313 194.289Z" fill="black"/>
<path d="M242.585 202.068C232.592 203.48 222.951 205.878 213.591 209.294H213.556C200.184 214.188 187.482 221.152 175.483 230.185C154.863 245.689 141.774 263.591 135.686 273.084C207.925 289.015 266.507 263.295 293.36 247.857V247.824C294.486 240.631 297.055 234.324 301.066 228.806C305.464 222.762 311.517 217.868 319.117 214.156C318.518 212.349 317.885 210.313 317.217 208.112C316.231 208.309 315.211 208.243 314.155 207.981C288.821 200.918 264.929 198.948 242.585 202.101L242.585 202.068Z" fill="black"/>
<path d="M168.586 178.026C173.582 181.377 179.107 184.399 185.088 187.059C193.427 190.804 202.752 193.859 213.027 196.257H213.062C239.628 187.487 272.985 184.3 313.383 194.68C312.01 189.49 310.603 183.742 309.231 177.534C309.231 177.534 309.231 177.501 309.195 177.501V177.468C298.816 160.223 275.064 132.303 226.576 122.153C173.901 111.149 147.511 86.9408 135.651 71.6996C130.901 90.3574 125.975 125.208 144.412 153.883C150.429 163.278 158.487 171.292 168.551 177.961L168.586 178.026Z" fill="black"/>
<path d="M408.069 236.199C406.45 233.145 404.304 230.484 401.7 228.218C400.961 227.561 400.187 226.969 399.342 226.378C395.683 223.816 391.214 221.812 385.936 220.466C383.649 219.874 381.186 219.382 378.582 218.987L378.441 220.63C376.506 239.353 371.087 257.024 363.486 274.237C361.657 278.277 355.147 276.897 355.288 272.594C354.654 254.922 352.437 236.035 345.189 219.513C341.776 220.006 338.644 220.695 335.688 221.484C331.184 222.699 327.173 224.243 323.69 226.148C318.869 228.743 314.999 231.995 312.184 235.871C312.079 236.002 311.973 236.133 311.867 236.298V236.331C308.278 241.488 306.343 247.827 306.132 255.283C305.921 262.608 307.363 271.017 310.425 280.445C325.308 326.53 353.317 342.066 362.994 346.205C373.972 336.909 412.256 301.369 412.642 258.079C412.678 256.108 412.607 254.236 412.431 252.43V252.397C411.974 246.024 410.532 240.667 408.069 236.199Z" fill="black"/>
<path d="M390.756 193.499V193.532C392.093 199.247 393.852 204.93 396.104 210.546C401.804 212.681 406.731 215.506 410.812 219.054C418.272 225.557 423.022 234.295 424.992 245.135C449.271 259.949 510.532 289.971 587.242 273.088C581.154 263.595 568.03 245.693 547.445 230.189C540.091 224.638 532.455 219.874 524.538 215.9H524.503C519.823 213.535 515.073 211.433 510.182 209.626C479.71 198.228 445.755 197.67 408.736 207.984C405.217 208.97 401.452 207.097 400.396 203.78C399.341 200.462 401.346 196.98 404.9 195.995C455.64 181.838 495.573 188.965 525.065 202.269C528.901 200.791 533.58 198.787 538.753 196.258C544.207 193.564 550.223 190.247 556.311 186.206C559.548 184.104 562.75 181.805 565.952 179.308C594.946 156.578 608.95 127.508 607.719 92.6881C591.322 104.71 556.697 125.634 511.866 128.393C455.954 131.842 405.708 159.565 390.683 193.53L390.756 193.499Z" fill="black"/>
<path d="M687.916 271.441C660.752 234.685 617.577 210.542 559.311 199.473C552.379 203.743 545.693 207.126 539.817 209.82C545.869 213.334 551.358 217.046 556.249 220.758C588.022 244.835 602.731 273.281 603.329 274.463C604.174 276.139 604.209 278.077 603.4 279.752C602.555 281.46 601.007 282.708 599.072 283.201C578.346 288.621 558.712 290.821 540.415 290.821C489.324 290.821 448.931 273.544 425.952 260.701C423.912 315.655 370.779 356.546 368.527 358.32C367.331 359.24 365.818 359.732 364.305 359.732C363.671 359.732 362.968 359.634 362.334 359.47C360.505 358.944 317.576 346.002 297.555 284.118C295.127 276.563 293.579 269.501 292.981 262.932C269.476 275.447 230.771 290.852 182.455 290.852C164.158 290.852 144.523 288.651 123.798 283.231C121.898 282.739 120.315 281.49 119.505 279.782C118.696 278.107 118.696 276.169 119.54 274.494C120.174 273.311 134.882 244.866 166.656 220.789C174.362 214.975 183.476 209.128 193.961 204.069C183.229 200.554 173.588 196.219 165.073 191.061C148.57 192.934 119.858 198.55 91.2153 215.499C32.7345 250.121 2.08701 313.219 0.0467262 403.119C-2.62753 523.804 110.006 671.549 204.975 774.298C244.913 817.492 302.9 841.832 364.09 840.978C425.139 840.157 482.246 814.372 520.71 770.225C624.544 651.154 692.003 534.186 715.748 431.992C716.03 430.941 738.62 340.217 687.88 271.499L687.916 271.441ZM82.1734 385.029C72.2854 383.387 66.9023 368.277 70.1398 351.328C73.377 334.346 84.0389 321.929 93.9259 323.604C103.814 325.247 109.197 340.357 105.96 357.306C102.722 374.288 92.0604 386.704 82.1734 385.029ZM126.509 510.734C116.481 511.227 107.578 497.661 106.629 480.416C105.679 463.204 113.033 448.85 123.096 448.357C133.125 447.864 142.027 461.43 142.976 478.675C143.926 495.887 136.572 510.241 126.509 510.734ZM206.947 656.083C197.094 657.955 186.151 645.768 182.492 628.852C178.833 611.968 183.829 596.76 193.682 594.887C203.534 593.015 214.477 605.202 218.136 622.118C221.796 639.001 216.799 654.21 206.947 656.083ZM226.757 368.993C223.519 385.975 212.858 398.392 202.971 396.717C193.083 395.074 187.7 379.964 190.937 363.015C194.174 346.033 204.836 333.617 214.723 335.292C224.611 336.934 229.994 352.044 226.757 368.993ZM250.825 558.228C240.796 558.721 231.894 545.154 230.944 527.909C229.994 510.697 237.349 496.343 247.412 495.85C257.44 495.358 266.343 508.924 267.292 526.169C268.242 543.381 260.888 557.735 250.825 558.228ZM302.761 744.048C292.908 745.921 281.965 733.734 278.306 716.818C274.647 699.934 279.643 684.726 289.496 682.853C299.348 680.981 310.291 693.168 313.95 710.084C317.61 726.967 312.613 742.176 302.761 744.048ZM357.758 641.434C347.73 641.434 339.567 627.474 339.567 610.23C339.567 592.985 347.695 579.025 357.758 579.025C367.786 579.025 375.949 592.985 375.949 610.23C375.949 627.474 367.821 641.434 357.758 641.434ZM357.758 465.309C347.73 465.309 339.567 451.349 339.567 434.104C339.567 416.859 347.695 402.9 357.758 402.9C367.786 402.9 375.949 416.86 375.949 434.104C375.949 451.349 367.821 465.309 357.758 465.309ZM440.8 716.82C437.14 733.704 426.197 745.89 416.345 744.051C406.492 742.179 401.497 726.971 405.156 710.086C408.815 693.202 419.758 681.017 429.61 682.856C439.463 684.728 444.459 699.936 440.8 716.82ZM488.161 527.947C487.211 545.16 478.308 558.726 468.281 558.266C458.252 557.773 450.898 543.452 451.814 526.207C452.764 508.994 461.666 495.428 471.694 495.888C481.722 496.381 489.076 510.702 488.161 527.947ZM504.312 335.265C514.2 333.623 524.861 346.039 528.098 362.988C531.336 379.97 525.952 395.047 516.065 396.69C506.177 398.332 495.516 385.916 492.279 368.966C489.041 351.985 494.425 336.907 504.312 335.265ZM536.578 628.888C532.919 645.772 521.976 657.958 512.124 656.119C502.271 654.246 497.275 639.039 500.934 622.154C504.594 605.271 515.537 593.085 525.389 594.924C535.242 596.796 540.237 612.004 536.578 628.888ZM612.442 480.42C611.492 497.632 602.589 511.198 592.561 510.738C582.533 510.246 575.179 495.924 576.094 478.679C577.044 461.467 585.947 447.901 595.974 448.361C606.003 448.854 613.357 463.175 612.442 480.42ZM636.932 385.029C627.044 386.671 616.384 374.256 613.146 357.306C609.909 340.324 615.293 325.247 625.18 323.604C635.068 321.962 645.728 334.378 648.966 351.328C652.203 368.31 646.819 383.387 636.932 385.029Z" fill="black"/>
</svg>
