<svg width="485" height="483" viewBox="0 0 485 483" fill="none" xmlns="http://www.w3.org/2000/svg">
<path d="M484.432 241.435C484.432 374.569 375.781 482.87 242.216 482.87C108.651 482.87 0 374.569 0 241.435C0 108.301 108.651 0 242.216 0C322.687 0 397.688 39.6859 442.887 106.165C448.25 114.055 446.174 124.769 438.259 130.115C430.344 135.46 419.574 133.391 414.232 125.501C375.499 68.484 311.184 34.4679 242.217 34.4679C127.747 34.4679 34.6037 127.311 34.6037 241.412C34.6037 355.513 127.747 448.357 242.217 448.357C356.687 448.357 449.831 355.513 449.831 241.412C449.831 218.843 446.219 196.639 439.083 175.472C436.033 166.439 440.921 156.674 449.983 153.635C459.066 150.574 468.863 155.467 471.89 164.5C480.195 189.247 484.432 215.138 484.432 241.435ZM432.528 241.435C432.528 346.199 347.318 431.134 242.216 431.134C137.114 431.134 51.9034 346.199 51.9034 241.435C51.9034 136.672 137.114 51.7361 242.216 51.7361C347.318 51.7361 432.528 136.672 432.528 241.435ZM121.108 155.208C121.108 164.737 128.85 172.454 138.409 172.454H242.216C251.775 172.454 259.517 164.737 259.517 155.208C259.517 145.68 251.775 137.963 242.216 137.963H138.409C128.85 137.963 121.108 145.702 121.108 155.208ZM363.324 327.662C363.324 318.134 355.582 310.417 346.023 310.417H138.409C128.85 310.417 121.108 318.134 121.108 327.662C121.108 337.19 128.85 344.907 138.409 344.907H346.023C355.56 344.907 363.324 337.19 363.324 327.662ZM363.324 241.435C363.324 231.907 355.582 224.19 346.023 224.19H138.409C128.85 224.19 121.108 231.907 121.108 241.435C121.108 250.963 128.85 258.681 138.409 258.681H346.023C355.56 258.681 363.324 250.963 363.324 241.435ZM363.324 155.208C363.324 145.68 355.582 137.963 346.023 137.963H311.42C301.861 137.963 294.119 145.68 294.119 155.208C294.119 164.737 301.861 172.454 311.42 172.454H346.023C355.56 172.454 363.324 164.737 363.324 155.208Z" fill="black"/>
</svg>
