<svg width="825" height="738" viewBox="0 0 825 738" fill="none" xmlns="http://www.w3.org/2000/svg">
<path d="M652.889 266.94C652.889 259.027 659.26 252.604 667.111 252.604C674.961 252.604 681.333 259.027 681.333 266.94V298.107H745.927V235.773H588.266V298.107H652.861V266.94H652.889ZM143.667 266.94C143.667 259.027 150.039 252.604 157.889 252.604C165.74 252.604 172.111 259.027 172.111 266.94V298.107H236.706V235.773H79.0441V298.107H143.639V266.94H143.667ZM520.969 308.057C516.133 333.862 502.367 356.485 483.111 372.57C464.139 388.397 439.82 397.888 413.311 397.888C383.047 397.888 355.627 385.53 335.831 365.545L335.063 364.685C315.693 344.729 303.718 317.461 303.718 287.413C303.718 263.672 311.227 241.594 323.942 223.53C336.969 205.037 355.571 190.729 377.216 183.131C384.583 180.522 392.689 184.479 395.278 191.905C396.131 194.342 396.273 196.865 395.818 199.245C395.334 201.854 394.965 204.435 394.737 206.872C394.538 209.022 394.424 211.603 394.424 214.613C394.424 237.236 403.498 257.708 418.146 272.446C432.88 287.241 453.16 296.387 475.573 296.387C480.323 296.387 484.903 295.986 489.226 295.269C493.777 294.523 498.186 293.348 502.31 291.914C509.677 289.305 517.783 293.262 520.371 300.688C521.225 303.125 521.367 305.648 520.94 308.028L520.969 308.057ZM465.021 350.492C473.525 343.381 480.579 334.579 485.642 324.601C482.314 324.916 478.958 325.088 475.63 325.088C445.366 325.088 417.947 312.73 398.15 292.746C379.662 274.051 367.744 248.791 366.208 220.778C358.813 226.111 352.328 232.648 347.066 240.132C337.708 253.407 332.19 269.75 332.19 287.441C332.19 309.72 340.979 329.905 355.599 344.958C370.617 360.097 390.926 369.244 413.339 369.244C432.993 369.244 451.027 362.219 465.021 350.521V350.492ZM493.066 469.827C505.183 524.304 491.359 506.585 540.936 531.358C545.629 533.68 549.469 537.121 552.228 541.307C554.987 545.493 556.608 550.396 556.921 555.701C557.206 560.89 556.153 565.908 553.935 570.352C551.688 574.854 548.274 578.725 543.866 581.621L506.52 606.164L499.949 651.438C499.21 656.742 497.105 661.559 493.891 665.573C490.677 669.588 486.439 672.684 481.404 674.577C476.426 676.44 471.221 676.87 466.187 675.896C461.238 674.978 456.516 672.684 452.506 669.129C412.543 633.747 432.481 639.223 380.203 649.66C374.969 650.721 369.764 650.291 364.957 648.599C360.178 646.879 355.883 643.868 352.442 639.682C349.057 635.611 346.924 630.794 346.156 625.719C345.331 620.615 345.928 615.397 347.919 610.408C369.508 556.303 370.503 579.814 344.392 527.745C342.032 523.043 341.008 518.025 341.292 513.036C341.576 508.047 343.198 503.087 346.07 498.671C348.972 494.256 352.812 490.844 357.22 488.636L358.33 488.148C362.511 486.285 367.119 485.453 371.869 485.74C428.812 489.496 404.721 497.41 444.143 456.179C447.784 452.337 452.221 449.613 457.569 448.093C462.717 446.831 467.637 446.86 472.843 448.265C478.162 449.871 482.4 452.509 485.756 456.035C489.311 459.791 491.843 464.494 493.037 469.798L493.066 469.827ZM474.777 518.254L465.362 475.877C464.054 475.561 438.511 504.492 435.496 507.818C432.425 511.086 428.926 513.552 425.058 515.129C421.104 516.735 416.895 517.394 412.514 517.108C355.315 513.323 363.592 502.628 389.987 555.271C391.836 558.969 392.888 562.897 393.059 566.969C393.258 571.184 392.547 575.284 390.983 579.183L374.173 621.275C375.026 622.278 411.377 614.278 415.586 613.447C419.568 612.644 423.579 612.73 428.016 613.734C432.823 614.995 436.748 617.146 440.133 620.128L471.392 647.797C472.53 647.338 477.621 606.967 478.247 602.408C478.844 598.251 480.238 594.408 482.4 590.968C484.647 587.441 487.548 584.516 491.046 582.223C539.912 550.11 541.448 563.557 490.079 537.866C486.097 535.888 482.741 533.164 480.153 529.838C477.763 526.713 475.971 523.043 474.777 518.226V518.254ZM574.073 207.101H606.953V96.9128H218.047V207.101H250.927C258.778 207.101 265.149 213.524 265.149 221.437V312.444C265.149 320.357 258.778 326.78 250.927 326.78H218.047V737.971H606.953V326.78H574.073C566.222 326.78 559.851 320.357 559.851 312.444V221.437C559.851 213.524 566.222 207.101 574.073 207.101ZM635.396 207.101H698.825V96.9128H635.396V207.101ZM727.269 207.101H760.149C767.999 207.101 774.371 213.524 774.371 221.437V312.444C774.371 320.357 767.999 326.78 760.149 326.78H727.269V558.797C727.269 566.711 720.897 573.133 713.047 573.133C705.197 573.133 698.825 566.711 698.825 558.797V326.78H635.396V737.971H698.825V622.852C698.825 614.938 705.197 608.515 713.047 608.515C720.897 608.515 727.269 614.938 727.269 622.852V737.971H763.363C780.287 737.971 795.703 730.975 806.882 719.707C818.06 708.439 825 692.898 825 675.838V159.017C825 141.957 818.06 126.417 806.882 115.149C795.703 103.88 780.287 96.8842 763.363 96.8842H727.269V207.101ZM64.8509 207.101H97.7314V96.9128H61.6368C44.713 96.9128 29.2967 103.909 18.1184 115.177C6.94019 126.445 0 141.986 0 159.046V675.867C0 692.927 6.94019 708.467 18.1184 719.736C29.2967 731.004 44.713 738 61.6368 738H97.7314V515.359C97.7314 507.445 104.103 501.022 111.953 501.022C119.803 501.022 126.175 507.445 126.175 515.359V738H189.604V326.809H126.175V451.304C126.175 459.218 119.803 465.64 111.953 465.64C104.103 465.64 97.7314 459.218 97.7314 451.304V326.809H64.8509C57.0005 326.809 50.6292 320.386 50.6292 312.472V221.466C50.6292 213.552 57.0005 207.13 64.8509 207.13V207.101ZM126.175 207.101H189.604V96.9128H126.175V207.101ZM283.495 68.2404H541.448V23.9988C541.448 17.6622 539.03 11.8991 534.764 7.34014C530.128 2.6952 524.183 0 517.641 0H307.302C300.76 0 294.816 2.69521 290.492 7.05342C286.169 11.4116 283.495 17.4042 283.495 23.9988V68.2404Z" fill="black"/>
</svg>
