<svg width="663" height="613" viewBox="0 0 663 613" fill="none" xmlns="http://www.w3.org/2000/svg">
<path d="M611.172 7.82401L301.586 0.0125825C272.975 -0.584622 248.512 20.1432 247.629 48.0638L247.397 55.9563L49.6077 66.6148C20.572 68.1738 -1.57515 91.4732 0.0878475 118.7L27.4875 565.821C29.0948 592.026 52.3492 612.337 79.9981 612.337C81.0103 612.337 82.0275 612.308 83.0448 612.251L392.132 595.598C418.624 594.167 439.241 574.453 441.336 550.322L595.547 554.171H597.004C625.337 554.171 648.775 532.878 649.504 506.12L662.317 58.4171C663.047 31.2631 640.128 8.51073 611.172 7.82401ZM390.937 576.098L81.8546 592.751C64.1697 593.681 49.2924 581.11 48.2904 564.705L20.8907 117.58C19.8792 101.112 33.2923 87.056 50.803 86.1099L359.895 69.4618C377.464 68.5167 392.451 81.1008 393.449 97.5076L420.849 544.628C421.856 561.038 408.439 575.154 390.937 576.098ZM585.545 459.828C563.868 463.317 547.197 478.935 542.629 498.012L438.707 495.437L431.795 382.658C488.747 392.476 540.95 363.331 562.42 318.502C564.19 314.792 563.358 310.495 560.233 307.562C557.212 304.73 552.525 303.952 548.672 305.612C504.086 324.267 451.571 309.949 424.933 270.675L414.252 96.3916C413.277 80.5269 404.39 65.8406 388.887 57.0198L555.129 61.1496C556.795 70.8209 561.484 79.8055 568.88 87.0303C576.275 94.3553 585.545 99.3388 595.755 101.485L585.545 459.828Z" fill="black"/>
<path d="M370.607 123.446C368.542 121.724 365.805 120.846 363.069 120.999C350.129 121.759 338.693 112.468 337.917 100.04C337.76 97.4503 336.509 95.0325 334.444 93.311C332.378 91.5846 329.688 90.7167 326.906 90.8597L85.593 104.256C79.8557 104.575 75.4764 109.191 75.807 114.571C76.57 126.841 66.55 137.414 53.4682 138.138C47.7258 138.458 43.3516 143.079 43.6822 148.458L67.5927 532.034C67.7555 534.623 69.0067 537.041 71.0717 538.763C73.1368 540.484 75.9037 541.376 78.6096 541.214C91.4593 540.471 102.979 549.64 103.761 562.178C103.924 564.762 105.175 567.185 107.24 568.902C109.153 570.499 111.619 571.372 114.163 571.372C114.366 571.372 114.575 571.367 114.778 571.353L356.147 557.952C361.889 557.638 366.268 553.017 365.927 547.633C365.165 535.367 375.184 524.794 388.266 524.07C394.009 523.75 398.388 519.134 398.047 513.745L374.081 130.174C373.923 127.59 372.672 125.167 370.607 123.446ZM285.915 251.657L294.232 242.167C297.889 237.999 304.455 237.407 308.89 240.822C313.336 244.246 313.976 250.403 310.324 254.571L302.008 264.056C298.369 268.21 291.8 268.839 287.35 265.401C282.904 261.977 282.264 255.825 285.915 251.657ZM211.748 213.086C217.561 212.581 222.571 216.491 223.126 221.861L224.397 234.088C224.957 239.458 220.766 244.232 215.043 244.756C209.428 245.3 204.23 241.423 203.666 235.982L202.394 223.759C201.834 218.389 206.026 213.611 211.748 213.086ZM116.96 356.582C103.041 357.841 103.774 357.822 102.902 357.822C97.6017 357.822 93.0698 354.049 92.5459 349.004C91.9864 343.634 96.1724 338.861 101.9 338.336L114.936 337.144C120.734 336.638 125.759 340.549 126.314 345.914C126.873 351.284 122.687 356.057 116.96 356.582ZM123.552 271.648C119.111 268.224 118.471 262.072 122.123 257.904C125.78 253.736 132.351 253.135 136.786 256.559L146.903 264.361C151.343 267.785 151.984 273.942 148.332 278.105C144.685 282.268 138.109 282.883 133.668 279.45L123.552 271.648ZM163.311 422.202L154.99 431.687C151.323 435.864 144.746 436.441 140.326 433.027C135.886 429.603 135.245 423.446 138.897 419.278L147.218 409.793C150.875 405.625 157.442 405.024 161.882 408.448C166.322 411.877 166.963 418.034 163.311 422.202ZM237.515 460.772C231.899 461.316 226.701 457.444 226.137 451.997L224.865 439.775C224.306 434.405 228.497 429.631 234.219 429.107C240.017 428.582 245.042 432.512 245.597 437.882L246.868 450.104C247.428 455.474 243.237 460.248 237.515 460.772ZM232.723 414.719C186.901 418.906 146.135 387.479 141.667 344.516C137.198 301.558 170.719 263.331 216.539 259.144C262.358 254.952 303.125 286.384 307.596 329.342C312.064 372.305 278.543 410.527 232.723 414.719ZM327.129 415.945C323.47 420.122 316.901 420.714 312.466 417.285L302.349 409.483C297.904 406.054 297.268 399.902 300.92 395.734C304.577 391.566 311.143 390.97 315.584 394.399L325.7 402.201C330.146 405.625 330.781 411.782 327.129 415.945ZM347.337 335.513L334.301 336.705C328.33 337.201 323.462 333.124 322.923 327.93C322.364 322.561 326.55 317.782 332.277 317.258L345.313 316.065C351.106 315.541 356.136 319.475 356.691 324.84C357.25 330.21 353.064 334.988 347.337 335.513Z" fill="black"/>
<path d="M214.148 284.886C186.006 287.462 165.341 311.02 168.087 337.411C168.611 342.456 173.143 346.224 178.443 346.224C184.651 346.224 189.414 341.222 188.819 335.513C187.191 319.842 199.459 305.855 216.173 304.324C221.9 303.8 226.086 299.026 225.526 293.656C224.972 288.291 219.952 284.357 214.148 284.886Z" fill="black"/>
</svg>
