<svg width="802" height="801" viewBox="0 0 802 801" fill="none" xmlns="http://www.w3.org/2000/svg">
<path d="M800.322 412.872C799.391 410.119 797.565 407.365 795.738 404.646C793.912 401.893 792.085 399.139 790.223 396.42C788.397 393.666 785.639 390.913 782.881 389.089C780.124 386.335 777.366 384.511 774.644 381.757C771.887 379.933 769.129 377.179 765.476 375.355C761.823 373.531 759.065 371.707 755.376 369.847C751.723 368.023 748.035 367.093 743.45 365.269C739.797 364.339 735.213 363.445 730.629 362.515H715.982C714.155 362.515 713.224 363.445 711.398 363.445H704.951C702.194 363.445 699.436 362.515 698.541 361.621C697.609 360.691 697.609 360.691 698.541 359.797L699.472 358.867H703.196C704.127 358.867 705.023 358.867 705.023 357.937H718.882C720.709 357.937 720.709 357.937 721.64 357.007V356.077L721.461 355.183V354.253C720.53 352.429 719.634 349.675 718.703 347.851L722.356 351.499L722.392 347.851L720.566 345.097C719.634 344.167 719.634 343.273 718.739 341.449C718.739 341.449 718.739 340.519 717.808 340.519L716.877 339.59L715.946 337.766L714.083 335.906L713.224 334.118L706.813 327.716C705.882 326.786 704.987 325.891 704.056 325.891C704.056 325.891 703.124 325.891 703.124 324.962L702.193 324.032L700.367 323.102C699.436 322.172 698.54 321.278 697.609 321.278C696.678 320.348 695.783 319.454 693.956 319.454C693.025 318.524 692.13 317.63 690.303 317.63C689.372 316.7 687.546 315.806 686.65 315.806L685.719 313.982C684.788 313.982 684.788 313.052 683.893 313.052C682.066 312.122 681.135 312.122 679.309 311.228L677.482 310.298C676.551 310.298 675.656 309.368 674.725 309.368C673.793 309.368 671.967 308.438 671.072 308.438C672.003 308.438 672.003 308.438 672.898 307.508C673.829 307.508 673.829 307.508 674.725 306.578C675.656 306.578 675.656 305.649 676.551 305.649C677.482 305.649 677.482 304.719 678.377 304.719C679.309 304.719 680.204 303.789 680.204 303.789C681.135 303.789 682.03 302.859 682.03 302.859C683.857 301.929 684.788 301.035 686.615 301.035C687.546 300.105 689.372 299.211 690.268 298.281C691.199 297.351 693.025 296.457 693.921 295.527C694.852 294.597 694.852 294.597 695.747 294.597L697.609 292.737L699.436 291.808L700.367 290.878C701.298 289.948 702.193 289.054 702.193 288.124L704.056 286.264V285.334C705.882 282.58 707.709 279.826 708.64 277.108C710.466 272.53 711.397 268.882 712.293 266.128C712.293 265.198 712.293 264.304 713.224 264.304V260.585H712.293V255.935C712.293 254.111 712.293 252.287 713.224 250.428C714.155 248.603 714.155 246.779 715.981 244.92C716.913 243.096 717.808 241.272 719.634 239.412C721.461 237.588 722.392 235.764 724.219 233.904C726.045 232.08 727.872 230.256 729.734 229.326C731.56 227.502 734.318 226.572 736.144 224.748C737.971 223.818 740.729 221.994 743.486 221.1C746.244 220.17 749.001 219.276 751.723 218.346C754.481 217.416 757.238 217.416 760.891 216.522C759.065 214.698 756.307 212.874 753.55 210.12C750.792 208.296 748.034 206.472 745.313 205.542C742.555 203.718 738.902 202.788 736.144 201.894C733.387 200.964 729.734 200.07 726.045 199.14C722.392 198.21 719.634 197.316 715.945 197.316C712.292 196.386 708.603 196.386 704.95 196.386C701.297 196.386 697.609 196.386 693.024 197.316C689.371 198.246 684.787 198.246 681.098 199.14C677.445 200.07 672.861 201.894 668.278 203.718C667.346 204.648 666.451 204.648 664.625 205.542C663.693 205.542 663.693 206.472 662.798 206.472L660.972 207.402C660.04 208.332 659.145 208.332 657.319 209.226L655.492 210.156L654.561 211.086C653.63 212.016 651.803 212.91 650.908 213.84L649.977 214.769L649.046 216.915H648.115L647.219 217.845C646.288 217.845 646.288 218.775 645.393 218.775C642.635 219.705 640.809 220.599 638.982 220.599C638.051 220.599 638.051 219.669 638.051 218.775V217.845C638.051 217.845 638.051 216.915 638.982 216.915C638.982 216.915 638.982 215.986 639.913 215.986L640.844 215.056C641.776 214.126 641.776 214.126 642.671 213.232C643.602 212.302 643.602 212.302 644.497 211.408C645.429 210.478 646.324 210.478 646.324 209.584L649.046 208.689L649.977 207.76C649.977 207.76 650.908 207.76 650.908 206.83C650.908 206.83 651.839 206.83 651.839 205.9C651.839 205.9 652.77 205.9 652.77 204.97H653.701C654.633 204.04 655.528 204.04 656.459 204.04C657.39 203.11 658.286 203.11 658.286 202.216V200.356L657.354 199.426C656.423 197.602 653.701 196.672 650.944 194.848L655.528 195.778L650.013 192.13C649.082 191.2 648.186 191.2 646.36 190.306C646.36 190.306 645.429 190.306 645.429 189.376L644.497 188.446L643.53 190.378C643.53 190.378 642.599 190.378 642.599 189.448L641.668 188.518L638.911 187.588C638.911 187.588 637.979 187.588 637.979 186.658L637.048 185.728L634.291 184.799H630.638C629.707 184.799 628.811 183.869 626.985 183.869H623.296C622.365 183.869 620.538 183.869 619.643 182.939H604.1C602.273 182.939 600.447 183.869 599.516 183.869H596.758C595.827 183.869 594.932 183.869 594.001 184.799C593.07 184.799 591.243 185.728 590.348 185.728L591.279 184.799C592.21 183.869 592.21 183.869 592.21 182.975C593.141 182.045 593.141 182.045 594.036 181.15C594.967 180.292 594.036 181.222 594.036 180.292C594.967 179.362 594.968 179.362 594.968 178.468C595.899 177.538 595.899 177.538 595.899 176.644C596.83 175.714 597.725 173.89 598.656 172.996C599.587 172.066 600.483 170.242 600.483 169.348C601.414 168.418 601.414 166.594 602.309 165.7C602.309 164.77 603.24 164.77 603.24 163.876V162.016L604.171 160.192V157.402C604.171 156.472 605.103 155.578 605.103 153.754V140.915C604.171 136.337 604.171 132.688 603.276 129.935C603.276 129.005 602.345 128.111 602.345 128.111V124.391C602.345 124.391 601.414 124.391 601.414 125.321H600.483L599.552 124.391V122.531L598.62 121.602C597.689 119.777 596.794 118.848 596.794 117.024C595.863 115.2 595.863 113.375 595.863 110.622C595.863 108.798 595.863 106.044 596.794 104.22C596.794 102.396 597.725 99.6416 598.62 96.8877C599.552 94.1338 600.447 92.3098 601.378 89.5558C602.309 87.7318 603.205 84.9779 605.031 82.224C606.858 79.4701 607.789 77.646 609.615 75.822C611.442 73.998 613.268 71.244 615.13 69.42C616.957 67.596 619.715 65.7719 621.541 63.9122C618.783 62.9823 615.13 62.9823 612.373 62.0881H602.273C598.62 62.0881 595.862 63.018 592.173 63.018C588.52 63.9479 585.763 63.9479 582.074 64.842C578.421 65.7719 575.663 66.6661 571.974 68.4901C568.321 69.42 565.563 71.244 561.874 73.0681C558.221 74.8921 555.464 76.7162 551.775 79.4701C548.122 82.224 545.364 84.048 542.606 87.6961C539.849 90.45 536.196 94.0981 533.438 97.7822C532.507 98.7121 532.507 99.6063 531.612 100.536C531.612 101.466 530.68 101.466 530.68 102.36L529.749 104.184C528.818 105.114 528.818 106.008 527.923 107.832L526.992 109.656L526.061 110.586V111.516C525.13 113.34 525.129 114.27 524.234 116.094C524.234 117.024 523.303 117.024 523.303 117.918L522.372 118.848V119.778L521.441 120.708C521.441 121.638 520.51 121.638 520.51 122.532C518.683 124.356 517.752 127.11 515.926 127.11C514.994 127.11 514.994 127.11 514.099 126.18V120.601C514.099 119.671 515.03 118.777 515.03 118.777C515.03 117.847 515.961 116.953 515.961 116.023C515.961 115.093 516.892 114.199 516.892 113.269L521.548 108.619C521.548 108.619 521.548 107.689 522.479 107.689C523.41 106.76 523.41 105.865 524.306 104.935C525.237 104.006 525.237 103.111 525.237 102.182H523.375C521.548 101.252 518.791 101.252 516.033 101.252L520.617 99.4277H505.002L500.526 98.8196H497.768L495.011 99.7495C494.079 99.7495 494.079 99.7495 493.184 100.679L491.358 101.609C490.426 101.609 489.531 102.539 488.6 102.539H486.738L484.911 103.469C483.98 104.399 483.085 104.399 481.258 105.293C480.327 106.223 478.501 106.223 477.605 107.117C476.674 108.047 474.848 108.047 473.952 108.941C473.021 109.871 471.195 110.765 470.299 111.695L468.473 112.625C467.542 113.555 467.542 113.555 466.646 113.555C465.715 114.485 463.889 115.379 462.993 116.309L461.167 118.133C460.236 119.063 460.236 119.063 459.34 119.957C458.409 120.887 457.514 121.781 456.583 122.711V120.887C456.583 119.957 456.583 119.957 457.514 119.063V102.611C457.514 100.787 457.514 99.8566 456.583 98.0326V94.3488L455.652 92.5248V89.7351C455.652 88.8052 454.72 87.911 454.72 86.9812L453.789 85.1571V83.2974C451.963 79.6493 451.032 77.7895 449.205 75.0713C446.448 71.4233 443.69 68.6693 441.863 65.9154C440.932 64.9856 440.932 64.9856 440.037 64.0914L439.106 63.1615H438.175V63.1257C438.175 63.1257 437.244 62.1959 437.244 63.1257C437.244 63.1257 437.244 64.0556 436.312 64.0556H434.45L432.66 62.1959H431.728C431.728 62.1959 430.797 62.1959 430.797 61.266C428.971 60.3361 428.04 59.442 427.144 57.6179C426.213 55.7939 424.387 54.864 423.491 53.04C422.56 51.2159 421.665 49.3919 420.734 46.638C419.803 44.8139 418.907 42.06 418.907 40.236C417.976 37.4821 417.976 35.658 417.976 32.9041C417.976 30.1502 417.045 27.3963 417.976 24.6781C417.976 21.9242 417.976 19.1703 418.907 16.4521C418.907 13.6981 419.838 10.9442 420.734 8.22603C421.665 5.47212 422.56 2.7182 423.491 0C420.734 0.929874 417.976 1.82404 414.323 3.64808C410.67 5.43632 407.913 7.26036 405.155 8.19023C402.397 10.0143 399.64 11.8383 396.918 13.6981C395.091 16.4163 392.334 18.2402 389.576 20.9942C386.818 23.7482 384.992 26.502 382.234 29.2202C380.408 31.9742 377.65 34.7281 375.824 38.3761C373.997 42.0242 372.171 44.7781 370.309 48.4623C368.482 52.1104 367.551 55.7942 365.724 60.3723C364.793 64.0204 363.898 68.5983 362.967 73.1759V78.648L363.003 80.5078V87.8396C363.003 89.6637 363.934 90.5936 363.934 92.4176V98.8554C363.934 101.609 363.003 104.363 362.107 105.257C361.176 106.187 361.176 106.187 360.281 105.257L359.35 104.327V100.608C359.35 99.6781 359.35 98.784 358.419 98.784C357.487 98.784 358.419 96.9599 358.419 96.0301V84.943C358.419 83.1189 358.419 83.1189 357.487 82.1891H356.556L355.661 82.3321V80.5081C353.834 81.438 351.077 82.3321 349.25 83.262L352.903 79.6139L350.146 80.5438L346.493 83.262C345.562 84.1919 344.666 84.1919 342.84 85.086C342.84 85.086 341.909 85.086 341.909 86.0159L340.977 86.9458L339.151 87.8757L338.22 88.8055L337.325 89.6639L329.947 97.0316C329.016 97.9614 328.12 98.8556 328.12 99.7855C328.12 99.7855 328.12 100.715 327.189 100.715L326.258 101.645L325.327 103.469C324.396 104.399 323.501 105.293 323.501 106.223C322.57 107.153 321.674 108.047 321.674 109.871C320.743 110.801 319.848 111.695 319.848 113.519C318.917 114.449 318.021 116.273 318.021 117.167L317.09 118.991C317.09 119.921 316.159 119.921 316.159 120.815C315.228 122.64 315.228 123.569 314.332 125.393L313.401 127.217C313.401 128.147 312.47 129.042 312.47 129.971C312.47 130.901 311.539 132.725 311.539 133.619C311.539 132.69 311.539 132.69 310.608 131.795C310.608 130.866 310.608 130.866 309.677 129.971C309.677 129.042 308.746 129.042 308.746 128.147C308.746 127.217 307.814 127.217 307.814 126.323C307.814 125.393 306.883 124.499 306.883 124.499L305.952 122.675C305.021 120.851 304.126 119.921 304.126 118.097C303.195 117.167 302.299 115.343 301.368 114.449C300.437 113.519 299.542 111.695 298.611 110.801C297.679 109.871 297.679 109.871 297.679 108.977L295.817 107.117L294.886 105.293L293.955 104.363C293.024 103.434 292.128 102.539 291.197 102.539L289.335 100.68H288.404C285.646 98.8556 282.889 97.0316 280.167 96.1017C275.583 94.2776 271.93 93.3478 269.172 92.4536C268.241 92.4536 267.346 92.4536 267.346 91.5237H263.621V92.4536H258.966C257.139 92.4536 255.313 92.4536 253.45 91.5237C251.624 90.5939 249.797 90.5939 247.935 88.7698C246.109 87.84 244.282 86.9458 242.42 85.1217C240.593 83.2977 238.767 82.3678 236.905 80.5438C235.078 78.7198 233.252 76.8957 232.321 75.036C230.494 73.2119 229.563 70.458 227.736 68.634C226.805 66.8099 224.979 64.056 224.083 61.3021C223.152 58.5482 222.257 55.7943 221.326 53.0761C220.395 50.3222 220.395 47.5683 219.499 43.9202C217.673 45.7442 215.846 48.4981 213.089 51.252C211.262 54.006 209.436 56.7599 208.505 59.4781C206.678 62.232 205.747 65.8801 204.852 68.634C203.921 71.3879 203.025 75.036 202.094 78.7201C201.628 82.3324 199.802 85.0863 199.802 88.7349C198.871 92.3829 198.871 96.0667 198.871 99.7146C198.871 103.363 198.871 107.046 199.802 111.625C200.733 115.273 200.733 119.851 201.628 123.535C202.56 127.183 204.386 131.761 206.213 136.338C207.144 137.268 207.144 138.162 208.039 139.986C208.039 140.916 208.97 140.916 208.97 141.81L209.901 143.634C210.832 144.564 210.832 145.458 211.728 147.282L212.659 149.107L213.59 150.036C214.521 150.966 215.417 152.79 216.348 153.684L218.21 155.544V156.474L219.141 157.404C219.141 158.334 220.072 158.334 220.072 159.228C221.003 161.982 221.899 163.806 221.899 165.63C221.899 166.56 220.968 166.56 220.072 166.56H219.141C219.141 166.56 218.21 166.56 218.21 165.63C218.21 165.63 217.279 165.63 217.279 164.7L216.348 163.77C215.417 162.84 215.417 162.84 214.521 161.946C213.59 161.016 213.59 161.016 212.695 160.122C211.764 159.192 211.764 158.298 210.868 158.298L209.006 156.438C209.006 156.438 209.006 155.508 208.075 155.508C208.075 155.508 208.075 154.579 207.144 154.579C207.144 154.579 207.144 153.649 206.213 153.649C206.213 153.649 206.213 152.719 205.281 152.719C204.35 151.789 204.35 150.895 204.35 149.965C203.419 149.035 203.419 148.141 202.524 148.141H200.662L199.73 149.071C197.904 150.001 196.973 152.719 195.146 155.473L196.077 150.895L192.424 156.403C191.493 157.333 191.493 158.227 190.598 160.051C190.598 160.051 190.598 160.981 189.667 160.981L188.736 161.91L187.805 163.735C187.805 163.735 187.805 164.664 186.873 164.664L190.634 162.912L189.703 165.666C189.703 165.666 189.703 166.596 188.772 166.596L187.841 167.526L186.909 170.279V173.928C186.909 174.857 185.978 175.752 185.978 177.576V181.259C185.978 182.189 185.978 184.013 185.047 184.907V200.43C185.047 202.254 185.978 204.078 185.978 205.008V207.762C185.978 208.691 185.978 209.586 186.909 210.515C186.909 211.445 187.841 213.269 187.841 214.163L186.909 213.234C185.978 212.304 185.978 212.304 185.083 212.304L183.256 210.48C182.325 209.55 182.325 209.55 181.43 209.55C180.535 208.692 180.535 208.691 179.639 208.691C178.708 207.762 178.708 207.762 177.813 207.762C176.882 206.832 175.055 205.938 174.16 205.008C173.229 204.078 171.402 203.184 170.507 203.184C169.576 202.254 167.749 202.254 166.854 201.36C165.923 201.36 165.923 200.43 165.027 200.43H163.165L161.339 199.5H158.545C157.614 199.5 156.719 198.57 154.892 198.57H142.035C137.451 199.5 133.798 199.5 131.041 200.394C130.11 200.394 129.214 201.324 129.214 201.324H125.49C125.49 201.324 125.49 202.254 126.421 202.254V203.184L125.49 204.114H123.627L122.696 205.043C120.87 205.973 119.939 206.867 118.112 206.867C116.286 207.797 114.459 207.797 111.702 207.797C109.875 207.797 107.117 207.797 105.291 206.867C103.464 206.867 100.707 205.938 97.9492 205.043C95.1916 204.114 93.3651 203.219 90.6075 202.289C88.781 201.36 86.0234 200.465 83.2658 198.641C80.5081 196.817 78.6816 195.888 76.8552 194.063C75.0287 192.239 72.271 190.415 70.4445 188.556C68.6181 186.732 66.7916 183.978 64.9293 182.154C63.9982 184.908 63.9982 188.556 63.1028 191.31V201.396C63.1028 205.044 64.0339 207.798 64.0339 211.482C64.9651 215.13 64.9651 217.884 65.8604 221.568C66.7916 225.216 67.6869 227.97 69.5134 231.654C70.4445 235.302 72.271 238.056 74.0975 241.74C75.924 245.388 77.7505 248.142 80.5081 251.826C83.2658 255.474 85.0922 258.228 88.7452 260.982C91.5028 263.736 95.1558 267.384 98.8449 269.208C99.7761 270.138 100.671 270.138 101.603 271.032C102.534 271.032 102.534 271.962 103.429 271.962L105.256 272.892C106.187 273.822 107.082 273.822 108.909 274.716L110.735 275.646L111.666 276.576H112.597C114.424 277.506 115.355 277.506 117.181 278.4C118.112 278.4 118.113 279.33 119.008 279.33L119.939 280.26H120.87L121.801 281.19C122.732 281.19 122.732 282.119 123.628 282.119C125.454 283.944 128.212 284.873 128.212 286.697C128.212 287.627 128.212 287.627 127.281 288.521H121.694C120.763 288.521 119.867 287.592 119.867 287.592C118.936 287.592 118.041 286.662 117.11 286.662C116.179 286.662 115.283 285.732 114.352 285.732L111.559 282.942C111.774 282.871 109.052 281.941 109.052 281.941L108.121 281.011C108.121 281.011 107.19 281.011 107.19 280.081C106.258 279.151 105.363 279.151 104.432 278.257C103.501 277.327 102.605 277.327 101.674 277.327V279.187C100.743 281.011 100.743 283.765 100.743 286.519L98.9526 282.871V298.464L99.8837 301.218V303.972L100.815 306.726C100.815 307.656 100.815 307.656 101.746 308.55L102.677 310.374C102.677 311.304 103.608 312.198 103.608 313.128V314.988L104.539 316.812C105.47 317.742 105.47 318.636 106.366 320.46C107.297 321.39 107.297 323.214 108.192 324.108C109.123 325.038 109.123 326.862 110.019 327.756C110.95 328.686 111.845 330.51 112.776 331.404L113.708 333.228C114.639 334.158 114.639 334.158 114.639 335.052C115.57 335.982 116.465 337.806 117.396 338.7L123.807 345.102H121.98C121.049 345.102 121.049 345.102 120.154 344.172H103.68C101.853 344.172 100.922 344.172 99.0956 345.102H95.4068L91.6107 346.032H88.8172C87.8861 346.032 86.9907 346.962 86.0596 346.962L84.2331 347.892H82.3708C78.7179 349.716 76.8556 350.646 74.1337 352.47C70.4808 355.224 67.7231 357.978 64.9655 359.802L62.2079 362.556V363.485L61.2768 364.415C61.2768 364.415 60.3457 365.345 61.2768 365.345C61.2768 365.345 62.2079 365.345 62.2079 366.275V368.135L62.2795 370.746V371.676C62.2795 371.676 62.2795 372.605 61.3484 372.605C60.4173 374.429 59.5219 375.359 57.6954 376.253C55.8689 377.183 54.9378 379.007 53.1113 379.902C51.2848 380.831 49.4583 381.726 46.7007 382.655C44.8742 383.585 42.1166 384.48 40.2901 384.48C37.5325 385.409 35.706 385.409 32.9484 385.409C30.1908 385.409 27.4331 386.339 24.7113 385.409C21.9537 385.409 19.196 385.409 16.4742 384.48C13.7166 384.48 10.959 383.55 8.23709 382.655C5.47948 381.726 2.72186 380.831 0 379.902C0.931124 382.655 1.82649 385.409 3.65298 389.057C5.47948 392.706 6.4106 394.565 8.23709 397.284C10.0636 400.037 11.8901 402.791 13.7523 405.51C15.5788 408.263 18.3364 411.017 21.0941 412.841C23.8517 415.595 26.6093 417.419 29.3311 420.173C32.0888 421.997 34.8464 424.751 38.4994 426.575C42.1524 428.399 44.91 430.223 48.5991 432.083C52.2521 433.907 55.9408 434.837 60.5251 436.661C64.1781 437.591 68.7622 438.485 73.3459 439.415H87.9578C89.7843 439.415 90.7154 438.485 92.5419 438.485H98.9883C101.746 438.485 104.504 439.415 105.399 440.309C106.33 441.239 106.33 441.239 105.399 442.133L104.468 443.063H100.743C99.8122 443.063 98.9168 443.063 98.9168 443.993H85.0572C83.2307 443.993 83.2307 443.993 82.2996 444.923V447.712C83.2307 449.536 84.1261 452.29 85.0572 454.114L80.6163 452.255L81.5475 455.008L83.374 457.762C84.3051 458.692 84.3051 459.586 85.2004 461.41C85.2004 461.41 85.2004 462.34 86.1316 462.34L87.0627 463.27L87.9938 465.094L97.2337 474.322C98.1648 475.252 99.0601 476.146 99.9913 476.146C99.9913 476.146 100.922 476.146 100.922 477.076L101.853 478.005L103.68 478.935C104.611 479.865 105.506 480.759 106.438 480.759C107.369 481.689 108.264 482.583 110.091 482.583C111.022 483.513 111.917 484.407 113.744 484.407C114.675 485.337 116.501 486.231 117.397 486.231L119.223 487.161C120.154 487.161 120.154 488.091 121.05 488.091C122.876 489.021 123.807 489.021 125.634 489.915L127.46 490.845C128.391 490.845 129.287 491.775 130.218 491.775C131.149 491.775 132.975 492.705 133.871 492.705C132.94 492.705 132.94 492.705 132.044 493.635C131.113 493.635 131.113 493.635 130.218 494.565C129.287 494.565 129.287 495.494 128.391 495.494C127.46 495.494 127.46 496.424 126.565 496.424C125.634 496.424 124.738 497.354 124.738 497.354C123.807 497.354 122.912 498.284 122.912 498.284C121.085 499.214 120.154 500.108 118.328 500.108C117.397 501.038 115.57 501.932 114.675 502.862C113.744 503.792 111.917 504.686 111.022 505.616C110.091 506.546 110.091 506.546 109.195 506.546L107.333 508.406L105.506 509.335L104.468 510.838C103.537 511.767 102.641 512.662 102.641 513.591L100.779 515.451V516.381C98.9526 519.135 97.1261 521.889 96.195 524.607C94.3685 529.185 93.4374 532.833 92.542 535.587C92.542 536.517 92.542 537.411 91.6109 537.411V541.131H92.542V545.78C92.542 547.604 92.542 549.428 91.6109 551.288C90.6797 553.112 90.6797 554.936 88.8532 556.796C87.9221 558.62 87.0268 560.444 85.2003 562.303C83.3738 564.127 82.4426 565.951 80.6162 567.811C78.7897 569.635 76.9632 571.459 75.1009 572.389C73.2744 574.213 70.5168 575.143 68.6903 576.967C66.8638 577.897 64.1062 579.721 61.3486 580.615C58.591 581.545 55.8334 582.439 53.1115 583.369C50.3539 584.299 47.5963 584.299 43.9433 585.193C45.7698 587.017 48.5274 588.841 51.285 591.595C54.0426 593.419 56.8002 595.243 59.5221 596.173C62.2797 597.997 65.9327 598.927 68.6903 599.821C71.4479 600.751 75.1009 601.645 78.79 602.575C82.443 603.505 85.2006 604.399 88.8897 604.399C92.5427 604.399 96.2315 605.329 99.8843 605.329C103.537 605.329 107.226 605.329 111.81 604.399C116.395 603.469 120.047 603.469 123.736 602.575C127.389 601.645 131.973 599.821 136.557 597.997C137.488 597.067 138.384 597.067 140.21 596.173C141.141 596.173 141.141 595.243 142.037 595.243L143.863 594.313C144.794 593.383 145.69 593.383 147.516 592.489L149.343 591.559L150.274 590.63C151.205 589.7 153.031 588.806 153.927 587.876L155.789 586.016H156.72L157.651 585.086C158.582 585.086 158.582 584.156 159.478 584.156C162.235 583.226 164.062 582.332 165.888 582.332C166.819 582.332 166.819 583.262 166.819 584.156V585.086C166.819 585.086 166.819 586.016 165.888 586.016C165.888 586.016 165.888 586.946 164.957 586.946L164.026 587.876C163.095 588.806 163.095 588.806 162.2 589.7L160.373 591.524C159.442 592.454 158.547 592.454 158.547 593.348L156.684 595.207C156.684 595.207 155.753 595.207 155.753 596.137C155.753 596.137 154.822 596.137 154.822 597.067C154.822 597.067 153.891 597.067 153.891 597.997H152.96C152.029 598.927 151.133 598.927 150.202 598.927C149.271 599.857 148.376 599.857 148.376 600.751V602.611L149.307 603.541C150.238 605.365 152.96 606.295 155.717 608.119L151.133 607.189L156.649 610.837C157.58 611.767 158.475 611.767 160.302 612.661C160.302 612.661 161.233 612.661 161.233 613.591L162.164 614.521L163.99 615.45C163.99 615.45 164.921 615.45 164.921 616.38L165.853 617.31L168.61 618.24C168.61 618.24 169.541 618.24 169.541 619.17L170.472 620.1L173.23 621.03H176.883C177.814 621.03 178.709 621.96 180.536 621.96H184.225C185.156 621.96 186.982 621.96 187.878 622.889H203.421C205.247 622.889 207.074 621.96 208.005 621.96H210.763C211.694 621.96 212.589 621.96 213.52 621.03C214.451 621.03 216.278 620.1 217.173 620.1L216.242 621.03C215.311 621.96 215.311 621.96 215.311 622.854C214.38 623.784 214.38 623.784 213.484 624.678C212.553 625.608 212.553 625.608 212.553 626.502C211.622 627.432 211.622 627.432 211.622 628.326C210.691 629.256 210.691 629.256 210.691 630.15C209.76 631.08 208.865 632.904 207.933 633.798C207.002 634.728 206.107 636.552 206.107 637.446C205.176 638.376 205.176 640.2 204.28 641.094C204.28 642.024 203.349 642.024 203.349 642.918V644.778L199.804 643.598V646.387C199.804 647.317 198.873 648.211 198.873 650.035V662.875C199.804 667.453 199.804 671.101 200.699 673.855C200.699 674.785 201.63 675.679 201.63 675.679V679.398C201.63 679.398 202.561 679.398 202.561 678.469H203.492L204.424 679.398V681.258L205.355 682.188C206.286 684.012 207.181 684.942 207.181 686.766C208.112 688.59 208.112 690.414 208.112 693.168C208.112 694.992 208.112 697.746 207.181 699.57C207.181 701.394 206.25 704.148 205.355 706.902C204.424 709.656 203.528 711.48 202.597 714.234C201.666 716.058 200.771 718.812 198.944 721.566C197.118 724.32 196.187 726.144 194.36 727.968C192.534 729.792 190.707 732.546 188.845 734.37C187.018 736.194 184.261 738.018 182.434 739.877C185.192 740.807 188.845 740.807 191.602 741.701C194.36 742.631 198.013 741.701 201.702 741.701C205.355 741.701 208.113 740.772 211.802 740.772C215.455 739.842 218.212 739.842 221.902 738.948C225.555 738.018 228.312 737.124 232.001 735.3C235.654 734.37 238.412 732.546 242.101 730.722C245.754 728.898 248.512 727.073 252.201 724.32C255.854 721.566 258.611 719.742 261.369 716.094C264.127 712.445 267.779 709.692 270.537 706.007C271.468 705.078 271.468 704.183 272.364 703.253C272.364 702.324 273.295 702.324 273.295 701.429L274.226 699.605C275.157 698.675 275.157 697.781 276.052 695.957L276.983 694.133L277.915 693.203V692.274C278.846 690.449 278.846 689.52 279.741 687.696C279.741 686.766 280.672 686.766 280.672 685.872L281.603 684.942V684.012L282.534 683.082C282.534 682.152 283.466 682.152 283.466 681.258C285.292 679.434 286.223 676.68 288.05 676.68C288.981 676.68 288.981 676.68 289.876 677.61V683.189C289.876 684.119 288.945 685.013 288.945 685.013C288.945 685.943 288.014 686.837 288.014 687.767C288.014 688.697 287.083 689.591 287.083 690.521L284.289 693.311C284.146 693.024 283.251 693.954 283.251 693.954L282.32 694.884C282.32 694.884 282.32 695.814 281.389 695.814C280.457 696.744 280.457 697.638 279.562 698.568C278.631 699.498 278.631 700.392 278.631 701.322H280.493C282.32 702.252 285.077 702.252 287.835 702.252L283.251 704.076H298.865L301.623 703.146H304.381L307.138 702.216C308.069 702.216 308.069 702.216 308.965 701.286L310.791 700.356C311.722 700.356 312.618 699.426 313.549 699.426H315.411L317.238 698.497C318.169 697.567 319.064 697.567 320.891 696.673C321.822 695.743 323.648 695.743 324.544 694.849C325.475 693.919 327.301 693.919 328.196 693.025C329.128 692.095 330.954 691.2 331.849 690.271L333.676 689.341C334.607 688.411 334.607 688.411 335.502 688.411C336.434 687.481 338.26 686.587 339.155 685.657L340.982 683.833C341.913 682.903 341.913 682.903 342.808 682.009C343.74 681.079 344.635 680.185 345.566 679.255V681.079C345.566 682.009 345.566 682.009 344.635 682.903C343.704 683.833 344.635 684.727 344.635 684.727V699.355C344.635 701.179 344.635 702.109 345.566 703.933V707.617L346.497 709.441V712.231C346.497 713.16 347.428 714.055 347.428 714.985L348.359 716.809V718.668C350.186 722.316 351.117 724.176 352.944 726.894C355.701 730.542 358.459 733.296 360.285 736.05L363.043 738.804H363.974L364.905 739.734C364.905 739.734 365.836 740.664 365.836 739.734C365.836 739.734 365.836 738.804 366.767 738.804H370.492C370.492 738.804 371.423 738.804 371.423 739.734C373.249 740.664 374.181 741.558 375.076 743.382C376.007 745.206 377.834 746.136 378.729 747.96C379.66 749.784 380.555 751.608 381.487 754.362C382.418 756.186 383.313 758.94 383.313 760.764C384.244 763.518 384.244 765.342 384.244 768.096C384.244 770.85 385.175 773.604 384.244 776.322C384.244 779.076 384.244 781.83 383.313 784.548C383.313 787.302 382.382 790.056 381.487 792.774C380.555 795.528 379.66 798.282 378.729 801C381.487 800.07 384.244 799.176 387.897 797.352C390.655 796.422 393.412 794.598 396.134 792.774C398.892 790.95 401.65 789.126 404.371 787.266C407.129 785.442 409.887 782.688 411.713 779.934C414.471 777.18 416.297 774.426 419.055 771.708C420.881 768.954 423.639 766.2 425.465 762.552C427.292 758.904 429.118 756.15 430.981 752.466C432.807 748.818 433.738 745.134 435.565 740.556C437.391 735.978 437.391 732.33 438.322 727.753V722.28L438.179 721.422V714.09C438.179 712.266 437.248 711.336 437.248 709.512V703.074C437.248 700.321 438.179 697.567 439.075 696.672C440.006 695.743 440.006 695.743 440.901 696.672L441.832 697.602V701.322C441.832 702.252 441.832 703.146 442.763 703.146V716.987C442.763 718.811 442.763 718.811 443.694 719.741H444.625L447.347 719.598H448.278C450.105 718.668 452.863 717.774 454.689 716.844L451.036 720.492L453.794 719.562L456.551 717.738C457.482 716.808 458.378 716.808 460.204 715.914C460.204 715.914 461.135 715.914 461.135 714.984L462.067 714.054L463.893 713.124L464.824 712.194L465.684 712.266L473.061 704.898C473.992 703.968 474.888 703.074 474.888 702.144C474.888 702.144 474.888 701.215 475.819 701.215L476.75 700.285L477.681 698.461C478.612 697.531 479.508 696.637 479.508 695.707C480.439 694.777 481.334 693.883 481.334 692.059C482.265 691.129 483.161 690.235 483.161 688.411C484.092 687.481 484.987 685.657 484.987 684.762L485.918 682.938C485.918 682.009 486.849 682.009 486.849 681.114C487.78 679.29 487.78 678.361 488.676 676.536L489.607 674.712C489.607 673.783 490.538 672.888 490.538 671.959C490.538 671.029 491.469 669.205 491.469 668.31C491.469 669.24 491.469 669.24 492.4 670.134C492.4 671.064 492.4 671.064 493.331 671.959C493.331 672.888 494.263 672.888 494.263 673.783C494.263 674.712 495.194 674.712 495.194 675.607C495.194 676.536 496.125 677.431 496.125 677.431C496.125 678.36 497.056 679.255 497.056 679.255C497.987 681.079 498.882 682.009 498.882 683.833C499.814 684.762 500.709 686.587 501.64 687.481C502.571 688.411 503.467 690.235 504.398 691.129C505.329 692.059 505.329 692.059 505.329 692.953L507.191 694.813L508.122 696.637L509.053 697.567C509.984 698.496 510.88 699.391 511.811 699.391L513.673 701.25H514.604C517.362 703.074 520.12 704.898 522.841 705.828C527.426 707.652 531.078 708.582 533.836 709.476C534.767 709.476 535.662 709.476 535.662 710.406H539.387V709.476H544.043C545.869 709.476 547.696 709.476 549.558 710.406C551.384 711.336 553.211 711.336 555.073 713.16C556.9 714.09 558.726 714.984 560.588 716.808C562.415 718.632 564.241 719.562 566.104 721.386C567.93 723.21 569.757 725.034 570.688 726.894C572.514 728.718 573.445 731.472 575.272 733.296C576.203 735.12 578.029 737.874 578.925 740.628C579.856 743.382 580.751 746.136 581.682 748.854C582.614 751.608 582.614 754.362 583.509 758.01C585.335 756.186 587.162 753.432 589.919 750.678C591.746 747.924 593.572 745.17 594.504 742.452C595.435 739.698 597.261 736.05 598.157 733.296C599.088 730.542 599.983 726.894 600.914 723.21C601.845 719.562 602.741 716.808 602.741 713.124C603.672 709.475 603.672 705.792 603.672 702.144C603.672 698.496 603.672 694.812 602.741 690.234C601.81 686.586 601.81 682.008 600.914 678.324C599.983 674.676 598.157 670.098 596.33 665.52C595.399 664.59 595.399 663.696 594.504 661.872C594.504 660.942 593.572 660.942 593.572 660.048L594.038 660.084C593.107 659.154 593.107 658.26 592.212 656.436L591.28 654.612L590.349 653.682C589.418 652.752 588.523 650.928 587.592 650.034L585.729 648.174V647.244L584.87 645.42C584.87 644.49 583.939 644.49 583.939 643.596C583.008 640.842 582.112 639.018 582.112 637.194C582.112 636.264 583.043 636.264 583.939 636.264H584.87C584.87 636.264 585.801 636.264 585.801 637.194C585.801 637.194 586.732 637.194 586.732 638.124L587.663 639.054C588.594 639.984 588.594 639.984 589.49 640.878L591.316 642.702C592.247 643.632 592.247 644.526 593.143 644.526L595.005 646.386C595.005 646.386 595.005 647.316 595.936 647.316C595.936 647.316 595.936 648.246 596.867 648.246C596.867 648.246 596.867 649.175 597.798 649.175C597.798 649.175 597.798 650.105 598.73 650.105C599.661 651.035 599.661 651.929 599.661 652.859C600.592 653.789 600.592 654.683 601.487 654.683H603.349L604.281 653.753C606.107 652.824 607.038 650.105 608.865 647.351L607.933 651.929L611.587 646.422C612.518 645.492 612.518 644.598 613.413 642.774C613.413 642.774 613.413 641.844 614.344 641.844L615.275 640.914L616.206 639.09C616.206 639.09 616.206 638.16 617.137 638.16L618.069 637.23L619 634.476C619 634.476 619 633.546 619.931 633.546L620.862 632.616L621.793 629.862V626.214C621.793 625.284 622.724 624.39 622.724 622.566V618.882C622.724 617.953 622.724 616.128 623.655 615.234V599.712C623.655 597.888 622.724 596.064 622.724 595.134V592.38C622.724 591.45 622.724 590.556 621.793 589.626C621.793 588.696 620.862 586.872 620.862 585.978L621.793 586.908C622.724 587.838 622.724 587.838 623.62 587.838L625.446 589.662C626.377 590.592 626.377 590.592 627.273 590.592C628.204 591.522 628.204 591.522 629.099 591.522C630.03 592.452 630.03 592.452 630.926 592.452C631.857 593.382 633.683 594.276 634.579 595.206C635.51 596.136 637.336 597.03 638.232 597.03C639.163 597.96 640.989 597.96 641.885 598.854C642.816 598.854 642.816 599.784 643.711 599.784H645.573L647.4 600.713H650.193C651.124 600.713 652.02 601.643 653.846 601.643H666.703C671.287 600.713 674.94 600.713 677.698 599.819C678.629 599.819 679.524 598.889 679.524 598.889H683.249C683.249 598.889 683.249 597.959 682.318 597.959V597.03L683.249 596.1H685.111L686.042 595.17C687.869 594.24 688.8 593.346 690.626 593.346C692.453 593.346 694.279 592.416 697.037 592.416C698.863 592.416 701.621 592.416 703.447 593.346C705.274 593.346 708.032 594.276 710.789 595.17C713.547 596.1 715.373 596.994 718.131 597.924C719.957 598.854 722.715 599.748 725.473 601.572C727.299 602.502 730.057 604.326 731.883 606.15C733.71 607.974 736.467 609.798 738.294 611.658C740.12 613.482 741.947 616.236 743.809 618.06C744.74 615.306 744.74 611.658 745.636 608.904V598.818C745.636 595.169 744.704 592.416 744.704 588.731C743.773 585.083 743.773 582.33 742.878 578.645C741.947 574.997 741.051 572.243 739.225 568.559C738.294 564.911 736.467 562.157 734.641 558.473C732.814 554.825 730.988 552.071 728.23 548.387C725.473 544.739 723.646 541.985 719.993 539.231C717.235 536.477 713.583 532.829 709.894 531.005C708.962 530.075 708.067 530.075 707.136 529.181C706.205 529.181 706.205 528.251 705.309 528.251L698.541 529.145C697.61 528.215 696.714 528.215 694.888 527.321L693.061 526.391L692.13 525.461H691.199C689.372 524.532 688.441 524.532 686.615 523.637C685.684 523.637 685.684 522.708 684.788 522.708L683.857 521.778H682.926L681.995 520.848C681.064 520.848 681.064 519.918 680.168 519.918C678.342 518.094 675.584 517.164 675.584 515.34C675.584 514.41 675.584 514.41 676.515 513.516H682.102C683.033 513.516 683.929 514.446 683.929 514.446C684.86 514.446 685.755 515.376 686.686 515.376C687.617 515.376 688.513 516.305 689.444 516.305L693.169 520.025L694.888 519.989C694.888 519.989 695.819 519.989 695.819 520.919C696.75 521.849 697.645 521.849 698.576 522.743C699.507 523.673 700.403 523.673 701.334 523.673V521.813C702.265 519.989 702.265 517.235 702.265 514.482L704.091 519.059V503.466L703.16 500.712V497.958L702.229 495.204C702.229 494.274 702.229 494.274 701.298 493.38L700.367 491.556C700.367 490.626 699.436 489.732 699.436 488.802V486.942L698.505 485.118C697.574 484.188 697.574 483.294 696.678 481.47C695.747 480.54 695.747 478.716 694.852 477.822C693.921 476.892 693.921 475.068 693.025 474.174C692.094 473.244 691.199 471.42 690.268 470.526L689.337 468.702C688.405 467.772 688.405 467.772 688.405 466.878C687.474 465.948 686.579 464.124 685.648 463.23L683.821 461.406C682.89 460.476 682.89 460.476 681.995 459.582C681.064 458.652 680.168 457.758 679.237 456.828H681.064C681.995 456.828 681.995 456.828 682.89 457.758H699.364C701.191 457.758 702.122 457.758 703.949 456.828H707.637L709.464 455.898H712.257C713.188 455.898 714.084 454.968 715.015 454.968L716.841 454.038H718.704C722.357 452.214 724.219 451.284 726.941 449.46C730.594 446.706 733.351 443.952 736.109 442.128C737.04 441.199 737.04 441.199 737.935 440.304L738.866 439.375V438.445L739.798 437.515C739.798 437.515 740.729 436.585 739.798 436.585C739.798 436.585 738.866 436.585 738.866 435.655V431.936C738.866 431.936 738.867 431.006 739.798 431.006C740.729 429.182 741.624 428.252 743.451 427.358C745.277 426.428 746.208 424.604 748.035 423.709C749.861 422.78 751.688 421.885 754.445 420.956C756.272 420.026 759.029 419.132 760.856 419.132C763.613 418.202 765.44 418.202 768.198 418.202C770.955 418.202 773.713 417.272 776.435 418.202C779.192 418.202 781.95 418.202 784.672 419.132C787.429 419.132 790.187 420.061 792.909 420.956C795.667 421.885 798.424 422.78 801.146 423.709C803.08 418.345 801.254 415.626 800.322 412.872ZM402.44 614.302C285.078 614.302 189.746 519.099 189.746 401.895C189.746 284.69 285.078 189.487 402.44 189.487C519.766 189.451 615.133 283.765 615.133 400.97C615.133 518.174 519.766 614.302 402.44 614.302Z" fill="black"/>
<path d="M592.213 400.961C592.213 505.649 507.228 590.479 402.44 590.479C297.611 590.479 212.63 505.644 212.63 400.961C212.63 296.278 297.615 211.443 402.44 211.443C507.233 211.443 592.213 296.278 592.213 400.961Z" fill="black"/>
</svg>
