<svg width="824" height="833" viewBox="0 0 824 833" fill="none" xmlns="http://www.w3.org/2000/svg">
<path fill-rule="evenodd" clip-rule="evenodd" d="M324.842 725.213C303.275 747.027 275.814 761.877 245.925 767.89C216.036 773.903 185.059 770.809 156.905 758.998C128.75 747.187 104.679 727.189 87.7305 701.527C70.7821 675.866 61.7157 645.692 61.6759 614.814C61.6011 594.347 65.5678 574.072 73.3424 555.181C81.1171 536.291 92.5426 519.167 106.946 504.819L281.263 328.584L499.158 548.777L324.842 725.213ZM383.942 259.119C380.122 262.852 375.022 264.938 369.714 264.938C364.407 264.938 359.307 262.852 355.486 259.119C353.636 257.246 352.169 255.022 351.167 252.574C350.166 250.127 349.65 247.503 349.65 244.853C349.65 242.203 350.166 239.579 351.167 237.131C352.169 234.683 353.636 232.459 355.486 230.587L465.927 117.97C478.179 104.715 491.49 92.5076 505.725 81.4728C518.472 71.3363 532.408 62.8364 547.215 56.1668C549.604 55.0549 552.187 54.4339 554.814 54.3394C557.441 54.2449 560.061 54.679 562.522 55.6164C564.983 56.5539 567.236 57.9762 569.151 59.8011C571.066 61.6261 572.606 63.8175 573.68 66.2488C574.762 68.6646 575.363 71.2728 575.448 73.9242C575.533 76.5755 575.101 79.2179 574.177 81.6998C573.253 84.1817 571.854 86.4545 570.062 88.3878C568.269 90.3211 566.118 91.877 563.731 92.9663C551.827 98.3611 540.577 105.127 530.201 113.13C517.853 123.109 506.155 133.886 495.178 145.393L383.942 259.119ZM610.394 83.9933C605.117 83.8329 600.118 81.5546 596.498 77.6596C592.878 73.7647 590.934 68.5721 591.092 63.2242C591.25 57.8764 593.499 52.8113 597.343 49.1432C601.186 45.4751 606.311 43.5046 611.588 43.665C625.083 44.3425 638.447 46.6784 651.387 50.6216C665.407 55.0142 678.944 60.859 691.782 68.0636C696.409 70.6211 699.846 74.9343 701.338 80.0567C702.83 85.1791 702.256 90.6922 699.741 95.386C698.517 97.7466 696.844 99.8377 694.817 101.538C692.79 103.239 690.45 104.515 687.933 105.294C685.417 106.072 682.772 106.336 680.154 106.072C677.535 105.808 674.995 105.02 672.679 103.754C662.249 97.7538 651.206 92.9196 639.746 89.3368C630.055 86.3323 620.023 84.6041 609.897 84.1949L610.394 83.9933ZM760.931 63.8292C720.38 22.9487 665.506 0 608.305 0C551.104 0 496.23 22.9487 455.679 63.8292L63.0688 460.861C43.0752 481.096 27.2139 505.126 16.392 531.577C5.57019 558.028 0 586.382 0 615.016C0 643.65 5.57019 672.004 16.392 698.455C27.2139 724.906 43.0752 748.936 63.0688 769.171C103.62 810.051 158.494 833 215.695 833C272.896 833 327.77 810.051 368.321 769.171L760.931 372.542C780.925 352.307 796.786 328.277 807.608 301.826C818.43 275.375 824 247.021 824 218.387C824 189.753 818.43 161.4 807.608 134.949C796.786 108.497 780.925 84.4674 760.931 64.2324V63.8292Z" fill="black"/>
</svg>
