<svg width="822" height="829" viewBox="0 0 822 829" fill="none" xmlns="http://www.w3.org/2000/svg">
<path d="M819.784 214.879C819.784 184.677 809.811 154.474 799.838 129.305C789.865 104.136 769.918 78.9674 749.972 63.866C739.999 53.7985 730.026 48.7647 720.053 43.7309L715.067 38.6971C705.094 28.6296 690.134 23.5958 675.175 18.562C660.215 13.5283 650.242 8.49449 635.283 3.46071H630.296C620.323 3.46071 605.363 3.46071 595.39 3.46071C565.471 3.46071 540.539 13.5283 515.606 23.5958C490.674 33.6634 465.741 53.7985 450.781 73.9336C450.781 73.9336 450.781 73.9336 445.795 73.9336C440.808 78.9673 440.808 78.9674 440.808 84.0011C455.768 104.136 465.741 124.271 470.727 149.44L560.485 446.433L695.121 496.771L625.309 667.919C610.35 713.223 575.444 748.459 535.552 768.595C535.552 768.595 535.552 768.595 530.566 768.595C510.62 793.763 485.687 813.899 455.768 829H460.754C490.673 829 525.579 823.966 555.498 808.865C610.35 783.696 650.242 738.392 670.188 683.02L809.811 305.487C814.797 290.386 819.784 275.285 819.784 260.183C819.784 255.149 819.784 255.149 819.784 250.116C819.784 240.048 824.77 229.981 819.784 214.879Z" fill="black"/>
<path d="M550.512 542.075L485.687 325.622L435.822 154.474C415.876 99.1025 380.97 48.7647 326.118 23.5958C276.253 -1.57306 216.415 -6.60683 156.577 8.4945C96.7385 23.5958 51.8598 63.866 26.9272 119.238C-2.99191 169.575 -7.97843 235.014 11.9676 290.386L131.644 672.953C146.604 728.324 186.496 778.662 241.348 803.831C271.267 823.966 311.159 829 346.064 829C351.051 829 356.037 829 356.037 829C375.984 829 390.943 823.966 410.889 818.932C465.741 798.797 515.606 763.561 540.539 708.189C565.471 662.885 570.458 602.48 550.512 542.075ZM66.8193 139.373C86.7654 99.1025 126.658 63.866 171.536 53.7985C186.496 48.7647 206.442 43.7309 226.388 43.7309C256.307 43.7309 281.24 48.7647 306.172 63.866C346.064 84.0011 375.984 124.271 390.943 169.575L440.808 340.724L101.725 441.399L51.8598 270.251C41.8868 229.981 46.8733 179.643 66.8193 139.373Z" fill="black"/>
</svg>
