<svg width="820" height="783" viewBox="0 0 820 783" fill="none" xmlns="http://www.w3.org/2000/svg">
<path d="M558.166 221.576H656.955C701.82 221.576 742.568 240.027 772.127 269.759C801.654 299.457 820 340.47 820 385.596V618.98C820 664.104 801.655 705.113 772.127 734.817C742.566 764.516 701.821 783 656.955 783H424.912C380.047 783 339.274 764.549 309.74 734.817C280.213 705.118 261.834 664.106 261.834 618.98V561.424H163.045C118.18 561.424 77.4324 542.973 47.8735 513.241C18.3456 483.542 0 442.53 0 397.404V164.02C0 118.896 18.3448 77.8874 47.9062 48.183C77.4341 18.4844 118.211 0 163.078 0H395.121C439.985 0 480.758 18.4508 510.292 48.183C539.82 77.8815 558.198 118.894 558.198 164.02V221.576H558.166ZM300.256 561.417V618.973C300.256 653.441 314.284 684.751 336.88 707.48C359.476 730.206 390.639 744.316 424.879 744.316H656.921C691.192 744.316 722.322 730.206 744.92 707.48C767.516 684.754 781.544 653.41 781.544 618.973V385.589C781.544 351.121 767.516 319.811 744.92 297.082C722.324 274.356 691.161 260.246 656.921 260.246H558.132V397.427C558.132 442.552 539.788 483.56 510.226 513.265C480.698 542.963 439.921 561.448 395.054 561.448H300.225L300.256 561.417Z" fill="black"/>
</svg>
