<svg width="831" height="657" viewBox="0 0 831 657" fill="none" xmlns="http://www.w3.org/2000/svg">
<path d="M102.521 254.426C113.979 243.999 130.079 237.117 150.561 233.958C150.399 221.713 152.281 192.367 173.348 179.675C176.756 177.619 180.522 176.13 184.547 175.176L203.569 117.973C176.043 118.301 155.626 124.111 145.53 134.538C138.941 141.331 136.637 150.001 138.422 161.055C140.337 172.972 139.298 180.54 135.013 185.544C130.112 191.295 122.679 191.95 115.472 192.576C107.747 193.261 99.762 193.976 93.0428 200.501C89.5372 203.897 88.1089 208.634 88.044 213.938C87.9791 218.645 89.0178 223.859 90.6733 229.073C93.5622 238.249 98.3338 247.515 102.489 254.397L102.521 254.426Z" fill="black"/>
<path d="M702.049 101.618C718.052 106.981 735.937 114.965 753.401 126.674C759.081 111.718 758.692 100.575 752.297 93.5142C739.671 79.6604 705.068 82.133 687.962 84.9932C687.702 88.8961 687.28 92.8887 686.663 96.9997C691.662 98.3404 696.823 99.8601 702.049 101.618Z" fill="black"/>
<path d="M290.628 145.321C298.71 136.175 310.59 130.931 326.009 129.65C327.827 124.942 331.43 116.63 337.24 107.9L318.933 91.1269C312.766 85.496 304.586 82.3977 295.887 82.3977H256.838C248.106 82.3977 240.024 85.0791 233.532 89.697L286.636 150.743C287.804 148.896 289.135 147.079 290.661 145.321L290.628 145.321Z" fill="black"/>
<path d="M327.822 82.9393L344.539 98.2529C352.037 89.6129 361.872 81.6877 374.499 77.6362C394.04 71.3796 415.918 75.7294 439.646 90.5366C447.89 86.3655 469.054 76.7423 495.346 72.7503C498.625 66.2255 507.843 49.9286 524.69 34.3465C510.699 30.2946 490.38 34.555 482.524 36.9981C480.837 37.5344 478.954 37.3556 477.396 36.5512C475.838 35.7468 474.702 34.3762 474.312 32.7675C472.137 24.0383 462.984 1.15709 446.916 0.0244664C433.186 -0.988484 411.632 29.6686 400.726 51.7154C399.947 53.2646 398.486 54.4266 396.701 54.9033C394.915 55.38 393 55.1118 391.475 54.1584C391.117 53.9499 355.379 32.3794 325.322 28.0296C321.134 27.4338 317.434 28.3276 313.993 30.7707C303.281 38.3977 297.666 58.5378 295.458 70.783H295.848C307.923 70.783 319.251 75.1031 327.821 82.9085L327.822 82.9393Z" fill="black"/>
<path d="M237.097 184.829C246.315 177.143 262.545 169.247 279.457 175.564C279.587 171.899 280.106 167.639 281.275 163.229L224.827 98.3993C222.944 101.081 221.419 104 220.38 107.188L198.177 173.984C209.441 174.431 222.425 178.036 237.097 184.859L237.097 184.829Z" fill="black"/>
<path d="M182.926 598.361C201.623 572.769 211.49 535.825 218.988 497.775C235.77 412.505 264.432 337.668 304.163 275.401C368.336 174.845 456.629 113.981 567.148 94.0519C509.694 64.2286 443.475 101.887 442.76 102.304C440.585 103.586 437.761 103.496 435.684 102.126C414.261 87.9439 395.109 83.3859 378.782 88.5998C349.211 98.0146 336.941 136.447 336.843 136.835C336.097 139.248 333.727 140.946 330.968 141.036C317.206 141.483 306.981 145.386 300.521 152.625C297.534 155.992 295.587 159.835 294.288 163.648V163.678C290.718 174.434 292.6 185.1 292.633 185.248C293.087 187.662 291.854 190.045 289.517 191.267C287.212 192.488 284.323 192.25 282.311 190.671C262.9 175.595 243.846 194.991 243.066 195.825C241.119 197.851 237.905 198.357 235.309 197.076C217.001 187.989 202.07 184.235 190.741 185.844C190.611 185.874 190.449 185.874 190.319 185.903C186.586 186.47 183.275 187.631 180.354 189.419C160.261 201.485 163.442 238.101 163.475 238.489C163.768 241.587 161.333 244.358 157.99 244.745C132.249 247.754 114.137 256.603 104.204 271.023C87.4869 295.245 98.7828 327.988 98.9126 328.315C99.9838 331.294 98.2634 334.542 95.0174 335.584C70.4781 343.599 56.3906 354.593 53.1116 368.268C47.3987 392.162 75.8012 417.963 76.0605 418.231C78.3976 420.317 78.6248 423.713 76.5474 426.037C60.9019 443.674 54.8965 459.912 58.7273 474.302C64.6999 496.766 92.5826 508.058 92.8751 508.177C94.6604 508.892 95.9913 510.322 96.4781 512.05C96.965 513.778 96.5755 515.625 95.3745 517.025C82.8452 532.011 78.0737 546.848 95.5693 570.385C108.196 587.367 139.909 583.137 152.698 580.574C147.05 570.087 143.837 558.378 143.318 546.818C143.285 544.494 147.018 544.256 147.245 546.58C149.063 557.961 153.64 569.431 160.749 579.143C163.151 579.411 165.293 580.961 166.04 583.255C166.299 584.089 166.364 584.923 166.234 585.757C171.006 590.852 176.589 595.202 182.951 598.42L182.926 598.361ZM218.826 272.602C227.103 250.852 245.962 233.155 273.619 238.428C277.287 239.084 277.027 244 273.327 244.298C249.079 245.579 240.542 264.081 241.549 283.923C241.613 284.727 241.678 286.485 241.906 287.14L223.306 298.283C204.057 287.617 190.587 292.771 182.634 311.749C181.531 314.371 180.557 317.261 179.94 319.853C178.577 325.037 170.267 324.173 170.234 318.84C170.526 288.242 189.548 269.86 218.859 272.631L218.826 272.602ZM97.3965 399.76C99.3765 391.09 103.986 383.91 110.348 377.802C114.016 374.734 123.364 365.736 127.649 372.38C128.201 373.304 128.298 374.317 128.201 375.3C127.779 387.158 123.916 397.466 126.545 408.073C127.844 412.214 131.706 414.627 135.601 416.981C140.308 419.722 145.274 421.837 150.013 424.816C154.006 427.17 153.454 433.039 149.137 434.767C121.838 446.357 91.0015 428.004 97.3958 399.79L97.3965 399.76ZM134.174 515.867C125.702 511.13 120.021 504.307 116.515 496.352C114.471 490.9 110.056 479.49 119.729 478.387C121.32 478.268 122.748 478.834 124.046 479.519C133.265 483.809 139.756 488.576 148.099 491.168C153.779 492.717 157.122 492.181 162.9 490.095C169.359 487.682 175.202 484.166 181.823 481.693C184.615 480.65 187.829 481.872 188.965 484.464C190.296 491.078 187.244 497.841 183.933 503.621C174.001 519.739 151.441 525.787 134.14 515.866L134.174 515.867Z" fill="black"/>
<path d="M585.265 91.1612H585.33C593.153 90.0887 601.105 89.1949 609.155 88.5394L581.207 15.8138C541.736 26.9859 519.501 56.4218 510.51 71.229C534.336 69.9777 560.823 74.3275 585.265 91.1906L585.265 91.1612Z" fill="black"/>
<path d="M674.361 94.0519C678.516 64.5565 672.122 40.5732 656.087 26.0933C641.674 13.0739 620.024 8.57464 593.537 13.0144L622.362 88.0334C632.943 88.1228 651.835 89.1656 674.362 94.0219L674.361 94.0519Z" fill="black"/>
<path d="M176.236 606.614C169.712 602.323 164.129 596.991 159.455 591.002C154.651 592.134 143.03 594.517 129.949 594.517C113.849 594.517 95.5418 590.883 85.1222 576.85C68.5353 554.535 67.1716 535.348 81.0323 515.506C70.7424 509.994 51.8835 497.451 46.4299 476.983C41.918 460.06 47.5984 441.797 63.3085 422.64C54.6091 413.613 34.9708 389.956 40.7161 365.735C44.6762 349.051 59.6722 335.852 85.2511 326.468C82.3298 314.998 77.7854 287.528 93.431 264.796C93.5933 264.528 93.8205 264.29 93.9829 264.051C90.8342 259.225 85.4139 250.317 81.259 240.068C70.9043 252.581 58.5046 269.146 46.6242 289.078C20.786 332.517 -7.9406 401.31 2.02439 482.707C11.0155 556.117 31.2704 603.397 62.2373 623.243C64.4445 624.643 79.0836 631.883 88.6272 633.372C105.766 636.381 122.71 633.64 135.629 630.751C152.28 626.967 165.524 618.476 176.236 606.648L176.236 606.614Z" fill="black"/>
<path d="M815.693 228.898C803.293 191.925 782.421 162.519 753.305 140.981C753.273 140.981 753.273 140.951 753.273 140.951C753.24 140.922 753.208 140.922 753.208 140.892C752.591 140.564 752.007 140.177 751.552 139.67L751.487 139.611H751.455C735.939 128.408 718.151 119.411 698.123 112.618C653.848 97.6321 614.603 99.6876 614.212 99.6876C604.312 100.432 594.671 101.475 585.258 102.816H585.193C585.03 102.846 584.868 102.876 584.673 102.905C584.511 102.935 584.381 102.965 584.219 102.965C584.154 102.965 584.089 102.995 584.057 102.995H584.024C339.112 138.24 258.035 364.489 231.41 499.778C223.815 538.271 213.785 575.72 194.861 602.865C192.524 606.232 190.024 609.449 187.395 612.488C174.931 626.878 159.123 637.306 138.673 641.924C130.655 643.741 121.242 645.469 111.082 646.065C150.813 661.915 220.313 664.269 310.681 627.564C373.296 602.12 434.612 575.932 493.918 550.576C580.356 513.632 654.985 481.754 708.059 463.284C818.678 424.821 854.908 345.957 815.695 228.874L815.693 228.898ZM352.46 485.839C345.806 485.839 340.418 478.748 340.418 469.989C340.418 461.23 345.806 454.14 352.46 454.14C359.114 454.14 364.503 461.23 364.503 469.989C364.503 478.748 359.114 485.839 352.46 485.839ZM432.376 342.923C423.028 342.923 415.432 332.913 415.432 320.578C415.432 308.244 423.028 298.233 432.376 298.233C441.725 298.233 449.321 308.244 449.321 320.578C449.321 332.913 441.725 342.923 432.376 342.923ZM467.335 469.99C460.681 469.99 455.293 462.899 455.293 454.14C455.293 445.381 460.681 438.29 467.335 438.29C473.989 438.29 479.378 445.381 479.378 454.14C479.378 462.899 473.989 469.99 467.335 469.99ZM537.254 231.316C530.6 231.316 525.211 224.225 525.211 215.466C525.211 206.708 530.6 199.617 537.254 199.617C543.908 199.617 549.296 206.707 549.296 215.466C549.296 224.225 543.908 231.316 537.254 231.316ZM621.556 374.621C614.901 374.621 609.513 367.53 609.513 358.771C609.513 350.012 614.902 342.922 621.556 342.922C628.21 342.922 633.598 350.012 633.598 358.771C633.598 367.53 628.21 374.621 621.556 374.621ZM648.4 247.165C641.746 247.165 636.358 240.074 636.358 231.315C636.358 222.557 641.746 215.466 648.4 215.466C655.054 215.466 660.443 222.556 660.443 231.315C660.443 240.074 655.054 247.165 648.4 247.165ZM733.932 301.21C727.278 301.21 721.889 294.119 721.889 285.36C721.889 276.601 727.278 269.51 733.932 269.51C740.586 269.51 745.974 276.601 745.974 285.36C745.974 294.119 740.586 301.21 733.932 301.21Z" fill="black"/>
</svg>
