<svg width="569" height="828" viewBox="0 0 569 828" fill="none" xmlns="http://www.w3.org/2000/svg">
<path fill-rule="evenodd" clip-rule="evenodd" d="M115.308 158.173H40.663C18.1465 158.173 0 175.401 0 196.166V790.007C0 800.437 4.58203 809.933 11.9597 816.826L11.9193 816.863C19.8521 823.747 28.7538 828 40.663 828H528.337C550.854 828 569 810.772 569 790.007V196.166C569 185.736 564.418 176.241 557.04 169.347L557.081 169.31C549.148 162.426 540.246 158.173 528.337 158.173H453.682C442.984 158.173 434.304 150.063 434.304 140.068C434.304 15.7453 272.682 -46.8497 178.558 41.0926C151.449 66.4211 134.686 101.415 134.686 140.068C134.686 150.063 126.016 158.173 115.308 158.173ZM300.406 86.0162L300.446 86.0539L300.406 86.0916C321.378 105.687 289.566 135.409 268.594 115.814C247.581 96.1815 279.534 66.5154 300.406 86.0162ZM284.5 43.7235C301.334 43.7235 316.645 50.1452 327.767 60.5274L327.807 60.4897C366.522 96.6624 338.394 158.173 284.5 158.173C230.242 158.173 202.568 96.5681 241.314 60.452C252.426 50.1075 267.696 43.7235 284.5 43.7235ZM213.569 578.912C190.81 561.9 171.17 541.325 157.818 519.108C91.7517 409.213 214.498 365.657 270.199 422.858C277.849 430.713 291.151 430.723 298.811 422.858C318.562 402.546 345.893 395.087 370.65 398.312C453.531 409.1 450.14 508.151 355.441 578.912C333.752 595.122 309.207 608.088 284.51 616.16C259.803 608.088 235.258 595.122 213.569 578.912ZM278.677 652.483C134.645 610.304 39.9969 448.149 143.708 380.424C185.159 353.351 243.453 355.284 284.5 385.969C375.999 317.565 528.034 398.586 444.942 536.789C413.231 589.53 351.616 634.406 290.334 652.493C286.387 653.643 282.34 653.568 278.677 652.483Z" fill="black"/>
</svg>
