<svg width="655" height="832" viewBox="0 0 655 832" fill="none" xmlns="http://www.w3.org/2000/svg">
<path d="M25.1508 591.174C53.9669 625.63 129.619 708.85 187.252 769.19C223.487 807.433 279.995 830.106 340.21 830.632L438.251 832V831.947C557.956 831.737 654.932 754.671 655 659.56V487.751C654.934 470.918 645.063 455.031 628.304 444.773C611.544 434.516 589.684 430.992 569.147 435.252C558.548 437.356 548.81 441.775 541.06 447.877C532.912 424.31 506.017 407.897 475.213 407.739C458.188 407.792 441.825 412.79 429.106 421.785C422.945 404.268 406.052 390.433 384.259 384.962C362.463 379.438 338.616 383.068 320.928 394.536V193.114C321.326 167.654 300.193 145.139 269.323 138.143C248.986 133.777 227.191 137.354 210.697 147.822C193.738 158.08 183.802 174.019 183.868 190.957V545.927L120.472 500.424C93.1125 480.803 51.6435 480.698 24.1519 500.109C-22.3521 533.775 9.91455 572.604 25.1508 591.174Z" fill="black"/>
<path d="M388.897 346.981C475.147 299.585 512.642 213.156 481.374 133.668C450.106 54.1309 357.364 0 252.432 0C147.567 0.0526145 54.8301 54.2346 23.6262 133.721C-7.5743 213.258 29.9194 299.685 116.236 347.034C123.986 351.242 134.519 349.664 139.818 343.509C145.118 337.355 143.131 328.991 135.38 324.782C61.3843 284.067 29.2561 209.895 56.0847 141.662C82.9794 73.3813 162.539 26.9319 252.635 26.9319C342.662 26.9845 422.222 73.4864 449.05 141.714C475.879 209.995 443.685 284.165 369.623 324.835C365.781 326.834 363.065 329.938 362.204 333.515C361.276 337.092 362.27 340.774 364.853 343.773C367.503 346.771 371.478 348.823 376.049 349.401C380.553 350.032 385.187 349.138 388.897 346.981Z" fill="black"/>
<path d="M372.464 245.402C381.076 248.348 391.079 245.191 394.788 238.405C411.217 207.368 410.886 172.387 393.993 141.561C392.668 139.825 391.609 138.036 390.549 136.3C389.157 134.091 387.766 131.882 386.176 129.725C358.949 91.8495 308.406 68.3352 253.489 68.0726C198.571 67.8622 147.629 90.9028 119.873 128.515C116.031 133.039 112.785 137.826 110.268 142.876C94.1702 173.439 94.1702 207.843 110.268 238.407C113.977 245.193 123.98 248.349 132.592 245.403C141.138 242.457 145.112 234.514 141.403 227.675C129.015 203.899 129.015 177.123 141.535 153.346C143.324 149.716 145.642 146.244 148.424 143.035C169.557 113.155 209.437 94.7975 252.561 95.0076C295.62 95.0602 335.3 113.367 356.697 143.035C358.022 144.771 359.082 146.56 360.142 148.296C361.533 150.505 362.924 152.714 363.719 153.609C376.04 177.333 376.04 203.951 363.653 227.676C359.943 234.514 363.918 242.404 372.464 245.402Z" fill="black"/>
</svg>
