<svg width="714" height="833" viewBox="0 0 714 833" fill="none" xmlns="http://www.w3.org/2000/svg">
<path fill-rule="evenodd" clip-rule="evenodd" d="M443.39 210.37L489.181 170.306C426.561 116.827 339.826 97.9873 259.393 120.37C178.966 142.789 116.086 203.319 92.8334 280.734C69.543 358.152 89.1521 441.645 144.748 501.925C200.305 562.202 284.111 590.841 366.756 577.787C449.361 564.733 519.266 511.796 551.914 437.593C584.557 363.359 575.392 278.238 527.647 212.034C512.359 225.05 496.656 238.213 481.029 251.23C514.349 301.347 519.082 364.265 493.538 418.463C468.032 472.666 415.704 510.742 354.588 519.64C293.47 528.499 231.823 507.02 190.808 462.508C149.788 417.96 134.987 356.49 151.44 299.144C167.893 241.796 213.422 196.348 272.359 178.445C331.298 160.51 395.682 172.512 443.39 210.37ZM378.966 266.706V266.67C337.908 241.9 284.153 249.928 252.864 285.545C221.61 321.162 222.286 373.484 254.479 408.345C286.71 443.203 340.615 449.929 380.995 424.147C421.377 398.365 435.952 347.923 415.142 305.799C430.318 293.251 446.358 279.981 462.699 266.422V266.458C490.384 310.247 493.389 364.487 470.7 410.845C447.973 457.237 402.595 489.491 349.858 496.759C297.154 504.027 244.152 485.332 208.84 446.968C173.492 408.603 160.57 355.737 174.394 306.237C188.217 256.734 226.946 217.213 277.512 201.052C328.037 184.925 383.631 194.29 425.483 226.038L378.978 266.681L378.966 266.706ZM345.046 364.846C358.982 352.661 376.487 337.944 396.134 321.599V321.563C408.342 353.347 395.307 389.001 365.142 406.502C334.978 423.966 296.136 418.325 272.658 393.051C249.217 367.739 247.714 329.989 269.164 303.086C290.577 276.147 328.854 267.722 360.297 282.945L309.622 327.24V327.277C298.841 336.678 298.052 352.733 307.819 363.074C317.623 373.452 334.265 374.211 345.046 364.81L345.046 364.846ZM626.591 55.3552L637.297 12.8315L637.259 12.8677C638.687 7.33525 635.193 1.73083 629.446 0.320099C626.666 -0.36692 623.736 0.0669818 621.294 1.4772C618.815 2.88737 617.049 5.16546 616.336 7.84123L599.731 73.6874L614.156 61.0677C617.687 58.1387 621.97 56.1862 626.553 55.3545L626.591 55.3552ZM546.765 120.008L565.923 43.8565C567.464 38.3965 573.211 35.106 578.921 36.4439C584.631 37.7817 588.162 43.2779 586.922 48.7739L575.465 94.8772L546.728 120.007L546.765 120.008ZM656.683 87.2837C655.368 91.659 652.851 95.6365 649.395 98.7825C646.202 102.543 642.596 106.521 638.652 110.715L704.728 101.676C710.626 100.88 714.721 95.6008 713.894 89.9241C713.067 84.2471 707.583 80.3054 701.686 81.1374L656.645 87.2844L656.683 87.2837ZM318.265 336.42L622.275 70.7233C634.896 59.6948 650.673 80.9928 640.418 89.9598L336.409 355.657C330.887 360.466 322.36 360.068 317.326 354.753C312.33 349.474 312.743 341.266 318.265 336.42ZM571.566 174.029C575.774 175.294 580.206 175.656 584.527 175.078L602.896 172.583V172.546C663.526 262.077 673.03 375.075 628.102 472.818C583.175 570.56 489.979 639.763 380.36 656.796C270.74 673.828 159.63 636.33 85.0247 557.174C10.4587 477.986 -17.4496 367.883 10.8347 264.54C39.1584 161.198 119.81 78.6457 225.256 45.164C330.702 11.6804 446.591 31.7851 533.208 98.607L528.813 116.036H528.85C527.273 122.074 527.874 128.475 530.541 134.115L506.988 154.762C438.582 95.0635 343.054 73.4397 254.177 97.5582C165.299 121.641 95.5804 188.064 69.5868 273.363C43.5932 358.661 65.0414 450.797 126.309 517.297C187.578 583.794 280.098 615.252 371.157 600.572C462.252 585.928 539.072 527.169 574.5 445.086C609.961 363.041 599.067 269.17 545.65 196.671C554.553 189.006 563.23 181.449 571.607 174.072L571.566 174.029ZM163.352 647.244L85.1795 771.091C70.1911 794.811 74.5109 816.904 94.3453 827.716C99.717 830.609 105.69 832.381 111.813 832.923C133.338 834.044 153.509 822.835 163.315 804.358L243.14 676.318C215.417 669.773 188.633 660.01 163.39 647.246L163.352 647.244ZM411.546 676.28L491.372 804.32V804.356C501.176 822.833 521.349 834.006 542.873 832.921C554.857 832.054 565.863 826.123 572.85 816.686C580.476 805.766 581.302 789.747 569.507 771.053L491.297 647.243C466.054 660.008 439.269 669.772 411.546 676.28ZM662.741 146.478L591.519 156.241C600.948 147.671 609.775 139.463 617.852 131.689L659.737 125.976L659.699 125.94C662.592 125.506 665.522 126.157 667.851 127.82C670.218 129.447 671.758 131.942 672.171 134.727C672.584 137.511 671.795 140.295 670.03 142.537C668.264 144.743 665.634 146.189 662.741 146.478Z" fill="black"/>
</svg>
