<svg width="801" height="589" viewBox="0 0 801 589" fill="none" xmlns="http://www.w3.org/2000/svg">
<path d="M369.803 1.58032C382.096 -2.74092 396.005 1.97314 406.17 13.601C410.353 18.3936 418.096 18.3936 422.243 13.601C432.444 1.9333 446.426 -2.66258 458.61 1.58032C470.94 5.86224 479.16 17.9224 481.142 34.6969C482.793 48.4855 478.169 61.2917 470.536 72.6446C469.876 73.391 469.325 74.2553 468.848 75.1981C454.793 94.4475 431.711 109.061 414.242 115.699H414.059C396.518 109.021 373.289 94.2897 359.234 74.8833C358.867 74.1762 358.463 73.5084 357.986 72.9192C350.206 61.527 345.582 48.6022 347.197 34.6959C349.252 17.8821 357.473 5.82322 369.803 1.58032Z" fill="black"/>
<path d="M406.789 137.938C409.211 138.842 411.706 139.274 414.238 139.274C416.734 139.274 419.266 138.803 421.651 137.938C441.395 130.435 465.394 115.036 482.348 94.176C506.054 101.168 528.33 111.421 548.697 124.935C553.688 128.432 556.513 134.128 556.33 140.688C556.146 147.602 552.734 153.652 547.156 156.873C515.963 174.983 466.274 185.786 414.204 185.786C362.167 185.786 312.443 174.983 281.291 156.912C275.75 153.652 272.263 147.602 272.117 140.688C271.933 134.167 274.759 128.589 279.64 125.131C300.044 111.539 322.356 101.168 346.135 94.176C363.053 114.996 387.083 130.396 406.789 137.938Z" fill="black"/>
<path d="M250.971 147.402C252.99 160.208 259.926 171.286 270.788 177.572C305.54 197.763 357.834 209.313 414.242 209.313C470.609 209.313 522.937 197.763 557.696 177.531C568.596 171.207 575.531 160.089 577.513 147.244C591.936 160.169 605.036 174.939 616.743 191.32C620.229 196.152 622.651 202.908 623.422 210.255C623.642 213.437 623.862 216.147 623.862 219.133C623.972 221.922 622.871 223.729 621.88 224.79C620.449 226.283 618.725 226.99 616.266 226.911C613.073 226.675 609.697 226.204 606.321 225.733C595.385 224.24 582.908 222.551 571.973 226.636C561.66 230.172 553.661 238.657 545.881 246.906C538.909 254.213 531.716 261.874 524.817 263.288C518.982 264.584 510.211 260.656 501.698 256.963C491.349 252.485 479.569 247.299 467.716 248.556C456.487 249.695 446.652 256.491 437.147 263.013C429.147 268.591 420.853 274.248 414.248 274.248C407.643 274.248 399.349 268.512 391.349 263.013C381.845 256.491 372.009 249.696 360.744 248.556C348.891 247.378 337.184 252.484 326.798 256.963C318.285 260.656 309.404 264.466 303.679 263.288C296.78 261.834 289.588 254.252 282.615 246.906C274.835 238.657 266.799 230.171 256.78 226.715C245.514 222.551 233.074 224.2 222.138 225.693C218.762 226.165 215.422 226.597 212.303 226.872C210.174 226.95 208.083 226.282 206.578 224.75C205.624 223.729 204.45 221.922 204.596 218.622C204.596 216.422 204.78 214.026 205 210.373C205.734 203.655 207.899 197.645 210.908 192.891C222.835 175.96 236.193 160.679 250.982 147.401L250.971 147.402Z" fill="black"/>
<path d="M53.762 341.304L50.8262 305.203C49.1748 284.382 40.8445 264.387 27.3399 248.791L0 220.232L64.5506 214.3C82.092 212.493 99.2295 220.271 110.422 234.649L145.174 278.411C125.542 340.558 123.413 401.686 138.972 454.091C92.8068 439.517 58.0186 394.928 53.762 341.304Z" fill="black"/>
<path d="M415.967 588.879H412.224C298.682 591.314 217.617 557.098 177.69 489.215C138.791 423.101 141.433 328.902 184.773 237.286C185.287 236.147 185.984 235.125 186.534 233.986C187.892 236.657 189.14 239.407 191.231 241.607C197.176 247.775 205.177 251.035 213.911 250.367C217.507 250.092 221.213 249.582 224.957 249.071C233.911 247.814 243.232 246.596 249.874 249.071C255.122 250.878 261.25 257.36 267.195 263.606C276.076 272.955 286.094 283.602 299.562 286.39C311.783 288.865 323.672 283.758 335.159 278.769C343.563 275.116 352.15 271.541 358.792 271.934C364.663 272.562 372.223 277.748 379.489 282.776C389.69 289.808 401.25 297.782 414.351 297.782C427.452 297.782 438.938 289.808 449.176 282.776C456.443 277.748 464.002 272.562 469.837 271.934C476.259 271.502 485.103 275.116 493.506 278.769C505.03 283.758 517.029 288.943 529.103 286.39C542.534 283.601 552.626 272.956 561.47 263.606C567.415 257.36 573.544 250.839 579.085 248.953C585.47 246.596 594.718 247.853 603.709 249.032C607.452 249.543 611.195 250.053 614.865 250.328C623.452 250.996 631.525 247.736 637.433 241.568C639.561 239.329 640.883 236.54 642.277 233.79C642.864 234.968 643.561 236.068 644.149 237.286C687.378 328.935 689.91 423.133 650.938 489.255C610.791 557.138 529.068 591.159 415.967 588.879Z" fill="black"/>
<path d="M709.245 447.693C703.263 448.911 697.025 449.579 690.712 449.933C694.933 434.691 697.758 418.819 699.043 402.32C699.667 402.242 700.107 402.124 700.767 402.006C748.144 392.106 774.235 352.116 768.731 320.846C763.116 291.108 727.41 265.888 681.759 273.077C676.915 258.385 671.373 243.771 664.585 229.118C665.979 228.765 667.337 228.175 668.768 227.9C730.639 215.094 787.74 253.238 799.117 314.757C810.273 376.197 770.786 434.529 709.245 447.693Z" fill="black"/>
</svg>
