<svg width="344" height="370" viewBox="0 0 344 370" fill="none" xmlns="http://www.w3.org/2000/svg">
<path id="Vector" d="M342.063 202.39L313.152 144.3C311.41 60.495 249.755 0 165.11 0C80.465 0 0 59.94 0 160.395C0 210.715 17.9392 253.82 52.0758 286.01V370H226.243V333H261.076C280.234 333 295.909 316.35 295.909 296V240.5H317.854C322.126 240.495 326.331 239.378 330.102 237.246C333.873 235.114 337.094 232.033 339.483 228.272C341.873 224.51 343.357 220.184 343.807 215.672C344.257 211.16 343.658 206.599 342.063 202.39ZM223.108 181.67C217.708 194.435 205.517 203.5 191.409 203.5C188.623 203.5 186.01 203.13 183.398 202.39C179.384 208.437 174.062 213.37 167.879 216.776C161.696 220.182 154.833 221.959 147.868 221.959C140.902 221.959 134.039 220.182 127.856 216.776C121.673 213.37 116.351 208.437 112.338 202.39C109.725 203.13 107.113 203.5 104.326 203.5C85.1675 203.5 69.4925 186.85 69.4925 166.5C69.4925 159.655 71.4083 153.55 74.3692 148C71.4083 142.45 69.4925 136.345 69.4925 129.5C69.4925 109.15 85.1675 92.5 104.326 92.5C105.893 92.5 107.461 92.87 108.854 93.055C114.776 81.77 126.097 74 139.159 74C146.823 74 153.789 76.775 159.537 81.215C166.329 76.775 174.167 74 182.701 74C205.343 74 223.804 92.5 225.894 115.81C236.518 122.1 243.659 134.125 243.659 148C243.659 162.985 235.125 175.935 223.108 181.67Z" fill="black"/>
</svg>
