<svg width="641" height="807" viewBox="0 0 641 807" fill="none" xmlns="http://www.w3.org/2000/svg">
<path d="M462.588 513.663L443.625 476.751L440.603 478.725C386.331 513.923 331.745 535.695 287.287 542.488C274.165 544.494 261.791 545.206 250.338 544.591L258.28 560.055C265.589 574.192 289.56 578.171 322.422 573.157C361.673 567.139 410.565 547.437 459.775 515.508L462.588 513.663ZM310.561 66.1224C364.776 101.288 408.922 143.603 436.488 183.592C441.898 191.453 446.703 199.282 450.876 207.046C479.393 198.99 505.58 195.917 527.335 198.117C557.205 201.126 580.024 213.904 591.967 237.132L592.887 239.008L632.915 316.876C650.066 350.262 639.131 395.23 607.678 440.913C586.125 472.164 554.384 504.903 515.565 534.539C518.673 537.968 521.493 541.494 524.025 545.117C533.492 558.705 539.161 574.136 539.017 591.573V682.773C539.017 721.238 509.522 754.074 461.866 775.943C420.14 795.127 363.078 807 300.659 807C238.241 807 181.178 795.127 139.453 775.943C91.799 754.042 62.3011 721.238 62.3011 682.773V590.704C62.3011 558.741 82.2429 534.316 104.631 517.72C122.3 504.619 145.465 493.425 172.428 484.885C169.493 469.032 171.363 451.564 177.493 433.188C182.557 418.016 190.672 401.97 201.463 385.632C188.082 378.644 174.558 370.75 161.061 362.08C159.939 361.498 158.874 360.819 157.838 360.042C104.286 325.038 60.6341 283.079 33.2961 243.451C1.84382 197.804 -9.03391 152.864 8.05913 119.546L47.8852 42.0014L49.0074 39.7045C66.1292 6.35113 106.215 -5.48938 157.122 2.30712C201.639 9.13316 256.315 30.9697 310.586 66.1674L310.561 66.1224ZM390.527 347.091C379.074 347.706 366.7 347.027 353.578 345.021C308.975 338.195 254.297 316.358 200.085 281.161L198.905 280.319C187.481 272.879 176.517 265.115 166.072 257.091L147.194 293.842C157.87 302.091 169.18 310.147 181.064 317.878L182.733 319.011C231.394 350.326 279.65 369.672 318.473 375.624C351.306 380.639 375.277 376.66 382.557 362.49L390.5 347.059L390.527 347.091ZM130.474 227.262C119.28 216.942 108.949 206.428 99.6254 195.913L81.6116 231.014C90.4458 241.819 100.575 252.722 111.856 263.495L130.474 227.262ZM69.1802 156.057C63.2811 146.837 58.245 137.681 54.13 128.688L46.2166 144.12C41.152 153.987 43.9433 169.289 52.9791 187.664L69.2087 156.057H69.1802ZM106.474 664.875V682.733C106.474 699.135 125.409 716.054 155.999 730.095C192.516 746.884 243.626 757.269 300.63 757.269C306.903 757.269 313.119 757.139 319.219 756.913V714.533C313.09 714.76 306.874 714.889 300.63 714.889C238.185 714.889 181.149 703.016 139.424 683.832C127.165 678.203 116.143 671.831 106.474 664.875ZM363.419 752.87C372.598 751.543 381.49 749.926 390.037 748.049V706.349C381.404 708.063 372.512 709.552 363.419 710.781V752.87ZM434.237 734.785C438.036 733.297 441.69 731.712 445.23 730.095C475.819 716.054 494.754 699.135 494.754 682.732V664.875C485.086 671.863 474.064 678.204 461.805 683.833C453.23 687.78 443.992 691.436 434.209 694.703V734.785L434.237 734.785ZM544.621 389.533L562.548 424.439C566.203 419.813 569.627 415.187 572.764 410.593C593.051 381.121 602.001 355.823 594.72 341.686L586.749 326.157C581.512 337.642 574.778 349.353 566.663 361.097C560.217 370.478 552.822 379.989 544.621 389.501V389.533ZM530.031 460.058L511.413 423.792C501.83 432.689 491.586 441.424 480.737 449.965L499.614 486.683C510.492 477.98 520.679 469.052 530.031 460.025V460.058Z" fill="black"/>
</svg>
