<svg width="688" height="828" viewBox="0 0 688 828" fill="none" xmlns="http://www.w3.org/2000/svg">
<path d="M649.97 79.6154H38.0302L0 167.192H688L649.97 79.6154Z" fill="black"/>
<path d="M544.523 35.0308C544.523 15.9231 527.236 0 506.492 0H181.508C160.764 0 143.477 15.9231 143.477 35.0308V46.1769H544.523V35.0308Z" fill="black"/>
<path d="M632.683 270.692L644.784 202.223H43.2161L55.3166 270.692H632.683Z" fill="black"/>
<path d="M150.392 828H537.608L572.181 624.185H115.819L150.392 828Z" fill="black"/>
<path d="M340.543 429.923C364.744 425.146 385.487 410.815 397.588 385.338C369.93 358.269 321.528 383.746 297.327 417.185C283.497 436.292 276.583 458.585 278.312 477.692C290.412 450.623 311.156 437.885 340.543 429.923Z" fill="black"/>
<path d="M347.457 463.362C345.729 463.362 338.814 464.954 338.814 464.954C319.799 469.731 300.784 484.062 290.412 506.354C316.342 531.831 364.744 509.538 390.673 474.508C404.503 455.4 411.417 433.108 409.688 414C399.317 442.662 373.387 458.585 347.457 463.362Z" fill="black"/>
<path d="M89.8895 589.154H598.111L646.513 305.723H41.4874L89.8895 589.154ZM264.482 399.669C302.513 347.123 368.201 326.423 411.417 351.9C454.633 378.969 459.819 442.662 423.518 495.208C385.487 547.754 319.799 568.454 276.583 542.977C233.367 515.908 228.181 452.215 264.482 399.669Z" fill="black"/>
</svg>
