<svg width="763" height="785" viewBox="0 0 763 785" fill="none" xmlns="http://www.w3.org/2000/svg">
<path d="M409.214 26.8361C402.711 11.0653 387.441 0 369.656 0C351.871 0 336.601 11.0653 330.098 26.8361C342.888 24.1158 356.11 22.6453 369.656 22.6453C383.201 22.6453 396.423 24.1158 409.214 26.8361Z" fill="black"/>
<path d="M543.337 134.214H600.751L602.619 109.511C600.607 75.8743 570.642 49.553 534.39 49.553H466.699C499.718 69.3309 526.558 98.8133 543.337 134.214Z" fill="black"/>
<path d="M582.492 375.744L599.666 148.895H549.545C557.917 170.952 562.552 194.92 562.552 219.992V375.751L582.492 375.744Z" fill="black"/>
<path d="M138.558 134.214H195.973C212.752 98.8133 239.591 69.3309 272.609 49.553H204.919C168.631 49.553 138.666 75.8743 136.689 109.511L138.558 134.214Z" fill="black"/>
<path d="M176.748 375.744V219.985C176.748 194.913 181.383 170.983 189.754 148.889H139.634L156.808 375.738L176.748 375.744Z" fill="black"/>
<path d="M722.906 318.649C723.948 318.502 723.912 316.921 722.87 316.811C707.6 315.34 684.533 310.819 681.623 293.063C679.18 278.102 677.024 262.221 675.91 253.361C675.767 252.295 674.258 252.295 674.15 253.361C673 262.257 670.88 278.138 668.401 293.063C665.778 308.907 641.203 314.936 627.119 317.068C626.077 317.216 626.112 318.796 627.154 318.907C642.425 320.377 665.491 324.899 668.401 342.654C670.844 357.615 673 373.496 674.15 382.357C674.294 383.423 675.803 383.423 675.91 382.357C677.06 373.46 679.18 357.58 681.623 342.654C684.246 326.81 708.821 320.781 722.906 318.649Z" fill="black"/>
<path d="M737.42 460.179C722.833 451.209 719.743 416.874 719.743 416.874C719.743 416.874 716.653 451.208 702.065 460.179C702.065 460.179 693.945 467.494 676.447 468.487C688.771 473.266 698.652 476.538 705.945 484.736C712.843 492.492 716.831 516.387 719.742 529.584C722.616 516.424 726.64 492.529 733.503 484.736C740.796 476.538 750.677 473.266 763 468.487C745.503 467.494 737.382 460.179 737.382 460.179H737.42Z" fill="black"/>
<path d="M92.3117 174.361C77.6163 172.927 55.6997 168.516 52.8971 151.569C50.5617 137.342 48.5138 122.233 47.4359 113.668C47.2922 112.602 45.7832 112.602 45.6754 113.668C44.5616 122.27 42.5496 137.379 40.2141 151.569C37.7351 166.715 14.3453 172.523 0.763735 174.618C-0.278195 174.765 -0.242322 176.346 0.799673 176.419C15.495 177.853 37.4116 182.264 40.2142 199.211C42.5496 213.438 44.5975 228.547 45.6754 237.112C45.8191 238.178 47.3282 238.178 47.436 237.112C48.5497 228.51 50.5618 213.401 52.8972 199.211C55.3763 184.066 78.7661 178.257 92.3476 176.162C93.3895 176.015 93.3537 174.435 92.2758 174.361H92.3117Z" fill="black"/>
<path d="M116.851 41.6865C103.342 33.3785 100.468 1.58013 100.468 1.58013C100.468 1.58013 97.63 33.3785 84.0851 41.6865C84.0851 41.6865 76.5759 48.4505 60.3722 49.3696C71.7978 53.8178 80.9597 56.8322 87.7146 64.4421C94.1099 71.6472 97.8111 93.7777 100.469 105.983C103.128 93.7777 106.829 71.648 113.224 64.4421C119.979 56.8325 129.141 53.8181 140.566 49.3696C124.362 48.4506 116.851 41.6865 116.851 41.6865Z" fill="black"/>
<path d="M489.152 622.037C454.875 643.836 413.809 656.556 369.654 656.556C328.084 656.556 289.209 645.27 256.189 625.75L223.063 762.208C221.733 767.722 222.919 773.457 226.332 777.942C229.745 782.427 234.919 785 240.488 785H506.683C512.288 785 517.462 782.427 520.875 777.905C524.288 773.384 525.474 767.611 524.109 762.098L489.15 622.073L489.152 622.037Z" fill="black"/>
<path d="M369.654 641.818C468.889 641.818 551.633 573.369 568.557 483.49H170.714C187.636 573.371 270.382 641.818 369.617 641.818H369.654ZM237.794 520.211C242.932 528.335 249.04 536.055 255.938 543.223C284.861 573.294 324.814 590.939 368.428 592.887L367.817 607.592C320.535 605.496 277.168 586.307 245.697 553.553C238.152 545.686 231.433 537.194 225.756 528.224L237.794 520.211Z" fill="black"/>
<path d="M598.34 390.444H548.147V219.985C548.147 119.26 468.061 37.3198 369.654 37.3198C271.21 37.3198 191.124 119.26 191.124 219.985V390.444H140.931C126.128 390.444 114.056 402.759 114.056 417.942C114.056 445.991 136.368 468.819 163.782 468.819H575.458C602.872 468.819 625.183 445.99 625.183 417.942C625.183 402.796 613.147 390.444 598.308 390.444H598.34ZM212.675 219.985C212.675 131.427 283.095 59.3789 369.645 59.3789C456.194 59.3789 526.578 131.43 526.578 219.985V390.444H212.665L212.675 219.985ZM575.483 446.731H163.806C148.285 446.731 135.638 433.791 135.638 417.91C135.638 414.932 138.009 412.469 140.956 412.469H598.336C601.246 412.469 603.653 414.895 603.653 417.91C603.653 433.791 591.004 446.731 575.483 446.731Z" fill="black"/>
</svg>
