<svg width="741" height="764" viewBox="0 0 741 764" fill="none" xmlns="http://www.w3.org/2000/svg">
<path d="M312.929 0C228.412 0 151.874 11.0859 95.5443 29.468C67.38 38.658 44.2133 49.6323 27.4669 62.5541C11.255 75.0616 0.911576 90.0686 0.252368 106.606C0.125312 107.102 0.040605 107.599 0.00460578 108.095V108.287C-0.00153526 108.478 -0.00153526 108.668 0.00460578 108.84V575.032C0.0050293 592.232 10.7205 607.795 27.4671 620.726C44.2137 633.657 67.3792 644.616 95.5445 653.812C151.875 672.204 228.413 683.28 312.929 683.28C379.285 683.28 440.271 676.224 490.857 664.406V754.451C490.858 759.726 495.598 764 501.445 764C565.646 763.987 623.752 755.918 666.758 742.403C688.262 735.644 706.029 727.588 719.078 717.896C732.127 708.203 740.943 696.133 740.957 682.497L741 267.408C741.021 265.408 740.364 263.452 739.098 261.814C736.93 250.664 730.154 240.458 719.08 232.233C706.036 222.546 688.262 214.518 666.76 207.763C654.39 203.879 640.475 200.581 625.815 197.653V108.579C625.814 91.3411 615.141 75.736 598.393 62.7721C581.646 49.8082 558.483 38.7859 530.316 29.5729C473.982 11.1565 397.448 0.0699398 312.931 0.0699398L312.929 0ZM312.929 19.0982C395.375 19.0982 469.992 30.1268 523.076 47.4833C549.618 56.1615 570.728 66.4564 584.577 77.1762C598.427 87.898 604.636 98.365 604.637 108.508V193.967C581.351 190.322 556.114 187.966 529.362 186.954C534.656 185.235 540.189 183.618 545.12 181.769C558.422 176.992 550.163 159.016 537.014 164.127C505.137 176.08 463.431 185.571 416.038 191.279C414.867 191.47 413.561 191.471 412.398 191.623C411.81 191.623 411.23 191.814 410.662 191.967C380.077 195.428 347.21 197.34 312.93 197.34C230.482 197.34 155.83 186.352 102.742 169.028C76.1979 160.365 55.0906 150.058 41.2404 139.372C27.3904 128.687 21.1812 118.282 21.1812 108.227C21.1821 98.1681 27.3898 87.768 41.2404 77.0806C55.091 66.3933 76.1979 56.1253 102.742 47.4623C155.83 30.1383 230.482 19.0982 312.929 19.0982ZM312.929 75.6842C284.322 75.6842 258.45 78.4531 238.896 83.2563C229.119 85.657 220.904 88.5009 214.328 92.3205C207.753 96.1382 201.548 101.809 201.548 109.964C201.548 118.119 207.753 123.825 214.328 127.645C220.904 131.464 229.119 134.27 238.896 136.673C258.45 141.474 284.322 144.281 312.929 144.281C341.536 144.281 367.409 141.474 386.962 136.673C396.739 134.27 404.913 131.464 411.488 127.645C418.064 123.825 424.268 118.119 424.268 109.964C424.268 101.809 418.064 96.1382 411.488 92.3205C404.913 88.5009 396.739 85.657 386.962 83.2563C367.409 78.4531 341.536 75.6842 312.929 75.6842ZM95.1307 230.67C101.108 230.67 105.978 234.978 105.884 240.368V429.264C106.096 442.176 84.5059 442.176 84.7084 429.264V240.368C84.6236 235.095 89.283 230.752 95.1307 230.67ZM719.822 302.139L719.78 682.425C719.773 688.662 715.763 695.529 705.635 703.052C695.507 710.575 679.733 718.016 659.809 724.277C622.371 736.043 569.774 743.251 512.032 744.156V348.28C571.784 347.402 626.268 340.1 666.757 327.394C688.258 320.647 706.032 312.57 719.077 302.887C719.38 302.658 719.53 302.368 719.822 302.139ZM582.22 383.831C580.826 383.845 579.449 384.107 578.168 384.602C576.887 385.098 575.727 385.818 574.755 386.719C573.783 387.62 573.017 388.686 572.503 389.855C571.988 391.023 571.734 392.272 571.756 393.529V468.579C571.736 469.844 571.995 471.1 572.519 472.274C573.042 473.448 573.818 474.518 574.804 475.419C575.789 476.32 576.963 477.036 578.257 477.524C579.552 478.013 580.941 478.263 582.344 478.263C583.747 478.263 585.136 478.013 586.431 477.524C587.725 477.036 588.899 476.32 589.884 475.419C590.869 474.518 591.646 473.448 592.169 472.274C592.693 471.1 592.952 469.844 592.932 468.579V393.529C592.954 392.253 592.692 390.984 592.162 389.801C591.632 388.618 590.845 387.544 589.846 386.64C588.847 385.736 587.658 385.022 586.348 384.539C585.038 384.057 583.635 383.816 582.22 383.831ZM95.1307 490.922C101.108 490.922 105.978 495.227 105.884 500.618V582.383C106.096 595.297 84.5059 595.297 84.7084 582.383V500.618C84.6236 495.345 89.2832 491.005 95.1307 490.922ZM582.178 516.583C580.788 516.603 579.415 516.869 578.139 517.367C576.863 517.865 575.708 518.585 574.74 519.486C573.772 520.386 573.011 521.451 572.499 522.617C571.987 523.783 571.734 525.028 571.756 526.282V678.433C571.736 679.699 571.995 680.954 572.519 682.128C573.042 683.303 573.818 684.372 574.804 685.273C575.789 686.175 576.963 686.89 578.257 687.379C579.552 687.867 580.941 688.118 582.344 688.118C583.747 688.118 585.136 687.867 586.431 687.379C587.725 686.89 588.899 686.175 589.884 685.273C590.869 684.372 591.646 683.303 592.169 682.128C592.693 680.954 592.952 679.699 592.932 678.433V526.282C592.954 525.003 592.691 523.733 592.159 522.547C591.626 521.361 590.835 520.283 589.832 519.379C588.829 518.474 587.634 517.761 586.32 517.28C585.005 516.8 583.597 516.563 582.178 516.583Z" fill="black"/>
</svg>
