<svg width="813" height="833" viewBox="0 0 813 833" fill="none" xmlns="http://www.w3.org/2000/svg">
<path d="M724.041 231.671C688.58 198.578 641.894 174.857 584.483 160.572C565.325 187.775 534.537 202.06 516.991 208.405C580.786 258.158 585.189 345.235 585.357 349.109C585.458 352.135 583.475 354.836 580.483 355.714C579.811 355.91 579.172 356.007 578.534 356.007C576.181 356.007 573.929 354.803 572.685 352.818C533.091 289.139 410.61 256.506 395.853 252.79C317 268.637 239.629 349.136 238.82 349.953C236.938 351.938 234.014 352.621 231.392 351.677C228.804 350.734 227.023 348.358 226.955 345.658C224.737 276.967 271.726 226.629 292.464 207.853C269.273 199.718 251.828 187.06 240.299 170.074C180.471 187.775 122.09 216.931 77.0796 264.079C22.3262 321.381 -3.48743 396.969 0.377734 488.734C8.47814 681.792 185.608 833 403.647 833C625.55 833 813 670.396 813 477.963C813 369.572 783.085 286.695 724.063 231.675L724.041 231.671Z" fill="black"/>
<path d="M247.228 155.276C249.211 159.115 251.53 162.76 254.152 166.176C265.883 181.405 283.932 192.338 307.931 198.715C310.452 199.366 312.334 201.351 312.838 203.824C313.376 206.265 312.367 208.803 310.351 210.332C309.678 210.853 247.833 258.458 241.144 328.844C266.991 304.635 329.375 251.953 394.684 239.521C395.659 239.358 396.667 239.358 397.642 239.586C402.851 240.79 513.467 267.505 568.287 325.394C562.136 294.515 545.062 241.635 498.342 211.605C496.09 210.141 494.913 207.538 495.384 204.934C495.854 202.364 497.837 200.281 500.493 199.663C500.963 199.565 544.894 188.665 570.102 157.265C572.69 154.011 575.11 150.561 577.227 146.852C577.496 146.396 577.765 145.908 578.034 145.42C587.815 127.621 590.033 107.023 584.689 84.0181C572.992 95.7977 550.002 116.98 518.912 135.528C512.357 139.433 505.4 143.273 498.139 146.82C476.527 157.46 451.924 166.083 425.202 169.662C428.967 177.895 430.345 192.505 414.581 203.797C407.926 208.547 401.54 210.955 395.557 210.955C394.313 210.955 393.07 210.858 391.826 210.63C383.826 209.263 379.928 203.797 379.524 203.178C379.457 203.081 379.356 202.951 379.289 202.82C371.457 189.447 365.643 176.398 361.575 163.773C350.517 160.779 337.678 156.907 324.435 151.994C316.704 149.13 308.839 145.909 301.109 142.296C274.892 130.029 250.591 113.499 239.6 91.8927C236.777 109.887 236.373 133.576 246.826 154.401C246.961 154.694 247.095 154.987 247.263 155.28L247.228 155.276Z" fill="black"/>
<path d="M370.79 146.879C371.26 148.831 371.764 150.816 372.336 152.769C373.714 157.747 375.394 162.726 377.344 167.704C380.974 177.173 385.545 186.61 391.023 195.981C391.796 196.892 395.998 200.634 406.451 193.15C418.048 184.853 413.14 175.514 412.031 173.724C411.829 173.366 411.594 172.911 411.426 172.52C411.359 172.358 411.19 171.87 410.955 171.121C410.283 168.974 409.174 164.548 408.569 157.943C408.199 154.266 408.031 149.873 408.165 144.862C408.3 140.827 408.636 136.402 409.275 131.553C412.636 106.921 423.996 72.0062 455.591 28.9929C453.306 21.5414 443.659 0.0324874 408.67 0C403.225 6.28015 386.923 26.6172 376.302 56.0008C366.925 82.0323 364.236 107.999 368.168 133.77C368.84 138.13 369.714 142.519 370.79 146.879Z" fill="black"/>
</svg>
