<svg width="779" height="690" viewBox="0 0 779 690" fill="none" xmlns="http://www.w3.org/2000/svg">
<path d="M735.327 266.525C694.277 309.582 635.138 322.192 583.574 304.375C562.142 297.036 541.939 284.426 524.868 266.525C507.808 248.635 495.772 227.44 488.773 204.966C471.702 150.832 483.737 88.8078 524.798 45.7514C564.982 3.61366 622.287 -9.37616 673.127 6.61293L609.749 73.0617C599.98 83.3057 600.423 100.435 610.776 111.292L672.835 176.368C683.188 187.224 699.524 187.689 709.293 177.445L772.671 110.996C787.979 164.202 775.511 224.388 735.327 266.525Z" fill="black"/>
<path d="M630.093 156.112C603.917 128.654 561.467 128.664 535.292 156.112L140.59 570.001C114.415 597.449 114.415 641.952 140.59 669.41C166.765 696.869 209.215 696.858 235.391 669.41L630.093 255.521C656.268 228.073 656.268 183.57 630.093 156.112Z" fill="black"/>
<path d="M182.849 252.194C187.814 256.936 188.7 264.424 184.803 268.912L123.972 339.152C120.065 343.63 112.874 343.44 107.909 338.688L4.38653 240.086C-0.588668 235.35 -1.46486 227.873 2.44278 223.374L63.2731 153.15C67.1706 148.656 74.3514 148.846 79.3266 153.588L182.849 252.194Z" fill="black"/>
<path d="M616.768 683.129C612.256 688.346 605.106 689.265 600.826 685.178L533.852 621.38C529.572 617.303 529.753 609.763 534.275 604.546L628.33 495.991C632.842 490.774 639.972 489.866 644.263 493.953L711.237 557.74C715.517 561.827 715.326 569.357 710.814 574.574L616.768 683.129Z" fill="black"/>
<path d="M401.103 38.4908C393.7 28.1148 379.46 17.5381 374.787 15.1883C356.064 5.77336 333.394 1.77081 312.758 2.32526C271.677 3.43942 227.807 20.8067 194.471 45.6458C170.34 63.6203 143.521 80.9084 124.909 105.436C113.982 119.83 116.832 139.669 107.496 154.554C100.114 166.314 85.2485 166.72 73.5961 171.161L172.274 264.144C175.618 250.726 176.917 233.206 192.145 232.504C201.289 232.081 214.13 241.549 221.039 246.798C259.924 276.379 289.413 316.742 317.431 357.106C367.183 428.782 422.706 493.657 480.595 558.131C507.838 588.493 535.191 612.266 577.229 605.38C608.742 600.195 649.933 574.49 645.371 534.253C641.735 502.38 615.086 474.268 592.738 454.603C584.913 447.728 577.188 440.726 569.423 433.767C496.608 368.596 420.611 307.428 349.77 239.875C338.258 228.897 325.871 218.537 316.545 205.347C304.57 188.418 294.65 166.081 290.138 145.477C283.118 113.441 297.309 80.7922 325.125 66.2975C335.64 60.827 345.902 58.1128 357.676 58.3135C370.396 58.53 386.62 63.182 398.857 58.1234C408.415 54.1842 406.743 46.3903 401.103 38.4908Z" fill="black"/>
</svg>
