<svg width="820" height="717" viewBox="0 0 820 717" fill="none" xmlns="http://www.w3.org/2000/svg">
<path d="M762.2 49.4509C757.553 50.0799 753.725 52.8474 751.812 56.8727L698.911 170.21C697.544 173.229 694.811 175.619 691.53 176.877C688.113 178.009 684.559 178.009 681.278 176.751L606.507 147.19C599.945 144.769 596.426 136.938 599.535 130.963L652.436 17.4967C656.502 9.41466 649.394 -0.176933 639.586 0.0114528C486.42 3.65938 411.587 172.972 517.38 274.741L462.703 391.975C455.185 391.975 448.351 392.353 441.653 393.108C474.904 422.763 463.079 478.992 419.919 494.747C427.232 510.471 437.415 532.045 444.797 547.706L498.244 568.839C501.525 570.097 504.122 572.487 505.489 575.632C506.719 578.651 506.719 582.047 505.352 585.066L483.892 630.854C486.762 636.892 493.187 650.478 495.921 656.391C500.807 666.076 500.261 677.367 495.784 687.084C492.606 693.877 486.865 707.651 483.891 714.506C626.734 697.807 687.938 535.909 587.507 441.161L642.048 324.176C712.649 324.837 777.717 286.344 805.808 226.054C832.873 168.065 820.571 100.262 774.505 53.343C771.361 50.1983 766.711 48.6963 762.2 49.4509Z" fill="black"/>
<path d="M294.435 544.826C291.291 546.084 288.147 547.09 284.866 547.845C283.089 589.23 298.809 630.614 330.248 662.696C335.203 667.885 345.182 668.294 350.069 662.948C345.626 653.262 330.931 622.128 326.147 612.002C323.687 606.813 295.871 547.909 294.435 544.826Z" fill="black"/>
<path d="M383.94 481.709L409.023 471.708C450.782 455.229 435.302 396.327 389.954 399.535L377.925 373.999C407.451 345.444 439.676 319.28 423.512 280.974L305.514 30.3958C297.176 12.7221 278.552 0.865845 258.081 0.205689C199.919 -1.83846 152.83 11.7472 123.471 23.477C81.7454 40.113 43.6761 65.7117 13.3989 97.4427C-0.406855 111.878 -3.85896 132.696 4.51409 150.559L122.442 401.008C139.562 438.179 191.779 434.846 227.352 433.966L239.415 459.564C212.145 482.05 230.803 525.448 267.335 524.788C278.441 525.668 298.432 515.259 308.65 511.674L395.587 696.341C397.022 699.391 399.722 701.813 403.105 703.039L439.056 716.122C442.405 717.348 446.164 717.285 449.513 715.964C452.827 714.644 455.459 712.159 456.791 709.046L471.008 675.962C472.34 672.88 472.306 669.39 470.837 666.339L383.866 481.648L383.94 481.709ZM286.955 54.2653L395.662 285.095C374.851 293.397 350.759 284.623 341.737 265.471L265.633 103.894C256.612 84.742 266.144 62.568 286.955 54.2653ZM363.845 407.457L263.511 447.459L255.582 430.635C298.573 422.584 325.057 410.823 355.882 390.539L363.845 407.457ZM144.796 385.129L36.0886 154.3C56.9001 145.998 80.9921 154.772 90.0143 173.924L166.118 335.501C175.139 354.653 165.607 376.827 144.796 385.129ZM216.286 315.504L140.183 153.926C119.952 107.823 192.673 78.7345 215.432 123.925L291.536 285.502C311.766 331.605 239.08 360.694 216.286 315.504ZM272.74 498.625C256.201 504.914 245.47 482.398 261.873 475.542L387.289 425.54C403.658 419.03 414.56 442.05 398.156 448.623C380.557 455.636 327.11 476.957 310.367 483.625L272.74 498.625Z" fill="black"/>
</svg>
