<svg width="731" height="698" viewBox="0 0 731 698" fill="none" xmlns="http://www.w3.org/2000/svg">
<path d="M372.044 103.758C372.044 74.4253 389.12 47.825 415.678 35.7759V113.965L446.12 131.622L476.503 113.965V35.7759C503.318 47.9398 520.452 74.9428 520.138 104.533C519.824 134.153 502.148 160.782 475.104 172.4V257.863H417.106V172.4C389.777 160.667 372.044 133.665 372.044 103.758ZM597.125 143.845L568.826 136.253L536.471 257.87H566.769L597.125 143.845ZM630.108 25.3347L599.152 16.9666L559.716 111.691L617.2 127.219L630.108 25.3347ZM280.551 126.044L234.775 138.381L266.587 257.892H315.647L280.551 126.044ZM224.552 119.142L277.295 104.879C279.322 98.3222 284.805 93.4046 291.516 92.1679L313.219 86.2727L313.562 87.538V87.5093C314.733 92.0241 319.33 94.7273 323.813 93.5482L345.83 87.5956H345.802C350.257 86.3878 352.912 81.7867 351.77 77.3009L332.866 6.24282C331.667 1.7567 327.069 -0.917682 322.615 0.290164L300.598 6.18533H300.626C296.143 7.42188 293.516 12.0518 294.715 16.5669L295.4 19.155L277.41 23.8999C270.842 18.0047 262.103 15.2152 253.365 16.2503C235.032 21.2252 201.764 27.8105 186.058 35.8341C141.053 58.8109 123.263 100.336 120.093 147.181C142.282 107.324 197.825 92.4557 224.552 119.142ZM152.332 397.483L183.487 385.578C188.884 383.507 183.659 385.434 190.969 382.645C231.69 367.03 252.48 359.007 283.95 366.109C315.191 373.126 354.513 395.327 434.984 440.817H435.041V440.788C447.007 447.718 456.802 457.812 463.398 470.034C467.624 477.799 470.566 486.195 472.165 494.909L666.637 411.08H666.666C668.893 410.131 671.149 409.269 673.434 408.55V335.018H152.337L152.332 397.483ZM152.332 302.531V313.746L673.429 313.717V302.503C673.372 289.648 663.034 279.238 650.269 279.18H175.492C162.699 279.238 152.361 289.648 152.332 302.503V302.531ZM148.42 633.98C148.306 633.578 148.163 633.204 148.077 632.801L89.1083 432.34C89.0512 432.254 89.0227 432.139 89.0227 432.024L81.3979 406.2C80.941 404.647 79.8844 403.353 78.4566 402.606C77.0859 401.858 75.4581 401.685 73.9446 402.146L4.72343 422.793L3.98098 423.052C2.58168 423.512 1.41091 424.519 0.725559 425.841C0.0116498 427.164 -0.188247 428.688 0.182985 430.155C0.268656 430.356 0.297211 430.586 0.382882 430.845L77.7421 693.741C78.199 695.266 79.227 696.531 80.5977 697.279C82.0255 698.055 83.6532 698.199 85.1953 697.739L154.902 676.948V676.976C158.043 675.999 159.842 672.663 158.9 669.471L148.42 633.98ZM730.946 467.995C730.232 455.715 724.692 444.212 715.554 436.046C704.331 426.183 688.339 424.026 674.918 430.582L674.861 430.64L473.078 517.626C472.05 527.202 469.109 536.462 464.454 544.859C459.142 554.521 451.518 562.688 442.237 568.584C432.87 574.536 422.019 577.614 410.939 577.469C400.487 577.239 390.293 574.364 381.24 569.101L279.091 511.415C274.008 508.539 272.209 502.041 275.065 496.921C277.921 491.803 284.374 489.991 289.458 492.867L391.548 550.553C397.517 554.09 404.284 556.045 411.195 556.247C418.248 556.333 425.159 554.32 431.099 550.524C437.324 546.498 442.465 541.005 446.063 534.506C450.061 527.288 452.231 519.15 452.431 510.868C452.402 510.523 452.402 510.121 452.431 509.776C452.431 499.452 449.804 489.33 444.863 480.328C440.237 471.558 433.241 464.282 424.703 459.336C345.918 414.848 307.45 393.108 279.407 386.81C254.249 381.116 235.402 388.363 198.539 402.512C196.083 403.461 201.537 401.39 190.914 405.445L112.042 435.582L165.699 617.904L184.746 613.763C229.809 603.929 261.418 621.384 293.606 639.098C325.932 656.899 358.944 675.159 407.576 660.32C449.497 647.523 504.213 616.725 572.749 578.222C613.727 555.159 659.619 529.393 710.331 503.139L710.617 502.967H710.646C723.725 496.439 731.717 482.689 730.946 467.995Z" fill="black"/>
</svg>
