<svg width="822" height="820" viewBox="0 0 822 820" fill="none" xmlns="http://www.w3.org/2000/svg">
<path d="M765.746 0L625.277 91.9721L729.804 196.28L822 56.1172L765.746 0ZM567.23 79.0445C555.109 79.359 543.445 83.7969 534.197 91.6241L80.7398 474.237L346.612 739.463L730.22 287.144H730.185C748.085 266.002 746.789 234.727 727.137 215.158L606.281 94.595C595.947 84.2867 581.837 78.6607 567.23 79.0445ZM429.595 273.759C445.323 273.934 459.651 282.705 466.972 296.578L483.156 326.246C485.818 331.174 489.881 335.227 494.821 337.918L524.596 354.028V354.063C540.885 362.589 549.887 380.55 546.91 398.687C545.649 416.614 535.491 432.723 519.832 441.564L474.504 465.816H474.539C455.238 488.076 430.226 504.744 402.237 514.004C395.231 515.926 387.735 514.039 382.481 509.007C377.261 503.975 375.054 496.567 376.736 489.543C382.376 471.336 390.818 454.109 401.782 438.524C405.671 432.968 405.005 425.455 400.206 420.667C395.372 415.88 387.841 415.216 382.271 419.095C366.647 430.033 349.413 438.454 331.198 444.08C324.122 445.723 316.695 443.556 311.651 438.314C306.606 433.108 304.68 425.594 306.642 418.606C315.925 390.685 332.598 365.77 354.912 346.55L379.258 301.366V301.331C388.155 285.711 404.304 275.577 422.275 274.319C424.657 273.935 427.074 273.76 429.491 273.76L429.595 273.759ZM590.348 289.939C590.348 311.255 607.688 328.518 629.056 328.518C607.688 328.518 590.348 345.815 590.348 367.097C590.348 345.815 573.043 328.518 551.675 328.518C573.043 328.518 590.348 311.255 590.348 289.939ZM226.182 410.564C226.182 431.881 243.522 449.143 264.89 449.143C243.522 449.178 226.182 466.441 226.182 487.757C226.182 466.441 208.877 449.178 187.509 449.143C208.877 449.143 226.182 431.881 226.182 410.564ZM69.0425 484.088L11.699 532.451V532.486C4.65798 538.427 0.419528 547.058 0.0339201 556.248C-0.386437 565.438 3.11654 574.384 9.63197 580.919L239.669 810.362C246.185 816.861 255.153 820.356 264.365 819.971C273.613 819.587 282.231 815.359 288.185 808.335L336.702 751.13L69.0425 484.088Z" fill="black"/>
</svg>
