<svg width="488" height="787" viewBox="0 0 488 787" fill="none" xmlns="http://www.w3.org/2000/svg">
<path d="M10.1948 92.8107L111.25 644.109C114.526 661.97 132.215 675.049 153.343 675.049H335.473C356.601 675.049 374.29 662.11 377.565 644.109L478.621 92.8107H10.1948ZM366.593 342.727C368.067 384.215 355.783 461.141 307.957 461.141C270.122 461.422 249.321 453.265 249.157 397.855C248.011 394.339 240.968 394.339 239.822 397.855C239.822 425.56 234.744 441.593 223.28 451.297C208.703 463.673 186.265 461.142 180.859 461.142C133.033 461.142 120.586 384.354 122.223 342.727C102.569 325.429 94.8705 301.38 101.585 277.331C115.507 227.405 185.117 208.278 230.811 238.797C238.837 244.141 249.974 244.141 258 238.797C303.697 208.279 373.305 227.406 387.226 277.331C393.941 301.381 386.247 325.429 366.593 342.727ZM164.641 703.181H324.003V767.593C324.003 778.281 313.848 787 301.401 787H187.239C174.791 787 164.637 778.28 164.637 767.593L164.641 703.181ZM487.957 41.7673L483.698 64.8318H433.58L433.089 37.8294C432.761 18.9836 400.005 19.9682 400.332 38.2513L400.659 64.9729H320.895L320.404 37.9705C320.076 19.1246 287.32 20.1093 287.647 38.3924L287.974 65.1139H208.21L207.719 38.1116C207.392 19.1253 174.635 20.11 174.962 38.5335L175.29 65.255H95.5256L95.0342 38.2527C94.7067 19.2664 61.95 20.2511 62.2771 38.6746L62.7684 65.3961H4.78879L0.530365 42.3316C-3.56423 20.1105 16.5808 0 42.623 0H445.374C471.579 0 491.561 20.1114 487.466 42.3316L487.957 41.7673ZM339.234 326.138C331.208 331.904 333.829 338.514 333.829 350.046C333.829 405.598 313.848 432.459 307.787 433.022C295.503 433.022 290.426 433.022 288.459 431.335C286.822 429.928 281.744 423.459 281.744 396.738C281.744 382.392 266.348 367.063 244.401 367.063C222.454 367.063 207.058 382.533 207.058 396.738C207.058 423.459 201.817 429.928 200.343 431.335C197.886 433.444 188.714 433.022 181.016 433.022C174.956 432.46 154.973 405.739 154.973 350.046C154.973 337.951 157.43 331.904 149.569 326.138C118.285 303.355 131.388 260.742 169.55 253.288C184.455 250.334 199.195 253.147 210.824 260.882C230.642 274.102 258.321 274.102 278.14 260.882C289.769 253.006 304.509 250.334 319.414 253.288C357.576 260.601 370.517 303.354 339.234 326.138Z" fill="black"/>
</svg>
