<svg width="875" height="761" viewBox="0 0 875 761" fill="none" xmlns="http://www.w3.org/2000/svg">
<path d="M437.5 47.5625C441.275 47.5625 444.336 44.9005 444.336 41.6172V5.94531C444.336 2.66204 441.275 0 437.5 0C433.725 0 430.664 2.66204 430.664 5.94531V41.6172C430.664 44.9005 433.725 47.5625 437.5 47.5625Z" fill="black"/>
<path d="M430.664 719.383V755.055C430.664 758.338 433.725 761 437.5 761C441.275 761 444.336 758.338 444.336 755.055V719.383C444.336 716.1 441.275 713.437 437.5 713.437C433.725 713.437 430.664 716.1 430.664 719.383Z" fill="black"/>
<path d="M868.164 374.555H827.148C823.37 374.555 820.313 377.217 820.313 380.5C820.313 383.783 823.37 386.445 827.148 386.445H868.164C871.942 386.445 875 383.783 875 380.5C875 377.217 871.942 374.555 868.164 374.555Z" fill="black"/>
<path d="M6.83594 386.445H47.8516C51.6263 386.445 54.6875 383.783 54.6875 380.5C54.6875 377.217 51.6263 374.555 47.8516 374.555H6.83594C3.06123 374.555 0 377.217 0 380.5C0 383.783 3.06123 386.445 6.83594 386.445Z" fill="black"/>
<path d="M737.193 649.552C738.528 650.713 740.277 651.293 742.027 651.293C743.775 651.293 745.524 650.713 746.86 649.552C749.53 647.229 749.53 643.467 746.86 641.144L717.854 615.92C715.183 613.598 710.857 613.598 708.188 615.92C705.516 618.243 705.516 622.005 708.188 624.327L737.193 649.552Z" fill="black"/>
<path d="M157.143 145.074C158.478 146.235 160.228 146.815 161.976 146.815C163.725 146.815 165.474 146.235 166.81 145.074C169.48 142.751 169.48 138.989 166.81 136.667L137.807 111.442C135.137 109.12 130.81 109.12 128.14 111.442C125.47 113.765 125.47 117.527 128.14 119.85L157.143 145.074Z" fill="black"/>
<path d="M132.971 651.293C134.719 651.293 136.468 650.713 137.804 649.551L166.806 624.324C169.477 622.002 169.477 618.24 166.806 615.917C164.136 613.595 159.81 613.595 157.14 615.917L128.137 641.144C125.467 643.467 125.467 647.229 128.137 649.551C129.472 650.713 131.221 651.293 132.971 651.293Z" fill="black"/>
<path d="M713.02 146.815C714.769 146.815 716.518 146.235 717.854 145.074L746.86 119.85C749.53 117.527 749.53 113.765 746.86 111.442C744.19 109.12 739.863 109.12 737.193 111.442L708.188 136.667C705.516 138.989 705.516 142.751 708.188 145.074C709.523 146.235 711.271 146.815 713.02 146.815Z" fill="black"/>
<path d="M73.8464 502.356L35.8353 515.768C32.3372 517.001 30.6516 520.47 32.0702 523.513C33.1483 525.823 35.708 527.226 38.4092 527.226C39.2637 527.226 40.1344 527.083 40.9752 526.787L78.9871 513.375C82.4852 512.142 84.1708 508.673 82.7522 505.63C81.3307 502.588 77.3382 501.119 73.8464 502.356Z" fill="black"/>
<path d="M798.576 259.074C799.431 259.074 800.305 258.931 801.147 258.635L839.158 245.23C842.657 243.995 844.338 240.529 842.923 237.484C841.501 234.439 837.502 232.973 834.018 234.209L796.006 247.615C792.508 248.849 790.825 252.316 792.242 255.361C793.316 257.671 795.879 259.074 798.576 259.074Z" fill="black"/>
<path d="M33.2918 251.07L71.5571 263.925C72.3677 264.198 73.1993 264.328 74.02 264.328C76.7608 264.328 79.351 262.88 80.3953 260.522C81.758 257.46 80.0052 254.017 76.4837 252.835L38.2185 239.981C34.71 238.802 30.7384 240.321 29.3803 243.383C28.0176 246.446 29.7704 249.889 33.2918 251.07Z" fill="black"/>
<path d="M794.591 500.469C793.229 503.531 794.978 506.974 798.503 508.156L836.762 521.013C837.569 521.286 838.404 521.416 839.225 521.416C841.969 521.416 844.552 519.971 845.6 517.611C846.962 514.548 845.213 511.105 841.689 509.923L803.43 497.066C799.918 495.882 795.952 497.403 794.591 500.469Z" fill="black"/>
<path d="M271.986 73.6426C273.12 75.8521 275.617 77.161 278.227 77.161C279.162 77.161 280.11 76.993 281.018 76.6385C284.462 75.2973 286.005 71.7789 284.462 68.783L267.697 36.2235C266.154 33.2218 262.102 31.8748 258.664 33.2276C255.22 34.5688 253.677 38.0872 255.22 41.0831L271.986 73.6426Z" fill="black"/>
<path d="M593.966 684.352C590.514 685.694 588.972 689.212 590.514 692.208L607.277 724.765C608.418 726.971 610.909 728.283 613.525 728.283C614.453 728.283 615.408 728.115 616.309 727.761C619.761 726.42 621.303 722.901 619.761 719.905L602.998 687.348C601.449 684.361 597.41 683 593.966 684.352Z" fill="black"/>
<path d="M583.258 72.6385C584.112 72.9429 584.993 73.0885 585.861 73.0885C588.545 73.0885 591.095 71.7008 592.183 69.4042L607.804 36.418C609.239 33.3814 607.577 29.9066 604.086 28.6554C600.587 27.4071 596.602 28.8528 595.16 31.8893L579.539 64.8759C578.104 67.9128 579.766 71.3869 583.258 72.6385Z" fill="black"/>
<path d="M282.794 691.583L267.172 724.568C265.737 727.604 267.399 731.079 270.89 732.33C271.742 732.635 272.623 732.78 273.491 732.78C276.178 732.78 278.728 731.392 279.816 729.096L295.437 696.112C296.872 693.076 295.211 689.601 291.719 688.35C288.235 687.102 284.232 688.544 282.794 691.583Z" fill="black"/>
<path d="M276.301 389.458C265.981 587.361 347.645 623.512 347.645 623.512C349.083 624.025 350.399 624.258 351.604 624.258C363.657 624.258 364.595 600.932 364.595 600.932C365.288 577.993 366.905 555.582 371.61 532.956C376.477 509.627 389.101 429.688 426.606 421.591C431.358 420.567 434.355 420.065 437.357 420.065C440.337 420.065 443.328 420.561 448.061 421.525C485.825 429.224 498.516 509.558 503.396 532.956C508.109 555.582 509.711 577.993 510.412 600.932C510.412 600.932 511.346 624.258 523.396 624.258C524.598 624.258 525.92 624.025 527.355 623.512C527.355 623.512 609.012 587.361 598.699 389.458C597.817 372.612 598.712 357.511 609.326 342.933C642.832 296.903 667.639 228.714 631.943 177.645C620.402 161.127 603.552 149.948 584.486 143.875C555.44 134.626 521.26 137.236 492.868 150.897C476.119 158.955 458.795 162.422 441.462 162.422C419.549 162.422 397.612 156.886 376.764 148.084C329.717 128.225 271.555 136.873 243.063 177.645C207.355 228.714 232.168 296.903 265.667 342.933C276.288 357.511 277.176 372.612 276.301 389.458ZM464.844 196.195C468.616 196.195 471.68 198.858 471.68 202.141C471.68 205.424 468.616 208.086 464.844 208.086C461.072 208.086 458.008 205.424 458.008 202.141C458.008 198.858 461.072 196.195 464.844 196.195ZM286.709 212.281C293.939 199.632 306.99 190.808 325.505 186.044C331.69 184.45 346.026 182.627 355.986 187.106C398.19 206.109 435.918 200.489 436.289 200.425C440.021 199.839 443.554 201.99 444.229 205.224C444.896 208.455 442.427 211.546 438.711 212.13C436.986 212.403 395.99 218.507 349.704 197.667C344.257 195.208 333.789 196.311 329.387 197.446C314.66 201.235 304.419 208.004 298.952 217.573C290.857 231.731 292.553 252.383 303.989 278.947C308.635 285.898 354.357 356.013 334.837 394.777C333.713 397.006 331.206 398.336 328.572 398.339C327.657 398.339 326.726 398.176 325.832 397.836C322.374 396.518 320.798 393.012 322.314 390.004C336.703 361.433 305.244 304.183 291.906 284.536C291.706 284.243 291.535 283.932 291.398 283.613C278.384 253.602 276.809 229.602 286.709 212.281Z" fill="black"/>
</svg>
