<svg width="699" height="650" viewBox="0 0 699 650" fill="none" xmlns="http://www.w3.org/2000/svg">
<path d="M143.385 544.375V570.781H289.01V478.359C289.01 470.234 285.649 463.125 278.928 457.031L160.188 351.406C146.745 339.219 124.341 339.219 110.899 351.406C104.178 357.5 100.817 365.625 100.817 373.75C100.817 381.875 104.178 390 110.899 396.094L182.591 460.078C184.832 462.109 184.832 465.156 182.591 467.187C180.351 469.219 176.99 469.219 174.75 467.187C85.1346 386.953 110.899 412.344 62.7308 370.703C61.6106 369.687 60.4904 368.672 60.4904 366.641V190.937C60.4904 175.703 47.0481 163.516 30.2452 163.516C13.4423 163.516 0 175.703 0 190.937V384.922C0 393.047 3.36058 400.156 10.0817 406.25L133.303 516.953C138.904 524.063 143.385 534.219 143.385 544.375Z" fill="black"/>
<path d="M124.341 580.937V650H308.053V580.937C216.197 580.937 178.111 580.937 124.341 580.937ZM159.067 612.422C155.707 612.422 153.466 610.391 153.466 607.344C153.466 604.297 155.707 602.266 159.067 602.266C162.428 602.266 164.668 604.297 164.668 607.344C164.668 610.391 162.428 612.422 159.067 612.422Z" fill="black"/>
<path d="M296.851 102.578L287.889 88.3594L278.928 102.578C278.928 103.594 277.808 104.609 276.688 104.609L261.005 111.719L276.688 119.844C277.808 119.844 278.928 120.859 278.928 121.875L287.889 136.094L296.851 121.875C297.971 119.844 299.091 119.844 314.774 111.719L299.091 103.594C297.971 103.594 297.971 103.594 296.851 102.578Z" fill="black"/>
<path d="M448.077 0C398.788 0 381.986 40.625 282.288 5.07813C252.043 -5.07813 221.798 3.04688 217.317 7.10938C185.952 19.2969 172.51 46.7187 175.87 85.3125C179.231 116.797 192.673 149.297 202.755 170.625C209.476 184.844 213.957 200.078 213.957 215.313C180.351 327.031 235.24 365.625 258.764 382.891L259.885 383.906C280.048 398.125 291.25 400.156 297.971 393.047C302.452 387.969 301.332 378.828 296.851 363.594C268.846 280.312 327.096 231.563 366.303 247.813C398.789 262.031 406.63 287.422 409.99 317.891C411.111 328.047 412.231 337.188 403.269 364.609C398.788 379.844 397.668 388.984 402.149 394.062C404.389 397.109 407.75 398.125 411.111 398.125C417.832 398.125 426.793 394.063 439.115 384.922L440.236 383.906C463.76 367.656 518.649 328.047 485.043 216.328C486.163 171.641 517.529 145.234 523.13 85.3125C529.851 26.4062 490.644 0 448.077 0ZM235.24 38.5938L233 39.6094C226.279 42.6563 211.716 48.75 215.077 82.2656C215.077 85.3125 212.837 87.3438 209.476 87.3438C206.115 87.3438 203.875 85.3125 203.875 82.2656C200.514 41.6406 222.918 24.375 250.923 24.375C257.644 24.375 275.567 25.3906 272.207 33.5156C271.087 36.5625 267.726 37.5781 265.486 36.5625C252.043 33.5156 237.481 37.5781 235.24 38.5938ZM305.813 127.969L293.49 149.297C292.37 151.328 290.13 152.344 289.01 152.344C286.769 152.344 284.529 151.328 284.529 149.297L271.087 127.969L247.563 116.797C245.322 115.781 244.202 113.75 244.202 112.734C244.202 110.703 245.322 108.672 247.563 108.672L271.087 97.5L284.529 76.1719C285.649 74.1406 287.889 73.125 289.01 73.125C291.25 73.125 293.49 74.1406 293.49 76.1719L306.933 97.5L330.457 108.672C332.697 109.688 333.817 111.719 333.817 112.734C332.697 117.813 327.096 116.797 305.813 127.969ZM489.524 113.75C485.043 128.984 478.322 145.234 471.601 160.469C463.76 175.703 459.279 191.953 458.159 209.219C458.159 212.266 455.918 214.297 452.558 214.297C449.197 214.297 446.957 211.25 446.957 209.219C450.317 166.563 466 156.406 478.322 112.734C479.442 109.688 481.683 108.672 485.043 108.672C488.404 108.672 489.524 111.719 489.524 113.75Z" fill="black"/>
<path d="M555.615 543.359V569.766H409.99V477.344C409.99 469.219 413.351 462.109 420.072 456.016L538.813 349.375C552.255 337.188 574.659 337.188 588.101 349.375C601.543 361.563 601.543 381.875 588.101 394.062L516.409 458.047C514.168 460.078 514.168 463.125 516.409 465.156C518.649 467.188 522.01 467.188 524.25 465.156L571.298 422.5C637.389 366.641 638.51 368.672 638.51 364.609V188.906C638.51 173.672 651.952 161.484 668.755 161.484C685.558 161.484 699 173.672 699 188.906V382.891C699 391.016 695.64 398.125 688.918 404.219L565.697 514.922C560.096 522.031 555.615 532.187 555.615 543.359Z" fill="black"/>
<path d="M390.947 579.922V648.984H574.659V579.922C481.683 579.922 444.716 579.922 390.947 579.922ZM534.332 606.328C534.332 603.281 536.572 601.25 539.933 601.25C543.293 601.25 545.534 603.281 545.534 606.328C545.534 609.375 543.293 611.406 539.933 611.406C536.572 611.406 534.332 609.375 534.332 606.328Z" fill="black"/>
</svg>
