<svg width="827" height="705" viewBox="0 0 827 705" fill="none" xmlns="http://www.w3.org/2000/svg">
<path d="M86.1525 442.229C82.6398 442.229 79.0058 442.985 75.8161 444.647L11.5358 477.252C6.36758 479.783 2.65287 484.128 0.876867 489.531C-0.778618 494.858 -0.0518069 500.374 2.73422 505.097L111.877 694.27C115.914 701.146 123.546 705 131.298 705C134.811 705 138.323 704.244 141.634 702.582L205.833 669.977C211.122 667.37 214.837 663.025 216.492 657.774C218.269 652.56 217.622 646.931 214.836 642.208L105.58 453.034C101.865 446.461 94.4365 442.304 86.2397 442.304L86.1525 442.229ZM89.4634 513.975C88.0099 518.509 84.82 522.212 80.2575 524.403C75.8161 526.632 70.6479 527.123 65.8031 525.763C60.9583 524.403 57.001 521.418 54.6593 517.149C52.2771 512.993 51.7522 508.232 53.2058 503.699C54.6594 499.166 57.9703 495.387 62.4117 493.158C65.1977 491.723 68.1855 491.043 71.2946 491.043C73.152 491.043 75.0093 491.345 76.7859 491.798C81.6311 493.158 85.6688 496.143 88.0505 500.299C90.4327 504.455 90.9576 509.291 89.504 513.824L89.4634 513.975Z" fill="black"/>
<path d="M216.609 613.606V617.082L220.445 615.231C247.214 602.762 277.496 600.345 305.841 608.166L463.069 652.067C478.896 656.526 495.128 658.755 511.239 658.755C538.533 658.755 565.626 652.37 590.296 639.902L783.174 542.312C784.829 541.557 785.96 540.197 786.565 538.459C786.888 537.703 787.292 535.663 786.041 533.434C776.512 516.886 760.725 504.909 741.505 499.582C722.366 494.179 702.138 496.106 684.453 505.098L575.714 560.032L575.512 561.203C574.906 564.187 574.26 567.21 573.331 570.308L570.344 579.489C567.436 588.594 558.351 594.865 548.338 594.865C545.956 594.865 543.776 594.563 541.716 593.996L370.958 546.392C368.899 545.825 367.244 544.541 366.194 542.727C365.144 540.989 364.942 538.949 365.588 536.909C366.194 535.058 367.446 533.433 369.303 532.564C371.16 531.582 373.341 531.393 375.521 531.997L546.279 579.602C549.994 580.471 553.708 578.619 554.96 575.144L557.867 565.963C562.712 550.472 560.976 534.038 552.82 519.832C544.664 505.626 531.016 495.161 514.462 490.628L424.019 465.39C421.838 464.823 420.183 463.539 419.173 461.801C402.013 432.105 373.588 410.457 339.187 400.86C304.665 391.188 268.164 394.777 236.549 410.721L130.601 464.294L216.684 613.339L216.609 613.606Z" fill="black"/>
<path d="M643.793 438.457C647.306 440.573 651.344 441.63 655.462 441.63C659.581 441.63 663.537 440.573 667.131 438.344C694.749 421.796 714.251 378.196 718.611 325.453C715.422 324.962 712.111 324.47 708.8 323.715C705.085 323.035 701.371 322.166 697.535 321.297C684.211 318.501 670.887 315.29 657.723 311.738C650.173 309.698 642.623 307.582 635.193 305.24C642.622 344.796 637.252 394.705 633.861 418.508C632.73 426.442 636.566 433.999 643.793 438.419L643.793 438.457Z" fill="black"/>
<path d="M562.962 278.754C548.184 272.482 533.73 265.493 519.557 258.163C513.057 254.763 506.516 251.287 500.217 247.509C495.654 265.001 493.393 284.647 493.393 304.974C468.158 308.147 440.258 309.696 417.323 301.8C383.326 287.594 422.491 248.604 458.265 221.024C453.097 217.435 448.251 213.883 443.285 210.181C433.474 217.624 424.066 225.444 414.86 233.982C338.265 312.604 419.826 334.29 494.241 325.186C498.48 378.003 518.305 421.717 545.802 438.26C553.03 442.53 562.033 442.53 569.261 438.374C576.488 433.916 580.324 426.397 579.072 418.463C575.156 390.807 568.534 327.562 582.585 286.838C576.084 284.306 569.543 281.624 563.043 278.715L562.962 278.754Z" fill="black"/>
<path d="M666.968 40.2439C627.399 51.2757 585.608 51.2757 546.124 40.2439C534.657 37.1459 524.119 37.4481 514.388 41.1129C502.8 45.5711 493.715 54.6381 488.022 67.4089C484.832 74.474 482.652 82.5968 481.602 91.4756C444.9 87.9997 390.754 86.8286 385.586 128.124C385.707 132.771 386.393 137.418 387.968 142.065C387.968 142.178 387.968 142.367 388.089 142.442C395.236 165.187 417.443 187.817 445.545 208.483C450.512 212.073 455.559 215.624 460.849 219.138C473.769 227.828 487.618 236.064 501.387 243.62C507.888 247.096 514.308 250.496 520.728 253.783C536.031 261.604 551.01 268.593 564.657 274.562C571.481 277.547 577.982 280.267 584.079 282.798C592.638 286.274 600.189 289.07 606.528 291.412C613.15 293.83 625.223 297.911 634.348 300.782C636.811 301.462 639.112 302.142 640.849 302.822L642.827 303.389H644.079C647.995 304.447 652.437 305.807 657.12 307.054C668.91 310.227 682.84 313.817 697.86 316.914C704.684 318.35 711.831 319.634 719.058 320.692C747.888 324.962 778.089 325.906 801.951 317.708C815.599 311.209 823.149 303.313 825.814 294.586C834.091 267.61 797.59 232.776 761.615 206.783C864.98 132.997 833.85 84.8297 731.858 94.5016C730.929 84.4515 728.668 75.2709 725.155 67.4125C719.381 54.6426 710.176 45.5375 698.789 41.1164C689.058 37.3384 678.318 37.1494 667.053 40.2474L666.968 40.2439ZM405.972 128.463C407.426 117.431 419.418 110.29 447.318 109.799C456.605 109.496 467.789 110.101 480.912 111.537C481.436 131.56 486.403 153.7 495.164 176.067C483.496 182.641 472.109 189.819 460.965 197.45C430.077 174.026 403.792 146.484 405.972 128.5V128.463ZM508.085 224.124C507.681 225.182 507.278 226.24 506.833 227.297C505.38 226.428 503.846 225.559 502.392 224.691C493.913 219.855 484.909 214.263 476.026 208.143C485.635 201.456 493.913 196.431 498.556 193.824C499.687 193.143 501.019 192.463 502.19 191.783C503.643 194.881 505.299 197.866 506.954 200.889C510.871 208.331 511.396 216.643 508.206 224.01L508.085 224.124ZM536.389 113.844C536.389 102.246 526.255 92.838 513.859 92.838C526.254 92.838 536.389 83.5438 536.591 71.9446C536.591 83.5432 546.725 92.9511 559.121 92.9511C546.726 92.9511 536.591 102.245 536.389 113.844ZM595.824 270.636C594.491 270.069 592.917 269.465 591.584 268.709C595.097 264.742 600.588 262.324 606.564 262.324C613.589 262.324 619.807 265.611 623.199 271.127C625.46 274.716 627.318 278.872 629.094 283.104C617.506 279.024 605.434 274.49 595.824 270.636ZM732.296 108.438C789.551 102.166 848.705 111.838 782.928 174.403C773.197 183.509 762.578 192.009 751.596 200.018C738.676 191.102 726.361 183.584 716.872 178.37C726.805 154.19 732.054 129.897 732.256 108.55L732.296 108.438ZM706.213 201.001C708.191 197.412 710.049 193.558 711.906 189.667C712.108 189.289 712.229 188.911 712.431 188.495C720.789 193.52 730.924 199.83 741.462 206.857C744.773 209.086 748.084 211.39 751.395 213.808C772.472 228.694 793.791 246.602 804.733 264.095C804.733 264.208 804.854 264.284 804.935 264.397C805.056 264.51 805.056 264.586 805.056 264.699C811.556 275.429 814.342 285.97 810.628 295.642C805.137 304.634 790.359 308.487 776.429 309.771C757.936 311.434 738.717 309.771 719.457 306.598C719.78 282.305 716.55 259.107 710.372 239.083C723.818 231.451 736.012 224.008 746.954 216.83C743.239 214.525 739.605 212.371 736.093 210.445C726.564 216.83 716.671 222.836 706.739 228.73C706.214 227.068 705.609 225.557 704.882 224.008C703.549 220.834 702.823 217.434 702.823 214.034C702.823 209.576 703.953 205.118 706.214 200.961L706.213 201.001Z" fill="black"/>
<path d="M439.649 274.218C449.662 273.84 458.142 281.094 458.545 290.464C458.141 281.094 465.893 273.16 475.907 272.782C465.893 273.16 457.414 265.906 457.011 256.536C457.414 265.906 449.662 273.84 439.649 274.218Z" fill="black"/>
<path d="M735.891 71.7841C736.82 51.9489 754.706 36.5725 775.904 37.441C754.706 36.5721 738.274 19.8352 739.202 0C738.273 19.8352 720.386 35.2116 699.188 34.3431C720.386 35.2121 736.819 51.9489 735.891 71.7841Z" fill="black"/>
</svg>
