<svg width="731" height="821" viewBox="0 0 731 821" fill="none" xmlns="http://www.w3.org/2000/svg">
<path d="M486.376 0H27.1622C19.9599 0.00460237 13.0541 2.56715 7.96129 7.12489C2.86851 11.6826 0.00514265 17.8629 0 24.3086V59.9634C0.00514265 66.409 2.86851 72.5893 7.96129 77.1471C13.0541 81.7048 19.9599 84.2674 27.1622 84.272H31.4336L59.1199 629.555C59.7852 643.043 64.8327 656.065 73.6439 667.024C82.4551 677.984 94.6472 686.405 108.726 691.256V777.318C108.742 788.898 113.89 800.001 123.04 808.19C132.19 816.379 144.596 820.986 157.537 821H356.001C368.941 820.986 381.347 816.379 390.498 808.19C399.648 800.001 404.795 788.898 404.811 777.318V691.256C418.89 686.405 431.083 677.984 439.894 667.024C448.705 656.065 453.752 643.043 454.418 629.555L482.104 84.272H486.376C493.578 84.2674 500.484 81.7048 505.576 77.1471C510.669 72.5893 513.533 66.409 513.538 59.9634V24.3086C513.533 17.8629 510.669 11.6826 505.576 7.12489C500.484 2.56715 493.578 0.00460237 486.376 0ZM388.308 777.318C388.295 784.982 384.887 792.329 378.831 797.749C372.775 803.169 364.565 806.219 356.001 806.231H157.537C148.972 806.219 140.763 803.169 134.707 797.749C128.651 792.329 125.243 784.982 125.229 777.318V695.148C129.029 695.644 132.864 695.894 136.704 695.895H155.323V771.914C155.323 773.872 156.193 775.751 157.74 777.136C159.288 778.52 161.386 779.298 163.575 779.298C165.763 779.298 167.862 778.52 169.41 777.136C170.957 775.751 171.826 773.872 171.826 771.914V695.895H201.92V771.914C201.92 773.872 202.79 775.751 204.337 777.136C205.885 778.52 207.983 779.298 210.172 779.298C212.36 779.298 214.459 778.52 216.007 777.136C217.554 775.751 218.423 773.872 218.423 771.914V695.895H248.517V771.914C248.517 773.872 249.387 775.751 250.934 777.136C252.482 778.52 254.58 779.298 256.769 779.298C258.957 779.298 261.056 778.52 262.604 777.136C264.151 775.751 265.02 773.872 265.02 771.914V695.895H295.114V771.914C295.114 773.872 295.984 775.751 297.531 777.136C299.079 778.52 301.177 779.298 303.366 779.298C305.554 779.298 307.653 778.52 309.201 777.136C310.748 775.751 311.617 773.872 311.617 771.914V695.895H341.711V771.914C341.711 773.872 342.581 775.751 344.128 777.136C345.676 778.52 347.774 779.298 349.963 779.298C352.151 779.298 354.25 778.52 355.798 777.136C357.345 775.751 358.214 773.872 358.214 771.914V695.895H376.834C380.674 695.894 384.508 695.644 388.308 695.148V777.318ZM150.392 268.836C152.055 259.734 157.288 251.461 165.151 245.5C173.015 239.539 182.994 236.28 193.3 236.309C204.617 236.283 215.827 238.266 226.281 242.143C236.736 246.021 246.227 251.715 254.206 258.897C254.942 259.273 255.776 259.471 256.623 259.471C257.471 259.471 258.304 259.273 259.04 258.897C267.022 251.714 276.517 246.018 286.975 242.141C297.433 238.264 308.646 236.281 319.966 236.309C330.27 236.286 340.246 239.546 348.108 245.506C355.97 251.466 361.205 259.737 362.874 268.836C370.088 307.48 364.744 347.165 347.478 383.168L331.945 415.608C329.486 420.743 325.289 425.058 319.945 427.945C314.6 430.832 308.379 432.146 302.156 431.7C295.933 431.255 290.024 429.074 285.26 425.464C280.496 421.854 277.118 416.997 275.602 411.577L267.913 384.072C267.284 381.818 265.831 379.818 263.785 378.389C261.739 376.959 259.219 376.183 256.623 376.183C254.028 376.183 251.507 376.959 249.461 378.389C247.416 379.818 245.963 381.818 245.333 384.072L237.645 411.577C236.128 416.997 232.75 421.854 227.986 425.464C223.223 429.074 217.313 431.255 211.09 431.7C204.868 432.146 198.646 430.832 193.302 427.945C187.958 425.058 183.76 420.743 181.301 415.608L165.769 383.168C148.499 347.165 143.161 307.478 150.392 268.836ZM497.035 59.9634C497.033 62.4929 495.91 64.9185 493.911 66.7071C491.912 68.4958 489.202 69.5013 486.376 69.5026H27.1622C24.3357 69.5013 21.6254 68.4958 19.6268 66.7071C17.6281 64.9185 16.5046 62.4929 16.5031 59.9634V24.3086C16.5046 21.779 17.6281 19.3535 19.6268 17.5648C21.6254 15.7762 24.3357 14.7707 27.1622 14.7693H486.376C489.202 14.7707 491.912 15.7762 493.911 17.5648C495.91 19.3535 497.033 21.779 497.035 24.3086V59.9634Z" fill="black"/>
<path d="M691.674 0C685.623 0.00446728 679.655 1.26157 674.236 3.67301C668.818 6.08444 664.096 9.58485 660.44 13.9005H600.577C593.715 13.9074 587.137 16.3499 582.285 20.6921C577.433 25.0342 574.704 30.9215 574.696 37.0623V158.414C574.704 164.555 577.433 170.442 582.285 174.784C587.137 179.126 593.715 181.569 600.577 181.576H652.564C653.388 188.648 656.916 195.25 662.551 200.263C664.252 201.778 665.6 203.579 666.519 205.563C667.437 207.547 667.906 209.674 667.9 211.821V792.765C667.9 800.253 671.224 807.435 677.141 812.73C683.058 818.025 691.082 821 699.45 821C707.818 821 715.842 818.025 721.759 812.73C727.676 807.435 731 800.253 731 792.765V35.1857C730.988 25.8556 726.841 16.9108 719.468 10.3143C712.095 3.71771 702.099 0.00827801 691.674 0ZM591.199 158.414V37.0623C591.202 34.8373 592.191 32.7043 593.949 31.131C595.707 29.5577 598.091 28.6726 600.577 28.6698H653.061C652.601 30.8175 652.365 32.9989 652.358 35.1857V166.806H600.577C598.091 166.804 595.707 165.918 593.949 164.345C592.191 162.772 591.202 160.639 591.199 158.414Z" fill="black"/>
</svg>
