<svg width="821" height="820" viewBox="0 0 821 820" fill="none" xmlns="http://www.w3.org/2000/svg">
<path d="M641.847 85.0993C633.75 42.9764 599.435 12.2252 550.006 2.81633C518.016 -3.26984 484.823 0.614128 451.39 14.428C423.448 25.9597 395.588 25.7598 366.203 13.7473C349.005 6.74022 331.166 2.45545 311.683 0.614481C264.299 -3.82999 217.237 16.15 194.588 50.3453C182.883 68.0036 177.19 88.0237 176.589 113.289C175.747 150.207 186.17 185.002 206.735 213.951C215.715 226.564 221.527 240.858 223.572 255.232C224.133 259.276 224.494 263.401 224.534 267.525C225.095 305.964 228.783 339.918 235.759 371.31C246.302 416.716 267.829 448.348 298.055 462.923C312.086 468.488 324.994 467.407 336.058 460.16C377.268 433.133 381.919 323.778 382.32 311.406C382.32 298.553 393.785 287.542 406.853 287.542H415.512C428.58 287.542 440.046 298.553 440.046 311.086C440.447 323.779 445.097 433.128 486.307 460.199C492.761 464.403 499.817 466.565 507.233 466.565C512.565 466.565 518.057 465.484 523.63 463.282C554.537 448.387 576.065 416.754 586.608 371.429C593.583 340.037 597.271 306.243 597.873 267.962C598.113 251.145 602.523 234.848 610.541 220.793C631.947 183.356 649.905 126.898 641.847 85.0993Z" fill="black"/>
<path d="M0 282.737C0 271.886 5.57223 262.396 12.668 254.148C19.6032 246.1 34.8771 241.415 52.7965 244.298C72.1987 247.381 87.6725 263.998 87.6725 284.899V479.014C87.6725 495.151 93.9663 510.326 105.392 521.738L188.413 604.662C192.663 608.906 199.557 608.906 203.847 604.662C208.096 600.417 208.096 593.531 203.847 589.246L120.826 506.323C113.53 499.035 109.48 489.305 109.48 478.975C109.48 468.644 113.489 458.954 120.826 451.666C141.19 431.326 171.216 437.051 185.808 451.666L317.178 582.841C324.434 590.088 328.403 599.698 328.403 609.908V820H143.719V728.467C143.719 714.012 138.508 700.039 129.047 689.148L21.3727 565.138C7.58193 549.242 0.00615607 528.901 0.00615607 507.881L0 282.737Z" fill="black"/>
<path d="M821 282.737C821 271.886 815.428 262.396 808.332 254.148C801.397 246.1 786.123 241.415 768.204 244.298C748.801 247.381 733.327 263.998 733.327 284.899V479.014C733.327 495.151 727.034 510.326 715.608 521.738L632.587 604.662C628.337 608.906 621.443 608.906 617.153 604.662C612.904 600.417 612.904 593.531 617.153 589.246L700.174 506.323C707.47 499.035 711.52 489.305 711.52 478.975C711.52 468.644 707.511 458.954 700.174 451.666C679.81 431.326 649.784 437.051 635.192 451.666L503.822 582.841C496.566 590.088 492.597 599.698 492.597 609.908V820H677.281V728.467C677.281 714.012 682.492 700.039 691.953 689.148L799.586 565.138C813.417 549.242 820.993 528.901 820.993 507.881L821 282.737Z" fill="black"/>
</svg>
