<svg width="798" height="767" viewBox="0 0 798 767" fill="none" xmlns="http://www.w3.org/2000/svg">
<path d="M592.595 523.627H112.314V576.41H592.595V523.627Z" fill="black"/>
<path d="M773.883 56.5557H619.195V114.779H773.883C787.2 114.779 798 101.756 798 85.6673C798 69.5977 787.2 56.5557 773.883 56.5557Z" fill="black"/>
<path d="M112.314 604.357V767H138.914V702.563H177.129V767H203.729V702.563H241.936V767H268.536V702.563H306.751V767H333.351V702.563H371.558V767H398.158V702.563H436.373V767H462.973V702.563H501.179V767H527.779V702.563H565.995V767H592.595V604.357H112.314Z" fill="black"/>
<path d="M158.864 0C133.16 0 112.314 21.9012 112.314 48.9075V495.68H592.595V48.9075C592.595 21.9012 613.44 0 639.145 0H158.864ZM329.672 153.132C303.479 152.275 276.232 178.927 272.623 208.924C269.024 178.927 241.776 152.275 215.575 153.132V153.094C241.767 153.942 269.015 127.299 272.623 97.3026C276.223 127.299 303.471 153.951 329.672 153.094V153.132ZM505.701 389.099C473.081 388.037 439.148 421.229 434.662 458.585C430.175 421.229 396.242 388.037 363.622 389.099V389.052C396.242 390.114 430.175 356.922 434.662 319.566C439.148 356.922 473.081 390.114 505.701 389.052V389.099Z" fill="black"/>
<path d="M713.323 250.08C707.977 294.609 667.527 334.164 628.647 332.906V332.962C667.527 331.695 707.977 371.259 713.323 415.779C718.67 371.25 759.12 331.695 798 332.962V332.906C759.12 334.173 718.67 294.609 713.323 250.08Z" fill="black"/>
<path d="M85.7141 56.5557H27.7083C12.4045 56.5557 0 69.5977 0 85.6673C0 101.756 12.4045 114.779 27.7083 114.779H85.7141V56.5557Z" fill="black"/>
<path d="M623.664 28.6085H681.386C675.906 16.0416 665.55 6.32536 652.853 2.18918C639.854 6.19493 629.223 15.8553 623.664 28.6085Z" fill="black"/>
<path d="M630.464 304.987C653.553 304.987 679.169 280.226 685.695 253.192V142.726H619.195V304.652L630.464 304.987Z" fill="black"/>
<path d="M630.464 360.881L619.195 361.245V635.416H685.695V412.677C679.178 385.643 653.553 360.881 630.464 360.881Z" fill="black"/>
</svg>
