<svg width="819" height="601" viewBox="0 0 819 601" fill="none" xmlns="http://www.w3.org/2000/svg">
<path fill-rule="evenodd" clip-rule="evenodd" d="M520.439 285.835H603.685C607.617 285.835 611.186 287.505 613.769 290.205C616.343 292.895 617.95 296.635 617.95 300.745V324.695H686.29C690.749 324.695 694.949 326.375 698.125 329.064C702.029 332.364 704.449 337.144 704.449 342.614V574.26H574.858V489.652H592.348V312.595H531.776V489.662H549.266V574.27H422.296V489.662H439.786V312.595H379.205V489.662H396.694V574.27H269.734V489.662H287.224V312.595H226.643V489.662H244.132V574.27H114.551V342.614C114.551 337.144 116.971 332.364 120.875 329.064C124.051 326.375 128.251 324.695 132.71 324.695H201.05V300.745C201.05 296.635 202.648 292.905 205.231 290.205H205.279C207.881 287.505 211.421 285.835 215.315 285.835H298.561C302.493 285.835 306.062 287.505 308.645 290.205C311.219 292.895 312.826 296.635 312.826 300.745V324.695H353.612V300.745C353.612 296.635 355.21 292.905 357.793 290.205H357.841C360.443 287.505 363.983 285.835 367.877 285.835H451.123C455.055 285.835 458.624 287.505 461.207 290.205C463.781 292.895 465.388 296.635 465.388 300.745V324.695H506.174V300.745C506.174 296.635 507.772 292.905 510.355 290.205H510.403C513.005 287.505 516.555 285.835 520.439 285.835ZM755.874 0H63.1354C46.9665 0 25.8129 4.80992 14.2076 16.9397C5.44386 26.0996 0 38.7594 0 52.6791V550.411C0 564.331 5.44386 576.99 14.2076 586.15C22.9714 595.31 35.0837 601 48.4016 601H770.598C783.916 601 796.029 595.31 804.792 586.15C813.556 576.99 819 564.331 819 550.411V52.6791C819 38.7594 813.556 26.0996 804.792 16.9397C792.862 4.46993 772.445 0 755.874 0ZM638.597 61.279C659.798 61.279 678.99 70.2688 692.892 84.7886C706.784 99.3083 715.385 119.378 715.385 141.538C715.385 163.697 706.793 183.757 692.892 198.287C679 212.806 659.798 221.796 638.597 221.796C617.395 221.796 598.203 212.806 584.302 198.287C570.41 183.767 561.809 163.697 561.809 141.538C561.809 119.378 570.4 99.3183 584.302 84.7886C598.203 70.2588 617.395 61.279 638.597 61.279ZM420.613 51.7092L443.517 92.7985L488.178 102.918C495.076 104.478 499.467 111.588 497.975 118.798C497.41 121.528 496.09 123.868 494.291 125.658L464.546 160.457L469.148 208.027C469.837 215.356 464.709 221.886 457.696 222.606C455.428 222.836 453.247 222.436 451.305 221.546L409.505 202.317L367.695 221.566C361.237 224.536 353.688 221.476 350.847 214.726C349.823 212.286 349.546 209.697 349.919 207.247L354.444 160.467L324.02 124.868C319.322 119.388 319.772 110.968 325.015 106.058C326.718 104.458 328.727 103.438 330.822 102.968L330.813 102.928L375.473 92.8085L398.445 51.5991C401.975 45.2192 409.792 43.0493 415.886 46.7392C417.943 47.9692 419.531 49.7092 420.613 51.7092ZM424.286 111.308C426.162 114.698 429.242 116.898 432.639 117.658V117.678L461.379 124.188L441.804 147.088C439.326 149.978 438.284 153.687 438.599 157.277L441.556 187.877L414.642 175.487C411.227 173.917 407.515 174.037 404.348 175.487L377.435 187.877L380.391 157.277C380.774 153.197 379.358 149.368 376.813 146.638L357.621 124.188L386.361 117.678C390.265 116.798 393.355 114.148 395.048 110.698L409.505 84.7886L424.286 111.308ZM116.426 69.6388H228.403C235.473 69.6388 241.204 75.6287 241.204 83.0186V200.057C241.204 207.447 235.473 213.436 228.403 213.436H116.426C109.356 213.436 103.625 207.447 103.625 200.057V83.0086C103.634 75.6287 109.365 69.6388 116.426 69.6388ZM215.602 96.3884V186.667H129.227V96.3884H215.602ZM674.79 103.698C684.051 113.378 689.782 126.758 689.782 141.528C689.782 156.307 684.051 169.677 674.79 179.357C665.529 189.037 652.728 195.027 638.597 195.027C624.456 195.027 611.664 189.037 602.403 179.357C593.142 169.677 587.411 156.297 587.411 141.528C587.411 126.748 593.142 113.378 602.403 103.698C611.664 94.0184 624.466 88.0285 638.597 88.0285C652.728 88.0285 665.529 94.0184 674.79 103.698Z" fill="black"/>
</svg>
