<svg width="773" height="750" viewBox="0 0 773 750" fill="none" xmlns="http://www.w3.org/2000/svg">
<path d="M170.66 84.0718C172.765 68.0824 177.818 52.9676 185.678 39.1017C109.464 -7.30515 12.3726 67.3957 52.3372 141.282C33.5649 156.054 25.1435 180.131 31.2833 201.992C51.1785 178.976 83.8823 162.487 118.023 159.77C101.251 133.943 148.659 97.0632 170.66 84.0718Z" fill="black"/>
<path d="M660.925 0.00121095C632.433 0.00121095 604.923 9.74514 584.15 27.108C503.024 9.90104 435.197 90.3157 476.778 154.647C435.443 184.503 445.233 248.089 493.481 267.572C499.516 307.328 538.675 338.119 585.411 337.277C636.711 419.286 771.14 352.922 719.875 270.821C746.192 245.431 752.754 205.708 735.455 174.637C812.23 114.676 763.246 -0.430503 660.925 0.00121095Z" fill="black"/>
<path d="M731.028 608.031C728.747 607.313 726.361 606.626 724.01 605.908C725.905 596.57 734.256 582.829 727.309 575.896L705.729 551.007C701.834 546.541 695.062 544.948 689.238 547.103L656.57 559.126C652.534 560.625 649.482 563.686 648.359 567.433L642.745 586.139C627.726 583.266 611.761 580.425 595.971 578.207L595.129 583.828C563.092 602.379 521.863 626.082 489.859 644.539L489.999 646.787C493.368 646.912 496.736 647.162 499.965 647.537L494.807 680.515C484.806 679.64 474.595 678.891 464.279 678.235L460.665 631.547L585.158 559.845C597.65 552.724 604.387 540.608 604.387 528.366C604.387 521.37 602.282 514.25 597.65 508.004L566.07 464.408C553.438 447.17 527.191 442.173 507.822 453.415L449.573 486.893L444.661 422.592C471.188 428.775 500.909 424.247 523.401 410.569C547.893 445.67 611.58 446.232 637.231 412.442C606.071 410.569 577.86 396.828 559.614 374.592C511.471 369.346 471.33 338.117 458.836 296.519C409.956 268.163 397.64 203.613 433.853 162.856C412.693 112.389 439.783 51.9936 491.118 27.5698C464.731 -2.28561 410.799 -8.4687 376.731 15.3283C295.605 -27.8303 186.932 28.2573 188.091 112.264C163.95 122.882 144.721 139.746 132.51 160.232C160.721 162.231 187.249 171.849 209.004 187.589C263.287 180.844 318.55 213.978 331.395 261.415C340.343 291.739 332.518 323.187 312.026 347.143C309.184 349.703 305.886 351.889 301.676 353.201L299.781 377.809L256.832 350.952C258.797 347.205 260.341 343.082 261.183 338.96C330.835 297.175 274.903 201.427 196.338 228.905C129.458 157.827 0.0178323 216.289 25.5201 306.853C37.4502 347.326 79.277 373.684 124.61 372.06C110.995 429.677 190.367 469.715 238.997 431.395L293.034 465.248L276.753 677.947C266.437 678.572 256.225 679.321 246.191 680.164L240.962 647.124C244.366 646.874 247.629 646.499 251.068 646.249L253.033 619.517C247.524 619.891 242.261 620.454 236.822 620.891L232.681 594.627C240.19 594.002 247.524 593.284 255.138 592.784L257.103 566.177C247.419 566.802 238.05 567.676 228.541 568.457C226.295 559.65 227.944 544.317 218.54 540.319L187.767 524.861C182.258 522.081 175.31 522.956 170.889 526.984L146.081 549.376C142.993 552.155 141.554 556.028 142.186 559.869L144.993 577.763C128.887 580.074 113.308 582.666 98.1494 585.508L92.7106 567.396C91.5877 563.648 88.535 560.556 84.4997 559.088L51.8318 547.065C45.972 544.879 39.2352 546.503 35.3753 550.969L13.7958 575.859C6.84811 582.792 15.1994 596.595 16.7432 604.715C-10.9068 608.368 -1.46766 640.441 24.3927 630.26L32.1123 656.025C4.2862 659.772 14.0766 691.876 39.7618 681.57L50.499 717.453C38.4988 722.949 18.3224 725.541 21.4449 740.5C22.9888 746.09 28.6381 749.993 35.0592 749.993H701.684C715.79 750.399 721.124 732.037 708.246 726.447C702.632 723.823 696.456 721.294 690.035 718.827L700.843 682.757C726.493 693.063 736.178 660.99 708.527 657.118L716.247 631.417C736.107 641.317 751.652 616.489 730.949 607.964L731.028 608.031ZM583.512 656.999C595.933 658.841 608.004 660.903 619.723 663.089L609.688 696.535C599.582 694.474 589.02 692.6 578.178 690.82L583.512 656.999ZM256.339 411.538L197.951 375.062C183.002 365.568 198.758 345.519 214.092 354.576C236.374 368.535 281.954 397.079 304.064 410.913C312.661 416.628 325.678 411.007 326.241 401.544L328.908 366.193C345.434 377.81 365.646 385.461 387.857 387.303C395.331 396.984 404.91 405.01 415.789 411.225C415.789 411.288 423.228 509.72 423.228 509.72C423.754 518.963 436.316 524.585 444.842 519.338L523.162 474.368C529.337 470.496 538.495 472.338 542.53 477.991L574.11 521.462C578.321 527.333 576.496 535.078 570.04 538.825L438.522 614.526C434.312 616.899 431.785 621.271 432.206 625.768L436.101 676.672C427.083 676.266 417.96 675.953 408.766 675.704L398.204 462.221C397.854 455.32 391.327 449.761 383.572 450.291C375.818 450.604 369.818 456.412 370.168 463.314L380.66 675.237C371.677 675.112 362.659 675.112 353.677 675.269L355.992 637.263C356.413 630.361 350.483 624.49 342.728 624.115C335.044 623.772 328.376 629.018 327.956 635.92L325.535 675.8C318.693 675.988 311.886 676.237 305.148 676.519L321.781 459.91C322.062 455.538 319.816 451.291 315.886 448.793L256.375 411.568L256.339 411.538ZM162.792 690.169C151.949 691.886 141.387 693.76 131.247 695.759L121.211 662.281C132.966 660.126 145.071 658.19 157.459 656.379L162.792 690.2L162.792 690.169ZM105.842 611.065C119.843 608.442 134.3 606.069 149.142 603.914L153.283 630.178C139.668 632.177 126.404 634.332 113.527 636.736L105.842 611.065ZM454.808 725.086H113.702C245.427 692.17 491.538 692.17 623.272 725.086H454.772H454.808ZM627.413 637.424C614.535 634.988 601.377 632.677 587.727 630.647L591.937 604.54C606.815 606.694 621.097 609.161 635.097 611.816L627.413 637.424Z" fill="black"/>
<path d="M343.428 610.727C351.498 610.727 357.709 605.481 358.025 598.767L361.007 533.903C361.323 527.002 355.323 521.193 347.568 520.912C339.603 520.475 333.287 525.971 332.971 532.873L329.988 597.736C329.673 604.638 335.673 610.446 343.428 610.727Z" fill="black"/>
</svg>
