<svg width="796" height="659" viewBox="0 0 796 659" fill="none" xmlns="http://www.w3.org/2000/svg">
<path d="M785.052 216.211C762.175 199.863 737.827 185.884 712.691 174.534C711.292 172.881 709.786 171.302 708.352 169.686C757.621 158.224 782.327 118.726 749.015 86.2566C732.341 69.9092 729.401 70.1718 724.345 49.1641C721.081 35.673 716.707 17.3706 693.256 20.1145C663.171 24.1356 632.799 67.0528 625.806 101.514C552.835 58.8973 479.215 57.0184 438.412 95.689C415.713 95.689 396.17 105.272 382.114 120.943C347.117 113.126 312.047 109.594 277.512 110.42C272.563 107.714 267.328 105.535 261.698 104.069C269.371 88.623 271.344 71.6367 265.965 55.8155C264.064 12.8986 221.285 -11.5667 188.081 5.45706C144.728 27.6674 119.09 108.956 116.902 148.603C116.902 149.016 117.046 149.392 117.046 149.806C64.4412 176.864 24.0276 214.031 23.2381 276.231C22.9871 295.51 27.2184 314.864 35.0717 332.189C-62.4994 460.606 55.1165 631.671 244.809 656.473C410.613 675.564 539.955 583.454 570.579 482.473C708.88 552.373 804.377 461.165 768.98 395.361C780.383 374.203 786.156 345.98 779.845 308.775C780.167 309.076 780.598 309.451 780.813 309.677C783.323 315.878 792.073 314.412 792.574 307.685C794.976 273.9 797.415 252.93 795.012 231.922C793.936 225.082 792.224 221.059 785.052 216.211ZM561.086 176.488C564.528 192.648 579.266 200.878 594.506 205.575C593.251 210.348 592.247 214.97 591.565 219.442C554.811 252.438 534.335 267.246 528.096 289.644C515.51 278.97 514.685 259.128 500.916 245.148C486.967 231.243 466.922 229.589 474.847 211.401C482.234 194.001 521.498 170.775 561.086 176.488ZM616.881 210.085C620.467 210.386 622.726 210.311 624.304 210.348C633.197 233.536 679.561 332.444 687.916 351.763C664.501 348.155 647.576 346.201 632.552 340.563C628.858 339.21 628.105 338.684 626.528 334.099C616.236 306.854 608.491 278.329 603.435 249.242C608.921 236.276 613.152 222.788 616.881 210.085ZM613.188 196.782C598.342 195.128 572.991 187.011 572.453 170.739C572.453 154.316 587.549 150.934 600.566 159.615C605.371 162.81 611.252 158.037 609.709 152.437C605.299 136.203 612.901 122.373 627.89 127.258C642.269 131.805 642.628 158.074 640.512 173.633H640.476C639.651 180.172 638.038 187.764 635.348 195.129C634.058 196.445 618.137 197.496 613.188 196.782ZM694.765 32.8552C713.627 30.5628 709.251 51.0065 717.714 69.0078C725.316 85.3552 739.48 91.2556 747.405 104.145C719.723 105.949 703.694 126.769 653.708 157.773C653.421 137.517 647.182 123.312 636.065 117.148C638.253 74.4935 673.465 35.7491 694.765 32.8552ZM426.406 109.746C415.54 125.229 409.229 143.718 407.437 164.162C394.671 166.718 382.551 172.392 372.188 180.622C375.703 137.93 396.787 115.232 426.406 109.746ZM475.532 395.662C428.414 348.348 385.384 290.922 374.087 223.318C383.876 214.035 396.498 208.135 409.658 206.782C418.909 261.424 452.545 322.153 505.476 370.901C497.48 381.461 487.185 390.026 475.532 395.662ZM138.361 163.525C133.269 144.622 172.678 11.4319 230.874 35.5221C249.772 43.3389 257.947 59.2351 256.656 77.8001C255.366 93.8099 247.513 103.768 246.867 105.121C240.269 115.493 234.568 117.147 237.042 123.085C239.982 130.187 246.724 124.099 264.402 129.624C287.638 136.914 299.257 157.772 296.746 175.622C294.451 190.429 287.423 201.854 276.88 207.829C245.218 225.868 183.789 202.23 151.807 179.756C146.177 175.81 139.903 169.426 138.361 163.525ZM236.685 226.21C271.109 230.005 298.469 219.182 307.182 184.119C325.399 184.758 342.897 186.675 359.464 189.794C358.962 207.833 360.754 223.955 365.99 244.436C348.599 241.919 330.383 240.415 311.378 240.415C214.67 240.415 133.879 275.028 113.408 321.214C70.2712 274.275 111.114 228.765 169.885 205.39C191.543 216.627 214.525 223.88 236.685 226.21ZM134.956 339.253C140.334 326.813 151.594 320.161 163.642 319.41C175.332 314.299 187.488 317.08 197.923 324.22C202.728 276.831 253.396 277.62 266.985 301.822C277.85 321.74 269.962 355.751 261.069 377.285C211.047 373.189 165.616 359.433 134.956 339.253ZM377.538 326.964C377.538 370.746 306.001 341.771 300.766 321.628C296.786 313.285 317.87 238.949 350.716 262.776C356.059 266.534 358.928 273.337 359.035 280.214C361.904 287.241 359.752 295.433 355.808 301.973C371.048 304.378 378.65 316.666 377.538 326.964ZM373.63 132.444C367.355 142.778 362.586 154.015 360.327 176.977C344.083 173.97 327.014 172.091 309.3 171.377C309.3 170.438 309.372 169.536 309.264 168.596C311.201 153 305.535 136.127 294.347 123.537C320.632 124.025 347.095 126.919 373.63 132.444ZM120.288 162.433C122.619 167.168 126.062 171.603 130.687 175.887C136.317 185.207 145.819 191.37 155.717 197.496C109.495 218.24 83.2475 248.267 83.2475 281.188C83.2475 377.991 297.97 425.277 430.323 364.279C437.351 372.885 446.495 383.558 457.683 395.321C382.847 427.678 304.106 439.328 230.696 431.812C151.557 423.732 97.0216 397.276 59.0819 348.495C43.7343 328.728 35.1284 302.497 35.4873 276.453C36.2045 220.795 73.2425 187.015 120.288 162.433ZM246.261 643.727C69.1208 620.578 -44.1934 464.878 41.4715 344.437C43.9816 348.646 46.5992 352.742 49.5755 356.538C139.436 472.025 336.515 463.077 467.178 405.055C491.49 429.407 523.081 456.278 559.517 476.609C531.871 572.44 407.806 662.333 246.261 643.727ZM512.684 429.407C523.621 421.177 533.015 410.842 540.546 399.155C581.496 428.054 631.698 449.701 680.785 447.333C681.753 458.72 679.099 484.726 675.98 494.459C618.392 499.307 558.188 466.424 512.684 429.407ZM721.339 482.358C721.912 468.002 721.518 453.646 720.263 439.328C737.618 432.375 750.599 422.04 761.392 407.798C772.831 437.788 750.563 468.19 721.339 482.358ZM515.438 363.11C428.697 284.453 393.844 173.14 437.734 114.964C471.798 69.6793 546.559 69.4157 621.116 113.498C607.777 113.761 596.123 125.824 596.231 143.6C580.382 138.903 564.569 146.156 561.055 163.556C516.518 157.918 473.274 183.623 463.667 206.097C453.914 228.495 469.44 238.492 480.772 245.783C497.948 256.831 496.621 258.635 507.163 281.56C526.455 323.913 569.019 312.263 594.549 267.354C599.641 291.782 606.455 315.72 615.132 338.645C618.001 346.95 621.587 350.107 628.507 352.662C645.97 359.164 698.359 366.455 699.65 366.455C705.602 366.455 708.04 358.3 703.128 354.767C702.411 353.678 648.731 237.107 637.006 208.62C640.52 207.267 644.859 204.448 646.257 200.803C675.732 221.848 736.978 273.334 764.877 296.86C801.811 444.585 649.231 484.578 515.446 363.114L515.438 363.11ZM781.328 293.585C753.215 271.6 706.492 229.623 650.233 188.133C650.878 185.653 651.416 182.984 651.882 180.128C690.107 174.754 704.558 185.314 706.674 185.765C740.165 200.76 779.825 226.315 782.012 230.261C786.171 237.251 781.758 287.572 781.328 293.585Z" fill="black"/>
</svg>
