<svg width="758" height="723" viewBox="0 0 758 723" fill="none" xmlns="http://www.w3.org/2000/svg">
<path d="M699.039 0H58.9613C26.4459 0 0 27.4648 0 61.233V621.335C0 655.103 26.4459 682.568 58.9613 682.568H99.6273V709.493C99.6273 716.967 105.437 723 112.633 723H645.367C652.563 723 658.373 716.967 658.373 709.493V682.568H699.039C731.554 682.568 758 655.103 758 621.335V61.233C758 27.4648 731.467 0 699.039 0ZM632.36 695.895H125.64V682.478H632.36V695.895ZM731.988 621.245C731.988 640.155 717.161 655.464 699.039 655.464H58.9613C40.8394 655.464 26.0124 640.155 26.0124 621.245V61.143C26.0124 42.2328 40.8394 26.9245 58.9613 26.9245H698.952C717.074 26.9245 731.901 42.2328 731.901 61.143V621.245H731.988Z" fill="black"/>
<path d="M650.656 91.0391L579.902 76.8114C448.54 50.4272 309.634 50.4272 178.271 76.8114L107.518 91.0391C103.096 91.9396 99.3672 95.1813 97.8065 99.5937C53.0652 224.401 53.0652 356.322 97.8065 481.13C99.3672 485.542 103.096 488.784 107.518 489.684L178.358 503.912C244.083 517.059 311.628 523.722 379.173 523.722C446.719 523.722 514.264 517.149 579.989 503.912L650.742 489.684C655.165 488.784 658.893 485.542 660.454 481.13C705.195 356.322 705.195 224.401 660.454 99.5937C658.72 95.1813 655.078 91.9396 650.656 91.0391Z" fill="black"/>
<path d="M616.493 536.599C592.908 536.599 573.746 556.5 573.746 580.993C573.746 605.487 592.908 625.387 616.493 625.387C640.077 625.387 659.24 605.487 659.24 580.993C659.24 556.5 640.077 536.599 616.493 536.599ZM641.898 580.993C641.898 582.524 641.725 584.055 641.465 585.586L600.278 560.913C604.701 557.041 610.337 554.699 616.493 554.699C630.539 554.609 641.898 566.496 641.898 580.993ZM591.087 580.993C591.087 579.463 591.261 577.932 591.521 576.401L632.707 601.074C628.285 604.946 622.649 607.288 616.493 607.288C602.533 607.378 591.087 595.581 591.087 580.993Z" fill="black"/>
<path d="M141.507 536.599C117.923 536.599 98.7602 556.5 98.7602 580.993C98.7602 605.487 117.923 625.387 141.507 625.387C165.092 625.387 184.254 605.487 184.254 580.993C184.254 556.5 165.092 536.599 141.507 536.599ZM141.507 554.609C147.663 554.609 153.299 557.04 157.722 560.823L116.535 585.496C116.275 583.965 116.102 582.524 116.102 580.903C116.102 566.496 127.461 554.609 141.507 554.609ZM141.507 607.378C135.351 607.378 129.715 604.946 125.293 601.164L166.479 576.491C166.739 578.022 166.913 579.463 166.913 581.083C166.913 595.581 155.467 607.378 141.507 607.378Z" fill="black"/>
<path d="M524.929 559.382H233.071C228.302 559.382 224.4 563.434 224.4 568.387V611.7C224.4 616.653 228.302 620.705 233.071 620.705H524.929C529.698 620.705 533.6 616.653 533.6 611.7V568.387C533.6 563.434 529.698 559.382 524.929 559.382ZM516.259 602.695H241.741V577.391H516.259V602.695Z" fill="black"/>
</svg>
