<svg width="757" height="781" viewBox="0 0 757 781" fill="none" xmlns="http://www.w3.org/2000/svg">
<path fill-rule="evenodd" clip-rule="evenodd" d="M556.584 355.753C565.68 437.97 565.606 519.369 556.695 600.036C552.849 634.846 533.548 660.468 509.218 663.105C382.423 676.865 255.637 676.865 128.842 663.143C104.438 660.507 85.0991 634.652 81.3279 599.688C72.7864 520.03 72.6755 438.9 81.4758 356.178C85.2103 321.253 104.475 295.398 128.879 292.685C258.069 278.226 384.864 278.459 509.293 292.646C533.549 295.398 552.738 321.021 556.584 355.753ZM417.218 477.701C417.218 464.715 412.263 453.513 402.798 445.14C339.569 389.283 222.284 303.812 222.284 427.775V527.624C222.284 651.547 339.575 566.115 402.798 510.258C412.264 501.885 417.218 490.686 417.218 477.701ZM10.2239 289.425C-3.45709 417.575 -3.27252 543.324 9.96507 666.741C15.7703 720.893 45.7953 760.936 83.5839 765.044C280.076 786.325 476.531 786.325 673.023 765.006C710.702 760.935 740.615 721.203 746.605 667.245C760.434 542.23 760.545 416.064 746.457 288.687C740.504 234.884 710.776 195.19 673.171 190.926C580.324 180.344 486.665 174.801 392.12 174.374L392.083 174.335L477.867 18.5483C481.121 12.6175 479.161 5.09714 473.541 1.68648C467.884 -1.72468 460.71 0.329757 457.457 6.22176L379.881 147.163C379.252 148.288 377.773 148.288 377.145 147.163L299.532 6.18207C296.278 0.251266 289.068 -1.76437 283.411 1.68559C277.754 5.09675 275.831 12.6559 279.122 18.5861L364.906 174.373V174.412C271.985 174.955 178.287 180.459 83.7038 191.042C45.9141 195.267 15.9924 235.311 10.2239 289.425ZM689.475 369.471C689.475 384.744 677.68 397.109 663.111 397.109C648.542 397.109 636.747 384.744 636.747 369.471C636.747 354.198 648.542 341.832 663.111 341.832C677.68 341.832 689.475 354.198 689.475 369.471ZM663.111 558.283C677.68 558.283 689.475 570.648 689.475 585.921C689.475 601.194 677.68 613.56 663.111 613.56C648.542 613.56 636.747 601.194 636.747 585.921C636.784 570.648 648.579 558.283 663.111 558.283Z" fill="black"/>
</svg>
