<svg width="808" height="811" viewBox="0 0 808 811" fill="none" xmlns="http://www.w3.org/2000/svg">
<path d="M740.667 405.709H67.3334C30.199 405.709 0 436.036 0 473.328V703.228C0 740.52 30.199 770.847 67.3334 770.847H121.537C126.52 824.401 203.415 824.367 208.396 770.847H606.338C611.32 824.401 688.215 824.367 693.197 770.847H740.667C777.801 770.847 808 740.52 808 703.228V473.328C808 436.036 777.802 405.709 740.667 405.709ZM215.463 743.8H67.3248C45.0377 743.8 26.9247 725.61 26.9247 703.228V622.085H215.458L215.463 743.8ZM565.596 743.8H242.396V622.09H565.596V743.8ZM781.063 703.228C781.063 725.61 762.95 743.8 740.663 743.8H592.532V622.09H781.066L781.063 703.228Z" fill="black"/>
<path d="M673.338 311.047V40.5714C673.338 18.1898 655.225 0 632.938 0H175.071C152.784 0 134.671 18.1898 134.671 40.5714V311.047C134.671 333.429 152.784 351.618 175.071 351.618H202.442C178.707 389.755 232.17 426.844 259.642 391.649L289.538 351.618H518.468L548.364 391.649C575.87 426.878 629.299 389.722 605.564 351.618H632.935C655.222 351.618 673.338 333.429 673.338 311.047ZM208.438 191.328C192.918 199.577 180.057 176.418 195.544 167.594L399.832 55.7509C415.42 47.5014 428.18 70.695 412.727 79.4852L208.438 191.328ZM262.339 268.819C246.852 277.035 233.924 253.942 249.444 245.085L545.711 82.7993C561.299 74.5836 574.059 97.7097 558.606 106.534L262.339 268.819ZM612.472 188.893L417.208 295.863C401.654 304.079 388.826 280.953 404.313 272.129L599.578 165.159C615.199 156.943 627.926 180.103 612.472 188.893Z" fill="black"/>
</svg>
