<svg width="739" height="746" viewBox="0 0 739 746" fill="none" xmlns="http://www.w3.org/2000/svg">
<path d="M715.335 379.217H715.37H457.418C451.449 365.556 439.866 355.906 426.186 354.159H416.593L411.156 299.515H593.576C600.149 299.515 605.479 293.558 605.479 286.211V13.3038C605.479 5.9569 600.149 0 593.576 0H145.391C138.818 0 133.488 5.9569 133.488 13.3038V286.211C133.488 293.558 138.818 299.515 145.391 299.515H327.81L322.374 354.159H312.851C299.136 355.867 287.589 365.557 281.584 379.217L23.5955 379.257C10.7329 379.058 0.180691 390.575 0.00241017 404.951C-0.175243 418.85 9.48949 430.446 21.9255 431.28V661.691C21.9255 672.731 29.92 681.666 39.7972 681.666H58.2374C58.2374 681.666 58.6638 716.613 58.6638 730.75C58.1308 738.534 63.3539 745.365 70.3175 745.96C70.6373 746 70.9571 746 71.2769 746H80.6566C85.8797 745.365 90.2856 741.433 91.9556 735.873C95.793 721.815 103.148 681.666 103.148 681.666H636.153C636.153 681.666 643.508 721.815 647.345 735.873C649.015 741.433 653.457 745.365 658.644 746H667.989C674.988 746 680.638 739.646 680.638 731.823C680.638 731.466 680.638 731.108 680.602 730.751C680.602 716.613 681.028 681.666 681.028 681.666H699.469C709.346 681.666 717.34 672.731 717.34 661.691V431.239C730.167 430.246 739.832 417.816 738.943 403.48C738.091 389.66 727.68 379.017 715.279 379.255L715.335 379.217ZM172.279 263.808C168.975 263.808 166.31 260.83 166.31 257.136V45.0753C166.31 41.4217 168.975 38.4036 172.279 38.4036H566.634C569.938 38.4036 572.603 41.3821 572.603 45.0753V257.136C572.603 260.83 569.938 263.808 566.634 263.808H172.279ZM681.088 617.325C681.088 628.364 673.094 637.3 663.217 637.3H512.315C528.73 636.664 541.593 621.256 541.023 602.909C540.491 585.435 527.948 571.416 512.315 570.822H456.425C468.79 570.822 478.844 559.622 478.844 545.763C478.844 531.943 468.824 520.705 456.425 520.705H282.501C270.136 520.705 260.081 531.905 260.081 545.763C260.081 559.584 270.101 570.822 282.501 570.822H226.611C210.195 571.457 197.333 586.865 197.902 605.212C198.435 622.686 210.978 636.705 226.611 637.3H76.1002C66.2229 637.3 58.2285 628.364 58.2285 617.325V491.282C58.2285 480.242 66.223 471.307 76.1002 471.307H663.217C673.094 471.307 681.088 480.242 681.088 491.282V617.325ZM230.557 613.87C226.08 613.87 222.42 609.819 222.42 604.776C222.42 599.772 226.044 595.681 230.557 595.681H508.374C512.851 595.681 516.511 599.732 516.511 604.776C516.511 609.779 512.887 613.87 508.374 613.87H230.557Z" fill="black"/>
</svg>
