<svg width="803" height="838" viewBox="0 0 803 838" fill="none" xmlns="http://www.w3.org/2000/svg">
<path d="M595.028 89.0409C594.502 91.5965 594.238 94.2867 594.238 97.1117V251.79H556.88C563.325 221.93 559.642 203.368 546.093 161.134L553.723 155.486C560.3 150.644 561.747 141.228 557.012 134.368H556.88C552.144 127.643 542.804 126.029 536.227 131.006L518.074 144.456C434.938 124.012 368.113 124.012 284.976 144.456L266.955 131.006C260.246 126.029 250.907 127.643 246.171 134.368H246.039C241.435 141.228 242.751 150.644 249.46 155.486L256.958 161.134C243.408 203.368 239.725 221.93 246.171 251.79H208.812V97.1117C208.812 94.2868 208.549 91.5966 208.023 89.0409C326.677 15.199 476.243 15.199 595.028 89.0409Z" fill="black"/>
<path d="M182.503 97.1117V251.79H146.197C128.833 251.79 112.259 257.439 98.7091 267.527V97.1117C98.7091 89.7133 104.629 83.6614 111.864 83.6614H137.515C116.336 82.0473 99.4984 64.1583 99.4984 41.9649C99.4984 18.8308 117.915 0 140.54 0C163.297 0 181.714 18.8307 181.714 41.9649C181.714 64.1582 164.877 82.0473 143.566 83.6614H169.349C176.584 83.6614 182.503 89.7133 182.503 97.1117Z" fill="black"/>
<path d="M704.341 97.1117V267.527C690.793 257.439 674.218 251.79 656.854 251.79H620.547V97.1117C620.547 89.7133 626.467 83.6614 633.702 83.6614H659.353C638.175 82.0473 621.337 64.1583 621.337 41.9649C621.337 18.8308 639.753 0 662.378 0C685.136 0 703.552 18.8307 703.552 41.9649C703.552 64.1582 686.715 82.0473 665.405 83.6614H691.187C698.422 83.6614 704.341 89.7133 704.341 97.1117Z" fill="black"/>
<path d="M677.901 443.457C677.901 455.561 680.663 466.995 685.531 477.082C609.366 432.293 508.208 407.006 401.526 407.006C294.711 407.006 193.685 432.158 117.52 477.082C122.387 466.995 125.15 455.561 125.15 443.457C125.15 410.503 104.102 380.913 73.847 370.825L92.2636 326.17C93.3162 319.175 95.5522 312.719 98.7091 306.936C108.049 289.854 125.939 278.691 146.197 278.691H656.854C676.981 278.691 694.871 289.854 704.341 306.936C707.499 312.719 709.735 319.175 710.788 326.17L729.204 370.69C698.948 381.047 677.901 410.638 677.901 443.457Z" fill="black"/>
<path d="M98.8408 443.457C98.8408 471.164 76.8731 493.491 49.9057 493.491C41.2242 493.491 33.0684 491.205 25.9652 487.035C11.1007 478.562 0.971463 462.287 0.971463 443.457C0.971463 415.883 22.9392 393.556 49.9057 393.556C54.642 393.556 59.2457 394.228 63.5869 395.574C83.9763 401.626 98.8408 420.726 98.8408 443.457Z" fill="black"/>
<path d="M802.08 443.457C802.08 471.548 779.647 493.491 753.145 493.491C726.178 493.491 704.211 471.164 704.211 443.457C704.211 420.726 719.074 401.626 739.464 395.574C743.805 394.228 748.409 393.556 753.145 393.556C780.111 393.556 802.08 415.883 802.08 443.457Z" fill="black"/>
<path d="M677.112 503.041C676.981 504.386 676.981 505.597 676.981 506.942V765.053H126.071V506.942C126.071 505.597 126.071 504.386 125.939 503.041C277.216 410.772 525.966 410.906 677.112 503.041Z" fill="black"/>
<path d="M86.6482 493.473H13.1545C5.88913 493.473 0 499.494 0 506.923V778.701C0 786.13 5.88913 792.151 13.1545 792.151H21.7558V824.55C21.7558 832.082 27.6747 838 34.9103 838H64.9021C72.137 838 78.0566 832.082 78.0566 824.55V792.151H86.6483C93.9137 792.151 99.8028 786.13 99.8028 778.701V506.923C99.8027 499.494 93.9135 493.473 86.6482 493.473Z" fill="black"/>
<path d="M803 506.942V778.638C803 786.17 797.212 792.088 789.846 792.088H781.296V824.503C781.296 832.035 775.376 837.953 768.141 837.953H738.148C730.914 837.953 724.994 832.035 724.994 824.503V792.088H716.444C709.078 792.088 703.29 786.17 703.29 778.638V506.942C703.29 499.544 709.078 493.491 716.444 493.491H789.846C797.212 493.491 803 499.544 803 506.942Z" fill="black"/>
</svg>
