<svg width="682" height="825" viewBox="0 0 682 825" fill="none" xmlns="http://www.w3.org/2000/svg">
<path d="M472.734 568.837C463.189 557.639 450.02 551.207 435.646 550.723C421.253 550.361 407.745 555.759 397.574 566.232C392.361 571.604 383.917 571.604 378.704 566.232C368.552 555.746 354.924 550.235 340.625 550.723C326.258 551.207 313.083 557.639 303.544 568.837C285.736 589.731 287.463 622.253 307.473 642.864L388.139 725.982L468.805 642.864C488.815 622.253 490.542 589.731 472.734 568.837Z" fill="black"/>
<path d="M541.652 551.355C526.938 549.018 512.373 553.241 501.131 562.701C518.867 593.862 514.054 635.139 487.675 662.308L440.39 711.03C446.721 714.417 453.598 716.637 460.81 717.308L574.414 727.862L584.663 610.799C587.211 581.742 568.315 555.638 541.652 551.355Z" fill="black"/>
<path d="M174.371 165.545V6.42686L6.60766 179.295H161.027C168.383 179.295 174.371 173.132 174.371 165.545Z" fill="black"/>
<path d="M615.278 0H202.271V167.175C202.271 189.922 184.314 208.425 162.238 208.425H0V756.25C0 794.157 29.9337 825 66.7222 825H615.278C652.066 825 682 794.157 682 756.25V68.75C682 30.8434 652.066 0 615.278 0ZM374.296 265.963H601.021C608.391 265.963 614.366 272.113 614.366 279.713C614.366 287.313 608.391 293.463 601.021 293.463H374.296C366.927 293.463 360.952 287.313 360.952 279.713C360.952 272.113 366.927 265.963 374.296 265.963ZM374.296 351.001H601.021C608.391 351.001 614.366 357.151 614.366 364.751C614.366 372.351 608.391 378.501 601.021 378.501H374.296C366.927 378.501 360.952 372.351 360.952 364.751C360.952 357.151 366.927 351.001 374.296 351.001ZM614.366 433.877C614.366 441.477 608.391 447.627 601.021 447.627H439.695C432.326 447.627 426.351 441.477 426.351 433.877C426.351 426.277 432.326 420.127 439.695 420.127H601.021C608.391 420.127 614.366 426.277 614.366 433.877ZM80.9789 265.963H294.627C301.996 265.963 307.971 272.113 307.971 279.713C307.971 287.313 301.996 293.463 294.627 293.463H80.9789C73.6094 293.463 67.6344 287.313 67.6344 279.713C67.6344 272.113 73.6094 265.963 80.9789 265.963ZM80.9789 351.001H294.627C301.996 351.001 307.971 357.151 307.971 364.751C307.971 372.351 301.996 378.501 294.627 378.501H80.9789C73.6094 378.501 67.6344 372.351 67.6344 364.751C67.6344 357.151 73.6094 351.001 80.9789 351.001ZM80.9789 420.127H374.296C381.665 420.127 387.64 426.277 387.64 433.877C387.64 441.477 381.665 447.627 374.296 447.627H80.9789C73.6094 447.627 67.6344 441.477 67.6344 433.877C67.6344 426.277 73.6094 420.127 80.9789 420.127ZM209.406 729.435H80.9789C73.6094 729.435 67.6344 723.285 67.6344 715.685C67.6344 708.085 73.6094 701.935 80.9789 701.935H209.406C216.776 701.935 222.75 708.085 222.75 715.685C222.75 723.285 216.776 729.435 209.406 729.435ZM280.754 729.435H253.798C246.429 729.435 240.454 723.285 240.454 715.685C240.454 708.085 246.429 701.935 253.798 701.935H280.754C288.124 701.935 294.099 708.085 294.099 715.685C294.099 723.285 288.124 729.435 280.754 729.435ZM614.033 611.15L602.585 741.909C601.949 749.496 595.323 755.071 588.094 754.37L461.185 742.581C447.694 741.318 434.958 736.512 423.747 728.929L400.359 753.027C397.753 755.713 394.339 757.056 390.924 757.056C387.51 757.056 384.096 755.713 381.49 753.027L291.389 660.188C261.455 629.358 259.207 580.32 286.274 548.563C300.739 531.604 320.723 521.856 342.551 521.117C359.812 520.54 376.981 526.005 390.925 536.398C404.862 526.005 421.914 520.513 439.292 521.117C456.927 521.714 473.302 528.271 486.596 539.684C503.713 525.035 526.027 518.433 548.543 522.057C589.071 528.569 617.832 567.698 614.033 611.15Z" fill="black"/>
</svg>
