<svg width="880" height="742" viewBox="0 0 880 742" fill="none" xmlns="http://www.w3.org/2000/svg">
<path d="M803.885 42.6173C720.282 -20.8041 623.758 -13.0514 536.518 63.2795C449.312 -13.0901 353.009 -20.8051 269.403 42.8882C228.238 74.328 202.615 119.53 195.627 171.903C153.952 171.631 113.844 185.703 75.8122 214.623C17.832 258.739 -8.80969 329.565 2.58194 408.958C18.1236 518.124 113.88 662.839 334.92 740.605C337.504 741.419 340.343 742 343.218 742C345.803 742 348.642 741.457 351.226 740.605C480.358 695.132 581.835 619.847 638.504 528.048C779.581 454.16 869.626 340.035 879.195 221.481C885.164 148.717 857.721 83.3561 803.891 42.5776L803.885 42.6173ZM827.689 216.836C822.266 281.614 779.026 369.262 677.294 441.212C701.607 351.352 678.604 266.14 610.252 214.355C526.648 150.934 430.376 158.687 343.136 235.017C318.277 213.231 285.411 191.172 246.867 179.621C252.036 142.134 270.161 109.88 299.424 87.551C387.177 20.8338 467.14 68.5164 518.899 120.076C519.918 120.89 521.228 121.471 522.538 122.285C524.103 123.371 525.377 124.495 526.942 125.309C528.507 125.852 530.036 126.123 531.601 126.395C533.166 126.666 534.95 127.209 536.769 127.209C538.335 127.209 539.608 126.666 541.174 126.395C542.993 126.123 544.813 125.852 546.342 125.309C547.907 124.495 549.181 123.371 550.491 122.557C551.801 121.471 553.075 121.161 554.386 120.076C606.142 68.5165 686.145 21.1048 773.86 87.5511C812.95 117.324 832.093 163.071 827.689 216.836Z" fill="black"/>
</svg>
