<svg width="820" height="816" viewBox="0 0 820 816" fill="none" xmlns="http://www.w3.org/2000/svg">
<path d="M0 786.857C0 802.886 13.1786 816 29.2857 816H790.714C806.821 816 820 802.886 820 786.857V757.714H0V786.857Z" fill="black"/>
<path d="M790.714 58.2857H702.857V87.4286C702.857 95.4429 699.636 102.729 694.218 107.974C688.946 113.366 681.625 116.571 673.571 116.571C657.464 116.571 644.286 103.457 644.286 87.4286V58.2857H527.143V87.4286C527.143 95.4429 523.921 102.729 518.504 107.974C513.232 113.366 505.911 116.571 497.857 116.571C481.75 116.571 468.571 103.457 468.571 87.4286V58.2857H351.429V87.4286C351.429 95.4429 348.207 102.729 342.789 107.974C337.518 113.366 330.196 116.571 322.143 116.571C306.036 116.571 292.857 103.457 292.857 87.4286V58.2857H175.714V87.4286C175.714 95.4429 172.493 102.729 167.075 107.974C161.804 113.366 154.482 116.571 146.429 116.571C130.321 116.571 117.143 103.457 117.143 87.4286V58.2857H29.2857C13.1786 58.2857 0 71.4 0 87.4286V204H820V87.4286C820 71.4 806.821 58.2857 790.714 58.2857Z" fill="black"/>
<path d="M0 728.571H820V233.143H0V728.571ZM520.407 418.2L539.296 404.94C569.021 382.354 610.021 383.666 635.354 414.12C660.539 444.429 659.368 489.6 628.911 523.114C598.454 556.774 501.518 616.954 501.518 616.954C501.518 616.954 417.468 539.871 393.893 501.111C370.318 462.643 377.493 417.909 407.95 392.846C438.554 367.491 479.114 373.903 504.154 401.589L520.261 418.2H520.407ZM179.229 396.051C202.95 355.397 250.539 345.926 289.929 366.471L314.675 378.274L330.343 355.689C354.211 318.386 400.189 303.086 441.189 326.691C451.439 332.666 460.225 340.389 467.254 349.277C461.982 348.403 456.564 347.82 451.146 347.82C428.743 347.82 407.364 355.689 389.5 370.406C347.182 405.231 338.689 466.577 369 516.266C377.346 530.109 391.843 547.449 407.804 564.789C389.939 589.269 375.882 607.337 375.882 607.337C375.882 607.337 250.393 555.9 208.221 522.386C166.05 489.163 155.654 436.414 179.229 396.051Z" fill="black"/>
<path d="M175.714 29.1429C175.714 13.1143 162.536 0 146.429 0C130.321 0 117.143 13.1143 117.143 29.1429V58.2857H175.714V29.1429Z" fill="black"/>
<path d="M351.429 29.1429C351.429 13.1143 338.25 0 322.143 0C306.036 0 292.857 13.1143 292.857 29.1429V58.2857H351.429V29.1429Z" fill="black"/>
<path d="M527.143 29.1429C527.143 13.1143 513.964 0 497.857 0C481.75 0 468.571 13.1143 468.571 29.1429V58.2857H527.143V29.1429Z" fill="black"/>
<path d="M702.857 29.1429C702.857 13.1143 689.679 0 673.571 0C657.464 0 644.286 13.1143 644.286 29.1429V58.2857H702.857V29.1429Z" fill="black"/>
</svg>
