<svg width="802" height="689" viewBox="0 0 802 689" fill="none" xmlns="http://www.w3.org/2000/svg">
<path d="M558.631 576.608C567.037 593.439 564.261 605.442 560.405 612.577C554.892 622.915 543.787 628.169 529.02 627.315C524.856 626.973 520.691 627.7 516.797 629.408C438.642 665.804 299.606 689 193.616 689C148.697 689 109.678 684.814 83.8058 675.715C81.6081 674.903 79.2561 675.032 77.1355 676.057C67.6891 681.14 56.739 681.397 47.061 676.826C39.8894 672.768 34.8768 665.206 33.5659 656.406C32.4863 649.443 32.9876 642.309 34.9539 635.603C35.4552 632.399 34.9925 629.11 33.643 626.248C-7.95933 517.317 -2.7161 402.577 9.00517 325.425C9.35218 323.332 8.96662 321.196 8.00272 319.401C3.33731 310.986 -3.56457 294.966 2.18068 281.852C9.42941 265.363 22.6157 259.98 41.3934 265.876C43.8224 266.73 46.4443 266.688 48.8734 265.791C93.0214 247.635 338.011 191.803 477.66 229.181C482.017 230.291 486.566 230.206 490.884 228.839C504.341 224.738 514.558 225.72 521.344 231.872C531.022 240.672 533.49 255.409 528.246 273.437C527.359 276.598 527.359 279.973 528.246 283.134C538.656 322.05 571.314 456.522 555.081 553.03C553.694 561.061 554.927 569.392 558.513 576.568L558.631 576.608ZM796.798 87.9507C791.477 80.2615 781.684 76.6737 767.803 77.1858C763.331 77.3994 758.858 76.3314 754.848 74.1101C626.452 1.70279 384.436 2.89916 342.249 8.58033C339.705 8.83664 337.121 8.19588 334.924 6.74345C317.881 -3.80789 303.963 -1.9711 293.437 12.2114C285.108 23.4884 288.501 40.8753 291.239 50.1883C291.817 52.196 291.702 54.3746 290.93 56.3397C272.654 103.373 258.504 152.199 248.633 202.224C286.419 197.653 324.359 195.261 362.342 195.047H362.38C402.633 194.321 442.848 198.721 482.219 208.289C482.681 208.418 483.144 208.46 483.607 208.46C484.339 208.46 485.072 208.332 485.766 208.119C492.205 206.068 498.836 205 505.545 204.872C515.724 204.53 525.711 208.204 533.692 215.252C549.424 229.478 554.32 252.374 547.264 278.304C555.593 309.745 576.298 395.394 578.727 478.561C594.265 479.416 609.534 479.885 624.224 479.885C652.679 480.227 681.095 478.048 709.242 473.392C713.368 472.751 717.57 473.136 721.58 474.503C735.731 479.074 747.644 476.852 755.201 468.223C760.368 462.285 765.535 451.349 760.946 432.81C758.941 424.907 759.481 416.491 762.527 409.016C798.5 319.308 794.799 180.128 792.833 139.589C792.64 136.3 793.334 133.011 794.837 130.149C803.667 113.958 804.361 98.9639 796.765 87.9428L796.798 87.9507Z" fill="black"/>
</svg>
