<svg width="474" height="438" viewBox="0 0 474 438" fill="none" xmlns="http://www.w3.org/2000/svg">
<path d="M461.133 340.739C462.65 346.524 461.133 352.254 456.97 356.509C452.807 360.708 446.924 362.332 441.207 360.802L393.327 347.85C381.578 344.639 369.22 345.274 357.619 349.66H357.563C369.349 326.723 377.027 301.361 379.302 274.558C384.409 214.071 363.003 155.018 320.467 112.601C279.69 71.803 223.945 50.8625 166.63 54.3168C204.28 15.2919 256.901 -4.49287 312.235 0.86302C395.122 8.88825 462.468 75.3486 472.367 158.845C476.53 193.671 470.665 228.61 455.365 259.852C448.834 273.178 447.224 288.146 450.869 302.031L461.133 340.739Z" fill="black"/>
<path d="M305.169 128.218C267.278 90.3319 214.936 71.5586 161.411 76.7091C154.88 77.3809 148.478 78.4261 142.132 79.7138H141.984C68.1634 95.4471 10.4224 157.802 1.28122 234.729C-2.84458 269.555 3.03884 304.527 18.2838 335.827C24.8148 349.152 26.4247 364.157 22.7797 377.968L12.4928 416.619C10.9757 422.349 12.5483 428.228 16.7111 432.427C20.8739 436.626 26.7019 438.212 32.3818 436.682L80.3564 423.73C85.3334 422.386 90.4027 421.715 95.4166 421.715C102.373 421.715 109.293 423.002 115.916 425.54C143.668 436.197 172.696 439.594 202.208 435.805C251.997 429.31 295.382 401.875 323.686 362.944C324.112 362.235 324.537 361.507 325.148 360.891C343.057 335.434 354.658 305.239 357.451 272.746C362.095 218.714 343.022 166.125 305.169 128.218ZM242.133 319.869H116.046C109.978 319.869 105.112 314.942 105.112 308.839C105.112 302.774 109.996 297.809 116.046 297.809H242.133C248.201 297.809 253.067 302.774 253.067 308.839C253.067 314.998 248.183 319.869 242.133 319.869ZM242.133 245.852H116.046C109.978 245.852 105.112 240.887 105.112 234.822C105.112 228.701 109.996 223.792 116.046 223.792H242.133C248.201 223.792 253.067 228.719 253.067 234.822C253.067 240.887 248.183 245.852 242.133 245.852Z" fill="black"/>
</svg>
