<svg width="506" height="525" viewBox="0 0 506 525" fill="none" xmlns="http://www.w3.org/2000/svg">
<path d="M283.874 485.443C286.656 486.272 289.691 486.825 292.472 487.375C285.898 490.411 278.815 493.172 271.228 495.931L231.267 510.284C130.86 545.611 77.9996 516.081 45.3739 406.508L12.9998 297.487C-19.3727 187.916 7.43636 129.955 107.844 94.6279L146.794 80.5517C141.988 93.7991 137.941 108.98 134.148 126.092L109.361 241.736C81.5408 371.731 122.26 443.492 241.384 474.404L283.874 485.443ZM384.03 19.5551L341.791 8.79234C257.318 -13.0127 206.988 4.92794 177.396 71.7195C169.808 88.5551 163.739 108.98 158.68 132.44L133.895 248.084C109.108 363.452 141.735 420.308 247.201 447.631L289.691 458.672C304.36 462.536 318.017 465.019 330.663 466.125C409.573 474.404 451.558 434.108 472.802 334.472L497.589 219.104C522.374 103.736 490 46.6042 384.03 19.5551Z" fill="black"/>
</svg>
