<svg width="650" height="741" viewBox="0 0 650 741" fill="none" xmlns="http://www.w3.org/2000/svg">
<path d="M488 660.492L248.996 735.669C233.908 740.419 218.073 742.017 202.394 740.374C186.715 738.73 171.5 733.876 157.617 726.089C143.735 718.303 131.457 707.735 121.486 694.992C111.514 682.248 104.044 667.578 99.5026 651.818L5.00825 323.642C-4.05031 291.934 -0.731358 257.77 14.2407 228.608C29.2127 199.446 54.622 177.653 84.9224 167.988L94.1504 165V467.731C94.1504 518.855 113.595 567.884 148.207 604.034C182.818 640.184 229.762 660.492 278.71 660.492H488Z" fill="black"/>
<path d="M529.929 0H279.072C247.227 0 216.686 13.1957 194.168 36.6842C171.65 60.1727 159 92.03 159 125.248V467.752C159 500.97 171.65 532.827 194.168 556.316C216.686 579.804 247.227 593 279.072 593H529.929C561.773 593 592.314 579.804 614.832 556.316C637.35 532.827 650 500.97 650 467.752V125.248C650 92.03 637.35 60.1727 614.832 36.6842C592.314 13.1957 561.773 0 529.929 0ZM403.299 450.988H328.116C320.767 450.988 313.719 447.943 308.523 442.523C303.327 437.102 300.407 429.751 300.407 422.085C300.407 414.419 303.327 407.068 308.523 401.647C313.719 396.227 320.767 393.182 328.116 393.182H403.299C410.648 393.182 417.696 396.227 422.892 401.647C428.089 407.068 431.008 414.419 431.008 422.085C431.008 429.751 428.089 437.102 422.892 442.523C417.696 447.943 410.648 450.988 403.299 450.988ZM480.884 325.741H328.116C320.767 325.741 313.719 322.695 308.523 317.275C303.327 311.855 300.407 304.503 300.407 296.837C300.407 289.172 303.327 281.82 308.523 276.399C313.719 270.979 320.767 267.934 328.116 267.934H480.884C488.233 267.934 495.281 270.979 500.477 276.399C505.673 281.82 508.593 289.172 508.593 296.837C508.593 304.503 505.673 311.855 500.477 317.275C495.281 322.695 488.233 325.741 480.884 325.741ZM480.884 200.493H328.116C320.767 200.493 313.719 197.448 308.523 192.027C303.327 186.607 300.407 179.255 300.407 171.589C300.407 163.924 303.327 156.572 308.523 151.152C313.719 145.731 320.767 142.686 328.116 142.686H480.884C488.233 142.686 495.281 145.731 500.477 151.152C505.673 156.572 508.593 163.924 508.593 171.589C508.593 179.255 505.673 186.607 500.477 192.027C495.281 197.448 488.233 200.493 480.884 200.493Z" fill="black"/>
</svg>
