<svg width="850" height="795" viewBox="0 0 850 795" fill="none" xmlns="http://www.w3.org/2000/svg">
<path d="M6.84027 645.215C22.8993 689.193 65.3165 717.598 114.906 717.598C127.358 717.598 139.632 715.804 151.399 712.245C193.501 699.579 231.845 665.376 257.243 619.215C304.638 683.117 378.2 741.707 476.927 793.443C478.901 794.486 481.068 795 483.221 795C485.374 795 487.555 794.472 489.53 793.443C608.196 731.085 753.07 625.097 769.349 474.214C779.168 382.241 731.334 308.954 650.298 291.839C611.872 283.733 572.952 291.185 540.696 312.778C516.121 329.226 496.249 353.335 483.208 381.782C470.166 353.363 450.28 329.254 425.705 312.806C407.287 300.487 386.689 292.937 365.268 290.073V208.278C365.268 142.346 418.176 88.7056 483.208 88.7056C548.157 88.7056 601.01 142.346 601.01 208.278V240.673C601.01 248.348 607.154 254.577 614.724 254.577H674.928C682.498 254.577 688.642 248.348 688.642 240.673V208.278C688.642 93.4329 596.485 0 483.208 0C369.848 0 277.636 93.4329 277.636 208.278V305.311C232.489 328.266 203.21 372.522 197.066 428.053C182.667 417.626 167.307 409.603 151.371 404.806C139.577 401.275 127.303 399.467 114.892 399.467C65.3165 399.467 22.8993 427.873 6.82655 471.85C-3.32176 499.63 -2.08751 530.83 10.0768 558.54C-2.06008 586.25 -3.29433 617.45 6.84027 645.215ZM305.091 208.278C305.091 108.769 385.002 27.8074 483.235 27.8074C581.386 27.8074 661.242 108.769 661.242 208.278V226.769H628.466V208.278C628.466 127.01 563.324 60.8982 483.235 60.8982C403.077 60.8982 337.867 127.01 337.867 208.278V289.1C330.585 289.531 323.289 290.323 316.007 291.853C312.277 292.645 308.684 293.646 305.091 294.661V208.278ZM494.59 604.936L501.845 642.768H464.625L471.359 607.578H479.628C484.881 607.578 489.845 606.521 494.59 604.936ZM32.5539 481.527C44.5947 448.575 76.9185 427.289 114.906 427.289C124.67 427.289 134.325 428.707 143.582 431.474C203.457 449.507 234.204 510.711 242.213 529.036C244.407 534.069 249.33 537.309 254.761 537.309H479.628C491.175 537.309 500.569 546.833 500.569 558.54C500.569 570.247 491.175 579.771 479.628 579.771H254.761C249.33 579.771 244.421 583.01 242.213 588.043C234.217 606.368 203.443 667.573 143.582 685.592C134.352 688.372 124.698 689.791 114.892 689.791C76.9048 689.791 44.5947 668.504 32.5539 635.566C24.1747 612.625 25.9164 587.543 37.4635 564.935C39.5069 560.917 39.5069 556.162 37.4635 552.144C25.9301 529.537 24.1884 504.454 32.5539 481.527ZM58.2812 625.903C67.2364 650.429 91.2358 661.969 115.03 661.969C122.106 661.969 129.155 660.954 135.792 658.952C177.839 646.3 209.628 601.641 222.478 562.989C223.438 560.111 223.438 556.982 222.478 554.104C209.628 515.466 177.853 470.807 135.792 458.141C106.801 449.423 69.897 459.392 58.295 491.176C49.6003 514.952 57.623 541.48 76.4522 558.54C57.623 575.613 49.6003 602.128 58.2812 625.903ZM841.827 257.26L787.136 281.814C785.339 282.621 783.447 283.01 781.595 283.01C776.329 283.01 771.31 279.923 769.047 274.723C765.975 267.702 769.116 259.485 776.041 256.384L830.732 231.83C837.644 228.716 845.749 231.886 848.821 238.921C851.893 245.943 848.753 254.146 841.827 257.26ZM842.28 351.958C840.277 357.645 834.997 361.204 829.361 361.204C827.839 361.204 826.275 360.94 824.767 360.384L789.495 347.648C782.35 345.076 778.633 337.123 781.184 329.893C783.721 322.649 791.552 318.881 798.697 321.468L833.969 334.203C841.1 336.776 844.817 344.728 842.28 351.958ZM769.253 186.018L754.839 221.069C752.645 226.408 747.544 229.634 742.182 229.634C740.426 229.634 738.63 229.286 736.915 228.549C729.921 225.602 726.616 217.454 729.537 210.363L743.951 175.312C746.858 168.207 754.908 164.842 761.888 167.832C768.855 170.779 772.174 178.927 769.253 186.018Z" fill="black"/>
</svg>
