<svg width="826" height="818" viewBox="0 0 826 818" fill="none" xmlns="http://www.w3.org/2000/svg">
<path fill-rule="evenodd" clip-rule="evenodd" d="M495.612 685.229V535.022C528.181 557.696 573.476 554.224 602.08 525.057C633.843 492.73 633.106 440.993 600.503 409.535C557.942 368.458 515.873 326.86 472.818 286.271C457.252 270.091 435.656 260.889 413.008 260.889C390.01 260.889 368.204 270.334 352.568 286.931L225.52 409.537C192.916 440.996 192.18 492.733 223.943 525.059C252.585 554.225 297.88 557.663 330.411 535.024V684.919L195.824 684.433C140.432 679.225 91.2135 652.176 55.9423 611.585C-8.49441 537.348 -18.2752 427.592 31.8574 342.239C48.1243 314.565 69.9305 290.85 95.6632 272.794C79.0804 175.984 124.971 80.1516 210.272 31.4044C325.967 -34.7769 472.607 7.37649 535.61 122.792C651.933 90.0833 767.413 176.612 767.413 296.199C767.413 308.491 766.081 321.268 763.486 333.318C844.155 411.235 847.24 543.178 769.902 625.055C734.668 662.381 685.938 685.472 632.057 685.472L495.648 685.264L495.612 685.229ZM448.424 782.972V425.643L518.365 493.144C532.353 506.617 554.685 506.305 568.287 492.45C581.89 478.596 581.575 456.477 567.586 443.005C524.921 401.824 482.43 359.809 439.273 319.145C432.787 312.062 423.427 307.583 413.014 307.583C402.462 307.583 392.996 312.166 386.511 319.388L258.439 442.963C244.451 456.435 244.171 478.554 257.738 492.408C271.341 506.262 293.673 506.575 307.661 493.103L377.602 425.601V782.93C377.602 802.306 393.448 818 413.01 818C432.573 818 448.384 802.306 448.384 782.93L448.424 782.972Z" fill="black"/>
</svg>
