<svg width="800" height="778" viewBox="0 0 800 778" fill="none" xmlns="http://www.w3.org/2000/svg">
<path d="M345.455 0C315.551 0 290.909 23.9642 290.909 53.0455V89.9977C280.293 93.6663 269.901 97.8553 259.73 102.568L232.848 76.4255C211.705 55.8635 176.861 55.8635 155.717 76.4255L78.5866 151.435C57.4432 171.997 57.4432 205.883 78.5866 226.445L105.469 252.588C100.622 262.478 96.315 272.585 92.5426 282.909H54.5455C24.6418 282.909 0 306.873 0 335.955V442.045C0 471.127 24.6418 495.091 54.5455 495.091H92.5426C96.315 505.415 100.622 515.522 105.469 525.412L78.5866 551.555C57.4432 572.117 57.4432 606.003 78.5866 626.565L155.717 701.574C176.861 722.136 211.705 722.136 232.848 701.574L259.73 675.432C269.901 680.145 280.293 684.334 290.909 688.002V724.955C290.909 754.036 315.551 778 345.455 778H454.545C484.449 778 509.091 754.036 509.091 724.955V688.002C519.707 684.334 530.099 680.145 540.27 675.432L567.152 701.574C588.295 722.136 623.139 722.136 644.283 701.574L721.413 626.565C742.557 606.003 742.557 572.117 721.413 551.555L694.531 525.412C699.378 515.522 703.685 505.415 707.457 495.091H745.455C775.358 495.091 800 471.127 800 442.045V335.955C800 306.873 775.358 282.909 745.455 282.909H707.457C703.685 272.585 699.378 262.478 694.531 252.588L721.413 226.445C742.557 205.883 742.557 171.997 721.413 151.435L644.283 76.4255C623.139 55.8635 588.295 55.8635 567.152 76.4255L540.27 102.568C530.099 97.8553 519.707 93.6663 509.091 89.9977V53.0455C509.091 23.9642 484.449 0 454.545 0H345.455ZM400 159.136C445.184 159.136 487.572 171.527 523.509 192.98C527.613 195.437 530.547 199.377 531.666 203.936C532.785 208.495 531.996 213.299 529.474 217.293C526.949 221.285 522.897 224.138 518.209 225.226C513.521 226.314 508.581 225.547 504.474 223.095C474.066 204.941 438.371 194.5 400 194.5C289.328 194.5 200 281.371 200 389C200 433.849 215.659 474.978 241.761 507.834C254.946 459.065 291.377 419.374 338.778 400.673C320.931 384.578 309.553 361.792 309.553 336.404C309.553 288.03 350.259 248.443 400 248.443C449.741 248.443 490.447 288.03 490.447 336.404C490.447 361.802 479.045 384.577 461.186 400.673C508.602 419.368 545.053 459.056 558.239 507.834C584.341 474.978 600 433.849 600 389C600 341.143 582.301 297.509 552.912 263.639C549.811 260.052 548.302 255.415 548.714 250.746C549.127 246.077 551.429 241.759 555.114 238.739C558.798 235.72 563.563 234.246 568.364 234.641C573.164 235.035 577.607 237.267 580.717 240.846C615.418 280.839 636.364 332.645 636.364 389C636.364 515.741 530.325 618.864 400 618.864C269.675 618.864 163.636 515.741 163.636 389C163.636 262.259 269.675 159.136 400 159.136ZM400 283.807C369.911 283.807 345.916 307.142 345.916 336.404C345.916 365.665 369.911 389 400 389C430.089 389 454.084 365.665 454.084 336.404C454.084 307.142 430.089 283.807 400 283.807ZM400 424.364C332.545 424.364 277.755 474.967 273.189 539.503C307.675 566.995 351.801 583.5 400 583.5C448.199 583.5 492.325 566.995 526.811 539.503C522.248 474.962 467.455 424.364 400 424.364Z" fill="black"/>
</svg>
