<svg width="806" height="760" viewBox="0 0 806 760" fill="none" xmlns="http://www.w3.org/2000/svg">
<path fill-rule="evenodd" clip-rule="evenodd" d="M0 237.856C0.151125 300.319 39.897 356.25 100.75 356.25V308.75C85.6879 308.75 74.0261 300.984 65.8401 289.821C55.5636 275.833 50.375 256.904 50.375 237.5C50.375 182.281 83.3454 135.969 135.207 103.004C190.846 67.64 267.819 47.5 352.625 47.5C453.602 47.5 543.446 81.225 598.959 134.092C633.818 167.295 654.875 208.05 654.875 252.344V617.5H579.312C565.409 617.5 554.125 628.14 554.125 641.25V736.25C554.125 749.36 565.409 760 579.312 760H780.812C794.716 760 806 749.36 806 736.25V641.25C806 628.14 794.716 617.5 780.812 617.5H705.25V249.375C705.25 248.829 705.225 248.282 705.2 247.736C701.749 112.694 546.795 0 352.625 0C237.014 0 134.753 34.4375 71.2051 90.3925C26.195 130.007 0 180.358 0 237.5C0 237.619 0 237.738 0 237.856ZM100.75 308.75C135.836 308.75 158.203 317.395 173.894 329.626C189.586 341.81 198.906 358.197 206.109 376.509C214.648 398.216 218.224 424.032 241.095 440.539C246.535 444.457 253.059 447.735 260.892 450.324C271.899 433.105 291.948 421.562 314.844 421.562C349.602 421.562 377.812 448.163 377.812 480.938C377.812 513.712 349.602 540.312 314.844 540.312C286.407 540.312 262.328 522.5 254.545 498.061C234.344 492.908 219.282 485.141 207.595 476.092C185.758 459.182 175.028 437.047 166.716 414.509C160.092 396.506 156.666 377.791 141.856 366.249C133.116 359.48 120.245 356.25 100.75 356.25V653.125C100.75 666.235 112.034 676.875 125.938 676.875H143.015C132.537 685.591 125.938 698.321 125.938 712.5C125.938 738.72 148.506 760 176.312 760C204.119 760 226.688 738.72 226.688 712.5C226.688 698.321 220.088 685.591 209.61 676.875H420.077C409.599 685.591 403 698.321 403 712.5C403 738.72 425.568 760 453.375 760C481.182 760 503.75 738.72 503.75 712.5C503.75 698.321 497.151 685.591 486.673 676.875H503.75C517.653 676.875 528.938 666.235 528.938 653.125V308.75C528.938 190.38 432.545 95 314.844 95C197.143 95 100.75 190.38 100.75 308.75Z" fill="black"/>
</svg>
