<svg width="576" height="817" viewBox="0 0 576 817" fill="none" xmlns="http://www.w3.org/2000/svg">
<path d="M320.44 39.5563C339.681 14.6067 372.521 -0.30858 407.516 0.0253256C435.183 -0.509779 462.105 7.44993 483.423 22.4663C510.306 40.2584 527.079 67.0136 529.469 95.976C531.898 127.547 517.79 158.416 490.947 180.255C479.505 189.62 464.652 195.339 453.954 205.439V205.405C437.769 221.458 429.383 242.161 430.52 263.297C430.559 386.671 430.559 510.01 430.559 633.392H430.598C439.18 638.944 444.666 647.305 445.724 656.435C446.273 667.104 445.529 677.839 445.685 688.508C438.788 688.608 431.93 688.642 425.033 688.608C425.543 679.378 425.229 670.148 424.21 660.983C419.782 649.211 409.554 639.679 396.229 634.83C394.153 624.63 398.737 613.392 392.232 603.994C389.215 598.944 381.495 595.566 382.984 589.112C383.768 476.14 382.592 363.126 383.258 250.121V250.154C382.945 220.556 397.287 192.229 422.76 172.196C436.867 163.4 450.309 153.835 462.967 143.567C474.762 131.393 480.993 116.009 480.601 100.224C479.073 77.4821 463.476 57.1481 439.728 46.7799C420.996 38.7199 398.894 38.7199 380.201 46.7799C364.448 53.8032 354.69 67.7492 354.925 82.8999C354.69 151.795 354.612 220.657 354.729 289.553C338.427 289.62 322.203 289.587 305.94 289.653C306.41 220.792 306.058 151.965 306.254 83.103V83.0696C305.979 67.7185 310.878 52.5991 320.44 39.5563Z" fill="black"/>
<path d="M124.743 96.0445C148.491 93.5362 172.474 93.8372 196.104 96.8471C235.175 105.877 262.96 135.308 264.997 169.822C265.115 295.404 265.193 420.953 265.154 546.501C193.087 546.668 120.982 546.601 48.9108 546.702C49.2635 485.633 48.9891 424.527 48.754 363.465C84.3371 363.632 119.92 363.465 155.506 363.431C162.442 364.1 169.222 361.324 172.945 356.274C177.491 348.315 167.067 340.69 158.092 341.559C121.648 341.759 85.242 341.726 48.8323 341.826C49.2633 284.503 48.9498 227.177 49.1458 169.856C51.1051 133.202 82.458 102.566 124.743 96.0445ZM118.196 131.73H118.235C100.757 136.111 89.0002 149.991 89.5489 165.509C89.5097 201.059 89.7057 236.577 89.5881 272.127C89.2746 279.719 92.6056 287.11 98.7973 292.561C105.028 298.013 113.572 301.056 122.467 300.989C145.274 300.889 168.122 300.722 190.968 300.789C208.524 301.023 223.102 289.25 223.768 274.267C223.925 236.543 224.199 198.851 223.964 161.159C223.141 143.868 206.173 130.356 185.912 130.825C163.379 131.46 140.612 129.724 118.196 131.73ZM151.27 413.963C148.213 415.335 146.019 417.743 145.235 420.619C144.49 423.495 145.235 426.505 147.312 428.846C150.212 432.19 155.267 433.695 160.009 432.592C164.711 431.488 168.199 428.01 168.708 423.863C168.943 420.184 166.866 416.706 163.3 414.666C159.734 412.626 155.149 412.358 151.27 413.963ZM153.425 446.204C149.506 447.14 146.489 449.782 145.47 453.126C144.451 456.471 145.548 460.049 148.37 462.525C151.035 464.799 154.797 465.902 158.519 465.468C162.281 465.033 165.573 463.127 167.415 460.317C169.453 456.705 168.826 452.391 165.808 449.348C162.752 446.305 157.893 445.067 153.425 446.204ZM151.74 479.682C148.213 481.187 145.783 484.13 145.313 487.508C144.882 490.852 146.449 494.197 149.506 496.337C156.285 500.986 169.257 497.173 168.787 489.046V489.08C168.865 485.535 166.827 482.224 163.34 480.318C159.891 478.378 155.501 478.144 151.74 479.682Z" fill="black"/>
<path d="M123.519 152.928C143.426 151.758 163.53 152.794 183.516 152.46C187.278 151.992 191.118 152.895 194.058 155.002C196.997 157.075 198.721 160.152 198.878 163.396C199.191 169.349 199.113 175.336 198.682 181.255C197.389 186.205 192.216 189.65 186.337 189.482C166.704 189.549 147.071 189.549 127.398 189.516V189.549C123.558 189.583 119.914 188.111 117.484 185.569C115.054 183.028 114.114 179.683 114.897 176.506C115.485 168.379 111.684 156.373 123.519 152.928Z" fill="black"/>
<path d="M305.903 311.627C322.205 311.527 338.508 311.561 354.771 311.527C354.614 409.515 354.575 507.547 354.653 605.535C360.532 605.97 365.586 609.18 367.781 613.863C368.33 620.551 368.487 627.24 368.134 633.93C343.21 633.762 318.286 633.896 293.363 633.729H293.403C292.893 626.973 293.011 620.218 293.755 613.462C295.049 608.478 301.24 606.673 306.335 605.636C305.394 507.613 306.922 409.616 305.903 311.627Z" fill="black"/>
<path d="M48.6788 568.709C120.863 568.441 193.051 569.11 265.233 568.441C264.998 591.116 265.076 613.792 265.194 636.466V636.433C256.024 640.948 248.538 647.537 243.444 655.463C238.937 665.998 237.527 677.336 239.329 688.473C205.471 688.473 171.612 688.272 137.794 688.64C115.927 689.744 97.8999 703.589 94.2953 722.017C79.3253 722.251 64.3553 722.05 49.3854 722.017C49.6989 728.371 49.5029 734.726 48.7584 741.047C45.4666 749.742 36.4529 755.929 25.7937 756.798C18.8183 757.099 11.9995 754.825 7.10082 750.578C2.1631 746.33 -0.384059 740.511 0.0470225 734.558C0.360527 696.867 -0.0313562 659.175 0.242963 621.484H0.203775C0.752413 615.197 4.63207 609.478 10.7456 605.966C16.8981 602.488 24.5789 601.585 31.5934 603.558C39.7837 605.832 46.2494 611.284 49.0323 618.24C48.4445 601.718 49.3058 585.197 48.6788 568.709Z" fill="black"/>
<path d="M267.069 678.101C267.225 665.994 278.629 656.229 292.815 656.029C319.111 655.895 345.445 655.928 371.779 656.095C378.559 656.095 385.025 658.403 389.806 662.517C394.548 666.63 397.173 672.215 397.017 678.001C397.056 689.573 396.938 701.144 396.978 712.75C408.891 712.85 420.804 712.75 432.756 712.817C433.579 719.238 427.936 730.442 438.164 732.649H438.203C456.621 733.485 475.08 733.251 493.419 731.947C494.673 725.659 495.065 719.304 494.517 712.95C506.195 712.883 517.872 712.816 529.551 712.95C538.995 712.515 547.734 717.164 551.457 724.555C556.395 736.261 560.47 748.233 563.684 760.407C413.904 760.073 264.094 760.441 114.274 760.374C117.37 748.835 120.387 737.264 124.541 725.96H124.58C127.402 718.335 135.631 713.118 144.997 713.018C154.363 712.683 163.769 712.984 173.095 712.951C173.801 719.104 169.02 727.867 175.956 732.181C186.929 733.051 197.941 733.318 208.953 732.917C216.399 733.485 223.884 733.117 231.212 731.847C236.189 726.496 232.897 719.004 233.877 712.783C244.889 712.75 255.901 712.75 266.913 712.75C267.031 701.211 266.755 689.64 267.069 678.101Z" fill="black"/>
<path d="M109.413 782.246C262.324 782.279 415.194 782.279 568.154 782.212C570.466 790.272 573.993 798.065 575.717 806.225C576.462 808.901 575.717 811.677 573.718 813.784C571.681 815.89 568.624 817.094 565.411 816.994C415.129 816.727 264.837 816.961 114.556 816.86H114.595C111.185 817.228 107.776 816.191 105.386 814.084C103.034 811.978 101.976 809.001 102.603 806.125C104.367 798.031 107.101 790.172 109.413 782.246Z" fill="black"/>
</svg>
