<svg width="701" height="823" viewBox="0 0 701 823" fill="none" xmlns="http://www.w3.org/2000/svg">
<path d="M349.016 0.00293567C290.642 0.283509 236.669 25.2896 206.593 65.9382C171.56 113.32 153.052 167.537 153.052 222.781V306.041C153.052 335.08 134.715 362.121 104.472 377.623H182.605C188.775 377.623 194.729 379.622 199.129 383.199C203.487 386.741 205.946 391.581 205.946 396.631V419.603C205.989 430.055 216.387 438.542 229.287 438.542H470.848H470.805C483.706 438.542 494.146 430.055 494.189 419.603V396.631C494.189 391.581 496.649 386.741 501.049 383.199C505.407 379.622 511.36 377.623 517.573 377.623H595.663C565.419 362.121 547.084 335.08 547.084 306.041V222.781C547.084 167.543 528.575 113.326 493.542 65.9382C463.083 24.7643 408.167 -0.312205 349.016 0.00293567ZM349.879 35.6712H351.13C394.144 35.8466 433.967 54.2241 456.142 84.21C487.163 126.051 503.558 173.959 503.558 222.818C503.558 271.677 487.163 319.578 456.142 361.426C433.837 391.517 393.757 409.929 350.526 409.929C307.296 409.929 267.215 391.517 244.91 361.426C213.89 319.585 197.495 271.677 197.495 222.818C197.495 173.959 213.89 126.058 244.91 84.21C267.086 54.2241 306.908 35.8463 349.922 35.6712H349.879ZM375.119 64.7458V64.7108C373.393 64.6757 371.84 65.6577 371.538 67.0606C371.236 68.4634 372.228 69.8312 373.911 70.2872C394.231 75.057 411.576 85.8943 422.49 100.624C453.252 142.149 467.618 190.338 463.607 238.666C463.65 240.139 465.074 241.332 466.886 241.402C468.655 241.507 470.251 240.455 470.553 239.017C474.652 189.531 459.94 140.183 428.488 97.7157C416.623 81.7585 397.856 70.0094 375.853 64.8182H375.809C375.507 64.7831 375.249 64.748 374.947 64.748L375.119 64.7458ZM41.9188 390.741L41.962 390.706C37.9496 390.706 34.7138 393.336 34.7138 396.598V432.651C34.7138 435.913 37.9496 438.543 41.962 438.543H183.082H183.038C187.051 438.543 190.287 435.913 190.243 432.651V396.598C190.287 393.336 187.051 390.706 183.038 390.706L41.9188 390.741ZM517.884 390.741L517.927 390.706C513.958 390.706 510.722 393.336 510.722 396.598V432.651C510.722 435.913 513.958 438.543 517.927 438.543H659.047C663.016 438.543 666.252 435.913 666.252 432.651V396.598C666.252 393.336 663.016 390.706 659.047 390.706L517.884 390.741ZM112.208 402.174L112.251 402.139H113.114C121.441 402.279 128.128 407.82 128.128 414.624C128.215 417.991 126.662 421.218 123.771 423.637C120.88 426.022 116.911 427.39 112.812 427.39C108.671 427.39 104.701 426.022 101.811 423.637C98.9632 421.218 97.3669 417.991 97.4532 414.624C97.4532 407.82 104.184 402.244 112.554 402.139L112.208 402.174ZM588.218 402.209L588.261 402.174H589.124C597.494 402.279 604.224 407.82 604.224 414.624C604.267 417.956 602.628 421.112 599.78 423.462C596.89 425.812 592.964 427.145 588.908 427.145C584.81 427.145 580.926 425.812 578.036 423.462C575.145 421.112 573.549 417.956 573.549 414.624C573.549 407.82 580.279 402.279 588.649 402.174L588.218 402.209ZM7.20498 451.66C3.19261 451.66 0 454.29 0 457.552V473.615C0 476.842 3.19261 479.507 7.20498 479.507H693.795C697.807 479.507 701 476.842 701 473.615V457.552C701 454.29 697.807 451.66 693.795 451.66H7.20498ZM176.842 492.589V492.554C170.63 492.554 164.675 494.553 160.318 498.13C155.917 501.672 153.458 506.512 153.458 511.562V519.769C153.458 524.82 155.918 529.66 160.318 533.202C164.676 536.779 170.63 538.778 176.842 538.778H524.191C537.048 538.743 547.489 530.256 547.489 519.769V511.562C547.489 501.076 537.048 492.588 524.191 492.553L176.842 492.589ZM46.5908 500.62L46.5477 500.585C36.6677 500.62 28.686 507.108 28.686 515.14C28.686 523.171 36.6676 529.695 46.5477 529.695H77.3097C87.1896 529.695 95.1713 523.171 95.1713 515.14C95.1713 507.108 87.1897 500.62 77.3097 500.585L46.5908 500.62ZM623.727 500.62L623.684 500.585C613.804 500.62 605.822 507.108 605.822 515.14C605.822 523.171 613.804 529.695 623.684 529.695H654.446C664.325 529.695 672.307 523.171 672.307 515.14C672.307 507.108 664.326 500.62 654.446 500.585L623.727 500.62ZM350.191 503.18V503.145H351.054C359.423 503.285 366.111 508.862 366.068 515.666C366.197 519.032 364.601 522.259 361.71 524.679C358.82 527.064 354.894 528.432 350.752 528.432C346.61 528.432 342.684 527.064 339.793 524.679C336.903 522.259 335.306 519.032 335.436 515.666C335.393 508.862 342.08 503.285 350.45 503.145L350.191 503.18ZM46.5466 542.145C36.6667 542.145 28.6849 548.668 28.6849 556.699C28.6849 564.731 36.6666 571.254 46.5466 571.254H77.3086C87.1885 571.254 95.1703 564.731 95.1703 556.699C95.1703 548.668 87.1887 542.145 77.3086 542.145H46.5466ZM623.683 542.145C613.803 542.145 605.821 548.668 605.821 556.699C605.821 564.731 613.802 571.254 623.683 571.254H654.445C664.324 571.254 672.349 564.731 672.349 556.699C672.349 548.668 664.325 542.145 654.445 542.145H623.683ZM46.5908 583.669C41.8449 583.669 37.3149 585.213 33.95 587.948C30.5847 590.684 28.6865 594.366 28.6865 598.224C27.7373 652.936 34.2521 707.508 48.1011 761.028C37.574 764.746 31.0589 773.479 31.8354 782.773C32.6551 792.102 40.5936 799.994 51.6818 802.483C50.5601 809.322 52.9761 816.267 58.3691 821.632C59.2751 822.509 60.5694 823 61.9931 823C63.3737 823 64.7111 822.509 65.5741 821.632C70.967 816.266 73.3831 809.322 72.3046 802.483C83.3494 799.993 91.2884 792.102 92.1079 782.773C92.9277 773.479 86.413 764.746 75.8422 761.028C89.6913 707.474 96.2066 652.794 95.2568 598.053C95.1274 590.092 87.1457 583.674 77.352 583.674L46.5908 583.669ZM623.638 583.669C618.893 583.669 614.362 585.213 610.998 587.948C607.632 590.684 605.734 594.366 605.734 598.224C604.828 652.936 611.3 707.508 625.149 761.028C614.621 764.781 608.106 773.479 608.926 782.808C609.746 792.137 617.727 800.029 628.816 802.483C627.694 809.322 630.11 816.267 635.503 821.632C636.409 822.509 637.703 823 639.127 823C640.507 823 641.845 822.509 642.708 821.632C648.058 816.266 650.474 809.322 649.352 802.483C660.397 799.993 668.379 792.102 669.155 782.773C669.975 773.479 663.46 764.746 652.89 761.028C666.739 707.474 673.254 652.794 672.304 598.053C672.175 590.092 664.193 583.674 654.399 583.674L623.638 583.669Z" fill="black"/>
</svg>
