<svg width="758" height="821" viewBox="0 0 758 821" fill="none" xmlns="http://www.w3.org/2000/svg">
<path fill-rule="evenodd" clip-rule="evenodd" d="M267.556 772.825C198.518 661.534 190.21 446.623 190.21 348.395C190.21 272.106 218.188 231.402 270.432 213.769C239.015 194.325 202.238 184.639 165.004 186.001C60.684 186.001 0 240.907 0 348.377C0 437.829 6.36256 801.679 164.007 801.679C198.311 801.679 240.358 795.896 267.556 772.807V772.825ZM719.383 536.495C718.963 539.498 717.338 542.218 714.863 544.064C712.387 545.909 709.261 546.732 706.164 546.352C703.067 545.972 700.25 544.42 698.325 542.035C696.401 539.649 695.525 536.622 695.887 533.613C703.5 472.169 707.079 410.317 706.601 348.431C706.601 345.371 707.854 342.436 710.084 340.272C712.313 338.107 715.337 336.892 718.49 336.892C721.643 336.892 724.667 338.107 726.897 340.272C729.126 342.436 730.379 345.371 730.379 348.431C730.809 411.294 727.136 474.12 719.383 536.532V536.495ZM709.496 596.274C708.892 599.274 707.084 601.918 704.471 603.624C701.858 605.331 698.654 605.96 695.563 605.373C692.472 604.786 689.748 603.032 687.99 600.496C686.232 597.96 685.584 594.849 686.189 591.849L687.298 586.312C687.584 584.826 688.17 583.409 689.021 582.143C689.872 580.877 690.972 579.785 692.257 578.932C693.543 578.078 694.989 577.478 696.513 577.167C698.038 576.855 699.61 576.838 701.141 577.117C702.672 577.395 704.132 577.964 705.436 578.79C706.741 579.616 707.865 580.683 708.745 581.931C709.625 583.179 710.242 584.582 710.563 586.062C710.884 587.541 710.901 589.068 710.614 590.554L709.496 596.274ZM487.568 213.769C539.812 231.402 567.79 272.151 567.79 348.395C567.79 446.641 559.482 661.543 490.443 772.825C517.642 795.914 559.689 801.697 593.992 801.697C751.637 801.697 758 437.866 758 348.395C758 240.88 697.269 186.019 592.996 186.019C555.76 184.636 518.977 194.325 487.568 213.787V213.769ZM259.859 243.562C291.287 225.856 338.879 224.807 379 224.807C419.121 224.807 466.713 225.856 498.141 243.562C526.476 259.535 544.004 290.286 544.004 348.377C544.004 410.873 540.498 530.967 516.862 635.189C501.59 702.52 465.745 821 379 821C292.255 821 256.41 702.52 241.138 635.207C217.502 530.986 213.996 410.891 213.996 348.395C213.996 290.304 231.524 259.553 259.859 243.58V243.562ZM337.864 163.049C336.812 176.523 336.323 189.85 336.163 202.713C323.771 203.339 311.426 204.657 299.191 206.663C263.139 174.735 214.344 162.949 165.004 162.949C145.687 162.814 126.417 164.825 107.571 168.942C138.369 140.207 181.723 129.589 226.12 129.589C266.626 129.589 307.226 138.383 337.864 163.049ZM421.968 202.722C422.156 188.819 422.758 174.215 424.215 159.847C454.345 137.598 493.178 129.607 531.88 129.607C576.39 129.607 619.659 140.189 650.475 168.96C631.616 164.827 612.331 162.801 592.996 162.921C543.769 162.921 494.842 174.698 458.809 206.635C446.617 204.638 434.316 203.322 421.968 202.694V202.722ZM379 201.746C372.572 201.746 366.218 201.746 359.95 201.892C360.984 127.947 372.741 32.0082 455.905 2.21491C487.436 -9.07842 500.33 25.9327 469.204 37.0528C455.627 41.8269 443.567 49.9546 434.214 60.6338C403.745 95.2162 398.849 157.612 398.2 201.901C391.885 201.782 385.485 201.746 379 201.746Z" fill="black"/>
</svg>
