<svg width="562" height="425" viewBox="0 0 562 425" fill="none" xmlns="http://www.w3.org/2000/svg">
<path d="M395.8 390.869C390.401 391.814 387.548 397.274 390.007 401.96V401.941C398.698 419.117 420.643 428.262 441.668 423.481C463.197 418.569 476.232 400.864 474.038 382.65C473.467 377.548 467.849 374.072 462.604 375.526C440.658 381.61 418.363 386.731 395.8 390.869Z" fill="black"/>
<path d="M166.028 390.869C171.427 391.814 174.28 397.274 171.821 401.96V401.941C163.131 419.117 141.185 428.262 120.16 423.481C98.6316 418.569 85.6396 400.864 87.7902 382.65C88.3828 377.548 93.9792 374.072 99.2462 375.526C121.192 381.61 143.468 386.712 166.03 390.85L166.028 390.869Z" fill="black"/>
<path d="M272.313 167.311C269.942 165.988 267.55 164.703 265.158 163.475V163.494C248.194 173.867 229.386 181.803 209.459 186.999C201.822 189.002 193.878 190.003 185.889 190.022C164.974 190.041 144.894 182.956 129.993 170.315C121.456 163.003 115.201 153.934 111.865 143.957C100.014 150.608 89.6779 160.622 85.2665 170.561C78.8365 185.469 73.6571 198.638 55.7491 255.286C52.9839 263.902 46.3999 271.234 37.3805 275.693C31.3454 278.64 25.3104 281.55 19.2967 284.422C-6.66548 296.59 -6.24861 326.709 19.4503 336.875C19.8234 337.026 20.1965 337.14 20.5476 337.272C64.0885 351.858 210.206 385.453 256.399 391.461L257.584 391.594C285.763 393.823 303.539 367.862 288.089 346.133C284.534 341.088 281.001 335.986 277.467 330.828C272.244 323.119 270.752 313.955 273.319 305.321C290.569 248.524 293.707 234.864 296.758 219.197C299.962 201.625 289.058 176.836 272.313 167.311Z" fill="black"/>
<path d="M327.876 95.4517C327.876 117.785 306.852 135.905 280.912 135.905C254.972 135.905 233.947 117.785 233.947 95.4517C233.947 73.1181 254.972 54.9981 280.912 54.9981C306.852 54.9981 327.876 73.1181 327.876 95.4517Z" fill="black"/>
<path d="M214.198 95.4517C214.198 74.0439 228.046 54.4123 250.102 44.5322C229.977 22.501 200.284 6.96972 166.554 1.16914C110.811 -8.42947 71.0896 43.2286 107.035 78.4118L107.057 78.4307C121.08 91.9217 128.893 109.38 129.002 127.483C129.002 158.414 166.881 180.333 203.792 170.714C222.358 165.915 239.849 158.413 255.518 148.551C230.544 139.67 214.22 118.713 214.198 95.4517Z" fill="black"/>
<path d="M542.508 284.382C536.495 281.528 530.482 278.619 524.424 275.652H524.446C515.448 271.212 508.843 263.9 506.077 255.284C488.169 198.599 483.034 185.447 476.56 170.558C472.171 160.62 461.834 150.624 449.961 143.955C446.625 153.931 440.371 163 431.834 170.313C416.933 182.953 396.851 190.038 375.937 190.001C367.949 190.001 360.005 188.999 352.367 186.997C332.44 181.819 313.633 173.865 296.668 163.473L296.536 163.548H296.514C302.352 169.689 307.027 176.567 310.385 183.935C316.31 196.783 318.417 210.218 316.266 221.8V221.951C313.15 237.936 310.012 251.824 292.477 309.584V309.565C291.204 313.835 291.95 318.37 294.518 322.168C298.248 327.628 301.672 332.56 304.986 337.284C315.871 352.607 316.53 370.727 306.742 385.765C305.381 387.863 303.823 389.846 302.111 391.717C302.813 391.717 303.538 391.717 304.306 391.604L305.491 391.472C351.687 385.444 497.801 351.868 541.342 337.282C541.715 337.169 542.088 337.018 542.439 336.885C568.072 326.701 568.492 296.585 542.508 284.382Z" fill="black"/>
<path d="M395.272 1.16814C361.519 6.98758 331.848 22.4811 311.747 44.5123C334.746 54.8288 348.726 75.6885 347.584 98.0051C346.421 120.32 330.335 140.046 306.37 148.547C322.018 158.411 339.508 165.911 358.097 170.711C395.01 180.328 432.931 158.429 432.886 127.48V127.499C432.974 109.378 440.742 91.9197 454.766 78.4268C490.801 43.2262 450.994 -8.42854 395.272 1.16814Z" fill="black"/>
</svg>
