<svg width="679" height="746" viewBox="0 0 679 746" fill="none" xmlns="http://www.w3.org/2000/svg">
<path d="M232.567 706.02C238.448 690.425 241.58 674.478 241.972 657.819C242.326 639.47 239.256 621 232.793 602.13C225.438 580.69 222.013 559.74 222.494 539.252C222.976 518.764 227.363 498.738 235.683 479.151C243.075 461.737 246.975 443.858 247.43 425.572C247.859 407.308 244.821 388.558 238.259 369.519C230.904 348.079 227.479 327.13 227.961 306.641C228.442 286.153 232.856 266.105 241.15 246.54C248.542 229.126 252.441 211.247 252.896 192.961C253.325 174.698 250.287 155.947 243.726 136.909C236.371 115.469 232.946 94.5188 233.427 74.0307C233.809 57.7848 236.633 41.8029 241.975 26.1175L78.7256 6.84433C72.845 22.4394 69.7129 38.3855 69.3049 54.6542C68.8744 72.9689 71.9134 91.6679 78.4749 110.706C85.8301 132.146 89.255 153.096 88.7735 173.584C88.2921 194.072 83.8788 214.121 75.5848 233.686C68.1928 251.099 64.2932 268.978 63.8384 287.265C63.4092 305.528 66.4469 324.279 73.0084 343.317C80.3637 364.757 83.7886 385.707 83.3333 406.172C82.8519 426.66 78.4386 446.709 70.1446 466.274C62.7526 483.687 58.853 501.566 58.3981 519.853C57.969 538.116 61.033 556.844 67.5682 575.905C74.9234 597.345 78.3483 618.295 77.8668 638.783C77.4863 654.977 74.6614 671.011 69.3196 686.696L232.567 706.02ZM312.899 723.013L346.38 745.701C359.349 735.56 369.828 723.829 377.923 710.519C386.983 695.611 393.053 678.534 396.08 659.384C399.493 638.023 406.308 618.881 416.522 602.008C426.735 585.187 440.243 570.675 457.125 558.456C472.407 547.422 484.539 534.459 493.574 519.522C502.608 504.637 508.678 487.56 511.756 468.416C515.195 447.084 521.985 427.913 532.225 411.017C542.439 394.144 556.051 379.593 572.907 367.396C587.978 356.545 600.032 343.651 609.169 328.726C618.311 313.646 624.381 296.569 627.434 277.396C630.848 256.036 637.663 236.893 647.876 220.021C656.025 206.613 666.225 194.719 678.53 184.293L645.049 161.606C632.211 171.683 621.785 183.317 613.639 196.621C604.498 211.701 598.427 228.778 595.401 247.928C591.987 269.289 585.172 288.432 574.959 305.304C564.692 322.223 551.157 336.757 534.25 348.948C519.178 359.85 507.125 372.693 497.988 387.618C488.846 402.698 482.776 419.775 479.749 438.925C476.365 460.107 469.605 479.153 459.388 496.129C449.067 513.197 435.454 527.749 418.547 539.939C403.37 550.881 391.263 563.873 382.203 578.781C373.169 593.667 367.099 610.744 364.021 629.888C360.636 651.07 353.877 670.115 343.66 687.092C335.43 700.671 325.203 712.588 312.873 723.037L312.899 723.013ZM628.137 150.191L486.782 54.3867C473.814 64.5271 463.359 76.2872 455.265 89.597C446.205 104.505 440.161 121.56 437.083 140.704C433.698 161.886 426.938 180.931 416.722 197.908C406.427 214.901 392.919 229.412 375.984 241.678C360.728 252.689 348.596 265.651 339.588 280.566C330.501 295.497 324.457 312.551 321.406 331.672C320.378 338.139 318.992 344.461 317.243 350.894C315.749 356.347 314.057 361.465 312.112 366.397L313.892 371.795C321.272 393.264 324.696 414.265 324.216 434.702C323.734 455.19 319.321 475.239 311.027 494.803C303.635 512.217 299.71 530.067 299.28 548.383C298.851 566.698 301.889 585.396 308.451 604.435C315.806 625.875 319.231 646.825 318.749 667.313C318.553 675.642 317.714 683.922 316.209 692.071C320.371 687.09 324.153 681.882 327.584 676.218C336.62 661.229 342.662 644.278 345.686 625.232C349.098 603.923 355.914 584.729 366.128 567.856C376.367 551.012 389.928 536.455 406.81 524.235C422.013 513.27 434.119 500.33 443.26 485.25C452.296 470.261 458.364 453.288 461.361 434.264C464.775 412.904 471.59 393.761 481.911 376.745C492.229 359.833 505.761 345.402 522.485 333.319C537.689 322.353 549.795 309.362 558.829 294.477C567.865 279.488 573.934 262.463 576.986 243.341C580.4 221.981 587.241 202.816 597.535 185.822C605.762 172.398 615.883 160.572 628.082 150.238L628.137 150.191ZM469.888 42.9449L436.407 20.2579C423.439 30.3983 412.932 42.1523 404.864 55.4393C395.831 70.3248 389.76 87.4018 386.707 106.575C383.297 127.78 376.537 146.825 366.454 163.584C357.017 179.225 344.738 192.923 329.571 204.567C328.825 224.271 324.456 243.469 316.492 262.191C309.1 279.604 305.175 297.455 304.737 316.132L304.708 318.437C308.479 300.517 314.736 284.292 323.582 269.721C333.796 252.848 347.383 238.268 364.369 226.009C379.573 215.043 391.627 202.098 400.741 187.092C409.777 172.103 415.793 155.123 418.817 136.077C422.256 114.745 429.046 95.5741 439.311 78.7076C447.433 65.3227 457.633 53.4285 469.938 43.0025L469.888 42.9449ZM261.451 28.4699C255.571 44.065 252.438 60.0111 252.03 76.2798C251.601 94.5428 254.639 113.293 261.201 132.332C268.556 153.772 271.981 174.722 271.499 195.21C271.018 215.698 266.631 235.724 258.31 255.311C250.918 272.725 247.019 290.604 246.564 308.89C246.135 327.154 249.172 345.904 255.734 364.943C263.089 386.383 266.514 407.332 266.033 427.821C265.551 448.309 261.138 468.357 252.844 487.922C245.452 505.336 241.552 523.215 241.097 541.501C240.668 559.764 243.706 578.515 250.267 597.553C257.528 618.671 260.958 639.362 260.575 660.017C260.21 676.654 257.335 692.631 252.02 708.292L290.719 712.867C296.599 697.272 299.783 681.332 300.139 665.057C300.57 646.743 297.531 628.044 290.969 609.005C283.614 587.565 280.189 566.615 280.671 546.127C281.152 525.639 285.564 505.642 293.884 486.055C301.276 468.641 305.176 450.762 305.631 432.475C306.061 414.161 303.022 395.462 296.487 376.401C295.475 373.427 294.514 370.46 293.656 367.506L293.272 366.267C288.2 348.573 285.875 331.281 286.153 313.96C286.617 293.133 291.057 273.061 299.351 253.445C306.77 236.008 310.696 218.107 311.098 199.866L311.123 197.716C311.28 180.043 308.198 162.091 301.904 143.734C294.549 122.294 291.124 101.344 291.605 80.9082C291.985 64.7139 294.835 48.7093 300.177 33.0239L261.478 28.4487L261.451 28.4699ZM11.06 679.828L49.7591 684.403C55.6398 668.808 58.7981 652.84 59.1799 636.594C59.6103 618.279 56.5714 599.58 50.0099 580.542C42.6546 559.102 39.2297 538.152 39.685 517.686C40.1664 497.198 44.5535 477.172 52.8737 457.585C60.2657 440.171 64.1904 422.321 64.6202 404.006C65.0493 385.743 61.9853 367.015 55.4501 347.954C48.0948 326.514 44.67 305.564 45.1514 285.076C45.6329 264.587 50.045 244.591 58.3132 224.998C65.7052 207.584 69.6049 189.705 70.0597 171.418C70.4889 153.155 67.4511 134.405 60.8896 115.366C53.5344 93.9263 50.1095 72.9764 50.591 52.4882C50.9716 36.294 53.7964 20.2605 59.1382 4.57512L20.4391 4.90441e-06C14.5584 15.5951 11.4001 31.5639 11.0183 47.8098C10.5891 66.0729 13.6268 84.8235 20.1883 103.862C27.4947 125.193 30.9446 146.171 30.4362 166.682C29.9523 187.273 25.539 207.322 17.2713 226.863C9.85238 244.3 5.92719 262.202 5.49921 280.413C5.07002 298.676 8.10897 317.375 14.6943 336.494C22.0495 357.934 25.4744 378.884 24.9929 399.372C24.5115 419.86 20.0731 439.88 11.7792 459.444C4.46825 476.686 0.52418 494.301 0.0412492 512.661C-0.397685 531.338 2.667 550.066 9.20281 569.074C16.558 590.515 20.008 611.493 19.5265 631.981C19.1459 648.176 16.2961 664.18 10.9543 679.866L11.06 679.828Z" fill="black"/>
</svg>
