<svg width="462" height="447" viewBox="0 0 462 447" fill="none" xmlns="http://www.w3.org/2000/svg">
<path d="M461.023 187.765C459.663 179.481 454.463 172.512 446.764 168.661C437.627 164.076 433.96 153.118 438.56 144.223C442.433 136.719 442.401 128.145 438.465 120.672C434.529 113.198 427.368 108.124 418.815 106.749C408.651 105.144 401.648 95.8212 403.197 85.9636C404.493 77.6801 401.711 69.5341 395.577 63.6042C389.444 57.6591 380.987 54.9692 372.434 56.2377C362.27 57.6438 352.595 50.965 350.951 41.1379C349.528 32.8697 344.28 25.9464 336.566 22.1256C328.82 18.3507 319.951 18.2895 312.19 22.0492C302.958 26.5119 291.639 22.9356 286.913 14.1172C282.929 6.6743 275.72 1.64613 267.152 0.331771C258.584 -0.967302 250.127 1.64613 243.962 7.54544C236.627 14.5451 224.708 14.5451 217.404 7.54544C211.223 1.64613 202.75 -0.982585 194.214 0.331771C185.646 1.64613 178.437 6.6743 174.454 14.1172C169.727 22.9356 158.408 26.5272 149.176 22.0492C141.415 18.3048 132.562 18.3507 124.8 22.1256C117.086 25.9464 111.838 32.8697 110.415 41.1379C108.755 50.965 99.2387 57.6591 88.916 56.2377C80.4428 54.9845 71.9223 57.6591 65.7887 63.6042C59.6552 69.5341 56.873 77.6801 58.1692 85.9788C59.7184 95.8212 52.7154 105.144 42.5508 106.749C33.9986 108.124 26.8375 113.198 22.9013 120.672C18.9651 128.145 18.9335 136.719 22.8065 144.223C27.4066 153.118 23.7392 164.076 14.6021 168.661C6.90353 172.512 1.70266 179.481 0.343165 187.765C-1.01633 196.048 1.70266 204.21 7.80459 210.185C15.0289 217.262 15.0289 228.785 7.80459 235.861C1.70266 241.837 -1.01633 249.998 0.343165 258.282C1.70266 266.565 6.90353 273.534 14.6021 277.386C23.7392 281.971 27.4066 292.929 22.8065 301.824C18.9335 309.328 18.9651 317.901 22.9013 325.375C26.8375 332.848 33.9986 337.922 42.5508 339.298C52.7154 340.903 59.7184 350.225 58.1692 360.083C56.873 368.367 59.6552 376.513 65.7887 382.442C71.9223 388.388 80.3322 391.032 88.9318 389.809C99.049 388.296 108.755 395.082 110.415 404.909C111.838 413.177 117.086 420.1 124.816 423.906C132.531 427.727 141.399 427.757 149.176 423.997C158.408 419.535 169.727 423.111 174.454 431.929C178.437 439.372 185.646 444.401 194.214 445.715C202.766 446.968 211.223 444.401 217.404 438.501C224.739 431.502 236.659 431.502 243.962 438.501C249.1 443.407 255.802 446.036 262.837 446.036C264.259 446.036 265.714 445.929 267.152 445.715C275.72 444.401 282.929 439.372 286.913 431.929C291.639 423.111 302.974 419.55 312.19 423.997C319.967 427.742 328.851 427.711 336.55 423.906C344.28 420.1 349.528 413.177 350.951 404.909C352.611 395.082 362.112 388.311 372.45 389.809C380.892 391.032 389.444 388.388 395.577 382.442C401.711 376.513 404.493 368.367 403.197 360.068C401.648 350.225 408.651 340.903 418.815 339.298C427.368 337.922 434.529 332.848 438.465 325.375C442.401 317.901 442.433 309.328 438.56 301.824C433.96 292.929 437.627 281.971 446.764 277.386C454.463 273.534 459.663 266.565 461.023 258.282C462.382 249.998 459.663 241.837 453.562 235.861C446.337 228.785 446.337 217.262 453.562 210.185C459.663 204.21 462.382 196.048 461.023 187.765ZM230.683 386.003C137.731 386.003 62.1054 312.889 62.1054 223.023C62.1054 133.158 137.731 60.0432 230.683 60.0432C323.635 60.0432 399.261 133.158 399.261 223.023C399.261 312.889 323.635 386.003 230.683 386.003Z" fill="black"/>
<path d="M276.461 128.341C258.687 128.341 242.566 135.123 230.679 146.145C218.79 135.123 202.674 128.341 184.916 128.341C148.35 128.341 118.713 156.997 118.713 192.342C118.713 211.36 127.316 228.44 140.954 240.172L214.542 311.309C218.784 315.427 224.452 317.705 230.5 317.705C230.721 317.705 230.956 317.705 231.17 317.705C237.193 317.705 242.852 315.446 247.111 311.338L322.146 238.78C322.637 238.307 323.102 237.803 323.537 237.302C335.354 225.735 342.653 209.855 342.653 192.34C342.653 156.997 313.019 128.341 276.461 128.341Z" fill="black"/>
</svg>
