<svg width="832" height="829" viewBox="0 0 832 829" fill="none" xmlns="http://www.w3.org/2000/svg">
<path d="M278.091 287.3C265.786 287.29 253.494 288.069 241.29 289.632C240.377 332.634 216.235 360.094 169.516 371.751C185.046 402.967 184.263 433.664 166.776 457.238C155.998 470.417 141.774 480.397 125.661 486.086C109.549 491.775 92.1696 492.952 75.4276 489.49C76.8631 541.3 52.0686 569.925 0 577.179C5.49343 646.345 37.2848 710.849 88.9266 757.608C140.568 804.367 208.195 829.882 278.091 828.977C351.192 829.599 421.559 801.423 473.763 750.628C525.966 699.833 555.746 630.564 556.573 558.009C555.712 485.488 525.913 416.265 473.709 365.519C421.505 314.772 351.158 286.644 278.091 287.3ZM116.534 576.661C116.534 570 118.524 563.489 122.253 557.951C125.981 552.413 131.28 548.096 137.48 545.547C143.679 542.998 150.501 542.332 157.083 543.631C163.665 544.93 169.71 548.138 174.456 552.848C179.201 557.557 182.432 563.558 183.741 570.091C185.05 576.623 184.379 583.394 181.81 589.548C179.242 595.702 174.894 600.961 169.314 604.662C163.734 608.362 157.174 610.337 150.464 610.337C141.476 610.303 132.866 606.744 126.51 600.436C120.155 594.128 116.569 585.582 116.534 576.661ZM191.049 753.593C184.338 753.593 177.778 751.618 172.198 747.917C166.619 744.217 162.27 738.957 159.702 732.804C157.134 726.65 156.462 719.879 157.771 713.346C159.08 706.813 162.312 700.813 167.057 696.103C171.802 691.393 177.848 688.186 184.429 686.886C191.011 685.587 197.833 686.254 204.033 688.803C210.233 691.352 215.532 695.668 219.26 701.206C222.988 706.744 224.978 713.256 224.978 719.916C224.978 728.848 221.403 737.413 215.04 743.729C208.677 750.045 200.047 753.593 191.049 753.593ZM366.176 456.72C359.455 456.745 352.877 454.789 347.277 451.098C341.678 447.408 337.309 442.149 334.724 435.991C332.14 429.832 331.457 423.05 332.762 416.505C334.067 409.96 337.302 403.948 342.054 399.23C346.807 394.513 352.865 391.303 359.459 390.007C366.053 388.712 372.885 389.39 379.091 391.955C385.296 394.52 390.593 398.856 394.312 404.414C398.03 409.972 400.001 416.501 399.975 423.173C399.975 432.07 396.414 440.603 390.076 446.894C383.737 453.185 375.14 456.72 366.176 456.72Z" fill="black"/>
<path d="M563.228 0.0120876C492.61 0.080671 424.904 27.955 374.969 77.5177C325.035 127.08 296.951 194.282 296.882 264.374C296.882 267.871 296.882 271.368 296.882 274.736C364.99 278.523 429.564 306.054 479.221 352.474C528.879 398.895 560.431 461.225 568.317 528.477C638.922 527.807 706.367 499.326 755.815 449.299C805.262 399.272 832.663 331.798 831.988 261.719C831.313 191.64 802.618 124.698 752.216 75.618C701.814 26.5385 633.833 -0.657783 563.228 0.0120876ZM441.213 237.951C437.258 237.976 433.385 236.836 430.085 234.674C426.784 232.512 424.205 229.426 422.673 225.807C421.142 222.189 420.728 218.2 421.484 214.347C422.239 210.495 424.131 206.951 426.918 204.167C429.705 201.382 433.262 199.482 437.139 198.707C441.015 197.932 445.036 198.316 448.692 199.812C452.348 201.308 455.474 203.848 457.674 207.11C459.874 210.372 461.048 214.208 461.048 218.133C461.048 223.367 458.963 228.388 455.247 232.101C451.53 235.814 446.485 237.917 441.213 237.951ZM556.442 121.378C549.215 121.378 542.151 119.251 536.142 115.266C530.133 111.28 525.45 105.616 522.684 98.9894C519.918 92.3624 519.195 85.0703 520.605 78.0351C522.015 71 525.495 64.5378 530.605 59.4657C535.715 54.3936 542.226 50.9395 549.314 49.5402C556.401 48.1408 563.748 48.859 570.425 51.604C577.102 54.3489 582.808 58.9974 586.823 64.9615C590.838 70.9256 592.981 77.9375 592.981 85.1105C593.051 89.9105 592.156 94.6761 590.349 99.1291C588.542 103.582 585.86 107.633 582.458 111.046C579.056 114.458 575.004 117.164 570.537 119.004C566.07 120.845 561.279 121.784 556.442 121.766V121.378ZM595.591 370.326H582.542V359.835H595.591V370.326ZM699.989 193.394H686.94V183.161H699.989V193.394ZM722.566 356.208C718.763 356.182 715.052 355.042 711.899 352.932C708.746 350.821 706.291 347.833 704.841 344.343C703.392 340.853 703.013 337.016 703.752 333.314C704.491 329.611 706.315 326.207 708.995 323.529C711.676 320.851 715.093 319.018 718.818 318.259C722.544 317.501 726.412 317.852 729.938 319.267C733.464 320.682 736.49 323.098 738.638 326.214C740.785 329.329 741.958 333.005 742.01 336.779C742.062 339.334 741.597 341.873 740.64 344.245C739.683 346.618 738.255 348.775 736.44 350.588C734.626 352.401 732.462 353.833 730.079 354.798C727.695 355.764 725.14 356.243 722.566 356.208Z" fill="black"/>
</svg>
