<svg width="807" height="820" viewBox="0 0 807 820" fill="none" xmlns="http://www.w3.org/2000/svg">
<path d="M81.8403 483.055H84.075C38.8765 483.055 2.23477 521.885 2.23477 569.786C2.23477 606.91 24.2525 638.572 55.1978 650.945C249.543 652.107 569.737 653.586 748.499 652.917C782.323 642.267 807 609.089 807 569.785C807 521.885 770.358 483.054 725.16 483.054H722.925C768.123 483.054 804.765 444.224 804.765 396.323C804.765 362.264 786.232 332.806 759.278 318.618L443.259 320.594L243.665 447.922L97.2435 322.76L37.9584 323.131C15.1468 338.524 0 365.541 0 396.324C0 444.224 36.6417 483.055 81.8403 483.055ZM703.111 483.055L540.981 619.19L342.026 483.055H703.111Z" fill="black"/>
<path d="M427.122 668.29C243.89 667.688 59.9042 666.575 2.23314 666.213V730.027C2.23314 779.718 43.2447 820 93.8358 820H697.516C748.107 820 789.119 779.718 789.119 730.027V668.302C754.945 668.55 708.24 668.705 644.224 668.705C586.859 668.705 515.652 668.58 427.124 668.29H427.122Z" fill="black"/>
<path d="M113.183 307.064L789.39 302.835C789.901 275.574 786.109 171.292 704.17 92.2196C644.747 34.8788 536.51 0 388.969 0C273.599 0 173.262 33.7705 116.244 76.8494C7.63871 158.905 2.45367 290.778 2.2413 307.758L113.184 307.064H113.183ZM643.666 124.904C663.295 139.254 681.315 161.053 660.358 172.392C638.11 184.43 628.718 155.265 626.155 134.813C624.974 125.391 635.911 119.236 643.666 124.904ZM527.883 56.202C544.663 68.5693 565.736 91.0937 544.029 104.049C523.581 116.253 513.308 90.0479 510.414 66.183C509.271 56.7546 520.151 50.5037 527.883 56.202ZM483.991 148.924C487.131 139.945 499.706 139.117 504.151 147.549C515.402 168.893 521.882 196.241 497.986 197.421C472.618 198.674 477.177 168.414 483.993 148.924H483.991ZM398.867 63.5228C402.007 54.5428 414.582 53.7148 419.027 62.147C430.278 83.4911 436.759 110.839 412.862 112.02C387.494 113.272 392.052 83.0122 398.867 63.5228ZM336.486 147.72C340 171.505 337.006 199.431 314.032 192.86C289.646 185.884 304.043 158.76 316.978 142.536C322.937 135.061 335.098 138.324 336.486 147.72ZM290.528 54.1809C298.258 48.4825 309.14 54.7334 307.996 64.1618C305.102 88.0283 294.829 114.231 274.382 102.028C252.676 89.0725 273.748 66.5497 290.528 54.1809ZM171.269 110.314C179.825 105.9 189.552 113.775 186.892 122.904C180.16 146.011 165.763 170.27 147.558 155.02C128.233 138.83 152.695 119.895 171.269 110.314Z" fill="black"/>
</svg>
