<svg width="827" height="644" viewBox="0 0 827 644" fill="none" xmlns="http://www.w3.org/2000/svg">
<path fill-rule="evenodd" clip-rule="evenodd" d="M700.649 61.7409C701.255 66.9723 694.52 75.332 680.433 86.8306L679.974 87.3642C672.614 72.3606 661.128 62.0861 645.516 56.5095C652.867 35.5839 659.299 23.897 664.812 21.4382C670.326 20.0467 677.52 24.7654 686.406 35.5839C694.07 45.7014 698.82 54.2391 700.658 61.2073L700.649 61.7409ZM502.161 50.2109C504.302 50.5562 505.992 51.7803 507.215 53.8938C508.143 55.6306 508.446 57.5558 508.143 59.6379C507.839 61.7409 506.911 63.6451 505.386 65.4029C495.894 72.3711 486.236 80.5634 476.441 89.9904H475.982C460.664 102.535 446.274 114.222 432.794 125.041C430.956 126.432 429.275 126.966 427.74 126.61C425.599 125.92 424.065 124.685 423.146 122.948C421.915 120.845 421.611 118.941 422.218 117.183C422.521 114.756 423.449 112.998 424.984 111.952C437.839 101.489 451.935 89.9799 467.252 77.4351V76.9015C477.36 67.485 487.321 59.1252 497.116 51.7908C498.651 50.3992 500.323 49.8656 502.161 50.2109ZM554.087 184.679C555.621 186.07 557.45 186.583 559.6 186.227C561.438 185.882 562.972 184.836 564.195 183.099C565.426 181.341 565.885 179.437 565.573 177.334C562.816 149.785 549.033 128.169 524.223 112.475C551.174 90.8588 571.233 77.7803 584.41 73.2395H584.869C602.025 67.3176 618.262 65.9051 633.57 69.0544C633.873 69.3996 634.342 69.588 634.949 69.588C635.555 69.9332 636.327 70.2785 637.246 70.6342L637.705 71.1469C653.942 75.332 664.968 85.7948 670.794 102.535L671.254 103.069C671.557 104.115 671.86 105.339 672.173 106.731C671.869 107.076 671.869 107.421 672.173 107.777C686.571 165.322 659.152 222.868 589.932 280.413H590.401C569.882 296.819 548.886 311.99 527.448 325.947H526.989C521.788 329.075 516.422 332.382 510.908 335.876C498.044 340.417 485.795 344.602 474.153 348.421C473.547 348.421 472.931 348.609 472.315 348.955C471.709 348.955 471.249 349.143 470.946 349.488C435.413 360.296 400.036 362.379 364.806 355.766C364.2 355.766 363.74 355.766 363.437 355.766C353.945 353.663 344.903 351.225 336.33 348.432H335.87C315.958 342.154 295.127 334.307 273.386 324.89H273.846C266.495 322.107 259.447 319.314 252.711 316.531C252.096 316.185 251.333 315.84 250.414 315.484C196.2 293.146 158.36 281.993 136.923 281.993C115.789 281.993 97.2638 286.366 81.3304 295.071C81.3304 282.527 85.4654 270.84 93.7353 260.021H94.2039C104.615 245.017 119.776 234.209 139.679 227.586C156.532 221.309 188.996 219.907 237.09 223.401H237.55C243.679 223.401 250.414 223.747 257.765 224.448C278.596 225.839 297.884 226.373 315.655 226.017H316.114C323.465 226.017 330.973 225.672 338.627 224.971C350.876 249.37 355.011 275.36 351.032 302.908C350.729 305.011 351.335 306.915 352.87 308.673C354.101 310.41 355.626 311.456 357.464 311.801C359.302 312.147 360.993 311.634 362.518 310.253C364.052 308.84 365.118 307.104 365.743 305.022C369.41 276.061 365.284 248.523 353.329 222.366C380.592 216.444 406.468 205.102 430.975 188.361C449.049 208.597 459.92 231.782 463.595 257.939C463.898 259.676 464.826 261.245 466.361 262.637C467.886 264.028 469.724 264.562 471.874 264.206C473.409 263.861 474.934 262.815 476.469 261.057C477.691 259.32 478.159 257.395 477.847 255.313C473.859 227.053 462.226 201.775 442.92 179.458C456.704 169.685 470.79 158.532 485.198 145.966H485.658C494.24 137.261 502.813 129.414 511.386 122.425C535.286 136.037 548.601 155.038 551.367 179.458C551.633 181.529 552.552 183.266 554.087 184.679ZM732.81 316.51C749.046 328.019 758.079 343.891 759.908 364.105V365.172C759.908 366.909 759.908 368.834 759.908 370.916C759.301 439.97 711.832 493.341 617.481 531.007C590.53 541.815 563.119 550.709 535.25 557.677C446.724 576.52 359.89 576.52 274.737 557.677C246.867 550.709 219.448 541.815 192.497 531.007C98.1551 493.341 50.6856 439.625 50.07 369.88V369.347C50.6856 348.076 58.3399 331.335 73.0421 319.136C73.6577 318.791 74.4204 318.257 75.3393 317.566C75.9549 317.566 76.4144 317.566 76.7176 317.566C77.0208 317.221 77.4803 316.876 78.0959 316.52C78.0959 316.175 78.2521 315.987 78.5554 315.987V315.474C78.8586 315.474 79.1618 315.286 79.4742 314.94C95.0953 303.787 114.236 298.2 136.904 298.2C157.12 298.2 192.194 308.474 242.117 329.055C242.117 357.66 236.144 383.639 224.198 407.013C221.442 412.935 218.069 419.024 214.091 425.323C212.253 426.714 211.49 428.629 211.793 431.067C212.097 433.17 213.163 434.907 215.01 436.298C216.241 437.69 217.922 438.223 220.063 437.867C221.901 437.522 223.436 436.643 224.658 435.252C229.252 428.974 233.24 422.362 236.613 415.372C248.558 391.319 255.146 364.628 256.359 335.332C260.035 336.745 264.014 338.293 268.305 340.051C290.974 349.467 312.255 357.482 332.167 364.105C340.437 366.553 349.01 368.824 357.896 370.906C359.431 380.322 360.496 389.749 361.121 399.166V399.678C361.424 421.65 357.29 443.099 348.707 464.024C347.788 465.761 347.641 467.686 348.248 469.789C348.863 472.217 350.242 473.954 352.383 475.021C353.917 475.711 355.599 475.711 357.437 475.021C359.274 474.309 360.662 472.918 361.572 470.836C371.064 447.462 375.658 423.565 375.355 399.166V398.632C375.052 390.251 374.133 381.892 372.598 373.521C405.062 378.407 437.223 376.137 469.081 366.721L469.54 367.254C483.93 396.906 489.453 426.725 486.08 456.721C485.777 458.804 486.236 460.729 487.459 462.465C488.993 464.223 490.675 465.27 492.512 465.615C494.35 465.96 496.032 465.426 497.566 464.045C499.101 462.664 500.02 460.896 500.323 458.814C503.998 428.116 498.954 397.429 485.171 366.731C495.278 361.5 505.386 356.457 515.494 351.57C515.797 351.225 516.1 351.037 516.413 351.037C516.413 350.692 516.716 350.524 517.341 350.524H517.8C525.454 346.684 533.421 343.19 541.691 340.061H542.141C554.39 334.485 566.032 329.599 577.059 325.413C600.031 349.834 609.679 376.336 605.995 404.931C605.691 407.034 606.16 409.116 607.373 411.208C608.595 412.966 610.13 414.012 611.967 414.358C614.108 414.703 615.955 414.169 617.481 412.788C619.015 411.397 619.943 409.66 620.246 407.557C624.538 375.478 615.349 346.172 592.68 319.669C630.042 305.388 657.002 298.231 673.542 298.231C694.373 298.231 712.594 303.117 728.215 312.879C728.518 313.224 728.822 313.392 729.134 313.392L729.594 313.925C730.522 314.616 731.735 315.495 733.269 316.541H732.81V316.51ZM775.988 272.043C783.348 272.733 790.24 280.936 796.663 296.63V296.097C802.185 310.745 804.933 322.599 804.933 331.67C804.014 337.948 793.906 344.937 774.61 352.596C773.994 352.596 773.378 352.784 772.772 353.129C769.096 333.25 759.292 317.022 743.368 304.477C758.382 283.541 769.262 272.733 775.988 272.043ZM555.456 612.083C560.354 610.326 565.573 608.934 571.077 607.898C573.218 607.208 575.065 607.553 576.599 608.945C578.125 609.991 579.2 611.749 579.816 614.176C580.119 616.279 579.816 618.183 578.897 619.941C577.665 621.678 576.296 622.902 574.762 623.603C569.239 624.994 564.038 626.407 559.141 627.788H558.681C455.463 649.404 354.386 649.404 255.45 627.788C222.673 619.753 190.668 609.29 159.426 596.4H159.886C139.974 589.41 122.212 581.396 106.591 572.325C104.753 571.279 103.374 569.709 102.456 567.627C101.849 565.179 101.996 563.086 102.915 561.349C103.843 559.246 105.378 557.855 107.509 557.164C109.044 556.474 110.735 556.631 112.572 557.677C128.184 566.403 145.34 574.438 164.03 581.752C194.656 594.297 226.055 604.414 258.215 612.094C355.305 633.019 454.553 632.831 555.934 611.56L555.456 612.083ZM812.743 398.098C812.743 395.315 812.743 392.522 812.743 389.739C812.743 387.636 813.515 385.899 815.041 384.507C816.272 382.75 817.806 381.892 819.635 381.892C821.776 381.892 823.623 382.75 825.158 384.507C826.38 385.899 826.995 387.636 826.995 389.739C826.995 392.522 826.995 395.315 826.995 398.098C827.602 483.904 770.328 549.997 655.164 596.379C654.548 596.379 654.089 596.379 653.786 596.379C653.179 597.069 652.417 597.603 651.488 597.948C649.651 598.639 647.969 598.639 646.435 597.948C644.597 596.536 643.375 594.799 642.759 592.717C642.153 590.614 642.3 588.689 643.228 586.952C643.834 584.87 645.222 583.457 647.353 582.767C647.657 582.421 648.125 582.254 648.732 582.254C648.732 581.909 648.888 581.72 649.191 581.72C757.61 538.143 812.137 476.925 812.743 398.098ZM9.18884 300.282C14.7021 285.634 20.8311 277.431 27.5665 275.694C28.173 275.694 28.6324 275.506 28.9356 275.161C36.2867 276.573 47.6165 287.381 62.9343 307.616C47.929 320.506 39.1996 337.435 36.7462 358.361C34.2927 357.315 31.9955 356.603 29.8545 356.258H30.3232C11.0174 348.599 0.918884 341.442 0 334.82C0 325.748 3.05988 314.061 9.18884 299.769V300.282ZM295.412 74.8194C296.946 76.2109 297.709 78.1256 297.709 80.5634C297.709 82.6664 296.946 84.5707 295.412 86.3284C293.877 87.72 292.196 88.4105 290.358 88.4105H258.657C256.819 88.4105 255.137 87.72 253.603 86.3284C252.068 84.5707 251.305 82.6664 251.305 80.5634C251.305 78.1361 252.068 76.2109 253.603 74.8194C255.137 73.0616 256.819 72.2037 258.657 72.2037H290.358C292.205 72.2037 293.877 73.0616 295.412 74.8194ZM322.069 108.29C324.21 108.29 326.047 109.336 327.582 111.439C328.813 112.831 329.42 114.567 329.42 116.67V152.757C329.42 154.839 328.813 156.942 327.582 159.034C326.047 160.426 324.219 161.137 322.069 161.137C320.231 161.137 318.696 160.426 317.474 159.034C315.94 156.952 315.177 154.849 315.177 152.757V116.67C315.177 114.567 315.94 112.831 317.474 111.439C318.696 109.336 320.231 108.29 322.069 108.29ZM393.282 80.5634C393.282 82.6664 392.52 84.5707 390.985 86.3284C389.45 87.72 387.76 88.4105 385.931 88.4105H354.23C352.089 88.4105 350.398 87.72 349.176 86.3284C347.641 84.5707 346.879 82.6664 346.879 80.5634C346.879 78.1361 347.641 76.2109 349.176 74.8194C350.398 73.0616 352.079 72.2037 354.23 72.2037H385.931C387.76 72.2037 389.45 73.0616 390.985 74.8194C392.52 76.2109 393.282 78.1256 393.282 80.5634ZM84.5281 203.501C83.0028 205.604 81.312 206.65 79.4742 206.65C77.6365 206.996 75.8079 206.462 73.9609 205.081C72.4264 202.999 71.6637 200.896 71.6637 198.803C71.3605 196.7 71.967 194.796 73.5015 193.038C86.0534 176.298 103.521 164.098 125.869 156.419C143.64 150.141 177.786 148.572 228.324 151.721H228.784C233.075 151.721 237.972 151.888 243.495 152.234C245.324 152.234 246.858 153.112 248.089 154.849C249.312 156.952 249.918 159.034 249.918 161.148C249.918 163.23 249.155 164.967 247.621 166.379C246.095 167.771 244.405 168.461 242.567 168.461C237.366 168.116 232.615 167.928 228.324 167.928H227.883C179.486 164.799 146.865 166.191 130.022 172.113C110.422 178.736 95.2515 189.199 84.5281 203.501ZM317.474 50.7445C315.94 49.0077 315.177 46.9047 315.177 44.4668V8.35976C315.177 6.27767 315.94 4.54085 317.474 3.12837C318.696 1.04628 320.231 0 322.069 0C324.21 0 326.047 1.04628 327.582 3.12837C328.813 4.54085 329.42 6.27767 329.42 8.35976V44.4668C329.42 46.8942 328.813 49.0077 327.582 50.7445C326.047 52.1361 324.219 52.8266 322.069 52.8266C320.231 52.8266 318.696 52.1361 317.474 50.7445Z" fill="black"/>
</svg>
