<svg width="704" height="828" viewBox="0 0 704 828" fill="none" xmlns="http://www.w3.org/2000/svg">
<path d="M616.855 189.293C600.33 203.717 583.806 210.865 568.688 213.743C570.249 217.688 571.593 221.731 572.936 225.773C581.463 253.231 585.399 282.047 585.743 310.894C586.462 404.715 548.259 496.31 488.44 565.84C435.056 629.1 365.18 678.713 286.997 702.45C229.739 719.979 168.23 725.671 109.823 711.473C101.42 709.403 93.361 707.042 85.2396 703.711C83.053 702.805 82.0222 700.283 82.8655 698.019C83.6152 696.046 85.6144 694.979 87.5511 695.335C135.78 701.188 185.166 699.474 232.994 690.807C312.554 675.704 385.866 633.465 443.346 574.862C448.344 570.173 455.59 562.055 460.37 557.01C465.305 551.868 471.647 543.718 476.457 538.285L483.985 528.485C503.945 502.548 520.751 473.602 533.902 443.398C551.863 401.549 561.296 356.299 563.233 310.539C564.639 278.845 562.921 246.471 557.298 215.227C555.486 215.324 553.675 215.421 551.925 215.421C531.309 215.421 514.879 208.5 507.038 204.458C496.542 220.305 491.013 242.006 484.297 268.429C471.833 317.588 454.716 384.887 393.463 468.782C350.95 526.995 285.756 572.762 199.672 604.812C131.794 630.103 71.9419 638.996 49.4234 642.327C46.3309 642.78 44.0819 643.103 42.7387 643.362C41.0831 643.653 39.3963 644.041 37.6783 644.462C48.6113 651.9 58.8878 665.742 56.3265 688.381C53.8588 709.953 44.613 727.547 30.8684 736.667C27.5573 738.866 24.1212 740.418 20.6231 741.389C21.0916 741.744 21.404 741.971 21.5289 742.035C106.053 799.085 192.865 828 277.358 828C316.248 828 354.638 821.888 392.125 809.565C514.106 769.462 624.964 660.18 674.503 531.171C728.231 391.291 708.302 273.086 616.84 189.423L616.855 189.293Z" fill="black"/>
<path d="M608.546 180.401C583.307 149.127 579.214 98.6418 581.62 55.3075C571.499 64.2335 555.068 74.1299 531.953 74.1299C524.05 74.1299 515.367 72.9332 505.902 70.1842C518.115 106.795 521.114 150.682 521.802 171.863C522.083 180.143 519.521 188.066 514.555 194.535C529.205 201.779 568.095 215.169 608.515 180.369L608.546 180.401Z" fill="black"/>
<path d="M488.38 34.3144C492.879 40.4592 496.783 47.5423 500.157 55.2388C552.135 75.4521 578.093 43.1758 582.994 36.0928C582.932 25.905 571.53 15.5235 551.976 8.05302C537.482 2.52264 522.27 0 510.306 0C499.342 0 491.065 2.10222 488.534 5.88614C477.351 22.5095 487.409 33.247 487.847 33.6999C488.034 33.8939 488.222 34.1203 488.378 34.3467L488.38 34.3144Z" fill="black"/>
<path d="M44.4387 686.834C47.375 661.057 29.289 652.713 22.6974 650.547C12.6392 656.95 3.95487 668.496 0.675445 690.327C-1.97968 707.92 3.64292 721.083 9.70286 729.718C14.201 730.656 19.4804 729.395 24.4151 726.128C35.0978 719.046 42.4083 704.719 44.4387 686.834Z" fill="black"/>
</svg>
