<svg width="351" height="407" viewBox="0 0 351 407" fill="none" xmlns="http://www.w3.org/2000/svg">
<path d="M64.993 66.6C66.886 66.6 68.779 66 70.041 65.4L90.233 114C94.65 113.4 99.067 113.4 103.484 113.4C116.735 113.4 129.355 115.2 141.344 119.4C153.333 123.6 164.06 129 174.156 136.2C174.787 136.8 175.418 137.4 176.049 138C176.68 137.4 177.311 136.8 177.942 136.2C188.038 129 198.765 123 210.754 119.4C222.743 115.2 235.994 113.4 248.614 113.4C253.031 113.4 257.448 113.4 261.865 114L282.057 65.4C283.95 66 285.212 66.6 287.105 66.6C295.308 66.6 302.249 60 302.249 52.2C302.249 44.4 295.308 37.8 287.105 37.8C278.902 37.8 271.961 44.4 271.961 52.2C271.961 55.8 273.223 59.4 275.747 61.8C263.758 69.6 250.507 73.8 237.256 73.2C233.47 73.2 229.684 72.6 225.898 72C220.219 70.8 215.171 69 210.754 66C196.872 58.2 185.514 45 177.942 28.2C184.883 27 190.562 21 190.562 14.4C190.562 6.6 183.621 0 175.418 0C167.215 0 160.274 6.6 160.274 14.4C160.274 21.6 165.953 27 172.894 28.2C165.953 45 154.595 58.2 140.082 66C135.034 68.4 129.986 70.8 124.938 72C121.152 72.6 117.366 73.2 113.58 73.2C99.698 73.2 86.447 69.6 75.089 61.8C77.613 59.4 78.875 55.8 78.875 52.2C78.875 44.4 71.934 37.8 63.731 37.8C56.79 38.4 49.849 44.4 49.849 52.2C49.849 60 56.79 66.6 64.993 66.6Z" fill="black"/>
<path d="M267.544 136.8C263.758 136.2 260.603 135.6 256.817 135C254.293 135 251.769 134.4 248.614 134.4C229.684 134.4 212.016 139.2 196.872 147.6C193.086 150 189.3 152.4 185.514 154.8C181.728 157.2 178.573 160.2 175.418 163.2C172.263 160.2 169.108 157.2 165.322 154.8C161.536 152.4 158.381 150 153.964 147.6C138.82 139.2 121.152 134.4 102.222 134.4C99.698 134.4 96.543 134.4 94.019 135C90.233 135.6 87.078 135.6 83.292 136.8C35.967 146.4 0 190.8 0 238.2C1.262 318 176.049 406.2 176.049 406.2C176.049 406.2 350.836 318 350.836 237.6C350.836 190.8 314.869 146.4 267.544 136.8Z" fill="black"/>
</svg>
