<svg width="824" height="766" viewBox="0 0 824 766" fill="none" xmlns="http://www.w3.org/2000/svg">
<path d="M782.8 170.222C782.8 170.222 782.8 85.1111 741.6 42.5556C700.4 0 659.2 0 618 0H206C164.8 0 123.6 0 82.4 42.5556C41.2 85.1111 41.2 170.222 41.2 170.222H0V297.889H41.2C41.2 297.889 56.3286 627.073 82.4 680.889C123.6 766 206 766 247.2 766H576.8C618 766 700.4 766 741.6 680.889C767.671 627.073 782.8 297.889 782.8 297.889H824V170.222H782.8ZM119.258 661.858C109.328 640.989 98.1466 539.068 90.0714 426.917C133.587 441.888 178.643 580.458 199.754 720.38C167.28 714.993 137.905 700.422 119.258 661.858ZM294.217 723.444C316.325 574.253 365.872 425.556 412 425.556C458.128 425.556 507.675 574.253 529.791 723.444H294.217ZM704.743 661.858C686.087 700.422 656.72 714.993 624.254 720.389C645.357 580.483 690.397 441.939 733.904 426.926C725.82 539.511 714.655 640.997 704.743 661.858ZM782.8 255.333H41.2V212.778H782.8V255.333Z" fill="black"/>
</svg>
