<svg width="531" height="485" viewBox="0 0 531 485" fill="none" xmlns="http://www.w3.org/2000/svg">
<path d="M454.83 14.9968C391.754 -11.7356 312.653 -1.69534 265.501 36.8842C218.347 -1.69534 139.23 -11.7356 76.1715 14.9968C29.11 34.9519 0.233232 72.4519 0.115233 113.388C0.0460919 114.166 0 114.944 0 115.722V258.444C0 259.072 0.0230465 259.699 0.0691429 260.327C0.0230465 280.432 6.33784 299.911 17.9997 315.497C20.0509 318.384 22.3094 321.195 24.7522 324.006C85.2031 393.032 164.068 446.796 259.116 483.795C263.241 485.402 267.758 485.402 271.884 483.795C366.926 446.797 445.797 393.032 506.248 323.981C508.691 321.195 510.949 318.358 513.023 315.472C524.662 299.909 531 280.406 530.931 260.301C530.977 259.699 531 259.071 531 258.444V115.721C531 114.943 530.954 114.19 530.885 113.412C530.793 72.4481 501.917 34.9487 454.83 14.9968ZM483.132 142.156V142.181C481.772 144.063 480.32 145.871 478.799 147.603C423.81 210.404 352.068 259.802 265.504 294.489C178.916 259.775 107.197 210.376 52.1854 147.577C50.6643 145.87 49.2354 144.063 47.8987 142.18C39.2329 131.487 36.0068 116.804 39.2795 102.998C44.3267 83.0429 62.7872 64.9956 89.9359 53.4999H89.9128C109.756 45.3926 130.775 41.3514 151.957 41.5269C191.528 41.5269 230.408 54.7799 251.979 78.6753L265.507 93.6852L279.036 78.7004C312.246 41.9028 386.456 30.357 441.102 53.4993C468.251 64.9956 486.711 83.0429 491.758 102.997H491.735C495.008 116.802 491.781 131.462 483.139 142.18L483.132 142.156Z" fill="black"/>
</svg>
