<svg width="784" height="829" viewBox="0 0 784 829" fill="none" xmlns="http://www.w3.org/2000/svg">
<path d="M655.142 140.285C655.648 139.959 656.086 139.698 656.524 139.371C656.524 139.371 656.625 139.371 656.625 139.273C658.951 137.772 661.277 136.107 663.434 134.345C704.688 101.511 703.644 44.2655 702.363 27.4879C702.195 25.497 702.026 23.5713 701.857 21.7109C677.961 38.7484 649.412 42.3387 621.706 45.863C571.418 52.2275 527.836 57.7435 517.896 141.198C517.626 142.96 517.458 144.788 517.289 146.551C522.21 147.889 527.03 148.966 531.783 150.076C584.565 161.825 625.986 158.563 655.142 140.285Z" fill="black"/>
<path d="M659.284 154.222C639.769 165.319 616.141 170.933 588.267 170.933C568.751 170.933 547.18 168.191 523.721 162.675C524.665 164.34 525.709 166.102 526.754 167.865C556.449 217.41 590.693 244.728 628.58 248.905C680.351 254.682 722.217 216.234 733.839 204.289C735.221 202.788 736.603 201.352 737.816 200.014C708.729 194.4 686.719 176.449 665.418 159.086C663.328 157.486 661.272 155.886 659.284 154.222Z" fill="black"/>
<path d="M779.583 446.234C766.472 383.83 725.655 334.673 673.107 318.063C646.176 309.544 615.741 312.384 589.484 325.831L551.532 345.381C548.162 347.143 544.623 348.71 541.185 350.211C536.702 352.137 532.118 353.736 527.568 355.237C524.804 356.086 522.041 356.837 519.277 357.489C515.468 358.403 511.76 359.154 507.884 359.741C503.132 360.59 498.312 361.08 493.458 361.406C490.627 361.569 487.661 361.667 484.83 361.732L437.541 361.895C422.542 362.809 409.599 366.922 399.151 374.004C389.41 380.695 381.625 390.127 375.591 401.649C375.153 402.399 374.816 403.15 374.377 403.999C350.548 452.956 358.839 536.022 398.544 595.32C398.713 595.647 398.982 595.973 399.151 596.234C400.027 597.572 400.971 598.911 401.915 600.151C430.732 640.491 488.64 681.126 524.604 693.723C619.518 726.981 698.288 662.227 699.065 661.541C765.936 604.914 796.032 524.363 779.586 446.223L779.583 446.234ZM572.127 368.947C571.621 369.796 562.453 383.471 546.14 393.687H545.938C545.668 393.85 545.433 394.013 545.062 394.176H544.961C538.59 398.027 531.243 401.291 522.884 403.021C518.401 403.935 513.581 404.359 508.559 404.359H508.053C480.348 404.359 449.035 392.414 447.485 391.826C443.777 390.39 441.957 386.31 443.44 382.721C444.923 379.131 449.137 377.368 452.844 378.804C453.181 378.902 476.91 388.008 499.526 389.998C504.615 390.423 509.638 390.488 514.288 390.096C516.176 389.933 517.996 389.672 519.816 389.248C524.804 388.236 529.389 386.408 533.635 384.222C538.556 381.643 542.938 378.542 546.578 375.539C555.038 368.424 559.79 361.342 559.79 361.244C561.947 357.98 566.363 357.067 569.699 359.057C573.272 361.342 574.284 365.683 572.127 368.947ZM678.362 638.734C676.98 639.909 675.261 640.497 673.609 640.497C671.62 640.497 669.632 639.648 668.183 638.081C665.587 635.144 665.857 630.803 668.857 628.225C747.187 561.708 741.087 484.946 734.683 455.017C724.841 408.214 695.754 371.888 658.914 360.167C655.105 358.992 653.049 354.978 654.263 351.322C655.476 347.634 659.622 345.643 663.397 346.818C705.259 360.101 737.953 400.475 748.806 452.171C755.648 484.581 762.389 567.488 678.362 638.734Z" fill="black"/>
<path d="M384.223 599.572C361.269 563.572 347.384 516.868 346.878 472.579C346.541 445.848 350.855 421.957 359.382 402.57C354.394 399.828 349.203 397.381 343.844 395.39L303.633 380.343C299.825 378.907 296.387 377.406 293.016 375.904C291.128 374.99 289.207 374.077 287.421 373.163C284.994 371.923 282.601 370.584 280.275 369.148C274.411 365.721 268.984 361.87 263.793 357.79C261.737 356.125 259.647 354.363 257.659 352.6C256.108 351.262 254.558 349.859 253.007 348.325C251.019 346.399 249.03 344.31 247.143 342.222L215.999 307.788C205.381 297.344 193.754 290.588 181.384 287.65C119.771 273.028 30.0477 350.218 6.82833 437.88C-5.77711 485.434 0.45805 554.362 14.2435 588.929C50.4092 679.986 152.637 695.293 153.681 695.46C173.87 698.136 193.116 698.626 211.149 697.288C211.587 697.19 212.092 697.19 212.531 697.19C294.468 690.466 353.255 645.955 384.223 599.572ZM50.1 575.845C49.4259 576.008 48.7181 576.171 47.9429 576.171C44.842 576.171 41.977 574.246 41.0333 571.243C31.2926 540.563 26.9783 483.77 37.1572 445.419C38.101 441.666 42.0782 439.414 45.954 440.393C49.8301 441.307 52.1558 445.158 51.1446 448.911C41.9095 483.769 45.617 538.147 54.8522 567.123C55.9645 570.811 53.9087 574.768 50.1 575.845ZM165.576 330.113C141.342 330.113 104.907 356.191 78.9539 392.028C77.5719 393.954 75.3137 395.031 72.988 395.031C71.505 395.031 70.1568 394.606 68.8423 393.79C65.5728 391.538 64.7976 387.198 67.0222 384.097C95.9416 344.082 136.388 316.176 165.474 316.176C169.451 316.176 172.72 319.342 172.72 323.194C172.822 327.012 169.519 330.113 165.576 330.113ZM298.714 410.828C298.276 410.926 294.13 411.415 288.03 411.415C281.288 411.415 272.155 410.762 262.481 407.988H262.38C261.942 407.89 261.605 407.727 261.167 407.662C254.021 405.573 246.673 402.244 239.865 397.315C236.427 394.802 233.124 391.799 230.023 388.47C229.922 388.47 229.922 388.372 229.854 388.307C229.585 388.046 229.349 387.719 229.079 387.458C228.978 387.36 228.911 387.197 228.81 387.132C210.879 366.896 199.722 336.412 199.216 334.911C197.935 331.223 199.89 327.306 203.632 326.066C207.44 324.826 211.485 326.719 212.867 330.341C212.968 330.668 221.495 353.971 234.776 371.858C237.708 375.872 240.91 379.626 244.348 382.726C245.73 383.967 247.179 385.142 248.561 386.251C252.707 389.254 257.089 391.441 261.504 393.105C266.762 395.031 272.02 396.206 276.772 396.859C287.827 398.295 296.456 397.185 296.625 397.12C300.501 396.532 304.208 399.209 304.815 403.06C305.354 406.65 302.658 410.24 298.714 410.828Z" fill="black"/>
<path d="M519.683 706.914C482.91 694.054 425.036 654.53 392.921 612.064C360.395 657.758 302.657 700.706 223.724 710.072C226.926 715.588 230.296 720.941 233.903 725.934C262.822 766.275 320.697 806.91 356.592 819.506C451.609 852.765 530.276 788.011 530.983 787.325C555.487 766.599 575.003 743.035 589.125 717.218C586.462 717.381 583.699 717.381 580.935 717.381C561.722 717.446 541.162 714.444 519.692 706.904L519.683 706.914ZM506.471 738.932C504.415 740.76 465.485 775.944 411.289 775.944C396.964 775.944 381.528 773.529 365.484 767.262C361.776 765.826 359.956 761.746 361.439 758.156C362.922 754.566 367.034 752.803 370.842 754.239C438.994 780.48 495.956 729.173 496.56 728.684C499.392 726.007 504.077 726.171 506.739 728.945C509.402 731.915 509.336 736.256 506.471 738.932Z" fill="black"/>
<path d="M167.362 123.733C167.699 124.059 168.137 124.484 168.474 124.81C168.575 124.81 168.575 124.81 168.575 124.908C193.787 148.048 233.896 158.656 288.158 156.404C292.978 156.241 297.899 155.914 302.989 155.49C303.158 153.662 303.326 151.802 303.427 150.072C309.393 66.2591 267.531 53.0743 219.299 37.9259C192.739 29.6685 165.371 21.0522 145.08 0C144.574 1.76249 143.967 3.68815 143.428 5.51589C141.372 12.9574 137.833 28.7539 137.833 47.4558C137.833 69.6828 142.922 95.9889 161.562 117.465C163.415 119.782 165.306 121.807 167.362 123.733Z" fill="black"/>
<path d="M174.273 236.439C212.225 239.017 251.054 218.227 289.646 174.785C291.028 173.186 292.308 171.685 293.623 170.183C287.152 170.51 280.848 170.673 274.714 170.673C225.438 170.673 187.756 159.739 161.939 137.839C159.614 139.079 157.355 140.352 155.03 141.592C130.796 154.974 105.854 168.649 76.1596 169.008C77.1033 170.607 78.1482 172.174 79.2605 173.936C88.3273 187.742 122.23 232.946 174.273 236.439Z" fill="black"/>
<path d="M347.345 195.832C323.178 248.151 289.608 298.77 261.565 336.796C263.452 338.721 265.374 340.549 267.362 342.311C268.913 343.748 270.564 345.053 272.182 346.391C277.272 350.569 282.8 354.42 288.765 357.75C290.585 358.827 292.406 359.838 294.192 360.752C296.518 361.993 299.012 363.167 301.607 364.342C341.649 310.457 391.327 234.508 418.429 159.051C453.28 218.452 476.233 292.152 489.952 347.54C494.772 347.377 499.693 346.887 504.445 346.104C511.085 345.092 517.725 343.525 524.197 341.502C528.848 340.066 533.331 338.336 537.746 336.41C527.567 294.731 509.602 231.709 482.706 171.884C490.121 169.045 498.244 165.716 506.703 161.864C505.658 159.939 504.715 158.111 503.67 156.185C503.67 156.087 503.569 156.022 503.569 155.924C502.793 154.325 502.524 152.66 502.625 150.898V150.8C502.625 150.049 502.793 149.364 502.962 148.613C503.063 148.352 503.063 148.189 503.13 147.961C502.861 148.058 502.692 148.124 502.456 148.287C493.221 152.465 484.694 156.055 476.739 159.058C466.897 138.43 456.044 118.358 443.944 99.9176C438.686 91.8886 433.158 84.8712 427.36 78.8662C422.844 63.6569 414.216 53.7023 407.407 47.9579C391.869 34.8375 369.859 30.0072 355.029 36.5019C346.232 40.3532 341.21 47.6964 341.21 56.64C341.21 57.7171 341.311 58.8268 341.378 59.7406C341.378 60.3281 341.547 60.8177 341.715 61.3399C345.928 73.3834 354.321 73.4486 358.804 73.3834C364.669 73.2202 368.713 75.0479 371.579 78.7361C376.061 84.5131 381.319 100.865 367.096 145.677C363.22 158.047 358.467 170.482 353.108 182.852L346.03 178.413C345.929 178.413 345.861 178.315 345.76 178.25C336.525 172.897 327.02 166.891 316.943 159.777C316.774 159.614 316.505 159.516 316.336 159.353C316.437 159.614 316.437 159.842 316.437 160.103C316.538 160.952 316.437 161.703 316.336 162.453C316.066 164.118 315.392 165.717 314.448 167.055C314.347 167.153 314.347 167.218 314.28 167.316C312.999 168.981 311.685 170.645 310.303 172.343C320.044 179.099 329.279 185.039 338.446 190.228L347.345 195.832Z" fill="black"/>
</svg>
