<svg width="439" height="441" viewBox="0 0 439 441" fill="none" xmlns="http://www.w3.org/2000/svg">
<path d="M357.302 267.128C348.71 261.412 338.346 260.455 328.881 264.602L261.675 293.875C267.359 301.505 270.823 310.544 271.748 320.009L306.197 320.887C310.401 321.019 313.653 324.502 313.573 328.65C313.441 332.797 310.11 336.067 306.064 336.067H305.853L271.14 335.19C270.796 336.812 270.452 338.46 269.976 340.028C267.808 347.313 264.16 353.721 259.348 359.144L327.72 390.464C337.185 394.745 347.628 394 356.274 388.364C364.945 382.781 370.207 373.182 370.286 362.628L370.894 293.075C370.973 282.653 365.894 272.924 357.302 267.128Z" fill="black"/>
<path d="M246.15 370.037C242.237 372.35 238.033 374.185 233.618 375.408C241.47 416.777 258.39 439.668 271.847 440.944C276.315 441.343 280.915 439.509 283.956 438.365C302.172 431.027 311.425 413.108 315.629 401.888L246.15 370.037Z" fill="black"/>
<path d="M180.064 358.134C174.168 350.849 170.387 341.996 169.039 332.69L133.031 331.813C128.827 331.68 125.575 328.197 125.655 324.05C125.787 319.823 129.118 316.366 133.374 316.632L168.907 317.51C169.251 315.064 169.78 312.671 170.467 310.305C172.291 304.19 175.279 298.527 179.059 293.555L111.351 262.635C101.939 258.354 91.5746 259.019 82.9296 264.602C74.2047 270.185 68.9174 279.836 68.7855 290.338L68.1774 359.891C68.0981 370.446 73.2535 380.177 81.8457 385.945C90.4379 391.662 100.802 392.619 110.267 388.471L180.064 358.134Z" fill="black"/>
<path d="M196.693 296.803C191.141 301.429 187.07 307.624 185.06 314.643C184.056 318.126 183.5 321.662 183.58 325.251C183.58 336.63 188.92 347.584 197.988 354.523C201.505 357.235 205.444 359.282 209.754 360.585C220.725 363.855 232.279 361.941 241.427 355.215C248.274 350.456 253.06 343.703 255.439 335.673C256.258 332.882 256.734 330.037 256.866 327.033C257.554 315.6 252.663 304.381 243.938 296.883C240.157 293.613 235.689 291.167 230.745 289.678C218.901 286.275 206.184 288.854 196.693 296.803Z" fill="black"/>
<path d="M205.445 375.15C200.897 373.794 196.72 371.614 192.728 369.088L123.618 399.184C127.266 410.005 136.467 430.211 156.163 438.188C159.151 439.411 163.751 441.245 168.272 440.766C181.73 439.464 198.65 416.599 206.502 375.283C206.185 375.283 205.762 375.283 205.445 375.15Z" fill="black"/>
<path d="M326.507 0.20127C267.153 -3.33477 229.533 40.8263 225.384 45.8772C223.956 47.6585 221.788 48.6688 219.567 48.6688C217.346 48.6688 215.231 47.6585 213.751 45.957C206.903 37.7153 169.969 -3.12209 112.573 0.22726C69.4527 2.80621 29.6632 29.7649 11.2606 68.9021C-5.13127 103.758 -0.0551451 137.706 4.4132 154.858C13.402 190.67 35.8216 213.322 49.1468 226.854C57.8716 235.708 66.4111 244.082 74.6066 252.032C74.6859 251.952 74.8181 251.899 74.871 251.819C87.7197 243.578 103.768 242.434 117.648 248.815L190.934 282.235C203.782 273.381 219.91 270.67 235.059 275.216C240.479 276.838 245.476 279.311 249.943 282.421L322.911 250.703C336.104 244.907 351.068 245.944 363.388 253.149C372.589 244.242 381.525 235.389 389.985 226.801C403.31 213.269 425.65 190.59 434.666 154.859C442.254 124.923 439.821 94.348 427.818 68.8219C409.417 29.7392 369.709 2.78015 326.507 0.20127ZM125.628 51.6468C120.551 51.5139 93.7433 51.5671 73.4388 72.8898C53.8747 93.4412 54.0859 118.486 54.6151 125.718C54.9588 129.865 51.7598 133.534 47.6358 133.88H47.107C43.1942 133.88 39.8631 130.822 39.5984 126.861C38.911 118.087 38.6467 87.5129 62.5466 62.4681C86.6318 37.0774 117.3 36.2001 126.157 36.5459C130.36 36.6788 133.612 40.2148 133.401 44.4424C133.295 48.5103 129.619 51.913 125.628 51.6468Z" fill="black"/>
</svg>
