<svg width="534" height="516" viewBox="0 0 534 516" fill="none" xmlns="http://www.w3.org/2000/svg">
<path d="M380.071 173.64C390.323 164.184 396.899 150.661 396.899 135.51V132.968C396.899 104.473 374.094 81.2896 346.064 81.2896H342.314C310.658 81.2896 282.903 98.3718 267.298 123.893C251.695 98.3718 223.94 81.2896 192.283 81.2896H188.532C160.502 81.2896 137.697 104.473 137.697 132.968V135.51C137.697 150.66 144.248 164.183 154.526 173.64H73.9602C59.2573 173.64 47.2801 185.791 47.2801 200.763V239.325C47.2801 253.993 58.8073 265.889 73.1351 266.347H202.337V176.185H229.017V266.347H305.703V176.185H332.383V266.347H461.585C475.912 265.889 487.44 253.993 487.44 239.325V200.763C487.44 185.816 475.487 173.64 460.76 173.64H380.071ZM188.509 160.092C175.181 160.092 164.354 149.059 164.354 135.536V132.994C164.354 119.446 175.206 108.439 188.509 108.439H192.259C222.565 108.439 247.845 130.783 252.996 160.117H188.51L188.509 160.092ZM370.219 135.536C370.219 149.085 359.367 160.092 346.065 160.092H281.579C286.705 130.757 312.01 108.413 342.316 108.413H346.066C359.394 108.413 370.221 119.445 370.221 132.968L370.219 135.536Z" fill="black"/>
<path d="M241.843 293.476H292.678V515.999H241.843V293.476Z" fill="black"/>
<path d="M66.9373 135.539C63.9117 135.539 61.2863 133.48 60.4862 130.557C50.0344 92.0705 42.7581 84.6735 4.90087 74.048C2.00037 73.2346 0 70.5401 0 67.4898C0 64.4139 2.02539 61.7449 4.90087 60.9315C42.7581 50.3061 50.0344 42.909 60.4862 4.42306C62.1115 -1.47435 71.7882 -1.47435 73.3884 4.42306C83.8403 42.909 91.1165 50.3061 128.974 60.9315C131.874 61.745 133.875 64.4395 133.875 67.4898C133.875 70.5656 131.849 73.2347 128.974 74.048C91.1165 84.6735 83.8403 92.0705 73.3884 130.557C72.5883 133.505 69.9378 135.539 66.9373 135.539Z" fill="black"/>
<path d="M480.665 149.087C477.665 149.087 475.039 147.054 474.239 144.105C466.263 114.694 461.136 109.509 432.231 101.4C429.331 100.586 427.33 97.9171 427.33 94.8668C427.33 91.8165 429.331 89.1473 432.231 88.3339C461.161 80.2249 466.263 75.0137 474.239 45.6285C475.839 39.7565 485.491 39.7565 487.091 45.6285C495.068 75.0391 500.194 80.2249 529.099 88.3339C532 89.1474 534 91.8165 534 94.8668C534 97.9171 532 100.586 529.099 101.4C500.169 109.509 495.068 114.72 487.091 144.105C486.291 147.054 483.666 149.087 480.665 149.087Z" fill="black"/>
<path d="M73.0889 293.476V372.509C79.265 376.805 83.9408 383.109 86.041 390.837C89.4166 403.293 97.2182 411.224 109.471 414.656C123.898 418.697 133.925 432.144 133.925 447.32C133.925 462.495 123.873 475.917 109.471 479.984C91.4424 485.043 91.0922 485.246 86.2913 502.837C94.3427 510.946 105.42 515.979 117.622 515.979H215.163V293.455H73.0633L73.0889 293.476Z" fill="black"/>
<path d="M53.9109 501.533C50.9104 501.533 48.2849 499.5 47.4848 496.551C39.5082 467.14 34.3822 461.954 5.45202 453.82C2.55152 453.007 0.551143 450.338 0.551143 447.287C0.551143 444.237 2.55152 441.568 5.45202 440.754C34.3822 432.645 39.4833 427.434 47.4848 398.024C49.0851 392.152 58.7368 392.152 60.3371 398.024C68.3136 427.434 73.4397 432.62 102.37 440.754C105.27 441.568 107.271 444.237 107.271 447.287C107.271 450.338 105.27 453.007 102.37 453.82C73.4397 461.929 68.3386 467.14 60.3371 496.551C59.5369 499.5 56.9114 501.533 53.9109 501.533Z" fill="black"/>
<path d="M453.985 492.488C439.257 492.488 426.255 482.421 422.329 467.983C411.702 428.913 409.827 426.981 371.37 416.203C357.218 412.238 347.291 398.994 347.291 384.022C347.291 369.049 357.168 355.856 371.345 351.865C409.827 341.062 411.728 339.13 422.355 300.06C423.005 297.721 423.955 295.535 425.03 293.476H319.385V516H416.927C433.755 516 448.232 506.366 455.809 492.36C455.183 492.41 454.583 492.512 453.983 492.512L453.985 492.488Z" fill="black"/>
<path d="M453.985 465.384C451.21 465.384 448.809 463.503 448.059 460.809C434.981 412.638 425.88 403.385 378.497 390.092C375.822 389.354 373.996 386.889 373.996 384.067C373.996 381.245 375.847 378.805 378.497 378.043C425.881 364.748 434.983 355.495 448.059 307.326C449.534 301.911 458.436 301.911 459.936 307.326C473.014 355.496 482.115 364.749 529.498 378.043C532.174 378.78 533.999 381.245 533.999 384.067C533.999 386.889 532.149 389.329 529.498 390.092C482.115 403.386 473.013 412.639 459.936 460.809C459.211 463.528 456.786 465.384 454.01 465.384H453.985Z" fill="black"/>
</svg>
