<svg width="823" height="786" viewBox="0 0 823 786" fill="none" xmlns="http://www.w3.org/2000/svg">
<path fill-rule="evenodd" clip-rule="evenodd" d="M823 421.544C787.231 501.938 718.438 588.086 608.168 629.887C450.025 689.802 305.442 650.945 251.75 634.928C139.677 601.468 50.8662 535.975 5.12885 463.43C3.61142 461.021 2.13006 458.611 0.721039 456.202C0.937813 494.079 1.11846 528.431 1.11846 528.52C5.81531 564.567 24.4579 600.616 53.1453 633.942C99.4996 687.746 171.831 733.787 258.866 759.756C310.135 775.058 448.226 812.534 599.173 755.295C754.708 696.316 821.302 542.487 822.921 460.712C822.812 465.798 822.957 471.509 822.957 461.159V421.587L823 421.544ZM823 296.541C823 377.38 756.629 534.235 599.215 593.933C448.268 651.172 310.177 613.697 258.909 598.395C154.781 567.299 71.6862 507.74 29.1953 440.373C3.39832 399.508 -7.00705 356.054 4.91612 315.37C13.0814 287.531 30.604 264.287 54.5946 245.683C93.4339 215.525 148.752 197.769 211.794 194.022C232.894 192.906 251.573 179.834 261.147 160.74C310.934 64.8212 410.836 0 525.508 0C688.923 0 823 131.742 823 296.593V296.541ZM324.625 162.344L528.718 540.403C533.378 549.058 542.844 551.378 549.854 545.623C556.863 539.823 558.742 528.179 554.081 519.523L349.988 141.464C345.327 132.809 335.862 130.489 328.852 136.245C321.843 142 319.964 153.688 324.625 162.344ZM207.095 276.908L343.16 528.925C347.821 537.58 357.286 539.9 364.296 534.144C371.305 528.345 373.184 516.701 368.523 508.045L232.458 256.029C227.761 247.374 218.332 245.054 211.286 250.764C204.277 256.564 202.398 268.208 207.059 276.908L207.095 276.908ZM74.1373 345.613L166.879 517.465C171.576 526.12 181.005 528.44 188.052 522.685C195.061 516.885 196.939 505.241 192.279 496.585L99.4998 324.733C94.839 316.078 85.3735 313.758 78.3635 319.513C71.3543 325.313 69.4765 336.957 74.1373 345.613ZM448.657 82.8375L658.567 471.644C663.228 480.299 672.694 482.619 679.704 476.863C686.713 471.108 688.592 459.42 683.931 450.764L474.02 62.0036C469.359 53.3487 459.894 51.0287 452.884 56.7392C445.875 62.5389 443.996 74.1815 448.657 82.8375ZM602.896 82.8375L751.356 357.742C756.016 366.397 765.482 368.717 772.492 363.006C779.501 357.206 781.38 345.563 776.719 336.862L628.297 61.9581C623.6 53.3031 614.171 50.9831 607.161 56.6937C600.151 62.4934 598.273 74.137 602.897 82.793L602.896 82.8375Z" fill="black"/>
</svg>
