<svg width="828" height="731" viewBox="0 0 828 731" fill="none" xmlns="http://www.w3.org/2000/svg">
<path d="M49.3666 483.621C40.7316 477.712 35.452 471.341 33.2771 464.235C33.0569 463.511 32.8868 462.769 32.7727 462.018C29.9351 443.385 37.8561 427.387 45.3226 416.963C37.489 408.635 28.6279 397.185 26.2799 386.082C23.8505 374.598 26.5641 354.632 29.0734 340.703C21.5852 337.319 12.8376 332.903 7.75198 328.753C2.31942 324.318 -0.480057 317.7 0.0676022 310.593C1.19276 296.077 16.8257 282.232 23.7863 278.147L53.2659 260.835C49.8299 252.461 47.9392 242.082 50.632 230.979C53.6822 218.41 61.0241 210.23 68.4735 205.275C66.45 188.862 63.6885 161.16 66.0582 147.346C70.4112 121.952 80.7391 115.015 103.761 108.223C122.254 102.766 395.194 16.7508 402.919 14.3159C406.295 13.1805 446.13 0 473.477 0C500.957 0 554.173 17.6508 560.15 19.6631C560.881 19.9089 561.593 20.2081 562.279 20.5579L761.617 122.118C769.981 125.273 799.684 138.274 796.67 162.832C795.797 169.966 793.581 188.187 792.089 200.475C801.818 205.3 813.906 214.078 818.099 228.948C821.852 242.261 818.33 254.227 813.988 262.739C820.755 270.678 828 282.783 828 298.215C828 301.322 827.082 307.312 820.949 312.541C819.061 314.152 816.733 315.657 813.831 317.14C812.749 317.694 811.578 318.251 810.309 318.815C816.248 324.624 817.517 328.215 818.114 329.904C820.3 336.091 821.591 348.218 806.638 361.238C811.07 368.856 814.532 378.622 812.473 388.983C810.421 399.294 805.392 406.137 800.02 410.438C799.483 417.851 798.267 428.481 795.506 437.839C794.29 441.963 792.85 445.521 791.358 448.552C798.595 451.289 803.005 458.783 801.684 466.529L787.806 547.978C786.933 553.072 783.695 557.454 779.076 559.793L518.542 691.724L518.43 691.776C518.43 691.776 452.637 724.286 427.03 730.293C422.412 731.37 415.419 731.325 406.746 729.402C397.741 727.404 386.049 723.432 373.176 718.278C330.876 701.348 274.768 671.571 263.974 665.786C263.639 665.601 263.329 665.422 263.044 665.229C262.732 665.096 262.424 664.947 262.12 664.784H262.116C261.305 664.346 141.98 599.809 89.6091 568.087C73.8202 558.523 63.5475 550.8 61.4039 548.03C57.5762 543.092 54.3313 534.649 52.4556 524.957C49.1465 507.856 49.1159 486.474 49.1159 486.469C49.1159 485.504 49.2009 484.552 49.3666 483.621ZM405.451 629.557C398.132 624.106 390.739 616.747 383.788 609.173C375.274 599.906 367.415 590.349 361.154 584.097C360.806 583.755 360.465 583.421 360.128 583.094L360.105 583.072C358.656 581.676 357.319 580.495 356.1 579.619C355.483 579.181 354.524 578.691 354.339 578.594C351.647 578.416 349.164 578.082 346.871 577.607C345.328 577.362 343.768 577.132 342.223 576.961C338.777 576.567 335.382 576.278 332.778 577.963C331.094 579.062 329.96 580.941 329.249 583.822C332.46 585.753 334.98 588.768 336.261 592.443L336.655 593.579C345.912 599.735 368.344 614.126 389.374 623.438C395.029 625.94 400.508 628.183 405.451 629.557ZM450.665 618.864C453.764 616.48 456.364 613.777 458.293 610.918C462.66 604.443 463.182 597.025 456.537 591.456C445.627 582.315 429.149 579.56 413.398 579.226L375.544 583.377C380.508 588.894 386.072 595.391 391.929 601.77C400.105 610.673 408.854 619.369 417.361 624.307C421.079 626.468 424.686 627.938 428.136 628.005C434.183 625.948 441.243 623 448.896 619.643C449.482 619.391 450.071 619.131 450.665 618.864ZM655.054 517.983C651.12 515.151 646.983 512.185 642.506 510.045C637.75 507.771 632.575 506.463 626.757 507.835C625.01 508.247 623.849 508.634 623.247 509.447C622.706 510.179 622.739 511.107 622.703 512.082C622.637 513.887 622.767 515.837 622.729 517.854C622.644 522.358 621.819 527.066 618.294 531.56C615.145 535.578 609.603 539.595 599.42 542.714C584.97 547.132 577.169 543.575 569.573 538.793C563.921 535.236 558.502 530.573 548.491 530.068C546.351 530.32 544.246 530.536 542.183 530.736C536.077 532.511 532.031 537.412 527.247 542.461C519.265 550.897 509.988 560.149 492.572 563.535C473.945 567.159 465.84 559.399 457.77 551.016C451.881 544.904 446.074 538.236 432.335 539.736C417.379 541.377 407.171 551.134 396.822 559.963C392.569 563.595 388.296 567.085 383.795 570.047C392.426 568.911 402.896 568.02 413.636 568.251C431.956 568.644 450.95 572.424 463.642 583.065C472.644 590.609 474.457 600.047 471.378 609.195C505.604 592.532 542.281 571.889 556.532 565.369C572.428 558.1 614.632 537.917 655.054 517.983ZM318.495 581.624C319.774 576.367 321.967 572.862 324.533 570.493C325.698 569.424 326.962 568.555 328.307 567.879C324.085 563.58 321.286 558.471 319.015 553.429C317.493 550.058 316.242 546.731 314.897 543.805C313.88 541.592 312.884 539.632 311.453 538.303C308.507 535.563 306.207 536.387 302.848 537.271C296.984 538.823 289.162 541.177 276.202 539.743C267.412 538.771 262.325 536.335 259.121 533.513C255.573 530.395 254.066 526.659 253.07 522.794C252.696 521.343 252.402 519.882 251.981 518.482C251.61 517.247 251.178 516.036 250.103 515.098C249.29 514.388 248.338 514.937 247.27 515.32C245.382 515.995 243.363 517.08 241.207 518.2C234.081 521.9 225.802 525.615 216.819 523.252C206.896 520.642 203.144 513.77 201.156 505.869C199.803 500.49 199.731 494.497 197.061 490.548C196.521 489.75 195.552 489.67 194.466 489.55C192.844 489.369 190.98 489.449 188.916 489.606C179.171 490.345 165.883 492.687 151.753 488.028C140.388 484.281 136.147 475.212 135.436 465.474C135.038 460.004 135.838 454.35 136.869 449.707C134.596 449.413 132.322 449.099 130.053 448.764C94.9984 443.582 67.0193 429.629 58.7454 425.168C52.8152 433.141 46.2075 445.588 48.3519 459.669C49.6994 464.076 54.3873 468.15 59.2632 471.35L65.5382 468.316C67.1155 467.554 68.8055 467.049 70.5447 466.819C70.5447 466.819 70.5499 466.818 70.5529 466.818C70.5529 466.818 88.4742 464.492 102.61 465.431C111.653 466.031 119.433 468.39 123.852 471.468C127.793 474.214 131.192 478.629 133.196 484.971C134.5 489.098 135.268 494.629 136.109 500.624C136.661 504.554 137.255 508.792 138.628 512.655C139.526 515.183 140.71 517.723 143.793 518.598C161.114 523.52 187.944 526.705 205.825 531.501C217.067 534.516 225.518 538.778 229.807 543.04C235.697 548.884 246.393 564.293 258.616 576.649C264.226 582.315 269.834 587.728 275.718 588.946C283.55 590.572 292.345 592.354 299.971 591.998C301.347 591.938 302.677 591.812 303.91 591.545C304.733 591.367 305.651 591.418 306.022 590.661C308.438 585.708 313.155 582.374 318.495 581.624ZM409.402 516.18C395.386 516.705 336.606 517.898 285.108 503.812C235.712 490.304 219.163 463.879 214.52 453.848C201.879 454.006 175.744 453.87 147.836 450.982C146.888 454.907 146.087 459.879 146.436 464.68C146.835 470.149 148.839 475.504 155.222 477.608C170.088 482.511 183.935 478.368 192.864 478.477C199.001 478.553 203.461 480.352 206.21 484.419C208.97 488.499 210.002 494.146 211.117 499.824C212.17 505.186 213.046 510.907 219.637 512.64C222.994 513.523 226.161 512.832 229.125 511.732C232.955 510.31 236.497 508.192 239.728 506.626C246.57 503.309 252.524 502.608 257.377 506.847C260.689 509.739 262.099 513.363 263.071 517.265C263.691 519.758 263.906 522.467 265.778 524.642C267.644 526.809 271.089 528.135 277.417 528.835C290.923 530.32 297.986 526.928 303.415 525.854C309.002 524.749 313.461 525.154 318.977 530.276C323.207 534.204 325.677 541.399 329.077 548.936C332.599 556.748 337.773 564.894 350.844 567.151C352.369 567.367 353.857 567.56 355.278 567.656L355.31 567.664C369.737 568.547 379.59 560.209 389.645 551.632C399.018 543.634 408.508 535.355 420.484 531.226C417.19 527.144 413.231 521.676 409.402 516.18ZM460.637 525.559C457.419 527.297 454.408 528.917 451.657 530.38C451.15 530.654 450.653 530.914 450.163 531.174C456.658 534.018 461.222 538.741 465.733 543.427C471.5 549.412 477.146 555.352 490.457 552.768C506.999 549.553 514.648 539.721 522.03 531.991C488.606 532.934 467.506 527.631 460.637 525.559ZM611.998 508.805C599.864 515.464 585.596 521.804 569.951 525.975C570.521 526.327 571.082 526.684 571.636 527.041C578.297 531.338 583.79 536.008 596.177 532.221C604.497 529.674 608.643 526.851 610.455 523.51C612.221 520.256 611.699 516.835 611.663 513.827C611.642 512.062 611.727 510.383 611.998 508.805ZM681.029 505.074C680.998 503.391 680.963 501.663 680.988 499.932C681.071 494.157 681.833 488.405 684.392 483.569C668.213 483.799 656.238 482.404 651.108 481.664C647.982 484.416 641.418 489.931 632.193 496.311C642.36 496.554 651.182 501.775 659.158 507.412C661.604 509.14 663.958 510.89 666.254 512.442C671.268 509.953 676.213 507.489 681.029 505.074ZM734.45 477.234C728.28 478.925 721.744 480.335 714.961 481.266C711.314 481.768 707.755 482.174 704.301 482.498C693.415 484.51 691.985 492.009 691.941 499.579C709.734 490.574 724.997 482.616 734.45 477.234ZM643.848 426.69L620.31 438.63L584.338 457.288C582.688 458.209 554.528 473.926 523.032 491.345C534.415 491.097 551.256 489.331 573.476 483.355C612.922 472.746 638.059 447.534 643.848 441.253V426.69ZM237.106 425.313C244.79 433.864 257.028 445.614 272.365 453.99C290.359 463.816 307.865 467.936 320.989 469.587L265.853 439.556L237.106 425.313ZM737.069 325.366C733.354 326.255 731.167 326.752 731.16 326.754L731.13 326.761C731.13 326.761 681.433 337.435 651.027 347.025C629.196 353.909 589.96 365.164 573.893 368.717C562.78 371.175 503.401 396.671 462.11 411.634C443.424 418.405 428.19 422.934 422.048 422.859C407.823 422.687 398.983 414.05 393.813 405.278C392.087 402.348 390.786 399.423 389.826 396.87C382.912 401.336 371.448 407.183 359.18 406.873C350.004 406.64 345.073 401.961 340.742 396.11C336.613 390.53 333.431 383.189 322.057 383.189C315.113 383.189 309.512 388.051 303.217 392.207C294.906 397.694 285.834 402.48 273.961 400.792C267.284 399.844 263.229 394.426 259.816 387.176C256.717 380.592 254.124 371.898 244.206 370.157C239.154 369.269 233.698 370.99 228.168 373.39C221.68 376.207 215.159 380.08 209.084 383.225C208.516 383.518 207.952 383.806 207.391 384.086C207.053 387.827 206.766 394.64 208.306 400.402C209.309 404.15 211.036 407.675 215.413 407.535C231.847 407.006 244.047 397.142 244.047 397.142C245.415 396.032 247.235 395.641 248.942 396.091C250.648 396.541 252.035 397.776 252.673 399.415C252.673 399.415 255.537 406.759 260.911 412.978C264.031 416.59 268.003 419.964 272.982 420.514C281.701 421.478 289.206 417.575 295.6 415.532C302.002 413.485 307.623 413.07 312.472 415.965C314.244 417.023 316.315 419.073 318.488 421.958C322.306 427.027 326.969 435.104 332.575 442.749C336.242 447.75 340.317 452.58 344.901 456.027C348.784 458.947 353.019 460.868 357.736 460.525C369.023 459.703 381.052 451.372 392.88 443.125C406.34 433.74 419.548 424.373 430.827 422.501C442.18 420.618 456.818 424.564 470.943 428.91C483.315 432.718 495.216 436.934 503.504 435.834C507.882 435.253 511.688 433.05 515.226 430.401C519.405 427.269 523.203 423.483 526.886 420.222C533.166 414.664 539.417 410.778 545.883 411.069C550.979 411.298 556.842 414.994 563.02 419.426C566.569 421.973 570.318 424.701 574.3 426.389C577.415 427.71 580.682 428.377 584.113 427.238C587.892 425.985 590.714 423.317 593.195 420.292C596.243 416.578 598.767 412.296 601.366 408.523C605.913 401.926 610.964 396.942 617.58 395.967C621.143 395.443 625.179 396.37 629.468 398.471C634.348 400.862 639.765 404.833 645.386 408.535C647.457 409.899 649.556 411.229 651.671 412.388C651.858 412.474 652.043 412.571 652.222 412.68L652.298 412.726C654.148 413.708 656.008 414.548 657.869 415.157C660.326 415.959 662.776 416.348 665.169 415.875L670.446 413.199C672.724 411.205 674.237 408.46 675.443 405.462C677.54 400.248 678.654 394.243 679.933 388.752C681.137 383.584 682.512 378.821 684.566 375.19C686.346 372.043 688.639 369.64 691.538 368.129C698.436 364.532 707.267 364.155 715.312 363.83C718.603 363.697 721.721 363.558 724.385 362.992C726.004 362.648 727.437 362.259 728.332 361.208C733.764 354.819 741.882 339.688 737.069 325.366ZM767.772 369.485L687.088 405.396C684.319 413.886 680.059 421.397 672.178 425.057C666.57 427.661 660.739 427.556 654.876 425.727V438.214C663.961 438.671 685.248 439.058 716.14 435.435C771.137 428.984 778.509 403.429 779.166 400.537C779.114 398.462 778.718 389.846 775.845 381.624C774.197 376.911 771.794 372.201 767.772 369.485ZM50.3724 350.139C57.0898 362.669 73.3173 384.003 108.838 393.902C142.377 403.247 177.886 407.889 200.42 410.084C199.224 408.035 198.313 405.711 197.649 403.224C196.363 398.416 196.086 393.013 196.16 388.596C195.347 388.81 194.55 388.986 193.772 389.119C189.803 389.8 186.201 389.45 183.048 387.948C181.922 387.413 180.9 386.778 179.97 386.051C175.155 386.312 163.453 386.98 152.153 387.88C145.106 388.441 140.329 383.978 137.907 376.132C137.729 375.555 137.564 374.956 137.411 374.339L50.3724 350.139ZM786.485 360.306L778.427 364.321C781.949 368.152 784.501 372.99 786.262 378.014C789.03 385.942 789.858 394.18 790.104 398.295C792.783 396.171 795.722 392.436 797.013 385.941C798.998 375.96 790.798 365.159 786.485 360.306ZM82.2351 215.705C77.4248 217.621 68.8637 222.636 65.9478 234.658C62.6455 248.268 69.6889 259.586 73.1703 264.144C75.1222 263.293 77.086 262.658 78.9946 262.254C92.3093 259.433 104.804 262.035 118.348 275.515C124.248 281.387 125.289 288.472 125.09 296.247C124.882 304.371 122.734 313.513 129.86 321.723C133.153 325.517 137.621 326.903 142.289 327.738C148.364 328.825 154.811 328.969 160.54 330.194C165.234 331.197 169.496 332.886 173.009 335.828C176.026 338.357 178.054 341.776 179.369 345.79C180.951 350.619 181.466 356.409 182.04 362.066C182.438 365.993 182.852 369.847 183.98 373.073C184.731 375.222 185.772 377.079 187.806 378.046C190.033 379.107 192.736 378.324 195.793 377.222C200.23 375.622 205.122 372.923 210.218 370.159C222.08 363.729 234.998 357.394 246.122 359.347C258.298 361.485 263.815 369.901 267.862 378.367C269.415 381.614 270.708 384.824 272.359 387.309C273.208 388.586 274.052 389.718 275.521 389.927C286.403 391.474 293.947 385.152 301.397 380.2C308.017 375.8 314.59 372.213 322.057 372.213C336.041 372.213 342.062 379.072 347.171 386.183C350.389 390.663 352.685 395.729 359.46 395.9C371.352 396.201 382.243 389.13 386.875 385.638L386.715 384.777L132.194 258.205C132.194 258.205 92.2772 242.294 82.2351 215.705ZM102.997 124.873C88.3235 129.673 84.3332 133.971 81.5897 149.982C80.8211 154.464 80.7473 161.142 81.0517 168.528C88.3481 178.907 100.675 184.324 113.117 192.279C125.317 198.538 382.938 330.74 382.938 330.74C382.938 330.74 401.272 344.28 423.75 344.28C446.227 344.28 465.152 331.329 465.152 331.329L732.503 194.761C732.503 194.761 764.266 179.002 780.583 164.641L781.031 160.933C782.128 152.002 772.204 144.842 764.355 140.636C764.519 143.602 764.213 146.607 763.214 149.427C761.535 154.158 757.222 159.233 752.454 163.473C746.03 169.194 739.009 173.471 739.009 173.471L738.838 173.58L471.564 310.107C468.81 311.905 449.724 323.798 427.378 323.798C405.153 323.798 386.674 311.553 383.7 309.476L119.037 173.659L119.016 173.649C119.016 173.649 109.987 168.909 103.615 161.574C98.8058 156.037 95.6393 149.123 97.1435 141.711C97.2091 135.473 99.4229 129.846 102.997 124.873ZM800.393 331.064L800.438 331.117C800.96 331.698 801.445 332.257 801.893 332.791C801.468 332.237 800.96 331.659 800.393 331.064ZM65.3002 297.113C65.4479 297.65 65.6195 298.192 65.8158 298.741C68.1079 305.126 72.4451 307.247 77.3808 307.832C81.6591 308.34 86.2895 307.911 90.723 307.664C95.1655 307.417 99.4415 307.341 103.172 308.054C107.786 308.936 111.675 310.943 114.528 314.694C113.579 309.972 113.652 305.227 113.869 300.605C114.01 297.608 114.201 294.686 114.007 291.907C113.787 288.743 113.059 285.774 110.548 283.276C100.434 273.208 91.2341 270.883 81.2912 272.989C74.0523 274.524 65.4121 281.098 64.6525 290.692L65.3002 297.113ZM779.181 212.009C776.435 220.034 771.145 227.285 765.109 233.487L798.095 258.881C801.729 252.966 805.81 243.404 802.93 233.187C799.468 220.907 786.097 214.54 779.181 212.009Z" fill="black"/>
</svg>
