<svg width="826" height="832" viewBox="0 0 826 832" fill="none" xmlns="http://www.w3.org/2000/svg">
<path d="M825.877 380.229C803.946 166.93 628.499 0 414.35 0C191.17 0 10.5623 180.178 0.241876 406.726C-1.04815 419.975 2.82202 433.223 11.8524 443.822C17.0126 449.121 23.4629 453.096 31.2032 454.42C103.446 458.395 76.3551 304.713 157.629 304.713C228.582 304.713 206.651 427.923 275.024 427.923C329.206 427.923 324.046 344.459 370.488 344.459C438.861 344.459 420.8 556.433 529.165 556.433C637.529 556.433 634.949 321.936 702.032 321.936C739.444 321.936 742.024 378.904 769.115 413.35C789.756 437.197 828.457 429.248 825.877 380.229ZM170.529 141.758L164.079 147.057C162.789 148.382 158.919 149.707 157.629 149.707C155.049 149.707 152.468 148.382 149.888 145.732C146.018 141.758 146.018 135.134 149.888 131.159L156.339 125.86C160.209 121.885 166.659 121.885 170.529 127.185C174.399 132.484 174.399 137.783 170.529 141.758ZM304.695 62.2675C265.993 75.5159 228.582 94.0636 195.04 119.236C193.75 120.56 191.17 120.56 188.59 120.56C186.01 120.56 182.14 119.236 180.849 116.586C176.979 111.287 178.269 104.662 183.43 102.013C218.261 75.5159 258.253 55.6433 299.534 42.3949C304.695 39.7452 311.145 43.7197 312.435 49.019C313.725 55.6433 311.145 60.9426 304.695 62.2675ZM156.339 466.344H107.316C103.446 466.344 100.866 468.994 100.866 470.318C98.2861 472.968 98.2861 475.618 98.2861 478.268C104.736 519.338 118.927 559.083 139.568 594.853C140.858 597.503 144.728 598.828 147.308 598.828H156.339C161.499 598.828 165.369 594.853 165.369 589.554V475.618C166.659 470.318 161.499 466.344 156.339 466.344ZM370.488 363.006C362.747 363.006 357.587 368.306 348.557 385.529H365.327C370.488 385.529 374.358 381.554 374.358 376.255V364.331C373.068 364.331 371.778 363.006 370.488 363.006ZM365.327 466.344H254.383C249.223 466.344 245.352 470.318 245.352 475.618V589.554C245.352 594.854 249.223 598.828 254.383 598.828H365.327C370.488 598.828 374.358 594.854 374.358 589.554V475.618C374.358 470.318 370.488 466.344 365.327 466.344ZM529.165 574.981C495.623 574.981 471.112 559.083 453.051 536.561V589.554C453.051 594.854 456.921 598.828 462.082 598.828H573.026C578.187 598.828 582.057 594.854 582.057 589.554V556.433C567.866 568.357 549.805 574.981 529.165 574.981ZM726.543 374.93C716.223 351.083 709.772 340.484 702.032 340.484C691.711 340.484 681.391 361.682 672.361 385.529H721.383C725.253 385.529 727.833 382.879 729.123 381.554C729.123 381.554 727.833 377.58 726.543 374.93ZM727.833 470.318C726.543 468.994 723.963 466.344 720.093 466.344H671.071C665.91 466.344 662.04 470.318 662.04 475.618V589.554C662.04 594.854 665.91 598.828 671.071 598.828H680.101C683.971 598.828 686.551 597.503 687.841 594.854C708.482 559.083 722.673 519.338 729.123 478.268C730.413 475.618 729.123 471.643 727.833 470.318ZM573.026 680.968H462.082C456.921 680.968 453.051 684.943 453.051 690.242V741.911C453.051 745.885 455.631 748.535 455.631 749.86C458.211 751.185 460.792 752.51 463.372 752.51C503.363 745.885 542.065 731.312 576.897 710.115C579.477 708.79 580.767 704.815 580.767 702.166V691.567C582.057 684.943 578.187 680.968 573.026 680.968ZM365.327 680.968H254.383C249.223 680.968 245.352 684.943 245.352 690.242V699.516C245.352 703.49 246.642 706.14 249.223 707.465C284.054 729.987 322.756 743.236 362.747 749.86C365.327 749.86 369.198 749.86 370.488 747.21C371.778 745.885 374.358 743.236 374.358 739.261V687.592C374.358 684.943 370.488 680.968 365.327 680.968ZM796.206 446.471C779.435 446.471 763.955 438.522 752.344 423.949C745.894 417.325 742.024 409.376 738.153 401.427C732.993 405.401 726.543 406.726 721.383 406.726H671.07C668.49 406.726 665.91 406.726 663.33 405.401C660.75 410.701 659.46 417.325 656.88 422.624C642.689 461.044 627.209 506.089 602.697 537.885V590.879C602.697 608.102 589.797 621.35 573.026 621.35H462.082C445.311 621.35 432.41 608.102 432.41 590.879V502.115C422.09 480.917 415.64 458.395 409.189 438.522C404.029 421.299 397.579 404.076 392.419 390.828C387.259 401.427 376.938 408.051 365.328 408.051H336.946C326.626 423.949 313.725 441.172 291.794 446.471H365.327C382.098 446.471 394.999 459.72 394.999 476.943V590.879C394.999 608.102 380.808 621.35 365.327 621.35H254.383C237.612 621.35 224.712 608.102 224.712 590.879V476.943C224.712 459.72 237.612 446.471 254.383 446.471H258.253C223.421 437.197 209.231 401.427 198.91 374.93C195.04 364.331 191.17 355.057 187.3 347.108V376.255C187.3 393.478 173.109 406.726 157.629 406.726H107.316C106.026 406.726 104.736 406.726 103.446 406.726C91.8357 439.847 73.775 474.293 33.7833 474.293C32.4932 474.293 31.2031 474.293 29.9131 474.293C27.3329 474.293 23.4628 474.293 20.8827 472.968C42.8136 675.669 210.521 832 413.059 832C624.629 832 797.496 661.095 807.816 445.146C803.946 446.471 800.076 446.471 796.206 446.471ZM187.3 589.554C187.3 606.777 173.109 620.025 157.629 620.025H148.598C138.278 620.025 127.957 614.726 122.797 605.452C100.866 567.032 85.3855 524.637 78.9352 480.917C77.6451 471.643 80.2252 462.369 85.3855 455.745C90.5457 449.121 99.5761 445.146 108.606 445.146H157.629C174.399 445.146 187.3 458.395 187.3 475.618V589.554ZM394.999 740.586C394.999 749.86 391.129 757.809 384.678 764.433C379.518 769.733 371.778 772.382 364.037 772.382C362.747 772.382 361.457 772.382 358.877 772.382C315.015 765.758 275.024 749.86 237.612 727.338C228.582 722.038 223.421 711.439 223.421 700.841V691.567C223.421 674.344 236.322 661.096 253.093 661.096H364.037C380.808 661.096 393.709 674.344 393.709 691.567L394.999 740.586ZM602.698 699.516C602.698 710.115 597.537 720.713 588.507 726.013C551.095 748.535 509.814 764.433 467.242 771.057C465.952 771.057 463.372 771.057 462.082 771.057C454.341 771.057 447.891 768.408 441.441 763.108C434.991 757.809 431.12 748.535 431.12 739.261V687.592C431.12 670.369 444.021 657.121 460.792 657.121H571.736C588.507 657.121 601.408 670.369 601.408 687.592C602.698 690.242 602.698 699.516 602.698 699.516ZM749.764 480.917C743.314 524.637 727.833 567.032 705.902 605.452C700.742 614.726 690.421 620.025 680.101 620.025H671.071C654.3 620.025 641.399 606.777 641.399 589.554V475.618C641.399 458.395 655.59 445.147 671.071 445.147H721.383C730.413 445.147 738.154 449.121 744.604 455.745C748.474 463.694 751.054 472.968 749.764 480.917ZM157.629 324.586C134.408 324.586 124.087 344.459 109.896 385.529H156.338C161.499 385.529 165.369 381.554 165.369 376.255V325.911C164.079 324.586 160.209 324.586 157.629 324.586Z" fill="black"/>
</svg>
