<svg width="838" height="814" viewBox="0 0 838 814" fill="none" xmlns="http://www.w3.org/2000/svg">
<path d="M377.751 15.1376C339.339 28.7462 322.715 40.4213 226.105 86.6736C158.811 118.906 103.997 145.629 68.3504 163.06C68.0231 163.184 67.9139 163.307 67.9139 163.307C57.802 169.638 42.6337 180.986 29.0652 200.062C-1.74441 243.353 -0.798314 293.551 0.474635 311.519C4.14849 362.54 28.4469 397.691 42.9606 414.547C48.9625 421.537 52.2726 430.869 52.2726 440.613V667.022C52.2726 704.147 75.5889 735.845 107.78 742.546L441.662 812.684C445.772 813.507 449.992 814 454.102 814H454.211C465.597 814 476.581 810.793 486.293 804.832L493.35 799.816L748.918 620.158L762.74 610.373L764.486 608.934C778.273 595.408 786.057 576.949 786.057 557.173V350.993C786.057 347.704 787.366 344.579 789.512 342.4C830.58 300.465 838.036 266.507 838 244.265C837.636 110.2 563.11 -50.5132 377.671 15.1826L377.751 15.1376ZM479.931 748.505C479.931 766.759 465.272 780.491 449.413 777.12L115.531 707.106C103.382 704.474 94.5069 692.552 94.5069 678.491V435.926C94.5069 421.249 89.2325 406.819 79.4112 397.28C56.0949 374.751 42.5637 347.986 42.5637 319.248C42.5637 238.956 80.1394 188.594 210.394 193.856C233.819 194.802 255.572 196.61 275.832 198.995C488.555 224.526 531.8 326.776 531.8 400.155C531.8 428.893 518.305 455.616 494.952 478.187C485.022 487.725 479.857 502.155 479.857 516.833V748.547L479.931 748.505Z" fill="black"/>
</svg>
