<svg width="752" height="831" viewBox="0 0 752 831" fill="none" xmlns="http://www.w3.org/2000/svg">
<path d="M35.1764 552.153C82.6121 589.087 180.997 633.407 377.767 633.407C477.031 633.407 550.819 622.327 605.282 606.63C626.365 595.55 633.393 578.007 635.149 572.467C631.636 555.847 615.824 539.227 587.714 539.227C575.416 539.227 561.361 541.997 547.306 548.46C529.737 555.847 511.29 559.54 492.842 559.54C459.462 559.54 431.352 548.46 407.634 540.15C400.607 537.38 394.457 535.533 388.308 532.763C376.01 529.07 366.347 531.84 354.049 536.457C339.994 541.997 322.426 549.383 292.559 549.383C287.288 549.383 281.139 549.383 274.99 548.46C217.013 543.843 201.201 521.683 186.268 502.293C180.997 495.83 176.605 489.367 170.456 483.827C162.55 476.44 149.373 476.44 134.44 476.44C109.844 476.44 78.2199 476.44 65.0433 436.737C46.5961 383.183 99.3024 345.327 115.114 335.17C44.8393 362.87 0.0389353 401.65 0.0389353 444.123V476.44C-0.839502 506.91 13.2155 535.533 35.1764 552.153Z" fill="black"/>
<path d="M671.165 351.79C676.436 370.257 672.044 389.647 669.409 400.727C693.126 421.04 704.546 467.207 706.303 488.443C707.181 501.37 724.75 525.377 735.291 538.303C745.833 524.453 751.982 505.987 751.982 487.52V445.97C752.86 409.96 722.115 377.643 671.165 351.79Z" fill="black"/>
<path d="M723.872 665.723C677.314 707.273 578.929 757.133 376.889 757.133C182.754 757.133 83.4905 709.12 35.1764 669.417C25.5136 661.107 16.7293 650.95 9.70175 639.87V663.877C9.70175 697.117 22.8783 728.51 47.4746 747.9C92.2749 784.833 186.268 831 377.767 831C577.172 831 670.287 781.14 712.452 744.207C731.778 726.663 743.197 700.81 743.197 673.11V644.487C737.048 652.797 730.899 659.26 723.872 665.723Z" fill="black"/>
<path d="M376.889 653.72C174.848 653.72 72.9493 607.553 22.8783 567.85C17.6077 564.157 13.2155 559.54 8.82331 554.923V568.773C8.82331 602.013 21.9999 633.407 46.5961 652.797C91.3965 689.73 185.389 735.897 376.889 735.897C576.294 735.897 669.408 686.037 711.573 649.103C730.899 631.56 742.319 605.707 742.319 578.007V558.617C740.562 560.463 737.927 563.233 735.291 565.08C687.856 605.707 585.957 653.72 376.889 653.72Z" fill="black"/>
<path d="M594.741 457.05C566.631 457.05 530.615 447.817 499.87 434.89C499.87 436.737 499.87 437.66 499.87 439.507C500.748 463.513 498.113 494.907 480.544 512.45C470.882 522.607 455.07 528.147 435.744 529.07C453.313 534.61 471.76 539.227 491.964 539.227C508.654 539.227 524.466 536.457 539.4 529.993C556.09 523.53 572.78 519.837 586.835 519.837C627.243 519.837 649.204 545.69 653.597 572.467C653.597 573.39 653.597 575.237 653.597 576.16C653.597 577.083 651.84 583.547 647.448 592.78C678.193 579.853 708.06 563.233 717.723 546.613C708.938 535.533 688.734 508.757 686.977 489.367C685.22 469.977 674.679 432.12 657.989 416.423C655.353 425.657 650.961 433.967 644.812 440.43C634.271 451.51 617.581 457.05 594.741 457.05Z" fill="black"/>
<path d="M112.479 361.947C95.7886 375.797 72.9493 400.727 82.6121 430.273C91.3965 455.203 107.208 456.127 133.561 456.127C151.13 456.127 168.699 456.127 181.876 468.13C189.781 474.593 195.052 481.98 200.323 489.367C214.378 507.833 226.676 523.53 274.99 528.147C280.261 528.147 285.531 529.07 290.802 529.07C317.155 529.07 332.088 523.53 346.143 517.99C348.779 517.067 352.292 515.22 354.928 514.297C334.724 506.91 316.276 498.6 301.343 488.443C282.896 476.44 270.598 457.973 265.327 436.737C237.217 447.817 206.472 454.28 180.997 454.28C158.158 454.28 141.467 448.74 130.926 437.66C113.357 420.117 110.722 387.8 111.601 364.717C111.601 363.793 111.601 362.87 112.479 361.947Z" fill="black"/>
<path d="M180.997 433.967C205.593 433.967 236.339 426.58 262.692 415.5C262.692 393.34 271.476 373.027 287.288 357.33L298.708 346.25C300.465 349.02 301.343 351.79 302.221 353.637C303.978 357.33 305.735 361.023 307.492 364.717C304.857 366.563 303.1 369.333 300.465 372.103C286.41 385.953 282.017 401.65 282.017 415.5C282.017 437.66 293.437 458.897 311.884 470.9C342.63 492.137 394.457 508.757 430.473 508.757C446.285 508.757 459.462 505.987 467.368 497.677C490.207 473.67 482.301 389.647 455.948 339.787C460.34 340.71 465.611 341.633 470.881 341.633C473.517 341.633 476.152 341.633 477.909 340.71C487.572 361.947 493.721 386.877 497.235 409.96C527.102 424.733 565.753 435.813 594.741 435.813C610.553 435.813 623.73 433.043 631.636 424.733C659.746 396.11 642.177 278.847 600.89 241.913C587.714 229.91 575.416 226.217 563.996 226.217C559.604 226.217 554.333 227.14 550.819 228.063C542.035 179.127 516.56 165.277 502.505 161.583C503.384 131.113 491.964 84.0233 444.528 69.25C439.258 55.4 423.446 17.5433 366.347 0C366.347 0 366.347 0 365.469 0H364.591C363.712 0 362.834 0 361.955 0C361.955 0 361.955 0 361.077 0C360.198 0 359.32 0.923332 358.442 0.923332L356.685 2.77C355.806 3.69333 355.806 4.61667 354.928 5.54C354.928 6.46333 354.049 7.38667 354.049 8.31C354.049 8.31 354.049 8.31 354.049 9.23333C354.049 10.1567 355.806 56.3233 326.818 65.5567C303.978 72.9433 272.355 84.9467 259.178 112.647C253.029 125.573 251.272 141.27 255.664 158.813C238.974 166.2 205.593 187.437 207.35 225.293C197.687 226.217 187.146 230.833 175.726 240.99C134.44 277.923 117.75 395.187 144.981 423.81C152.009 431.197 165.185 433.967 180.997 433.967ZM217.013 347.173C212.621 351.79 207.35 354.56 203.836 351.79C201.201 349.02 202.08 342.557 206.472 337.94C210.864 333.323 216.135 330.553 219.648 333.323C223.162 336.093 221.405 342.557 217.013 347.173ZM274.99 292.697C252.151 283.463 239.852 272.383 232.825 261.303C240.731 245.607 269.719 199.44 314.52 211.443C354.928 222.523 420.811 226.217 462.976 209.597C464.732 226.217 461.219 239.143 453.313 247.453C430.473 272.383 369.861 262.227 337.359 256.687C329.453 254.84 322.426 253.917 318.033 253.917C292.559 251.147 279.382 274.23 274.99 292.697ZM243.366 300.083L244.245 299.16C247.758 301.93 252.151 303.777 255.664 305.623C254.786 306.547 253.907 308.393 253.029 309.317C248.637 313.933 243.366 316.703 239.852 313.933C238.096 312.087 238.974 305.623 243.366 300.083ZM253.029 382.26C248.637 386.877 243.366 389.647 239.852 386.877C237.217 384.107 238.096 377.643 242.488 373.027C246.88 368.41 252.151 365.64 255.664 368.41C258.3 371.18 257.421 377.643 253.029 382.26ZM289.045 345.327C284.653 349.943 279.382 352.713 275.868 349.943C273.233 347.173 274.111 340.71 278.504 336.093C281.139 333.323 283.774 331.477 286.41 330.553C288.166 333.323 289.923 335.17 292.559 337.94C292.559 339.787 291.68 342.557 289.045 345.327ZM335.602 423.81C332.967 426.58 326.818 424.733 322.426 419.193C318.033 414.577 317.155 408.113 319.79 405.343C322.426 402.573 328.575 404.42 332.967 409.96C337.359 414.577 338.237 421.04 335.602 423.81ZM371.618 460.743C368.983 463.513 362.834 461.667 358.442 456.127C354.049 451.51 353.171 445.047 355.806 442.277C358.442 439.507 364.591 441.353 368.983 446.893C373.375 452.433 374.253 458.897 371.618 460.743ZM394.457 421.963C390.065 417.347 389.187 410.883 391.822 408.113C394.457 405.343 400.606 407.19 404.999 412.73C409.391 417.347 410.269 423.81 407.634 426.58C404.12 428.427 398.85 426.58 394.457 421.963ZM423.446 475.517C420.811 478.287 414.662 476.44 410.269 470.9C405.877 466.283 404.999 459.82 407.634 457.05C410.269 454.28 416.418 456.127 420.811 461.667C425.203 466.283 426.081 472.747 423.446 475.517ZM431.352 390.57C426.96 385.953 426.081 379.49 428.716 376.72C431.352 373.95 437.501 375.797 441.893 381.337C446.285 385.953 447.164 392.417 444.528 395.187C441.015 397.957 434.866 395.187 431.352 390.57ZM453.313 445.97C450.677 448.74 444.528 446.893 440.136 441.353C435.744 436.737 434.866 430.273 437.501 427.503C440.136 424.733 446.285 426.58 450.677 432.12C455.07 437.66 455.948 443.2 453.313 445.97ZM532.372 312.087C533.251 310.24 534.129 309.317 535.886 307.47C537.643 311.163 537.643 314.857 535.886 316.703C534.129 318.55 531.494 318.55 528.858 316.703C529.737 314.857 530.615 313.933 532.372 312.087ZM499.87 351.79C497.235 354.56 491.086 352.713 486.693 347.173C484.937 345.327 484.058 343.48 483.18 340.71C487.572 339.787 491.964 338.863 496.356 337.017C500.748 342.557 502.505 349.02 499.87 351.79ZM535.886 388.723C533.251 391.493 527.102 389.647 522.709 384.107C518.317 379.49 517.439 373.027 520.074 370.257C522.709 367.487 528.858 369.333 533.251 374.873C537.643 380.413 538.521 385.953 535.886 388.723ZM614.945 360.1C619.337 364.717 620.216 371.18 617.581 373.95C614.945 376.72 608.796 374.873 604.404 369.333C600.012 364.717 599.133 358.253 601.769 355.483C604.404 352.713 610.553 354.56 614.945 360.1ZM592.984 304.7C595.62 301.93 601.769 303.777 606.161 309.317C610.553 313.933 611.432 320.397 608.796 323.167C606.161 325.937 600.012 324.09 595.62 318.55C591.227 313.01 589.471 307.47 592.984 304.7ZM585.078 388.723C589.471 393.34 590.349 399.803 587.714 402.573C585.078 405.343 578.929 403.497 574.537 397.957C570.145 392.417 569.267 387.8 571.902 385.03C574.537 382.26 580.686 384.107 585.078 388.723ZM556.09 266.843C558.725 264.073 564.874 265.92 569.267 271.46C573.659 276.077 574.537 282.54 571.902 285.31C569.267 288.08 563.117 286.233 558.725 280.693C554.333 276.077 553.455 269.613 556.09 266.843ZM556.09 336.093C558.725 333.323 564.874 335.17 569.267 340.71C573.659 346.25 574.537 351.79 571.902 354.56C569.267 357.33 563.117 355.483 558.725 349.943C554.333 344.403 553.455 337.94 556.09 336.093ZM498.113 182.82C507.776 185.59 527.102 197.593 532.372 241.913C535.886 269.613 526.223 287.157 517.439 298.237C505.141 313.01 487.572 322.243 470.003 322.243C465.611 322.243 461.219 321.32 456.827 320.397C449.799 317.627 442.772 316.703 436.622 316.703C415.54 316.703 406.756 332.4 404.999 343.48C397.971 364.717 385.673 389.647 367.226 389.647C347.9 389.647 326.818 364.717 319.79 347.173C312.763 329.63 300.465 314.857 290.802 305.623V304.7C290.802 304.7 295.194 272.383 316.277 274.23C319.79 274.23 326.818 276.077 333.845 277C372.497 283.463 436.622 295.467 466.489 262.227C479.666 247.453 484.058 227.14 480.544 200.363C488.45 194.823 494.599 189.283 498.113 182.82ZM412.905 65.5567C411.148 58.17 409.391 51.7067 405.877 45.2433C423.446 61.8633 426.081 79.4067 426.081 80.33C426.96 84.9467 429.595 87.7167 433.109 88.64C488.45 101.567 481.423 167.123 481.423 169.893C481.423 170.817 481.423 170.817 481.423 171.74C472.638 185.59 450.677 194.823 423.446 198.517C405.877 186.513 395.336 173.587 392.701 160.66C389.187 144.963 397.093 133.883 397.971 132.96C412.905 110.8 417.297 87.7167 412.905 65.5567ZM386.552 49.86C390.065 56.3233 392.701 62.7867 394.457 70.1733C397.971 86.7933 393.579 104.337 383.038 120.957C382.159 121.88 369.861 140.347 374.253 164.353C376.889 178.203 383.038 190.207 393.579 201.287C376.889 201.287 359.32 200.363 343.508 197.593C343.508 197.593 343.508 197.593 342.63 196.67C329.453 185.59 322.426 173.587 322.426 161.583C322.426 141.27 339.994 125.573 341.751 123.727C367.226 105.26 382.159 84.0233 384.795 60.0167C386.551 56.3233 386.552 52.63 386.552 49.86ZM225.797 229.91C225.797 228.987 225.797 228.063 225.797 226.217C223.162 191.13 268.841 174.51 269.719 174.51C272.355 173.587 274.111 171.74 274.99 168.97C275.868 166.2 276.747 163.43 275.868 161.583C270.598 145.887 270.598 132.96 275.868 121.88C285.531 101.567 312.763 91.41 332.088 84.9467C351.414 78.4833 361.955 63.71 367.226 48.0133C367.226 50.7833 367.226 52.63 366.347 55.4C363.712 72.9433 352.292 89.5633 331.21 105.26C331.21 105.26 331.21 105.26 330.331 106.183C329.453 107.107 303.1 129.267 303.1 159.737C303.1 169.893 305.735 179.127 311.006 188.36C271.476 181.897 241.609 208.673 224.041 234.527C224.919 232.68 225.797 230.833 225.797 229.91ZM206.472 268.69C208.229 266.843 209.986 264.997 212.621 264.073C212.621 265.92 213.499 267.767 215.256 268.69C216.135 270.537 217.891 273.307 219.648 275.153C218.77 276.077 218.77 277 217.891 277.923C213.499 282.54 208.229 285.31 204.715 282.54C201.201 280.693 202.08 274.23 206.472 268.69ZM190.66 386.877C195.052 382.26 200.323 379.49 203.836 382.26C206.472 385.03 205.593 391.493 201.201 396.11C196.809 400.727 191.538 403.497 188.025 400.727C185.389 397.957 187.146 391.493 190.66 386.877ZM170.456 306.547C174.848 301.93 180.119 299.16 183.632 301.93C186.268 304.7 185.389 311.163 180.997 315.78C176.605 320.397 171.334 323.167 167.821 320.397C165.185 317.627 166.064 311.163 170.456 306.547ZM161.671 357.33C166.064 352.713 171.334 349.943 174.848 352.713C177.483 355.483 176.605 361.947 172.213 366.563C167.821 371.18 162.55 373.95 159.036 371.18C155.522 369.333 157.279 362.87 161.671 357.33Z" fill="black"/>
</svg>
