<svg width="395" height="828" viewBox="0 0 395 828" fill="none" xmlns="http://www.w3.org/2000/svg">
<path d="M126.845 826.964C77.322 825.347 62.0109 824.485 47.4267 822.508C18.0769 818.519 12.9883 815.932 6.44588 801.81C-0.0511109 787.723 0.448661 806.301 0.0851908 581.06C-0.141987 441.275 0.0851995 373.889 0.766697 366.668C2.49321 348.664 7.71813 331.02 20.8035 298.966C23.3478 292.749 30.2992 275.68 36.2961 260.982C66.1914 187.782 76.1417 157.525 82.7295 119.467L84.9104 106.962L89.681 106.53C112.125 104.482 125.892 104.159 197.678 104.159C269.463 104.159 283.23 104.446 305.674 106.53L310.49 106.962L313.08 121.372C319.986 159.463 331.48 194.068 360.967 265.545C382.821 318.513 387.409 330.84 391.908 348.915L394.998 361.456V572.473C394.998 799.726 395.27 787.619 390.045 799.652C382.867 816.29 378.324 818.626 345.066 822.975C312.127 827.251 198.817 829.371 126.797 827.035L126.845 826.964ZM227.208 608.625C238.748 606.505 246.154 604.385 258.512 599.749C290.225 587.854 314.305 568.665 329.888 542.828C339.156 527.519 343.473 514.87 345.018 498.735C345.835 490.254 345.199 476.994 343.7 470.705L343.064 467.974L350.697 465.962C359.011 463.77 363.191 461.65 363.191 459.637C363.191 458.918 361.237 456.834 358.829 455.001C356.421 453.169 352.15 449.108 349.379 445.982C343.518 439.406 335.112 432.829 328.934 429.99C325.617 428.481 323.028 426.145 318.03 420.252C313.577 415.005 307.489 409.363 298.993 402.679L286.499 392.797L286.408 386.257C286.272 379.429 285.136 376.878 281.501 375.333C279.139 374.326 275.368 376.626 272.778 380.615C271.733 382.232 270.279 383.562 269.552 383.562C268.825 383.562 263.782 381.837 258.376 379.753C247.472 375.548 234.887 372.242 221.938 370.266C208.989 368.254 184.228 368.469 171.052 370.697C158.239 372.854 146.109 376.124 135.659 380.292C131.07 382.089 126.708 383.598 125.936 383.598C125.164 383.598 123.664 382.269 122.619 380.652C116.395 371.021 109.262 374.327 109.262 386.797V393.085L101.538 398.619C92.2245 405.303 83.4556 413.281 76.2316 421.726C72.4152 426.182 69.6436 428.553 66.5542 429.991C60.2389 432.901 53.7868 437.968 46.5174 445.622C42.9735 449.36 38.3394 453.744 36.1585 455.361C29.7524 460.212 31.1154 462.045 43.7914 465.638L52.2876 468.046L51.5152 472.251C50.0613 480.336 50.652 505.239 52.4693 512.174C62.601 550.733 92.1789 582.033 134.432 598.85C145.518 603.27 162.783 607.906 172.96 609.2C176.867 609.703 180.729 610.242 181.502 610.385C182.274 610.529 191.043 610.529 200.993 610.385C214.669 610.17 221.03 609.739 227.163 608.625L227.208 608.625ZM175.867 602.121C120.21 594.682 76.8672 561.622 64.0544 516.811C59.602 501.215 59.0567 486.769 62.2826 470.275C63.0095 466.466 63.6456 463.052 63.6456 462.728C63.6456 462.405 60.965 461.686 57.6938 461.183C49.8793 459.961 45.5626 458.847 45.5626 458.057C45.5626 457.123 59.193 442.964 62.373 440.629C63.8723 439.515 67.8705 437.287 71.2779 435.67C76.5937 433.118 78.411 431.645 84.2721 424.889C92.2685 415.725 103.173 406.203 112.85 399.877C117.166 397.074 119.756 394.846 119.756 393.912C119.756 392.762 120.21 392.511 121.8 392.834C123.163 393.122 126.207 392.187 131.069 389.959C171.323 371.596 225.161 371.812 265.593 390.462C270.364 392.654 272.408 393.265 273.181 392.654C275.089 391.145 276.679 391.756 276.679 394.02C276.679 395.637 277.497 396.679 279.769 397.973C289.855 403.651 302.668 414.611 311.344 424.96C316.66 431.285 318.16 432.543 323.929 435.274C327.519 436.999 332.016 439.694 333.925 441.239C339.513 445.839 350.053 457.374 349.6 458.38C349.373 458.883 345.465 459.89 340.967 460.644C336.469 461.399 332.562 462.261 332.335 462.585C332.108 462.908 332.608 466.322 333.516 470.167C335.742 479.69 335.697 500.101 333.471 509.84C329.064 529.029 320.477 545.308 307.301 559.358C285.357 582.788 255.007 597.521 219.205 602.085C208.801 603.414 185.902 603.414 175.906 602.085L175.867 602.121ZM191.088 596.443C191.088 596.012 190.224 595.688 189.179 595.688C188.134 595.688 187.271 596.012 187.271 596.443C187.271 596.874 188.134 597.198 189.179 597.198C190.224 597.198 191.088 596.874 191.088 596.443ZM208.217 596.443C208.217 596.012 207.581 595.688 206.808 595.688C206.036 595.688 205.4 596.012 205.4 596.443C205.4 596.874 206.036 597.198 206.808 597.198C207.581 597.198 208.217 596.874 208.217 596.443ZM185.409 595.868C185.409 595.545 183.183 594.862 180.412 594.359C169.326 592.275 152.516 584.513 148.017 579.374C144.246 575.062 144.564 574.343 149.97 574.918C178.276 577.901 217.258 577.901 245.517 574.918C249.697 574.487 250.061 574.559 250.061 576.032C250.061 576.93 247.925 579.302 245.017 581.638C239.293 586.166 223.572 592.886 215.122 594.43C210.215 595.329 208.398 596.479 211.942 596.479C215.849 596.479 228.389 594.215 236.612 592.023C280.774 580.308 315.258 549.044 325.208 511.671C328.798 498.196 328.707 479.33 324.936 467.471L323.755 463.698L301.401 464.273V460.607C301.401 451.587 296.63 439.873 289.997 432.506C286.726 428.84 287.271 428.481 295.722 428.948C299.902 429.164 303.536 429.092 303.763 428.804C304.536 427.834 292.269 416.37 283.681 410.01C274.504 403.218 274.413 403.182 271.55 409.471C270.641 411.483 269.233 413.28 268.415 413.532C266.78 414.035 256.739 409.974 256.739 408.824C256.739 408.393 258.874 406.381 261.509 404.332C264.145 402.284 266.28 400.236 266.28 399.804C266.28 398.69 254.194 393.264 244.653 390.102C240.473 388.7 232.386 386.616 226.706 385.43C216.984 383.418 215.303 383.31 197.357 383.346C180.046 383.382 177.502 383.562 169.233 385.322C164.235 386.401 156.739 388.341 152.604 389.635C144.426 392.222 129.387 398.618 129.387 399.517C129.387 399.84 131.523 401.924 134.158 404.188C136.793 406.452 138.928 408.608 138.883 408.968C138.883 409.758 129.887 413.747 128.07 413.747C126.888 413.747 122.754 407.961 122.754 406.308C122.754 405.949 122.163 405.23 121.391 404.763C120.3 404.044 118.21 405.338 110.123 411.627C100.491 419.173 92.2672 426.971 92.2672 428.589C92.2672 429.128 94.8115 429.236 99.8546 428.984C104.489 428.732 107.442 428.84 107.442 429.307C107.442 429.703 105.488 432.721 103.126 435.991C97.7193 443.466 95.2203 449.755 94.448 457.912L93.812 464.308L71.7316 463.733L70.5503 467.506C68.4603 474.154 67.1883 486.84 67.7789 494.961C69.0511 512.713 75.1391 528.992 86.0885 544.048C99.491 562.447 121.754 578.978 144.607 587.422C160.145 593.171 185.406 598.454 185.406 595.938L185.409 595.868ZM128.345 571.252C128.345 570.641 128.981 570.138 129.753 570.138C130.526 570.138 131.162 570.642 131.162 571.252C131.162 571.863 130.526 572.366 129.753 572.366C128.981 572.366 128.345 571.863 128.345 571.252ZM266.231 570.498C266.231 569.887 266.867 569.384 267.64 569.384C268.412 569.384 269.048 569.887 269.048 570.498C269.048 571.109 268.412 571.612 267.64 571.612C266.867 571.612 266.231 571.109 266.231 570.498ZM183.496 569.671C152.828 568.09 139.289 566.257 129.657 562.34C124.023 560.041 116.89 554.399 113.891 549.799C112.165 547.14 111.62 544.948 111.347 539.629C111.074 533.664 111.301 532.442 113.301 529.459C115.799 525.758 124.977 519.253 133.428 515.264C146.649 508.976 166.55 505.454 192.038 504.843C211.301 504.412 220.025 505.023 237.699 508.113C253.737 510.916 264.551 515.228 275.772 523.206C281.315 527.123 283.042 529.459 284.268 534.633C286.131 542.359 282.542 550.983 275.045 556.949C264.278 565.466 245.696 568.808 204.896 569.598C195.991 569.778 186.359 569.778 183.497 569.634L183.496 569.671ZM176.408 544.193C178.135 542.109 177.135 539.881 173.909 538.516C169.866 536.791 164.232 540.636 166.277 543.726C169.048 547.823 173.228 548.003 176.408 544.229V544.193ZM227.749 545.703C229.021 544.697 230.066 543.331 230.066 542.648C230.066 542.001 229.021 540.636 227.749 539.594C226.477 538.587 224.75 537.761 223.887 537.761C222.161 537.761 217.708 541.031 217.708 542.289C217.708 542.756 218.98 544.122 220.479 545.343C223.842 548.003 224.75 548.074 227.749 545.703ZM96.1785 544.337C88.0005 533.772 82.1398 521.339 79.1867 508.222C77.4602 500.64 76.9604 482.959 78.2326 475.881L79.005 471.568H94.7255L95.3616 476.635C96.4065 485.044 99.4052 494.891 105.039 508.222L110.4 520.872L106.993 524.86C105.13 527.052 103.131 530.286 102.54 532.011C101.495 535.066 101.859 544.157 103.176 548.506C104.448 552.638 101.041 550.626 96.1794 544.373L96.1785 544.337ZM292.22 548.542C295.582 536.611 294.537 531.149 287.358 523.603L284.996 521.087L290.721 507.432C295.855 495.178 299.853 481.882 300.625 474.587L300.898 471.964L316.345 471.532L316.981 474.012C317.344 475.378 317.89 480.193 318.208 484.757C319.571 504.701 312.665 527.053 300.034 543.547C294.764 550.374 291.038 552.818 292.22 548.614L292.22 548.542ZM115.032 509.659C112.306 502.796 112.942 501.61 120.303 499.418C123.21 498.555 127.072 496.974 128.844 495.896C132.797 493.488 136.568 487.523 137.431 482.24C137.976 478.755 137.704 477.712 135.023 473.364C133.07 470.238 129.162 466.105 124.165 461.901C114.942 454.175 113.215 452.234 110.353 446.556L108.217 442.28L110.944 438.327C114.533 433.116 126.527 423.054 133.433 419.533C139.749 416.299 148.971 413.711 164.056 410.908C172.733 409.291 177.731 408.896 193.315 408.537C206.263 408.249 212.079 408.357 212.079 408.896C212.079 409.327 210.352 412.238 208.217 415.364C201.902 424.635 202.129 432.505 208.853 438.399C210.671 440.016 213.987 441.884 216.213 442.531C219.894 443.645 221.029 443.645 229.48 442.567C243.609 440.77 246.063 440.95 254.286 444.4C262.283 447.742 270.915 449.646 278.321 449.646C286.999 449.682 290.315 453.312 291.542 464.344C292.042 468.764 291.815 470.166 290.088 473.184C287.589 477.604 285.136 478.898 276.958 480.228C268.189 481.665 265.781 482.527 262.51 485.474C256.512 490.864 258.148 497.081 267.235 503.19C272.142 506.496 274.868 509.515 274.868 511.707C274.868 513.432 273.323 513.144 268.598 510.593C257.603 504.628 242.337 500.603 221.392 498.159C205.581 496.326 179.639 496.973 163.6 499.597C145.335 502.579 136.658 505.31 124.8 511.85C121.483 513.647 118.484 515.156 118.076 515.156C117.667 515.156 116.349 512.677 115.168 509.622L115.032 509.659ZM166.781 484.146C168.689 481.989 168.689 476.851 166.736 474.659C164.373 472 161.466 472.826 159.012 476.779C156.286 481.199 156.332 483.212 159.194 485.512C161.829 487.596 164.055 487.2 166.781 484.146ZM237.931 483.858C239.067 481.882 237.976 478.216 235.205 474.731C232.161 470.921 227.254 473.976 227.254 479.654C227.254 482.277 227.799 483.355 230.071 485.152C232.479 487.056 233.206 487.272 234.887 486.553C235.977 486.086 237.34 484.864 237.931 483.858ZM113.351 421.366C110.488 420.935 110.67 419.57 113.896 417.126C117.258 414.575 118.621 414.575 119.439 417.09C120.529 420.54 118.303 422.121 113.35 421.33L113.351 421.366ZM277.232 420.432C275.369 418.779 275.869 415.15 278.004 415.15C279.458 415.15 284.365 419.031 284.365 420.181C284.365 420.612 283.411 421.187 282.23 421.438C279.186 422.085 279.14 422.085 277.278 420.432H277.232ZM145.697 403.973C144.015 402.788 142.607 401.494 142.607 401.027C142.607 400.128 152.739 396.679 162.598 394.163C183.453 388.881 211.849 388.881 232.976 394.127C242.835 396.571 252.967 400.128 252.967 401.099C252.967 401.602 251.695 403.003 250.105 404.189L247.243 406.345L236.248 404.297C219.8 401.242 210.759 400.56 191.587 401.063C177.775 401.386 172.459 401.853 164.008 403.434C148.333 406.381 149.15 406.345 145.697 403.973ZM80.2265 98.9207C79.6813 98.741 77.6822 98.4176 75.7285 98.1301C69.2769 97.2677 71.4577 95.7584 80.4991 94.824C100.081 92.8116 151.513 90.2962 184.406 89.6853C226.978 88.9307 324.211 93.746 324.211 96.6567C324.211 98.4535 311.672 99.4597 300.586 98.5613C274.326 96.4411 252.79 96.0458 185.367 96.4411C147.43 96.6567 112.127 97.1957 106.903 97.591C93.9539 98.6331 81.4145 99.2441 80.2782 98.8846L80.2265 98.9207ZM78.5 85.5171C78.2274 84.5828 77.7276 83.1094 77.3641 82.247C76.7735 80.7377 77.137 80.6658 86.5417 80.1987C91.9483 79.9471 102.125 79.3003 109.213 78.7972C127.205 77.4676 268.093 77.4676 286.133 78.7972C293.175 79.3362 303.398 79.9471 308.804 80.1987C318.209 80.6299 318.618 80.7377 317.982 82.247C317.618 83.1094 317.118 84.5828 316.846 85.5171C316.255 87.4935 317.028 87.4217 305.805 86.4874C278 84.1515 231.794 82.3908 198.127 82.3908C164.461 82.3908 116.665 84.1875 89.4959 86.4874C78.2738 87.4217 79.046 87.4936 78.4554 85.5171H78.5ZM60.7359 70.8192V67.0819L66.6877 66.2914C73.2302 65.393 87.1781 64.4946 117.347 63.0212C148.605 61.512 253.011 61.7276 286.637 63.4165C311.853 64.6743 326.164 65.6804 332.07 66.6507C334.523 67.0459 334.705 67.3334 334.705 70.8191V74.5564L330.661 74.1252C328.435 73.8736 320.393 73.3705 312.805 72.9752C305.218 72.5799 293.223 71.8253 286.181 71.3222C277.276 70.6753 250.197 70.3879 197.721 70.3879C134.25 70.3879 119.075 70.6035 103.082 71.6815C92.6327 72.4002 80.4112 73.1549 75.9589 73.3704C71.5064 73.5861 66.2815 73.9813 64.3278 74.1969L60.7386 74.6282L60.7359 70.8192ZM60.7359 40.2744C60.7359 23.1689 60.9176 20.7615 62.4169 18.9648C63.371 17.8149 64.2797 14.8682 64.5523 12.0293L65.0066 7.10612L73.4573 5.4172C81.8626 3.76415 102.08 2.32674 140.653 0.673791C162.144 -0.224597 233.292 -0.224597 254.783 0.673791C293.356 2.32683 313.529 3.72828 321.979 5.4172L330.43 7.10612L330.884 12.0293C331.157 14.8681 332.065 17.8149 333.019 18.9648C334.473 20.7257 334.7 23.1692 334.7 40.2744V59.572L331.702 59.1048C325.659 58.1346 311.848 57.1643 286.222 55.8707C249.103 54.0021 146.882 54.0021 109.302 55.8707C83.7686 57.1643 69.9113 58.1346 63.8225 59.1048L60.8239 59.572L60.7359 40.2744ZM79.2269 46.4193C80.4537 45.0537 80.7263 42.2509 80.7263 31.1832C80.7263 16.7374 80.0448 14.2581 75.9557 14.2581C71.912 14.2581 71.1851 16.7376 71.1851 31.1832C71.1851 42.251 71.4577 45.09 72.6845 46.4193C74.5927 48.5395 77.3641 48.5395 79.2269 46.4193ZM322.711 46.4193C323.938 45.0537 324.211 42.2509 324.211 31.1832C324.211 16.7374 323.529 14.2581 319.44 14.2581C315.396 14.2581 314.669 16.7376 314.669 31.1832C314.669 42.251 314.942 45.09 316.169 46.4193C318.077 48.5395 320.848 48.5395 322.711 46.4193ZM96.3595 45.6647C97.5862 44.2991 97.8588 41.4602 97.8588 30.033C97.8588 15.1916 97.1773 12.7482 93.0882 12.7482C88.9992 12.7482 88.3176 15.1918 88.3176 30.033C88.3176 41.4605 88.5902 44.2995 89.817 45.6647C91.7252 47.7848 94.4966 47.7848 96.3595 45.6647ZM305.579 45.6647C306.805 44.2991 307.078 41.4602 307.078 30.033C307.078 15.1916 306.397 12.7482 302.308 12.7482C298.219 12.7482 297.537 15.1918 297.537 30.033C297.537 41.4605 297.81 44.2995 299.036 45.6647C300.944 47.7848 303.716 47.7848 305.579 45.6647ZM112.527 44.91C113.753 43.5444 114.026 40.7056 114.026 29.2784C114.026 14.4369 113.344 11.9936 109.255 11.9936C105.166 11.9936 104.485 14.4371 104.485 29.2784C104.485 40.7059 104.757 43.5448 105.984 44.91C107.892 47.0302 110.664 47.0302 112.527 44.91ZM289.4 44.8741C291.399 42.4305 291.99 15.0118 290.081 13.2152C288.173 11.3825 285.493 11.7059 283.584 14.0058C281.086 16.9884 280.45 41.8911 282.767 44.6941C284.72 47.0299 287.583 47.1021 289.4 44.8741ZM129.659 44.1554C130.886 42.7898 131.158 39.951 131.158 28.5237C131.158 13.6823 130.477 11.2389 126.388 11.2389C122.299 11.2389 121.617 13.6825 121.617 28.5237C121.617 39.9512 121.89 42.7902 123.117 44.1554C125.025 46.2756 127.796 46.2756 129.659 44.1554ZM272.326 44.1554C273.552 42.7898 273.825 39.951 273.825 28.5237C273.825 13.6823 273.143 11.2389 269.054 11.2389C264.965 11.2389 264.284 13.6825 264.284 28.5237C264.284 39.9512 264.556 42.7902 265.783 44.1554C267.691 46.2756 270.463 46.2756 272.326 44.1554ZM148.699 43.4007C149.926 42.0352 150.199 39.1963 150.199 27.7691C150.199 12.9276 149.517 10.4843 145.428 10.4843C141.339 10.4843 140.657 12.9278 140.657 27.7691C140.657 39.1966 140.93 42.0355 142.157 43.4007C144.065 45.5209 146.836 45.5209 148.699 43.4007ZM253.333 43.4007C254.56 42.0352 254.833 39.1963 254.833 27.7691C254.833 12.9276 254.151 10.4843 250.062 10.4843C245.973 10.4843 245.291 12.9278 245.291 27.7691C245.291 39.1966 245.564 42.0355 246.791 43.4007C248.699 45.5209 251.47 45.5209 253.333 43.4007ZM169.644 42.6461C170.871 41.2805 171.144 38.4417 171.144 27.0144C171.144 12.173 170.462 9.72965 166.373 9.72965C162.284 9.72965 161.603 12.1732 161.603 27.0144C161.603 38.442 161.875 41.2809 163.102 42.6461C165.01 44.7663 167.782 44.7663 169.644 42.6461ZM191.498 42.6461C192.725 41.2805 192.997 38.4417 192.997 27.0144C192.997 12.173 192.316 9.72965 188.227 9.72965C184.138 9.72965 183.456 12.1732 183.456 27.0144C183.456 38.442 183.729 41.2809 184.955 42.6461C186.864 44.7663 189.635 44.7663 191.498 42.6461ZM210.534 42.6461C211.761 41.2805 212.034 38.4417 212.034 27.0144C212.034 12.173 211.352 9.72965 207.263 9.72965C203.174 9.72965 202.493 12.1732 202.493 27.0144C202.493 38.442 202.765 41.2809 203.992 42.6461C205.9 44.7663 208.672 44.7663 210.534 42.6461ZM232.388 42.6461C233.615 41.2805 233.887 38.4417 233.887 27.0144C233.887 12.173 233.206 9.72965 229.117 9.72965C225.028 9.72965 224.346 12.1732 224.346 27.0144C224.346 38.442 224.619 41.2809 225.846 42.6461C227.754 44.7663 230.525 44.7663 232.388 42.6461Z" fill="black"/>
</svg>
