<svg width="300" height="383" viewBox="0 0 300 383" fill="none" xmlns="http://www.w3.org/2000/svg">
<path d="M182.139 374.202C181.799 374.27 181.492 374.459 181.271 374.736C181.051 375.013 180.93 375.361 180.93 375.72C180.93 376.078 181.051 376.426 181.271 376.703C181.492 376.98 181.799 377.169 182.139 377.238L232.442 382.966C233.661 382.966 234.825 382.966 236.043 382.966C243.481 382.973 250.696 380.345 256.486 375.519C259.348 373.106 261.785 370.199 263.688 366.927C263.859 366.652 263.951 366.332 263.953 366.005C263.954 365.678 263.865 365.357 263.697 365.081C263.528 364.804 263.286 364.583 263 364.443C262.714 364.303 262.395 364.251 262.081 364.292L182.139 374.202Z" fill="black"/>
<path d="M270.225 22.5598C269.491 22.4804 268.749 22.5765 268.056 22.8408C267.363 23.105 266.738 23.5303 266.229 24.0839C265.721 24.6374 265.342 25.3044 265.122 26.0333C264.903 26.7622 264.848 27.5335 264.962 28.2878L283.078 186.323C283.078 186.703 283.224 187.067 283.484 187.336C283.743 187.604 284.096 187.755 284.463 187.755C284.83 187.755 285.183 187.604 285.442 187.336C285.702 187.067 285.848 186.703 285.848 186.323L299.366 59.7918C299.819 55.3685 299.424 50.8962 298.204 46.6306C296.985 42.365 294.964 38.3897 292.258 34.932C289.552 31.4742 286.213 28.6018 282.432 26.4789C278.652 24.3561 274.504 23.0243 270.225 22.5598Z" fill="black"/>
<path d="M116.989 7.72429C117.283 7.72429 117.565 7.60359 117.772 7.38875C117.98 7.17391 118.097 6.88252 118.097 6.57869C118.097 6.27485 117.98 5.98347 117.772 5.76863C117.565 5.55379 117.283 5.43309 116.989 5.43309L70.2867 0.163332C64.3878 -0.433382 58.442 0.611514 53.0651 3.18977C47.6882 5.76802 43.0758 9.78585 39.7058 14.827C39.5718 15.064 39.5037 15.3348 39.5091 15.6093C39.5145 15.8838 39.5933 16.1514 39.7366 16.3826C39.8799 16.6137 40.0822 16.7994 40.3212 16.9191C40.5602 17.0389 40.8266 17.0879 41.0908 17.0609L116.989 7.72429Z" fill="black"/>
<path d="M24.914 354.669L13.557 255.689C13.4906 255.337 13.3078 255.02 13.04 254.792C12.7721 254.564 12.4359 254.439 12.0889 254.439C11.742 254.439 11.4058 254.564 11.1379 254.792C10.8701 255.02 10.6873 255.337 10.6208 255.689L3.52965 323.28C2.8605 330.41 4.3924 337.576 7.90565 343.75C11.4189 349.924 16.733 354.789 23.0858 357.648C23.3405 357.762 23.6208 357.8 23.8954 357.759C24.17 357.718 24.428 357.598 24.6407 357.414C24.8534 357.23 25.0124 356.988 25.0998 356.716C25.1872 356.443 25.1996 356.151 25.1356 355.872C25.0397 355.476 24.9657 355.074 24.914 354.669Z" fill="black"/>
<path d="M289.56 322.191L255.987 29.4907C255.179 22.4617 251.92 15.9784 246.822 11.2548C241.723 6.53117 235.133 3.89121 228.287 3.82925H224.908L25.468 28.3451C21.7282 28.7143 18.0977 29.854 14.7907 31.6969C11.4836 33.5398 8.56683 36.0487 6.2124 39.0756C3.85798 42.1025 2.11352 45.5861 1.08189 49.3211C0.0502486 53.0561 -0.247685 56.9669 0.205652 60.8229L33.778 353.581C34.5864 360.61 37.8451 367.093 42.944 371.817C48.0428 376.541 54.6321 379.18 61.4781 379.242H64.8574L264.297 354.727C268.043 354.358 271.678 353.216 274.989 351.37C278.3 349.523 281.22 347.009 283.575 343.976C285.93 340.943 287.673 337.452 288.701 333.71C289.729 329.969 290.021 326.052 289.56 322.191ZM151.669 245.093C107.349 215.88 73.7215 175.211 95.3829 146.686C111.006 126.122 140.091 145.254 140.091 145.254C140.091 145.254 163.968 119.535 183.857 135.745C211.39 158.142 188.178 205.856 151.669 245.093Z" fill="black"/>
</svg>
