<svg width="461" height="420" viewBox="0 0 461 420" fill="none" xmlns="http://www.w3.org/2000/svg">
<path d="M87.6158 115.166C81.0679 111.445 75.6625 106.143 71.8365 99.7424C68.0297 106.143 62.6051 111.426 56.0571 115.166C62.6051 118.887 68.0104 124.19 71.8365 130.59C75.6623 124.19 81.0679 118.906 87.6158 115.166Z" fill="black"/>
<path d="M356.318 58.2346C359.42 45.2108 369.813 35.0523 383.137 32.0197C382.737 23.0335 378.397 13.8052 370.974 6.54884C358.62 -5.52622 350.741 0.446534 337.379 13.5071C323.884 26.6981 318.04 34.4193 330.26 46.3453C337.683 53.6198 347.124 57.8441 356.318 58.2346Z" fill="black"/>
<path d="M376.096 81.1921C384.509 89.4158 398.214 89.4158 406.645 81.1921C420.293 67.852 410.452 45.1536 391.38 45.1536C372.251 45.1536 362.448 67.8706 376.096 81.1921Z" fill="black"/>
<path d="M105.508 164.101C102.996 167.71 99.8171 170.818 96.1246 173.274C99.8172 175.729 102.996 178.837 105.508 182.446C108.021 178.837 111.2 175.729 114.892 173.274C111.2 170.818 108.021 167.71 105.508 164.101Z" fill="black"/>
<path d="M412.734 126.983C420.215 134.295 425.087 134.072 428.513 133.067C436.965 130.574 449.489 117.197 455.142 110.517C462.203 101.549 462.07 95.5586 453.467 87.1491C445.777 79.6327 435.67 75.316 426.153 75.2417C424.592 81.0654 421.489 86.5723 416.826 91.1305C412.162 95.6888 406.528 98.7217 400.571 100.247C400.628 109.587 405.044 119.448 412.734 126.983Z" fill="black"/>
<path d="M425.184 147.65C408.11 147.65 386.678 125.993 386.164 101.062C370.785 98.8854 358.583 87.2944 355.919 72.2982C331.536 71.3307 311.094 52.0742 309.304 36.948C282.447 41.376 256.655 52.3533 234.289 69.0422C231.7 70.9586 228.141 70.9586 225.552 69.0422C166.967 25.3568 84.9105 23.3287 38.7122 64.4467C13.1304 87.2008 -1.2973 124.355 0.0919111 163.816C1.76691 211.055 25.1217 255.446 64.178 285.643C64.2732 285.718 64.3493 285.792 64.4445 285.867C112.144 326.52 163.039 369.89 215.251 414.372C223.606 421.497 236.226 421.497 244.582 414.372C280.728 383.58 395.315 285.919 395.656 285.643C451.902 242.162 466.671 178.31 456.926 129.561C448.075 138.212 437.72 147.645 425.177 147.645L425.184 147.65ZM65.5326 148.599L59.8223 138.384C51.0665 122.737 33.9169 124.877 33.9169 115.184C33.9169 112.616 35.3445 110.234 37.6666 109.006L48.1162 103.425C58.9278 97.6387 61.0021 88.6705 65.5323 81.768C68.2542 76.8936 75.4298 76.8936 78.1712 81.768L83.8815 91.9822C89.8009 102.55 98.9568 104.578 106.037 109.006C111.024 111.667 111.024 118.68 106.037 121.36C98.8043 125.881 89.8014 127.779 83.8815 138.384L78.1712 148.598C75.4303 153.473 68.2545 153.473 65.5326 148.599ZM132.991 179.446L124.806 183.819C112.567 190.349 114.68 203.801 105.487 203.801C102.86 203.801 100.423 202.405 99.1671 200.135L94.6941 192.135C90.2973 184.284 83.4829 182.851 78.0011 179.428C73.0144 176.767 73.0144 169.753 78.0011 167.073C83.6735 163.538 90.3545 162.143 94.6941 154.366L99.1671 146.365C101.889 141.491 109.065 141.491 111.806 146.365L116.279 154.366C122.96 166.292 136.722 164.264 136.722 173.25C136.741 175.836 135.294 178.218 132.991 179.446ZM425.544 225.978C420.082 235.076 413.572 243.653 406.167 251.43C403.465 254.277 398.915 254.445 395.984 251.784C393.072 249.142 392.901 244.677 395.623 241.83C402.304 234.797 408.204 227.076 413.115 218.853C415.133 215.504 419.529 214.369 422.974 216.341C426.401 218.313 427.562 222.629 425.544 225.978ZM438.164 199.577C436.66 203.168 432.453 204.898 428.78 203.447C425.106 201.977 423.336 197.865 424.821 194.274C426.324 190.684 430.531 188.953 434.205 190.405C437.897 191.856 439.667 195.968 438.164 199.577Z" fill="black"/>
</svg>
