<svg width="361" height="452" viewBox="0 0 361 452" fill="none" xmlns="http://www.w3.org/2000/svg">
<path d="M54.4137 130.074C49.3608 134.232 42.9475 139.475 36.632 148.696C23.5142 167.952 0 209.083 0 257.448C0 277.697 4.08083 299.122 14.8668 320.818C56.4538 404.348 165.183 446.474 166.349 446.835L178.884 451.355C180.05 451.808 181.216 451.988 182.382 451.988C183.548 451.988 184.714 451.808 185.88 451.355L198.511 446.835C203.176 445.208 314.14 404.528 350.092 320.366C362.723 290.805 364.278 259.888 354.464 233.221C350.675 223.005 349.703 211.434 351.258 196.789C353.201 178.619 343.095 160.087 332.99 148.877C322.691 137.306 308.116 113.531 319.484 97.7105C321.913 94.2753 321.525 89.7553 318.61 86.682C315.694 83.6082 310.933 82.7949 306.95 84.603C305.492 85.3258 269.249 102.773 269.249 138.391C269.249 140.922 270.318 143.272 272.261 144.99C274.205 146.708 275.273 150.143 274.982 154.121C274.593 159.002 272.456 163.612 269.54 165.511C263.613 169.579 253.411 167.771 248.747 162.075C244.763 157.013 243.5 149.51 244.86 137.668C246.706 120.763 251.37 104.22 258.56 88.5806C260.115 85.1454 259.241 81.2577 256.423 78.6363C253.605 76.0149 249.33 75.2915 245.638 76.7377C225.33 85.1454 209.297 100.784 200.358 119.497C199.969 113.079 200.358 105.756 201.427 97.4396C201.815 94.6372 202.204 91.7444 202.69 88.942C205.216 71.6753 207.84 53.8668 201.913 36.2386C197.152 21.9553 187.046 9.66103 173.637 1.43487C170.139 -0.644706 165.572 -0.46373 162.268 1.97725C158.965 4.32774 157.702 8.48578 159.159 12.102C163.046 22.0458 167.127 32.442 167.419 42.5668C167.807 52.4206 164.212 61.1891 157.896 65.7996C155.564 67.4268 152.649 68.8729 149.54 70.3196C146.527 71.7658 143.321 73.303 140.114 75.2915C127.191 83.6082 118.835 98.4339 117.377 115.791C116.989 121.034 117.086 126.096 117.572 131.159C115.434 126.82 113.977 121.757 113.393 116.152C110.187 85.0549 85.3126 65.3477 84.2433 64.5339C81.2312 62.1834 76.8592 61.7315 73.3607 63.5396C69.8629 65.3477 67.9194 68.9634 68.4057 72.6701C70.9315 90.6596 72.4865 107.835 64.1304 120.401C61.5067 124.288 58.3973 126.82 54.4137 130.074ZM124.277 211.705H125.734C144.39 211.705 162.463 218.937 175.289 231.683C178.981 235.3 185.783 235.3 189.475 231.683C202.69 218.666 221.151 211.343 240.487 211.705C265.265 212.248 285.087 221.288 296.456 237.198C308.601 254.283 309.767 277.788 299.565 301.653C275.273 358.334 199.581 391.421 182.382 398.291C165.183 391.421 89.4907 358.424 65.199 301.653C54.9967 277.788 56.1626 254.283 68.3084 237.198C79.6768 221.288 99.4986 212.248 124.277 211.705Z" fill="black"/>
</svg>
