<svg width="818" height="819" viewBox="0 0 818 819" fill="none" xmlns="http://www.w3.org/2000/svg">
<path d="M386.247 218.065C417.722 202.96 450.727 191.941 484.579 185.235C442.021 75.2755 355.767 0 256.359 0C114.773 0 0 152.611 0 340.8C0 484.758 67.0936 607.836 162.011 657.836C140.941 577.747 149.495 491.888 185.851 418.548C229.466 328.706 300.23 257.911 386.247 218.065ZM256.359 49.3136C301.447 49.3136 337.997 74.451 337.997 105.427C337.997 136.402 301.447 161.541 256.359 161.541C211.272 161.541 174.721 136.403 174.721 105.427C174.721 74.451 211.272 49.3136 256.359 49.3136Z" fill="black"/>
<path d="M799.817 391.769C742.636 251.074 567.759 198.636 409.22 274.645C250.68 350.654 168.51 526.327 225.691 667.022C282.871 807.716 457.748 860.154 616.289 784.145C774.829 708.137 856.997 532.463 799.817 391.769ZM743.993 515.466C717.894 527.978 681.976 501.8 663.766 456.995C645.557 412.191 651.952 365.726 678.05 353.213C704.149 340.701 740.068 366.88 758.277 411.684C776.486 456.489 770.091 502.954 743.993 515.466Z" fill="black"/>
</svg>
