<svg width="455" height="454" viewBox="0 0 455 454" fill="none" xmlns="http://www.w3.org/2000/svg">
<path d="M356.598 200.633C371.513 197.847 391.904 194.04 416.62 171.88C451.627 140.51 461.087 91.9333 450.029 63.0995C442.934 44.6396 427.998 34.0485 409.035 34.0485C393.758 34.0485 382.039 37.6852 373.112 42.7683C373.304 40.6416 373.474 38.5574 373.623 36.5584C374.326 27.158 371.066 17.8431 364.675 10.9314C358.24 3.99844 349.099 0.0212726 339.617 0.0212726L114.808 0C105.327 0 96.186 3.97701 89.7731 10.9101C83.3596 17.8006 80.1 27.1373 80.8031 36.5371C80.9522 38.5363 81.1227 40.6205 81.2932 42.7471C72.3657 37.6854 60.6466 34.0272 45.3701 34.0272C26.4068 34.0272 11.4712 44.6183 4.37588 63.0783C-6.68212 91.9169 2.77786 140.515 37.785 171.858C62.5006 194.019 82.9126 197.826 97.8286 200.611C111.785 203.227 116.003 204.014 120.052 216.307C122.161 222.73 119.242 231.002 112.956 236.426C109.803 239.127 103.432 243.125 95.9533 239.382C90.3068 236.574 83.5104 238.85 80.6975 244.443C77.885 250.036 80.1648 256.863 85.7686 259.671C90.9674 262.266 96.4856 263.52 102.047 263.52C111.103 263.52 120.179 260.139 127.786 253.589C133.262 248.867 137.331 243.04 139.995 236.766C161.004 264.648 189.192 283.533 227.202 283.533C265.212 283.533 293.426 264.647 314.409 236.766C317.052 243.019 321.143 248.868 326.618 253.589C334.225 260.139 343.302 263.52 352.379 263.52C357.918 263.52 363.48 262.244 368.657 259.671C374.261 256.864 376.541 250.058 373.728 244.443C370.916 238.85 364.098 236.575 358.472 239.382C351.036 243.146 344.601 239.148 341.469 236.426C335.184 231.002 332.244 222.73 334.374 216.307C338.401 204.014 342.62 203.228 356.597 200.611L356.598 200.633ZM368.977 79.2162C371.002 74.1971 380.142 56.7154 409.013 56.7154C418.579 56.7154 425.057 61.458 428.785 71.2199C436.925 92.4233 428.785 130.494 401.428 155.015C381.442 172.923 366.016 175.815 352.4 178.346C349.78 178.835 347.18 179.367 344.581 179.962C357.194 146.573 364.631 110.246 368.999 79.2182L368.977 79.2162ZM102.005 178.321C88.3896 175.769 72.9423 172.898 52.9776 154.991C25.6197 130.47 17.4592 92.4015 25.6197 71.1954C29.3484 61.4335 35.8257 56.6909 45.3925 56.6909C74.3059 56.6909 83.4254 74.2367 85.4277 79.2129C89.7956 110.221 97.2106 146.544 109.824 179.935C107.225 179.34 104.604 178.811 102.005 178.321ZM282.092 113.734L262.468 136.001L265.238 165.52C265.792 171.347 259.869 175.643 254.478 173.304L227.205 161.543L199.932 173.304C194.542 175.622 188.64 171.347 189.172 165.499L191.942 135.979L172.318 113.713C168.44 109.31 170.699 102.377 176.43 101.101L205.429 94.5934L220.578 69.0939C223.561 64.0535 230.869 64.0535 233.873 69.0939L249.022 94.5934L278.021 101.101C283.752 102.377 286.011 109.332 282.133 113.713L282.092 113.734Z" fill="black"/>
<path d="M284.876 340.272C277.909 325.13 275.118 310.604 276.887 296.184C262.164 302.565 245.715 306.244 227.199 306.244C208.683 306.244 192.213 302.565 177.511 296.184C179.301 310.582 176.51 325.108 169.522 340.272H284.876Z" fill="black"/>
<path d="M345.133 425.51L333.776 380.147C331.241 370.045 322.143 362.963 311.724 362.963H142.676C132.236 362.963 123.16 370.045 120.624 380.147L109.267 425.51C105.666 439.823 116.533 453.689 131.32 453.689H323.102C337.889 453.689 348.734 439.823 345.155 425.51H345.133ZM272.647 419.683H181.731C175.467 419.683 170.375 414.6 170.375 408.348C170.375 402.095 175.467 397.012 181.731 397.012H272.647C278.911 397.012 284.004 402.095 284.004 408.348C284.004 414.6 278.911 419.683 272.647 419.683Z" fill="black"/>
</svg>
