<svg width="442" height="374" viewBox="0 0 442 374" fill="none" xmlns="http://www.w3.org/2000/svg">
<path d="M324.642 1.02686e-05C285.687 -0.0144331 248.318 15.2083 220.736 42.3272C197.147 19.2254 166.344 4.64165 133.308 0.933632C132.471 0.77268 131.62 0.693082 130.768 0.695983C126.248 0.288583 121.642 1.02686e-05 116.829 1.02686e-05C51.3119 1.02686e-05 0 57.4943 0 130.894C0 166.788 15.5658 290.29 215.777 372.389C217.348 373.033 219.034 373.365 220.736 373.365C222.438 373.365 224.123 373.033 225.695 372.389C425.906 290.29 441.472 166.788 441.472 130.894C441.472 57.4943 390.16 1.02686e-05 324.642 1.02686e-05ZM233.65 341.155C64.9836 265.311 51.6476 161.263 51.6476 130.92C51.6476 76.3536 84.7765 32.7108 130.639 26.2943C161.816 29.7621 190.396 45.0663 210.318 68.9609C211.574 70.4983 213.163 71.7386 214.969 72.5908C216.774 73.443 218.751 73.8854 220.753 73.8854C222.755 73.8854 224.732 73.443 226.537 72.5908C228.343 71.7386 229.932 70.4983 231.188 68.9609C242.563 55.3857 256.837 44.4524 272.991 36.9408C289.145 29.4292 306.781 25.5244 324.642 25.5049C376.522 25.5049 415.643 70.8282 415.643 130.937C415.643 161.746 402.092 265.565 233.65 341.155Z" fill="black"/>
</svg>
