<svg width="825" height="801" viewBox="0 0 825 801" fill="none" xmlns="http://www.w3.org/2000/svg">
<path d="M159.088 74.8299L0 130.397L24.4591 168.412L162.996 120.025L159.088 74.8299Z" fill="black"/>
<path d="M380.821 709.402H444.179L452.774 696.046L463.223 665.395H361.776L372.226 696.046L380.821 709.402Z" fill="black"/>
<path d="M302.443 652.999C300.862 652.999 299.257 653.259 297.679 653.809L243.64 672.683C239.944 673.975 236.97 676.645 235.264 680.201C233.567 683.74 233.33 687.739 234.597 691.457C237.224 699.163 245.563 703.268 253.187 700.605L307.225 681.731C310.922 680.439 313.896 677.769 315.602 674.212C317.299 670.674 317.536 666.676 316.267 662.958C314.185 656.845 308.506 652.999 302.443 652.999Z" fill="black"/>
<path d="M369.304 607.84C369.304 615.984 375.83 622.611 383.852 622.611H441.148C449.17 622.611 455.696 615.984 455.696 607.84C455.696 599.696 449.17 593.069 441.148 593.069H383.852C375.83 593.069 369.304 599.696 369.304 607.84Z" fill="black"/>
<path d="M318.111 579.671C317.753 580.793 317.413 581.923 317.033 583.037C312.457 596.445 306.263 609.324 298.619 621.316C297.312 623.365 295.12 624.481 292.884 624.481C291.615 624.481 290.331 624.121 289.185 623.37C286.023 621.292 285.115 617.002 287.162 613.792C294.211 602.731 299.922 590.859 304.14 578.502C306.632 571.197 308.6 563.642 310.048 556.024L301.614 531.285C299.773 541.104 297.311 550.8 294.235 560.305C287.723 580.431 278.516 599.566 266.877 617.179C265.562 619.17 263.404 620.248 261.205 620.248C259.899 620.248 258.577 619.867 257.41 619.072C254.28 616.94 253.446 612.637 255.546 609.461C266.491 592.899 275.146 574.905 281.272 555.981C286.949 538.439 290.392 520.204 291.549 501.763L166.038 133.612L30.3367 181.009L49.8153 238.146C52.0889 229.32 55.0755 220.687 58.7597 212.314C65.2617 197.536 73.8428 183.798 84.2626 171.481C86.7154 168.579 91.0238 168.246 93.8842 170.74C96.7429 173.232 97.0687 177.606 94.6142 180.508C85.0541 191.808 77.1825 204.409 71.2195 217.963C64.6783 232.828 60.5541 248.586 58.9081 264.814L66.4249 286.862C67.4466 281.26 68.7361 275.703 70.3411 270.219C75.3813 252.999 83.1557 236.839 93.4459 222.188C95.6325 219.073 99.8932 218.351 102.962 220.571C106.03 222.793 106.743 227.119 104.556 230.234C95.1413 243.635 88.0321 258.415 83.42 274.167C79.1508 288.758 77.1432 303.874 77.4178 319.108L221.668 742.219L357.37 694.821L318.111 579.671ZM311.665 694.832L257.627 713.705C254.589 714.767 251.49 715.271 248.442 715.271C236.721 715.271 225.738 707.823 221.702 695.988C219.243 688.767 219.702 681.007 222.997 674.136C226.301 667.247 232.057 662.08 239.204 659.585L293.243 640.711C307.969 635.561 324.082 643.518 329.165 658.428C331.627 665.647 331.168 673.407 327.872 680.278C324.569 687.167 318.814 692.336 311.665 694.832Z" fill="black"/>
<path d="M485.778 44.0075L496.647 0H328.353L339.222 44.0075H485.778Z" fill="black"/>
<path d="M430.234 66.6511C444.056 74.8524 456.591 85.0054 467.497 96.8259C473.68 103.526 479.283 110.7 484.279 118.294V57.8611H340.721V447.3C347.757 464.35 356.889 480.45 367.911 495.159C379.796 511.021 393.779 525.174 409.469 537.223C412.474 539.532 413.066 543.875 410.794 546.928C409.452 548.729 407.412 549.676 405.348 549.676C403.914 549.676 402.469 549.219 401.238 548.273C384.556 535.462 369.688 520.414 357.051 503.547C351.079 495.576 345.625 487.222 340.721 478.547V504.7C344.547 511.428 348.845 517.92 353.553 524C361.527 534.295 370.754 543.634 380.976 551.757C383.944 554.114 384.468 558.468 382.146 561.481C380.8 563.226 378.795 564.139 376.768 564.139C375.298 564.139 373.818 563.659 372.569 562.667C361.484 553.86 351.477 543.731 342.826 532.563C342.108 531.637 341.422 530.677 340.721 529.734V603.634L357.054 651.541H467.947L484.281 603.634V203.959C479.629 189.466 472.86 175.84 464.12 163.456C454.689 150.093 443.202 138.466 429.98 128.9C426.911 126.68 426.195 122.356 428.381 119.239C430.568 116.122 434.83 115.398 437.897 117.618C452.347 128.073 464.901 140.78 475.212 155.388C478.497 160.045 481.507 164.873 484.279 169.832V146.526C477.494 131.728 468.515 118.193 457.539 106.297C447.536 95.4527 436.031 86.1379 423.348 78.612C420.095 76.6811 418.999 72.4402 420.9 69.1361C422.802 65.8338 426.978 64.7203 430.234 66.6511ZM441.148 579.215C456.693 579.215 469.341 592.056 469.341 607.84C469.341 623.624 456.693 636.465 441.148 636.465H383.852C368.307 636.465 355.659 623.624 355.659 607.84C355.659 592.056 368.307 579.215 383.852 579.215H441.148Z" fill="black"/>
<path d="M533.449 501.76C534.604 520.201 538.05 538.435 543.726 555.977C549.853 574.901 558.507 592.894 569.452 609.457C571.552 612.633 570.718 616.937 567.588 619.068C566.421 619.863 565.1 620.244 563.793 620.244C561.594 620.244 559.437 619.167 558.122 617.175C546.482 599.562 537.275 580.427 530.763 560.302C527.686 550.796 525.223 541.101 523.384 531.282L514.95 556.021C516.396 563.64 518.365 571.196 520.858 578.498C525.076 590.855 530.787 602.728 537.836 613.788C539.883 616.999 538.978 621.288 535.814 623.366C534.669 624.12 533.383 624.478 532.114 624.478C529.876 624.478 527.684 623.363 526.38 621.313C518.737 609.321 512.542 596.44 507.965 583.033C507.585 581.92 507.246 580.789 506.887 579.667L467.628 694.819L603.33 742.218L747.58 319.106C747.855 303.872 745.848 288.756 741.578 274.163C736.968 258.414 729.857 243.634 720.442 230.232C718.255 227.117 718.968 222.791 722.037 220.569C725.103 218.349 729.366 219.073 731.552 222.187C741.843 236.837 749.617 252.997 754.657 270.217C756.262 275.701 757.552 281.258 758.573 286.86L766.09 264.812C764.444 248.583 760.32 232.826 753.779 217.961C747.816 204.407 739.946 191.806 730.384 180.507C727.93 177.604 728.255 173.232 731.114 170.738C733.971 168.244 738.28 168.577 740.736 171.479C751.155 183.795 759.738 197.534 766.239 212.313C769.923 220.685 772.908 229.318 775.183 238.144L794.662 181.007L658.96 133.611L533.449 501.76ZM603.296 695.988C599.26 707.823 588.278 715.271 576.556 715.271C573.508 715.271 570.409 714.767 567.371 713.705L513.333 694.832C506.185 692.336 500.43 687.167 497.126 680.278C493.831 673.409 493.372 665.647 495.833 658.428C500.916 643.518 517.036 635.568 531.756 640.711L585.794 659.585C592.941 662.08 598.698 667.249 602.001 674.136C605.297 681.007 605.755 688.769 603.296 695.988Z" fill="black"/>
<path d="M665.912 74.8299L662.005 120.025L800.539 168.412L825 130.397L665.912 74.8299Z" fill="black"/>
<path d="M581.358 672.685L527.319 653.811C525.742 653.261 524.137 652.999 522.555 652.999C516.492 652.999 510.814 656.845 508.731 662.96C507.462 666.679 507.699 670.676 509.396 674.216C511.102 677.773 514.077 680.443 517.773 681.735L571.811 700.608C579.437 703.27 587.775 699.166 590.401 691.46C591.669 687.742 591.431 683.744 589.734 680.204C588.029 676.645 585.054 673.975 581.358 672.685Z" fill="black"/>
<path d="M437.293 745.435L596.38 801L600.287 755.806L461.752 707.419L437.293 745.435Z" fill="black"/>
<path d="M224.711 755.806L228.619 801L387.707 745.435L363.248 707.419L224.711 755.806Z" fill="black"/>
</svg>
