<svg width="813" height="671" viewBox="0 0 813 671" fill="none" xmlns="http://www.w3.org/2000/svg">
<path d="M727.61 121.498C716.468 119.379 705.326 119.929 694.946 121.655C694.51 114.554 694.075 108.866 693.821 104.707C688.921 17.4988 474.711 1.8479 347.791 0C220.834 1.84378 8.18202 17.2216 1.76168 104.396C-2.95657 158.063 -6.94898 333.495 113.583 462.255C204.138 561.155 354.36 567.153 472.9 532.712C540.951 513.215 594.663 458.057 631.215 396.902C708.849 397.02 793.74 353.788 811.31 259.204C820.238 201.653 793.997 133.828 727.651 121.545L727.61 121.498ZM347.751 46.2544C530.02 46.2544 640.141 83.5618 650.696 104.394C640.135 125.342 530.02 162.533 347.751 162.533C165.594 162.533 55.3608 125.383 44.8057 104.394C55.3673 83.5628 165.631 46.2544 347.751 46.2544ZM769.059 251.471C758.788 310.473 704.492 343.191 655.453 348.801C683.763 283.09 692.764 217.38 694.761 169.324C744.702 152.926 778.419 205.887 769.055 251.511L769.059 251.471Z" fill="black"/>
<path d="M640.476 461.782C569.593 561.427 461.143 597.984 347.946 597.914C253.146 597.561 150.319 571.473 83.653 495.245C73.5272 484.457 64.1262 473.198 55.4156 461.782C27.9047 485.36 20.6091 509.564 20.6091 528.551C20.6091 621.056 189.201 671 347.805 671C506.409 671 675.001 621.06 675.001 528.551C675.001 509.76 667.733 485.556 640.476 461.782Z" fill="black"/>
</svg>
