<svg width="820" height="821" viewBox="0 0 820 821" fill="none" xmlns="http://www.w3.org/2000/svg">
<path d="M819.088 199.987C814.783 171.87 786.696 169.407 776.856 140.676C767.016 112.969 787.311 93.4712 756.971 63.098C726.629 32.7235 707.154 53.042 679.478 43.1913C650.983 33.3393 648.317 5.2225 620.231 0.91353C577.795 -5.44922 575.131 23.4885 545.404 24.1055C520.392 24.3095 517.113 14.4588 484.31 22.053C472.215 24.9265 458.481 35.1877 448.433 52.0169C461.554 55.2997 473.24 62.4834 481.85 72.7459C493.946 68.6409 506.861 66.5884 520.186 66.5884C584.763 66.5884 637.861 116.666 642.781 180.083C698.134 198.963 742.826 221.334 750 245.963C756.971 269.975 745.08 298.503 728.475 326.825C747.951 334.829 762.711 351.042 768.246 371.566C768.246 371.771 768.246 371.771 768.246 371.975C785.057 361.714 795.307 348.169 797.972 336.059C805.557 303.223 795.716 299.939 796.127 274.899C796.537 245.14 825.442 242.471 819.088 199.987ZM520.186 87.1097C510.756 87.1097 501.736 88.3412 493.126 90.8055C494.765 94.2934 495.995 97.9879 496.817 101.888C497.637 105.376 498.252 108.661 498.866 112.149C505.631 110.098 512.806 109.07 520.186 109.07C564.673 109.07 600.755 145.192 600.755 189.727C600.755 202.453 597.885 214.356 592.554 225.028L593.99 226.464C599.115 231.596 603.829 237.136 607.52 243.088C617.156 227.491 622.69 209.43 622.69 189.727C622.689 133.082 576.769 87.1097 520.186 87.1097ZM730.318 251.706C726.219 237.545 694.238 219.895 642.575 202.246C640.32 224.616 631.914 245.55 618.794 262.789C625.764 277.977 629.455 294.396 629.66 310.813C655.902 312.455 681.936 315.945 707.768 321.28C723.349 295.627 735.444 269.767 730.318 251.706ZM688.292 238.162C686.653 241.857 682.961 244.113 679.066 244.113C677.632 244.113 676.197 243.908 674.762 243.292C669.636 240.829 666.561 234.468 669.021 229.337C671.278 224.205 676.606 221.537 681.731 223.795C681.731 223.795 683.166 224.409 683.166 224.616C688.498 226.872 690.752 233.031 688.292 238.162ZM719.864 262.379C718.019 264.225 715.559 265.048 713.099 265.048C710.228 265.048 707.358 263.816 705.514 261.353C704.489 260.326 702.234 258.274 696.699 254.58C691.78 251.706 690.344 245.344 693.419 240.419C696.494 235.699 702.85 234.263 707.564 237.34C713.51 241.035 718.019 244.524 720.891 248.013C724.579 252.323 724.169 258.685 719.864 262.379ZM579.434 240.829C560.368 221.741 535.563 211.89 510.757 211.276C511.782 247.396 509.117 282.491 503.786 316.764C533.307 312.045 563.445 309.582 594.401 309.582C599.321 309.582 604.036 309.582 608.955 309.787C608.34 284.749 598.499 259.916 579.434 240.829ZM520.186 129.593C514.241 129.593 508.502 130.415 502.966 132.056C506.245 151.964 508.502 171.461 509.732 190.753C532.898 190.957 555.859 197.936 575.949 211.686C578.819 204.914 580.254 197.525 580.254 189.726C580.254 156.478 553.398 129.593 520.186 129.593ZM476.724 106.401C468.524 70.4844 423.833 57.7601 398.616 84.8519L39.4433 473.359C-13.8594 530.825 -12.8343 619.691 40.6734 676.129C36.983 662.789 35.5478 648.834 35.9578 634.878C37.188 594.447 54.6138 557.711 84.75 531.03C179.054 448.322 318.049 352.683 482.055 320.667C493.535 253.143 493.74 181.107 476.724 106.401ZM123.907 476.848C118.371 476.848 113.657 472.127 113.657 466.587C113.657 460.84 118.371 456.325 123.907 456.325C129.647 456.325 134.157 460.84 134.157 466.587C134.157 472.127 129.647 476.848 123.907 476.848ZM251.012 353.092C245.272 353.092 240.762 348.373 240.762 342.831C240.762 337.085 245.272 332.57 251.012 332.57C256.752 332.57 261.262 337.085 261.262 342.831C261.262 348.372 256.752 353.092 251.012 353.092ZM409.277 241.445C403.537 241.445 399.027 236.726 399.027 231.184C399.027 225.438 403.537 220.923 409.277 220.923C415.018 220.923 419.527 225.438 419.527 231.184C419.527 236.724 415.018 241.445 409.277 241.445ZM713.714 343.651C450.485 283.517 221.695 438.265 98.2816 546.627C44.1588 594.036 42.3136 677.771 93.156 728.668L141.948 777.514C198.12 833.953 288.733 835.595 347.16 781.619C462.375 674.898 643.397 507.017 735.445 421.641C762.505 396.601 749.794 351.861 713.714 343.651ZM187.458 638.982C181.719 638.982 177.208 634.467 177.208 628.72C177.208 622.975 181.719 618.459 187.458 618.459C193.199 618.459 197.708 622.975 197.708 628.72C197.71 634.467 193.199 638.982 187.458 638.982ZM368.686 645.138C363.151 645.138 358.436 640.624 358.436 634.877C358.436 629.131 363.151 624.615 368.686 624.615C374.426 624.615 378.936 629.131 378.936 634.877C378.936 640.624 374.426 645.138 368.686 645.138ZM433.263 480.952C427.523 480.952 423.013 476.232 423.013 470.69C423.013 464.945 427.523 460.429 433.263 460.429C439.003 460.429 443.513 464.945 443.513 470.69C443.513 476.232 439.003 480.952 433.263 480.952ZM626.585 428.823C621.05 428.823 616.335 424.104 616.335 418.562C616.335 412.816 621.05 408.301 626.585 408.301C632.325 408.301 636.835 412.816 636.835 418.562C636.836 424.102 632.325 428.823 626.585 428.823Z" fill="black"/>
</svg>
