<svg width="814" height="822" viewBox="0 0 814 822" fill="none" xmlns="http://www.w3.org/2000/svg">
<path d="M0.0787236 675.217C0.0787236 756.304 53.6648 822 119.794 822H694.284C760.418 822 814 756.298 814 675.217C814 658.791 803.502 645.833 790.035 645.833H752.674C777.098 594.78 766.529 535.45 733.02 499.05C777.098 451.464 777.098 369.896 733.02 322.966C800.074 251.284 757.905 117.491 670.315 117.491H526.702V88.1077C526.702 39.3952 494.677 0 454.841 0H359.123C319.394 0 287.263 39.2654 287.263 88.1077V117.491H143.65C55.5297 117.491 13.8899 251.282 80.9442 322.966C36.8666 370.552 36.8666 452.119 80.9442 499.05C47.4709 535.454 36.8666 594.699 61.2911 645.833H23.9648C10.5681 645.833 0 658.705 0 675.217H0.0787236ZM478.851 117.484H335.237V88.1011C335.237 71.6753 345.736 58.7178 359.202 58.7178H454.92C468.317 58.7178 478.885 71.5899 478.885 88.1011V117.484H478.851ZM622.464 264.268C622.464 280.693 611.966 293.651 598.499 293.651C558.77 293.651 526.639 332.916 526.639 381.759V528.542C526.639 544.968 516.141 557.925 502.674 557.925C489.208 557.925 478.709 545.053 478.709 528.542V381.759C478.709 333.046 446.685 293.651 406.849 293.651C367.049 293.651 334.989 332.916 334.989 381.759V440.44C334.989 456.866 324.491 469.823 311.024 469.823C297.558 469.823 287.06 456.951 287.06 440.44V381.759C287.06 333.046 255.035 293.651 215.199 293.651C201.803 293.651 191.235 280.779 191.235 264.268V176.16H622.147V264.268H622.464ZM119.233 763.309C88.0928 763.309 61.759 738.692 51.7211 704.628H761.807C752.228 738.692 725.436 763.309 694.295 763.309H119.697H119.233Z" fill="black"/>
</svg>
