<svg width="821" height="637" viewBox="0 0 821 637" fill="none" xmlns="http://www.w3.org/2000/svg">
<path d="M814.897 109.974C791.199 42.6604 705.573 1.13035 590.931 0.00068154C578.779 -0.115446 571.438 14.6328 578.066 25.7035L623.892 102.346C630.912 114.075 628.061 129.79 617.406 137.726L614.983 139.545C610.244 143.067 603.794 141.867 600.408 136.835L545.922 55.432C524.47 23.3813 487.66 8.09215 452.061 16.53C431.571 21.3685 410.653 27.3291 389.451 34.4133C379.687 37.7035 375.41 50.0899 380.97 59.3799L452.702 179.332C459.722 191.061 456.872 206.776 446.217 214.712L443.794 216.531C439.054 220.053 432.604 218.853 429.219 213.821L358.235 107.801C338.601 78.4608 302.466 68.8606 272.427 84.6928C257.318 92.6667 242.173 101.222 227.028 110.434C216.444 116.86 206.289 123.633 196.524 130.602C188.863 136.06 187.295 147.594 193.21 155.22L264.231 246.998C272.534 257.72 271.464 273.668 261.807 282.958C257.496 287.1 250.975 286.751 247.055 282.222L159.322 180.226C153.727 173.723 144.284 173.064 138.155 178.987C-2.31314 314.229 -33.3205 502.665 34.4596 589.412C118.379 696.749 274.208 606.714 488.869 475.96C703.53 345.246 853.768 220.527 814.852 109.968L814.897 109.974Z" fill="black"/>
</svg>
