<svg width="775" height="500" viewBox="0 0 775 500" fill="none" xmlns="http://www.w3.org/2000/svg">
<path d="M774.996 60.7009C774.996 49.9995 774.996 29.9453 655.753 14.5232C584.081 5.21567 488.761 0 387.498 0C286.274 0 190.949 5.17089 119.243 14.5232C0 29.9453 0 49.9994 0 60.7009C0 62.7693 -2.45402e-06 65.1973 0.870356 67.9402C0.491936 92.1312 0.983881 114.342 2.53544 135.386C3.70849 151.843 5.26004 168.3 7.37916 184.173C14.0772 234.353 25.5809 283.273 41.664 329.542C52.0325 359.353 64.5206 388.715 78.6729 416.772C85.9385 431.026 99.7887 439.928 114.888 439.928H168.055V441.637C168.055 473.742 190.041 500 217.173 500H568.915C595.934 500 618.033 473.742 618.033 441.637L618.071 439.973H660.112C675.211 439.973 689.061 431.115 696.251 416.952C710.48 388.76 723.005 359.398 733.336 329.587C749.419 283.32 760.961 234.399 767.621 184.218C769.74 168.345 771.291 151.888 772.465 135.431C774.016 114.254 774.508 92.0416 774.13 67.9852C775 65.1974 774.996 62.7693 774.996 60.7009ZM387.498 23.0665C597.706 23.0665 729.552 44.0195 753.315 60.7009C729.551 77.2477 597.715 98.2008 387.498 98.2008C177.28 98.2008 45.4438 77.2477 21.6805 60.6561C45.4448 44.0195 177.28 23.0665 387.498 23.0665Z" fill="black"/>
</svg>
