<svg width="813" height="799" viewBox="0 0 813 799" fill="none" xmlns="http://www.w3.org/2000/svg">
<path d="M810.043 378.673H25.0663L272.522 216.772C271.217 242.097 279.015 267.422 294.646 288.572C315.464 316.784 347.961 334.421 383.74 336.021C395.772 336.647 408.792 336.995 421.459 336.995C486.172 336.995 535.292 327.394 568.777 307.182C600.003 288.258 621.14 258.133 628.302 222.546C630.595 210.997 631.23 199.447 630.595 187.933C643.615 186.02 656.283 181.185 666.692 173.497C678.406 165.148 683.91 151.059 681.97 136.935C751.516 200.735 793.788 291.142 810.056 378.674L810.043 378.673ZM433.163 587.71C450.382 566.873 462.767 547.949 469.577 532.26H343.396C350.241 547.983 362.591 566.872 379.81 587.71C393.148 603.747 420.143 603.747 433.163 587.71ZM0.00903224 410.75V500.188H812.969V410.75H0.00903224ZM174.317 593.169C163.908 593.169 154.169 597.657 147.324 605.657C127.811 629.695 117.084 647.993 111.227 661.108H237.408C230.563 645.071 218.213 626.147 201.312 605.657C194.466 597.656 186.031 591.882 174.317 593.169ZM638.662 593.169H638.344C627.935 593.169 618.514 597.657 612.021 605.657C594.803 626.182 582.418 645.106 575.608 661.108H701.788C695.931 647.958 685.205 629.696 665.375 605.657C658.847 597.656 649.07 593.169 638.662 593.169ZM503.728 532.258C496.883 554.069 482.275 579.394 458.211 607.919C445.826 623.608 426.631 632.583 406.483 632.583C386.335 632.583 367.14 623.608 354.438 607.885C330.691 579.046 315.73 554.034 309.238 532.223L0.006323 532.258V661.458H77.0677C83.9129 639.647 98.5208 614.635 122.267 585.484C135.287 569.761 153.812 561.759 174.63 561.133C194.778 561.133 213.655 570.108 226.323 585.484C250.069 614.009 265.03 639.334 271.84 661.458H541.102C547.947 639.333 562.873 614.009 586.619 585.484C599.286 570.108 618.164 561.133 638.312 561.133H638.63C658.777 561.133 677.654 569.795 690.674 585.484C714.739 614.983 729.382 639.682 736.192 661.458H812.972V532.258L503.728 532.258ZM0 771.414C0 786.476 12.6668 799 27.9812 799H785.019C800.297 799 813 786.512 813 771.414V693.526L0.00361376 693.491L0 771.414ZM647.442 147.543C639.961 153.004 621.754 162.292 595.749 152.03C591.197 150.117 586.963 147.856 583.082 145.282C611.38 190.818 598.678 251.381 551.855 279.941C551.22 280.254 550.867 280.567 550.55 280.915C511.207 304.326 442.58 307.214 385.347 304.014C331.361 301.44 293.645 250.164 307.615 198.538C322.258 144.027 345.969 80.5763 381.113 51.0726L382.101 50.0638C424.054 14.7902 486.476 21.8514 521.93 62.2393C520.624 57.7518 519.636 53.2644 519.319 48.1162C517.378 20.5298 531.986 6.44138 539.467 0.979676C542.078 -0.620543 545.324 -0.307425 548.253 2.26678C555.733 9.01541 571.011 25.0175 574.575 49.4033C593.1 38.8281 612.93 44.2896 622.069 47.8031C625.315 49.0902 627.608 52.2906 627.926 55.8041C628.561 65.405 627.608 85.6168 611.659 99.74C634.101 110.629 644.827 129.865 649.061 139.188C650.367 142.389 649.735 145.908 647.442 147.543ZM421.122 100.094C424.369 104.268 429.238 106.494 434.142 106.494C437.706 106.494 440.988 105.52 443.916 103.607L458.241 93.3454C465.404 87.8839 467.027 77.9693 461.805 70.9081C456.618 63.5334 446.527 61.9332 439.047 67.3947L424.721 77.6564C417.523 82.7701 415.9 92.7191 421.122 100.094ZM402.245 211.34C396.706 204.279 386.649 202.679 379.487 207.827L364.844 218.402C357.681 223.516 356.058 233.465 361.28 240.839C364.526 245.014 369.396 247.24 374.618 247.24C377.864 247.24 381.111 246.266 384.039 244.353L398.365 233.778C405.845 228.629 407.467 218.68 402.245 211.34ZM431.849 141.106C426.662 134.044 416.571 132.444 409.408 137.592L394.764 147.854C387.602 153.316 385.978 163.23 391.201 170.291C394.447 174.779 399.316 177.04 404.539 177.04C407.785 177.04 411.031 176.066 413.96 173.84L428.285 163.578C435.73 158.43 437.389 148.167 431.849 141.106ZM478.99 205.218C473.803 198.156 463.712 196.556 456.549 201.705L441.941 211.966C434.778 217.08 433.155 227.342 438.377 234.404C441.623 238.578 446.492 241.152 451.715 241.152C454.961 241.152 458.207 239.865 461.136 237.952L475.461 227.69C482.906 222.228 484.53 212.279 478.99 205.218ZM508.911 134.705C503.724 127.643 493.633 126.043 486.47 131.191L471.827 141.766C464.664 146.88 463.041 156.829 468.263 164.204C471.509 168.378 476.379 170.604 481.283 170.604C484.847 170.604 488.128 169.63 491.021 167.717L505.347 157.142C512.827 152.028 514.451 142.079 508.911 134.705ZM556.052 198.817C550.865 191.755 540.774 190.155 533.611 195.303L519.003 205.878C511.84 210.992 510.217 220.941 515.439 228.003C518.685 232.491 523.555 234.752 528.777 234.752C532.023 234.752 535.269 233.778 538.198 231.551L552.524 221.29C559.969 216.141 561.592 206.191 556.052 198.817Z" fill="black"/>
</svg>
