<svg width="753" height="827" viewBox="0 0 753 827" fill="none" xmlns="http://www.w3.org/2000/svg">
<path d="M733.329 327.511C705.311 247.913 652.631 213.444 613.379 198.55C556.339 176.906 493.622 183.949 463.566 201.554C449.353 209.889 432.159 219.58 412.456 230.37C389.928 242.71 363.072 242.71 340.545 230.37C320.841 219.58 303.647 209.889 289.435 201.554C259.377 183.948 196.657 176.938 139.622 198.55C100.372 213.442 47.6954 247.911 19.6717 327.511C-34.513 481.439 27.1076 692.256 157.003 797.797C163.058 801.253 229.26 837.855 278.832 823.802C318.02 812.688 349.897 808.102 365.393 806.357C369.095 805.937 372.798 805.743 376.531 805.743C380.233 805.743 383.967 805.937 387.638 806.357C403.137 808.101 435.014 812.656 474.199 823.802C523.771 837.854 589.94 801.253 596.028 797.797C725.889 692.256 787.513 481.439 733.329 327.511Z" fill="black"/>
<path d="M266.22 22.0375C341.237 79.4101 363.134 191.604 368.001 223.873C368.817 229.333 369.162 232.596 369.193 232.789C369.57 236.666 372.77 239.573 376.472 239.573C376.723 239.573 376.974 239.573 377.225 239.541C381.241 239.121 384.159 235.406 383.751 231.271C383.689 230.592 383.406 228.04 382.873 224.131C381.649 215.248 379.014 198.934 373.9 178.615C381.084 179.842 388.27 180.521 395.454 180.521C429.998 180.521 463.789 166.565 488.762 140.851C521.863 106.769 534.946 56.5718 522.867 9.8881C522.176 7.27141 520.2 5.23626 517.69 4.55788C472.416 -7.87925 423.659 5.55929 390.527 39.7051C370.008 60.8322 357.207 88.1296 353.285 116.944C336.938 78.5993 312.184 38.4125 274.942 9.94822C271.71 7.46079 267.098 8.17151 264.714 11.4988C262.298 14.8261 262.988 19.5504 266.22 22.0375Z" fill="black"/>
</svg>
