<svg width="793" height="829" viewBox="0 0 793 829" fill="none" xmlns="http://www.w3.org/2000/svg">
<path d="M396.502 517.908C286.815 517.908 183.572 505.342 105.776 482.409C67.7586 471.256 25.0256 454.253 0 430.22C0.809622 448.716 2.78083 471.924 7.04017 497.764C13.0948 534.441 22.3524 569.235 34.7782 601.008C50.1958 640.514 70.4715 675.621 95.0772 705.147C163.191 787.299 264.672 829 396.5 829C528.328 829 629.815 787.375 697.923 705.147C722.423 675.499 742.804 640.51 758.222 601.008C770.648 569.239 779.941 534.446 785.96 497.764C790.184 471.925 792.19 448.599 793 430.22C767.937 454.253 725.239 471.139 687.224 482.409C609.465 505.342 506.189 517.908 396.502 517.908ZM202.757 718.536C200.68 721.756 197.336 723.444 194.097 723.444C191.95 723.444 189.697 722.738 187.796 721.128C146.436 687.67 110.742 642.903 81.9123 588.126C78.9555 582.393 80.6451 575.05 85.7141 571.751C90.8534 568.453 97.4361 570.259 100.393 575.992C127.779 627.868 161.396 670.2 200.437 701.775C205.225 705.702 206.281 713.124 202.866 718.465L202.757 718.536Z" fill="black"/>
<path d="M227.538 212.006C228.348 212.32 247.708 218.839 270.448 233.329C301.072 252.846 323.249 277.783 334.619 305.192C338.139 313.635 340.674 322.392 342.187 331.227C349.227 331.424 356.69 331.424 367.497 328.832C368.834 302.678 377.036 272.049 406.323 261.288C428.957 253.041 444.797 247.622 454.97 244.284C450.113 232.032 443.002 212.633 437.581 191.113C432.794 172.499 430.189 155.927 429.661 141.437C417.059 126.162 400.726 114.184 382.175 106.762C367.497 100.833 351.973 97.8089 335.957 97.8089C269.708 97.8089 215.852 150.194 215.852 214.444V216.368C218.457 212.362 223.139 210.438 227.575 211.93L227.538 212.006Z" fill="black"/>
<path d="M765.79 349.41C752.273 340.064 734.355 331.228 712.425 323.06C712.144 323.06 711.897 322.864 711.616 322.746C707.392 324.553 703.414 326.163 699.823 327.458C700.351 328.244 700.985 329.069 701.548 329.854C712.109 345.051 716.966 361.113 715.699 376.584C713.622 401.717 695.881 423.629 663.074 441.615C657.759 444.521 651.352 442.125 648.748 436.196C646.143 430.266 648.29 423.119 653.605 420.214C671.17 410.553 692.537 394.688 694.332 374.464C696.304 351.452 673.071 331.346 672.79 331.15C669.446 328.323 667.932 323.61 668.812 319.095C669.727 314.579 672.86 310.966 676.908 309.945C677.084 309.945 700.07 304.015 724.324 290.349C745.585 278.294 772.267 257.56 778.85 227.125C782.264 211.261 780.927 198.184 774.802 188.524C763.256 170.42 738.298 167.515 738.052 167.396C734.708 167.004 731.751 165.001 730.026 161.859C728.231 158.757 727.879 154.83 729.041 151.413C729.217 150.706 751.217 81.5531 729.041 37.4124C719.854 19.2306 704.612 7.84254 682.435 2.81605C644.594 -5.82329 610.519 5.44712 581.336 36.195C558.807 59.914 547.648 86.9706 547.437 87.1667C546.17 90.1904 543.917 92.5073 541.136 93.4891C538.356 94.5887 535.293 94.2745 532.653 92.7037C532.653 92.7037 521.741 86.3813 507.238 84.6535C488.863 82.4544 473.164 88.2663 460.632 102.05C448.84 114.93 448.03 144.069 458.203 184.281C466.687 217.542 479.746 246.601 479.816 246.916C481.435 250.529 481.611 254.77 479.816 258.186C478.021 261.603 475.134 263.802 471.614 264.116C470.065 264.43 458.731 267.14 413.04 283.908C403.571 287.325 397.094 294.55 393.117 305.742C390.16 314.303 388.717 325.141 388.717 337.825V338.611C388.822 354.083 391.146 372.304 395.651 392.802C402.128 422.451 411.069 446.602 413.216 451.628C416.103 455.948 416.103 461.995 412.935 466.315C410.858 469.142 407.725 470.752 404.557 470.752C403.29 470.752 402.128 470.556 400.861 470.045C395.827 468.043 394.208 463.919 389.702 451.235C387.343 444.717 383.859 434.153 380.162 420.566C375.199 402.58 369.602 377.644 367.737 352.904C359.253 354.632 352.6 355.025 346.652 355.025H343.765C343.413 373.128 339.436 392.134 331.692 411.729C330.143 415.539 327.01 418.248 323.208 418.759C319.512 419.269 315.816 417.659 313.493 414.321C312.226 412.515 281.495 369.396 268.541 344.461C265.585 338.728 267.274 331.384 272.414 328.086C277.553 324.787 284.136 326.672 287.092 332.405C294.379 346.463 308.459 367.591 318.457 382.357C324.581 358.009 323.42 335.39 315.042 315.01C296.914 271.067 249.885 246.641 230.137 238.12C213.91 282.141 215.001 327.38 233.305 372.539C238.445 385.301 244.57 396.769 250.624 406.625C252.42 409.334 254.215 412.162 256.045 415.067C266.043 429.833 275.23 439.886 279.489 443.813C284.101 448.054 284.805 455.594 281.038 460.621C278.891 463.527 275.829 465.058 272.731 465.058C271.816 465.058 270.83 464.94 269.95 464.665C269.035 464.98 268.155 465.058 267.169 465.058C263.931 465.058 260.763 463.448 258.686 460.346C252.631 451.51 247.316 443.067 242.635 435.527C241.297 433.328 239.924 431.207 238.657 429.087C236.756 426.259 234.855 423.353 232.99 420.251C219.578 400.027 208.032 389.307 182.511 390.485C176.562 390.799 171.599 385.655 171.352 379.019C171.071 372.382 175.682 366.846 181.631 366.57C191.909 366.06 200.991 367.159 209.193 369.869C202.153 349.37 198.281 328.557 197.576 307.744C196.943 290.937 198.492 274.287 202.082 257.675C201.167 256.458 200.463 255.162 200.005 253.552C196.204 240.79 194.338 227.398 194.338 214.047C194.338 207.214 194.866 200.381 195.781 193.745C184.693 190.328 173.886 188.836 166.036 188.208C153.047 187.108 140.551 189.936 129.815 196.454C109.011 208.903 98.6274 232.033 99.1906 265.097C99.5426 291.643 107.04 314.655 107.111 314.851C108.906 320.271 106.935 326.318 102.605 329.224C102.147 329.538 57.9004 359.972 59.9766 400.617C60.3286 407.253 55.8229 412.869 49.8739 413.3H49.2403C43.5729 413.3 38.8916 408.392 38.5041 402.03C36.7792 369.044 55.3654 342.615 70.9596 326.436C57.5479 331.856 45.7204 337.589 35.8295 343.519C12.7729 357.381 0.0650039 372.264 0.0650039 385.655C0.0650039 400.341 14.7437 413.614 26.9938 422.136C46.2836 435.605 75.4653 448.29 111.335 458.813C187.404 481.236 288.68 493.488 396.528 493.488C504.377 493.488 605.692 481.118 681.722 458.813C717.592 448.25 746.702 435.605 766.063 422.136C778.313 413.575 792.992 400.302 792.992 385.655C792.992 370.968 778.208 357.616 765.782 348.977L765.79 349.41ZM515.092 459.4C513.368 463.916 509.425 466.743 505.165 466.743C503.828 466.743 502.385 466.429 501.012 465.84C495.52 463.209 492.986 456.18 495.344 450.172L517.169 392.878L471.76 336.801C467.782 331.892 468.169 324.352 472.569 319.915C476.969 315.477 483.728 315.909 487.706 320.818L526.357 368.57L625.131 108.68C627.489 102.554 633.79 99.7266 639.176 102.358C644.667 104.989 647.202 112.018 644.843 118.026L606.65 218.556L670.892 202.887C676.665 201.474 682.437 205.597 683.705 212.037C684.973 218.478 681.276 224.917 675.503 226.332L596.478 245.535L515.199 459.472L515.092 459.4Z" fill="black"/>
</svg>
