<svg width="820" height="755" viewBox="0 0 820 755" fill="none" xmlns="http://www.w3.org/2000/svg">
<path d="M63.8945 656.201H281.999C271.18 680.633 253.811 700.908 232.244 714.147V742.433C232.244 749.37 226.264 755 218.897 755H127.111C119.744 755 113.765 749.37 113.765 742.433V714.147C92.1967 700.908 74.7141 680.633 63.8945 656.201ZM587.644 714.147V742.433C587.644 749.37 593.624 755 600.99 755H692.777C700.144 755 706.123 749.37 706.123 742.433V714.147C727.691 700.908 745.167 680.633 755.986 656.201H537.882C548.701 680.633 566.077 700.908 587.644 714.147ZM350.716 714.147V742.433C350.716 749.37 356.695 755 364.062 755H455.849C463.216 755 469.195 749.37 469.195 742.433V714.147C490.763 700.908 508.166 680.599 518.95 656.201H300.955C311.775 680.633 329.149 700.908 350.716 714.147ZM816.673 573.622L768.662 449.518C762.291 433.029 747.45 421.601 730.223 419.256C737.875 428.204 744.887 438.66 751.08 450.725C770.299 487.892 777.097 529.751 777.097 554.315C777.097 563.733 775.602 572.748 772.826 581.227L47.0984 581.193C44.3223 572.681 42.8275 563.699 42.8275 554.282C42.8275 529.716 49.6253 487.857 68.8447 450.692C75.073 438.661 82.0487 428.204 89.7367 419.222C72.511 421.568 57.6697 432.997 51.2983 449.485L3.28664 573.588C-8.92058 605.092 14.3914 639.008 48.2023 639.008H771.798C805.609 639.008 828.921 605.092 816.713 573.588L816.673 573.622ZM61.0063 554.284C61.0063 557.167 61.1842 559.948 61.5045 562.73H271.81C272.13 559.982 272.308 557.167 272.308 554.284C272.308 505.019 243.088 399.08 166.636 399.08C90.1838 399.08 60.9641 505.055 60.9641 554.284H61.0063ZM515.11 562.73C515.43 559.982 515.608 557.167 515.608 554.284C515.608 505.019 486.388 399.08 409.936 399.08C333.484 399.08 304.264 505.055 304.264 554.284C304.264 557.167 304.442 559.948 304.762 562.73H515.11ZM758.334 562.73C758.654 559.982 758.832 557.167 758.832 554.284C758.832 505.019 729.613 399.08 653.16 399.08C576.712 399.08 547.488 505.055 547.488 554.284C547.488 557.167 547.666 559.948 547.987 562.73H758.334ZM331.282 375.721C332.1 377.531 332.741 379.441 333.026 381.452L337.83 413.793C357.939 392.846 382.319 381.921 409.902 381.921C437.485 381.921 461.9 392.846 481.974 413.793L486.778 381.452C487.063 379.441 487.739 377.531 488.522 375.721C471.581 345.559 446.027 321.864 409.867 321.864C373.743 321.864 348.153 345.525 331.212 375.687L331.282 375.721ZM251.167 291.265H568.711C576.256 291.265 582.378 285.501 582.378 278.396C582.378 271.291 576.256 265.527 568.711 265.527H251.167C243.622 265.527 237.5 271.291 237.5 278.396C237.5 285.501 243.622 291.265 251.167 291.265ZM251.167 240.224H568.711C576.256 240.224 582.378 234.459 582.378 227.354C582.378 220.249 576.256 214.485 568.711 214.485H251.167C243.622 214.485 237.5 220.249 237.5 227.354C237.5 234.459 243.622 240.224 251.167 240.224ZM114.252 397.436C129.948 387.214 147.565 381.919 166.713 381.919C196.431 381.919 222.448 394.621 243.376 418.885L248.928 381.483C250.601 370.289 260.566 361.81 272.382 361.107C255.832 338.317 233.196 321.895 203.193 321.895C158.74 321.895 130.268 357.755 114.217 397.469L114.252 397.436ZM251.167 189.184H568.711C576.256 189.184 582.378 183.419 582.378 176.315C582.378 169.21 576.256 163.445 568.711 163.445H251.167C243.622 163.445 237.5 169.21 237.5 176.315C237.5 183.419 243.622 189.184 251.167 189.184ZM547.491 361.076C559.343 361.779 569.308 370.258 570.981 381.452L576.533 418.854C597.461 394.59 623.477 381.888 653.196 381.888C672.344 381.888 689.925 387.183 705.656 397.405C689.605 357.724 661.133 321.864 616.68 321.864C586.677 321.864 564.042 338.253 547.491 361.076ZM59.1476 346.866V55.6668C59.1476 24.9683 85.5556 0 118.264 0H701.565C734.272 0 760.681 24.9683 760.681 55.6668V346.866C760.681 369.689 746.053 389.362 725.126 397.941C722.101 389.73 718.649 381.519 714.52 373.509C697.97 341.47 676.01 320.222 650.03 310.637V151.915C650.03 145.983 648.464 140.454 645.901 135.426L718.115 67.426C723.454 62.3989 723.454 54.2546 718.115 49.2279C712.776 44.2008 704.128 44.2008 698.789 49.2279L626.433 117.362C621.273 115.116 615.614 113.776 609.563 113.776L210.309 113.809C204.259 113.809 198.564 115.15 193.439 117.395L121.083 49.2614C115.744 44.2343 107.095 44.2343 101.757 49.2614C96.4183 54.2885 96.4183 62.4327 101.757 67.4595L173.971 135.459C171.408 140.453 169.842 146.017 169.842 151.949V310.636C143.861 320.255 121.902 341.47 105.352 373.508C101.224 381.518 97.7713 389.729 94.7457 397.94C73.8181 389.361 59.191 369.721 59.191 346.865L59.1476 346.866ZM482.71 51.0425C482.71 60.7279 491.003 68.5371 501.289 68.5371H555.494C560.583 68.5371 565.316 66.5597 568.627 63.3759C572.008 60.1921 574.107 55.9024 574.107 51.0093C574.107 41.3239 565.815 33.5147 555.529 33.5147H501.324C496.128 33.5147 491.572 35.4921 488.191 38.6759C484.81 41.8597 482.71 46.1494 482.71 51.0425ZM245.746 51.0425C245.746 60.7279 254.038 68.5371 264.324 68.5371H318.529C323.725 68.5371 328.281 66.5597 331.662 63.3759C335.043 60.1921 337.143 55.9024 337.143 51.0093C337.143 41.3239 328.85 33.5147 318.564 33.5147H264.359C259.27 33.5147 254.537 35.4921 251.226 38.6759C247.845 41.8597 245.746 46.1494 245.746 51.0425ZM291.693 508.136C295.751 489.704 302.264 469.629 312.016 450.694C315.255 444.46 318.672 438.662 322.302 433.232L314.97 383.833C314.472 380.549 311.482 378.102 307.959 378.102H273.934C270.41 378.102 267.421 380.549 266.922 383.833L258.558 440.103C260.623 443.521 262.616 447.007 264.538 450.694C274.325 469.629 280.803 489.704 284.86 508.136H291.693ZM534.954 508.136C539.011 489.704 545.525 469.629 555.277 450.694C557.199 447.007 559.192 443.488 561.256 440.103L552.892 383.833C552.394 380.549 549.404 378.102 545.881 378.102H511.856C508.332 378.102 505.343 380.549 504.844 383.833L497.513 433.266C501.143 438.695 504.595 444.46 507.798 450.727C517.586 469.662 524.064 489.737 528.121 508.17H534.919L534.954 508.136Z" fill="black"/>
</svg>
