<svg width="810" height="728" viewBox="0 0 810 728" fill="none" xmlns="http://www.w3.org/2000/svg">
<path d="M172.431 349.718C130.374 348.257 89.62 366.548 59.388 400.334C29.1569 434.161 12.0519 480.641 11.9436 529.213C12.6668 709.334 216.579 775.234 298.998 625.432C363.945 511.092 290.754 352.017 172.431 349.718ZM225.625 478.758C217.742 493.918 203.168 502.771 187.872 501.685C174.492 531.837 126.614 533.716 120.756 496.381C85.5699 492.163 84.2322 441.632 113.74 424.885C113.017 407.763 121.262 391.81 134.678 384.461C147.587 376.234 163.463 377.403 175.36 387.468C188.414 378.739 204.795 380.326 216.476 391.351C227.179 402.585 229.53 420.96 222.117 435.327C231.989 447.02 233.472 465.103 225.625 478.758Z" fill="black"/>
<path d="M212.497 469.746C206.675 480.562 195.609 485.991 184.833 483.318C182.735 482.858 180.566 483.443 178.866 484.905C177.456 486.158 176.443 487.912 175.973 489.874C169.934 509.962 135.074 515.307 135.616 488.622C135.906 485.03 134.242 481.606 131.494 479.977C130.047 479.058 128.348 478.724 126.757 479.1C101.082 480.395 103.36 446.15 124.768 438.507C126.684 437.756 128.275 436.127 129.179 433.997C130.047 431.867 130.192 429.403 129.505 427.19C127.371 415.914 132.506 404.513 141.728 400.003C150.153 393.947 161.111 395.66 167.872 404.095C169.066 405.975 170.874 407.186 172.899 407.52C174.888 407.854 176.949 407.269 178.54 405.849C195.862 389.938 222.007 407.436 206.349 430.739H206.385C204.685 432.744 203.926 435.542 204.287 438.298C204.649 441.096 206.095 443.518 208.193 444.854C211.773 447.36 214.268 451.494 215.1 456.214C215.895 460.933 214.956 465.862 212.497 469.746Z" fill="black"/>
<path d="M135.614 486.862V487.906C135.541 486.695 135.18 484.273 135.614 486.862Z" fill="black"/>
<path d="M514.521 437.416C512.424 442.26 510.615 447.188 509.024 452.241C506.348 451.072 503.6 450.111 500.78 449.443C495.174 448.107 492.715 448.358 496.042 441.509C501.286 441.425 511.881 445.1 514.521 437.416Z" fill="black"/>
<path d="M796.836 442.013C796.728 442.347 796.691 442.722 796.691 443.098C796.402 442.722 796.655 442.514 796.836 442.013Z" fill="black"/>
<path d="M768.592 396.117C768.194 396.701 767.651 397.076 767.037 397.201C767.579 396.868 768.085 396.534 768.592 396.117Z" fill="black"/>
<path d="M800.382 452.95C797.272 451.113 795.717 446.978 796.693 443.095C798.176 446.101 799.007 449.818 800.382 452.95Z" fill="black"/>
<path d="M800.669 453.87C797.233 451.364 795.678 446.52 796.835 442.009C797.776 446.102 799.041 450.069 800.669 453.87Z" fill="black"/>
<path d="M808.917 493.587C806.241 504.611 799.117 511.878 789.968 507.159C787.654 505.655 784.797 505.864 782.627 507.702C781.434 508.62 780.493 509.873 779.879 511.377C775.178 549.588 746.393 535.098 743.97 502.189V502.231C743.97 499.767 743.066 497.386 741.511 495.716C739.956 494.046 737.859 493.21 735.725 493.377C726.902 493.461 718.041 481.81 715.258 466.525L715.222 466.567C711.569 454.08 715.402 440.299 724.696 432.656C728.746 430.902 730.807 425.682 729.288 421.005C719.959 393.734 739.558 363.04 756.952 392.774C758.001 395.155 759.845 396.909 762.087 397.535C764.329 398.203 766.716 397.66 768.596 396.115C780.927 408.978 790.511 425.014 796.549 442.888C796.296 444.559 796.332 446.229 796.694 447.858C803.854 461.765 808.05 477.425 808.917 493.587Z" fill="black"/>
<path d="M787.977 506.448C786.132 506.03 784.216 506.49 782.625 507.701C784.143 506.281 786.132 505.821 787.977 506.448Z" fill="black"/>
<path d="M665.714 248.197C654.431 253.292 641.629 249.993 633.312 239.886C631.794 238.258 629.769 237.381 627.707 237.506C625.646 237.589 623.693 238.675 622.283 240.429C607.168 257.469 570.102 226.982 577.659 206.017C579.467 201.674 577.985 196.454 574.296 194.198C559.181 186.222 546.488 162.251 561.603 152.521C607.059 164.59 645.319 199.754 665.714 248.197Z" fill="black"/>
<path d="M167.552 349.515C169.071 349.515 170.77 349.515 172.289 349.682V349.724C169.613 351.561 166.214 351.52 163.574 349.515H167.552Z" fill="black"/>
<path d="M345.026 190.316C337.396 201.425 324.74 206.186 312.914 202.302C311.54 201.926 310.057 202.135 308.792 202.845C306.26 203.763 304.38 206.185 303.91 209.192C301.776 219.09 289.553 226.147 276.101 225.062H276.065C264.71 225.897 254.223 218.004 250.245 205.643C250.101 203.346 249.161 201.174 247.642 199.671C241.494 195.202 231.839 199.128 225.619 194.91C254.332 164.466 291.831 147.594 330.775 147.594H332.004C331.498 149.432 330.666 151.102 329.581 152.522C327.954 154.735 327.411 157.742 328.062 160.54C328.749 163.296 330.558 165.552 332.944 166.47C342.238 171.315 349.004 179.875 345.026 190.316Z" fill="black"/>
<path d="M167.552 349.515C169.071 349.515 170.77 349.515 172.289 349.682V349.724C170.409 351.018 168.167 351.436 166.033 350.768C165.274 350.559 164.514 349.975 163.755 349.724C163.43 349.306 167.552 349.64 167.552 349.515Z" fill="black"/>
<path d="M249.49 153.945C211.194 177.708 182.265 217.506 168.631 265.153L167.402 262.856L207.614 148.634C208.374 146.504 208.41 144.04 207.614 141.91C206.855 139.738 205.336 138.026 203.456 137.149C201.611 136.23 199.514 136.189 197.634 137.066C195.753 137.984 194.271 139.738 193.547 141.91L157.927 243.098L125.346 175.486L152.105 95.137C153.516 90.585 151.527 85.6154 147.621 83.8613C143.716 82.149 139.34 84.3206 137.749 88.7891L115.727 155.357L93.5597 109.461L109.616 55.4633V55.4215C110.303 53.2081 110.158 50.786 109.29 48.6562C108.386 46.5263 106.795 44.8976 104.879 44.1458C100.865 42.6425 96.5614 45.0646 95.1148 49.6166L83.6513 88.6215L60.8697 41.3055C58.7361 37.1711 54.1436 35.7512 50.5273 38.1316C46.911 40.4702 45.6092 45.7322 47.562 49.9504L70.3437 97.2665L35.4838 87.9119C31.3975 86.9931 27.4198 89.9164 26.4795 94.5937C25.5393 99.271 27.9622 103.948 31.9761 105.201L80.2888 118.105L102.456 164.001L41.776 150.429L41.7399 150.388C37.6535 149.678 33.7842 152.81 32.9887 157.529C32.2293 162.248 34.7968 166.8 38.8469 167.886L112.075 184.131L144.621 251.576L51.537 233.033C47.4146 232.281 43.5452 235.539 42.822 240.3C42.0987 245.061 44.847 249.571 48.9334 250.49L154.089 271.328L162.948 289.871C160.959 302.19 159.947 314.719 159.911 327.289C159.875 328.876 159.911 330.463 160.055 332.05C140.275 333.553 120.783 338.231 102.124 345.998C106.608 341.572 117.963 336.351 114.491 327.456C113.298 323.614 109.899 321.317 106.391 321.985C69.6139 326.788 33.5969 307.285 13.3073 271.495L37.3193 277.3V277.342C40.7546 278.052 44.1539 276.005 45.6366 272.372C47.1192 268.697 46.2513 264.354 43.5753 261.806C14.3199 235.622 -1.91672 194.486 0.181018 151.807L7.99199 156.025L7.95582 156.067C10.5233 157.403 13.5247 157.027 15.803 155.106C18.045 153.143 19.2022 149.928 18.8044 146.712C12.3676 97.2664 16.9964 46.7762 32.2564 0C74.7101 9.81398 114.272 31.9895 147.215 64.4376C149.385 66.5257 152.386 67.0686 155.026 65.8575C160.74 63.7277 159.944 54.0804 160.668 48.7349C192.852 69.6154 214.477 106.992 218.889 149.339C219.359 153.306 222.071 156.438 225.542 156.94C228.978 157.441 232.269 155.186 233.57 151.469L241.96 124.825L241.996 124.783C245.612 134.054 248.144 143.869 249.482 153.933L249.49 153.945Z" fill="black"/>
<path d="M810 521.276C808.771 650.07 682.997 736.806 584.239 676.252C604.345 665.311 623.257 651.571 640.47 635.326C643.219 632.695 644.014 628.185 642.315 624.552C622.534 579.992 593.677 541.655 558.238 512.799C565.037 510.126 571.438 505.032 566.194 496.386C551.187 476.258 531.731 461.139 509.962 452.62C527.718 384.715 591.544 335.479 654.397 336.11C683.543 335.943 712.148 345.422 736.774 363.464C732.904 364.174 729.216 366.011 726.07 368.767C713.449 381.504 708.387 401.55 713.088 420.134C687.883 440.221 699.672 503.741 729.615 510.339C733.846 539.531 758.11 563.334 780.205 546.338C786.099 541.285 790.439 534.185 792.572 526.042C798.683 526.794 804.829 525.076 810 521.276Z" fill="black"/>
<path d="M625.823 626.144C591.686 657.005 551.257 677.134 508.402 684.568C505.653 685.194 503.411 687.449 502.471 690.498C501.567 693.588 502.146 696.971 503.99 699.393L509.957 706.618L509.921 706.66C475.241 720.858 436.802 715.388 406.135 691.793C403.242 689.579 399.373 689.914 396.77 692.586C394.13 695.301 393.407 699.686 394.998 703.277L407.076 728C398.18 724.951 389.718 720.566 381.835 714.928C368.021 704.989 356.449 691.292 348.204 675.046C343.033 664.271 339.417 652.577 337.537 640.425C336.922 636.458 334.065 633.493 330.594 633.2C327.122 632.908 323.94 635.372 322.855 639.214C318.588 659.928 316.997 645.603 313.381 632.323C324.266 611.86 331.788 589.226 335.548 565.588L365.2 572.646L413.802 682.442C415.755 686.66 420.275 688.33 423.964 686.159C427.652 683.987 429.171 678.851 427.399 674.508L384.439 577.245L449.856 592.948L485.15 668.871H485.186C487.211 673.172 491.84 674.717 495.565 672.379C499.253 670.123 500.627 664.82 498.638 660.56L469.456 597.709C475.423 599.128 508.909 607.021 514.08 608.483L538.995 657.762C541.165 661.854 545.794 663.191 549.41 660.727C552.99 658.263 554.219 652.917 552.122 648.741L534.077 613.244L579.93 624.185V624.227C584.089 625.187 588.103 622.097 588.971 617.336C589.73 612.576 587.091 607.94 583.004 606.896L537.296 595.955L566.045 571.608C569.444 568.727 570.203 563.214 567.708 559.247C565.213 555.28 560.439 554.445 557.005 557.326L516.974 591.237C510.79 589.734 479.257 582.175 472.35 580.463C484.681 569.27 508.657 547.345 520.951 536.321C524.098 533.23 524.568 527.801 522.036 524.043C519.469 520.326 514.804 519.575 511.477 522.373C498.242 534.4 466.492 563.467 452.931 575.869L387.659 560.166L460.417 490.8V490.758C463.563 487.668 463.997 482.197 461.393 478.481C458.753 474.806 454.052 474.18 450.798 477.145L368.386 555.364L337.648 547.93H337.684C339.312 527.843 338.263 507.506 334.611 487.752C339.89 478.147 346.218 469.376 353.414 461.609L352.329 475.015V475.057C352.112 479.024 354.21 482.657 357.428 483.994C360.683 485.288 364.299 483.952 366.252 480.694C372.291 470.338 379.776 461.192 388.419 453.675C409.248 436.511 434.85 428.869 460.272 432.335C456.62 435.759 444.686 445.865 440.708 449.29C437.924 451.795 437.02 456.18 438.466 459.897C439.913 463.572 443.348 465.702 446.82 464.992C483.126 456.64 520.699 469.377 547.383 499.07L539.428 503.12C536.607 504.624 534.835 507.923 534.908 511.515C534.98 515.106 536.86 518.322 539.753 519.7C575.734 546.26 605.355 582.837 625.823 626.144Z" fill="black"/>
<path d="M480.602 278.388C464.582 277.386 448.489 278.179 432.615 280.685L433.844 277.135H433.808C434.821 274.588 434.676 271.665 433.483 269.242C432.253 266.82 430.12 265.233 427.697 264.983C395.947 261.976 364.45 273.669 340.113 297.432L341.776 285.238L341.813 285.28C342.247 281.98 341.017 278.681 338.667 276.718C336.316 274.797 333.206 274.547 330.639 276.092C298.382 295.971 277.3 333.681 274.841 375.818C246.635 349.258 211.739 333.89 175.361 332.052C175.216 330.465 175.18 328.878 175.18 327.291C175.108 283.399 189.03 241.053 214.344 208.311C221.214 212.446 228.844 214.742 236.656 214.993C243.78 231.948 258.714 242.639 275.023 242.555C291.224 245.019 307.208 236.5 316.139 220.672C351.976 226.519 380.218 181.124 346.082 154.814C346.841 152.851 347.347 150.763 347.6 148.633C378.41 152.642 407.485 167.092 431.17 190.186C454.82 213.28 472.032 243.976 480.602 278.388Z" fill="black"/>
<path d="M681.59 320.949C626.986 311.01 571.584 332.058 532.712 377.41C541.499 353.605 547.285 328.466 549.997 302.74C550.468 298.647 548.334 294.722 544.935 293.385C529.385 287.163 513.293 282.82 496.948 280.314C488.269 239.804 468.705 203.556 441.005 176.703C471.308 153.985 507.507 144.045 543.411 148.639C533.683 168.727 543.809 192.698 561.89 206.353C556.863 232.789 586.697 264.319 610.636 262.857H610.672C616.747 262.983 622.75 261.145 627.957 257.554C636.202 264.528 646.146 268.411 656.381 268.663C661.805 268.788 667.193 267.284 671.966 264.278C677.861 282.402 681.12 301.571 681.59 320.949Z" fill="black"/>
<path d="M489.933 427.356C488.234 429.945 487.872 433.37 489.029 436.335C490.186 439.3 492.645 441.263 495.43 441.513C496.985 441.471 494.236 445.146 494.056 447.694C486.498 445.94 478.832 445.021 471.129 444.854C477.891 437.838 486.895 434.831 485.051 425.602H485.015C484.147 422.219 481.869 419.546 478.903 418.544C449.215 409.524 417.645 414.034 390.705 431.073C383.039 435.667 375.95 441.555 369.767 448.571C370.129 445.021 371.142 439.801 369.153 436.752C390.344 421.425 432.111 391.44 453.518 376.03L495.539 389.979L495.575 389.937C499.589 391.19 503.748 388.517 504.905 383.923C506.098 379.288 503.82 374.444 499.878 373.024L471.129 363.503L504.904 339.114C508.484 336.525 509.569 331.096 507.363 326.92C505.121 322.786 500.384 321.533 496.804 324.122L463.029 348.469L468.236 314.558C468.634 312.261 468.2 309.881 467.043 307.96C465.886 306.039 464.114 304.702 462.089 304.326C457.966 303.449 453.989 306.623 453.229 311.384L445.418 360.997L413.017 384.3L420.358 323.745C420.901 318.984 418.008 314.599 413.849 313.889C409.727 313.221 405.893 316.52 405.242 321.281L396.057 396.494L347.456 431.448L357.256 337.359C357.726 332.557 354.76 328.213 350.602 327.629C346.443 327.044 342.646 330.427 342.104 335.229L330.64 443.604L323.625 448.74C315.597 427.902 304.423 408.899 290.609 392.613C287.246 357.784 299.867 323.413 323.915 302.031L320.841 324.29H320.877C320.371 328.299 322.287 332.225 325.542 333.77C328.797 335.315 332.521 334.104 334.619 330.805C353.35 300.653 383.365 282.529 415.477 281.944L413.018 288.668L413.054 288.626C412.005 291.675 412.439 295.099 414.211 297.646C415.983 300.152 418.804 301.363 421.588 300.82C459.016 291.967 497.746 294.389 534.085 307.878C528.299 351.352 513.113 392.441 489.933 427.356Z" fill="black"/>
</svg>
