<svg width="472" height="466" viewBox="0 0 472 466" fill="none" xmlns="http://www.w3.org/2000/svg">
<path d="M373.029 281.468L330.4 322.052C305.24 346.006 269.535 355.237 238.04 349.243C225.632 347.027 174.967 331.63 161.504 327.66C157.274 326.446 154.865 322.187 156.14 318.159C157.415 314.112 161.889 311.839 166.119 313.052C240.281 334.173 237.473 333.595 241.214 334.289C264.067 338.316 284.835 325.058 290.563 305.074L292.911 296.904L208.302 274.357C174.863 265.434 138.855 274.434 114.299 297.809L38.9394 369.555L110.474 437.659C143.549 420.817 182.636 415.883 219.251 424.189C258.034 432.976 299.631 421.761 327.826 394.936L448.407 280.137C427.254 261.425 393.938 261.58 373.029 281.468Z" fill="black"/>
<path d="M241.933 111.555C239.565 114.696 236.671 117.451 233.371 119.706C236.671 121.961 239.565 124.716 241.933 127.857C244.301 124.716 247.196 121.961 250.495 119.706C247.196 117.451 244.321 114.696 241.933 111.555Z" fill="black"/>
<path d="M444.098 20.7143C410.74 -8.19203 351.333 -6.6696 308.863 24.1831C305.989 26.2643 302.021 26.2643 299.147 24.1831C233.747 -23.3195 132.8 -0.657204 136.122 90.571C137.336 123.967 154.299 155.36 182.677 176.712C182.778 176.789 182.88 176.866 182.981 176.943L281.093 258.383C294.169 269.232 313.884 269.232 326.961 258.383C429.887 172.957 425.073 176.923 425.353 176.711C484.255 132.369 483.608 54.9566 444.098 20.7143ZM200.288 94.2506L194.418 84.0179C188.406 73.5346 179.136 71.6268 171.889 67.214C166.343 64.3233 166.343 56.7114 171.889 53.821C179.217 49.3501 188.447 47.4037 194.418 37.017L200.288 26.7843C203.324 21.5042 211.32 21.5042 214.356 26.7843L220.226 37.017C229.233 52.7036 246.924 50.1792 246.924 60.5273C246.924 63.3216 245.325 65.8844 242.754 67.2145L232.006 72.8029C215.57 81.3593 218.1 98.221 207.312 98.221C204.397 98.221 201.705 96.698 200.288 94.2506ZM270.445 125.354L262.045 129.728C253.968 133.929 252.511 140.501 248.949 145.839C245.912 151.119 237.917 151.119 234.881 145.839C231.177 140.308 229.74 133.891 221.765 129.728L213.364 125.354C207.818 122.463 207.818 114.851 213.364 111.961L221.765 107.586C229.841 103.385 231.298 96.8139 234.881 91.476C237.917 86.1959 245.913 86.1959 248.949 91.476C252.653 97.0068 254.09 103.424 262.045 107.586L270.445 111.961C273.015 113.29 274.615 115.873 274.615 118.648C274.615 121.461 273.015 124.024 270.445 125.354ZM432.537 148.633C427.517 154.53 421.749 159.965 415.393 164.743C415.109 164.898 413.186 166.844 409.826 166.844C402.215 166.844 398.936 157.652 404.867 153.2C405.292 152.854 412.701 147.689 420.069 139.017C422.862 135.741 427.902 135.24 431.343 137.88C434.784 140.539 435.331 145.357 432.537 148.633ZM449.581 120.247C448.387 123.331 445.33 125.238 442.071 125.238C436.525 125.238 432.619 119.958 434.562 114.948C448.245 79.7594 438.043 30.4449 382.521 30.4449C378.088 30.4449 374.505 27.0339 374.505 22.8135C374.505 18.5932 378.088 15.1821 382.521 15.1821C402.479 15.1821 420.98 21.3103 433.327 32.0058C454.277 50.1782 462.859 86.079 449.581 120.247Z" fill="black"/>
<path d="M0 406.612L62.301 465.925L96.2461 445.729L27.587 380.362L0 406.612Z" fill="black"/>
<path d="M222.356 61.5455C216.243 57.9611 211.102 53.0858 207.357 47.2659C203.593 53.0858 198.472 57.9806 192.359 61.5455C198.472 65.1298 203.613 70.0051 207.357 75.825C211.102 70.0051 216.243 65.1295 222.356 61.5455Z" fill="black"/>
</svg>
