<svg width="828" height="766" viewBox="0 0 828 766" fill="none" xmlns="http://www.w3.org/2000/svg">
<path d="M824.909 144.768C834.183 121.857 820.409 103.818 812.199 95.6471C831.264 56.4599 783.173 11.6014 741.198 29.4162C732.438 21.7582 713.099 8.90926 688.573 17.5287C671.398 23.5527 662.089 31.5629 657.074 37.7797C628.255 20.3808 593.63 30.4742 577.657 56.6527C571.13 53.9932 561.616 51.0454 551.413 51.0133C540.49 38.5172 518.505 16.3754 492.777 7.17929C492.777 7.17929 492.09 6.92295 490.647 6.47437L490.098 6.28211C479.93 2.8536 469.281 0.899038 458.289 0.258155C418.924 -2.14501 376.879 12.2416 333.182 42.938C326.69 47.2957 330.194 57.3889 338.197 57.3569C338.438 57.3569 359.151 57.7734 385.463 63.4449C317.587 118.622 270.732 169.54 245.864 215.032L233.944 209.361C191.659 191.674 146.901 234.258 111.317 287.159C45.1928 385.945 3.83192 416 3.41861 416.287C0.945401 418.05 -0.359927 420.901 0.0866148 423.785C0.533165 426.669 2.59421 429.104 5.51397 430.129C7.57502 430.866 42.7155 443.203 87.1647 443.203C97.9167 443.203 109.183 442.434 120.691 440.672C78.1653 488.703 52.5398 526.637 80.0199 586.05C84.7259 596.688 91.1148 606.492 98.9122 615.24L83.2832 633.985C71.192 648.084 72.3941 668.334 86.0656 681.087L121.515 714.154C135.186 726.907 156.895 728.028 171.872 716.813L191.589 702.491C217.765 729.182 263.072 734.981 297.975 719.088L434.241 664.104C423.799 695.89 407.414 725.785 385.327 753.178C383.025 756.03 383.025 759.939 385.327 762.791C387.628 765.675 391.716 766.732 395.22 765.482C392.609 768.558 490.296 725.75 554.261 619.662C607.263 599.315 667.717 553.11 734.223 482.011C740.303 506.555 740.75 525.845 740.75 526.069C740.716 533.534 751.502 536.803 756.207 530.747C789.115 489.989 804.504 450.77 801.962 414.112C801.378 405.396 799.729 396.905 797.118 388.895C797.015 388.51 796.878 388.158 796.843 388.094C789.767 366.113 772.043 347.72 756.551 334.455C756.379 328.078 754.937 322.311 753.391 317.825C762.631 314.653 775.581 307.38 784.547 290.91C792.997 275.241 787.535 257.971 782.898 248.07C811.099 233.138 821.714 200.776 803.13 173.989C809.794 169.343 818.382 160.627 824.84 144.638L824.909 144.768ZM487.074 180.399C460.247 177.323 421.947 210.647 417.138 236.376C390.825 237.209 358.845 265.951 354.689 287.323C351.082 287.515 346.685 288.22 341.738 289.918C336.105 272.679 324.254 257.363 308.899 246.469C311.716 244.162 312.575 240.381 311.063 237.177C306.048 226.828 312.54 211.735 324.528 203.213C341.394 190.139 363.721 198.246 364.649 198.566C371.176 201.258 378.492 194.785 376.019 188.569C375.744 187.8 369.493 169.472 387.905 152.618C411.228 131.277 436.236 146.914 437.232 147.555C440.392 149.638 444.652 149.414 447.606 147.139C450.594 144.832 451.522 140.89 449.942 137.622C449.117 135.956 442.556 120.703 462.892 104.362C465.64 102.151 468.56 100.453 471.857 99.2352C480.136 95.4542 495.627 97.6651 503.631 101.734L537.467 133.296C515.757 137.302 489.685 165.21 487.04 180.398L487.074 180.399ZM272.729 245.829C274.172 246.534 289.08 253.519 290.007 254.16C289.766 285.433 284.064 364.323 236.936 437.246C235.321 439.745 232.47 441.123 229.585 441.123C223.127 441.283 218.695 434.106 222.234 428.979C271.766 352.334 273.175 266.17 272.763 245.827L272.729 245.829ZM25.6453 419.277C42.8201 403.673 77.9261 367.401 125.946 295.694C176.887 219.594 211.237 219.626 221.717 221.965C224.293 249.489 222.61 277.494 214.882 304.214C202.996 348.176 170.776 387.234 139.586 420.177C94.7586 433.25 48.2112 424.919 25.6818 419.248L25.6453 419.277ZM161.366 704.356C153.122 710.508 141.237 709.9 133.783 702.946L98.3344 669.879C90.8461 662.894 90.1934 651.808 96.8917 644.022L110.907 627.231C123.238 638.766 146.082 660.011 158.31 671.449L179.505 691.187L161.402 704.356L161.366 704.356ZM631.308 448.208C633.06 453.175 638.006 470.638 625.812 484.223C608.293 503.801 591.324 497.585 589.538 496.848C582.256 493.484 574.32 501.43 578.374 507.999C579.68 510.21 590.397 530.076 568.035 546.994C545.845 563.816 530.044 551.865 528.395 550.487C523.586 546.225 515.41 548.885 514.174 554.877C497.514 543.181 478.347 534.434 457.908 530.332C463.198 523.667 466.976 517.195 469.382 512.485C495.384 516.971 536.159 479.674 535.608 456.155C552.817 454.04 582.771 429.623 588.233 408.027L631.308 448.208ZM419.434 734.797C446.536 692.598 461.925 644.755 464.501 595.801V595.769C465.257 579.812 464.776 563.791 462.577 548.026C481.676 553.153 499.091 563.054 513.793 575.454C522.175 582.632 529.698 590.675 536.259 599.358V599.39C540.312 604.645 540.278 612.207 536.533 617.623C492.771 681.707 447.946 716.983 419.402 734.799L419.434 734.797ZM788.494 163.711C782.449 164.993 779.975 172.523 784.2 176.752C784.372 176.912 800.002 193.991 794.128 211.422C787.464 231.159 769.533 236.479 768.812 236.703C763.453 238.017 760.877 244.393 763.934 248.686C764.071 248.879 777.33 268.872 769.258 283.804C758.85 302.965 741.812 304.375 741.16 304.439C734.977 304.599 730.957 311.488 734.152 316.422C734.221 316.518 740.061 326.323 739.373 337.731C738.996 344.46 736.522 350.227 731.782 355.322C714.263 374.258 697.912 368.106 696.229 367.402C688.501 363.749 680.359 372.657 685.443 379.225C706.362 409.152 673.455 443.053 643.158 436.773L598.984 395.567C607.056 392.651 617.224 387.108 628.216 376.758C660.814 346.029 647.933 322.67 647.349 321.71C641.784 312.546 627.048 319.627 632.132 329.112C640.204 345.421 608.774 379.674 585.106 382.622L564.771 363.653C561.404 360.513 555.977 360.513 552.611 363.653C549.244 366.793 549.244 371.855 552.611 374.995L573.324 394.317C574.423 414.952 543.68 441.772 528.325 441.002C522.005 439.368 515.822 445.52 518.192 451.256C518.364 451.833 522.28 465.419 499.78 484.035C480.681 499.832 471.51 496.884 470.033 496.243C465.808 492.014 458.045 494.385 456.499 499.896C456.43 500.088 449.938 517.167 435.304 530.304C380.447 533.828 328.541 543.633 276.535 562.794C269.218 577.598 261.936 591.055 254.825 602.559C252.592 606.34 249.02 609.64 244.658 611.851C231.33 618.547 218.621 625.853 206.941 633.575C195.434 640.913 178.843 653.793 171.286 661.067L159.126 649.724C179.736 630.083 210.926 610.825 238.131 596.63C246.753 585.096 253.898 569.106 261.661 554.399L349.835 472.183C353.202 469.043 353.202 463.98 349.835 460.84C346.469 457.7 341.042 457.7 337.675 460.84L280.07 514.575C296.009 477.951 312.772 433.06 327.954 386.341L347.019 404.124C355.228 411.398 366.976 400.44 359.179 392.782L333.587 368.91C339.564 348.852 348.736 327.447 345.473 305.979C354.301 302.294 359.831 303.704 359.9 303.704C366.083 306.235 373.4 300.724 371.166 294.636C369.586 281.498 397.787 251.475 421.146 252.341L442.855 272.592C446.222 275.732 451.649 275.732 455.015 272.592C458.382 269.452 458.382 264.389 455.015 261.249L433.718 241.383C436.329 220.812 471.606 190.885 490.052 197.133L555.283 257.981C512.62 297.778 413.107 390.603 371.575 429.345C363.777 436.971 375.491 447.961 383.735 440.688L444.672 383.845L456.935 395.284C460.301 398.424 465.729 398.424 469.095 395.284C472.461 392.144 472.461 387.081 469.095 383.941L456.832 372.502L567.474 269.295L579.736 280.734C583.103 283.874 588.53 283.874 591.896 280.734C595.263 277.594 595.263 272.531 591.896 269.391L579.634 257.952L725.415 121.967L756.673 151.125C767.013 166.057 744.479 189.96 732.662 197.138L723.456 188.55C715.247 181.277 703.499 192.203 711.296 199.893L724.006 211.748C731.803 233.697 698.656 257.184 690.136 259.235C679.454 262.76 684.572 277.435 695.357 274.487C709.647 270.867 748.979 241.804 741.421 210.98C766.6 195.119 787.519 162.852 769.932 140.903C769.726 140.679 769.52 140.455 769.314 140.263L737.54 110.624L742.314 106.17C745.681 103.03 745.681 97.9669 742.314 94.8269C738.948 91.6868 733.521 91.6868 730.154 94.8269L725.38 99.2808L721.326 95.4998C717.96 92.3597 712.533 92.3597 709.167 95.4998C705.8 98.6399 705.8 103.703 709.167 106.843L713.22 110.624L567.439 246.609L503.375 186.85C504.749 171.534 533.466 144.075 553.458 148.272L587.396 179.93C589.079 181.5 591.278 182.269 593.476 182.269C600.827 182.525 605.018 173.361 599.556 168.587L568.16 139.3C576.335 125.137 599.282 105.208 618.174 112.288C628.616 116.358 635.417 102.227 625.181 97.6448C601.72 88.4807 573.141 102.643 555.657 127.636L518.113 92.6141C519.59 87.3271 524.364 76.7852 539.616 69.6077C552.6 62.5264 575.546 73.1003 577.195 74.5422C581.797 77.394 588.565 75.0228 590.041 70.0563C590.282 69.3513 595.984 52.6253 617.177 46.3773C635.211 41.0904 652.833 54.4839 654.172 55.5414L665.37 65.9869C667.053 67.5569 669.252 68.326 671.45 68.326C678.801 68.5823 682.992 59.4186 677.53 54.6437L670.488 48.0751C673.477 44.1018 680.21 37.7896 694.705 32.6949C715.934 25.2291 732.215 43.7498 732.868 44.5184C735.616 47.7546 740.528 48.5236 744.238 46.2807C773.882 28.4331 813.488 65.4095 794.355 93.0619C791.985 96.5225 792.809 101.072 796.244 103.636C797.103 104.277 816.923 119.433 808.919 139.235C800.469 160.094 788.859 163.747 788.584 163.811L788.494 163.711Z" fill="black"/>
</svg>
