<svg width="808" height="819" viewBox="0 0 808 819" fill="none" xmlns="http://www.w3.org/2000/svg">
<path d="M694.533 400.083C690.146 397.361 685.317 396.068 680.425 396.068C668.494 396.068 656.153 403.759 649.051 417.031C639.046 435.748 643.118 458.584 658.173 467.978C665.338 472.436 673.954 473.219 682.413 470.19C691.156 467.059 698.699 460.253 703.623 451.064C713.629 432.346 709.557 409.511 694.502 400.117L694.533 400.083Z" fill="black"/>
<path d="M262.85 473.693C232.834 473.693 208.404 500.034 208.404 532.399C208.404 564.764 232.833 591.105 262.85 591.105C292.866 591.105 317.295 564.764 317.295 532.399C317.295 500.034 292.866 473.693 262.85 473.693Z" fill="black"/>
<path d="M520.368 573.344C500.326 573.344 484.04 590.938 484.04 612.515C484.04 634.126 500.357 651.686 520.368 651.686C540.411 651.686 556.697 634.092 556.697 612.515C556.697 590.904 540.379 573.344 520.368 573.344Z" fill="black"/>
<path d="M560.55 41.587C484.421 10.4137 419.497 1.56472 405.923 0C396.17 8.50803 353.371 45.9091 298.483 95.46C301.292 103.287 302.744 111.524 302.744 120.065C302.744 157.637 274.4 188.197 239.555 188.197C228.193 188.197 217.241 184.964 207.583 178.805C117.248 263.035 50.7818 329.605 9.65443 376.973C103.076 367.07 558.118 316.6 803.299 247.039C740.741 134.015 637.246 72.9946 560.55 41.587ZM513.774 220.937C511.722 221.039 509.702 221.107 507.682 221.107C470.092 221.107 440.486 200.926 439.128 173.462C437.708 144.535 468.261 120.099 508.692 117.785C527.409 116.696 545.368 120.712 559.224 129.05C574.058 137.966 582.612 150.831 583.307 165.226C584.727 194.153 554.174 218.589 513.742 220.903L513.774 220.937Z" fill="black"/>
<path d="M552.85 141.435C542.402 135.139 529.02 131.769 514.69 131.769C512.954 131.769 511.187 131.803 509.419 131.905C477.447 133.743 451.281 152.393 452.26 172.71C453.27 192.993 481.108 208.58 513.08 206.777C545.053 204.939 571.219 186.289 570.24 165.972C569.767 156.613 563.612 147.867 552.85 141.401L552.85 141.435Z" fill="black"/>
<path d="M806.991 520.016C809.011 408.047 807.464 293.158 806.928 260.653C549.029 333.89 60.3174 385.996 0 392.225L3.15622 525.566C36.4548 528.289 62.7779 558.339 62.7779 594.957C62.7779 630.623 38.5063 659.72 6.40681 664.043L10.0365 818.241C55.5812 819.398 102.133 819.228 148.657 817.764C152.571 775.292 186.217 741.804 226.428 741.804C263.45 741.804 295.265 770.017 302.872 808.405C570.805 784.208 766.811 725.536 797.014 716.107C799.413 695.994 801.433 670.47 803.042 640.079C775.961 635.859 754.941 610.471 754.941 580.318C754.941 548.43 777.95 522.259 807.019 520.047L806.991 520.016ZM262.85 605.301C225.574 605.301 195.274 572.596 195.274 532.438C195.274 492.246 225.606 459.575 262.85 459.575C300.125 459.575 330.425 492.28 330.425 532.438C330.425 572.63 300.094 605.301 262.85 605.301ZM520.368 665.912C493.098 665.912 470.878 641.988 470.878 612.55C470.878 583.146 493.066 559.187 520.368 559.187C547.638 559.187 569.858 583.112 569.858 612.55C569.858 641.954 547.67 665.912 520.368 665.912ZM715.048 458.082C708.515 470.299 698.415 479.352 686.611 483.572C681.845 485.274 677.015 486.124 672.281 486.124C665.022 486.124 657.984 484.117 651.639 480.203C630.303 466.931 624.053 435.383 637.688 409.926C651.323 384.436 679.793 374.533 701.098 387.805C722.434 401.077 728.683 432.626 715.048 458.082Z" fill="black"/>
</svg>
