<svg width="811" height="578" viewBox="0 0 811 578" fill="none" xmlns="http://www.w3.org/2000/svg">
<path d="M755.98 221.497H756.11C755.98 221.255 755.894 221.109 755.764 220.867C746.675 200.744 725.296 158.8 686.734 123.549C671.241 109.294 653.063 96.2496 631.684 86.067C589.791 66.089 549.152 63.229 514.144 67.5922C473.722 72.4411 440.786 86.6976 421.961 94.8916C291.214 151.624 226.866 291.668 197.827 381.999C192.503 398.389 183.762 412.547 172.769 423.604C153.38 443.193 127.023 453.134 99.6277 448.916C96.0789 448.188 77.8148 444.067 69.1597 426.32C59.6384 406.972 68.8135 385.346 71.2804 379.382C85.3455 345.973 110.707 354.169 130.096 323.91C150.134 292.246 130.658 270.766 151.605 237.162C166.449 213.063 179.737 218.542 206.568 192.746C242.576 157.979 229.506 137.855 259.195 106.822C293.298 71.0854 321.257 86.3599 377.167 47.8588C385.477 42.137 393.007 36.1728 399.542 30.5C399.975 30.1121 400.321 29.8696 400.667 29.5302C401.879 28.2695 403.22 27.0572 404.649 25.7965C404.865 25.5541 405.211 25.3117 405.514 25.0692C408.933 21.9659 413.045 18.8625 417.588 16.0016C420.142 14.4014 422.782 12.7528 425.682 11.2981C433.991 6.93408 449.268 0 449.268 0H387.553C172.504 7.56443 0 205.552 0 448.63C0 484.27 12.9838 516.516 33.8871 540.129C54.8336 563.598 83.7439 578 115.554 578H695.443C759.149 578 811 520.006 811 448.628C811 365.808 790.962 288.124 755.949 221.701L755.98 221.497Z" fill="black"/>
</svg>
