<svg width="798" height="831" viewBox="0 0 798 831" fill="none" xmlns="http://www.w3.org/2000/svg">
<path fill-rule="evenodd" clip-rule="evenodd" d="M302.66 756.212C253.124 757.752 191.029 748.045 129.252 707.57C100.7 688.872 75.0029 655.094 54.3289 615.69C24.2284 558.236 4.58654 488.928 0.699379 439.999C-1.15825 416.752 0.733779 397.732 5.79056 385.625C10.0562 375.452 16.4543 369.041 24.4356 366.211C20.1699 337.842 20.514 280.783 81.0583 245.612C78.3751 223.475 76.9648 173.973 110.643 139.766C127.981 122.143 154.744 108.138 196.161 104.878C200.461 93.4518 209.784 75.3628 228.704 62.1823C246.042 50.0756 271.807 41.6578 309.923 47.9977C321.206 31.8793 349.689 0 399.018 0C456.019 0 479.066 33.3831 489.83 56.0212C514.563 53.7288 574.798 55.1257 615.392 114.549C629.118 114.943 657.085 118.49 681.234 138.477C701.668 155.455 720.003 184.218 723.305 233.896C730.942 237.944 741.847 245.537 751.72 259.006C766.03 278.527 778.896 311.337 772.498 365.887C780.96 368.502 787.737 375.021 792.209 385.659C797.266 397.766 799.158 416.821 797.301 440.033C793.413 488.961 773.771 558.275 743.671 615.723C722.962 655.125 697.266 688.866 668.748 707.604C606.965 748.08 544.876 757.822 495.34 756.246V769.893C495.34 786.119 489.148 801.629 478.14 813.091C467.132 824.553 452.202 831 436.654 831H361.42C345.837 831 330.942 824.553 319.934 813.091C308.926 801.629 302.734 786.083 302.734 769.893V756.246L302.66 756.212ZM333.138 725.014C345.144 723.366 355.773 721.146 364.58 718.925C357.287 713.946 349.375 707.964 341.876 701.123C324.607 685.434 309.85 665.268 306.65 642.881C300.63 600.507 297.672 576.078 261.345 556.127C258.662 554.659 256.529 552.295 255.257 549.393C255.257 549.393 247.344 531.413 231.486 513.359C216.247 495.987 193.508 478.257 162.823 478.257C159.005 478.257 155.324 476.609 152.71 473.636C152.71 473.636 124.295 441.507 91.2709 417.4C71.6281 403.037 50.6098 390.608 33.616 393.223C32.9624 393.294 32.6184 393.975 32.2056 394.584C31.1048 396.267 30.3479 398.417 29.66 400.96C27.2176 410.129 26.8735 422.773 28.0776 437.638C31.7239 483.379 50.2997 548.179 78.4742 601.904C96.7062 636.613 118.791 666.772 143.903 683.285C191.307 714.34 238.951 725.516 279.681 727.45C249.719 708.931 209.264 680.455 172.005 642.773C170.629 641.806 169.39 640.552 168.393 639.12C135.643 605.271 105.715 564.257 87.9996 516.512C85.2476 509.133 88.7564 500.823 95.8772 497.994C102.964 495.128 110.944 498.782 113.662 506.196C124.154 534.386 139.186 560.104 156.628 583.135C155.733 567.948 156.146 549.895 159.139 529.335C160.274 521.526 167.292 516.118 174.79 517.336C182.29 518.518 187.484 525.825 186.315 533.633C179.159 582.884 188.929 615.551 191.612 623.323C250.195 682.568 317.518 717.386 333.096 724.978L333.138 725.014ZM518.25 727.486C559.014 725.551 606.657 714.376 654.062 683.321C679.175 666.808 701.294 636.649 719.492 601.94C747.665 548.211 766.207 483.376 769.888 437.674C771.058 422.809 770.748 410.165 768.306 400.996C767.618 398.488 766.861 396.339 765.76 394.62C765.348 393.975 765.004 393.33 764.35 393.259C747.356 390.644 726.338 403.073 706.695 417.436C673.671 441.543 645.256 473.672 645.256 473.672C642.676 476.609 638.995 478.293 635.143 478.293C604.458 478.293 581.719 496.023 566.48 513.395C550.621 531.412 542.709 549.429 542.709 549.429C541.437 552.331 539.304 554.695 536.621 556.163C500.294 576.151 497.336 600.543 491.316 642.917C488.117 665.304 473.359 685.47 456.09 701.159C448.591 707.965 440.679 713.982 433.386 718.961C442.227 721.182 452.822 723.402 464.828 725.05C480.376 717.421 547.698 682.605 606.312 623.395C608.995 615.622 618.765 582.955 611.61 533.705C610.44 525.896 615.634 518.589 623.134 517.407C630.633 516.19 637.65 521.598 638.785 529.407C641.778 549.967 642.157 568.019 641.297 583.207C658.703 560.176 673.77 534.458 684.262 506.268C686.98 498.889 694.96 495.2 702.047 498.066C709.133 500.895 712.676 509.205 709.925 516.584C692.243 564.33 662.28 605.343 629.532 639.191C628.534 640.66 627.296 641.878 625.92 642.845C588.664 680.527 548.21 709.002 518.217 727.521L518.25 727.486ZM497.747 395.553C493.138 401.821 484.503 403.039 478.483 398.203C472.429 393.403 471.259 384.413 475.903 378.109C475.903 378.109 503.079 341.323 542.468 360.593C549.313 363.96 552.306 372.485 549.038 379.648C545.804 386.812 537.617 389.893 530.737 386.526C511.198 376.962 497.747 395.516 497.747 395.516L497.747 395.553ZM357.047 533.565C359.42 541.087 355.464 549.182 348.275 551.654C341.051 554.126 333.276 550.042 330.902 542.52C330.902 542.52 311.088 477.831 356.324 440.297C374.315 425.36 395.574 420.74 414.701 420.883C441.946 421.098 464.443 430.984 464.443 430.984C471.461 434.029 474.763 442.446 471.805 449.718C468.881 457.025 460.831 460.464 453.813 457.383C453.813 457.383 436.029 449.718 414.529 449.539C401.113 449.467 386.114 452.261 373.524 462.72C342.254 488.617 357.081 533.571 357.081 533.571L357.047 533.565ZM678.966 332.584C682.647 339.498 680.274 348.237 673.634 352.07C666.995 355.903 658.602 353.431 654.921 346.518C654.921 346.518 625.13 290.533 568.542 310.448C561.318 312.956 553.509 308.944 551.101 301.458C548.692 293.936 552.545 285.805 559.735 283.297C637.789 255.86 678.965 332.62 678.965 332.62L678.966 332.584ZM191.512 392.402C188.588 399.673 180.538 403.148 173.521 400.067C166.537 397.023 163.2 388.641 166.159 381.333C166.159 381.333 183.875 337.026 227.185 318.651C255.255 306.723 294.471 305.003 346.829 335.772C353.434 339.641 355.773 348.38 352.058 355.293C348.308 362.171 339.915 364.606 333.31 360.738C291.273 336.059 260.072 335.629 237.575 345.193C204.964 359.019 191.547 392.402 191.547 392.402L191.512 392.402ZM481.024 188.844C476.965 188.701 473.112 186.623 470.635 183.256C460.522 169.538 447.758 170.72 437.611 175.018C424.986 180.391 415.526 189.99 415.526 189.99C410.916 194.683 403.727 195.399 398.326 191.674C369.052 171.508 345.384 205.214 345.384 205.214C342.323 209.369 337.335 211.482 332.381 210.694C310.296 207.22 301.421 226.168 301.421 226.168C298.187 233.332 290.034 236.448 283.155 233.117C276.24 229.786 273.247 221.296 276.447 214.097C276.447 214.097 291.239 180.069 328.941 181.645C340.568 169.538 369.671 145.432 404.38 162.409C409.953 158.004 417.969 152.452 427.222 148.512C446.074 140.524 469.259 138.805 488.523 160.906C496.229 162.016 509.576 164.881 520.997 171.973C534.413 180.319 545.215 193.823 544.905 215.171C544.802 223.087 538.506 229.391 530.939 229.284C523.336 229.176 517.247 222.621 517.385 214.742C517.557 202.849 509.129 197.083 501.32 193.751C492.1 189.811 481.024 188.88 481.024 188.88L481.024 188.844Z" fill="black"/>
</svg>
