<svg width="384" height="412" viewBox="0 0 384 412" fill="none" xmlns="http://www.w3.org/2000/svg">
<path d="M191.919 0C173.35 0 157.428 11.6447 150.661 28.2197C163.171 24.498 176.296 22.1575 189.98 21.1983C190.521 21.1599 193.653 21.1791 193.858 21.1983C207.543 22.1575 220.649 24.498 233.177 28.2197C226.41 11.6447 210.488 0 191.919 0ZM86.3797 21.2749V21.2941C86.361 21.2749 86.361 21.2749 86.3424 21.2749C84.7018 21.2749 83.0612 21.7737 81.607 22.8097L74.5595 27.8165L74.2426 28.0467L67.419 33.3989L67.1207 33.6483L60.5396 39.3073L60.26 39.5759L53.9399 45.5419L53.6603 45.8105L47.6385 52.0835L47.3589 52.3712L41.6168 58.932L41.3744 59.2389L35.9307 66.0492L35.6883 66.3561L30.5614 73.435L30.3377 73.7611L25.4347 81.2427L25.211 81.588L20.662 89.2999L20.4569 89.6644L16.2621 97.5875L16.0757 97.952L12.2538 106.086L12.086 106.45L8.65558 114.757L8.50643 115.141L5.44893 123.601L5.31842 124.004L2.65243 132.598L2.54057 133.001L0.284688 141.711C-0.908494 146.334 1.7575 151.072 6.2506 152.3C6.97767 152.492 7.7048 152.588 8.41321 152.588C12.1232 152.588 15.5165 150.036 16.523 146.161L18.723 137.643L21.2585 129.432L24.1668 121.356L27.4668 113.433L31.1022 105.683L35.1106 98.1047L39.4545 90.7381L44.1526 83.6017L49.037 76.849L54.2198 70.3457L59.7008 64.111L65.4614 58.1254L71.4832 52.4275L77.7474 47.0174L84.2541 41.9143L91.1521 37.0224C94.9554 34.3174 95.9248 28.9269 93.2961 25.0132C91.6555 22.5769 89.0456 21.2749 86.3797 21.2749ZM297.477 21.2749V21.2941L297.459 21.2749C294.793 21.2749 292.183 22.5794 290.561 25.0158C287.913 28.9485 288.883 34.3199 292.686 37.025L299.584 41.9169L306.091 47.02L312.355 52.4301L318.377 58.128L324.137 64.1136L329.618 70.3483L334.801 76.8516L339.686 83.6044L344.384 90.7407L348.728 98.1073L352.736 105.685L356.371 113.435L359.671 121.359L362.58 129.435L365.115 137.646L367.315 146.164C368.322 150.039 371.715 152.59 375.425 152.59C376.152 152.59 376.879 152.494 377.588 152.302C382.081 151.075 384.747 146.336 383.553 141.732L381.298 133.004L381.186 132.601L378.52 124.006L378.389 123.604L375.332 115.143L375.183 114.76L371.752 106.453L371.584 106.088L367.762 97.9546L367.576 97.5901L363.381 89.667L363.176 89.3025L358.627 81.5906L358.403 81.2453L353.5 73.7637L353.277 73.4376L348.15 66.3587L347.908 66.0518L342.464 59.2415L342.221 58.9346L336.479 52.3738L336.2 52.0861L330.178 45.8131L329.898 45.5445L323.597 39.5785L323.299 39.3099L316.717 33.6509L316.419 33.4015L309.596 28.0493L309.279 27.8191L302.231 22.8123C300.777 21.7763 299.118 21.2749 297.477 21.2749ZM190.874 33.6102L190.818 33.6294C172.062 34.953 154.612 38.9815 138.447 45.7539H138.428C134.532 47.3845 130.691 49.1879 126.925 51.1448L126.869 51.164C111.861 58.9717 98.1767 69.2546 85.7414 82.0505C55.2408 113.435 39.4125 152.417 38.2752 199.014C38.2565 200.203 38.2752 201.373 38.3497 202.543L39.487 220.001C39.5616 221.133 39.6921 222.284 39.8599 223.396C41.0903 231.339 42.7309 238.993 44.8006 246.398H44.7819C40.4567 247.568 36.2431 249.084 32.1791 250.906H32.1604C17.6556 257.352 9.80689 272.814 9.78828 288.258L9.76963 331.901C9.76963 342.05 13.5915 351.642 20.5641 358.817L20.6573 358.913C27.6298 366.087 37.0822 370.116 46.9446 370.116H336.888C346.75 370.097 356.203 366.087 363.175 358.913C370.147 351.719 374.063 341.992 374.063 331.844L374.044 288.22C374.025 272.354 366.158 257.352 351.672 250.907L351.243 250.715C347.328 248.988 343.245 247.549 339.069 246.398H339.031C341.101 238.974 342.741 231.32 343.972 223.397C344.14 222.265 344.27 221.19 344.345 220.039L345.482 202.544C345.557 201.373 345.594 200.242 345.557 199.052V199.014C344.42 152.416 328.591 113.433 298.091 82.0507C285.655 69.2548 271.915 58.9533 256.907 51.1451L256.46 50.9149C250.065 47.5961 243.484 44.776 236.642 42.3971L236.456 42.3395C222.846 37.6011 208.36 34.7042 193.035 33.6301L190.874 33.6102ZM240.019 382.589H143.8C153.271 399.854 171.281 411.499 191.919 411.499C212.557 411.499 230.567 399.854 240.038 382.589H240.019Z" fill="black"/>
</svg>
