<svg width="688" height="815" viewBox="0 0 688 815" fill="none" xmlns="http://www.w3.org/2000/svg">
<path d="M0.862908 782.4C-1.25482 790.287 0.598527 798.44 5.6192 804.749C10.6425 811.322 18.3097 815 26.5083 815H661.033C661.033 815 661.297 815 661.561 815C676.103 815 688 803.169 688 788.71C688 784.769 686.942 780.825 685.353 777.407L668.274 709.826H19.1108L0.862908 782.4Z" fill="black"/>
<path d="M654.423 9.20424C649.4 3.42037 642.261 0 634.594 0H52.9468C45.2796 0 37.8742 3.15747 32.8535 8.94134C27.8328 14.7252 25.7151 22.3494 26.7726 29.971C29.6809 50.9822 31.9837 71.3099 34.4081 91.7716H652.424C654.954 71.3283 657.424 50.9059 660.501 30.2339C661.826 22.6123 659.444 14.9881 654.423 9.20424Z" fill="black"/>
<path d="M657.331 657.258C631.683 498.204 627.984 326.263 646.491 144.334H40.2563C59.5564 338.359 56.3838 507.669 30.4714 657.258H657.331ZM450.582 510.824C317.068 506.88 211.842 395.935 215.805 262.903C349.587 266.847 454.545 377.795 450.582 510.824Z" fill="black"/>
</svg>
