<svg width="273" height="486" viewBox="0 0 273 486" fill="none" xmlns="http://www.w3.org/2000/svg">
<path d="M136.255 147.046C178.317 147.046 212.415 114.129 212.415 73.5232C212.415 32.9175 178.317 0 136.255 0C94.193 0 60.095 32.9175 60.095 73.5232C60.095 114.129 94.193 147.046 136.255 147.046Z" fill="black"/>
<path d="M211.82 166.002H60.69C27.37 166.002 0 192.424 0 224.59V427.354C0 459.52 27.37 485.942 60.69 485.942H211.82C245.14 485.942 272.51 459.52 272.51 427.354V224.59C272.51 192.424 245.14 166.002 211.82 166.002ZM219.555 251.587L176.715 292.944L133.875 251.587C121.975 240.099 121.975 221.718 133.875 210.23C145.775 198.742 164.815 198.742 176.715 210.23C188.615 198.742 207.655 198.742 219.555 210.23C231.455 221.718 231.455 240.099 219.555 251.587Z" fill="black"/>
</svg>
