<svg xmlns="http://www.w3.org/2000/svg" xmlns:xlink="http://www.w3.org/1999/xlink" xmlns:inkscape="http://www.inkscape.org/namespaces/inkscape" version="1.1" width="311.66667" height="312.5023" viewBox="0 0 311.66667 312.5023">
<path transform="matrix(1,0,0,-1,0,312.71696)" d="M233.75 291.78114C257.4398 278.06727 277.11198 258.3424 290.7892 234.58924 304.46647 210.83603 311.66685 183.89145 311.66667 156.46367 311.66648 129.0359 304.46574 102.0914 290.7882 78.338397 277.11067 54.585359 257.43827 34.86078 233.74828 21.147187 210.05829 7.433594 183.1855 .214233 155.83086 .214661 128.47623 .215088 101.60364 7.435303 77.91409 21.149659 54.22455 34.863985 34.552766 54.589235 20.875977 78.34268 7.199188 102.09613-.000695 129.04087 0 156.46863L.077918 161.53115C.950633 188.51566 8.781952 214.81299 22.808382 237.85938 36.834814 260.90574 56.577688 279.9147 80.112239 293.03297 103.64678 306.15126 130.16986 312.93119 157.09568 312.7118 184.02149 312.4924 210.43119 305.28117 233.75 291.78114ZM205.7 120.74988C202.74886 123.6503 198.7696 125.25664 194.6374 125.21561 190.5052 125.17459 186.55844 123.48956 183.66516 120.53113 180.03769 116.81773 175.70752 113.8676 170.92842 111.85358 166.14933 109.83954 161.0174 108.802127 155.83333 108.802127 150.64926 108.802127 145.51734 109.83954 140.73824 111.85358 135.95914 113.8676 131.62899 116.81773 128.0015 120.53113 125.09365 123.42131 121.168209 125.0479 117.073818 125.05922 112.97942 125.07054 109.04508 123.4657 106.121379 120.59166 103.19767 117.71762 101.51952 113.80531 101.449748 109.70055 101.379978 105.595798 102.92418 101.6284 105.748508 98.65614 112.277568 91.97583 120.0703 86.66881 128.67038 83.04581 137.27045 79.42282 146.50502 77.5567 155.83333 77.5567 165.16165 77.5567 174.39621 79.42282 182.99628 83.04581 191.59636 86.66881 199.3891 91.97583 205.91815 98.65614 208.81084 101.61516 210.41289 105.60506 210.37198 109.74831 210.33107 113.891559 208.65055 117.84886 205.7 120.74988ZM88.934078 222.203C85.995029 225.04923 82.05865 226.62415 77.97275 226.58853 73.88685 226.55294 69.978359 224.90967 67.08908 222.01267 64.1998 219.11566 62.560914 215.19672 62.52541 211.09989 62.489904 207.00307 64.06062 203.05615 66.899257 200.10926L79.24125 187.71863 66.899257 175.328C64.06062 172.3811 62.489904 168.43419 62.52541 164.33737 62.560914 160.24054 64.1998 156.3216 67.08908 153.42459 69.978359 150.52759 73.88685 148.88434 77.97275 148.84873 82.05865 148.81313 85.995029 150.38805 88.934078 153.23427L101.291667 165.60926 113.649257 153.23427C115.08676 151.74192 116.806308 150.55156 118.70753 149.73267 120.60876 148.91378 122.65361 148.48274 124.72275 148.4647 126.79189 148.44669 128.8439 148.84204 130.75904 149.62767 132.67417 150.41332 134.41407 151.57352 135.87723 153.04059 137.3404 154.50766 138.4975 156.25223 139.28105 158.17247 140.06459 160.09273 140.4589 162.15023 140.4409 164.2249 140.42293 166.29958 139.99304 168.34989 139.17633 170.2562 138.35962 172.1625 137.17244 173.88665 135.68408 175.328L123.34208 187.71863 135.68408 200.10926C137.17244 201.55062 138.35962 203.27475 139.17633 205.18106 139.99304 207.08737 140.42293 209.1377 140.4409 211.21237 140.4589 213.28705 140.06459 215.34453 139.28105 217.26479 138.4975 219.18503 137.3404 220.9296 135.87723 222.39667 134.41407 223.86374 132.67417 225.02396 130.75904 225.8096 128.8439 226.59523 126.79189 226.99057 124.72275 226.97254 122.65361 226.95452 120.60876 226.52347 118.70753 225.70459 116.806308 224.8857 115.08676 223.69535 113.649257 222.203L101.291667 209.828 88.934078 222.203ZM198.01741 222.203C195.07836 225.04923 191.14199 226.62415 187.05608 226.58853 182.97019 226.55294 179.06169 224.90967 176.17241 222.01267 173.28313 219.11566 171.64426 215.19672 171.60875 211.09989 171.57324 207.00307 173.14395 203.05615 175.98259 200.10926L188.32459 187.71863 175.98259 175.328C173.14395 172.3811 171.57324 168.43419 171.60875 164.33737 171.64426 160.24054 173.28313 156.3216 176.17241 153.42459 179.06169 150.52759 182.97019 148.88434 187.05608 148.84873 191.14199 148.81313 195.07836 150.38805 198.01741 153.23427L210.375 165.60926 222.73258 153.23427C225.67162 150.38805 229.608 148.81313 233.69391 148.84873 237.7798 148.88434 241.68831 150.52759 244.57758 153.42459 247.46686 156.3216 249.10576 160.24054 249.14127 164.33737 249.17676 168.43419 247.60605 172.3811 244.76743 175.328L232.42543 187.71863 244.76743 200.10926C246.25579 201.55062 247.44295 203.27475 248.25965 205.18106 249.07636 207.08737 249.50626 209.1377 249.52423 211.21237 249.54222 213.28705 249.14794 215.34453 248.3644 217.26479 247.58086 219.18503 246.42372 220.9296 244.96056 222.39667 243.4974 223.86374 241.75748 225.02396 239.84235 225.8096 237.92722 226.59523 235.87523 226.99057 233.80608 226.97254 231.73694 226.95452 229.6921 226.52347 227.79087 225.70459 225.88964 224.8857 224.17008 223.69535 222.73258 222.203L210.375 209.828 198.01741 222.203Z"/>
</svg>
