<svg width="812" height="664" viewBox="0 0 812 664" fill="none" xmlns="http://www.w3.org/2000/svg">
<path d="M328.56 253.494C329.476 255.562 328.771 258.035 327.009 259.171C322.745 261.847 318.621 264.767 314.709 267.849C313.053 269.147 310.832 268.741 309.634 266.876C308.401 264.97 308.788 262.212 310.48 260.874C314.639 257.589 319.009 254.508 323.52 251.669C325.317 250.533 327.608 251.385 328.56 253.494ZM389.284 237.76C403.874 236.178 418.923 236.705 433.337 239.301C435.311 239.666 437.179 238.165 437.531 235.894C437.883 233.542 436.544 231.271 434.5 230.906C419.486 228.189 403.804 227.662 388.579 229.284C386.535 229.487 385.055 231.677 385.266 234.029C385.513 236.381 387.275 238.003 389.284 237.76ZM497.162 267.768C498.818 269.066 501.039 268.66 502.237 266.795C503.47 264.889 503.083 262.172 501.391 260.834C498.572 258.603 495.611 256.454 492.616 254.426C490.853 253.21 488.527 253.98 487.541 256.048V256.089C486.554 258.117 487.188 260.631 488.915 261.766C491.77 263.672 494.519 265.659 497.162 267.768ZM54.5156 413.347C53.9165 411.157 51.9077 409.859 50.0045 410.508C48.0309 411.157 46.8679 413.59 47.467 415.861C49.5111 423.444 51.8372 430.865 54.4804 438.083C55.2909 440.273 57.5113 441.246 59.3791 440.313C61.2117 439.381 62.0576 436.948 61.2823 434.798C58.7801 427.864 56.4892 420.686 54.5156 413.347ZM83.4146 480.339C82.2515 478.473 79.996 477.987 78.3396 479.284C76.6479 480.623 76.225 483.34 77.4233 485.246C89.5473 504.67 104.455 522.513 121.794 538.369C123.416 539.829 125.777 539.505 127.01 537.599C128.244 535.774 127.927 533.138 126.341 531.719C109.565 516.39 95.1506 499.115 83.4146 480.339ZM277.184 607.065C247.756 600.049 220.407 590.357 195.808 578.313C193.941 577.421 191.826 578.394 191.015 580.503C190.205 582.652 191.051 585.207 192.918 586.14C217.976 598.387 245.783 608.241 275.669 615.378C277.678 615.865 279.652 614.364 280.039 612.053C280.462 609.741 279.158 607.551 277.184 607.065ZM331.881 616.878C325.114 616.027 318.383 615.094 311.792 613.999C309.783 613.675 307.951 615.256 307.669 617.568C307.387 619.92 308.761 622.069 310.77 622.393C317.431 623.488 324.233 624.462 331.07 625.313C333.114 625.556 334.947 623.853 335.158 621.501C335.37 619.19 333.89 617.121 331.881 616.878ZM465.49 618.5C446.318 620.366 426.3 621.298 405.965 621.298C402.546 621.298 399.128 621.258 395.709 621.217C393.665 621.177 392.009 623.042 391.974 625.354C391.938 627.706 393.559 629.652 395.604 629.693C399.022 629.733 402.476 629.774 405.929 629.774C426.44 629.774 446.67 628.841 466.054 626.935C468.098 626.732 469.578 624.664 469.402 622.312C469.296 620.001 467.535 618.298 465.49 618.5ZM686.29 536.463C685.057 534.639 682.766 534.314 681.18 535.693C675.682 540.478 669.902 545.101 663.982 549.48C636.845 569.513 604.809 585.653 568.717 597.494C566.778 598.143 565.615 600.455 566.144 602.685C566.673 604.956 568.787 606.294 570.761 605.646C607.554 593.601 640.224 577.097 667.957 556.617C674.054 552.116 680.009 547.331 685.648 542.424C687.27 541.004 687.559 538.329 686.29 536.463ZM736.617 474.175C734.925 472.918 732.705 473.445 731.577 475.351C726.432 484.07 720.687 492.504 714.485 500.494C713.145 502.237 713.216 504.833 714.696 506.414C716.212 508.036 718.608 507.915 719.983 506.13C726.432 497.858 732.353 489.099 737.674 480.096C738.837 478.149 738.344 475.473 736.617 474.175ZM756.423 429.608C758.362 430.459 760.547 429.364 761.252 427.134C764.635 416.387 767.419 405.195 769.569 393.76C769.992 391.448 768.653 389.137 766.644 388.691C764.67 388.245 762.767 389.704 762.344 391.975C760.265 403.046 757.586 413.874 754.309 424.255C753.604 426.405 754.52 428.797 756.423 429.608ZM230.845 580.865C237.929 584.393 246.352 587.475 254.282 589.421C256.361 589.908 258.37 588.407 258.723 586.015C259.075 583.785 257.842 581.635 255.903 581.149C248.397 579.324 240.396 576.363 233.701 573.038C231.903 572.146 229.824 573.079 228.978 575.106C228.062 577.296 228.907 579.891 230.845 580.865ZM615.452 560.426C621.514 558.155 628.597 554.14 635.012 549.396C636.774 548.057 637.267 545.34 636.034 543.353C634.906 541.528 632.721 541.001 631.065 542.218C625.214 546.557 618.624 550.288 613.196 552.356C611.364 553.045 610.341 555.154 610.764 557.303C611.223 559.736 613.408 561.196 615.452 560.426ZM812 331.35C812 343.88 808.581 353.41 801.568 360.507C794.943 457.711 751.947 536.949 677.198 589.749C608.368 638.331 514.591 664 406 664C175.898 664 28.4036 554.144 11.2074 370.082C3.66535 360.268 0 347.575 0 331.354C0 88.242 242.787 0 405.998 0C569.173 0 812 88.2378 812 331.35ZM755.188 227.089C757.373 232.118 759.382 237.187 761.215 242.337C761.92 244.324 763.893 245.338 765.62 244.527L766.078 244.324C767.876 243.513 768.757 241.202 768.052 239.134C766.149 233.781 764.034 228.428 761.779 223.196C760.933 221.209 758.818 220.439 757.091 221.493L756.668 221.736C754.977 222.791 754.342 225.143 755.188 227.089ZM736.826 255.678C736.826 258.76 738.976 261.234 741.655 261.234C744.333 261.234 746.483 258.761 746.483 255.678C746.483 252.596 744.333 250.123 741.655 250.123C739.011 250.082 736.826 252.596 736.826 255.678ZM731.293 354.748L731.575 355.235C732.597 357.019 734.606 357.465 736.227 356.451C742.958 352.193 750.5 350.044 757.866 347.976C768.157 345.056 777.848 342.299 782.712 333.702C787.47 325.267 784.016 304.625 778.976 280.091C778.518 277.82 776.509 276.401 774.536 276.928C772.562 277.455 771.329 279.726 771.822 281.997C774.994 297.407 779.928 323.036 776.545 329.037C773.267 334.836 765.302 337.107 756.104 339.702C748.597 341.811 740.21 344.203 732.561 349.069C730.764 350.164 730.165 352.802 731.293 354.748ZM686.922 182.157C684.807 186.172 685.935 191.403 689.424 193.796L712.015 209.368C715.504 211.801 720.05 210.504 722.13 206.489C724.244 202.474 723.117 197.243 719.627 194.85L697.037 179.238C693.548 176.845 689.037 178.143 686.922 182.157ZM716.209 298.18L699.751 262.737C697.848 258.6 693.372 257.019 689.777 259.249C686.182 261.439 684.807 266.589 686.746 270.726L703.204 306.169C705.107 310.305 709.583 311.887 713.178 309.657C716.738 307.467 718.112 302.317 716.209 298.18ZM711.451 382.082L710.993 381.839C709.231 380.906 707.081 381.799 706.376 383.867C702.323 395.546 700.596 407.955 699.187 419.147C698.799 422.107 698.552 425.149 698.482 428.15C698.2 438.247 697.918 444.492 693.865 446.641C689.636 448.912 675.468 444.492 666.974 441.856L665.001 441.247C661.159 440.071 657.212 438.814 653.194 437.719C651.326 437.192 649.459 438.571 649.036 440.72L648.93 441.288C648.507 443.397 649.67 445.465 651.503 445.992C655.45 447.087 659.327 448.304 663.204 449.48L665.071 450.047C675.221 453.21 683.926 455.725 690.341 455.725C692.984 455.725 695.204 455.319 697.002 454.346C705.178 449.966 705.495 439.463 705.812 430.217C705.918 427.176 705.988 424.337 706.341 421.742C707.821 410.225 709.337 398.303 713.213 387.192C713.848 385.245 713.143 382.975 711.451 382.082ZM676.314 139.656C676.314 142.738 678.464 145.212 681.143 145.212C683.821 145.212 685.971 142.738 685.971 139.656C685.971 136.574 683.821 134.1 681.143 134.1C678.464 134.1 676.314 136.574 676.314 139.656ZM660.314 381.345L635.363 409.448C632.437 412.733 632.402 418.086 635.222 421.451C638.076 424.817 642.728 424.857 645.653 421.613L670.605 393.511C673.53 390.226 673.565 384.873 670.746 381.508C667.891 378.142 663.239 378.061 660.314 381.345ZM607.52 132.026C610.622 135.067 615.274 134.661 617.916 131.093L640.507 100.476C643.15 96.9074 642.798 91.5544 639.696 88.5135C636.595 85.4726 631.943 85.8776 629.3 89.4462L606.71 120.063C604.066 123.632 604.419 129.025 607.52 132.026ZM607.238 249.18C610.199 252.383 614.886 252.262 617.67 248.815L641.564 219.536C644.348 216.13 644.243 210.736 641.247 207.533C638.286 204.329 633.599 204.451 630.815 207.898L606.921 237.177C604.137 240.583 604.278 245.977 607.238 249.18ZM599.273 317.429L627.257 341.477C630.499 344.275 635.151 343.545 637.582 339.773C640.014 336.043 639.38 330.69 636.102 327.892L608.119 303.844C604.877 301.046 600.225 301.776 597.793 305.548C595.326 309.279 595.996 314.591 599.273 317.429ZM586.622 387.017C586.622 390.099 588.771 392.572 591.45 392.572C594.128 392.572 596.278 390.099 596.278 387.017C596.278 383.935 594.128 381.461 591.45 381.461C588.807 381.461 586.622 383.935 586.622 387.017ZM577.353 179.181C574.675 179.181 572.525 181.655 572.525 184.737C572.525 187.819 574.675 190.292 577.353 190.292C580.031 190.292 582.181 187.819 582.181 184.737C582.217 181.695 580.032 179.181 577.353 179.181ZM567.697 81.3279C567.697 84.41 569.846 86.8837 572.525 86.8837C575.203 86.8837 577.353 84.41 577.353 81.3279C577.353 78.2459 575.203 75.7722 572.525 75.7722C569.846 75.7317 567.697 78.2459 567.697 81.3279ZM561.036 483.649C559.203 487.096 557.441 490.583 555.679 494.071C553.74 497.883 551.908 501.898 550.146 505.75C543.696 519.903 537.599 533.244 526.886 534.542C518.568 535.515 507.96 526.107 497.704 516.983C496.717 516.131 495.766 515.239 494.779 514.387C493.264 513.049 491.079 513.414 489.951 515.158L489.669 515.604C488.541 517.348 488.823 519.821 490.338 521.119C491.29 521.971 492.242 522.822 493.193 523.674C503.907 533.244 515.009 543.098 525.652 543.098C526.322 543.098 526.956 543.058 527.626 542.977C542.287 541.233 549.582 525.175 556.63 509.684C558.357 505.912 560.119 502.019 561.987 498.37C563.749 494.964 565.476 491.517 567.274 488.11C568.261 486.245 567.767 483.852 566.181 482.717L565.758 482.433C564.208 481.176 562.058 481.743 561.036 483.649ZM492.488 294.105C471.413 272.896 440.47 259.474 406.002 259.474C370.618 259.474 338.9 273.627 317.825 295.849C336.644 307.326 364.98 315.68 406.002 315.68C445.051 315.68 473.175 306.555 492.488 294.105ZM472.329 444.594C469.65 444.594 467.5 447.068 467.5 450.15C467.5 453.232 469.65 455.706 472.329 455.706C475.007 455.706 477.157 453.232 477.157 450.15C477.192 447.068 475.007 444.594 472.329 444.594ZM270.106 479.997C280.15 489.892 287.445 504.044 293.93 516.656C296.397 521.441 301.718 531.741 306.476 538.878C307.709 540.662 310 540.906 311.48 539.365L311.868 539C313.207 537.621 313.419 535.269 312.291 533.647C307.78 526.915 302.458 516.615 300.273 512.357C293.436 499.137 285.753 484.254 274.722 473.426C273.242 471.967 270.987 472.331 269.788 474.116L269.471 474.562C268.379 476.225 268.696 478.618 270.106 479.997ZM276.344 209.468C283.674 203.588 291.463 200.911 300.062 201.398C301.895 201.519 303.516 200.06 303.727 197.992L303.798 197.343C304.044 195.031 302.494 193.044 300.485 192.963C290.265 192.436 280.749 195.639 272.15 202.574C267.85 206.021 264.15 210.279 261.154 215.227C259.991 217.133 260.449 219.769 262.176 220.945L262.669 221.269C264.184 222.283 266.123 221.837 267.11 220.215C269.612 215.957 272.714 212.388 276.344 209.468ZM316.485 418.674C319.974 416.281 321.137 411.05 319.023 407.035L301.084 372.566C299.004 368.551 294.458 367.213 290.969 369.646C287.48 372.039 286.317 377.27 288.431 381.285L306.37 415.754C308.485 419.769 312.996 421.066 316.485 418.674ZM352.468 348.721C354.336 349.126 356.133 347.666 356.451 345.517L356.556 344.868C356.874 342.76 355.605 340.773 353.807 340.408C322.934 333.879 298.864 321.145 282.088 302.573C280.749 301.113 278.705 301.072 277.366 302.532L276.943 303.019C275.568 304.56 275.533 307.114 276.908 308.655C294.706 328.363 320.116 341.867 352.468 348.721ZM347.147 518.955L347.499 519.361C348.768 520.983 350.953 521.104 352.363 519.604C365.614 505.695 380.627 490.731 400.01 484.607C401.808 484.039 402.936 482.012 402.513 479.903L402.407 479.335C401.984 477.146 400.081 475.767 398.213 476.335C377.067 482.985 360.75 499.246 347.393 513.278C345.913 514.819 345.843 517.333 347.147 518.955ZM374.389 383.27C377.068 383.27 379.217 380.796 379.217 377.714C379.217 374.632 377.068 372.159 374.389 372.159C371.711 372.159 369.561 374.632 369.561 377.714C369.561 380.756 371.711 383.23 374.389 383.27ZM421.58 398.761C424.787 395.882 425.351 390.529 422.848 386.839C420.346 383.149 415.694 382.5 412.487 385.379L391.799 404.155C388.592 407.034 388.028 412.387 390.531 416.077C393.033 419.767 397.685 420.416 400.892 417.537L421.58 398.761ZM508.313 417.861C511.414 420.902 516.066 420.416 518.709 416.847L541.123 386.068C543.767 382.5 543.344 377.147 540.242 374.106C537.141 371.064 532.489 371.551 529.846 375.12L507.431 405.898C504.824 409.508 505.211 414.861 508.313 417.861ZM551.485 258.569C544.684 286.915 523.221 311.611 491.889 327.224C490.198 328.076 489.352 330.306 490.057 332.253L490.268 332.861C490.973 334.888 493.017 335.862 494.779 335.01C528.26 318.343 551.274 291.578 558.639 260.637C559.133 258.528 557.934 256.338 556.067 255.851L555.503 255.689C553.705 255.243 551.979 256.541 551.485 258.569ZM501.546 54.9996L518.462 78.2364C521.07 81.8456 525.723 82.3321 528.859 79.3313C531.995 76.3304 532.418 70.9775 529.81 67.3688L512.894 44.1321C510.286 40.5229 505.634 40.0363 502.497 43.0372C499.361 46.038 498.938 51.391 501.546 54.9996ZM529.211 139.025L514.339 113.963C512.049 110.07 507.467 109.056 504.084 111.692C500.701 114.328 499.819 119.6 502.11 123.493L516.982 148.554C519.273 152.447 523.855 153.461 527.238 150.825C530.621 148.189 531.502 142.917 529.211 139.025ZM449.104 118.708C449.104 121.79 451.254 124.264 453.933 124.264C456.611 124.264 458.761 121.79 458.761 118.708C458.761 115.626 456.611 113.153 453.933 113.153C451.254 113.112 449.104 115.626 449.104 118.708ZM447.941 168.101C458.091 177.671 465.281 190.121 470.391 199.569C471.378 201.394 473.457 201.921 475.043 200.786L475.537 200.421C477.123 199.285 477.651 196.893 476.629 195.027C471.237 185.011 463.589 171.791 452.488 161.369C451.007 159.949 448.787 160.355 447.624 162.139L447.272 162.666C446.214 164.41 446.532 166.763 447.941 168.101ZM416.505 76.2898C419.712 79.169 424.328 78.5608 426.866 74.8705L443.078 50.9445C445.58 47.2542 445.051 41.9418 441.844 39.0224C438.637 36.1433 434.02 36.7515 431.483 40.4418L415.271 64.3678C412.734 68.0581 413.297 73.3705 416.505 76.2898ZM351.763 46.6457C351.763 49.7278 353.913 52.2015 356.591 52.2015C359.27 52.2015 361.42 49.7278 361.42 46.6457C361.42 43.5637 359.27 41.09 356.591 41.09C353.913 41.09 351.763 43.5637 351.763 46.6457ZM349.226 103.582L365.05 127.831C367.481 131.603 372.098 132.373 375.376 129.575C378.653 126.777 379.323 121.465 376.891 117.694L361.067 93.4438C358.635 89.6724 354.018 88.9019 350.741 91.7C347.464 94.4981 346.794 99.8511 349.226 103.582ZM342.248 239.266C313.489 244.822 303.798 223.613 291.11 233.832C281.7 241.375 282.37 268.099 308.062 288.984C331.146 263.192 366.424 246.728 405.997 246.728C444.553 246.728 479.021 262.381 502.138 286.997C530.614 263.273 533.011 232.454 520.887 225.925C506.719 218.301 495.054 252.325 469.784 243.201C449.519 235.901 444.233 177.547 406.03 182.859C374.064 187.279 376.75 232.576 342.248 239.266ZM326.882 157.837C326.882 160.919 329.032 163.393 331.71 163.393C334.389 163.393 336.538 160.919 336.538 157.837C336.538 154.755 334.389 152.281 331.71 152.281C329.032 152.281 326.882 154.755 326.882 157.837ZM272.502 74.2987L293.226 93.034C296.433 95.9538 301.049 95.3455 303.587 91.6552C306.124 87.965 305.595 82.6526 302.388 79.7332L281.665 60.9979C278.458 58.0782 273.841 58.727 271.304 62.3767C268.767 66.067 269.295 71.4198 272.502 74.2987ZM251.392 138.047L265.137 163.919C267.251 167.934 271.762 169.232 275.252 166.798C278.741 164.365 279.868 159.175 277.754 155.16L264.009 129.287C261.895 125.273 257.384 123.975 253.895 126.408C250.406 128.841 249.278 134.032 251.392 138.047ZM248.15 347.865C248.15 350.947 250.3 353.421 252.978 353.421C255.657 353.421 257.807 350.947 257.807 347.865C257.807 344.783 255.657 342.31 252.978 342.31C250.335 342.31 248.15 344.783 248.15 347.865ZM226.194 309.341L199.621 283.266C196.519 280.225 191.867 280.63 189.224 284.199C186.581 287.767 186.933 293.12 190.035 296.161L216.608 322.236C219.709 325.278 224.361 324.872 227.004 321.303C229.647 317.735 229.295 312.382 226.194 309.341ZM143.302 430.232C158.527 441.669 162.298 462.553 164.765 480.558C165.047 482.708 166.809 484.208 168.677 483.843L169.17 483.762C171.038 483.438 172.342 481.41 172.06 479.261C169.347 459.512 165.258 436.478 147.39 423.177C145.698 421.92 143.408 422.529 142.421 424.597L142.245 424.962C141.364 426.746 141.787 429.097 143.302 430.232ZM145.064 315.674C145.064 312.592 142.915 310.118 140.236 310.118C137.558 310.118 135.408 312.592 135.408 315.674C135.408 318.756 137.558 321.229 140.236 321.229C142.915 321.229 145.064 318.756 145.064 315.674ZM176.149 396.292L190.281 370.703C192.466 366.77 191.479 361.498 188.061 358.984C184.642 356.47 180.06 357.605 177.875 361.539L163.743 387.127C161.558 391.06 162.545 396.332 165.963 398.846C169.417 401.401 173.964 400.266 176.149 396.292ZM207.621 94.9089C207.621 97.9909 209.77 100.465 212.449 100.465C215.127 100.465 217.277 97.9909 217.277 94.9089C217.277 91.827 215.127 89.3532 212.449 89.3532C209.806 89.3126 207.621 91.8269 207.621 94.9089ZM178.58 232.463C181.082 236.153 185.734 236.802 188.941 233.922L209.629 215.147C212.836 212.267 213.4 206.915 210.898 203.225C208.395 199.534 203.743 198.886 200.537 201.765L179.814 220.541C176.642 223.42 176.078 228.773 178.58 232.463ZM127.161 165.794C130.156 168.957 134.844 168.755 137.592 165.308L163.425 132.947C166.174 129.5 165.998 124.106 163.003 120.944C160.007 117.781 155.32 117.983 152.571 121.43L126.738 153.791C123.954 157.279 124.165 162.632 127.161 165.794ZM97.4156 207.279C97.4156 210.361 99.5654 212.835 102.244 212.835C104.922 212.835 107.072 210.361 107.072 207.279C107.072 204.197 104.922 201.724 102.244 201.724C99.6006 201.724 97.4156 204.197 97.4156 207.279ZM94.0675 277.76C96.887 281.166 101.539 281.288 104.499 278.084L129.768 250.346C132.729 247.102 132.834 241.749 130.05 238.343C127.231 234.937 122.579 234.815 119.619 238.019L94.3495 265.757C91.3891 269.001 91.2834 274.354 94.0675 277.76ZM82.3667 378.938C91.3888 389.319 94.9481 401.809 97.1685 411.339C97.6619 413.448 99.5297 414.665 101.327 414.137L101.785 413.975C103.653 413.448 104.746 411.258 104.252 409.15C101.821 398.647 97.8734 384.777 87.4765 372.855C86.0315 371.192 83.7055 371.233 82.4015 373.017L82.0843 373.463C80.8861 375.086 81.0627 377.438 82.3667 378.938ZM28.6919 331.33C28.6919 341.833 30.0663 347.632 37.8548 352.903C39.5818 354.079 41.8725 353.268 42.7183 351.16L42.9298 350.633C43.7051 348.767 43.0355 346.577 41.4848 345.523C36.5507 342.238 36.0221 339.318 36.0221 331.289C36.0221 316.812 37.0794 302.538 39.1235 288.872C39.4407 286.763 38.2424 284.735 36.4098 284.33L35.9869 284.208C34.119 283.803 32.2512 285.222 31.9339 287.412C29.7841 301.565 28.6919 316.326 28.6919 331.33ZM787.087 366.408C772.038 373.342 753.078 375.532 742.716 387.819C726.153 407.568 738.241 461.463 710.046 479.995C681.534 498.73 638.257 461.462 613.094 474.196C586.556 487.619 579.366 549.096 539.33 569.737C499.294 590.338 458.835 511.503 418.126 511.503C378.231 511.503 356.064 577.117 315.887 576.996C277.824 576.874 268.732 498.648 242.123 496.946C219.638 495.526 197.999 545 163.074 536.971C132.765 529.996 145.804 465.437 128.289 454.488C115.425 446.458 97.4508 456.596 82.9666 444.796C70.8074 434.86 75.3189 411.137 62.9482 398.728C55.23 390.983 39.6529 387.981 26.2956 379.466C30.5247 413.084 39.4409 444.106 52.9742 472.087C71.4417 510.369 98.649 543.298 133.751 569.9C201.029 620.956 295.167 647.963 406.004 647.963C516.842 647.963 610.979 620.995 678.257 569.941C713.359 543.298 740.531 510.409 759.034 472.128C774.294 440.497 783.669 405.059 787.087 366.408Z" fill="black"/>
</svg>
