<svg width="824" height="824" viewBox="0 0 824 824" fill="none" xmlns="http://www.w3.org/2000/svg">
<path d="M700.532 246.438C681.928 246.438 665.576 242.393 655.759 232.095L614.816 260.816L685.886 277.097C689.266 277.879 691.423 281.414 690.682 284.983C690.039 288.076 687.431 290.217 684.535 290.217C684.084 290.217 683.633 290.183 683.183 290.081L600.173 271.081L579.025 285.934C592.351 313.737 644.302 342.016 676.876 350.072C680.481 350.956 683.732 351.601 686.532 351.941C720.877 356.326 752.195 330.392 756.348 294.16C758.569 274.785 752.743 255.751 740.318 241.476C726.993 244.501 713.246 246.438 700.532 246.438Z" fill="black"/>
<path d="M568.593 293.242L539.913 313.364L589.161 342.119C592.186 343.886 593.313 347.931 591.607 351.127C590.448 353.302 588.324 354.56 586.103 354.56C585.073 354.56 584.043 354.288 583.077 353.744L528.133 321.658L505.054 337.837C518.734 369.447 554.011 407.311 577.347 420.363C607.893 437.46 645.939 425.156 662.129 392.9C666.989 383.213 669.468 372.506 669.436 361.698C634.866 351.876 584.62 324.139 568.593 293.242Z" fill="black"/>
<path d="M556.167 144.572C555.394 147.461 554.686 150.86 554.043 154.701C548.442 189.54 553.012 251.059 572.132 274.823L593.279 260.003L608.858 171.833C609.501 168.23 612.785 165.851 616.196 166.531C619.608 167.211 621.861 170.678 621.218 174.281L607.86 249.771L648.835 221.016C642.237 203.783 647.741 178.495 664.864 148.687C667.504 144.098 670.368 139.509 673.394 134.955C665.734 117.383 651.41 104.365 633.643 99.0284C600.426 89.0358 565.63 109.461 556.167 144.572Z" fill="black"/>
<path d="M813.536 113.439C804.266 98.7217 790.103 88.6604 773.688 85.1599C769.504 84.2762 765.319 83.8343 761.167 83.8343C748.936 83.8343 736.994 87.6071 726.598 94.9145C710.633 106.097 689.678 131.045 675.613 155.552C661.74 179.752 656.171 200.282 659.648 213.435L734.387 160.99C737.284 158.951 741.179 159.801 743.11 162.86C745.041 165.919 744.237 170.031 741.34 172.071L666.536 224.55C680.57 236.514 711.696 235.052 741.147 227.779C741.211 227.779 741.276 227.745 741.34 227.711C763.002 222.341 783.731 213.843 795.995 205.244C824.803 185.021 832.688 143.861 813.536 113.439Z" fill="black"/>
<path d="M454.04 224.406C454.845 233.685 457.548 245.378 461.604 257.75C461.636 257.818 461.636 257.886 461.668 257.954C469.78 282.528 483.266 309.787 498.073 326.783L521.12 310.603L514.392 244.664C514.006 241.027 516.517 237.764 519.961 237.357C523.405 236.983 526.495 239.6 526.881 243.237L532.9 302.311L561.612 282.189C540.851 254.589 536.119 194.941 540.947 157.482C531.517 153.267 521.184 151.534 510.852 152.52C476.444 155.817 450.95 188.038 454.04 224.406Z" fill="black"/>
<path d="M453.488 305.032L460.73 290.111C456.707 281.308 453.134 272.301 450.205 263.566L432.759 237.631C430.764 234.64 431.408 230.494 434.24 228.386C436.59 226.619 439.712 226.823 441.836 228.692C441.708 227.673 441.547 226.619 441.482 225.633C440.903 218.835 441.16 212.207 442.158 205.749C432.309 191.508 423.618 175.193 418.146 160.747C409.713 161.835 401.634 165.03 394.552 170.128C370.347 187.632 364.135 222.642 380.679 248.202C393.362 267.746 426.805 295.55 453.488 305.032Z" fill="black"/>
<path d="M533.218 141.031L564.858 75.9408C566.436 72.6778 570.234 71.3862 573.324 73.0517C576.413 74.7172 577.637 78.7279 576.059 81.9906L564.954 104.831C581.402 88.5505 604.417 80.4269 627.688 84.1319C628.107 83.3502 628.525 82.6024 628.879 81.8547C635.381 68.4964 636.54 53.2692 632.194 38.9939C627.849 24.7186 618.482 13.0597 605.833 6.22836C593.183 -0.637472 578.796 -1.86113 565.244 2.72749C551.726 7.31602 540.685 17.2073 534.183 30.5646C528.454 42.3253 523.529 62.0728 521.308 82.0927C518.605 106.191 520.117 126.823 525.428 139.603C528.068 139.875 530.676 140.385 533.218 141.031Z" fill="black"/>
<path d="M428.257 151.498C432.184 163.122 438.782 176.582 446.572 189.124C452.688 172.979 463.663 159.282 477.794 150.309L474.672 140.588C473.578 137.121 475.316 133.348 478.599 132.193C481.882 131.003 485.455 132.872 486.549 136.339L489.124 144.395C495.562 141.743 502.45 139.976 509.692 139.262C510.4 139.194 511.141 139.194 511.849 139.126C506.28 121.248 506.989 98.9169 508.405 84.2335C495.916 74.8187 480.402 71.5557 465.305 75.3286C436.755 82.5003 419.052 112.819 425.811 142.967C426.422 145.516 427.227 148.371 428.257 151.498Z" fill="black"/>
<path d="M495.009 327.769L437.684 368.998L473.379 298.131L464.785 292.25L425.935 364.886C399.058 338.579 362.944 325.22 326.156 328.212C287.692 331.339 252.479 351.834 229.468 384.499L211.668 412.88L248.136 451.39C250.583 453.973 250.583 458.188 248.136 460.771C246.913 462.062 245.304 462.708 243.695 462.708C242.085 462.708 240.476 462.062 239.253 460.771L204.555 424.131L127.852 546.288L174.942 596.014C177.388 598.597 177.388 602.812 174.942 605.395C173.719 606.686 172.109 607.332 170.5 607.332C168.891 607.332 167.281 606.686 166.058 605.395L120.77 557.572L22.9856 713.342C22.9212 713.444 22.8568 713.546 22.7925 713.614C-5.30768 753.62 -7.30259 781.252 16.1297 805.995C40.1098 831.318 70.4628 829.924 106.317 801.849L116.36 794.677L78.2496 754.433C75.8033 751.85 75.8033 747.636 78.2496 745.053C80.6959 742.47 84.6871 742.469 87.1332 745.053L126.949 787.131L198.695 735.807L174.329 710.078C171.883 707.495 171.883 703.28 174.329 700.697C176.775 698.114 180.767 698.114 183.213 700.697L209.317 728.263L320.879 648.455L265.549 590.028C263.103 587.445 263.103 583.23 265.549 580.647C267.995 578.064 271.986 578.064 274.432 580.647L331.469 640.877L415.443 580.784C420.979 576.433 426.13 571.674 430.893 566.542L367.934 500.059C365.488 497.476 365.488 493.261 367.934 490.679C370.381 488.096 374.372 488.095 376.818 490.679L439.262 556.618C456.128 534.661 466.557 507.571 468.649 478.748C471.16 444.249 461.471 410.327 441.837 383.269L502.511 339.729L495.009 327.769Z" fill="black"/>
</svg>
