<svg width="799" height="831" viewBox="0 0 799 831" fill="none" xmlns="http://www.w3.org/2000/svg">
<path d="M740.676 431.268C743.59 429.937 812.15 397.831 796.749 321.185C781.381 244.668 703.482 242.493 700.2 242.428C697.981 242.395 695.961 241.194 694.868 239.311C693.775 237.428 693.808 235.124 694.901 233.273C696.292 230.903 728.187 174.839 667.345 123.58C606.205 72.0284 539.603 116.601 536.813 118.549C534.892 119.847 532.408 120.009 530.322 118.938C528.268 117.867 526.977 115.757 527.01 113.484C527.01 112.932 526.977 86.4745 511.873 59.5944C491.703 23.6574 455.37 3.7566 403.87 0.445626C352.169 -2.89809 311.035 12.5867 281.622 46.5117C259.498 72.0605 252.575 99.0378 252.509 99.3303C252.046 101.148 250.754 102.674 249.032 103.421C247.309 104.2 245.289 104.135 243.6 103.291C197.529 79.8847 143.448 112.348 142.88 112.673C66.7028 159.063 85.8463 241.655 86.6746 245.129C87.0721 246.719 86.774 248.407 85.8798 249.771C85.0186 251.167 83.5945 252.141 81.9715 252.498C78.4276 253.277 -4.93646 272.755 0.230542 373.875C2.3834 415.98 21.4937 445.782 57.0319 462.467C83.9259 475.095 110.786 475.226 111.283 475.226H111.316C114.595 475.226 117.311 477.725 117.543 480.939C117.642 482.335 120.59 516.033 164.044 528.433C192.395 536.517 221.872 530.349 240.155 524.505C234.922 512.883 228.894 501.196 221.972 489.51C217.898 490.094 213.626 490.419 209.254 490.419H208.293C204.849 490.386 202.1 487.627 202.133 484.251C202.166 480.907 204.948 478.212 208.36 478.212H209.221C211.142 478.212 213.03 478.115 214.884 477.985C219.488 477.628 223.893 476.881 228.1 475.745C243.534 471.72 256.384 463.214 266.42 454.319C282.019 440.457 290.598 425.654 290.763 425.362C291.889 423.381 294.042 422.148 296.394 422.245C298.712 422.31 300.799 423.641 301.825 425.686C301.925 425.816 311.166 442.665 346.902 450.976C356.242 453.151 367.371 454.741 380.652 455.326C391.582 455.78 401.385 454.936 410.03 453.151C452.258 444.547 468.586 414.421 469.381 412.895C470.541 410.688 472.958 409.389 475.509 409.617C478.059 409.844 480.179 411.564 480.907 413.934C486.24 431.724 494.553 445.683 505.615 455.552C510.882 460.26 516.777 464.058 523.301 466.915C531.317 470.421 539.795 472.336 548.274 473.148C552.646 473.57 557.017 473.667 561.324 473.57C591.993 472.791 619.284 460.324 619.682 460.13C622.762 458.669 626.472 459.967 627.962 463.019C629.452 466.038 628.128 469.674 625.047 471.135C623.756 471.752 606.832 479.51 584.21 483.504C580.004 484.25 575.599 484.867 571.061 485.257C569.372 485.419 567.683 485.549 565.961 485.614C566.49 486.783 567.02 487.886 567.584 489.023C569.538 492.918 571.724 496.716 574.141 500.288C582.388 512.592 593.186 522.817 605.706 529.797C629.088 542.88 657.473 544.114 687.811 533.336C759.086 508.046 738.352 441.428 737.426 438.611C736.465 435.657 737.889 432.508 740.738 431.209L740.676 431.268ZM230.657 401.207C230.293 401.499 229.896 401.791 229.531 402.083C197.868 426.496 151.401 419.97 135.9 380.495C130.567 367.217 129.54 353.323 131.528 339.655C132.554 332.935 134.177 326.799 137.092 320.469C138.549 317.223 142.424 315.762 145.736 317.19C147.823 318.099 149.081 319.885 149.545 321.898C156.765 344.362 160.442 372.995 181.506 384.877C194.655 391.791 210.056 391.402 224.96 392.603C226.053 392.7 227.113 392.798 228.206 392.895C232.346 393.187 233.935 398.739 230.723 401.173L230.657 401.207ZM318.659 198.892C316.904 199.703 314.188 198.567 312.466 198.177C297.363 189.185 279.379 188.048 262.388 191.62C257.42 192.691 251.988 193.925 247.484 196.1C226.618 207.105 218.669 230.803 209.628 252.067C207.74 258.203 198.798 258.04 197.241 251.84C187.834 213.5 208.468 166.364 251.956 160.971C277.293 156.556 308.79 164.834 320.349 189.409C320.813 190.416 321.144 191.26 321.641 192.591C322.568 195.123 321.243 197.915 318.66 198.856L318.659 198.892ZM660 404.714C650.626 412.603 639.896 417.894 628.503 419.972C625.588 420.491 622.806 418.64 622.276 415.784C621.978 414.161 622.442 412.602 623.468 411.434C635.855 396.468 646.917 384.229 651.223 366.017C654.502 351.928 652.614 335.664 649.997 320.958C649.567 318.263 648.772 314.725 648.706 312.063C648.275 307.128 654.601 303.947 658.443 307.063C689.311 331.119 690.437 379.489 660 404.714Z" fill="black"/>
<path d="M552.454 485.737C541.027 485.185 529.369 482.945 518.241 478.075C510.523 474.699 503.568 470.284 497.375 464.797C490.585 472.978 484.226 481.776 477.9 490.898C458.359 520.082 441.434 552.481 427.458 585.008C424.974 591.436 415.17 590.397 414.243 583.514C409.606 546.278 406.459 505.634 409.01 465.835C400.299 467.328 390.661 468.043 380.062 467.556C367.476 467.004 356.58 465.575 347.14 463.595C347.438 485.93 346.875 508.297 345.716 530.73C344.756 548.552 343.431 566.212 341.444 583.808C341.079 587.411 335.78 588.19 334.422 584.717C316.769 543.65 296.4 503.233 273.083 465.084C262.849 473.85 249.998 482.128 234.664 486.705C241.155 497.906 246.819 509.138 251.82 520.273C253.509 524.039 255.132 527.805 256.655 531.538C281.065 591.401 285.867 648.503 284.443 691.028C282.654 745.535 270.83 785.754 266.458 799.001C273.811 803.383 291.167 812.863 315.775 820.362C321.935 803.059 326.539 784.782 330.381 767.024C335.945 741.443 340.351 715.375 343.795 689.404C344.424 684.697 351.479 684.924 351.71 689.696C352.572 716.381 352.505 742.936 351.181 769.654C350.054 789.262 348.763 808.285 345.285 827.439C369 831.529 398.808 833.055 432.329 826.757C427.361 804.942 424.844 782.867 423.652 760.597C422.261 730.535 422.956 700.669 426.169 670.8C426.533 667.716 431.302 667.846 431.402 671.059C432.693 700.309 436.469 729.689 442.166 758.355C446.504 779.229 452.168 800.135 460.051 819.905C472.405 816.075 485.156 811.14 498.206 804.842C489.628 779.651 456.64 670.151 500.392 591.008C526.921 542.995 546.528 514.914 558.882 499.3C556.431 494.95 554.278 490.437 552.423 485.763H552.39L552.454 485.737Z" fill="black"/>
</svg>
