<svg width="823" height="601" viewBox="0 0 823 601" fill="none" xmlns="http://www.w3.org/2000/svg">
<path d="M774.245 69.6408C744.117 54.2773 708.736 57.5458 681.914 78.1675L587.857 150.25V90.15C587.857 40.4545 548.287 0 499.679 0H88.1786C39.5698 0 0 40.4545 0 90.15V510.85C0 560.545 39.5698 601 88.1786 601H499.679C548.287 601 587.857 560.545 587.857 510.85V450.75L681.914 522.87C697.53 534.89 716.047 540.975 734.748 540.975C748.159 540.975 761.679 537.82 774.281 531.359C804.299 516.033 823 485.119 823 450.75V150.25C823 115.88 804.299 84.9658 774.245 69.6408ZM323.325 180.302H176.361C160.121 180.302 146.968 166.855 146.968 150.252C146.968 133.649 160.121 120.202 176.361 120.202H323.325C339.565 120.202 352.718 133.649 352.718 150.252C352.718 166.855 339.565 180.302 323.325 180.302Z" fill="black"/>
</svg>
