<svg width="824" height="745" viewBox="0 0 824 745" fill="none" xmlns="http://www.w3.org/2000/svg">
<path d="M337.093 180.709V361.25L522.305 270.98L337.093 180.709Z" fill="black"/>
<path d="M18.7312 541.959H805.273C815.573 541.959 824 534.338 824 525.023V16.9362C824 7.6213 815.573 0 805.273 0H18.7312C8.43122 0 0.00399221 7.6213 0.00399221 16.9362V525.023C0.00399221 534.338 8.43122 541.959 18.7312 541.959ZM354.884 150.902L540.096 241.172C565.939 252.858 565.939 289.101 540.096 300.787L354.884 391.057C331.101 403.59 298.703 386.146 299.639 361.25V180.879C298.703 155.983 331.101 138.538 354.884 151.071V150.902Z" fill="black"/>
<path d="M236.716 603.099C215.367 564.315 149.634 568.718 134.465 609.704C128.098 620.543 132.031 681.852 131.094 694.385C131.094 705.563 135.402 716.233 142.892 725.04C176.976 765.348 244.581 739.266 243.457 694.216C241.772 671.691 248.514 619.358 236.716 603.099Z" fill="black"/>
<path d="M56.1855 711.321H95.5126C94.2017 705.902 93.6399 700.143 93.6399 694.385C94.2017 681.514 91.9545 621.221 95.5126 609.704H56.1855C25.6602 609.365 -0.370551 633.076 0.00399236 660.513C0.00399236 688.457 25.2857 711.321 56.1855 711.321Z" fill="black"/>
<path d="M767.818 711.321C782.987 711.321 797.22 705.902 807.333 696.587C843.102 666.779 816.696 608.349 767.818 609.704H279.039C280.35 615.124 280.912 620.882 280.912 626.64C280.163 639.512 282.597 699.805 279.039 711.321H767.818Z" fill="black"/>
</svg>
