<svg width="794" height="636" viewBox="0 0 794 636" fill="none" xmlns="http://www.w3.org/2000/svg">
<path d="M668.271 0H125.803C61.7106 0 9.40423 51.1928 1.58805 117.178H792.437C784.621 51.1664 732.339 0 668.271 0Z" fill="black"/>
<path d="M0 200.835V502.127C0 576.064 56.3509 636 125.803 636H668.246C737.699 636 794 576.037 794 502.127V200.835H0ZM455.994 464.486C455.994 419.025 490.608 382.202 533.287 382.202C575.966 382.202 610.605 419.052 610.605 464.486C610.605 509.92 575.966 546.769 533.287 546.769C490.608 546.769 455.994 509.946 455.994 464.486ZM610.605 546.769C602.541 546.769 594.873 545.079 587.603 542.648C610.109 524.897 624.873 496.633 624.873 464.486C624.873 432.338 610.109 404.074 587.603 386.323C594.873 383.893 602.541 382.202 610.605 382.202C653.284 382.202 687.874 419.052 687.874 464.486C687.874 509.92 653.284 546.769 610.605 546.769Z" fill="black"/>
</svg>
