<svg width="716" height="800" viewBox="0 0 716 800" fill="none" xmlns="http://www.w3.org/2000/svg">
<path d="M716 171.817V684.457C716 709.215 698.083 729.315 676.095 729.315H639.659L639.695 271.252C639.695 245.22 624.504 222.731 602.764 215.367L553.935 126.923H676.127C698.116 126.962 716 147.099 716 171.817ZM585.306 212.735L480.074 22.1957C478.091 18.6133 473.913 17.4988 470.727 19.7278L194.146 212.733L585.306 212.735ZM168.332 212.735L342.717 91.0585L251.998 1.89755C249.166 -0.888751 244.881 -0.570314 242.403 2.61403L78.9577 212.738L168.332 212.735ZM52.9023 212.735H60.9046L183.812 54.7522L97.2022 20.8792C93.8738 19.5656 90.2267 21.3568 88.7749 24.9789L30.7049 170.459L30.6695 170.618L29.8551 172.648C28.0492 176.828 27.1994 181.007 27.2349 185.425C27.3411 200.75 39.2699 212.735 52.9023 212.735ZM626.097 271.247V755.539C626.097 780.057 608.393 799.96 586.58 799.96L70.7469 800C31.6909 800 0 764.415 0 720.471L0.0354088 193.108C0.0354088 188.689 3.22218 185.107 7.15262 185.107C10.6227 185.107 13.5616 187.933 14.0927 191.794C16.8192 211.298 31.408 226.383 49.2536 227.737L49.0411 228.015H587.681C608.891 228.015 626.097 247.404 626.097 271.247ZM35.0539 693.055C33.0003 691.184 31.0881 689.194 29.2823 687.084C26.6974 683.979 22.3776 683.9 19.6511 686.805C16.9246 689.711 16.8184 694.567 19.4032 697.592C21.5986 700.219 24.0064 702.687 26.5558 704.996C27.7951 706.11 29.3177 706.668 30.8048 706.668C32.7877 706.668 34.7706 705.673 36.1162 703.802C38.4531 700.498 37.9929 695.682 35.0539 693.055ZM35.1602 291.158C33.1065 289.327 31.1589 287.337 29.3885 285.187C26.8036 282.123 22.4838 282.003 19.7573 284.909C17.0308 287.814 16.9246 292.671 19.5094 295.735C21.7402 298.362 24.148 300.83 26.662 303.099C27.9013 304.214 29.4239 304.771 30.9111 304.771C32.894 304.771 34.8768 303.776 36.2224 301.905C38.5594 298.601 38.0637 293.785 35.1602 291.158ZM486.625 312.811C486.625 317.031 489.671 320.454 493.424 320.454H502.205C505.959 320.454 509.004 317.031 509.004 312.811C509.004 308.592 505.959 305.169 502.205 305.169H493.424C489.671 305.169 486.625 308.592 486.625 312.811ZM87.146 714.79C87.146 710.57 84.1008 707.147 80.3475 707.147H71.5661C67.8128 707.147 64.7676 710.57 64.7676 714.79C64.7676 719.009 67.8128 722.432 71.5661 722.432H80.3475C84.1008 722.392 87.146 719.009 87.146 714.79ZM87.2522 312.811C87.2522 308.592 84.207 305.169 80.4537 305.169H71.6723C67.919 305.169 64.8738 308.592 64.8738 312.811C64.8738 317.031 67.919 320.454 71.6723 320.454H80.4537C84.207 320.454 87.2522 317.031 87.2522 312.811ZM139.87 714.83C139.87 710.611 136.825 707.188 133.071 707.188H124.29C120.537 707.188 117.491 710.611 117.491 714.83C117.491 719.05 120.537 722.473 124.29 722.473H133.071C136.825 722.473 139.87 719.05 139.87 714.83ZM139.976 312.811C139.976 308.592 136.931 305.169 133.178 305.169H124.396C120.643 305.169 117.598 308.592 117.598 312.811C117.598 317.031 120.643 320.454 124.396 320.454H133.178C136.931 320.454 139.976 317.031 139.976 312.811ZM192.594 714.871C192.594 710.652 189.548 707.229 185.795 707.229H177.014C173.26 707.229 170.215 710.652 170.215 714.871C170.215 719.09 173.26 722.514 177.014 722.514H185.795C189.548 722.514 192.594 719.09 192.594 714.871ZM192.7 312.811C192.7 308.592 189.655 305.169 185.901 305.169H177.12C173.367 305.169 170.321 308.592 170.321 312.811C170.321 317.031 173.367 320.454 177.12 320.454H185.901C189.655 320.454 192.7 317.031 192.7 312.811ZM245.318 714.953C245.318 710.733 242.272 707.31 238.519 707.31H229.738C225.984 707.31 222.939 710.733 222.939 714.953C222.939 719.172 225.984 722.595 229.738 722.595H238.519C242.272 722.555 245.318 719.172 245.318 714.953ZM245.424 312.811C245.424 308.592 242.379 305.169 238.625 305.169H229.844C226.091 305.169 223.045 308.592 223.045 312.811C223.045 317.031 226.091 320.454 229.844 320.454H238.625C242.379 320.454 245.424 317.031 245.424 312.811ZM298.041 714.993C298.041 710.774 294.996 707.351 291.243 707.351H282.461C278.708 707.351 275.663 710.774 275.663 714.993C275.663 719.213 278.708 722.636 282.461 722.636H291.243C294.996 722.636 298.041 719.213 298.041 714.993ZM298.148 312.811C298.148 308.592 295.102 305.169 291.349 305.169H282.568C278.814 305.169 275.769 308.592 275.769 312.811C275.769 317.031 278.814 320.454 282.568 320.454H291.349C295.102 320.454 298.148 317.031 298.148 312.811ZM350.765 715.034C350.765 710.815 347.72 707.392 343.967 707.392H335.185C331.432 707.392 328.387 710.815 328.387 715.034C328.387 719.253 331.432 722.677 335.185 722.677H343.967C347.72 722.677 350.765 719.253 350.765 715.034ZM350.871 312.811C350.871 308.592 347.826 305.169 344.073 305.169H335.292C331.538 305.169 328.493 308.592 328.493 312.811C328.493 317.031 331.538 320.454 335.292 320.454H344.073C347.826 320.454 350.871 317.031 350.871 312.811ZM403.489 715.105C403.489 710.886 400.444 707.463 396.691 707.463H387.909C384.156 707.463 381.111 710.886 381.111 715.105C381.111 719.325 384.156 722.748 387.909 722.748H396.691C400.444 722.748 403.489 719.325 403.489 715.105ZM403.595 312.811C403.595 308.592 400.55 305.169 396.797 305.169H388.015C384.262 305.169 381.217 308.592 381.217 312.811C381.217 317.031 384.262 320.454 388.015 320.454H396.797C400.55 320.454 403.595 317.031 403.595 312.811ZM456.213 715.146C456.213 710.927 453.168 707.504 449.414 707.504H440.633C436.88 707.504 433.834 710.927 433.834 715.146C433.834 719.365 436.88 722.789 440.633 722.789H449.414C453.168 722.789 456.213 719.365 456.213 715.146ZM456.319 312.811C456.319 308.592 453.274 305.169 449.521 305.169H440.739C436.986 305.169 433.941 308.592 433.941 312.811C433.941 317.031 436.986 320.454 440.739 320.454H449.521C453.274 320.454 456.319 317.031 456.319 312.811ZM508.937 715.187C508.937 710.968 505.892 707.545 502.138 707.545H493.357C489.604 707.545 486.558 710.968 486.558 715.187C486.558 719.406 489.604 722.829 493.357 722.829H502.138C505.892 722.829 508.937 719.406 508.937 715.187ZM557.518 710.132C557.518 705.913 554.473 702.49 550.719 702.49C547.639 702.49 545.054 704.798 544.204 707.903C541.407 708.858 539.389 711.764 539.389 715.227C539.389 719.446 542.434 722.869 546.187 722.869H550.719C554.473 722.869 557.518 719.446 557.518 715.227V710.132ZM557.518 652.735C557.518 648.516 554.473 645.092 550.719 645.092C546.966 645.092 543.921 648.516 543.921 652.735V662.288C543.921 666.507 546.966 669.93 550.719 669.93C554.473 669.93 557.518 666.507 557.518 662.288V652.735ZM557.518 595.338C557.518 591.118 554.473 587.695 550.719 587.695C546.966 587.695 543.921 591.118 543.921 595.338V604.891C543.921 609.11 546.966 612.533 550.719 612.533C554.473 612.533 557.518 609.11 557.518 604.891V595.338ZM557.518 479.469C557.518 475.25 554.473 471.827 550.719 471.827H465.809C462.056 471.827 459.01 475.25 459.01 479.469V547.415C459.01 551.634 462.056 555.057 465.809 555.057H550.33C550.471 555.057 550.577 555.137 550.719 555.137C554.472 555.137 557.518 551.714 557.518 547.494L557.518 479.469ZM557.518 423.147C557.518 418.928 554.473 415.505 550.719 415.505C546.966 415.505 543.921 418.928 543.921 423.147V432.7C543.921 436.919 546.966 440.342 550.719 440.342C554.473 440.342 557.518 436.919 557.518 432.7V423.147ZM557.518 365.75C557.518 361.53 554.473 358.107 550.719 358.107C546.966 358.107 543.921 361.53 543.921 365.75V375.303C543.921 379.522 546.966 382.945 550.719 382.945C554.473 382.945 557.518 379.522 557.518 375.303V365.75ZM557.518 312.81C557.518 308.591 554.473 305.168 550.719 305.168H546.187C542.434 305.168 539.389 308.591 539.389 312.81C539.389 316.273 541.442 319.179 544.204 320.134C545.054 323.279 547.639 325.548 550.719 325.548C554.473 325.548 557.518 322.125 557.518 317.905V312.81Z" fill="black"/>
</svg>
