<svg width="825" height="812" viewBox="0 0 825 812" fill="none" xmlns="http://www.w3.org/2000/svg">
<path d="M412.5 0C184.25 0 0 181.347 0 406C0 630.653 184.25 812 412.5 812C640.75 812 825 630.653 825 406C825 181.347 640.75 0 412.5 0ZM354.75 192.173C354.75 161.498 379.5 137.138 410.667 137.138C427.167 137.138 441.833 143.453 451.917 154.28C462.917 165.107 469.333 179.542 469.333 194.88V436.676C469.333 468.253 442.75 494.418 410.667 494.418C379.5 494.418 354.75 469.156 354.75 439.382V192.173ZM482.167 613.511C478.5 645.991 451.917 672.156 419.833 674.862C374.917 679.373 337.333 642.382 341.917 598.173C345.583 566.596 372.167 539.529 404.25 536.822C450.083 532.311 487.667 569.302 482.167 613.511Z" fill="black"/>
</svg>
