<svg width="640" height="781" viewBox="0 0 640 781" fill="none" xmlns="http://www.w3.org/2000/svg">
<path d="M581.818 134.655H58.1818V188.517H581.818V134.655Z" fill="black"/>
<path d="M116.364 754.069H29.0909V781H116.364V754.069Z" fill="black"/>
<path d="M610.909 13.4655C610.909 9.89424 609.377 6.46923 606.649 3.94396C603.921 1.41868 600.221 0 596.364 0H43.6364C39.7787 0 36.079 1.41868 33.3512 3.94396C30.6234 6.46923 29.0909 9.89424 29.0909 13.4655V107.724H610.909V13.4655ZM87.2727 80.7931C81.5191 80.7931 75.8947 79.2136 71.1107 76.2544C66.3267 73.2952 62.5981 69.0891 60.3962 64.1681C58.1944 59.2471 57.6183 53.8322 58.7408 48.6081C59.8633 43.384 62.6339 38.5853 66.7024 34.819C70.7708 31.0526 75.9543 28.4876 81.5974 27.4485C87.2405 26.4094 93.0897 26.9427 98.4053 28.981C103.721 31.0194 108.264 34.4712 111.461 38.9C114.657 43.3288 116.364 48.5356 116.364 53.8621C116.364 61.0046 113.299 67.8546 107.843 72.9052C102.387 77.9557 94.9881 80.7931 87.2727 80.7931ZM189.091 80.7931C183.337 80.7931 177.713 79.2136 172.929 76.2544C168.145 73.2952 164.416 69.0891 162.214 64.1681C160.013 59.2471 159.436 53.8322 160.559 48.6081C161.681 43.384 164.452 38.5853 168.521 34.819C172.589 31.0526 177.772 28.4876 183.416 27.4485C189.059 26.4094 194.908 26.9427 200.224 28.981C205.539 31.0194 210.083 34.4712 213.279 38.9C216.476 43.3288 218.182 48.5356 218.182 53.8621C218.182 61.0046 215.117 67.8546 209.661 72.9052C204.206 77.9557 196.806 80.7931 189.091 80.7931ZM290.909 94.2586H261.818V67.3276H290.909V94.2586ZM290.909 40.3966H261.818V13.4655H290.909V40.3966ZM349.091 94.2586H320V67.3276H349.091V94.2586ZM349.091 40.3966H320V13.4655H349.091V40.3966ZM407.273 94.2586H378.182V67.3276H407.273V94.2586ZM407.273 40.3966H378.182V13.4655H407.273V40.3966ZM596.364 80.7931C596.364 84.3644 594.831 87.7894 592.103 90.3147C589.376 92.8399 585.676 94.2586 581.818 94.2586H436.364C432.506 94.2586 428.806 92.8399 426.078 90.3147C423.351 87.7894 421.818 84.3644 421.818 80.7931V26.931C421.818 23.3598 423.351 19.9348 426.078 17.4095C428.806 14.8842 432.506 13.4655 436.364 13.4655H581.818C585.676 13.4655 589.376 14.8842 592.103 17.4095C594.831 19.9348 596.364 23.3598 596.364 26.931V80.7931Z" fill="black"/>
<path d="M610.909 754.069H523.636V781H610.909V754.069Z" fill="black"/>
<path d="M567.273 40.3965H450.909V67.3276H567.273V40.3965Z" fill="black"/>
<path d="M320 269.31C276.848 269.31 234.665 281.156 198.785 303.351C162.905 325.545 134.94 357.09 118.426 393.998C101.913 430.905 97.5919 471.517 106.011 510.698C114.429 549.879 135.209 585.869 165.722 614.117C196.235 642.364 235.112 661.601 277.435 669.395C319.758 677.188 363.627 673.189 403.495 657.901C443.362 642.613 477.437 616.725 501.412 583.509C525.386 550.293 538.182 511.242 538.182 471.293C538.116 417.743 515.108 366.403 474.206 328.537C433.303 290.671 377.845 269.371 320 269.31ZM490.967 411.237C489.65 413.137 487.839 414.7 485.698 415.783C483.558 416.865 481.159 417.432 478.72 417.431H450.909V525.155H478.72C481.158 525.155 483.557 525.722 485.697 526.805C487.836 527.887 489.648 529.45 490.964 531.35C492.281 533.25 493.06 535.426 493.231 537.677C493.402 539.929 492.959 542.184 491.942 544.236C473.964 580.545 443.113 610.07 404.511 627.911C365.91 645.752 321.878 650.836 279.725 642.318C237.573 633.801 199.834 612.194 172.774 581.085C145.713 549.976 130.958 511.235 130.958 471.293C130.958 431.351 145.713 392.611 172.774 361.501C199.834 330.392 237.573 308.786 279.725 300.268C321.878 291.75 365.91 296.834 404.511 314.675C443.113 332.516 473.964 362.041 491.942 398.35C492.959 400.402 493.403 402.657 493.233 404.909C493.062 407.161 492.283 409.337 490.967 411.237Z" fill="black"/>
<path d="M320 323.172C280.107 323.221 241.669 337.053 212.213 361.959C182.756 386.865 164.401 421.052 160.742 457.828H174.545C181.07 457.809 187.533 458.99 193.56 461.302C199.587 463.613 205.059 467.009 209.658 471.293L218.182 479.184C222.128 482.596 227.327 484.494 232.727 484.494C238.127 484.494 243.326 482.596 247.273 479.184L255.796 471.293C265.263 462.945 277.835 458.289 290.909 458.289C303.983 458.289 316.555 462.945 326.022 471.293L334.545 479.184C338.492 482.596 343.691 484.494 349.091 484.494C354.491 484.494 359.69 482.596 363.636 479.184L372.16 471.293C376.759 467.009 382.231 463.613 388.258 461.302C394.286 458.99 400.749 457.809 407.273 457.828H421.818V403.966C421.818 400.394 423.351 396.969 426.078 394.444C428.806 391.919 432.506 390.5 436.364 390.5H454.124C439.552 369.861 419.664 352.901 396.251 341.148C372.838 329.395 346.634 323.218 320 323.172Z" fill="black"/>
<path d="M625.455 134.655H610.909V201.983C610.909 205.554 609.377 208.979 606.649 211.504C603.921 214.03 600.221 215.448 596.364 215.448H43.6364C39.7787 215.448 36.079 214.03 33.3512 211.504C30.6234 208.979 29.0909 205.554 29.0909 201.983V134.655H14.5455C10.6878 134.655 6.98807 136.074 4.26027 138.599C1.53247 141.124 0 144.549 0 148.121V713.672C0 717.244 1.53247 720.669 4.26027 723.194C6.98807 725.719 10.6878 727.138 14.5455 727.138H625.455C629.312 727.138 633.012 725.719 635.74 723.194C638.468 720.669 640 717.244 640 713.672V148.121C640 144.549 638.468 141.124 635.74 138.599C633.012 136.074 629.312 134.655 625.455 134.655ZM320 700.207C271.094 700.207 223.286 686.781 182.623 661.628C141.959 636.475 110.265 600.723 91.5498 558.895C72.8343 517.066 67.9375 471.039 77.4786 426.634C87.0196 382.229 110.57 341.441 145.152 309.427C179.733 277.412 223.793 255.611 271.759 246.778C319.726 237.945 369.444 242.478 414.627 259.804C459.81 277.13 498.429 306.471 525.6 344.115C552.77 381.76 567.273 426.018 567.273 471.293C567.2 531.984 541.124 590.17 494.767 633.085C448.411 676 385.558 700.139 320 700.207Z" fill="black"/>
<path d="M421.818 538.621V484.759H407.273C401.821 484.774 396.595 486.777 392.727 490.333L384.204 498.224C374.891 506.845 362.261 511.688 349.091 511.688C335.921 511.688 323.291 506.845 313.978 498.224L305.455 490.333C301.508 486.921 296.309 485.023 290.909 485.023C285.509 485.023 280.31 486.921 276.364 490.333L267.84 498.224C258.374 506.572 245.801 511.228 232.727 511.228C219.654 511.228 207.081 506.572 197.615 498.224L189.091 490.333C185.223 486.777 179.997 484.774 174.545 484.759H160.742C163.779 515.395 177.046 544.395 198.699 567.733C220.353 591.071 249.318 607.587 281.574 614.99C313.831 622.392 347.776 620.313 378.697 609.04C409.618 597.768 435.981 577.862 454.124 552.086H436.364C432.506 552.086 428.806 550.668 426.078 548.142C423.351 545.617 421.818 542.192 421.818 538.621Z" fill="black"/>
</svg>
