<svg width="670" height="831" viewBox="0 0 670 831" fill="none" xmlns="http://www.w3.org/2000/svg">
<path d="M67.2371 0H602.763C621.26 0 638.091 7.48137 650.257 19.5105C662.434 31.5505 670 48.1818 670 66.4708V720.001C670 738.235 662.423 754.856 650.224 766.918C638.08 778.99 621.26 786.472 602.763 786.472H67.2371C48.7403 786.472 31.92 778.99 19.7432 766.95L18.6954 765.827C7.12519 753.863 0 737.701 0 720.001V66.4708C0 48.1818 7.56639 31.5505 19.7432 19.5105C31.909 7.48137 48.7403 0 67.2371 0ZM558.324 92.3612H567.335C577.648 92.3612 586.02 84.0837 586.02 73.8868C586.02 63.6899 577.648 55.4124 567.335 55.4124H558.324C548.011 55.4124 539.64 63.6899 539.64 73.8868C539.64 84.0837 548.011 92.3612 558.324 92.3612ZM492.995 92.3612H502.006C512.319 92.3612 520.691 84.0837 520.691 73.8868C520.691 63.6899 512.319 55.4124 502.006 55.4124H492.995C482.682 55.4124 474.311 63.6899 474.311 73.8868C474.311 84.0837 482.682 92.3612 492.995 92.3612ZM74.7043 55.3905C64.3915 55.3905 56.0199 63.668 56.0199 73.865V143.575C56.0199 153.772 64.3915 162.049 74.7043 162.049H175.35C185.663 162.049 194.035 153.772 194.035 143.575V73.865C194.035 63.668 185.663 55.3905 175.35 55.3905H74.7043ZM156.666 92.3394V125.1H93.3886V92.3394H156.666ZM150.754 358.735C144.754 360.818 139.978 365.89 138.644 372.498C137.331 378.966 136.316 385.476 135.665 392.074C134.982 398.978 134.618 405.587 134.618 411.748C134.618 466.452 157.041 515.997 193.307 551.855C229.572 587.713 279.68 609.885 335.006 609.885C387.452 609.885 435.277 589.851 471.057 557.09C507.102 524.089 530.871 478.176 534.721 426.875C534.941 423.996 534.489 421.04 533.254 418.216C529.195 408.902 518.231 404.605 508.812 408.618C431.438 441.718 386.448 415.162 341.017 388.345C290.28 358.386 239.025 328.134 150.754 358.735ZM321.891 419.95C369.385 447.988 416.482 475.776 492.51 453.605C484.458 483.41 468.013 509.802 445.821 530.109C416.802 556.687 377.856 572.936 335.006 572.936C289.971 572.936 249.194 554.898 219.712 525.747C190.229 496.596 171.986 456.277 171.986 411.748C171.986 405.838 172.251 400.45 172.725 395.608L173.365 390.199C239.157 371.124 280.728 395.651 321.891 419.95ZM335.006 157.698C264.073 157.698 199.825 186.151 153.335 232.119C106.845 278.087 78.0683 341.613 78.0683 411.748C78.0683 481.884 106.845 545.41 153.335 591.378C199.825 637.346 264.073 665.799 335.006 665.799C405.938 665.799 470.186 637.346 516.676 591.378C563.166 545.41 591.943 481.884 591.943 411.748C591.943 341.613 563.166 278.087 516.676 232.119C470.186 186.151 405.938 157.698 335.006 157.698ZM490.271 258.227C529.989 297.499 554.574 351.788 554.574 411.748C554.574 471.709 529.989 525.998 490.271 565.269C450.553 604.541 395.647 628.85 335.006 628.85C274.364 628.85 219.458 604.541 179.74 565.269C140.022 525.998 115.437 471.709 115.437 411.748C115.437 351.788 140.022 297.499 179.74 258.227C219.458 218.956 274.364 194.647 335.006 194.647C395.647 194.647 450.553 218.956 490.271 258.227ZM532.018 831C521.705 831 513.334 822.722 513.334 812.526C513.334 802.329 521.705 794.051 532.018 794.051H595.064C605.377 794.051 613.748 802.329 613.748 812.526C613.748 822.722 605.377 831 595.064 831H532.018ZM74.9579 831C64.6452 831 56.2736 822.722 56.2736 812.526C56.2736 802.329 64.6452 794.051 74.9579 794.051H138.004C148.317 794.051 156.688 802.329 156.688 812.526C156.688 822.722 148.317 831 138.004 831H74.9579Z" fill="black"/>
</svg>
