<svg width="528" height="779" viewBox="0 0 528 779" fill="none" xmlns="http://www.w3.org/2000/svg">
<path d="M496.918 379.287C516.699 363.889 527.995 342.586 527.995 320.734V271.164C527.995 229.881 496.308 193.253 447.23 177.854L395.996 161.905V122.491C395.996 106.725 379.543 93.8559 359.387 93.8559H323.997V9.38119C323.997 6.08142 321.841 3.07488 318.372 1.38839C314.763 -0.298197 310.45 -0.481511 306.747 1.02173L210.748 38.566C206.529 40.0693 203.998 43.3691 203.998 46.9255V93.8558H168.608C148.452 93.8558 131.999 106.725 131.999 122.491V161.905L80.7653 177.964C31.6881 193.253 0 229.843 0 271.164V320.734C0 342.586 11.2968 363.925 31.0773 379.287C41.8585 387.72 47.9996 399.379 47.9996 411.406V489.684C47.9996 501.599 41.7653 513.332 31.0773 521.802C11.2967 537.164 0 558.466 0 580.318V723.343C0 754.031 31.9221 779 71.1558 779H456.844C496.078 779 528 754.031 528 723.343V580.318C528 558.467 516.703 537.127 496.923 521.765C486.142 513.332 480 501.673 480 489.647V411.369C480 409.976 480.141 408.656 480.235 407.226C481.547 396.667 487.45 386.804 496.918 379.287ZM48.002 271.16C48.002 245.238 67.7826 222.36 98.5323 212.79L148.548 197.097H379.306L429.368 212.79C460.071 222.359 479.898 245.348 479.898 271.16V320.73C479.898 332.645 473.664 344.378 462.976 352.848C448.68 364.03 438.742 378.292 434.43 393.765C433.492 394.132 432.648 394.609 431.664 394.975C429.602 395.819 427.445 396.662 425.43 397.505C422.898 398.532 420.274 399.485 417.742 400.402C415.446 401.245 413.195 402.015 410.899 402.748C408.508 403.591 405.977 404.361 403.586 405.095C401.196 405.828 398.664 406.488 396.274 407.148C393.977 407.808 391.727 408.358 389.336 408.944C386.711 409.604 384.18 410.154 381.555 410.741C379.399 411.218 377.102 411.584 374.946 411.951C372.321 412.428 369.649 412.904 367.024 413.271C364.868 413.564 362.711 413.821 360.555 414.114C357.93 414.408 355.259 414.774 352.774 414.957C350.384 415.141 347.993 415.251 345.555 415.324C343.259 415.434 341.009 415.617 338.712 415.691C334.024 415.801 329.478 415.691 325.025 415.507C303.088 414.371 280.962 410.264 257.713 405.938C238.26 402.272 218.103 398.532 197.573 396.552C190.26 395.819 183.182 395.342 176.198 395.049C174.136 394.939 172.12 394.939 170.058 394.866C166.824 394.756 163.449 394.572 160.214 394.572C158.761 394.572 157.449 394.682 155.996 394.682C153.605 394.682 151.214 394.792 148.777 394.866C144.558 395.049 140.48 395.232 136.543 395.599C134.246 395.782 131.996 395.966 129.84 396.259C125.903 396.736 122.059 397.286 118.215 397.945C116.293 398.312 114.278 398.605 112.356 398.972C108.137 399.815 104.2 400.842 100.216 401.868C98.9031 402.235 97.5906 402.528 96.3719 402.895C96.1375 403.005 95.7625 403.078 95.5281 403.078C92.9969 384.196 82.2154 366.194 65.0592 352.775C54.278 344.342 48.137 332.683 48.137 320.656V271.16L48.002 271.16Z" fill="black"/>
</svg>
