<svg width="824" height="821" viewBox="0 0 824 821" fill="none" xmlns="http://www.w3.org/2000/svg">
<path d="M390.728 158.558V224.829H330.165C341.868 196.305 363.344 172.8 390.728 158.558ZM314.522 554.217H390.728V483.816H298.029C301.389 507.707 306.913 531.29 314.522 554.217ZM506.911 266.012H430.28V336.413H522.979C519.85 311.942 514.443 287.857 506.911 264.352V266.012ZM430.28 661.671C458.746 647.39 480.994 623.228 492.89 593.74H430.28V661.671ZM389.067 661.671V593.74H330.165C341.868 622.263 363.344 645.769 390.728 660.011L389.067 661.671ZM521.317 485.476L430.28 485.437V555.838H506.911C514.443 532.371 519.85 508.248 522.979 483.815L521.317 485.476ZM546.037 555.877H618.15V555.838C633.251 534.301 644.916 510.564 652.757 485.437H562.53C559.054 508.673 554.071 531.638 547.698 554.217L546.037 555.877ZM292.66 409.284V444.677H389.492V373.89H293.896C293.51 385.392 292.66 396.933 292.66 409.284ZM273.309 264.352H201.197C186.095 285.889 174.43 309.665 166.589 334.753H258.902C261.992 310.978 266.782 287.433 273.309 264.352ZM528.348 409.284V373.891H430.28V444.717H527.112C527.923 433.176 528.348 421.21 528.348 409.284ZM298.029 334.753H390.728V264.352H314.522C306.913 287.278 301.39 310.861 298.029 334.753ZM504.014 646C534.527 633.918 562.492 616.165 586.438 593.739H534.102C525.99 612.111 516.064 629.634 504.438 646H504.014ZM430.28 158.558V224.829H492.89C480.684 195.958 458.436 172.414 430.28 158.558ZM567.474 409.284V444.677H663.881C665.658 432.983 666.624 421.133 666.778 409.284C666.624 397.435 665.658 385.586 663.881 373.891H566.238C567.049 385.393 567.474 397.358 567.474 409.284ZM820.852 446.762C812.161 540.283 771.682 628.056 706.172 695.444C640.703 762.872 554.066 805.832 460.754 817.294C444.107 819.533 427.305 820.768 410.504 821C333.255 821.115 257.588 799.424 192.159 758.395L111.82 779.817C91.5035 785.221 69.8351 779.393 54.9647 764.571C40.1329 749.711 34.301 728.058 39.7077 707.756L61.1447 627.474C-8.14773 515 -19.233 376.095 31.4039 254.047C82.0022 132.038 188.176 41.6879 316.759 11.1561C445.38 -19.3738 580.874 13.5877 680.989 99.8525C781.104 186.117 833.747 315.146 822.505 446.759L820.852 446.762ZM704.669 409.284C704.669 331.318 673.692 256.556 618.498 201.441C563.342 146.286 488.521 115.331 410.506 115.331C332.49 115.331 257.669 146.286 202.514 201.441C147.32 256.557 116.343 331.324 116.343 409.284C116.343 487.244 147.32 562.013 202.514 617.128C257.67 672.283 332.49 703.238 410.506 703.238C488.521 703.238 563.343 672.283 618.498 617.128C673.692 562.012 704.669 487.244 704.669 409.284ZM586.014 224.829C562.066 202.404 534.141 184.649 503.628 172.568C515.524 188.894 525.722 206.418 534.103 224.829H586.014ZM562.53 334.753H654.418C646.578 309.665 634.913 285.889 619.811 264.352H547.698C554.149 287.471 559.092 311.016 562.53 334.753ZM253.533 409.284V373.891H158.362C156.586 385.586 155.62 397.435 155.466 409.284C155.62 421.133 156.586 432.983 158.362 444.677H254.769C253.958 433.175 253.533 421.21 253.533 409.284ZM316.569 172.569C286.056 184.65 258.091 202.404 234.183 224.83H286.905C295.016 206.457 304.943 188.934 316.569 172.569ZM258.903 483.816H166.59C174.431 508.904 186.096 532.679 201.198 554.217H273.31C266.783 531.136 261.993 507.591 258.903 483.816ZM234.994 593.74C258.941 616.165 286.867 633.919 317.38 646.001C305.483 629.675 295.286 612.151 286.905 593.74H234.994Z" fill="black"/>
</svg>
