<svg width="713" height="808" viewBox="0 0 713 808" fill="none" xmlns="http://www.w3.org/2000/svg">
<path d="M698.952 677.147H14.0478C11.2657 677.191 8.55694 678.064 6.25482 679.659C3.9527 681.253 2.15771 683.499 1.09076 686.121C0.0238056 688.743 -0.268552 691.626 0.249674 694.415C0.7679 697.205 2.07409 699.779 4.00749 701.82L27.6234 725.916C51.1545 748.713 58.7342 764.483 56.8959 793.571C56.8959 797.398 58.3858 801.068 61.0378 803.774C63.6898 806.48 67.2866 808 71.0371 808H641.977C645.728 808 649.324 806.48 651.976 803.774C654.628 801.068 656.118 797.398 656.118 793.571C654.28 764.483 661.775 748.713 685.377 725.916L708.992 701.82C710.926 699.779 712.232 697.205 712.75 694.415C713.269 691.626 712.976 688.743 711.909 686.121C710.842 683.499 709.047 681.253 706.745 679.659C704.443 678.064 701.734 677.191 698.952 677.147Z" fill="black"/>
<path d="M617.513 503.745C603.272 495.376 595.396 482.102 576.927 482.679C557.384 482.318 550.78 495.42 535.917 503.889C525.623 509.929 513.908 512.987 502.036 512.733C490.164 512.478 478.585 508.922 468.548 502.446C464.731 499.971 461.071 497.253 457.589 494.308C450.144 486.862 440.127 482.704 429.702 482.731C419.276 482.758 409.28 486.968 401.872 494.453C394.878 500.979 386.625 505.941 377.641 509.022C368.658 512.103 359.142 513.235 349.705 512.344C325.891 511.45 313.687 493.486 295.261 484.497C272.508 476.576 259.3 491.711 242.246 503.687C229.938 510.743 215.769 513.675 201.739 512.07C187.71 510.464 174.529 504.403 164.058 494.741C160.408 490.957 156.06 487.946 151.265 485.882C146.47 483.818 141.322 482.741 136.118 482.714C130.913 482.688 125.755 483.711 120.94 485.725C116.124 487.74 111.747 490.706 108.059 494.453C95.0379 506.244 78.1349 512.586 60.7291 512.211C43.3234 511.837 26.6975 504.773 14.1751 492.433V648.261H698.811V492.346C688.298 502.974 674.687 509.832 660.026 511.888C645.364 513.943 630.445 511.086 617.513 503.745Z" fill="black"/>
<path d="M90.2551 472.002C102.742 460.448 118.996 454.048 135.854 454.048C152.711 454.048 168.965 460.448 181.452 472.002C188.866 479.491 198.878 483.693 209.311 483.693C219.744 483.693 229.755 479.491 237.169 472.002C249.656 460.448 265.91 454.048 282.767 454.048C299.625 454.048 315.879 460.448 328.366 472.002C332.043 475.753 336.408 478.729 341.212 480.759C346.017 482.789 351.166 483.834 356.366 483.833C361.545 483.853 366.676 482.816 371.458 480.784C376.239 478.752 380.575 475.767 384.21 472.002C396.697 460.448 412.951 454.048 429.808 454.048C446.666 454.048 462.92 460.448 475.407 472.002C482.843 479.504 492.879 483.711 503.336 483.711C513.793 483.711 523.829 479.504 531.265 472.002C543.752 460.448 560.006 454.048 576.863 454.048C593.721 454.048 609.975 460.448 622.462 472.002C626.139 475.753 630.504 478.729 635.309 480.759C640.113 482.789 645.262 483.834 650.462 483.833C672.508 483.675 680.611 466.894 698.811 458.165C698.811 439.031 691.361 420.682 678.101 407.152C664.841 393.623 646.857 386.022 628.104 386.022H84.8815C66.129 386.022 48.1445 393.623 34.8845 407.152C21.6245 420.682 14.1751 439.031 14.1751 458.165C32.2193 467.053 40.3647 483.545 62.2554 483.833C67.4562 483.84 72.6071 482.798 77.4122 480.768C82.2172 478.737 86.5818 475.758 90.2551 472.002Z" fill="black"/>
<path d="M613.27 250.855C601.559 260.616 587.322 266.698 572.288 268.363C557.254 270.028 542.069 267.204 528.578 260.234C518.893 251.986 506.818 247.215 494.215 246.656C469.213 246.498 459.031 267.78 433.846 268.732C413.628 270.789 393.413 264.798 377.422 252.009C369.919 248.038 361.486 246.259 353.054 246.867C344.623 247.476 336.519 250.449 329.639 255.458C317.428 264.169 302.911 268.891 288.012 268.996C273.113 269.102 258.533 264.587 246.205 256.049C238.325 250.088 228.794 246.832 218.984 246.752C209.174 246.671 199.593 249.77 191.62 255.602C183.095 261.552 173.466 265.658 163.327 267.668C153.188 269.678 142.753 269.549 132.665 267.289C120.961 263.531 109.86 258.043 99.7156 250.999V357.179H613.27V250.855Z" fill="black"/>
<path d="M176.517 231.232C188.938 222.667 203.588 218.089 218.58 218.089C233.572 218.089 248.222 222.667 260.643 231.232C268.442 237.048 277.852 240.183 287.512 240.183C297.172 240.183 306.581 237.048 314.38 231.232C326.61 222.285 341.333 217.582 356.38 217.814C371.462 217.615 386.215 222.314 398.507 231.232C406.275 237.057 415.664 240.199 425.304 240.199C434.945 240.199 444.334 237.057 452.102 231.232C464.549 222.664 479.221 218.085 494.236 218.085C509.251 218.085 523.923 222.664 536.37 231.232C543.243 236.304 551.357 239.338 559.814 240C568.271 240.662 576.744 238.926 584.295 234.984C592.208 229.18 600.869 224.519 610.032 221.132C605.494 206.516 596.51 193.755 584.384 184.701C572.257 175.646 557.619 170.769 542.592 170.777H170.436C155.407 170.766 140.766 175.642 128.636 184.697C116.507 193.751 107.521 206.514 102.982 221.132C112.136 224.541 120.794 229.2 128.719 234.984C136.249 238.921 144.701 240.655 153.137 239.993C161.574 239.331 169.666 236.299 176.517 231.232Z" fill="black"/>
<path d="M454.633 141.934C529.469 51.438 430.24 -49.4899 356.521 27.5298C340.966 11.947 310.986 -9.98445 275.35 5.02126C223.028 31.7718 217.272 88.303 258.381 141.934H454.633Z" fill="black"/>
</svg>
