<svg width="653" height="827" viewBox="0 0 653 827" fill="none" xmlns="http://www.w3.org/2000/svg">
<path d="M537.765 2.28715e-05C536.364 -0.00209012 534.968 0.14221 533.601 0.430242L15.0435 108.3C10.4247 109.259 6.34683 111.781 3.59183 115.382C0.836839 118.982 -0.40138 123.408 0.114591 127.81C0.630563 132.212 2.86441 136.281 6.38781 139.237C9.9112 142.193 14.4761 143.827 19.2073 143.826H556.971C559.493 143.827 561.991 143.362 564.321 142.459C566.652 141.556 568.769 140.231 570.553 138.562C572.336 136.892 573.751 134.91 574.716 132.729C575.681 130.547 576.177 128.209 576.177 125.848V35.9565C576.165 26.4236 572.114 17.2843 564.913 10.5435C557.712 3.80268 547.949 0.0109194 537.765 2.28715e-05Z" fill="black"/>
<path d="M287.695 388.912C299.667 400.264 312.649 410.643 326.501 419.935C340.355 410.642 353.337 400.261 365.306 388.903C374.985 379.685 383.983 369.863 392.239 359.504C399.547 351.5 403.476 341.272 403.287 330.746C402.817 321.441 399.011 312.556 392.483 305.525C385.419 299.228 376.037 295.715 366.282 295.715C356.526 295.715 347.144 299.228 340.08 305.525C338.297 307.195 336.18 308.52 333.85 309.423C331.52 310.327 329.023 310.792 326.501 310.792C323.979 310.792 321.481 310.327 319.151 309.423C316.821 308.52 314.704 307.195 312.922 305.525C305.969 299.027 296.545 295.377 286.72 295.377C276.895 295.377 267.471 299.027 260.518 305.525C254.015 312.561 250.207 321.428 249.696 330.719C249.452 340.939 253.162 350.897 260.143 358.758C268.588 369.38 277.794 379.455 287.695 388.912Z" fill="black"/>
<path d="M502.635 215.739H150.366C147.483 223.315 142.835 230.196 136.759 235.882C130.683 241.569 123.331 245.918 115.236 248.614V686.255C123.331 688.952 130.683 693.301 136.759 698.987C142.835 704.673 147.483 711.554 150.366 719.13H502.635C505.519 711.554 510.167 704.673 516.243 698.987C522.319 693.301 529.671 688.952 537.765 686.255V248.614C529.671 245.918 522.319 241.569 516.243 235.882C510.167 230.196 505.519 223.315 502.635 215.739ZM233.36 280.103C245.547 269.081 261.271 262.121 278.103 260.295C294.936 258.469 311.944 261.879 326.501 269.999C341.058 261.879 358.065 258.469 374.898 260.295C391.731 262.121 407.454 269.082 419.642 280.103C433.135 293.49 440.962 311.017 441.661 329.411C442.34 348.47 435.488 367.095 422.417 381.722C413.308 393.144 403.376 403.969 392.69 414.123C375.802 430.136 357.148 444.429 337.041 456.76C333.91 458.684 330.246 459.71 326.501 459.71C322.755 459.71 319.091 458.684 315.96 456.76C282.742 436.447 253.628 410.789 229.965 380.976C217.311 366.659 210.674 348.511 211.299 329.939C211.924 311.366 219.769 293.646 233.36 280.103ZM422.53 683.174H230.472C225.378 683.174 220.493 681.28 216.891 677.908C213.289 674.537 211.266 669.964 211.266 665.196C211.266 660.428 213.289 655.855 216.891 652.483C220.493 649.112 225.378 647.217 230.472 647.217H422.53C427.624 647.217 432.509 649.112 436.111 652.483C439.712 655.855 441.736 660.428 441.736 665.196C441.736 669.964 439.712 674.537 436.111 677.908C432.509 681.28 427.624 683.174 422.53 683.174ZM422.53 611.261H230.472C225.378 611.261 220.493 609.367 216.891 605.995C213.289 602.624 211.266 598.051 211.266 593.283C211.266 588.515 213.289 583.942 216.891 580.57C220.493 577.198 225.378 575.304 230.472 575.304H422.53C427.624 575.304 432.509 577.198 436.111 580.57C439.712 583.942 441.736 588.515 441.736 593.283C441.736 598.051 439.712 602.624 436.111 605.995C432.509 609.367 427.624 611.261 422.53 611.261ZM422.53 539.348H230.472C225.378 539.348 220.493 537.454 216.891 534.082C213.289 530.711 211.266 526.138 211.266 521.37C211.266 516.601 213.289 512.029 216.891 508.657C220.493 505.285 225.378 503.391 230.472 503.391H422.53C427.624 503.391 432.509 505.285 436.111 508.657C439.712 512.029 441.736 516.601 441.736 521.37C441.736 526.138 439.712 530.711 436.111 534.082C432.509 537.454 427.624 539.348 422.53 539.348Z" fill="black"/>
<path d="M614.588 107.87H19.2073C16.6849 107.869 14.1872 108.334 11.8567 109.237C9.52629 110.14 7.40879 111.464 5.62523 113.134C3.84167 114.804 2.427 116.786 1.46205 118.967C0.497101 121.149 0.000777649 123.487 0.00143371 125.848V791.044C0.0130742 800.576 4.06375 809.716 11.2648 816.457C18.4659 823.197 28.2293 826.989 38.4131 827H614.588C624.772 826.989 634.536 823.197 641.737 816.457C648.938 809.716 652.988 800.576 653 791.044V143.826C652.988 134.293 648.938 125.154 641.737 118.413C634.536 111.672 624.772 107.881 614.588 107.87ZM576.177 701.152C576.177 703.513 575.681 705.851 574.716 708.033C573.751 710.214 572.336 712.197 570.553 713.866C568.769 715.536 566.652 716.86 564.321 717.763C561.991 718.667 559.493 719.131 556.971 719.13C551.879 719.135 546.997 721.031 543.396 724.401C539.795 727.772 537.77 732.342 537.765 737.109C537.766 739.47 537.269 741.808 536.304 743.99C535.339 746.171 533.925 748.153 532.141 749.823C530.358 751.492 528.24 752.817 525.91 753.72C523.579 754.623 521.081 755.088 518.559 755.087H134.442C131.92 755.088 129.422 754.623 127.092 753.72C124.761 752.817 122.644 751.492 120.86 749.823C119.077 748.153 117.662 746.171 116.697 743.99C115.732 741.808 115.236 739.47 115.236 737.109C115.231 732.342 113.206 727.772 109.606 724.401C106.005 721.031 101.123 719.135 96.0306 719.13C93.5083 719.131 91.0106 718.667 88.6801 717.763C86.3496 716.86 84.2321 715.536 82.4486 713.866C80.665 712.197 79.2504 710.214 78.2854 708.033C77.3205 705.851 76.8241 703.513 76.8248 701.152V233.717C76.8241 231.356 77.3205 229.018 78.2854 226.837C79.2504 224.655 80.665 222.673 82.4486 221.004C84.2321 219.334 86.3496 218.01 88.6801 217.106C91.0106 216.203 93.5083 215.739 96.0306 215.739C101.123 215.734 106.005 213.839 109.606 210.468C113.206 207.098 115.231 202.528 115.236 197.761C115.236 195.4 115.732 193.062 116.697 190.88C117.662 188.699 119.077 186.717 120.86 185.047C122.644 183.377 124.761 182.053 127.092 181.15C129.422 180.247 131.92 179.782 134.442 179.783H518.559C521.081 179.782 523.579 180.247 525.91 181.15C528.24 182.053 530.358 183.377 532.141 185.047C533.925 186.717 535.339 188.699 536.304 190.88C537.269 193.062 537.766 195.4 537.765 197.761C537.77 202.528 539.795 207.098 543.396 210.468C546.997 213.839 551.879 215.734 556.971 215.739C559.493 215.739 561.991 216.203 564.321 217.106C566.652 218.01 568.769 219.334 570.553 221.004C572.336 222.673 573.751 224.655 574.716 226.837C575.681 229.018 576.177 231.356 576.177 233.717V701.152Z" fill="black"/>
</svg>
