<svg width="804" height="828" viewBox="0 0 804 828" fill="none" xmlns="http://www.w3.org/2000/svg">
<path d="M775.797 359.331C799.19 383.417 799.19 422.576 775.797 446.662L732.557 491.182C720.861 503.225 705.542 509.208 690.149 509.208C674.755 509.208 659.436 503.225 647.74 491.182L540.737 381.089L370.043 556.84L477.046 667.013C500.439 691.099 500.439 730.258 477.046 754.343L433.806 798.864C422.11 810.906 406.791 816.889 391.398 816.889C376.004 816.889 360.685 810.907 348.989 798.864L327.407 776.642L294.958 810.052C283.338 822.017 268.018 828 252.7 828C237.382 828 222.138 822.017 210.442 810.052L172.032 770.504C170.674 773.146 169.014 775.632 166.901 777.885C161.015 783.946 153.318 786.976 145.546 786.976C137.773 786.976 130.076 783.946 124.19 777.885L48.7295 700.189C36.9571 688.067 36.9571 668.411 48.7295 656.212C50.9179 653.959 53.3326 652.327 55.8983 650.929L17.4883 611.381C-5.82945 587.451 -5.82945 548.369 17.4883 524.438L49.9368 491.028L28.3547 468.807C4.96159 444.721 4.96159 405.562 28.3547 381.476L71.5942 336.956C94.9874 312.87 133.02 312.87 156.412 336.956L263.414 447.128L434.185 271.298L327.028 161.046C303.635 136.96 303.635 97.8005 327.028 73.7153L370.268 29.1948C393.661 5.10858 431.693 5.10858 455.086 29.1948L476.668 51.4163L509.116 18.0065C532.434 -6.00216 570.315 -6.00216 593.557 18.0065L631.967 57.5544C633.325 54.9128 634.985 52.4265 637.098 50.1732C648.871 38.052 668.037 38.052 679.81 50.1732L755.271 127.87C767.043 139.991 767.043 159.648 755.271 171.846C753.082 174.1 750.667 175.731 748.102 177.13L786.512 216.678C809.829 240.608 809.829 279.689 786.512 303.62L754.063 337.03L775.797 359.331Z" fill="black"/>
</svg>
