<svg width="824" height="823" viewBox="0 0 824 823" fill="none" xmlns="http://www.w3.org/2000/svg">
<path d="M823.824 108.549C824.936 82.9125 816.473 57.7818 800.053 38.0067C780.834 15.0648 752.814 1.3205 722.874 0.17522C515.679 -0.026904 308.451 -0.06059 101.256 0.107848C95.5916 0.141534 89.9607 0.815293 84.4313 2.12917C52.6357 8.63098 25.5608 29.3486 11.0622 58.3542C2.86882 76.1078 -0.873694 95.613 0.171601 115.152C0.44134 317.043 0.44134 518.933 0.239031 720.824V720.79C0.812234 743.024 8.46604 764.484 22.1557 782.035C40.2287 805.516 67.3373 820.372 96.8731 823C305.518 822.629 514.162 822.562 722.841 822.832C778.643 821.922 823.452 776.645 823.823 720.929C824.059 516.779 824.06 312.665 823.824 108.549ZM651.19 394.12C655.338 392.469 660.024 392.806 663.869 395.063C667.712 397.354 670.275 401.296 670.781 405.709C670.848 413.154 667.038 420.094 660.733 424.035C654.427 427.977 646.504 428.314 639.861 424.979C630.252 414.737 640.3 398.634 651.19 394.12ZM613.494 365.014C620.373 362.251 628.229 364.98 631.904 371.414C634.332 377.512 633.758 384.351 630.42 389.976C627.049 395.602 621.283 399.375 614.775 400.15C611.303 400.588 607.796 399.577 605.099 397.354C602.401 395.164 600.715 391.93 600.445 388.461C600.412 378.893 605.369 370.034 613.494 365.014ZM199.14 365.081C215.291 358.748 228.104 380.712 221.529 394.053H221.563C218.562 397.927 213.942 400.15 209.054 400.117C204.164 400.083 199.579 397.758 196.646 393.884C192.431 390.044 190.273 384.486 190.779 378.859C191.284 373.2 194.386 368.113 199.174 365.081L199.14 365.081ZM162.658 458.394C160.331 464.492 153.959 468.063 147.518 466.782C139.426 466.547 132.042 462.268 127.76 455.396C125.433 448.018 128.603 440 135.38 436.193C142.123 433.97 149.575 435.351 155.07 439.832C160.6 444.312 163.467 451.32 162.658 458.394ZM155.273 415.611C152.947 411.972 152.34 407.526 153.621 403.415C154.902 399.305 157.937 395.97 161.882 394.319C175.099 388.963 186.698 402.607 188.485 414.6V414.566C188.518 418.339 186.967 421.91 184.169 424.436C181.404 426.963 177.695 428.21 173.952 427.805C165.995 427.334 158.915 422.685 155.273 415.611ZM312.094 744.776C290.11 753.535 265.092 748.954 247.626 733.019C231.374 717.859 228.373 694.716 222.439 674.435C211.38 630.708 193.038 589.373 179.247 546.557H179.213C169.705 520.044 172.031 490.735 185.586 466.043C199.545 441.586 222.642 423.629 249.817 416.185C266.44 412.21 283.838 412.985 300.056 418.375C321.501 426.494 335.966 446.707 336.707 469.581C336.775 488.412 329.694 506.537 316.881 520.314C304.912 534.329 291.357 549.488 290.346 568.825C290.042 588.297 297.561 607.095 311.217 621.008C323.389 636.168 339.776 648.666 346.418 667.565C357.612 698.355 342.44 732.446 312.094 744.776ZM240.883 347.394C247.761 343.789 256.224 345.575 261.079 351.639C265.834 358.342 267.081 366.933 264.451 374.715C262.057 379.398 257.337 382.429 252.077 382.699C246.817 382.968 241.827 380.442 238.961 376.029C233.128 367.573 230.397 353.424 240.883 347.394ZM305.014 330.179C315.398 326.81 326.727 330.247 333.505 338.803C343.283 353.828 341.159 373.671 328.447 386.303C322.648 391.794 314.657 394.321 306.734 393.075C298.844 391.828 291.999 386.977 288.189 379.97C280.637 362.89 286.065 337.254 305.014 330.179ZM294.562 247.846C275.713 231.17 259.428 211.867 246.177 190.475C240.141 182.323 235.691 173.16 232.96 163.39C234.578 156.316 238.018 149.781 242.873 144.391C278.243 98.2713 330.467 68.0532 388.126 60.3726C427.036 56.1952 466.384 62.8655 501.753 79.6087C537.123 96.3516 567.199 122.561 588.605 155.272C593.528 162.043 589.448 170.128 586.076 176.563V176.597C566.419 215.371 536.14 247.813 498.784 270.082C474.204 283.861 446.691 291.541 418.537 292.519C373.018 294.001 328.648 278.03 294.562 247.846ZM568.686 382.459C552.468 378.282 556.683 353.185 568.787 346.75H568.753C572.732 344.999 577.25 344.931 581.262 346.616C585.241 348.3 588.377 351.568 589.86 355.644C592.861 368.075 583.319 385.829 568.652 382.46L568.686 382.459ZM536.351 379.832C532.979 386.334 526.944 391.05 519.829 392.802C512.715 394.553 505.196 393.139 499.194 388.961C485.909 378.956 480.717 361.405 486.449 345.773C489.348 338.193 495.653 332.433 503.443 330.108C513.794 326.908 525.055 330.58 531.529 339.272C540.026 351.063 541.847 366.39 536.351 379.832ZM634.605 577.678C620.916 611.669 609.35 646.503 599.977 681.909C597.179 699.797 589.761 716.607 578.466 730.757C554.088 754.844 514.807 754.709 490.561 730.454C474.949 714.418 469.791 690.938 477.208 669.849C486.278 641.147 515.713 626.055 528.088 599.273C535.371 584.686 536.045 567.64 529.908 552.514C520.332 529.269 496.326 514.682 490.054 489.72C485.536 474.729 487.188 458.558 494.674 444.78C502.125 431.002 514.769 420.761 529.807 416.348C552.161 410.823 575.764 413.888 595.961 424.938C627.217 441.175 648.02 472.202 651.122 507.238C652.842 531.864 642.361 554.87 634.605 577.678ZM674.291 466.979C670.144 467.047 666.199 465.16 663.636 461.893C661.073 458.625 660.163 454.346 661.208 450.338C664.378 443.432 670.211 438.109 677.359 435.583C681.574 433.932 686.294 434.37 690.104 436.728C693.948 439.086 696.443 443.095 696.882 447.576C699.006 460.04 684.709 466.811 674.291 466.979Z" fill="black"/>
<path d="M425.421 182.803C425.151 152.113 425.252 121.424 425.016 90.6975C425.353 85.1727 422.116 80.0182 416.991 77.8958C411.833 75.7735 405.933 77.1884 402.257 81.3657C399.661 85.4756 398.582 90.3942 399.223 95.2117C399.324 124.352 399.189 153.492 399.29 182.634C382.262 189.103 372.518 206.991 376.261 224.812C380.003 242.599 396.12 255.03 414.294 254.153C431.692 253.143 446.022 240.139 448.686 222.958C451.349 205.777 441.672 189.035 425.421 182.803Z" fill="black"/>
<path d="M310.844 134.862C304.539 127.652 298.436 115.895 286.803 119.635C282.993 121.42 280.262 124.89 279.486 129.033C278.711 133.177 279.958 137.422 282.858 140.454C292.703 151.267 301.167 163.395 311.417 173.805C320.352 182.395 335.423 170.908 331.715 159.891C325.477 150.964 318.499 142.576 310.844 134.862Z" fill="black"/>
<path d="M515.95 170.6C524.143 161.032 531.763 151.028 540.294 141.763C544.609 137.956 546.025 131.859 543.834 126.57C542.148 122.729 538.641 119.967 534.494 119.192C530.381 118.451 526.132 119.765 523.165 122.763C514.567 132.532 506.239 142.538 497.608 152.307C493.798 155.71 491.91 160.797 492.618 165.85C493.427 172.048 499.327 175.147 504.52 177.27H504.554C508.937 176.259 512.881 173.901 515.95 170.6Z" fill="black"/>
</svg>
