<svg width="780" height="806" viewBox="0 0 780 806" fill="none" xmlns="http://www.w3.org/2000/svg">
<path d="M38.3532 638.905C6.84748 670.957 -6.09868 709.439 2.69434 744.442C9.80011 772.91 31.1824 795.283 58.6969 802.919C66.0298 804.962 73.5901 806 81.2144 806C108.794 806 137.379 792.536 162.298 767.15L163.206 766.111L370.863 519.01L370.831 519.043C384.88 529.258 404.024 527.584 416.191 515.091L453.731 476.341C460.869 468.906 464.568 458.657 463.887 448.208C650.679 371.043 758.926 284.094 777.125 195.105C787.249 145.805 770.636 98.2104 727.287 53.7373C684.491 9.66197 639.39 -7.31877 592.958 2.86281C507.329 21.5515 425.404 131.472 349.352 328.673H349.319C338.514 327.2 327.645 330.984 319.922 338.989L282.382 377.304C270.312 389.898 268.658 409.59 278.489 424.126L39.1017 638.475L38.3532 638.905ZM599.841 36.3865C618.627 32.5015 638.128 34.7789 655.584 42.9175C569.697 58.5247 472.845 164.591 378.652 347.731L378.068 347.228C467.942 111.513 548.093 47.7042 599.841 36.3865ZM744.229 188.009C728.46 265.174 623.04 346.361 447.022 418.031C621.454 322.611 723.854 219.123 737.742 127.888C745.983 146.71 748.252 167.746 744.229 188.009ZM422.427 392.575L706.012 99.851C710.911 183.514 604.684 294.377 422.427 392.575ZM412.888 353.892C507.181 173.17 606.856 70.9508 682.842 75.2377L412.888 353.892ZM343.453 362.466C343.842 361.997 344.426 361.762 345.01 361.796C345.594 361.762 346.146 362.03 346.503 362.466L429.566 448.205C430.02 448.607 430.247 449.177 430.247 449.779C430.247 450.416 430.02 450.985 429.566 451.387L392.284 490.807C391.408 491.645 390.078 491.645 389.202 490.807L306.139 405.068C305.328 404.164 305.328 402.757 306.139 401.819L343.453 362.466Z" fill="black"/>
</svg>
