<svg width="709" height="713" viewBox="0 0 709 713" fill="none" xmlns="http://www.w3.org/2000/svg">
<path d="M180.107 344.374L137.906 380.638V278.083H244.56V380.638L202.618 344.407V344.374C196.154 338.82 186.604 338.82 180.107 344.374ZM385.521 92.5876V92.6203C391.694 115.98 412.745 132.282 436.786 132.347H708.992V69.6856C708.992 51.2271 701.683 33.4871 688.688 20.4189C675.693 7.35078 658.053 0 639.698 0H361.154L385.521 92.5876ZM709 167.174V643.314C709 661.773 701.69 679.513 688.696 692.581C675.701 705.649 658.06 713 639.705 713H69.2949C31.0247 713 0 681.8 0 643.314V69.688C0 31.2021 31.0255 0.00244868 69.2949 0.00244868H325.292L351.963 101.512H351.996C362.197 140.193 396.991 167.147 436.785 167.179L709 167.174ZM261.877 243.231H120.592C111.009 243.231 103.277 251.039 103.277 260.677V418.54C103.277 425.335 107.208 431.51 113.348 434.352C119.488 437.195 126.7 436.182 131.866 431.771L191.122 380.544L250.541 431.771C253.692 434.483 257.688 435.953 261.814 435.953C264.316 435.986 266.817 435.463 269.091 434.385C275.232 431.543 279.162 425.336 279.13 418.54V260.677C279.13 251.072 271.428 243.296 261.877 243.231ZM188.846 101.669C188.846 113.169 195.733 123.525 206.292 127.903C216.85 132.313 229.001 129.863 237.057 121.761C245.146 113.626 247.55 101.407 243.197 90.7896C238.811 80.172 228.513 73.2779 217.11 73.2779C201.516 73.3105 188.911 85.987 188.846 101.669ZM93.5614 101.669C93.5614 113.169 100.449 123.525 111.007 127.903C121.565 132.313 133.684 129.863 141.773 121.761C149.862 113.626 152.266 101.407 147.88 90.7896C143.527 80.172 133.229 73.2779 121.793 73.2779C106.232 73.3105 93.5938 85.987 93.5614 101.669ZM623.07 609.139C623.07 604.533 621.218 600.09 617.97 596.822C614.721 593.555 610.335 591.725 605.721 591.725H103.275C93.6921 591.725 85.9276 599.534 85.9276 609.138C85.9276 618.776 93.692 626.584 103.275 626.584H605.721C610.335 626.584 614.72 624.722 617.97 621.455C621.218 618.188 623.07 613.779 623.07 609.139ZM623.07 522.04C623.07 517.401 621.218 512.99 617.97 509.723C614.721 506.456 610.335 504.593 605.721 504.593H103.275C93.6921 504.593 85.9276 512.402 85.9276 522.039C85.9276 531.644 93.692 539.452 103.275 539.452H605.721C610.335 539.452 614.72 537.623 617.97 534.355C621.218 531.089 623.07 526.647 623.07 522.04ZM623.07 434.908C623.07 430.301 621.218 425.858 617.97 422.591C614.721 419.324 610.335 417.494 605.721 417.494H334.488C324.905 417.494 317.173 425.269 317.173 434.907C317.173 444.544 324.905 452.32 334.488 452.32H605.721C610.335 452.32 614.72 450.49 617.97 447.223C621.218 443.956 623.07 439.514 623.07 434.908ZM623.07 347.776C623.07 343.169 621.218 338.726 617.97 335.458C614.721 332.191 610.335 330.362 605.721 330.362H334.488C324.905 330.362 317.173 338.17 317.173 347.775C317.173 357.412 324.905 365.221 334.488 365.221H605.721C610.335 365.221 614.72 363.358 617.97 360.091C621.218 356.824 623.07 352.415 623.07 347.776ZM623.07 260.676C623.07 256.037 621.218 251.627 617.97 248.359C614.721 245.092 610.335 243.23 605.721 243.23H334.488C324.905 243.23 317.173 251.038 317.173 260.675C317.173 270.28 324.905 278.089 334.488 278.089H605.721C610.335 278.089 614.72 276.259 617.97 272.992C621.218 269.725 623.07 265.283 623.07 260.676Z" fill="black"/>
</svg>
