<svg width="465" height="442" viewBox="0 0 465 442" fill="none" xmlns="http://www.w3.org/2000/svg">
<path d="M232.246 69.0221C232.246 80.0697 222.679 89.7386 211.747 89.7386C200.816 89.7192 191.268 80.0697 191.268 69.0221C191.268 57.9744 200.835 48.3056 211.767 48.3056C222.679 48.3056 232.246 57.9744 232.246 69.0221ZM464.498 41.4131V400.388C464.498 422.483 446.746 441.801 423.519 441.801H40.9783C17.7512 441.801 0 422.464 0 400.388V41.4131C0 17.9396 17.7517 1.57251e-05 40.9783 1.57251e-05H423.5C446.727 -0.0193985 464.498 17.9401 464.498 41.4131ZM54.6558 372.758C54.6558 379.67 61.495 386.562 68.315 386.562H150.291C157.131 386.562 163.951 379.65 163.951 372.758C163.951 365.846 157.111 358.954 150.291 358.954H68.315C61.4758 358.954 54.6558 365.866 54.6558 372.758ZM68.315 331.345H150.291C157.131 331.345 163.951 324.433 163.951 317.541C163.951 310.629 157.111 303.736 150.291 303.736H68.315C61.4758 303.736 54.6558 310.648 54.6558 317.541C54.6558 324.433 61.4758 331.345 68.315 331.345ZM177.612 372.758C177.612 379.67 184.451 386.562 191.271 386.562H273.247C280.087 386.562 286.907 379.65 286.907 372.758C286.907 365.846 280.067 358.954 273.247 358.954H191.271C184.432 358.954 177.612 365.866 177.612 372.758ZM191.271 331.345H273.247C280.087 331.345 286.907 324.433 286.907 317.541C286.907 310.629 280.067 303.736 273.247 303.736H191.271C184.432 303.736 177.612 310.648 177.612 317.541C177.612 324.433 184.432 331.345 191.271 331.345ZM300.568 372.758C300.568 379.67 307.407 386.562 314.227 386.562H396.203C403.043 386.562 409.863 379.65 409.863 372.758C409.863 365.846 403.023 358.954 396.203 358.954H314.227C307.388 358.954 300.568 365.866 300.568 372.758ZM314.227 331.345H396.203C403.043 331.345 409.863 324.433 409.863 317.541C409.863 310.629 403.023 303.736 396.203 303.736H314.227C307.388 303.736 300.568 310.648 300.568 317.541C300.568 324.433 307.388 331.345 314.227 331.345ZM409.841 193.283C409.841 178.1 397.546 165.674 382.522 165.674H81.9772C66.9537 165.674 54.6582 178.1 54.6582 193.283V248.499C54.6582 263.682 66.9537 276.108 81.9772 276.108H382.522C397.546 276.108 409.841 263.682 409.841 248.499V193.283ZM437.18 41.4131C437.18 34.5013 430.34 27.6089 423.52 27.6089L40.9793 27.5895C34.1592 27.5895 27.32 34.5013 27.32 41.4131V110.457H437.162L437.18 41.4131ZM75.1375 48.3056C64.2059 48.3056 54.6577 57.9744 54.6577 69.0221C54.6577 80.0697 64.2251 89.7386 75.1567 89.7386C86.0692 89.7192 95.6365 80.0697 95.6365 69.0221C95.6365 57.9744 86.0692 48.3056 75.1375 48.3056ZM143.456 48.3056C132.524 48.3056 122.957 57.9744 122.957 69.0221C122.957 80.0697 132.524 89.7386 143.456 89.7386C154.388 89.7192 163.936 80.0697 163.936 69.0221C163.936 57.9744 154.388 48.3056 143.456 48.3056ZM81.9787 248.497H382.524V193.281H81.9787V248.497Z" fill="black"/>
</svg>
