<svg width="416" height="581" viewBox="0 0 416 581" fill="none" xmlns="http://www.w3.org/2000/svg">
<path fill-rule="evenodd" clip-rule="evenodd" d="M93.8039 326.628L94.0811 326.983V326.933L93.8039 326.628Z" fill="black"/>
<path fill-rule="evenodd" clip-rule="evenodd" d="M415.012 304.919C414.485 293.087 412.396 293.24 404.527 288.069C404.527 278.16 404.433 267.921 404.554 257.675C404.859 230.789 405.305 203.897 405.595 177.011C405.886 150.125 406.096 123.239 406.298 96.3536C406.353 90.0667 401.201 83.6783 394.455 82.0035C388.844 80.6141 383.085 80.113 377.372 81.6545C372.647 82.9297 368.422 82.3524 364.353 79.4976C357.728 74.8347 350.13 71.6818 342.741 68.2877C337.63 65.9405 332.202 64.9698 326.699 66.429C324.868 64.5448 326.24 62.3244 324.955 59.9264C315.87 55.3079 305.906 51.0321 295.617 47.7586C277.75 42.0743 260.641 34.728 243.322 27.8828C235.926 24.9582 228.152 24.0003 220.385 22.9852C215.66 22.3635 211.766 25.5799 207.088 26.7599C205.256 24.5268 207.325 21.3929 205.04 18.9378C194.109 14.0085 181.752 12.1814 169.685 9.49789C166.94 8.88887 164.96 8.05146 163.358 5.53289C160.174 0.476723 155.726 -1.04584 149.642 0.686075C137.453 4.13721 126.259 9.80875 114.983 15.1377C87.5306 28.0985 60.6529 42.0807 33.8359 56.1263C26.5081 59.9708 19.3019 64.0753 10.7843 65.655C4.93695 66.7398 1.38119 69.9752 0.880948 76.389C0.231988 84.8646 -0.160081 93.3529 0.0629992 101.79C0.752519 127.427 0.353678 153.05 0.299598 178.686C0.272558 183.666 2.1586 186.641 6.07264 189.534C22.682 201.867 41.8398 208.979 62.0522 213.99C67.6224 215.373 73.1454 216.928 78.7291 218.228C81.1222 218.78 82.1091 219.706 80.6287 222.986C50.9185 222.428 24.9263 211.891 0.488877 194.939C0.488877 202.749 0.488877 209.727 0.488877 216.706C0.529437 249.009 0.630832 281.326 0.475352 313.636C0.475352 317.791 1.67863 320.271 5.75491 322.111C24.9128 330.72 44.3072 338.371 66.0406 338.777C70.6374 338.866 75.2274 339.5 79.8107 339.912C82.3728 340.141 84.2453 340.966 83.4949 344.277C53.8658 349.257 27.4478 340.471 1.84764 327.967C0.184679 329.236 0.766034 331.005 0.752514 332.458C0.738994 351.217 0.820114 369.983 0.894474 388.742C0.935034 400.104 1.25275 411.479 0.94855 422.835C0.81335 427.593 2.65207 430.308 6.74187 432.922C24.595 444.335 43.9895 452.265 65.0469 456.712C67.663 457.257 70.2115 458.082 72.7871 458.818C74.4636 459.294 75.4032 460.226 74.7948 462.295C61.6196 462.777 48.9716 460.626 36.6143 456.363C24.4666 452.17 13.3261 446.219 2.11128 439.621C0.590276 441.696 1.08376 443.713 1.09728 445.553C1.37444 470.992 1.78679 496.432 1.55695 521.871C1.50287 526.705 2.40195 531.558 2.96979 536.393C3.53763 541.239 6.85003 544.525 10.4937 547.552C21.2962 556.503 33.8495 562.739 47.0112 567.948C59.5442 572.902 72.1652 577.667 85.5905 580.103C86.3544 580.103 87.125 580.103 87.9024 580.103C97.887 578.618 107.824 576.626 117.876 575.732C150.912 572.801 184.05 570.999 217.086 567.967C246.33 565.283 275.641 563.113 304.953 560.956C320.825 559.776 336.603 557.283 352.428 555.482C363.663 554.213 374.898 553.046 386.147 551.967C389.513 551.643 391.812 550.115 393.779 547.71C398.322 542.089 400.661 536.037 400.708 528.754C401.066 479.125 401.79 429.502 402.371 379.88C402.452 373.961 404.494 368.226 403.797 362.586C405.197 360.905 406.981 361.723 408.326 361.12C411.761 359.598 414.532 357.72 414.627 353.622C414.999 337.388 415.735 321.179 415.012 304.919ZM46.2608 279.518C39.4197 281.649 35.8031 281.027 33.4642 277.551C31.6052 274.798 31.8823 269.995 34.059 268.003C37.2024 265.117 41.1097 265.561 44.2125 267.223C49.7963 270.205 46.9504 275.013 46.2608 279.518ZM40.8325 402.395C36.8712 402.445 32.1865 397.484 32.0919 393.17C32.0243 389.047 35.0595 386.217 39.6698 386.16C44.8953 386.097 47.525 388.92 47.552 394.61C47.5655 399.229 44.875 402.337 40.8325 402.395ZM47.7818 513.827C43.2391 512.958 38.5139 518.141 34.6607 512.653C32.4434 509.475 32.7476 504.298 35.188 502.122C37.723 499.876 40.8799 499.058 44.1652 500.073C47.4371 501.088 49.0189 507.096 47.7818 513.827ZM321.386 67.2029C316.87 68.865 312.199 68.6303 307.67 69.1315C295.299 70.5145 282.901 71.7833 270.504 73.0711C269.037 73.2234 267.556 73.217 266.083 73.2678C267.272 70.7112 270.057 71.8214 271.93 71.4724C288.343 68.3829 304.844 65.636 321.19 62.8129C322.393 64.475 321.866 65.7882 321.386 67.2029ZM203.6 29.4625C188.268 36.111 173.234 42.7912 158.051 49.1542C152.149 51.6284 146.458 54.6481 140.069 55.9867C139.529 57.0589 138.575 56.951 137.615 56.8114C137.494 55.5046 138.602 55.53 139.515 55.346C143.382 52.0788 148.337 50.6007 152.731 48.2153C152.731 48.247 152.704 48.2661 152.704 48.2978C169.786 41.0974 185.699 31.6955 202.403 23.9051C204.303 25.8527 203.363 27.6164 203.6 29.4625ZM44.9832 153.247C44.2328 155.765 42.117 157.072 39.5008 157.313C36.9118 157.548 35.1947 156.12 34.3903 153.849C33.9779 152.669 33.5858 151.451 33.4642 150.233C32.9639 145.088 35.4178 141.808 39.7374 141.72C43.4622 141.65 45.2266 144.137 45.2536 150.576C45.2468 150.76 45.3212 152.06 44.9832 153.247ZM94.0135 399.299C93.4862 409.043 93.6822 418.775 93.4862 428.506C92.6953 465.835 94.9396 503.201 91.7962 540.51C91.296 546.441 91.296 552.405 90.9106 558.349C90.7754 560.271 90.8836 562.314 89.0516 564.991C88.1931 555.919 87.1656 547.742 86.6586 539.539C83.914 494.992 85.2998 450.4 85.3877 405.827C85.4553 367.204 86.1651 328.582 86.2733 289.953C86.4152 237.787 86.2598 185.62 86.2598 133.453C86.2598 128.943 86.395 124.432 86.5775 119.915C86.6586 118.171 86.4558 116.267 88.4027 114.764C90.8971 118.253 91.2284 122.186 91.4109 126.044C93.1279 161.386 93.9459 196.754 93.1144 232.115C92.5601 255.899 92.6006 279.644 93.3375 303.409V303.523L93.351 303.536C94.9193 310.127 93.8918 316.795 93.9188 323.424C93.9188 324.642 93.4591 325.848 94.1149 327.028L94.0743 326.977C92.9521 339.912 93.2023 352.797 94.0743 365.745C94.8517 376.898 94.6354 388.14 94.0135 399.299ZM88.5649 103.427C84.5224 104.544 79.9459 104.296 76.0251 103.091C57.9354 97.5843 40.1025 91.5004 23.9258 81.8449C22.9726 81.2803 22.0938 80.6395 21.2556 80.1003C21.3908 78.1336 23.1011 78.178 24.1894 77.6261C49.6814 64.7605 75.1666 51.8124 100.794 39.1434C116.916 31.169 133.316 23.6831 149.54 15.8926C156.51 12.543 163.391 11.6358 171.098 14.0402C180.312 16.9077 189.857 18.8236 200.517 21.4627C194.19 25.434 188.505 28.1429 182.907 31.0231C173.667 35.7811 164.486 40.6596 155.313 45.5318C154.205 46.1218 153.163 46.8894 152.778 48.1455C150.838 47.9235 149.094 48.4501 147.39 49.3065C127.53 59.3237 107.067 68.2687 87.4631 78.7236C84.8064 80.1383 81.6427 81.0899 80.2028 83.9955C91.3974 81.3754 101.145 75.5389 111.664 71.3773C130.558 63.885 149.371 56.1453 167.921 47.9045C180.055 42.5184 192.568 37.7477 204.188 31.5243C214.909 25.7766 225.063 25.7829 236.366 29.1199C245.938 31.9557 254.746 36.3267 264 39.7968C279.974 45.7919 295.712 52.4024 311.543 58.7654C312.747 59.2539 313.937 59.8249 315.147 60.9287C300.531 65.636 285.159 66.6066 270.226 69.455C255.226 72.3162 240.32 75.4691 225.523 79.32C236.136 77.791 246.857 77.4802 257.551 76.9283C275.202 76.0211 292.622 73.1853 310.219 71.815C316.147 71.3519 322.076 70.6414 327.923 69.6517C332.094 68.9412 335.792 69.6707 339.618 71.1172C347.595 74.1306 355.342 77.4992 363.001 82.0225C361.088 84.3 358.857 83.8813 356.964 83.8623C346.189 83.7417 335.454 84.5791 324.719 85.2326C315.559 85.7845 306.446 87.1929 297.28 87.9795C289.648 88.6329 281.975 89.261 274.323 89.3181C247.945 89.5401 221.75 92.4203 195.501 94.1015C171.192 95.6621 147.019 98.98 122.649 99.2528C111.062 99.3733 99.7189 100.331 88.5649 103.427ZM137.426 56.8685C137.217 57.56 136.716 57.7821 135.919 57.6298C135.925 56.3293 136.757 56.748 137.426 56.8685ZM133.769 58.1881C133.647 59.0763 132.843 59.0509 132.262 59.3173C132.228 58.3657 132.464 57.7186 133.769 58.1881ZM132.052 59.3808C131.207 59.5647 130.362 59.7487 129.517 59.9264C130.179 59.0572 131.052 58.9494 132.052 59.3808ZM265.778 73.3376C264.487 73.8831 263.216 74.5049 261.648 73.8705C262.926 72.5826 264.393 73.2361 265.778 73.3376ZM372.972 523.064C289.222 530.01 205.804 536.925 120.675 543.98C119.093 405.148 118.221 267.362 118.194 128.829C119.161 127.344 121.337 126.5 123.974 126.291C147.512 124.419 171.057 122.586 194.609 120.6C226.388 117.923 258.167 115.113 289.952 112.391C316.573 110.114 343.187 107.862 369.801 105.641C371.877 105.47 373.986 105.616 377.061 105.616C375.703 244.613 374.344 383.502 372.972 523.064ZM408.421 355.474C395.8 357.942 388.864 347.202 393.529 333.15C387.391 326.837 387.404 324.592 393.596 318.337C391.933 303.231 396.327 296.646 408.915 296.615C408.556 316.135 409.793 335.656 408.421 355.474Z" fill="black"/>
<path fill-rule="evenodd" clip-rule="evenodd" d="M343.755 396.767C342.883 388.875 344.39 381.307 345.972 373.732C347.162 368.023 345.79 363.677 341.166 359.687C335.765 355.005 329.431 351.598 323.529 347.665C312.159 340.084 307.014 326.311 315.816 314.391C319.013 310.083 322.441 306.035 326.564 302.451C333.034 296.824 339.861 291.539 345.844 285.392C349.366 281.763 351.096 277.69 351.204 272.742C351.326 266.855 348.561 261.964 345.776 257.085C340.179 247.303 340.639 238.256 348.588 229.647C351.968 225.993 354.99 222.035 358.201 218.241C361.635 214.2 364.407 209.619 366.252 204.627C368.456 198.651 368.219 193.081 364.393 187.599C361.027 182.822 356.329 179.454 351.874 175.78C349.751 174.036 347.689 172.342 346.168 169.855C336.941 154.642 339.3 140.559 350.197 127.103C353.658 122.821 357.552 118.881 361.581 114.707C283.091 121.083 204.479 124.699 126.144 134.215C125.772 137.019 125.867 139.823 126.326 142.576C130.119 144.86 134.053 146.275 137.974 147.721C152.271 152.967 167.589 154.788 182.11 159.432C191.155 162.331 199.409 166.023 206.324 172.107C216.964 181.465 221.994 201.467 207.102 213.337C201.937 217.442 196.286 220.734 190.384 223.779C179.534 229.406 167.664 233.149 157.524 240.166C146.126 248.058 144.572 260.505 154.421 270.192C159.254 274.956 164.216 279.613 169.049 284.25C170.618 283.153 170.712 282.036 171.071 281.015C176.033 266.76 184.537 254.205 194.771 243.09C211.698 224.68 233.222 213.166 259.296 209.746C282.442 206.701 303.114 211.358 320.534 226.475C322.461 228.144 324.665 229.977 325.023 233.473C321.271 231.5 318.459 229.406 315.079 228.099C305.493 224.414 295.752 225.72 286.072 226.907C274.046 228.385 263.047 232.781 253.617 239.855C246.276 245.349 239.597 251.591 233.81 258.639C226.719 267.293 220.777 276.764 217.938 287.168C215.22 297.173 213.436 307.615 214.531 318.241C215.322 325.81 217.329 333.048 219.074 340.426C220.736 347.525 223.697 354.028 227.855 359.585C239.381 374.995 254.185 386.547 274.729 390.233C284.368 391.959 294.069 392.003 303.114 389.097C312.686 386.021 321.812 381.472 328.106 373.377C328.525 372.844 329.282 372.489 330.086 373.022C330.499 383.134 306.068 406.486 282.131 412.773C232.181 425.893 195.785 408.51 172.004 365.872C166.798 369.717 162.79 374.107 158.484 378.116C151.541 384.593 145.586 391.946 142.097 400.745C139.468 407.33 139.326 413.49 143.923 419.707C148.08 425.341 148.797 431.964 145.389 438.168C142.26 443.903 138.508 449.429 131.802 452.328C129.436 453.362 127.759 454.872 127.786 457.682C127.895 466.139 127.827 474.602 127.827 482.836C131.234 484.632 134.154 485.615 137.176 485.862C146.566 486.636 155.989 486.706 165.352 485.482C167.61 485.19 169.773 484.721 172.098 485.006C178.358 485.761 184.537 486.706 190.675 488.121C201.7 490.665 207.947 501.082 203.519 510.078C198.422 520.368 201.166 524.643 208.325 529.82C260.911 525.716 313.592 521.605 366.036 517.513C366.036 485.729 366.036 455.088 366.036 424.751C362.906 422.537 360.256 420.437 357.39 418.673C348.92 413.497 344.796 406.169 343.755 396.767ZM338.976 205.73C339.699 204.081 341.179 204.297 342.633 204.373C343.241 206.511 342.214 207.539 340.875 208.395C339.199 208.002 338.34 207.19 338.976 205.73ZM315.289 177.741C311.767 175.736 313.693 170.832 308.65 170.318C311.266 168.371 313.261 166.804 314.592 164.203C315.633 166.797 317.431 168.504 320.23 170.046C316.438 171.524 315.106 174.061 315.289 177.741ZM247.094 341.689C245.208 338.764 245.789 334.888 241.334 333.917C242.605 330.885 246.046 330.124 246.587 326.552C249.162 329.134 251.156 331.145 253.401 333.397C250.9 335.992 248.27 338.244 247.094 341.689ZM285.91 328.646C284.274 333.2 284.97 338.244 282.279 342.602C280.089 341.676 279.731 339.671 279.636 338.098C279.204 330.035 275.398 324.224 266.725 321.001C274.661 315.913 278.832 309.176 280.664 300.535C284.848 306.828 285.234 315.418 295.333 316.928C293.237 322.092 287.64 323.849 285.91 328.646ZM296.286 291.926C298.03 289.509 299.835 287.479 300.126 284.206C302.505 286.179 304.364 287.727 306.487 289.497C303.966 291.984 302.384 294.718 302.384 298.67C299.43 296.589 299.551 293.176 296.286 291.926ZM305.013 358.253C302.56 357.371 301.897 356.153 302.769 354.599C303.628 353.032 305.122 352.975 306.771 353.806C307.934 355.874 306.629 357.01 305.013 358.253ZM169.658 406.296C170.489 405.237 171.693 405.275 172.578 406.15C174.282 407.85 172.923 408.961 171.388 410.267C169.09 409.202 168.259 408.034 169.658 406.296ZM168.617 462.694C166.427 456.42 167.339 448.972 158.2 445.971C168.34 443.364 165.487 434.705 168.684 428.259C172.511 434.045 171.361 441.746 180.116 444.347C172.457 448.814 172.362 456.598 168.617 462.694ZM197.381 442.292C195.522 439.577 193.987 437.147 191.357 434.939C193.757 433.03 194.778 430.403 196.563 428.234C198.665 429.997 200.497 431.532 202.633 433.322C200.159 435.929 198.097 438.695 197.381 442.292ZM261.323 462.758C259.661 461.736 258.985 460.423 260.465 458.951C261.296 458.108 262.696 458.222 263.264 459.345C264.163 461.089 263.48 462.314 261.323 462.758ZM297.584 485.152C296.394 486.541 294.995 485.964 293.569 484.79C293.724 482.526 294.637 481.492 296.631 481.587C298.416 482.551 298.612 483.934 297.584 485.152ZM302.668 444.753C300.038 443.326 299.524 441.721 301.376 439.856C302.235 438.993 303.594 438.955 304.385 439.919C306.088 441.968 305.122 443.466 302.668 444.753ZM327.132 464.8C324.185 464.16 324.861 462.009 324.306 460.518C323.671 458.799 321.386 458.964 320.318 457.162C321.826 454.162 325.665 452.62 327.119 449.048C327.795 452.493 330.39 454.136 333.656 455.912C329.491 457.949 327.713 461.045 327.132 464.8Z" fill="black"/>
<path fill-rule="evenodd" clip-rule="evenodd" d="M158.024 366.24C161.918 363.664 165.974 361.146 168.536 357.187C166.886 347.005 163.952 337.077 163.925 326.736C163.898 316.294 164.148 305.871 166.352 295.581C161.451 290.283 154.799 287.6 149.006 283.889C134.891 274.836 133.215 261.405 143.476 249.047C153.948 236.435 167.691 228.353 183.455 222.853C191.75 219.947 199.192 215.526 205.134 209.372C208.541 205.838 212.158 201.981 212.462 196.811C213.253 182.505 203.525 172.031 188.593 169.728C182.955 168.853 177.134 169.075 171.402 168.599C160.599 167.705 149.723 168.973 138.934 166.309C134.567 165.23 130.592 163.105 125.846 162.407C124.542 165.021 124.988 167.755 124.92 170.382C124.048 209.372 126.441 248.343 125.711 287.314C125.569 296.399 128.55 302.274 136.324 306.962C143.03 310.997 148.817 316.351 151.879 323.228C158.957 339.113 154.319 355.366 139.049 366.418C135.141 369.26 131.207 372.108 127.178 375.026C127.259 380.92 126.759 386.725 127.982 392.663C135.182 380.838 146.735 373.694 158.024 366.24ZM193.872 181.928C196.38 184.77 197.36 188.481 201.849 190.226C197.333 193.049 196.089 196.925 194.994 201.404C192.142 198.054 191.959 193.493 187.254 191.666C192.5 190.048 190.837 184.89 193.872 181.928ZM163.412 178.096C164.838 177.918 165.433 178.819 165.683 180.132C165.724 181.528 164.811 182.308 163.303 182.486C161.877 182.657 161.1 181.75 161.032 180.634C160.944 179.232 161.918 178.286 163.412 178.096Z" fill="black"/>
<path fill-rule="evenodd" clip-rule="evenodd" d="M345.458 241.58C344.458 246.814 346.75 251.395 349.17 256C353.09 263.518 356.126 271.283 353.131 279.854C350.792 286.547 345.54 291.222 339.794 295.054C332.148 300.161 327.882 306.841 327.605 315.329C327.423 320.938 328.883 326.387 332.966 331.221C341.761 341.663 355.463 343.719 367.003 350.317C367.003 343.199 367.003 336.728 367.003 330.403C353.401 321.915 355.849 308.161 367.158 300.04C367.604 269.906 368.057 239.646 368.503 209.385C363.792 215.71 359.235 221.578 354.111 227.211C350.366 231.354 346.54 235.922 345.458 241.58Z" fill="black"/>
<path fill-rule="evenodd" clip-rule="evenodd" d="M186.652 496.045C178.77 492.568 170.462 490.291 161.58 489.453C150.622 488.425 139.346 491.268 128.652 486.262C128.652 503.791 128.652 520.628 128.652 537.68C148.391 534.629 167.921 533.5 187.788 531.451C187.606 525.24 188.207 519.803 191.695 514.943C196.63 508.047 194.731 499.623 186.652 496.045Z" fill="black"/>
<path fill-rule="evenodd" clip-rule="evenodd" d="M358.302 349.422C351.61 346.453 344.451 344.429 338.205 340.515C328.511 334.431 323.076 326.457 324.354 315.114C324.59 313.027 325.199 310.825 324.05 308.757C324.063 308.757 324.063 308.757 324.077 308.757C324.063 308.757 324.05 308.744 324.05 308.744V308.757C322.691 310.495 321.406 312.291 319.966 313.959C310.962 324.376 312.848 335.884 324.259 343.871C330.965 348.572 338.178 352.715 344.154 358.367C347.338 361.374 348.933 364.508 348.974 368.816C349.055 376.555 346.452 384.124 347.628 391.946C347.96 394.16 348.169 396.203 349.954 397.801C354.443 401.836 359.404 405.015 365.664 405.903C366.536 404.647 366.313 403.346 366.327 402.109C366.563 388.603 366.435 375.065 367.145 361.577C367.496 354.878 363.913 351.915 358.302 349.422Z" fill="black"/>
<path fill-rule="evenodd" clip-rule="evenodd" d="M152.413 337.077C152.19 320.367 140.069 311.612 127.063 303.466C127.063 326.292 127.063 348.623 127.063 371.112C140.86 362.643 152.65 353.641 152.413 337.077Z" fill="black"/>
<path fill-rule="evenodd" clip-rule="evenodd" d="M147.83 384.327C151.609 379.321 157.003 375.731 161.546 371.391C164.331 368.733 168.279 366.526 168.083 361.964C165.893 365.764 161.823 367.522 158.247 369.774C149.642 375.191 141.164 380.812 134.81 388.596C128.273 396.615 125.333 405.37 130.585 415.203C132.37 418.565 133.843 422.08 135.378 425.575C137.886 431.399 137.014 436.849 132.951 441.822C131.552 443.529 130.017 445.14 128.544 446.79C127.503 447.957 127.53 449.004 129.03 450.114C130.612 449.207 132.255 448.325 133.823 447.373C143.781 441.359 146.748 427.599 140.739 419.993C136.683 414.854 136.568 408.688 138.082 402.426C139.752 395.587 143.645 389.871 147.83 384.327Z" fill="black"/>
<path fill-rule="evenodd" clip-rule="evenodd" d="M367.347 186.331C367.679 186.172 368.01 186.007 368.327 185.848C368.327 169.925 368.327 153.995 368.327 138.053C355.788 139.296 346.134 155.943 353.564 169.043C357.126 175.33 362.69 180.602 367.347 186.331Z" fill="black"/>
<path fill-rule="evenodd" clip-rule="evenodd" d="M348.257 134.887C341.22 146.75 341.375 158.474 349.71 169.83C349.765 169.9 349.819 169.969 349.819 170.014C349.859 169.995 349.859 169.982 349.913 169.957C350.15 169.823 349.967 169.576 349.771 169.912L349.663 169.747C350.136 168.276 349.467 166.95 349.176 165.535C347.344 156.279 349.596 148.07 356.572 141.142C359.783 137.945 364.021 136.226 368.206 134.348C369.882 127.541 368.774 120.841 369.409 113.133C360.114 119.566 353.259 126.475 348.257 134.887Z" fill="black"/>
<path fill-rule="evenodd" clip-rule="evenodd" d="M182.901 163.835C163.912 158.373 144.504 155.841 126.509 147.791C125.569 151.096 125.968 154.097 126.022 157.262C135.371 162.851 171.226 167 182.901 163.835Z" fill="black"/>
<path fill-rule="evenodd" clip-rule="evenodd" d="M200.287 510.166C201.558 507.166 201.795 503.822 201.105 500.6C200.659 498.544 200.328 496.26 198.07 495.036C192.263 491.87 185.949 490.081 179.149 489.904C181.393 490.849 183.665 491.762 185.895 492.733C193.041 495.861 197.313 502.896 196.59 510.223C196.231 513.77 193.778 516.434 192.257 519.498C190.384 523.267 187.876 527.162 191.479 531.222C195.359 531.305 198.766 530.575 203.073 529.884C196.88 523.324 197.421 516.923 200.287 510.166Z" fill="black"/>
<path fill-rule="evenodd" clip-rule="evenodd" d="M141.056 258.462C138.19 265.009 139.88 270.674 144.605 275.927C150.716 282.702 159.065 286.337 167.035 290.658C168.38 288.145 166.312 286.807 165.21 285.284C162.188 281.066 157.814 277.951 153.812 274.728C146.971 269.196 145.072 262.217 144.626 254.414C142.131 254.713 141.813 256.768 141.056 258.462Z" fill="black"/>
<path fill-rule="evenodd" clip-rule="evenodd" d="M349.258 401.138C349.231 407.723 357.829 416.326 365.921 417.626C366.333 415.508 366.435 413.408 365.461 410.889C359.411 408.948 354.544 404.761 349.258 401.138Z" fill="black"/>
<path fill-rule="evenodd" clip-rule="evenodd" d="M127.962 441.423C135.236 435.275 134.857 424.776 127.421 418.419C127.813 426.096 127.05 433.569 127.962 441.423Z" fill="black"/>
<path fill-rule="evenodd" clip-rule="evenodd" d="M361.723 317.15C362.027 320.5 362.832 323.684 367.111 325.251C367.111 318.52 367.111 312.24 367.111 305.966C363.028 308.77 361.311 312.551 361.723 317.15Z" fill="black"/>
<path fill-rule="evenodd" clip-rule="evenodd" d="M184.672 164.799C185.611 165.287 186.362 165.326 187.099 164.964C186.409 164.279 185.686 163.911 184.672 164.799Z" fill="black"/>
<path fill-rule="evenodd" clip-rule="evenodd" d="M188.653 165.61C188.167 165.427 187.781 165.268 187.362 165.116C187.443 165.737 187.68 166.136 188.653 165.61Z" fill="black"/>
<path fill-rule="evenodd" clip-rule="evenodd" d="M187.362 165.122C187.362 165.046 187.335 164.983 187.335 164.901C187.254 164.951 187.18 164.926 187.099 164.964C187.126 164.996 187.153 165.021 187.193 165.053C187.241 165.078 187.308 165.097 187.362 165.122Z" fill="black"/>
<path fill-rule="evenodd" clip-rule="evenodd" d="M144.781 254.008C144.781 254.021 144.781 253.995 144.781 254.008C144.876 253.863 144.849 253.913 144.781 254.008Z" fill="black"/>
<path fill-rule="evenodd" clip-rule="evenodd" d="M144.781 254.008C144.727 254.071 144.686 254.154 144.612 254.255C144.626 254.306 144.626 254.363 144.639 254.414C144.68 254.414 144.707 254.388 144.761 254.382C144.768 254.236 144.781 254.097 144.781 254.008Z" fill="black"/>
<path fill-rule="evenodd" clip-rule="evenodd" d="M349.062 401.017C349.075 401.017 349.102 401.017 349.129 401.024C349.17 401.062 349.224 401.1 349.264 401.137C349.264 401.055 349.224 400.967 349.237 400.885C349.17 400.923 349.129 400.973 349.062 401.017Z" fill="black"/>
<path fill-rule="evenodd" clip-rule="evenodd" d="M349.062 401.017C348.798 400.986 348.534 400.942 348.217 400.897C348.548 401.519 348.798 401.239 349.062 401.017Z" fill="black"/>
<path fill-rule="evenodd" clip-rule="evenodd" d="M168.894 362.034C168.657 361.983 168.394 361.932 168.157 361.882L168.103 361.888C168.103 361.913 168.09 361.939 168.09 361.964C168.117 361.939 168.117 361.92 168.144 361.894C168.387 361.945 168.644 361.989 168.894 362.034Z" fill="black"/>
<path fill-rule="evenodd" clip-rule="evenodd" d="M325.097 308.706C324.753 308.725 324.421 308.738 324.083 308.757C324.415 308.751 324.807 309.726 325.097 308.706Z" fill="black"/>
<path fill-rule="evenodd" clip-rule="evenodd" d="M79.8378 84.1408C79.9054 84.1534 79.973 84.1724 80.0338 84.1914C80.0744 84.1029 80.142 84.0586 80.1893 83.9828C80.0946 83.9954 80.0068 84.027 79.9256 84.0523C79.9054 84.0839 79.8648 84.1092 79.8378 84.1408Z" fill="black"/>
<path fill-rule="evenodd" clip-rule="evenodd" d="M79.2699 84.5974C79.4524 84.4453 79.6417 84.2929 79.8378 84.1408C79.6147 84.0838 79.4051 84.0271 79.1888 83.9701C79.2158 84.1792 79.2429 84.3883 79.2699 84.5974Z" fill="black"/>
</svg>
