<svg width="589" height="546" viewBox="0 0 589 546" fill="none" xmlns="http://www.w3.org/2000/svg">
<path fill-rule="evenodd" clip-rule="evenodd" d="M563.087 93.8298C553.442 96.3293 544.415 100.225 536.802 106.588C527.021 114.74 525.459 125.347 528.738 137.02C529.24 138.828 529.304 140.934 532.069 142.203C530.449 140.052 531.568 138.257 531.542 136.5C531.368 127.719 534.377 120.5 542.646 116.104C546.89 113.851 551.591 113.414 556.194 112.671C560.927 111.917 563.216 109.994 564.309 105.56C565.087 102.432 565.518 99.1778 567.434 96.5958C566.733 94.2865 565.364 93.2461 563.087 93.8298Z" fill="black"/>
<path fill-rule="evenodd" clip-rule="evenodd" d="M584.654 78.2362C580.345 73.4529 574.52 70.4965 568.212 68.8852C558.143 66.3032 547.919 64.0955 538.21 60.4032C530.552 57.4977 522.636 55.3661 515.036 52.34C511.056 50.7477 506.709 51.5216 502.678 50.1577C495.907 47.8675 488.988 45.977 482.243 43.6043C474.881 41.016 466.985 41.0985 459.539 38.7385C449.469 35.5475 439.021 33.4666 429.073 29.9647C420.322 26.8879 411.365 24.401 402.614 21.3432C391.741 17.5432 380.16 15.7922 369.133 12.2777C359.16 9.10567 348.698 8.14772 338.616 5.51496C332.012 3.78305 325.531 1.54996 318.638 0.95997C312.472 0.433418 306.845 1.34061 302.074 5.61646C299.097 8.28729 297.162 11.6877 295.04 15.1261C293.143 11.9605 291.799 8.54105 289.452 6.01614C284.578 0.750618 278.161 -0.359583 271.056 0.0908414C262.967 0.617393 255.733 4.14466 247.921 5.6355C242.398 6.6886 236.971 8.38879 231.409 9.08663C224.599 9.94942 218.034 11.9097 211.238 12.7725C207.418 13.261 204.107 15.2467 200.513 16.4203C192.661 18.9833 184.463 19.992 176.439 21.7746C167.623 23.7286 159.586 27.96 150.68 29.749C141.247 31.6459 132.007 34.3675 122.6 36.461C113.257 38.5482 103.837 40.3118 94.4433 42.2023C89.0035 43.2871 83.8338 45.2918 78.484 46.6812C67.0065 49.6629 55.2781 51.7818 44.1992 56.1781C34.117 60.1812 23.0896 61.2089 13.1166 65.7322C8.46773 67.8448 4.89265 70.744 2.46854 75.1023C-2.30252 83.6477 1.02179 92.4087 2.66787 100.745C5.00196 112.576 9.17503 124.027 12.7501 135.599C18.2992 153.457 22.8709 171.607 27.8606 189.637C31.037 201.1 34.2135 212.558 37.3899 224.021C39.4475 231.45 41.055 239.038 43.6591 246.27C48.4173 259.472 51.433 273.13 55.3746 286.541C60.2228 303.093 64.1515 319.911 69.0383 336.443C73.9894 353.23 77.9825 370.251 83.4801 386.91C88.9199 403.379 92.5207 420.438 97.3946 437.097C103.998 459.682 109.322 482.628 117.077 504.883C120.646 515.103 122.324 525.875 126.85 535.842C130.657 544.222 139.511 544.761 146.275 541.646C147.645 541.018 148.912 540.263 150.41 539.876C160.859 537.155 171.307 534.382 181.743 531.597C199.767 526.789 217.764 521.948 235.781 517.146C250.146 513.32 264.517 509.419 278.959 505.815C282.714 504.87 286.327 502.91 290.565 504.033C307.405 508.524 324.335 512.724 341.162 517.298C354.402 520.902 367.898 523.414 381.221 526.656C399.894 531.198 418.065 537.383 436.481 542.75C442.21 544.419 447.958 545.288 453.822 545.814C454.703 545.897 455.893 545.745 456.484 545.212C460.04 541.932 464.798 539.394 464.194 533.393C464.078 532.264 464.683 531.027 465.113 529.897C466.695 525.723 467.84 521.403 469.261 517.178C474.546 501.571 477.928 485.419 482.474 469.591C486.943 453.979 490.724 438.169 495.322 422.595C501.224 402.586 505.873 382.253 512.541 362.441C516.888 349.537 519.839 336.171 523.479 323.032C530.185 298.779 537.367 274.653 543.534 250.266C549.829 225.379 558.4 201.132 564.065 176.08C565.736 168.676 568.489 161.508 570.694 154.225C573.948 143.529 576.61 132.693 580.551 122.149C584.384 111.929 587.901 101.328 588.338 90.1947C588.505 85.8934 587.476 81.3955 584.654 78.2362ZM256.962 505.225C231.917 512.565 206.788 519.569 181.544 526.23C173.642 528.318 165.746 530.551 157.907 532.949C151.503 534.909 144.809 536.286 138.167 537.555C135.177 538.125 132.393 535.613 131.339 531.731C127.731 518.611 124.221 505.46 120.652 492.322C116.434 476.754 112.216 461.192 107.927 445.636C104.095 431.698 100.642 417.628 96.2115 403.874C88.1869 378.935 82.1105 353.464 74.671 328.361C72.4977 321.008 70.9673 313.484 68.7426 306.151C66.2541 297.916 63.6693 289.707 61.1294 281.492C59.1426 275.065 58.1781 268.302 56.069 261.832C49.0603 240.421 43.8842 218.502 37.8078 196.837C33.7119 182.227 29.6803 167.604 25.6744 152.969C20.4275 133.784 14.7241 114.721 9.92735 95.4221C9.28435 92.8592 8.4806 90.3406 7.81831 87.7839C5.94718 80.5581 10.1653 73.5036 17.4762 71.5877C45.0544 64.3175 72.6327 57.0029 100.237 49.7771C120.395 44.4988 140.54 39.2016 160.756 34.2025C165.765 32.9718 170.677 31.4683 175.622 30.098C176.805 29.7681 177.982 29.2732 179.493 29.6856C184 29.2923 188.437 27.5984 193.022 26.5834C198.198 25.4351 203.322 23.9887 208.37 22.3583C223.127 17.6066 238.488 15.1642 253.277 10.6917C258.788 9.03588 264.465 8.84556 269.995 7.62117C278.663 5.69259 286.096 12.4363 288.758 18.9896C291.973 26.9323 294.018 35.097 295.702 43.3379C299.644 62.5475 306.28 81.1037 310.118 100.301C314.941 124.395 322.599 147.728 328.682 171.48C334.533 194.414 341.477 217.094 346.731 240.16C351.817 262.555 358.285 284.562 364.015 306.772C367.255 319.302 369.879 332.003 373.724 344.348C377.151 355.355 379.189 366.647 382.128 377.736C388.043 400.207 394.248 422.601 400.312 445.034C401.553 449.627 402.749 454.226 403.906 458.838C404.974 463.095 402.183 467.625 397.856 468.931C389.175 471.545 380.237 473.093 371.461 475.32C358.485 478.625 345.374 481.366 332.488 485.058C319.525 488.769 306.415 491.935 293.394 495.399C281.222 498.609 269.031 501.692 256.962 505.225ZM417.332 339.818C406.633 340.605 396.036 340.427 385.446 339.063C383.723 338.841 382.006 338.404 380.36 337.845C379.228 337.458 378.276 336.881 377.897 335.403C373.775 319.518 369.506 303.683 365.391 287.791C364.523 284.41 364.15 280.895 364.021 277.292C366.561 281.365 369.223 285.355 371.608 289.517C376.418 297.967 383.24 304.635 390.686 310.757C398.801 317.418 408.054 322.042 418.239 324.612C429.388 327.435 440.692 328.437 451.784 324.193C454.96 322.975 457.873 321.097 461.545 319.188C461.243 322.436 459.764 324.041 457.95 325.348C445.868 334.134 432.314 338.708 417.332 339.818ZM442.737 399.522C437.94 399.814 435.992 402.96 433.722 406.234C433.259 402.313 433.536 398.608 429.556 396.724C431.832 394.041 435.593 394.231 437.001 390.792C440.139 393.305 438.898 397.765 442.737 399.522ZM418.637 376.696C417.834 377.261 417.03 377.825 416.316 378.326C414.04 377.965 413.5 376.48 414.079 374.812C414.767 372.801 416.528 373.169 418.412 373.746C418.502 374.818 418.567 375.713 418.637 376.696ZM400.228 415.077C398.698 414.405 398.846 413.415 399.56 412.019C400.82 413.085 400.717 413.992 400.228 415.077ZM388.699 261.762C387.015 261.571 387.053 261.571 386.391 258.158C386.037 256.344 384.456 255.208 383.388 253.407C385.626 251.656 387.831 250.07 390.596 249.106C392.043 251.358 393.348 253.426 394.744 255.627C393.271 258.361 387.484 256.737 388.699 261.762ZM433.008 248.008C434.854 251.567 437.702 253.895 441.425 256.23C437.407 258.672 432.822 258.875 429.33 261.8C425.64 264.902 425.653 269.603 422.913 273.175C420.869 273.384 419.885 272.87 420.174 270.339C421.017 263.062 419.833 256.35 413.493 251.51C412.915 251.072 412.838 250.489 413.069 249.632C415.615 248.497 418.708 248.604 421.293 246.961C424.231 245.09 426.553 242.945 427.762 239.59C428.315 238.086 428.642 235.77 431.555 236.513C432.616 240.249 431.047 244.271 433.008 248.008ZM443.245 294.104C442.782 295.594 442.641 297.301 440.744 297.542C438.911 297.777 438.03 296.533 437.645 294.763C438.095 293.672 438.937 292.873 440.422 292.41C441.387 292.987 442.248 293.514 443.245 294.104ZM450.704 240.541C451.083 237.23 449.225 235.041 448.492 232.446C450.453 231.209 452.433 229.972 454.658 228.576C456.632 230.016 456.844 232.535 458.561 234.889C454.658 235.054 454.369 239.304 450.704 240.541ZM437.58 166.538C430.134 166.963 422.483 167.338 415.326 170.11C407.012 173.326 399.013 177.139 391.818 182.398C386.269 186.459 380.713 190.538 376.193 195.816C367.487 205.979 362.896 217.823 360.33 230.746C358.26 241.22 358.536 251.561 360.356 261.952C360.407 262.212 360.266 262.491 360.221 262.758C359.867 262.834 359.533 262.916 359.179 262.993C351.167 232.884 343.143 202.782 335.041 172.413C338.018 167.959 342.551 164.749 347.033 161.78C355.675 156.052 364.349 150.26 374.438 147.088C382.25 144.639 390.288 143.307 398.377 142.368C412.542 140.731 426.456 142.495 439.998 146.726C449.566 149.714 459.153 152.867 467.113 159.205C476.546 166.741 484.77 175.376 490.833 185.862C491.296 186.662 491.547 187.309 491.084 188.254C488.12 187.423 486.853 184.6 484.802 182.792C471.312 170.852 455.449 165.53 437.58 166.538ZM571.401 130.035C567.498 143.484 564.078 157.079 559.988 170.478C555.854 184.061 551.513 197.58 547.855 211.302C540.737 238.054 533.452 264.769 526.205 291.483C523.929 299.813 522.096 308.308 519.119 316.396C511.95 335.93 507.468 356.211 501.777 376.144C496.074 396.134 491.129 416.359 485.027 436.234C479.716 453.535 474.932 470.962 470.135 488.401C465.988 503.494 461.886 518.599 457.764 533.697C456.42 538.627 451.437 541.304 446.119 539.769C437.516 537.288 428.951 534.706 420.361 532.181C397.907 525.564 375.222 519.766 352.582 513.834C337.549 509.895 322.503 505.942 307.482 501.927C305.309 501.343 303.084 501.159 300.049 500.994C304.421 498.393 308.639 497.479 312.581 496.236C323.409 492.81 334.469 490.07 345.432 487.056C346.615 486.733 347.766 486.301 348.962 486.035C351.81 485.375 353.219 486.542 353.334 489.505C353.547 494.967 360.62 502.574 368.04 501.432C368.631 501.343 369.268 501.121 369.634 500.226C367.422 496.718 365.262 493.007 361.359 489.397C376.72 491.072 391.246 493.254 404.575 484.449C403.244 481.359 400.331 480.922 397.894 479.926C389.722 476.563 382.121 478.923 375.827 483.872C369.557 488.82 364.06 486.225 358.093 484.265C361.545 482.552 365.236 481.651 369.004 481.315C375.884 480.681 382.34 478.295 388.982 476.741C392.962 475.815 397.02 475.142 400.852 473.563C406.401 471.285 410.851 468.164 410.696 461.541C410.632 458.521 412.143 458.667 414.188 459.2C424.977 461.991 435.754 464.821 446.524 467.567C451.559 468.849 456.484 470.536 461.911 471.215C463.917 467.117 464.496 462.67 465.718 458.451C472.611 434.407 478.501 410.078 486.365 386.307C486.943 384.563 486.603 383.871 485.272 382.602C479.51 377.077 473.466 371.564 470.277 364.141C465.795 353.762 467.653 343.574 472.765 333.842C474.36 330.797 476.167 327.866 477.626 324.732C480.488 318.572 476.417 314.316 473.646 309.659C469.942 303.429 464.226 298.887 459.68 293.336C451.276 283.059 450.472 267.446 463.95 259.376C471.473 254.879 479.433 251.662 487.638 248.801C492.287 247.177 496.903 245.445 501.102 242.863C506.188 239.742 509.603 230.841 507.178 223.254C505.674 218.521 504.15 213.776 504.504 208.701C504.967 201.729 508.799 197.034 514.663 193.526C520.341 190.132 525.967 186.63 531.606 183.198C544.19 175.553 543.199 159.497 535.599 149.93C533.291 147.024 530.365 144.626 528.481 141.359C524.636 134.685 524.662 127.523 526.031 120.316C527.98 109.982 535.297 104.082 544.016 99.108C548.163 96.748 552.555 95.4094 556.915 93.7854C557.583 93.5316 558.284 93.3349 558.651 92.4658C550.388 89.4778 541.708 87.9362 533.471 85.0941C521.215 80.8753 508.503 78.268 496.338 73.7447C490.814 71.6892 484.693 71.2515 478.957 69.7035C471.588 67.7115 464.342 65.2501 457.005 63.1439C445.688 59.8957 434.134 57.3074 423.048 53.4502C412.786 49.8976 402.286 47.1062 392.069 43.4457C384.783 40.8384 376.984 39.7091 369.499 37.6727C359.983 35.0843 350.647 31.7918 341.027 29.6919C334.996 28.3724 329.286 26.1583 323.293 24.8261C320.747 24.2615 318.272 23.9697 315.558 24.6548C314.889 27.0402 314.201 29.4636 313.488 31.9821C316.818 36.9114 321.917 40.0073 326.547 43.5282C338.34 52.524 351.83 58.9949 364.047 67.3563C371.756 72.6345 379.884 77.4305 385.671 84.9989C390.03 90.6895 394.435 96.3357 394.088 104.113C393.85 109.144 393.413 114.137 391.779 118.914C389.555 125.448 383.78 127.669 377.839 129.445C366.773 132.757 355.334 133.296 343.857 133.772C338.796 133.981 333.633 133.734 328.65 135.136C327.479 135.459 326 135.878 324.882 134.121C326.605 131.329 329.807 131.57 332.366 131.126C341.947 129.451 351.682 129.585 361.378 129.255C368.599 129.007 375.717 127.466 382.076 123.628C390.191 118.73 392.352 111.073 391.496 102.483C391.072 98.2135 387.979 94.7877 384.931 91.7997C377.022 84.0854 367.011 80.0697 356.774 76.2506C339.658 69.8558 322.676 63.0741 308.974 49.7897C308.273 51.5787 307.681 52.9046 307.238 54.2876C306.788 55.7214 306.511 57.2122 305.932 59.5532C304.023 54.6239 302.589 50.3417 302.364 45.9706C302.126 41.4728 300.692 37.3301 299.689 33.0606C299.264 31.2082 299.149 29.4699 299.625 27.6936C300.557 24.2678 301.611 20.8738 302.525 17.448C304.068 11.7004 308.504 9.10567 313.738 7.4372C316.034 6.69495 318.149 8.06525 320.258 8.61083C346.583 15.5004 372.907 22.4598 399.187 29.4763C420.496 35.1668 441.798 40.8954 463.062 46.7827C467.319 47.969 471.756 48.6351 475.884 50.1006C484.172 53.0315 492.66 55.2329 501.012 57.872C506.716 59.6737 512.805 59.3311 518.392 61.4627C531.94 66.6457 546.337 69.0121 560.072 73.5734C565.306 75.3053 570.533 77.1577 575.356 79.9237C576.674 80.6723 577.581 81.8142 578.082 83.1338C579.516 86.8514 581.374 90.2391 580.943 94.6989C579.754 107.051 574.809 118.311 571.401 130.035ZM356.164 488.915C360.575 490.736 363.044 494.225 365.558 498.133C360.581 498.222 356.427 494.092 356.164 488.915ZM376.656 487.545C381.318 481.658 391.889 479.938 397.438 483.954C394.853 486.726 389.465 487.672 376.656 487.545ZM493.11 124.655C494.544 123.869 496.299 123.317 496.903 120.684C499.064 123.469 498.922 126.476 501.462 128.601C497.032 128.075 496.968 132.319 494.344 134.482C493.116 131.418 493.868 128.284 491.907 125.949C491.528 125.505 492.435 125.03 493.11 124.655ZM510.786 169.152C510.837 168.08 511.75 167.655 512.355 166.957C513.435 166.97 514.29 167.401 515.017 168.143C515.19 169.52 514.792 170.56 513.499 171.252C512.226 171.017 511.249 170.402 510.786 169.152ZM344.004 81.9792C345.297 80.6216 346.705 80.8563 348.062 82.2583C347.734 83.2543 347.457 84.0981 347.129 85.0941C346.21 85.259 345.233 85.4303 344.294 85.6016C342.622 84.4533 342.898 83.1338 344.004 81.9792ZM365.076 102.159C370.123 101.487 372.322 97.9153 376.341 95.549C375.775 100.396 378.096 103.206 381.768 106.41C376.302 106.467 374.155 109.214 372.727 112.754C372.187 114.073 371.634 115.228 369.422 114.625C369.885 110.299 370.908 105.553 365.076 102.159Z" fill="black"/>
<path fill-rule="evenodd" clip-rule="evenodd" d="M96.8031 242.578C104.223 242.47 110.595 239.406 116.762 235.263C116.26 234.863 115.997 234.521 115.643 234.381C108.821 231.685 102.005 228.97 95.157 226.343C85.647 222.702 76.3557 218.527 66.7493 215.14C64.7624 214.442 62.0875 213.668 62.3383 210.236C80.4452 208.383 98.7321 208.409 116.955 207.533C113.347 205.725 109.329 205.059 106.294 202.522C102.461 199.343 99.06 195.676 95.6843 192.022C92.5979 188.679 90.4952 184.549 86.7144 181.732C81.744 178.053 75.8541 176.651 70.1764 174.69C64.4859 172.717 58.5703 171.106 54.9952 165.802C52.2689 161.78 49.6197 157.663 47.4978 153.317C46.0254 150.279 43.9935 147.259 43.8713 143.484C44.8358 143.77 45.5303 143.903 46.1347 144.195C46.5848 144.41 46.887 144.886 47.3178 145.159C54.3265 149.606 61.4959 153.743 69.8742 155.176C76.3171 156.28 82.8371 155.817 89.325 155.931C99.9345 156.115 109.194 160.359 116.601 167.306C123.044 173.339 130.117 177.038 138.566 178.655C139.029 177.919 138.502 177.577 138.315 177.127C131.409 161.019 124.523 144.912 117.617 128.804C116.402 125.968 116.46 125.264 118.369 123.145C132.136 134.165 144.617 146.586 157.605 158.437C158.274 157.752 158.332 157.181 158.068 156.756C153.914 150.145 154.474 142.939 154.737 135.58C154.924 130.549 156.409 125.67 155.83 120.582C155.001 113.312 151.098 107.273 148.082 100.891C145.909 96.2913 143.498 91.8251 144.88 86.4834C145.8 82.8927 146.616 79.264 147.632 75.6923C148.86 71.2959 150.043 66.8488 153.059 62.5539C153.625 64.5522 154.075 65.9796 154.429 67.4387C155.959 74.0555 157.509 80.7421 161.058 86.604C164.627 92.4975 169.726 97.2238 174.735 101.988C183.338 110.159 187.119 120.513 187.318 132.014C187.453 140.3 190.295 147.348 195.092 154.39C201.13 137.895 208.19 122.359 214.646 106.575C215.662 104.101 215.938 100.948 220.085 99.8946C222.117 118.026 221.995 136.03 222.612 154.117C223.808 153.552 223.931 152.658 224.233 151.782C225.197 149.042 226.027 146.301 227.898 143.884C232.418 138.047 238.032 133.378 243.883 129.052C247.284 126.546 249.786 123.57 251.605 119.916C254.004 115.101 255.495 109.95 257.257 104.894C258.813 100.402 260.601 95.9043 264.928 93.2779C271.448 89.3192 277.853 85.1195 285.073 82.4233C286.102 82.0426 286.945 81.9221 288.102 82.5565C284.135 87.8918 280.843 93.4047 278.341 99.2666C275.615 105.674 274.811 112.576 275.274 119.51C276.194 132.706 272.625 144.556 263.379 154.06C257.424 160.169 253.997 167.09 252.088 175.096C253.219 176.029 254.036 175.077 254.91 174.709C270.683 168.099 286.443 161.45 302.242 154.923C304.113 154.149 306.325 152.835 308.607 155.271C297.155 169.285 284.193 181.865 272.046 195.239C274.798 194.376 277.293 193.006 279.981 192.251C286.861 190.303 293.947 190.925 300.853 191.838C307.694 192.739 314.266 193.101 320.67 189.592C320.805 186.788 319.513 184.276 318.902 181.65C316.085 169.717 313.365 157.752 309.771 146.009C304.685 129.432 299.207 112.957 295.143 96.0819C291.021 78.9531 286.353 61.9766 281.73 44.9746C280.187 39.2968 278.553 33.6316 277.357 27.8776C276.631 24.3376 276.29 23.9887 272.586 24.8388C260.215 27.6682 247.947 30.9671 235.588 33.86C218.973 37.7488 202.223 41.1048 185.871 46.1356C176.4 49.0475 166.453 50.4114 156.898 53.0442C143.948 56.6095 130.715 58.9314 117.713 62.1796C108.268 64.5332 98.5135 65.2501 89.2414 68.4601C77.288 72.5901 64.801 74.9056 52.5068 77.8619C45.9418 79.4416 39.6468 81.9602 32.876 83.0133C29.2688 83.5779 25.2307 84.4914 22.6909 87.6444C37.0555 142.552 53.6128 196.704 66.5564 252.024C67.7523 251.561 68.2925 251.472 68.6783 251.174C76.9987 244.874 86.5537 242.723 96.8031 242.578Z" fill="black"/>
<path fill-rule="evenodd" clip-rule="evenodd" d="M143.607 411.233C147.51 411.988 151.329 413.383 155.387 413.383C166.241 413.396 176.021 417.215 185.679 421.58C190.173 423.616 194.655 426.065 199.857 425.558C204.814 425.075 209.817 424.638 214.691 423.648C222.625 422.03 229.814 423.686 236.855 427.232C241.285 429.465 243.986 433.424 247.407 436.831C248.937 436.399 250.435 436.044 251.875 435.549C262.626 431.914 274.483 431.426 283.762 423.585C290.256 418.097 296.12 412.413 299.772 404.603C303.354 396.946 304.357 388.432 308.234 380.94C313.732 370.352 321.448 362.403 334.019 360.189C336.34 359.789 338.867 359.916 341.053 358.622C346.795 355.228 350.357 350.07 353.225 344.304C355.488 339.736 357.308 334.883 356.903 329.846C356.524 325.05 355.096 320.304 353.849 315.61C348.865 296.914 344.847 277.99 339.015 259.503C334.88 246.435 331.858 233.049 329.093 219.625C328.701 217.703 327.987 215.85 327.383 213.884C326.631 214.277 326.013 214.48 325.55 214.861C319.789 219.422 313.089 221.693 305.92 222.943C301.046 223.799 296.062 223.317 291.201 224.383C286.064 225.506 281.756 228.088 276.997 231.063C295.323 238.422 313.038 245.521 330.688 252.601C331.112 253.654 331.479 254.58 331.967 255.83C313.507 257.892 295.13 257.752 276.772 258.685C284.27 260.772 290.082 264.896 295.034 270.656C298.197 274.336 301.161 278.174 304.402 281.758C309.36 287.22 316.33 289.13 323.113 291.299C328.913 293.152 335.17 294.51 338.777 300.048C341.805 304.692 344.641 309.481 347.168 314.404C348.473 316.948 350.248 319.537 349.881 323C349.052 322.468 348.435 322.106 347.875 321.694C342.474 317.748 336.423 314.874 330.321 312.381C325.075 310.224 319.159 310.281 313.417 310.192C308.987 310.128 304.511 310.655 300.107 309.849C290.648 308.13 282.585 303.81 275.666 297.187C269.937 291.686 262.884 288.724 254.859 287.461C255.27 288.311 255.65 289.009 255.965 289.726C262.62 305.129 269.275 320.52 275.846 335.955C276.785 338.15 278.457 340.523 275.769 343.162C261.945 332.015 249.323 319.486 235.742 307.876C238.642 313.11 239.948 318.579 239.562 324.238C239.183 329.763 239.221 335.301 238.231 340.84C236.739 349.036 241.369 355.85 244.699 362.828C247.226 368.106 250.551 373.137 249.13 379.367C247.921 384.677 246.879 390.076 245.085 395.189C244.095 397.974 243.426 401.209 240.893 403.417C240.694 403.119 240.526 402.979 240.501 402.821C239.568 396.007 237.421 389.492 234.81 383.211C231.975 376.347 226.657 371.094 221.224 366.114C215.662 361.02 211.366 355.184 209.103 347.964C207.444 342.616 206.563 337.192 206.563 331.578C206.563 324.364 203.149 318.274 199.278 312.216C198.866 312.742 198.371 313.148 198.172 313.675C195.311 320.767 192.52 327.892 189.646 334.978C185.788 344.437 181.936 353.889 177.969 363.298C177.365 364.7 176.4 366.26 173.789 365.772C171.97 348.11 171.931 330.296 170.877 312.425C168.543 322.341 160.955 327.949 154.049 334.134C151.574 336.361 148.552 337.814 146.301 340.345C141.151 346.118 139.569 353.433 137.068 360.341C135.184 365.524 133.197 370.549 128.162 373.594C123.906 376.17 119.758 379.031 115.238 381.042C112.473 382.272 109.663 384.283 105.631 383.884C108.081 380.934 109.573 378.066 111.232 375.294C116.292 366.895 119.167 357.981 118.755 348.072C118.556 343.143 118.427 338.112 119.469 333.259C121.327 324.574 125.519 317.05 131.93 310.75C137.544 305.218 140.456 298.417 141.813 290.716C139.601 290.38 138.322 291.826 136.778 292.46C121.996 298.538 107.252 304.742 92.4693 310.858C90.3345 311.74 88.174 313.402 85.2869 311.086C96.7259 296.92 109.798 284.296 122.022 270.859C119.372 271.716 116.961 273.073 114.376 273.828C106.68 276.08 98.8157 274.995 91.0675 274.139C86.0585 273.587 81.236 273.34 76.4264 275.084C74.671 275.725 73.8415 276.632 74.3688 278.497C77.1466 288.286 79.4421 298.189 82.0269 308.022C84.3096 316.739 87.9554 325.081 89.8394 333.918C92.765 347.628 98.0248 360.709 100.777 374.514C102.661 383.973 106.114 393.146 108.248 402.624C109.239 407.027 110.486 411.379 111.637 415.87C114.723 414.982 117.34 414.138 120.003 413.479C127.744 411.607 135.396 409.634 143.607 411.233ZM317.532 332.656C320.008 331.013 320.709 333.316 322.027 334.642C321.853 335.72 321.699 336.621 321.538 337.503C319.641 339.013 317.635 338.822 316.452 336.951C315.635 335.663 315.835 333.785 317.532 332.656ZM274.882 403.855C275.499 402.878 276.342 402.821 277.28 402.928C279.64 403.182 279.441 405.269 280.206 406.652C278.978 408.2 278.02 409.964 275.422 408.854C274.027 407.3 273.737 405.688 274.882 403.855ZM198.551 401.139C199.58 401.235 200.236 402.066 201.098 402.611C201.098 403.925 201.098 404.914 201.098 406.062C199.355 406.189 197.658 408.993 196.147 406.005C194.983 403.683 195.864 401.92 198.551 401.139Z" fill="black"/>
<path fill-rule="evenodd" clip-rule="evenodd" d="M243.876 437.586C242.783 435.188 240.488 434.363 239.003 432.739C234.617 427.918 228.843 426.236 222.612 425.856C217.867 425.57 213.231 426.814 208.544 427.359C203.47 427.949 198.519 428.647 193.337 427.27C187.749 425.792 182.939 422.424 177.172 421.478C172.047 420.641 167.089 420.171 162.338 423.058C159.836 424.574 157.316 426.033 154.853 427.651C141.189 436.647 132.2 449.297 125.417 463.729C124.298 466.115 126.297 469.617 128.503 469.204C133.589 468.246 138.752 467.815 143.761 466.28C150.191 464.313 156.647 462.461 163.064 460.437C169.507 458.4 176.111 456.808 182.644 455.063C195.87 451.523 209.129 448.174 222.291 444.431C229.448 442.382 236.919 441.284 243.876 437.586Z" fill="black"/>
<path fill-rule="evenodd" clip-rule="evenodd" d="M343.188 380.648C335.337 379.367 328.418 380.502 322.856 386.91C319.744 390.494 317.268 394.504 314.253 398.107C310.948 402.053 307.18 405.625 303.701 409.425C300.647 412.762 297.445 415.927 293.883 418.731C290.59 421.307 287.588 424.187 284.315 426.966C314.883 418.782 345.438 410.605 376.167 402.377C373.891 393.939 371.743 385.977 369.487 377.654C366.31 379.633 363.41 381.175 359.957 381.613C354.28 382.349 348.737 381.562 343.188 380.648Z" fill="black"/>
<path fill-rule="evenodd" clip-rule="evenodd" d="M308.202 454.144C306.292 457.703 305.052 461.585 300.403 462.936C294.699 464.586 288.951 465.861 283.157 467.009C282.501 467.142 281.64 467.142 281.498 465.994C290.443 459.872 292.185 450.781 292.237 440.669C291.317 440.732 290.957 440.656 290.706 440.789C281.666 445.554 277.57 453.585 276.11 463.089C275.686 465.962 274.74 467.098 271.879 466.908C267.243 466.616 262.626 466.356 257.99 466.248C253.354 466.134 248.738 466.216 243.889 466.216C253.457 458.635 257.579 451.359 255.155 446.518C244.854 449.735 239.973 457.404 237.633 467.504C228.567 468.297 220.266 471.818 212.042 475.929C211.476 472.738 213.398 470.619 213.662 468.119C213.913 465.652 213.836 463.215 212.845 460.887C205.309 462.854 198.654 475.072 200.976 483.637C198.436 487.595 194.584 490.647 193.15 495.291C194.655 496.008 195.375 495.297 196.204 494.384C200.59 489.518 205.425 485.172 210.91 481.505C212.254 480.598 213.508 480.814 214.125 481.575C217.089 485.159 221.095 487.196 225.3 488.458C230.283 489.949 235.408 491.681 241.214 490.476C236.681 482.102 229.846 477.363 219.738 475.935C228.316 472.084 236.25 469.731 244.77 469.877C249.291 480.471 265.179 483.554 270.053 480.091C268.709 475.13 264.555 472.573 260.697 469.553C270.542 470.391 280.225 470.581 289.806 469.223C292.886 477.49 306.485 479.348 310.877 473.131C307.225 470.226 302.576 469.261 298.178 467.136C301.592 465.943 304.479 464.415 307.508 463.241C315.796 460.012 322.753 454.924 328.733 448.574C330.579 446.62 332.514 444.209 332.212 441.043C320.458 439.965 313.275 444.697 308.202 454.144ZM203.2 482.267C202.358 475.688 206.589 466.743 211.386 465.214C210.383 471.755 208.737 477.61 203.2 482.267ZM235.646 488.084C229.454 488.052 219.706 483.853 216.78 479.957C220.651 476.887 232.611 482.99 235.646 488.084ZM252.467 450.451C252.891 455.4 246.551 462.746 241.414 463.336C243.574 457.512 247.381 453.649 252.467 450.451ZM265.648 479.082C259.154 478.378 253.554 476.779 249.561 471.304C255.418 470.118 262.986 473.791 265.648 479.082ZM288.822 445.681C289.202 452.348 283.061 463.558 278.046 464.725C280.373 457.5 281.691 450.134 288.822 445.681ZM305.701 473.023C301.406 475.459 293.458 472.966 293.445 469.179C297.753 469.724 302.049 470.162 305.701 473.023ZM310.433 458.267C309.765 451.841 321.898 442.471 326.47 445.605C322.67 451.727 316.651 455.038 310.433 458.267Z" fill="black"/>
<path fill-rule="evenodd" clip-rule="evenodd" d="M194.346 166.805C159.02 168.321 128.677 196.552 128.966 233.734C128.239 268.848 158.576 300.866 200.12 298.582C233.653 296.743 264.08 270.06 263.732 230.816C263.417 195.822 233.376 165.13 194.346 166.805ZM226.342 288.781C210.203 296.882 193.427 298.1 176.207 293.139C167.43 290.621 158.949 286.967 152.268 280.686C139.383 268.582 130.805 254.327 131.859 236.227C131.146 222.55 134.708 210.198 141.582 198.798C147.272 189.351 155.496 182.589 165.456 177.628C176.561 172.102 188.096 168.657 200.622 169.304C215.681 170.085 228.792 175.414 240.057 185.494C247.779 192.416 253.882 200.358 257.437 210.001C262.948 224.935 264.234 240.186 257.65 255.018C251.181 269.628 241.073 281.384 226.342 288.781Z" fill="black"/>
<path fill-rule="evenodd" clip-rule="evenodd" d="M342.583 361.94C332.598 361.876 324.271 365.81 317.404 372.998C308.588 382.222 307.585 394.694 302.962 405.675C308.151 400.239 313.636 395.125 317.744 388.794C321.602 382.875 326.862 378.967 334.269 378.054C338.867 377.483 343.239 378.771 347.708 379.062C353.45 379.437 359.301 380.357 364.426 376.817C366.149 375.643 368.946 374.768 368.22 371.957C366.689 365.987 364.844 360.094 363.031 353.864C362.092 354.448 361.308 354.689 360.909 355.222C356.209 361.274 349.669 361.991 342.583 361.94Z" fill="black"/>
<path fill-rule="evenodd" clip-rule="evenodd" d="M148.983 428.457C153.779 425.018 158.563 421.561 164.305 419.702C166.028 419.156 167.983 419.645 169.706 418.604C163.952 416.149 158.177 415.007 152.185 416.143C139.852 418.478 129.59 424.663 120.588 433.082C118.601 434.934 117.225 436.85 118.569 439.939C119.597 442.318 119.765 445.065 120.363 447.628C121.256 451.403 122.208 455.165 123.166 459.022C124.407 458.362 124.536 457.265 125.05 456.421C131.448 445.795 138.669 435.835 148.983 428.457Z" fill="black"/>
<path fill-rule="evenodd" clip-rule="evenodd" d="M276.856 94.0265C276.226 94.1787 275.917 94.1787 275.699 94.3183C275.358 94.5403 275.03 94.8194 274.792 95.1303C269.693 101.379 267.372 108.719 265.951 116.478C264.517 124.275 263.128 131.932 257.187 138.231C252.866 142.824 248.294 147.367 244.995 152.854C241.967 157.879 239.054 162.96 238.552 168.924C241.33 170.947 244.005 172.908 246.944 175.039C247.143 174.633 247.509 174.202 247.599 173.732C249.194 164.743 254.177 157.695 260.485 151.306C267.931 143.763 272.214 134.888 271.345 124.046C270.87 118.102 271.532 112.227 272.323 106.34C272.895 102.001 274.985 98.2008 276.856 94.0265Z" fill="black"/>
<path fill-rule="evenodd" clip-rule="evenodd" d="M222.072 339.19C222.047 328.177 220.478 317.532 214.298 307.921C210.704 307.629 207.328 308.942 203.387 309.164C204.846 312 206.235 314.442 207.393 316.974C210.505 323.755 210.743 331.089 211.045 338.315C211.437 347.78 215.34 355.374 222.182 361.743C229.493 368.512 236.521 375.491 239.639 385.299C239.8 385.806 239.35 386.808 240.456 386.878C241.047 386.364 240.944 385.781 240.893 385.153C240.192 376.588 236.135 369.331 231.145 362.676C225.84 355.59 222.085 348.148 222.072 339.19Z" fill="black"/>
<path fill-rule="evenodd" clip-rule="evenodd" d="M308.916 306.481C316.806 305.948 324.714 306.531 332.302 309.259C334.302 309.976 335.845 311.905 338.732 311.676C337.15 310.357 335.993 309.221 334.687 308.314C327.904 303.632 320.085 301.786 312.079 300.638C303.727 299.439 296.384 296.216 290.443 290.411C284.115 284.213 277.145 279.005 268.857 275.738C266.735 274.907 264.009 273.105 261.938 274.957C259.688 276.981 258.209 279.861 256.196 282.634C265.854 284.683 273.48 289.415 280.174 295.962C288.07 303.696 297.586 307.255 308.916 306.481Z" fill="black"/>
<path fill-rule="evenodd" clip-rule="evenodd" d="M170.761 118.394C172.343 124.452 171.693 130.65 172.471 136.747C173.378 143.947 175.288 150.767 178.978 157.073C179.371 157.733 179.621 158.278 180.547 158.171C183.737 157.809 186.939 157.485 190.52 156.337C184.643 147.881 183.415 138.821 183.113 129.496C182.772 119.479 179.094 111.041 171.449 104.107C164.125 97.4522 156.956 90.4865 154.422 80.3868C154.307 79.9681 153.895 79.6192 153.419 78.9341C152.943 80.8944 153.303 82.4169 153.606 84.0029C155.136 92.1042 159.47 98.8162 164.202 105.376C167.051 109.354 169.488 113.541 170.761 118.394Z" fill="black"/>
<path fill-rule="evenodd" clip-rule="evenodd" d="M107.265 179.068C113.708 185.634 121.681 190.227 131.011 192.041C132.682 188.869 135.306 186.573 137.389 183.496C128.233 181.542 120.723 177.082 114.344 170.783C105.94 162.472 96.0058 158.919 84.0524 159.706C76.6579 160.194 69.1927 159.7 61.9975 156.972C60.0106 156.217 58.416 154.079 55.7668 154.758C61.3545 160.74 68.6782 163.347 76.2978 164.439C88.2962 166.17 98.6485 170.294 107.265 179.068Z" fill="black"/>
<path fill-rule="evenodd" clip-rule="evenodd" d="M117.347 372.04C119.102 371.767 119.655 370.568 120.35 369.61C124.896 363.278 127.043 356.078 128.214 348.522C129.017 343.308 130.175 338.22 132.76 333.544C135.923 327.816 140.945 323.571 145.054 318.598C149.761 312.888 153.406 306.684 155.252 299.28C152.403 297.345 149.638 295.461 146.571 293.374C146.173 294.148 145.845 294.567 145.729 295.036C143.832 302.846 139.235 308.974 133.724 314.69C126.58 322.093 121.867 330.563 122.645 341.328C123.173 348.757 122.774 356.205 120.826 363.437C120.06 366.336 118.575 369.058 117.347 372.04Z" fill="black"/>
<path fill-rule="evenodd" clip-rule="evenodd" d="M235.434 332.003C236.501 321.294 232.193 312.108 227.384 302.915C224.021 304.229 220.825 305.478 217.25 306.88C218.041 308.32 218.742 309.539 219.397 310.788C223.866 319.251 224.85 328.494 225.429 337.795C225.982 346.974 228.342 355.266 234.257 362.784C238.726 368.468 241.98 375.11 242.545 382.659C242.745 385.33 242.166 388.084 243.246 391.338C243.876 387.925 244.564 385.197 245.342 382.475C246.198 379.449 246.146 376.163 244.918 373.289C242.655 368.113 239.871 363.164 237.498 358.045C235.26 353.236 233.492 348.135 234.309 342.832C234.855 339.222 235.074 335.619 235.434 332.003Z" fill="black"/>
<path fill-rule="evenodd" clip-rule="evenodd" d="M265.423 97.7377C261.733 102.851 260.627 108.998 258.569 114.759C256.344 120.988 253.367 126.711 247.895 130.65C238.662 137.293 230.83 144.88 227.93 156.28C227.364 158.564 225.345 160.404 225.705 162.998C229.235 163.696 231.949 166.012 235.087 167.128C235.389 166.779 235.601 166.634 235.64 166.469C238.417 155.03 245.683 146.339 253.284 137.762C258.183 132.249 261.951 126.019 262.98 118.489C263.809 112.342 265.417 106.397 268.407 100.891C270.477 97.0652 273.255 93.779 276.258 90.5246C272.432 92.7006 268.098 94.0138 265.423 97.7377Z" fill="black"/>
<path fill-rule="evenodd" clip-rule="evenodd" d="M161.354 152.315C162.621 155.068 163.926 157.79 165.058 160.6C165.482 161.66 165.977 162.377 167.269 162.542C169.996 160.619 173.526 160.6 176.522 159.198C175.468 157.048 174.323 154.923 173.346 152.727C169.443 143.859 169.102 134.336 168.285 124.915C167.597 117.29 165.148 110.445 160.383 104.291C157.232 100.206 154.821 95.6378 153.033 90.6958C151.214 85.6651 151.362 80.5328 150.699 75.4576C150.198 77.7033 149.883 79.9999 149.182 82.1822C147.954 86.0584 147.825 89.8838 149.497 93.5887C151.747 98.5624 154.204 103.441 156.557 108.377C159.258 114.061 160.126 119.847 159.258 126.235C158.075 134.971 157.47 143.878 161.354 152.315Z" fill="black"/>
<path fill-rule="evenodd" clip-rule="evenodd" d="M333.163 299.908C328.579 297.13 323.293 296.013 318.297 294.268C310.826 291.68 304.228 288.311 299.625 281.396C296.57 276.822 292.127 273.181 287.819 269.616C282.392 265.124 275.3 264.369 269.281 261.267C267.687 264.509 266.227 267.49 264.761 270.478C265.185 271.405 266.015 271.804 266.934 272.026C277.962 274.608 285.871 282.139 294.159 288.965C299.258 293.165 304.659 296.654 311.237 297.821C319.725 299.325 328.039 301.044 335.234 306.233C337.619 307.952 339.266 310.42 341.94 311.829C339.42 307.559 337.722 302.668 333.163 299.908Z" fill="black"/>
<path fill-rule="evenodd" clip-rule="evenodd" d="M58.4739 164.47C61.6889 167.763 66.087 168.613 70.1636 170.091C76.1049 172.242 82.2713 173.79 87.5825 177.469C92.0513 180.546 94.604 185.202 98.0312 189.104C104.988 197.028 113.714 201.659 124.015 204.272C125.519 201.303 127.056 198.29 128.548 195.334C127.834 194.071 126.767 194.465 126.175 193.97C125.359 193.291 124.394 193.729 123.526 193.354C114.498 189.561 107.11 183.375 99.7545 177.203C93.9932 172.362 87.7496 168.879 80.0401 167.902C73.7451 167.109 67.6816 165.257 62.1068 162.021C58.9175 160.175 56.0047 158.063 53.2141 155.544C54.4551 158.875 55.9854 161.926 58.4739 164.47Z" fill="black"/>
<path fill-rule="evenodd" clip-rule="evenodd" d="M130.406 365.753C132.406 360.817 133.962 355.697 135.717 350.654C137.801 344.703 140.804 339.19 146.102 335.593C157.129 328.114 164.562 318.293 167.642 305.193C164.877 303.911 161.868 302.509 158.653 301.018C156.834 302.89 156.647 305.339 155.74 307.439C152.339 315.375 146.571 321.605 141.048 328.05C135.57 334.42 131.403 341.309 130.625 350.026C130.226 354.606 128.619 359.11 126.606 363.393C124.433 368.011 121.179 371.786 117.688 375.529C119.951 374.698 122.169 373.829 124.092 372.522C126.677 370.758 129.23 368.671 130.406 365.753Z" fill="black"/>
<path fill-rule="evenodd" clip-rule="evenodd" d="M286.861 210.312C281.878 211.695 276.753 212.856 272.792 216.662C274.162 219.745 273.808 223.07 274.689 226.312C277.788 224.884 280.617 223.476 283.53 222.264C290.648 219.289 298.326 219.784 305.785 219.054C313.835 218.261 320.715 215.235 326.219 209.081C325.338 207.045 325.64 204.596 323.943 202.274C317.41 207.222 309.778 208.276 301.927 208.523C296.86 208.669 291.774 208.954 286.861 210.312Z" fill="black"/>
<path fill-rule="evenodd" clip-rule="evenodd" d="M83.6794 258.4C90.836 257.403 98.1727 258.146 105.207 256.357C110.165 255.101 115.379 254.257 119.475 250.615C118.382 247.329 118.8 243.992 117.527 240.846C115 241.969 112.891 242.99 110.718 243.846C104.024 246.492 96.8931 246.568 89.8458 247.018C81.281 247.564 73.7194 250.184 68.0095 257.01C69.0126 259.028 68.7233 261.394 70.1957 263.291C71.2503 262.904 72.3305 262.739 73.1214 262.181C76.3042 259.966 79.8472 258.939 83.6794 258.4Z" fill="black"/>
<path fill-rule="evenodd" clip-rule="evenodd" d="M304.923 195.86C291.986 193.678 279.904 195.943 268.555 202.915C269.609 205.884 270.754 209.1 272.046 212.685C272.586 212.488 272.979 212.399 273.313 212.222C279.82 208.84 286.662 206.797 294.011 205.928C301.599 205.034 309.372 205.427 316.716 202.807C319.178 201.925 321.615 201.024 323.621 199.35C323.158 197.478 322.728 195.841 322.303 194.16C321.435 194.3 320.786 194.293 320.233 194.515C315.256 196.501 310.131 196.736 304.923 195.86Z" fill="black"/>
<path fill-rule="evenodd" clip-rule="evenodd" d="M86.8816 270.034C92.7586 271.348 98.5328 270.593 104.352 270.764C111.65 270.98 117.373 266.818 123.803 264.198C122.118 260.931 122.079 257.378 119.655 254.485C109.798 259.865 98.9829 260.531 88.1226 261.311C82.2327 261.736 76.3557 262.79 71.2824 266.228C71.231 268.258 71.8354 269.927 72.9285 271.804C77.6353 270.231 82.3742 269.026 86.8816 270.034Z" fill="black"/>
<path fill-rule="evenodd" clip-rule="evenodd" d="M150.436 413.986C136.495 409.469 120.671 414.659 112.46 418.097C113.592 423.248 115.135 428.298 117.148 433.932C125.925 423.014 136.901 416.942 150.436 413.986Z" fill="black"/>
<path fill-rule="evenodd" clip-rule="evenodd" d="M269.706 328.539C263.893 314.664 258.074 300.796 252.152 286.662C249.426 288.997 246.751 291.268 243.915 293.685C252.377 305.497 260.742 317.183 269.121 328.869C269.32 328.761 269.519 328.647 269.706 328.539Z" fill="black"/>
<path fill-rule="evenodd" clip-rule="evenodd" d="M251.586 178.567C253.116 181.485 255.907 182.95 257.36 185.57C258.029 186.782 259.128 186.395 260.234 185.596C265.083 182.088 270.008 178.681 274.914 175.261C281.659 170.579 288.404 165.91 295.143 161.241C295.014 161.121 294.892 161 294.763 160.886C280.38 166.779 266.002 172.667 251.586 178.567Z" fill="black"/>
<path fill-rule="evenodd" clip-rule="evenodd" d="M197.471 309.818C194.282 309.615 191.157 309.367 188.038 309.259C186.559 309.202 186.444 310.312 186.232 311.543C184.65 320.97 182.914 330.372 181.319 339.793C180.676 343.606 179.512 347.374 180.039 351.384C185.801 337.63 191.581 323.87 197.471 309.818Z" fill="black"/>
<path fill-rule="evenodd" clip-rule="evenodd" d="M196.314 156.318C200.043 156.553 203.483 157.295 207.251 156.876C209.778 142.717 212.273 128.639 214.787 114.562C214.524 114.486 214.273 114.416 214.009 114.346C208.434 128.309 202.705 142.209 196.314 156.318Z" fill="black"/>
<path fill-rule="evenodd" clip-rule="evenodd" d="M318.111 250.063C303.721 244.792 289.626 238.797 274.998 232.681C274.734 236.513 274.509 239.716 274.271 243.206C288.79 245.737 303.322 248.281 317.873 250.818C317.944 250.571 318.034 250.317 318.111 250.063Z" fill="black"/>
<path fill-rule="evenodd" clip-rule="evenodd" d="M218.317 116.065C218.118 116.059 217.919 116.053 217.713 116.046C215.302 130.041 212.89 144.043 210.479 158.056C214.35 158.196 217.333 160.239 220.889 160.829C220.028 145.838 219.172 130.955 218.317 116.065Z" fill="black"/>
<path fill-rule="evenodd" clip-rule="evenodd" d="M123.513 135.979C129.493 150.133 135.467 164.293 141.562 178.7C144.411 176.08 146.861 173.853 149.362 171.569C140.81 159.585 132.335 147.671 123.828 135.757C123.725 135.833 123.616 135.91 123.513 135.979Z" fill="black"/>
<path fill-rule="evenodd" clip-rule="evenodd" d="M265.353 329.199C257.379 318.033 249.406 306.868 241.375 295.632C237.974 296.895 235.659 299.477 231.557 300.562C242.938 310.585 253.785 320.158 264.639 329.731C264.87 329.554 265.108 329.376 265.353 329.199Z" fill="black"/>
<path fill-rule="evenodd" clip-rule="evenodd" d="M266.227 198.119C276.412 186.839 286.347 175.832 296.281 164.819C296.178 164.699 296.095 164.578 296.004 164.458C284.199 172.698 272.406 180.952 260.549 189.237C262.536 192.339 264.343 195.175 266.227 198.119Z" fill="black"/>
<path fill-rule="evenodd" clip-rule="evenodd" d="M270.998 256.75C286.205 255.817 301.116 254.714 316.034 253.54C301.907 251.205 287.755 248.871 273.622 246.543C272.734 249.987 271.918 253.204 270.998 256.75Z" fill="black"/>
<path fill-rule="evenodd" clip-rule="evenodd" d="M173.211 306.69C174.053 321.725 174.883 336.539 175.699 351.352C175.847 351.364 175.989 351.383 176.124 351.39C178.509 337.338 180.907 323.28 183.332 308.948C179.789 308.162 176.651 307.458 173.211 306.69Z" fill="black"/>
<path fill-rule="evenodd" clip-rule="evenodd" d="M128.439 136.779C136.341 147.786 144.237 158.805 152.14 169.818C155.265 168.01 158.055 166.392 161.27 164.534C150.217 154.834 139.62 145.527 129.005 136.214C128.812 136.404 128.625 136.588 128.439 136.779Z" fill="black"/>
<path fill-rule="evenodd" clip-rule="evenodd" d="M117.308 232.859C117.784 229.236 118.176 226.185 118.614 222.784C104.159 220.272 89.8651 217.785 75.5776 215.298C89.415 221.167 103.291 226.832 117.308 232.859Z" fill="black"/>
<path fill-rule="evenodd" clip-rule="evenodd" d="M141.299 288.013C137.781 286.116 136.45 283.065 133.576 280.851C122.124 288.819 110.595 296.844 99.0536 304.863C99.1179 305.003 99.1886 305.155 99.2658 305.288C113.065 299.616 126.876 293.939 141.299 288.013Z" fill="black"/>
<path fill-rule="evenodd" clip-rule="evenodd" d="M121.79 210.122C106.995 210.128 92.3664 211.765 77.6738 212.545C91.4533 214.842 105.239 217.144 119.032 219.435C120.247 216.313 120.26 213.268 121.79 210.122Z" fill="black"/>
<path fill-rule="evenodd" clip-rule="evenodd" d="M98.5842 301.329C109.65 293.571 120.71 285.825 132.104 277.838C128.992 275.325 128.689 271.95 126.085 269.933C116.678 280.337 107.425 290.595 98.1534 300.854C98.2948 301.018 98.4492 301.171 98.5842 301.329Z" fill="black"/>
<path fill-rule="evenodd" clip-rule="evenodd" d="M348.75 358.958C353.122 357.867 356.736 355.532 359.912 352.475C360.665 351.751 362.047 351.409 361.783 349.937C361.218 346.568 360.452 343.257 358.922 339.641C356.035 347.127 352.666 352.088 346.339 358.406C347.168 359.345 347.875 359.174 348.75 358.958Z" fill="black"/>
<path fill-rule="evenodd" clip-rule="evenodd" d="M352.441 438.931C350.37 440.675 348.621 442.585 350.28 445.237C351.56 447.311 353.559 448.561 356.273 447.546C358.556 446.689 359.462 444.964 359.038 442.743C358.337 439.058 355.283 439.064 352.441 438.931ZM354.254 445.611C352.82 445.731 352.016 444.913 352.016 443.746C352.016 442.071 353.174 441.278 354.929 441.367C356.247 441.341 357.077 442.02 356.948 443.34C356.826 444.837 355.733 445.484 354.254 445.611Z" fill="black"/>
<path fill-rule="evenodd" clip-rule="evenodd" d="M168.234 489.549C165.958 489.562 163.701 491.865 164.087 494.2C164.466 496.528 166.183 497.822 168.581 497.93C170.819 498.031 172.915 495.919 172.915 493.717C172.909 491.434 170.787 489.537 168.234 489.549ZM168.748 495.627C167.54 495.259 166.35 494.897 166.639 493.223C166.8 492.315 167.257 491.846 168.247 491.681C169.186 491.529 170.066 491.681 170.343 492.442C170.845 493.863 170.247 494.993 168.748 495.627Z" fill="black"/>
<path fill-rule="evenodd" clip-rule="evenodd" d="M298.596 103.669C298.133 104.545 298.924 104.963 299.31 105.776C299.56 104.627 298.943 104.221 298.596 103.669Z" fill="black"/>
<path fill-rule="evenodd" clip-rule="evenodd" d="M533.554 130.682C532.661 135.561 532.185 140.382 535.528 144.994C539.888 151.021 542.962 157.771 542.936 165.403C542.936 172.546 540.711 178.827 534.988 183.686C529.452 188.374 522.746 191.223 516.881 195.346C513.879 197.459 510.58 199.299 508.645 202.674C505.616 207.971 506.272 213.3 508.066 218.749C509.017 221.642 510.342 224.554 510.014 227.669C508.645 241.042 502.092 248.814 488.866 251.059C475.44 253.343 468.348 268.207 471.498 278.091C474.058 286.078 479.42 291.655 485.387 296.895C491.226 302.034 497.971 306.189 502.44 312.793C503.346 314.125 503.417 316.231 505.693 316.656C507.391 309.583 510.541 302.915 511.782 295.747C510.831 294.192 509.487 293.082 508.053 292.118C503.404 289.009 501.147 284.607 501.912 279.24C502.716 273.568 505.783 268.67 511.242 266.615C514.329 265.454 517.524 263.824 521.022 263.912C521.421 262.701 521.826 261.654 522.141 260.588C528.346 239.596 534.461 218.578 539.258 197.224C542.383 183.375 545.874 169.628 550.362 156.134C551.404 152.969 553.166 149.575 551.391 146.18C547.848 139.405 550.812 133.905 555.474 129.585C558.072 127.174 559.114 124.598 559.905 121.655C560.593 119.028 561.789 116.427 561.525 112.811C558.136 115.526 554.658 115.437 551.378 115.989C542.505 117.468 535.323 121.007 533.554 130.682Z" fill="black"/>
<path fill-rule="evenodd" clip-rule="evenodd" d="M486.242 301.202C480.996 296.908 476.462 291.908 472.566 286.275C467.769 279.322 466.322 272.306 469.827 264.35C471.209 261.229 473.698 258.85 475.003 255.526C470.823 256.807 467.57 259.396 464.162 261.724C455.282 267.814 453.134 279.944 459.667 288.267C465.332 295.487 471.923 301.983 476.797 309.824C479.999 314.969 482.262 319.949 479.356 326.179C477.948 329.186 476.27 332.066 475.086 335.181C472.99 340.757 471.685 346.676 474.675 351.923C478.546 358.698 484.719 363.539 491.92 367.263C495.875 353.902 499.668 340.669 503.07 327.314C504.639 321.167 502.703 317.329 499.276 313.123C495.508 308.504 490.827 304.945 486.242 301.202Z" fill="black"/>
<path fill-rule="evenodd" clip-rule="evenodd" d="M310.208 43.7185C309.63 45.5012 309.829 46.6748 311.591 47.785C314.15 49.4154 316.439 51.4709 318.927 53.2472C326.386 58.5318 334.424 62.7315 342.866 66.2905C352.447 70.3126 362.484 73.2054 371.75 77.9508C372.277 78.2172 372.843 78.6105 373.544 77.9063C354.042 62.6871 330.431 53.2599 312.594 35.0907C311.719 38.3325 311.051 41.0541 310.208 43.7185Z" fill="black"/>
<path fill-rule="evenodd" clip-rule="evenodd" d="M505.674 279.538C504.542 285.653 508.162 289.314 512.843 293.069C515.756 284.378 517.942 275.928 520.18 267.192C510.13 269.857 506.941 272.661 505.674 279.538Z" fill="black"/>
<path fill-rule="evenodd" clip-rule="evenodd" d="M471.814 351.79C471.949 364.154 480.841 371.158 488.364 379.437C489.695 376.487 490.325 373.949 490.866 370.923C483.278 365.696 475.858 360.379 471.814 351.79Z" fill="black"/>
<path fill-rule="evenodd" clip-rule="evenodd" d="M418.342 493.749C417.666 497.378 418.682 500.188 421.119 500.912C423.331 501.571 425.363 500.823 426.572 498.996C427.8 497.105 427.138 494.993 425.768 493.432C423.614 490.996 422.02 491.167 418.342 493.749ZM421.203 498.19C419.448 497.435 419.872 496.001 420.791 494.529C422.798 493.8 424.386 494.276 425.325 496.452C424.592 498.564 422.958 498.945 421.203 498.19Z" fill="black"/>
<path fill-rule="evenodd" clip-rule="evenodd" d="M553.018 146.523C554.497 140.972 555.744 136.284 557.153 131.063C552.253 134.945 550.922 139.887 553.018 146.523Z" fill="black"/>
</svg>
