<svg width="801" height="806" viewBox="0 0 801 806" fill="none" xmlns="http://www.w3.org/2000/svg">
<path d="M770.963 457.206H30.0375C22.0711 457.206 14.4309 454.262 8.79778 449.024C3.16465 443.785 0 436.679 0 429.27V27.9352C0 20.5263 3.16465 13.4209 8.79778 8.18208C14.4309 2.94322 22.0711 1.99018e-05 30.0375 1.99018e-05H770.963C778.929 1.99018e-05 786.569 2.94322 792.202 8.18208C797.835 13.4209 801 20.5263 801 27.9352V429.27C801 436.679 797.835 443.785 792.202 449.024C786.569 454.262 778.929 457.206 770.963 457.206ZM740.925 183.441C704.89 181.894 670.742 168.01 645.05 144.46C619.358 120.91 603.937 89.3574 601.751 55.8704H199.249C197.063 89.3574 181.642 120.91 155.95 144.46C130.258 168.01 96.1101 181.894 60.075 183.441V273.765C96.1101 275.312 130.258 289.195 155.95 312.745C181.642 336.295 197.063 367.848 199.249 401.335H601.751C603.937 367.848 619.358 336.295 645.05 312.745C670.742 289.195 704.89 275.312 740.925 273.765V183.441Z" fill="black"/>
<path d="M400.5 348.258C374.912 348.258 349.9 341.189 328.639 327.948C307.377 314.707 290.824 295.892 281.078 273.888C271.332 251.884 268.833 227.684 273.899 204.358C278.964 181.032 291.365 159.63 309.529 142.869C327.693 126.107 350.801 114.741 375.921 110.212C401.042 105.682 427.043 108.195 450.626 117.429C474.209 126.664 494.311 142.205 508.382 162.081C522.453 181.957 529.86 205.272 529.661 229.068C529.397 260.765 515.672 291.079 491.479 313.406C467.285 335.732 434.583 348.259 400.5 348.258Z" fill="black"/>
<path d="M430.538 517.732V711.416L509.636 637.853L551.689 676.962L421.526 798.015C415.911 803.133 408.362 806 400.5 806C392.638 806 385.089 803.133 379.474 798.015L249.311 676.962L291.364 637.853L370.463 711.416V517.732H430.538Z" fill="black"/>
</svg>
