<svg width="784" height="680" viewBox="0 0 784 680" fill="none" xmlns="http://www.w3.org/2000/svg">
<path d="M388.621 83.9798H382.934C378.846 83.9834 374.894 82.6536 371.806 80.2357C368.719 77.8178 366.705 74.4746 366.134 70.8223L359.414 17.4011C359.08 15.2347 359.264 13.0288 359.955 10.9323C360.646 8.83576 361.828 6.89737 363.42 5.24799C365.013 3.59861 366.979 2.27663 369.186 1.37129C371.393 0.465957 373.79 -0.0016617 376.214 4.43671e-06H395.366C397.791 -0.0016617 400.188 0.465957 402.395 1.37129C404.602 2.27663 406.568 3.59861 408.16 5.24799C409.753 6.89737 410.934 8.83576 411.625 10.9323C412.316 13.0288 412.501 15.2347 412.166 17.4011L405.434 70.8223C404.863 74.4765 402.847 77.8212 399.757 80.2394C396.667 82.6576 392.712 83.9861 388.621 83.9798Z" fill="black"/>
<path d="M265.72 124.244L260.916 126.983C257.464 128.954 253.34 129.734 249.301 129.18C245.262 128.627 241.58 126.776 238.933 123.969L201.6 82.0769C200.028 80.4092 198.871 78.4563 198.207 76.3503C197.544 74.2443 197.39 72.0344 197.755 69.87C198.12 67.7056 198.996 65.6371 200.324 63.8046C201.652 61.972 203.4 60.4181 205.452 59.2478L221.629 50.0084C223.68 48.8377 225.986 48.0777 228.39 47.78C230.795 47.4823 233.242 47.6537 235.567 48.2827C237.892 48.9117 240.04 49.9836 241.866 51.426C243.691 52.8683 245.153 54.6475 246.151 56.6433L272.123 105.029C273.801 108.391 274.078 112.185 272.901 115.716C271.725 119.246 269.175 122.275 265.72 124.244Z" fill="black"/>
<path d="M505.867 124.244L510.67 126.983C514.119 128.946 518.237 129.722 522.269 129.168C526.301 128.615 529.977 126.769 532.622 123.969L569.956 82.0769C571.528 80.4092 572.685 78.4563 573.348 76.3503C574.012 74.2443 574.166 72.0344 573.801 69.87C573.436 67.7056 572.559 65.6371 571.232 63.8046C569.904 61.972 568.155 60.4181 566.104 59.2478L549.926 50.0084C547.875 48.8377 545.57 48.0777 543.165 47.78C540.761 47.4823 538.313 47.6537 535.989 48.2827C533.664 48.9117 531.516 49.9836 529.69 51.426C527.864 52.8683 526.403 54.6475 525.404 56.6433L499.433 105.029C497.757 108.394 497.486 112.191 498.668 115.722C499.85 119.252 502.407 122.279 505.867 124.244Z" fill="black"/>
<path d="M743.811 245.333H734.521C734.059 232.778 728.513 220.811 718.932 211.696C709.352 202.58 696.4 196.947 682.528 195.863C677.139 180.825 665.975 168.017 651.048 159.746C636.12 151.475 618.409 148.283 601.104 150.747C583.8 153.21 568.039 161.166 556.66 173.183C545.281 185.199 539.032 200.486 539.037 216.29V223.884H512.493V201.83C512.496 195.169 510.304 188.657 506.195 183.122C502.085 177.588 496.244 173.281 489.415 170.748C482.585 168.216 475.075 167.572 467.839 168.9C460.603 170.228 453.968 173.466 448.778 178.204C445.075 173.881 440.256 170.441 434.741 168.184C429.226 165.926 423.184 164.92 417.139 165.252C411.095 165.584 405.232 167.245 400.062 170.089C394.891 172.934 390.571 176.876 387.476 181.572C382.659 177.918 376.892 175.428 370.716 174.335C364.541 173.241 358.159 173.579 352.168 175.318C346.177 177.057 340.773 180.14 336.463 184.277C332.153 188.414 329.078 193.471 327.525 198.973C322.176 195.918 316.05 194.146 309.729 193.826C303.407 193.506 297.1 194.647 291.405 197.143C285.71 199.638 280.816 203.404 277.186 208.084C273.557 212.764 271.313 218.203 270.667 223.884H244.963V216.29C244.968 200.486 238.719 185.199 227.34 173.183C215.961 161.166 200.2 153.21 182.895 150.747C165.591 148.283 147.88 151.475 132.952 159.746C118.025 168.017 106.861 180.825 101.472 195.863C87.5996 196.947 74.6484 202.58 65.0679 211.696C55.4873 220.811 49.9414 232.778 49.4791 245.333H40.1893C29.5334 245.344 19.3178 249.169 11.7835 255.967C4.24925 262.765 0.011526 271.981 0 281.594V290.087C0.0115291 299.699 4.24945 308.915 11.7839 315.712C19.3184 322.509 29.534 326.333 40.1893 326.343H49.4791C49.9388 338.898 55.4837 350.866 65.0648 359.983C74.6459 369.099 87.5986 374.73 101.472 375.812C106.568 390.065 116.863 402.341 130.681 410.64C144.499 418.939 161.026 422.772 177.567 421.514C194.109 420.256 209.691 413.982 221.774 403.714C233.858 393.446 241.731 379.789 244.11 364.968C248.146 391.686 254.423 418.09 262.889 443.952C272.172 474.993 280.933 504.305 280.933 531.423V654.258C280.942 661.083 283.951 667.626 289.3 672.452C294.65 677.278 301.903 679.993 309.468 680H459.2C466.765 679.993 474.019 677.278 479.368 672.452C484.718 667.626 487.727 661.083 487.735 654.258V523.284C487.735 495.779 496.197 484.805 515.076 460.348C530.303 441.074 541.312 419.355 547.512 396.357C548.172 393.792 548.595 391.198 549.018 388.605C556.117 399.718 566.64 408.732 579.309 414.554C591.978 420.375 606.249 422.752 620.387 421.398C634.525 420.043 647.923 415.014 658.954 406.922C669.985 398.83 678.175 388.023 682.528 375.812C696.401 374.73 709.354 369.099 718.935 359.983C728.516 350.866 734.061 338.898 734.521 326.343H743.811C754.466 326.333 764.682 322.509 772.216 315.712C779.751 308.915 783.988 299.699 784 290.087V281.594C783.988 271.981 779.751 262.765 772.216 255.967C764.682 249.169 754.467 245.344 743.811 245.333ZM49.392 309.503H40.1893C34.4832 309.497 29.0126 307.45 24.9778 303.81C20.9429 300.17 18.6733 295.235 18.6667 290.087V281.594C18.6733 276.446 20.9427 271.51 24.9774 267.869C29.0121 264.229 34.4826 262.18 40.1893 262.172H49.392V309.503ZM456.655 201.83C456.655 197.383 458.613 193.118 462.099 189.974C465.584 186.83 470.312 185.063 475.241 185.063C480.17 185.063 484.897 186.83 488.383 189.974C491.869 193.118 493.827 197.383 493.827 201.83V269.784C485.439 259.119 477.388 249.2 472.012 243.452C467.919 239.068 462.624 235.727 456.655 233.764V201.83ZM400.817 198.793C400.817 194.346 402.775 190.082 406.261 186.937C409.746 183.793 414.473 182.026 419.403 182.026C424.332 182.026 429.059 183.793 432.545 186.937C436.03 190.082 437.988 194.346 437.988 198.793V231.911C428.45 232.912 419.567 236.794 412.782 242.924C404.015 250.828 401.464 264.491 400.817 272.894V198.793ZM344.985 207.314C344.94 205.087 345.387 202.874 346.301 200.804C347.214 198.734 348.576 196.85 350.306 195.26C352.036 193.671 354.1 192.408 356.377 191.546C358.654 190.684 361.098 190.24 363.568 190.24C366.037 190.24 368.481 190.684 370.758 191.546C373.036 192.408 375.099 193.671 376.829 195.26C378.559 196.85 379.921 198.734 380.835 200.804C381.748 202.874 382.195 205.087 382.15 207.314V284.709C382.195 286.937 381.748 289.15 380.835 291.219C379.921 293.289 378.559 295.174 376.829 296.763C375.099 298.353 373.036 299.615 370.758 300.477C368.481 301.339 366.037 301.783 363.568 301.783C361.098 301.783 358.654 301.339 356.377 300.477C354.1 299.615 352.036 298.353 350.306 296.763C348.576 295.174 347.214 293.289 346.301 291.219C345.387 289.15 344.94 286.937 344.985 284.709V207.314ZM289.147 227.381C289.147 222.935 291.105 218.67 294.59 215.525C298.076 212.381 302.803 210.615 307.732 210.615C312.662 210.615 317.389 212.381 320.875 215.525C324.36 218.67 326.318 222.935 326.318 227.381V287.741C326.318 292.187 324.36 296.452 320.875 299.597C317.389 302.741 312.662 304.507 307.732 304.507C302.803 304.507 298.076 302.741 294.59 299.597C291.105 296.452 289.147 292.187 289.147 287.741V227.381ZM529.324 392.54C523.592 413.622 513.444 433.521 499.427 451.165C479.845 476.514 469.068 490.457 469.068 523.284V654.258C469.065 656.618 468.024 658.881 466.174 660.549C464.324 662.218 461.816 663.157 459.2 663.16H309.481C306.865 663.157 304.356 662.218 302.506 660.549C300.657 658.881 299.616 656.618 299.612 654.258V531.423C299.612 502.077 290.528 471.709 280.908 439.562C271.924 409.52 262.752 378.552 261.259 347.999H415.57C383.034 357.586 364.143 387.14 357.666 405.327C356.93 407.447 357.154 409.744 358.287 411.717C359.421 413.689 361.372 415.177 363.717 415.857C366.062 416.537 368.609 416.353 370.805 415.346C373 414.339 374.665 412.59 375.436 410.48C381.516 393.416 400.593 363.963 433.484 361.807C437.589 361.534 441.558 360.358 445.044 358.383C448.53 356.407 451.427 353.692 453.482 350.474C455.584 347.205 456.768 343.521 456.93 339.745C457.091 335.968 456.226 332.213 454.409 328.807C446.648 313.5 437.438 298.825 426.882 284.945C420.187 276.705 415.931 263.873 425.955 254.83C428.315 252.715 431.132 251.058 434.23 249.963C437.328 248.868 440.643 248.358 443.968 248.465C446.585 248.514 449.161 249.059 451.529 250.065C453.896 251.071 456.004 252.515 457.713 254.303C473.069 270.738 513.557 325.591 514.105 326.315C521.661 335.768 526.923 346.551 529.546 357.963C532.17 369.374 532.09 381.156 529.324 392.54ZM765.333 290.087C765.327 295.235 763.057 300.17 759.022 303.81C754.987 307.45 749.517 309.497 743.811 309.503H734.614V262.172H743.811C749.517 262.18 754.988 264.229 759.023 267.869C763.057 271.51 765.327 276.446 765.333 281.594V290.087Z" fill="black"/>
</svg>
