<svg width="823" height="585" viewBox="0 0 823 585" fill="none" xmlns="http://www.w3.org/2000/svg">
<path d="M821.099 281.126C788.447 197.299 731.844 125.581 658.734 75.4087C585.625 25.2359 499.434 -1.04201 411.5 0.0316346C323.566 -1.04201 237.375 25.2359 164.266 75.4087C91.1563 125.581 34.5525 197.299 1.90082 281.126C-0.633607 288.486 -0.633607 296.514 1.90082 303.874C34.5525 387.701 91.1563 459.419 164.266 509.591C237.375 559.764 323.566 586.042 411.5 584.968C499.434 586.042 585.625 559.764 658.734 509.591C731.844 459.419 788.447 387.701 821.099 303.874C823.634 296.514 823.634 288.486 821.099 281.126ZM411.5 487.479C373.937 487.479 337.217 476.044 305.985 454.619C274.752 433.194 250.409 402.743 236.035 367.115C221.66 331.487 217.899 292.284 225.227 254.462C232.555 216.639 250.643 181.897 277.205 154.629C303.766 127.361 337.607 108.791 374.448 101.268C411.289 93.7443 449.476 97.6055 484.18 112.363C518.884 127.12 548.546 152.111 569.415 184.176C590.284 216.24 601.422 253.937 601.422 292.5C601.422 344.212 581.413 393.805 545.795 430.371C510.178 466.937 461.87 487.479 411.5 487.479Z" fill="black"/>
<path d="M478.606 315.572C484.501 321.661 487.811 329.897 487.811 338.483C487.811 347.068 484.501 355.304 478.606 361.393C472.675 367.445 464.652 370.842 456.29 370.842C447.928 370.842 439.905 367.445 433.974 361.393L411.5 338.32L389.026 361.393C383.095 367.445 375.072 370.842 366.71 370.842C358.347 370.842 350.325 367.445 344.394 361.393C338.499 355.304 335.189 347.068 335.189 338.483C335.189 329.897 338.499 321.661 344.394 315.572L366.868 292.5L344.394 269.427C339.208 263.211 336.499 255.214 336.806 247.036C337.114 238.857 340.417 231.099 346.054 225.311C351.691 219.524 359.248 216.134 367.215 215.818C375.181 215.502 382.97 218.284 389.026 223.607L411.5 246.68L433.974 223.607C440.029 218.284 447.819 215.502 455.785 215.818C463.752 216.134 471.309 219.524 476.946 225.311C482.583 231.099 485.886 238.857 486.194 247.036C486.501 255.214 483.792 263.211 478.606 269.427L456.132 292.5L478.606 315.572Z" fill="black"/>
</svg>
