<svg width="748" height="722" viewBox="0 0 748 722" fill="none" xmlns="http://www.w3.org/2000/svg">
<path d="M592.177 30.093H561C561 13.5375 546.976 0 529.824 0C512.672 0 498.647 13.5375 498.647 30.093H249.324C249.324 13.5375 235.299 0 218.147 0C200.995 0 186.97 13.5375 186.97 30.093H155.794C69.8034 30.093 0 97.47 0 180.5V571.593C0 654.623 69.8034 722 155.824 722H592.147C678.167 722 747.971 654.623 747.971 571.593L748 180.5C748 97.47 678.197 30.093 592.177 30.093ZM171.427 616.718C128.475 616.718 93.5001 582.987 93.5001 541.5C93.5001 500.041 128.446 466.282 171.427 466.282C214.378 466.282 249.353 500.013 249.353 541.5C249.353 582.959 214.408 616.718 171.427 616.718ZM171.427 451.25C128.475 451.25 93.5001 417.519 93.5001 376.032C93.5001 334.573 128.446 300.814 171.427 300.814C214.378 300.814 249.353 334.545 249.353 376.032C249.353 417.491 214.408 451.25 171.427 451.25ZM442.809 607.888C430.654 619.649 410.902 619.649 398.747 607.888L374.028 584.028L349.309 607.888C337.125 619.62 317.402 619.62 305.247 607.888C293.063 596.155 293.063 577.09 305.247 565.358L329.966 541.498L305.247 517.638C293.063 505.877 293.063 486.84 305.247 475.108C317.402 463.347 337.154 463.347 349.309 475.108L374.028 498.968L398.747 475.108C410.931 463.347 430.654 463.347 442.809 475.108C454.993 486.868 454.993 505.905 442.809 517.638L418.09 541.498L442.809 565.358C454.993 577.118 454.993 596.155 442.809 607.888ZM374.028 451.25C331.076 451.25 296.101 417.519 296.101 376.032C296.101 334.573 331.047 300.814 374.028 300.814C416.98 300.814 451.955 334.545 451.955 376.032C451.955 417.491 417.009 451.25 374.028 451.25ZM576.602 616.718C533.65 616.718 498.675 582.987 498.675 541.5C498.675 500.041 533.621 466.282 576.602 466.282C619.553 466.282 654.528 500.013 654.528 541.5C654.528 582.959 619.582 616.718 576.602 616.718ZM576.602 451.25C533.65 451.25 498.675 417.519 498.675 376.032C498.675 334.573 533.621 300.814 576.602 300.814C619.553 300.814 654.528 334.545 654.528 376.032C654.528 417.491 619.582 451.25 576.602 451.25ZM623.352 240.657H124.675C107.465 240.657 93.4978 227.176 93.4978 210.564C93.4978 193.952 107.465 180.471 124.675 180.471L623.322 180.499C640.532 180.499 654.498 193.98 654.498 210.592C654.498 227.204 640.532 240.685 623.322 240.685L623.352 240.657Z" fill="black"/>
<path d="M389.573 376.032C389.573 396.084 358.426 396.084 358.426 376.032C358.426 355.98 389.573 355.98 389.573 376.032Z" fill="black"/>
<path d="M187 376.032C187 396.084 155.823 396.084 155.823 376.032C155.823 355.98 187 355.98 187 376.032Z" fill="black"/>
<path d="M592.177 541.5C592.177 561.552 561 561.552 561 541.5C561 521.448 592.177 521.448 592.177 541.5Z" fill="black"/>
<path d="M187 541.5C187 561.552 155.823 561.552 155.823 541.5C155.823 521.448 187 521.448 187 541.5Z" fill="black"/>
<path d="M592.177 376.032C592.177 396.084 561 396.084 561 376.032C561 355.98 592.177 355.98 592.177 376.032Z" fill="black"/>
</svg>
