<svg width="775" height="829" viewBox="0 0 775 829" fill="none" xmlns="http://www.w3.org/2000/svg">
<path d="M387.5 829C601.51 829 775 767.371 775 691.348C775 615.325 601.51 553.696 387.5 553.696C173.49 553.696 0 615.325 0 691.348C0 767.371 173.49 829 387.5 829Z" fill="black"/>
<path d="M393.781 358.794C494.536 358.794 576.214 278.475 576.214 179.397C576.214 80.3188 494.536 0 393.781 0C293.026 0 211.348 80.3188 211.348 179.397C211.348 278.475 293.026 358.794 393.781 358.794Z" fill="black"/>
<path d="M391.918 519.678C544.652 519.678 668.467 490.533 668.467 454.581C668.467 418.629 544.652 389.484 391.918 389.484C239.184 389.484 115.369 418.629 115.369 454.581C115.369 490.533 239.184 519.678 391.918 519.678Z" fill="black"/>
</svg>
